<?xml version="1.0" encoding="UTF-8" standalone="no"?>
<svg
   xmlns:dc="http://purl.org/dc/elements/1.1/"
   xmlns:cc="http://creativecommons.org/ns#"
   xmlns:rdf="http://www.w3.org/1999/02/22-rdf-syntax-ns#"
   xmlns:svg="http://www.w3.org/2000/svg"
   xmlns="http://www.w3.org/2000/svg"
   xmlns:sodipodi="http://sodipodi.sourceforge.net/DTD/sodipodi-0.dtd"
   xmlns:inkscape="http://www.inkscape.org/namespaces/inkscape"
   viewBox="0 0 512 512"
   version="1.1"
   id="svg4"
   sodipodi:docname="pin.svg"
   inkscape:version="0.92.4 (5da689c313, 2019-01-14)">
  <metadata
     id="metadata10">
    <rdf:RDF>
      <cc:Work
         rdf:about="">
        <dc:format>image/svg+xml</dc:format>
        <dc:type
           rdf:resource="http://purl.org/dc/dcmitype/StillImage" />
      </cc:Work>
    </rdf:RDF>
  </metadata>
  <defs
     id="defs8" />
  <sodipodi:namedview
     pagecolor="#ffffff"
     bordercolor="#666666"
     borderopacity="1"
     objecttolerance="10"
     gridtolerance="10"
     guidetolerance="10"
     inkscape:pageopacity="0"
     inkscape:pageshadow="2"
     inkscape:window-width="1920"
     inkscape:window-height="1051"
     id="namedview6"
     showgrid="false"
     inkscape:zoom="1.84375"
     inkscape:cx="394.21682"
     inkscape:cy="225.08112"
     inkscape:window-x="1920"
     inkscape:window-y="0"
     inkscape:window-maximized="1"
     inkscape:current-layer="svg4" />
  <path
     d="M256 32c-88.004 0-160 70.557-160 156.801C96 306.4 256 480 256 480s160-173.6 160-291.199C416 102.557 344.004 32 256 32zm0 212.801c-31.996 0-57.144-24.645-57.144-56 0-31.357 25.147-56 57.144-56s57.144 24.643 57.144 56c0 31.355-25.148 56-57.144 56z"
     id="path2" />
  <path
     style="fill:#ff2a2a;fill-opacity:1;stroke-width:2.16949153"
     d="M 238.08892,457.719 C 168.20082,375.54675 117.96382,290.57291 102.29533,228.02963 96.742586,205.865 96.292965,171.78055 101.29919,152.51525 121.22248,75.845031 195.92679,24.694868 274.09807,34.199573 c 91.96635,11.182024 155.49184,96.110927 137.6717,184.056917 -10.36279,51.14244 -43.76949,116.13622 -95.78431,186.35125 -22.13504,29.88021 -57.21315,72.2465 -59.81808,72.2465 -0.99209,0 -9.1274,-8.61087 -18.07846,-19.13524 z m 43.30992,-218.1015 c 20.09676,-9.35859 31.6551,-27.61089 31.82525,-50.25674 0.16705,-22.21879 -9.64051,-39.3412 -28.37433,-49.53742 -23.54698,-12.81588 -51.21099,-9.19415 -69.50456,9.09942 -29.79802,29.79801 -19.29956,78.00737 20.23477,92.91897 11.91982,4.49593 33.65352,3.44089 45.81887,-2.22423 z"
     id="path12"
     inkscape:connector-curvature="0" />
</svg>
