<?xml version="1.0" encoding="UTF-8" standalone="no"?>
<!DOCTYPE svg PUBLIC "-//W3C//DTD SVG 1.1//EN"
 "http://www.w3.org/Graphics/SVG/1.1/DTD/svg11.dtd">
<!-- Generated by graphviz version 2.40.1 (20161225.0304)
 -->
<!-- Title: src/application_server/animationmovement.cpp Pages: 1 -->
<svg width="461pt" height="207pt"
 viewBox="0.00 0.00 460.50 207.00" xmlns="http://www.w3.org/2000/svg" xmlns:xlink="http://www.w3.org/1999/xlink">
<g id="graph0" class="graph" transform="scale(1 1) rotate(0) translate(4 203)">
<title>src/application_server/animationmovement.cpp</title>
<polygon fill="#ffffff" stroke="transparent" points="-4,4 -4,-203 456.5,-203 456.5,4 -4,4"/>
<!-- Node1 -->
<g id="node1" class="node">
<title>Node1</title>
<g id="a_node1"><a xlink:title=" ">
<polygon fill="#bfbfbf" stroke="#000000" points="258.5,-168.5 258.5,-198.5 386.5,-198.5 386.5,-168.5 258.5,-168.5"/>
<text text-anchor="start" x="266.5" y="-186.5" font-family="Helvetica,sans-Serif" font-size="10.00" fill="#000000">src/application_server</text>
<text text-anchor="middle" x="322.5" y="-175.5" font-family="Helvetica,sans-Serif" font-size="10.00" fill="#000000">/animationmovement.cpp</text>
</a>
</g>
</g>
<!-- Node2 -->
<g id="node2" class="node">
<title>Node2</title>
<g id="a_node2"><a xlink:href="animationmovement_8h.html" target="_top" xlink:title=" ">
<polygon fill="#ffffff" stroke="#000000" points="118,-112.5 118,-131.5 233,-131.5 233,-112.5 118,-112.5"/>
<text text-anchor="middle" x="175.5" y="-119.5" font-family="Helvetica,sans-Serif" font-size="10.00" fill="#000000">animationmovement.h</text>
</a>
</g>
</g>
<!-- Node1&#45;&gt;Node2 -->
<g id="edge1" class="edge">
<title>Node1&#45;&gt;Node2</title>
<path fill="none" stroke="#191970" d="M286.5398,-168.4554C262.4427,-158.374 230.987,-145.2139 207.7097,-135.4755"/>
<polygon fill="#191970" stroke="#191970" points="208.8558,-132.1611 198.2798,-131.5303 206.1541,-138.6187 208.8558,-132.1611"/>
</g>
<!-- Node9 -->
<g id="node9" class="node">
<title>Node9</title>
<g id="a_node9"><a xlink:title=" ">
<polygon fill="#ffffff" stroke="#bfbfbf" points="251,-112.5 251,-131.5 316,-131.5 316,-112.5 251,-112.5"/>
<text text-anchor="middle" x="283.5" y="-119.5" font-family="Helvetica,sans-Serif" font-size="10.00" fill="#000000">QStringList</text>
</a>
</g>
</g>
<!-- Node1&#45;&gt;Node9 -->
<g id="edge9" class="edge">
<title>Node1&#45;&gt;Node9</title>
<path fill="none" stroke="#191970" d="M312.8595,-168.2977C307.5023,-159.8498 300.7978,-149.2773 295.1487,-140.369"/>
<polygon fill="#191970" stroke="#191970" points="298.0556,-138.4176 289.7444,-131.8469 292.1441,-142.1664 298.0556,-138.4176"/>
</g>
<!-- Node10 -->
<g id="node10" class="node">
<title>Node10</title>
<g id="a_node10"><a xlink:title=" ">
<polygon fill="#ffffff" stroke="#bfbfbf" points="334.5,-112.5 334.5,-131.5 388.5,-131.5 388.5,-112.5 334.5,-112.5"/>
<text text-anchor="middle" x="361.5" y="-119.5" font-family="Helvetica,sans-Serif" font-size="10.00" fill="#000000">QDebug</text>
</a>
</g>
</g>
<!-- Node1&#45;&gt;Node10 -->
<g id="edge10" class="edge">
<title>Node1&#45;&gt;Node10</title>
<path fill="none" stroke="#191970" d="M332.1405,-168.2977C337.4977,-159.8498 344.2022,-149.2773 349.8513,-140.369"/>
<polygon fill="#191970" stroke="#191970" points="352.8559,-142.1664 355.2556,-131.8469 346.9444,-138.4176 352.8559,-142.1664"/>
</g>
<!-- Node11 -->
<g id="node11" class="node">
<title>Node11</title>
<g id="a_node11"><a xlink:title=" ">
<polygon fill="#ffffff" stroke="#bfbfbf" points="406.5,-112.5 406.5,-131.5 452.5,-131.5 452.5,-112.5 406.5,-112.5"/>
<text text-anchor="middle" x="429.5" y="-119.5" font-family="Helvetica,sans-Serif" font-size="10.00" fill="#000000">math.h</text>
</a>
</g>
</g>
<!-- Node1&#45;&gt;Node11 -->
<g id="edge11" class="edge">
<title>Node1&#45;&gt;Node11</title>
<path fill="none" stroke="#191970" d="M348.6751,-168.4554C365.5887,-158.734 387.4829,-146.15 404.2172,-136.5317"/>
<polygon fill="#191970" stroke="#191970" points="405.993,-139.548 412.9188,-131.5303 402.5047,-133.4791 405.993,-139.548"/>
</g>
<!-- Node3 -->
<g id="node3" class="node">
<title>Node3</title>
<g id="a_node3"><a xlink:href="point_8h.html" target="_top" xlink:title=" ">
<polygon fill="#ffffff" stroke="#000000" points="0,-.5 0,-19.5 45,-19.5 45,-.5 0,-.5"/>
<text text-anchor="middle" x="22.5" y="-7.5" font-family="Helvetica,sans-Serif" font-size="10.00" fill="#000000">point.h</text>
</a>
</g>
</g>
<!-- Node2&#45;&gt;Node3 -->
<g id="edge2" class="edge">
<title>Node2&#45;&gt;Node3</title>
<path fill="none" stroke="#191970" d="M132.7687,-112.4357C97.5735,-103.7226 51.4328,-90.0972 38.5,-76 27.1795,-63.6603 23.4954,-44.6972 22.4589,-30.2586"/>
<polygon fill="#191970" stroke="#191970" points="25.943,-29.7352 22.0998,-19.862 18.9471,-29.9769 25.943,-29.7352"/>
</g>
<!-- Node4 -->
<g id="node4" class="node">
<title>Node4</title>
<g id="a_node4"><a xlink:href="animationentity_8h.html" target="_top" xlink:title=" ">
<polygon fill="#ffffff" stroke="#000000" points="47,-56.5 47,-75.5 138,-75.5 138,-56.5 47,-56.5"/>
<text text-anchor="middle" x="92.5" y="-63.5" font-family="Helvetica,sans-Serif" font-size="10.00" fill="#000000">animationentity.h</text>
</a>
</g>
</g>
<!-- Node2&#45;&gt;Node4 -->
<g id="edge3" class="edge">
<title>Node2&#45;&gt;Node4</title>
<path fill="none" stroke="#191970" d="M161.0425,-112.2455C148.4268,-103.7337 129.9056,-91.2375 115.2955,-81.3801"/>
<polygon fill="#191970" stroke="#191970" points="117.0391,-78.3343 106.7918,-75.6427 113.1239,-84.1371 117.0391,-78.3343"/>
</g>
<!-- Node6 -->
<g id="node6" class="node">
<title>Node6</title>
<g id="a_node6"><a xlink:title=" ">
<polygon fill="#ffffff" stroke="#bfbfbf" points="156,-56.5 156,-75.5 195,-75.5 195,-56.5 156,-56.5"/>
<text text-anchor="middle" x="175.5" y="-63.5" font-family="Helvetica,sans-Serif" font-size="10.00" fill="#000000">QList</text>
</a>
</g>
</g>
<!-- Node2&#45;&gt;Node6 -->
<g id="edge6" class="edge">
<title>Node2&#45;&gt;Node6</title>
<path fill="none" stroke="#191970" d="M175.5,-112.2455C175.5,-104.9382 175.5,-94.6944 175.5,-85.7046"/>
<polygon fill="#191970" stroke="#191970" points="179.0001,-85.6426 175.5,-75.6427 172.0001,-85.6427 179.0001,-85.6426"/>
</g>
<!-- Node7 -->
<g id="node7" class="node">
<title>Node7</title>
<g id="a_node7"><a xlink:title=" ">
<polygon fill="#ffffff" stroke="#bfbfbf" points="213.5,-56.5 213.5,-75.5 263.5,-75.5 263.5,-56.5 213.5,-56.5"/>
<text text-anchor="middle" x="238.5" y="-63.5" font-family="Helvetica,sans-Serif" font-size="10.00" fill="#000000">QString</text>
</a>
</g>
</g>
<!-- Node2&#45;&gt;Node7 -->
<g id="edge7" class="edge">
<title>Node2&#45;&gt;Node7</title>
<path fill="none" stroke="#191970" d="M186.4738,-112.2455C195.6882,-104.0549 209.0532,-92.1749 219.9297,-82.5069"/>
<polygon fill="#191970" stroke="#191970" points="222.5032,-84.9023 227.652,-75.6427 217.8526,-79.6704 222.5032,-84.9023"/>
</g>
<!-- Node8 -->
<g id="node8" class="node">
<title>Node8</title>
<g id="a_node8"><a xlink:title=" ">
<polygon fill="#ffffff" stroke="#bfbfbf" points="282,-56.5 282,-75.5 399,-75.5 399,-56.5 282,-56.5"/>
<text text-anchor="middle" x="340.5" y="-63.5" font-family="Helvetica,sans-Serif" font-size="10.00" fill="#000000">QGraphicsPixmapItem</text>
</a>
</g>
</g>
<!-- Node2&#45;&gt;Node8 -->
<g id="edge8" class="edge">
<title>Node2&#45;&gt;Node8</title>
<path fill="none" stroke="#191970" d="M203.8645,-112.3733C231.1827,-103.1016 272.6796,-89.0178 302.7738,-78.804"/>
<polygon fill="#191970" stroke="#191970" points="304.161,-82.0294 312.5056,-75.5011 301.9113,-75.4008 304.161,-82.0294"/>
</g>
<!-- Node4&#45;&gt;Node3 -->
<g id="edge5" class="edge">
<title>Node4&#45;&gt;Node3</title>
<path fill="none" stroke="#191970" d="M80.3069,-56.2455C69.8679,-47.8943 54.6345,-35.7076 42.426,-25.9408"/>
<polygon fill="#191970" stroke="#191970" points="44.5485,-23.1566 34.5533,-19.6427 40.1756,-28.6227 44.5485,-23.1566"/>
</g>
<!-- Node5 -->
<g id="node5" class="node">
<title>Node5</title>
<g id="a_node5"><a xlink:title=" ">
<polygon fill="#ffffff" stroke="#bfbfbf" points="66,-.5 66,-19.5 119,-19.5 119,-.5 66,-.5"/>
<text text-anchor="middle" x="92.5" y="-7.5" font-family="Helvetica,sans-Serif" font-size="10.00" fill="#000000">QImage</text>
</a>
</g>
</g>
<!-- Node4&#45;&gt;Node5 -->
<g id="edge4" class="edge">
<title>Node4&#45;&gt;Node5</title>
<path fill="none" stroke="#191970" d="M92.5,-56.2455C92.5,-48.9382 92.5,-38.6944 92.5,-29.7046"/>
<polygon fill="#191970" stroke="#191970" points="96.0001,-29.6426 92.5,-19.6427 89.0001,-29.6427 96.0001,-29.6426"/>
</g>
</g>
</svg>
