<?xml version="1.0" encoding="UTF-8" standalone="no"?>
<!DOCTYPE svg PUBLIC "-//W3C//DTD SVG 1.1//EN"
 "http://www.w3.org/Graphics/SVG/1.1/DTD/svg11.dtd">
<!-- Generated by graphviz version 2.40.1 (20161225.0304)
 -->
<!-- Title: src/application_server/animationentity.h Pages: 1 -->
<svg width="1162pt" height="508pt"
 viewBox="0.00 0.00 1162.40 508.00" xmlns="http://www.w3.org/2000/svg" xmlns:xlink="http://www.w3.org/1999/xlink">
<g id="graph0" class="graph" transform="scale(1 1) rotate(0) translate(4 504)">
<title>src/application_server/animationentity.h</title>
<polygon fill="#ffffff" stroke="transparent" points="-4,4 -4,-504 1158.4014,-504 1158.4014,4 -4,4"/>
<!-- Node1 -->
<g id="node1" class="node">
<title>Node1</title>
<g id="a_node1"><a xlink:title=" ">
<polygon fill="#bfbfbf" stroke="#000000" points="608.4014,-469.5 608.4014,-499.5 723.4014,-499.5 723.4014,-469.5 608.4014,-469.5"/>
<text text-anchor="start" x="616.4014" y="-487.5" font-family="Helvetica,sans-Serif" font-size="10.00" fill="#000000">src/application_server</text>
<text text-anchor="middle" x="665.9014" y="-476.5" font-family="Helvetica,sans-Serif" font-size="10.00" fill="#000000">/animationentity.h</text>
</a>
</g>
</g>
<!-- Node2 -->
<g id="node2" class="node">
<title>Node2</title>
<g id="a_node2"><a xlink:href="animationentity_8cpp.html" target="_top" xlink:title=" ">
<polygon fill="#ffffff" stroke="#000000" points="473.4014,-402.5 473.4014,-432.5 588.4014,-432.5 588.4014,-402.5 473.4014,-402.5"/>
<text text-anchor="start" x="481.4014" y="-420.5" font-family="Helvetica,sans-Serif" font-size="10.00" fill="#000000">src/application_server</text>
<text text-anchor="middle" x="530.9014" y="-409.5" font-family="Helvetica,sans-Serif" font-size="10.00" fill="#000000">/animationentity.cpp</text>
</a>
</g>
</g>
<!-- Node1&#45;&gt;Node2 -->
<g id="edge1" class="edge">
<title>Node1&#45;&gt;Node2</title>
<path fill="none" stroke="#191970" d="M626.4354,-464.9132C605.7458,-454.645 580.7831,-442.2561 561.564,-432.7177"/>
<polygon fill="#191970" stroke="#191970" points="625.0912,-468.1534 635.6047,-469.4639 628.2032,-461.8831 625.0912,-468.1534"/>
</g>
<!-- Node3 -->
<g id="node3" class="node">
<title>Node3</title>
<g id="a_node3"><a xlink:href="animationmovement_8h.html" target="_top" xlink:title=" ">
<polygon fill="#ffffff" stroke="#000000" points="606.9014,-402.5 606.9014,-432.5 724.9014,-432.5 724.9014,-402.5 606.9014,-402.5"/>
<text text-anchor="start" x="614.9014" y="-420.5" font-family="Helvetica,sans-Serif" font-size="10.00" fill="#000000">src/application_server</text>
<text text-anchor="middle" x="665.9014" y="-409.5" font-family="Helvetica,sans-Serif" font-size="10.00" fill="#000000">/animationmovement.h</text>
</a>
</g>
</g>
<!-- Node1&#45;&gt;Node3 -->
<g id="edge2" class="edge">
<title>Node1&#45;&gt;Node3</title>
<path fill="none" stroke="#191970" d="M665.9014,-459.0249C665.9014,-450.128 665.9014,-440.4287 665.9014,-432.6432"/>
<polygon fill="#191970" stroke="#191970" points="662.4015,-459.2966 665.9014,-469.2967 669.4015,-459.2967 662.4015,-459.2966"/>
</g>
<!-- Node23 -->
<g id="node23" class="node">
<title>Node23</title>
<g id="a_node23"><a xlink:href="scaleanimation_8h.html" target="_top" xlink:title=" ">
<polygon fill="#ffffff" stroke="#000000" points="743.4014,-402.5 743.4014,-432.5 858.4014,-432.5 858.4014,-402.5 743.4014,-402.5"/>
<text text-anchor="start" x="751.4014" y="-420.5" font-family="Helvetica,sans-Serif" font-size="10.00" fill="#000000">src/application_server</text>
<text text-anchor="middle" x="800.9014" y="-409.5" font-family="Helvetica,sans-Serif" font-size="10.00" fill="#000000">/scaleanimation.h</text>
</a>
</g>
</g>
<!-- Node1&#45;&gt;Node23 -->
<g id="edge33" class="edge">
<title>Node1&#45;&gt;Node23</title>
<path fill="none" stroke="#191970" d="M705.3673,-464.9132C726.0569,-454.645 751.0196,-442.2561 770.2388,-432.7177"/>
<polygon fill="#191970" stroke="#191970" points="703.5995,-461.8831 696.198,-469.4639 706.7115,-468.1534 703.5995,-461.8831"/>
</g>
<!-- Node4 -->
<g id="node4" class="node">
<title>Node4</title>
<g id="a_node4"><a xlink:href="animationmovement_8cpp.html" target="_top" xlink:title=" ">
<polygon fill="#ffffff" stroke="#000000" points="529.9014,-335.5 529.9014,-365.5 657.9014,-365.5 657.9014,-335.5 529.9014,-335.5"/>
<text text-anchor="start" x="537.9014" y="-353.5" font-family="Helvetica,sans-Serif" font-size="10.00" fill="#000000">src/application_server</text>
<text text-anchor="middle" x="593.9014" y="-342.5" font-family="Helvetica,sans-Serif" font-size="10.00" fill="#000000">/animationmovement.cpp</text>
</a>
</g>
</g>
<!-- Node3&#45;&gt;Node4 -->
<g id="edge3" class="edge">
<title>Node3&#45;&gt;Node4</title>
<path fill="none" stroke="#191970" d="M641.9493,-395.2113C631.5142,-385.5009 619.5525,-374.3698 610.1746,-365.6432"/>
<polygon fill="#191970" stroke="#191970" points="639.8584,-398.0466 649.5634,-402.2967 644.6271,-392.9221 639.8584,-398.0466"/>
</g>
<!-- Node5 -->
<g id="node5" class="node">
<title>Node5</title>
<g id="a_node5"><a xlink:href="maprenderer_8h.html" target="_top" xlink:title=" ">
<polygon fill="#ffffff" stroke="#000000" points="676.4014,-335.5 676.4014,-365.5 791.4014,-365.5 791.4014,-335.5 676.4014,-335.5"/>
<text text-anchor="start" x="684.4014" y="-353.5" font-family="Helvetica,sans-Serif" font-size="10.00" fill="#000000">src/application_server</text>
<text text-anchor="middle" x="733.9014" y="-342.5" font-family="Helvetica,sans-Serif" font-size="10.00" fill="#000000">/maprenderer.h</text>
</a>
</g>
</g>
<!-- Node3&#45;&gt;Node5 -->
<g id="edge4" class="edge">
<title>Node3&#45;&gt;Node5</title>
<path fill="none" stroke="#191970" d="M688.5227,-395.2113C698.3781,-385.5009 709.6753,-374.3698 718.5322,-365.6432"/>
<polygon fill="#191970" stroke="#191970" points="685.9984,-392.785 681.3316,-402.2967 690.9114,-397.7713 685.9984,-392.785"/>
</g>
<!-- Node6 -->
<g id="node6" class="node">
<title>Node6</title>
<g id="a_node6"><a xlink:href="client_8h.html" target="_top" xlink:title=" ">
<polygon fill="#ffffff" stroke="#000000" points="195.4014,-268.5 195.4014,-298.5 310.4014,-298.5 310.4014,-268.5 195.4014,-268.5"/>
<text text-anchor="start" x="203.4014" y="-286.5" font-family="Helvetica,sans-Serif" font-size="10.00" fill="#000000">src/application_server</text>
<text text-anchor="middle" x="252.9014" y="-275.5" font-family="Helvetica,sans-Serif" font-size="10.00" fill="#000000">/client.h</text>
</a>
</g>
</g>
<!-- Node5&#45;&gt;Node6 -->
<g id="edge5" class="edge">
<title>Node5&#45;&gt;Node6</title>
<path fill="none" stroke="#191970" d="M666.2698,-335.0034C533.2197,-311.7988 388.7037,-296.3271 310.4421,-288.7566"/>
<polygon fill="#191970" stroke="#191970" points="665.78,-338.471 676.2357,-336.76 666.9951,-331.5772 665.78,-338.471"/>
</g>
<!-- Node9 -->
<g id="node9" class="node">
<title>Node9</title>
<g id="a_node9"><a xlink:href="main_8cpp.html" target="_top" xlink:title=" ">
<polygon fill="#ffffff" stroke="#000000" points="719.4014,-.5 719.4014,-30.5 834.4014,-30.5 834.4014,-.5 719.4014,-.5"/>
<text text-anchor="start" x="727.4014" y="-18.5" font-family="Helvetica,sans-Serif" font-size="10.00" fill="#000000">src/application_server</text>
<text text-anchor="middle" x="776.9014" y="-7.5" font-family="Helvetica,sans-Serif" font-size="10.00" fill="#000000">/main.cpp</text>
</a>
</g>
</g>
<!-- Node5&#45;&gt;Node9 -->
<g id="edge28" class="edge">
<title>Node5&#45;&gt;Node9</title>
<path fill="none" stroke="#191970" d="M801.254,-333.0735C841.1174,-322.2293 887.3484,-308.5738 905.9014,-299 958.6417,-271.7846 1010.9014,-275.8483 1010.9014,-216.5 1010.9014,-216.5 1010.9014,-216.5 1010.9014,-149.5 1010.9014,-68.3938 903.7291,-35.694 834.4439,-23.0285"/>
<polygon fill="#191970" stroke="#191970" points="800.2849,-329.7097 791.5424,-335.6947 802.109,-336.4679 800.2849,-329.7097"/>
</g>
<!-- Node11 -->
<g id="node11" class="node">
<title>Node11</title>
<g id="a_node11"><a xlink:href="menubar_8h.html" target="_top" xlink:title=" ">
<polygon fill="#ffffff" stroke="#000000" points="66.4014,-134.5 66.4014,-164.5 181.4014,-164.5 181.4014,-134.5 66.4014,-134.5"/>
<text text-anchor="start" x="74.4014" y="-152.5" font-family="Helvetica,sans-Serif" font-size="10.00" fill="#000000">src/application_server</text>
<text text-anchor="middle" x="123.9014" y="-141.5" font-family="Helvetica,sans-Serif" font-size="10.00" fill="#000000">/menubar.h</text>
</a>
</g>
</g>
<!-- Node5&#45;&gt;Node11 -->
<g id="edge20" class="edge">
<title>Node5&#45;&gt;Node11</title>
<path fill="none" stroke="#191970" d="M666.0596,-335.2161C544.7723,-321.2211 270.2926,-360.0394 185.9014,-299 141.2777,-266.7241 128.6408,-196.2365 125.1684,-164.9684"/>
<polygon fill="#191970" stroke="#191970" points="665.8906,-338.7245 676.2657,-336.5781 666.8166,-331.786 665.8906,-338.7245"/>
</g>
<!-- Node14 -->
<g id="node14" class="node">
<title>Node14</title>
<g id="a_node14"><a xlink:href="gameloop_8h.html" target="_top" xlink:title=" ">
<polygon fill="#ffffff" stroke="#000000" points="676.4014,-201.5 676.4014,-231.5 791.4014,-231.5 791.4014,-201.5 676.4014,-201.5"/>
<text text-anchor="start" x="684.4014" y="-219.5" font-family="Helvetica,sans-Serif" font-size="10.00" fill="#000000">src/application_server</text>
<text text-anchor="middle" x="733.9014" y="-208.5" font-family="Helvetica,sans-Serif" font-size="10.00" fill="#000000">/gameloop.h</text>
</a>
</g>
</g>
<!-- Node5&#45;&gt;Node14 -->
<g id="edge27" class="edge">
<title>Node5&#45;&gt;Node14</title>
<path fill="none" stroke="#191970" d="M733.9014,-325.3415C733.9014,-297.8131 733.9014,-254.5714 733.9014,-231.7614"/>
<polygon fill="#191970" stroke="#191970" points="730.4015,-325.3889 733.9014,-335.389 737.4015,-325.389 730.4015,-325.3889"/>
</g>
<!-- Node16 -->
<g id="node16" class="node">
<title>Node16</title>
<g id="a_node16"><a xlink:href="minimap_8h.html" target="_top" xlink:title=" ">
<polygon fill="#ffffff" stroke="#000000" points="543.4014,-201.5 543.4014,-231.5 658.4014,-231.5 658.4014,-201.5 543.4014,-201.5"/>
<text text-anchor="start" x="551.4014" y="-219.5" font-family="Helvetica,sans-Serif" font-size="10.00" fill="#000000">src/application_server</text>
<text text-anchor="middle" x="600.9014" y="-208.5" font-family="Helvetica,sans-Serif" font-size="10.00" fill="#000000">/minimap.h</text>
</a>
</g>
</g>
<!-- Node5&#45;&gt;Node16 -->
<g id="edge21" class="edge">
<title>Node5&#45;&gt;Node16</title>
<path fill="none" stroke="#191970" d="M711.772,-328.2042C684.6716,-300.9001 639.49,-255.3788 616.0489,-231.7614"/>
<polygon fill="#191970" stroke="#191970" points="709.3744,-330.757 718.9031,-335.389 714.3427,-325.8258 709.3744,-330.757"/>
</g>
<!-- Node20 -->
<g id="node20" class="node">
<title>Node20</title>
<g id="a_node20"><a xlink:href="renderthread_8h.html" target="_top" xlink:title=" ">
<polygon fill="#ffffff" stroke="#000000" points="781.4014,-268.5 781.4014,-298.5 896.4014,-298.5 896.4014,-268.5 781.4014,-268.5"/>
<text text-anchor="start" x="789.4014" y="-286.5" font-family="Helvetica,sans-Serif" font-size="10.00" fill="#000000">src/application_server</text>
<text text-anchor="middle" x="838.9014" y="-275.5" font-family="Helvetica,sans-Serif" font-size="10.00" fill="#000000">/renderthread.h</text>
</a>
</g>
</g>
<!-- Node5&#45;&gt;Node20 -->
<g id="edge29" class="edge">
<title>Node5&#45;&gt;Node20</title>
<path fill="none" stroke="#191970" d="M765.909,-330.0761C781.7352,-319.9774 800.5084,-307.9983 815.0527,-298.7177"/>
<polygon fill="#191970" stroke="#191970" points="764.0127,-327.1342 757.4654,-335.4639 767.7781,-333.0352 764.0127,-327.1342"/>
</g>
<!-- Node22 -->
<g id="node22" class="node">
<title>Node22</title>
<g id="a_node22"><a xlink:href="maprenderer_8cpp.html" target="_top" xlink:title=" ">
<polygon fill="#ffffff" stroke="#000000" points="1039.4014,-268.5 1039.4014,-298.5 1154.4014,-298.5 1154.4014,-268.5 1039.4014,-268.5"/>
<text text-anchor="start" x="1047.4014" y="-286.5" font-family="Helvetica,sans-Serif" font-size="10.00" fill="#000000">src/application_server</text>
<text text-anchor="middle" x="1096.9014" y="-275.5" font-family="Helvetica,sans-Serif" font-size="10.00" fill="#000000">/maprenderer.cpp</text>
</a>
</g>
</g>
<!-- Node5&#45;&gt;Node22 -->
<g id="edge32" class="edge">
<title>Node5&#45;&gt;Node22</title>
<path fill="none" stroke="#191970" d="M801.5049,-334.9646C901.5486,-315.7297 928.8987,-317.0352 1024.9014,-299 1029.551,-298.1265 1034.3606,-297.1817 1039.1868,-296.2045"/>
<polygon fill="#191970" stroke="#191970" points="800.74,-331.5477 791.5915,-336.8915 802.0756,-338.4191 800.74,-331.5477"/>
</g>
<!-- Node7 -->
<g id="node7" class="node">
<title>Node7</title>
<g id="a_node7"><a xlink:href="client_8cpp.html" target="_top" xlink:title=" ">
<polygon fill="#ffffff" stroke="#000000" points="48.4014,-.5 48.4014,-30.5 163.4014,-30.5 163.4014,-.5 48.4014,-.5"/>
<text text-anchor="start" x="56.4014" y="-18.5" font-family="Helvetica,sans-Serif" font-size="10.00" fill="#000000">src/application_server</text>
<text text-anchor="middle" x="105.9014" y="-7.5" font-family="Helvetica,sans-Serif" font-size="10.00" fill="#000000">/client.cpp</text>
</a>
</g>
</g>
<!-- Node6&#45;&gt;Node7 -->
<g id="edge6" class="edge">
<title>Node6&#45;&gt;Node7</title>
<path fill="none" stroke="#191970" d="M185.2152,-275.7248C151.3702,-268.8955 111.6165,-256.0725 82.9014,-232 22.1178,-181.0439 -25.0522,-135.5191 14.9014,-67 24.5941,-50.3772 41.8618,-38.6906 58.7697,-30.7023"/>
<polygon fill="#191970" stroke="#191970" points="184.5739,-279.1655 195.049,-277.5771 185.8696,-272.2865 184.5739,-279.1655"/>
</g>
<!-- Node8 -->
<g id="node8" class="node">
<title>Node8</title>
<g id="a_node8"><a xlink:href="main_8h.html" target="_top" xlink:title=" ">
<polygon fill="#ffffff" stroke="#000000" points="157.4014,-67.5 157.4014,-97.5 272.4014,-97.5 272.4014,-67.5 157.4014,-67.5"/>
<text text-anchor="start" x="165.4014" y="-85.5" font-family="Helvetica,sans-Serif" font-size="10.00" fill="#000000">src/application_server</text>
<text text-anchor="middle" x="214.9014" y="-74.5" font-family="Helvetica,sans-Serif" font-size="10.00" fill="#000000">/main.h</text>
</a>
</g>
</g>
<!-- Node6&#45;&gt;Node8 -->
<g id="edge7" class="edge">
<title>Node6&#45;&gt;Node8</title>
<path fill="none" stroke="#191970" d="M239.438,-259.0869C235.3996,-250.7289 231.3872,-241.1695 228.9014,-232 215.9417,-184.1955 214.5072,-124.9999 214.629,-97.6546"/>
<polygon fill="#191970" stroke="#191970" points="236.4466,-260.9259 244.1009,-268.2514 242.6855,-257.7515 236.4466,-260.9259"/>
</g>
<!-- Node10 -->
<g id="node10" class="node">
<title>Node10</title>
<g id="a_node10"><a xlink:href="routeinterface_8h.html" target="_top" xlink:title=" ">
<polygon fill="#ffffff" stroke="#000000" points="238.4014,-201.5 238.4014,-231.5 353.4014,-231.5 353.4014,-201.5 238.4014,-201.5"/>
<text text-anchor="start" x="246.4014" y="-219.5" font-family="Helvetica,sans-Serif" font-size="10.00" fill="#000000">src/application_server</text>
<text text-anchor="middle" x="295.9014" y="-208.5" font-family="Helvetica,sans-Serif" font-size="10.00" fill="#000000">/routeinterface.h</text>
</a>
</g>
</g>
<!-- Node6&#45;&gt;Node10 -->
<g id="edge10" class="edge">
<title>Node6&#45;&gt;Node10</title>
<path fill="none" stroke="#191970" d="M268.1288,-259.7735C274.1348,-250.4154 280.8565,-239.9421 286.1826,-231.6432"/>
<polygon fill="#191970" stroke="#191970" points="265.1144,-257.9903 262.6587,-268.2967 271.0056,-261.7712 265.1144,-257.9903"/>
</g>
<!-- Node12 -->
<g id="node12" class="node">
<title>Node12</title>
<g id="a_node12"><a xlink:href="menubar_8cpp.html" target="_top" xlink:title=" ">
<polygon fill="#ffffff" stroke="#000000" points="24.4014,-67.5 24.4014,-97.5 139.4014,-97.5 139.4014,-67.5 24.4014,-67.5"/>
<text text-anchor="start" x="32.4014" y="-85.5" font-family="Helvetica,sans-Serif" font-size="10.00" fill="#000000">src/application_server</text>
<text text-anchor="middle" x="81.9014" y="-74.5" font-family="Helvetica,sans-Serif" font-size="10.00" fill="#000000">/menubar.cpp</text>
</a>
</g>
</g>
<!-- Node6&#45;&gt;Node12 -->
<g id="edge19" class="edge">
<title>Node6&#45;&gt;Node12</title>
<path fill="none" stroke="#191970" d="M191.7761,-264.8825C145.6299,-247.2461 85.5318,-215.7662 56.9014,-165 44.6238,-143.2301 59.0034,-114.755 70.4857,-97.5872"/>
<polygon fill="#191970" stroke="#191970" points="190.8018,-268.2538 201.3951,-268.4378 193.2287,-261.6879 190.8018,-268.2538"/>
</g>
<!-- Node6&#45;&gt;Node14 -->
<g id="edge16" class="edge">
<title>Node6&#45;&gt;Node14</title>
<path fill="none" stroke="#191970" d="M320.4068,-277.2715C402.6229,-269.1871 545.5554,-253.5241 666.9014,-232 669.9578,-231.4578 673.0846,-230.8659 676.2357,-230.24"/>
<polygon fill="#191970" stroke="#191970" points="320.0551,-273.7891 310.4421,-278.2434 320.7347,-280.756 320.0551,-273.7891"/>
</g>
<!-- Node8&#45;&gt;Node7 -->
<g id="edge8" class="edge">
<title>Node8&#45;&gt;Node7</title>
<path fill="none" stroke="#191970" d="M181.6744,-62.0761C165.2453,-51.9774 145.7569,-39.9983 130.6586,-30.7177"/>
<polygon fill="#191970" stroke="#191970" points="180.0875,-65.209 190.4396,-67.4639 183.7532,-59.2455 180.0875,-65.209"/>
</g>
<!-- Node8&#45;&gt;Node9 -->
<g id="edge9" class="edge">
<title>Node8&#45;&gt;Node9</title>
<path fill="none" stroke="#191970" d="M282.5181,-74.4389C393.9828,-61.1504 614.3644,-34.8772 719.0598,-22.3957"/>
<polygon fill="#191970" stroke="#191970" points="281.9194,-70.9854 272.4041,-75.6447 282.7482,-77.9362 281.9194,-70.9854"/>
</g>
<!-- Node10&#45;&gt;Node9 -->
<g id="edge14" class="edge">
<title>Node10&#45;&gt;Node9</title>
<path fill="none" stroke="#191970" d="M323.4828,-195.067C335.3282,-185.8392 349.3139,-174.9134 361.9014,-165 379.2965,-151.3003 382.2495,-145.9323 400.9014,-134 456.6561,-98.3315 471.4528,-88.9322 533.9014,-67 595.5439,-45.3509 669.3311,-31.289 719.2998,-23.4162"/>
<polygon fill="#191970" stroke="#191970" points="321.0275,-192.5428 315.2864,-201.4474 325.3274,-198.0665 321.0275,-192.5428"/>
</g>
<!-- Node10&#45;&gt;Node11 -->
<g id="edge11" class="edge">
<title>Node10&#45;&gt;Node11</title>
<path fill="none" stroke="#191970" d="M247.7092,-197.7275C220.849,-187.2645 187.8454,-174.4084 162.6699,-164.6017"/>
<polygon fill="#191970" stroke="#191970" points="246.7128,-201.0954 257.3012,-201.4639 249.2536,-194.5728 246.7128,-201.0954"/>
</g>
<!-- Node13 -->
<g id="node13" class="node">
<title>Node13</title>
<g id="a_node13"><a xlink:href="routeinterface_8cpp.html" target="_top" xlink:title=" ">
<polygon fill="#ffffff" stroke="#000000" points="238.4014,-134.5 238.4014,-164.5 353.4014,-164.5 353.4014,-134.5 238.4014,-134.5"/>
<text text-anchor="start" x="246.4014" y="-152.5" font-family="Helvetica,sans-Serif" font-size="10.00" fill="#000000">src/application_server</text>
<text text-anchor="middle" x="295.9014" y="-141.5" font-family="Helvetica,sans-Serif" font-size="10.00" fill="#000000">/routeinterface.cpp</text>
</a>
</g>
</g>
<!-- Node10&#45;&gt;Node13 -->
<g id="edge15" class="edge">
<title>Node10&#45;&gt;Node13</title>
<path fill="none" stroke="#191970" d="M295.9014,-191.0249C295.9014,-182.128 295.9014,-172.4287 295.9014,-164.6432"/>
<polygon fill="#191970" stroke="#191970" points="292.4015,-191.2966 295.9014,-201.2967 299.4015,-191.2967 292.4015,-191.2966"/>
</g>
<!-- Node11&#45;&gt;Node8 -->
<g id="edge12" class="edge">
<title>Node11&#45;&gt;Node8</title>
<path fill="none" stroke="#191970" d="M152.6317,-128.3469C166.1721,-118.3776 182.0163,-106.7121 194.3338,-97.6432"/>
<polygon fill="#191970" stroke="#191970" points="150.5283,-125.5492 144.5507,-134.2967 154.6786,-131.1861 150.5283,-125.5492"/>
</g>
<!-- Node11&#45;&gt;Node12 -->
<g id="edge13" class="edge">
<title>Node11&#45;&gt;Node12</title>
<path fill="none" stroke="#191970" d="M109.028,-125.7735C103.1617,-116.4154 96.5964,-105.9421 91.3941,-97.6432"/>
<polygon fill="#191970" stroke="#191970" points="106.094,-127.6828 114.3709,-134.2967 112.025,-123.9648 106.094,-127.6828"/>
</g>
<!-- Node14&#45;&gt;Node9 -->
<g id="edge18" class="edge">
<title>Node14&#45;&gt;Node9</title>
<path fill="none" stroke="#191970" d="M772.8217,-195.8045C783.9667,-187.781 794.7533,-177.4802 800.9014,-165 823.0892,-119.9601 798.8089,-58.9081 785.0486,-30.8088"/>
<polygon fill="#191970" stroke="#191970" points="770.6729,-193.0307 764.3,-201.4946 774.5601,-198.8523 770.6729,-193.0307"/>
</g>
<!-- Node15 -->
<g id="node15" class="node">
<title>Node15</title>
<g id="a_node15"><a xlink:href="gameloop_8cpp.html" target="_top" xlink:title=" ">
<polygon fill="#ffffff" stroke="#000000" points="676.4014,-134.5 676.4014,-164.5 791.4014,-164.5 791.4014,-134.5 676.4014,-134.5"/>
<text text-anchor="start" x="684.4014" y="-152.5" font-family="Helvetica,sans-Serif" font-size="10.00" fill="#000000">src/application_server</text>
<text text-anchor="middle" x="733.9014" y="-141.5" font-family="Helvetica,sans-Serif" font-size="10.00" fill="#000000">/gameloop.cpp</text>
</a>
</g>
</g>
<!-- Node14&#45;&gt;Node15 -->
<g id="edge17" class="edge">
<title>Node14&#45;&gt;Node15</title>
<path fill="none" stroke="#191970" d="M733.9014,-191.0249C733.9014,-182.128 733.9014,-172.4287 733.9014,-164.6432"/>
<polygon fill="#191970" stroke="#191970" points="730.4015,-191.2966 733.9014,-201.2967 737.4015,-191.2967 730.4015,-191.2966"/>
</g>
<!-- Node17 -->
<g id="node17" class="node">
<title>Node17</title>
<g id="a_node17"><a xlink:href="sidepanel_8h.html" target="_top" xlink:title=" ">
<polygon fill="#ffffff" stroke="#000000" points="543.4014,-134.5 543.4014,-164.5 658.4014,-164.5 658.4014,-134.5 543.4014,-134.5"/>
<text text-anchor="start" x="551.4014" y="-152.5" font-family="Helvetica,sans-Serif" font-size="10.00" fill="#000000">src/application_server</text>
<text text-anchor="middle" x="600.9014" y="-141.5" font-family="Helvetica,sans-Serif" font-size="10.00" fill="#000000">/sidepanel.h</text>
</a>
</g>
</g>
<!-- Node16&#45;&gt;Node17 -->
<g id="edge22" class="edge">
<title>Node16&#45;&gt;Node17</title>
<path fill="none" stroke="#191970" d="M600.9014,-191.0249C600.9014,-182.128 600.9014,-172.4287 600.9014,-164.6432"/>
<polygon fill="#191970" stroke="#191970" points="597.4015,-191.2966 600.9014,-201.2967 604.4015,-191.2967 597.4015,-191.2966"/>
</g>
<!-- Node19 -->
<g id="node19" class="node">
<title>Node19</title>
<g id="a_node19"><a xlink:href="minimap_8cpp.html" target="_top" xlink:title=" ">
<polygon fill="#ffffff" stroke="#000000" points="410.4014,-134.5 410.4014,-164.5 525.4014,-164.5 525.4014,-134.5 410.4014,-134.5"/>
<text text-anchor="start" x="418.4014" y="-152.5" font-family="Helvetica,sans-Serif" font-size="10.00" fill="#000000">src/application_server</text>
<text text-anchor="middle" x="467.9014" y="-141.5" font-family="Helvetica,sans-Serif" font-size="10.00" fill="#000000">/minimap.cpp</text>
</a>
</g>
</g>
<!-- Node16&#45;&gt;Node19 -->
<g id="edge26" class="edge">
<title>Node16&#45;&gt;Node19</title>
<path fill="none" stroke="#191970" d="M562.0201,-196.9132C541.637,-186.645 517.0441,-174.2561 498.1097,-164.7177"/>
<polygon fill="#191970" stroke="#191970" points="560.5481,-200.0906 571.0536,-201.4639 563.6974,-193.8391 560.5481,-200.0906"/>
</g>
<!-- Node17&#45;&gt;Node8 -->
<g id="edge23" class="edge">
<title>Node17&#45;&gt;Node8</title>
<path fill="none" stroke="#191970" d="M533.2033,-133.9396C435.9094,-115.0827 334.3578,-99.5808 272.4463,-90.5994"/>
<polygon fill="#191970" stroke="#191970" points="532.7252,-137.4122 543.2107,-135.8941 534.0671,-130.5421 532.7252,-137.4122"/>
</g>
<!-- Node17&#45;&gt;Node9 -->
<g id="edge24" class="edge">
<title>Node17&#45;&gt;Node9</title>
<path fill="none" stroke="#191970" d="M628.8408,-128.2279C664.6383,-100.973 725.7959,-54.4098 757.1266,-30.5558"/>
<polygon fill="#191970" stroke="#191970" points="626.5849,-125.5465 620.7487,-134.389 630.8253,-131.116 626.5849,-125.5465"/>
</g>
<!-- Node18 -->
<g id="node18" class="node">
<title>Node18</title>
<g id="a_node18"><a xlink:href="sidepanel_8cpp.html" target="_top" xlink:title=" ">
<polygon fill="#ffffff" stroke="#000000" points="543.4014,-67.5 543.4014,-97.5 658.4014,-97.5 658.4014,-67.5 543.4014,-67.5"/>
<text text-anchor="start" x="551.4014" y="-85.5" font-family="Helvetica,sans-Serif" font-size="10.00" fill="#000000">src/application_server</text>
<text text-anchor="middle" x="600.9014" y="-74.5" font-family="Helvetica,sans-Serif" font-size="10.00" fill="#000000">/sidepanel.cpp</text>
</a>
</g>
</g>
<!-- Node17&#45;&gt;Node18 -->
<g id="edge25" class="edge">
<title>Node17&#45;&gt;Node18</title>
<path fill="none" stroke="#191970" d="M600.9014,-124.0249C600.9014,-115.128 600.9014,-105.4287 600.9014,-97.6432"/>
<polygon fill="#191970" stroke="#191970" points="597.4015,-124.2966 600.9014,-134.2967 604.4015,-124.2967 597.4015,-124.2966"/>
</g>
<!-- Node20&#45;&gt;Node9 -->
<g id="edge30" class="edge">
<title>Node20&#45;&gt;Node9</title>
<path fill="none" stroke="#191970" d="M840.7285,-258.3491C842.7989,-216.8641 843.0044,-132.1982 816.9014,-67 811.4312,-53.337 801.2017,-40.27 792.4572,-30.717"/>
<polygon fill="#191970" stroke="#191970" points="837.231,-258.2055 840.1462,-268.3914 844.2193,-258.6108 837.231,-258.2055"/>
</g>
<!-- Node21 -->
<g id="node21" class="node">
<title>Node21</title>
<g id="a_node21"><a xlink:href="renderthread_8cpp.html" target="_top" xlink:title=" ">
<polygon fill="#ffffff" stroke="#000000" points="867.4014,-201.5 867.4014,-231.5 982.4014,-231.5 982.4014,-201.5 867.4014,-201.5"/>
<text text-anchor="start" x="875.4014" y="-219.5" font-family="Helvetica,sans-Serif" font-size="10.00" fill="#000000">src/application_server</text>
<text text-anchor="middle" x="924.9014" y="-208.5" font-family="Helvetica,sans-Serif" font-size="10.00" fill="#000000">/renderthread.cpp</text>
</a>
</g>
</g>
<!-- Node20&#45;&gt;Node21 -->
<g id="edge31" class="edge">
<title>Node20&#45;&gt;Node21</title>
<path fill="none" stroke="#191970" d="M866.4158,-262.0643C879.1318,-252.1577 893.933,-240.6265 905.4639,-231.6432"/>
<polygon fill="#191970" stroke="#191970" points="864.1537,-259.3899 858.4161,-268.2967 868.4557,-264.9119 864.1537,-259.3899"/>
</g>
<!-- Node23&#45;&gt;Node5 -->
<g id="edge34" class="edge">
<title>Node23&#45;&gt;Node5</title>
<path fill="none" stroke="#191970" d="M778.6127,-395.2113C768.9022,-385.5009 757.7712,-374.3698 749.0445,-365.6432"/>
<polygon fill="#191970" stroke="#191970" points="776.152,-397.7004 785.698,-402.2967 781.1018,-392.7507 776.152,-397.7004"/>
</g>
<!-- Node24 -->
<g id="node24" class="node">
<title>Node24</title>
<g id="a_node24"><a xlink:href="scaleanimation_8cpp.html" target="_top" xlink:title=" ">
<polygon fill="#ffffff" stroke="#000000" points="809.4014,-335.5 809.4014,-365.5 924.4014,-365.5 924.4014,-335.5 809.4014,-335.5"/>
<text text-anchor="start" x="817.4014" y="-353.5" font-family="Helvetica,sans-Serif" font-size="10.00" fill="#000000">src/application_server</text>
<text text-anchor="middle" x="866.9014" y="-342.5" font-family="Helvetica,sans-Serif" font-size="10.00" fill="#000000">/scaleanimation.cpp</text>
</a>
</g>
</g>
<!-- Node23&#45;&gt;Node24 -->
<g id="edge35" class="edge">
<title>Node23&#45;&gt;Node24</title>
<path fill="none" stroke="#191970" d="M823.1391,-394.9253C832.6377,-385.2828 843.4721,-374.2843 851.9842,-365.6432"/>
<polygon fill="#191970" stroke="#191970" points="820.4021,-392.7164 815.8778,-402.2967 825.3889,-397.6288 820.4021,-392.7164"/>
</g>
</g>
</svg>
