<?xml version="1.0" encoding="UTF-8" standalone="no"?>
<!DOCTYPE svg PUBLIC "-//W3C//DTD SVG 1.1//EN"
 "http://www.w3.org/Graphics/SVG/1.1/DTD/svg11.dtd">
<!-- Generated by graphviz version 2.40.1 (20161225.0304)
 -->
<!-- Title: src/application_server/animationentity.h Pages: 1 -->
<svg width="1162pt" height="508pt"
 viewBox="0.00 0.00 1162.40 508.00" xmlns="http://www.w3.org/2000/svg" xmlns:xlink="http://www.w3.org/1999/xlink">
<g id="graph0" class="graph" transform="scale(1 1) rotate(0) translate(4 504)">
<title>src/application_server/animationentity.h</title>
<polygon fill="#ffffff" stroke="transparent" points="-4,4 -4,-504 1158.4014,-504 1158.4014,4 -4,4"/>
<!-- Node1 -->
<g id="node1" class="node">
<title>Node1</title>
<g id="a_node1"><a xlink:title=" ">
<polygon fill="#bfbfbf" stroke="#000000" points="538.4014,-469.5 538.4014,-499.5 653.4014,-499.5 653.4014,-469.5 538.4014,-469.5"/>
<text text-anchor="start" x="546.4014" y="-487.5" font-family="Helvetica,sans-Serif" font-size="10.00" fill="#000000">src/application_server</text>
<text text-anchor="middle" x="595.9014" y="-476.5" font-family="Helvetica,sans-Serif" font-size="10.00" fill="#000000">/animationentity.h</text>
</a>
</g>
</g>
<!-- Node2 -->
<g id="node2" class="node">
<title>Node2</title>
<g id="a_node2"><a xlink:href="animationentity_8cpp.html" target="_top" xlink:title=" ">
<polygon fill="#ffffff" stroke="#000000" points="471.4014,-402.5 471.4014,-432.5 586.4014,-432.5 586.4014,-402.5 471.4014,-402.5"/>
<text text-anchor="start" x="479.4014" y="-420.5" font-family="Helvetica,sans-Serif" font-size="10.00" fill="#000000">src/application_server</text>
<text text-anchor="middle" x="528.9014" y="-409.5" font-family="Helvetica,sans-Serif" font-size="10.00" fill="#000000">/animationentity.cpp</text>
</a>
</g>
</g>
<!-- Node1&#45;&gt;Node2 -->
<g id="edge1" class="edge">
<title>Node1&#45;&gt;Node2</title>
<path fill="none" stroke="#191970" d="M573.6127,-462.2113C563.9022,-452.5009 552.7712,-441.3698 544.0445,-432.6432"/>
<polygon fill="#191970" stroke="#191970" points="571.152,-464.7004 580.698,-469.2967 576.1018,-459.7507 571.152,-464.7004"/>
</g>
<!-- Node3 -->
<g id="node3" class="node">
<title>Node3</title>
<g id="a_node3"><a xlink:href="animationmovement_8h.html" target="_top" xlink:title=" ">
<polygon fill="#ffffff" stroke="#000000" points="604.9014,-402.5 604.9014,-432.5 722.9014,-432.5 722.9014,-402.5 604.9014,-402.5"/>
<text text-anchor="start" x="612.9014" y="-420.5" font-family="Helvetica,sans-Serif" font-size="10.00" fill="#000000">src/application_server</text>
<text text-anchor="middle" x="663.9014" y="-409.5" font-family="Helvetica,sans-Serif" font-size="10.00" fill="#000000">/animationmovement.h</text>
</a>
</g>
</g>
<!-- Node1&#45;&gt;Node3 -->
<g id="edge2" class="edge">
<title>Node1&#45;&gt;Node3</title>
<path fill="none" stroke="#191970" d="M618.5227,-462.2113C628.3781,-452.5009 639.6753,-441.3698 648.5322,-432.6432"/>
<polygon fill="#191970" stroke="#191970" points="615.9984,-459.785 611.3316,-469.2967 620.9114,-464.7713 615.9984,-459.785"/>
</g>
<!-- Node4 -->
<g id="node4" class="node">
<title>Node4</title>
<g id="a_node4"><a xlink:href="animationmovement_8cpp.html" target="_top" xlink:title=" ">
<polygon fill="#ffffff" stroke="#000000" points="529.9014,-335.5 529.9014,-365.5 657.9014,-365.5 657.9014,-335.5 529.9014,-335.5"/>
<text text-anchor="start" x="537.9014" y="-353.5" font-family="Helvetica,sans-Serif" font-size="10.00" fill="#000000">src/application_server</text>
<text text-anchor="middle" x="593.9014" y="-342.5" font-family="Helvetica,sans-Serif" font-size="10.00" fill="#000000">/animationmovement.cpp</text>
</a>
</g>
</g>
<!-- Node3&#45;&gt;Node4 -->
<g id="edge3" class="edge">
<title>Node3&#45;&gt;Node4</title>
<path fill="none" stroke="#191970" d="M640.6147,-395.2113C630.4694,-385.5009 618.84,-374.3698 609.7226,-365.6432"/>
<polygon fill="#191970" stroke="#191970" points="638.373,-397.9105 648.0173,-402.2967 643.2132,-392.8536 638.373,-397.9105"/>
</g>
<!-- Node5 -->
<g id="node5" class="node">
<title>Node5</title>
<g id="a_node5"><a xlink:href="maprenderer_8h.html" target="_top" xlink:title=" ">
<polygon fill="#ffffff" stroke="#000000" points="676.4014,-335.5 676.4014,-365.5 791.4014,-365.5 791.4014,-335.5 676.4014,-335.5"/>
<text text-anchor="start" x="684.4014" y="-353.5" font-family="Helvetica,sans-Serif" font-size="10.00" fill="#000000">src/application_server</text>
<text text-anchor="middle" x="733.9014" y="-342.5" font-family="Helvetica,sans-Serif" font-size="10.00" fill="#000000">/maprenderer.h</text>
</a>
</g>
</g>
<!-- Node3&#45;&gt;Node5 -->
<g id="edge4" class="edge">
<title>Node3&#45;&gt;Node5</title>
<path fill="none" stroke="#191970" d="M687.1881,-395.2113C697.3333,-385.5009 708.9627,-374.3698 718.0801,-365.6432"/>
<polygon fill="#191970" stroke="#191970" points="684.5895,-392.8536 679.7854,-402.2967 689.4298,-397.9105 684.5895,-392.8536"/>
</g>
<!-- Node6 -->
<g id="node6" class="node">
<title>Node6</title>
<g id="a_node6"><a xlink:href="client_8h.html" target="_top" xlink:title=" ">
<polygon fill="#ffffff" stroke="#000000" points="195.4014,-268.5 195.4014,-298.5 310.4014,-298.5 310.4014,-268.5 195.4014,-268.5"/>
<text text-anchor="start" x="203.4014" y="-286.5" font-family="Helvetica,sans-Serif" font-size="10.00" fill="#000000">src/application_server</text>
<text text-anchor="middle" x="252.9014" y="-275.5" font-family="Helvetica,sans-Serif" font-size="10.00" fill="#000000">/client.h</text>
</a>
</g>
</g>
<!-- Node5&#45;&gt;Node6 -->
<g id="edge5" class="edge">
<title>Node5&#45;&gt;Node6</title>
<path fill="none" stroke="#191970" d="M666.2698,-335.0034C533.2197,-311.7988 388.7037,-296.3271 310.4421,-288.7566"/>
<polygon fill="#191970" stroke="#191970" points="665.78,-338.471 676.2357,-336.76 666.9951,-331.5772 665.78,-338.471"/>
</g>
<!-- Node9 -->
<g id="node9" class="node">
<title>Node9</title>
<g id="a_node9"><a xlink:href="main_8cpp.html" target="_top" xlink:title=" ">
<polygon fill="#ffffff" stroke="#000000" points="719.4014,-.5 719.4014,-30.5 834.4014,-30.5 834.4014,-.5 719.4014,-.5"/>
<text text-anchor="start" x="727.4014" y="-18.5" font-family="Helvetica,sans-Serif" font-size="10.00" fill="#000000">src/application_server</text>
<text text-anchor="middle" x="776.9014" y="-7.5" font-family="Helvetica,sans-Serif" font-size="10.00" fill="#000000">/main.cpp</text>
</a>
</g>
</g>
<!-- Node5&#45;&gt;Node9 -->
<g id="edge28" class="edge">
<title>Node5&#45;&gt;Node9</title>
<path fill="none" stroke="#191970" d="M801.6199,-336.4029C834.2419,-328.0876 873.2669,-315.8402 905.9014,-299 958.6417,-271.7846 1010.9014,-275.8483 1010.9014,-216.5 1010.9014,-216.5 1010.9014,-216.5 1010.9014,-149.5 1010.9014,-68.3938 903.7291,-35.694 834.4439,-23.0285"/>
<polygon fill="#191970" stroke="#191970" points="800.5796,-333.0548 791.7155,-338.8581 802.2639,-339.8492 800.5796,-333.0548"/>
</g>
<!-- Node11 -->
<g id="node11" class="node">
<title>Node11</title>
<g id="a_node11"><a xlink:href="menubar_8h.html" target="_top" xlink:title=" ">
<polygon fill="#ffffff" stroke="#000000" points="66.4014,-134.5 66.4014,-164.5 181.4014,-164.5 181.4014,-134.5 66.4014,-134.5"/>
<text text-anchor="start" x="74.4014" y="-152.5" font-family="Helvetica,sans-Serif" font-size="10.00" fill="#000000">src/application_server</text>
<text text-anchor="middle" x="123.9014" y="-141.5" font-family="Helvetica,sans-Serif" font-size="10.00" fill="#000000">/menubar.h</text>
</a>
</g>
</g>
<!-- Node5&#45;&gt;Node11 -->
<g id="edge20" class="edge">
<title>Node5&#45;&gt;Node11</title>
<path fill="none" stroke="#191970" d="M666.0596,-335.2161C544.7723,-321.2211 270.2926,-360.0394 185.9014,-299 141.2777,-266.7241 128.6408,-196.2365 125.1684,-164.9684"/>
<polygon fill="#191970" stroke="#191970" points="665.8906,-338.7245 676.2657,-336.5781 666.8166,-331.786 665.8906,-338.7245"/>
</g>
<!-- Node14 -->
<g id="node14" class="node">
<title>Node14</title>
<g id="a_node14"><a xlink:href="gameloop_8h.html" target="_top" xlink:title=" ">
<polygon fill="#ffffff" stroke="#000000" points="676.4014,-201.5 676.4014,-231.5 791.4014,-231.5 791.4014,-201.5 676.4014,-201.5"/>
<text text-anchor="start" x="684.4014" y="-219.5" font-family="Helvetica,sans-Serif" font-size="10.00" fill="#000000">src/application_server</text>
<text text-anchor="middle" x="733.9014" y="-208.5" font-family="Helvetica,sans-Serif" font-size="10.00" fill="#000000">/gameloop.h</text>
</a>
</g>
</g>
<!-- Node5&#45;&gt;Node14 -->
<g id="edge27" class="edge">
<title>Node5&#45;&gt;Node14</title>
<path fill="none" stroke="#191970" d="M733.9014,-325.3415C733.9014,-297.8131 733.9014,-254.5714 733.9014,-231.7614"/>
<polygon fill="#191970" stroke="#191970" points="730.4015,-325.3889 733.9014,-335.389 737.4015,-325.389 730.4015,-325.3889"/>
</g>
<!-- Node16 -->
<g id="node16" class="node">
<title>Node16</title>
<g id="a_node16"><a xlink:href="minimap_8h.html" target="_top" xlink:title=" ">
<polygon fill="#ffffff" stroke="#000000" points="543.4014,-201.5 543.4014,-231.5 658.4014,-231.5 658.4014,-201.5 543.4014,-201.5"/>
<text text-anchor="start" x="551.4014" y="-219.5" font-family="Helvetica,sans-Serif" font-size="10.00" fill="#000000">src/application_server</text>
<text text-anchor="middle" x="600.9014" y="-208.5" font-family="Helvetica,sans-Serif" font-size="10.00" fill="#000000">/minimap.h</text>
</a>
</g>
</g>
<!-- Node5&#45;&gt;Node16 -->
<g id="edge21" class="edge">
<title>Node5&#45;&gt;Node16</title>
<path fill="none" stroke="#191970" d="M711.772,-328.2042C684.6716,-300.9001 639.49,-255.3788 616.0489,-231.7614"/>
<polygon fill="#191970" stroke="#191970" points="709.3744,-330.757 718.9031,-335.389 714.3427,-325.8258 709.3744,-330.757"/>
</g>
<!-- Node20 -->
<g id="node20" class="node">
<title>Node20</title>
<g id="a_node20"><a xlink:href="renderthread_8h.html" target="_top" xlink:title=" ">
<polygon fill="#ffffff" stroke="#000000" points="781.4014,-268.5 781.4014,-298.5 896.4014,-298.5 896.4014,-268.5 781.4014,-268.5"/>
<text text-anchor="start" x="789.4014" y="-286.5" font-family="Helvetica,sans-Serif" font-size="10.00" fill="#000000">src/application_server</text>
<text text-anchor="middle" x="838.9014" y="-275.5" font-family="Helvetica,sans-Serif" font-size="10.00" fill="#000000">/renderthread.h</text>
</a>
</g>
</g>
<!-- Node5&#45;&gt;Node20 -->
<g id="edge29" class="edge">
<title>Node5&#45;&gt;Node20</title>
<path fill="none" stroke="#191970" d="M765.909,-330.0761C781.7352,-319.9774 800.5084,-307.9983 815.0527,-298.7177"/>
<polygon fill="#191970" stroke="#191970" points="764.0127,-327.1342 757.4654,-335.4639 767.7781,-333.0352 764.0127,-327.1342"/>
</g>
<!-- Node22 -->
<g id="node22" class="node">
<title>Node22</title>
<g id="a_node22"><a xlink:href="maprenderer_8cpp.html" target="_top" xlink:title=" ">
<polygon fill="#ffffff" stroke="#000000" points="1039.4014,-268.5 1039.4014,-298.5 1154.4014,-298.5 1154.4014,-268.5 1039.4014,-268.5"/>
<text text-anchor="start" x="1047.4014" y="-286.5" font-family="Helvetica,sans-Serif" font-size="10.00" fill="#000000">src/application_server</text>
<text text-anchor="middle" x="1096.9014" y="-275.5" font-family="Helvetica,sans-Serif" font-size="10.00" fill="#000000">/maprenderer.cpp</text>
</a>
</g>
</g>
<!-- Node5&#45;&gt;Node22 -->
<g id="edge32" class="edge">
<title>Node5&#45;&gt;Node22</title>
<path fill="none" stroke="#191970" d="M801.3923,-339.2813C860.4554,-329.2904 948.513,-313.9765 1024.9014,-299 1029.5439,-298.0898 1034.3485,-297.1189 1039.1714,-296.1239"/>
<polygon fill="#191970" stroke="#191970" points="800.7188,-335.8454 791.4407,-340.9607 801.8837,-342.7478 800.7188,-335.8454"/>
</g>
<!-- Node7 -->
<g id="node7" class="node">
<title>Node7</title>
<g id="a_node7"><a xlink:href="client_8cpp.html" target="_top" xlink:title=" ">
<polygon fill="#ffffff" stroke="#000000" points="48.4014,-.5 48.4014,-30.5 163.4014,-30.5 163.4014,-.5 48.4014,-.5"/>
<text text-anchor="start" x="56.4014" y="-18.5" font-family="Helvetica,sans-Serif" font-size="10.00" fill="#000000">src/application_server</text>
<text text-anchor="middle" x="105.9014" y="-7.5" font-family="Helvetica,sans-Serif" font-size="10.00" fill="#000000">/client.cpp</text>
</a>
</g>
</g>
<!-- Node6&#45;&gt;Node7 -->
<g id="edge6" class="edge">
<title>Node6&#45;&gt;Node7</title>
<path fill="none" stroke="#191970" d="M185.2152,-275.7248C151.3702,-268.8955 111.6165,-256.0725 82.9014,-232 22.1178,-181.0439 -25.0522,-135.5191 14.9014,-67 24.5941,-50.3772 41.8618,-38.6906 58.7697,-30.7023"/>
<polygon fill="#191970" stroke="#191970" points="184.5739,-279.1655 195.049,-277.5771 185.8696,-272.2865 184.5739,-279.1655"/>
</g>
<!-- Node8 -->
<g id="node8" class="node">
<title>Node8</title>
<g id="a_node8"><a xlink:href="main_8h.html" target="_top" xlink:title=" ">
<polygon fill="#ffffff" stroke="#000000" points="157.4014,-67.5 157.4014,-97.5 272.4014,-97.5 272.4014,-67.5 157.4014,-67.5"/>
<text text-anchor="start" x="165.4014" y="-85.5" font-family="Helvetica,sans-Serif" font-size="10.00" fill="#000000">src/application_server</text>
<text text-anchor="middle" x="214.9014" y="-74.5" font-family="Helvetica,sans-Serif" font-size="10.00" fill="#000000">/main.h</text>
</a>
</g>
</g>
<!-- Node6&#45;&gt;Node8 -->
<g id="edge7" class="edge">
<title>Node6&#45;&gt;Node8</title>
<path fill="none" stroke="#191970" d="M239.438,-259.0869C235.3996,-250.7289 231.3872,-241.1695 228.9014,-232 215.9417,-184.1955 214.5072,-124.9999 214.629,-97.6546"/>
<polygon fill="#191970" stroke="#191970" points="236.4466,-260.9259 244.1009,-268.2514 242.6855,-257.7515 236.4466,-260.9259"/>
</g>
<!-- Node10 -->
<g id="node10" class="node">
<title>Node10</title>
<g id="a_node10"><a xlink:href="routeinterface_8h.html" target="_top" xlink:title=" ">
<polygon fill="#ffffff" stroke="#000000" points="238.4014,-201.5 238.4014,-231.5 353.4014,-231.5 353.4014,-201.5 238.4014,-201.5"/>
<text text-anchor="start" x="246.4014" y="-219.5" font-family="Helvetica,sans-Serif" font-size="10.00" fill="#000000">src/application_server</text>
<text text-anchor="middle" x="295.9014" y="-208.5" font-family="Helvetica,sans-Serif" font-size="10.00" fill="#000000">/routeinterface.h</text>
</a>
</g>
</g>
<!-- Node6&#45;&gt;Node10 -->
<g id="edge10" class="edge">
<title>Node6&#45;&gt;Node10</title>
<path fill="none" stroke="#191970" d="M268.1288,-259.7735C274.1348,-250.4154 280.8565,-239.9421 286.1826,-231.6432"/>
<polygon fill="#191970" stroke="#191970" points="265.1144,-257.9903 262.6587,-268.2967 271.0056,-261.7712 265.1144,-257.9903"/>
</g>
<!-- Node12 -->
<g id="node12" class="node">
<title>Node12</title>
<g id="a_node12"><a xlink:href="menubar_8cpp.html" target="_top" xlink:title=" ">
<polygon fill="#ffffff" stroke="#000000" points="24.4014,-67.5 24.4014,-97.5 139.4014,-97.5 139.4014,-67.5 24.4014,-67.5"/>
<text text-anchor="start" x="32.4014" y="-85.5" font-family="Helvetica,sans-Serif" font-size="10.00" fill="#000000">src/application_server</text>
<text text-anchor="middle" x="81.9014" y="-74.5" font-family="Helvetica,sans-Serif" font-size="10.00" fill="#000000">/menubar.cpp</text>
</a>
</g>
</g>
<!-- Node6&#45;&gt;Node12 -->
<g id="edge19" class="edge">
<title>Node6&#45;&gt;Node12</title>
<path fill="none" stroke="#191970" d="M191.7761,-264.8825C145.6299,-247.2461 85.5318,-215.7662 56.9014,-165 44.6238,-143.2301 59.0034,-114.755 70.4857,-97.5872"/>
<polygon fill="#191970" stroke="#191970" points="190.8018,-268.2538 201.3951,-268.4378 193.2287,-261.6879 190.8018,-268.2538"/>
</g>
<!-- Node6&#45;&gt;Node14 -->
<g id="edge16" class="edge">
<title>Node6&#45;&gt;Node14</title>
<path fill="none" stroke="#191970" d="M320.5824,-277.3509C403.0096,-269.345 546.2996,-253.7595 667.9014,-232 670.682,-231.5024 673.5214,-230.9619 676.384,-230.3909"/>
<polygon fill="#191970" stroke="#191970" points="320.2106,-273.8705 310.5922,-278.313 320.8817,-280.8382 320.2106,-273.8705"/>
</g>
<!-- Node8&#45;&gt;Node7 -->
<g id="edge8" class="edge">
<title>Node8&#45;&gt;Node7</title>
<path fill="none" stroke="#191970" d="M181.6744,-62.0761C165.2453,-51.9774 145.7569,-39.9983 130.6586,-30.7177"/>
<polygon fill="#191970" stroke="#191970" points="180.0875,-65.209 190.4396,-67.4639 183.7532,-59.2455 180.0875,-65.209"/>
</g>
<!-- Node8&#45;&gt;Node9 -->
<g id="edge9" class="edge">
<title>Node8&#45;&gt;Node9</title>
<path fill="none" stroke="#191970" d="M282.5181,-74.4389C393.9828,-61.1504 614.3644,-34.8772 719.0598,-22.3957"/>
<polygon fill="#191970" stroke="#191970" points="281.9194,-70.9854 272.4041,-75.6447 282.7482,-77.9362 281.9194,-70.9854"/>
</g>
<!-- Node10&#45;&gt;Node9 -->
<g id="edge14" class="edge">
<title>Node10&#45;&gt;Node9</title>
<path fill="none" stroke="#191970" d="M323.4935,-194.9731C354.5501,-170.751 400.8555,-134.6616 401.9014,-134 457.838,-98.6173 472.462,-88.9584 534.9014,-67 596.0895,-45.4817 669.2904,-31.4306 719.0444,-23.5243"/>
<polygon fill="#191970" stroke="#191970" points="321.3086,-192.2385 315.5762,-201.1487 325.6139,-197.7581 321.3086,-192.2385"/>
</g>
<!-- Node10&#45;&gt;Node11 -->
<g id="edge11" class="edge">
<title>Node10&#45;&gt;Node11</title>
<path fill="none" stroke="#191970" d="M247.7092,-197.7275C220.849,-187.2645 187.8454,-174.4084 162.6699,-164.6017"/>
<polygon fill="#191970" stroke="#191970" points="246.7128,-201.0954 257.3012,-201.4639 249.2536,-194.5728 246.7128,-201.0954"/>
</g>
<!-- Node13 -->
<g id="node13" class="node">
<title>Node13</title>
<g id="a_node13"><a xlink:href="routeinterface_8cpp.html" target="_top" xlink:title=" ">
<polygon fill="#ffffff" stroke="#000000" points="238.4014,-134.5 238.4014,-164.5 353.4014,-164.5 353.4014,-134.5 238.4014,-134.5"/>
<text text-anchor="start" x="246.4014" y="-152.5" font-family="Helvetica,sans-Serif" font-size="10.00" fill="#000000">src/application_server</text>
<text text-anchor="middle" x="295.9014" y="-141.5" font-family="Helvetica,sans-Serif" font-size="10.00" fill="#000000">/routeinterface.cpp</text>
</a>
</g>
</g>
<!-- Node10&#45;&gt;Node13 -->
<g id="edge15" class="edge">
<title>Node10&#45;&gt;Node13</title>
<path fill="none" stroke="#191970" d="M295.9014,-191.0249C295.9014,-182.128 295.9014,-172.4287 295.9014,-164.6432"/>
<polygon fill="#191970" stroke="#191970" points="292.4015,-191.2966 295.9014,-201.2967 299.4015,-191.2967 292.4015,-191.2966"/>
</g>
<!-- Node11&#45;&gt;Node8 -->
<g id="edge12" class="edge">
<title>Node11&#45;&gt;Node8</title>
<path fill="none" stroke="#191970" d="M152.6317,-128.3469C166.1721,-118.3776 182.0163,-106.7121 194.3338,-97.6432"/>
<polygon fill="#191970" stroke="#191970" points="150.5283,-125.5492 144.5507,-134.2967 154.6786,-131.1861 150.5283,-125.5492"/>
</g>
<!-- Node11&#45;&gt;Node12 -->
<g id="edge13" class="edge">
<title>Node11&#45;&gt;Node12</title>
<path fill="none" stroke="#191970" d="M109.028,-125.7735C103.1617,-116.4154 96.5964,-105.9421 91.3941,-97.6432"/>
<polygon fill="#191970" stroke="#191970" points="106.094,-127.6828 114.3709,-134.2967 112.025,-123.9648 106.094,-127.6828"/>
</g>
<!-- Node14&#45;&gt;Node9 -->
<g id="edge18" class="edge">
<title>Node14&#45;&gt;Node9</title>
<path fill="none" stroke="#191970" d="M772.8217,-195.8045C783.9667,-187.781 794.7533,-177.4802 800.9014,-165 823.0892,-119.9601 798.8089,-58.9081 785.0486,-30.8088"/>
<polygon fill="#191970" stroke="#191970" points="770.6729,-193.0307 764.3,-201.4946 774.5601,-198.8523 770.6729,-193.0307"/>
</g>
<!-- Node15 -->
<g id="node15" class="node">
<title>Node15</title>
<g id="a_node15"><a xlink:href="gameloop_8cpp.html" target="_top" xlink:title=" ">
<polygon fill="#ffffff" stroke="#000000" points="676.4014,-134.5 676.4014,-164.5 791.4014,-164.5 791.4014,-134.5 676.4014,-134.5"/>
<text text-anchor="start" x="684.4014" y="-152.5" font-family="Helvetica,sans-Serif" font-size="10.00" fill="#000000">src/application_server</text>
<text text-anchor="middle" x="733.9014" y="-141.5" font-family="Helvetica,sans-Serif" font-size="10.00" fill="#000000">/gameloop.cpp</text>
</a>
</g>
</g>
<!-- Node14&#45;&gt;Node15 -->
<g id="edge17" class="edge">
<title>Node14&#45;&gt;Node15</title>
<path fill="none" stroke="#191970" d="M733.9014,-191.0249C733.9014,-182.128 733.9014,-172.4287 733.9014,-164.6432"/>
<polygon fill="#191970" stroke="#191970" points="730.4015,-191.2966 733.9014,-201.2967 737.4015,-191.2967 730.4015,-191.2966"/>
</g>
<!-- Node17 -->
<g id="node17" class="node">
<title>Node17</title>
<g id="a_node17"><a xlink:href="sidepanel_8h.html" target="_top" xlink:title=" ">
<polygon fill="#ffffff" stroke="#000000" points="543.4014,-134.5 543.4014,-164.5 658.4014,-164.5 658.4014,-134.5 543.4014,-134.5"/>
<text text-anchor="start" x="551.4014" y="-152.5" font-family="Helvetica,sans-Serif" font-size="10.00" fill="#000000">src/application_server</text>
<text text-anchor="middle" x="600.9014" y="-141.5" font-family="Helvetica,sans-Serif" font-size="10.00" fill="#000000">/sidepanel.h</text>
</a>
</g>
</g>
<!-- Node16&#45;&gt;Node17 -->
<g id="edge22" class="edge">
<title>Node16&#45;&gt;Node17</title>
<path fill="none" stroke="#191970" d="M600.9014,-191.0249C600.9014,-182.128 600.9014,-172.4287 600.9014,-164.6432"/>
<polygon fill="#191970" stroke="#191970" points="597.4015,-191.2966 600.9014,-201.2967 604.4015,-191.2967 597.4015,-191.2966"/>
</g>
<!-- Node19 -->
<g id="node19" class="node">
<title>Node19</title>
<g id="a_node19"><a xlink:href="minimap_8cpp.html" target="_top" xlink:title=" ">
<polygon fill="#ffffff" stroke="#000000" points="410.4014,-134.5 410.4014,-164.5 525.4014,-164.5 525.4014,-134.5 410.4014,-134.5"/>
<text text-anchor="start" x="418.4014" y="-152.5" font-family="Helvetica,sans-Serif" font-size="10.00" fill="#000000">src/application_server</text>
<text text-anchor="middle" x="467.9014" y="-141.5" font-family="Helvetica,sans-Serif" font-size="10.00" fill="#000000">/minimap.cpp</text>
</a>
</g>
</g>
<!-- Node16&#45;&gt;Node19 -->
<g id="edge26" class="edge">
<title>Node16&#45;&gt;Node19</title>
<path fill="none" stroke="#191970" d="M562.0201,-196.9132C541.637,-186.645 517.0441,-174.2561 498.1097,-164.7177"/>
<polygon fill="#191970" stroke="#191970" points="560.5481,-200.0906 571.0536,-201.4639 563.6974,-193.8391 560.5481,-200.0906"/>
</g>
<!-- Node17&#45;&gt;Node8 -->
<g id="edge23" class="edge">
<title>Node17&#45;&gt;Node8</title>
<path fill="none" stroke="#191970" d="M533.4098,-133.776C436.6343,-114.9025 334.7551,-99.4526 272.639,-90.5302"/>
<polygon fill="#191970" stroke="#191970" points="532.8733,-137.2375 543.3607,-135.7326 534.2239,-130.369 532.8733,-137.2375"/>
</g>
<!-- Node17&#45;&gt;Node9 -->
<g id="edge24" class="edge">
<title>Node17&#45;&gt;Node9</title>
<path fill="none" stroke="#191970" d="M628.8408,-128.2279C664.6383,-100.973 725.7959,-54.4098 757.1266,-30.5558"/>
<polygon fill="#191970" stroke="#191970" points="626.5849,-125.5465 620.7487,-134.389 630.8253,-131.116 626.5849,-125.5465"/>
</g>
<!-- Node18 -->
<g id="node18" class="node">
<title>Node18</title>
<g id="a_node18"><a xlink:href="sidepanel_8cpp.html" target="_top" xlink:title=" ">
<polygon fill="#ffffff" stroke="#000000" points="543.4014,-67.5 543.4014,-97.5 658.4014,-97.5 658.4014,-67.5 543.4014,-67.5"/>
<text text-anchor="start" x="551.4014" y="-85.5" font-family="Helvetica,sans-Serif" font-size="10.00" fill="#000000">src/application_server</text>
<text text-anchor="middle" x="600.9014" y="-74.5" font-family="Helvetica,sans-Serif" font-size="10.00" fill="#000000">/sidepanel.cpp</text>
</a>
</g>
</g>
<!-- Node17&#45;&gt;Node18 -->
<g id="edge25" class="edge">
<title>Node17&#45;&gt;Node18</title>
<path fill="none" stroke="#191970" d="M600.9014,-124.0249C600.9014,-115.128 600.9014,-105.4287 600.9014,-97.6432"/>
<polygon fill="#191970" stroke="#191970" points="597.4015,-124.2966 600.9014,-134.2967 604.4015,-124.2967 597.4015,-124.2966"/>
</g>
<!-- Node20&#45;&gt;Node9 -->
<g id="edge30" class="edge">
<title>Node20&#45;&gt;Node9</title>
<path fill="none" stroke="#191970" d="M840.7285,-258.3491C842.7989,-216.8641 843.0044,-132.1982 816.9014,-67 811.4312,-53.337 801.2017,-40.27 792.4572,-30.717"/>
<polygon fill="#191970" stroke="#191970" points="837.231,-258.2055 840.1462,-268.3914 844.2193,-258.6108 837.231,-258.2055"/>
</g>
<!-- Node21 -->
<g id="node21" class="node">
<title>Node21</title>
<g id="a_node21"><a xlink:href="renderthread_8cpp.html" target="_top" xlink:title=" ">
<polygon fill="#ffffff" stroke="#000000" points="867.4014,-201.5 867.4014,-231.5 982.4014,-231.5 982.4014,-201.5 867.4014,-201.5"/>
<text text-anchor="start" x="875.4014" y="-219.5" font-family="Helvetica,sans-Serif" font-size="10.00" fill="#000000">src/application_server</text>
<text text-anchor="middle" x="924.9014" y="-208.5" font-family="Helvetica,sans-Serif" font-size="10.00" fill="#000000">/renderthread.cpp</text>
</a>
</g>
</g>
<!-- Node20&#45;&gt;Node21 -->
<g id="edge31" class="edge">
<title>Node20&#45;&gt;Node21</title>
<path fill="none" stroke="#191970" d="M866.4158,-262.0643C879.1318,-252.1577 893.933,-240.6265 905.4639,-231.6432"/>
<polygon fill="#191970" stroke="#191970" points="864.1537,-259.3899 858.4161,-268.2967 868.4557,-264.9119 864.1537,-259.3899"/>
</g>
</g>
</svg>
