<?xml version="1.0" encoding="UTF-8" standalone="no"?>
<!DOCTYPE svg PUBLIC "-//W3C//DTD SVG 1.1//EN"
 "http://www.w3.org/Graphics/SVG/1.1/DTD/svg11.dtd">
<!-- Generated by graphviz version 2.40.1 (20161225.0304)
 -->
<!-- Title: src/application_server/animationmanager.cpp Pages: 1 -->
<svg width="314pt" height="207pt"
 viewBox="0.00 0.00 314.00 207.00" xmlns="http://www.w3.org/2000/svg" xmlns:xlink="http://www.w3.org/1999/xlink">
<g id="graph0" class="graph" transform="scale(1 1) rotate(0) translate(4 203)">
<title>src/application_server/animationmanager.cpp</title>
<polygon fill="#ffffff" stroke="transparent" points="-4,4 -4,-203 310,-203 310,4 -4,4"/>
<!-- Node1 -->
<g id="node1" class="node">
<title>Node1</title>
<g id="a_node1"><a xlink:title=" ">
<polygon fill="#bfbfbf" stroke="#000000" points="74.5,-168.5 74.5,-198.5 196.5,-198.5 196.5,-168.5 74.5,-168.5"/>
<text text-anchor="start" x="82.5" y="-186.5" font-family="Helvetica,sans-Serif" font-size="10.00" fill="#000000">src/application_server</text>
<text text-anchor="middle" x="135.5" y="-175.5" font-family="Helvetica,sans-Serif" font-size="10.00" fill="#000000">/animationmanager.cpp</text>
</a>
</g>
</g>
<!-- Node2 -->
<g id="node2" class="node">
<title>Node2</title>
<g id="a_node2"><a xlink:href="animationmanager_8h.html" target="_top" xlink:title=" ">
<polygon fill="#ffffff" stroke="#000000" points="81.5,-112.5 81.5,-131.5 189.5,-131.5 189.5,-112.5 81.5,-112.5"/>
<text text-anchor="middle" x="135.5" y="-119.5" font-family="Helvetica,sans-Serif" font-size="10.00" fill="#000000">animationmanager.h</text>
</a>
</g>
</g>
<!-- Node1&#45;&gt;Node2 -->
<g id="edge1" class="edge">
<title>Node1&#45;&gt;Node2</title>
<path fill="none" stroke="#191970" d="M135.5,-168.2977C135.5,-160.3834 135.5,-150.6043 135.5,-142.0759"/>
<polygon fill="#191970" stroke="#191970" points="139.0001,-141.8469 135.5,-131.8469 132.0001,-141.847 139.0001,-141.8469"/>
</g>
<!-- Node3 -->
<g id="node3" class="node">
<title>Node3</title>
<g id="a_node3"><a xlink:href="animationmovement_8h.html" target="_top" xlink:title=" ">
<polygon fill="#ffffff" stroke="#000000" points="78,-56.5 78,-75.5 193,-75.5 193,-56.5 78,-56.5"/>
<text text-anchor="middle" x="135.5" y="-63.5" font-family="Helvetica,sans-Serif" font-size="10.00" fill="#000000">animationmovement.h</text>
</a>
</g>
</g>
<!-- Node2&#45;&gt;Node3 -->
<g id="edge2" class="edge">
<title>Node2&#45;&gt;Node3</title>
<path fill="none" stroke="#191970" d="M135.5,-112.2455C135.5,-104.9382 135.5,-94.6944 135.5,-85.7046"/>
<polygon fill="#191970" stroke="#191970" points="139.0001,-85.6426 135.5,-75.6427 132.0001,-85.6427 139.0001,-85.6426"/>
</g>
<!-- Node5 -->
<g id="node5" class="node">
<title>Node5</title>
<g id="a_node5"><a xlink:title=" ">
<polygon fill="#ffffff" stroke="#bfbfbf" points="0,-.5 0,-19.5 39,-19.5 39,-.5 0,-.5"/>
<text text-anchor="middle" x="19.5" y="-7.5" font-family="Helvetica,sans-Serif" font-size="10.00" fill="#000000">QList</text>
</a>
</g>
</g>
<!-- Node2&#45;&gt;Node5 -->
<g id="edge7" class="edge">
<title>Node2&#45;&gt;Node5</title>
<path fill="none" stroke="#191970" d="M118.6931,-112.3383C104.6679,-103.8152 84.6047,-90.5175 69.5,-76 54.5107,-61.5934 40.4996,-42.4001 31.1454,-28.4265"/>
<polygon fill="#191970" stroke="#191970" points="33.8539,-26.1724 25.4587,-19.7094 27.9911,-29.9971 33.8539,-26.1724"/>
</g>
<!-- Node7 -->
<g id="node7" class="node">
<title>Node7</title>
<g id="a_node7"><a xlink:title=" ">
<polygon fill="#ffffff" stroke="#bfbfbf" points="189,-.5 189,-19.5 306,-19.5 306,-.5 189,-.5"/>
<text text-anchor="middle" x="247.5" y="-7.5" font-family="Helvetica,sans-Serif" font-size="10.00" fill="#000000">QGraphicsPixmapItem</text>
</a>
</g>
</g>
<!-- Node2&#45;&gt;Node7 -->
<g id="edge8" class="edge">
<title>Node2&#45;&gt;Node7</title>
<path fill="none" stroke="#191970" d="M153.0514,-112.413C167.3964,-104.0299 187.6584,-90.8897 202.5,-76 216.6595,-61.7947 229.1825,-42.5752 237.399,-28.5408"/>
<polygon fill="#191970" stroke="#191970" points="240.4795,-30.2038 242.3665,-19.7783 234.39,-26.7515 240.4795,-30.2038"/>
</g>
<!-- Node4 -->
<g id="node4" class="node">
<title>Node4</title>
<g id="a_node4"><a xlink:href="point_8h.html" target="_top" xlink:title=" ">
<polygon fill="#ffffff" stroke="#000000" points="57,-.5 57,-19.5 102,-19.5 102,-.5 57,-.5"/>
<text text-anchor="middle" x="79.5" y="-7.5" font-family="Helvetica,sans-Serif" font-size="10.00" fill="#000000">point.h</text>
</a>
</g>
</g>
<!-- Node3&#45;&gt;Node4 -->
<g id="edge3" class="edge">
<title>Node3&#45;&gt;Node4</title>
<path fill="none" stroke="#191970" d="M125.7455,-56.2455C117.6352,-48.1352 105.9075,-36.4075 96.2919,-26.7919"/>
<polygon fill="#191970" stroke="#191970" points="98.6887,-24.2389 89.1427,-19.6427 93.7389,-29.1887 98.6887,-24.2389"/>
</g>
<!-- Node3&#45;&gt;Node5 -->
<g id="edge4" class="edge">
<title>Node3&#45;&gt;Node5</title>
<path fill="none" stroke="#191970" d="M115.5589,-56.3733C97.0214,-47.4241 69.1972,-33.9917 48.2587,-23.8835"/>
<polygon fill="#191970" stroke="#191970" points="49.7081,-20.6967 39.1809,-19.5011 46.6648,-27.0006 49.7081,-20.6967"/>
</g>
<!-- Node6 -->
<g id="node6" class="node">
<title>Node6</title>
<g id="a_node6"><a xlink:title=" ">
<polygon fill="#ffffff" stroke="#bfbfbf" points="120.5,-.5 120.5,-19.5 170.5,-19.5 170.5,-.5 120.5,-.5"/>
<text text-anchor="middle" x="145.5" y="-7.5" font-family="Helvetica,sans-Serif" font-size="10.00" fill="#000000">QString</text>
</a>
</g>
</g>
<!-- Node3&#45;&gt;Node6 -->
<g id="edge5" class="edge">
<title>Node3&#45;&gt;Node6</title>
<path fill="none" stroke="#191970" d="M137.2419,-56.2455C138.5467,-48.9382 140.376,-38.6944 141.9813,-29.7046"/>
<polygon fill="#191970" stroke="#191970" points="145.4656,-30.1022 143.7781,-19.6427 138.5746,-28.8717 145.4656,-30.1022"/>
</g>
<!-- Node3&#45;&gt;Node7 -->
<g id="edge6" class="edge">
<title>Node3&#45;&gt;Node7</title>
<path fill="none" stroke="#191970" d="M154.7535,-56.3733C172.5712,-47.4644 199.2747,-34.1127 219.4594,-24.0203"/>
<polygon fill="#191970" stroke="#191970" points="221.1187,-27.1038 228.4978,-19.5011 217.9882,-20.8428 221.1187,-27.1038"/>
</g>
</g>
</svg>
