<?xml version="1.0" encoding="UTF-8" standalone="no"?>
<!DOCTYPE svg PUBLIC "-//W3C//DTD SVG 1.1//EN"
 "http://www.w3.org/Graphics/SVG/1.1/DTD/svg11.dtd">
<!-- Generated by graphviz version 2.40.1 (20161225.0304)
 -->
<!-- Title: src/application_server/city.h Pages: 1 -->
<!--zoomable 441 -->
<svg id="main" version="1.1" xmlns="http://www.w3.org/2000/svg" xmlns:xlink="http://www.w3.org/1999/xlink" xml:space="preserve" onload="init(evt)">
<style type="text/css"><![CDATA[
.edge:hover path { stroke: red; }
.edge:hover polygon { stroke: red; fill: red; }
]]></style>
<script type="text/javascript"><![CDATA[
var edges = document.getElementsByTagName('g');
if (edges && edges.length) {
  for (var i=0;i<edges.length;i++) {
    if (edges[i].id.substr(0,4)=='edge') {
      edges[i].setAttribute('class','edge');
    }
  }
}
]]></script>
        <defs>
                <circle id="rim" cx="0" cy="0" r="7"/>
                <circle id="rim2" cx="0" cy="0" r="3.5"/>
                <g id="zoomPlus">
                        <use xlink:href="#rim" fill="#404040">
                                <set attributeName="fill" to="#808080" begin="zoomplus.mouseover" end="zoomplus.mouseout"/>
                        </use>
                        <path d="M-4,0h8M0,-4v8" fill="none" stroke="white" stroke-width="1.5" pointer-events="none"/>
                </g>
                <g id="zoomMin">
                        <use xlink:href="#rim" fill="#404040">
                                <set attributeName="fill" to="#808080" begin="zoomminus.mouseover" end="zoomminus.mouseout"/>
                        </use>
                        <path d="M-4,0h8" fill="none" stroke="white" stroke-width="1.5" pointer-events="none"/>
                </g>
                <g id="dirArrow">
                        <path fill="none" stroke="white" stroke-width="1.5" d="M0,-3.0v7 M-2.5,-0.5L0,-3.0L2.5,-0.5"/>
                </g>
               <g id="resetDef">
                       <use xlink:href="#rim2" fill="#404040">
                               <set attributeName="fill" to="#808080" begin="reset.mouseover" end="reset.mouseout"/>
                       </use>
               </g>
        </defs>

<script type="text/javascript">
var viewWidth = 1037;
var viewHeight = 441;
var sectionId = 'dynsection-1';
</script>
<script xlink:href="svgpan.js"/>
<svg id="graph" class="graph">
<g id="viewport">
<title>src/application_server/city.h</title>
<polygon fill="#ffffff" stroke="transparent" points="-4,4 -4,-437 1032.6243,-437 1032.6243,4 -4,4"/>
<!-- Node1 -->
<g id="node1" class="node">
<title>Node1</title>
<g id="a_node1"><a xlink:title=" ">
<polygon fill="#bfbfbf" stroke="#000000" points="729.6243,-402.5 729.6243,-432.5 844.6243,-432.5 844.6243,-402.5 729.6243,-402.5"/>
<text text-anchor="start" x="737.6243" y="-420.5" font-family="Helvetica,sans-Serif" font-size="10.00" fill="#000000">src/application_server</text>
<text text-anchor="middle" x="787.1243" y="-409.5" font-family="Helvetica,sans-Serif" font-size="10.00" fill="#000000">/city.h</text>
</a>
</g>
</g>
<!-- Node2 -->
<g id="node2" class="node">
<title>Node2</title>
<g id="a_node2"><a xlink:href="city_8cpp.html" target="_top" xlink:title=" ">
<polygon fill="#ffffff" stroke="#000000" points="663.6243,-335.5 663.6243,-365.5 778.6243,-365.5 778.6243,-335.5 663.6243,-335.5"/>
<text text-anchor="start" x="671.6243" y="-353.5" font-family="Helvetica,sans-Serif" font-size="10.00" fill="#000000">src/application_server</text>
<text text-anchor="middle" x="721.1243" y="-342.5" font-family="Helvetica,sans-Serif" font-size="10.00" fill="#000000">/city.cpp</text>
</a>
</g>
</g>
<!-- Node1&#45;&gt;Node2 -->
<g id="edge1" class="edge">
<title>Node1&#45;&gt;Node2</title>
<path fill="none" stroke="#191970" d="M764.8865,-394.9253C755.3879,-385.2828 744.5536,-374.2843 736.0414,-365.6432"/>
<polygon fill="#191970" stroke="#191970" points="762.6367,-397.6288 772.1478,-402.2967 767.6235,-392.7164 762.6367,-397.6288"/>
</g>
<!-- Node3 -->
<g id="node3" class="node">
<title>Node3</title>
<g id="a_node3"><a xlink:href="maptile_8h.html" target="_top" xlink:title=" ">
<polygon fill="#ffffff" stroke="#000000" points="796.6243,-335.5 796.6243,-365.5 911.6243,-365.5 911.6243,-335.5 796.6243,-335.5"/>
<text text-anchor="start" x="804.6243" y="-353.5" font-family="Helvetica,sans-Serif" font-size="10.00" fill="#000000">src/application_server</text>
<text text-anchor="middle" x="854.1243" y="-342.5" font-family="Helvetica,sans-Serif" font-size="10.00" fill="#000000">/maptile.h</text>
</a>
</g>
</g>
<!-- Node1&#45;&gt;Node3 -->
<g id="edge2" class="edge">
<title>Node1&#45;&gt;Node3</title>
<path fill="none" stroke="#191970" d="M809.413,-395.2113C819.1234,-385.5009 830.2544,-374.3698 838.9811,-365.6432"/>
<polygon fill="#191970" stroke="#191970" points="806.9238,-392.7507 802.3276,-402.2967 811.8736,-397.7004 806.9238,-392.7507"/>
</g>
<!-- Node4 -->
<g id="node4" class="node">
<title>Node4</title>
<g id="a_node4"><a xlink:href="scene_8h.html" target="_top" xlink:title=" ">
<polygon fill="#ffffff" stroke="#000000" points="519.6243,-268.5 519.6243,-298.5 634.6243,-298.5 634.6243,-268.5 519.6243,-268.5"/>
<text text-anchor="start" x="527.6243" y="-286.5" font-family="Helvetica,sans-Serif" font-size="10.00" fill="#000000">src/application_server</text>
<text text-anchor="middle" x="577.1243" y="-275.5" font-family="Helvetica,sans-Serif" font-size="10.00" fill="#000000">/scene.h</text>
</a>
</g>
</g>
<!-- Node3&#45;&gt;Node4 -->
<g id="edge3" class="edge">
<title>Node3&#45;&gt;Node4</title>
<path fill="none" stroke="#191970" d="M786.4111,-334.1217C739.9407,-322.8816 678.9296,-308.1244 634.781,-297.4459"/>
<polygon fill="#191970" stroke="#191970" points="785.8506,-337.587 796.3932,-336.5362 787.4963,-330.7832 785.8506,-337.587"/>
</g>
<!-- Node5 -->
<g id="node5" class="node">
<title>Node5</title>
<g id="a_node5"><a xlink:href="client_8h.html" target="_top" xlink:title=" ">
<polygon fill="#ffffff" stroke="#000000" points="586.6243,-134.5 586.6243,-164.5 701.6243,-164.5 701.6243,-134.5 586.6243,-134.5"/>
<text text-anchor="start" x="594.6243" y="-152.5" font-family="Helvetica,sans-Serif" font-size="10.00" fill="#000000">src/application_server</text>
<text text-anchor="middle" x="644.1243" y="-141.5" font-family="Helvetica,sans-Serif" font-size="10.00" fill="#000000">/client.h</text>
</a>
</g>
</g>
<!-- Node3&#45;&gt;Node5 -->
<g id="edge30" class="edge">
<title>Node3&#45;&gt;Node5</title>
<path fill="none" stroke="#191970" d="M865.2233,-325.8146C877.8924,-293.4706 893.4482,-236.6832 865.1243,-201 845.0707,-175.736 760.2494,-161.7209 701.7225,-154.9008"/>
<polygon fill="#191970" stroke="#191970" points="861.8476,-324.8201 861.2707,-335.3993 868.3189,-327.4889 861.8476,-324.8201"/>
</g>
<!-- Node19 -->
<g id="node19" class="node">
<title>Node19</title>
<g id="a_node19"><a xlink:href="scene_8cpp.html" target="_top" xlink:title=" ">
<polygon fill="#ffffff" stroke="#000000" points="741.6243,-201.5 741.6243,-231.5 856.6243,-231.5 856.6243,-201.5 741.6243,-201.5"/>
<text text-anchor="start" x="749.6243" y="-219.5" font-family="Helvetica,sans-Serif" font-size="10.00" fill="#000000">src/application_server</text>
<text text-anchor="middle" x="799.1243" y="-208.5" font-family="Helvetica,sans-Serif" font-size="10.00" fill="#000000">/scene.cpp</text>
</a>
</g>
</g>
<!-- Node3&#45;&gt;Node19 -->
<g id="edge32" class="edge">
<title>Node3&#45;&gt;Node19</title>
<path fill="none" stroke="#191970" d="M844.0965,-326.0686C832.8138,-298.58 814.8334,-254.7732 805.3883,-231.7614"/>
<polygon fill="#191970" stroke="#191970" points="840.887,-327.4669 847.922,-335.389 847.3627,-324.8089 840.887,-327.4669"/>
</g>
<!-- Node20 -->
<g id="node20" class="node">
<title>Node20</title>
<g id="a_node20"><a xlink:href="maptile_8cpp.html" target="_top" xlink:title=" ">
<polygon fill="#ffffff" stroke="#000000" points="913.6243,-268.5 913.6243,-298.5 1028.6243,-298.5 1028.6243,-268.5 913.6243,-268.5"/>
<text text-anchor="start" x="921.6243" y="-286.5" font-family="Helvetica,sans-Serif" font-size="10.00" fill="#000000">src/application_server</text>
<text text-anchor="middle" x="971.1243" y="-275.5" font-family="Helvetica,sans-Serif" font-size="10.00" fill="#000000">/maptile.cpp</text>
</a>
</g>
</g>
<!-- Node3&#45;&gt;Node20 -->
<g id="edge31" class="edge">
<title>Node3&#45;&gt;Node20</title>
<path fill="none" stroke="#191970" d="M889.3009,-330.3561C907.0371,-320.1995 928.1935,-308.0843 944.55,-298.7177"/>
<polygon fill="#191970" stroke="#191970" points="887.3199,-327.4572 880.3813,-335.4639 890.7985,-333.5317 887.3199,-327.4572"/>
</g>
<!-- Node4&#45;&gt;Node5 -->
<g id="edge4" class="edge">
<title>Node4&#45;&gt;Node5</title>
<path fill="none" stroke="#191970" d="M589.1596,-259.4294C602.8919,-231.9647 624.9372,-187.8742 636.4936,-164.7614"/>
<polygon fill="#191970" stroke="#191970" points="586.0215,-257.8794 584.6798,-268.389 592.2825,-261.01 586.0215,-257.8794"/>
</g>
<!-- Node7 -->
<g id="node7" class="node">
<title>Node7</title>
<g id="a_node7"><a xlink:href="gameloop_8h.html" target="_top" xlink:title=" ">
<polygon fill="#ffffff" stroke="#000000" points="719.6243,-67.5 719.6243,-97.5 834.6243,-97.5 834.6243,-67.5 719.6243,-67.5"/>
<text text-anchor="start" x="727.6243" y="-85.5" font-family="Helvetica,sans-Serif" font-size="10.00" fill="#000000">src/application_server</text>
<text text-anchor="middle" x="777.1243" y="-74.5" font-family="Helvetica,sans-Serif" font-size="10.00" fill="#000000">/gameloop.h</text>
</a>
</g>
</g>
<!-- Node4&#45;&gt;Node7 -->
<g id="edge25" class="edge">
<title>Node4&#45;&gt;Node7</title>
<path fill="none" stroke="#191970" d="M615.4268,-263.4262C651.6051,-242.8382 705.3636,-207.8199 740.1243,-165 756.7453,-144.5255 767.4858,-115.394 772.9059,-97.7854"/>
<polygon fill="#191970" stroke="#191970" points="613.6497,-260.4098 606.63,-268.3455 617.0663,-266.5194 613.6497,-260.4098"/>
</g>
<!-- Node9 -->
<g id="node9" class="node">
<title>Node9</title>
<g id="a_node9"><a xlink:href="main_8cpp.html" target="_top" xlink:title=" ">
<polygon fill="#ffffff" stroke="#000000" points="234.6243,-.5 234.6243,-30.5 349.6243,-30.5 349.6243,-.5 234.6243,-.5"/>
<text text-anchor="start" x="242.6243" y="-18.5" font-family="Helvetica,sans-Serif" font-size="10.00" fill="#000000">src/application_server</text>
<text text-anchor="middle" x="292.1243" y="-7.5" font-family="Helvetica,sans-Serif" font-size="10.00" fill="#000000">/main.cpp</text>
</a>
</g>
</g>
<!-- Node4&#45;&gt;Node9 -->
<g id="edge27" class="edge">
<title>Node4&#45;&gt;Node9</title>
<path fill="none" stroke="#191970" d="M509.3593,-272.5273C370.0577,-248.3412 60.0544,-185.5545 6.1243,-98 -1.1015,-86.2691 -2.7128,-77.5704 6.1243,-67 20.6253,-49.6545 155.0374,-31.3504 234.3288,-21.9342"/>
<polygon fill="#191970" stroke="#191970" points="509.0413,-276.0239 519.49,-274.2703 510.2283,-269.1253 509.0413,-276.0239"/>
</g>
<!-- Node12 -->
<g id="node12" class="node">
<title>Node12</title>
<g id="a_node12"><a xlink:href="view_8h.html" target="_top" xlink:title=" ">
<polygon fill="#ffffff" stroke="#000000" points="453.6243,-201.5 453.6243,-231.5 568.6243,-231.5 568.6243,-201.5 453.6243,-201.5"/>
<text text-anchor="start" x="461.6243" y="-219.5" font-family="Helvetica,sans-Serif" font-size="10.00" fill="#000000">src/application_server</text>
<text text-anchor="middle" x="511.1243" y="-208.5" font-family="Helvetica,sans-Serif" font-size="10.00" fill="#000000">/view.h</text>
</a>
</g>
</g>
<!-- Node4&#45;&gt;Node12 -->
<g id="edge12" class="edge">
<title>Node4&#45;&gt;Node12</title>
<path fill="none" stroke="#191970" d="M554.8865,-260.9253C545.3879,-251.2828 534.5536,-240.2843 526.0414,-231.6432"/>
<polygon fill="#191970" stroke="#191970" points="552.6367,-263.6288 562.1478,-268.2967 557.6235,-258.7164 552.6367,-263.6288"/>
</g>
<!-- Node13 -->
<g id="node13" class="node">
<title>Node13</title>
<g id="a_node13"><a xlink:href="menubar_8h.html" target="_top" xlink:title=" ">
<polygon fill="#ffffff" stroke="#000000" points="320.6243,-134.5 320.6243,-164.5 435.6243,-164.5 435.6243,-134.5 320.6243,-134.5"/>
<text text-anchor="start" x="328.6243" y="-152.5" font-family="Helvetica,sans-Serif" font-size="10.00" fill="#000000">src/application_server</text>
<text text-anchor="middle" x="378.1243" y="-141.5" font-family="Helvetica,sans-Serif" font-size="10.00" fill="#000000">/menubar.h</text>
</a>
</g>
</g>
<!-- Node4&#45;&gt;Node13 -->
<g id="edge26" class="edge">
<title>Node4&#45;&gt;Node13</title>
<path fill="none" stroke="#191970" d="M509.7367,-265.1541C487.5542,-257.1627 463.6049,-246.2857 444.1243,-232 418.8311,-213.4517 397.88,-182.8728 386.7556,-164.6113"/>
<polygon fill="#191970" stroke="#191970" points="508.8535,-268.552 519.4482,-268.514 511.1422,-261.9367 508.8535,-268.552"/>
</g>
<!-- Node14 -->
<g id="node14" class="node">
<title>Node14</title>
<g id="a_node14"><a xlink:href="minimap_8h.html" target="_top" xlink:title=" ">
<polygon fill="#ffffff" stroke="#000000" points="148.6243,-134.5 148.6243,-164.5 263.6243,-164.5 263.6243,-134.5 148.6243,-134.5"/>
<text text-anchor="start" x="156.6243" y="-152.5" font-family="Helvetica,sans-Serif" font-size="10.00" fill="#000000">src/application_server</text>
<text text-anchor="middle" x="206.1243" y="-141.5" font-family="Helvetica,sans-Serif" font-size="10.00" fill="#000000">/minimap.h</text>
</a>
</g>
</g>
<!-- Node4&#45;&gt;Node14 -->
<g id="edge28" class="edge">
<title>Node4&#45;&gt;Node14</title>
<path fill="none" stroke="#191970" d="M514.1458,-265.4596C482.6896,-256.0998 444.173,-244.1101 410.1243,-232 349.8337,-210.5565 281.1057,-181.8552 240.7921,-164.5737"/>
<polygon fill="#191970" stroke="#191970" points="513.5141,-268.9226 524.0962,-268.4029 515.4997,-262.2101 513.5141,-268.9226"/>
</g>
<!-- Node4&#45;&gt;Node19 -->
<g id="edge29" class="edge">
<title>Node4&#45;&gt;Node19</title>
<path fill="none" stroke="#191970" d="M636.6056,-265.5484C671.7452,-254.9432 715.7367,-241.6665 749.0858,-231.6017"/>
<polygon fill="#191970" stroke="#191970" points="635.5076,-262.2238 626.9454,-268.4639 637.5302,-268.9252 635.5076,-262.2238"/>
</g>
<!-- Node6 -->
<g id="node6" class="node">
<title>Node6</title>
<g id="a_node6"><a xlink:href="client_8cpp.html" target="_top" xlink:title=" ">
<polygon fill="#ffffff" stroke="#000000" points="586.6243,-67.5 586.6243,-97.5 701.6243,-97.5 701.6243,-67.5 586.6243,-67.5"/>
<text text-anchor="start" x="594.6243" y="-85.5" font-family="Helvetica,sans-Serif" font-size="10.00" fill="#000000">src/application_server</text>
<text text-anchor="middle" x="644.1243" y="-74.5" font-family="Helvetica,sans-Serif" font-size="10.00" fill="#000000">/client.cpp</text>
</a>
</g>
</g>
<!-- Node5&#45;&gt;Node6 -->
<g id="edge5" class="edge">
<title>Node5&#45;&gt;Node6</title>
<path fill="none" stroke="#191970" d="M644.1243,-124.0249C644.1243,-115.128 644.1243,-105.4287 644.1243,-97.6432"/>
<polygon fill="#191970" stroke="#191970" points="640.6244,-124.2966 644.1243,-134.2967 647.6244,-124.2967 640.6244,-124.2966"/>
</g>
<!-- Node5&#45;&gt;Node7 -->
<g id="edge6" class="edge">
<title>Node5&#45;&gt;Node7</title>
<path fill="none" stroke="#191970" d="M683.0056,-129.9132C703.3886,-119.645 727.9815,-107.2561 746.9159,-97.7177"/>
<polygon fill="#191970" stroke="#191970" points="681.3282,-126.8391 673.9721,-134.4639 684.4775,-133.0906 681.3282,-126.8391"/>
</g>
<!-- Node10 -->
<g id="node10" class="node">
<title>Node10</title>
<g id="a_node10"><a xlink:href="main_8h.html" target="_top" xlink:title=" ">
<polygon fill="#ffffff" stroke="#000000" points="320.6243,-67.5 320.6243,-97.5 435.6243,-97.5 435.6243,-67.5 320.6243,-67.5"/>
<text text-anchor="start" x="328.6243" y="-85.5" font-family="Helvetica,sans-Serif" font-size="10.00" fill="#000000">src/application_server</text>
<text text-anchor="middle" x="378.1243" y="-74.5" font-family="Helvetica,sans-Serif" font-size="10.00" fill="#000000">/main.h</text>
</a>
</g>
</g>
<!-- Node5&#45;&gt;Node10 -->
<g id="edge9" class="edge">
<title>Node5&#45;&gt;Node10</title>
<path fill="none" stroke="#191970" d="M576.4821,-132.4623C532.9928,-121.5082 477.0961,-107.429 435.7297,-97.0096"/>
<polygon fill="#191970" stroke="#191970" points="575.8542,-135.9134 586.4062,-134.962 577.564,-129.1254 575.8542,-135.9134"/>
</g>
<!-- Node11 -->
<g id="node11" class="node">
<title>Node11</title>
<g id="a_node11"><a xlink:href="menubar_8cpp.html" target="_top" xlink:title=" ">
<polygon fill="#ffffff" stroke="#000000" points="453.6243,-67.5 453.6243,-97.5 568.6243,-97.5 568.6243,-67.5 453.6243,-67.5"/>
<text text-anchor="start" x="461.6243" y="-85.5" font-family="Helvetica,sans-Serif" font-size="10.00" fill="#000000">src/application_server</text>
<text text-anchor="middle" x="511.1243" y="-74.5" font-family="Helvetica,sans-Serif" font-size="10.00" fill="#000000">/menubar.cpp</text>
</a>
</g>
</g>
<!-- Node5&#45;&gt;Node11 -->
<g id="edge11" class="edge">
<title>Node5&#45;&gt;Node11</title>
<path fill="none" stroke="#191970" d="M605.243,-129.9132C584.8599,-119.645 560.267,-107.2561 541.3326,-97.7177"/>
<polygon fill="#191970" stroke="#191970" points="603.771,-133.0906 614.2765,-134.4639 606.9203,-126.8391 603.771,-133.0906"/>
</g>
<!-- Node8 -->
<g id="node8" class="node">
<title>Node8</title>
<g id="a_node8"><a xlink:href="gameloop_8cpp.html" target="_top" xlink:title=" ">
<polygon fill="#ffffff" stroke="#000000" points="719.6243,-.5 719.6243,-30.5 834.6243,-30.5 834.6243,-.5 719.6243,-.5"/>
<text text-anchor="start" x="727.6243" y="-18.5" font-family="Helvetica,sans-Serif" font-size="10.00" fill="#000000">src/application_server</text>
<text text-anchor="middle" x="777.1243" y="-7.5" font-family="Helvetica,sans-Serif" font-size="10.00" fill="#000000">/gameloop.cpp</text>
</a>
</g>
</g>
<!-- Node7&#45;&gt;Node8 -->
<g id="edge7" class="edge">
<title>Node7&#45;&gt;Node8</title>
<path fill="none" stroke="#191970" d="M777.1243,-57.0249C777.1243,-48.128 777.1243,-38.4287 777.1243,-30.6432"/>
<polygon fill="#191970" stroke="#191970" points="773.6244,-57.2966 777.1243,-67.2967 780.6244,-57.2967 773.6244,-57.2966"/>
</g>
<!-- Node7&#45;&gt;Node9 -->
<g id="edge8" class="edge">
<title>Node7&#45;&gt;Node9</title>
<path fill="none" stroke="#191970" d="M709.3906,-66.9873C574.9643,-43.6304 428.8172,-28.1981 349.8802,-20.6847"/>
<polygon fill="#191970" stroke="#191970" points="709.0047,-70.473 719.4594,-68.7557 710.2156,-63.5785 709.0047,-70.473"/>
</g>
<!-- Node10&#45;&gt;Node9 -->
<g id="edge10" class="edge">
<title>Node10&#45;&gt;Node9</title>
<path fill="none" stroke="#191970" d="M350.6098,-61.0643C337.8938,-51.1577 323.0926,-39.6265 311.5618,-30.6432"/>
<polygon fill="#191970" stroke="#191970" points="348.5699,-63.9119 358.6095,-67.2967 352.872,-58.3899 348.5699,-63.9119"/>
</g>
<!-- Node12&#45;&gt;Node5 -->
<g id="edge13" class="edge">
<title>Node12&#45;&gt;Node5</title>
<path fill="none" stroke="#191970" d="M550.0056,-196.9132C570.3886,-186.645 594.9815,-174.2561 613.9159,-164.7177"/>
<polygon fill="#191970" stroke="#191970" points="548.3282,-193.8391 540.9721,-201.4639 551.4775,-200.0906 548.3282,-193.8391"/>
</g>
<!-- Node12&#45;&gt;Node7 -->
<g id="edge14" class="edge">
<title>Node12&#45;&gt;Node7</title>
<path fill="none" stroke="#191970" d="M579.0801,-209.7126C619.676,-203.1409 670.8184,-190.2478 710.1243,-165 736.8263,-147.8482 757.8923,-116.5023 768.842,-97.7782"/>
<polygon fill="#191970" stroke="#191970" points="578.3576,-206.2823 569,-211.2508 579.4136,-213.2021 578.3576,-206.2823"/>
</g>
<!-- Node12&#45;&gt;Node9 -->
<g id="edge18" class="edge">
<title>Node12&#45;&gt;Node9</title>
<path fill="none" stroke="#191970" d="M443.3846,-207.3041C392.4776,-198.9395 328.6304,-184.8557 311.1243,-165 277.5568,-126.9271 283.9537,-60.7036 289.0211,-30.8598"/>
<polygon fill="#191970" stroke="#191970" points="442.9488,-210.7788 453.3759,-208.9008 444.0535,-203.8665 442.9488,-210.7788"/>
</g>
<!-- Node12&#45;&gt;Node13 -->
<g id="edge15" class="edge">
<title>Node12&#45;&gt;Node13</title>
<path fill="none" stroke="#191970" d="M472.243,-196.9132C451.8599,-186.645 427.267,-174.2561 408.3326,-164.7177"/>
<polygon fill="#191970" stroke="#191970" points="470.771,-200.0906 481.2765,-201.4639 473.9203,-193.8391 470.771,-200.0906"/>
</g>
<!-- Node12&#45;&gt;Node14 -->
<g id="edge19" class="edge">
<title>Node12&#45;&gt;Node14</title>
<path fill="none" stroke="#191970" d="M443.5871,-201.664C389.6954,-189.8255 315.0126,-173.4197 263.8738,-162.186"/>
<polygon fill="#191970" stroke="#191970" points="442.8794,-205.0919 453.3975,-203.819 444.3814,-198.2549 442.8794,-205.0919"/>
</g>
<!-- Node18 -->
<g id="node18" class="node">
<title>Node18</title>
<g id="a_node18"><a xlink:href="view_8cpp.html" target="_top" xlink:title=" ">
<polygon fill="#ffffff" stroke="#000000" points="453.6243,-134.5 453.6243,-164.5 568.6243,-164.5 568.6243,-134.5 453.6243,-134.5"/>
<text text-anchor="start" x="461.6243" y="-152.5" font-family="Helvetica,sans-Serif" font-size="10.00" fill="#000000">src/application_server</text>
<text text-anchor="middle" x="511.1243" y="-141.5" font-family="Helvetica,sans-Serif" font-size="10.00" fill="#000000">/view.cpp</text>
</a>
</g>
</g>
<!-- Node12&#45;&gt;Node18 -->
<g id="edge24" class="edge">
<title>Node12&#45;&gt;Node18</title>
<path fill="none" stroke="#191970" d="M511.1243,-191.0249C511.1243,-182.128 511.1243,-172.4287 511.1243,-164.6432"/>
<polygon fill="#191970" stroke="#191970" points="507.6244,-191.2966 511.1243,-201.2967 514.6244,-191.2967 507.6244,-191.2966"/>
</g>
<!-- Node13&#45;&gt;Node10 -->
<g id="edge16" class="edge">
<title>Node13&#45;&gt;Node10</title>
<path fill="none" stroke="#191970" d="M378.1243,-124.0249C378.1243,-115.128 378.1243,-105.4287 378.1243,-97.6432"/>
<polygon fill="#191970" stroke="#191970" points="374.6244,-124.2966 378.1243,-134.2967 381.6244,-124.2967 374.6244,-124.2966"/>
</g>
<!-- Node13&#45;&gt;Node11 -->
<g id="edge17" class="edge">
<title>Node13&#45;&gt;Node11</title>
<path fill="none" stroke="#191970" d="M417.0056,-129.9132C437.3886,-119.645 461.9815,-107.2561 480.9159,-97.7177"/>
<polygon fill="#191970" stroke="#191970" points="415.3282,-126.8391 407.9721,-134.4639 418.4775,-133.0906 415.3282,-126.8391"/>
</g>
<!-- Node15 -->
<g id="node15" class="node">
<title>Node15</title>
<g id="a_node15"><a xlink:href="sidepanel_8h.html" target="_top" xlink:title=" ">
<polygon fill="#ffffff" stroke="#000000" points="15.6243,-67.5 15.6243,-97.5 130.6243,-97.5 130.6243,-67.5 15.6243,-67.5"/>
<text text-anchor="start" x="23.6243" y="-85.5" font-family="Helvetica,sans-Serif" font-size="10.00" fill="#000000">src/application_server</text>
<text text-anchor="middle" x="73.1243" y="-74.5" font-family="Helvetica,sans-Serif" font-size="10.00" fill="#000000">/sidepanel.h</text>
</a>
</g>
</g>
<!-- Node14&#45;&gt;Node15 -->
<g id="edge20" class="edge">
<title>Node14&#45;&gt;Node15</title>
<path fill="none" stroke="#191970" d="M167.243,-129.9132C146.8599,-119.645 122.267,-107.2561 103.3326,-97.7177"/>
<polygon fill="#191970" stroke="#191970" points="165.771,-133.0906 176.2765,-134.4639 168.9203,-126.8391 165.771,-133.0906"/>
</g>
<!-- Node17 -->
<g id="node17" class="node">
<title>Node17</title>
<g id="a_node17"><a xlink:href="minimap_8cpp.html" target="_top" xlink:title=" ">
<polygon fill="#ffffff" stroke="#000000" points="148.6243,-67.5 148.6243,-97.5 263.6243,-97.5 263.6243,-67.5 148.6243,-67.5"/>
<text text-anchor="start" x="156.6243" y="-85.5" font-family="Helvetica,sans-Serif" font-size="10.00" fill="#000000">src/application_server</text>
<text text-anchor="middle" x="206.1243" y="-74.5" font-family="Helvetica,sans-Serif" font-size="10.00" fill="#000000">/minimap.cpp</text>
</a>
</g>
</g>
<!-- Node14&#45;&gt;Node17 -->
<g id="edge23" class="edge">
<title>Node14&#45;&gt;Node17</title>
<path fill="none" stroke="#191970" d="M206.1243,-124.0249C206.1243,-115.128 206.1243,-105.4287 206.1243,-97.6432"/>
<polygon fill="#191970" stroke="#191970" points="202.6244,-124.2966 206.1243,-134.2967 209.6244,-124.2967 202.6244,-124.2966"/>
</g>
<!-- Node15&#45;&gt;Node9 -->
<g id="edge21" class="edge">
<title>Node15&#45;&gt;Node9</title>
<path fill="none" stroke="#191970" d="M132.2467,-64.4123C166.8372,-53.8298 210.0042,-40.6235 242.762,-30.6017"/>
<polygon fill="#191970" stroke="#191970" points="130.8107,-61.1914 122.2721,-67.4639 132.8586,-67.8852 130.8107,-61.1914"/>
</g>
<!-- Node16 -->
<g id="node16" class="node">
<title>Node16</title>
<g id="a_node16"><a xlink:href="sidepanel_8cpp.html" target="_top" xlink:title=" ">
<polygon fill="#ffffff" stroke="#000000" points="15.6243,-.5 15.6243,-30.5 130.6243,-30.5 130.6243,-.5 15.6243,-.5"/>
<text text-anchor="start" x="23.6243" y="-18.5" font-family="Helvetica,sans-Serif" font-size="10.00" fill="#000000">src/application_server</text>
<text text-anchor="middle" x="73.1243" y="-7.5" font-family="Helvetica,sans-Serif" font-size="10.00" fill="#000000">/sidepanel.cpp</text>
</a>
</g>
</g>
<!-- Node15&#45;&gt;Node16 -->
<g id="edge22" class="edge">
<title>Node15&#45;&gt;Node16</title>
<path fill="none" stroke="#191970" d="M73.1243,-57.0249C73.1243,-48.128 73.1243,-38.4287 73.1243,-30.6432"/>
<polygon fill="#191970" stroke="#191970" points="69.6244,-57.2966 73.1243,-67.2967 76.6244,-57.2967 69.6244,-57.2966"/>
</g>
</g>
</svg>
        <g id="navigator" transform="translate(0 0)" fill="#404254">
                <rect fill="#f2f5e9" fill-opacity="0.5" stroke="#606060" stroke-width=".5" x="0" y="0" width="60" height="60"/>
                <use id="zoomplus" xlink:href="#zoomPlus" x="17" y="9" onmousedown="handleZoom(evt,'in')"/>
                <use id="zoomminus" xlink:href="#zoomMin" x="42" y="9" onmousedown="handleZoom(evt,'out')"/>
                <use id="reset" xlink:href="#resetDef" x="30" y="36" onmousedown="handleReset()"/>
                <g id="arrowUp" xlink:href="#dirArrow" transform="translate(30 24)" onmousedown="handlePan(0,-1)">
                  <use xlink:href="#rim" fill="#404040">
                        <set attributeName="fill" to="#808080" begin="arrowUp.mouseover" end="arrowUp.mouseout"/>
                  </use>
                  <path fill="none" stroke="white" stroke-width="1.5" d="M0,-3.0v7 M-2.5,-0.5L0,-3.0L2.5,-0.5"/>
                </g>
                <g id="arrowRight" xlink:href="#dirArrow" transform="rotate(90) translate(36 -43)" onmousedown="handlePan(1,0)">
                  <use xlink:href="#rim" fill="#404040">
                        <set attributeName="fill" to="#808080" begin="arrowRight.mouseover" end="arrowRight.mouseout"/>
                  </use>
                  <path fill="none" stroke="white" stroke-width="1.5" d="M0,-3.0v7 M-2.5,-0.5L0,-3.0L2.5,-0.5"/>
                </g>
                <g id="arrowDown" xlink:href="#dirArrow" transform="rotate(180) translate(-30 -48)" onmousedown="handlePan(0,1)">
                  <use xlink:href="#rim" fill="#404040">
                        <set attributeName="fill" to="#808080" begin="arrowDown.mouseover" end="arrowDown.mouseout"/>
                  </use>
                  <path fill="none" stroke="white" stroke-width="1.5" d="M0,-3.0v7 M-2.5,-0.5L0,-3.0L2.5,-0.5"/>
                </g>
                <g id="arrowLeft" xlink:href="#dirArrow" transform="rotate(270) translate(-36 17)" onmousedown="handlePan(-1,0)">
                  <use xlink:href="#rim" fill="#404040">
                        <set attributeName="fill" to="#808080" begin="arrowLeft.mouseover" end="arrowLeft.mouseout"/>
                  </use>
                  <path fill="none" stroke="white" stroke-width="1.5" d="M0,-3.0v7 M-2.5,-0.5L0,-3.0L2.5,-0.5"/>
                </g>
        </g>
        <svg viewBox="0 0 15 15" width="100%" height="30px" preserveAspectRatio="xMaxYMin meet">
         <g id="arrow_out" transform="scale(0.3 0.3)">
          <a xlink:href="city_8h__dep__incl_org.svg" target="_base">
           <rect id="button" ry="5" rx="5" y="6" x="6" height="38" width="38"
                fill="#f2f5e9" fill-opacity="0.5" stroke="#606060" stroke-width="1.0"/>
           <path id="arrow"
             d="M 11.500037,31.436501 C 11.940474,20.09759 22.043105,11.32322 32.158766,21.979434 L 37.068811,17.246167 C 37.068811,17.246167 37.088388,32 37.088388,32 L 22.160133,31.978069 C 22.160133,31.978069 26.997745,27.140456 26.997745,27.140456 C 18.528582,18.264221 13.291696,25.230495 11.500037,31.436501 z"
             style="fill:#404040;"/>
          </a>
         </g>
        </svg>
</svg>
