<?xml version="1.0" encoding="UTF-8" standalone="no"?>
<!DOCTYPE svg PUBLIC "-//W3C//DTD SVG 1.1//EN"
 "http://www.w3.org/Graphics/SVG/1.1/DTD/svg11.dtd">
<!-- Generated by graphviz version 2.40.1 (20161225.0304)
 -->
<!-- Title: MapRenderer::logicUpdate Pages: 1 -->
<svg width="341pt" height="180pt"
 viewBox="0.00 0.00 341.00 180.00" xmlns="http://www.w3.org/2000/svg" xmlns:xlink="http://www.w3.org/1999/xlink">
<g id="graph0" class="graph" transform="scale(1 1) rotate(0) translate(4 176)">
<title>MapRenderer::logicUpdate</title>
<polygon fill="#ffffff" stroke="transparent" points="-4,4 -4,-176 337,-176 337,4 -4,4"/>
<!-- Node1 -->
<g id="node1" class="node">
<title>Node1</title>
<g id="a_node1"><a xlink:title="MapRenderer::logicUpdate Führt einen Logikschritt durch (Animationen etc.)">
<polygon fill="#bfbfbf" stroke="#000000" points="0,-76.5 0,-95.5 138,-95.5 138,-76.5 0,-76.5"/>
<text text-anchor="middle" x="69" y="-83.5" font-family="Helvetica,sans-Serif" font-size="10.00" fill="#000000">MapRenderer::logicUpdate</text>
</a>
</g>
</g>
<!-- Node2 -->
<g id="node2" class="node">
<title>Node2</title>
<g id="a_node2"><a xlink:href="classPoint.html#a0b82a4aa9614c11854abc507d89a70a9" target="_top" xlink:title="Point::getX Gibt die X&#45;Koordinate des Punktes.">
<polygon fill="#ffffff" stroke="#000000" points="220.5,-152.5 220.5,-171.5 286.5,-171.5 286.5,-152.5 220.5,-152.5"/>
<text text-anchor="middle" x="253.5" y="-159.5" font-family="Helvetica,sans-Serif" font-size="10.00" fill="#000000">Point::getX</text>
</a>
</g>
</g>
<!-- Node1&#45;&gt;Node2 -->
<g id="edge1" class="edge">
<title>Node1&#45;&gt;Node2</title>
<path fill="none" stroke="#191970" d="M83.7036,-95.6069C103.4845,-108.1439 140.1053,-130.0105 174,-143 185.5947,-147.4434 198.5509,-151.0691 210.5834,-153.9168"/>
<polygon fill="#191970" stroke="#191970" points="209.8993,-157.3503 220.4232,-156.1268 211.4333,-150.5204 209.8993,-157.3503"/>
</g>
<!-- Node3 -->
<g id="node3" class="node">
<title>Node3</title>
<g id="a_node3"><a xlink:href="classPoint.html#a3770f321c49dfe7ca463900fddc2e2bc" target="_top" xlink:title="Point::getX Gibt die Y&#45;Koordinate des Punktes.">
<polygon fill="#ffffff" stroke="#000000" points="220.5,-114.5 220.5,-133.5 286.5,-133.5 286.5,-114.5 220.5,-114.5"/>
<text text-anchor="middle" x="253.5" y="-121.5" font-family="Helvetica,sans-Serif" font-size="10.00" fill="#000000">Point::getY</text>
</a>
</g>
</g>
<!-- Node1&#45;&gt;Node3 -->
<g id="edge2" class="edge">
<title>Node1&#45;&gt;Node3</title>
<path fill="none" stroke="#191970" d="M115.5571,-95.589C144.6502,-101.5811 181.8548,-109.2438 210.2928,-115.101"/>
<polygon fill="#191970" stroke="#191970" points="209.8415,-118.5814 220.342,-117.1707 211.2537,-111.7253 209.8415,-118.5814"/>
</g>
<!-- Node4 -->
<g id="node4" class="node">
<title>Node4</title>
<g id="a_node4"><a xlink:href="classPoint.html#a5fe68f58cafb4cbc29f09de0978344fd" target="_top" xlink:title="Point::move Verschiebt den Punkt.">
<polygon fill="#ffffff" stroke="#000000" points="218,-76.5 218,-95.5 289,-95.5 289,-76.5 218,-76.5"/>
<text text-anchor="middle" x="253.5" y="-83.5" font-family="Helvetica,sans-Serif" font-size="10.00" fill="#000000">Point::move</text>
</a>
</g>
</g>
<!-- Node1&#45;&gt;Node4 -->
<g id="edge3" class="edge">
<title>Node1&#45;&gt;Node4</title>
<path fill="none" stroke="#191970" d="M138.2259,-86C161.4062,-86 186.6584,-86 207.6034,-86"/>
<polygon fill="#191970" stroke="#191970" points="207.8198,-89.5001 217.8198,-86 207.8197,-82.5001 207.8198,-89.5001"/>
</g>
<!-- Node5 -->
<g id="node5" class="node">
<title>Node5</title>
<g id="a_node5"><a xlink:href="classPoint.html#a773af172e76895550d05b081b15493fb" target="_top" xlink:title="Point::set Ändert die Koordinaten.">
<polygon fill="#ffffff" stroke="#000000" points="224,-38.5 224,-57.5 283,-57.5 283,-38.5 224,-38.5"/>
<text text-anchor="middle" x="253.5" y="-45.5" font-family="Helvetica,sans-Serif" font-size="10.00" fill="#000000">Point::set</text>
</a>
</g>
</g>
<!-- Node1&#45;&gt;Node5 -->
<g id="edge4" class="edge">
<title>Node1&#45;&gt;Node5</title>
<path fill="none" stroke="#191970" d="M115.5571,-76.411C145.8862,-70.1644 185.0307,-62.1021 213.8685,-56.1626"/>
<polygon fill="#191970" stroke="#191970" points="214.9028,-59.5231 223.9912,-54.0777 213.4907,-52.667 214.9028,-59.5231"/>
</g>
<!-- Node6 -->
<g id="node6" class="node">
<title>Node6</title>
<g id="a_node6"><a xlink:href="classDataModel.html#a2dcc97fd7387151077bcb3794b1614af" target="_top" xlink:title="DataModel::updateCoordinates Aktualisiert die Koordinaten des fokussierten Quadrantens.">
<polygon fill="#ffffff" stroke="#000000" points="174,-.5 174,-19.5 333,-19.5 333,-.5 174,-.5"/>
<text text-anchor="middle" x="253.5" y="-7.5" font-family="Helvetica,sans-Serif" font-size="10.00" fill="#000000">DataModel::updateCoordinates</text>
</a>
</g>
</g>
<!-- Node1&#45;&gt;Node6 -->
<g id="edge5" class="edge">
<title>Node1&#45;&gt;Node6</title>
<path fill="none" stroke="#191970" d="M83.7036,-76.3931C103.4845,-63.8561 140.1053,-41.9895 174,-29 180.6504,-26.4514 187.7487,-24.1718 194.8637,-22.1537"/>
<polygon fill="#191970" stroke="#191970" points="195.7818,-25.5313 204.5358,-19.5632 193.9707,-18.7696 195.7818,-25.5313"/>
</g>
</g>
</svg>
