<?xml version="1.0" encoding="UTF-8" standalone="no"?>
<!DOCTYPE svg PUBLIC "-//W3C//DTD SVG 1.1//EN"
 "http://www.w3.org/Graphics/SVG/1.1/DTD/svg11.dtd">
<!-- Generated by graphviz version 2.40.1 (20161225.0304)
 -->
<!-- Title: MapRenderer::cloudAnimation Pages: 1 -->
<svg width="538pt" height="189pt"
 viewBox="0.00 0.00 538.00 189.00" xmlns="http://www.w3.org/2000/svg" xmlns:xlink="http://www.w3.org/1999/xlink">
<g id="graph0" class="graph" transform="scale(1 1) rotate(0) translate(4 185)">
<title>MapRenderer::cloudAnimation</title>
<polygon fill="#ffffff" stroke="transparent" points="-4,4 -4,-185 534,-185 534,4 -4,4"/>
<!-- Node1 -->
<g id="node1" class="node">
<title>Node1</title>
<g id="a_node1"><a xlink:title="MapRenderer::cloudAnimation Führt eine WolkpScaleen&#45;Animation aus.">
<polygon fill="#bfbfbf" stroke="#000000" points="0,-92.5 0,-111.5 153,-111.5 153,-92.5 0,-92.5"/>
<text text-anchor="middle" x="76.5" y="-99.5" font-family="Helvetica,sans-Serif" font-size="10.00" fill="#000000">MapRenderer::cloudAnimation</text>
</a>
</g>
</g>
<!-- Node2 -->
<g id="node2" class="node">
<title>Node2</title>
<g id="a_node2"><a xlink:href="classMapRenderer.html#af09cc87016da102e1874f9c4a42fd963" target="_top" xlink:title="MapRenderer::animateScale Animiert die Skalierung.">
<polygon fill="#ffffff" stroke="#000000" points="189,-161.5 189,-180.5 335,-180.5 335,-161.5 189,-161.5"/>
<text text-anchor="middle" x="262" y="-168.5" font-family="Helvetica,sans-Serif" font-size="10.00" fill="#000000">MapRenderer::animateScale</text>
</a>
</g>
</g>
<!-- Node1&#45;&gt;Node2 -->
<g id="edge1" class="edge">
<title>Node1&#45;&gt;Node2</title>
<path fill="none" stroke="#191970" d="M95.6208,-111.6554C117.6985,-122.5295 155.3074,-140.2171 189,-152 195.8839,-154.4074 203.2272,-156.6666 210.5043,-158.728"/>
<polygon fill="#191970" stroke="#191970" points="209.7685,-162.1551 220.3372,-161.4118 211.6117,-155.4021 209.7685,-162.1551"/>
</g>
<!-- Node3 -->
<g id="node3" class="node">
<title>Node3</title>
<g id="a_node3"><a xlink:href="classAnimationMovement.html#a80d0ce22ed161fcf03cc6f5106c58526" target="_top" xlink:title="AnimationMovement::setRepeat Setzt ob die Animation in Endlosschleife läuft.">
<polygon fill="#ffffff" stroke="#000000" points="205,-112 205,-142 319,-142 319,-112 205,-112"/>
<text text-anchor="start" x="213" y="-130" font-family="Helvetica,sans-Serif" font-size="10.00" fill="#000000">AnimationMovement::</text>
<text text-anchor="middle" x="262" y="-119" font-family="Helvetica,sans-Serif" font-size="10.00" fill="#000000">setRepeat</text>
</a>
</g>
</g>
<!-- Node1&#45;&gt;Node3 -->
<g id="edge2" class="edge">
<title>Node1&#45;&gt;Node3</title>
<path fill="none" stroke="#191970" d="M147.1588,-111.5227C162.7808,-113.6281 179.2906,-115.8532 194.7718,-117.9396"/>
<polygon fill="#191970" stroke="#191970" points="194.399,-121.4209 204.7769,-119.288 195.334,-114.4836 194.399,-121.4209"/>
</g>
<!-- Node4 -->
<g id="node4" class="node">
<title>Node4</title>
<g id="a_node4"><a xlink:href="classAnimationMovement.html#abee6a37d2f482a521120d528c2bc84dc" target="_top" xlink:title="AnimationMovement::setSpeed Setzt die Geschwindigkeit der Animation.">
<polygon fill="#ffffff" stroke="#000000" points="205,-63 205,-93 319,-93 319,-63 205,-63"/>
<text text-anchor="start" x="213" y="-81" font-family="Helvetica,sans-Serif" font-size="10.00" fill="#000000">AnimationMovement::</text>
<text text-anchor="middle" x="262" y="-70" font-family="Helvetica,sans-Serif" font-size="10.00" fill="#000000">setSpeed</text>
</a>
</g>
</g>
<!-- Node1&#45;&gt;Node4 -->
<g id="edge3" class="edge">
<title>Node1&#45;&gt;Node4</title>
<path fill="none" stroke="#191970" d="M150.0809,-92.4801C164.7324,-90.5845 180.0511,-88.6026 194.487,-86.7348"/>
<polygon fill="#191970" stroke="#191970" points="195.3522,-90.1522 204.8204,-85.3979 194.4539,-83.21 195.3522,-90.1522"/>
</g>
<!-- Node5 -->
<g id="node5" class="node">
<title>Node5</title>
<g id="a_node5"><a xlink:href="classMapRenderer.html#a4cb99b1a8f20b978c64f41e22cde070d" target="_top" xlink:title="MapRenderer::setViewportTilePosition Verschiebt den Viewport zu einer Tile&#45;Koordinate.">
<polygon fill="#ffffff" stroke="#000000" points="193.5,-14 193.5,-44 330.5,-44 330.5,-14 193.5,-14"/>
<text text-anchor="start" x="201.5" y="-32" font-family="Helvetica,sans-Serif" font-size="10.00" fill="#000000">MapRenderer::setViewport</text>
<text text-anchor="middle" x="262" y="-21" font-family="Helvetica,sans-Serif" font-size="10.00" fill="#000000">TilePosition</text>
</a>
</g>
</g>
<!-- Node1&#45;&gt;Node5 -->
<g id="edge4" class="edge">
<title>Node1&#45;&gt;Node5</title>
<path fill="none" stroke="#191970" d="M97.8754,-92.3252C120.3653,-82.2773 156.8857,-66.331 189,-54 194.7449,-51.7941 200.7787,-49.5749 206.8126,-47.4181"/>
<polygon fill="#191970" stroke="#191970" points="207.9849,-50.716 216.2531,-44.0913 205.6583,-44.114 207.9849,-50.716"/>
</g>
<!-- Node6 -->
<g id="node6" class="node">
<title>Node6</title>
<g id="a_node6"><a xlink:href="classPoint.html#a773af172e76895550d05b081b15493fb" target="_top" xlink:title="Point::set Ändert die Koordinaten.">
<polygon fill="#ffffff" stroke="#000000" points="421,-38.5 421,-57.5 480,-57.5 480,-38.5 421,-38.5"/>
<text text-anchor="middle" x="450.5" y="-45.5" font-family="Helvetica,sans-Serif" font-size="10.00" fill="#000000">Point::set</text>
</a>
</g>
</g>
<!-- Node5&#45;&gt;Node6 -->
<g id="edge5" class="edge">
<title>Node5&#45;&gt;Node6</title>
<path fill="none" stroke="#191970" d="M330.5861,-35.9132C357.4243,-38.6184 387.2678,-41.6265 410.4689,-43.965"/>
<polygon fill="#191970" stroke="#191970" points="410.3261,-47.4683 420.6267,-44.9889 411.0282,-40.5036 410.3261,-47.4683"/>
</g>
<!-- Node7 -->
<g id="node7" class="node">
<title>Node7</title>
<g id="a_node7"><a xlink:href="classDataModel.html#a2dcc97fd7387151077bcb3794b1614af" target="_top" xlink:title="DataModel::updateCoordinates Aktualisiert die Koordinaten des fokussierten Quadrantens.">
<polygon fill="#ffffff" stroke="#000000" points="371,-.5 371,-19.5 530,-19.5 530,-.5 371,-.5"/>
<text text-anchor="middle" x="450.5" y="-7.5" font-family="Helvetica,sans-Serif" font-size="10.00" fill="#000000">DataModel::updateCoordinates</text>
</a>
</g>
</g>
<!-- Node5&#45;&gt;Node7 -->
<g id="edge6" class="edge">
<title>Node5&#45;&gt;Node7</title>
<path fill="none" stroke="#191970" d="M330.5861,-22.0868C340.3759,-21.1 350.5656,-20.073 360.687,-19.0528"/>
<polygon fill="#191970" stroke="#191970" points="361.1697,-22.5219 370.7682,-18.0366 360.4676,-15.5572 361.1697,-22.5219"/>
</g>
</g>
</svg>
