<?xml version="1.0" encoding="UTF-8" standalone="no"?>
<!DOCTYPE svg PUBLIC "-//W3C//DTD SVG 1.1//EN"
 "http://www.w3.org/Graphics/SVG/1.1/DTD/svg11.dtd">
<!-- Generated by graphviz version 2.40.1 (20161225.0304)
 -->
<!-- Title: Scene Pages: 1 -->
<svg width="832pt" height="1169pt"
 viewBox="0.00 0.00 831.50 1169.00" xmlns="http://www.w3.org/2000/svg" xmlns:xlink="http://www.w3.org/1999/xlink">
<g id="graph0" class="graph" transform="scale(1 1) rotate(0) translate(4 1165)">
<title>Scene</title>
<polygon fill="#ffffff" stroke="transparent" points="-4,4 -4,-1165 827.5,-1165 827.5,4 -4,4"/>
<!-- Node1 -->
<g id="node1" class="node">
<title>Node1</title>
<g id="a_node1"><a xlink:title=" ">
<polygon fill="#bfbfbf" stroke="#000000" points="438.5,-.5 438.5,-200.5 566.5,-200.5 566.5,-.5 438.5,-.5"/>
<text text-anchor="middle" x="502.5" y="-188.5" font-family="Helvetica,sans-Serif" font-size="10.00" fill="#000000">Scene</text>
<polyline fill="none" stroke="#000000" points="438.5,-181.5 566.5,-181.5 "/>
<text text-anchor="start" x="446.5" y="-169.5" font-family="Helvetica,sans-Serif" font-size="10.00" fill="#000000">+ MAP_SIZE</text>
<text text-anchor="start" x="446.5" y="-158.5" font-family="Helvetica,sans-Serif" font-size="10.00" fill="#000000">+ TILE_SIZE</text>
<text text-anchor="start" x="446.5" y="-147.5" font-family="Helvetica,sans-Serif" font-size="10.00" fill="#000000">&#45; radiusHighlighter</text>
<text text-anchor="start" x="446.5" y="-136.5" font-family="Helvetica,sans-Serif" font-size="10.00" fill="#000000">&#45; textHint</text>
<text text-anchor="start" x="446.5" y="-125.5" font-family="Helvetica,sans-Serif" font-size="10.00" fill="#000000">&#45; showRadius</text>
<text text-anchor="start" x="446.5" y="-114.5" font-family="Helvetica,sans-Serif" font-size="10.00" fill="#000000">&#45; players</text>
<polyline fill="none" stroke="#000000" points="438.5,-107.5 566.5,-107.5 "/>
<text text-anchor="start" x="446.5" y="-95.5" font-family="Helvetica,sans-Serif" font-size="10.00" fill="#000000">+ Scene()</text>
<text text-anchor="start" x="446.5" y="-84.5" font-family="Helvetica,sans-Serif" font-size="10.00" fill="#000000">+ generateWorld()</text>
<text text-anchor="start" x="446.5" y="-73.5" font-family="Helvetica,sans-Serif" font-size="10.00" fill="#000000">+ setActiveTile()</text>
<text text-anchor="start" x="446.5" y="-62.5" font-family="Helvetica,sans-Serif" font-size="10.00" fill="#000000">+ getTileAt()</text>
<text text-anchor="start" x="446.5" y="-51.5" font-family="Helvetica,sans-Serif" font-size="10.00" fill="#000000">+ setTileAt()</text>
<text text-anchor="start" x="446.5" y="-40.5" font-family="Helvetica,sans-Serif" font-size="10.00" fill="#000000">+ tileChanged()</text>
<text text-anchor="start" x="446.5" y="-29.5" font-family="Helvetica,sans-Serif" font-size="10.00" fill="#000000">+ tick()</text>
<text text-anchor="start" x="446.5" y="-18.5" font-family="Helvetica,sans-Serif" font-size="10.00" fill="#000000">+ onSetTile()</text>
<text text-anchor="start" x="446.5" y="-7.5" font-family="Helvetica,sans-Serif" font-size="10.00" fill="#000000">+ updatePlayerPosition()</text>
</a>
</g>
</g>
<!-- Node2 -->
<g id="node2" class="node">
<title>Node2</title>
<g id="a_node2"><a xlink:title=" ">
<polygon fill="#ffffff" stroke="#bfbfbf" points="151.5,-446.5 151.5,-503.5 245.5,-503.5 245.5,-446.5 151.5,-446.5"/>
<text text-anchor="middle" x="198.5" y="-491.5" font-family="Helvetica,sans-Serif" font-size="10.00" fill="#000000">QGraphicsScene</text>
<polyline fill="none" stroke="#bfbfbf" points="151.5,-484.5 245.5,-484.5 "/>
<text text-anchor="middle" x="198.5" y="-472.5" font-family="Helvetica,sans-Serif" font-size="10.00" fill="#000000"> </text>
<polyline fill="none" stroke="#bfbfbf" points="151.5,-465.5 245.5,-465.5 "/>
<text text-anchor="middle" x="198.5" y="-453.5" font-family="Helvetica,sans-Serif" font-size="10.00" fill="#000000"> </text>
</a>
</g>
</g>
<!-- Node2&#45;&gt;Node1 -->
<g id="edge1" class="edge">
<title>Node2&#45;&gt;Node1</title>
<path fill="none" stroke="#191970" d="M200.1299,-436.1093C203.8438,-389.8545 215.8636,-312.226 254.5,-259 300.8762,-195.1115 381.6042,-150.6078 438.3286,-125.361"/>
<polygon fill="none" stroke="#191970" points="196.622,-436.0979 199.4046,-446.3208 203.6044,-436.594 196.622,-436.0979"/>
</g>
<!-- Node3 -->
<g id="node3" class="node">
<title>Node3</title>
<g id="a_node3"><a xlink:href="classHighlighter.html" target="_top" xlink:title=" ">
<polygon fill="#ffffff" stroke="#000000" points="463,-997.5 463,-1065.5 542,-1065.5 542,-997.5 463,-997.5"/>
<text text-anchor="middle" x="502.5" y="-1053.5" font-family="Helvetica,sans-Serif" font-size="10.00" fill="#000000">Highlighter</text>
<polyline fill="none" stroke="#000000" points="463,-1046.5 542,-1046.5 "/>
<text text-anchor="start" x="471" y="-1034.5" font-family="Helvetica,sans-Serif" font-size="10.00" fill="#000000">&#45; outline</text>
<polyline fill="none" stroke="#000000" points="463,-1027.5 542,-1027.5 "/>
<text text-anchor="start" x="471" y="-1015.5" font-family="Helvetica,sans-Serif" font-size="10.00" fill="#000000">+ Highlighter()</text>
<text text-anchor="start" x="471" y="-1004.5" font-family="Helvetica,sans-Serif" font-size="10.00" fill="#000000">+ setColor()</text>
</a>
</g>
</g>
<!-- Node3&#45;&gt;Node1 -->
<g id="edge2" class="edge">
<title>Node3&#45;&gt;Node1</title>
<path fill="none" stroke="#404040" d="M529.284,-997.3622C532.6609,-991.5164 535.5954,-985.2906 537.5,-979 583.8655,-825.8653 554.8524,-418.0563 537.5,-259 535.8439,-243.8199 533.3208,-227.9647 530.3718,-212.4003"/>
<polygon fill="none" stroke="#404040" points="530.3609,-212.3444 525.2764,-207.2309 528.0411,-200.5708 533.1255,-205.6843 530.3609,-212.3444"/>
<text text-anchor="middle" x="589.5" y="-717.5" font-family="Helvetica,sans-Serif" font-size="10.00" fill="#000000"> &#45;highlighter</text>
</g>
<!-- Node8 -->
<g id="node8" class="node">
<title>Node8</title>
<g id="a_node8"><a xlink:href="classPlayer.html" target="_top" xlink:title=" ">
<polygon fill="#ffffff" stroke="#000000" points="413,-810 413,-889 494,-889 494,-810 413,-810"/>
<text text-anchor="middle" x="453.5" y="-877" font-family="Helvetica,sans-Serif" font-size="10.00" fill="#000000">Player</text>
<polyline fill="none" stroke="#000000" points="413,-870 494,-870 "/>
<text text-anchor="start" x="421" y="-858" font-family="Helvetica,sans-Serif" font-size="10.00" fill="#000000">+ posX</text>
<text text-anchor="start" x="421" y="-847" font-family="Helvetica,sans-Serif" font-size="10.00" fill="#000000">+ posY</text>
<polyline fill="none" stroke="#000000" points="413,-840 494,-840 "/>
<text text-anchor="start" x="421" y="-828" font-family="Helvetica,sans-Serif" font-size="10.00" fill="#000000">+ Player()</text>
<text text-anchor="start" x="421" y="-817" font-family="Helvetica,sans-Serif" font-size="10.00" fill="#000000">+ setPosition()</text>
</a>
</g>
</g>
<!-- Node3&#45;&gt;Node8 -->
<g id="edge9" class="edge">
<title>Node3&#45;&gt;Node8</title>
<path fill="none" stroke="#404040" d="M488.6588,-997.2906C486.4467,-991.2479 484.2978,-984.9778 482.5,-979 474.9001,-953.7298 468.2957,-925.1496 463.3173,-901.2795"/>
<polygon fill="none" stroke="#404040" points="463.2657,-901.0263 458.1464,-895.9476 460.8655,-889.2688 465.9848,-894.3475 463.2657,-901.0263"/>
<text text-anchor="middle" x="510" y="-971" font-family="Helvetica,sans-Serif" font-size="10.00" fill="#000000"> +highlighter</text>
</g>
<!-- Node4 -->
<g id="node4" class="node">
<title>Node4</title>
<g id="a_node4"><a xlink:title=" ">
<polygon fill="#ffffff" stroke="#bfbfbf" points="450.5,-1103.5 450.5,-1160.5 554.5,-1160.5 554.5,-1103.5 450.5,-1103.5"/>
<text text-anchor="middle" x="502.5" y="-1148.5" font-family="Helvetica,sans-Serif" font-size="10.00" fill="#000000">QGraphicsRectItem</text>
<polyline fill="none" stroke="#bfbfbf" points="450.5,-1141.5 554.5,-1141.5 "/>
<text text-anchor="middle" x="502.5" y="-1129.5" font-family="Helvetica,sans-Serif" font-size="10.00" fill="#000000"> </text>
<polyline fill="none" stroke="#bfbfbf" points="450.5,-1122.5 554.5,-1122.5 "/>
<text text-anchor="middle" x="502.5" y="-1110.5" font-family="Helvetica,sans-Serif" font-size="10.00" fill="#000000"> </text>
</a>
</g>
</g>
<!-- Node4&#45;&gt;Node3 -->
<g id="edge3" class="edge">
<title>Node4&#45;&gt;Node3</title>
<path fill="none" stroke="#191970" d="M502.5,-1093.1903C502.5,-1084.1667 502.5,-1074.6233 502.5,-1065.8097"/>
<polygon fill="none" stroke="#191970" points="499.0001,-1093.4695 502.5,-1103.4696 506.0001,-1093.4696 499.0001,-1093.4695"/>
</g>
<!-- Node5 -->
<g id="node5" class="node">
<title>Node5</title>
<g id="a_node5"><a xlink:href="classMapTile.html" target="_top" xlink:title=" ">
<polygon fill="#ffffff" stroke="#000000" points="721.5,-380.5 721.5,-569.5 823.5,-569.5 823.5,-380.5 721.5,-380.5"/>
<text text-anchor="middle" x="772.5" y="-557.5" font-family="Helvetica,sans-Serif" font-size="10.00" fill="#000000">MapTile</text>
<polyline fill="none" stroke="#000000" points="721.5,-550.5 823.5,-550.5 "/>
<text text-anchor="start" x="729.5" y="-538.5" font-family="Helvetica,sans-Serif" font-size="10.00" fill="#000000">&#45; type</text>
<text text-anchor="start" x="729.5" y="-527.5" font-family="Helvetica,sans-Serif" font-size="10.00" fill="#000000">&#45; pixmapItem</text>
<text text-anchor="start" x="729.5" y="-516.5" font-family="Helvetica,sans-Serif" font-size="10.00" fill="#000000">&#45; currentRotation</text>
<polyline fill="none" stroke="#000000" points="721.5,-509.5 823.5,-509.5 "/>
<text text-anchor="start" x="729.5" y="-497.5" font-family="Helvetica,sans-Serif" font-size="10.00" fill="#000000">+ MapTile()</text>
<text text-anchor="start" x="729.5" y="-486.5" font-family="Helvetica,sans-Serif" font-size="10.00" fill="#000000">+ MapTile()</text>
<text text-anchor="start" x="729.5" y="-475.5" font-family="Helvetica,sans-Serif" font-size="10.00" fill="#000000">+ setType()</text>
<text text-anchor="start" x="729.5" y="-464.5" font-family="Helvetica,sans-Serif" font-size="10.00" fill="#000000">+ getType()</text>
<text text-anchor="start" x="729.5" y="-453.5" font-family="Helvetica,sans-Serif" font-size="10.00" fill="#000000">+ setRotation()</text>
<text text-anchor="start" x="729.5" y="-442.5" font-family="Helvetica,sans-Serif" font-size="10.00" fill="#000000">+ getRotation()</text>
<text text-anchor="start" x="729.5" y="-431.5" font-family="Helvetica,sans-Serif" font-size="10.00" fill="#000000">+ getRotationDeg()</text>
<text text-anchor="start" x="729.5" y="-420.5" font-family="Helvetica,sans-Serif" font-size="10.00" fill="#000000">+ setPosition()</text>
<text text-anchor="start" x="729.5" y="-409.5" font-family="Helvetica,sans-Serif" font-size="10.00" fill="#000000">+ isRiver()</text>
<text text-anchor="start" x="729.5" y="-398.5" font-family="Helvetica,sans-Serif" font-size="10.00" fill="#000000">+ isRail()</text>
<text text-anchor="start" x="729.5" y="-387.5" font-family="Helvetica,sans-Serif" font-size="10.00" fill="#000000">und 7 mehr ...</text>
</a>
</g>
</g>
<!-- Node5&#45;&gt;Node1 -->
<g id="edge4" class="edge">
<title>Node5&#45;&gt;Node1</title>
<path fill="none" stroke="#404040" d="M757.3364,-380.3512C747.6944,-340.3857 732.1883,-294.8964 707.5,-259 673.9861,-210.2714 620.8334,-169.7922 577.0493,-141.9398"/>
<polygon fill="none" stroke="#404040" points="576.8933,-141.8424 569.6854,-142.0575 566.7145,-135.4868 573.9225,-135.2717 576.8933,-141.8424"/>
<text text-anchor="middle" x="717.5" y="-233" font-family="Helvetica,sans-Serif" font-size="10.00" fill="#000000"> &#45;activeTile</text>
<text text-anchor="middle" x="717.5" y="-222" font-family="Helvetica,sans-Serif" font-size="10.00" fill="#000000">+data</text>
</g>
<!-- Node6 -->
<g id="node6" class="node">
<title>Node6</title>
<g id="a_node6"><a xlink:href="classGraphicsManager.html" target="_top" xlink:title=" ">
<polygon fill="#ffffff" stroke="#000000" points="590,-815.5 590,-883.5 703,-883.5 703,-815.5 590,-815.5"/>
<text text-anchor="middle" x="646.5" y="-871.5" font-family="Helvetica,sans-Serif" font-size="10.00" fill="#000000">GraphicsManager</text>
<polyline fill="none" stroke="#000000" points="590,-864.5 703,-864.5 "/>
<text text-anchor="start" x="598" y="-852.5" font-family="Helvetica,sans-Serif" font-size="10.00" fill="#000000">+ GRAPHICS</text>
<polyline fill="none" stroke="#000000" points="590,-845.5 703,-845.5 "/>
<text text-anchor="start" x="598" y="-833.5" font-family="Helvetica,sans-Serif" font-size="10.00" fill="#000000">+ GraphicsManager()</text>
<text text-anchor="start" x="598" y="-822.5" font-family="Helvetica,sans-Serif" font-size="10.00" fill="#000000">+ get()</text>
</a>
</g>
</g>
<!-- Node6&#45;&gt;Node1 -->
<g id="edge7" class="edge">
<title>Node6&#45;&gt;Node1</title>
<path fill="none" stroke="#404040" d="M642.2551,-815.1415C626.2305,-685.6082 570.0875,-233.4104 565.5,-219 564.7407,-216.615 563.9343,-214.2216 563.0859,-211.8246"/>
<polygon fill="none" stroke="#404040" points="563.084,-211.8194 557.2167,-207.6273 558.8297,-200.5989 564.697,-204.791 563.084,-211.8194"/>
<text text-anchor="middle" x="670" y="-472.5" font-family="Helvetica,sans-Serif" font-size="10.00" fill="#000000"> &#45;graphicsManager</text>
</g>
<!-- Node6&#45;&gt;Node5 -->
<g id="edge5" class="edge">
<title>Node6&#45;&gt;Node5</title>
<path fill="none" stroke="#404040" d="M649.1476,-815.4133C652.8855,-785.2363 661.8813,-741.1213 683.5,-709 690.9447,-697.9386 699.8639,-701.9302 707.5,-691 730.0649,-658.7009 744.933,-618.4266 754.6689,-581.4346"/>
<polygon fill="none" stroke="#404040" points="754.7297,-581.1924 752.3117,-574.3987 757.6528,-569.5538 760.0707,-576.3475 754.7297,-581.1924"/>
<text text-anchor="middle" x="726" y="-717.5" font-family="Helvetica,sans-Serif" font-size="10.00" fill="#000000"> &#45;graphicsManager</text>
</g>
<!-- Node7 -->
<g id="node7" class="node">
<title>Node7</title>
<g id="a_node7"><a xlink:href="classCity.html" target="_top" xlink:title=" ">
<polygon fill="#ffffff" stroke="#000000" points="731,-760.5 731,-938.5 814,-938.5 814,-760.5 731,-760.5"/>
<text text-anchor="middle" x="772.5" y="-926.5" font-family="Helvetica,sans-Serif" font-size="10.00" fill="#000000">City</text>
<polyline fill="none" stroke="#000000" points="731,-919.5 814,-919.5 "/>
<text text-anchor="start" x="739" y="-907.5" font-family="Helvetica,sans-Serif" font-size="10.00" fill="#000000">&#45; size</text>
<text text-anchor="start" x="739" y="-896.5" font-family="Helvetica,sans-Serif" font-size="10.00" fill="#000000">&#45; centerX</text>
<text text-anchor="start" x="739" y="-885.5" font-family="Helvetica,sans-Serif" font-size="10.00" fill="#000000">&#45; centerY</text>
<text text-anchor="start" x="739" y="-874.5" font-family="Helvetica,sans-Serif" font-size="10.00" fill="#000000">&#45; name</text>
<polyline fill="none" stroke="#000000" points="731,-867.5 814,-867.5 "/>
<text text-anchor="start" x="739" y="-855.5" font-family="Helvetica,sans-Serif" font-size="10.00" fill="#000000">+ City()</text>
<text text-anchor="start" x="739" y="-844.5" font-family="Helvetica,sans-Serif" font-size="10.00" fill="#000000">+ City()</text>
<text text-anchor="start" x="739" y="-833.5" font-family="Helvetica,sans-Serif" font-size="10.00" fill="#000000">+ getSize()</text>
<text text-anchor="start" x="739" y="-822.5" font-family="Helvetica,sans-Serif" font-size="10.00" fill="#000000">+ getCenterX()</text>
<text text-anchor="start" x="739" y="-811.5" font-family="Helvetica,sans-Serif" font-size="10.00" fill="#000000">+ getCenterY()</text>
<text text-anchor="start" x="739" y="-800.5" font-family="Helvetica,sans-Serif" font-size="10.00" fill="#000000">+ getName()</text>
<text text-anchor="start" x="739" y="-789.5" font-family="Helvetica,sans-Serif" font-size="10.00" fill="#000000">+ setSize()</text>
<text text-anchor="start" x="739" y="-778.5" font-family="Helvetica,sans-Serif" font-size="10.00" fill="#000000">+ setCenter()</text>
<text text-anchor="start" x="739" y="-767.5" font-family="Helvetica,sans-Serif" font-size="10.00" fill="#000000">+ setName()</text>
</a>
</g>
</g>
<!-- Node7&#45;&gt;Node5 -->
<g id="edge6" class="edge">
<title>Node7&#45;&gt;Node5</title>
<path fill="none" stroke="#404040" d="M772.5,-760.2737C772.5,-706.7603 772.5,-638.3717 772.5,-581.97"/>
<polygon fill="none" stroke="#404040" points="772.5001,-581.7588 768.5,-575.7588 772.5,-569.7588 776.5,-575.7588 772.5001,-581.7588"/>
<text text-anchor="middle" x="783.5" y="-717.5" font-family="Helvetica,sans-Serif" font-size="10.00" fill="#000000"> &#45;city</text>
</g>
<!-- Node8&#45;&gt;Node1 -->
<g id="edge8" class="edge">
<title>Node8&#45;&gt;Node1</title>
<path fill="none" stroke="#404040" d="M451.8077,-809.9204C448.3052,-714.6434 442.5342,-465.1497 467.5,-259 469.3359,-243.8406 471.9627,-227.9973 474.9634,-212.4388"/>
<polygon fill="none" stroke="#404040" points="474.9749,-212.3806 472.2268,-205.7137 477.324,-200.6128 480.0721,-207.2797 474.9749,-212.3806"/>
<text text-anchor="middle" x="502.5" y="-472.5" font-family="Helvetica,sans-Serif" font-size="10.00" fill="#000000"> &#45;secondPlayer</text>
</g>
<!-- Node9 -->
<g id="node9" class="node">
<title>Node9</title>
<g id="a_node9"><a xlink:href="classDataModel.html" target="_top" xlink:title=" ">
<polygon fill="#ffffff" stroke="#000000" points="264,-259.5 264,-690.5 401,-690.5 401,-259.5 264,-259.5"/>
<text text-anchor="middle" x="332.5" y="-678.5" font-family="Helvetica,sans-Serif" font-size="10.00" fill="#000000">DataModel</text>
<polyline fill="none" stroke="#000000" points="264,-671.5 401,-671.5 "/>
<text text-anchor="start" x="272" y="-659.5" font-family="Helvetica,sans-Serif" font-size="10.00" fill="#000000">+ RADIUS_DEPOT</text>
<text text-anchor="start" x="272" y="-648.5" font-family="Helvetica,sans-Serif" font-size="10.00" fill="#000000">+ RADIUS_STATION</text>
<text text-anchor="start" x="272" y="-637.5" font-family="Helvetica,sans-Serif" font-size="10.00" fill="#000000">+ RADIUS_TERMINAL</text>
<text text-anchor="start" x="272" y="-626.5" font-family="Helvetica,sans-Serif" font-size="10.00" fill="#000000">+ mapLoaded</text>
<text text-anchor="start" x="272" y="-615.5" font-family="Helvetica,sans-Serif" font-size="10.00" fill="#000000">&#45; balance</text>
<text text-anchor="start" x="272" y="-604.5" font-family="Helvetica,sans-Serif" font-size="10.00" fill="#000000">&#45; time</text>
<text text-anchor="start" x="272" y="-593.5" font-family="Helvetica,sans-Serif" font-size="10.00" fill="#000000">&#45; coordinateX</text>
<text text-anchor="start" x="272" y="-582.5" font-family="Helvetica,sans-Serif" font-size="10.00" fill="#000000">&#45; coordinateY</text>
<text text-anchor="start" x="272" y="-571.5" font-family="Helvetica,sans-Serif" font-size="10.00" fill="#000000">&#45; ip</text>
<text text-anchor="start" x="272" y="-560.5" font-family="Helvetica,sans-Serif" font-size="10.00" fill="#000000">&#45; timeString</text>
<text text-anchor="start" x="272" y="-549.5" font-family="Helvetica,sans-Serif" font-size="10.00" fill="#000000">&#45; port</text>
<text text-anchor="start" x="272" y="-538.5" font-family="Helvetica,sans-Serif" font-size="10.00" fill="#000000">&#45; balanceLabel</text>
<text text-anchor="start" x="272" y="-527.5" font-family="Helvetica,sans-Serif" font-size="10.00" fill="#000000">&#45; timeLabel</text>
<text text-anchor="start" x="272" y="-516.5" font-family="Helvetica,sans-Serif" font-size="10.00" fill="#000000">&#45; positionLabel</text>
<text text-anchor="start" x="272" y="-505.5" font-family="Helvetica,sans-Serif" font-size="10.00" fill="#000000">&#45; statusDisplay</text>
<text text-anchor="start" x="272" y="-494.5" font-family="Helvetica,sans-Serif" font-size="10.00" fill="#000000">&#45; connectionLabel</text>
<text text-anchor="start" x="272" y="-483.5" font-family="Helvetica,sans-Serif" font-size="10.00" fill="#000000">&#45; mode</text>
<polyline fill="none" stroke="#000000" points="264,-476.5 401,-476.5 "/>
<text text-anchor="start" x="272" y="-464.5" font-family="Helvetica,sans-Serif" font-size="10.00" fill="#000000">+ DataModel()</text>
<text text-anchor="start" x="272" y="-453.5" font-family="Helvetica,sans-Serif" font-size="10.00" fill="#000000">+ getBalance()</text>
<text text-anchor="start" x="272" y="-442.5" font-family="Helvetica,sans-Serif" font-size="10.00" fill="#000000">+ updateBalance()</text>
<text text-anchor="start" x="272" y="-431.5" font-family="Helvetica,sans-Serif" font-size="10.00" fill="#000000">+ takeBalance()</text>
<text text-anchor="start" x="272" y="-420.5" font-family="Helvetica,sans-Serif" font-size="10.00" fill="#000000">+ timeTick()</text>
<text text-anchor="start" x="272" y="-409.5" font-family="Helvetica,sans-Serif" font-size="10.00" fill="#000000">+ getTime()</text>
<text text-anchor="start" x="272" y="-398.5" font-family="Helvetica,sans-Serif" font-size="10.00" fill="#000000">+ setTime()</text>
<text text-anchor="start" x="272" y="-387.5" font-family="Helvetica,sans-Serif" font-size="10.00" fill="#000000">+ getSystemMillis()</text>
<text text-anchor="start" x="272" y="-376.5" font-family="Helvetica,sans-Serif" font-size="10.00" fill="#000000">+ updateCoordinates()</text>
<text text-anchor="start" x="272" y="-365.5" font-family="Helvetica,sans-Serif" font-size="10.00" fill="#000000">+ getHoverX()</text>
<text text-anchor="start" x="272" y="-354.5" font-family="Helvetica,sans-Serif" font-size="10.00" fill="#000000">und 16 mehr ...</text>
<text text-anchor="start" x="272" y="-343.5" font-family="Helvetica,sans-Serif" font-size="10.00" fill="#000000">+ setDefaultMode()</text>
<text text-anchor="start" x="272" y="-332.5" font-family="Helvetica,sans-Serif" font-size="10.00" fill="#000000">+ setTrainStationMode()</text>
<text text-anchor="start" x="272" y="-321.5" font-family="Helvetica,sans-Serif" font-size="10.00" fill="#000000">+ setDepotMode()</text>
<text text-anchor="start" x="272" y="-310.5" font-family="Helvetica,sans-Serif" font-size="10.00" fill="#000000">+ setTerminalMode()</text>
<text text-anchor="start" x="272" y="-299.5" font-family="Helvetica,sans-Serif" font-size="10.00" fill="#000000">+ setBridgeMode()</text>
<text text-anchor="start" x="272" y="-288.5" font-family="Helvetica,sans-Serif" font-size="10.00" fill="#000000">+ setRailPlacementMode()</text>
<text text-anchor="start" x="272" y="-277.5" font-family="Helvetica,sans-Serif" font-size="10.00" fill="#000000">+ setRemoveMode()</text>
<text text-anchor="start" x="272" y="-266.5" font-family="Helvetica,sans-Serif" font-size="10.00" fill="#000000">+ setMapLoaded()</text>
</a>
</g>
</g>
<!-- Node8&#45;&gt;Node9 -->
<g id="edge15" class="edge">
<title>Node8&#45;&gt;Node9</title>
<path fill="none" stroke="#404040" d="M422.9425,-809.9416C399.3286,-779.0363 370.0737,-739.8786 366.5,-731 362.7699,-721.7328 359.4315,-712.1395 356.4449,-702.3471"/>
<polygon fill="none" stroke="#404040" points="356.4302,-702.2958 350.9214,-697.6424 353.0981,-690.7677 358.6069,-695.4211 356.4302,-702.2958"/>
<text text-anchor="middle" x="403" y="-717.5" font-family="Helvetica,sans-Serif" font-size="10.00" fill="#000000"> +secondPlayer</text>
</g>
<!-- Node9&#45;&gt;Node1 -->
<g id="edge10" class="edge">
<title>Node9&#45;&gt;Node1</title>
<path fill="none" stroke="#404040" d="M366.5238,-259.3825C371.6937,-245.3867 377.6464,-231.7924 384.5,-219 395.9422,-197.6429 412.464,-177.6173 429.5378,-160.3247"/>
<polygon fill="none" stroke="#404040" points="429.9271,-159.9427 431.4083,-152.8854 438.4925,-151.5383 437.0113,-158.5957 429.9271,-159.9427"/>
<text text-anchor="middle" x="412" y="-227.5" font-family="Helvetica,sans-Serif" font-size="10.00" fill="#000000"> &#45;dataModel</text>
</g>
<!-- Node10 -->
<g id="node10" class="node">
<title>Node10</title>
<g id="a_node10"><a xlink:title=" ">
<polygon fill="#ffffff" stroke="#bfbfbf" points="316,-821 316,-878 369,-878 369,-821 316,-821"/>
<text text-anchor="middle" x="342.5" y="-866" font-family="Helvetica,sans-Serif" font-size="10.00" fill="#000000">QObject</text>
<polyline fill="none" stroke="#bfbfbf" points="316,-859 369,-859 "/>
<text text-anchor="middle" x="342.5" y="-847" font-family="Helvetica,sans-Serif" font-size="10.00" fill="#000000"> </text>
<polyline fill="none" stroke="#bfbfbf" points="316,-840 369,-840 "/>
<text text-anchor="middle" x="342.5" y="-828" font-family="Helvetica,sans-Serif" font-size="10.00" fill="#000000"> </text>
</a>
</g>
</g>
<!-- Node10&#45;&gt;Node9 -->
<g id="edge11" class="edge">
<title>Node10&#45;&gt;Node9</title>
<path fill="none" stroke="#191970" d="M341.4559,-810.4003C340.66,-780.5905 339.4944,-736.9406 338.2657,-690.9243"/>
<polygon fill="none" stroke="#191970" points="337.9661,-810.8325 341.7319,-820.7355 344.9637,-810.6456 337.9661,-810.8325"/>
</g>
<!-- Node11 -->
<g id="node11" class="node">
<title>Node11</title>
<g id="a_node11"><a xlink:href="classInfoWidget.html" target="_top" xlink:title=" ">
<polygon fill="#ffffff" stroke="#000000" points="0,-749.5 0,-949.5 107,-949.5 107,-749.5 0,-749.5"/>
<text text-anchor="middle" x="53.5" y="-937.5" font-family="Helvetica,sans-Serif" font-size="10.00" fill="#000000">InfoWidget</text>
<polyline fill="none" stroke="#000000" points="0,-930.5 107,-930.5 "/>
<text text-anchor="start" x="8" y="-918.5" font-family="Helvetica,sans-Serif" font-size="10.00" fill="#000000">+ headerLabel</text>
<text text-anchor="start" x="8" y="-907.5" font-family="Helvetica,sans-Serif" font-size="10.00" fill="#000000">+ headerGut</text>
<text text-anchor="start" x="8" y="-896.5" font-family="Helvetica,sans-Serif" font-size="10.00" fill="#000000">+ headerLager</text>
<text text-anchor="start" x="8" y="-885.5" font-family="Helvetica,sans-Serif" font-size="10.00" fill="#000000">+ headerPreis</text>
<text text-anchor="start" x="8" y="-874.5" font-family="Helvetica,sans-Serif" font-size="10.00" fill="#000000">&#45; contentGut</text>
<text text-anchor="start" x="8" y="-863.5" font-family="Helvetica,sans-Serif" font-size="10.00" fill="#000000">&#45; contentLager</text>
<text text-anchor="start" x="8" y="-852.5" font-family="Helvetica,sans-Serif" font-size="10.00" fill="#000000">&#45; contentPreis</text>
<polyline fill="none" stroke="#000000" points="0,-845.5 107,-845.5 "/>
<text text-anchor="start" x="8" y="-833.5" font-family="Helvetica,sans-Serif" font-size="10.00" fill="#000000">+ InfoWidget()</text>
<text text-anchor="start" x="8" y="-822.5" font-family="Helvetica,sans-Serif" font-size="10.00" fill="#000000">+ setContentGut()</text>
<text text-anchor="start" x="8" y="-811.5" font-family="Helvetica,sans-Serif" font-size="10.00" fill="#000000">+ setContentLager()</text>
<text text-anchor="start" x="8" y="-800.5" font-family="Helvetica,sans-Serif" font-size="10.00" fill="#000000">+ setContentPreis()</text>
<text text-anchor="start" x="8" y="-789.5" font-family="Helvetica,sans-Serif" font-size="10.00" fill="#000000">+ getContentGut()</text>
<text text-anchor="start" x="8" y="-778.5" font-family="Helvetica,sans-Serif" font-size="10.00" fill="#000000">+ getContentLager()</text>
<text text-anchor="start" x="8" y="-767.5" font-family="Helvetica,sans-Serif" font-size="10.00" fill="#000000">+ getContentPreis()</text>
<text text-anchor="start" x="8" y="-756.5" font-family="Helvetica,sans-Serif" font-size="10.00" fill="#000000">+ sendInfoRequest()</text>
</a>
</g>
</g>
<!-- Node11&#45;&gt;Node9 -->
<g id="edge12" class="edge">
<title>Node11&#45;&gt;Node9</title>
<path fill="none" stroke="#404040" d="M101.0485,-749.1697C112.3413,-733.6816 125.7786,-719.4039 141.5,-709 183.91,-680.9346 215.314,-723.4149 254.5,-691 254.6008,-690.9166 254.7015,-690.8331 254.802,-690.7494"/>
<polygon fill="none" stroke="#404040" points="254.907,-690.6539 256.6527,-683.6573 263.7826,-682.5778 262.0368,-689.5744 254.907,-690.6539"/>
<text text-anchor="middle" x="169" y="-717.5" font-family="Helvetica,sans-Serif" font-size="10.00" fill="#000000"> &#45;infoWidget</text>
</g>
<!-- Node12 -->
<g id="node12" class="node">
<title>Node12</title>
<g id="a_node12"><a xlink:title=" ">
<polygon fill="#ffffff" stroke="#bfbfbf" points="25.5,-1003 25.5,-1060 81.5,-1060 81.5,-1003 25.5,-1003"/>
<text text-anchor="middle" x="53.5" y="-1048" font-family="Helvetica,sans-Serif" font-size="10.00" fill="#000000">QWidget</text>
<polyline fill="none" stroke="#bfbfbf" points="25.5,-1041 81.5,-1041 "/>
<text text-anchor="middle" x="53.5" y="-1029" font-family="Helvetica,sans-Serif" font-size="10.00" fill="#000000"> </text>
<polyline fill="none" stroke="#bfbfbf" points="25.5,-1022 81.5,-1022 "/>
<text text-anchor="middle" x="53.5" y="-1010" font-family="Helvetica,sans-Serif" font-size="10.00" fill="#000000"> </text>
</a>
</g>
</g>
<!-- Node12&#45;&gt;Node11 -->
<g id="edge13" class="edge">
<title>Node12&#45;&gt;Node11</title>
<path fill="none" stroke="#191970" d="M53.5,-992.4321C53.5,-979.6324 53.5,-964.7721 53.5,-949.5708"/>
<polygon fill="none" stroke="#191970" points="50.0001,-992.6615 53.5,-1002.6616 57.0001,-992.6616 50.0001,-992.6615"/>
</g>
<!-- Node13 -->
<g id="node13" class="node">
<title>Node13</title>
<g id="a_node13"><a xlink:href="classPoint.html" target="_top" xlink:title=" ">
<polygon fill="#ffffff" stroke="#000000" points="125.5,-782.5 125.5,-916.5 183.5,-916.5 183.5,-782.5 125.5,-782.5"/>
<text text-anchor="middle" x="154.5" y="-904.5" font-family="Helvetica,sans-Serif" font-size="10.00" fill="#000000">Point</text>
<polyline fill="none" stroke="#000000" points="125.5,-897.5 183.5,-897.5 "/>
<text text-anchor="start" x="133.5" y="-885.5" font-family="Helvetica,sans-Serif" font-size="10.00" fill="#000000">&#45; x</text>
<text text-anchor="start" x="133.5" y="-874.5" font-family="Helvetica,sans-Serif" font-size="10.00" fill="#000000">&#45; y</text>
<polyline fill="none" stroke="#000000" points="125.5,-867.5 183.5,-867.5 "/>
<text text-anchor="start" x="133.5" y="-855.5" font-family="Helvetica,sans-Serif" font-size="10.00" fill="#000000">+ Point()</text>
<text text-anchor="start" x="133.5" y="-844.5" font-family="Helvetica,sans-Serif" font-size="10.00" fill="#000000">+ getX()</text>
<text text-anchor="start" x="133.5" y="-833.5" font-family="Helvetica,sans-Serif" font-size="10.00" fill="#000000">+ getY()</text>
<text text-anchor="start" x="133.5" y="-822.5" font-family="Helvetica,sans-Serif" font-size="10.00" fill="#000000">+ add()</text>
<text text-anchor="start" x="133.5" y="-811.5" font-family="Helvetica,sans-Serif" font-size="10.00" fill="#000000">+ set()</text>
<text text-anchor="start" x="133.5" y="-800.5" font-family="Helvetica,sans-Serif" font-size="10.00" fill="#000000">+ move()</text>
<text text-anchor="start" x="133.5" y="-789.5" font-family="Helvetica,sans-Serif" font-size="10.00" fill="#000000">+ toTile()</text>
</a>
</g>
</g>
<!-- Node13&#45;&gt;Node9 -->
<g id="edge14" class="edge">
<title>Node13&#45;&gt;Node9</title>
<path fill="none" stroke="#404040" d="M177.9955,-782.2987C182.4761,-771.0345 187.3783,-759.5769 192.5,-749 201.5357,-730.3403 201.1393,-722.9239 216.5,-709 230.3459,-696.4491 241.9338,-704.8321 254.5,-691 255.0027,-690.4467 255.5022,-689.8899 255.9985,-689.3297"/>
<polygon fill="none" stroke="#404040" points="256.1028,-689.204 256.8562,-682.0324 263.766,-679.9695 263.0125,-687.1412 256.1028,-689.204"/>
<text text-anchor="middle" x="238.5" y="-723" font-family="Helvetica,sans-Serif" font-size="10.00" fill="#000000"> +minPos</text>
<text text-anchor="middle" x="238.5" y="-712" font-family="Helvetica,sans-Serif" font-size="10.00" fill="#000000">+maxPos</text>
</g>
<!-- Node14 -->
<g id="node14" class="node">
<title>Node14</title>
<g id="a_node14"><a xlink:href="classMainWindow.html" target="_top" xlink:title=" ">
<polygon fill="#ffffff" stroke="#000000" points="201.5,-815.5 201.5,-883.5 297.5,-883.5 297.5,-815.5 201.5,-815.5"/>
<text text-anchor="middle" x="249.5" y="-871.5" font-family="Helvetica,sans-Serif" font-size="10.00" fill="#000000">MainWindow</text>
<polyline fill="none" stroke="#000000" points="201.5,-864.5 297.5,-864.5 "/>
<text text-anchor="start" x="209.5" y="-852.5" font-family="Helvetica,sans-Serif" font-size="10.00" fill="#000000">&#45; ui</text>
<polyline fill="none" stroke="#000000" points="201.5,-845.5 297.5,-845.5 "/>
<text text-anchor="start" x="209.5" y="-833.5" font-family="Helvetica,sans-Serif" font-size="10.00" fill="#000000">+ MainWindow()</text>
<text text-anchor="start" x="209.5" y="-822.5" font-family="Helvetica,sans-Serif" font-size="10.00" fill="#000000">+ ~MainWindow()</text>
</a>
</g>
</g>
<!-- Node14&#45;&gt;Node9 -->
<g id="edge16" class="edge">
<title>Node14&#45;&gt;Node9</title>
<path fill="none" stroke="#404040" d="M252.4767,-815.4943C255.3086,-786.9003 260.2254,-745.0377 267.5,-709 267.9422,-706.8092 268.394,-704.6088 268.8548,-702.4002"/>
<polygon fill="none" stroke="#404040" points="268.8866,-702.2511 266.2326,-695.5462 271.401,-690.5175 274.055,-697.2224 268.8866,-702.2511"/>
<text text-anchor="middle" x="301.5" y="-717.5" font-family="Helvetica,sans-Serif" font-size="10.00" fill="#000000"> +mainWindow</text>
</g>
<!-- Node15 -->
<g id="node15" class="node">
<title>Node15</title>
<g id="a_node15"><a xlink:title=" ">
<polygon fill="#ffffff" stroke="#bfbfbf" points="208,-1003 208,-1060 291,-1060 291,-1003 208,-1003"/>
<text text-anchor="middle" x="249.5" y="-1048" font-family="Helvetica,sans-Serif" font-size="10.00" fill="#000000">QMainWindow</text>
<polyline fill="none" stroke="#bfbfbf" points="208,-1041 291,-1041 "/>
<text text-anchor="middle" x="249.5" y="-1029" font-family="Helvetica,sans-Serif" font-size="10.00" fill="#000000"> </text>
<polyline fill="none" stroke="#bfbfbf" points="208,-1022 291,-1022 "/>
<text text-anchor="middle" x="249.5" y="-1010" font-family="Helvetica,sans-Serif" font-size="10.00" fill="#000000"> </text>
</a>
</g>
</g>
<!-- Node15&#45;&gt;Node14 -->
<g id="edge17" class="edge">
<title>Node15&#45;&gt;Node14</title>
<path fill="none" stroke="#191970" d="M249.5,-992.2491C249.5,-959.9566 249.5,-914.6409 249.5,-883.7879"/>
<polygon fill="none" stroke="#191970" points="246.0001,-992.6615 249.5,-1002.6616 253.0001,-992.6616 246.0001,-992.6615"/>
</g>
</g>
</svg>
