<?xml version="1.0" encoding="UTF-8" standalone="no"?>
<!DOCTYPE svg PUBLIC "-//W3C//DTD SVG 1.1//EN"
 "http://www.w3.org/Graphics/SVG/1.1/DTD/svg11.dtd">
<!-- Generated by graphviz version 2.40.1 (20161225.0304)
 -->
<!-- Title: MapRenderer::tick Pages: 1 -->
<svg width="433pt" height="137pt"
 viewBox="0.00 0.00 433.00 137.00" xmlns="http://www.w3.org/2000/svg" xmlns:xlink="http://www.w3.org/1999/xlink">
<g id="graph0" class="graph" transform="scale(1 1) rotate(0) translate(4 133)">
<title>MapRenderer::tick</title>
<polygon fill="#ffffff" stroke="transparent" points="-4,4 -4,-133 429,-133 429,4 -4,4"/>
<!-- Node1 -->
<g id="node1" class="node">
<title>Node1</title>
<g id="a_node1"><a xlink:title=" ">
<polygon fill="#bfbfbf" stroke="#000000" points="0,-55 0,-74 99,-74 99,-55 0,-55"/>
<text text-anchor="middle" x="49.5" y="-62" font-family="Helvetica,sans-Serif" font-size="10.00" fill="#000000">MapRenderer::tick</text>
</a>
</g>
</g>
<!-- Node2 -->
<g id="node2" class="node">
<title>Node2</title>
<g id="a_node2"><a xlink:href="classMapRenderer.html#aba0aa93d6c80aa3817424207b088d5a5" target="_top" xlink:title="MapRenderer::spawnCloud Erzeugt eine neue Wolke die über die Karte fliegt.">
<polygon fill="#ffffff" stroke="#000000" points="135,-55 135,-74 275,-74 275,-55 135,-55"/>
<text text-anchor="middle" x="205" y="-62" font-family="Helvetica,sans-Serif" font-size="10.00" fill="#000000">MapRenderer::spawnCloud</text>
</a>
</g>
</g>
<!-- Node1&#45;&gt;Node2 -->
<g id="edge1" class="edge">
<title>Node1&#45;&gt;Node2</title>
<path fill="none" stroke="#191970" d="M99.1287,-64.5C107.306,-64.5 115.9628,-64.5 124.6629,-64.5"/>
<polygon fill="#191970" stroke="#191970" points="124.8699,-68.0001 134.8698,-64.5 124.8698,-61.0001 124.8699,-68.0001"/>
</g>
<!-- Node3 -->
<g id="node3" class="node">
<title>Node3</title>
<g id="a_node3"><a xlink:href="classAnimationMovement.html#ae9d448d345c9021f2d5f40ff8e04a18d" target="_top" xlink:title="AnimationMovement::setAutoRotate Setzt ob sich das Bild automatisch in Bewegungsrichtung drehen soll.">
<polygon fill="#ffffff" stroke="#000000" points="311,-98.5 311,-128.5 425,-128.5 425,-98.5 311,-98.5"/>
<text text-anchor="start" x="319" y="-116.5" font-family="Helvetica,sans-Serif" font-size="10.00" fill="#000000">AnimationMovement::</text>
<text text-anchor="middle" x="368" y="-105.5" font-family="Helvetica,sans-Serif" font-size="10.00" fill="#000000">setAutoRotate</text>
</a>
</g>
</g>
<!-- Node2&#45;&gt;Node3 -->
<g id="edge2" class="edge">
<title>Node2&#45;&gt;Node3</title>
<path fill="none" stroke="#191970" d="M236.815,-74.064C257.0909,-80.1592 284.0012,-88.2488 308.17,-95.5143"/>
<polygon fill="#191970" stroke="#191970" points="307.3948,-98.9359 317.9791,-98.463 309.4101,-92.2323 307.3948,-98.9359"/>
</g>
<!-- Node4 -->
<g id="node4" class="node">
<title>Node4</title>
<g id="a_node4"><a xlink:href="classAnimationMovement.html#a80d0ce22ed161fcf03cc6f5106c58526" target="_top" xlink:title="AnimationMovement::setRepeat Setzt ob die Animation in Endlosschleife läuft.">
<polygon fill="#ffffff" stroke="#000000" points="311,-49.5 311,-79.5 425,-79.5 425,-49.5 311,-49.5"/>
<text text-anchor="start" x="319" y="-67.5" font-family="Helvetica,sans-Serif" font-size="10.00" fill="#000000">AnimationMovement::</text>
<text text-anchor="middle" x="368" y="-56.5" font-family="Helvetica,sans-Serif" font-size="10.00" fill="#000000">setRepeat</text>
</a>
</g>
</g>
<!-- Node2&#45;&gt;Node4 -->
<g id="edge3" class="edge">
<title>Node2&#45;&gt;Node4</title>
<path fill="none" stroke="#191970" d="M275.0726,-64.5C283.5995,-64.5 292.2966,-64.5 300.7805,-64.5"/>
<polygon fill="#191970" stroke="#191970" points="300.9977,-68.0001 310.9977,-64.5 300.9976,-61.0001 300.9977,-68.0001"/>
</g>
<!-- Node5 -->
<g id="node5" class="node">
<title>Node5</title>
<g id="a_node5"><a xlink:href="classAnimationMovement.html#abee6a37d2f482a521120d528c2bc84dc" target="_top" xlink:title="AnimationMovement::setSpeed Setzt die Geschwindigkeit der Animation.">
<polygon fill="#ffffff" stroke="#000000" points="311,-.5 311,-30.5 425,-30.5 425,-.5 311,-.5"/>
<text text-anchor="start" x="319" y="-18.5" font-family="Helvetica,sans-Serif" font-size="10.00" fill="#000000">AnimationMovement::</text>
<text text-anchor="middle" x="368" y="-7.5" font-family="Helvetica,sans-Serif" font-size="10.00" fill="#000000">setSpeed</text>
</a>
</g>
</g>
<!-- Node2&#45;&gt;Node5 -->
<g id="edge4" class="edge">
<title>Node2&#45;&gt;Node5</title>
<path fill="none" stroke="#191970" d="M236.815,-54.936C257.0909,-48.8408 284.0012,-40.7512 308.17,-33.4857"/>
<polygon fill="#191970" stroke="#191970" points="309.4101,-36.7677 317.9791,-30.537 307.3948,-30.0641 309.4101,-36.7677"/>
</g>
</g>
</svg>
