<?xml version="1.0" encoding="UTF-8" standalone="no"?>
<!DOCTYPE svg PUBLIC "-//W3C//DTD SVG 1.1//EN"
 "http://www.w3.org/Graphics/SVG/1.1/DTD/svg11.dtd">
<!-- Generated by graphviz version 2.40.1 (20161225.0304)
 -->
<!-- Title: Sprite::step Pages: 1 -->
<svg width="507pt" height="28pt"
 viewBox="0.00 0.00 507.00 28.00" xmlns="http://www.w3.org/2000/svg" xmlns:xlink="http://www.w3.org/1999/xlink">
<g id="graph0" class="graph" transform="scale(1 1) rotate(0) translate(4 24)">
<title>Sprite::step</title>
<polygon fill="#ffffff" stroke="transparent" points="-4,4 -4,-24 503,-24 503,4 -4,4"/>
<!-- Node1 -->
<g id="node1" class="node">
<title>Node1</title>
<g id="a_node1"><a xlink:title="Sprite::step Führt einen Animationsschritt durch.">
<polygon fill="#bfbfbf" stroke="#000000" points="432,-.5 432,-19.5 499,-19.5 499,-.5 432,-.5"/>
<text text-anchor="middle" x="465.5" y="-7.5" font-family="Helvetica,sans-Serif" font-size="10.00" fill="#000000">Sprite::step</text>
</a>
</g>
</g>
<!-- Node2 -->
<g id="node2" class="node">
<title>Node2</title>
<g id="a_node2"><a xlink:href="classMapRenderer.html#ae20163bc4a97f6f9b9894aa186143716" target="_top" xlink:title="MapRenderer::logicUpdate Führt einen Logikschritt durch (Animationen etc.)">
<polygon fill="#ffffff" stroke="#000000" points="258,-.5 258,-19.5 396,-19.5 396,-.5 258,-.5"/>
<text text-anchor="middle" x="327" y="-7.5" font-family="Helvetica,sans-Serif" font-size="10.00" fill="#000000">MapRenderer::logicUpdate</text>
</a>
</g>
</g>
<!-- Node1&#45;&gt;Node2 -->
<g id="edge1" class="edge">
<title>Node1&#45;&gt;Node2</title>
<path fill="none" stroke="#191970" d="M421.8897,-10C413.6579,-10 404.8633,-10 396.0725,-10"/>
<polygon fill="#191970" stroke="#191970" points="421.973,-13.5001 431.973,-10 421.973,-6.5001 421.973,-13.5001"/>
</g>
<!-- Node3 -->
<g id="node3" class="node">
<title>Node3</title>
<g id="a_node3"><a xlink:href="classMapRenderer.html#a6f2ca0227403d4aa4e6bbd54d2d3ea5c" target="_top" xlink:title=" ">
<polygon fill="#ffffff" stroke="#000000" points="123,-.5 123,-19.5 222,-19.5 222,-.5 123,-.5"/>
<text text-anchor="middle" x="172.5" y="-7.5" font-family="Helvetica,sans-Serif" font-size="10.00" fill="#000000">MapRenderer::tick</text>
</a>
</g>
</g>
<!-- Node2&#45;&gt;Node3 -->
<g id="edge2" class="edge">
<title>Node2&#45;&gt;Node3</title>
<path fill="none" stroke="#191970" d="M247.6785,-10C238.9761,-10 230.3088,-10 222.1187,-10"/>
<polygon fill="#191970" stroke="#191970" points="247.8841,-13.5001 257.884,-10 247.884,-6.5001 247.8841,-13.5001"/>
</g>
<!-- Node4 -->
<g id="node4" class="node">
<title>Node4</title>
<g id="a_node4"><a xlink:href="classGameLoop.html#a5da2c7037d537d4feeffade3666ad3a3" target="_top" xlink:title="GameLoop::run Die Gameloop.">
<polygon fill="#ffffff" stroke="#000000" points="0,-.5 0,-19.5 87,-19.5 87,-.5 0,-.5"/>
<text text-anchor="middle" x="43.5" y="-7.5" font-family="Helvetica,sans-Serif" font-size="10.00" fill="#000000">GameLoop::run</text>
</a>
</g>
</g>
<!-- Node3&#45;&gt;Node4 -->
<g id="edge3" class="edge">
<title>Node3&#45;&gt;Node4</title>
<path fill="none" stroke="#191970" d="M112.9122,-10C104.2451,-10 95.459,-10 87.1848,-10"/>
<polygon fill="#191970" stroke="#191970" points="112.9942,-13.5001 122.9942,-10 112.9941,-6.5001 112.9942,-13.5001"/>
</g>
</g>
</svg>
