<?xml version="1.0" encoding="UTF-8" standalone="no"?>
<!DOCTYPE svg PUBLIC "-//W3C//DTD SVG 1.1//EN"
 "http://www.w3.org/Graphics/SVG/1.1/DTD/svg11.dtd">
<!-- Generated by graphviz version 2.40.1 (20161225.0304)
 -->
<!-- Title: MapTile::setRotation Pages: 1 -->
<!--zoomable 218 -->
<svg id="main" version="1.1" xmlns="http://www.w3.org/2000/svg" xmlns:xlink="http://www.w3.org/1999/xlink" xml:space="preserve" onload="init(evt)">
<style type="text/css"><![CDATA[
.edge:hover path { stroke: red; }
.edge:hover polygon { stroke: red; fill: red; }
]]></style>
<script type="text/javascript"><![CDATA[
var edges = document.getElementsByTagName('g');
if (edges && edges.length) {
  for (var i=0;i<edges.length;i++) {
    if (edges[i].id.substr(0,4)=='edge') {
      edges[i].setAttribute('class','edge');
    }
  }
}
]]></script>
        <defs>
                <circle id="rim" cx="0" cy="0" r="7"/>
                <circle id="rim2" cx="0" cy="0" r="3.5"/>
                <g id="zoomPlus">
                        <use xlink:href="#rim" fill="#404040">
                                <set attributeName="fill" to="#808080" begin="zoomplus.mouseover" end="zoomplus.mouseout"/>
                        </use>
                        <path d="M-4,0h8M0,-4v8" fill="none" stroke="white" stroke-width="1.5" pointer-events="none"/>
                </g>
                <g id="zoomMin">
                        <use xlink:href="#rim" fill="#404040">
                                <set attributeName="fill" to="#808080" begin="zoomminus.mouseover" end="zoomminus.mouseout"/>
                        </use>
                        <path d="M-4,0h8" fill="none" stroke="white" stroke-width="1.5" pointer-events="none"/>
                </g>
                <g id="dirArrow">
                        <path fill="none" stroke="white" stroke-width="1.5" d="M0,-3.0v7 M-2.5,-0.5L0,-3.0L2.5,-0.5"/>
                </g>
               <g id="resetDef">
                       <use xlink:href="#rim2" fill="#404040">
                               <set attributeName="fill" to="#808080" begin="reset.mouseover" end="reset.mouseout"/>
                       </use>
               </g>
        </defs>

<script type="text/javascript">
var viewWidth = 547;
var viewHeight = 218;
var sectionId = 'dynsection-12';
</script>
<script xlink:href="svgpan.js"/>
<svg id="graph" class="graph">
<g id="viewport">
<title>MapTile::setRotation</title>
<polygon fill="#ffffff" stroke="transparent" points="-4,4 -4,-214 543,-214 543,4 -4,4"/>
<!-- Node1 -->
<g id="node1" class="node">
<title>Node1</title>
<g id="a_node1"><a xlink:title="MapTile::setRotation Hilfsfunktion zur Rotation im Quadrat.">
<polygon fill="#bfbfbf" stroke="#000000" points="429,-95.5 429,-114.5 539,-114.5 539,-95.5 429,-95.5"/>
<text text-anchor="middle" x="484" y="-102.5" font-family="Helvetica,sans-Serif" font-size="10.00" fill="#000000">MapTile::setRotation</text>
</a>
</g>
</g>
<!-- Node2 -->
<g id="node2" class="node">
<title>Node2</title>
<g id="a_node2"><a xlink:href="classMapRenderer.html#a6b690a49223b2006a4816b706a4b156e" target="_top" xlink:title="MapRenderer::demo Zeigt eine Demo&#45;Visualisierung.">
<polygon fill="#ffffff" stroke="#000000" points="129.5,-190.5 129.5,-209.5 239.5,-209.5 239.5,-190.5 129.5,-190.5"/>
<text text-anchor="middle" x="184.5" y="-197.5" font-family="Helvetica,sans-Serif" font-size="10.00" fill="#000000">MapRenderer::demo</text>
</a>
</g>
</g>
<!-- Node1&#45;&gt;Node2 -->
<g id="edge1" class="edge">
<title>Node1&#45;&gt;Node2</title>
<path fill="none" stroke="#191970" d="M464.1952,-121.2487C446.5843,-134.8289 419.5766,-153.5972 393,-164 343.2297,-183.4815 282.682,-192.4472 239.6852,-196.5574"/>
<polygon fill="#191970" stroke="#191970" points="466.8184,-123.6369 472.496,-114.6918 462.4793,-118.1439 466.8184,-123.6369"/>
</g>
<!-- Node3 -->
<g id="node3" class="node">
<title>Node3</title>
<g id="a_node3"><a xlink:href="classScene.html#a1ef1c0e0972913d4c477ead916cf06b0" target="_top" xlink:title="Scene::generateWorld Diese Methode generiert eine neue Welt.">
<polygon fill="#ffffff" stroke="#000000" points="125,-152.5 125,-171.5 244,-171.5 244,-152.5 125,-152.5"/>
<text text-anchor="middle" x="184.5" y="-159.5" font-family="Helvetica,sans-Serif" font-size="10.00" fill="#000000">Scene::generateWorld</text>
</a>
</g>
</g>
<!-- Node1&#45;&gt;Node3 -->
<g id="edge2" class="edge">
<title>Node1&#45;&gt;Node3</title>
<path fill="none" stroke="#191970" d="M456.5947,-119.0303C438.9105,-127.4264 415.1523,-137.5032 393,-143 343.7871,-155.2115 286.2966,-159.7562 244.1631,-161.3637"/>
<polygon fill="#191970" stroke="#191970" points="458.2845,-122.1006 465.7457,-114.5785 455.2221,-115.8059 458.2845,-122.1006"/>
</g>
<!-- Node4 -->
<g id="node4" class="node">
<title>Node4</title>
<g id="a_node4"><a xlink:href="classScene.html#ad861f0bdfab5241fcec39c96f01105b0" target="_top" xlink:title="Scene::onSetTile Ändert ein MapTile ohne ein Signal an den Server. Notwendig zum Empfangen von Änderu...">
<polygon fill="#ffffff" stroke="#000000" points="136.5,-76.5 136.5,-95.5 232.5,-95.5 232.5,-76.5 136.5,-76.5"/>
<text text-anchor="middle" x="184.5" y="-83.5" font-family="Helvetica,sans-Serif" font-size="10.00" fill="#000000">Scene::onSetTile</text>
</a>
</g>
</g>
<!-- Node1&#45;&gt;Node4 -->
<g id="edge3" class="edge">
<title>Node1&#45;&gt;Node4</title>
<path fill="none" stroke="#191970" d="M418.5271,-100.8465C362.4245,-97.2874 282.9213,-92.2438 232.54,-89.0476"/>
<polygon fill="#191970" stroke="#191970" points="418.5165,-104.3527 428.7181,-101.493 418.9597,-97.3668 418.5165,-104.3527"/>
</g>
<!-- Node5 -->
<g id="node5" class="node">
<title>Node5</title>
<g id="a_node5"><a xlink:href="classScene.html#ad22fc5010d69665d13f8ccef2cb094b0" target="_top" xlink:title="Scene::Scene Konstruktor.">
<polygon fill="#ffffff" stroke="#000000" points="144,-38.5 144,-57.5 225,-57.5 225,-38.5 144,-38.5"/>
<text text-anchor="middle" x="184.5" y="-45.5" font-family="Helvetica,sans-Serif" font-size="10.00" fill="#000000">Scene::Scene</text>
</a>
</g>
</g>
<!-- Node1&#45;&gt;Node5 -->
<g id="edge4" class="edge">
<title>Node1&#45;&gt;Node5</title>
<path fill="none" stroke="#191970" d="M423.9322,-93.5681C364.8912,-82.3315 276.4044,-65.491 225.1646,-55.7392"/>
<polygon fill="#191970" stroke="#191970" points="423.3924,-97.0281 433.8704,-95.4595 424.7012,-90.1515 423.3924,-97.0281"/>
</g>
<!-- Node6 -->
<g id="node6" class="node">
<title>Node6</title>
<g id="a_node6"><a xlink:href="classScene.html#a38a79a03ba1fa403296646ee64ea8476" target="_top" xlink:title="Scene::setTileAt Setzt ein MapTile anhand der Pixel&#45;Koordinaten oder der Indezes.">
<polygon fill="#ffffff" stroke="#000000" points="138.5,-.5 138.5,-19.5 230.5,-19.5 230.5,-.5 138.5,-.5"/>
<text text-anchor="middle" x="184.5" y="-7.5" font-family="Helvetica,sans-Serif" font-size="10.00" fill="#000000">Scene::setTileAt</text>
</a>
</g>
</g>
<!-- Node1&#45;&gt;Node6 -->
<g id="edge5" class="edge">
<title>Node1&#45;&gt;Node6</title>
<path fill="none" stroke="#191970" d="M455.2641,-91.0281C437.5771,-82.767 414.2903,-72.4905 393,-65 334.8279,-44.5337 318.6563,-44.62 259,-29 247.1203,-25.8895 234.1574,-22.5608 222.4242,-19.5725"/>
<polygon fill="#191970" stroke="#191970" points="453.9295,-94.2686 464.4659,-95.3798 456.9222,-87.9405 453.9295,-94.2686"/>
</g>
<!-- Node7 -->
<g id="node7" class="node">
<title>Node7</title>
<g id="a_node7"><a xlink:href="classMapTile.html#a6f6c6e03095e0f1ed503dd30f499793c" target="_top" xlink:title="MapTile::setType Setzt den Typ der Kachel.">
<polygon fill="#ffffff" stroke="#000000" points="295,-114.5 295,-133.5 393,-133.5 393,-114.5 295,-114.5"/>
<text text-anchor="middle" x="344" y="-121.5" font-family="Helvetica,sans-Serif" font-size="10.00" fill="#000000">MapTile::setType</text>
</a>
</g>
</g>
<!-- Node1&#45;&gt;Node7 -->
<g id="edge6" class="edge">
<title>Node1&#45;&gt;Node7</title>
<path fill="none" stroke="#191970" d="M418.6311,-113.8715C410.0173,-115.0405 401.3096,-116.2223 393.0328,-117.3455"/>
<polygon fill="#191970" stroke="#191970" points="419.2298,-117.3224 428.6683,-112.5093 418.2884,-110.386 419.2298,-117.3224"/>
</g>
<!-- Node7&#45;&gt;Node2 -->
<g id="edge7" class="edge">
<title>Node7&#45;&gt;Node2</title>
<path fill="none" stroke="#191970" d="M324.0836,-140.2357C307.5522,-152.9782 282.9529,-170.2972 259,-181 250.5911,-184.7573 241.3029,-187.8695 232.2203,-190.4113"/>
<polygon fill="#191970" stroke="#191970" points="326.6927,-142.636 332.3824,-133.6985 322.3611,-137.1371 326.6927,-142.636"/>
</g>
<!-- Node7&#45;&gt;Node3 -->
<g id="edge8" class="edge">
<title>Node7&#45;&gt;Node3</title>
<path fill="none" stroke="#191970" d="M293.766,-135.968C271.4145,-141.2931 245.4617,-147.4762 224.4592,-152.4799"/>
<polygon fill="#191970" stroke="#191970" points="294.8349,-139.3114 303.7514,-133.589 293.2125,-132.502 294.8349,-139.3114"/>
</g>
<!-- Node7&#45;&gt;Node4 -->
<g id="edge9" class="edge">
<title>Node7&#45;&gt;Node4</title>
<path fill="none" stroke="#191970" d="M293.766,-112.032C271.4145,-106.7069 245.4617,-100.5238 224.4592,-95.5201"/>
<polygon fill="#191970" stroke="#191970" points="293.2125,-115.498 303.7514,-114.411 294.8349,-108.6886 293.2125,-115.498"/>
</g>
<!-- Node7&#45;&gt;Node5 -->
<g id="edge12" class="edge">
<title>Node7&#45;&gt;Node5</title>
<path fill="none" stroke="#191970" d="M324.0836,-107.7643C307.5522,-95.0218 282.9529,-77.7028 259,-67 248.3975,-62.2625 236.3971,-58.5507 225.1735,-55.7145"/>
<polygon fill="#191970" stroke="#191970" points="322.3611,-110.8629 332.3824,-114.3015 326.6927,-105.364 322.3611,-110.8629"/>
</g>
<!-- Node7&#45;&gt;Node6 -->
<g id="edge13" class="edge">
<title>Node7&#45;&gt;Node6</title>
<path fill="none" stroke="#191970" d="M332.7443,-105.9263C318.3276,-84.311 291.3055,-48.5985 259,-29 250.4409,-23.8075 240.5025,-20.0267 230.7276,-17.2761"/>
<polygon fill="#191970" stroke="#191970" points="329.9207,-108.0052 338.2927,-114.4983 335.7971,-104.2016 329.9207,-108.0052"/>
</g>
<!-- Node8 -->
<g id="node8" class="node">
<title>Node8</title>
<g id="a_node8"><a xlink:href="classMapRenderer.html#a472525cfdf5cd4ab4ed226457ae6f55a" target="_top" xlink:title="MapRenderer::onTileChange Wird aufgerufen wenn sich eine Kachel ändert.">
<polygon fill="#ffffff" stroke="#000000" points="110,-114.5 110,-133.5 259,-133.5 259,-114.5 110,-114.5"/>
<text text-anchor="middle" x="184.5" y="-121.5" font-family="Helvetica,sans-Serif" font-size="10.00" fill="#000000">MapRenderer::onTileChange</text>
</a>
</g>
</g>
<!-- Node7&#45;&gt;Node8 -->
<g id="edge10" class="edge">
<title>Node7&#45;&gt;Node8</title>
<path fill="none" stroke="#191970" d="M284.7838,-124C276.3817,-124 267.6533,-124 259.0074,-124"/>
<polygon fill="#191970" stroke="#191970" points="284.8433,-127.5001 294.8433,-124 284.8432,-120.5001 284.8433,-127.5001"/>
</g>
<!-- Node9 -->
<g id="node9" class="node">
<title>Node9</title>
<g id="a_node9"><a xlink:href="classClient.html#a16ec13dd45e134c3d1ec31dd26e1a119" target="_top" xlink:title="Client::Client Erzeugt einen neuen Client.">
<polygon fill="#ffffff" stroke="#000000" points="0,-114.5 0,-133.5 74,-133.5 74,-114.5 0,-114.5"/>
<text text-anchor="middle" x="37" y="-121.5" font-family="Helvetica,sans-Serif" font-size="10.00" fill="#000000">Client::Client</text>
</a>
</g>
</g>
<!-- Node8&#45;&gt;Node9 -->
<g id="edge11" class="edge">
<title>Node8&#45;&gt;Node9</title>
<path fill="none" stroke="#191970" d="M99.723,-124C90.7794,-124 82.0572,-124 74.0985,-124"/>
<polygon fill="#191970" stroke="#191970" points="99.8858,-127.5001 109.8858,-124 99.8857,-120.5001 99.8858,-127.5001"/>
</g>
</g>
</svg>
        <g id="navigator" transform="translate(0 0)" fill="#404254">
                <rect fill="#f2f5e9" fill-opacity="0.5" stroke="#606060" stroke-width=".5" x="0" y="0" width="60" height="60"/>
                <use id="zoomplus" xlink:href="#zoomPlus" x="17" y="9" onmousedown="handleZoom(evt,'in')"/>
                <use id="zoomminus" xlink:href="#zoomMin" x="42" y="9" onmousedown="handleZoom(evt,'out')"/>
                <use id="reset" xlink:href="#resetDef" x="30" y="36" onmousedown="handleReset()"/>
                <g id="arrowUp" xlink:href="#dirArrow" transform="translate(30 24)" onmousedown="handlePan(0,-1)">
                  <use xlink:href="#rim" fill="#404040">
                        <set attributeName="fill" to="#808080" begin="arrowUp.mouseover" end="arrowUp.mouseout"/>
                  </use>
                  <path fill="none" stroke="white" stroke-width="1.5" d="M0,-3.0v7 M-2.5,-0.5L0,-3.0L2.5,-0.5"/>
                </g>
                <g id="arrowRight" xlink:href="#dirArrow" transform="rotate(90) translate(36 -43)" onmousedown="handlePan(1,0)">
                  <use xlink:href="#rim" fill="#404040">
                        <set attributeName="fill" to="#808080" begin="arrowRight.mouseover" end="arrowRight.mouseout"/>
                  </use>
                  <path fill="none" stroke="white" stroke-width="1.5" d="M0,-3.0v7 M-2.5,-0.5L0,-3.0L2.5,-0.5"/>
                </g>
                <g id="arrowDown" xlink:href="#dirArrow" transform="rotate(180) translate(-30 -48)" onmousedown="handlePan(0,1)">
                  <use xlink:href="#rim" fill="#404040">
                        <set attributeName="fill" to="#808080" begin="arrowDown.mouseover" end="arrowDown.mouseout"/>
                  </use>
                  <path fill="none" stroke="white" stroke-width="1.5" d="M0,-3.0v7 M-2.5,-0.5L0,-3.0L2.5,-0.5"/>
                </g>
                <g id="arrowLeft" xlink:href="#dirArrow" transform="rotate(270) translate(-36 17)" onmousedown="handlePan(-1,0)">
                  <use xlink:href="#rim" fill="#404040">
                        <set attributeName="fill" to="#808080" begin="arrowLeft.mouseover" end="arrowLeft.mouseout"/>
                  </use>
                  <path fill="none" stroke="white" stroke-width="1.5" d="M0,-3.0v7 M-2.5,-0.5L0,-3.0L2.5,-0.5"/>
                </g>
        </g>
        <svg viewBox="0 0 15 15" width="100%" height="30px" preserveAspectRatio="xMaxYMin meet">
         <g id="arrow_out" transform="scale(0.3 0.3)">
          <a xlink:href="classMapTile_a57b8310cfe045dc6a8e0c3c25fe9fc52_icgraph_org.svg" target="_base">
           <rect id="button" ry="5" rx="5" y="6" x="6" height="38" width="38"
                fill="#f2f5e9" fill-opacity="0.5" stroke="#606060" stroke-width="1.0"/>
           <path id="arrow"
             d="M 11.500037,31.436501 C 11.940474,20.09759 22.043105,11.32322 32.158766,21.979434 L 37.068811,17.246167 C 37.068811,17.246167 37.088388,32 37.088388,32 L 22.160133,31.978069 C 22.160133,31.978069 26.997745,27.140456 26.997745,27.140456 C 18.528582,18.264221 13.291696,25.230495 11.500037,31.436501 z"
             style="fill:#404040;"/>
          </a>
         </g>
        </svg>
</svg>
