<?xml version="1.0" encoding="UTF-8" standalone="no"?>
<!DOCTYPE svg PUBLIC "-//W3C//DTD SVG 1.1//EN"
 "http://www.w3.org/Graphics/SVG/1.1/DTD/svg11.dtd">
<!-- Generated by graphviz version 2.40.1 (20161225.0304)
 -->
<!-- Title: RouteInterface Pages: 1 -->
<!--zoomable 485 -->
<svg id="main" version="1.1" xmlns="http://www.w3.org/2000/svg" xmlns:xlink="http://www.w3.org/1999/xlink" xml:space="preserve" onload="init(evt)">
<style type="text/css"><![CDATA[
.edge:hover path { stroke: red; }
.edge:hover polygon { stroke: red; fill: red; }
]]></style>
<script type="text/javascript"><![CDATA[
var edges = document.getElementsByTagName('g');
if (edges && edges.length) {
  for (var i=0;i<edges.length;i++) {
    if (edges[i].id.substr(0,4)=='edge') {
      edges[i].setAttribute('class','edge');
    }
  }
}
]]></script>
        <defs>
                <circle id="rim" cx="0" cy="0" r="7"/>
                <circle id="rim2" cx="0" cy="0" r="3.5"/>
                <g id="zoomPlus">
                        <use xlink:href="#rim" fill="#404040">
                                <set attributeName="fill" to="#808080" begin="zoomplus.mouseover" end="zoomplus.mouseout"/>
                        </use>
                        <path d="M-4,0h8M0,-4v8" fill="none" stroke="white" stroke-width="1.5" pointer-events="none"/>
                </g>
                <g id="zoomMin">
                        <use xlink:href="#rim" fill="#404040">
                                <set attributeName="fill" to="#808080" begin="zoomminus.mouseover" end="zoomminus.mouseout"/>
                        </use>
                        <path d="M-4,0h8" fill="none" stroke="white" stroke-width="1.5" pointer-events="none"/>
                </g>
                <g id="dirArrow">
                        <path fill="none" stroke="white" stroke-width="1.5" d="M0,-3.0v7 M-2.5,-0.5L0,-3.0L2.5,-0.5"/>
                </g>
               <g id="resetDef">
                       <use xlink:href="#rim2" fill="#404040">
                               <set attributeName="fill" to="#808080" begin="reset.mouseover" end="reset.mouseout"/>
                       </use>
               </g>
        </defs>

<script type="text/javascript">
var viewWidth = 366;
var viewHeight = 485;
var sectionId = 'dynsection-1';
</script>
<script xlink:href="svgpan.js"/>
<svg id="graph" class="graph">
<g id="viewport">
<title>RouteInterface</title>
<polygon fill="#ffffff" stroke="transparent" points="-4,4 -4,-481 362,-481 362,4 -4,4"/>
<!-- Node1 -->
<g id="node1" class="node">
<title>Node1</title>
<g id="a_node1"><a xlink:title=" ">
<polygon fill="#bfbfbf" stroke="#000000" points="96.5,-.5 96.5,-167.5 195.5,-167.5 195.5,-.5 96.5,-.5"/>
<text text-anchor="middle" x="146" y="-155.5" font-family="Helvetica,sans-Serif" font-size="10.00" fill="#000000">RouteInterface</text>
<polyline fill="none" stroke="#000000" points="96.5,-148.5 195.5,-148.5 "/>
<text text-anchor="start" x="104.5" y="-136.5" font-family="Helvetica,sans-Serif" font-size="10.00" fill="#000000">+ wagonCount</text>
<text text-anchor="start" x="104.5" y="-125.5" font-family="Helvetica,sans-Serif" font-size="10.00" fill="#000000">+ tsCoords</text>
<text text-anchor="start" x="104.5" y="-114.5" font-family="Helvetica,sans-Serif" font-size="10.00" fill="#000000">+ tsCount</text>
<text text-anchor="start" x="104.5" y="-103.5" font-family="Helvetica,sans-Serif" font-size="10.00" fill="#000000">&#45; trainstationList</text>
<text text-anchor="start" x="104.5" y="-92.5" font-family="Helvetica,sans-Serif" font-size="10.00" fill="#000000">&#45; confirmBtn</text>
<text text-anchor="start" x="104.5" y="-81.5" font-family="Helvetica,sans-Serif" font-size="10.00" fill="#000000">&#45; routeName</text>
<polyline fill="none" stroke="#000000" points="96.5,-74.5 195.5,-74.5 "/>
<text text-anchor="start" x="104.5" y="-62.5" font-family="Helvetica,sans-Serif" font-size="10.00" fill="#000000">+ RouteInterface()</text>
<text text-anchor="start" x="104.5" y="-51.5" font-family="Helvetica,sans-Serif" font-size="10.00" fill="#000000">+ toggle()</text>
<text text-anchor="start" x="104.5" y="-40.5" font-family="Helvetica,sans-Serif" font-size="10.00" fill="#000000">+ onTileInteract()</text>
<text text-anchor="start" x="104.5" y="-29.5" font-family="Helvetica,sans-Serif" font-size="10.00" fill="#000000">+ addWagon()</text>
<text text-anchor="start" x="104.5" y="-18.5" font-family="Helvetica,sans-Serif" font-size="10.00" fill="#000000">+ confirmRoute()</text>
<text text-anchor="start" x="104.5" y="-7.5" font-family="Helvetica,sans-Serif" font-size="10.00" fill="#000000">+ removeWagon()</text>
</a>
</g>
</g>
<!-- Node2 -->
<g id="node2" class="node">
<title>Node2</title>
<g id="a_node2"><a xlink:title=" ">
<polygon fill="#ffffff" stroke="#bfbfbf" points="0,-259.5 0,-316.5 80,-316.5 80,-259.5 0,-259.5"/>
<text text-anchor="middle" x="40" y="-304.5" font-family="Helvetica,sans-Serif" font-size="10.00" fill="#000000">QDockWidget</text>
<polyline fill="none" stroke="#bfbfbf" points="0,-297.5 80,-297.5 "/>
<text text-anchor="middle" x="40" y="-285.5" font-family="Helvetica,sans-Serif" font-size="10.00" fill="#000000"> </text>
<polyline fill="none" stroke="#bfbfbf" points="0,-278.5 80,-278.5 "/>
<text text-anchor="middle" x="40" y="-266.5" font-family="Helvetica,sans-Serif" font-size="10.00" fill="#000000"> </text>
</a>
</g>
</g>
<!-- Node2&#45;&gt;Node1 -->
<g id="edge1" class="edge">
<title>Node2&#45;&gt;Node1</title>
<path fill="none" stroke="#191970" d="M59.706,-250.0752C71.7441,-226.9076 87.6333,-196.3284 102.4932,-167.73"/>
<polygon fill="none" stroke="#191970" points="56.4675,-248.7171 54.9624,-259.2045 62.679,-251.9446 56.4675,-248.7171"/>
</g>
<!-- Node3 -->
<g id="node3" class="node">
<title>Node3</title>
<g id="a_node3"><a xlink:href="classTrainRenderer.html" target="_top" xlink:title=" ">
<polygon fill="#ffffff" stroke="#000000" points="212,-215.5 212,-360.5 334,-360.5 334,-215.5 212,-215.5"/>
<text text-anchor="middle" x="273" y="-348.5" font-family="Helvetica,sans-Serif" font-size="10.00" fill="#000000">TrainRenderer</text>
<polyline fill="none" stroke="#000000" points="212,-341.5 334,-341.5 "/>
<text text-anchor="start" x="220" y="-329.5" font-family="Helvetica,sans-Serif" font-size="10.00" fill="#000000">+ wagons</text>
<text text-anchor="start" x="220" y="-318.5" font-family="Helvetica,sans-Serif" font-size="10.00" fill="#000000">&#45; train</text>
<text text-anchor="start" x="220" y="-307.5" font-family="Helvetica,sans-Serif" font-size="10.00" fill="#000000">&#45; background</text>
<text text-anchor="start" x="220" y="-296.5" font-family="Helvetica,sans-Serif" font-size="10.00" fill="#000000">&#45; sky</text>
<text text-anchor="start" x="220" y="-285.5" font-family="Helvetica,sans-Serif" font-size="10.00" fill="#000000">&#45; wagon</text>
<polyline fill="none" stroke="#000000" points="212,-278.5 334,-278.5 "/>
<text text-anchor="start" x="220" y="-266.5" font-family="Helvetica,sans-Serif" font-size="10.00" fill="#000000">+ TrainRenderer()</text>
<text text-anchor="start" x="220" y="-255.5" font-family="Helvetica,sans-Serif" font-size="10.00" fill="#000000">+ paintEvent()</text>
<text text-anchor="start" x="220" y="-244.5" font-family="Helvetica,sans-Serif" font-size="10.00" fill="#000000">+ addWagon()</text>
<text text-anchor="start" x="220" y="-233.5" font-family="Helvetica,sans-Serif" font-size="10.00" fill="#000000">+ deleteAllWagons()</text>
<text text-anchor="start" x="220" y="-222.5" font-family="Helvetica,sans-Serif" font-size="10.00" fill="#000000">&#45; mouseReleaseEvent()</text>
</a>
</g>
</g>
<!-- Node3&#45;&gt;Node1 -->
<g id="edge2" class="edge">
<title>Node3&#45;&gt;Node1</title>
<path fill="none" stroke="#404040" d="M235.3016,-215.4982C229.6888,-205.4796 223.827,-195.4067 218,-186 213.1043,-178.0966 207.828,-169.9784 202.4361,-161.9391"/>
<polygon fill="none" stroke="#404040" points="202.3061,-161.7477 195.6262,-159.0313 195.5644,-151.8204 202.2444,-154.5368 202.3061,-161.7477"/>
<text text-anchor="middle" x="260" y="-189" font-family="Helvetica,sans-Serif" font-size="10.00" fill="#000000"> +trainRenderer</text>
</g>
<!-- Node4 -->
<g id="node4" class="node">
<title>Node4</title>
<g id="a_node4"><a xlink:title=" ">
<polygon fill="#ffffff" stroke="#bfbfbf" points="136,-414 136,-471 192,-471 192,-414 136,-414"/>
<text text-anchor="middle" x="164" y="-459" font-family="Helvetica,sans-Serif" font-size="10.00" fill="#000000">QWidget</text>
<polyline fill="none" stroke="#bfbfbf" points="136,-452 192,-452 "/>
<text text-anchor="middle" x="164" y="-440" font-family="Helvetica,sans-Serif" font-size="10.00" fill="#000000"> </text>
<polyline fill="none" stroke="#bfbfbf" points="136,-433 192,-433 "/>
<text text-anchor="middle" x="164" y="-421" font-family="Helvetica,sans-Serif" font-size="10.00" fill="#000000"> </text>
</a>
</g>
</g>
<!-- Node4&#45;&gt;Node3 -->
<g id="edge3" class="edge">
<title>Node4&#45;&gt;Node3</title>
<path fill="none" stroke="#191970" d="M190.2539,-405.2869C199.7716,-391.7962 210.8776,-376.0542 221.8057,-360.5644"/>
<polygon fill="none" stroke="#191970" points="187.1515,-403.613 184.2466,-413.8018 192.8713,-407.6483 187.1515,-403.613"/>
</g>
<!-- Node6 -->
<g id="node6" class="node">
<title>Node6</title>
<g id="a_node6"><a xlink:href="classGoodSelector.html" target="_top" xlink:title=" ">
<polygon fill="#ffffff" stroke="#000000" points="98.5,-259.5 98.5,-316.5 193.5,-316.5 193.5,-259.5 98.5,-259.5"/>
<text text-anchor="middle" x="146" y="-304.5" font-family="Helvetica,sans-Serif" font-size="10.00" fill="#000000">GoodSelector</text>
<polyline fill="none" stroke="#000000" points="98.5,-297.5 193.5,-297.5 "/>
<text text-anchor="middle" x="146" y="-285.5" font-family="Helvetica,sans-Serif" font-size="10.00" fill="#000000"> </text>
<polyline fill="none" stroke="#000000" points="98.5,-278.5 193.5,-278.5 "/>
<text text-anchor="start" x="106.5" y="-266.5" font-family="Helvetica,sans-Serif" font-size="10.00" fill="#000000">+ GoodSelector()</text>
</a>
</g>
</g>
<!-- Node4&#45;&gt;Node6 -->
<g id="edge6" class="edge">
<title>Node4&#45;&gt;Node6</title>
<path fill="none" stroke="#191970" d="M159.4577,-403.5119C156.3044,-376.4462 152.1744,-340.9971 149.3256,-316.5445"/>
<polygon fill="none" stroke="#191970" points="156.0227,-404.2741 160.6565,-413.8018 162.9757,-403.4639 156.0227,-404.2741"/>
</g>
<!-- Node5 -->
<g id="node5" class="node">
<title>Node5</title>
<g id="a_node5"><a xlink:href="classGraphicsManager.html" target="_top" xlink:title=" ">
<polygon fill="#ffffff" stroke="#000000" points="216.5,-408.5 216.5,-476.5 329.5,-476.5 329.5,-408.5 216.5,-408.5"/>
<text text-anchor="middle" x="273" y="-464.5" font-family="Helvetica,sans-Serif" font-size="10.00" fill="#000000">GraphicsManager</text>
<polyline fill="none" stroke="#000000" points="216.5,-457.5 329.5,-457.5 "/>
<text text-anchor="start" x="224.5" y="-445.5" font-family="Helvetica,sans-Serif" font-size="10.00" fill="#000000">+ GRAPHICS</text>
<polyline fill="none" stroke="#000000" points="216.5,-438.5 329.5,-438.5 "/>
<text text-anchor="start" x="224.5" y="-426.5" font-family="Helvetica,sans-Serif" font-size="10.00" fill="#000000">+ GraphicsManager()</text>
<text text-anchor="start" x="224.5" y="-415.5" font-family="Helvetica,sans-Serif" font-size="10.00" fill="#000000">+ get()</text>
</a>
</g>
</g>
<!-- Node5&#45;&gt;Node3 -->
<g id="edge4" class="edge">
<title>Node5&#45;&gt;Node3</title>
<path fill="none" stroke="#404040" d="M273,-408.2114C273,-397.567 273,-385.3269 273,-372.8196"/>
<polygon fill="none" stroke="#404040" points="273.0001,-372.7895 269,-366.7895 273,-360.7895 277,-366.7895 273.0001,-372.7895"/>
<text text-anchor="middle" x="315.5" y="-382" font-family="Helvetica,sans-Serif" font-size="10.00" fill="#000000"> &#45;graphicsManager</text>
</g>
<!-- Node6&#45;&gt;Node1 -->
<g id="edge5" class="edge">
<title>Node6&#45;&gt;Node1</title>
<path fill="none" stroke="#404040" d="M146,-259.2045C146,-238.3506 146,-208.8682 146,-180.0252"/>
<polygon fill="none" stroke="#404040" points="146.0001,-179.73 142,-173.73 146,-167.73 150,-173.73 146.0001,-179.73"/>
<text text-anchor="middle" x="180" y="-189" font-family="Helvetica,sans-Serif" font-size="10.00" fill="#000000"> &#45;goodSelector</text>
</g>
</g>
</svg>
        <g id="navigator" transform="translate(0 0)" fill="#404254">
                <rect fill="#f2f5e9" fill-opacity="0.5" stroke="#606060" stroke-width=".5" x="0" y="0" width="60" height="60"/>
                <use id="zoomplus" xlink:href="#zoomPlus" x="17" y="9" onmousedown="handleZoom(evt,'in')"/>
                <use id="zoomminus" xlink:href="#zoomMin" x="42" y="9" onmousedown="handleZoom(evt,'out')"/>
                <use id="reset" xlink:href="#resetDef" x="30" y="36" onmousedown="handleReset()"/>
                <g id="arrowUp" xlink:href="#dirArrow" transform="translate(30 24)" onmousedown="handlePan(0,-1)">
                  <use xlink:href="#rim" fill="#404040">
                        <set attributeName="fill" to="#808080" begin="arrowUp.mouseover" end="arrowUp.mouseout"/>
                  </use>
                  <path fill="none" stroke="white" stroke-width="1.5" d="M0,-3.0v7 M-2.5,-0.5L0,-3.0L2.5,-0.5"/>
                </g>
                <g id="arrowRight" xlink:href="#dirArrow" transform="rotate(90) translate(36 -43)" onmousedown="handlePan(1,0)">
                  <use xlink:href="#rim" fill="#404040">
                        <set attributeName="fill" to="#808080" begin="arrowRight.mouseover" end="arrowRight.mouseout"/>
                  </use>
                  <path fill="none" stroke="white" stroke-width="1.5" d="M0,-3.0v7 M-2.5,-0.5L0,-3.0L2.5,-0.5"/>
                </g>
                <g id="arrowDown" xlink:href="#dirArrow" transform="rotate(180) translate(-30 -48)" onmousedown="handlePan(0,1)">
                  <use xlink:href="#rim" fill="#404040">
                        <set attributeName="fill" to="#808080" begin="arrowDown.mouseover" end="arrowDown.mouseout"/>
                  </use>
                  <path fill="none" stroke="white" stroke-width="1.5" d="M0,-3.0v7 M-2.5,-0.5L0,-3.0L2.5,-0.5"/>
                </g>
                <g id="arrowLeft" xlink:href="#dirArrow" transform="rotate(270) translate(-36 17)" onmousedown="handlePan(-1,0)">
                  <use xlink:href="#rim" fill="#404040">
                        <set attributeName="fill" to="#808080" begin="arrowLeft.mouseover" end="arrowLeft.mouseout"/>
                  </use>
                  <path fill="none" stroke="white" stroke-width="1.5" d="M0,-3.0v7 M-2.5,-0.5L0,-3.0L2.5,-0.5"/>
                </g>
        </g>
        <svg viewBox="0 0 15 15" width="100%" height="30px" preserveAspectRatio="xMaxYMin meet">
         <g id="arrow_out" transform="scale(0.3 0.3)">
          <a xlink:href="classRouteInterface__coll__graph_org.svg" target="_base">
           <rect id="button" ry="5" rx="5" y="6" x="6" height="38" width="38"
                fill="#f2f5e9" fill-opacity="0.5" stroke="#606060" stroke-width="1.0"/>
           <path id="arrow"
             d="M 11.500037,31.436501 C 11.940474,20.09759 22.043105,11.32322 32.158766,21.979434 L 37.068811,17.246167 C 37.068811,17.246167 37.088388,32 37.088388,32 L 22.160133,31.978069 C 22.160133,31.978069 26.997745,27.140456 26.997745,27.140456 C 18.528582,18.264221 13.291696,25.230495 11.500037,31.436501 z"
             style="fill:#404040;"/>
          </a>
         </g>
        </svg>
</svg>
