<?xml version="1.0" encoding="UTF-8" standalone="no"?>
<!DOCTYPE svg PUBLIC "-//W3C//DTD SVG 1.1//EN"
 "http://www.w3.org/Graphics/SVG/1.1/DTD/svg11.dtd">
<!-- Generated by graphviz version 2.40.1 (20161225.0304)
 -->
<!-- Title: AnimationMovement::setSpeed Pages: 1 -->
<!--zoomable 142 -->
<svg id="main" version="1.1" xmlns="http://www.w3.org/2000/svg" xmlns:xlink="http://www.w3.org/1999/xlink" xml:space="preserve" onload="init(evt)">
<style type="text/css"><![CDATA[
.edge:hover path { stroke: red; }
.edge:hover polygon { stroke: red; fill: red; }
]]></style>
<script type="text/javascript"><![CDATA[
var edges = document.getElementsByTagName('g');
if (edges && edges.length) {
  for (var i=0;i<edges.length;i++) {
    if (edges[i].id.substr(0,4)=='edge') {
      edges[i].setAttribute('class','edge');
    }
  }
}
]]></script>
        <defs>
                <circle id="rim" cx="0" cy="0" r="7"/>
                <circle id="rim2" cx="0" cy="0" r="3.5"/>
                <g id="zoomPlus">
                        <use xlink:href="#rim" fill="#404040">
                                <set attributeName="fill" to="#808080" begin="zoomplus.mouseover" end="zoomplus.mouseout"/>
                        </use>
                        <path d="M-4,0h8M0,-4v8" fill="none" stroke="white" stroke-width="1.5" pointer-events="none"/>
                </g>
                <g id="zoomMin">
                        <use xlink:href="#rim" fill="#404040">
                                <set attributeName="fill" to="#808080" begin="zoomminus.mouseover" end="zoomminus.mouseout"/>
                        </use>
                        <path d="M-4,0h8" fill="none" stroke="white" stroke-width="1.5" pointer-events="none"/>
                </g>
                <g id="dirArrow">
                        <path fill="none" stroke="white" stroke-width="1.5" d="M0,-3.0v7 M-2.5,-0.5L0,-3.0L2.5,-0.5"/>
                </g>
               <g id="resetDef">
                       <use xlink:href="#rim2" fill="#404040">
                               <set attributeName="fill" to="#808080" begin="reset.mouseover" end="reset.mouseout"/>
                       </use>
               </g>
        </defs>

<script type="text/javascript">
var viewWidth = 671;
var viewHeight = 142;
var sectionId = 'dynsection-11';
</script>
<script xlink:href="svgpan.js"/>
<svg id="graph" class="graph">
<g id="viewport">
<title>AnimationMovement::setSpeed</title>
<polygon fill="#ffffff" stroke="transparent" points="-4,4 -4,-138 667,-138 667,4 -4,4"/>
<!-- Node1 -->
<g id="node1" class="node">
<title>Node1</title>
<g id="a_node1"><a xlink:title="AnimationMovement::setSpeed Setzt die Geschwindigkeit der Animation.">
<polygon fill="#bfbfbf" stroke="#000000" points="549,-61 549,-91 663,-91 663,-61 549,-61"/>
<text text-anchor="start" x="557" y="-79" font-family="Helvetica,sans-Serif" font-size="10.00" fill="#000000">AnimationMovement::</text>
<text text-anchor="middle" x="606" y="-68" font-family="Helvetica,sans-Serif" font-size="10.00" fill="#000000">setSpeed</text>
</a>
</g>
</g>
<!-- Node2 -->
<g id="node2" class="node">
<title>Node2</title>
<g id="a_node2"><a xlink:href="classMapRenderer.html#a919be325b2604b720ed0fa2eb5676592" target="_top" xlink:title=" ">
<polygon fill="#ffffff" stroke="#000000" points="346,-109.5 346,-128.5 513,-128.5 513,-109.5 346,-109.5"/>
<text text-anchor="middle" x="429.5" y="-116.5" font-family="Helvetica,sans-Serif" font-size="10.00" fill="#000000">MapRenderer::animateMovement</text>
</a>
</g>
</g>
<!-- Node1&#45;&gt;Node2 -->
<g id="edge1" class="edge">
<title>Node1&#45;&gt;Node2</title>
<path fill="none" stroke="#191970" d="M538.7079,-92.3941C515.0488,-98.1581 489.2567,-104.4417 468.6813,-109.4544"/>
<polygon fill="#191970" stroke="#191970" points="539.8082,-95.7285 548.6955,-89.9609 538.1512,-88.9274 539.8082,-95.7285"/>
</g>
<!-- Node5 -->
<g id="node5" class="node">
<title>Node5</title>
<g id="a_node5"><a xlink:href="classMapRenderer.html#a742fba1dadf2f2bcabe5d8e2fa73042a" target="_top" xlink:title="MapRenderer::cloudAnimation Führt eine WolkpScaleen&#45;Animation aus.">
<polygon fill="#ffffff" stroke="#000000" points="353,-66.5 353,-85.5 506,-85.5 506,-66.5 353,-66.5"/>
<text text-anchor="middle" x="429.5" y="-73.5" font-family="Helvetica,sans-Serif" font-size="10.00" fill="#000000">MapRenderer::cloudAnimation</text>
</a>
</g>
</g>
<!-- Node1&#45;&gt;Node5 -->
<g id="edge4" class="edge">
<title>Node1&#45;&gt;Node5</title>
<path fill="none" stroke="#191970" d="M538.647,-76C528.006,-76 516.935,-76 506.1023,-76"/>
<polygon fill="#191970" stroke="#191970" points="538.6955,-79.5001 548.6955,-76 538.6955,-72.5001 538.6955,-79.5001"/>
</g>
<!-- Node7 -->
<g id="node7" class="node">
<title>Node7</title>
<g id="a_node7"><a xlink:href="classMapRenderer.html#aba0aa93d6c80aa3817424207b088d5a5" target="_top" xlink:title="MapRenderer::spawnCloud Erzeugt eine neue Wolke die über die Karte fliegt.">
<polygon fill="#ffffff" stroke="#000000" points="359.5,-19.5 359.5,-38.5 499.5,-38.5 499.5,-19.5 359.5,-19.5"/>
<text text-anchor="middle" x="429.5" y="-26.5" font-family="Helvetica,sans-Serif" font-size="10.00" fill="#000000">MapRenderer::spawnCloud</text>
</a>
</g>
</g>
<!-- Node1&#45;&gt;Node7 -->
<g id="edge7" class="edge">
<title>Node1&#45;&gt;Node7</title>
<path fill="none" stroke="#191970" d="M539.7729,-58.3645C514.5289,-51.6423 486.7165,-44.2361 465.3387,-38.5434"/>
<polygon fill="#191970" stroke="#191970" points="539.1051,-61.8085 549.669,-60.9997 540.9064,-55.0443 539.1051,-61.8085"/>
</g>
<!-- Node3 -->
<g id="node3" class="node">
<title>Node3</title>
<g id="a_node3"><a xlink:href="classMapRenderer.html#a6b690a49223b2006a4816b706a4b156e" target="_top" xlink:title="MapRenderer::demo Zeigt eine Demo&#45;Visualisierung.">
<polygon fill="#ffffff" stroke="#000000" points="200,-114.5 200,-133.5 310,-133.5 310,-114.5 200,-114.5"/>
<text text-anchor="middle" x="255" y="-121.5" font-family="Helvetica,sans-Serif" font-size="10.00" fill="#000000">MapRenderer::demo</text>
</a>
</g>
</g>
<!-- Node2&#45;&gt;Node3 -->
<g id="edge2" class="edge">
<title>Node2&#45;&gt;Node3</title>
<path fill="none" stroke="#191970" d="M335.6419,-121.6893C326.9817,-121.9375 318.4088,-122.1831 310.2672,-122.4164"/>
<polygon fill="#191970" stroke="#191970" points="335.9321,-125.1826 345.8277,-121.3975 335.7315,-118.1854 335.9321,-125.1826"/>
</g>
<!-- Node4 -->
<g id="node4" class="node">
<title>Node4</title>
<g id="a_node4"><a xlink:href="classMapRenderer.html#a9f43e4b3db6a2cda8ea7cabf1bc6f805" target="_top" xlink:title=" ">
<polygon fill="#ffffff" stroke="#000000" points="0,-95.5 0,-114.5 164,-114.5 164,-95.5 0,-95.5"/>
<text text-anchor="middle" x="82" y="-102.5" font-family="Helvetica,sans-Serif" font-size="10.00" fill="#000000">MapRenderer::keyReleaseEvent</text>
</a>
</g>
</g>
<!-- Node3&#45;&gt;Node4 -->
<g id="edge3" class="edge">
<title>Node3&#45;&gt;Node4</title>
<path fill="none" stroke="#191970" d="M189.7384,-116.8325C181.3673,-115.9132 172.7134,-114.9627 164.1173,-114.0187"/>
<polygon fill="#191970" stroke="#191970" points="189.4637,-120.3233 199.7861,-117.936 190.228,-113.3652 189.4637,-120.3233"/>
</g>
<!-- Node5&#45;&gt;Node4 -->
<g id="edge5" class="edge">
<title>Node5&#45;&gt;Node4</title>
<path fill="none" stroke="#191970" d="M342.7942,-83.2359C288.1519,-87.796 218.0238,-93.6484 164.2533,-98.1357"/>
<polygon fill="#191970" stroke="#191970" points="343.1352,-86.7197 352.8095,-82.4001 342.553,-79.7439 343.1352,-86.7197"/>
</g>
<!-- Node6 -->
<g id="node6" class="node">
<title>Node6</title>
<g id="a_node6"><a xlink:href="main_8cpp.html#a0ddf1224851353fc92bfbff6f499fa97" target="_top" xlink:title="main Startmethode.">
<polygon fill="#ffffff" stroke="#000000" points="236,-38.5 236,-57.5 274,-57.5 274,-38.5 236,-38.5"/>
<text text-anchor="middle" x="255" y="-45.5" font-family="Helvetica,sans-Serif" font-size="10.00" fill="#000000">main</text>
</a>
</g>
</g>
<!-- Node5&#45;&gt;Node6 -->
<g id="edge6" class="edge">
<title>Node5&#45;&gt;Node6</title>
<path fill="none" stroke="#191970" d="M360.0067,-64.8492C329.0251,-59.878 294.9245,-54.4062 274.2378,-51.0869"/>
<polygon fill="#191970" stroke="#191970" points="359.5068,-68.3137 369.9351,-66.4423 360.6159,-61.4021 359.5068,-68.3137"/>
</g>
<!-- Node8 -->
<g id="node8" class="node">
<title>Node8</title>
<g id="a_node8"><a xlink:href="classMapRenderer.html#a6f2ca0227403d4aa4e6bbd54d2d3ea5c" target="_top" xlink:title=" ">
<polygon fill="#ffffff" stroke="#000000" points="205.5,-.5 205.5,-19.5 304.5,-19.5 304.5,-.5 205.5,-.5"/>
<text text-anchor="middle" x="255" y="-7.5" font-family="Helvetica,sans-Serif" font-size="10.00" fill="#000000">MapRenderer::tick</text>
</a>
</g>
</g>
<!-- Node7&#45;&gt;Node8 -->
<g id="edge8" class="edge">
<title>Node7&#45;&gt;Node8</title>
<path fill="none" stroke="#191970" d="M348.9099,-20.2251C333.8395,-18.5842 318.5024,-16.9143 304.7115,-15.4127"/>
<polygon fill="#191970" stroke="#191970" points="348.9583,-23.751 359.2785,-21.3541 349.7161,-16.7922 348.9583,-23.751"/>
</g>
<!-- Node9 -->
<g id="node9" class="node">
<title>Node9</title>
<g id="a_node9"><a xlink:href="classGameLoop.html#a5da2c7037d537d4feeffade3666ad3a3" target="_top" xlink:title="GameLoop::run Die Gameloop.">
<polygon fill="#ffffff" stroke="#000000" points="38.5,-.5 38.5,-19.5 125.5,-19.5 125.5,-.5 38.5,-.5"/>
<text text-anchor="middle" x="82" y="-7.5" font-family="Helvetica,sans-Serif" font-size="10.00" fill="#000000">GameLoop::run</text>
</a>
</g>
</g>
<!-- Node8&#45;&gt;Node9 -->
<g id="edge9" class="edge">
<title>Node8&#45;&gt;Node9</title>
<path fill="none" stroke="#191970" d="M195.1545,-10C172.3235,-10 146.7469,-10 125.6936,-10"/>
<polygon fill="#191970" stroke="#191970" points="195.4252,-13.5001 205.4251,-10 195.4251,-6.5001 195.4252,-13.5001"/>
</g>
</g>
</svg>
        <g id="navigator" transform="translate(0 0)" fill="#404254">
                <rect fill="#f2f5e9" fill-opacity="0.5" stroke="#606060" stroke-width=".5" x="0" y="0" width="60" height="60"/>
                <use id="zoomplus" xlink:href="#zoomPlus" x="17" y="9" onmousedown="handleZoom(evt,'in')"/>
                <use id="zoomminus" xlink:href="#zoomMin" x="42" y="9" onmousedown="handleZoom(evt,'out')"/>
                <use id="reset" xlink:href="#resetDef" x="30" y="36" onmousedown="handleReset()"/>
                <g id="arrowUp" xlink:href="#dirArrow" transform="translate(30 24)" onmousedown="handlePan(0,-1)">
                  <use xlink:href="#rim" fill="#404040">
                        <set attributeName="fill" to="#808080" begin="arrowUp.mouseover" end="arrowUp.mouseout"/>
                  </use>
                  <path fill="none" stroke="white" stroke-width="1.5" d="M0,-3.0v7 M-2.5,-0.5L0,-3.0L2.5,-0.5"/>
                </g>
                <g id="arrowRight" xlink:href="#dirArrow" transform="rotate(90) translate(36 -43)" onmousedown="handlePan(1,0)">
                  <use xlink:href="#rim" fill="#404040">
                        <set attributeName="fill" to="#808080" begin="arrowRight.mouseover" end="arrowRight.mouseout"/>
                  </use>
                  <path fill="none" stroke="white" stroke-width="1.5" d="M0,-3.0v7 M-2.5,-0.5L0,-3.0L2.5,-0.5"/>
                </g>
                <g id="arrowDown" xlink:href="#dirArrow" transform="rotate(180) translate(-30 -48)" onmousedown="handlePan(0,1)">
                  <use xlink:href="#rim" fill="#404040">
                        <set attributeName="fill" to="#808080" begin="arrowDown.mouseover" end="arrowDown.mouseout"/>
                  </use>
                  <path fill="none" stroke="white" stroke-width="1.5" d="M0,-3.0v7 M-2.5,-0.5L0,-3.0L2.5,-0.5"/>
                </g>
                <g id="arrowLeft" xlink:href="#dirArrow" transform="rotate(270) translate(-36 17)" onmousedown="handlePan(-1,0)">
                  <use xlink:href="#rim" fill="#404040">
                        <set attributeName="fill" to="#808080" begin="arrowLeft.mouseover" end="arrowLeft.mouseout"/>
                  </use>
                  <path fill="none" stroke="white" stroke-width="1.5" d="M0,-3.0v7 M-2.5,-0.5L0,-3.0L2.5,-0.5"/>
                </g>
        </g>
        <svg viewBox="0 0 15 15" width="100%" height="30px" preserveAspectRatio="xMaxYMin meet">
         <g id="arrow_out" transform="scale(0.3 0.3)">
          <a xlink:href="classAnimationMovement_abee6a37d2f482a521120d528c2bc84dc_icgraph_org.svg" target="_base">
           <rect id="button" ry="5" rx="5" y="6" x="6" height="38" width="38"
                fill="#f2f5e9" fill-opacity="0.5" stroke="#606060" stroke-width="1.0"/>
           <path id="arrow"
             d="M 11.500037,31.436501 C 11.940474,20.09759 22.043105,11.32322 32.158766,21.979434 L 37.068811,17.246167 C 37.068811,17.246167 37.088388,32 37.088388,32 L 22.160133,31.978069 C 22.160133,31.978069 26.997745,27.140456 26.997745,27.140456 C 18.528582,18.264221 13.291696,25.230495 11.500037,31.436501 z"
             style="fill:#404040;"/>
          </a>
         </g>
        </svg>
</svg>
