<?xml version="1.0" encoding="UTF-8" standalone="no"?>
<!DOCTYPE svg PUBLIC "-//W3C//DTD SVG 1.1//EN"
 "http://www.w3.org/Graphics/SVG/1.1/DTD/svg11.dtd">
<!-- Generated by graphviz version 2.40.1 (20161225.0304)
 -->
<!-- Title: View::mouseMoveEvent Pages: 1 -->
<svg width="478pt" height="275pt"
 viewBox="0.00 0.00 478.00 275.00" xmlns="http://www.w3.org/2000/svg" xmlns:xlink="http://www.w3.org/1999/xlink">
<g id="graph0" class="graph" transform="scale(1 1) rotate(0) translate(4 271)">
<title>View::mouseMoveEvent</title>
<polygon fill="#ffffff" stroke="transparent" points="-4,4 -4,-271 474,-271 474,4 -4,4"/>
<!-- Node1 -->
<g id="node1" class="node">
<title>Node1</title>
<g id="a_node1"><a xlink:title="View::mouseMoveEvent QT Methode. Wird aufgerufen wenn die Maus bewegt wird.">
<polygon fill="#bfbfbf" stroke="#000000" points="0,-133.5 0,-152.5 126,-152.5 126,-133.5 0,-133.5"/>
<text text-anchor="middle" x="63" y="-140.5" font-family="Helvetica,sans-Serif" font-size="10.00" fill="#000000">View::mouseMoveEvent</text>
</a>
</g>
</g>
<!-- Node2 -->
<g id="node2" class="node">
<title>Node2</title>
<g id="a_node2"><a xlink:href="classScene.html#a12826e995b183844f9415c9df77a9ac7" target="_top" xlink:title="Scene::getTileAt Liefert ein MapTile anhand der Pixel&#45;Koordinaten oder der Indizes.">
<polygon fill="#ffffff" stroke="#000000" points="195,-247.5 195,-266.5 288,-266.5 288,-247.5 195,-247.5"/>
<text text-anchor="middle" x="241.5" y="-254.5" font-family="Helvetica,sans-Serif" font-size="10.00" fill="#000000">Scene::getTileAt</text>
</a>
</g>
</g>
<!-- Node1&#45;&gt;Node2 -->
<g id="edge1" class="edge">
<title>Node1&#45;&gt;Node2</title>
<path fill="none" stroke="#191970" d="M70.9494,-152.6538C86.5333,-170.9689 122.9954,-210.8999 162,-233 169.9221,-237.4887 178.774,-241.2234 187.6148,-244.3028"/>
<polygon fill="#191970" stroke="#191970" points="186.5671,-247.6424 197.159,-247.3919 188.7227,-240.9826 186.5671,-247.6424"/>
</g>
<!-- Node3 -->
<g id="node3" class="node">
<title>Node3</title>
<g id="a_node3"><a xlink:href="classMapTile.html#af67fb2b04970d5160e8bdacb05484bac" target="_top" xlink:title="MapTile::getType Liefert den Typ des Quadranten.">
<polygon fill="#ffffff" stroke="#000000" points="364.5,-228.5 364.5,-247.5 462.5,-247.5 462.5,-228.5 364.5,-228.5"/>
<text text-anchor="middle" x="413.5" y="-235.5" font-family="Helvetica,sans-Serif" font-size="10.00" fill="#000000">MapTile::getType</text>
</a>
</g>
</g>
<!-- Node1&#45;&gt;Node3 -->
<g id="edge2" class="edge">
<title>Node1&#45;&gt;Node3</title>
<path fill="none" stroke="#191970" d="M75.9972,-152.6258C94.2209,-165.6044 128.8611,-188.4197 162,-200 225.5073,-222.1924 302.4942,-231.4288 354.4273,-235.2702"/>
<polygon fill="#191970" stroke="#191970" points="354.2496,-238.7663 364.4684,-235.9688 354.7355,-231.7831 354.2496,-238.7663"/>
</g>
<!-- Node4 -->
<g id="node4" class="node">
<title>Node4</title>
<g id="a_node4"><a xlink:href="classToolTipMenu.html#affc16846c5e7183bb3e1c5d9460354c8" target="_top" xlink:title="ToolTipMenu::hide Blendet das Menü aus.">
<polygon fill="#ffffff" stroke="#000000" points="189.5,-171.5 189.5,-190.5 293.5,-190.5 293.5,-171.5 189.5,-171.5"/>
<text text-anchor="middle" x="241.5" y="-178.5" font-family="Helvetica,sans-Serif" font-size="10.00" fill="#000000">ToolTipMenu::hide</text>
</a>
</g>
</g>
<!-- Node1&#45;&gt;Node4 -->
<g id="edge3" class="edge">
<title>Node1&#45;&gt;Node4</title>
<path fill="none" stroke="#191970" d="M108.0431,-152.589C132.0225,-157.6939 161.6979,-164.0113 186.9721,-169.3918"/>
<polygon fill="#191970" stroke="#191970" points="186.2712,-172.821 196.7808,-171.4799 187.7288,-165.9744 186.2712,-172.821"/>
</g>
<!-- Node5 -->
<g id="node5" class="node">
<title>Node5</title>
<g id="a_node5"><a xlink:href="classScene.html#a4caee3e7069bad7901a4a12b19cd304c" target="_top" xlink:title="Scene::setActiveTile Setzt den MapTile über dem die Maus gerade ist. Wird von view aufgerufen.">
<polygon fill="#ffffff" stroke="#000000" points="186,-133.5 186,-152.5 297,-152.5 297,-133.5 186,-133.5"/>
<text text-anchor="middle" x="241.5" y="-140.5" font-family="Helvetica,sans-Serif" font-size="10.00" fill="#000000">Scene::setActiveTile</text>
</a>
</g>
</g>
<!-- Node1&#45;&gt;Node5 -->
<g id="edge4" class="edge">
<title>Node1&#45;&gt;Node5</title>
<path fill="none" stroke="#191970" d="M126.1836,-143C142.144,-143 159.3234,-143 175.4221,-143"/>
<polygon fill="#191970" stroke="#191970" points="175.8216,-146.5001 185.8216,-143 175.8215,-139.5001 175.8216,-146.5001"/>
</g>
<!-- Node12 -->
<g id="node12" class="node">
<title>Node12</title>
<g id="a_node12"><a xlink:href="classToolTipMenu.html#aa4a6c9633a69092416132f3780d97b9f" target="_top" xlink:title="ToolTipMenu::setText Setzt den Text. (HTML&#45;Fähig)">
<polygon fill="#ffffff" stroke="#000000" points="182,-95.5 182,-114.5 301,-114.5 301,-95.5 182,-95.5"/>
<text text-anchor="middle" x="241.5" y="-102.5" font-family="Helvetica,sans-Serif" font-size="10.00" fill="#000000">ToolTipMenu::setText</text>
</a>
</g>
</g>
<!-- Node1&#45;&gt;Node12 -->
<g id="edge12" class="edge">
<title>Node1&#45;&gt;Node12</title>
<path fill="none" stroke="#191970" d="M108.0431,-133.411C132.0225,-128.3061 161.6979,-121.9887 186.9721,-116.6082"/>
<polygon fill="#191970" stroke="#191970" points="187.7288,-120.0256 196.7808,-114.5201 186.2712,-113.179 187.7288,-120.0256"/>
</g>
<!-- Node13 -->
<g id="node13" class="node">
<title>Node13</title>
<g id="a_node13"><a xlink:href="classToolTipMenu.html#a8d76e087f23190420440a4f5c80b722e" target="_top" xlink:title="ToolTipMenu::showAt Blendet das Menü an einer bestimmten Stelle (relativ zum Parent) ein.">
<polygon fill="#ffffff" stroke="#000000" points="183,-57.5 183,-76.5 300,-76.5 300,-57.5 183,-57.5"/>
<text text-anchor="middle" x="241.5" y="-64.5" font-family="Helvetica,sans-Serif" font-size="10.00" fill="#000000">ToolTipMenu::showAt</text>
</a>
</g>
</g>
<!-- Node1&#45;&gt;Node13 -->
<g id="edge13" class="edge">
<title>Node1&#45;&gt;Node13</title>
<path fill="none" stroke="#191970" d="M76.7755,-133.3437C95.3286,-120.7521 129.7493,-98.8252 162,-86 168.2903,-83.4985 174.9968,-81.2696 181.7459,-79.2984"/>
<polygon fill="#191970" stroke="#191970" points="182.9013,-82.6109 191.6213,-76.5932 181.0518,-75.8597 182.9013,-82.6109"/>
</g>
<!-- Node14 -->
<g id="node14" class="node">
<title>Node14</title>
<g id="a_node14"><a xlink:href="classDataModel.html#a2dcc97fd7387151077bcb3794b1614af" target="_top" xlink:title="DataModel::updateCoordinates Aktualisiert die Koordinaten des fokussierten Quadrantens.">
<polygon fill="#ffffff" stroke="#000000" points="162,-19.5 162,-38.5 321,-38.5 321,-19.5 162,-19.5"/>
<text text-anchor="middle" x="241.5" y="-26.5" font-family="Helvetica,sans-Serif" font-size="10.00" fill="#000000">DataModel::updateCoordinates</text>
</a>
</g>
</g>
<!-- Node1&#45;&gt;Node14 -->
<g id="edge14" class="edge">
<title>Node1&#45;&gt;Node14</title>
<path fill="none" stroke="#191970" d="M70.0122,-133.4773C84.7585,-114.1737 121.0197,-70.371 162,-48 166.2155,-45.6988 170.7058,-43.6739 175.3247,-41.8926"/>
<polygon fill="#191970" stroke="#191970" points="176.6322,-45.1439 184.9391,-38.5677 174.3443,-38.5283 176.6322,-45.1439"/>
</g>
<!-- Node5&#45;&gt;Node3 -->
<g id="edge11" class="edge">
<title>Node5&#45;&gt;Node3</title>
<path fill="none" stroke="#191970" d="M297.3554,-150.5102C305.7611,-153.2477 313.96,-156.963 321,-162 345.3681,-179.4348 333.4391,-200.4889 357,-219 359.2887,-220.7982 361.7565,-222.4306 364.3363,-223.9119"/>
<polygon fill="#191970" stroke="#191970" points="362.9239,-227.1176 373.4423,-228.3878 366.0118,-220.8354 362.9239,-227.1176"/>
</g>
<!-- Node6 -->
<g id="node6" class="node">
<title>Node6</title>
<g id="a_node6"><a xlink:href="classCity.html#a0543ff407447b87a952c40bb36f5eef1" target="_top" xlink:title="City::getCenterX Gibt den X&#45;Index des Mittelpunktes.">
<polygon fill="#ffffff" stroke="#000000" points="368,-190.5 368,-209.5 459,-209.5 459,-190.5 368,-190.5"/>
<text text-anchor="middle" x="413.5" y="-197.5" font-family="Helvetica,sans-Serif" font-size="10.00" fill="#000000">City::getCenterX</text>
</a>
</g>
</g>
<!-- Node5&#45;&gt;Node6 -->
<g id="edge5" class="edge">
<title>Node5&#45;&gt;Node6</title>
<path fill="none" stroke="#191970" d="M290.0104,-152.5442C300.3836,-155.151 311.1724,-158.2996 321,-162 337.9313,-168.3751 340.372,-173.8713 357,-181 361.9936,-183.1408 367.3152,-185.2026 372.6204,-187.1279"/>
<polygon fill="#191970" stroke="#191970" points="371.4826,-190.4377 382.0774,-190.4332 373.7922,-183.8297 371.4826,-190.4377"/>
</g>
<!-- Node7 -->
<g id="node7" class="node">
<title>Node7</title>
<g id="a_node7"><a xlink:href="classCity.html#a99261799f5bec9256ef94c3e4ebda0df" target="_top" xlink:title="City::getCenterX Gibt den Y&#45;Index des Mittelpunktes.">
<polygon fill="#ffffff" stroke="#000000" points="368,-152.5 368,-171.5 459,-171.5 459,-152.5 368,-152.5"/>
<text text-anchor="middle" x="413.5" y="-159.5" font-family="Helvetica,sans-Serif" font-size="10.00" fill="#000000">City::getCenterY</text>
</a>
</g>
</g>
<!-- Node5&#45;&gt;Node7 -->
<g id="edge6" class="edge">
<title>Node5&#45;&gt;Node7</title>
<path fill="none" stroke="#191970" d="M297.3435,-149.1688C316.7169,-151.3088 338.4282,-153.7072 357.7909,-155.8461"/>
<polygon fill="#191970" stroke="#191970" points="357.652,-159.3519 367.9758,-156.9712 358.4206,-152.3943 357.652,-159.3519"/>
</g>
<!-- Node8 -->
<g id="node8" class="node">
<title>Node8</title>
<g id="a_node8"><a xlink:href="classMapTile.html#ab5245ea56fde79ef7640ed93583a57fd" target="_top" xlink:title="MapTile::getCity Die Informationen. Falls keine Stadt: null.">
<polygon fill="#ffffff" stroke="#000000" points="367.5,-114.5 367.5,-133.5 459.5,-133.5 459.5,-114.5 367.5,-114.5"/>
<text text-anchor="middle" x="413.5" y="-121.5" font-family="Helvetica,sans-Serif" font-size="10.00" fill="#000000">MapTile::getCity</text>
</a>
</g>
</g>
<!-- Node5&#45;&gt;Node8 -->
<g id="edge7" class="edge">
<title>Node5&#45;&gt;Node8</title>
<path fill="none" stroke="#191970" d="M297.3435,-136.8312C316.5506,-134.7095 338.0557,-132.334 357.2917,-130.2091"/>
<polygon fill="#191970" stroke="#191970" points="357.8617,-133.6675 367.4169,-129.0906 357.093,-126.7098 357.8617,-133.6675"/>
</g>
<!-- Node9 -->
<g id="node9" class="node">
<title>Node9</title>
<g id="a_node9"><a xlink:href="classDataModel.html#a083d84049b068cd355ce6aaa396e7c79" target="_top" xlink:title="DataModel::getMode Gibt den aktuellen Bearbeitungsmodus.">
<polygon fill="#ffffff" stroke="#000000" points="357,-76.5 357,-95.5 470,-95.5 470,-76.5 357,-76.5"/>
<text text-anchor="middle" x="413.5" y="-83.5" font-family="Helvetica,sans-Serif" font-size="10.00" fill="#000000">DataModel::getMode</text>
</a>
</g>
</g>
<!-- Node5&#45;&gt;Node9 -->
<g id="edge8" class="edge">
<title>Node5&#45;&gt;Node9</title>
<path fill="none" stroke="#191970" d="M290.0104,-133.4558C300.3836,-130.849 311.1724,-127.7004 321,-124 337.9313,-117.6249 340.372,-112.1287 357,-105 361.9936,-102.8592 367.3152,-100.7974 372.6204,-98.8721"/>
<polygon fill="#191970" stroke="#191970" points="373.7922,-102.1703 382.0774,-95.5668 371.4826,-95.5623 373.7922,-102.1703"/>
</g>
<!-- Node10 -->
<g id="node10" class="node">
<title>Node10</title>
<g id="a_node10"><a xlink:href="classCity.html#adc7fe5313b3572973918cf6385e87fd5" target="_top" xlink:title="City::getName Gibt den Namen der Stadt.">
<polygon fill="#ffffff" stroke="#000000" points="373,-38.5 373,-57.5 454,-57.5 454,-38.5 373,-38.5"/>
<text text-anchor="middle" x="413.5" y="-45.5" font-family="Helvetica,sans-Serif" font-size="10.00" fill="#000000">City::getName</text>
</a>
</g>
</g>
<!-- Node5&#45;&gt;Node10 -->
<g id="edge9" class="edge">
<title>Node5&#45;&gt;Node10</title>
<path fill="none" stroke="#191970" d="M297.3554,-135.4898C305.7611,-132.7523 313.96,-129.037 321,-124 345.3681,-106.5652 333.4391,-85.5111 357,-67 359.2887,-65.2018 361.7565,-63.5694 364.3363,-62.0881"/>
<polygon fill="#191970" stroke="#191970" points="366.0118,-65.1646 373.4423,-57.6122 362.9239,-58.8824 366.0118,-65.1646"/>
</g>
<!-- Node11 -->
<g id="node11" class="node">
<title>Node11</title>
<g id="a_node11"><a xlink:href="classCity.html#ae2fad5199ff6b8f11a39fa7500757beb" target="_top" xlink:title="City::getSize Gibt die Anzahl der Felder zurück die zur Stadt gehören.">
<polygon fill="#ffffff" stroke="#000000" points="376.5,-.5 376.5,-19.5 450.5,-19.5 450.5,-.5 376.5,-.5"/>
<text text-anchor="middle" x="413.5" y="-7.5" font-family="Helvetica,sans-Serif" font-size="10.00" fill="#000000">City::getSize</text>
</a>
</g>
</g>
<!-- Node5&#45;&gt;Node11 -->
<g id="edge10" class="edge">
<title>Node5&#45;&gt;Node11</title>
<path fill="none" stroke="#191970" d="M297.0719,-137.0927C305.8035,-134.1866 314.1815,-129.9994 321,-124 354.8985,-94.1737 324.4746,-60.3179 357,-29 359.9353,-26.1737 363.3043,-23.7673 366.9041,-21.7185"/>
<polygon fill="#191970" stroke="#191970" points="368.6617,-24.7593 376.2123,-17.3269 365.6748,-18.4285 368.6617,-24.7593"/>
</g>
</g>
</svg>
