<?xml version="1.0" encoding="UTF-8" standalone="no"?>
<!DOCTYPE svg PUBLIC "-//W3C//DTD SVG 1.1//EN"
 "http://www.w3.org/Graphics/SVG/1.1/DTD/svg11.dtd">
<!-- Generated by graphviz version 2.40.1 (20161225.0304)
 -->
<!-- Title: RouteInterface::toggle Pages: 1 -->
<svg width="494pt" height="47pt"
 viewBox="0.00 0.00 494.00 47.00" xmlns="http://www.w3.org/2000/svg" xmlns:xlink="http://www.w3.org/1999/xlink">
<g id="graph0" class="graph" transform="scale(1 1) rotate(0) translate(4 43)">
<title>RouteInterface::toggle</title>
<polygon fill="#ffffff" stroke="transparent" points="-4,4 -4,-43 490,-43 490,4 -4,4"/>
<!-- Node1 -->
<g id="node1" class="node">
<title>Node1</title>
<g id="a_node1"><a xlink:title="RouteInterface::toggle Wechselt die Sichtbarkeit des Widgets.">
<polygon fill="#bfbfbf" stroke="#000000" points="370,-.5 370,-19.5 486,-19.5 486,-.5 370,-.5"/>
<text text-anchor="middle" x="428" y="-7.5" font-family="Helvetica,sans-Serif" font-size="10.00" fill="#000000">RouteInterface::toggle</text>
</a>
</g>
</g>
<!-- Node2 -->
<g id="node2" class="node">
<title>Node2</title>
<g id="a_node2"><a xlink:href="classRouteInterface.html#a8ed62f131137618a65696d43fbfec345" target="_top" xlink:title="RouteInterface::confirmRoute Sendet dem Server die Informationen der erstellten Route in Form eines S...">
<polygon fill="#ffffff" stroke="#000000" points="188,-19.5 188,-38.5 334,-38.5 334,-19.5 188,-19.5"/>
<text text-anchor="middle" x="261" y="-26.5" font-family="Helvetica,sans-Serif" font-size="10.00" fill="#000000">RouteInterface::confirmRoute</text>
</a>
</g>
</g>
<!-- Node1&#45;&gt;Node2 -->
<g id="edge1" class="edge">
<title>Node1&#45;&gt;Node2</title>
<path fill="none" stroke="#191970" d="M359.4895,-17.7946C351.1033,-18.7487 342.5086,-19.7266 334.0588,-20.6879"/>
<polygon fill="#191970" stroke="#191970" points="360.0513,-21.2534 369.5915,-16.6453 359.2599,-14.2982 360.0513,-21.2534"/>
</g>
<!-- Node3 -->
<g id="node3" class="node">
<title>Node3</title>
<g id="a_node3"><a xlink:href="classRouteInterface.html#aa0299805373c0a5b6de4c6a855a3116e" target="_top" xlink:title="RouteInterface::RouteInterface Erzeugt das Routeninterface.">
<polygon fill="#ffffff" stroke="#000000" points="0,-.5 0,-19.5 152,-19.5 152,-.5 0,-.5"/>
<text text-anchor="middle" x="76" y="-7.5" font-family="Helvetica,sans-Serif" font-size="10.00" fill="#000000">RouteInterface::RouteInterface</text>
</a>
</g>
</g>
<!-- Node1&#45;&gt;Node3 -->
<g id="edge3" class="edge">
<title>Node1&#45;&gt;Node3</title>
<path fill="none" stroke="#191970" d="M359.8142,-10C300.2402,-10 213.8569,-10 152.0604,-10"/>
<polygon fill="#191970" stroke="#191970" points="359.8744,-13.5001 369.8744,-10 359.8743,-6.5001 359.8744,-13.5001"/>
</g>
<!-- Node2&#45;&gt;Node3 -->
<g id="edge2" class="edge">
<title>Node2&#45;&gt;Node3</title>
<path fill="none" stroke="#191970" d="M177.9127,-20.4667C169.3618,-19.5885 160.7025,-18.6992 152.2311,-17.8291"/>
<polygon fill="#191970" stroke="#191970" points="177.5778,-23.9506 187.8831,-21.4907 178.293,-16.9873 177.5778,-23.9506"/>
</g>
</g>
</svg>
