<?xml version="1.0" encoding="UTF-8" standalone="no"?>
<!DOCTYPE svg PUBLIC "-//W3C//DTD SVG 1.1//EN"
 "http://www.w3.org/Graphics/SVG/1.1/DTD/svg11.dtd">
<!-- Generated by graphviz version 2.40.1 (20161225.0304)
 -->
<!-- Title: DataModel::updateCoordinates Pages: 1 -->
<svg width="757pt" height="229pt"
 viewBox="0.00 0.00 757.00 229.00" xmlns="http://www.w3.org/2000/svg" xmlns:xlink="http://www.w3.org/1999/xlink">
<g id="graph0" class="graph" transform="scale(1 1) rotate(0) translate(4 225)">
<title>DataModel::updateCoordinates</title>
<polygon fill="#ffffff" stroke="transparent" points="-4,4 -4,-225 753,-225 753,4 -4,4"/>
<!-- Node1 -->
<g id="node1" class="node">
<title>Node1</title>
<g id="a_node1"><a xlink:title="DataModel::updateCoordinates Aktualisiert die Koordinaten des fokussierten Quadrantens.">
<polygon fill="#bfbfbf" stroke="#000000" points="590,-125.5 590,-144.5 749,-144.5 749,-125.5 590,-125.5"/>
<text text-anchor="middle" x="669.5" y="-132.5" font-family="Helvetica,sans-Serif" font-size="10.00" fill="#000000">DataModel::updateCoordinates</text>
</a>
</g>
</g>
<!-- Node2 -->
<g id="node2" class="node">
<title>Node2</title>
<g id="a_node2"><a xlink:href="classView.html#aae14a814f17c825ce462509655e54ee4" target="_top" xlink:title="View::mouseMoveEvent QT Methode. Wird aufgerufen wenn die Maus bewegt wird.">
<polygon fill="#ffffff" stroke="#000000" points="408.5,-201.5 408.5,-220.5 534.5,-220.5 534.5,-201.5 408.5,-201.5"/>
<text text-anchor="middle" x="471.5" y="-208.5" font-family="Helvetica,sans-Serif" font-size="10.00" fill="#000000">View::mouseMoveEvent</text>
</a>
</g>
</g>
<!-- Node1&#45;&gt;Node2 -->
<g id="edge1" class="edge">
<title>Node1&#45;&gt;Node2</title>
<path fill="none" stroke="#191970" d="M644.4666,-149.477C621.5576,-162.2051 586.3967,-180.4526 554,-192 543.6165,-195.7011 532.236,-198.8643 521.334,-201.4872"/>
<polygon fill="#191970" stroke="#191970" points="646.2008,-152.5172 653.1987,-144.5623 642.7674,-146.417 646.2008,-152.5172"/>
</g>
<!-- Node3 -->
<g id="node3" class="node">
<title>Node3</title>
<g id="a_node3"><a xlink:href="classMapRenderer.html#aa2f3c7d428114b22544682da3997efd9" target="_top" xlink:title=" ">
<polygon fill="#ffffff" stroke="#000000" points="389,-163.5 389,-182.5 554,-182.5 554,-163.5 389,-163.5"/>
<text text-anchor="middle" x="471.5" y="-170.5" font-family="Helvetica,sans-Serif" font-size="10.00" fill="#000000">MapRenderer::mouseMoveEvent</text>
</a>
</g>
</g>
<!-- Node1&#45;&gt;Node3 -->
<g id="edge2" class="edge">
<title>Node1&#45;&gt;Node3</title>
<path fill="none" stroke="#191970" d="M609.6341,-146.4894C581.3829,-151.9114 548.0643,-158.3058 521.2286,-163.4561"/>
<polygon fill="#191970" stroke="#191970" points="610.6307,-149.8621 619.7918,-144.54 609.3113,-142.9876 610.6307,-149.8621"/>
</g>
<!-- Node4 -->
<g id="node4" class="node">
<title>Node4</title>
<g id="a_node4"><a xlink:href="classMapRenderer.html#afda821c83a4e0b63eb8325597f4fc6ef" target="_top" xlink:title="MapRenderer::paintEvent Rendert die Spielansicht.">
<polygon fill="#ffffff" stroke="#000000" points="406.5,-125.5 406.5,-144.5 536.5,-144.5 536.5,-125.5 406.5,-125.5"/>
<text text-anchor="middle" x="471.5" y="-132.5" font-family="Helvetica,sans-Serif" font-size="10.00" fill="#000000">MapRenderer::paintEvent</text>
</a>
</g>
</g>
<!-- Node1&#45;&gt;Node4 -->
<g id="edge3" class="edge">
<title>Node1&#45;&gt;Node4</title>
<path fill="none" stroke="#191970" d="M579.4158,-135C565.0397,-135 550.4107,-135 536.7548,-135"/>
<polygon fill="#191970" stroke="#191970" points="579.8217,-138.5001 589.8217,-135 579.8217,-131.5001 579.8217,-138.5001"/>
</g>
<!-- Node5 -->
<g id="node5" class="node">
<title>Node5</title>
<g id="a_node5"><a xlink:href="classDataModel.html#aacb6a19e48624b83281db172ef01ef4f" target="_top" xlink:title="DataModel::setGuiTimeLabel Setzt das Label in welchem die Koordinate dargestellt wird.">
<polygon fill="#ffffff" stroke="#000000" points="402.5,-76 402.5,-106 540.5,-106 540.5,-76 402.5,-76"/>
<text text-anchor="start" x="410.5" y="-94" font-family="Helvetica,sans-Serif" font-size="10.00" fill="#000000">DataModel::setGuiPosition</text>
<text text-anchor="middle" x="471.5" y="-83" font-family="Helvetica,sans-Serif" font-size="10.00" fill="#000000">Label</text>
</a>
</g>
</g>
<!-- Node1&#45;&gt;Node5 -->
<g id="edge4" class="edge">
<title>Node1&#45;&gt;Node5</title>
<path fill="none" stroke="#191970" d="M616.6591,-123.2576C592.9067,-117.9793 564.5869,-111.686 539.2941,-106.0654"/>
<polygon fill="#191970" stroke="#191970" points="616.0158,-126.6999 626.5369,-125.4527 617.5344,-119.8666 616.0158,-126.6999"/>
</g>
<!-- Node7 -->
<g id="node7" class="node">
<title>Node7</title>
<g id="a_node7"><a xlink:href="classMapRenderer.html#a4cb99b1a8f20b978c64f41e22cde070d" target="_top" xlink:title="MapRenderer::setViewportTilePosition Verschiebt den Viewport zu einer Tile&#45;Koordinate.">
<polygon fill="#ffffff" stroke="#000000" points="403,-27 403,-57 540,-57 540,-27 403,-27"/>
<text text-anchor="start" x="411" y="-45" font-family="Helvetica,sans-Serif" font-size="10.00" fill="#000000">MapRenderer::setViewport</text>
<text text-anchor="middle" x="471.5" y="-34" font-family="Helvetica,sans-Serif" font-size="10.00" fill="#000000">TilePosition</text>
</a>
</g>
</g>
<!-- Node1&#45;&gt;Node7 -->
<g id="edge6" class="edge">
<title>Node1&#45;&gt;Node7</title>
<path fill="none" stroke="#191970" d="M646.9489,-119.5316C624.2708,-104.5123 587.9023,-81.8629 554,-67 545.6389,-63.3345 536.5782,-59.9963 527.626,-57.0377"/>
<polygon fill="#191970" stroke="#191970" points="645.2455,-122.6033 655.5006,-125.2647 649.1435,-116.789 645.2455,-122.6033"/>
</g>
<!-- Node6 -->
<g id="node6" class="node">
<title>Node6</title>
<g id="a_node6"><a xlink:href="classSidePanel.html#a26f78ad7518003db89a4ec57d63da2e4" target="_top" xlink:title="SidePanel::hookDataModel Verknüpft ein Datenmodell mit der Anzeige. Dadurch können dann Textfelder et...">
<polygon fill="#ffffff" stroke="#000000" points="205,-81.5 205,-100.5 348,-100.5 348,-81.5 205,-81.5"/>
<text text-anchor="middle" x="276.5" y="-88.5" font-family="Helvetica,sans-Serif" font-size="10.00" fill="#000000">SidePanel::hookDataModel</text>
</a>
</g>
</g>
<!-- Node5&#45;&gt;Node6 -->
<g id="edge5" class="edge">
<title>Node5&#45;&gt;Node6</title>
<path fill="none" stroke="#191970" d="M392.4271,-91C377.7541,-91 362.5033,-91 348.0699,-91"/>
<polygon fill="#191970" stroke="#191970" points="392.4759,-94.5001 402.4759,-91 392.4758,-87.5001 392.4759,-94.5001"/>
</g>
<!-- Node8 -->
<g id="node8" class="node">
<title>Node8</title>
<g id="a_node8"><a xlink:href="classMapRenderer.html#a742fba1dadf2f2bcabe5d8e2fa73042a" target="_top" xlink:title="MapRenderer::cloudAnimation Führt eine WolkpScaleen&#45;Animation aus.">
<polygon fill="#ffffff" stroke="#000000" points="200,-38.5 200,-57.5 353,-57.5 353,-38.5 200,-38.5"/>
<text text-anchor="middle" x="276.5" y="-45.5" font-family="Helvetica,sans-Serif" font-size="10.00" fill="#000000">MapRenderer::cloudAnimation</text>
</a>
</g>
</g>
<!-- Node7&#45;&gt;Node8 -->
<g id="edge7" class="edge">
<title>Node7&#45;&gt;Node8</title>
<path fill="none" stroke="#191970" d="M392.4862,-44.4312C379.5444,-44.8294 366.1514,-45.2415 353.2652,-45.638"/>
<polygon fill="#191970" stroke="#191970" points="392.8627,-47.9214 402.7503,-44.1154 392.6474,-40.9247 392.8627,-47.9214"/>
</g>
<!-- Node11 -->
<g id="node11" class="node">
<title>Node11</title>
<g id="a_node11"><a xlink:href="classMinimap.html#a22c0d911f1bef44c8ff05e9980572c23" target="_top" xlink:title="Minimap::mouseMoveEvent Wird aufgerufen wenn die Maus bewegt wurde. Erwirkt Vorschau der Koordinaten.">
<polygon fill="#ffffff" stroke="#000000" points="206,-.5 206,-19.5 347,-19.5 347,-.5 206,-.5"/>
<text text-anchor="middle" x="276.5" y="-7.5" font-family="Helvetica,sans-Serif" font-size="10.00" fill="#000000">Minimap::mouseMoveEvent</text>
</a>
</g>
</g>
<!-- Node7&#45;&gt;Node11 -->
<g id="edge10" class="edge">
<title>Node7&#45;&gt;Node11</title>
<path fill="none" stroke="#191970" d="M392.71,-29.0704C373.298,-25.8848 352.858,-22.5305 334.6258,-19.5386"/>
<polygon fill="#191970" stroke="#191970" points="392.3155,-32.5524 402.7503,-30.718 393.4491,-25.6447 392.3155,-32.5524"/>
</g>
<!-- Node9 -->
<g id="node9" class="node">
<title>Node9</title>
<g id="a_node9"><a xlink:href="classMapRenderer.html#a9f43e4b3db6a2cda8ea7cabf1bc6f805" target="_top" xlink:title=" ">
<polygon fill="#ffffff" stroke="#000000" points="0,-57.5 0,-76.5 164,-76.5 164,-57.5 0,-57.5"/>
<text text-anchor="middle" x="82" y="-64.5" font-family="Helvetica,sans-Serif" font-size="10.00" fill="#000000">MapRenderer::keyReleaseEvent</text>
</a>
</g>
</g>
<!-- Node8&#45;&gt;Node9 -->
<g id="edge8" class="edge">
<title>Node8&#45;&gt;Node9</title>
<path fill="none" stroke="#191970" d="M189.6797,-56.4812C181.2373,-57.3059 172.6889,-58.1409 164.2928,-58.9611"/>
<polygon fill="#191970" stroke="#191970" points="190.2953,-59.9378 199.9076,-55.482 189.6147,-52.9709 190.2953,-59.9378"/>
</g>
<!-- Node10 -->
<g id="node10" class="node">
<title>Node10</title>
<g id="a_node10"><a xlink:href="main_8cpp.html#a0ddf1224851353fc92bfbff6f499fa97" target="_top" xlink:title="main Startmethode.">
<polygon fill="#ffffff" stroke="#000000" points="63,-19.5 63,-38.5 101,-38.5 101,-19.5 63,-19.5"/>
<text text-anchor="middle" x="82" y="-26.5" font-family="Helvetica,sans-Serif" font-size="10.00" fill="#000000">main</text>
</a>
</g>
</g>
<!-- Node8&#45;&gt;Node10 -->
<g id="edge9" class="edge">
<title>Node8&#45;&gt;Node10</title>
<path fill="none" stroke="#191970" d="M189.7152,-39.5223C156.6484,-36.2921 121.9489,-32.9025 101.1476,-30.8705"/>
<polygon fill="#191970" stroke="#191970" points="189.6147,-43.0291 199.9076,-40.518 190.2953,-36.0622 189.6147,-43.0291"/>
</g>
</g>
</svg>
