<?xml version="1.0" encoding="UTF-8" standalone="no"?>
<!DOCTYPE svg PUBLIC "-//W3C//DTD SVG 1.1//EN"
 "http://www.w3.org/Graphics/SVG/1.1/DTD/svg11.dtd">
<!-- Generated by graphviz version 2.40.1 (20161225.0304)
 -->
<!-- Title: MapRenderer::mouseReleaseEvent Pages: 1 -->
<svg width="445pt" height="256pt"
 viewBox="0.00 0.00 445.00 256.00" xmlns="http://www.w3.org/2000/svg" xmlns:xlink="http://www.w3.org/1999/xlink">
<g id="graph0" class="graph" transform="scale(1 1) rotate(0) translate(4 252)">
<title>MapRenderer::mouseReleaseEvent</title>
<polygon fill="#ffffff" stroke="transparent" points="-4,4 -4,-252 441,-252 441,4 -4,4"/>
<!-- Node1 -->
<g id="node1" class="node">
<title>Node1</title>
<g id="a_node1"><a xlink:title=" ">
<polygon fill="#bfbfbf" stroke="#000000" points="0,-109 0,-139 153,-139 153,-109 0,-109"/>
<text text-anchor="start" x="8" y="-127" font-family="Helvetica,sans-Serif" font-size="10.00" fill="#000000">MapRenderer::mouseRelease</text>
<text text-anchor="middle" x="76.5" y="-116" font-family="Helvetica,sans-Serif" font-size="10.00" fill="#000000">Event</text>
</a>
</g>
</g>
<!-- Node2 -->
<g id="node2" class="node">
<title>Node2</title>
<g id="a_node2"><a xlink:href="classDataModel.html#a02fb9e1685440362e401e9c9213f7228" target="_top" xlink:title="DataModel::getInfoWidget Liefet das gespeicherte Info Widget.">
<polygon fill="#ffffff" stroke="#000000" points="194.5,-228.5 194.5,-247.5 329.5,-247.5 329.5,-228.5 194.5,-228.5"/>
<text text-anchor="middle" x="262" y="-235.5" font-family="Helvetica,sans-Serif" font-size="10.00" fill="#000000">DataModel::getInfoWidget</text>
</a>
</g>
</g>
<!-- Node1&#45;&gt;Node2 -->
<g id="edge1" class="edge">
<title>Node1&#45;&gt;Node2</title>
<path fill="none" stroke="#191970" d="M90.2147,-139.2547C109.9896,-160.3176 148.596,-198.0708 189,-219 193.5351,-221.3492 198.3826,-223.4235 203.3421,-225.2523"/>
<polygon fill="#191970" stroke="#191970" points="202.371,-228.6181 212.9649,-228.4741 204.5935,-221.9802 202.371,-228.6181"/>
</g>
<!-- Node3 -->
<g id="node3" class="node">
<title>Node3</title>
<g id="a_node3"><a xlink:href="classMapTile.html#af67fb2b04970d5160e8bdacb05484bac" target="_top" xlink:title="MapTile::getType Liefert den Typ des Quadranten.">
<polygon fill="#ffffff" stroke="#000000" points="213,-190.5 213,-209.5 311,-209.5 311,-190.5 213,-190.5"/>
<text text-anchor="middle" x="262" y="-197.5" font-family="Helvetica,sans-Serif" font-size="10.00" fill="#000000">MapTile::getType</text>
</a>
</g>
</g>
<!-- Node1&#45;&gt;Node3 -->
<g id="edge2" class="edge">
<title>Node1&#45;&gt;Node3</title>
<path fill="none" stroke="#191970" d="M106.6467,-139.0886C129.0683,-150.0261 160.5729,-164.8004 189,-176 199.0647,-179.9653 210.0773,-183.8264 220.4277,-187.2516"/>
<polygon fill="#191970" stroke="#191970" points="219.5036,-190.6313 230.0957,-190.3911 221.6656,-183.9736 219.5036,-190.6313"/>
</g>
<!-- Node4 -->
<g id="node4" class="node">
<title>Node4</title>
<g id="a_node4"><a xlink:href="classPoint.html#a0b82a4aa9614c11854abc507d89a70a9" target="_top" xlink:title="Point::getX Gibt die X&#45;Koordinate des Punktes.">
<polygon fill="#ffffff" stroke="#000000" points="371,-133.5 371,-152.5 437,-152.5 437,-133.5 371,-133.5"/>
<text text-anchor="middle" x="404" y="-140.5" font-family="Helvetica,sans-Serif" font-size="10.00" fill="#000000">Point::getX</text>
</a>
</g>
</g>
<!-- Node1&#45;&gt;Node4 -->
<g id="edge3" class="edge">
<title>Node1&#45;&gt;Node4</title>
<path fill="none" stroke="#191970" d="M153.1387,-138.7028C165.1009,-140.4879 177.3542,-142.0235 189,-143 248.2754,-147.9703 317.067,-146.7526 360.5574,-145.1249"/>
<polygon fill="#191970" stroke="#191970" points="360.927,-148.613 370.7795,-144.7171 360.6479,-141.6186 360.927,-148.613"/>
</g>
<!-- Node5 -->
<g id="node5" class="node">
<title>Node5</title>
<g id="a_node5"><a xlink:href="classPoint.html#a3770f321c49dfe7ca463900fddc2e2bc" target="_top" xlink:title="Point::getX Gibt die Y&#45;Koordinate des Punktes.">
<polygon fill="#ffffff" stroke="#000000" points="371,-76.5 371,-95.5 437,-95.5 437,-76.5 371,-76.5"/>
<text text-anchor="middle" x="404" y="-83.5" font-family="Helvetica,sans-Serif" font-size="10.00" fill="#000000">Point::getY</text>
</a>
</g>
</g>
<!-- Node1&#45;&gt;Node5 -->
<g id="edge4" class="edge">
<title>Node1&#45;&gt;Node5</title>
<path fill="none" stroke="#191970" d="M98.544,-108.8697C120.385,-94.8663 155.3524,-75.0377 189,-67 252.1132,-51.9237 270.6959,-58.3083 335,-67 345.343,-68.398 356.3273,-70.9242 366.4186,-73.6878"/>
<polygon fill="#191970" stroke="#191970" points="365.5769,-77.0876 376.1553,-76.4974 367.5177,-70.362 365.5769,-77.0876"/>
</g>
<!-- Node6 -->
<g id="node6" class="node">
<title>Node6</title>
<g id="a_node6"><a xlink:href="classMapTile.html#a85010ea238a9347a863a672d28e34fb0" target="_top" xlink:title="MapTile::isTrainStation Prüft ob die Kachel ein Bahnhof ist.">
<polygon fill="#ffffff" stroke="#000000" points="201,-76.5 201,-95.5 323,-95.5 323,-76.5 201,-76.5"/>
<text text-anchor="middle" x="262" y="-83.5" font-family="Helvetica,sans-Serif" font-size="10.00" fill="#000000">MapTile::isTrainStation</text>
</a>
</g>
</g>
<!-- Node1&#45;&gt;Node6 -->
<g id="edge5" class="edge">
<title>Node1&#45;&gt;Node6</title>
<path fill="none" stroke="#191970" d="M149.8145,-108.9814C168.3541,-105.1835 187.9785,-101.1634 205.5416,-97.5656"/>
<polygon fill="#191970" stroke="#191970" points="206.5264,-100.9366 215.6205,-95.5009 205.1215,-94.079 206.5264,-100.9366"/>
</g>
<!-- Node7 -->
<g id="node7" class="node">
<title>Node7</title>
<g id="a_node7"><a xlink:href="classMapRenderer.html#a5e805bae5efab5f37a6ec8ee24543d0d" target="_top" xlink:title="MapRenderer::mapPosition Wandelt eine Position im Fenster in eine Kachelkoordinate um.">
<polygon fill="#ffffff" stroke="#000000" points="192,-114.5 192,-133.5 332,-133.5 332,-114.5 192,-114.5"/>
<text text-anchor="middle" x="262" y="-121.5" font-family="Helvetica,sans-Serif" font-size="10.00" fill="#000000">MapRenderer::mapPosition</text>
</a>
</g>
</g>
<!-- Node1&#45;&gt;Node7 -->
<g id="edge6" class="edge">
<title>Node1&#45;&gt;Node7</title>
<path fill="none" stroke="#191970" d="M153.0209,-124C162.4755,-124 172.1623,-124 181.6717,-124"/>
<polygon fill="#191970" stroke="#191970" points="181.9014,-127.5001 191.9014,-124 181.9014,-120.5001 181.9014,-127.5001"/>
</g>
<!-- Node8 -->
<g id="node8" class="node">
<title>Node8</title>
<g id="a_node8"><a xlink:href="classInfoWidget.html#ad36e6350d6579343a54f4409f297c571" target="_top" xlink:title=" ">
<polygon fill="#ffffff" stroke="#000000" points="189,-.5 189,-19.5 335,-19.5 335,-.5 189,-.5"/>
<text text-anchor="middle" x="262" y="-7.5" font-family="Helvetica,sans-Serif" font-size="10.00" fill="#000000">InfoWidget::sendInfoRequest</text>
</a>
</g>
</g>
<!-- Node1&#45;&gt;Node8 -->
<g id="edge9" class="edge">
<title>Node1&#45;&gt;Node8</title>
<path fill="none" stroke="#191970" d="M91.6001,-108.9299C112.07,-89.2439 150.5073,-54.8385 189,-34 196.9274,-29.7084 205.7558,-26.0103 214.4571,-22.8913"/>
<polygon fill="#191970" stroke="#191970" points="215.8151,-26.1271 224.1725,-19.6152 213.5784,-19.4941 215.8151,-26.1271"/>
</g>
<!-- Node7&#45;&gt;Node4 -->
<g id="edge7" class="edge">
<title>Node7&#45;&gt;Node4</title>
<path fill="none" stroke="#191970" d="M332.168,-133.3887C342.0169,-134.7065 351.8871,-136.0271 361.0204,-137.2492"/>
<polygon fill="#191970" stroke="#191970" points="360.6029,-140.7245 370.9788,-138.5817 361.5313,-133.7863 360.6029,-140.7245"/>
</g>
<!-- Node7&#45;&gt;Node5 -->
<g id="edge8" class="edge">
<title>Node7&#45;&gt;Node5</title>
<path fill="none" stroke="#191970" d="M299.1636,-114.4352C310.6607,-111.4472 323.3619,-108.1167 335,-105 343.3677,-102.7591 352.2953,-100.3296 360.8573,-97.9803"/>
<polygon fill="#191970" stroke="#191970" points="361.9721,-101.3037 370.6848,-95.2756 360.1146,-94.5547 361.9721,-101.3037"/>
</g>
</g>
</svg>
