<?xml version="1.0" encoding="UTF-8" standalone="no"?>
<!DOCTYPE svg PUBLIC "-//W3C//DTD SVG 1.1//EN"
 "http://www.w3.org/Graphics/SVG/1.1/DTD/svg11.dtd">
<!-- Generated by graphviz version 2.40.1 (20161225.0304)
 -->
<!-- Title: Client Pages: 1 -->
<svg width="998pt" height="1417pt"
 viewBox="0.00 0.00 998.30 1417.00" xmlns="http://www.w3.org/2000/svg" xmlns:xlink="http://www.w3.org/1999/xlink">
<g id="graph0" class="graph" transform="scale(1 1) rotate(0) translate(4 1413)">
<title>Client</title>
<polygon fill="#ffffff" stroke="transparent" points="-4,4 -4,-1413 994.3018,-1413 994.3018,4 -4,4"/>
<!-- Node1 -->
<g id="node1" class="node">
<title>Node1</title>
<g id="a_node1"><a xlink:title=" ">
<polygon fill="#bfbfbf" stroke="#000000" points="281.8018,-.5 281.8018,-156.5 396.8018,-156.5 396.8018,-.5 281.8018,-.5"/>
<text text-anchor="middle" x="339.3018" y="-144.5" font-family="Helvetica,sans-Serif" font-size="10.00" fill="#000000">Client</text>
<polyline fill="none" stroke="#000000" points="281.8018,-137.5 396.8018,-137.5 "/>
<text text-anchor="start" x="289.8018" y="-125.5" font-family="Helvetica,sans-Serif" font-size="10.00" fill="#000000">&#45; socket</text>
<text text-anchor="start" x="289.8018" y="-114.5" font-family="Helvetica,sans-Serif" font-size="10.00" fill="#000000">&#45; debug</text>
<text text-anchor="start" x="289.8018" y="-103.5" font-family="Helvetica,sans-Serif" font-size="10.00" fill="#000000">&#45; tickcount</text>
<polyline fill="none" stroke="#000000" points="281.8018,-96.5 396.8018,-96.5 "/>
<text text-anchor="start" x="289.8018" y="-84.5" font-family="Helvetica,sans-Serif" font-size="10.00" fill="#000000">+ Client()</text>
<text text-anchor="start" x="289.8018" y="-73.5" font-family="Helvetica,sans-Serif" font-size="10.00" fill="#000000">+ run()</text>
<text text-anchor="start" x="289.8018" y="-62.5" font-family="Helvetica,sans-Serif" font-size="10.00" fill="#000000">+ requestMap()</text>
<text text-anchor="start" x="289.8018" y="-51.5" font-family="Helvetica,sans-Serif" font-size="10.00" fill="#000000">+ onPositionChange()</text>
<text text-anchor="start" x="289.8018" y="-40.5" font-family="Helvetica,sans-Serif" font-size="10.00" fill="#000000">+ onLeftclick()</text>
<text text-anchor="start" x="289.8018" y="-29.5" font-family="Helvetica,sans-Serif" font-size="10.00" fill="#000000">+ onRightclick()</text>
<text text-anchor="start" x="289.8018" y="-18.5" font-family="Helvetica,sans-Serif" font-size="10.00" fill="#000000">+ sendRoute()</text>
<text text-anchor="start" x="289.8018" y="-7.5" font-family="Helvetica,sans-Serif" font-size="10.00" fill="#000000">&#45; processCommand()</text>
</a>
</g>
</g>
<!-- Node2 -->
<g id="node2" class="node">
<title>Node2</title>
<g id="a_node2"><a xlink:title=" ">
<polygon fill="#ffffff" stroke="#bfbfbf" points="124.3018,-325.5 124.3018,-382.5 182.3018,-382.5 182.3018,-325.5 124.3018,-325.5"/>
<text text-anchor="middle" x="153.3018" y="-370.5" font-family="Helvetica,sans-Serif" font-size="10.00" fill="#000000">QThread</text>
<polyline fill="none" stroke="#bfbfbf" points="124.3018,-363.5 182.3018,-363.5 "/>
<text text-anchor="middle" x="153.3018" y="-351.5" font-family="Helvetica,sans-Serif" font-size="10.00" fill="#000000"> </text>
<polyline fill="none" stroke="#bfbfbf" points="124.3018,-344.5 182.3018,-344.5 "/>
<text text-anchor="middle" x="153.3018" y="-332.5" font-family="Helvetica,sans-Serif" font-size="10.00" fill="#000000"> </text>
</a>
</g>
</g>
<!-- Node2&#45;&gt;Node1 -->
<g id="edge1" class="edge">
<title>Node2&#45;&gt;Node1</title>
<path fill="none" stroke="#191970" d="M156.552,-315.1802C160.6998,-283.2884 170.0943,-237.9926 191.3018,-204 213.9485,-167.7005 250.5496,-136.5302 281.6861,-114.3337"/>
<polygon fill="none" stroke="#191970" points="153.0367,-315.104 155.337,-325.4461 159.9881,-315.9268 153.0367,-315.104"/>
</g>
<!-- Node3 -->
<g id="node3" class="node">
<title>Node3</title>
<g id="a_node3"><a xlink:href="classScene.html" target="_top" xlink:title=" ">
<polygon fill="#ffffff" stroke="#000000" points="200.3018,-254 200.3018,-454 328.3018,-454 328.3018,-254 200.3018,-254"/>
<text text-anchor="middle" x="264.3018" y="-442" font-family="Helvetica,sans-Serif" font-size="10.00" fill="#000000">Scene</text>
<polyline fill="none" stroke="#000000" points="200.3018,-435 328.3018,-435 "/>
<text text-anchor="start" x="208.3018" y="-423" font-family="Helvetica,sans-Serif" font-size="10.00" fill="#000000">+ MAP_SIZE</text>
<text text-anchor="start" x="208.3018" y="-412" font-family="Helvetica,sans-Serif" font-size="10.00" fill="#000000">+ TILE_SIZE</text>
<text text-anchor="start" x="208.3018" y="-401" font-family="Helvetica,sans-Serif" font-size="10.00" fill="#000000">&#45; radiusHighlighter</text>
<text text-anchor="start" x="208.3018" y="-390" font-family="Helvetica,sans-Serif" font-size="10.00" fill="#000000">&#45; textHint</text>
<text text-anchor="start" x="208.3018" y="-379" font-family="Helvetica,sans-Serif" font-size="10.00" fill="#000000">&#45; showRadius</text>
<text text-anchor="start" x="208.3018" y="-368" font-family="Helvetica,sans-Serif" font-size="10.00" fill="#000000">&#45; players</text>
<polyline fill="none" stroke="#000000" points="200.3018,-361 328.3018,-361 "/>
<text text-anchor="start" x="208.3018" y="-349" font-family="Helvetica,sans-Serif" font-size="10.00" fill="#000000">+ Scene()</text>
<text text-anchor="start" x="208.3018" y="-338" font-family="Helvetica,sans-Serif" font-size="10.00" fill="#000000">+ generateWorld()</text>
<text text-anchor="start" x="208.3018" y="-327" font-family="Helvetica,sans-Serif" font-size="10.00" fill="#000000">+ setActiveTile()</text>
<text text-anchor="start" x="208.3018" y="-316" font-family="Helvetica,sans-Serif" font-size="10.00" fill="#000000">+ getTileAt()</text>
<text text-anchor="start" x="208.3018" y="-305" font-family="Helvetica,sans-Serif" font-size="10.00" fill="#000000">+ setTileAt()</text>
<text text-anchor="start" x="208.3018" y="-294" font-family="Helvetica,sans-Serif" font-size="10.00" fill="#000000">+ tileChanged()</text>
<text text-anchor="start" x="208.3018" y="-283" font-family="Helvetica,sans-Serif" font-size="10.00" fill="#000000">+ tick()</text>
<text text-anchor="start" x="208.3018" y="-272" font-family="Helvetica,sans-Serif" font-size="10.00" fill="#000000">+ onSetTile()</text>
<text text-anchor="start" x="208.3018" y="-261" font-family="Helvetica,sans-Serif" font-size="10.00" fill="#000000">+ updatePlayerPosition()</text>
</a>
</g>
</g>
<!-- Node3&#45;&gt;Node1 -->
<g id="edge2" class="edge">
<title>Node3&#45;&gt;Node1</title>
<path fill="none" stroke="#404040" d="M291.5907,-253.7588C299.1794,-225.8828 307.3721,-195.7883 314.7909,-168.5365"/>
<polygon fill="none" stroke="#404040" points="314.8771,-168.2199 312.5936,-161.3799 318.0292,-156.6413 320.3127,-163.4814 314.8771,-168.2199"/>
<text text-anchor="middle" x="329.3018" y="-178" font-family="Helvetica,sans-Serif" font-size="10.00" fill="#000000"> &#45;scene</text>
</g>
<!-- Node4 -->
<g id="node4" class="node">
<title>Node4</title>
<g id="a_node4"><a xlink:title=" ">
<polygon fill="#ffffff" stroke="#bfbfbf" points="76.3018,-749.5 76.3018,-806.5 170.3018,-806.5 170.3018,-749.5 76.3018,-749.5"/>
<text text-anchor="middle" x="123.3018" y="-794.5" font-family="Helvetica,sans-Serif" font-size="10.00" fill="#000000">QGraphicsScene</text>
<polyline fill="none" stroke="#bfbfbf" points="76.3018,-787.5 170.3018,-787.5 "/>
<text text-anchor="middle" x="123.3018" y="-775.5" font-family="Helvetica,sans-Serif" font-size="10.00" fill="#000000"> </text>
<polyline fill="none" stroke="#bfbfbf" points="76.3018,-768.5 170.3018,-768.5 "/>
<text text-anchor="middle" x="123.3018" y="-756.5" font-family="Helvetica,sans-Serif" font-size="10.00" fill="#000000"> </text>
</a>
</g>
</g>
<!-- Node4&#45;&gt;Node3 -->
<g id="edge3" class="edge">
<title>Node4&#45;&gt;Node3</title>
<path fill="none" stroke="#191970" d="M131.9187,-739.3294C143.5979,-688.7507 166.0372,-597.67 192.3018,-522 200.0016,-499.8163 209.2661,-476.42 218.5473,-454.3657"/>
<polygon fill="none" stroke="#191970" points="128.4817,-738.659 129.6603,-749.1881 135.305,-740.2221 128.4817,-738.659"/>
</g>
<!-- Node5 -->
<g id="node5" class="node">
<title>Node5</title>
<g id="a_node5"><a xlink:href="classHighlighter.html" target="_top" xlink:title=" ">
<polygon fill="#ffffff" stroke="#000000" points="24.8018,-1245.5 24.8018,-1313.5 103.8018,-1313.5 103.8018,-1245.5 24.8018,-1245.5"/>
<text text-anchor="middle" x="64.3018" y="-1301.5" font-family="Helvetica,sans-Serif" font-size="10.00" fill="#000000">Highlighter</text>
<polyline fill="none" stroke="#000000" points="24.8018,-1294.5 103.8018,-1294.5 "/>
<text text-anchor="start" x="32.8018" y="-1282.5" font-family="Helvetica,sans-Serif" font-size="10.00" fill="#000000">&#45; outline</text>
<polyline fill="none" stroke="#000000" points="24.8018,-1275.5 103.8018,-1275.5 "/>
<text text-anchor="start" x="32.8018" y="-1263.5" font-family="Helvetica,sans-Serif" font-size="10.00" fill="#000000">+ Highlighter()</text>
<text text-anchor="start" x="32.8018" y="-1252.5" font-family="Helvetica,sans-Serif" font-size="10.00" fill="#000000">+ setColor()</text>
</a>
</g>
</g>
<!-- Node5&#45;&gt;Node3 -->
<g id="edge4" class="edge">
<title>Node5&#45;&gt;Node3</title>
<path fill="none" stroke="#404040" d="M53.7478,-1245.1991C23.1604,-1138.9227 -55.8097,-808.7811 67.3018,-584 98.8067,-526.4772 147.7913,-553.0742 191.3018,-504 201.7133,-492.2572 210.9879,-478.765 219.1404,-464.79"/>
<polygon fill="none" stroke="#404040" points="219.3001,-464.5043 218.7368,-457.3152 225.1562,-454.0302 225.7195,-461.2193 219.3001,-464.5043"/>
<text text-anchor="middle" x="33.3018" y="-993" font-family="Helvetica,sans-Serif" font-size="10.00" fill="#000000"> &#45;highlighter</text>
</g>
<!-- Node10 -->
<g id="node10" class="node">
<title>Node10</title>
<g id="a_node10"><a xlink:href="classPlayer.html" target="_top" xlink:title=" ">
<polygon fill="#ffffff" stroke="#000000" points="165.8018,-1069 165.8018,-1148 246.8018,-1148 246.8018,-1069 165.8018,-1069"/>
<text text-anchor="middle" x="206.3018" y="-1136" font-family="Helvetica,sans-Serif" font-size="10.00" fill="#000000">Player</text>
<polyline fill="none" stroke="#000000" points="165.8018,-1129 246.8018,-1129 "/>
<text text-anchor="start" x="173.8018" y="-1117" font-family="Helvetica,sans-Serif" font-size="10.00" fill="#000000">+ posX</text>
<text text-anchor="start" x="173.8018" y="-1106" font-family="Helvetica,sans-Serif" font-size="10.00" fill="#000000">+ posY</text>
<polyline fill="none" stroke="#000000" points="165.8018,-1099 246.8018,-1099 "/>
<text text-anchor="start" x="173.8018" y="-1087" font-family="Helvetica,sans-Serif" font-size="10.00" fill="#000000">+ Player()</text>
<text text-anchor="start" x="173.8018" y="-1076" font-family="Helvetica,sans-Serif" font-size="10.00" fill="#000000">+ setPosition()</text>
</a>
</g>
</g>
<!-- Node5&#45;&gt;Node10 -->
<g id="edge11" class="edge">
<title>Node5&#45;&gt;Node10</title>
<path fill="none" stroke="#404040" d="M92.6963,-1245.3066C113.6385,-1220.0875 142.4284,-1185.418 165.7853,-1157.291"/>
<polygon fill="none" stroke="#404040" points="165.8126,-1157.2581 166.5684,-1150.0867 173.4789,-1148.0262 172.723,-1155.1976 165.8126,-1157.2581"/>
<text text-anchor="middle" x="141.8018" y="-1219" font-family="Helvetica,sans-Serif" font-size="10.00" fill="#000000"> +highlighter</text>
</g>
<!-- Node6 -->
<g id="node6" class="node">
<title>Node6</title>
<g id="a_node6"><a xlink:title=" ">
<polygon fill="#ffffff" stroke="#bfbfbf" points="12.3018,-1351.5 12.3018,-1408.5 116.3018,-1408.5 116.3018,-1351.5 12.3018,-1351.5"/>
<text text-anchor="middle" x="64.3018" y="-1396.5" font-family="Helvetica,sans-Serif" font-size="10.00" fill="#000000">QGraphicsRectItem</text>
<polyline fill="none" stroke="#bfbfbf" points="12.3018,-1389.5 116.3018,-1389.5 "/>
<text text-anchor="middle" x="64.3018" y="-1377.5" font-family="Helvetica,sans-Serif" font-size="10.00" fill="#000000"> </text>
<polyline fill="none" stroke="#bfbfbf" points="12.3018,-1370.5 116.3018,-1370.5 "/>
<text text-anchor="middle" x="64.3018" y="-1358.5" font-family="Helvetica,sans-Serif" font-size="10.00" fill="#000000"> </text>
</a>
</g>
</g>
<!-- Node6&#45;&gt;Node5 -->
<g id="edge5" class="edge">
<title>Node6&#45;&gt;Node5</title>
<path fill="none" stroke="#191970" d="M64.3018,-1341.1903C64.3018,-1332.1667 64.3018,-1322.6233 64.3018,-1313.8097"/>
<polygon fill="none" stroke="#191970" points="60.8019,-1341.4695 64.3018,-1351.4696 67.8019,-1341.4696 60.8019,-1341.4695"/>
</g>
<!-- Node7 -->
<g id="node7" class="node">
<title>Node7</title>
<g id="a_node7"><a xlink:href="classMapTile.html" target="_top" xlink:title=" ">
<polygon fill="#ffffff" stroke="#000000" points="571.3018,-683.5 571.3018,-872.5 673.3018,-872.5 673.3018,-683.5 571.3018,-683.5"/>
<text text-anchor="middle" x="622.3018" y="-860.5" font-family="Helvetica,sans-Serif" font-size="10.00" fill="#000000">MapTile</text>
<polyline fill="none" stroke="#000000" points="571.3018,-853.5 673.3018,-853.5 "/>
<text text-anchor="start" x="579.3018" y="-841.5" font-family="Helvetica,sans-Serif" font-size="10.00" fill="#000000">&#45; type</text>
<text text-anchor="start" x="579.3018" y="-830.5" font-family="Helvetica,sans-Serif" font-size="10.00" fill="#000000">&#45; pixmapItem</text>
<text text-anchor="start" x="579.3018" y="-819.5" font-family="Helvetica,sans-Serif" font-size="10.00" fill="#000000">&#45; currentRotation</text>
<polyline fill="none" stroke="#000000" points="571.3018,-812.5 673.3018,-812.5 "/>
<text text-anchor="start" x="579.3018" y="-800.5" font-family="Helvetica,sans-Serif" font-size="10.00" fill="#000000">+ MapTile()</text>
<text text-anchor="start" x="579.3018" y="-789.5" font-family="Helvetica,sans-Serif" font-size="10.00" fill="#000000">+ MapTile()</text>
<text text-anchor="start" x="579.3018" y="-778.5" font-family="Helvetica,sans-Serif" font-size="10.00" fill="#000000">+ setType()</text>
<text text-anchor="start" x="579.3018" y="-767.5" font-family="Helvetica,sans-Serif" font-size="10.00" fill="#000000">+ getType()</text>
<text text-anchor="start" x="579.3018" y="-756.5" font-family="Helvetica,sans-Serif" font-size="10.00" fill="#000000">+ setRotation()</text>
<text text-anchor="start" x="579.3018" y="-745.5" font-family="Helvetica,sans-Serif" font-size="10.00" fill="#000000">+ getRotation()</text>
<text text-anchor="start" x="579.3018" y="-734.5" font-family="Helvetica,sans-Serif" font-size="10.00" fill="#000000">+ getRotationDeg()</text>
<text text-anchor="start" x="579.3018" y="-723.5" font-family="Helvetica,sans-Serif" font-size="10.00" fill="#000000">+ setPosition()</text>
<text text-anchor="start" x="579.3018" y="-712.5" font-family="Helvetica,sans-Serif" font-size="10.00" fill="#000000">+ isRiver()</text>
<text text-anchor="start" x="579.3018" y="-701.5" font-family="Helvetica,sans-Serif" font-size="10.00" fill="#000000">+ isRail()</text>
<text text-anchor="start" x="579.3018" y="-690.5" font-family="Helvetica,sans-Serif" font-size="10.00" fill="#000000">und 6 mehr ...</text>
</a>
</g>
</g>
<!-- Node7&#45;&gt;Node3 -->
<g id="edge6" class="edge">
<title>Node7&#45;&gt;Node3</title>
<path fill="none" stroke="#404040" d="M602.0031,-683.2911C592.0086,-650.012 577.6077,-613.5762 557.3018,-584 532.823,-548.346 521.9773,-539.2126 482.3018,-522 424.75,-497.032 393.7372,-539.9166 342.3018,-504 327.4958,-493.6612 315.3014,-479.6283 305.3183,-464.274"/>
<polygon fill="none" stroke="#404040" points="305.3144,-464.2675 298.7771,-461.2239 299.0722,-454.0188 305.6095,-457.0624 305.3144,-464.2675"/>
<text text-anchor="middle" x="569.3018" y="-547" font-family="Helvetica,sans-Serif" font-size="10.00" fill="#000000"> &#45;activeTile</text>
<text text-anchor="middle" x="569.3018" y="-536" font-family="Helvetica,sans-Serif" font-size="10.00" fill="#000000">+data</text>
</g>
<!-- Node13 -->
<g id="node13" class="node">
<title>Node13</title>
<g id="a_node13"><a xlink:href="classMapRenderer.html" target="_top" xlink:title=" ">
<polygon fill="#ffffff" stroke="#000000" points="621.8018,-204.5 621.8018,-503.5 746.8018,-503.5 746.8018,-204.5 621.8018,-204.5"/>
<text text-anchor="middle" x="684.3018" y="-491.5" font-family="Helvetica,sans-Serif" font-size="10.00" fill="#000000">MapRenderer</text>
<polyline fill="none" stroke="#000000" points="621.8018,-484.5 746.8018,-484.5 "/>
<text text-anchor="start" x="629.8018" y="-472.5" font-family="Helvetica,sans-Serif" font-size="10.00" fill="#000000">&#45; mouseDown</text>
<text text-anchor="start" x="629.8018" y="-461.5" font-family="Helvetica,sans-Serif" font-size="10.00" fill="#000000">&#45; showHighlight</text>
<text text-anchor="start" x="629.8018" y="-450.5" font-family="Helvetica,sans-Serif" font-size="10.00" fill="#000000">&#45; rendering</text>
<text text-anchor="start" x="629.8018" y="-439.5" font-family="Helvetica,sans-Serif" font-size="10.00" fill="#000000">&#45; renderTime</text>
<text text-anchor="start" x="629.8018" y="-428.5" font-family="Helvetica,sans-Serif" font-size="10.00" fill="#000000">&#45; scale</text>
<text text-anchor="start" x="629.8018" y="-417.5" font-family="Helvetica,sans-Serif" font-size="10.00" fill="#000000">&#45; showExpertDetails</text>
<text text-anchor="start" x="629.8018" y="-406.5" font-family="Helvetica,sans-Serif" font-size="10.00" fill="#000000">&#45; movementAnimations</text>
<text text-anchor="start" x="629.8018" y="-395.5" font-family="Helvetica,sans-Serif" font-size="10.00" fill="#000000">&#45; lastFpsTake</text>
<text text-anchor="start" x="629.8018" y="-384.5" font-family="Helvetica,sans-Serif" font-size="10.00" fill="#000000">&#45; frameCount</text>
<text text-anchor="start" x="629.8018" y="-373.5" font-family="Helvetica,sans-Serif" font-size="10.00" fill="#000000">&#45; fps</text>
<text text-anchor="start" x="629.8018" y="-362.5" font-family="Helvetica,sans-Serif" font-size="10.00" fill="#000000">und 6 mehr ...</text>
<polyline fill="none" stroke="#000000" points="621.8018,-355.5 746.8018,-355.5 "/>
<text text-anchor="start" x="629.8018" y="-343.5" font-family="Helvetica,sans-Serif" font-size="10.00" fill="#000000">+ MapRenderer()</text>
<text text-anchor="start" x="629.8018" y="-332.5" font-family="Helvetica,sans-Serif" font-size="10.00" fill="#000000">+ paintEvent()</text>
<text text-anchor="start" x="629.8018" y="-321.5" font-family="Helvetica,sans-Serif" font-size="10.00" fill="#000000">+ mousePressEvent()</text>
<text text-anchor="start" x="629.8018" y="-310.5" font-family="Helvetica,sans-Serif" font-size="10.00" fill="#000000">+ mouseReleaseEvent()</text>
<text text-anchor="start" x="629.8018" y="-299.5" font-family="Helvetica,sans-Serif" font-size="10.00" fill="#000000">+ mouseMoveEvent()</text>
<text text-anchor="start" x="629.8018" y="-288.5" font-family="Helvetica,sans-Serif" font-size="10.00" fill="#000000">+ wheelEvent()</text>
<text text-anchor="start" x="629.8018" y="-277.5" font-family="Helvetica,sans-Serif" font-size="10.00" fill="#000000">+ keyReleaseEvent()</text>
<text text-anchor="start" x="629.8018" y="-266.5" font-family="Helvetica,sans-Serif" font-size="10.00" fill="#000000">+ tick()</text>
<text text-anchor="start" x="629.8018" y="-255.5" font-family="Helvetica,sans-Serif" font-size="10.00" fill="#000000">+ demo()</text>
<text text-anchor="start" x="629.8018" y="-244.5" font-family="Helvetica,sans-Serif" font-size="10.00" fill="#000000">+ mapPosition()</text>
<text text-anchor="start" x="629.8018" y="-233.5" font-family="Helvetica,sans-Serif" font-size="10.00" fill="#000000">und 8 mehr ...</text>
<text text-anchor="start" x="629.8018" y="-222.5" font-family="Helvetica,sans-Serif" font-size="10.00" fill="#000000">+ onTileChange()</text>
<text text-anchor="start" x="629.8018" y="-211.5" font-family="Helvetica,sans-Serif" font-size="10.00" fill="#000000">+ enableHighlight()</text>
</a>
</g>
</g>
<!-- Node7&#45;&gt;Node13 -->
<g id="edge17" class="edge">
<title>Node7&#45;&gt;Node13</title>
<path fill="none" stroke="#404040" d="M636.1386,-683.3739C643.3522,-634.0422 652.3763,-572.3289 660.6573,-515.6979"/>
<polygon fill="none" stroke="#404040" points="660.6758,-515.5706 657.5861,-509.0549 662.4122,-503.6968 665.5019,-510.2125 660.6758,-515.5706"/>
<text text-anchor="middle" x="673.3018" y="-541.5" font-family="Helvetica,sans-Serif" font-size="10.00" fill="#000000"> +data</text>
</g>
<!-- Node8 -->
<g id="node8" class="node">
<title>Node8</title>
<g id="a_node8"><a xlink:href="classGraphicsManager.html" target="_top" xlink:title=" ">
<polygon fill="#ffffff" stroke="#000000" points="505.8018,-1074.5 505.8018,-1142.5 618.8018,-1142.5 618.8018,-1074.5 505.8018,-1074.5"/>
<text text-anchor="middle" x="562.3018" y="-1130.5" font-family="Helvetica,sans-Serif" font-size="10.00" fill="#000000">GraphicsManager</text>
<polyline fill="none" stroke="#000000" points="505.8018,-1123.5 618.8018,-1123.5 "/>
<text text-anchor="start" x="513.8018" y="-1111.5" font-family="Helvetica,sans-Serif" font-size="10.00" fill="#000000">+ GRAPHICS</text>
<polyline fill="none" stroke="#000000" points="505.8018,-1104.5 618.8018,-1104.5 "/>
<text text-anchor="start" x="513.8018" y="-1092.5" font-family="Helvetica,sans-Serif" font-size="10.00" fill="#000000">+ GraphicsManager()</text>
<text text-anchor="start" x="513.8018" y="-1081.5" font-family="Helvetica,sans-Serif" font-size="10.00" fill="#000000">+ get()</text>
</a>
</g>
</g>
<!-- Node8&#45;&gt;Node3 -->
<g id="edge9" class="edge">
<title>Node8&#45;&gt;Node3</title>
<path fill="none" stroke="#404040" d="M534.2235,-1074.4569C514.374,-1048.2186 489.2521,-1010.0907 477.3018,-972 462.3149,-924.2305 487.5703,-559.4131 454.3018,-522 422.5482,-486.2905 387.3522,-531.5413 348.3018,-504 333.4957,-493.5576 320.9882,-479.6335 310.5218,-464.4659"/>
<polygon fill="none" stroke="#404040" points="310.4798,-464.4013 303.8547,-461.5539 303.935,-454.3432 310.5601,-457.1906 310.4798,-464.4013"/>
<text text-anchor="middle" x="519.8018" y="-775.5" font-family="Helvetica,sans-Serif" font-size="10.00" fill="#000000"> &#45;graphicsManager</text>
</g>
<!-- Node8&#45;&gt;Node7 -->
<g id="edge7" class="edge">
<title>Node8&#45;&gt;Node7</title>
<path fill="none" stroke="#404040" d="M562.6408,-1074.3555C563.2858,-1050.5844 564.9802,-1018.2141 569.3018,-990 574.6199,-955.2801 583.0235,-917.945 591.5852,-884.4274"/>
<polygon fill="none" stroke="#404040" points="591.6033,-884.3575 589.2374,-877.5455 594.6154,-872.7416 596.9813,-879.5536 591.6033,-884.3575"/>
<text text-anchor="middle" x="611.8018" y="-993" font-family="Helvetica,sans-Serif" font-size="10.00" fill="#000000"> &#45;graphicsManager</text>
</g>
<!-- Node8&#45;&gt;Node13 -->
<g id="edge18" class="edge">
<title>Node8&#45;&gt;Node13</title>
<path fill="none" stroke="#404040" d="M579.5434,-1074.3655C590.886,-1055.2868 607.4822,-1032.6676 628.3018,-1019 667.1915,-993.4698 803.3336,-1008.4011 832.3018,-972 956.9188,-815.4076 905.0151,-701.3893 816.3018,-522 800.196,-489.4321 777.0903,-457.1914 754.6993,-429.7956"/>
<polygon fill="none" stroke="#404040" points="754.4907,-429.5445 747.5796,-427.486 746.8217,-420.3148 753.7328,-422.3733 754.4907,-429.5445"/>
<text text-anchor="middle" x="947.8018" y="-775.5" font-family="Helvetica,sans-Serif" font-size="10.00" fill="#000000"> &#45;graphicsManager</text>
</g>
<!-- Node9 -->
<g id="node9" class="node">
<title>Node9</title>
<g id="a_node9"><a xlink:href="classCity.html" target="_top" xlink:title=" ">
<polygon fill="#ffffff" stroke="#000000" points="636.8018,-1019.5 636.8018,-1197.5 719.8018,-1197.5 719.8018,-1019.5 636.8018,-1019.5"/>
<text text-anchor="middle" x="678.3018" y="-1185.5" font-family="Helvetica,sans-Serif" font-size="10.00" fill="#000000">City</text>
<polyline fill="none" stroke="#000000" points="636.8018,-1178.5 719.8018,-1178.5 "/>
<text text-anchor="start" x="644.8018" y="-1166.5" font-family="Helvetica,sans-Serif" font-size="10.00" fill="#000000">&#45; size</text>
<text text-anchor="start" x="644.8018" y="-1155.5" font-family="Helvetica,sans-Serif" font-size="10.00" fill="#000000">&#45; centerX</text>
<text text-anchor="start" x="644.8018" y="-1144.5" font-family="Helvetica,sans-Serif" font-size="10.00" fill="#000000">&#45; centerY</text>
<text text-anchor="start" x="644.8018" y="-1133.5" font-family="Helvetica,sans-Serif" font-size="10.00" fill="#000000">&#45; name</text>
<polyline fill="none" stroke="#000000" points="636.8018,-1126.5 719.8018,-1126.5 "/>
<text text-anchor="start" x="644.8018" y="-1114.5" font-family="Helvetica,sans-Serif" font-size="10.00" fill="#000000">+ City()</text>
<text text-anchor="start" x="644.8018" y="-1103.5" font-family="Helvetica,sans-Serif" font-size="10.00" fill="#000000">+ City()</text>
<text text-anchor="start" x="644.8018" y="-1092.5" font-family="Helvetica,sans-Serif" font-size="10.00" fill="#000000">+ getSize()</text>
<text text-anchor="start" x="644.8018" y="-1081.5" font-family="Helvetica,sans-Serif" font-size="10.00" fill="#000000">+ getCenterX()</text>
<text text-anchor="start" x="644.8018" y="-1070.5" font-family="Helvetica,sans-Serif" font-size="10.00" fill="#000000">+ getCenterY()</text>
<text text-anchor="start" x="644.8018" y="-1059.5" font-family="Helvetica,sans-Serif" font-size="10.00" fill="#000000">+ getName()</text>
<text text-anchor="start" x="644.8018" y="-1048.5" font-family="Helvetica,sans-Serif" font-size="10.00" fill="#000000">+ setSize()</text>
<text text-anchor="start" x="644.8018" y="-1037.5" font-family="Helvetica,sans-Serif" font-size="10.00" fill="#000000">+ setCenter()</text>
<text text-anchor="start" x="644.8018" y="-1026.5" font-family="Helvetica,sans-Serif" font-size="10.00" fill="#000000">+ setName()</text>
</a>
</g>
</g>
<!-- Node9&#45;&gt;Node7 -->
<g id="edge8" class="edge">
<title>Node9&#45;&gt;Node7</title>
<path fill="none" stroke="#404040" d="M663.2212,-1019.4973C656.1885,-977.992 647.7631,-928.2673 640.3904,-884.7551"/>
<polygon fill="none" stroke="#404040" points="640.3457,-884.4906 635.3995,-879.2431 638.3409,-872.6592 643.2871,-877.9066 640.3457,-884.4906"/>
<text text-anchor="middle" x="669.3018" y="-993" font-family="Helvetica,sans-Serif" font-size="10.00" fill="#000000"> &#45;city</text>
</g>
<!-- Node10&#45;&gt;Node3 -->
<g id="edge10" class="edge">
<title>Node10&#45;&gt;Node3</title>
<path fill="none" stroke="#404040" d="M204.5448,-1068.857C201.2064,-981.1354 195.9727,-764.0967 216.3018,-584 220.6781,-545.2304 228.4848,-503.3242 236.5477,-466.0374"/>
<polygon fill="none" stroke="#404040" points="236.5945,-465.8237 233.9757,-459.105 239.1705,-454.1034 241.7893,-460.8222 236.5945,-465.8237"/>
<text text-anchor="middle" x="251.3018" y="-775.5" font-family="Helvetica,sans-Serif" font-size="10.00" fill="#000000"> &#45;secondPlayer</text>
</g>
<!-- Node11 -->
<g id="node11" class="node">
<title>Node11</title>
<g id="a_node11"><a xlink:href="classDataModel.html" target="_top" xlink:title=" ">
<polygon fill="#ffffff" stroke="#000000" points="294.8018,-584.5 294.8018,-971.5 431.8018,-971.5 431.8018,-584.5 294.8018,-584.5"/>
<text text-anchor="middle" x="363.3018" y="-959.5" font-family="Helvetica,sans-Serif" font-size="10.00" fill="#000000">DataModel</text>
<polyline fill="none" stroke="#000000" points="294.8018,-952.5 431.8018,-952.5 "/>
<text text-anchor="start" x="302.8018" y="-940.5" font-family="Helvetica,sans-Serif" font-size="10.00" fill="#000000">&#45; balance</text>
<text text-anchor="start" x="302.8018" y="-929.5" font-family="Helvetica,sans-Serif" font-size="10.00" fill="#000000">&#45; time</text>
<text text-anchor="start" x="302.8018" y="-918.5" font-family="Helvetica,sans-Serif" font-size="10.00" fill="#000000">&#45; coordinateX</text>
<text text-anchor="start" x="302.8018" y="-907.5" font-family="Helvetica,sans-Serif" font-size="10.00" fill="#000000">&#45; coordinateY</text>
<text text-anchor="start" x="302.8018" y="-896.5" font-family="Helvetica,sans-Serif" font-size="10.00" fill="#000000">&#45; mapLoaded</text>
<text text-anchor="start" x="302.8018" y="-885.5" font-family="Helvetica,sans-Serif" font-size="10.00" fill="#000000">&#45; ip</text>
<text text-anchor="start" x="302.8018" y="-874.5" font-family="Helvetica,sans-Serif" font-size="10.00" fill="#000000">&#45; port</text>
<text text-anchor="start" x="302.8018" y="-863.5" font-family="Helvetica,sans-Serif" font-size="10.00" fill="#000000">&#45; balanceLabel</text>
<text text-anchor="start" x="302.8018" y="-852.5" font-family="Helvetica,sans-Serif" font-size="10.00" fill="#000000">&#45; timeLabel</text>
<text text-anchor="start" x="302.8018" y="-841.5" font-family="Helvetica,sans-Serif" font-size="10.00" fill="#000000">&#45; positionLabel</text>
<text text-anchor="start" x="302.8018" y="-830.5" font-family="Helvetica,sans-Serif" font-size="10.00" fill="#000000">&#45; statusDisplay</text>
<text text-anchor="start" x="302.8018" y="-819.5" font-family="Helvetica,sans-Serif" font-size="10.00" fill="#000000">&#45; connectionLabel</text>
<text text-anchor="start" x="302.8018" y="-808.5" font-family="Helvetica,sans-Serif" font-size="10.00" fill="#000000">&#45; mode</text>
<polyline fill="none" stroke="#000000" points="294.8018,-801.5 431.8018,-801.5 "/>
<text text-anchor="start" x="302.8018" y="-789.5" font-family="Helvetica,sans-Serif" font-size="10.00" fill="#000000">+ DataModel()</text>
<text text-anchor="start" x="302.8018" y="-778.5" font-family="Helvetica,sans-Serif" font-size="10.00" fill="#000000">+ getBalance()</text>
<text text-anchor="start" x="302.8018" y="-767.5" font-family="Helvetica,sans-Serif" font-size="10.00" fill="#000000">+ updateBalance()</text>
<text text-anchor="start" x="302.8018" y="-756.5" font-family="Helvetica,sans-Serif" font-size="10.00" fill="#000000">+ takeBalance()</text>
<text text-anchor="start" x="302.8018" y="-745.5" font-family="Helvetica,sans-Serif" font-size="10.00" fill="#000000">+ timeTick()</text>
<text text-anchor="start" x="302.8018" y="-734.5" font-family="Helvetica,sans-Serif" font-size="10.00" fill="#000000">+ getTime()</text>
<text text-anchor="start" x="302.8018" y="-723.5" font-family="Helvetica,sans-Serif" font-size="10.00" fill="#000000">+ setTime()</text>
<text text-anchor="start" x="302.8018" y="-712.5" font-family="Helvetica,sans-Serif" font-size="10.00" fill="#000000">+ getSystemMillis()</text>
<text text-anchor="start" x="302.8018" y="-701.5" font-family="Helvetica,sans-Serif" font-size="10.00" fill="#000000">+ updateCoordinates()</text>
<text text-anchor="start" x="302.8018" y="-690.5" font-family="Helvetica,sans-Serif" font-size="10.00" fill="#000000">+ getHoverX()</text>
<text text-anchor="start" x="302.8018" y="-679.5" font-family="Helvetica,sans-Serif" font-size="10.00" fill="#000000">und 12 mehr ...</text>
<text text-anchor="start" x="302.8018" y="-668.5" font-family="Helvetica,sans-Serif" font-size="10.00" fill="#000000">+ setDefaultMode()</text>
<text text-anchor="start" x="302.8018" y="-657.5" font-family="Helvetica,sans-Serif" font-size="10.00" fill="#000000">+ setTrainStationMode()</text>
<text text-anchor="start" x="302.8018" y="-646.5" font-family="Helvetica,sans-Serif" font-size="10.00" fill="#000000">+ setDepotMode()</text>
<text text-anchor="start" x="302.8018" y="-635.5" font-family="Helvetica,sans-Serif" font-size="10.00" fill="#000000">+ setTerminalMode()</text>
<text text-anchor="start" x="302.8018" y="-624.5" font-family="Helvetica,sans-Serif" font-size="10.00" fill="#000000">+ setBridgeMode()</text>
<text text-anchor="start" x="302.8018" y="-613.5" font-family="Helvetica,sans-Serif" font-size="10.00" fill="#000000">+ setRailPlacementMode()</text>
<text text-anchor="start" x="302.8018" y="-602.5" font-family="Helvetica,sans-Serif" font-size="10.00" fill="#000000">+ setRemoveMode()</text>
<text text-anchor="start" x="302.8018" y="-591.5" font-family="Helvetica,sans-Serif" font-size="10.00" fill="#000000">+ setMapLoaded()</text>
</a>
</g>
</g>
<!-- Node10&#45;&gt;Node11 -->
<g id="edge14" class="edge">
<title>Node10&#45;&gt;Node11</title>
<path fill="none" stroke="#404040" d="M228.9817,-1068.9872C244.1587,-1042.0002 264.2211,-1005.2452 280.3018,-972 283.393,-965.6092 286.4919,-959.0742 289.5795,-952.4536"/>
<polygon fill="none" stroke="#404040" points="289.7272,-952.1338 288.6135,-945.0092 294.7617,-941.241 295.8754,-948.3656 289.7272,-952.1338"/>
<text text-anchor="middle" x="306.8018" y="-993" font-family="Helvetica,sans-Serif" font-size="10.00" fill="#000000"> +secondPlayer</text>
</g>
<!-- Node11&#45;&gt;Node1 -->
<g id="edge21" class="edge">
<title>Node11&#45;&gt;Node1</title>
<path fill="none" stroke="#404040" d="M363.6454,-584.309C362.7327,-465.9611 359.54,-311.5987 350.3018,-175 350.1629,-172.947 350.0123,-170.8705 349.8514,-168.7773"/>
<polygon fill="none" stroke="#404040" points="349.8376,-168.6126 345.3465,-162.9708 348.8269,-156.6552 353.318,-162.297 349.8376,-168.6126"/>
<text text-anchor="middle" x="389.8018" y="-351.5" font-family="Helvetica,sans-Serif" font-size="10.00" fill="#000000"> &#45;dataModel</text>
</g>
<!-- Node11&#45;&gt;Node3 -->
<g id="edge12" class="edge">
<title>Node11&#45;&gt;Node3</title>
<path fill="none" stroke="#404040" d="M299.7479,-584.2662C298.1861,-578.1243 296.6984,-572.0246 295.3018,-566 287.8719,-533.9491 281.8755,-498.7382 277.209,-466.377"/>
<polygon fill="none" stroke="#404040" points="277.1574,-466.0093 272.3604,-460.6251 275.4855,-454.1263 280.2824,-459.5105 277.1574,-466.0093"/>
<text text-anchor="middle" x="322.8018" y="-541.5" font-family="Helvetica,sans-Serif" font-size="10.00" fill="#000000"> &#45;dataModel</text>
</g>
<!-- Node11&#45;&gt;Node13 -->
<g id="edge20" class="edge">
<title>Node11&#45;&gt;Node13</title>
<path fill="none" stroke="#404040" d="M431.8382,-588.41C443.9638,-565.0137 457.767,-542.2434 473.3018,-522 511.2532,-472.5455 566.7951,-429.0935 611.3684,-398.7755"/>
<polygon fill="none" stroke="#404040" points="611.605,-398.6169 614.3602,-391.9529 621.5713,-391.9331 618.8161,-398.5971 611.605,-398.6169"/>
<text text-anchor="middle" x="500.8018" y="-541.5" font-family="Helvetica,sans-Serif" font-size="10.00" fill="#000000"> &#45;dataModel</text>
</g>
<!-- Node12 -->
<g id="node12" class="node">
<title>Node12</title>
<g id="a_node12"><a xlink:title=" ">
<polygon fill="#ffffff" stroke="#bfbfbf" points="336.8018,-1080 336.8018,-1137 389.8018,-1137 389.8018,-1080 336.8018,-1080"/>
<text text-anchor="middle" x="363.3018" y="-1125" font-family="Helvetica,sans-Serif" font-size="10.00" fill="#000000">QObject</text>
<polyline fill="none" stroke="#bfbfbf" points="336.8018,-1118 389.8018,-1118 "/>
<text text-anchor="middle" x="363.3018" y="-1106" font-family="Helvetica,sans-Serif" font-size="10.00" fill="#000000"> </text>
<polyline fill="none" stroke="#bfbfbf" points="336.8018,-1099 389.8018,-1099 "/>
<text text-anchor="middle" x="363.3018" y="-1087" font-family="Helvetica,sans-Serif" font-size="10.00" fill="#000000"> </text>
</a>
</g>
</g>
<!-- Node12&#45;&gt;Node11 -->
<g id="edge13" class="edge">
<title>Node12&#45;&gt;Node11</title>
<path fill="none" stroke="#191970" d="M363.3018,-1069.5022C363.3018,-1044.1384 363.3018,-1008.9574 363.3018,-971.7899"/>
<polygon fill="none" stroke="#191970" points="359.8019,-1069.7484 363.3018,-1079.7485 366.8019,-1069.7485 359.8019,-1069.7484"/>
</g>
<!-- Node13&#45;&gt;Node1 -->
<g id="edge15" class="edge">
<title>Node13&#45;&gt;Node1</title>
<path fill="none" stroke="#404040" d="M621.4246,-303.7894C560.6366,-255.2471 468.8373,-181.9407 406.5987,-132.24"/>
<polygon fill="none" stroke="#404040" points="406.25,-131.9615 399.0654,-131.3432 396.8729,-124.4734 404.0575,-125.0918 406.25,-131.9615"/>
<text text-anchor="middle" x="504.3018" y="-178" font-family="Helvetica,sans-Serif" font-size="10.00" fill="#000000"> &#45;mapRenderer</text>
</g>
<!-- Node14 -->
<g id="node14" class="node">
<title>Node14</title>
<g id="a_node14"><a xlink:title=" ">
<polygon fill="#ffffff" stroke="#bfbfbf" points="691.3018,-749.5 691.3018,-806.5 747.3018,-806.5 747.3018,-749.5 691.3018,-749.5"/>
<text text-anchor="middle" x="719.3018" y="-794.5" font-family="Helvetica,sans-Serif" font-size="10.00" fill="#000000">QWidget</text>
<polyline fill="none" stroke="#bfbfbf" points="691.3018,-787.5 747.3018,-787.5 "/>
<text text-anchor="middle" x="719.3018" y="-775.5" font-family="Helvetica,sans-Serif" font-size="10.00" fill="#000000"> </text>
<polyline fill="none" stroke="#bfbfbf" points="691.3018,-768.5 747.3018,-768.5 "/>
<text text-anchor="middle" x="719.3018" y="-756.5" font-family="Helvetica,sans-Serif" font-size="10.00" fill="#000000"> </text>
</a>
</g>
</g>
<!-- Node14&#45;&gt;Node13 -->
<g id="edge16" class="edge">
<title>Node14&#45;&gt;Node13</title>
<path fill="none" stroke="#191970" d="M716.0978,-739.1857C711.7124,-686.0597 703.5931,-587.701 696.6573,-503.6776"/>
<polygon fill="none" stroke="#191970" points="712.6127,-739.512 716.9236,-749.1901 719.589,-738.936 712.6127,-739.512"/>
</g>
<!-- Node15 -->
<g id="node15" class="node">
<title>Node15</title>
<g id="a_node15"><a xlink:href="classPoint.html" target="_top" xlink:title=" ">
<polygon fill="#ffffff" stroke="#000000" points="765.3018,-711 765.3018,-845 823.3018,-845 823.3018,-711 765.3018,-711"/>
<text text-anchor="middle" x="794.3018" y="-833" font-family="Helvetica,sans-Serif" font-size="10.00" fill="#000000">Point</text>
<polyline fill="none" stroke="#000000" points="765.3018,-826 823.3018,-826 "/>
<text text-anchor="start" x="773.3018" y="-814" font-family="Helvetica,sans-Serif" font-size="10.00" fill="#000000">&#45; x</text>
<text text-anchor="start" x="773.3018" y="-803" font-family="Helvetica,sans-Serif" font-size="10.00" fill="#000000">&#45; y</text>
<polyline fill="none" stroke="#000000" points="765.3018,-796 823.3018,-796 "/>
<text text-anchor="start" x="773.3018" y="-784" font-family="Helvetica,sans-Serif" font-size="10.00" fill="#000000">+ Point()</text>
<text text-anchor="start" x="773.3018" y="-773" font-family="Helvetica,sans-Serif" font-size="10.00" fill="#000000">+ getX()</text>
<text text-anchor="start" x="773.3018" y="-762" font-family="Helvetica,sans-Serif" font-size="10.00" fill="#000000">+ getY()</text>
<text text-anchor="start" x="773.3018" y="-751" font-family="Helvetica,sans-Serif" font-size="10.00" fill="#000000">+ add()</text>
<text text-anchor="start" x="773.3018" y="-740" font-family="Helvetica,sans-Serif" font-size="10.00" fill="#000000">+ set()</text>
<text text-anchor="start" x="773.3018" y="-729" font-family="Helvetica,sans-Serif" font-size="10.00" fill="#000000">+ move()</text>
<text text-anchor="start" x="773.3018" y="-718" font-family="Helvetica,sans-Serif" font-size="10.00" fill="#000000">+ toTile()</text>
</a>
</g>
</g>
<!-- Node15&#45;&gt;Node13 -->
<g id="edge19" class="edge">
<title>Node15&#45;&gt;Node13</title>
<path fill="none" stroke="#404040" d="M783.0007,-710.7064C776.2308,-673.1897 766.8914,-625.7503 756.3018,-584 750.6257,-561.6215 744.0515,-538.2048 737.2301,-515.2371"/>
<polygon fill="none" stroke="#404040" points="737.2,-515.1364 731.6457,-510.5374 733.7547,-503.6416 739.3089,-508.2405 737.2,-515.1364"/>
<text text-anchor="middle" x="781.8018" y="-558" font-family="Helvetica,sans-Serif" font-size="10.00" fill="#000000"> &#45;activeTile</text>
<text text-anchor="middle" x="781.8018" y="-547" font-family="Helvetica,sans-Serif" font-size="10.00" fill="#000000">&#45;dragOrigin</text>
<text text-anchor="middle" x="781.8018" y="-536" font-family="Helvetica,sans-Serif" font-size="10.00" fill="#000000">+offset</text>
<text text-anchor="middle" x="781.8018" y="-525" font-family="Helvetica,sans-Serif" font-size="10.00" fill="#000000">&#45;dragPosition</text>
</g>
</g>
</svg>
