<?xml version="1.0" encoding="UTF-8" standalone="no"?>
<!DOCTYPE svg PUBLIC "-//W3C//DTD SVG 1.1//EN"
 "http://www.w3.org/Graphics/SVG/1.1/DTD/svg11.dtd">
<!-- Generated by graphviz version 2.40.1 (20161225.0304)
 -->
<!-- Title: Client::processCommand Pages: 1 -->
<!--zoomable 299 -->
<svg id="main" version="1.1" xmlns="http://www.w3.org/2000/svg" xmlns:xlink="http://www.w3.org/1999/xlink" xml:space="preserve" onload="init(evt)">
<style type="text/css"><![CDATA[
.edge:hover path { stroke: red; }
.edge:hover polygon { stroke: red; fill: red; }
]]></style>
<script type="text/javascript"><![CDATA[
var edges = document.getElementsByTagName('g');
if (edges && edges.length) {
  for (var i=0;i<edges.length;i++) {
    if (edges[i].id.substr(0,4)=='edge') {
      edges[i].setAttribute('class','edge');
    }
  }
}
]]></script>
        <defs>
                <circle id="rim" cx="0" cy="0" r="7"/>
                <circle id="rim2" cx="0" cy="0" r="3.5"/>
                <g id="zoomPlus">
                        <use xlink:href="#rim" fill="#404040">
                                <set attributeName="fill" to="#808080" begin="zoomplus.mouseover" end="zoomplus.mouseout"/>
                        </use>
                        <path d="M-4,0h8M0,-4v8" fill="none" stroke="white" stroke-width="1.5" pointer-events="none"/>
                </g>
                <g id="zoomMin">
                        <use xlink:href="#rim" fill="#404040">
                                <set attributeName="fill" to="#808080" begin="zoomminus.mouseover" end="zoomminus.mouseout"/>
                        </use>
                        <path d="M-4,0h8" fill="none" stroke="white" stroke-width="1.5" pointer-events="none"/>
                </g>
                <g id="dirArrow">
                        <path fill="none" stroke="white" stroke-width="1.5" d="M0,-3.0v7 M-2.5,-0.5L0,-3.0L2.5,-0.5"/>
                </g>
               <g id="resetDef">
                       <use xlink:href="#rim2" fill="#404040">
                               <set attributeName="fill" to="#808080" begin="reset.mouseover" end="reset.mouseout"/>
                       </use>
               </g>
        </defs>

<script type="text/javascript">
var viewWidth = 684;
var viewHeight = 299;
var sectionId = 'dynsection-10';
</script>
<script xlink:href="svgpan.js"/>
<svg id="graph" class="graph">
<g id="viewport">
<title>Client::processCommand</title>
<polygon fill="#ffffff" stroke="transparent" points="-4,4 -4,-294.5 680,-294.5 680,4 -4,4"/>
<!-- Node1 -->
<g id="node1" class="node">
<title>Node1</title>
<g id="a_node1"><a xlink:title="Client::processCommand Führt einen empfangenen Befehl aus dem Serverprotokoll aus.">
<polygon fill="#bfbfbf" stroke="#000000" points="0,-95.5 0,-114.5 131,-114.5 131,-95.5 0,-95.5"/>
<text text-anchor="middle" x="65.5" y="-102.5" font-family="Helvetica,sans-Serif" font-size="10.00" fill="#000000">Client::processCommand</text>
</a>
</g>
</g>
<!-- Node2 -->
<g id="node2" class="node">
<title>Node2</title>
<g id="a_node2"><a xlink:href="classMapRenderer.html#a58a55f100157958cf39c7028b12ef569" target="_top" xlink:title=" ">
<polygon fill="#ffffff" stroke="#000000" points="167,-191 167,-221 334,-221 334,-191 167,-191"/>
<text text-anchor="start" x="175" y="-209" font-family="Helvetica,sans-Serif" font-size="10.00" fill="#000000">MapRenderer::animateMovement</text>
<text text-anchor="middle" x="250.5" y="-198" font-family="Helvetica,sans-Serif" font-size="10.00" fill="#000000">Tracked</text>
</a>
</g>
</g>
<!-- Node1&#45;&gt;Node2 -->
<g id="edge1" class="edge">
<title>Node1&#45;&gt;Node2</title>
<path fill="none" stroke="#191970" d="M75.6343,-114.5496C93.0244,-130.4607 130.2384,-162.4737 167,-181 171.5291,-183.2825 176.3034,-185.3958 181.1813,-187.3451"/>
<polygon fill="#191970" stroke="#191970" points="180.0595,-190.6624 190.6518,-190.8931 182.5153,-184.1073 180.0595,-190.6624"/>
</g>
<!-- Node8 -->
<g id="node8" class="node">
<title>Node8</title>
<g id="a_node8"><a xlink:href="classMapRenderer.html#a37d712e19b31db09e555976bb8647df7" target="_top" xlink:title="MapRenderer::deleteAnimationId Löscht eine Animation anhand der Entity&#45;Id.">
<polygon fill="#ffffff" stroke="#000000" points="168,-152.5 168,-171.5 333,-171.5 333,-152.5 168,-152.5"/>
<text text-anchor="middle" x="250.5" y="-159.5" font-family="Helvetica,sans-Serif" font-size="10.00" fill="#000000">MapRenderer::deleteAnimationId</text>
</a>
</g>
</g>
<!-- Node1&#45;&gt;Node8 -->
<g id="edge7" class="edge">
<title>Node1&#45;&gt;Node8</title>
<path fill="none" stroke="#191970" d="M88.5786,-114.6563C108.9564,-122.9367 139.602,-134.7947 167,-143 175.4852,-145.5412 184.5434,-147.9286 193.4484,-150.0963"/>
<polygon fill="#191970" stroke="#191970" points="192.8618,-153.5539 203.3986,-152.4467 194.4711,-146.7414 192.8618,-153.5539"/>
</g>
<!-- Node9 -->
<g id="node9" class="node">
<title>Node9</title>
<g id="a_node9"><a xlink:href="classInfoWidget.html#aa9d882a7013f1c77ed8ec2b9ffdd8c74" target="_top" xlink:title=" ">
<polygon fill="#ffffff" stroke="#000000" points="178,-114.5 178,-133.5 323,-133.5 323,-114.5 178,-114.5"/>
<text text-anchor="middle" x="250.5" y="-121.5" font-family="Helvetica,sans-Serif" font-size="10.00" fill="#000000">InfoWidget::setContentLager</text>
</a>
</g>
</g>
<!-- Node1&#45;&gt;Node9 -->
<g id="edge8" class="edge">
<title>Node1&#45;&gt;Node9</title>
<path fill="none" stroke="#191970" d="M131.245,-111.7522C143.0099,-112.9605 155.4067,-114.2337 167.5797,-115.4839"/>
<polygon fill="#191970" stroke="#191970" points="167.4284,-118.9866 177.7337,-116.5267 168.1436,-112.0233 167.4284,-118.9866"/>
</g>
<!-- Node10 -->
<g id="node10" class="node">
<title>Node10</title>
<g id="a_node10"><a xlink:href="classInfoWidget.html#ab9bb4bebcc19b99fff90d8349c1e8ed5" target="_top" xlink:title=" ">
<polygon fill="#ffffff" stroke="#000000" points="179.5,-76.5 179.5,-95.5 321.5,-95.5 321.5,-76.5 179.5,-76.5"/>
<text text-anchor="middle" x="250.5" y="-83.5" font-family="Helvetica,sans-Serif" font-size="10.00" fill="#000000">InfoWidget::setContentPreis</text>
</a>
</g>
</g>
<!-- Node1&#45;&gt;Node10 -->
<g id="edge9" class="edge">
<title>Node1&#45;&gt;Node10</title>
<path fill="none" stroke="#191970" d="M131.245,-98.2478C143.5373,-96.9854 156.5194,-95.6521 169.2154,-94.3482"/>
<polygon fill="#191970" stroke="#191970" points="169.7273,-97.8141 179.3173,-93.3107 169.012,-90.8507 169.7273,-97.8141"/>
</g>
<!-- Node11 -->
<g id="node11" class="node">
<title>Node11</title>
<g id="a_node11"><a xlink:href="classDataModel.html#a75f38e795a59558568e22dbb095d24ac" target="_top" xlink:title="DataModel::setTime Setzt den aktuellen Zeitstempel.">
<polygon fill="#ffffff" stroke="#000000" points="195.5,-38.5 195.5,-57.5 305.5,-57.5 305.5,-38.5 195.5,-38.5"/>
<text text-anchor="middle" x="250.5" y="-45.5" font-family="Helvetica,sans-Serif" font-size="10.00" fill="#000000">DataModel::setTime</text>
</a>
</g>
</g>
<!-- Node1&#45;&gt;Node11 -->
<g id="edge10" class="edge">
<title>Node1&#45;&gt;Node11</title>
<path fill="none" stroke="#191970" d="M88.5786,-95.3437C108.9564,-87.0633 139.602,-75.2053 167,-67 175.4852,-64.4588 184.5434,-62.0714 193.4484,-59.9037"/>
<polygon fill="#191970" stroke="#191970" points="194.4711,-63.2586 203.3986,-57.5533 192.8618,-56.4461 194.4711,-63.2586"/>
</g>
<!-- Node12 -->
<g id="node12" class="node">
<title>Node12</title>
<g id="a_node12"><a xlink:href="classDataModel.html#abc9c6c796348870e45fda933739585d5" target="_top" xlink:title="DataModel::updateBalance Aktualisiert den Kontostand. Auch in Anzeigen etc.">
<polygon fill="#ffffff" stroke="#000000" points="180,-.5 180,-19.5 321,-19.5 321,-.5 180,-.5"/>
<text text-anchor="middle" x="250.5" y="-7.5" font-family="Helvetica,sans-Serif" font-size="10.00" fill="#000000">DataModel::updateBalance</text>
</a>
</g>
</g>
<!-- Node1&#45;&gt;Node12 -->
<g id="edge11" class="edge">
<title>Node1&#45;&gt;Node12</title>
<path fill="none" stroke="#191970" d="M75.229,-95.4393C92.3052,-79.2172 129.4372,-46.3739 167,-29 172.3595,-26.5211 178.0659,-24.354 183.8826,-22.4617"/>
<polygon fill="#191970" stroke="#191970" points="185.1478,-25.7369 193.7341,-19.5299 183.1511,-19.0277 185.1478,-25.7369"/>
</g>
<!-- Node3 -->
<g id="node3" class="node">
<title>Node3</title>
<g id="a_node3"><a xlink:href="classMapRenderer.html#a8a4025ac579a3a9ec1b56544431f263b" target="_top" xlink:title="MapRenderer::handleReachedPoint Wird aufgerufen, wenn eine Animation einen neuen Punkt erreicht.">
<polygon fill="#ffffff" stroke="#000000" points="370,-216 370,-246 526,-246 526,-216 370,-216"/>
<text text-anchor="start" x="378" y="-234" font-family="Helvetica,sans-Serif" font-size="10.00" fill="#000000">MapRenderer::handleReached</text>
<text text-anchor="middle" x="448" y="-223" font-family="Helvetica,sans-Serif" font-size="10.00" fill="#000000">Point</text>
</a>
</g>
</g>
<!-- Node2&#45;&gt;Node3 -->
<g id="edge2" class="edge">
<title>Node2&#45;&gt;Node3</title>
<path fill="none" stroke="#191970" d="M334.2578,-216.6023C342.7211,-217.6736 351.3348,-218.7639 359.8424,-219.8408"/>
<polygon fill="#191970" stroke="#191970" points="359.4051,-223.3133 369.7655,-221.0969 360.2842,-216.3687 359.4051,-223.3133"/>
</g>
<!-- Node7 -->
<g id="node7" class="node">
<title>Node7</title>
<g id="a_node7"><a xlink:href="classAnimationMovement.html#ac08c2750866d7ed93bcede356626883b" target="_top" xlink:title="AnimationMovement::setEmitChanges Setzt ob jede Punktänderung emitted wird.">
<polygon fill="#ffffff" stroke="#000000" points="391,-167 391,-197 505,-197 505,-167 391,-167"/>
<text text-anchor="start" x="399" y="-185" font-family="Helvetica,sans-Serif" font-size="10.00" fill="#000000">AnimationMovement::</text>
<text text-anchor="middle" x="448" y="-174" font-family="Helvetica,sans-Serif" font-size="10.00" fill="#000000">setEmitChanges</text>
</a>
</g>
</g>
<!-- Node2&#45;&gt;Node7 -->
<g id="edge6" class="edge">
<title>Node2&#45;&gt;Node7</title>
<path fill="none" stroke="#191970" d="M334.2578,-195.8218C349.7191,-193.943 365.6823,-192.0032 380.5837,-190.1924"/>
<polygon fill="#191970" stroke="#191970" points="381.2064,-193.6425 390.7111,-188.9617 380.3619,-186.6936 381.2064,-193.6425"/>
</g>
<!-- Node4 -->
<g id="node4" class="node">
<title>Node4</title>
<g id="a_node4"><a xlink:href="classAnimationMovement.html#afa899606a17b3a76e8c8f5b9f2e3dbf8" target="_top" xlink:title="AnimationMovement::getEntity Liefert das Animation Entity.">
<polygon fill="#ffffff" stroke="#000000" points="562,-260 562,-290 676,-290 676,-260 562,-260"/>
<text text-anchor="start" x="570" y="-278" font-family="Helvetica,sans-Serif" font-size="10.00" fill="#000000">AnimationMovement::</text>
<text text-anchor="middle" x="619" y="-267" font-family="Helvetica,sans-Serif" font-size="10.00" fill="#000000">getEntity</text>
</a>
</g>
</g>
<!-- Node3&#45;&gt;Node4 -->
<g id="edge3" class="edge">
<title>Node3&#45;&gt;Node4</title>
<path fill="none" stroke="#191970" d="M506.3702,-246.0192C521.0532,-249.7973 536.927,-253.8818 551.9958,-257.7592"/>
<polygon fill="#191970" stroke="#191970" points="551.2046,-261.1695 561.7613,-260.2719 552.949,-254.3903 551.2046,-261.1695"/>
</g>
<!-- Node5 -->
<g id="node5" class="node">
<title>Node5</title>
<g id="a_node5"><a xlink:href="classAnimationEntity.html#a44265778f36955ef1bdaf322bff386c9" target="_top" xlink:title="AnimationEntity::getId Liefert die ID zurück.">
<polygon fill="#ffffff" stroke="#000000" points="562.5,-221.5 562.5,-240.5 675.5,-240.5 675.5,-221.5 562.5,-221.5"/>
<text text-anchor="middle" x="619" y="-228.5" font-family="Helvetica,sans-Serif" font-size="10.00" fill="#000000">AnimationEntity::getId</text>
</a>
</g>
</g>
<!-- Node3&#45;&gt;Node5 -->
<g id="edge4" class="edge">
<title>Node3&#45;&gt;Node5</title>
<path fill="none" stroke="#191970" d="M526.4933,-231C535.1072,-231 543.8166,-231 552.2686,-231"/>
<polygon fill="#191970" stroke="#191970" points="552.4268,-234.5001 562.4268,-231 552.4268,-227.5001 552.4268,-234.5001"/>
</g>
<!-- Node6 -->
<g id="node6" class="node">
<title>Node6</title>
<g id="a_node6"><a xlink:href="classAnimationMovement.html#a296515672535ad2a568c9f33028a3706" target="_top" xlink:title="AnimationMovement::pauseSteps Die Anzahl der zu überspringenden Schritte.">
<polygon fill="#ffffff" stroke="#000000" points="562,-172 562,-202 676,-202 676,-172 562,-172"/>
<text text-anchor="start" x="570" y="-190" font-family="Helvetica,sans-Serif" font-size="10.00" fill="#000000">AnimationMovement::</text>
<text text-anchor="middle" x="619" y="-179" font-family="Helvetica,sans-Serif" font-size="10.00" fill="#000000">pauseSteps</text>
</a>
</g>
</g>
<!-- Node3&#45;&gt;Node6 -->
<g id="edge5" class="edge">
<title>Node3&#45;&gt;Node6</title>
<path fill="none" stroke="#191970" d="M506.3702,-215.9808C521.0532,-212.2027 536.927,-208.1182 551.9958,-204.2408"/>
<polygon fill="#191970" stroke="#191970" points="552.949,-207.6097 561.7613,-201.7281 551.2046,-200.8305 552.949,-207.6097"/>
</g>
</g>
</svg>
        <g id="navigator" transform="translate(0 0)" fill="#404254">
                <rect fill="#f2f5e9" fill-opacity="0.5" stroke="#606060" stroke-width=".5" x="0" y="0" width="60" height="60"/>
                <use id="zoomplus" xlink:href="#zoomPlus" x="17" y="9" onmousedown="handleZoom(evt,'in')"/>
                <use id="zoomminus" xlink:href="#zoomMin" x="42" y="9" onmousedown="handleZoom(evt,'out')"/>
                <use id="reset" xlink:href="#resetDef" x="30" y="36" onmousedown="handleReset()"/>
                <g id="arrowUp" xlink:href="#dirArrow" transform="translate(30 24)" onmousedown="handlePan(0,-1)">
                  <use xlink:href="#rim" fill="#404040">
                        <set attributeName="fill" to="#808080" begin="arrowUp.mouseover" end="arrowUp.mouseout"/>
                  </use>
                  <path fill="none" stroke="white" stroke-width="1.5" d="M0,-3.0v7 M-2.5,-0.5L0,-3.0L2.5,-0.5"/>
                </g>
                <g id="arrowRight" xlink:href="#dirArrow" transform="rotate(90) translate(36 -43)" onmousedown="handlePan(1,0)">
                  <use xlink:href="#rim" fill="#404040">
                        <set attributeName="fill" to="#808080" begin="arrowRight.mouseover" end="arrowRight.mouseout"/>
                  </use>
                  <path fill="none" stroke="white" stroke-width="1.5" d="M0,-3.0v7 M-2.5,-0.5L0,-3.0L2.5,-0.5"/>
                </g>
                <g id="arrowDown" xlink:href="#dirArrow" transform="rotate(180) translate(-30 -48)" onmousedown="handlePan(0,1)">
                  <use xlink:href="#rim" fill="#404040">
                        <set attributeName="fill" to="#808080" begin="arrowDown.mouseover" end="arrowDown.mouseout"/>
                  </use>
                  <path fill="none" stroke="white" stroke-width="1.5" d="M0,-3.0v7 M-2.5,-0.5L0,-3.0L2.5,-0.5"/>
                </g>
                <g id="arrowLeft" xlink:href="#dirArrow" transform="rotate(270) translate(-36 17)" onmousedown="handlePan(-1,0)">
                  <use xlink:href="#rim" fill="#404040">
                        <set attributeName="fill" to="#808080" begin="arrowLeft.mouseover" end="arrowLeft.mouseout"/>
                  </use>
                  <path fill="none" stroke="white" stroke-width="1.5" d="M0,-3.0v7 M-2.5,-0.5L0,-3.0L2.5,-0.5"/>
                </g>
        </g>
        <svg viewBox="0 0 15 15" width="100%" height="30px" preserveAspectRatio="xMaxYMin meet">
         <g id="arrow_out" transform="scale(0.3 0.3)">
          <a xlink:href="classClient_a4cc6ded21fb38d6341fd91314156920e_cgraph_org.svg" target="_base">
           <rect id="button" ry="5" rx="5" y="6" x="6" height="38" width="38"
                fill="#f2f5e9" fill-opacity="0.5" stroke="#606060" stroke-width="1.0"/>
           <path id="arrow"
             d="M 11.500037,31.436501 C 11.940474,20.09759 22.043105,11.32322 32.158766,21.979434 L 37.068811,17.246167 C 37.068811,17.246167 37.088388,32 37.088388,32 L 22.160133,31.978069 C 22.160133,31.978069 26.997745,27.140456 26.997745,27.140456 C 18.528582,18.264221 13.291696,25.230495 11.500037,31.436501 z"
             style="fill:#404040;"/>
          </a>
         </g>
        </svg>
</svg>
