<?xml version="1.0" encoding="UTF-8" standalone="no"?>
<!DOCTYPE svg PUBLIC "-//W3C//DTD SVG 1.1//EN"
 "http://www.w3.org/Graphics/SVG/1.1/DTD/svg11.dtd">
<!-- Generated by graphviz version 2.40.1 (20161225.0304)
 -->
<!-- Title: Client Pages: 1 -->
<svg width="955pt" height="1450pt"
 viewBox="0.00 0.00 955.00 1450.00" xmlns="http://www.w3.org/2000/svg" xmlns:xlink="http://www.w3.org/1999/xlink">
<g id="graph0" class="graph" transform="scale(1 1) rotate(0) translate(4 1446)">
<title>Client</title>
<polygon fill="#ffffff" stroke="transparent" points="-4,4 -4,-1446 951,-1446 951,4 -4,4"/>
<!-- Node1 -->
<g id="node1" class="node">
<title>Node1</title>
<g id="a_node1"><a xlink:title=" ">
<polygon fill="#bfbfbf" stroke="#000000" points="411.5,-.5 411.5,-178.5 526.5,-178.5 526.5,-.5 411.5,-.5"/>
<text text-anchor="middle" x="469" y="-166.5" font-family="Helvetica,sans-Serif" font-size="10.00" fill="#000000">Client</text>
<polyline fill="none" stroke="#000000" points="411.5,-159.5 526.5,-159.5 "/>
<text text-anchor="start" x="419.5" y="-147.5" font-family="Helvetica,sans-Serif" font-size="10.00" fill="#000000">+ tmpRoutes</text>
<text text-anchor="start" x="419.5" y="-136.5" font-family="Helvetica,sans-Serif" font-size="10.00" fill="#000000">&#45; socket</text>
<text text-anchor="start" x="419.5" y="-125.5" font-family="Helvetica,sans-Serif" font-size="10.00" fill="#000000">&#45; debug</text>
<text text-anchor="start" x="419.5" y="-114.5" font-family="Helvetica,sans-Serif" font-size="10.00" fill="#000000">&#45; tickcount</text>
<polyline fill="none" stroke="#000000" points="411.5,-107.5 526.5,-107.5 "/>
<text text-anchor="start" x="419.5" y="-95.5" font-family="Helvetica,sans-Serif" font-size="10.00" fill="#000000">+ Client()</text>
<text text-anchor="start" x="419.5" y="-84.5" font-family="Helvetica,sans-Serif" font-size="10.00" fill="#000000">+ run()</text>
<text text-anchor="start" x="419.5" y="-73.5" font-family="Helvetica,sans-Serif" font-size="10.00" fill="#000000">+ requestMap()</text>
<text text-anchor="start" x="419.5" y="-62.5" font-family="Helvetica,sans-Serif" font-size="10.00" fill="#000000">+ onPositionChange()</text>
<text text-anchor="start" x="419.5" y="-51.5" font-family="Helvetica,sans-Serif" font-size="10.00" fill="#000000">+ onLeftclick()</text>
<text text-anchor="start" x="419.5" y="-40.5" font-family="Helvetica,sans-Serif" font-size="10.00" fill="#000000">+ onRightclick()</text>
<text text-anchor="start" x="419.5" y="-29.5" font-family="Helvetica,sans-Serif" font-size="10.00" fill="#000000">+ sendRoute()</text>
<text text-anchor="start" x="419.5" y="-18.5" font-family="Helvetica,sans-Serif" font-size="10.00" fill="#000000">+ requestRoutes()</text>
<text text-anchor="start" x="419.5" y="-7.5" font-family="Helvetica,sans-Serif" font-size="10.00" fill="#000000">&#45; processCommand()</text>
</a>
</g>
</g>
<!-- Node2 -->
<g id="node2" class="node">
<title>Node2</title>
<g id="a_node2"><a xlink:title=" ">
<polygon fill="#ffffff" stroke="#bfbfbf" points="250,-353 250,-410 308,-410 308,-353 250,-353"/>
<text text-anchor="middle" x="279" y="-398" font-family="Helvetica,sans-Serif" font-size="10.00" fill="#000000">QThread</text>
<polyline fill="none" stroke="#bfbfbf" points="250,-391 308,-391 "/>
<text text-anchor="middle" x="279" y="-379" font-family="Helvetica,sans-Serif" font-size="10.00" fill="#000000"> </text>
<polyline fill="none" stroke="#bfbfbf" points="250,-372 308,-372 "/>
<text text-anchor="middle" x="279" y="-360" font-family="Helvetica,sans-Serif" font-size="10.00" fill="#000000"> </text>
</a>
</g>
</g>
<!-- Node2&#45;&gt;Node1 -->
<g id="edge1" class="edge">
<title>Node2&#45;&gt;Node1</title>
<path fill="none" stroke="#191970" d="M282.0452,-342.746C286.0815,-309.7275 295.4268,-262.0406 317,-226 340.4989,-186.7421 378.9114,-152.3886 411.2405,-127.9651"/>
<polygon fill="none" stroke="#191970" points="278.5409,-342.5915 280.9125,-352.9175 285.4979,-343.3663 278.5409,-342.5915"/>
</g>
<!-- Node3 -->
<g id="node3" class="node">
<title>Node3</title>
<g id="a_node3"><a xlink:href="classScene.html" target="_top" xlink:title=" ">
<polygon fill="#ffffff" stroke="#000000" points="326,-281.5 326,-481.5 454,-481.5 454,-281.5 326,-281.5"/>
<text text-anchor="middle" x="390" y="-469.5" font-family="Helvetica,sans-Serif" font-size="10.00" fill="#000000">Scene</text>
<polyline fill="none" stroke="#000000" points="326,-462.5 454,-462.5 "/>
<text text-anchor="start" x="334" y="-450.5" font-family="Helvetica,sans-Serif" font-size="10.00" fill="#000000">+ MAP_SIZE</text>
<text text-anchor="start" x="334" y="-439.5" font-family="Helvetica,sans-Serif" font-size="10.00" fill="#000000">+ TILE_SIZE</text>
<text text-anchor="start" x="334" y="-428.5" font-family="Helvetica,sans-Serif" font-size="10.00" fill="#000000">&#45; radiusHighlighter</text>
<text text-anchor="start" x="334" y="-417.5" font-family="Helvetica,sans-Serif" font-size="10.00" fill="#000000">&#45; textHint</text>
<text text-anchor="start" x="334" y="-406.5" font-family="Helvetica,sans-Serif" font-size="10.00" fill="#000000">&#45; showRadius</text>
<text text-anchor="start" x="334" y="-395.5" font-family="Helvetica,sans-Serif" font-size="10.00" fill="#000000">&#45; players</text>
<polyline fill="none" stroke="#000000" points="326,-388.5 454,-388.5 "/>
<text text-anchor="start" x="334" y="-376.5" font-family="Helvetica,sans-Serif" font-size="10.00" fill="#000000">+ Scene()</text>
<text text-anchor="start" x="334" y="-365.5" font-family="Helvetica,sans-Serif" font-size="10.00" fill="#000000">+ generateWorld()</text>
<text text-anchor="start" x="334" y="-354.5" font-family="Helvetica,sans-Serif" font-size="10.00" fill="#000000">+ setActiveTile()</text>
<text text-anchor="start" x="334" y="-343.5" font-family="Helvetica,sans-Serif" font-size="10.00" fill="#000000">+ getTileAt()</text>
<text text-anchor="start" x="334" y="-332.5" font-family="Helvetica,sans-Serif" font-size="10.00" fill="#000000">+ setTileAt()</text>
<text text-anchor="start" x="334" y="-321.5" font-family="Helvetica,sans-Serif" font-size="10.00" fill="#000000">+ tileChanged()</text>
<text text-anchor="start" x="334" y="-310.5" font-family="Helvetica,sans-Serif" font-size="10.00" fill="#000000">+ tick()</text>
<text text-anchor="start" x="334" y="-299.5" font-family="Helvetica,sans-Serif" font-size="10.00" fill="#000000">+ onSetTile()</text>
<text text-anchor="start" x="334" y="-288.5" font-family="Helvetica,sans-Serif" font-size="10.00" fill="#000000">+ updatePlayerPosition()</text>
</a>
</g>
</g>
<!-- Node3&#45;&gt;Node1 -->
<g id="edge2" class="edge">
<title>Node3&#45;&gt;Node1</title>
<path fill="none" stroke="#404040" d="M417.0768,-281.4187C425.042,-251.9778 433.7575,-219.7634 441.7344,-190.2791"/>
<polygon fill="none" stroke="#404040" points="441.7346,-190.2783 439.4404,-183.4418 444.8686,-178.6947 447.1627,-185.5311 441.7346,-190.2783"/>
<text text-anchor="middle" x="455" y="-200" font-family="Helvetica,sans-Serif" font-size="10.00" fill="#000000"> &#45;scene</text>
</g>
<!-- Node4 -->
<g id="node4" class="node">
<title>Node4</title>
<g id="a_node4"><a xlink:title=" ">
<polygon fill="#ffffff" stroke="#bfbfbf" points="0,-782.5 0,-839.5 94,-839.5 94,-782.5 0,-782.5"/>
<text text-anchor="middle" x="47" y="-827.5" font-family="Helvetica,sans-Serif" font-size="10.00" fill="#000000">QGraphicsScene</text>
<polyline fill="none" stroke="#bfbfbf" points="0,-820.5 94,-820.5 "/>
<text text-anchor="middle" x="47" y="-808.5" font-family="Helvetica,sans-Serif" font-size="10.00" fill="#000000"> </text>
<polyline fill="none" stroke="#bfbfbf" points="0,-801.5 94,-801.5 "/>
<text text-anchor="middle" x="47" y="-789.5" font-family="Helvetica,sans-Serif" font-size="10.00" fill="#000000"> </text>
</a>
</g>
</g>
<!-- Node4&#45;&gt;Node3 -->
<g id="edge3" class="edge">
<title>Node4&#45;&gt;Node3</title>
<path fill="none" stroke="#191970" d="M43.5202,-772.0683C40.7931,-714.8662 45.2849,-609.0577 108,-555 143.3097,-524.5646 278.7616,-563.6629 317,-537 336.5708,-523.3537 351.0387,-503.0508 361.6819,-481.5843"/>
<polygon fill="none" stroke="#191970" points="40.0321,-772.3778 44.101,-782.1601 47.0206,-771.9755 40.0321,-772.3778"/>
</g>
<!-- Node5 -->
<g id="node5" class="node">
<title>Node5</title>
<g id="a_node5"><a xlink:href="classHighlighter.html" target="_top" xlink:title=" ">
<polygon fill="#ffffff" stroke="#000000" points="171.5,-1278.5 171.5,-1346.5 250.5,-1346.5 250.5,-1278.5 171.5,-1278.5"/>
<text text-anchor="middle" x="211" y="-1334.5" font-family="Helvetica,sans-Serif" font-size="10.00" fill="#000000">Highlighter</text>
<polyline fill="none" stroke="#000000" points="171.5,-1327.5 250.5,-1327.5 "/>
<text text-anchor="start" x="179.5" y="-1315.5" font-family="Helvetica,sans-Serif" font-size="10.00" fill="#000000">&#45; outline</text>
<polyline fill="none" stroke="#000000" points="171.5,-1308.5 250.5,-1308.5 "/>
<text text-anchor="start" x="179.5" y="-1296.5" font-family="Helvetica,sans-Serif" font-size="10.00" fill="#000000">+ Highlighter()</text>
<text text-anchor="start" x="179.5" y="-1285.5" font-family="Helvetica,sans-Serif" font-size="10.00" fill="#000000">+ setColor()</text>
</a>
</g>
</g>
<!-- Node5&#45;&gt;Node3 -->
<g id="edge4" class="edge">
<title>Node5&#45;&gt;Node3</title>
<path fill="none" stroke="#404040" d="M175.5451,-1278.3528C163.8673,-1264.8263 152.274,-1248.3614 146,-1231 100.1913,-1104.2377 169.5794,-645.784 182,-617 196.4779,-583.4485 204.5914,-573.6765 236,-555 267.6976,-536.1516 288.2153,-560.053 317,-537 331.9399,-525.035 343.977,-509.2959 353.6278,-492.4271"/>
<polygon fill="none" stroke="#404040" points="353.6563,-492.3739 352.9705,-485.1954 359.333,-481.8015 360.0188,-488.9799 353.6563,-492.3739"/>
<text text-anchor="middle" x="159" y="-1026" font-family="Helvetica,sans-Serif" font-size="10.00" fill="#000000"> &#45;highlighter</text>
</g>
<!-- Node10 -->
<g id="node10" class="node">
<title>Node10</title>
<g id="a_node10"><a xlink:href="classPlayer.html" target="_top" xlink:title=" ">
<polygon fill="#ffffff" stroke="#000000" points="413.5,-1102 413.5,-1181 494.5,-1181 494.5,-1102 413.5,-1102"/>
<text text-anchor="middle" x="454" y="-1169" font-family="Helvetica,sans-Serif" font-size="10.00" fill="#000000">Player</text>
<polyline fill="none" stroke="#000000" points="413.5,-1162 494.5,-1162 "/>
<text text-anchor="start" x="421.5" y="-1150" font-family="Helvetica,sans-Serif" font-size="10.00" fill="#000000">+ posX</text>
<text text-anchor="start" x="421.5" y="-1139" font-family="Helvetica,sans-Serif" font-size="10.00" fill="#000000">+ posY</text>
<polyline fill="none" stroke="#000000" points="413.5,-1132 494.5,-1132 "/>
<text text-anchor="start" x="421.5" y="-1120" font-family="Helvetica,sans-Serif" font-size="10.00" fill="#000000">+ Player()</text>
<text text-anchor="start" x="421.5" y="-1109" font-family="Helvetica,sans-Serif" font-size="10.00" fill="#000000">+ setPosition()</text>
</a>
</g>
</g>
<!-- Node5&#45;&gt;Node10 -->
<g id="edge11" class="edge">
<title>Node5&#45;&gt;Node10</title>
<path fill="none" stroke="#404040" d="M250.5304,-1304.1319C292.9936,-1293.4211 360.3713,-1271.2455 405,-1231 416.8337,-1220.3285 426.4011,-1206.1062 433.8337,-1192.146"/>
<polygon fill="none" stroke="#404040" points="433.9943,-1191.8231 433.0856,-1184.6694 439.3394,-1181.0792 440.2481,-1188.2328 433.9943,-1191.8231"/>
<text text-anchor="middle" x="404.5" y="-1252" font-family="Helvetica,sans-Serif" font-size="10.00" fill="#000000"> +highlighter</text>
</g>
<!-- Node6 -->
<g id="node6" class="node">
<title>Node6</title>
<g id="a_node6"><a xlink:title=" ">
<polygon fill="#ffffff" stroke="#bfbfbf" points="159,-1384.5 159,-1441.5 263,-1441.5 263,-1384.5 159,-1384.5"/>
<text text-anchor="middle" x="211" y="-1429.5" font-family="Helvetica,sans-Serif" font-size="10.00" fill="#000000">QGraphicsRectItem</text>
<polyline fill="none" stroke="#bfbfbf" points="159,-1422.5 263,-1422.5 "/>
<text text-anchor="middle" x="211" y="-1410.5" font-family="Helvetica,sans-Serif" font-size="10.00" fill="#000000"> </text>
<polyline fill="none" stroke="#bfbfbf" points="159,-1403.5 263,-1403.5 "/>
<text text-anchor="middle" x="211" y="-1391.5" font-family="Helvetica,sans-Serif" font-size="10.00" fill="#000000"> </text>
</a>
</g>
</g>
<!-- Node6&#45;&gt;Node5 -->
<g id="edge5" class="edge">
<title>Node6&#45;&gt;Node5</title>
<path fill="none" stroke="#191970" d="M211,-1374.1903C211,-1365.1667 211,-1355.6233 211,-1346.8097"/>
<polygon fill="none" stroke="#191970" points="207.5001,-1374.4695 211,-1384.4696 214.5001,-1374.4696 207.5001,-1374.4695"/>
</g>
<!-- Node7 -->
<g id="node7" class="node">
<title>Node7</title>
<g id="a_node7"><a xlink:href="classMapTile.html" target="_top" xlink:title=" ">
<polygon fill="#ffffff" stroke="#000000" points="191,-716.5 191,-905.5 293,-905.5 293,-716.5 191,-716.5"/>
<text text-anchor="middle" x="242" y="-893.5" font-family="Helvetica,sans-Serif" font-size="10.00" fill="#000000">MapTile</text>
<polyline fill="none" stroke="#000000" points="191,-886.5 293,-886.5 "/>
<text text-anchor="start" x="199" y="-874.5" font-family="Helvetica,sans-Serif" font-size="10.00" fill="#000000">&#45; type</text>
<text text-anchor="start" x="199" y="-863.5" font-family="Helvetica,sans-Serif" font-size="10.00" fill="#000000">&#45; pixmapItem</text>
<text text-anchor="start" x="199" y="-852.5" font-family="Helvetica,sans-Serif" font-size="10.00" fill="#000000">&#45; currentRotation</text>
<polyline fill="none" stroke="#000000" points="191,-845.5 293,-845.5 "/>
<text text-anchor="start" x="199" y="-833.5" font-family="Helvetica,sans-Serif" font-size="10.00" fill="#000000">+ MapTile()</text>
<text text-anchor="start" x="199" y="-822.5" font-family="Helvetica,sans-Serif" font-size="10.00" fill="#000000">+ MapTile()</text>
<text text-anchor="start" x="199" y="-811.5" font-family="Helvetica,sans-Serif" font-size="10.00" fill="#000000">+ setType()</text>
<text text-anchor="start" x="199" y="-800.5" font-family="Helvetica,sans-Serif" font-size="10.00" fill="#000000">+ getType()</text>
<text text-anchor="start" x="199" y="-789.5" font-family="Helvetica,sans-Serif" font-size="10.00" fill="#000000">+ setRotation()</text>
<text text-anchor="start" x="199" y="-778.5" font-family="Helvetica,sans-Serif" font-size="10.00" fill="#000000">+ getRotation()</text>
<text text-anchor="start" x="199" y="-767.5" font-family="Helvetica,sans-Serif" font-size="10.00" fill="#000000">+ getRotationDeg()</text>
<text text-anchor="start" x="199" y="-756.5" font-family="Helvetica,sans-Serif" font-size="10.00" fill="#000000">+ setPosition()</text>
<text text-anchor="start" x="199" y="-745.5" font-family="Helvetica,sans-Serif" font-size="10.00" fill="#000000">+ isRiver()</text>
<text text-anchor="start" x="199" y="-734.5" font-family="Helvetica,sans-Serif" font-size="10.00" fill="#000000">+ isRail()</text>
<text text-anchor="start" x="199" y="-723.5" font-family="Helvetica,sans-Serif" font-size="10.00" fill="#000000">und 6 mehr ...</text>
</a>
</g>
</g>
<!-- Node7&#45;&gt;Node3 -->
<g id="edge6" class="edge">
<title>Node7&#45;&gt;Node3</title>
<path fill="none" stroke="#404040" d="M226.0479,-716.3667C222.5288,-663.6515 227.827,-599.8137 263,-555 278.6194,-535.0994 298.0948,-553.8105 317,-537 330.8944,-524.6451 342.3508,-509.0855 351.7327,-492.6149"/>
<polygon fill="none" stroke="#404040" points="351.9253,-492.2561 351.2402,-485.0776 357.603,-481.6843 358.2881,-488.8628 351.9253,-492.2561"/>
<text text-anchor="middle" x="289" y="-580" font-family="Helvetica,sans-Serif" font-size="10.00" fill="#000000"> &#45;activeTile</text>
<text text-anchor="middle" x="289" y="-569" font-family="Helvetica,sans-Serif" font-size="10.00" fill="#000000">+data</text>
</g>
<!-- Node15 -->
<g id="node15" class="node">
<title>Node15</title>
<g id="a_node15"><a xlink:href="classMapRenderer.html" target="_top" xlink:title=" ">
<polygon fill="#ffffff" stroke="#000000" points="639.5,-226.5 639.5,-536.5 764.5,-536.5 764.5,-226.5 639.5,-226.5"/>
<text text-anchor="middle" x="702" y="-524.5" font-family="Helvetica,sans-Serif" font-size="10.00" fill="#000000">MapRenderer</text>
<polyline fill="none" stroke="#000000" points="639.5,-517.5 764.5,-517.5 "/>
<text text-anchor="start" x="647.5" y="-505.5" font-family="Helvetica,sans-Serif" font-size="10.00" fill="#000000">+ codeCount</text>
<text text-anchor="start" x="647.5" y="-494.5" font-family="Helvetica,sans-Serif" font-size="10.00" fill="#000000">&#45; mouseDown</text>
<text text-anchor="start" x="647.5" y="-483.5" font-family="Helvetica,sans-Serif" font-size="10.00" fill="#000000">&#45; showHighlight</text>
<text text-anchor="start" x="647.5" y="-472.5" font-family="Helvetica,sans-Serif" font-size="10.00" fill="#000000">&#45; rendering</text>
<text text-anchor="start" x="647.5" y="-461.5" font-family="Helvetica,sans-Serif" font-size="10.00" fill="#000000">&#45; renderTime</text>
<text text-anchor="start" x="647.5" y="-450.5" font-family="Helvetica,sans-Serif" font-size="10.00" fill="#000000">&#45; scale</text>
<text text-anchor="start" x="647.5" y="-439.5" font-family="Helvetica,sans-Serif" font-size="10.00" fill="#000000">&#45; showExpertDetails</text>
<text text-anchor="start" x="647.5" y="-428.5" font-family="Helvetica,sans-Serif" font-size="10.00" fill="#000000">&#45; movementAnimations</text>
<text text-anchor="start" x="647.5" y="-417.5" font-family="Helvetica,sans-Serif" font-size="10.00" fill="#000000">&#45; lastFpsTake</text>
<text text-anchor="start" x="647.5" y="-406.5" font-family="Helvetica,sans-Serif" font-size="10.00" fill="#000000">&#45; frameCount</text>
<text text-anchor="start" x="647.5" y="-395.5" font-family="Helvetica,sans-Serif" font-size="10.00" fill="#000000">&#45; fps</text>
<text text-anchor="start" x="647.5" y="-384.5" font-family="Helvetica,sans-Serif" font-size="10.00" fill="#000000">und 7 mehr ...</text>
<polyline fill="none" stroke="#000000" points="639.5,-377.5 764.5,-377.5 "/>
<text text-anchor="start" x="647.5" y="-365.5" font-family="Helvetica,sans-Serif" font-size="10.00" fill="#000000">+ MapRenderer()</text>
<text text-anchor="start" x="647.5" y="-354.5" font-family="Helvetica,sans-Serif" font-size="10.00" fill="#000000">+ paintEvent()</text>
<text text-anchor="start" x="647.5" y="-343.5" font-family="Helvetica,sans-Serif" font-size="10.00" fill="#000000">+ mousePressEvent()</text>
<text text-anchor="start" x="647.5" y="-332.5" font-family="Helvetica,sans-Serif" font-size="10.00" fill="#000000">+ mouseReleaseEvent()</text>
<text text-anchor="start" x="647.5" y="-321.5" font-family="Helvetica,sans-Serif" font-size="10.00" fill="#000000">+ mouseMoveEvent()</text>
<text text-anchor="start" x="647.5" y="-310.5" font-family="Helvetica,sans-Serif" font-size="10.00" fill="#000000">+ wheelEvent()</text>
<text text-anchor="start" x="647.5" y="-299.5" font-family="Helvetica,sans-Serif" font-size="10.00" fill="#000000">+ keyReleaseEvent()</text>
<text text-anchor="start" x="647.5" y="-288.5" font-family="Helvetica,sans-Serif" font-size="10.00" fill="#000000">+ tick()</text>
<text text-anchor="start" x="647.5" y="-277.5" font-family="Helvetica,sans-Serif" font-size="10.00" fill="#000000">+ demo()</text>
<text text-anchor="start" x="647.5" y="-266.5" font-family="Helvetica,sans-Serif" font-size="10.00" fill="#000000">+ mapPosition()</text>
<text text-anchor="start" x="647.5" y="-255.5" font-family="Helvetica,sans-Serif" font-size="10.00" fill="#000000">und 8 mehr ...</text>
<text text-anchor="start" x="647.5" y="-244.5" font-family="Helvetica,sans-Serif" font-size="10.00" fill="#000000">+ onTileChange()</text>
<text text-anchor="start" x="647.5" y="-233.5" font-family="Helvetica,sans-Serif" font-size="10.00" fill="#000000">+ enableHighlight()</text>
</a>
</g>
</g>
<!-- Node7&#45;&gt;Node15 -->
<g id="edge19" class="edge">
<title>Node7&#45;&gt;Node15</title>
<path fill="none" stroke="#404040" d="M251.403,-716.3396C260.0553,-679.6623 276.3788,-640.8386 307,-617 348.8525,-584.4178 496.2248,-619.8378 545,-599 582.9131,-582.8027 588.1762,-569.1385 614,-537 620.4232,-529.0062 626.6549,-520.4838 632.6375,-511.7027"/>
<polygon fill="none" stroke="#404040" points="632.6458,-511.6903 632.6321,-504.4792 639.2832,-501.693 639.2969,-508.9042 632.6458,-511.6903"/>
<text text-anchor="middle" x="614" y="-574.5" font-family="Helvetica,sans-Serif" font-size="10.00" fill="#000000"> +data</text>
</g>
<!-- Node8 -->
<g id="node8" class="node">
<title>Node8</title>
<g id="a_node8"><a xlink:href="classGraphicsManager.html" target="_top" xlink:title=" ">
<polygon fill="#ffffff" stroke="#000000" points="282.5,-1107.5 282.5,-1175.5 395.5,-1175.5 395.5,-1107.5 282.5,-1107.5"/>
<text text-anchor="middle" x="339" y="-1163.5" font-family="Helvetica,sans-Serif" font-size="10.00" fill="#000000">GraphicsManager</text>
<polyline fill="none" stroke="#000000" points="282.5,-1156.5 395.5,-1156.5 "/>
<text text-anchor="start" x="290.5" y="-1144.5" font-family="Helvetica,sans-Serif" font-size="10.00" fill="#000000">+ GRAPHICS</text>
<polyline fill="none" stroke="#000000" points="282.5,-1137.5 395.5,-1137.5 "/>
<text text-anchor="start" x="290.5" y="-1125.5" font-family="Helvetica,sans-Serif" font-size="10.00" fill="#000000">+ GraphicsManager()</text>
<text text-anchor="start" x="290.5" y="-1114.5" font-family="Helvetica,sans-Serif" font-size="10.00" fill="#000000">+ get()</text>
</a>
</g>
</g>
<!-- Node8&#45;&gt;Node3 -->
<g id="edge9" class="edge">
<title>Node8&#45;&gt;Node3</title>
<path fill="none" stroke="#404040" d="M337.0318,-1107.3207C332.6888,-1023.4937 324.0978,-801.1151 343,-617 347.1674,-576.4076 355.0183,-532.4307 363.1269,-493.5906"/>
<polygon fill="none" stroke="#404040" points="363.1568,-493.4498 360.4895,-486.7501 365.6479,-481.7112 368.3152,-488.4108 363.1568,-493.4498"/>
<text text-anchor="middle" x="385.5" y="-808.5" font-family="Helvetica,sans-Serif" font-size="10.00" fill="#000000"> &#45;graphicsManager</text>
</g>
<!-- Node8&#45;&gt;Node7 -->
<g id="edge7" class="edge">
<title>Node8&#45;&gt;Node7</title>
<path fill="none" stroke="#404040" d="M296.6241,-1107.3968C276.2612,-1088.2472 253.9454,-1062.4969 243,-1034 229.0649,-997.7191 225.9048,-955.6019 227.2121,-917.8044"/>
<polygon fill="none" stroke="#404040" points="227.2177,-917.6837 223.5061,-911.5011 227.7855,-905.6971 231.4971,-911.8797 227.2177,-917.6837"/>
<text text-anchor="middle" x="285.5" y="-1026" font-family="Helvetica,sans-Serif" font-size="10.00" fill="#000000"> &#45;graphicsManager</text>
</g>
<!-- Node8&#45;&gt;Node15 -->
<g id="edge20" class="edge">
<title>Node8&#45;&gt;Node15</title>
<path fill="none" stroke="#404040" d="M354.6983,-1107.4209C365.7678,-1087.596 382.6157,-1064.1813 405,-1052 433.6495,-1036.4092 675.5819,-1057.6916 698,-1034 714.4877,-1016.5757 710.9058,-736.4822 706.5961,-548.9872"/>
<polygon fill="none" stroke="#404040" points="706.5912,-548.7717 702.4524,-542.8666 706.3114,-536.7749 710.4502,-542.68 706.5912,-548.7717"/>
<text text-anchor="middle" x="752.5" y="-808.5" font-family="Helvetica,sans-Serif" font-size="10.00" fill="#000000"> &#45;graphicsManager</text>
</g>
<!-- Node9 -->
<g id="node9" class="node">
<title>Node9</title>
<g id="a_node9"><a xlink:href="classCity.html" target="_top" xlink:title=" ">
<polygon fill="#ffffff" stroke="#000000" points="155.5,-1052.5 155.5,-1230.5 238.5,-1230.5 238.5,-1052.5 155.5,-1052.5"/>
<text text-anchor="middle" x="197" y="-1218.5" font-family="Helvetica,sans-Serif" font-size="10.00" fill="#000000">City</text>
<polyline fill="none" stroke="#000000" points="155.5,-1211.5 238.5,-1211.5 "/>
<text text-anchor="start" x="163.5" y="-1199.5" font-family="Helvetica,sans-Serif" font-size="10.00" fill="#000000">&#45; size</text>
<text text-anchor="start" x="163.5" y="-1188.5" font-family="Helvetica,sans-Serif" font-size="10.00" fill="#000000">&#45; centerX</text>
<text text-anchor="start" x="163.5" y="-1177.5" font-family="Helvetica,sans-Serif" font-size="10.00" fill="#000000">&#45; centerY</text>
<text text-anchor="start" x="163.5" y="-1166.5" font-family="Helvetica,sans-Serif" font-size="10.00" fill="#000000">&#45; name</text>
<polyline fill="none" stroke="#000000" points="155.5,-1159.5 238.5,-1159.5 "/>
<text text-anchor="start" x="163.5" y="-1147.5" font-family="Helvetica,sans-Serif" font-size="10.00" fill="#000000">+ City()</text>
<text text-anchor="start" x="163.5" y="-1136.5" font-family="Helvetica,sans-Serif" font-size="10.00" fill="#000000">+ City()</text>
<text text-anchor="start" x="163.5" y="-1125.5" font-family="Helvetica,sans-Serif" font-size="10.00" fill="#000000">+ getSize()</text>
<text text-anchor="start" x="163.5" y="-1114.5" font-family="Helvetica,sans-Serif" font-size="10.00" fill="#000000">+ getCenterX()</text>
<text text-anchor="start" x="163.5" y="-1103.5" font-family="Helvetica,sans-Serif" font-size="10.00" fill="#000000">+ getCenterY()</text>
<text text-anchor="start" x="163.5" y="-1092.5" font-family="Helvetica,sans-Serif" font-size="10.00" fill="#000000">+ getName()</text>
<text text-anchor="start" x="163.5" y="-1081.5" font-family="Helvetica,sans-Serif" font-size="10.00" fill="#000000">+ setSize()</text>
<text text-anchor="start" x="163.5" y="-1070.5" font-family="Helvetica,sans-Serif" font-size="10.00" fill="#000000">+ setCenter()</text>
<text text-anchor="start" x="163.5" y="-1059.5" font-family="Helvetica,sans-Serif" font-size="10.00" fill="#000000">+ setName()</text>
</a>
</g>
</g>
<!-- Node9&#45;&gt;Node7 -->
<g id="edge8" class="edge">
<title>Node9&#45;&gt;Node7</title>
<path fill="none" stroke="#404040" d="M195.8691,-1052.4207C196.3019,-1042.479 196.9827,-1032.5125 198,-1023 201.6936,-988.463 208.4532,-951.2381 215.5843,-917.7653"/>
<polygon fill="none" stroke="#404040" points="215.6763,-917.3415 213.041,-910.6292 218.2234,-905.6149 220.8587,-912.3272 215.6763,-917.3415"/>
<text text-anchor="middle" x="209" y="-1026" font-family="Helvetica,sans-Serif" font-size="10.00" fill="#000000"> &#45;city</text>
</g>
<!-- Node10&#45;&gt;Node3 -->
<g id="edge10" class="edge">
<title>Node10&#45;&gt;Node3</title>
<path fill="none" stroke="#404040" d="M453.5286,-1101.9074C452.1589,-1014.2862 446.971,-797.4354 428,-617 423.7518,-576.5947 417.1792,-532.5737 410.6875,-493.6417"/>
<polygon fill="none" stroke="#404040" points="410.6747,-493.5652 405.7322,-488.3143 408.6782,-481.7324 413.6207,-486.9833 410.6747,-493.5652"/>
<text text-anchor="middle" x="486" y="-808.5" font-family="Helvetica,sans-Serif" font-size="10.00" fill="#000000"> &#45;secondPlayer</text>
</g>
<!-- Node11 -->
<g id="node11" class="node">
<title>Node11</title>
<g id="a_node11"><a xlink:href="classDataModel.html" target="_top" xlink:title=" ">
<polygon fill="#ffffff" stroke="#000000" points="538.5,-617.5 538.5,-1004.5 675.5,-1004.5 675.5,-617.5 538.5,-617.5"/>
<text text-anchor="middle" x="607" y="-992.5" font-family="Helvetica,sans-Serif" font-size="10.00" fill="#000000">DataModel</text>
<polyline fill="none" stroke="#000000" points="538.5,-985.5 675.5,-985.5 "/>
<text text-anchor="start" x="546.5" y="-973.5" font-family="Helvetica,sans-Serif" font-size="10.00" fill="#000000">&#45; balance</text>
<text text-anchor="start" x="546.5" y="-962.5" font-family="Helvetica,sans-Serif" font-size="10.00" fill="#000000">&#45; time</text>
<text text-anchor="start" x="546.5" y="-951.5" font-family="Helvetica,sans-Serif" font-size="10.00" fill="#000000">&#45; coordinateX</text>
<text text-anchor="start" x="546.5" y="-940.5" font-family="Helvetica,sans-Serif" font-size="10.00" fill="#000000">&#45; coordinateY</text>
<text text-anchor="start" x="546.5" y="-929.5" font-family="Helvetica,sans-Serif" font-size="10.00" fill="#000000">&#45; mapLoaded</text>
<text text-anchor="start" x="546.5" y="-918.5" font-family="Helvetica,sans-Serif" font-size="10.00" fill="#000000">&#45; ip</text>
<text text-anchor="start" x="546.5" y="-907.5" font-family="Helvetica,sans-Serif" font-size="10.00" fill="#000000">&#45; port</text>
<text text-anchor="start" x="546.5" y="-896.5" font-family="Helvetica,sans-Serif" font-size="10.00" fill="#000000">&#45; balanceLabel</text>
<text text-anchor="start" x="546.5" y="-885.5" font-family="Helvetica,sans-Serif" font-size="10.00" fill="#000000">&#45; timeLabel</text>
<text text-anchor="start" x="546.5" y="-874.5" font-family="Helvetica,sans-Serif" font-size="10.00" fill="#000000">&#45; positionLabel</text>
<text text-anchor="start" x="546.5" y="-863.5" font-family="Helvetica,sans-Serif" font-size="10.00" fill="#000000">&#45; statusDisplay</text>
<text text-anchor="start" x="546.5" y="-852.5" font-family="Helvetica,sans-Serif" font-size="10.00" fill="#000000">&#45; connectionLabel</text>
<text text-anchor="start" x="546.5" y="-841.5" font-family="Helvetica,sans-Serif" font-size="10.00" fill="#000000">&#45; mode</text>
<polyline fill="none" stroke="#000000" points="538.5,-834.5 675.5,-834.5 "/>
<text text-anchor="start" x="546.5" y="-822.5" font-family="Helvetica,sans-Serif" font-size="10.00" fill="#000000">+ DataModel()</text>
<text text-anchor="start" x="546.5" y="-811.5" font-family="Helvetica,sans-Serif" font-size="10.00" fill="#000000">+ getBalance()</text>
<text text-anchor="start" x="546.5" y="-800.5" font-family="Helvetica,sans-Serif" font-size="10.00" fill="#000000">+ updateBalance()</text>
<text text-anchor="start" x="546.5" y="-789.5" font-family="Helvetica,sans-Serif" font-size="10.00" fill="#000000">+ takeBalance()</text>
<text text-anchor="start" x="546.5" y="-778.5" font-family="Helvetica,sans-Serif" font-size="10.00" fill="#000000">+ timeTick()</text>
<text text-anchor="start" x="546.5" y="-767.5" font-family="Helvetica,sans-Serif" font-size="10.00" fill="#000000">+ getTime()</text>
<text text-anchor="start" x="546.5" y="-756.5" font-family="Helvetica,sans-Serif" font-size="10.00" fill="#000000">+ setTime()</text>
<text text-anchor="start" x="546.5" y="-745.5" font-family="Helvetica,sans-Serif" font-size="10.00" fill="#000000">+ getSystemMillis()</text>
<text text-anchor="start" x="546.5" y="-734.5" font-family="Helvetica,sans-Serif" font-size="10.00" fill="#000000">+ updateCoordinates()</text>
<text text-anchor="start" x="546.5" y="-723.5" font-family="Helvetica,sans-Serif" font-size="10.00" fill="#000000">+ getHoverX()</text>
<text text-anchor="start" x="546.5" y="-712.5" font-family="Helvetica,sans-Serif" font-size="10.00" fill="#000000">und 13 mehr ...</text>
<text text-anchor="start" x="546.5" y="-701.5" font-family="Helvetica,sans-Serif" font-size="10.00" fill="#000000">+ setDefaultMode()</text>
<text text-anchor="start" x="546.5" y="-690.5" font-family="Helvetica,sans-Serif" font-size="10.00" fill="#000000">+ setTrainStationMode()</text>
<text text-anchor="start" x="546.5" y="-679.5" font-family="Helvetica,sans-Serif" font-size="10.00" fill="#000000">+ setDepotMode()</text>
<text text-anchor="start" x="546.5" y="-668.5" font-family="Helvetica,sans-Serif" font-size="10.00" fill="#000000">+ setTerminalMode()</text>
<text text-anchor="start" x="546.5" y="-657.5" font-family="Helvetica,sans-Serif" font-size="10.00" fill="#000000">+ setBridgeMode()</text>
<text text-anchor="start" x="546.5" y="-646.5" font-family="Helvetica,sans-Serif" font-size="10.00" fill="#000000">+ setRailPlacementMode()</text>
<text text-anchor="start" x="546.5" y="-635.5" font-family="Helvetica,sans-Serif" font-size="10.00" fill="#000000">+ setRemoveMode()</text>
<text text-anchor="start" x="546.5" y="-624.5" font-family="Helvetica,sans-Serif" font-size="10.00" fill="#000000">+ setMapLoaded()</text>
</a>
</g>
</g>
<!-- Node10&#45;&gt;Node11 -->
<g id="edge14" class="edge">
<title>Node10&#45;&gt;Node11</title>
<path fill="none" stroke="#404040" d="M467.8428,-1101.8946C477.1121,-1078.0079 490.6062,-1047.5534 507,-1023 513.1103,-1013.8485 517.9645,-1014.201 524,-1005 526.8256,-1000.6924 529.5912,-996.2727 532.2949,-991.7662"/>
<polygon fill="none" stroke="#404040" points="532.4608,-991.4806 532.0171,-984.2831 538.4902,-981.1053 538.9339,-988.3027 532.4608,-991.4806"/>
<text text-anchor="middle" x="543.5" y="-1026" font-family="Helvetica,sans-Serif" font-size="10.00" fill="#000000"> +secondPlayer</text>
</g>
<!-- Node11&#45;&gt;Node1 -->
<g id="edge23" class="edge">
<title>Node11&#45;&gt;Node1</title>
<path fill="none" stroke="#404040" d="M569.9278,-617.1769C543.6493,-479.786 509.4448,-300.956 488.3666,-190.7536"/>
<polygon fill="none" stroke="#404040" points="488.307,-190.4415 483.251,-185.2998 486.0525,-178.6551 491.1085,-183.7968 488.307,-190.4415"/>
<text text-anchor="middle" x="580.5" y="-379" font-family="Helvetica,sans-Serif" font-size="10.00" fill="#000000"> &#45;dataModel</text>
</g>
<!-- Node11&#45;&gt;Node3 -->
<g id="edge12" class="edge">
<title>Node11&#45;&gt;Node3</title>
<path fill="none" stroke="#404040" d="M538.3953,-633.8252C533.8749,-627.9164 529.0811,-622.2785 524,-617 511.0399,-603.5364 499.0366,-612.3896 486,-599 477.3503,-590.1161 455.6699,-541.6524 435.0972,-492.7223"/>
<polygon fill="none" stroke="#404040" points="435.0876,-492.6991 429.0812,-488.7086 430.4546,-481.6295 436.461,-485.62 435.0876,-492.6991"/>
<text text-anchor="middle" x="513.5" y="-574.5" font-family="Helvetica,sans-Serif" font-size="10.00" fill="#000000"> &#45;dataModel</text>
</g>
<!-- Node11&#45;&gt;Node15 -->
<g id="edge22" class="edge">
<title>Node11&#45;&gt;Node15</title>
<path fill="none" stroke="#404040" d="M630.2769,-617.371C633.9921,-596.2162 638.2179,-575.0841 643,-555 643.5164,-552.8311 644.0488,-550.6509 644.5958,-548.4616"/>
<polygon fill="none" stroke="#404040" points="644.6388,-548.2957 642.2748,-541.4831 647.6541,-536.6807 650.0182,-543.4933 644.6388,-548.2957"/>
<text text-anchor="middle" x="670.5" y="-574.5" font-family="Helvetica,sans-Serif" font-size="10.00" fill="#000000"> &#45;dataModel</text>
</g>
<!-- Node12 -->
<g id="node12" class="node">
<title>Node12</title>
<g id="a_node12"><a xlink:title=" ">
<polygon fill="#ffffff" stroke="#bfbfbf" points="546.5,-1113 546.5,-1170 599.5,-1170 599.5,-1113 546.5,-1113"/>
<text text-anchor="middle" x="573" y="-1158" font-family="Helvetica,sans-Serif" font-size="10.00" fill="#000000">QObject</text>
<polyline fill="none" stroke="#bfbfbf" points="546.5,-1151 599.5,-1151 "/>
<text text-anchor="middle" x="573" y="-1139" font-family="Helvetica,sans-Serif" font-size="10.00" fill="#000000"> </text>
<polyline fill="none" stroke="#bfbfbf" points="546.5,-1132 599.5,-1132 "/>
<text text-anchor="middle" x="573" y="-1120" font-family="Helvetica,sans-Serif" font-size="10.00" fill="#000000"> </text>
</a>
</g>
</g>
<!-- Node12&#45;&gt;Node11 -->
<g id="edge13" class="edge">
<title>Node12&#45;&gt;Node11</title>
<path fill="none" stroke="#191970" d="M577.0119,-1102.5022C579.6212,-1077.1384 583.2404,-1041.9574 587.064,-1004.7899"/>
<polygon fill="none" stroke="#191970" points="573.4996,-1102.4427 575.9578,-1112.7485 580.4629,-1103.1592 573.4996,-1102.4427"/>
</g>
<!-- Node13 -->
<g id="node13" class="node">
<title>Node13</title>
<g id="a_node13"><a xlink:href="classMainWindow.html" target="_top" xlink:title=" ">
<polygon fill="#ffffff" stroke="#000000" points="618,-1107.5 618,-1175.5 714,-1175.5 714,-1107.5 618,-1107.5"/>
<text text-anchor="middle" x="666" y="-1163.5" font-family="Helvetica,sans-Serif" font-size="10.00" fill="#000000">MainWindow</text>
<polyline fill="none" stroke="#000000" points="618,-1156.5 714,-1156.5 "/>
<text text-anchor="start" x="626" y="-1144.5" font-family="Helvetica,sans-Serif" font-size="10.00" fill="#000000">&#45; ui</text>
<polyline fill="none" stroke="#000000" points="618,-1137.5 714,-1137.5 "/>
<text text-anchor="start" x="626" y="-1125.5" font-family="Helvetica,sans-Serif" font-size="10.00" fill="#000000">+ MainWindow()</text>
<text text-anchor="start" x="626" y="-1114.5" font-family="Helvetica,sans-Serif" font-size="10.00" fill="#000000">+ ~MainWindow()</text>
</a>
</g>
</g>
<!-- Node13&#45;&gt;Node11 -->
<g id="edge15" class="edge">
<title>Node13&#45;&gt;Node11</title>
<path fill="none" stroke="#404040" d="M659.9082,-1107.3755C655.7949,-1084.3342 649.9871,-1051.8004 643.7157,-1016.6701"/>
<polygon fill="none" stroke="#404040" points="643.6818,-1016.48 638.6896,-1011.2764 641.5729,-1004.6668 646.5651,-1009.8704 643.6818,-1016.48"/>
<text text-anchor="middle" x="677.5" y="-1026" font-family="Helvetica,sans-Serif" font-size="10.00" fill="#000000"> &#45;mainWindow</text>
</g>
<!-- Node14 -->
<g id="node14" class="node">
<title>Node14</title>
<g id="a_node14"><a xlink:title=" ">
<polygon fill="#ffffff" stroke="#bfbfbf" points="624.5,-1284 624.5,-1341 707.5,-1341 707.5,-1284 624.5,-1284"/>
<text text-anchor="middle" x="666" y="-1329" font-family="Helvetica,sans-Serif" font-size="10.00" fill="#000000">QMainWindow</text>
<polyline fill="none" stroke="#bfbfbf" points="624.5,-1322 707.5,-1322 "/>
<text text-anchor="middle" x="666" y="-1310" font-family="Helvetica,sans-Serif" font-size="10.00" fill="#000000"> </text>
<polyline fill="none" stroke="#bfbfbf" points="624.5,-1303 707.5,-1303 "/>
<text text-anchor="middle" x="666" y="-1291" font-family="Helvetica,sans-Serif" font-size="10.00" fill="#000000"> </text>
</a>
</g>
</g>
<!-- Node14&#45;&gt;Node13 -->
<g id="edge16" class="edge">
<title>Node14&#45;&gt;Node13</title>
<path fill="none" stroke="#191970" d="M666,-1273.5167C666,-1243.9698 666,-1203.768 666,-1175.5157"/>
<polygon fill="none" stroke="#191970" points="662.5001,-1273.8784 666,-1283.8784 669.5001,-1273.8785 662.5001,-1273.8784"/>
</g>
<!-- Node15&#45;&gt;Node1 -->
<g id="edge17" class="edge">
<title>Node15&#45;&gt;Node1</title>
<path fill="none" stroke="#404040" d="M639.2839,-261.9204C631.292,-249.4385 622.808,-237.2261 614,-226 591.0914,-196.8023 561.9002,-168.0908 535.7231,-144.5913"/>
<polygon fill="none" stroke="#404040" points="535.5827,-144.4667 528.4396,-143.4781 526.6049,-136.5043 533.7479,-137.4929 535.5827,-144.4667"/>
<text text-anchor="middle" x="630" y="-200" font-family="Helvetica,sans-Serif" font-size="10.00" fill="#000000"> &#45;mapRenderer</text>
</g>
<!-- Node16 -->
<g id="node16" class="node">
<title>Node16</title>
<g id="a_node16"><a xlink:title=" ">
<polygon fill="#ffffff" stroke="#bfbfbf" points="815,-782.5 815,-839.5 871,-839.5 871,-782.5 815,-782.5"/>
<text text-anchor="middle" x="843" y="-827.5" font-family="Helvetica,sans-Serif" font-size="10.00" fill="#000000">QWidget</text>
<polyline fill="none" stroke="#bfbfbf" points="815,-820.5 871,-820.5 "/>
<text text-anchor="middle" x="843" y="-808.5" font-family="Helvetica,sans-Serif" font-size="10.00" fill="#000000"> </text>
<polyline fill="none" stroke="#bfbfbf" points="815,-801.5 871,-801.5 "/>
<text text-anchor="middle" x="843" y="-789.5" font-family="Helvetica,sans-Serif" font-size="10.00" fill="#000000"> </text>
</a>
</g>
</g>
<!-- Node16&#45;&gt;Node15 -->
<g id="edge18" class="edge">
<title>Node16&#45;&gt;Node15</title>
<path fill="none" stroke="#191970" d="M836.7916,-772.2779C829.9458,-732.7233 817.6546,-669.7948 801,-617 790.7594,-584.5374 777.7607,-550.3723 764.5782,-518.4433"/>
<polygon fill="none" stroke="#191970" points="833.3685,-773.0263 838.4956,-782.298 840.2694,-771.8527 833.3685,-773.0263"/>
</g>
<!-- Node17 -->
<g id="node17" class="node">
<title>Node17</title>
<g id="a_node17"><a xlink:href="classPoint.html" target="_top" xlink:title=" ">
<polygon fill="#ffffff" stroke="#000000" points="889,-744 889,-878 947,-878 947,-744 889,-744"/>
<text text-anchor="middle" x="918" y="-866" font-family="Helvetica,sans-Serif" font-size="10.00" fill="#000000">Point</text>
<polyline fill="none" stroke="#000000" points="889,-859 947,-859 "/>
<text text-anchor="start" x="897" y="-847" font-family="Helvetica,sans-Serif" font-size="10.00" fill="#000000">&#45; x</text>
<text text-anchor="start" x="897" y="-836" font-family="Helvetica,sans-Serif" font-size="10.00" fill="#000000">&#45; y</text>
<polyline fill="none" stroke="#000000" points="889,-829 947,-829 "/>
<text text-anchor="start" x="897" y="-817" font-family="Helvetica,sans-Serif" font-size="10.00" fill="#000000">+ Point()</text>
<text text-anchor="start" x="897" y="-806" font-family="Helvetica,sans-Serif" font-size="10.00" fill="#000000">+ getX()</text>
<text text-anchor="start" x="897" y="-795" font-family="Helvetica,sans-Serif" font-size="10.00" fill="#000000">+ getY()</text>
<text text-anchor="start" x="897" y="-784" font-family="Helvetica,sans-Serif" font-size="10.00" fill="#000000">+ add()</text>
<text text-anchor="start" x="897" y="-773" font-family="Helvetica,sans-Serif" font-size="10.00" fill="#000000">+ set()</text>
<text text-anchor="start" x="897" y="-762" font-family="Helvetica,sans-Serif" font-size="10.00" fill="#000000">+ move()</text>
<text text-anchor="start" x="897" y="-751" font-family="Helvetica,sans-Serif" font-size="10.00" fill="#000000">+ toTile()</text>
</a>
</g>
</g>
<!-- Node17&#45;&gt;Node15 -->
<g id="edge21" class="edge">
<title>Node17&#45;&gt;Node15</title>
<path fill="none" stroke="#404040" d="M912.3856,-743.6285C907.3518,-705.2277 897.8562,-656.9498 880,-617 853.642,-558.029 810.0931,-500.0425 772.6691,-456.3646"/>
<polygon fill="none" stroke="#404040" points="772.6433,-456.3348 765.691,-454.4201 764.7845,-447.2662 771.7368,-449.1809 772.6433,-456.3348"/>
<text text-anchor="middle" x="899.5" y="-591" font-family="Helvetica,sans-Serif" font-size="10.00" fill="#000000"> &#45;activeTile</text>
<text text-anchor="middle" x="899.5" y="-580" font-family="Helvetica,sans-Serif" font-size="10.00" fill="#000000">&#45;dragOrigin</text>
<text text-anchor="middle" x="899.5" y="-569" font-family="Helvetica,sans-Serif" font-size="10.00" fill="#000000">+offset</text>
<text text-anchor="middle" x="899.5" y="-558" font-family="Helvetica,sans-Serif" font-size="10.00" fill="#000000">&#45;dragPosition</text>
</g>
</g>
</svg>
