<?xml version="1.0" encoding="UTF-8" standalone="no"?>
<!DOCTYPE svg PUBLIC "-//W3C//DTD SVG 1.1//EN"
 "http://www.w3.org/Graphics/SVG/1.1/DTD/svg11.dtd">
<!-- Generated by graphviz version 2.40.1 (20161225.0304)
 -->
<!-- Title: MapRenderer::logicUpdate Pages: 1 -->
<svg width="341pt" height="218pt"
 viewBox="0.00 0.00 341.00 218.00" xmlns="http://www.w3.org/2000/svg" xmlns:xlink="http://www.w3.org/1999/xlink">
<g id="graph0" class="graph" transform="scale(1 1) rotate(0) translate(4 214)">
<title>MapRenderer::logicUpdate</title>
<polygon fill="#ffffff" stroke="transparent" points="-4,4 -4,-214 337,-214 337,4 -4,4"/>
<!-- Node1 -->
<g id="node1" class="node">
<title>Node1</title>
<g id="a_node1"><a xlink:title="MapRenderer::logicUpdate Führt einen Logikschritt durch (Animationen etc.)">
<polygon fill="#bfbfbf" stroke="#000000" points="0,-95.5 0,-114.5 138,-114.5 138,-95.5 0,-95.5"/>
<text text-anchor="middle" x="69" y="-102.5" font-family="Helvetica,sans-Serif" font-size="10.00" fill="#000000">MapRenderer::logicUpdate</text>
</a>
</g>
</g>
<!-- Node2 -->
<g id="node2" class="node">
<title>Node2</title>
<g id="a_node2"><a xlink:href="classPoint.html#a0b82a4aa9614c11854abc507d89a70a9" target="_top" xlink:title="Point::getX Gibt die X&#45;Koordinate des Punktes.">
<polygon fill="#ffffff" stroke="#000000" points="220.5,-190.5 220.5,-209.5 286.5,-209.5 286.5,-190.5 220.5,-190.5"/>
<text text-anchor="middle" x="253.5" y="-197.5" font-family="Helvetica,sans-Serif" font-size="10.00" fill="#000000">Point::getX</text>
</a>
</g>
</g>
<!-- Node1&#45;&gt;Node2 -->
<g id="edge1" class="edge">
<title>Node1&#45;&gt;Node2</title>
<path fill="none" stroke="#191970" d="M79.152,-114.5006C96.9489,-130.632 135.5551,-163.3423 174,-181 185.3844,-186.2289 198.3712,-190.1109 210.5014,-192.9531"/>
<polygon fill="#191970" stroke="#191970" points="209.9212,-196.4085 220.4353,-195.1029 211.4018,-189.5669 209.9212,-196.4085"/>
</g>
<!-- Node3 -->
<g id="node3" class="node">
<title>Node3</title>
<g id="a_node3"><a xlink:href="classPoint.html#a3770f321c49dfe7ca463900fddc2e2bc" target="_top" xlink:title="Point::getX Gibt die Y&#45;Koordinate des Punktes.">
<polygon fill="#ffffff" stroke="#000000" points="220.5,-152.5 220.5,-171.5 286.5,-171.5 286.5,-152.5 220.5,-152.5"/>
<text text-anchor="middle" x="253.5" y="-159.5" font-family="Helvetica,sans-Serif" font-size="10.00" fill="#000000">Point::getY</text>
</a>
</g>
</g>
<!-- Node1&#45;&gt;Node3 -->
<g id="edge2" class="edge">
<title>Node1&#45;&gt;Node3</title>
<path fill="none" stroke="#191970" d="M92.9308,-114.5341C114.0474,-122.7362 145.7711,-134.5479 174,-143 185.789,-146.5298 198.7135,-149.8484 210.6515,-152.6938"/>
<polygon fill="#191970" stroke="#191970" points="209.8673,-156.1048 220.4009,-154.967 211.4568,-149.2876 209.8673,-156.1048"/>
</g>
<!-- Node4 -->
<g id="node4" class="node">
<title>Node4</title>
<g id="a_node4"><a xlink:href="classPoint.html#a5fe68f58cafb4cbc29f09de0978344fd" target="_top" xlink:title="Point::move Verschiebt den Punkt.">
<polygon fill="#ffffff" stroke="#000000" points="218,-114.5 218,-133.5 289,-133.5 289,-114.5 218,-114.5"/>
<text text-anchor="middle" x="253.5" y="-121.5" font-family="Helvetica,sans-Serif" font-size="10.00" fill="#000000">Point::move</text>
</a>
</g>
</g>
<!-- Node1&#45;&gt;Node4 -->
<g id="edge3" class="edge">
<title>Node1&#45;&gt;Node4</title>
<path fill="none" stroke="#191970" d="M138.2259,-112.129C161.4062,-114.5161 186.6584,-117.1166 207.6034,-119.2735"/>
<polygon fill="#191970" stroke="#191970" points="207.5138,-122.7827 217.8198,-120.3256 208.231,-115.8195 207.5138,-122.7827"/>
</g>
<!-- Node5 -->
<g id="node5" class="node">
<title>Node5</title>
<g id="a_node5"><a xlink:href="classPoint.html#a773af172e76895550d05b081b15493fb" target="_top" xlink:title="Point::set Ändert die Koordinaten.">
<polygon fill="#ffffff" stroke="#000000" points="224,-76.5 224,-95.5 283,-95.5 283,-76.5 224,-76.5"/>
<text text-anchor="middle" x="253.5" y="-83.5" font-family="Helvetica,sans-Serif" font-size="10.00" fill="#000000">Point::set</text>
</a>
</g>
</g>
<!-- Node1&#45;&gt;Node5 -->
<g id="edge4" class="edge">
<title>Node1&#45;&gt;Node5</title>
<path fill="none" stroke="#191970" d="M138.2259,-97.871C163.6481,-95.253 191.5625,-92.3784 213.554,-90.1137"/>
<polygon fill="#191970" stroke="#191970" points="213.9346,-93.5931 223.5234,-89.087 213.2174,-86.6299 213.9346,-93.5931"/>
</g>
<!-- Node6 -->
<g id="node6" class="node">
<title>Node6</title>
<g id="a_node6"><a xlink:href="classSprite.html#a27169dde66b588811cd6165c5f26c67f" target="_top" xlink:title="Sprite::step Führt einen Animationsschritt durch.">
<polygon fill="#ffffff" stroke="#000000" points="220,-38.5 220,-57.5 287,-57.5 287,-38.5 220,-38.5"/>
<text text-anchor="middle" x="253.5" y="-45.5" font-family="Helvetica,sans-Serif" font-size="10.00" fill="#000000">Sprite::step</text>
</a>
</g>
</g>
<!-- Node1&#45;&gt;Node6 -->
<g id="edge5" class="edge">
<title>Node1&#45;&gt;Node6</title>
<path fill="none" stroke="#191970" d="M92.9308,-95.4659C114.0474,-87.2638 145.7711,-75.4521 174,-67 185.4608,-63.5685 197.9948,-60.3366 209.6523,-57.5449"/>
<polygon fill="#191970" stroke="#191970" points="210.6831,-60.8983 219.6221,-55.211 209.0876,-54.0826 210.6831,-60.8983"/>
</g>
<!-- Node7 -->
<g id="node7" class="node">
<title>Node7</title>
<g id="a_node7"><a xlink:href="classDataModel.html#a2dcc97fd7387151077bcb3794b1614af" target="_top" xlink:title="DataModel::updateCoordinates Aktualisiert die Koordinaten des fokussierten Quadrantens.">
<polygon fill="#ffffff" stroke="#000000" points="174,-.5 174,-19.5 333,-19.5 333,-.5 174,-.5"/>
<text text-anchor="middle" x="253.5" y="-7.5" font-family="Helvetica,sans-Serif" font-size="10.00" fill="#000000">DataModel::updateCoordinates</text>
</a>
</g>
</g>
<!-- Node1&#45;&gt;Node7 -->
<g id="edge6" class="edge">
<title>Node1&#45;&gt;Node7</title>
<path fill="none" stroke="#191970" d="M79.152,-95.4994C96.9489,-79.368 135.5551,-46.6577 174,-29 179.3698,-26.5336 185.0961,-24.3669 190.9209,-22.4677"/>
<polygon fill="#191970" stroke="#191970" points="192.1953,-25.7397 200.771,-19.5181 190.1872,-19.0339 192.1953,-25.7397"/>
</g>
</g>
</svg>
