<?xml version="1.0" encoding="UTF-8" standalone="no"?>
<!DOCTYPE svg PUBLIC "-//W3C//DTD SVG 1.1//EN"
 "http://www.w3.org/Graphics/SVG/1.1/DTD/svg11.dtd">
<!-- Generated by graphviz version 2.40.1 (20161225.0304)
 -->
<!-- Title: Client Pages: 1 -->
<svg width="850pt" height="1285pt"
 viewBox="0.00 0.00 849.50 1285.00" xmlns="http://www.w3.org/2000/svg" xmlns:xlink="http://www.w3.org/1999/xlink">
<g id="graph0" class="graph" transform="scale(1 1) rotate(0) translate(4 1281)">
<title>Client</title>
<polygon fill="#ffffff" stroke="transparent" points="-4,4 -4,-1281 845.5,-1281 845.5,4 -4,4"/>
<!-- Node1 -->
<g id="node1" class="node">
<title>Node1</title>
<g id="a_node1"><a xlink:title=" ">
<polygon fill="#bfbfbf" stroke="#000000" points="171,-.5 171,-145.5 286,-145.5 286,-.5 171,-.5"/>
<text text-anchor="middle" x="228.5" y="-133.5" font-family="Helvetica,sans-Serif" font-size="10.00" fill="#000000">Client</text>
<polyline fill="none" stroke="#000000" points="171,-126.5 286,-126.5 "/>
<text text-anchor="start" x="179" y="-114.5" font-family="Helvetica,sans-Serif" font-size="10.00" fill="#000000">&#45; socket</text>
<text text-anchor="start" x="179" y="-103.5" font-family="Helvetica,sans-Serif" font-size="10.00" fill="#000000">&#45; debug</text>
<text text-anchor="start" x="179" y="-92.5" font-family="Helvetica,sans-Serif" font-size="10.00" fill="#000000">&#45; tickcount</text>
<polyline fill="none" stroke="#000000" points="171,-85.5 286,-85.5 "/>
<text text-anchor="start" x="179" y="-73.5" font-family="Helvetica,sans-Serif" font-size="10.00" fill="#000000">+ Client()</text>
<text text-anchor="start" x="179" y="-62.5" font-family="Helvetica,sans-Serif" font-size="10.00" fill="#000000">+ run()</text>
<text text-anchor="start" x="179" y="-51.5" font-family="Helvetica,sans-Serif" font-size="10.00" fill="#000000">+ requestMap()</text>
<text text-anchor="start" x="179" y="-40.5" font-family="Helvetica,sans-Serif" font-size="10.00" fill="#000000">+ onPositionChange()</text>
<text text-anchor="start" x="179" y="-29.5" font-family="Helvetica,sans-Serif" font-size="10.00" fill="#000000">+ onLeftclick()</text>
<text text-anchor="start" x="179" y="-18.5" font-family="Helvetica,sans-Serif" font-size="10.00" fill="#000000">+ onRightclick()</text>
<text text-anchor="start" x="179" y="-7.5" font-family="Helvetica,sans-Serif" font-size="10.00" fill="#000000">&#45; processCommand()</text>
</a>
</g>
</g>
<!-- Node2 -->
<g id="node2" class="node">
<title>Node2</title>
<g id="a_node2"><a xlink:title=" ">
<polygon fill="#ffffff" stroke="#bfbfbf" points="134.5,-265 134.5,-322 192.5,-322 192.5,-265 134.5,-265"/>
<text text-anchor="middle" x="163.5" y="-310" font-family="Helvetica,sans-Serif" font-size="10.00" fill="#000000">QThread</text>
<polyline fill="none" stroke="#bfbfbf" points="134.5,-303 192.5,-303 "/>
<text text-anchor="middle" x="163.5" y="-291" font-family="Helvetica,sans-Serif" font-size="10.00" fill="#000000"> </text>
<polyline fill="none" stroke="#bfbfbf" points="134.5,-284 192.5,-284 "/>
<text text-anchor="middle" x="163.5" y="-272" font-family="Helvetica,sans-Serif" font-size="10.00" fill="#000000"> </text>
</a>
</g>
</g>
<!-- Node2&#45;&gt;Node1 -->
<g id="edge1" class="edge">
<title>Node2&#45;&gt;Node1</title>
<path fill="none" stroke="#191970" d="M174.8501,-254.9971C183.703,-224.9651 196.2571,-182.3779 206.9956,-145.9497"/>
<polygon fill="none" stroke="#191970" points="171.4681,-254.0919 171.9976,-264.6735 178.1824,-256.0712 171.4681,-254.0919"/>
</g>
<!-- Node3 -->
<g id="node3" class="node">
<title>Node3</title>
<g id="a_node3"><a xlink:href="classScene.html" target="_top" xlink:title=" ">
<polygon fill="#ffffff" stroke="#000000" points="366.5,-193.5 366.5,-393.5 494.5,-393.5 494.5,-193.5 366.5,-193.5"/>
<text text-anchor="middle" x="430.5" y="-381.5" font-family="Helvetica,sans-Serif" font-size="10.00" fill="#000000">Scene</text>
<polyline fill="none" stroke="#000000" points="366.5,-374.5 494.5,-374.5 "/>
<text text-anchor="start" x="374.5" y="-362.5" font-family="Helvetica,sans-Serif" font-size="10.00" fill="#000000">+ MAP_SIZE</text>
<text text-anchor="start" x="374.5" y="-351.5" font-family="Helvetica,sans-Serif" font-size="10.00" fill="#000000">+ TILE_SIZE</text>
<text text-anchor="start" x="374.5" y="-340.5" font-family="Helvetica,sans-Serif" font-size="10.00" fill="#000000">&#45; radiusHighlighter</text>
<text text-anchor="start" x="374.5" y="-329.5" font-family="Helvetica,sans-Serif" font-size="10.00" fill="#000000">&#45; textHint</text>
<text text-anchor="start" x="374.5" y="-318.5" font-family="Helvetica,sans-Serif" font-size="10.00" fill="#000000">&#45; showRadius</text>
<text text-anchor="start" x="374.5" y="-307.5" font-family="Helvetica,sans-Serif" font-size="10.00" fill="#000000">&#45; players</text>
<polyline fill="none" stroke="#000000" points="366.5,-300.5 494.5,-300.5 "/>
<text text-anchor="start" x="374.5" y="-288.5" font-family="Helvetica,sans-Serif" font-size="10.00" fill="#000000">+ Scene()</text>
<text text-anchor="start" x="374.5" y="-277.5" font-family="Helvetica,sans-Serif" font-size="10.00" fill="#000000">+ generateWorld()</text>
<text text-anchor="start" x="374.5" y="-266.5" font-family="Helvetica,sans-Serif" font-size="10.00" fill="#000000">+ setActiveTile()</text>
<text text-anchor="start" x="374.5" y="-255.5" font-family="Helvetica,sans-Serif" font-size="10.00" fill="#000000">+ getTileAt()</text>
<text text-anchor="start" x="374.5" y="-244.5" font-family="Helvetica,sans-Serif" font-size="10.00" fill="#000000">+ setTileAt()</text>
<text text-anchor="start" x="374.5" y="-233.5" font-family="Helvetica,sans-Serif" font-size="10.00" fill="#000000">+ tileChanged()</text>
<text text-anchor="start" x="374.5" y="-222.5" font-family="Helvetica,sans-Serif" font-size="10.00" fill="#000000">+ tick()</text>
<text text-anchor="start" x="374.5" y="-211.5" font-family="Helvetica,sans-Serif" font-size="10.00" fill="#000000">+ onSetTile()</text>
<text text-anchor="start" x="374.5" y="-200.5" font-family="Helvetica,sans-Serif" font-size="10.00" fill="#000000">+ updatePlayerPosition()</text>
</a>
</g>
</g>
<!-- Node3&#45;&gt;Node1 -->
<g id="edge2" class="edge">
<title>Node3&#45;&gt;Node1</title>
<path fill="none" stroke="#404040" d="M366.3084,-223.4295C343.3641,-198.3839 317.484,-170.1335 294.3981,-144.9333"/>
<polygon fill="none" stroke="#404040" points="294.1358,-144.647 287.1334,-142.9248 286.0298,-135.7986 293.0323,-137.5208 294.1358,-144.647"/>
<text text-anchor="middle" x="334.5" y="-167" font-family="Helvetica,sans-Serif" font-size="10.00" fill="#000000"> &#45;scene</text>
</g>
<!-- Node4 -->
<g id="node4" class="node">
<title>Node4</title>
<g id="a_node4"><a xlink:title=" ">
<polygon fill="#ffffff" stroke="#bfbfbf" points="747.5,-617.5 747.5,-674.5 841.5,-674.5 841.5,-617.5 747.5,-617.5"/>
<text text-anchor="middle" x="794.5" y="-662.5" font-family="Helvetica,sans-Serif" font-size="10.00" fill="#000000">QGraphicsScene</text>
<polyline fill="none" stroke="#bfbfbf" points="747.5,-655.5 841.5,-655.5 "/>
<text text-anchor="middle" x="794.5" y="-643.5" font-family="Helvetica,sans-Serif" font-size="10.00" fill="#000000"> </text>
<polyline fill="none" stroke="#bfbfbf" points="747.5,-636.5 841.5,-636.5 "/>
<text text-anchor="middle" x="794.5" y="-624.5" font-family="Helvetica,sans-Serif" font-size="10.00" fill="#000000"> </text>
</a>
</g>
</g>
<!-- Node4&#45;&gt;Node3 -->
<g id="edge3" class="edge">
<title>Node4&#45;&gt;Node3</title>
<path fill="none" stroke="#191970" d="M792.2677,-607.1892C787.9573,-564.743 775.3476,-496.8028 738.5,-452 675.1843,-375.0148 564.7422,-331.2753 494.7409,-310.0036"/>
<polygon fill="none" stroke="#191970" points="788.8049,-607.759 793.1944,-617.4017 795.7763,-607.1263 788.8049,-607.759"/>
</g>
<!-- Node5 -->
<g id="node5" class="node">
<title>Node5</title>
<g id="a_node5"><a xlink:href="classHighlighter.html" target="_top" xlink:title=" ">
<polygon fill="#ffffff" stroke="#000000" points="337,-1113.5 337,-1181.5 416,-1181.5 416,-1113.5 337,-1113.5"/>
<text text-anchor="middle" x="376.5" y="-1169.5" font-family="Helvetica,sans-Serif" font-size="10.00" fill="#000000">Highlighter</text>
<polyline fill="none" stroke="#000000" points="337,-1162.5 416,-1162.5 "/>
<text text-anchor="start" x="345" y="-1150.5" font-family="Helvetica,sans-Serif" font-size="10.00" fill="#000000">&#45; outline</text>
<polyline fill="none" stroke="#000000" points="337,-1143.5 416,-1143.5 "/>
<text text-anchor="start" x="345" y="-1131.5" font-family="Helvetica,sans-Serif" font-size="10.00" fill="#000000">+ Highlighter()</text>
<text text-anchor="start" x="345" y="-1120.5" font-family="Helvetica,sans-Serif" font-size="10.00" fill="#000000">+ setColor()</text>
</a>
</g>
</g>
<!-- Node5&#45;&gt;Node3 -->
<g id="edge4" class="edge">
<title>Node5&#45;&gt;Node3</title>
<path fill="none" stroke="#404040" d="M403.1531,-1113.3217C406.547,-1107.4812 409.5209,-1101.2676 411.5,-1095 450.9465,-970.0744 442.6546,-595.5018 435.5018,-405.9699"/>
<polygon fill="none" stroke="#404040" points="435.4934,-405.7491 431.266,-399.9071 435.0328,-393.758 439.2601,-399.6 435.4934,-405.7491"/>
<text text-anchor="middle" x="465.5" y="-861" font-family="Helvetica,sans-Serif" font-size="10.00" fill="#000000"> &#45;highlighter</text>
</g>
<!-- Node10 -->
<g id="node10" class="node">
<title>Node10</title>
<g id="a_node10"><a xlink:href="classPlayer.html" target="_top" xlink:title=" ">
<polygon fill="#ffffff" stroke="#000000" points="292,-937 292,-1016 373,-1016 373,-937 292,-937"/>
<text text-anchor="middle" x="332.5" y="-1004" font-family="Helvetica,sans-Serif" font-size="10.00" fill="#000000">Player</text>
<polyline fill="none" stroke="#000000" points="292,-997 373,-997 "/>
<text text-anchor="start" x="300" y="-985" font-family="Helvetica,sans-Serif" font-size="10.00" fill="#000000">+ posX</text>
<text text-anchor="start" x="300" y="-974" font-family="Helvetica,sans-Serif" font-size="10.00" fill="#000000">+ posY</text>
<polyline fill="none" stroke="#000000" points="292,-967 373,-967 "/>
<text text-anchor="start" x="300" y="-955" font-family="Helvetica,sans-Serif" font-size="10.00" fill="#000000">+ Player()</text>
<text text-anchor="start" x="300" y="-944" font-family="Helvetica,sans-Serif" font-size="10.00" fill="#000000">+ setPosition()</text>
</a>
</g>
</g>
<!-- Node5&#45;&gt;Node10 -->
<g id="edge11" class="edge">
<title>Node5&#45;&gt;Node10</title>
<path fill="none" stroke="#404040" d="M362.5554,-1113.3212C360.3548,-1107.2751 358.2365,-1100.9959 356.5,-1095 350.2276,-1073.3423 344.9934,-1048.9961 341.0306,-1028.0307"/>
<polygon fill="none" stroke="#404040" points="341.0115,-1027.9262 335.9944,-1022.7465 338.846,-1016.1232 343.8631,-1021.3028 341.0115,-1027.9262"/>
<text text-anchor="middle" x="384" y="-1087" font-family="Helvetica,sans-Serif" font-size="10.00" fill="#000000"> +highlighter</text>
</g>
<!-- Node6 -->
<g id="node6" class="node">
<title>Node6</title>
<g id="a_node6"><a xlink:title=" ">
<polygon fill="#ffffff" stroke="#bfbfbf" points="324.5,-1219.5 324.5,-1276.5 428.5,-1276.5 428.5,-1219.5 324.5,-1219.5"/>
<text text-anchor="middle" x="376.5" y="-1264.5" font-family="Helvetica,sans-Serif" font-size="10.00" fill="#000000">QGraphicsRectItem</text>
<polyline fill="none" stroke="#bfbfbf" points="324.5,-1257.5 428.5,-1257.5 "/>
<text text-anchor="middle" x="376.5" y="-1245.5" font-family="Helvetica,sans-Serif" font-size="10.00" fill="#000000"> </text>
<polyline fill="none" stroke="#bfbfbf" points="324.5,-1238.5 428.5,-1238.5 "/>
<text text-anchor="middle" x="376.5" y="-1226.5" font-family="Helvetica,sans-Serif" font-size="10.00" fill="#000000"> </text>
</a>
</g>
</g>
<!-- Node6&#45;&gt;Node5 -->
<g id="edge5" class="edge">
<title>Node6&#45;&gt;Node5</title>
<path fill="none" stroke="#191970" d="M376.5,-1209.1903C376.5,-1200.1667 376.5,-1190.6233 376.5,-1181.8097"/>
<polygon fill="none" stroke="#191970" points="373.0001,-1209.4695 376.5,-1219.4696 380.0001,-1209.4696 373.0001,-1209.4695"/>
</g>
<!-- Node7 -->
<g id="node7" class="node">
<title>Node7</title>
<g id="a_node7"><a xlink:href="classMapTile.html" target="_top" xlink:title=" ">
<polygon fill="#ffffff" stroke="#000000" points="589.5,-529.5 589.5,-762.5 729.5,-762.5 729.5,-529.5 589.5,-529.5"/>
<text text-anchor="middle" x="659.5" y="-750.5" font-family="Helvetica,sans-Serif" font-size="10.00" fill="#000000">MapTile</text>
<polyline fill="none" stroke="#000000" points="589.5,-743.5 729.5,-743.5 "/>
<text text-anchor="start" x="597.5" y="-731.5" font-family="Helvetica,sans-Serif" font-size="10.00" fill="#000000">&#45; type</text>
<text text-anchor="start" x="597.5" y="-720.5" font-family="Helvetica,sans-Serif" font-size="10.00" fill="#000000">&#45; pixmapItem</text>
<text text-anchor="start" x="597.5" y="-709.5" font-family="Helvetica,sans-Serif" font-size="10.00" fill="#000000">&#45; currentRotation</text>
<polyline fill="none" stroke="#000000" points="589.5,-702.5 729.5,-702.5 "/>
<text text-anchor="start" x="597.5" y="-690.5" font-family="Helvetica,sans-Serif" font-size="10.00" fill="#000000">+ MapTile()</text>
<text text-anchor="start" x="597.5" y="-679.5" font-family="Helvetica,sans-Serif" font-size="10.00" fill="#000000">+ MapTile()</text>
<text text-anchor="start" x="597.5" y="-668.5" font-family="Helvetica,sans-Serif" font-size="10.00" fill="#000000">+ setType()</text>
<text text-anchor="start" x="597.5" y="-657.5" font-family="Helvetica,sans-Serif" font-size="10.00" fill="#000000">+ getType()</text>
<text text-anchor="start" x="597.5" y="-646.5" font-family="Helvetica,sans-Serif" font-size="10.00" fill="#000000">+ setRotation()</text>
<text text-anchor="start" x="597.5" y="-635.5" font-family="Helvetica,sans-Serif" font-size="10.00" fill="#000000">+ getRotation()</text>
<text text-anchor="start" x="597.5" y="-624.5" font-family="Helvetica,sans-Serif" font-size="10.00" fill="#000000">+ setPosition()</text>
<text text-anchor="start" x="597.5" y="-613.5" font-family="Helvetica,sans-Serif" font-size="10.00" fill="#000000">+ isRiver()</text>
<text text-anchor="start" x="597.5" y="-602.5" font-family="Helvetica,sans-Serif" font-size="10.00" fill="#000000">+ isRail()</text>
<text text-anchor="start" x="597.5" y="-591.5" font-family="Helvetica,sans-Serif" font-size="10.00" fill="#000000">+ getPixmapItem()</text>
<text text-anchor="start" x="597.5" y="-580.5" font-family="Helvetica,sans-Serif" font-size="10.00" fill="#000000">+ getCity()</text>
<text text-anchor="start" x="597.5" y="-569.5" font-family="Helvetica,sans-Serif" font-size="10.00" fill="#000000">+ setCity()</text>
<text text-anchor="start" x="597.5" y="-558.5" font-family="Helvetica,sans-Serif" font-size="10.00" fill="#000000">+ getX()</text>
<text text-anchor="start" x="597.5" y="-547.5" font-family="Helvetica,sans-Serif" font-size="10.00" fill="#000000">+ getY()</text>
<text text-anchor="start" x="597.5" y="-536.5" font-family="Helvetica,sans-Serif" font-size="10.00" fill="#000000">+ attachGraphicsManager()</text>
</a>
</g>
</g>
<!-- Node7&#45;&gt;Node3 -->
<g id="edge6" class="edge">
<title>Node7&#45;&gt;Node3</title>
<path fill="none" stroke="#404040" d="M616.4886,-529.3946C604.7631,-503.0721 590.9638,-475.8735 575.5,-452 555.0067,-420.3617 528.0926,-388.9987 503.0225,-362.6256"/>
<polygon fill="none" stroke="#404040" points="502.9255,-362.5249 495.8826,-360.9765 494.6031,-353.8798 501.646,-355.4282 502.9255,-362.5249"/>
<text text-anchor="middle" x="588.5" y="-426" font-family="Helvetica,sans-Serif" font-size="10.00" fill="#000000"> &#45;activeTile</text>
<text text-anchor="middle" x="588.5" y="-415" font-family="Helvetica,sans-Serif" font-size="10.00" fill="#000000">+data</text>
</g>
<!-- Node8 -->
<g id="node8" class="node">
<title>Node8</title>
<g id="a_node8"><a xlink:href="classGraphicsManager.html" target="_top" xlink:title=" ">
<polygon fill="#ffffff" stroke="#000000" points="486,-942.5 486,-1010.5 599,-1010.5 599,-942.5 486,-942.5"/>
<text text-anchor="middle" x="542.5" y="-998.5" font-family="Helvetica,sans-Serif" font-size="10.00" fill="#000000">GraphicsManager</text>
<polyline fill="none" stroke="#000000" points="486,-991.5 599,-991.5 "/>
<text text-anchor="start" x="494" y="-979.5" font-family="Helvetica,sans-Serif" font-size="10.00" fill="#000000">+ GRAPHICS</text>
<polyline fill="none" stroke="#000000" points="486,-972.5 599,-972.5 "/>
<text text-anchor="start" x="494" y="-960.5" font-family="Helvetica,sans-Serif" font-size="10.00" fill="#000000">+ GraphicsManager()</text>
<text text-anchor="start" x="494" y="-949.5" font-family="Helvetica,sans-Serif" font-size="10.00" fill="#000000">+ get()</text>
</a>
</g>
</g>
<!-- Node8&#45;&gt;Node3 -->
<g id="edge9" class="edge">
<title>Node8&#45;&gt;Node3</title>
<path fill="none" stroke="#404040" d="M528.4463,-942.3091C517.8029,-915.0516 503.6639,-875.6702 495.5,-840 494.897,-837.3654 462.6417,-565.1637 443.8023,-405.968"/>
<polygon fill="none" stroke="#404040" points="443.7682,-405.6796 439.0908,-400.1912 442.358,-393.7627 447.0354,-399.2511 443.7682,-405.6796"/>
<text text-anchor="middle" x="538" y="-643.5" font-family="Helvetica,sans-Serif" font-size="10.00" fill="#000000"> &#45;graphicsManager</text>
</g>
<!-- Node8&#45;&gt;Node7 -->
<g id="edge7" class="edge">
<title>Node8&#45;&gt;Node7</title>
<path fill="none" stroke="#404040" d="M548.9995,-942.3772C553.9303,-918.4748 561.4034,-885.9403 570.5,-858 579.4876,-830.3945 590.5518,-801.3634 601.7874,-773.9448"/>
<polygon fill="none" stroke="#404040" points="601.8475,-773.7995 600.4458,-766.7259 606.4362,-762.7115 607.8378,-769.7851 601.8475,-773.7995"/>
<text text-anchor="middle" x="613" y="-861" font-family="Helvetica,sans-Serif" font-size="10.00" fill="#000000"> &#45;graphicsManager</text>
</g>
<!-- Node9 -->
<g id="node9" class="node">
<title>Node9</title>
<g id="a_node9"><a xlink:href="classCity.html" target="_top" xlink:title=" ">
<polygon fill="#ffffff" stroke="#000000" points="618,-887.5 618,-1065.5 701,-1065.5 701,-887.5 618,-887.5"/>
<text text-anchor="middle" x="659.5" y="-1053.5" font-family="Helvetica,sans-Serif" font-size="10.00" fill="#000000">City</text>
<polyline fill="none" stroke="#000000" points="618,-1046.5 701,-1046.5 "/>
<text text-anchor="start" x="626" y="-1034.5" font-family="Helvetica,sans-Serif" font-size="10.00" fill="#000000">&#45; size</text>
<text text-anchor="start" x="626" y="-1023.5" font-family="Helvetica,sans-Serif" font-size="10.00" fill="#000000">&#45; centerX</text>
<text text-anchor="start" x="626" y="-1012.5" font-family="Helvetica,sans-Serif" font-size="10.00" fill="#000000">&#45; centerY</text>
<text text-anchor="start" x="626" y="-1001.5" font-family="Helvetica,sans-Serif" font-size="10.00" fill="#000000">&#45; name</text>
<polyline fill="none" stroke="#000000" points="618,-994.5 701,-994.5 "/>
<text text-anchor="start" x="626" y="-982.5" font-family="Helvetica,sans-Serif" font-size="10.00" fill="#000000">+ City()</text>
<text text-anchor="start" x="626" y="-971.5" font-family="Helvetica,sans-Serif" font-size="10.00" fill="#000000">+ City()</text>
<text text-anchor="start" x="626" y="-960.5" font-family="Helvetica,sans-Serif" font-size="10.00" fill="#000000">+ getSize()</text>
<text text-anchor="start" x="626" y="-949.5" font-family="Helvetica,sans-Serif" font-size="10.00" fill="#000000">+ getCenterX()</text>
<text text-anchor="start" x="626" y="-938.5" font-family="Helvetica,sans-Serif" font-size="10.00" fill="#000000">+ getCenterY()</text>
<text text-anchor="start" x="626" y="-927.5" font-family="Helvetica,sans-Serif" font-size="10.00" fill="#000000">+ getName()</text>
<text text-anchor="start" x="626" y="-916.5" font-family="Helvetica,sans-Serif" font-size="10.00" fill="#000000">+ setSize()</text>
<text text-anchor="start" x="626" y="-905.5" font-family="Helvetica,sans-Serif" font-size="10.00" fill="#000000">+ setCenter()</text>
<text text-anchor="start" x="626" y="-894.5" font-family="Helvetica,sans-Serif" font-size="10.00" fill="#000000">+ setName()</text>
</a>
</g>
</g>
<!-- Node9&#45;&gt;Node7 -->
<g id="edge8" class="edge">
<title>Node9&#45;&gt;Node7</title>
<path fill="none" stroke="#404040" d="M659.5,-887.4973C659.5,-852.821 659.5,-812.4076 659.5,-774.6731"/>
<polygon fill="none" stroke="#404040" points="659.5001,-774.5265 655.5,-768.5265 659.5,-762.5265 663.5,-768.5264 659.5001,-774.5265"/>
<text text-anchor="middle" x="670.5" y="-861" font-family="Helvetica,sans-Serif" font-size="10.00" fill="#000000"> &#45;city</text>
</g>
<!-- Node10&#45;&gt;Node3 -->
<g id="edge10" class="edge">
<title>Node10&#45;&gt;Node3</title>
<path fill="none" stroke="#404040" d="M327.4946,-936.8157C317.6078,-848.1117 300.3067,-627.7585 346.5,-452 350.6405,-436.2458 356.5957,-420.3128 363.4511,-404.9316"/>
<polygon fill="none" stroke="#404040" points="363.5452,-404.7282 362.4375,-397.6027 368.5889,-393.8396 369.6966,-400.9652 363.5452,-404.7282"/>
<text text-anchor="middle" x="381.5" y="-643.5" font-family="Helvetica,sans-Serif" font-size="10.00" fill="#000000"> &#45;secondPlayer</text>
</g>
<!-- Node11 -->
<g id="node11" class="node">
<title>Node11</title>
<g id="a_node11"><a xlink:href="classDataModel.html" target="_top" xlink:title=" ">
<polygon fill="#ffffff" stroke="#000000" points="159,-452.5 159,-839.5 296,-839.5 296,-452.5 159,-452.5"/>
<text text-anchor="middle" x="227.5" y="-827.5" font-family="Helvetica,sans-Serif" font-size="10.00" fill="#000000">DataModel</text>
<polyline fill="none" stroke="#000000" points="159,-820.5 296,-820.5 "/>
<text text-anchor="start" x="167" y="-808.5" font-family="Helvetica,sans-Serif" font-size="10.00" fill="#000000">&#45; balance</text>
<text text-anchor="start" x="167" y="-797.5" font-family="Helvetica,sans-Serif" font-size="10.00" fill="#000000">&#45; time</text>
<text text-anchor="start" x="167" y="-786.5" font-family="Helvetica,sans-Serif" font-size="10.00" fill="#000000">&#45; coordinateX</text>
<text text-anchor="start" x="167" y="-775.5" font-family="Helvetica,sans-Serif" font-size="10.00" fill="#000000">&#45; coordinateY</text>
<text text-anchor="start" x="167" y="-764.5" font-family="Helvetica,sans-Serif" font-size="10.00" fill="#000000">&#45; mapLoaded</text>
<text text-anchor="start" x="167" y="-753.5" font-family="Helvetica,sans-Serif" font-size="10.00" fill="#000000">&#45; ip</text>
<text text-anchor="start" x="167" y="-742.5" font-family="Helvetica,sans-Serif" font-size="10.00" fill="#000000">&#45; port</text>
<text text-anchor="start" x="167" y="-731.5" font-family="Helvetica,sans-Serif" font-size="10.00" fill="#000000">&#45; balanceLabel</text>
<text text-anchor="start" x="167" y="-720.5" font-family="Helvetica,sans-Serif" font-size="10.00" fill="#000000">&#45; timeLabel</text>
<text text-anchor="start" x="167" y="-709.5" font-family="Helvetica,sans-Serif" font-size="10.00" fill="#000000">&#45; positionLabel</text>
<text text-anchor="start" x="167" y="-698.5" font-family="Helvetica,sans-Serif" font-size="10.00" fill="#000000">&#45; statusDisplay</text>
<text text-anchor="start" x="167" y="-687.5" font-family="Helvetica,sans-Serif" font-size="10.00" fill="#000000">&#45; connectionLabel</text>
<text text-anchor="start" x="167" y="-676.5" font-family="Helvetica,sans-Serif" font-size="10.00" fill="#000000">&#45; mode</text>
<polyline fill="none" stroke="#000000" points="159,-669.5 296,-669.5 "/>
<text text-anchor="start" x="167" y="-657.5" font-family="Helvetica,sans-Serif" font-size="10.00" fill="#000000">+ DataModel()</text>
<text text-anchor="start" x="167" y="-646.5" font-family="Helvetica,sans-Serif" font-size="10.00" fill="#000000">+ getBalance()</text>
<text text-anchor="start" x="167" y="-635.5" font-family="Helvetica,sans-Serif" font-size="10.00" fill="#000000">+ updateBalance()</text>
<text text-anchor="start" x="167" y="-624.5" font-family="Helvetica,sans-Serif" font-size="10.00" fill="#000000">+ takeBalance()</text>
<text text-anchor="start" x="167" y="-613.5" font-family="Helvetica,sans-Serif" font-size="10.00" fill="#000000">+ timeTick()</text>
<text text-anchor="start" x="167" y="-602.5" font-family="Helvetica,sans-Serif" font-size="10.00" fill="#000000">+ getTime()</text>
<text text-anchor="start" x="167" y="-591.5" font-family="Helvetica,sans-Serif" font-size="10.00" fill="#000000">+ setTime()</text>
<text text-anchor="start" x="167" y="-580.5" font-family="Helvetica,sans-Serif" font-size="10.00" fill="#000000">+ getSystemMillis()</text>
<text text-anchor="start" x="167" y="-569.5" font-family="Helvetica,sans-Serif" font-size="10.00" fill="#000000">+ updateCoordinates()</text>
<text text-anchor="start" x="167" y="-558.5" font-family="Helvetica,sans-Serif" font-size="10.00" fill="#000000">+ getHoverX()</text>
<text text-anchor="start" x="167" y="-547.5" font-family="Helvetica,sans-Serif" font-size="10.00" fill="#000000">und 14 mehr ...</text>
<text text-anchor="start" x="167" y="-536.5" font-family="Helvetica,sans-Serif" font-size="10.00" fill="#000000">+ setDefaultMode()</text>
<text text-anchor="start" x="167" y="-525.5" font-family="Helvetica,sans-Serif" font-size="10.00" fill="#000000">+ setTrainStationMode()</text>
<text text-anchor="start" x="167" y="-514.5" font-family="Helvetica,sans-Serif" font-size="10.00" fill="#000000">+ setDepotMode()</text>
<text text-anchor="start" x="167" y="-503.5" font-family="Helvetica,sans-Serif" font-size="10.00" fill="#000000">+ setTerminalMode()</text>
<text text-anchor="start" x="167" y="-492.5" font-family="Helvetica,sans-Serif" font-size="10.00" fill="#000000">+ setBridgeMode()</text>
<text text-anchor="start" x="167" y="-481.5" font-family="Helvetica,sans-Serif" font-size="10.00" fill="#000000">+ setRailPlacementMode()</text>
<text text-anchor="start" x="167" y="-470.5" font-family="Helvetica,sans-Serif" font-size="10.00" fill="#000000">+ setRemoveMode()</text>
<text text-anchor="start" x="167" y="-459.5" font-family="Helvetica,sans-Serif" font-size="10.00" fill="#000000">+ setMapLoaded()</text>
</a>
</g>
</g>
<!-- Node10&#45;&gt;Node11 -->
<g id="edge15" class="edge">
<title>Node10&#45;&gt;Node11</title>
<path fill="none" stroke="#404040" d="M291.7272,-937.9209C274.3511,-918.9333 255.7533,-894.6364 245.5,-869 243.1928,-863.2312 241.1036,-857.3127 239.2142,-851.2856"/>
<polygon fill="none" stroke="#404040" points="239.1602,-851.0987 233.6491,-846.4481 235.8223,-839.5723 241.3334,-844.2229 239.1602,-851.0987"/>
<text text-anchor="middle" x="282" y="-861" font-family="Helvetica,sans-Serif" font-size="10.00" fill="#000000"> +secondPlayer</text>
</g>
<!-- Node11&#45;&gt;Node1 -->
<g id="edge16" class="edge">
<title>Node11&#45;&gt;Node1</title>
<path fill="none" stroke="#404040" d="M227.8379,-452.4078C228.0127,-352.2128 228.2172,-235.0173 228.3522,-157.6832"/>
<polygon fill="none" stroke="#404040" points="228.3522,-157.6225 224.3627,-151.6155 228.3733,-145.6225 232.3627,-151.6295 228.3522,-157.6225"/>
<text text-anchor="middle" x="256" y="-291" font-family="Helvetica,sans-Serif" font-size="10.00" fill="#000000"> &#45;dataModel</text>
</g>
<!-- Node11&#45;&gt;Node3 -->
<g id="edge12" class="edge">
<title>Node11&#45;&gt;Node3</title>
<path fill="none" stroke="#404040" d="M244.3405,-452.4758C249.4264,-438.2671 255.7259,-424.5904 263.5,-412 264.3004,-410.7038 312.1608,-376.7948 356.4353,-345.5838"/>
<polygon fill="none" stroke="#404040" points="356.5881,-345.4761 359.1887,-338.7502 366.3974,-338.5638 363.7969,-345.2897 356.5881,-345.4761"/>
<text text-anchor="middle" x="291" y="-420.5" font-family="Helvetica,sans-Serif" font-size="10.00" fill="#000000"> &#45;dataModel</text>
</g>
<!-- Node12 -->
<g id="node12" class="node">
<title>Node12</title>
<g id="a_node12"><a xlink:title=" ">
<polygon fill="#ffffff" stroke="#bfbfbf" points="0,-948 0,-1005 53,-1005 53,-948 0,-948"/>
<text text-anchor="middle" x="26.5" y="-993" font-family="Helvetica,sans-Serif" font-size="10.00" fill="#000000">QObject</text>
<polyline fill="none" stroke="#bfbfbf" points="0,-986 53,-986 "/>
<text text-anchor="middle" x="26.5" y="-974" font-family="Helvetica,sans-Serif" font-size="10.00" fill="#000000"> </text>
<polyline fill="none" stroke="#bfbfbf" points="0,-967 53,-967 "/>
<text text-anchor="middle" x="26.5" y="-955" font-family="Helvetica,sans-Serif" font-size="10.00" fill="#000000"> </text>
</a>
</g>
</g>
<!-- Node12&#45;&gt;Node11 -->
<g id="edge13" class="edge">
<title>Node12&#45;&gt;Node11</title>
<path fill="none" stroke="#191970" d="M39.2484,-938.2525C45.204,-922.0627 52.8847,-903.2312 61.5,-887 89.4877,-834.2713 126.7542,-779.1752 158.8858,-734.9931"/>
<polygon fill="none" stroke="#191970" points="35.8538,-937.3502 35.7703,-947.9447 42.4424,-939.7146 35.8538,-937.3502"/>
</g>
<!-- Node13 -->
<g id="node13" class="node">
<title>Node13</title>
<g id="a_node13"><a xlink:href="classAnimationManager.html" target="_top" xlink:title=" ">
<polygon fill="#ffffff" stroke="#000000" points="71,-937 71,-1016 190,-1016 190,-937 71,-937"/>
<text text-anchor="middle" x="130.5" y="-1004" font-family="Helvetica,sans-Serif" font-size="10.00" fill="#000000">AnimationManager</text>
<polyline fill="none" stroke="#000000" points="71,-997 190,-997 "/>
<text text-anchor="start" x="79" y="-985" font-family="Helvetica,sans-Serif" font-size="10.00" fill="#000000">&#45; movementAnimations</text>
<polyline fill="none" stroke="#000000" points="71,-978 190,-978 "/>
<text text-anchor="start" x="79" y="-966" font-family="Helvetica,sans-Serif" font-size="10.00" fill="#000000">+ AnimationManager()</text>
<text text-anchor="start" x="79" y="-955" font-family="Helvetica,sans-Serif" font-size="10.00" fill="#000000">+ tick()</text>
<text text-anchor="start" x="79" y="-944" font-family="Helvetica,sans-Serif" font-size="10.00" fill="#000000">+ animateMovement()</text>
</a>
</g>
</g>
<!-- Node13&#45;&gt;Node11 -->
<g id="edge14" class="edge">
<title>Node13&#45;&gt;Node11</title>
<path fill="none" stroke="#404040" d="M126.7648,-936.8098C125.5829,-913.5742 125.8127,-883.8181 131.5,-858 136.766,-834.0944 144.9164,-809.6299 154.291,-786.2101"/>
<polygon fill="none" stroke="#404040" points="154.418,-785.9013 153.002,-778.8306 158.9842,-774.804 160.4002,-781.8747 154.418,-785.9013"/>
<text text-anchor="middle" x="177" y="-861" font-family="Helvetica,sans-Serif" font-size="10.00" fill="#000000"> &#45;animationManager</text>
</g>
</g>
</svg>
