<?xml version="1.0" encoding="UTF-8" standalone="no"?>
<!DOCTYPE svg PUBLIC "-//W3C//DTD SVG 1.1//EN"
 "http://www.w3.org/Graphics/SVG/1.1/DTD/svg11.dtd">
<!-- Generated by graphviz version 2.40.1 (20161225.0304)
 -->
<!-- Title: View Pages: 1 -->
<!--zoomable 1417 -->
<svg id="main" version="1.1" xmlns="http://www.w3.org/2000/svg" xmlns:xlink="http://www.w3.org/1999/xlink" xml:space="preserve" onload="init(evt)">
<style type="text/css"><![CDATA[
.edge:hover path { stroke: red; }
.edge:hover polygon { stroke: red; fill: red; }
]]></style>
<script type="text/javascript"><![CDATA[
var edges = document.getElementsByTagName('g');
if (edges && edges.length) {
  for (var i=0;i<edges.length;i++) {
    if (edges[i].id.substr(0,4)=='edge') {
      edges[i].setAttribute('class','edge');
    }
  }
}
]]></script>
        <defs>
                <circle id="rim" cx="0" cy="0" r="7"/>
                <circle id="rim2" cx="0" cy="0" r="3.5"/>
                <g id="zoomPlus">
                        <use xlink:href="#rim" fill="#404040">
                                <set attributeName="fill" to="#808080" begin="zoomplus.mouseover" end="zoomplus.mouseout"/>
                        </use>
                        <path d="M-4,0h8M0,-4v8" fill="none" stroke="white" stroke-width="1.5" pointer-events="none"/>
                </g>
                <g id="zoomMin">
                        <use xlink:href="#rim" fill="#404040">
                                <set attributeName="fill" to="#808080" begin="zoomminus.mouseover" end="zoomminus.mouseout"/>
                        </use>
                        <path d="M-4,0h8" fill="none" stroke="white" stroke-width="1.5" pointer-events="none"/>
                </g>
                <g id="dirArrow">
                        <path fill="none" stroke="white" stroke-width="1.5" d="M0,-3.0v7 M-2.5,-0.5L0,-3.0L2.5,-0.5"/>
                </g>
               <g id="resetDef">
                       <use xlink:href="#rim2" fill="#404040">
                               <set attributeName="fill" to="#808080" begin="reset.mouseover" end="reset.mouseout"/>
                       </use>
               </g>
        </defs>

<script type="text/javascript">
var viewWidth = 808;
var viewHeight = 1417;
var sectionId = 'dynsection-1';
</script>
<script xlink:href="svgpan.js"/>
<svg id="graph" class="graph">
<g id="viewport">
<title>View</title>
<polygon fill="#ffffff" stroke="transparent" points="-4,4 -4,-1413 803.5,-1413 803.5,4 -4,4"/>
<!-- Node1 -->
<g id="node1" class="node">
<title>Node1</title>
<g id="a_node1"><a xlink:title=" ">
<polygon fill="#bfbfbf" stroke="#000000" points="134,-.5 134,-310.5 259,-310.5 259,-.5 134,-.5"/>
<text text-anchor="middle" x="196.5" y="-298.5" font-family="Helvetica,sans-Serif" font-size="10.00" fill="#000000">View</text>
<polyline fill="none" stroke="#000000" points="134,-291.5 259,-291.5 "/>
<text text-anchor="start" x="142" y="-279.5" font-family="Helvetica,sans-Serif" font-size="10.00" fill="#000000">+ currentScale</text>
<text text-anchor="start" x="142" y="-268.5" font-family="Helvetica,sans-Serif" font-size="10.00" fill="#000000">&#45; dragOriginX</text>
<text text-anchor="start" x="142" y="-257.5" font-family="Helvetica,sans-Serif" font-size="10.00" fill="#000000">&#45; dragOriginY</text>
<text text-anchor="start" x="142" y="-246.5" font-family="Helvetica,sans-Serif" font-size="10.00" fill="#000000">&#45; dragPosX</text>
<text text-anchor="start" x="142" y="-235.5" font-family="Helvetica,sans-Serif" font-size="10.00" fill="#000000">&#45; dragPosY</text>
<text text-anchor="start" x="142" y="-224.5" font-family="Helvetica,sans-Serif" font-size="10.00" fill="#000000">&#45; mouseX</text>
<text text-anchor="start" x="142" y="-213.5" font-family="Helvetica,sans-Serif" font-size="10.00" fill="#000000">&#45; mouseY</text>
<text text-anchor="start" x="142" y="-202.5" font-family="Helvetica,sans-Serif" font-size="10.00" fill="#000000">&#45; mouseDown</text>
<text text-anchor="start" x="142" y="-191.5" font-family="Helvetica,sans-Serif" font-size="10.00" fill="#000000">&#45; doAnimations</text>
<polyline fill="none" stroke="#000000" points="134,-184.5 259,-184.5 "/>
<text text-anchor="start" x="142" y="-172.5" font-family="Helvetica,sans-Serif" font-size="10.00" fill="#000000">+ View()</text>
<text text-anchor="start" x="142" y="-161.5" font-family="Helvetica,sans-Serif" font-size="10.00" fill="#000000">+ mousePressEvent()</text>
<text text-anchor="start" x="142" y="-150.5" font-family="Helvetica,sans-Serif" font-size="10.00" fill="#000000">+ mouseReleaseEvent()</text>
<text text-anchor="start" x="142" y="-139.5" font-family="Helvetica,sans-Serif" font-size="10.00" fill="#000000">+ mouseMoveEvent()</text>
<text text-anchor="start" x="142" y="-128.5" font-family="Helvetica,sans-Serif" font-size="10.00" fill="#000000">+ wheelEvent()</text>
<text text-anchor="start" x="142" y="-117.5" font-family="Helvetica,sans-Serif" font-size="10.00" fill="#000000">+ keyPressEvent()</text>
<text text-anchor="start" x="142" y="-106.5" font-family="Helvetica,sans-Serif" font-size="10.00" fill="#000000">+ fluidZoom()</text>
<text text-anchor="start" x="142" y="-95.5" font-family="Helvetica,sans-Serif" font-size="10.00" fill="#000000">+ fluidMove()</text>
<text text-anchor="start" x="142" y="-84.5" font-family="Helvetica,sans-Serif" font-size="10.00" fill="#000000">+ fluidMovement()</text>
<text text-anchor="start" x="142" y="-73.5" font-family="Helvetica,sans-Serif" font-size="10.00" fill="#000000">+ enableAnimation()</text>
<text text-anchor="start" x="142" y="-62.5" font-family="Helvetica,sans-Serif" font-size="10.00" fill="#000000">+ setDataModel()</text>
<text text-anchor="start" x="142" y="-51.5" font-family="Helvetica,sans-Serif" font-size="10.00" fill="#000000">+ paintEvent()</text>
<text text-anchor="start" x="142" y="-40.5" font-family="Helvetica,sans-Serif" font-size="10.00" fill="#000000">+ tick()</text>
<text text-anchor="start" x="142" y="-29.5" font-family="Helvetica,sans-Serif" font-size="10.00" fill="#000000">+ zoomInAnimation()</text>
<text text-anchor="start" x="142" y="-18.5" font-family="Helvetica,sans-Serif" font-size="10.00" fill="#000000">&#45; leftclick()</text>
<text text-anchor="start" x="142" y="-7.5" font-family="Helvetica,sans-Serif" font-size="10.00" fill="#000000">&#45; rightclick()</text>
</a>
</g>
</g>
<!-- Node2 -->
<g id="node2" class="node">
<title>Node2</title>
<g id="a_node2"><a xlink:title=" ">
<polygon fill="#ffffff" stroke="#bfbfbf" points="0,-430 0,-487 87,-487 87,-430 0,-430"/>
<text text-anchor="middle" x="43.5" y="-475" font-family="Helvetica,sans-Serif" font-size="10.00" fill="#000000">QGraphicsView</text>
<polyline fill="none" stroke="#bfbfbf" points="0,-468 87,-468 "/>
<text text-anchor="middle" x="43.5" y="-456" font-family="Helvetica,sans-Serif" font-size="10.00" fill="#000000"> </text>
<polyline fill="none" stroke="#bfbfbf" points="0,-449 87,-449 "/>
<text text-anchor="middle" x="43.5" y="-437" font-family="Helvetica,sans-Serif" font-size="10.00" fill="#000000"> </text>
</a>
</g>
</g>
<!-- Node2&#45;&gt;Node1 -->
<g id="edge1" class="edge">
<title>Node2&#45;&gt;Node1</title>
<path fill="none" stroke="#191970" d="M62.4425,-420.9864C80.3315,-385.5593 108.1741,-330.42 133.8599,-279.5519"/>
<polygon fill="none" stroke="#191970" points="59.2771,-419.4903 57.8939,-429.9945 65.5257,-422.6456 59.2771,-419.4903"/>
</g>
<!-- Node3 -->
<g id="node3" class="node">
<title>Node3</title>
<g id="a_node3"><a xlink:href="classScene.html" target="_top" xlink:title=" ">
<polygon fill="#ffffff" stroke="#000000" points="320.5,-358.5 320.5,-558.5 448.5,-558.5 448.5,-358.5 320.5,-358.5"/>
<text text-anchor="middle" x="384.5" y="-546.5" font-family="Helvetica,sans-Serif" font-size="10.00" fill="#000000">Scene</text>
<polyline fill="none" stroke="#000000" points="320.5,-539.5 448.5,-539.5 "/>
<text text-anchor="start" x="328.5" y="-527.5" font-family="Helvetica,sans-Serif" font-size="10.00" fill="#000000">+ MAP_SIZE</text>
<text text-anchor="start" x="328.5" y="-516.5" font-family="Helvetica,sans-Serif" font-size="10.00" fill="#000000">+ TILE_SIZE</text>
<text text-anchor="start" x="328.5" y="-505.5" font-family="Helvetica,sans-Serif" font-size="10.00" fill="#000000">&#45; radiusHighlighter</text>
<text text-anchor="start" x="328.5" y="-494.5" font-family="Helvetica,sans-Serif" font-size="10.00" fill="#000000">&#45; textHint</text>
<text text-anchor="start" x="328.5" y="-483.5" font-family="Helvetica,sans-Serif" font-size="10.00" fill="#000000">&#45; showRadius</text>
<text text-anchor="start" x="328.5" y="-472.5" font-family="Helvetica,sans-Serif" font-size="10.00" fill="#000000">&#45; players</text>
<polyline fill="none" stroke="#000000" points="320.5,-465.5 448.5,-465.5 "/>
<text text-anchor="start" x="328.5" y="-453.5" font-family="Helvetica,sans-Serif" font-size="10.00" fill="#000000">+ Scene()</text>
<text text-anchor="start" x="328.5" y="-442.5" font-family="Helvetica,sans-Serif" font-size="10.00" fill="#000000">+ generateWorld()</text>
<text text-anchor="start" x="328.5" y="-431.5" font-family="Helvetica,sans-Serif" font-size="10.00" fill="#000000">+ setActiveTile()</text>
<text text-anchor="start" x="328.5" y="-420.5" font-family="Helvetica,sans-Serif" font-size="10.00" fill="#000000">+ getTileAt()</text>
<text text-anchor="start" x="328.5" y="-409.5" font-family="Helvetica,sans-Serif" font-size="10.00" fill="#000000">+ setTileAt()</text>
<text text-anchor="start" x="328.5" y="-398.5" font-family="Helvetica,sans-Serif" font-size="10.00" fill="#000000">+ tileChanged()</text>
<text text-anchor="start" x="328.5" y="-387.5" font-family="Helvetica,sans-Serif" font-size="10.00" fill="#000000">+ tick()</text>
<text text-anchor="start" x="328.5" y="-376.5" font-family="Helvetica,sans-Serif" font-size="10.00" fill="#000000">+ onSetTile()</text>
<text text-anchor="start" x="328.5" y="-365.5" font-family="Helvetica,sans-Serif" font-size="10.00" fill="#000000">+ updatePlayerPosition()</text>
</a>
</g>
</g>
<!-- Node3&#45;&gt;Node1 -->
<g id="edge2" class="edge">
<title>Node3&#45;&gt;Node1</title>
<path fill="none" stroke="#404040" d="M322.4207,-358.4467C304.2428,-329.1493 284.2577,-296.9392 265.6682,-266.9786"/>
<polygon fill="none" stroke="#404040" points="265.4831,-266.6802 258.9208,-263.6907 259.1564,-256.4834 265.7187,-259.4729 265.4831,-266.6802"/>
<text text-anchor="middle" x="326" y="-332" font-family="Helvetica,sans-Serif" font-size="10.00" fill="#000000"> +scene</text>
</g>
<!-- Node4 -->
<g id="node4" class="node">
<title>Node4</title>
<g id="a_node4"><a xlink:title=" ">
<polygon fill="#ffffff" stroke="#bfbfbf" points="593.5,-766 593.5,-823 687.5,-823 687.5,-766 593.5,-766"/>
<text text-anchor="middle" x="640.5" y="-811" font-family="Helvetica,sans-Serif" font-size="10.00" fill="#000000">QGraphicsScene</text>
<polyline fill="none" stroke="#bfbfbf" points="593.5,-804 687.5,-804 "/>
<text text-anchor="middle" x="640.5" y="-792" font-family="Helvetica,sans-Serif" font-size="10.00" fill="#000000"> </text>
<polyline fill="none" stroke="#bfbfbf" points="593.5,-785 687.5,-785 "/>
<text text-anchor="middle" x="640.5" y="-773" font-family="Helvetica,sans-Serif" font-size="10.00" fill="#000000"> </text>
</a>
</g>
</g>
<!-- Node4&#45;&gt;Node3 -->
<g id="edge3" class="edge">
<title>Node4&#45;&gt;Node3</title>
<path fill="none" stroke="#191970" d="M633.6479,-755.6894C625.5217,-717.6953 609.1743,-659.4889 579.5,-617 545.0276,-567.6409 491.056,-525.4389 448.6251,-497.0208"/>
<polygon fill="none" stroke="#191970" points="630.2913,-756.7451 635.7261,-765.8398 637.1491,-755.341 630.2913,-756.7451"/>
</g>
<!-- Node5 -->
<g id="node5" class="node">
<title>Node5</title>
<g id="a_node5"><a xlink:href="classHighlighter.html" target="_top" xlink:title=" ">
<polygon fill="#ffffff" stroke="#000000" points="432,-1245.5 432,-1313.5 511,-1313.5 511,-1245.5 432,-1245.5"/>
<text text-anchor="middle" x="471.5" y="-1301.5" font-family="Helvetica,sans-Serif" font-size="10.00" fill="#000000">Highlighter</text>
<polyline fill="none" stroke="#000000" points="432,-1294.5 511,-1294.5 "/>
<text text-anchor="start" x="440" y="-1282.5" font-family="Helvetica,sans-Serif" font-size="10.00" fill="#000000">&#45; outline</text>
<polyline fill="none" stroke="#000000" points="432,-1275.5 511,-1275.5 "/>
<text text-anchor="start" x="440" y="-1263.5" font-family="Helvetica,sans-Serif" font-size="10.00" fill="#000000">+ Highlighter()</text>
<text text-anchor="start" x="440" y="-1252.5" font-family="Helvetica,sans-Serif" font-size="10.00" fill="#000000">+ setColor()</text>
</a>
</g>
</g>
<!-- Node5&#45;&gt;Node3 -->
<g id="edge4" class="edge">
<title>Node5&#45;&gt;Node3</title>
<path fill="none" stroke="#404040" d="M508.9921,-1245.2337C563.2528,-1192.7274 661.0504,-1086.3641 696.5,-972 719.857,-896.6481 737.7597,-684.2391 696.5,-617 682.8826,-594.8084 547.6107,-531.2695 459.7104,-491.7059"/>
<polygon fill="none" stroke="#404040" points="459.653,-491.6802 452.5411,-492.8724 448.7052,-486.7662 455.8171,-485.5739 459.653,-491.6802"/>
<text text-anchor="middle" x="716.5" y="-993" font-family="Helvetica,sans-Serif" font-size="10.00" fill="#000000"> &#45;highlighter</text>
</g>
<!-- Node10 -->
<g id="node10" class="node">
<title>Node10</title>
<g id="a_node10"><a xlink:href="classPlayer.html" target="_top" xlink:title=" ">
<polygon fill="#ffffff" stroke="#000000" points="186,-1069 186,-1148 267,-1148 267,-1069 186,-1069"/>
<text text-anchor="middle" x="226.5" y="-1136" font-family="Helvetica,sans-Serif" font-size="10.00" fill="#000000">Player</text>
<polyline fill="none" stroke="#000000" points="186,-1129 267,-1129 "/>
<text text-anchor="start" x="194" y="-1117" font-family="Helvetica,sans-Serif" font-size="10.00" fill="#000000">+ posX</text>
<text text-anchor="start" x="194" y="-1106" font-family="Helvetica,sans-Serif" font-size="10.00" fill="#000000">+ posY</text>
<polyline fill="none" stroke="#000000" points="186,-1099 267,-1099 "/>
<text text-anchor="start" x="194" y="-1087" font-family="Helvetica,sans-Serif" font-size="10.00" fill="#000000">+ Player()</text>
<text text-anchor="start" x="194" y="-1076" font-family="Helvetica,sans-Serif" font-size="10.00" fill="#000000">+ setPosition()</text>
</a>
</g>
</g>
<!-- Node5&#45;&gt;Node10 -->
<g id="edge11" class="edge">
<title>Node5&#45;&gt;Node10</title>
<path fill="none" stroke="#404040" d="M431.8707,-1267.5222C393.8396,-1254.6595 336.1871,-1231.4557 294.5,-1198 280.6612,-1186.8938 268.0743,-1172.3857 257.5958,-1158.2937"/>
<polygon fill="none" stroke="#404040" points="257.3302,-1157.9221 250.5866,-1155.3678 250.3508,-1148.1605 257.0944,-1150.7148 257.3302,-1157.9221"/>
<text text-anchor="middle" x="362" y="-1219" font-family="Helvetica,sans-Serif" font-size="10.00" fill="#000000"> +highlighter</text>
</g>
<!-- Node6 -->
<g id="node6" class="node">
<title>Node6</title>
<g id="a_node6"><a xlink:title=" ">
<polygon fill="#ffffff" stroke="#bfbfbf" points="419.5,-1351.5 419.5,-1408.5 523.5,-1408.5 523.5,-1351.5 419.5,-1351.5"/>
<text text-anchor="middle" x="471.5" y="-1396.5" font-family="Helvetica,sans-Serif" font-size="10.00" fill="#000000">QGraphicsRectItem</text>
<polyline fill="none" stroke="#bfbfbf" points="419.5,-1389.5 523.5,-1389.5 "/>
<text text-anchor="middle" x="471.5" y="-1377.5" font-family="Helvetica,sans-Serif" font-size="10.00" fill="#000000"> </text>
<polyline fill="none" stroke="#bfbfbf" points="419.5,-1370.5 523.5,-1370.5 "/>
<text text-anchor="middle" x="471.5" y="-1358.5" font-family="Helvetica,sans-Serif" font-size="10.00" fill="#000000"> </text>
</a>
</g>
</g>
<!-- Node6&#45;&gt;Node5 -->
<g id="edge5" class="edge">
<title>Node6&#45;&gt;Node5</title>
<path fill="none" stroke="#191970" d="M471.5,-1341.1903C471.5,-1332.1667 471.5,-1322.6233 471.5,-1313.8097"/>
<polygon fill="none" stroke="#191970" points="468.0001,-1341.4695 471.5,-1351.4696 475.0001,-1341.4696 468.0001,-1341.4695"/>
</g>
<!-- Node7 -->
<g id="node7" class="node">
<title>Node7</title>
<g id="a_node7"><a xlink:href="classMapTile.html" target="_top" xlink:title=" ">
<polygon fill="#ffffff" stroke="#000000" points="314.5,-678 314.5,-911 454.5,-911 454.5,-678 314.5,-678"/>
<text text-anchor="middle" x="384.5" y="-899" font-family="Helvetica,sans-Serif" font-size="10.00" fill="#000000">MapTile</text>
<polyline fill="none" stroke="#000000" points="314.5,-892 454.5,-892 "/>
<text text-anchor="start" x="322.5" y="-880" font-family="Helvetica,sans-Serif" font-size="10.00" fill="#000000">&#45; type</text>
<text text-anchor="start" x="322.5" y="-869" font-family="Helvetica,sans-Serif" font-size="10.00" fill="#000000">&#45; pixmapItem</text>
<text text-anchor="start" x="322.5" y="-858" font-family="Helvetica,sans-Serif" font-size="10.00" fill="#000000">&#45; currentRotation</text>
<polyline fill="none" stroke="#000000" points="314.5,-851 454.5,-851 "/>
<text text-anchor="start" x="322.5" y="-839" font-family="Helvetica,sans-Serif" font-size="10.00" fill="#000000">+ MapTile()</text>
<text text-anchor="start" x="322.5" y="-828" font-family="Helvetica,sans-Serif" font-size="10.00" fill="#000000">+ MapTile()</text>
<text text-anchor="start" x="322.5" y="-817" font-family="Helvetica,sans-Serif" font-size="10.00" fill="#000000">+ setType()</text>
<text text-anchor="start" x="322.5" y="-806" font-family="Helvetica,sans-Serif" font-size="10.00" fill="#000000">+ getType()</text>
<text text-anchor="start" x="322.5" y="-795" font-family="Helvetica,sans-Serif" font-size="10.00" fill="#000000">+ setRotation()</text>
<text text-anchor="start" x="322.5" y="-784" font-family="Helvetica,sans-Serif" font-size="10.00" fill="#000000">+ getRotation()</text>
<text text-anchor="start" x="322.5" y="-773" font-family="Helvetica,sans-Serif" font-size="10.00" fill="#000000">+ setPosition()</text>
<text text-anchor="start" x="322.5" y="-762" font-family="Helvetica,sans-Serif" font-size="10.00" fill="#000000">+ isRiver()</text>
<text text-anchor="start" x="322.5" y="-751" font-family="Helvetica,sans-Serif" font-size="10.00" fill="#000000">+ isRail()</text>
<text text-anchor="start" x="322.5" y="-740" font-family="Helvetica,sans-Serif" font-size="10.00" fill="#000000">+ getPixmapItem()</text>
<text text-anchor="start" x="322.5" y="-729" font-family="Helvetica,sans-Serif" font-size="10.00" fill="#000000">+ getCity()</text>
<text text-anchor="start" x="322.5" y="-718" font-family="Helvetica,sans-Serif" font-size="10.00" fill="#000000">+ setCity()</text>
<text text-anchor="start" x="322.5" y="-707" font-family="Helvetica,sans-Serif" font-size="10.00" fill="#000000">+ getX()</text>
<text text-anchor="start" x="322.5" y="-696" font-family="Helvetica,sans-Serif" font-size="10.00" fill="#000000">+ getY()</text>
<text text-anchor="start" x="322.5" y="-685" font-family="Helvetica,sans-Serif" font-size="10.00" fill="#000000">+ attachGraphicsManager()</text>
</a>
</g>
</g>
<!-- Node7&#45;&gt;Node3 -->
<g id="edge6" class="edge">
<title>Node7&#45;&gt;Node3</title>
<path fill="none" stroke="#404040" d="M384.5,-677.9265C384.5,-643.1687 384.5,-605.1607 384.5,-570.6895"/>
<polygon fill="none" stroke="#404040" points="384.5001,-570.6552 380.5,-564.6553 384.5,-558.6552 388.5,-564.6552 384.5001,-570.6552"/>
<text text-anchor="middle" x="410.5" y="-591" font-family="Helvetica,sans-Serif" font-size="10.00" fill="#000000"> &#45;activeTile</text>
<text text-anchor="middle" x="410.5" y="-580" font-family="Helvetica,sans-Serif" font-size="10.00" fill="#000000">+data</text>
</g>
<!-- Node8 -->
<g id="node8" class="node">
<title>Node8</title>
<g id="a_node8"><a xlink:href="classGraphicsManager.html" target="_top" xlink:title=" ">
<polygon fill="#ffffff" stroke="#000000" points="420,-1074.5 420,-1142.5 533,-1142.5 533,-1074.5 420,-1074.5"/>
<text text-anchor="middle" x="476.5" y="-1130.5" font-family="Helvetica,sans-Serif" font-size="10.00" fill="#000000">GraphicsManager</text>
<polyline fill="none" stroke="#000000" points="420,-1123.5 533,-1123.5 "/>
<text text-anchor="start" x="428" y="-1111.5" font-family="Helvetica,sans-Serif" font-size="10.00" fill="#000000">+ GRAPHICS</text>
<polyline fill="none" stroke="#000000" points="420,-1104.5 533,-1104.5 "/>
<text text-anchor="start" x="428" y="-1092.5" font-family="Helvetica,sans-Serif" font-size="10.00" fill="#000000">+ GraphicsManager()</text>
<text text-anchor="start" x="428" y="-1081.5" font-family="Helvetica,sans-Serif" font-size="10.00" fill="#000000">+ get()</text>
</a>
</g>
</g>
<!-- Node8&#45;&gt;Node3 -->
<g id="edge9" class="edge">
<title>Node8&#45;&gt;Node3</title>
<path fill="none" stroke="#404040" d="M480.6721,-1074.4272C489.493,-993.5235 505.927,-784.1253 463.5,-617 459.5126,-601.2929 453.8183,-585.3349 447.289,-569.8951"/>
<polygon fill="none" stroke="#404040" points="447.2224,-569.7433 441.1483,-565.8568 442.3996,-558.7551 448.4737,-562.6416 447.2224,-569.7433"/>
<text text-anchor="middle" x="534" y="-792" font-family="Helvetica,sans-Serif" font-size="10.00" fill="#000000"> &#45;graphicsManager</text>
</g>
<!-- Node8&#45;&gt;Node7 -->
<g id="edge7" class="edge">
<title>Node8&#45;&gt;Node7</title>
<path fill="none" stroke="#404040" d="M440.1097,-1074.3244C421.917,-1054.7863 401.657,-1028.6992 391.5,-1001 382.5577,-976.6134 378.1141,-949.5013 376.3396,-923.1565"/>
<polygon fill="none" stroke="#404040" points="376.3368,-923.1022 372.0267,-917.3209 375.7056,-911.1188 380.0157,-916.9 376.3368,-923.1022"/>
<text text-anchor="middle" x="434" y="-993" font-family="Helvetica,sans-Serif" font-size="10.00" fill="#000000"> &#45;graphicsManager</text>
</g>
<!-- Node9 -->
<g id="node9" class="node">
<title>Node9</title>
<g id="a_node9"><a xlink:href="classCity.html" target="_top" xlink:title=" ">
<polygon fill="#ffffff" stroke="#000000" points="304,-1019.5 304,-1197.5 387,-1197.5 387,-1019.5 304,-1019.5"/>
<text text-anchor="middle" x="345.5" y="-1185.5" font-family="Helvetica,sans-Serif" font-size="10.00" fill="#000000">City</text>
<polyline fill="none" stroke="#000000" points="304,-1178.5 387,-1178.5 "/>
<text text-anchor="start" x="312" y="-1166.5" font-family="Helvetica,sans-Serif" font-size="10.00" fill="#000000">&#45; size</text>
<text text-anchor="start" x="312" y="-1155.5" font-family="Helvetica,sans-Serif" font-size="10.00" fill="#000000">&#45; centerX</text>
<text text-anchor="start" x="312" y="-1144.5" font-family="Helvetica,sans-Serif" font-size="10.00" fill="#000000">&#45; centerY</text>
<text text-anchor="start" x="312" y="-1133.5" font-family="Helvetica,sans-Serif" font-size="10.00" fill="#000000">&#45; name</text>
<polyline fill="none" stroke="#000000" points="304,-1126.5 387,-1126.5 "/>
<text text-anchor="start" x="312" y="-1114.5" font-family="Helvetica,sans-Serif" font-size="10.00" fill="#000000">+ City()</text>
<text text-anchor="start" x="312" y="-1103.5" font-family="Helvetica,sans-Serif" font-size="10.00" fill="#000000">+ City()</text>
<text text-anchor="start" x="312" y="-1092.5" font-family="Helvetica,sans-Serif" font-size="10.00" fill="#000000">+ getSize()</text>
<text text-anchor="start" x="312" y="-1081.5" font-family="Helvetica,sans-Serif" font-size="10.00" fill="#000000">+ getCenterX()</text>
<text text-anchor="start" x="312" y="-1070.5" font-family="Helvetica,sans-Serif" font-size="10.00" fill="#000000">+ getCenterY()</text>
<text text-anchor="start" x="312" y="-1059.5" font-family="Helvetica,sans-Serif" font-size="10.00" fill="#000000">+ getName()</text>
<text text-anchor="start" x="312" y="-1048.5" font-family="Helvetica,sans-Serif" font-size="10.00" fill="#000000">+ setSize()</text>
<text text-anchor="start" x="312" y="-1037.5" font-family="Helvetica,sans-Serif" font-size="10.00" fill="#000000">+ setCenter()</text>
<text text-anchor="start" x="312" y="-1026.5" font-family="Helvetica,sans-Serif" font-size="10.00" fill="#000000">+ setName()</text>
</a>
</g>
</g>
<!-- Node9&#45;&gt;Node7 -->
<g id="edge8" class="edge">
<title>Node9&#45;&gt;Node7</title>
<path fill="none" stroke="#404040" d="M344.4901,-1019.4333C344.9006,-1009.4892 345.5429,-999.5188 346.5,-990 348.6917,-968.2016 352.1264,-945.2174 356.0545,-922.9697"/>
<polygon fill="none" stroke="#404040" points="356.0736,-922.8641 353.209,-916.2464 358.2159,-911.0569 361.0805,-917.6746 356.0736,-922.8641"/>
<text text-anchor="middle" x="357.5" y="-993" font-family="Helvetica,sans-Serif" font-size="10.00" fill="#000000"> &#45;city</text>
</g>
<!-- Node10&#45;&gt;Node3 -->
<g id="edge10" class="edge">
<title>Node10&#45;&gt;Node3</title>
<path fill="none" stroke="#404040" d="M223.6046,-1068.8943C216.7316,-967.0629 202.3717,-698.4231 235.5,-617 251.4301,-577.8469 281.9108,-542.6333 311.1744,-515.3982"/>
<polygon fill="none" stroke="#404040" points="311.3139,-515.2716 313.0685,-508.2772 320.1997,-507.2066 318.4451,-514.201 311.3139,-515.2716"/>
<text text-anchor="middle" x="270.5" y="-792" font-family="Helvetica,sans-Serif" font-size="10.00" fill="#000000"> &#45;secondPlayer</text>
</g>
<!-- Node11 -->
<g id="node11" class="node">
<title>Node11</title>
<g id="a_node11"><a xlink:href="classDataModel.html" target="_top" xlink:title=" ">
<polygon fill="#ffffff" stroke="#000000" points="53,-617.5 53,-971.5 190,-971.5 190,-617.5 53,-617.5"/>
<text text-anchor="middle" x="121.5" y="-959.5" font-family="Helvetica,sans-Serif" font-size="10.00" fill="#000000">DataModel</text>
<polyline fill="none" stroke="#000000" points="53,-952.5 190,-952.5 "/>
<text text-anchor="start" x="61" y="-940.5" font-family="Helvetica,sans-Serif" font-size="10.00" fill="#000000">&#45; balance</text>
<text text-anchor="start" x="61" y="-929.5" font-family="Helvetica,sans-Serif" font-size="10.00" fill="#000000">&#45; time</text>
<text text-anchor="start" x="61" y="-918.5" font-family="Helvetica,sans-Serif" font-size="10.00" fill="#000000">&#45; coordinateX</text>
<text text-anchor="start" x="61" y="-907.5" font-family="Helvetica,sans-Serif" font-size="10.00" fill="#000000">&#45; coordinateY</text>
<text text-anchor="start" x="61" y="-896.5" font-family="Helvetica,sans-Serif" font-size="10.00" fill="#000000">&#45; mapLoaded</text>
<text text-anchor="start" x="61" y="-885.5" font-family="Helvetica,sans-Serif" font-size="10.00" fill="#000000">&#45; ip</text>
<text text-anchor="start" x="61" y="-874.5" font-family="Helvetica,sans-Serif" font-size="10.00" fill="#000000">&#45; port</text>
<text text-anchor="start" x="61" y="-863.5" font-family="Helvetica,sans-Serif" font-size="10.00" fill="#000000">&#45; balanceLabel</text>
<text text-anchor="start" x="61" y="-852.5" font-family="Helvetica,sans-Serif" font-size="10.00" fill="#000000">&#45; timeLabel</text>
<text text-anchor="start" x="61" y="-841.5" font-family="Helvetica,sans-Serif" font-size="10.00" fill="#000000">&#45; positionLabel</text>
<text text-anchor="start" x="61" y="-830.5" font-family="Helvetica,sans-Serif" font-size="10.00" fill="#000000">&#45; statusDisplay</text>
<text text-anchor="start" x="61" y="-819.5" font-family="Helvetica,sans-Serif" font-size="10.00" fill="#000000">&#45; connectionLabel</text>
<text text-anchor="start" x="61" y="-808.5" font-family="Helvetica,sans-Serif" font-size="10.00" fill="#000000">&#45; mode</text>
<polyline fill="none" stroke="#000000" points="53,-801.5 190,-801.5 "/>
<text text-anchor="start" x="61" y="-789.5" font-family="Helvetica,sans-Serif" font-size="10.00" fill="#000000">+ DataModel()</text>
<text text-anchor="start" x="61" y="-778.5" font-family="Helvetica,sans-Serif" font-size="10.00" fill="#000000">+ getBalance()</text>
<text text-anchor="start" x="61" y="-767.5" font-family="Helvetica,sans-Serif" font-size="10.00" fill="#000000">+ updateBalance()</text>
<text text-anchor="start" x="61" y="-756.5" font-family="Helvetica,sans-Serif" font-size="10.00" fill="#000000">+ takeBalance()</text>
<text text-anchor="start" x="61" y="-745.5" font-family="Helvetica,sans-Serif" font-size="10.00" fill="#000000">+ timeTick()</text>
<text text-anchor="start" x="61" y="-734.5" font-family="Helvetica,sans-Serif" font-size="10.00" fill="#000000">+ getTime()</text>
<text text-anchor="start" x="61" y="-723.5" font-family="Helvetica,sans-Serif" font-size="10.00" fill="#000000">+ getSystemMillis()</text>
<text text-anchor="start" x="61" y="-712.5" font-family="Helvetica,sans-Serif" font-size="10.00" fill="#000000">+ updateCoordinates()</text>
<text text-anchor="start" x="61" y="-701.5" font-family="Helvetica,sans-Serif" font-size="10.00" fill="#000000">+ getHoverX()</text>
<text text-anchor="start" x="61" y="-690.5" font-family="Helvetica,sans-Serif" font-size="10.00" fill="#000000">+ getHoverY()</text>
<text text-anchor="start" x="61" y="-679.5" font-family="Helvetica,sans-Serif" font-size="10.00" fill="#000000">und 11 mehr ...</text>
<text text-anchor="start" x="61" y="-668.5" font-family="Helvetica,sans-Serif" font-size="10.00" fill="#000000">+ setDefaultMode()</text>
<text text-anchor="start" x="61" y="-657.5" font-family="Helvetica,sans-Serif" font-size="10.00" fill="#000000">+ setTrainStationMode()</text>
<text text-anchor="start" x="61" y="-646.5" font-family="Helvetica,sans-Serif" font-size="10.00" fill="#000000">+ setBridgeMode()</text>
<text text-anchor="start" x="61" y="-635.5" font-family="Helvetica,sans-Serif" font-size="10.00" fill="#000000">+ setRailPlacementMode()</text>
<text text-anchor="start" x="61" y="-624.5" font-family="Helvetica,sans-Serif" font-size="10.00" fill="#000000">+ setMapLoaded()</text>
</a>
</g>
</g>
<!-- Node10&#45;&gt;Node11 -->
<g id="edge14" class="edge">
<title>Node10&#45;&gt;Node11</title>
<path fill="none" stroke="#404040" d="M185.8019,-1069.8909C168.4414,-1050.897 149.8354,-1026.6034 139.5,-1001 137.181,-995.2553 135.0926,-989.3495 133.2141,-983.3302"/>
<polygon fill="none" stroke="#404040" points="133.1657,-983.1614 127.6656,-978.4978 129.855,-971.6271 135.3551,-976.2907 133.1657,-983.1614"/>
<text text-anchor="middle" x="176" y="-993" font-family="Helvetica,sans-Serif" font-size="10.00" fill="#000000"> +secondPlayer</text>
</g>
<!-- Node11&#45;&gt;Node1 -->
<g id="edge17" class="edge">
<title>Node11&#45;&gt;Node1</title>
<path fill="none" stroke="#404040" d="M137.2317,-617.2817C138.6147,-603.645 140.0439,-590.0964 141.5,-577 150.8079,-493.2808 162.7496,-400.4225 173.1261,-323.2184"/>
<polygon fill="none" stroke="#404040" points="173.1745,-322.8583 170.0118,-316.3778 174.7774,-310.9658 177.9401,-317.4464 173.1745,-322.8583"/>
<text text-anchor="middle" x="196" y="-456" font-family="Helvetica,sans-Serif" font-size="10.00" fill="#000000"> &#45;dataModel</text>
</g>
<!-- Node11&#45;&gt;Node3 -->
<g id="edge12" class="edge">
<title>Node11&#45;&gt;Node3</title>
<path fill="none" stroke="#404040" d="M136.061,-617.4795C141.5544,-603.0604 148.5754,-589.3214 157.5,-577 162.5691,-570.0015 245.2383,-527.7812 309.3629,-495.7114"/>
<polygon fill="none" stroke="#404040" points="309.5512,-495.6174 313.1321,-489.3582 320.2871,-490.2563 316.7062,-496.5155 309.5512,-495.6174"/>
<text text-anchor="middle" x="185" y="-585.5" font-family="Helvetica,sans-Serif" font-size="10.00" fill="#000000"> &#45;dataModel</text>
</g>
<!-- Node12 -->
<g id="node12" class="node">
<title>Node12</title>
<g id="a_node12"><a xlink:title=" ">
<polygon fill="#ffffff" stroke="#bfbfbf" points="79,-1080 79,-1137 132,-1137 132,-1080 79,-1080"/>
<text text-anchor="middle" x="105.5" y="-1125" font-family="Helvetica,sans-Serif" font-size="10.00" fill="#000000">QObject</text>
<polyline fill="none" stroke="#bfbfbf" points="79,-1118 132,-1118 "/>
<text text-anchor="middle" x="105.5" y="-1106" font-family="Helvetica,sans-Serif" font-size="10.00" fill="#000000"> </text>
<polyline fill="none" stroke="#bfbfbf" points="79,-1099 132,-1099 "/>
<text text-anchor="middle" x="105.5" y="-1087" font-family="Helvetica,sans-Serif" font-size="10.00" fill="#000000"> </text>
</a>
</g>
</g>
<!-- Node12&#45;&gt;Node11 -->
<g id="edge13" class="edge">
<title>Node12&#45;&gt;Node11</title>
<path fill="none" stroke="#191970" d="M107.4714,-1069.8115C108.7759,-1044.2101 110.5896,-1008.617 112.4805,-971.5079"/>
<polygon fill="none" stroke="#191970" points="103.9758,-1069.637 106.9623,-1079.8022 110.9668,-1069.9933 103.9758,-1069.637"/>
</g>
<!-- Node13 -->
<g id="node13" class="node">
<title>Node13</title>
<g id="a_node13"><a xlink:href="classToolTipMenu.html" target="_top" xlink:title=" ">
<polygon fill="#ffffff" stroke="#000000" points="615,-413.5 615,-503.5 708,-503.5 708,-413.5 615,-413.5"/>
<text text-anchor="middle" x="661.5" y="-491.5" font-family="Helvetica,sans-Serif" font-size="10.00" fill="#000000">ToolTipMenu</text>
<polyline fill="none" stroke="#000000" points="615,-484.5 708,-484.5 "/>
<text text-anchor="start" x="623" y="-472.5" font-family="Helvetica,sans-Serif" font-size="10.00" fill="#000000">&#45; textlabel</text>
<polyline fill="none" stroke="#000000" points="615,-465.5 708,-465.5 "/>
<text text-anchor="start" x="623" y="-453.5" font-family="Helvetica,sans-Serif" font-size="10.00" fill="#000000">+ ToolTipMenu()</text>
<text text-anchor="start" x="623" y="-442.5" font-family="Helvetica,sans-Serif" font-size="10.00" fill="#000000">+ hide()</text>
<text text-anchor="start" x="623" y="-431.5" font-family="Helvetica,sans-Serif" font-size="10.00" fill="#000000">+ showAt()</text>
<text text-anchor="start" x="623" y="-420.5" font-family="Helvetica,sans-Serif" font-size="10.00" fill="#000000">+ setText()</text>
</a>
</g>
</g>
<!-- Node13&#45;&gt;Node1 -->
<g id="edge15" class="edge">
<title>Node13&#45;&gt;Node1</title>
<path fill="none" stroke="#404040" d="M614.785,-428.0599C533.6779,-375.2095 366.2525,-266.1129 269.6255,-203.1495"/>
<polygon fill="none" stroke="#404040" points="269.4066,-203.0069 262.1958,-203.0826 259.3527,-196.4556 266.5634,-196.3799 269.4066,-203.0069"/>
<text text-anchor="middle" x="488" y="-332" font-family="Helvetica,sans-Serif" font-size="10.00" fill="#000000"> &#45;tooltip</text>
</g>
<!-- Node14 -->
<g id="node14" class="node">
<title>Node14</title>
<g id="a_node14"><a xlink:title=" ">
<polygon fill="#ffffff" stroke="#bfbfbf" points="743.5,-766 743.5,-823 799.5,-823 799.5,-766 743.5,-766"/>
<text text-anchor="middle" x="771.5" y="-811" font-family="Helvetica,sans-Serif" font-size="10.00" fill="#000000">QWidget</text>
<polyline fill="none" stroke="#bfbfbf" points="743.5,-804 799.5,-804 "/>
<text text-anchor="middle" x="771.5" y="-792" font-family="Helvetica,sans-Serif" font-size="10.00" fill="#000000"> </text>
<polyline fill="none" stroke="#bfbfbf" points="743.5,-785 799.5,-785 "/>
<text text-anchor="middle" x="771.5" y="-773" font-family="Helvetica,sans-Serif" font-size="10.00" fill="#000000"> </text>
</a>
</g>
</g>
<!-- Node14&#45;&gt;Node13 -->
<g id="edge16" class="edge">
<title>Node14&#45;&gt;Node13</title>
<path fill="none" stroke="#191970" d="M767.9232,-755.8251C762.945,-711.5082 751.8895,-637.2383 729.5,-577 720.038,-551.5427 705.4369,-525.1522 692.1866,-503.756"/>
<polygon fill="none" stroke="#191970" points="764.4557,-756.3155 769.006,-765.8834 771.4155,-755.5662 764.4557,-756.3155"/>
</g>
</g>
</svg>
        <g id="navigator" transform="translate(0 0)" fill="#404254">
                <rect fill="#f2f5e9" fill-opacity="0.5" stroke="#606060" stroke-width=".5" x="0" y="0" width="60" height="60"/>
                <use id="zoomplus" xlink:href="#zoomPlus" x="17" y="9" onmousedown="handleZoom(evt,'in')"/>
                <use id="zoomminus" xlink:href="#zoomMin" x="42" y="9" onmousedown="handleZoom(evt,'out')"/>
                <use id="reset" xlink:href="#resetDef" x="30" y="36" onmousedown="handleReset()"/>
                <g id="arrowUp" xlink:href="#dirArrow" transform="translate(30 24)" onmousedown="handlePan(0,-1)">
                  <use xlink:href="#rim" fill="#404040">
                        <set attributeName="fill" to="#808080" begin="arrowUp.mouseover" end="arrowUp.mouseout"/>
                  </use>
                  <path fill="none" stroke="white" stroke-width="1.5" d="M0,-3.0v7 M-2.5,-0.5L0,-3.0L2.5,-0.5"/>
                </g>
                <g id="arrowRight" xlink:href="#dirArrow" transform="rotate(90) translate(36 -43)" onmousedown="handlePan(1,0)">
                  <use xlink:href="#rim" fill="#404040">
                        <set attributeName="fill" to="#808080" begin="arrowRight.mouseover" end="arrowRight.mouseout"/>
                  </use>
                  <path fill="none" stroke="white" stroke-width="1.5" d="M0,-3.0v7 M-2.5,-0.5L0,-3.0L2.5,-0.5"/>
                </g>
                <g id="arrowDown" xlink:href="#dirArrow" transform="rotate(180) translate(-30 -48)" onmousedown="handlePan(0,1)">
                  <use xlink:href="#rim" fill="#404040">
                        <set attributeName="fill" to="#808080" begin="arrowDown.mouseover" end="arrowDown.mouseout"/>
                  </use>
                  <path fill="none" stroke="white" stroke-width="1.5" d="M0,-3.0v7 M-2.5,-0.5L0,-3.0L2.5,-0.5"/>
                </g>
                <g id="arrowLeft" xlink:href="#dirArrow" transform="rotate(270) translate(-36 17)" onmousedown="handlePan(-1,0)">
                  <use xlink:href="#rim" fill="#404040">
                        <set attributeName="fill" to="#808080" begin="arrowLeft.mouseover" end="arrowLeft.mouseout"/>
                  </use>
                  <path fill="none" stroke="white" stroke-width="1.5" d="M0,-3.0v7 M-2.5,-0.5L0,-3.0L2.5,-0.5"/>
                </g>
        </g>
        <svg viewBox="0 0 15 15" width="100%" height="30px" preserveAspectRatio="xMaxYMin meet">
         <g id="arrow_out" transform="scale(0.3 0.3)">
          <a xlink:href="classView__coll__graph_org.svg" target="_base">
           <rect id="button" ry="5" rx="5" y="6" x="6" height="38" width="38"
                fill="#f2f5e9" fill-opacity="0.5" stroke="#606060" stroke-width="1.0"/>
           <path id="arrow"
             d="M 11.500037,31.436501 C 11.940474,20.09759 22.043105,11.32322 32.158766,21.979434 L 37.068811,17.246167 C 37.068811,17.246167 37.088388,32 37.088388,32 L 22.160133,31.978069 C 22.160133,31.978069 26.997745,27.140456 26.997745,27.140456 C 18.528582,18.264221 13.291696,25.230495 11.500037,31.436501 z"
             style="fill:#404040;"/>
          </a>
         </g>
        </svg>
</svg>
