<?xml version="1.0" encoding="UTF-8" standalone="no"?>
<!DOCTYPE svg PUBLIC "-//W3C//DTD SVG 1.1//EN"
 "http://www.w3.org/Graphics/SVG/1.1/DTD/svg11.dtd">
<!-- Generated by graphviz version 2.40.1 (20161225.0304)
 -->
<!-- Title: GameLoop Pages: 1 -->
<!--zoomable 1555 -->
<svg id="main" version="1.1" xmlns="http://www.w3.org/2000/svg" xmlns:xlink="http://www.w3.org/1999/xlink" xml:space="preserve" onload="init(evt)">
<style type="text/css"><![CDATA[
.edge:hover path { stroke: red; }
.edge:hover polygon { stroke: red; fill: red; }
]]></style>
<script type="text/javascript"><![CDATA[
var edges = document.getElementsByTagName('g');
if (edges && edges.length) {
  for (var i=0;i<edges.length;i++) {
    if (edges[i].id.substr(0,4)=='edge') {
      edges[i].setAttribute('class','edge');
    }
  }
}
]]></script>
        <defs>
                <circle id="rim" cx="0" cy="0" r="7"/>
                <circle id="rim2" cx="0" cy="0" r="3.5"/>
                <g id="zoomPlus">
                        <use xlink:href="#rim" fill="#404040">
                                <set attributeName="fill" to="#808080" begin="zoomplus.mouseover" end="zoomplus.mouseout"/>
                        </use>
                        <path d="M-4,0h8M0,-4v8" fill="none" stroke="white" stroke-width="1.5" pointer-events="none"/>
                </g>
                <g id="zoomMin">
                        <use xlink:href="#rim" fill="#404040">
                                <set attributeName="fill" to="#808080" begin="zoomminus.mouseover" end="zoomminus.mouseout"/>
                        </use>
                        <path d="M-4,0h8" fill="none" stroke="white" stroke-width="1.5" pointer-events="none"/>
                </g>
                <g id="dirArrow">
                        <path fill="none" stroke="white" stroke-width="1.5" d="M0,-3.0v7 M-2.5,-0.5L0,-3.0L2.5,-0.5"/>
                </g>
               <g id="resetDef">
                       <use xlink:href="#rim2" fill="#404040">
                               <set attributeName="fill" to="#808080" begin="reset.mouseover" end="reset.mouseout"/>
                       </use>
               </g>
        </defs>

<script type="text/javascript">
var viewWidth = 984;
var viewHeight = 1555;
var sectionId = 'dynsection-1';
</script>
<script xlink:href="svgpan.js"/>
<svg id="graph" class="graph">
<g id="viewport">
<title>GameLoop</title>
<polygon fill="#ffffff" stroke="transparent" points="-4,4 -4,-1551 980.0686,-1551 980.0686,4 -4,4"/>
<!-- Node1 -->
<g id="node1" class="node">
<title>Node1</title>
<g id="a_node1"><a xlink:title=" ">
<polygon fill="#bfbfbf" stroke="#000000" points="243.5686,-.5 243.5686,-68.5 326.5686,-68.5 326.5686,-.5 243.5686,-.5"/>
<text text-anchor="middle" x="285.0686" y="-56.5" font-family="Helvetica,sans-Serif" font-size="10.00" fill="#000000">GameLoop</text>
<polyline fill="none" stroke="#000000" points="243.5686,-49.5 326.5686,-49.5 "/>
<text text-anchor="middle" x="285.0686" y="-37.5" font-family="Helvetica,sans-Serif" font-size="10.00" fill="#000000"> </text>
<polyline fill="none" stroke="#000000" points="243.5686,-30.5 326.5686,-30.5 "/>
<text text-anchor="start" x="251.5686" y="-18.5" font-family="Helvetica,sans-Serif" font-size="10.00" fill="#000000">+ GameLoop()</text>
<text text-anchor="start" x="251.5686" y="-7.5" font-family="Helvetica,sans-Serif" font-size="10.00" fill="#000000">+ run()</text>
</a>
</g>
</g>
<!-- Node2 -->
<g id="node2" class="node">
<title>Node2</title>
<g id="a_node2"><a xlink:title=" ">
<polygon fill="#ffffff" stroke="#bfbfbf" points=".0686,-546 .0686,-603 58.0686,-603 58.0686,-546 .0686,-546"/>
<text text-anchor="middle" x="29.0686" y="-591" font-family="Helvetica,sans-Serif" font-size="10.00" fill="#000000">QThread</text>
<polyline fill="none" stroke="#bfbfbf" points=".0686,-584 58.0686,-584 "/>
<text text-anchor="middle" x="29.0686" y="-572" font-family="Helvetica,sans-Serif" font-size="10.00" fill="#000000"> </text>
<polyline fill="none" stroke="#bfbfbf" points=".0686,-565 58.0686,-565 "/>
<text text-anchor="middle" x="29.0686" y="-553" font-family="Helvetica,sans-Serif" font-size="10.00" fill="#000000"> </text>
</a>
</g>
</g>
<!-- Node2&#45;&gt;Node1 -->
<g id="edge1" class="edge">
<title>Node2&#45;&gt;Node1</title>
<path fill="none" stroke="#191970" d="M19.789,-536.0979C1.5853,-450.8142 -29.1599,-243.1461 67.0686,-116 88.8314,-87.245 186.2324,-58.9661 243.2111,-44.4795"/>
<polygon fill="none" stroke="#191970" points="16.3733,-536.8618 21.9374,-545.878 23.2103,-535.3599 16.3733,-536.8618"/>
</g>
<!-- Node17 -->
<g id="node17" class="node">
<title>Node17</title>
<g id="a_node17"><a xlink:href="classClient.html" target="_top" xlink:title=" ">
<polygon fill="#ffffff" stroke="#000000" points="76.5686,-199 76.5686,-344 191.5686,-344 191.5686,-199 76.5686,-199"/>
<text text-anchor="middle" x="134.0686" y="-332" font-family="Helvetica,sans-Serif" font-size="10.00" fill="#000000">Client</text>
<polyline fill="none" stroke="#000000" points="76.5686,-325 191.5686,-325 "/>
<text text-anchor="start" x="84.5686" y="-313" font-family="Helvetica,sans-Serif" font-size="10.00" fill="#000000">&#45; socket</text>
<text text-anchor="start" x="84.5686" y="-302" font-family="Helvetica,sans-Serif" font-size="10.00" fill="#000000">&#45; debug</text>
<text text-anchor="start" x="84.5686" y="-291" font-family="Helvetica,sans-Serif" font-size="10.00" fill="#000000">&#45; tickcount</text>
<polyline fill="none" stroke="#000000" points="76.5686,-284 191.5686,-284 "/>
<text text-anchor="start" x="84.5686" y="-272" font-family="Helvetica,sans-Serif" font-size="10.00" fill="#000000">+ Client()</text>
<text text-anchor="start" x="84.5686" y="-261" font-family="Helvetica,sans-Serif" font-size="10.00" fill="#000000">+ run()</text>
<text text-anchor="start" x="84.5686" y="-250" font-family="Helvetica,sans-Serif" font-size="10.00" fill="#000000">+ requestMap()</text>
<text text-anchor="start" x="84.5686" y="-239" font-family="Helvetica,sans-Serif" font-size="10.00" fill="#000000">+ onPositionChange()</text>
<text text-anchor="start" x="84.5686" y="-228" font-family="Helvetica,sans-Serif" font-size="10.00" fill="#000000">+ onLeftclick()</text>
<text text-anchor="start" x="84.5686" y="-217" font-family="Helvetica,sans-Serif" font-size="10.00" fill="#000000">+ onRightclick()</text>
<text text-anchor="start" x="84.5686" y="-206" font-family="Helvetica,sans-Serif" font-size="10.00" fill="#000000">&#45; processCommand()</text>
</a>
</g>
</g>
<!-- Node2&#45;&gt;Node17 -->
<g id="edge22" class="edge">
<title>Node2&#45;&gt;Node17</title>
<path fill="none" stroke="#191970" d="M42.3115,-536.2847C58.9911,-488.1522 87.9985,-404.4452 108.9398,-344.0144"/>
<polygon fill="none" stroke="#191970" points="38.914,-535.3997 38.9467,-545.9945 45.5282,-537.6918 38.914,-535.3997"/>
</g>
<!-- Node3 -->
<g id="node3" class="node">
<title>Node3</title>
<g id="a_node3"><a xlink:href="classView.html" target="_top" xlink:title=" ">
<polygon fill="#ffffff" stroke="#000000" points="222.5686,-116.5 222.5686,-426.5 347.5686,-426.5 347.5686,-116.5 222.5686,-116.5"/>
<text text-anchor="middle" x="285.0686" y="-414.5" font-family="Helvetica,sans-Serif" font-size="10.00" fill="#000000">View</text>
<polyline fill="none" stroke="#000000" points="222.5686,-407.5 347.5686,-407.5 "/>
<text text-anchor="start" x="230.5686" y="-395.5" font-family="Helvetica,sans-Serif" font-size="10.00" fill="#000000">+ currentScale</text>
<text text-anchor="start" x="230.5686" y="-384.5" font-family="Helvetica,sans-Serif" font-size="10.00" fill="#000000">&#45; dragOriginX</text>
<text text-anchor="start" x="230.5686" y="-373.5" font-family="Helvetica,sans-Serif" font-size="10.00" fill="#000000">&#45; dragOriginY</text>
<text text-anchor="start" x="230.5686" y="-362.5" font-family="Helvetica,sans-Serif" font-size="10.00" fill="#000000">&#45; dragPosX</text>
<text text-anchor="start" x="230.5686" y="-351.5" font-family="Helvetica,sans-Serif" font-size="10.00" fill="#000000">&#45; dragPosY</text>
<text text-anchor="start" x="230.5686" y="-340.5" font-family="Helvetica,sans-Serif" font-size="10.00" fill="#000000">&#45; mouseX</text>
<text text-anchor="start" x="230.5686" y="-329.5" font-family="Helvetica,sans-Serif" font-size="10.00" fill="#000000">&#45; mouseY</text>
<text text-anchor="start" x="230.5686" y="-318.5" font-family="Helvetica,sans-Serif" font-size="10.00" fill="#000000">&#45; mouseDown</text>
<text text-anchor="start" x="230.5686" y="-307.5" font-family="Helvetica,sans-Serif" font-size="10.00" fill="#000000">&#45; doAnimations</text>
<polyline fill="none" stroke="#000000" points="222.5686,-300.5 347.5686,-300.5 "/>
<text text-anchor="start" x="230.5686" y="-288.5" font-family="Helvetica,sans-Serif" font-size="10.00" fill="#000000">+ View()</text>
<text text-anchor="start" x="230.5686" y="-277.5" font-family="Helvetica,sans-Serif" font-size="10.00" fill="#000000">+ mousePressEvent()</text>
<text text-anchor="start" x="230.5686" y="-266.5" font-family="Helvetica,sans-Serif" font-size="10.00" fill="#000000">+ mouseReleaseEvent()</text>
<text text-anchor="start" x="230.5686" y="-255.5" font-family="Helvetica,sans-Serif" font-size="10.00" fill="#000000">+ mouseMoveEvent()</text>
<text text-anchor="start" x="230.5686" y="-244.5" font-family="Helvetica,sans-Serif" font-size="10.00" fill="#000000">+ wheelEvent()</text>
<text text-anchor="start" x="230.5686" y="-233.5" font-family="Helvetica,sans-Serif" font-size="10.00" fill="#000000">+ keyPressEvent()</text>
<text text-anchor="start" x="230.5686" y="-222.5" font-family="Helvetica,sans-Serif" font-size="10.00" fill="#000000">+ fluidZoom()</text>
<text text-anchor="start" x="230.5686" y="-211.5" font-family="Helvetica,sans-Serif" font-size="10.00" fill="#000000">+ fluidMove()</text>
<text text-anchor="start" x="230.5686" y="-200.5" font-family="Helvetica,sans-Serif" font-size="10.00" fill="#000000">+ fluidMovement()</text>
<text text-anchor="start" x="230.5686" y="-189.5" font-family="Helvetica,sans-Serif" font-size="10.00" fill="#000000">+ enableAnimation()</text>
<text text-anchor="start" x="230.5686" y="-178.5" font-family="Helvetica,sans-Serif" font-size="10.00" fill="#000000">+ setDataModel()</text>
<text text-anchor="start" x="230.5686" y="-167.5" font-family="Helvetica,sans-Serif" font-size="10.00" fill="#000000">+ paintEvent()</text>
<text text-anchor="start" x="230.5686" y="-156.5" font-family="Helvetica,sans-Serif" font-size="10.00" fill="#000000">+ tick()</text>
<text text-anchor="start" x="230.5686" y="-145.5" font-family="Helvetica,sans-Serif" font-size="10.00" fill="#000000">+ zoomInAnimation()</text>
<text text-anchor="start" x="230.5686" y="-134.5" font-family="Helvetica,sans-Serif" font-size="10.00" fill="#000000">&#45; leftclick()</text>
<text text-anchor="start" x="230.5686" y="-123.5" font-family="Helvetica,sans-Serif" font-size="10.00" fill="#000000">&#45; rightclick()</text>
</a>
</g>
</g>
<!-- Node3&#45;&gt;Node1 -->
<g id="edge2" class="edge">
<title>Node3&#45;&gt;Node1</title>
<path fill="none" stroke="#404040" d="M285.0686,-116.3938C285.0686,-103.684 285.0686,-91.5972 285.0686,-80.8021"/>
<polygon fill="none" stroke="#404040" points="285.0687,-80.763 281.0686,-74.7631 285.0686,-68.763 289.0686,-74.763 285.0687,-80.763"/>
<text text-anchor="middle" x="299.0686" y="-90" font-family="Helvetica,sans-Serif" font-size="10.00" fill="#000000"> &#45;view</text>
</g>
<!-- Node4 -->
<g id="node4" class="node">
<title>Node4</title>
<g id="a_node4"><a xlink:title=" ">
<polygon fill="#ffffff" stroke="#bfbfbf" points="167.5686,-546 167.5686,-603 254.5686,-603 254.5686,-546 167.5686,-546"/>
<text text-anchor="middle" x="211.0686" y="-591" font-family="Helvetica,sans-Serif" font-size="10.00" fill="#000000">QGraphicsView</text>
<polyline fill="none" stroke="#bfbfbf" points="167.5686,-584 254.5686,-584 "/>
<text text-anchor="middle" x="211.0686" y="-572" font-family="Helvetica,sans-Serif" font-size="10.00" fill="#000000"> </text>
<polyline fill="none" stroke="#bfbfbf" points="167.5686,-565 254.5686,-565 "/>
<text text-anchor="middle" x="211.0686" y="-553" font-family="Helvetica,sans-Serif" font-size="10.00" fill="#000000"> </text>
</a>
</g>
</g>
<!-- Node4&#45;&gt;Node3 -->
<g id="edge3" class="edge">
<title>Node4&#45;&gt;Node3</title>
<path fill="none" stroke="#191970" d="M220.4306,-536.1661C227.3261,-507.932 237.1998,-467.5032 247.1612,-426.7152"/>
<polygon fill="none" stroke="#191970" points="217.0028,-535.4496 218.0303,-545.9945 223.803,-537.1104 217.0028,-535.4496"/>
</g>
<!-- Node5 -->
<g id="node5" class="node">
<title>Node5</title>
<g id="a_node5"><a xlink:href="classScene.html" target="_top" xlink:title=" ">
<polygon fill="#ffffff" stroke="#000000" points="439.0686,-474.5 439.0686,-674.5 567.0686,-674.5 567.0686,-474.5 439.0686,-474.5"/>
<text text-anchor="middle" x="503.0686" y="-662.5" font-family="Helvetica,sans-Serif" font-size="10.00" fill="#000000">Scene</text>
<polyline fill="none" stroke="#000000" points="439.0686,-655.5 567.0686,-655.5 "/>
<text text-anchor="start" x="447.0686" y="-643.5" font-family="Helvetica,sans-Serif" font-size="10.00" fill="#000000">+ MAP_SIZE</text>
<text text-anchor="start" x="447.0686" y="-632.5" font-family="Helvetica,sans-Serif" font-size="10.00" fill="#000000">+ TILE_SIZE</text>
<text text-anchor="start" x="447.0686" y="-621.5" font-family="Helvetica,sans-Serif" font-size="10.00" fill="#000000">&#45; radiusHighlighter</text>
<text text-anchor="start" x="447.0686" y="-610.5" font-family="Helvetica,sans-Serif" font-size="10.00" fill="#000000">&#45; textHint</text>
<text text-anchor="start" x="447.0686" y="-599.5" font-family="Helvetica,sans-Serif" font-size="10.00" fill="#000000">&#45; showRadius</text>
<text text-anchor="start" x="447.0686" y="-588.5" font-family="Helvetica,sans-Serif" font-size="10.00" fill="#000000">&#45; players</text>
<polyline fill="none" stroke="#000000" points="439.0686,-581.5 567.0686,-581.5 "/>
<text text-anchor="start" x="447.0686" y="-569.5" font-family="Helvetica,sans-Serif" font-size="10.00" fill="#000000">+ Scene()</text>
<text text-anchor="start" x="447.0686" y="-558.5" font-family="Helvetica,sans-Serif" font-size="10.00" fill="#000000">+ generateWorld()</text>
<text text-anchor="start" x="447.0686" y="-547.5" font-family="Helvetica,sans-Serif" font-size="10.00" fill="#000000">+ setActiveTile()</text>
<text text-anchor="start" x="447.0686" y="-536.5" font-family="Helvetica,sans-Serif" font-size="10.00" fill="#000000">+ getTileAt()</text>
<text text-anchor="start" x="447.0686" y="-525.5" font-family="Helvetica,sans-Serif" font-size="10.00" fill="#000000">+ setTileAt()</text>
<text text-anchor="start" x="447.0686" y="-514.5" font-family="Helvetica,sans-Serif" font-size="10.00" fill="#000000">+ tileChanged()</text>
<text text-anchor="start" x="447.0686" y="-503.5" font-family="Helvetica,sans-Serif" font-size="10.00" fill="#000000">+ tick()</text>
<text text-anchor="start" x="447.0686" y="-492.5" font-family="Helvetica,sans-Serif" font-size="10.00" fill="#000000">+ onSetTile()</text>
<text text-anchor="start" x="447.0686" y="-481.5" font-family="Helvetica,sans-Serif" font-size="10.00" fill="#000000">+ updatePlayerPosition()</text>
</a>
</g>
</g>
<!-- Node5&#45;&gt;Node1 -->
<g id="edge20" class="edge">
<title>Node5&#45;&gt;Node1</title>
<path fill="none" stroke="#404040" d="M505.1822,-474.4414C502.2416,-367.1102 481.8961,-197.2594 391.0686,-87 377.3799,-70.3827 357.1261,-58.5711 337.98,-50.4159"/>
<polygon fill="none" stroke="#404040" points="337.7439,-50.3228 330.694,-51.839 326.5829,-45.9145 333.6329,-44.3983 337.7439,-50.3228"/>
<text text-anchor="middle" x="520.0686" y="-269" font-family="Helvetica,sans-Serif" font-size="10.00" fill="#000000"> &#45;scene</text>
</g>
<!-- Node5&#45;&gt;Node3 -->
<g id="edge4" class="edge">
<title>Node5&#45;&gt;Node3</title>
<path fill="none" stroke="#404040" d="M438.9304,-530.9601C411.7882,-512.9044 379.6586,-492.0113 350.0686,-474 336.1299,-465.5156 327.5192,-469.3025 318.0686,-456 313.9638,-450.2222 310.3185,-444.0919 307.0845,-437.711"/>
<polygon fill="none" stroke="#404040" points="307.0549,-437.647 300.907,-433.8783 302.0213,-426.7538 308.1692,-430.5225 307.0549,-437.647"/>
<text text-anchor="middle" x="336.5686" y="-448" font-family="Helvetica,sans-Serif" font-size="10.00" fill="#000000"> +scene</text>
</g>
<!-- Node5&#45;&gt;Node17 -->
<g id="edge23" class="edge">
<title>Node5&#45;&gt;Node17</title>
<path fill="none" stroke="#404040" d="M438.8839,-525.2009C412.5312,-506.9073 380.9858,-487.3775 350.0686,-474 290.9894,-448.4371 259.3214,-471.7714 213.0686,-427 192.5049,-407.095 176.3572,-380.6923 164.1677,-355.3029"/>
<polygon fill="none" stroke="#404040" points="164.0376,-355.0205 157.8934,-351.2457 159.0147,-344.1223 165.1589,-347.8971 164.0376,-355.0205"/>
<text text-anchor="middle" x="282.0686" y="-448" font-family="Helvetica,sans-Serif" font-size="10.00" fill="#000000"> &#45;scene</text>
</g>
<!-- Node6 -->
<g id="node6" class="node">
<title>Node6</title>
<g id="a_node6"><a xlink:title=" ">
<polygon fill="#ffffff" stroke="#bfbfbf" points="375.0686,-893 375.0686,-950 469.0686,-950 469.0686,-893 375.0686,-893"/>
<text text-anchor="middle" x="422.0686" y="-938" font-family="Helvetica,sans-Serif" font-size="10.00" fill="#000000">QGraphicsScene</text>
<polyline fill="none" stroke="#bfbfbf" points="375.0686,-931 469.0686,-931 "/>
<text text-anchor="middle" x="422.0686" y="-919" font-family="Helvetica,sans-Serif" font-size="10.00" fill="#000000"> </text>
<polyline fill="none" stroke="#bfbfbf" points="375.0686,-912 469.0686,-912 "/>
<text text-anchor="middle" x="422.0686" y="-900" font-family="Helvetica,sans-Serif" font-size="10.00" fill="#000000"> </text>
</a>
</g>
</g>
<!-- Node6&#45;&gt;Node5 -->
<g id="edge5" class="edge">
<title>Node6&#45;&gt;Node5</title>
<path fill="none" stroke="#191970" d="M431.1102,-882.766C442.7608,-832.8553 463.4431,-744.2534 479.6538,-674.8076"/>
<polygon fill="none" stroke="#191970" points="427.6309,-882.2745 428.7661,-892.8083 434.4477,-883.8657 427.6309,-882.2745"/>
</g>
<!-- Node7 -->
<g id="node7" class="node">
<title>Node7</title>
<g id="a_node7"><a xlink:href="classHighlighter.html" target="_top" xlink:title=" ">
<polygon fill="#ffffff" stroke="#000000" points="509.5686,-1383.5 509.5686,-1451.5 588.5686,-1451.5 588.5686,-1383.5 509.5686,-1383.5"/>
<text text-anchor="middle" x="549.0686" y="-1439.5" font-family="Helvetica,sans-Serif" font-size="10.00" fill="#000000">Highlighter</text>
<polyline fill="none" stroke="#000000" points="509.5686,-1432.5 588.5686,-1432.5 "/>
<text text-anchor="start" x="517.5686" y="-1420.5" font-family="Helvetica,sans-Serif" font-size="10.00" fill="#000000">&#45; outline</text>
<polyline fill="none" stroke="#000000" points="509.5686,-1413.5 588.5686,-1413.5 "/>
<text text-anchor="start" x="517.5686" y="-1401.5" font-family="Helvetica,sans-Serif" font-size="10.00" fill="#000000">+ Highlighter()</text>
<text text-anchor="start" x="517.5686" y="-1390.5" font-family="Helvetica,sans-Serif" font-size="10.00" fill="#000000">+ setColor()</text>
</a>
</g>
</g>
<!-- Node7&#45;&gt;Node5 -->
<g id="edge6" class="edge">
<title>Node7&#45;&gt;Node5</title>
<path fill="none" stroke="#404040" d="M575.8526,-1383.3622C579.2295,-1377.5164 582.1639,-1371.2906 584.0686,-1365 585.4853,-1360.3209 584.0882,-1358.8888 584.0686,-1354 582.9574,-1077.9933 641.342,-1001.8921 579.0686,-733 575.4395,-717.33 570.0832,-701.3938 563.8648,-685.9653"/>
<polygon fill="none" stroke="#404040" points="563.8367,-685.8983 557.8278,-681.9117 559.1967,-674.8317 565.2056,-678.8183 563.8367,-685.8983"/>
<text text-anchor="middle" x="622.0686" y="-1131" font-family="Helvetica,sans-Serif" font-size="10.00" fill="#000000"> &#45;highlighter</text>
</g>
<!-- Node12 -->
<g id="node12" class="node">
<title>Node12</title>
<g id="a_node12"><a xlink:href="classPlayer.html" target="_top" xlink:title=" ">
<polygon fill="#ffffff" stroke="#000000" points="464.5686,-1207 464.5686,-1286 545.5686,-1286 545.5686,-1207 464.5686,-1207"/>
<text text-anchor="middle" x="505.0686" y="-1274" font-family="Helvetica,sans-Serif" font-size="10.00" fill="#000000">Player</text>
<polyline fill="none" stroke="#000000" points="464.5686,-1267 545.5686,-1267 "/>
<text text-anchor="start" x="472.5686" y="-1255" font-family="Helvetica,sans-Serif" font-size="10.00" fill="#000000">+ posX</text>
<text text-anchor="start" x="472.5686" y="-1244" font-family="Helvetica,sans-Serif" font-size="10.00" fill="#000000">+ posY</text>
<polyline fill="none" stroke="#000000" points="464.5686,-1237 545.5686,-1237 "/>
<text text-anchor="start" x="472.5686" y="-1225" font-family="Helvetica,sans-Serif" font-size="10.00" fill="#000000">+ Player()</text>
<text text-anchor="start" x="472.5686" y="-1214" font-family="Helvetica,sans-Serif" font-size="10.00" fill="#000000">+ setPosition()</text>
</a>
</g>
</g>
<!-- Node7&#45;&gt;Node12 -->
<g id="edge13" class="edge">
<title>Node7&#45;&gt;Node12</title>
<path fill="none" stroke="#404040" d="M535.1239,-1383.3212C532.9233,-1377.2751 530.8051,-1370.9959 529.0686,-1365 522.7961,-1343.3423 517.562,-1318.9961 513.5991,-1298.0307"/>
<polygon fill="none" stroke="#404040" points="513.58,-1297.9262 508.563,-1292.7465 511.4145,-1286.1232 516.4316,-1291.3028 513.58,-1297.9262"/>
<text text-anchor="middle" x="556.5686" y="-1357" font-family="Helvetica,sans-Serif" font-size="10.00" fill="#000000"> +highlighter</text>
</g>
<!-- Node8 -->
<g id="node8" class="node">
<title>Node8</title>
<g id="a_node8"><a xlink:title=" ">
<polygon fill="#ffffff" stroke="#bfbfbf" points="497.0686,-1489.5 497.0686,-1546.5 601.0686,-1546.5 601.0686,-1489.5 497.0686,-1489.5"/>
<text text-anchor="middle" x="549.0686" y="-1534.5" font-family="Helvetica,sans-Serif" font-size="10.00" fill="#000000">QGraphicsRectItem</text>
<polyline fill="none" stroke="#bfbfbf" points="497.0686,-1527.5 601.0686,-1527.5 "/>
<text text-anchor="middle" x="549.0686" y="-1515.5" font-family="Helvetica,sans-Serif" font-size="10.00" fill="#000000"> </text>
<polyline fill="none" stroke="#bfbfbf" points="497.0686,-1508.5 601.0686,-1508.5 "/>
<text text-anchor="middle" x="549.0686" y="-1496.5" font-family="Helvetica,sans-Serif" font-size="10.00" fill="#000000"> </text>
</a>
</g>
</g>
<!-- Node8&#45;&gt;Node7 -->
<g id="edge7" class="edge">
<title>Node8&#45;&gt;Node7</title>
<path fill="none" stroke="#191970" d="M549.0686,-1479.1903C549.0686,-1470.1667 549.0686,-1460.6233 549.0686,-1451.8097"/>
<polygon fill="none" stroke="#191970" points="545.5687,-1479.4695 549.0686,-1489.4696 552.5687,-1479.4696 545.5687,-1479.4695"/>
</g>
<!-- Node9 -->
<g id="node9" class="node">
<title>Node9</title>
<g id="a_node9"><a xlink:href="classMapTile.html" target="_top" xlink:title=" ">
<polygon fill="#ffffff" stroke="#000000" points="762.0686,-805 762.0686,-1038 902.0686,-1038 902.0686,-805 762.0686,-805"/>
<text text-anchor="middle" x="832.0686" y="-1026" font-family="Helvetica,sans-Serif" font-size="10.00" fill="#000000">MapTile</text>
<polyline fill="none" stroke="#000000" points="762.0686,-1019 902.0686,-1019 "/>
<text text-anchor="start" x="770.0686" y="-1007" font-family="Helvetica,sans-Serif" font-size="10.00" fill="#000000">&#45; type</text>
<text text-anchor="start" x="770.0686" y="-996" font-family="Helvetica,sans-Serif" font-size="10.00" fill="#000000">&#45; pixmapItem</text>
<text text-anchor="start" x="770.0686" y="-985" font-family="Helvetica,sans-Serif" font-size="10.00" fill="#000000">&#45; currentRotation</text>
<polyline fill="none" stroke="#000000" points="762.0686,-978 902.0686,-978 "/>
<text text-anchor="start" x="770.0686" y="-966" font-family="Helvetica,sans-Serif" font-size="10.00" fill="#000000">+ MapTile()</text>
<text text-anchor="start" x="770.0686" y="-955" font-family="Helvetica,sans-Serif" font-size="10.00" fill="#000000">+ MapTile()</text>
<text text-anchor="start" x="770.0686" y="-944" font-family="Helvetica,sans-Serif" font-size="10.00" fill="#000000">+ setType()</text>
<text text-anchor="start" x="770.0686" y="-933" font-family="Helvetica,sans-Serif" font-size="10.00" fill="#000000">+ getType()</text>
<text text-anchor="start" x="770.0686" y="-922" font-family="Helvetica,sans-Serif" font-size="10.00" fill="#000000">+ setRotation()</text>
<text text-anchor="start" x="770.0686" y="-911" font-family="Helvetica,sans-Serif" font-size="10.00" fill="#000000">+ getRotation()</text>
<text text-anchor="start" x="770.0686" y="-900" font-family="Helvetica,sans-Serif" font-size="10.00" fill="#000000">+ setPosition()</text>
<text text-anchor="start" x="770.0686" y="-889" font-family="Helvetica,sans-Serif" font-size="10.00" fill="#000000">+ isRiver()</text>
<text text-anchor="start" x="770.0686" y="-878" font-family="Helvetica,sans-Serif" font-size="10.00" fill="#000000">+ isRail()</text>
<text text-anchor="start" x="770.0686" y="-867" font-family="Helvetica,sans-Serif" font-size="10.00" fill="#000000">+ getPixmapItem()</text>
<text text-anchor="start" x="770.0686" y="-856" font-family="Helvetica,sans-Serif" font-size="10.00" fill="#000000">+ getCity()</text>
<text text-anchor="start" x="770.0686" y="-845" font-family="Helvetica,sans-Serif" font-size="10.00" fill="#000000">+ setCity()</text>
<text text-anchor="start" x="770.0686" y="-834" font-family="Helvetica,sans-Serif" font-size="10.00" fill="#000000">+ getX()</text>
<text text-anchor="start" x="770.0686" y="-823" font-family="Helvetica,sans-Serif" font-size="10.00" fill="#000000">+ getY()</text>
<text text-anchor="start" x="770.0686" y="-812" font-family="Helvetica,sans-Serif" font-size="10.00" fill="#000000">+ attachGraphicsManager()</text>
</a>
</g>
</g>
<!-- Node9&#45;&gt;Node5 -->
<g id="edge8" class="edge">
<title>Node9&#45;&gt;Node5</title>
<path fill="none" stroke="#404040" d="M792.6059,-804.643C780.7537,-779.3636 766.0069,-753.9592 748.0686,-733 701.38,-678.449 631.2896,-635.7173 578.0219,-608.439"/>
<polygon fill="none" stroke="#404040" points="577.983,-608.4195 570.8251,-609.2935 567.2652,-603.0224 574.4232,-602.1483 577.983,-608.4195"/>
<text text-anchor="middle" x="753.0686" y="-707" font-family="Helvetica,sans-Serif" font-size="10.00" fill="#000000"> &#45;activeTile</text>
<text text-anchor="middle" x="753.0686" y="-696" font-family="Helvetica,sans-Serif" font-size="10.00" fill="#000000">+data</text>
</g>
<!-- Node10 -->
<g id="node10" class="node">
<title>Node10</title>
<g id="a_node10"><a xlink:href="classGraphicsManager.html" target="_top" xlink:title=" ">
<polygon fill="#ffffff" stroke="#000000" points="650.5686,-1212.5 650.5686,-1280.5 763.5686,-1280.5 763.5686,-1212.5 650.5686,-1212.5"/>
<text text-anchor="middle" x="707.0686" y="-1268.5" font-family="Helvetica,sans-Serif" font-size="10.00" fill="#000000">GraphicsManager</text>
<polyline fill="none" stroke="#000000" points="650.5686,-1261.5 763.5686,-1261.5 "/>
<text text-anchor="start" x="658.5686" y="-1249.5" font-family="Helvetica,sans-Serif" font-size="10.00" fill="#000000">+ GRAPHICS</text>
<polyline fill="none" stroke="#000000" points="650.5686,-1242.5 763.5686,-1242.5 "/>
<text text-anchor="start" x="658.5686" y="-1230.5" font-family="Helvetica,sans-Serif" font-size="10.00" fill="#000000">+ GraphicsManager()</text>
<text text-anchor="start" x="658.5686" y="-1219.5" font-family="Helvetica,sans-Serif" font-size="10.00" fill="#000000">+ get()</text>
</a>
</g>
</g>
<!-- Node10&#45;&gt;Node5 -->
<g id="edge11" class="edge">
<title>Node10&#45;&gt;Node5</title>
<path fill="none" stroke="#404040" d="M695.7039,-1212.3662C686.9771,-1184.9746 675.2418,-1145.387 668.0686,-1110 630.9744,-927.0075 697.251,-861.6209 617.0686,-693 607.0465,-671.924 591.8001,-652.2245 575.6879,-635.1717"/>
<polygon fill="none" stroke="#404040" points="575.5982,-635.08 568.543,-633.5884 567.2065,-626.5022 574.2616,-627.9939 575.5982,-635.08"/>
<text text-anchor="middle" x="710.5686" y="-919" font-family="Helvetica,sans-Serif" font-size="10.00" fill="#000000"> &#45;graphicsManager</text>
</g>
<!-- Node10&#45;&gt;Node9 -->
<g id="edge9" class="edge">
<title>Node10&#45;&gt;Node9</title>
<path fill="none" stroke="#404040" d="M716.3157,-1212.4555C723.0638,-1188.589 732.7941,-1156.0653 743.0686,-1128 752.4503,-1102.3732 763.3447,-1075.3443 774.2261,-1049.5898"/>
<polygon fill="none" stroke="#404040" points="774.3532,-1049.2908 773.0213,-1042.2038 779.051,-1038.2486 780.3828,-1045.3357 774.3532,-1049.2908"/>
<text text-anchor="middle" x="785.5686" y="-1131" font-family="Helvetica,sans-Serif" font-size="10.00" fill="#000000"> &#45;graphicsManager</text>
</g>
<!-- Node11 -->
<g id="node11" class="node">
<title>Node11</title>
<g id="a_node11"><a xlink:href="classCity.html" target="_top" xlink:title=" ">
<polygon fill="#ffffff" stroke="#000000" points="790.5686,-1157.5 790.5686,-1335.5 873.5686,-1335.5 873.5686,-1157.5 790.5686,-1157.5"/>
<text text-anchor="middle" x="832.0686" y="-1323.5" font-family="Helvetica,sans-Serif" font-size="10.00" fill="#000000">City</text>
<polyline fill="none" stroke="#000000" points="790.5686,-1316.5 873.5686,-1316.5 "/>
<text text-anchor="start" x="798.5686" y="-1304.5" font-family="Helvetica,sans-Serif" font-size="10.00" fill="#000000">&#45; size</text>
<text text-anchor="start" x="798.5686" y="-1293.5" font-family="Helvetica,sans-Serif" font-size="10.00" fill="#000000">&#45; centerX</text>
<text text-anchor="start" x="798.5686" y="-1282.5" font-family="Helvetica,sans-Serif" font-size="10.00" fill="#000000">&#45; centerY</text>
<text text-anchor="start" x="798.5686" y="-1271.5" font-family="Helvetica,sans-Serif" font-size="10.00" fill="#000000">&#45; name</text>
<polyline fill="none" stroke="#000000" points="790.5686,-1264.5 873.5686,-1264.5 "/>
<text text-anchor="start" x="798.5686" y="-1252.5" font-family="Helvetica,sans-Serif" font-size="10.00" fill="#000000">+ City()</text>
<text text-anchor="start" x="798.5686" y="-1241.5" font-family="Helvetica,sans-Serif" font-size="10.00" fill="#000000">+ City()</text>
<text text-anchor="start" x="798.5686" y="-1230.5" font-family="Helvetica,sans-Serif" font-size="10.00" fill="#000000">+ getSize()</text>
<text text-anchor="start" x="798.5686" y="-1219.5" font-family="Helvetica,sans-Serif" font-size="10.00" fill="#000000">+ getCenterX()</text>
<text text-anchor="start" x="798.5686" y="-1208.5" font-family="Helvetica,sans-Serif" font-size="10.00" fill="#000000">+ getCenterY()</text>
<text text-anchor="start" x="798.5686" y="-1197.5" font-family="Helvetica,sans-Serif" font-size="10.00" fill="#000000">+ getName()</text>
<text text-anchor="start" x="798.5686" y="-1186.5" font-family="Helvetica,sans-Serif" font-size="10.00" fill="#000000">+ setSize()</text>
<text text-anchor="start" x="798.5686" y="-1175.5" font-family="Helvetica,sans-Serif" font-size="10.00" fill="#000000">+ setCenter()</text>
<text text-anchor="start" x="798.5686" y="-1164.5" font-family="Helvetica,sans-Serif" font-size="10.00" fill="#000000">+ setName()</text>
</a>
</g>
</g>
<!-- Node11&#45;&gt;Node9 -->
<g id="edge10" class="edge">
<title>Node11&#45;&gt;Node9</title>
<path fill="none" stroke="#404040" d="M832.0686,-1157.2624C832.0686,-1124.2561 832.0686,-1086.1495 832.0686,-1050.3265"/>
<polygon fill="none" stroke="#404040" points="832.0687,-1050.276 828.0686,-1044.2761 832.0686,-1038.276 836.0686,-1044.276 832.0687,-1050.276"/>
<text text-anchor="middle" x="843.0686" y="-1131" font-family="Helvetica,sans-Serif" font-size="10.00" fill="#000000"> &#45;city</text>
</g>
<!-- Node12&#45;&gt;Node5 -->
<g id="edge12" class="edge">
<title>Node12&#45;&gt;Node5</title>
<path fill="none" stroke="#404040" d="M504.9509,-1206.9722C504.6527,-1106.7845 503.8588,-840.0047 503.4029,-686.8347"/>
<polygon fill="none" stroke="#404040" points="503.4024,-686.6461 499.3845,-680.658 503.3666,-674.6461 507.3845,-680.6342 503.4024,-686.6461"/>
<text text-anchor="middle" x="540.0686" y="-919" font-family="Helvetica,sans-Serif" font-size="10.00" fill="#000000"> &#45;secondPlayer</text>
</g>
<!-- Node13 -->
<g id="node13" class="node">
<title>Node13</title>
<g id="a_node13"><a xlink:href="classDataModel.html" target="_top" xlink:title=" ">
<polygon fill="#ffffff" stroke="#000000" points="219.5686,-733.5 219.5686,-1109.5 356.5686,-1109.5 356.5686,-733.5 219.5686,-733.5"/>
<text text-anchor="middle" x="288.0686" y="-1097.5" font-family="Helvetica,sans-Serif" font-size="10.00" fill="#000000">DataModel</text>
<polyline fill="none" stroke="#000000" points="219.5686,-1090.5 356.5686,-1090.5 "/>
<text text-anchor="start" x="227.5686" y="-1078.5" font-family="Helvetica,sans-Serif" font-size="10.00" fill="#000000">&#45; balance</text>
<text text-anchor="start" x="227.5686" y="-1067.5" font-family="Helvetica,sans-Serif" font-size="10.00" fill="#000000">&#45; time</text>
<text text-anchor="start" x="227.5686" y="-1056.5" font-family="Helvetica,sans-Serif" font-size="10.00" fill="#000000">&#45; coordinateX</text>
<text text-anchor="start" x="227.5686" y="-1045.5" font-family="Helvetica,sans-Serif" font-size="10.00" fill="#000000">&#45; coordinateY</text>
<text text-anchor="start" x="227.5686" y="-1034.5" font-family="Helvetica,sans-Serif" font-size="10.00" fill="#000000">&#45; mapLoaded</text>
<text text-anchor="start" x="227.5686" y="-1023.5" font-family="Helvetica,sans-Serif" font-size="10.00" fill="#000000">&#45; ip</text>
<text text-anchor="start" x="227.5686" y="-1012.5" font-family="Helvetica,sans-Serif" font-size="10.00" fill="#000000">&#45; port</text>
<text text-anchor="start" x="227.5686" y="-1001.5" font-family="Helvetica,sans-Serif" font-size="10.00" fill="#000000">&#45; balanceLabel</text>
<text text-anchor="start" x="227.5686" y="-990.5" font-family="Helvetica,sans-Serif" font-size="10.00" fill="#000000">&#45; timeLabel</text>
<text text-anchor="start" x="227.5686" y="-979.5" font-family="Helvetica,sans-Serif" font-size="10.00" fill="#000000">&#45; positionLabel</text>
<text text-anchor="start" x="227.5686" y="-968.5" font-family="Helvetica,sans-Serif" font-size="10.00" fill="#000000">&#45; statusDisplay</text>
<text text-anchor="start" x="227.5686" y="-957.5" font-family="Helvetica,sans-Serif" font-size="10.00" fill="#000000">&#45; connectionLabel</text>
<text text-anchor="start" x="227.5686" y="-946.5" font-family="Helvetica,sans-Serif" font-size="10.00" fill="#000000">&#45; mode</text>
<polyline fill="none" stroke="#000000" points="219.5686,-939.5 356.5686,-939.5 "/>
<text text-anchor="start" x="227.5686" y="-927.5" font-family="Helvetica,sans-Serif" font-size="10.00" fill="#000000">+ DataModel()</text>
<text text-anchor="start" x="227.5686" y="-916.5" font-family="Helvetica,sans-Serif" font-size="10.00" fill="#000000">+ getBalance()</text>
<text text-anchor="start" x="227.5686" y="-905.5" font-family="Helvetica,sans-Serif" font-size="10.00" fill="#000000">+ updateBalance()</text>
<text text-anchor="start" x="227.5686" y="-894.5" font-family="Helvetica,sans-Serif" font-size="10.00" fill="#000000">+ takeBalance()</text>
<text text-anchor="start" x="227.5686" y="-883.5" font-family="Helvetica,sans-Serif" font-size="10.00" fill="#000000">+ timeTick()</text>
<text text-anchor="start" x="227.5686" y="-872.5" font-family="Helvetica,sans-Serif" font-size="10.00" fill="#000000">+ getTime()</text>
<text text-anchor="start" x="227.5686" y="-861.5" font-family="Helvetica,sans-Serif" font-size="10.00" fill="#000000">+ setTime()</text>
<text text-anchor="start" x="227.5686" y="-850.5" font-family="Helvetica,sans-Serif" font-size="10.00" fill="#000000">+ getSystemMillis()</text>
<text text-anchor="start" x="227.5686" y="-839.5" font-family="Helvetica,sans-Serif" font-size="10.00" fill="#000000">+ updateCoordinates()</text>
<text text-anchor="start" x="227.5686" y="-828.5" font-family="Helvetica,sans-Serif" font-size="10.00" fill="#000000">+ getHoverX()</text>
<text text-anchor="start" x="227.5686" y="-817.5" font-family="Helvetica,sans-Serif" font-size="10.00" fill="#000000">und 12 mehr ...</text>
<text text-anchor="start" x="227.5686" y="-806.5" font-family="Helvetica,sans-Serif" font-size="10.00" fill="#000000">+ setDefaultMode()</text>
<text text-anchor="start" x="227.5686" y="-795.5" font-family="Helvetica,sans-Serif" font-size="10.00" fill="#000000">+ setTrainStationMode()</text>
<text text-anchor="start" x="227.5686" y="-784.5" font-family="Helvetica,sans-Serif" font-size="10.00" fill="#000000">+ setDepotMode()</text>
<text text-anchor="start" x="227.5686" y="-773.5" font-family="Helvetica,sans-Serif" font-size="10.00" fill="#000000">+ setTerminalMode()</text>
<text text-anchor="start" x="227.5686" y="-762.5" font-family="Helvetica,sans-Serif" font-size="10.00" fill="#000000">+ setBridgeMode()</text>
<text text-anchor="start" x="227.5686" y="-751.5" font-family="Helvetica,sans-Serif" font-size="10.00" fill="#000000">+ setRailPlacementMode()</text>
<text text-anchor="start" x="227.5686" y="-740.5" font-family="Helvetica,sans-Serif" font-size="10.00" fill="#000000">+ setMapLoaded()</text>
</a>
</g>
</g>
<!-- Node12&#45;&gt;Node13 -->
<g id="edge16" class="edge">
<title>Node12&#45;&gt;Node13</title>
<path fill="none" stroke="#404040" d="M464.4858,-1214.4325C434.1613,-1188.7847 393.3978,-1150.5178 366.0686,-1110 365.1774,-1108.6787 364.2934,-1107.3456 363.4167,-1106.0016"/>
<polygon fill="none" stroke="#404040" points="363.2067,-1105.6663 356.632,-1102.7042 356.8375,-1095.496 363.4122,-1098.4581 363.2067,-1105.6663"/>
<text text-anchor="middle" x="422.5686" y="-1131" font-family="Helvetica,sans-Serif" font-size="10.00" fill="#000000"> +secondPlayer</text>
</g>
<!-- Node13&#45;&gt;Node1 -->
<g id="edge25" class="edge">
<title>Node13&#45;&gt;Node1</title>
<path fill="none" stroke="#404040" d="M336.1846,-733.4359C340.0478,-713.7987 343.4592,-694.0564 346.0686,-675 379.7785,-428.813 443.214,-348.7017 356.0686,-116 350.927,-102.2706 342.3112,-89.3307 332.8205,-77.9771"/>
<polygon fill="none" stroke="#404040" points="332.6669,-77.8041 325.6921,-75.9731 324.6997,-68.8306 331.6745,-70.6616 332.6669,-77.8041"/>
<text text-anchor="middle" x="415.5686" y="-448" font-family="Helvetica,sans-Serif" font-size="10.00" fill="#000000"> &#45;dataModel</text>
</g>
<!-- Node13&#45;&gt;Node3 -->
<g id="edge19" class="edge">
<title>Node13&#45;&gt;Node3</title>
<path fill="none" stroke="#404040" d="M287.2008,-733.4931C286.7707,-640.2869 286.2556,-528.6809 285.8394,-438.514"/>
<polygon fill="none" stroke="#404040" points="285.8394,-438.5023 281.8117,-432.5208 285.784,-426.5024 289.8117,-432.4838 285.8394,-438.5023"/>
<text text-anchor="middle" x="314.5686" y="-572" font-family="Helvetica,sans-Serif" font-size="10.00" fill="#000000"> &#45;dataModel</text>
</g>
<!-- Node13&#45;&gt;Node5 -->
<g id="edge14" class="edge">
<title>Node13&#45;&gt;Node5</title>
<path fill="none" stroke="#404040" d="M356.5803,-746.659C359.6336,-741.9722 362.7959,-737.4074 366.0686,-733 373.6001,-722.857 379.1345,-723.9324 388.0686,-715 402.6031,-700.4683 417.194,-684.2245 430.8697,-668.0835"/>
<polygon fill="none" stroke="#404040" points="431.1032,-667.8048 431.8895,-660.6366 438.8087,-658.6055 438.0224,-665.7736 431.1032,-667.8048"/>
<text text-anchor="middle" x="436.5686" y="-701.5" font-family="Helvetica,sans-Serif" font-size="10.00" fill="#000000"> &#45;dataModel</text>
</g>
<!-- Node13&#45;&gt;Node17 -->
<g id="edge24" class="edge">
<title>Node13&#45;&gt;Node17</title>
<path fill="none" stroke="#404040" d="M219.4054,-855.2938C176.8645,-809.2858 126.0915,-744.0314 103.0686,-675 67.7568,-569.122 88.2068,-439.2718 108.8113,-355.9709"/>
<polygon fill="none" stroke="#404040" points="108.8265,-355.9109 106.4262,-349.111 111.7798,-344.28 114.1801,-351.0799 108.8265,-355.9109"/>
<text text-anchor="middle" x="130.5686" y="-572" font-family="Helvetica,sans-Serif" font-size="10.00" fill="#000000"> &#45;dataModel</text>
</g>
<!-- Node14 -->
<g id="node14" class="node">
<title>Node14</title>
<g id="a_node14"><a xlink:title=" ">
<polygon fill="#ffffff" stroke="#bfbfbf" points="261.5686,-1218 261.5686,-1275 314.5686,-1275 314.5686,-1218 261.5686,-1218"/>
<text text-anchor="middle" x="288.0686" y="-1263" font-family="Helvetica,sans-Serif" font-size="10.00" fill="#000000">QObject</text>
<polyline fill="none" stroke="#bfbfbf" points="261.5686,-1256 314.5686,-1256 "/>
<text text-anchor="middle" x="288.0686" y="-1244" font-family="Helvetica,sans-Serif" font-size="10.00" fill="#000000"> </text>
<polyline fill="none" stroke="#bfbfbf" points="261.5686,-1237 314.5686,-1237 "/>
<text text-anchor="middle" x="288.0686" y="-1225" font-family="Helvetica,sans-Serif" font-size="10.00" fill="#000000"> </text>
</a>
</g>
</g>
<!-- Node14&#45;&gt;Node13 -->
<g id="edge15" class="edge">
<title>Node14&#45;&gt;Node13</title>
<path fill="none" stroke="#191970" d="M288.0686,-1207.6785C288.0686,-1182.2614 288.0686,-1146.9657 288.0686,-1109.8228"/>
<polygon fill="none" stroke="#191970" points="284.5687,-1207.9432 288.0686,-1217.9433 291.5687,-1207.9433 284.5687,-1207.9432"/>
</g>
<!-- Node15 -->
<g id="node15" class="node">
<title>Node15</title>
<g id="a_node15"><a xlink:href="classToolTipMenu.html" target="_top" xlink:title=" ">
<polygon fill="#ffffff" stroke="#000000" points="743.5686,-529.5 743.5686,-619.5 836.5686,-619.5 836.5686,-529.5 743.5686,-529.5"/>
<text text-anchor="middle" x="790.0686" y="-607.5" font-family="Helvetica,sans-Serif" font-size="10.00" fill="#000000">ToolTipMenu</text>
<polyline fill="none" stroke="#000000" points="743.5686,-600.5 836.5686,-600.5 "/>
<text text-anchor="start" x="751.5686" y="-588.5" font-family="Helvetica,sans-Serif" font-size="10.00" fill="#000000">&#45; textlabel</text>
<polyline fill="none" stroke="#000000" points="743.5686,-581.5 836.5686,-581.5 "/>
<text text-anchor="start" x="751.5686" y="-569.5" font-family="Helvetica,sans-Serif" font-size="10.00" fill="#000000">+ ToolTipMenu()</text>
<text text-anchor="start" x="751.5686" y="-558.5" font-family="Helvetica,sans-Serif" font-size="10.00" fill="#000000">+ hide()</text>
<text text-anchor="start" x="751.5686" y="-547.5" font-family="Helvetica,sans-Serif" font-size="10.00" fill="#000000">+ showAt()</text>
<text text-anchor="start" x="751.5686" y="-536.5" font-family="Helvetica,sans-Serif" font-size="10.00" fill="#000000">+ setText()</text>
</a>
</g>
</g>
<!-- Node15&#45;&gt;Node3 -->
<g id="edge17" class="edge">
<title>Node15&#45;&gt;Node3</title>
<path fill="none" stroke="#404040" d="M743.4054,-552.5631C660.0596,-513.3339 493.1395,-434.5346 481.0686,-427 437.7732,-399.9751 392.931,-364.9996 357.0828,-335.0651"/>
<polygon fill="none" stroke="#404040" points="356.8792,-334.8939 349.7127,-334.0933 347.6954,-327.1701 354.8619,-327.9707 356.8792,-334.8939"/>
<text text-anchor="middle" x="549.5686" y="-448" font-family="Helvetica,sans-Serif" font-size="10.00" fill="#000000"> &#45;tooltip</text>
</g>
<!-- Node16 -->
<g id="node16" class="node">
<title>Node16</title>
<g id="a_node16"><a xlink:title=" ">
<polygon fill="#ffffff" stroke="#bfbfbf" points="920.0686,-893 920.0686,-950 976.0686,-950 976.0686,-893 920.0686,-893"/>
<text text-anchor="middle" x="948.0686" y="-938" font-family="Helvetica,sans-Serif" font-size="10.00" fill="#000000">QWidget</text>
<polyline fill="none" stroke="#bfbfbf" points="920.0686,-931 976.0686,-931 "/>
<text text-anchor="middle" x="948.0686" y="-919" font-family="Helvetica,sans-Serif" font-size="10.00" fill="#000000"> </text>
<polyline fill="none" stroke="#bfbfbf" points="920.0686,-912 976.0686,-912 "/>
<text text-anchor="middle" x="948.0686" y="-900" font-family="Helvetica,sans-Serif" font-size="10.00" fill="#000000"> </text>
</a>
</g>
</g>
<!-- Node16&#45;&gt;Node15 -->
<g id="edge18" class="edge">
<title>Node16&#45;&gt;Node15</title>
<path fill="none" stroke="#191970" d="M945.6215,-882.608C941.9811,-843.3596 933.0106,-781.7509 911.0686,-733 892.0999,-690.8553 860.0095,-649.5627 833.6414,-619.6947"/>
<polygon fill="none" stroke="#191970" points="942.1548,-883.147 946.4943,-892.8123 949.1293,-882.5504 942.1548,-883.147"/>
</g>
<!-- Node17&#45;&gt;Node1 -->
<g id="edge21" class="edge">
<title>Node17&#45;&gt;Node1</title>
<path fill="none" stroke="#404040" d="M166.2102,-198.9052C179.3276,-172.0083 195.5397,-141.7973 213.0686,-116 221.9436,-102.9386 232.705,-89.7122 243.1729,-77.8229"/>
<polygon fill="none" stroke="#404040" points="243.4396,-77.5263 244.4771,-70.3902 251.4633,-68.6033 250.4258,-75.7394 243.4396,-77.5263"/>
<text text-anchor="middle" x="250.0686" y="-90" font-family="Helvetica,sans-Serif" font-size="10.00" fill="#000000"> &#45;client</text>
</g>
</g>
</svg>
        <g id="navigator" transform="translate(0 0)" fill="#404254">
                <rect fill="#f2f5e9" fill-opacity="0.5" stroke="#606060" stroke-width=".5" x="0" y="0" width="60" height="60"/>
                <use id="zoomplus" xlink:href="#zoomPlus" x="17" y="9" onmousedown="handleZoom(evt,'in')"/>
                <use id="zoomminus" xlink:href="#zoomMin" x="42" y="9" onmousedown="handleZoom(evt,'out')"/>
                <use id="reset" xlink:href="#resetDef" x="30" y="36" onmousedown="handleReset()"/>
                <g id="arrowUp" xlink:href="#dirArrow" transform="translate(30 24)" onmousedown="handlePan(0,-1)">
                  <use xlink:href="#rim" fill="#404040">
                        <set attributeName="fill" to="#808080" begin="arrowUp.mouseover" end="arrowUp.mouseout"/>
                  </use>
                  <path fill="none" stroke="white" stroke-width="1.5" d="M0,-3.0v7 M-2.5,-0.5L0,-3.0L2.5,-0.5"/>
                </g>
                <g id="arrowRight" xlink:href="#dirArrow" transform="rotate(90) translate(36 -43)" onmousedown="handlePan(1,0)">
                  <use xlink:href="#rim" fill="#404040">
                        <set attributeName="fill" to="#808080" begin="arrowRight.mouseover" end="arrowRight.mouseout"/>
                  </use>
                  <path fill="none" stroke="white" stroke-width="1.5" d="M0,-3.0v7 M-2.5,-0.5L0,-3.0L2.5,-0.5"/>
                </g>
                <g id="arrowDown" xlink:href="#dirArrow" transform="rotate(180) translate(-30 -48)" onmousedown="handlePan(0,1)">
                  <use xlink:href="#rim" fill="#404040">
                        <set attributeName="fill" to="#808080" begin="arrowDown.mouseover" end="arrowDown.mouseout"/>
                  </use>
                  <path fill="none" stroke="white" stroke-width="1.5" d="M0,-3.0v7 M-2.5,-0.5L0,-3.0L2.5,-0.5"/>
                </g>
                <g id="arrowLeft" xlink:href="#dirArrow" transform="rotate(270) translate(-36 17)" onmousedown="handlePan(-1,0)">
                  <use xlink:href="#rim" fill="#404040">
                        <set attributeName="fill" to="#808080" begin="arrowLeft.mouseover" end="arrowLeft.mouseout"/>
                  </use>
                  <path fill="none" stroke="white" stroke-width="1.5" d="M0,-3.0v7 M-2.5,-0.5L0,-3.0L2.5,-0.5"/>
                </g>
        </g>
        <svg viewBox="0 0 15 15" width="100%" height="30px" preserveAspectRatio="xMaxYMin meet">
         <g id="arrow_out" transform="scale(0.3 0.3)">
          <a xlink:href="classGameLoop__coll__graph_org.svg" target="_base">
           <rect id="button" ry="5" rx="5" y="6" x="6" height="38" width="38"
                fill="#f2f5e9" fill-opacity="0.5" stroke="#606060" stroke-width="1.0"/>
           <path id="arrow"
             d="M 11.500037,31.436501 C 11.940474,20.09759 22.043105,11.32322 32.158766,21.979434 L 37.068811,17.246167 C 37.068811,17.246167 37.088388,32 37.088388,32 L 22.160133,31.978069 C 22.160133,31.978069 26.997745,27.140456 26.997745,27.140456 C 18.528582,18.264221 13.291696,25.230495 11.500037,31.436501 z"
             style="fill:#404040;"/>
          </a>
         </g>
        </svg>
</svg>
