<?xml version="1.0" encoding="UTF-8" standalone="no"?>
<!DOCTYPE svg PUBLIC "-//W3C//DTD SVG 1.1//EN"
 "http://www.w3.org/Graphics/SVG/1.1/DTD/svg11.dtd">
<!-- Generated by graphviz version 2.40.1 (20161225.0304)
 -->
<!-- Title: GameLoop Pages: 1 -->
<svg width="1069pt" height="1577pt"
 viewBox="0.00 0.00 1069.00 1577.00" xmlns="http://www.w3.org/2000/svg" xmlns:xlink="http://www.w3.org/1999/xlink">
<g id="graph0" class="graph" transform="scale(1 1) rotate(0) translate(4 1573)">
<title>GameLoop</title>
<polygon fill="#ffffff" stroke="transparent" points="-4,4 -4,-1573 1065,-1573 1065,4 -4,4"/>
<!-- Node1 -->
<g id="node1" class="node">
<title>Node1</title>
<g id="a_node1"><a xlink:title=" ">
<polygon fill="#bfbfbf" stroke="#000000" points="547.5,-.5 547.5,-68.5 630.5,-68.5 630.5,-.5 547.5,-.5"/>
<text text-anchor="middle" x="589" y="-56.5" font-family="Helvetica,sans-Serif" font-size="10.00" fill="#000000">GameLoop</text>
<polyline fill="none" stroke="#000000" points="547.5,-49.5 630.5,-49.5 "/>
<text text-anchor="middle" x="589" y="-37.5" font-family="Helvetica,sans-Serif" font-size="10.00" fill="#000000"> </text>
<polyline fill="none" stroke="#000000" points="547.5,-30.5 630.5,-30.5 "/>
<text text-anchor="start" x="555.5" y="-18.5" font-family="Helvetica,sans-Serif" font-size="10.00" fill="#000000">+ GameLoop()</text>
<text text-anchor="start" x="555.5" y="-7.5" font-family="Helvetica,sans-Serif" font-size="10.00" fill="#000000">+ run()</text>
</a>
</g>
</g>
<!-- Node2 -->
<g id="node2" class="node">
<title>Node2</title>
<g id="a_node2"><a xlink:title=" ">
<polygon fill="#ffffff" stroke="#bfbfbf" points="291,-557 291,-614 349,-614 349,-557 291,-557"/>
<text text-anchor="middle" x="320" y="-602" font-family="Helvetica,sans-Serif" font-size="10.00" fill="#000000">QThread</text>
<polyline fill="none" stroke="#bfbfbf" points="291,-595 349,-595 "/>
<text text-anchor="middle" x="320" y="-583" font-family="Helvetica,sans-Serif" font-size="10.00" fill="#000000"> </text>
<polyline fill="none" stroke="#bfbfbf" points="291,-576 349,-576 "/>
<text text-anchor="middle" x="320" y="-564" font-family="Helvetica,sans-Serif" font-size="10.00" fill="#000000"> </text>
</a>
</g>
</g>
<!-- Node2&#45;&gt;Node1 -->
<g id="edge1" class="edge">
<title>Node2&#45;&gt;Node1</title>
<path fill="none" stroke="#191970" d="M312.8337,-546.887C299.0737,-460.5622 278.1945,-249.0978 374,-116 394.7551,-87.1659 490.5915,-59.0273 547.0649,-44.5571"/>
<polygon fill="none" stroke="#191970" points="309.3849,-547.4847 314.4682,-556.7804 316.2913,-546.3436 309.3849,-547.4847"/>
</g>
<!-- Node18 -->
<g id="node18" class="node">
<title>Node18</title>
<g id="a_node18"><a xlink:href="classClient.html" target="_top" xlink:title=" ">
<polygon fill="#ffffff" stroke="#000000" points="468.5,-204.5 468.5,-349.5 583.5,-349.5 583.5,-204.5 468.5,-204.5"/>
<text text-anchor="middle" x="526" y="-337.5" font-family="Helvetica,sans-Serif" font-size="10.00" fill="#000000">Client</text>
<polyline fill="none" stroke="#000000" points="468.5,-330.5 583.5,-330.5 "/>
<text text-anchor="start" x="476.5" y="-318.5" font-family="Helvetica,sans-Serif" font-size="10.00" fill="#000000">&#45; socket</text>
<text text-anchor="start" x="476.5" y="-307.5" font-family="Helvetica,sans-Serif" font-size="10.00" fill="#000000">&#45; debug</text>
<text text-anchor="start" x="476.5" y="-296.5" font-family="Helvetica,sans-Serif" font-size="10.00" fill="#000000">&#45; tickcount</text>
<polyline fill="none" stroke="#000000" points="468.5,-289.5 583.5,-289.5 "/>
<text text-anchor="start" x="476.5" y="-277.5" font-family="Helvetica,sans-Serif" font-size="10.00" fill="#000000">+ Client()</text>
<text text-anchor="start" x="476.5" y="-266.5" font-family="Helvetica,sans-Serif" font-size="10.00" fill="#000000">+ run()</text>
<text text-anchor="start" x="476.5" y="-255.5" font-family="Helvetica,sans-Serif" font-size="10.00" fill="#000000">+ requestMap()</text>
<text text-anchor="start" x="476.5" y="-244.5" font-family="Helvetica,sans-Serif" font-size="10.00" fill="#000000">+ onPositionChange()</text>
<text text-anchor="start" x="476.5" y="-233.5" font-family="Helvetica,sans-Serif" font-size="10.00" fill="#000000">+ onLeftclick()</text>
<text text-anchor="start" x="476.5" y="-222.5" font-family="Helvetica,sans-Serif" font-size="10.00" fill="#000000">+ onRightclick()</text>
<text text-anchor="start" x="476.5" y="-211.5" font-family="Helvetica,sans-Serif" font-size="10.00" fill="#000000">&#45; processCommand()</text>
</a>
</g>
</g>
<!-- Node2&#45;&gt;Node18 -->
<g id="edge23" class="edge">
<title>Node2&#45;&gt;Node18</title>
<path fill="none" stroke="#191970" d="M327.3507,-546.9789C332.891,-526.5679 342.3162,-502.2283 358,-485 389.98,-449.8707 420.9971,-472.1702 454,-438 477.7177,-413.4433 494.4336,-379.736 505.7476,-349.5074"/>
<polygon fill="none" stroke="#191970" points="323.8917,-546.3844 324.8638,-556.9346 330.683,-548.0809 323.8917,-546.3844"/>
</g>
<!-- Node3 -->
<g id="node3" class="node">
<title>Node3</title>
<g id="a_node3"><a xlink:href="classView.html" target="_top" xlink:title=" ">
<polygon fill="#ffffff" stroke="#000000" points="679.5,-116.5 679.5,-437.5 804.5,-437.5 804.5,-116.5 679.5,-116.5"/>
<text text-anchor="middle" x="742" y="-425.5" font-family="Helvetica,sans-Serif" font-size="10.00" fill="#000000">View</text>
<polyline fill="none" stroke="#000000" points="679.5,-418.5 804.5,-418.5 "/>
<text text-anchor="start" x="687.5" y="-406.5" font-family="Helvetica,sans-Serif" font-size="10.00" fill="#000000">+ currentScale</text>
<text text-anchor="start" x="687.5" y="-395.5" font-family="Helvetica,sans-Serif" font-size="10.00" fill="#000000">&#45; dragOriginX</text>
<text text-anchor="start" x="687.5" y="-384.5" font-family="Helvetica,sans-Serif" font-size="10.00" fill="#000000">&#45; dragOriginY</text>
<text text-anchor="start" x="687.5" y="-373.5" font-family="Helvetica,sans-Serif" font-size="10.00" fill="#000000">&#45; dragPosX</text>
<text text-anchor="start" x="687.5" y="-362.5" font-family="Helvetica,sans-Serif" font-size="10.00" fill="#000000">&#45; dragPosY</text>
<text text-anchor="start" x="687.5" y="-351.5" font-family="Helvetica,sans-Serif" font-size="10.00" fill="#000000">&#45; mouseX</text>
<text text-anchor="start" x="687.5" y="-340.5" font-family="Helvetica,sans-Serif" font-size="10.00" fill="#000000">&#45; mouseY</text>
<text text-anchor="start" x="687.5" y="-329.5" font-family="Helvetica,sans-Serif" font-size="10.00" fill="#000000">&#45; mouseDown</text>
<text text-anchor="start" x="687.5" y="-318.5" font-family="Helvetica,sans-Serif" font-size="10.00" fill="#000000">&#45; doAnimations</text>
<text text-anchor="start" x="687.5" y="-307.5" font-family="Helvetica,sans-Serif" font-size="10.00" fill="#000000">&#45; codeCount</text>
<polyline fill="none" stroke="#000000" points="679.5,-300.5 804.5,-300.5 "/>
<text text-anchor="start" x="687.5" y="-288.5" font-family="Helvetica,sans-Serif" font-size="10.00" fill="#000000">+ View()</text>
<text text-anchor="start" x="687.5" y="-277.5" font-family="Helvetica,sans-Serif" font-size="10.00" fill="#000000">+ mousePressEvent()</text>
<text text-anchor="start" x="687.5" y="-266.5" font-family="Helvetica,sans-Serif" font-size="10.00" fill="#000000">+ mouseReleaseEvent()</text>
<text text-anchor="start" x="687.5" y="-255.5" font-family="Helvetica,sans-Serif" font-size="10.00" fill="#000000">+ mouseMoveEvent()</text>
<text text-anchor="start" x="687.5" y="-244.5" font-family="Helvetica,sans-Serif" font-size="10.00" fill="#000000">+ wheelEvent()</text>
<text text-anchor="start" x="687.5" y="-233.5" font-family="Helvetica,sans-Serif" font-size="10.00" fill="#000000">+ keyPressEvent()</text>
<text text-anchor="start" x="687.5" y="-222.5" font-family="Helvetica,sans-Serif" font-size="10.00" fill="#000000">+ fluidZoom()</text>
<text text-anchor="start" x="687.5" y="-211.5" font-family="Helvetica,sans-Serif" font-size="10.00" fill="#000000">+ fluidMove()</text>
<text text-anchor="start" x="687.5" y="-200.5" font-family="Helvetica,sans-Serif" font-size="10.00" fill="#000000">+ fluidMovement()</text>
<text text-anchor="start" x="687.5" y="-189.5" font-family="Helvetica,sans-Serif" font-size="10.00" fill="#000000">+ enableAnimation()</text>
<text text-anchor="start" x="687.5" y="-178.5" font-family="Helvetica,sans-Serif" font-size="10.00" fill="#000000">+ setDataModel()</text>
<text text-anchor="start" x="687.5" y="-167.5" font-family="Helvetica,sans-Serif" font-size="10.00" fill="#000000">+ paintEvent()</text>
<text text-anchor="start" x="687.5" y="-156.5" font-family="Helvetica,sans-Serif" font-size="10.00" fill="#000000">+ tick()</text>
<text text-anchor="start" x="687.5" y="-145.5" font-family="Helvetica,sans-Serif" font-size="10.00" fill="#000000">+ zoomInAnimation()</text>
<text text-anchor="start" x="687.5" y="-134.5" font-family="Helvetica,sans-Serif" font-size="10.00" fill="#000000">&#45; leftclick()</text>
<text text-anchor="start" x="687.5" y="-123.5" font-family="Helvetica,sans-Serif" font-size="10.00" fill="#000000">&#45; rightclick()</text>
</a>
</g>
</g>
<!-- Node3&#45;&gt;Node1 -->
<g id="edge2" class="edge">
<title>Node3&#45;&gt;Node1</title>
<path fill="none" stroke="#404040" d="M679.4028,-171.6952C662.4333,-143.9218 643.8188,-114.137 626,-87 624.2251,-84.2969 622.3775,-81.5326 620.4965,-78.7555"/>
<polygon fill="none" stroke="#404040" points="620.4041,-78.6209 613.7095,-75.9407 613.6088,-68.7303 620.3033,-71.4105 620.4041,-78.6209"/>
<text text-anchor="middle" x="646" y="-90" font-family="Helvetica,sans-Serif" font-size="10.00" fill="#000000"> &#45;view</text>
</g>
<!-- Node4 -->
<g id="node4" class="node">
<title>Node4</title>
<g id="a_node4"><a xlink:title=" ">
<polygon fill="#ffffff" stroke="#bfbfbf" points="643.5,-557 643.5,-614 730.5,-614 730.5,-557 643.5,-557"/>
<text text-anchor="middle" x="687" y="-602" font-family="Helvetica,sans-Serif" font-size="10.00" fill="#000000">QGraphicsView</text>
<polyline fill="none" stroke="#bfbfbf" points="643.5,-595 730.5,-595 "/>
<text text-anchor="middle" x="687" y="-583" font-family="Helvetica,sans-Serif" font-size="10.00" fill="#000000"> </text>
<polyline fill="none" stroke="#bfbfbf" points="643.5,-576 730.5,-576 "/>
<text text-anchor="middle" x="687" y="-564" font-family="Helvetica,sans-Serif" font-size="10.00" fill="#000000"> </text>
</a>
</g>
</g>
<!-- Node4&#45;&gt;Node3 -->
<g id="edge3" class="edge">
<title>Node4&#45;&gt;Node3</title>
<path fill="none" stroke="#191970" d="M702.9697,-547.517C711.8824,-524.6106 722.3074,-494.6108 728,-467 729.9703,-457.4437 731.6723,-447.5668 733.1419,-437.5702"/>
<polygon fill="none" stroke="#191970" points="699.6927,-546.2861 699.2607,-556.8721 706.1999,-548.866 699.6927,-546.2861"/>
</g>
<!-- Node5 -->
<g id="node5" class="node">
<title>Node5</title>
<g id="a_node5"><a xlink:href="classScene.html" target="_top" xlink:title=" ">
<polygon fill="#ffffff" stroke="#000000" points="367,-485.5 367,-685.5 495,-685.5 495,-485.5 367,-485.5"/>
<text text-anchor="middle" x="431" y="-673.5" font-family="Helvetica,sans-Serif" font-size="10.00" fill="#000000">Scene</text>
<polyline fill="none" stroke="#000000" points="367,-666.5 495,-666.5 "/>
<text text-anchor="start" x="375" y="-654.5" font-family="Helvetica,sans-Serif" font-size="10.00" fill="#000000">+ MAP_SIZE</text>
<text text-anchor="start" x="375" y="-643.5" font-family="Helvetica,sans-Serif" font-size="10.00" fill="#000000">+ TILE_SIZE</text>
<text text-anchor="start" x="375" y="-632.5" font-family="Helvetica,sans-Serif" font-size="10.00" fill="#000000">&#45; radiusHighlighter</text>
<text text-anchor="start" x="375" y="-621.5" font-family="Helvetica,sans-Serif" font-size="10.00" fill="#000000">&#45; textHint</text>
<text text-anchor="start" x="375" y="-610.5" font-family="Helvetica,sans-Serif" font-size="10.00" fill="#000000">&#45; showRadius</text>
<text text-anchor="start" x="375" y="-599.5" font-family="Helvetica,sans-Serif" font-size="10.00" fill="#000000">&#45; players</text>
<polyline fill="none" stroke="#000000" points="367,-592.5 495,-592.5 "/>
<text text-anchor="start" x="375" y="-580.5" font-family="Helvetica,sans-Serif" font-size="10.00" fill="#000000">+ Scene()</text>
<text text-anchor="start" x="375" y="-569.5" font-family="Helvetica,sans-Serif" font-size="10.00" fill="#000000">+ generateWorld()</text>
<text text-anchor="start" x="375" y="-558.5" font-family="Helvetica,sans-Serif" font-size="10.00" fill="#000000">+ setActiveTile()</text>
<text text-anchor="start" x="375" y="-547.5" font-family="Helvetica,sans-Serif" font-size="10.00" fill="#000000">+ getTileAt()</text>
<text text-anchor="start" x="375" y="-536.5" font-family="Helvetica,sans-Serif" font-size="10.00" fill="#000000">+ setTileAt()</text>
<text text-anchor="start" x="375" y="-525.5" font-family="Helvetica,sans-Serif" font-size="10.00" fill="#000000">+ tileChanged()</text>
<text text-anchor="start" x="375" y="-514.5" font-family="Helvetica,sans-Serif" font-size="10.00" fill="#000000">+ tick()</text>
<text text-anchor="start" x="375" y="-503.5" font-family="Helvetica,sans-Serif" font-size="10.00" fill="#000000">+ onSetTile()</text>
<text text-anchor="start" x="375" y="-492.5" font-family="Helvetica,sans-Serif" font-size="10.00" fill="#000000">+ updatePlayerPosition()</text>
</a>
</g>
</g>
<!-- Node5&#45;&gt;Node1 -->
<g id="edge21" class="edge">
<title>Node5&#45;&gt;Node1</title>
<path fill="none" stroke="#404040" d="M400.8282,-485.1711C376.7081,-384.0678 357.1106,-227.4654 426,-116 449.7144,-77.6292 497.5702,-56.7194 535.3228,-45.7228"/>
<polygon fill="none" stroke="#404040" points="535.6039,-45.6463 540.3412,-40.2095 547.1818,-42.4913 542.4445,-47.9281 535.6039,-45.6463"/>
<text text-anchor="middle" x="443" y="-274.5" font-family="Helvetica,sans-Serif" font-size="10.00" fill="#000000"> &#45;scene</text>
</g>
<!-- Node5&#45;&gt;Node3 -->
<g id="edge4" class="edge">
<title>Node5&#45;&gt;Node3</title>
<path fill="none" stroke="#404040" d="M495.1542,-494.2931C499.568,-490.8383 504.1858,-487.704 509,-485 571.0068,-450.1728 611.646,-510.3821 668,-467 675.3282,-461.3586 681.9314,-454.8899 687.8813,-447.8215"/>
<polygon fill="none" stroke="#404040" points="688.2612,-447.3296 688.7631,-440.1359 695.5964,-437.8324 695.0945,-445.0261 688.2612,-447.3296"/>
<text text-anchor="middle" x="698.5" y="-459" font-family="Helvetica,sans-Serif" font-size="10.00" fill="#000000"> +scene</text>
</g>
<!-- Node5&#45;&gt;Node18 -->
<g id="edge24" class="edge">
<title>Node5&#45;&gt;Node18</title>
<path fill="none" stroke="#404040" d="M461.8438,-485.3389C474.1677,-445.3186 488.2044,-399.7364 499.9994,-361.4335"/>
<polygon fill="none" stroke="#404040" points="500.0519,-361.2628 497.9949,-354.3513 503.5836,-349.7943 505.6406,-356.7058 500.0519,-361.2628"/>
<text text-anchor="middle" x="486" y="-459" font-family="Helvetica,sans-Serif" font-size="10.00" fill="#000000"> &#45;scene</text>
</g>
<!-- Node6 -->
<g id="node6" class="node">
<title>Node6</title>
<g id="a_node6"><a xlink:title=" ">
<polygon fill="#ffffff" stroke="#bfbfbf" points="0,-909.5 0,-966.5 94,-966.5 94,-909.5 0,-909.5"/>
<text text-anchor="middle" x="47" y="-954.5" font-family="Helvetica,sans-Serif" font-size="10.00" fill="#000000">QGraphicsScene</text>
<polyline fill="none" stroke="#bfbfbf" points="0,-947.5 94,-947.5 "/>
<text text-anchor="middle" x="47" y="-935.5" font-family="Helvetica,sans-Serif" font-size="10.00" fill="#000000"> </text>
<polyline fill="none" stroke="#bfbfbf" points="0,-928.5 94,-928.5 "/>
<text text-anchor="middle" x="47" y="-916.5" font-family="Helvetica,sans-Serif" font-size="10.00" fill="#000000"> </text>
</a>
</g>
</g>
<!-- Node6&#45;&gt;Node5 -->
<g id="edge5" class="edge">
<title>Node6&#45;&gt;Node5</title>
<path fill="none" stroke="#191970" d="M44.5314,-899.0688C43.5267,-845.8859 50.6591,-751.6961 108,-704 150.8217,-668.3809 309.3137,-713.0566 358,-686 361.016,-684.3239 363.9401,-682.4648 366.7721,-680.452"/>
<polygon fill="none" stroke="#191970" points="41.0349,-899.2403 44.8284,-909.1327 48.0318,-899.0338 41.0349,-899.2403"/>
</g>
<!-- Node7 -->
<g id="node7" class="node">
<title>Node7</title>
<g id="a_node7"><a xlink:href="classHighlighter.html" target="_top" xlink:title=" ">
<polygon fill="#ffffff" stroke="#000000" points="98.5,-1405.5 98.5,-1473.5 177.5,-1473.5 177.5,-1405.5 98.5,-1405.5"/>
<text text-anchor="middle" x="138" y="-1461.5" font-family="Helvetica,sans-Serif" font-size="10.00" fill="#000000">Highlighter</text>
<polyline fill="none" stroke="#000000" points="98.5,-1454.5 177.5,-1454.5 "/>
<text text-anchor="start" x="106.5" y="-1442.5" font-family="Helvetica,sans-Serif" font-size="10.00" fill="#000000">&#45; outline</text>
<polyline fill="none" stroke="#000000" points="98.5,-1435.5 177.5,-1435.5 "/>
<text text-anchor="start" x="106.5" y="-1423.5" font-family="Helvetica,sans-Serif" font-size="10.00" fill="#000000">+ Highlighter()</text>
<text text-anchor="start" x="106.5" y="-1412.5" font-family="Helvetica,sans-Serif" font-size="10.00" fill="#000000">+ setColor()</text>
</a>
</g>
</g>
<!-- Node7&#45;&gt;Node5 -->
<g id="edge6" class="edge">
<title>Node7&#45;&gt;Node5</title>
<path fill="none" stroke="#404040" d="M135.936,-1405.0915C128.2693,-1272.8547 103.4989,-801.8279 136,-744 152.6195,-714.4296 168.9416,-715.0849 201,-704 263.8784,-682.2584 294.0815,-717.3268 356.2487,-685.9675"/>
<polygon fill="none" stroke="#404040" points="356.4234,-685.8715 359.7547,-679.476 366.9396,-680.0913 363.6082,-686.4868 356.4234,-685.8715"/>
<text text-anchor="middle" x="151" y="-1153" font-family="Helvetica,sans-Serif" font-size="10.00" fill="#000000"> &#45;highlighter</text>
</g>
<!-- Node12 -->
<g id="node12" class="node">
<title>Node12</title>
<g id="a_node12"><a xlink:href="classPlayer.html" target="_top" xlink:title=" ">
<polygon fill="#ffffff" stroke="#000000" points="416.5,-1229 416.5,-1308 497.5,-1308 497.5,-1229 416.5,-1229"/>
<text text-anchor="middle" x="457" y="-1296" font-family="Helvetica,sans-Serif" font-size="10.00" fill="#000000">Player</text>
<polyline fill="none" stroke="#000000" points="416.5,-1289 497.5,-1289 "/>
<text text-anchor="start" x="424.5" y="-1277" font-family="Helvetica,sans-Serif" font-size="10.00" fill="#000000">+ posX</text>
<text text-anchor="start" x="424.5" y="-1266" font-family="Helvetica,sans-Serif" font-size="10.00" fill="#000000">+ posY</text>
<polyline fill="none" stroke="#000000" points="416.5,-1259 497.5,-1259 "/>
<text text-anchor="start" x="424.5" y="-1247" font-family="Helvetica,sans-Serif" font-size="10.00" fill="#000000">+ Player()</text>
<text text-anchor="start" x="424.5" y="-1236" font-family="Helvetica,sans-Serif" font-size="10.00" fill="#000000">+ setPosition()</text>
</a>
</g>
</g>
<!-- Node7&#45;&gt;Node12 -->
<g id="edge13" class="edge">
<title>Node7&#45;&gt;Node12</title>
<path fill="none" stroke="#404040" d="M177.7988,-1435.9844C233.2506,-1429.2858 334.5275,-1410.3223 402,-1358 415.2073,-1347.7582 426.0069,-1333.3802 434.43,-1319.1395"/>
<polygon fill="none" stroke="#404040" points="434.5936,-1318.8442 434.002,-1311.6574 440.4085,-1308.3472 441,-1315.534 434.5936,-1318.8442"/>
<text text-anchor="middle" x="398.5" y="-1379" font-family="Helvetica,sans-Serif" font-size="10.00" fill="#000000"> +highlighter</text>
</g>
<!-- Node8 -->
<g id="node8" class="node">
<title>Node8</title>
<g id="a_node8"><a xlink:title=" ">
<polygon fill="#ffffff" stroke="#bfbfbf" points="86,-1511.5 86,-1568.5 190,-1568.5 190,-1511.5 86,-1511.5"/>
<text text-anchor="middle" x="138" y="-1556.5" font-family="Helvetica,sans-Serif" font-size="10.00" fill="#000000">QGraphicsRectItem</text>
<polyline fill="none" stroke="#bfbfbf" points="86,-1549.5 190,-1549.5 "/>
<text text-anchor="middle" x="138" y="-1537.5" font-family="Helvetica,sans-Serif" font-size="10.00" fill="#000000"> </text>
<polyline fill="none" stroke="#bfbfbf" points="86,-1530.5 190,-1530.5 "/>
<text text-anchor="middle" x="138" y="-1518.5" font-family="Helvetica,sans-Serif" font-size="10.00" fill="#000000"> </text>
</a>
</g>
</g>
<!-- Node8&#45;&gt;Node7 -->
<g id="edge7" class="edge">
<title>Node8&#45;&gt;Node7</title>
<path fill="none" stroke="#191970" d="M138,-1501.1903C138,-1492.1667 138,-1482.6233 138,-1473.8097"/>
<polygon fill="none" stroke="#191970" points="134.5001,-1501.4695 138,-1511.4696 141.5001,-1501.4696 134.5001,-1501.4695"/>
</g>
<!-- Node9 -->
<g id="node9" class="node">
<title>Node9</title>
<g id="a_node9"><a xlink:href="classMapTile.html" target="_top" xlink:title=" ">
<polygon fill="#ffffff" stroke="#000000" points="281,-821.5 281,-1054.5 421,-1054.5 421,-821.5 281,-821.5"/>
<text text-anchor="middle" x="351" y="-1042.5" font-family="Helvetica,sans-Serif" font-size="10.00" fill="#000000">MapTile</text>
<polyline fill="none" stroke="#000000" points="281,-1035.5 421,-1035.5 "/>
<text text-anchor="start" x="289" y="-1023.5" font-family="Helvetica,sans-Serif" font-size="10.00" fill="#000000">&#45; type</text>
<text text-anchor="start" x="289" y="-1012.5" font-family="Helvetica,sans-Serif" font-size="10.00" fill="#000000">&#45; pixmapItem</text>
<text text-anchor="start" x="289" y="-1001.5" font-family="Helvetica,sans-Serif" font-size="10.00" fill="#000000">&#45; currentRotation</text>
<polyline fill="none" stroke="#000000" points="281,-994.5 421,-994.5 "/>
<text text-anchor="start" x="289" y="-982.5" font-family="Helvetica,sans-Serif" font-size="10.00" fill="#000000">+ MapTile()</text>
<text text-anchor="start" x="289" y="-971.5" font-family="Helvetica,sans-Serif" font-size="10.00" fill="#000000">+ MapTile()</text>
<text text-anchor="start" x="289" y="-960.5" font-family="Helvetica,sans-Serif" font-size="10.00" fill="#000000">+ setType()</text>
<text text-anchor="start" x="289" y="-949.5" font-family="Helvetica,sans-Serif" font-size="10.00" fill="#000000">+ getType()</text>
<text text-anchor="start" x="289" y="-938.5" font-family="Helvetica,sans-Serif" font-size="10.00" fill="#000000">+ setRotation()</text>
<text text-anchor="start" x="289" y="-927.5" font-family="Helvetica,sans-Serif" font-size="10.00" fill="#000000">+ getRotation()</text>
<text text-anchor="start" x="289" y="-916.5" font-family="Helvetica,sans-Serif" font-size="10.00" fill="#000000">+ setPosition()</text>
<text text-anchor="start" x="289" y="-905.5" font-family="Helvetica,sans-Serif" font-size="10.00" fill="#000000">+ isRiver()</text>
<text text-anchor="start" x="289" y="-894.5" font-family="Helvetica,sans-Serif" font-size="10.00" fill="#000000">+ isRail()</text>
<text text-anchor="start" x="289" y="-883.5" font-family="Helvetica,sans-Serif" font-size="10.00" fill="#000000">+ getPixmapItem()</text>
<text text-anchor="start" x="289" y="-872.5" font-family="Helvetica,sans-Serif" font-size="10.00" fill="#000000">+ getCity()</text>
<text text-anchor="start" x="289" y="-861.5" font-family="Helvetica,sans-Serif" font-size="10.00" fill="#000000">+ setCity()</text>
<text text-anchor="start" x="289" y="-850.5" font-family="Helvetica,sans-Serif" font-size="10.00" fill="#000000">+ getX()</text>
<text text-anchor="start" x="289" y="-839.5" font-family="Helvetica,sans-Serif" font-size="10.00" fill="#000000">+ getY()</text>
<text text-anchor="start" x="289" y="-828.5" font-family="Helvetica,sans-Serif" font-size="10.00" fill="#000000">+ attachGraphicsManager()</text>
</a>
</g>
</g>
<!-- Node9&#45;&gt;Node5 -->
<g id="edge8" class="edge">
<title>Node9&#45;&gt;Node5</title>
<path fill="none" stroke="#404040" d="M357.4104,-821.2121C361.355,-783.3492 367.7228,-741.4658 378,-704 378.626,-701.7179 379.2898,-699.4237 379.9873,-697.1222"/>
<polygon fill="none" stroke="#404040" points="380.0303,-696.9895 378.0785,-690.0476 383.7358,-685.576 385.6875,-692.5179 380.0303,-696.9895"/>
<text text-anchor="middle" x="404" y="-718" font-family="Helvetica,sans-Serif" font-size="10.00" fill="#000000"> &#45;activeTile</text>
<text text-anchor="middle" x="404" y="-707" font-family="Helvetica,sans-Serif" font-size="10.00" fill="#000000">+data</text>
</g>
<!-- Node10 -->
<g id="node10" class="node">
<title>Node10</title>
<g id="a_node10"><a xlink:href="classGraphicsManager.html" target="_top" xlink:title=" ">
<polygon fill="#ffffff" stroke="#000000" points="164.5,-1234.5 164.5,-1302.5 277.5,-1302.5 277.5,-1234.5 164.5,-1234.5"/>
<text text-anchor="middle" x="221" y="-1290.5" font-family="Helvetica,sans-Serif" font-size="10.00" fill="#000000">GraphicsManager</text>
<polyline fill="none" stroke="#000000" points="164.5,-1283.5 277.5,-1283.5 "/>
<text text-anchor="start" x="172.5" y="-1271.5" font-family="Helvetica,sans-Serif" font-size="10.00" fill="#000000">+ GRAPHICS</text>
<polyline fill="none" stroke="#000000" points="164.5,-1264.5 277.5,-1264.5 "/>
<text text-anchor="start" x="172.5" y="-1252.5" font-family="Helvetica,sans-Serif" font-size="10.00" fill="#000000">+ GraphicsManager()</text>
<text text-anchor="start" x="172.5" y="-1241.5" font-family="Helvetica,sans-Serif" font-size="10.00" fill="#000000">+ get()</text>
</a>
</g>
</g>
<!-- Node10&#45;&gt;Node5 -->
<g id="edge11" class="edge">
<title>Node10&#45;&gt;Node5</title>
<path fill="none" stroke="#404040" d="M210.0509,-1234.4349C201.8612,-1207.0815 191.3562,-1167.512 187,-1132 166.0039,-960.8385 86.5378,-884.1586 187,-744 231.5618,-681.8301 287.8194,-728.7156 356.4291,-686.018"/>
<polygon fill="none" stroke="#404040" points="356.7314,-685.8116 359.4308,-679.1248 366.6415,-679.0447 363.9421,-685.7315 356.7314,-685.8116"/>
<text text-anchor="middle" x="229.5" y="-935.5" font-family="Helvetica,sans-Serif" font-size="10.00" fill="#000000"> &#45;graphicsManager</text>
</g>
<!-- Node10&#45;&gt;Node9 -->
<g id="edge9" class="edge">
<title>Node10&#45;&gt;Node9</title>
<path fill="none" stroke="#404040" d="M232.1764,-1234.3222C240.1126,-1210.5361 251.2297,-1178.1615 262,-1150 272.4645,-1122.638 284.2434,-1093.5413 295.7231,-1065.9532"/>
<polygon fill="none" stroke="#404040" points="295.8216,-1065.7174 294.4433,-1058.6392 300.4468,-1054.6445 301.8252,-1061.7227 295.8216,-1065.7174"/>
<text text-anchor="middle" x="304.5" y="-1153" font-family="Helvetica,sans-Serif" font-size="10.00" fill="#000000"> &#45;graphicsManager</text>
</g>
<!-- Node11 -->
<g id="node11" class="node">
<title>Node11</title>
<g id="a_node11"><a xlink:href="classCity.html" target="_top" xlink:title=" ">
<polygon fill="#ffffff" stroke="#000000" points="309.5,-1179.5 309.5,-1357.5 392.5,-1357.5 392.5,-1179.5 309.5,-1179.5"/>
<text text-anchor="middle" x="351" y="-1345.5" font-family="Helvetica,sans-Serif" font-size="10.00" fill="#000000">City</text>
<polyline fill="none" stroke="#000000" points="309.5,-1338.5 392.5,-1338.5 "/>
<text text-anchor="start" x="317.5" y="-1326.5" font-family="Helvetica,sans-Serif" font-size="10.00" fill="#000000">&#45; size</text>
<text text-anchor="start" x="317.5" y="-1315.5" font-family="Helvetica,sans-Serif" font-size="10.00" fill="#000000">&#45; centerX</text>
<text text-anchor="start" x="317.5" y="-1304.5" font-family="Helvetica,sans-Serif" font-size="10.00" fill="#000000">&#45; centerY</text>
<text text-anchor="start" x="317.5" y="-1293.5" font-family="Helvetica,sans-Serif" font-size="10.00" fill="#000000">&#45; name</text>
<polyline fill="none" stroke="#000000" points="309.5,-1286.5 392.5,-1286.5 "/>
<text text-anchor="start" x="317.5" y="-1274.5" font-family="Helvetica,sans-Serif" font-size="10.00" fill="#000000">+ City()</text>
<text text-anchor="start" x="317.5" y="-1263.5" font-family="Helvetica,sans-Serif" font-size="10.00" fill="#000000">+ City()</text>
<text text-anchor="start" x="317.5" y="-1252.5" font-family="Helvetica,sans-Serif" font-size="10.00" fill="#000000">+ getSize()</text>
<text text-anchor="start" x="317.5" y="-1241.5" font-family="Helvetica,sans-Serif" font-size="10.00" fill="#000000">+ getCenterX()</text>
<text text-anchor="start" x="317.5" y="-1230.5" font-family="Helvetica,sans-Serif" font-size="10.00" fill="#000000">+ getCenterY()</text>
<text text-anchor="start" x="317.5" y="-1219.5" font-family="Helvetica,sans-Serif" font-size="10.00" fill="#000000">+ getName()</text>
<text text-anchor="start" x="317.5" y="-1208.5" font-family="Helvetica,sans-Serif" font-size="10.00" fill="#000000">+ setSize()</text>
<text text-anchor="start" x="317.5" y="-1197.5" font-family="Helvetica,sans-Serif" font-size="10.00" fill="#000000">+ setCenter()</text>
<text text-anchor="start" x="317.5" y="-1186.5" font-family="Helvetica,sans-Serif" font-size="10.00" fill="#000000">+ setName()</text>
</a>
</g>
</g>
<!-- Node11&#45;&gt;Node9 -->
<g id="edge10" class="edge">
<title>Node11&#45;&gt;Node9</title>
<path fill="none" stroke="#404040" d="M351,-1179.4973C351,-1144.821 351,-1104.4076 351,-1066.6731"/>
<polygon fill="none" stroke="#404040" points="351.0001,-1066.5265 347,-1060.5265 351,-1054.5265 355,-1060.5264 351.0001,-1066.5265"/>
<text text-anchor="middle" x="362" y="-1153" font-family="Helvetica,sans-Serif" font-size="10.00" fill="#000000"> &#45;city</text>
</g>
<!-- Node12&#45;&gt;Node5 -->
<g id="edge12" class="edge">
<title>Node12&#45;&gt;Node5</title>
<path fill="none" stroke="#404040" d="M455.4897,-1228.8269C451.6145,-1127.0259 441.2077,-853.649 435.2824,-697.9947"/>
<polygon fill="none" stroke="#404040" points="435.2676,-697.6048 431.0422,-691.7613 434.8111,-685.6135 439.0364,-691.457 435.2676,-697.6048"/>
<text text-anchor="middle" x="486" y="-935.5" font-family="Helvetica,sans-Serif" font-size="10.00" fill="#000000"> &#45;secondPlayer</text>
</g>
<!-- Node13 -->
<g id="node13" class="node">
<title>Node13</title>
<g id="a_node13"><a xlink:href="classDataModel.html" target="_top" xlink:title=" ">
<polygon fill="#ffffff" stroke="#000000" points="545.5,-744.5 545.5,-1131.5 682.5,-1131.5 682.5,-744.5 545.5,-744.5"/>
<text text-anchor="middle" x="614" y="-1119.5" font-family="Helvetica,sans-Serif" font-size="10.00" fill="#000000">DataModel</text>
<polyline fill="none" stroke="#000000" points="545.5,-1112.5 682.5,-1112.5 "/>
<text text-anchor="start" x="553.5" y="-1100.5" font-family="Helvetica,sans-Serif" font-size="10.00" fill="#000000">&#45; balance</text>
<text text-anchor="start" x="553.5" y="-1089.5" font-family="Helvetica,sans-Serif" font-size="10.00" fill="#000000">&#45; time</text>
<text text-anchor="start" x="553.5" y="-1078.5" font-family="Helvetica,sans-Serif" font-size="10.00" fill="#000000">&#45; coordinateX</text>
<text text-anchor="start" x="553.5" y="-1067.5" font-family="Helvetica,sans-Serif" font-size="10.00" fill="#000000">&#45; coordinateY</text>
<text text-anchor="start" x="553.5" y="-1056.5" font-family="Helvetica,sans-Serif" font-size="10.00" fill="#000000">&#45; mapLoaded</text>
<text text-anchor="start" x="553.5" y="-1045.5" font-family="Helvetica,sans-Serif" font-size="10.00" fill="#000000">&#45; ip</text>
<text text-anchor="start" x="553.5" y="-1034.5" font-family="Helvetica,sans-Serif" font-size="10.00" fill="#000000">&#45; port</text>
<text text-anchor="start" x="553.5" y="-1023.5" font-family="Helvetica,sans-Serif" font-size="10.00" fill="#000000">&#45; balanceLabel</text>
<text text-anchor="start" x="553.5" y="-1012.5" font-family="Helvetica,sans-Serif" font-size="10.00" fill="#000000">&#45; timeLabel</text>
<text text-anchor="start" x="553.5" y="-1001.5" font-family="Helvetica,sans-Serif" font-size="10.00" fill="#000000">&#45; positionLabel</text>
<text text-anchor="start" x="553.5" y="-990.5" font-family="Helvetica,sans-Serif" font-size="10.00" fill="#000000">&#45; statusDisplay</text>
<text text-anchor="start" x="553.5" y="-979.5" font-family="Helvetica,sans-Serif" font-size="10.00" fill="#000000">&#45; connectionLabel</text>
<text text-anchor="start" x="553.5" y="-968.5" font-family="Helvetica,sans-Serif" font-size="10.00" fill="#000000">&#45; mode</text>
<polyline fill="none" stroke="#000000" points="545.5,-961.5 682.5,-961.5 "/>
<text text-anchor="start" x="553.5" y="-949.5" font-family="Helvetica,sans-Serif" font-size="10.00" fill="#000000">+ DataModel()</text>
<text text-anchor="start" x="553.5" y="-938.5" font-family="Helvetica,sans-Serif" font-size="10.00" fill="#000000">+ getBalance()</text>
<text text-anchor="start" x="553.5" y="-927.5" font-family="Helvetica,sans-Serif" font-size="10.00" fill="#000000">+ updateBalance()</text>
<text text-anchor="start" x="553.5" y="-916.5" font-family="Helvetica,sans-Serif" font-size="10.00" fill="#000000">+ takeBalance()</text>
<text text-anchor="start" x="553.5" y="-905.5" font-family="Helvetica,sans-Serif" font-size="10.00" fill="#000000">+ timeTick()</text>
<text text-anchor="start" x="553.5" y="-894.5" font-family="Helvetica,sans-Serif" font-size="10.00" fill="#000000">+ getTime()</text>
<text text-anchor="start" x="553.5" y="-883.5" font-family="Helvetica,sans-Serif" font-size="10.00" fill="#000000">+ setTime()</text>
<text text-anchor="start" x="553.5" y="-872.5" font-family="Helvetica,sans-Serif" font-size="10.00" fill="#000000">+ getSystemMillis()</text>
<text text-anchor="start" x="553.5" y="-861.5" font-family="Helvetica,sans-Serif" font-size="10.00" fill="#000000">+ updateCoordinates()</text>
<text text-anchor="start" x="553.5" y="-850.5" font-family="Helvetica,sans-Serif" font-size="10.00" fill="#000000">+ getHoverX()</text>
<text text-anchor="start" x="553.5" y="-839.5" font-family="Helvetica,sans-Serif" font-size="10.00" fill="#000000">und 14 mehr ...</text>
<text text-anchor="start" x="553.5" y="-828.5" font-family="Helvetica,sans-Serif" font-size="10.00" fill="#000000">+ setDefaultMode()</text>
<text text-anchor="start" x="553.5" y="-817.5" font-family="Helvetica,sans-Serif" font-size="10.00" fill="#000000">+ setTrainStationMode()</text>
<text text-anchor="start" x="553.5" y="-806.5" font-family="Helvetica,sans-Serif" font-size="10.00" fill="#000000">+ setDepotMode()</text>
<text text-anchor="start" x="553.5" y="-795.5" font-family="Helvetica,sans-Serif" font-size="10.00" fill="#000000">+ setTerminalMode()</text>
<text text-anchor="start" x="553.5" y="-784.5" font-family="Helvetica,sans-Serif" font-size="10.00" fill="#000000">+ setBridgeMode()</text>
<text text-anchor="start" x="553.5" y="-773.5" font-family="Helvetica,sans-Serif" font-size="10.00" fill="#000000">+ setRailPlacementMode()</text>
<text text-anchor="start" x="553.5" y="-762.5" font-family="Helvetica,sans-Serif" font-size="10.00" fill="#000000">+ setRemoveMode()</text>
<text text-anchor="start" x="553.5" y="-751.5" font-family="Helvetica,sans-Serif" font-size="10.00" fill="#000000">+ setMapLoaded()</text>
</a>
</g>
</g>
<!-- Node12&#45;&gt;Node13 -->
<g id="edge17" class="edge">
<title>Node12&#45;&gt;Node13</title>
<path fill="none" stroke="#404040" d="M479.6799,-1228.9872C494.8569,-1202.0002 514.9193,-1165.2452 531,-1132 534.0912,-1125.6092 537.1901,-1119.0742 540.2777,-1112.4536"/>
<polygon fill="none" stroke="#404040" points="540.4254,-1112.1338 539.3117,-1105.0092 545.4599,-1101.241 546.5736,-1108.3656 540.4254,-1112.1338"/>
<text text-anchor="middle" x="557.5" y="-1153" font-family="Helvetica,sans-Serif" font-size="10.00" fill="#000000"> +secondPlayer</text>
</g>
<!-- Node13&#45;&gt;Node1 -->
<g id="edge27" class="edge">
<title>Node13&#45;&gt;Node1</title>
<path fill="none" stroke="#404040" d="M611.9038,-744.4442C609.1598,-513.4589 603.9888,-150.3275 598,-87 597.8055,-84.9429 597.5763,-82.845 597.3201,-80.729"/>
<polygon fill="none" stroke="#404040" points="597.2815,-80.4544 592.4843,-75.0705 595.6089,-68.5715 600.4062,-73.9554 597.2815,-80.4544"/>
<text text-anchor="middle" x="635.5" y="-459" font-family="Helvetica,sans-Serif" font-size="10.00" fill="#000000"> &#45;dataModel</text>
</g>
<!-- Node13&#45;&gt;Node3 -->
<g id="edge20" class="edge">
<title>Node13&#45;&gt;Node3</title>
<path fill="none" stroke="#404040" d="M682.5787,-828.0416C705.4995,-785.3406 728.201,-734.9803 740,-686 758.3125,-609.9811 761.2406,-523.6834 758.6313,-450.0159"/>
<polygon fill="none" stroke="#404040" points="758.6238,-449.8245 754.3879,-443.9886 758.1457,-437.834 762.3816,-443.6699 758.6238,-449.8245"/>
<text text-anchor="middle" x="786.5" y="-583" font-family="Helvetica,sans-Serif" font-size="10.00" fill="#000000"> &#45;dataModel</text>
</g>
<!-- Node13&#45;&gt;Node5 -->
<g id="edge14" class="edge">
<title>Node13&#45;&gt;Node5</title>
<path fill="none" stroke="#404040" d="M545.4355,-759.2065C540.9135,-753.8246 536.1072,-748.729 531,-744 512.7464,-727.0982 495.5503,-743.6309 478,-726 469.5622,-717.5235 462.639,-707.4907 456.9586,-696.7468"/>
<polygon fill="none" stroke="#404040" points="456.8916,-696.6076 450.6835,-692.9387 451.6824,-685.7971 457.8905,-689.466 456.8916,-696.6076"/>
<text text-anchor="middle" x="505.5" y="-712.5" font-family="Helvetica,sans-Serif" font-size="10.00" fill="#000000"> &#45;dataModel</text>
</g>
<!-- Node13&#45;&gt;Node18 -->
<g id="edge25" class="edge">
<title>Node13&#45;&gt;Node18</title>
<path fill="none" stroke="#404040" d="M556.3569,-744.262C551.9243,-724.7061 548.0112,-705.0415 545,-686 527.4244,-574.8597 524.3196,-444.7859 524.5098,-361.687"/>
<polygon fill="none" stroke="#404040" points="524.5104,-361.5224 520.5363,-355.5052 524.5621,-349.5225 528.5362,-355.5397 524.5104,-361.5224"/>
<text text-anchor="middle" x="572.5" y="-583" font-family="Helvetica,sans-Serif" font-size="10.00" fill="#000000"> &#45;dataModel</text>
</g>
<!-- Node14 -->
<g id="node14" class="node">
<title>Node14</title>
<g id="a_node14"><a xlink:title=" ">
<polygon fill="#ffffff" stroke="#bfbfbf" points="587.5,-1240 587.5,-1297 640.5,-1297 640.5,-1240 587.5,-1240"/>
<text text-anchor="middle" x="614" y="-1285" font-family="Helvetica,sans-Serif" font-size="10.00" fill="#000000">QObject</text>
<polyline fill="none" stroke="#bfbfbf" points="587.5,-1278 640.5,-1278 "/>
<text text-anchor="middle" x="614" y="-1266" font-family="Helvetica,sans-Serif" font-size="10.00" fill="#000000"> </text>
<polyline fill="none" stroke="#bfbfbf" points="587.5,-1259 640.5,-1259 "/>
<text text-anchor="middle" x="614" y="-1247" font-family="Helvetica,sans-Serif" font-size="10.00" fill="#000000"> </text>
</a>
</g>
</g>
<!-- Node14&#45;&gt;Node13 -->
<g id="edge15" class="edge">
<title>Node14&#45;&gt;Node13</title>
<path fill="none" stroke="#191970" d="M614,-1229.5022C614,-1204.1384 614,-1168.9574 614,-1131.7899"/>
<polygon fill="none" stroke="#191970" points="610.5001,-1229.7484 614,-1239.7485 617.5001,-1229.7485 610.5001,-1229.7484"/>
</g>
<!-- Node15 -->
<g id="node15" class="node">
<title>Node15</title>
<g id="a_node15"><a xlink:href="classAnimationManager.html" target="_top" xlink:title=" ">
<polygon fill="#ffffff" stroke="#000000" points="731.5,-1229 731.5,-1308 850.5,-1308 850.5,-1229 731.5,-1229"/>
<text text-anchor="middle" x="791" y="-1296" font-family="Helvetica,sans-Serif" font-size="10.00" fill="#000000">AnimationManager</text>
<polyline fill="none" stroke="#000000" points="731.5,-1289 850.5,-1289 "/>
<text text-anchor="start" x="739.5" y="-1277" font-family="Helvetica,sans-Serif" font-size="10.00" fill="#000000">&#45; movementAnimations</text>
<polyline fill="none" stroke="#000000" points="731.5,-1270 850.5,-1270 "/>
<text text-anchor="start" x="739.5" y="-1258" font-family="Helvetica,sans-Serif" font-size="10.00" fill="#000000">+ AnimationManager()</text>
<text text-anchor="start" x="739.5" y="-1247" font-family="Helvetica,sans-Serif" font-size="10.00" fill="#000000">+ tick()</text>
<text text-anchor="start" x="739.5" y="-1236" font-family="Helvetica,sans-Serif" font-size="10.00" fill="#000000">+ animateMovement()</text>
</a>
</g>
</g>
<!-- Node15&#45;&gt;Node1 -->
<g id="edge26" class="edge">
<title>Node15&#45;&gt;Node1</title>
<path fill="none" stroke="#404040" d="M841.2115,-1228.9549C869.5675,-1204.0381 903.3595,-1169.5486 924,-1132 966.6863,-1054.3461 970,-1026.6129 970,-938 970,-938 970,-938 970,-277 970,-123.7062 747.7823,-63.1178 642.7654,-43.0436"/>
<polygon fill="none" stroke="#404040" points="642.6641,-43.025 636.0377,-45.8692 630.8635,-40.8464 637.49,-38.0022 642.6641,-43.025"/>
<text text-anchor="middle" x="1015.5" y="-583" font-family="Helvetica,sans-Serif" font-size="10.00" fill="#000000"> &#45;animationManager</text>
</g>
<!-- Node15&#45;&gt;Node13 -->
<g id="edge16" class="edge">
<title>Node15&#45;&gt;Node13</title>
<path fill="none" stroke="#404040" d="M769.8255,-1228.9623C749.5673,-1191.1356 717.8072,-1131.832 688.2308,-1076.6061"/>
<polygon fill="none" stroke="#404040" points="688.2085,-1076.5644 681.8497,-1073.1636 682.5431,-1065.9859 688.902,-1069.3867 688.2085,-1076.5644"/>
<text text-anchor="middle" x="773.5" y="-1153" font-family="Helvetica,sans-Serif" font-size="10.00" fill="#000000"> &#45;animationManager</text>
</g>
<!-- Node16 -->
<g id="node16" class="node">
<title>Node16</title>
<g id="a_node16"><a xlink:href="classToolTipMenu.html" target="_top" xlink:title=" ">
<polygon fill="#ffffff" stroke="#000000" points="840.5,-540.5 840.5,-630.5 933.5,-630.5 933.5,-540.5 840.5,-540.5"/>
<text text-anchor="middle" x="887" y="-618.5" font-family="Helvetica,sans-Serif" font-size="10.00" fill="#000000">ToolTipMenu</text>
<polyline fill="none" stroke="#000000" points="840.5,-611.5 933.5,-611.5 "/>
<text text-anchor="start" x="848.5" y="-599.5" font-family="Helvetica,sans-Serif" font-size="10.00" fill="#000000">&#45; textlabel</text>
<polyline fill="none" stroke="#000000" points="840.5,-592.5 933.5,-592.5 "/>
<text text-anchor="start" x="848.5" y="-580.5" font-family="Helvetica,sans-Serif" font-size="10.00" fill="#000000">+ ToolTipMenu()</text>
<text text-anchor="start" x="848.5" y="-569.5" font-family="Helvetica,sans-Serif" font-size="10.00" fill="#000000">+ hide()</text>
<text text-anchor="start" x="848.5" y="-558.5" font-family="Helvetica,sans-Serif" font-size="10.00" fill="#000000">+ showAt()</text>
<text text-anchor="start" x="848.5" y="-547.5" font-family="Helvetica,sans-Serif" font-size="10.00" fill="#000000">+ setText()</text>
</a>
</g>
</g>
<!-- Node16&#45;&gt;Node3 -->
<g id="edge18" class="edge">
<title>Node16&#45;&gt;Node3</title>
<path fill="none" stroke="#404040" d="M865.7605,-540.3111C850.8582,-508.6053 830.0402,-464.3132 809.7244,-421.0896"/>
<polygon fill="none" stroke="#404040" points="809.6787,-420.9921 803.5063,-417.2635 804.5741,-410.1319 810.7465,-413.8605 809.6787,-420.9921"/>
<text text-anchor="middle" x="843.5" y="-459" font-family="Helvetica,sans-Serif" font-size="10.00" fill="#000000"> &#45;tooltip</text>
</g>
<!-- Node17 -->
<g id="node17" class="node">
<title>Node17</title>
<g id="a_node17"><a xlink:title=" ">
<polygon fill="#ffffff" stroke="#bfbfbf" points="859,-909.5 859,-966.5 915,-966.5 915,-909.5 859,-909.5"/>
<text text-anchor="middle" x="887" y="-954.5" font-family="Helvetica,sans-Serif" font-size="10.00" fill="#000000">QWidget</text>
<polyline fill="none" stroke="#bfbfbf" points="859,-947.5 915,-947.5 "/>
<text text-anchor="middle" x="887" y="-935.5" font-family="Helvetica,sans-Serif" font-size="10.00" fill="#000000"> </text>
<polyline fill="none" stroke="#bfbfbf" points="859,-928.5 915,-928.5 "/>
<text text-anchor="middle" x="887" y="-916.5" font-family="Helvetica,sans-Serif" font-size="10.00" fill="#000000"> </text>
</a>
</g>
</g>
<!-- Node17&#45;&gt;Node16 -->
<g id="edge19" class="edge">
<title>Node17&#45;&gt;Node16</title>
<path fill="none" stroke="#191970" d="M887,-899.1114C887,-833.3253 887,-700.4393 887,-630.6475"/>
<polygon fill="none" stroke="#191970" points="883.5001,-899.452 887,-909.452 890.5001,-899.4521 883.5001,-899.452"/>
</g>
<!-- Node18&#45;&gt;Node1 -->
<g id="edge22" class="edge">
<title>Node18&#45;&gt;Node1</title>
<path fill="none" stroke="#404040" d="M539.2184,-204.0991C546.4156,-168.4384 556.2565,-125.0942 568,-87 568.6941,-84.7485 569.4426,-82.4578 570.2292,-80.155"/>
<polygon fill="none" stroke="#404040" points="570.3059,-79.9437 568.5958,-72.9383 574.4045,-68.6653 576.1147,-75.6707 570.3059,-79.9437"/>
<text text-anchor="middle" x="583" y="-90" font-family="Helvetica,sans-Serif" font-size="10.00" fill="#000000"> &#45;client</text>
</g>
</g>
</svg>
