<?xml version="1.0" encoding="UTF-8" standalone="no"?>
<!DOCTYPE svg PUBLIC "-//W3C//DTD SVG 1.1//EN"
 "http://www.w3.org/Graphics/SVG/1.1/DTD/svg11.dtd">
<!-- Generated by graphviz version 2.40.1 (20161225.0304)
 -->
<!-- Title: Minimap Pages: 1 -->
<svg width="578pt" height="1450pt"
 viewBox="0.00 0.00 578.00 1450.00" xmlns="http://www.w3.org/2000/svg" xmlns:xlink="http://www.w3.org/1999/xlink">
<g id="graph0" class="graph" transform="scale(1 1) rotate(0) translate(4 1446)">
<title>Minimap</title>
<polygon fill="#ffffff" stroke="transparent" points="-4,4 -4,-1446 574,-1446 574,4 -4,4"/>
<!-- Node1 -->
<g id="node1" class="node">
<title>Node1</title>
<g id="a_node1"><a xlink:title=" ">
<polygon fill="#bfbfbf" stroke="#000000" points="201.5,-.5 201.5,-156.5 290.5,-156.5 290.5,-.5 201.5,-.5"/>
<text text-anchor="middle" x="246" y="-144.5" font-family="Helvetica,sans-Serif" font-size="10.00" fill="#000000">Minimap</text>
<polyline fill="none" stroke="#000000" points="201.5,-137.5 290.5,-137.5 "/>
<text text-anchor="start" x="209.5" y="-125.5" font-family="Helvetica,sans-Serif" font-size="10.00" fill="#000000">&#45; width</text>
<text text-anchor="start" x="209.5" y="-114.5" font-family="Helvetica,sans-Serif" font-size="10.00" fill="#000000">&#45; height</text>
<text text-anchor="start" x="209.5" y="-103.5" font-family="Helvetica,sans-Serif" font-size="10.00" fill="#000000">&#45; location</text>
<text text-anchor="start" x="209.5" y="-92.5" font-family="Helvetica,sans-Serif" font-size="10.00" fill="#000000">&#45; compass</text>
<text text-anchor="start" x="209.5" y="-81.5" font-family="Helvetica,sans-Serif" font-size="10.00" fill="#000000">&#45; location_white</text>
<text text-anchor="start" x="209.5" y="-70.5" font-family="Helvetica,sans-Serif" font-size="10.00" fill="#000000">&#45; mapOverlay</text>
<text text-anchor="start" x="209.5" y="-59.5" font-family="Helvetica,sans-Serif" font-size="10.00" fill="#000000">&#45; map</text>
<polyline fill="none" stroke="#000000" points="201.5,-52.5 290.5,-52.5 "/>
<text text-anchor="start" x="209.5" y="-40.5" font-family="Helvetica,sans-Serif" font-size="10.00" fill="#000000">+ Minimap()</text>
<text text-anchor="start" x="209.5" y="-29.5" font-family="Helvetica,sans-Serif" font-size="10.00" fill="#000000">+ paintEvent()</text>
<text text-anchor="start" x="209.5" y="-18.5" font-family="Helvetica,sans-Serif" font-size="10.00" fill="#000000">+ viewChange()</text>
<text text-anchor="start" x="209.5" y="-7.5" font-family="Helvetica,sans-Serif" font-size="10.00" fill="#000000">&#45; renderMap()</text>
</a>
</g>
</g>
<!-- Node2 -->
<g id="node2" class="node">
<title>Node2</title>
<g id="a_node2"><a xlink:title=" ">
<polygon fill="#ffffff" stroke="#bfbfbf" points="0,-782.5 0,-839.5 56,-839.5 56,-782.5 0,-782.5"/>
<text text-anchor="middle" x="28" y="-827.5" font-family="Helvetica,sans-Serif" font-size="10.00" fill="#000000">QWidget</text>
<polyline fill="none" stroke="#bfbfbf" points="0,-820.5 56,-820.5 "/>
<text text-anchor="middle" x="28" y="-808.5" font-family="Helvetica,sans-Serif" font-size="10.00" fill="#000000"> </text>
<polyline fill="none" stroke="#bfbfbf" points="0,-801.5 56,-801.5 "/>
<text text-anchor="middle" x="28" y="-789.5" font-family="Helvetica,sans-Serif" font-size="10.00" fill="#000000"> </text>
</a>
</g>
</g>
<!-- Node2&#45;&gt;Node1 -->
<g id="edge1" class="edge">
<title>Node2&#45;&gt;Node1</title>
<path fill="none" stroke="#191970" d="M30.1006,-772.1225C33.3882,-721.5991 41.2002,-630.8674 58,-555 93.5212,-394.5873 107.0022,-354.0176 174,-204 181.9384,-186.2247 191.6691,-167.71 201.3792,-150.5326"/>
<polygon fill="none" stroke="#191970" points="26.5969,-772.0746 29.4662,-782.2735 33.5832,-772.5113 26.5969,-772.0746"/>
</g>
<!-- Node3 -->
<g id="node3" class="node">
<title>Node3</title>
<g id="a_node3"><a xlink:href="classMapRenderer.html" target="_top" xlink:title=" ">
<polygon fill="#ffffff" stroke="#000000" points="183.5,-204.5 183.5,-536.5 308.5,-536.5 308.5,-204.5 183.5,-204.5"/>
<text text-anchor="middle" x="246" y="-524.5" font-family="Helvetica,sans-Serif" font-size="10.00" fill="#000000">MapRenderer</text>
<polyline fill="none" stroke="#000000" points="183.5,-517.5 308.5,-517.5 "/>
<text text-anchor="start" x="191.5" y="-505.5" font-family="Helvetica,sans-Serif" font-size="10.00" fill="#000000">&#45; mouseDown</text>
<text text-anchor="start" x="191.5" y="-494.5" font-family="Helvetica,sans-Serif" font-size="10.00" fill="#000000">&#45; showHighlight</text>
<text text-anchor="start" x="191.5" y="-483.5" font-family="Helvetica,sans-Serif" font-size="10.00" fill="#000000">&#45; rendering</text>
<text text-anchor="start" x="191.5" y="-472.5" font-family="Helvetica,sans-Serif" font-size="10.00" fill="#000000">&#45; renderTime</text>
<text text-anchor="start" x="191.5" y="-461.5" font-family="Helvetica,sans-Serif" font-size="10.00" fill="#000000">&#45; scale</text>
<text text-anchor="start" x="191.5" y="-450.5" font-family="Helvetica,sans-Serif" font-size="10.00" fill="#000000">&#45; showExpertDetails</text>
<text text-anchor="start" x="191.5" y="-439.5" font-family="Helvetica,sans-Serif" font-size="10.00" fill="#000000">&#45; movementAnimations</text>
<text text-anchor="start" x="191.5" y="-428.5" font-family="Helvetica,sans-Serif" font-size="10.00" fill="#000000">&#45; lastFpsTake</text>
<text text-anchor="start" x="191.5" y="-417.5" font-family="Helvetica,sans-Serif" font-size="10.00" fill="#000000">&#45; frameCount</text>
<text text-anchor="start" x="191.5" y="-406.5" font-family="Helvetica,sans-Serif" font-size="10.00" fill="#000000">&#45; fps</text>
<polyline fill="none" stroke="#000000" points="183.5,-399.5 308.5,-399.5 "/>
<text text-anchor="start" x="191.5" y="-387.5" font-family="Helvetica,sans-Serif" font-size="10.00" fill="#000000">+ MapRenderer()</text>
<text text-anchor="start" x="191.5" y="-376.5" font-family="Helvetica,sans-Serif" font-size="10.00" fill="#000000">+ paintEvent()</text>
<text text-anchor="start" x="191.5" y="-365.5" font-family="Helvetica,sans-Serif" font-size="10.00" fill="#000000">+ mousePressEvent()</text>
<text text-anchor="start" x="191.5" y="-354.5" font-family="Helvetica,sans-Serif" font-size="10.00" fill="#000000">+ mouseReleaseEvent()</text>
<text text-anchor="start" x="191.5" y="-343.5" font-family="Helvetica,sans-Serif" font-size="10.00" fill="#000000">+ mouseMoveEvent()</text>
<text text-anchor="start" x="191.5" y="-332.5" font-family="Helvetica,sans-Serif" font-size="10.00" fill="#000000">+ wheelEvent()</text>
<text text-anchor="start" x="191.5" y="-321.5" font-family="Helvetica,sans-Serif" font-size="10.00" fill="#000000">+ keyReleaseEvent()</text>
<text text-anchor="start" x="191.5" y="-310.5" font-family="Helvetica,sans-Serif" font-size="10.00" fill="#000000">+ tick()</text>
<text text-anchor="start" x="191.5" y="-299.5" font-family="Helvetica,sans-Serif" font-size="10.00" fill="#000000">+ demo()</text>
<text text-anchor="start" x="191.5" y="-288.5" font-family="Helvetica,sans-Serif" font-size="10.00" fill="#000000">+ mapPosition()</text>
<text text-anchor="start" x="191.5" y="-277.5" font-family="Helvetica,sans-Serif" font-size="10.00" fill="#000000">+ toScreenPosition()</text>
<text text-anchor="start" x="191.5" y="-266.5" font-family="Helvetica,sans-Serif" font-size="10.00" fill="#000000">+ getMinPos()</text>
<text text-anchor="start" x="191.5" y="-255.5" font-family="Helvetica,sans-Serif" font-size="10.00" fill="#000000">+ getMaxPos()</text>
<text text-anchor="start" x="191.5" y="-244.5" font-family="Helvetica,sans-Serif" font-size="10.00" fill="#000000">+ animateMovement()</text>
<text text-anchor="start" x="191.5" y="-233.5" font-family="Helvetica,sans-Serif" font-size="10.00" fill="#000000">+ animateMovement()</text>
<text text-anchor="start" x="191.5" y="-222.5" font-family="Helvetica,sans-Serif" font-size="10.00" fill="#000000">+ onTileChange()</text>
<text text-anchor="start" x="191.5" y="-211.5" font-family="Helvetica,sans-Serif" font-size="10.00" fill="#000000">+ enableHighlight()</text>
</a>
</g>
</g>
<!-- Node2&#45;&gt;Node3 -->
<g id="edge3" class="edge">
<title>Node2&#45;&gt;Node3</title>
<path fill="none" stroke="#191970" d="M29.1394,-771.9678C32.0646,-719.8802 42.3259,-625.9741 78,-555 103.4864,-504.2946 146.8809,-457.1705 183.1819,-423.2401"/>
<polygon fill="none" stroke="#191970" points="25.6358,-771.9548 28.6334,-782.1167 32.6271,-772.3035 25.6358,-771.9548"/>
</g>
<!-- Node3&#45;&gt;Node1 -->
<g id="edge2" class="edge">
<title>Node3&#45;&gt;Node1</title>
<path fill="none" stroke="#404040" d="M246,-204.453C246,-192.2892 246,-180.3146 246,-168.8757"/>
<polygon fill="none" stroke="#404040" points="246.0001,-168.6899 242,-162.69 246,-156.6899 250,-162.6899 246.0001,-168.6899"/>
<text text-anchor="middle" x="263" y="-178" font-family="Helvetica,sans-Serif" font-size="10.00" fill="#000000"> &#45;scene</text>
</g>
<!-- Node4 -->
<g id="node4" class="node">
<title>Node4</title>
<g id="a_node4"><a xlink:href="classMapTile.html" target="_top" xlink:title=" ">
<polygon fill="#ffffff" stroke="#000000" points="195,-716.5 195,-905.5 297,-905.5 297,-716.5 195,-716.5"/>
<text text-anchor="middle" x="246" y="-893.5" font-family="Helvetica,sans-Serif" font-size="10.00" fill="#000000">MapTile</text>
<polyline fill="none" stroke="#000000" points="195,-886.5 297,-886.5 "/>
<text text-anchor="start" x="203" y="-874.5" font-family="Helvetica,sans-Serif" font-size="10.00" fill="#000000">&#45; type</text>
<text text-anchor="start" x="203" y="-863.5" font-family="Helvetica,sans-Serif" font-size="10.00" fill="#000000">&#45; pixmapItem</text>
<text text-anchor="start" x="203" y="-852.5" font-family="Helvetica,sans-Serif" font-size="10.00" fill="#000000">&#45; currentRotation</text>
<polyline fill="none" stroke="#000000" points="195,-845.5 297,-845.5 "/>
<text text-anchor="start" x="203" y="-833.5" font-family="Helvetica,sans-Serif" font-size="10.00" fill="#000000">+ MapTile()</text>
<text text-anchor="start" x="203" y="-822.5" font-family="Helvetica,sans-Serif" font-size="10.00" fill="#000000">+ MapTile()</text>
<text text-anchor="start" x="203" y="-811.5" font-family="Helvetica,sans-Serif" font-size="10.00" fill="#000000">+ setType()</text>
<text text-anchor="start" x="203" y="-800.5" font-family="Helvetica,sans-Serif" font-size="10.00" fill="#000000">+ getType()</text>
<text text-anchor="start" x="203" y="-789.5" font-family="Helvetica,sans-Serif" font-size="10.00" fill="#000000">+ setRotation()</text>
<text text-anchor="start" x="203" y="-778.5" font-family="Helvetica,sans-Serif" font-size="10.00" fill="#000000">+ getRotation()</text>
<text text-anchor="start" x="203" y="-767.5" font-family="Helvetica,sans-Serif" font-size="10.00" fill="#000000">+ getRotationDeg()</text>
<text text-anchor="start" x="203" y="-756.5" font-family="Helvetica,sans-Serif" font-size="10.00" fill="#000000">+ setPosition()</text>
<text text-anchor="start" x="203" y="-745.5" font-family="Helvetica,sans-Serif" font-size="10.00" fill="#000000">+ isRiver()</text>
<text text-anchor="start" x="203" y="-734.5" font-family="Helvetica,sans-Serif" font-size="10.00" fill="#000000">+ isRail()</text>
<text text-anchor="start" x="203" y="-723.5" font-family="Helvetica,sans-Serif" font-size="10.00" fill="#000000">und 6 mehr ...</text>
</a>
</g>
</g>
<!-- Node4&#45;&gt;Node3 -->
<g id="edge4" class="edge">
<title>Node4&#45;&gt;Node3</title>
<path fill="none" stroke="#404040" d="M246,-716.2312C246,-667.365 246,-606.1322 246,-548.8303"/>
<polygon fill="none" stroke="#404040" points="246.0001,-548.6682 242,-542.6682 246,-536.6682 250,-542.6681 246.0001,-548.6682"/>
<text text-anchor="middle" x="261" y="-574.5" font-family="Helvetica,sans-Serif" font-size="10.00" fill="#000000"> +data</text>
</g>
<!-- Node5 -->
<g id="node5" class="node">
<title>Node5</title>
<g id="a_node5"><a xlink:href="classGraphicsManager.html" target="_top" xlink:title=" ">
<polygon fill="#ffffff" stroke="#000000" points="54.5,-1107.5 54.5,-1175.5 167.5,-1175.5 167.5,-1107.5 54.5,-1107.5"/>
<text text-anchor="middle" x="111" y="-1163.5" font-family="Helvetica,sans-Serif" font-size="10.00" fill="#000000">GraphicsManager</text>
<polyline fill="none" stroke="#000000" points="54.5,-1156.5 167.5,-1156.5 "/>
<text text-anchor="start" x="62.5" y="-1144.5" font-family="Helvetica,sans-Serif" font-size="10.00" fill="#000000">+ GRAPHICS</text>
<polyline fill="none" stroke="#000000" points="54.5,-1137.5 167.5,-1137.5 "/>
<text text-anchor="start" x="62.5" y="-1125.5" font-family="Helvetica,sans-Serif" font-size="10.00" fill="#000000">+ GraphicsManager()</text>
<text text-anchor="start" x="62.5" y="-1114.5" font-family="Helvetica,sans-Serif" font-size="10.00" fill="#000000">+ get()</text>
</a>
</g>
</g>
<!-- Node5&#45;&gt;Node3 -->
<g id="edge7" class="edge">
<title>Node5&#45;&gt;Node3</title>
<path fill="none" stroke="#404040" d="M103.8272,-1107.2469C87.4322,-1022.3343 52.2441,-796.0469 101,-617 116.0675,-561.6675 147.0557,-506.0861 176.5311,-461.7442"/>
<polygon fill="none" stroke="#404040" points="176.6698,-461.5386 176.7111,-454.3276 183.3832,-451.5922 183.342,-458.8032 176.6698,-461.5386"/>
<text text-anchor="middle" x="143.5" y="-808.5" font-family="Helvetica,sans-Serif" font-size="10.00" fill="#000000"> &#45;graphicsManager</text>
</g>
<!-- Node5&#45;&gt;Node4 -->
<g id="edge5" class="edge">
<title>Node5&#45;&gt;Node4</title>
<path fill="none" stroke="#404040" d="M118.8299,-1107.3157C125.8132,-1082.1744 137.9319,-1048.146 157,-1023 165.0563,-1012.3758 173.1955,-1015.8105 181,-1005 199.7129,-979.0795 213.3021,-947.4061 223.0573,-917.2286"/>
<polygon fill="none" stroke="#404040" points="223.0617,-917.2143 221.0153,-910.2996 226.6111,-905.7512 228.6574,-912.6659 223.0617,-917.2143"/>
<text text-anchor="middle" x="199.5" y="-1026" font-family="Helvetica,sans-Serif" font-size="10.00" fill="#000000"> &#45;graphicsManager</text>
</g>
<!-- Node6 -->
<g id="node6" class="node">
<title>Node6</title>
<g id="a_node6"><a xlink:href="classCity.html" target="_top" xlink:title=" ">
<polygon fill="#ffffff" stroke="#000000" points="204.5,-1052.5 204.5,-1230.5 287.5,-1230.5 287.5,-1052.5 204.5,-1052.5"/>
<text text-anchor="middle" x="246" y="-1218.5" font-family="Helvetica,sans-Serif" font-size="10.00" fill="#000000">City</text>
<polyline fill="none" stroke="#000000" points="204.5,-1211.5 287.5,-1211.5 "/>
<text text-anchor="start" x="212.5" y="-1199.5" font-family="Helvetica,sans-Serif" font-size="10.00" fill="#000000">&#45; size</text>
<text text-anchor="start" x="212.5" y="-1188.5" font-family="Helvetica,sans-Serif" font-size="10.00" fill="#000000">&#45; centerX</text>
<text text-anchor="start" x="212.5" y="-1177.5" font-family="Helvetica,sans-Serif" font-size="10.00" fill="#000000">&#45; centerY</text>
<text text-anchor="start" x="212.5" y="-1166.5" font-family="Helvetica,sans-Serif" font-size="10.00" fill="#000000">&#45; name</text>
<polyline fill="none" stroke="#000000" points="204.5,-1159.5 287.5,-1159.5 "/>
<text text-anchor="start" x="212.5" y="-1147.5" font-family="Helvetica,sans-Serif" font-size="10.00" fill="#000000">+ City()</text>
<text text-anchor="start" x="212.5" y="-1136.5" font-family="Helvetica,sans-Serif" font-size="10.00" fill="#000000">+ City()</text>
<text text-anchor="start" x="212.5" y="-1125.5" font-family="Helvetica,sans-Serif" font-size="10.00" fill="#000000">+ getSize()</text>
<text text-anchor="start" x="212.5" y="-1114.5" font-family="Helvetica,sans-Serif" font-size="10.00" fill="#000000">+ getCenterX()</text>
<text text-anchor="start" x="212.5" y="-1103.5" font-family="Helvetica,sans-Serif" font-size="10.00" fill="#000000">+ getCenterY()</text>
<text text-anchor="start" x="212.5" y="-1092.5" font-family="Helvetica,sans-Serif" font-size="10.00" fill="#000000">+ getName()</text>
<text text-anchor="start" x="212.5" y="-1081.5" font-family="Helvetica,sans-Serif" font-size="10.00" fill="#000000">+ setSize()</text>
<text text-anchor="start" x="212.5" y="-1070.5" font-family="Helvetica,sans-Serif" font-size="10.00" fill="#000000">+ setCenter()</text>
<text text-anchor="start" x="212.5" y="-1059.5" font-family="Helvetica,sans-Serif" font-size="10.00" fill="#000000">+ setName()</text>
</a>
</g>
</g>
<!-- Node6&#45;&gt;Node4 -->
<g id="edge6" class="edge">
<title>Node6&#45;&gt;Node4</title>
<path fill="none" stroke="#404040" d="M246,-1052.4973C246,-1010.992 246,-961.2673 246,-917.7551"/>
<polygon fill="none" stroke="#404040" points="246.0001,-917.6592 242,-911.6592 246,-905.6592 250,-911.6592 246.0001,-917.6592"/>
<text text-anchor="middle" x="257" y="-1026" font-family="Helvetica,sans-Serif" font-size="10.00" fill="#000000"> &#45;city</text>
</g>
<!-- Node7 -->
<g id="node7" class="node">
<title>Node7</title>
<g id="a_node7"><a xlink:href="classPoint.html" target="_top" xlink:title=" ">
<polygon fill="#ffffff" stroke="#000000" points="315,-744 315,-878 373,-878 373,-744 315,-744"/>
<text text-anchor="middle" x="344" y="-866" font-family="Helvetica,sans-Serif" font-size="10.00" fill="#000000">Point</text>
<polyline fill="none" stroke="#000000" points="315,-859 373,-859 "/>
<text text-anchor="start" x="323" y="-847" font-family="Helvetica,sans-Serif" font-size="10.00" fill="#000000">&#45; x</text>
<text text-anchor="start" x="323" y="-836" font-family="Helvetica,sans-Serif" font-size="10.00" fill="#000000">&#45; y</text>
<polyline fill="none" stroke="#000000" points="315,-829 373,-829 "/>
<text text-anchor="start" x="323" y="-817" font-family="Helvetica,sans-Serif" font-size="10.00" fill="#000000">+ Point()</text>
<text text-anchor="start" x="323" y="-806" font-family="Helvetica,sans-Serif" font-size="10.00" fill="#000000">+ getX()</text>
<text text-anchor="start" x="323" y="-795" font-family="Helvetica,sans-Serif" font-size="10.00" fill="#000000">+ getY()</text>
<text text-anchor="start" x="323" y="-784" font-family="Helvetica,sans-Serif" font-size="10.00" fill="#000000">+ add()</text>
<text text-anchor="start" x="323" y="-773" font-family="Helvetica,sans-Serif" font-size="10.00" fill="#000000">+ set()</text>
<text text-anchor="start" x="323" y="-762" font-family="Helvetica,sans-Serif" font-size="10.00" fill="#000000">+ move()</text>
<text text-anchor="start" x="323" y="-751" font-family="Helvetica,sans-Serif" font-size="10.00" fill="#000000">+ toTile()</text>
</a>
</g>
</g>
<!-- Node7&#45;&gt;Node3 -->
<g id="edge8" class="edge">
<title>Node7&#45;&gt;Node3</title>
<path fill="none" stroke="#404040" d="M331.6433,-743.9561C324.5484,-706.5162 315.2355,-659.0706 306,-617 301.1345,-594.8362 295.7973,-571.6097 290.3753,-548.6461"/>
<polygon fill="none" stroke="#404040" points="290.3039,-548.3445 285.0271,-543.4297 287.5343,-536.6685 292.8111,-541.5833 290.3039,-548.3445"/>
<text text-anchor="middle" x="332.5" y="-591" font-family="Helvetica,sans-Serif" font-size="10.00" fill="#000000"> &#45;activeTile</text>
<text text-anchor="middle" x="332.5" y="-580" font-family="Helvetica,sans-Serif" font-size="10.00" fill="#000000">&#45;dragOrigin</text>
<text text-anchor="middle" x="332.5" y="-569" font-family="Helvetica,sans-Serif" font-size="10.00" fill="#000000">+offset</text>
<text text-anchor="middle" x="332.5" y="-558" font-family="Helvetica,sans-Serif" font-size="10.00" fill="#000000">&#45;dragPosition</text>
</g>
<!-- Node8 -->
<g id="node8" class="node">
<title>Node8</title>
<g id="a_node8"><a xlink:href="classDataModel.html" target="_top" xlink:title=" ">
<polygon fill="#ffffff" stroke="#000000" points="391.5,-617.5 391.5,-1004.5 528.5,-1004.5 528.5,-617.5 391.5,-617.5"/>
<text text-anchor="middle" x="460" y="-992.5" font-family="Helvetica,sans-Serif" font-size="10.00" fill="#000000">DataModel</text>
<polyline fill="none" stroke="#000000" points="391.5,-985.5 528.5,-985.5 "/>
<text text-anchor="start" x="399.5" y="-973.5" font-family="Helvetica,sans-Serif" font-size="10.00" fill="#000000">&#45; balance</text>
<text text-anchor="start" x="399.5" y="-962.5" font-family="Helvetica,sans-Serif" font-size="10.00" fill="#000000">&#45; time</text>
<text text-anchor="start" x="399.5" y="-951.5" font-family="Helvetica,sans-Serif" font-size="10.00" fill="#000000">&#45; coordinateX</text>
<text text-anchor="start" x="399.5" y="-940.5" font-family="Helvetica,sans-Serif" font-size="10.00" fill="#000000">&#45; coordinateY</text>
<text text-anchor="start" x="399.5" y="-929.5" font-family="Helvetica,sans-Serif" font-size="10.00" fill="#000000">&#45; mapLoaded</text>
<text text-anchor="start" x="399.5" y="-918.5" font-family="Helvetica,sans-Serif" font-size="10.00" fill="#000000">&#45; ip</text>
<text text-anchor="start" x="399.5" y="-907.5" font-family="Helvetica,sans-Serif" font-size="10.00" fill="#000000">&#45; port</text>
<text text-anchor="start" x="399.5" y="-896.5" font-family="Helvetica,sans-Serif" font-size="10.00" fill="#000000">&#45; balanceLabel</text>
<text text-anchor="start" x="399.5" y="-885.5" font-family="Helvetica,sans-Serif" font-size="10.00" fill="#000000">&#45; timeLabel</text>
<text text-anchor="start" x="399.5" y="-874.5" font-family="Helvetica,sans-Serif" font-size="10.00" fill="#000000">&#45; positionLabel</text>
<text text-anchor="start" x="399.5" y="-863.5" font-family="Helvetica,sans-Serif" font-size="10.00" fill="#000000">&#45; statusDisplay</text>
<text text-anchor="start" x="399.5" y="-852.5" font-family="Helvetica,sans-Serif" font-size="10.00" fill="#000000">&#45; connectionLabel</text>
<text text-anchor="start" x="399.5" y="-841.5" font-family="Helvetica,sans-Serif" font-size="10.00" fill="#000000">&#45; mode</text>
<polyline fill="none" stroke="#000000" points="391.5,-834.5 528.5,-834.5 "/>
<text text-anchor="start" x="399.5" y="-822.5" font-family="Helvetica,sans-Serif" font-size="10.00" fill="#000000">+ DataModel()</text>
<text text-anchor="start" x="399.5" y="-811.5" font-family="Helvetica,sans-Serif" font-size="10.00" fill="#000000">+ getBalance()</text>
<text text-anchor="start" x="399.5" y="-800.5" font-family="Helvetica,sans-Serif" font-size="10.00" fill="#000000">+ updateBalance()</text>
<text text-anchor="start" x="399.5" y="-789.5" font-family="Helvetica,sans-Serif" font-size="10.00" fill="#000000">+ takeBalance()</text>
<text text-anchor="start" x="399.5" y="-778.5" font-family="Helvetica,sans-Serif" font-size="10.00" fill="#000000">+ timeTick()</text>
<text text-anchor="start" x="399.5" y="-767.5" font-family="Helvetica,sans-Serif" font-size="10.00" fill="#000000">+ getTime()</text>
<text text-anchor="start" x="399.5" y="-756.5" font-family="Helvetica,sans-Serif" font-size="10.00" fill="#000000">+ setTime()</text>
<text text-anchor="start" x="399.5" y="-745.5" font-family="Helvetica,sans-Serif" font-size="10.00" fill="#000000">+ getSystemMillis()</text>
<text text-anchor="start" x="399.5" y="-734.5" font-family="Helvetica,sans-Serif" font-size="10.00" fill="#000000">+ updateCoordinates()</text>
<text text-anchor="start" x="399.5" y="-723.5" font-family="Helvetica,sans-Serif" font-size="10.00" fill="#000000">+ getHoverX()</text>
<text text-anchor="start" x="399.5" y="-712.5" font-family="Helvetica,sans-Serif" font-size="10.00" fill="#000000">und 12 mehr ...</text>
<text text-anchor="start" x="399.5" y="-701.5" font-family="Helvetica,sans-Serif" font-size="10.00" fill="#000000">+ setDefaultMode()</text>
<text text-anchor="start" x="399.5" y="-690.5" font-family="Helvetica,sans-Serif" font-size="10.00" fill="#000000">+ setTrainStationMode()</text>
<text text-anchor="start" x="399.5" y="-679.5" font-family="Helvetica,sans-Serif" font-size="10.00" fill="#000000">+ setDepotMode()</text>
<text text-anchor="start" x="399.5" y="-668.5" font-family="Helvetica,sans-Serif" font-size="10.00" fill="#000000">+ setTerminalMode()</text>
<text text-anchor="start" x="399.5" y="-657.5" font-family="Helvetica,sans-Serif" font-size="10.00" fill="#000000">+ setBridgeMode()</text>
<text text-anchor="start" x="399.5" y="-646.5" font-family="Helvetica,sans-Serif" font-size="10.00" fill="#000000">+ setRailPlacementMode()</text>
<text text-anchor="start" x="399.5" y="-635.5" font-family="Helvetica,sans-Serif" font-size="10.00" fill="#000000">+ setRemoveMode()</text>
<text text-anchor="start" x="399.5" y="-624.5" font-family="Helvetica,sans-Serif" font-size="10.00" fill="#000000">+ setMapLoaded()</text>
</a>
</g>
</g>
<!-- Node8&#45;&gt;Node1 -->
<g id="edge14" class="edge">
<title>Node8&#45;&gt;Node1</title>
<path fill="none" stroke="#404040" d="M454.6587,-617.311C452.2946,-596.1674 449.151,-575.0544 445,-555 411.3431,-392.3975 386.5628,-354.7759 317,-204 310.8351,-190.6377 303.7577,-176.7946 296.5119,-163.3961"/>
<polygon fill="none" stroke="#404040" points="296.4508,-163.2846 290.0579,-159.9481 290.679,-152.7637 297.0718,-156.1002 296.4508,-163.2846"/>
<text text-anchor="middle" x="467.5" y="-368" font-family="Helvetica,sans-Serif" font-size="10.00" fill="#000000"> &#45;dataModel</text>
</g>
<!-- Node8&#45;&gt;Node3 -->
<g id="edge9" class="edge">
<title>Node8&#45;&gt;Node3</title>
<path fill="none" stroke="#404040" d="M395.1592,-617.4499C386.3898,-596.0732 376.9553,-574.8702 367,-555 352.1767,-525.4135 333.5784,-494.7846 315.441,-467.1861"/>
<polygon fill="none" stroke="#404040" points="315.4242,-467.1607 308.7733,-464.3741 308.7875,-457.163 315.4385,-459.9496 315.4242,-467.1607"/>
<text text-anchor="middle" x="413.5" y="-574.5" font-family="Helvetica,sans-Serif" font-size="10.00" fill="#000000"> &#45;dataModel</text>
</g>
<!-- Node9 -->
<g id="node9" class="node">
<title>Node9</title>
<g id="a_node9"><a xlink:title=" ">
<polygon fill="#ffffff" stroke="#bfbfbf" points="403.5,-1113 403.5,-1170 456.5,-1170 456.5,-1113 403.5,-1113"/>
<text text-anchor="middle" x="430" y="-1158" font-family="Helvetica,sans-Serif" font-size="10.00" fill="#000000">QObject</text>
<polyline fill="none" stroke="#bfbfbf" points="403.5,-1151 456.5,-1151 "/>
<text text-anchor="middle" x="430" y="-1139" font-family="Helvetica,sans-Serif" font-size="10.00" fill="#000000"> </text>
<polyline fill="none" stroke="#bfbfbf" points="403.5,-1132 456.5,-1132 "/>
<text text-anchor="middle" x="430" y="-1120" font-family="Helvetica,sans-Serif" font-size="10.00" fill="#000000"> </text>
</a>
</g>
</g>
<!-- Node9&#45;&gt;Node8 -->
<g id="edge10" class="edge">
<title>Node9&#45;&gt;Node8</title>
<path fill="none" stroke="#191970" d="M433.5399,-1102.5022C435.8422,-1077.1384 439.0356,-1041.9574 442.4094,-1004.7899"/>
<polygon fill="none" stroke="#191970" points="430.0282,-1102.473 432.6098,-1112.7485 436.9996,-1103.1058 430.0282,-1102.473"/>
</g>
<!-- Node10 -->
<g id="node10" class="node">
<title>Node10</title>
<g id="a_node10"><a xlink:href="classPlayer.html" target="_top" xlink:title=" ">
<polygon fill="#ffffff" stroke="#000000" points="474.5,-1102 474.5,-1181 555.5,-1181 555.5,-1102 474.5,-1102"/>
<text text-anchor="middle" x="515" y="-1169" font-family="Helvetica,sans-Serif" font-size="10.00" fill="#000000">Player</text>
<polyline fill="none" stroke="#000000" points="474.5,-1162 555.5,-1162 "/>
<text text-anchor="start" x="482.5" y="-1150" font-family="Helvetica,sans-Serif" font-size="10.00" fill="#000000">+ posX</text>
<text text-anchor="start" x="482.5" y="-1139" font-family="Helvetica,sans-Serif" font-size="10.00" fill="#000000">+ posY</text>
<polyline fill="none" stroke="#000000" points="474.5,-1132 555.5,-1132 "/>
<text text-anchor="start" x="482.5" y="-1120" font-family="Helvetica,sans-Serif" font-size="10.00" fill="#000000">+ Player()</text>
<text text-anchor="start" x="482.5" y="-1109" font-family="Helvetica,sans-Serif" font-size="10.00" fill="#000000">+ setPosition()</text>
</a>
</g>
</g>
<!-- Node10&#45;&gt;Node8 -->
<g id="edge11" class="edge">
<title>Node10&#45;&gt;Node8</title>
<path fill="none" stroke="#404040" d="M508.4203,-1101.9623C504.6619,-1079.3777 499.6295,-1049.1372 494.2281,-1016.6796"/>
<polygon fill="none" stroke="#404040" points="494.193,-1016.4685 489.2623,-1011.2066 492.2231,-1004.6313 497.1538,-1009.8933 494.193,-1016.4685"/>
<text text-anchor="middle" x="531.5" y="-1026" font-family="Helvetica,sans-Serif" font-size="10.00" fill="#000000"> +secondPlayer</text>
</g>
<!-- Node11 -->
<g id="node11" class="node">
<title>Node11</title>
<g id="a_node11"><a xlink:href="classHighlighter.html" target="_top" xlink:title=" ">
<polygon fill="#ffffff" stroke="#000000" points="475.5,-1278.5 475.5,-1346.5 554.5,-1346.5 554.5,-1278.5 475.5,-1278.5"/>
<text text-anchor="middle" x="515" y="-1334.5" font-family="Helvetica,sans-Serif" font-size="10.00" fill="#000000">Highlighter</text>
<polyline fill="none" stroke="#000000" points="475.5,-1327.5 554.5,-1327.5 "/>
<text text-anchor="start" x="483.5" y="-1315.5" font-family="Helvetica,sans-Serif" font-size="10.00" fill="#000000">&#45; outline</text>
<polyline fill="none" stroke="#000000" points="475.5,-1308.5 554.5,-1308.5 "/>
<text text-anchor="start" x="483.5" y="-1296.5" font-family="Helvetica,sans-Serif" font-size="10.00" fill="#000000">+ Highlighter()</text>
<text text-anchor="start" x="483.5" y="-1285.5" font-family="Helvetica,sans-Serif" font-size="10.00" fill="#000000">+ setColor()</text>
</a>
</g>
</g>
<!-- Node11&#45;&gt;Node10 -->
<g id="edge12" class="edge">
<title>Node11&#45;&gt;Node10</title>
<path fill="none" stroke="#404040" d="M515,-1278.3066C515,-1253.9647 515,-1220.8183 515,-1193.249"/>
<polygon fill="none" stroke="#404040" points="515.0001,-1193.0262 511,-1187.0262 515,-1181.0262 519,-1187.0261 515.0001,-1193.0262"/>
<text text-anchor="middle" x="542.5" y="-1252" font-family="Helvetica,sans-Serif" font-size="10.00" fill="#000000"> +highlighter</text>
</g>
<!-- Node12 -->
<g id="node12" class="node">
<title>Node12</title>
<g id="a_node12"><a xlink:title=" ">
<polygon fill="#ffffff" stroke="#bfbfbf" points="463,-1384.5 463,-1441.5 567,-1441.5 567,-1384.5 463,-1384.5"/>
<text text-anchor="middle" x="515" y="-1429.5" font-family="Helvetica,sans-Serif" font-size="10.00" fill="#000000">QGraphicsRectItem</text>
<polyline fill="none" stroke="#bfbfbf" points="463,-1422.5 567,-1422.5 "/>
<text text-anchor="middle" x="515" y="-1410.5" font-family="Helvetica,sans-Serif" font-size="10.00" fill="#000000"> </text>
<polyline fill="none" stroke="#bfbfbf" points="463,-1403.5 567,-1403.5 "/>
<text text-anchor="middle" x="515" y="-1391.5" font-family="Helvetica,sans-Serif" font-size="10.00" fill="#000000"> </text>
</a>
</g>
</g>
<!-- Node12&#45;&gt;Node11 -->
<g id="edge13" class="edge">
<title>Node12&#45;&gt;Node11</title>
<path fill="none" stroke="#191970" d="M515,-1374.1903C515,-1365.1667 515,-1355.6233 515,-1346.8097"/>
<polygon fill="none" stroke="#191970" points="511.5001,-1374.4695 515,-1384.4696 518.5001,-1374.4696 511.5001,-1374.4695"/>
</g>
</g>
</svg>
