<?xml version="1.0" encoding="UTF-8" standalone="no"?>
<!DOCTYPE svg PUBLIC "-//W3C//DTD SVG 1.1//EN"
 "http://www.w3.org/Graphics/SVG/1.1/DTD/svg11.dtd">
<!-- Generated by graphviz version 2.40.1 (20161225.0304)
 -->
<!-- Title: GraphicsManager::get Pages: 1 -->
<!--zoomable 218 -->
<svg id="main" version="1.1" xmlns="http://www.w3.org/2000/svg" xmlns:xlink="http://www.w3.org/1999/xlink" xml:space="preserve" onload="init(evt)">
<style type="text/css"><![CDATA[
.edge:hover path { stroke: red; }
.edge:hover polygon { stroke: red; fill: red; }
]]></style>
<script type="text/javascript"><![CDATA[
var edges = document.getElementsByTagName('g');
if (edges && edges.length) {
  for (var i=0;i<edges.length;i++) {
    if (edges[i].id.substr(0,4)=='edge') {
      edges[i].setAttribute('class','edge');
    }
  }
}
]]></script>
        <defs>
                <circle id="rim" cx="0" cy="0" r="7"/>
                <circle id="rim2" cx="0" cy="0" r="3.5"/>
                <g id="zoomPlus">
                        <use xlink:href="#rim" fill="#404040">
                                <set attributeName="fill" to="#808080" begin="zoomplus.mouseover" end="zoomplus.mouseout"/>
                        </use>
                        <path d="M-4,0h8M0,-4v8" fill="none" stroke="white" stroke-width="1.5" pointer-events="none"/>
                </g>
                <g id="zoomMin">
                        <use xlink:href="#rim" fill="#404040">
                                <set attributeName="fill" to="#808080" begin="zoomminus.mouseover" end="zoomminus.mouseout"/>
                        </use>
                        <path d="M-4,0h8" fill="none" stroke="white" stroke-width="1.5" pointer-events="none"/>
                </g>
                <g id="dirArrow">
                        <path fill="none" stroke="white" stroke-width="1.5" d="M0,-3.0v7 M-2.5,-0.5L0,-3.0L2.5,-0.5"/>
                </g>
               <g id="resetDef">
                       <use xlink:href="#rim2" fill="#404040">
                               <set attributeName="fill" to="#808080" begin="reset.mouseover" end="reset.mouseout"/>
                       </use>
               </g>
        </defs>

<script type="text/javascript">
var viewWidth = 634;
var viewHeight = 218;
var sectionId = 'dynsection-1';
</script>
<script xlink:href="svgpan.js"/>
<svg id="graph" class="graph">
<g id="viewport">
<title>GraphicsManager::get</title>
<polygon fill="#ffffff" stroke="transparent" points="-4,4 -4,-214 630,-214 630,4 -4,4"/>
<!-- Node1 -->
<g id="node1" class="node">
<title>Node1</title>
<g id="a_node1"><a xlink:title="GraphicsManager::get Liefert eine Grafik mit einem bestimmten Namen.">
<polygon fill="#bfbfbf" stroke="#000000" points="508,-133.5 508,-152.5 626,-152.5 626,-133.5 508,-133.5"/>
<text text-anchor="middle" x="567" y="-140.5" font-family="Helvetica,sans-Serif" font-size="10.00" fill="#000000">GraphicsManager::get</text>
</a>
</g>
</g>
<!-- Node2 -->
<g id="node2" class="node">
<title>Node2</title>
<g id="a_node2"><a xlink:href="classScene.html#ad22fc5010d69665d13f8ccef2cb094b0" target="_top" xlink:title="Scene::Scene Konstruktor.">
<polygon fill="#ffffff" stroke="#000000" points="223,-190.5 223,-209.5 304,-209.5 304,-190.5 223,-190.5"/>
<text text-anchor="middle" x="263.5" y="-197.5" font-family="Helvetica,sans-Serif" font-size="10.00" fill="#000000">Scene::Scene</text>
</a>
</g>
</g>
<!-- Node1&#45;&gt;Node2 -->
<g id="edge1" class="edge">
<title>Node1&#45;&gt;Node2</title>
<path fill="none" stroke="#191970" d="M506.1005,-154.4375C446.0911,-165.7078 356.0841,-182.6119 304.2406,-192.3486"/>
<polygon fill="#191970" stroke="#191970" points="507.0188,-157.8263 516.2009,-152.5405 505.7267,-150.9466 507.0188,-157.8263"/>
</g>
<!-- Node3 -->
<g id="node3" class="node">
<title>Node3</title>
<g id="a_node3"><a xlink:href="classMapTile.html#a6f6c6e03095e0f1ed503dd30f499793c" target="_top" xlink:title="MapTile::setType Setzt den Typ der Kachel.">
<polygon fill="#ffffff" stroke="#000000" points="374,-114.5 374,-133.5 472,-133.5 472,-114.5 374,-114.5"/>
<text text-anchor="middle" x="423" y="-121.5" font-family="Helvetica,sans-Serif" font-size="10.00" fill="#000000">MapTile::setType</text>
</a>
</g>
</g>
<!-- Node1&#45;&gt;Node3 -->
<g id="edge2" class="edge">
<title>Node1&#45;&gt;Node3</title>
<path fill="none" stroke="#191970" d="M497.5814,-133.8406C489.0045,-132.7089 480.3787,-131.5708 472.1916,-130.4906"/>
<polygon fill="#191970" stroke="#191970" points="497.2264,-137.324 507.5983,-135.1623 498.1421,-130.3842 497.2264,-137.324"/>
</g>
<!-- Node3&#45;&gt;Node2 -->
<g id="edge9" class="edge">
<title>Node3&#45;&gt;Node2</title>
<path fill="none" stroke="#191970" d="M403.0836,-140.2357C386.5522,-152.9782 361.9529,-170.2972 338,-181 327.3975,-185.7375 315.3971,-189.4493 304.1735,-192.2855"/>
<polygon fill="#191970" stroke="#191970" points="405.6927,-142.636 411.3824,-133.6985 401.3611,-137.1371 405.6927,-142.636"/>
</g>
<!-- Node4 -->
<g id="node4" class="node">
<title>Node4</title>
<g id="a_node4"><a xlink:href="classMapRenderer.html#a6b690a49223b2006a4816b706a4b156e" target="_top" xlink:title="MapRenderer::demo Zeigt eine Demo&#45;Visualisierung.">
<polygon fill="#ffffff" stroke="#000000" points="208.5,-152.5 208.5,-171.5 318.5,-171.5 318.5,-152.5 208.5,-152.5"/>
<text text-anchor="middle" x="263.5" y="-159.5" font-family="Helvetica,sans-Serif" font-size="10.00" fill="#000000">MapRenderer::demo</text>
</a>
</g>
</g>
<!-- Node3&#45;&gt;Node4 -->
<g id="edge3" class="edge">
<title>Node3&#45;&gt;Node4</title>
<path fill="none" stroke="#191970" d="M372.766,-135.968C350.4145,-141.2931 324.4617,-147.4762 303.4592,-152.4799"/>
<polygon fill="#191970" stroke="#191970" points="373.8349,-139.3114 382.7514,-133.589 372.2125,-132.502 373.8349,-139.3114"/>
</g>
<!-- Node5 -->
<g id="node5" class="node">
<title>Node5</title>
<g id="a_node5"><a xlink:href="classScene.html#a1ef1c0e0972913d4c477ead916cf06b0" target="_top" xlink:title="Scene::generateWorld Diese Methode generiert eine neue Welt.">
<polygon fill="#ffffff" stroke="#000000" points="204,-114.5 204,-133.5 323,-133.5 323,-114.5 204,-114.5"/>
<text text-anchor="middle" x="263.5" y="-121.5" font-family="Helvetica,sans-Serif" font-size="10.00" fill="#000000">Scene::generateWorld</text>
</a>
</g>
</g>
<!-- Node3&#45;&gt;Node5 -->
<g id="edge4" class="edge">
<title>Node3&#45;&gt;Node5</title>
<path fill="none" stroke="#191970" d="M363.4776,-124C350.3044,-124 336.3428,-124 323.1639,-124"/>
<polygon fill="#191970" stroke="#191970" points="363.8433,-127.5001 373.8433,-124 363.8432,-120.5001 363.8433,-127.5001"/>
</g>
<!-- Node6 -->
<g id="node6" class="node">
<title>Node6</title>
<g id="a_node6"><a xlink:href="classScene.html#ad861f0bdfab5241fcec39c96f01105b0" target="_top" xlink:title="Scene::onSetTile Ändert ein MapTile ohne ein Signal an den Server. Notwendig zum Empfangen von Änderu...">
<polygon fill="#ffffff" stroke="#000000" points="215.5,-76.5 215.5,-95.5 311.5,-95.5 311.5,-76.5 215.5,-76.5"/>
<text text-anchor="middle" x="263.5" y="-83.5" font-family="Helvetica,sans-Serif" font-size="10.00" fill="#000000">Scene::onSetTile</text>
</a>
</g>
</g>
<!-- Node3&#45;&gt;Node6 -->
<g id="edge5" class="edge">
<title>Node3&#45;&gt;Node6</title>
<path fill="none" stroke="#191970" d="M372.766,-112.032C350.4145,-106.7069 324.4617,-100.5238 303.4592,-95.5201"/>
<polygon fill="#191970" stroke="#191970" points="372.2125,-115.498 382.7514,-114.411 373.8349,-108.6886 372.2125,-115.498"/>
</g>
<!-- Node7 -->
<g id="node7" class="node">
<title>Node7</title>
<g id="a_node7"><a xlink:href="classMapRenderer.html#a472525cfdf5cd4ab4ed226457ae6f55a" target="_top" xlink:title="MapRenderer::onTileChange Wird aufgerufen wenn sich eine Kachel ändert.">
<polygon fill="#ffffff" stroke="#000000" points="189,-38.5 189,-57.5 338,-57.5 338,-38.5 189,-38.5"/>
<text text-anchor="middle" x="263.5" y="-45.5" font-family="Helvetica,sans-Serif" font-size="10.00" fill="#000000">MapRenderer::onTileChange</text>
</a>
</g>
</g>
<!-- Node3&#45;&gt;Node7 -->
<g id="edge6" class="edge">
<title>Node3&#45;&gt;Node7</title>
<path fill="none" stroke="#191970" d="M403.0836,-107.7643C386.5522,-95.0218 361.9529,-77.7028 338,-67 329.5911,-63.2427 320.3029,-60.1305 311.2203,-57.5887"/>
<polygon fill="#191970" stroke="#191970" points="401.3611,-110.8629 411.3824,-114.3015 405.6927,-105.364 401.3611,-110.8629"/>
</g>
<!-- Node10 -->
<g id="node10" class="node">
<title>Node10</title>
<g id="a_node10"><a xlink:href="classScene.html#a38a79a03ba1fa403296646ee64ea8476" target="_top" xlink:title="Scene::setTileAt Setzt ein MapTile anhand der Pixel&#45;Koordinaten oder der Indezes.">
<polygon fill="#ffffff" stroke="#000000" points="217.5,-.5 217.5,-19.5 309.5,-19.5 309.5,-.5 217.5,-.5"/>
<text text-anchor="middle" x="263.5" y="-7.5" font-family="Helvetica,sans-Serif" font-size="10.00" fill="#000000">Scene::setTileAt</text>
</a>
</g>
</g>
<!-- Node3&#45;&gt;Node10 -->
<g id="edge10" class="edge">
<title>Node3&#45;&gt;Node10</title>
<path fill="none" stroke="#191970" d="M411.7443,-105.9263C397.3276,-84.311 370.3055,-48.5985 338,-29 329.4409,-23.8075 319.5025,-20.0267 309.7276,-17.2761"/>
<polygon fill="#191970" stroke="#191970" points="408.9207,-108.0052 417.2927,-114.4983 414.7971,-104.2016 408.9207,-108.0052"/>
</g>
<!-- Node8 -->
<g id="node8" class="node">
<title>Node8</title>
<g id="a_node8"><a xlink:href="classClient.html#a16ec13dd45e134c3d1ec31dd26e1a119" target="_top" xlink:title="Client::Client Erzeugt einen neuen Client.">
<polygon fill="#ffffff" stroke="#000000" points="39.5,-60.5 39.5,-79.5 113.5,-79.5 113.5,-60.5 39.5,-60.5"/>
<text text-anchor="middle" x="76.5" y="-67.5" font-family="Helvetica,sans-Serif" font-size="10.00" fill="#000000">Client::Client</text>
</a>
</g>
</g>
<!-- Node7&#45;&gt;Node8 -->
<g id="edge7" class="edge">
<title>Node7&#45;&gt;Node8</title>
<path fill="none" stroke="#191970" d="M178.712,-57.9751C155.8753,-60.6617 132.3394,-63.4307 113.6172,-65.6333"/>
<polygon fill="#191970" stroke="#191970" points="179.2639,-61.4344 188.7865,-56.7898 178.446,-54.4823 179.2639,-61.4344"/>
</g>
<!-- Node9 -->
<g id="node9" class="node">
<title>Node9</title>
<g id="a_node9"><a xlink:href="classMapRenderer.html#ac6c85d76a8de58f740066f02745d2e79" target="_top" xlink:title=" ">
<polygon fill="#ffffff" stroke="#000000" points="0,-11 0,-41 153,-41 153,-11 0,-11"/>
<text text-anchor="start" x="8" y="-29" font-family="Helvetica,sans-Serif" font-size="10.00" fill="#000000">MapRenderer::mouseRelease</text>
<text text-anchor="middle" x="76.5" y="-18" font-family="Helvetica,sans-Serif" font-size="10.00" fill="#000000">Event</text>
</a>
</g>
</g>
<!-- Node7&#45;&gt;Node9 -->
<g id="edge8" class="edge">
<title>Node7&#45;&gt;Node9</title>
<path fill="none" stroke="#191970" d="M178.8354,-38.0395C170.3051,-37.0359 161.6759,-36.0207 153.2351,-35.0277"/>
<polygon fill="#191970" stroke="#191970" points="178.446,-41.5177 188.7865,-39.2102 179.2639,-34.5656 178.446,-41.5177"/>
</g>
</g>
</svg>
        <g id="navigator" transform="translate(0 0)" fill="#404254">
                <rect fill="#f2f5e9" fill-opacity="0.5" stroke="#606060" stroke-width=".5" x="0" y="0" width="60" height="60"/>
                <use id="zoomplus" xlink:href="#zoomPlus" x="17" y="9" onmousedown="handleZoom(evt,'in')"/>
                <use id="zoomminus" xlink:href="#zoomMin" x="42" y="9" onmousedown="handleZoom(evt,'out')"/>
                <use id="reset" xlink:href="#resetDef" x="30" y="36" onmousedown="handleReset()"/>
                <g id="arrowUp" xlink:href="#dirArrow" transform="translate(30 24)" onmousedown="handlePan(0,-1)">
                  <use xlink:href="#rim" fill="#404040">
                        <set attributeName="fill" to="#808080" begin="arrowUp.mouseover" end="arrowUp.mouseout"/>
                  </use>
                  <path fill="none" stroke="white" stroke-width="1.5" d="M0,-3.0v7 M-2.5,-0.5L0,-3.0L2.5,-0.5"/>
                </g>
                <g id="arrowRight" xlink:href="#dirArrow" transform="rotate(90) translate(36 -43)" onmousedown="handlePan(1,0)">
                  <use xlink:href="#rim" fill="#404040">
                        <set attributeName="fill" to="#808080" begin="arrowRight.mouseover" end="arrowRight.mouseout"/>
                  </use>
                  <path fill="none" stroke="white" stroke-width="1.5" d="M0,-3.0v7 M-2.5,-0.5L0,-3.0L2.5,-0.5"/>
                </g>
                <g id="arrowDown" xlink:href="#dirArrow" transform="rotate(180) translate(-30 -48)" onmousedown="handlePan(0,1)">
                  <use xlink:href="#rim" fill="#404040">
                        <set attributeName="fill" to="#808080" begin="arrowDown.mouseover" end="arrowDown.mouseout"/>
                  </use>
                  <path fill="none" stroke="white" stroke-width="1.5" d="M0,-3.0v7 M-2.5,-0.5L0,-3.0L2.5,-0.5"/>
                </g>
                <g id="arrowLeft" xlink:href="#dirArrow" transform="rotate(270) translate(-36 17)" onmousedown="handlePan(-1,0)">
                  <use xlink:href="#rim" fill="#404040">
                        <set attributeName="fill" to="#808080" begin="arrowLeft.mouseover" end="arrowLeft.mouseout"/>
                  </use>
                  <path fill="none" stroke="white" stroke-width="1.5" d="M0,-3.0v7 M-2.5,-0.5L0,-3.0L2.5,-0.5"/>
                </g>
        </g>
        <svg viewBox="0 0 15 15" width="100%" height="30px" preserveAspectRatio="xMaxYMin meet">
         <g id="arrow_out" transform="scale(0.3 0.3)">
          <a xlink:href="classGraphicsManager_aa094318dfcf4d0d399296b323dd670c6_icgraph_org.svg" target="_base">
           <rect id="button" ry="5" rx="5" y="6" x="6" height="38" width="38"
                fill="#f2f5e9" fill-opacity="0.5" stroke="#606060" stroke-width="1.0"/>
           <path id="arrow"
             d="M 11.500037,31.436501 C 11.940474,20.09759 22.043105,11.32322 32.158766,21.979434 L 37.068811,17.246167 C 37.068811,17.246167 37.088388,32 37.088388,32 L 22.160133,31.978069 C 22.160133,31.978069 26.997745,27.140456 26.997745,27.140456 C 18.528582,18.264221 13.291696,25.230495 11.500037,31.436501 z"
             style="fill:#404040;"/>
          </a>
         </g>
        </svg>
</svg>
