<?xml version="1.0" encoding="UTF-8" standalone="no"?>
<!DOCTYPE svg PUBLIC "-//W3C//DTD SVG 1.1//EN"
 "http://www.w3.org/Graphics/SVG/1.1/DTD/svg11.dtd">
<!-- Generated by graphviz version 2.40.1 (20161225.0304)
 -->
<!-- Title: GameLoop Pages: 1 -->
<!--zoomable 1588 -->
<svg id="main" version="1.1" xmlns="http://www.w3.org/2000/svg" xmlns:xlink="http://www.w3.org/1999/xlink" xml:space="preserve" onload="init(evt)">
<style type="text/css"><![CDATA[
.edge:hover path { stroke: red; }
.edge:hover polygon { stroke: red; fill: red; }
]]></style>
<script type="text/javascript"><![CDATA[
var edges = document.getElementsByTagName('g');
if (edges && edges.length) {
  for (var i=0;i<edges.length;i++) {
    if (edges[i].id.substr(0,4)=='edge') {
      edges[i].setAttribute('class','edge');
    }
  }
}
]]></script>
        <defs>
                <circle id="rim" cx="0" cy="0" r="7"/>
                <circle id="rim2" cx="0" cy="0" r="3.5"/>
                <g id="zoomPlus">
                        <use xlink:href="#rim" fill="#404040">
                                <set attributeName="fill" to="#808080" begin="zoomplus.mouseover" end="zoomplus.mouseout"/>
                        </use>
                        <path d="M-4,0h8M0,-4v8" fill="none" stroke="white" stroke-width="1.5" pointer-events="none"/>
                </g>
                <g id="zoomMin">
                        <use xlink:href="#rim" fill="#404040">
                                <set attributeName="fill" to="#808080" begin="zoomminus.mouseover" end="zoomminus.mouseout"/>
                        </use>
                        <path d="M-4,0h8" fill="none" stroke="white" stroke-width="1.5" pointer-events="none"/>
                </g>
                <g id="dirArrow">
                        <path fill="none" stroke="white" stroke-width="1.5" d="M0,-3.0v7 M-2.5,-0.5L0,-3.0L2.5,-0.5"/>
                </g>
               <g id="resetDef">
                       <use xlink:href="#rim2" fill="#404040">
                               <set attributeName="fill" to="#808080" begin="reset.mouseover" end="reset.mouseout"/>
                       </use>
               </g>
        </defs>

<script type="text/javascript">
var viewWidth = 935;
var viewHeight = 1588;
var sectionId = 'dynsection-1';
</script>
<script xlink:href="svgpan.js"/>
<svg id="graph" class="graph">
<g id="viewport">
<title>GameLoop</title>
<polygon fill="#ffffff" stroke="transparent" points="-4,4 -4,-1584 931,-1584 931,4 -4,4"/>
<!-- Node1 -->
<g id="node1" class="node">
<title>Node1</title>
<g id="a_node1"><a xlink:title=" ">
<polygon fill="#bfbfbf" stroke="#000000" points="278.5,-.5 278.5,-79.5 361.5,-79.5 361.5,-.5 278.5,-.5"/>
<text text-anchor="middle" x="320" y="-67.5" font-family="Helvetica,sans-Serif" font-size="10.00" fill="#000000">GameLoop</text>
<polyline fill="none" stroke="#000000" points="278.5,-60.5 361.5,-60.5 "/>
<text text-anchor="start" x="286.5" y="-48.5" font-family="Helvetica,sans-Serif" font-size="10.00" fill="#000000">&#45; lastRender</text>
<text text-anchor="start" x="286.5" y="-37.5" font-family="Helvetica,sans-Serif" font-size="10.00" fill="#000000">&#45; frameDelay</text>
<polyline fill="none" stroke="#000000" points="278.5,-30.5 361.5,-30.5 "/>
<text text-anchor="start" x="286.5" y="-18.5" font-family="Helvetica,sans-Serif" font-size="10.00" fill="#000000">+ GameLoop()</text>
<text text-anchor="start" x="286.5" y="-7.5" font-family="Helvetica,sans-Serif" font-size="10.00" fill="#000000">+ run()</text>
</a>
</g>
</g>
<!-- Node2 -->
<g id="node2" class="node">
<title>Node2</title>
<g id="a_node2"><a xlink:title=" ">
<polygon fill="#ffffff" stroke="#bfbfbf" points="229,-480 229,-537 287,-537 287,-480 229,-480"/>
<text text-anchor="middle" x="258" y="-525" font-family="Helvetica,sans-Serif" font-size="10.00" fill="#000000">QThread</text>
<polyline fill="none" stroke="#bfbfbf" points="229,-518 287,-518 "/>
<text text-anchor="middle" x="258" y="-506" font-family="Helvetica,sans-Serif" font-size="10.00" fill="#000000"> </text>
<polyline fill="none" stroke="#bfbfbf" points="229,-499 287,-499 "/>
<text text-anchor="middle" x="258" y="-487" font-family="Helvetica,sans-Serif" font-size="10.00" fill="#000000"> </text>
</a>
</g>
</g>
<!-- Node2&#45;&gt;Node1 -->
<g id="edge1" class="edge">
<title>Node2&#45;&gt;Node1</title>
<path fill="none" stroke="#191970" d="M249.3897,-469.5489C235.5675,-399.0266 213.8257,-246.4281 254,-127 259.7424,-109.9293 270.3118,-93.5474 281.3348,-79.694"/>
<polygon fill="none" stroke="#191970" points="246.0381,-470.6346 251.4463,-479.7452 252.8999,-469.2506 246.0381,-470.6346"/>
</g>
<!-- Node13 -->
<g id="node13" class="node">
<title>Node13</title>
<g id="a_node13"><a xlink:href="classClient.html" target="_top" xlink:title=" ">
<polygon fill="#ffffff" stroke="#000000" points="262.5,-127.5 262.5,-294.5 377.5,-294.5 377.5,-127.5 262.5,-127.5"/>
<text text-anchor="middle" x="320" y="-282.5" font-family="Helvetica,sans-Serif" font-size="10.00" fill="#000000">Client</text>
<polyline fill="none" stroke="#000000" points="262.5,-275.5 377.5,-275.5 "/>
<text text-anchor="start" x="270.5" y="-263.5" font-family="Helvetica,sans-Serif" font-size="10.00" fill="#000000">&#45; socket</text>
<text text-anchor="start" x="270.5" y="-252.5" font-family="Helvetica,sans-Serif" font-size="10.00" fill="#000000">&#45; debug</text>
<text text-anchor="start" x="270.5" y="-241.5" font-family="Helvetica,sans-Serif" font-size="10.00" fill="#000000">&#45; tickcount</text>
<polyline fill="none" stroke="#000000" points="262.5,-234.5 377.5,-234.5 "/>
<text text-anchor="start" x="270.5" y="-222.5" font-family="Helvetica,sans-Serif" font-size="10.00" fill="#000000">+ Client()</text>
<text text-anchor="start" x="270.5" y="-211.5" font-family="Helvetica,sans-Serif" font-size="10.00" fill="#000000">+ run()</text>
<text text-anchor="start" x="270.5" y="-200.5" font-family="Helvetica,sans-Serif" font-size="10.00" fill="#000000">+ requestMap()</text>
<text text-anchor="start" x="270.5" y="-189.5" font-family="Helvetica,sans-Serif" font-size="10.00" fill="#000000">+ onPositionChange()</text>
<text text-anchor="start" x="270.5" y="-178.5" font-family="Helvetica,sans-Serif" font-size="10.00" fill="#000000">+ onLeftclick()</text>
<text text-anchor="start" x="270.5" y="-167.5" font-family="Helvetica,sans-Serif" font-size="10.00" fill="#000000">+ onRightclick()</text>
<text text-anchor="start" x="270.5" y="-156.5" font-family="Helvetica,sans-Serif" font-size="10.00" fill="#000000">+ sendRoute()</text>
<text text-anchor="start" x="270.5" y="-145.5" font-family="Helvetica,sans-Serif" font-size="10.00" fill="#000000">+ requestRoutes()</text>
<text text-anchor="start" x="270.5" y="-134.5" font-family="Helvetica,sans-Serif" font-size="10.00" fill="#000000">&#45; processCommand()</text>
</a>
</g>
</g>
<!-- Node2&#45;&gt;Node13 -->
<g id="edge16" class="edge">
<title>Node2&#45;&gt;Node13</title>
<path fill="none" stroke="#191970" d="M266.0334,-469.9524C275.2304,-425.8218 290.5687,-352.2226 302.5474,-294.7441"/>
<polygon fill="none" stroke="#191970" points="262.5587,-469.4707 263.9448,-479.9744 269.4115,-470.8989 262.5587,-469.4707"/>
</g>
<!-- Node3 -->
<g id="node3" class="node">
<title>Node3</title>
<g id="a_node3"><a xlink:href="classScene.html" target="_top" xlink:title=" ">
<polygon fill="#ffffff" stroke="#000000" points="83,-408.5 83,-608.5 211,-608.5 211,-408.5 83,-408.5"/>
<text text-anchor="middle" x="147" y="-596.5" font-family="Helvetica,sans-Serif" font-size="10.00" fill="#000000">Scene</text>
<polyline fill="none" stroke="#000000" points="83,-589.5 211,-589.5 "/>
<text text-anchor="start" x="91" y="-577.5" font-family="Helvetica,sans-Serif" font-size="10.00" fill="#000000">+ MAP_SIZE</text>
<text text-anchor="start" x="91" y="-566.5" font-family="Helvetica,sans-Serif" font-size="10.00" fill="#000000">+ TILE_SIZE</text>
<text text-anchor="start" x="91" y="-555.5" font-family="Helvetica,sans-Serif" font-size="10.00" fill="#000000">&#45; radiusHighlighter</text>
<text text-anchor="start" x="91" y="-544.5" font-family="Helvetica,sans-Serif" font-size="10.00" fill="#000000">&#45; textHint</text>
<text text-anchor="start" x="91" y="-533.5" font-family="Helvetica,sans-Serif" font-size="10.00" fill="#000000">&#45; showRadius</text>
<text text-anchor="start" x="91" y="-522.5" font-family="Helvetica,sans-Serif" font-size="10.00" fill="#000000">&#45; players</text>
<polyline fill="none" stroke="#000000" points="83,-515.5 211,-515.5 "/>
<text text-anchor="start" x="91" y="-503.5" font-family="Helvetica,sans-Serif" font-size="10.00" fill="#000000">+ Scene()</text>
<text text-anchor="start" x="91" y="-492.5" font-family="Helvetica,sans-Serif" font-size="10.00" fill="#000000">+ generateWorld()</text>
<text text-anchor="start" x="91" y="-481.5" font-family="Helvetica,sans-Serif" font-size="10.00" fill="#000000">+ setActiveTile()</text>
<text text-anchor="start" x="91" y="-470.5" font-family="Helvetica,sans-Serif" font-size="10.00" fill="#000000">+ getTileAt()</text>
<text text-anchor="start" x="91" y="-459.5" font-family="Helvetica,sans-Serif" font-size="10.00" fill="#000000">+ setTileAt()</text>
<text text-anchor="start" x="91" y="-448.5" font-family="Helvetica,sans-Serif" font-size="10.00" fill="#000000">+ tileChanged()</text>
<text text-anchor="start" x="91" y="-437.5" font-family="Helvetica,sans-Serif" font-size="10.00" fill="#000000">+ tick()</text>
<text text-anchor="start" x="91" y="-426.5" font-family="Helvetica,sans-Serif" font-size="10.00" fill="#000000">+ onSetTile()</text>
<text text-anchor="start" x="91" y="-415.5" font-family="Helvetica,sans-Serif" font-size="10.00" fill="#000000">+ updatePlayerPosition()</text>
</a>
</g>
</g>
<!-- Node3&#45;&gt;Node1 -->
<g id="edge2" class="edge">
<title>Node3&#45;&gt;Node1</title>
<path fill="none" stroke="#404040" d="M137.3641,-408.4065C134.3576,-326.9018 141.5474,-211.8537 193,-127 210.2336,-98.579 240.6954,-77.2396 267.4657,-62.8088"/>
<polygon fill="none" stroke="#404040" points="267.6096,-62.7347 271.1104,-56.4304 278.2762,-57.2371 274.7754,-63.5414 267.6096,-62.7347"/>
<text text-anchor="middle" x="210" y="-208.5" font-family="Helvetica,sans-Serif" font-size="10.00" fill="#000000"> &#45;scene</text>
</g>
<!-- Node3&#45;&gt;Node13 -->
<g id="edge17" class="edge">
<title>Node3&#45;&gt;Node13</title>
<path fill="none" stroke="#404040" d="M186.2566,-408.3983C196.288,-386.0383 207.7397,-362.801 220,-342 230.3231,-324.4856 242.6196,-306.6018 254.9986,-289.9028"/>
<polygon fill="none" stroke="#404040" points="255.0689,-289.8093 255.4791,-282.6098 262.2824,-280.2194 261.8723,-287.4188 255.0689,-289.8093"/>
<text text-anchor="middle" x="254" y="-316" font-family="Helvetica,sans-Serif" font-size="10.00" fill="#000000"> &#45;scene</text>
</g>
<!-- Node4 -->
<g id="node4" class="node">
<title>Node4</title>
<g id="a_node4"><a xlink:title=" ">
<polygon fill="#ffffff" stroke="#bfbfbf" points="0,-920.5 0,-977.5 94,-977.5 94,-920.5 0,-920.5"/>
<text text-anchor="middle" x="47" y="-965.5" font-family="Helvetica,sans-Serif" font-size="10.00" fill="#000000">QGraphicsScene</text>
<polyline fill="none" stroke="#bfbfbf" points="0,-958.5 94,-958.5 "/>
<text text-anchor="middle" x="47" y="-946.5" font-family="Helvetica,sans-Serif" font-size="10.00" fill="#000000"> </text>
<polyline fill="none" stroke="#bfbfbf" points="0,-939.5 94,-939.5 "/>
<text text-anchor="middle" x="47" y="-927.5" font-family="Helvetica,sans-Serif" font-size="10.00" fill="#000000"> </text>
</a>
</g>
</g>
<!-- Node4&#45;&gt;Node3 -->
<g id="edge3" class="edge">
<title>Node4&#45;&gt;Node3</title>
<path fill="none" stroke="#191970" d="M55.7727,-910.3564C70.9339,-843.5711 102.4966,-704.5374 124.2118,-608.882"/>
<polygon fill="none" stroke="#191970" points="52.285,-909.9102 53.4842,-920.437 59.1113,-911.46 52.285,-909.9102"/>
</g>
<!-- Node5 -->
<g id="node5" class="node">
<title>Node5</title>
<g id="a_node5"><a xlink:href="classHighlighter.html" target="_top" xlink:title=" ">
<polygon fill="#ffffff" stroke="#000000" points="98.5,-1416.5 98.5,-1484.5 177.5,-1484.5 177.5,-1416.5 98.5,-1416.5"/>
<text text-anchor="middle" x="138" y="-1472.5" font-family="Helvetica,sans-Serif" font-size="10.00" fill="#000000">Highlighter</text>
<polyline fill="none" stroke="#000000" points="98.5,-1465.5 177.5,-1465.5 "/>
<text text-anchor="start" x="106.5" y="-1453.5" font-family="Helvetica,sans-Serif" font-size="10.00" fill="#000000">&#45; outline</text>
<polyline fill="none" stroke="#000000" points="98.5,-1446.5 177.5,-1446.5 "/>
<text text-anchor="start" x="106.5" y="-1434.5" font-family="Helvetica,sans-Serif" font-size="10.00" fill="#000000">+ Highlighter()</text>
<text text-anchor="start" x="106.5" y="-1423.5" font-family="Helvetica,sans-Serif" font-size="10.00" fill="#000000">+ setColor()</text>
</a>
</g>
</g>
<!-- Node5&#45;&gt;Node3 -->
<g id="edge4" class="edge">
<title>Node5&#45;&gt;Node3</title>
<path fill="none" stroke="#404040" d="M136.5352,-1416.2087C134.371,-1363.6568 130.4221,-1260.0327 129,-1172 125.8686,-978.148 134.628,-752.5133 141.0011,-620.6035"/>
<polygon fill="none" stroke="#404040" points="141.0055,-620.513 137.3028,-614.3251 141.5906,-608.5273 145.2933,-614.7152 141.0055,-620.513"/>
<text text-anchor="middle" x="155" y="-1164" font-family="Helvetica,sans-Serif" font-size="10.00" fill="#000000"> &#45;highlighter</text>
</g>
<!-- Node10 -->
<g id="node10" class="node">
<title>Node10</title>
<g id="a_node10"><a xlink:href="classPlayer.html" target="_top" xlink:title=" ">
<polygon fill="#ffffff" stroke="#000000" points="150.5,-1240 150.5,-1319 231.5,-1319 231.5,-1240 150.5,-1240"/>
<text text-anchor="middle" x="191" y="-1307" font-family="Helvetica,sans-Serif" font-size="10.00" fill="#000000">Player</text>
<polyline fill="none" stroke="#000000" points="150.5,-1300 231.5,-1300 "/>
<text text-anchor="start" x="158.5" y="-1288" font-family="Helvetica,sans-Serif" font-size="10.00" fill="#000000">+ posX</text>
<text text-anchor="start" x="158.5" y="-1277" font-family="Helvetica,sans-Serif" font-size="10.00" fill="#000000">+ posY</text>
<polyline fill="none" stroke="#000000" points="150.5,-1270 231.5,-1270 "/>
<text text-anchor="start" x="158.5" y="-1258" font-family="Helvetica,sans-Serif" font-size="10.00" fill="#000000">+ Player()</text>
<text text-anchor="start" x="158.5" y="-1247" font-family="Helvetica,sans-Serif" font-size="10.00" fill="#000000">+ setPosition()</text>
</a>
</g>
</g>
<!-- Node5&#45;&gt;Node10 -->
<g id="edge11" class="edge">
<title>Node5&#45;&gt;Node10</title>
<path fill="none" stroke="#404040" d="M148.598,-1416.3066C156.2105,-1391.7454 166.6013,-1358.2204 175.1913,-1330.5053"/>
<polygon fill="none" stroke="#404040" points="175.1966,-1330.4883 173.1522,-1323.573 178.7492,-1319.0262 180.7936,-1325.9414 175.1966,-1330.4883"/>
<text text-anchor="middle" x="184.5" y="-1390" font-family="Helvetica,sans-Serif" font-size="10.00" fill="#000000"> +highlighter</text>
</g>
<!-- Node6 -->
<g id="node6" class="node">
<title>Node6</title>
<g id="a_node6"><a xlink:title=" ">
<polygon fill="#ffffff" stroke="#bfbfbf" points="86,-1522.5 86,-1579.5 190,-1579.5 190,-1522.5 86,-1522.5"/>
<text text-anchor="middle" x="138" y="-1567.5" font-family="Helvetica,sans-Serif" font-size="10.00" fill="#000000">QGraphicsRectItem</text>
<polyline fill="none" stroke="#bfbfbf" points="86,-1560.5 190,-1560.5 "/>
<text text-anchor="middle" x="138" y="-1548.5" font-family="Helvetica,sans-Serif" font-size="10.00" fill="#000000"> </text>
<polyline fill="none" stroke="#bfbfbf" points="86,-1541.5 190,-1541.5 "/>
<text text-anchor="middle" x="138" y="-1529.5" font-family="Helvetica,sans-Serif" font-size="10.00" fill="#000000"> </text>
</a>
</g>
</g>
<!-- Node6&#45;&gt;Node5 -->
<g id="edge5" class="edge">
<title>Node6&#45;&gt;Node5</title>
<path fill="none" stroke="#191970" d="M138,-1512.1903C138,-1503.1667 138,-1493.6233 138,-1484.8097"/>
<polygon fill="none" stroke="#191970" points="134.5001,-1512.4695 138,-1522.4696 141.5001,-1512.4696 134.5001,-1512.4695"/>
</g>
<!-- Node7 -->
<g id="node7" class="node">
<title>Node7</title>
<g id="a_node7"><a xlink:href="classMapTile.html" target="_top" xlink:title=" ">
<polygon fill="#ffffff" stroke="#000000" points="554,-854.5 554,-1043.5 656,-1043.5 656,-854.5 554,-854.5"/>
<text text-anchor="middle" x="605" y="-1031.5" font-family="Helvetica,sans-Serif" font-size="10.00" fill="#000000">MapTile</text>
<polyline fill="none" stroke="#000000" points="554,-1024.5 656,-1024.5 "/>
<text text-anchor="start" x="562" y="-1012.5" font-family="Helvetica,sans-Serif" font-size="10.00" fill="#000000">&#45; type</text>
<text text-anchor="start" x="562" y="-1001.5" font-family="Helvetica,sans-Serif" font-size="10.00" fill="#000000">&#45; pixmapItem</text>
<text text-anchor="start" x="562" y="-990.5" font-family="Helvetica,sans-Serif" font-size="10.00" fill="#000000">&#45; currentRotation</text>
<polyline fill="none" stroke="#000000" points="554,-983.5 656,-983.5 "/>
<text text-anchor="start" x="562" y="-971.5" font-family="Helvetica,sans-Serif" font-size="10.00" fill="#000000">+ MapTile()</text>
<text text-anchor="start" x="562" y="-960.5" font-family="Helvetica,sans-Serif" font-size="10.00" fill="#000000">+ MapTile()</text>
<text text-anchor="start" x="562" y="-949.5" font-family="Helvetica,sans-Serif" font-size="10.00" fill="#000000">+ setType()</text>
<text text-anchor="start" x="562" y="-938.5" font-family="Helvetica,sans-Serif" font-size="10.00" fill="#000000">+ getType()</text>
<text text-anchor="start" x="562" y="-927.5" font-family="Helvetica,sans-Serif" font-size="10.00" fill="#000000">+ setRotation()</text>
<text text-anchor="start" x="562" y="-916.5" font-family="Helvetica,sans-Serif" font-size="10.00" fill="#000000">+ getRotation()</text>
<text text-anchor="start" x="562" y="-905.5" font-family="Helvetica,sans-Serif" font-size="10.00" fill="#000000">+ getRotationDeg()</text>
<text text-anchor="start" x="562" y="-894.5" font-family="Helvetica,sans-Serif" font-size="10.00" fill="#000000">+ setPosition()</text>
<text text-anchor="start" x="562" y="-883.5" font-family="Helvetica,sans-Serif" font-size="10.00" fill="#000000">+ isRiver()</text>
<text text-anchor="start" x="562" y="-872.5" font-family="Helvetica,sans-Serif" font-size="10.00" fill="#000000">+ isRail()</text>
<text text-anchor="start" x="562" y="-861.5" font-family="Helvetica,sans-Serif" font-size="10.00" fill="#000000">und 6 mehr ...</text>
</a>
</g>
</g>
<!-- Node7&#45;&gt;Node3 -->
<g id="edge6" class="edge">
<title>Node7&#45;&gt;Node3</title>
<path fill="none" stroke="#404040" d="M584.7013,-854.2911C574.7068,-821.012 560.3059,-784.5762 540,-755 515.5213,-719.346 505.13,-709.1246 465,-693 414.345,-672.6464 264.5739,-706.5177 220,-675 200.5994,-661.282 186.2962,-641.2339 175.7702,-619.7648"/>
<polygon fill="none" stroke="#404040" points="175.7403,-619.6994 169.6082,-615.905 170.7521,-608.7852 176.8843,-612.5796 175.7403,-619.6994"/>
<text text-anchor="middle" x="552" y="-718" font-family="Helvetica,sans-Serif" font-size="10.00" fill="#000000"> &#45;activeTile</text>
<text text-anchor="middle" x="552" y="-707" font-family="Helvetica,sans-Serif" font-size="10.00" fill="#000000">+data</text>
</g>
<!-- Node14 -->
<g id="node14" class="node">
<title>Node14</title>
<g id="a_node14"><a xlink:href="classMapRenderer.html" target="_top" xlink:title=" ">
<polygon fill="#ffffff" stroke="#000000" points="542.5,-342.5 542.5,-674.5 667.5,-674.5 667.5,-342.5 542.5,-342.5"/>
<text text-anchor="middle" x="605" y="-662.5" font-family="Helvetica,sans-Serif" font-size="10.00" fill="#000000">MapRenderer</text>
<polyline fill="none" stroke="#000000" points="542.5,-655.5 667.5,-655.5 "/>
<text text-anchor="start" x="550.5" y="-643.5" font-family="Helvetica,sans-Serif" font-size="10.00" fill="#000000">&#45; mouseDown</text>
<text text-anchor="start" x="550.5" y="-632.5" font-family="Helvetica,sans-Serif" font-size="10.00" fill="#000000">&#45; showHighlight</text>
<text text-anchor="start" x="550.5" y="-621.5" font-family="Helvetica,sans-Serif" font-size="10.00" fill="#000000">&#45; rendering</text>
<text text-anchor="start" x="550.5" y="-610.5" font-family="Helvetica,sans-Serif" font-size="10.00" fill="#000000">&#45; renderTime</text>
<text text-anchor="start" x="550.5" y="-599.5" font-family="Helvetica,sans-Serif" font-size="10.00" fill="#000000">&#45; scale</text>
<text text-anchor="start" x="550.5" y="-588.5" font-family="Helvetica,sans-Serif" font-size="10.00" fill="#000000">&#45; showExpertDetails</text>
<text text-anchor="start" x="550.5" y="-577.5" font-family="Helvetica,sans-Serif" font-size="10.00" fill="#000000">&#45; movementAnimations</text>
<text text-anchor="start" x="550.5" y="-566.5" font-family="Helvetica,sans-Serif" font-size="10.00" fill="#000000">&#45; lastFpsTake</text>
<text text-anchor="start" x="550.5" y="-555.5" font-family="Helvetica,sans-Serif" font-size="10.00" fill="#000000">&#45; frameCount</text>
<text text-anchor="start" x="550.5" y="-544.5" font-family="Helvetica,sans-Serif" font-size="10.00" fill="#000000">&#45; fps</text>
<polyline fill="none" stroke="#000000" points="542.5,-537.5 667.5,-537.5 "/>
<text text-anchor="start" x="550.5" y="-525.5" font-family="Helvetica,sans-Serif" font-size="10.00" fill="#000000">+ MapRenderer()</text>
<text text-anchor="start" x="550.5" y="-514.5" font-family="Helvetica,sans-Serif" font-size="10.00" fill="#000000">+ paintEvent()</text>
<text text-anchor="start" x="550.5" y="-503.5" font-family="Helvetica,sans-Serif" font-size="10.00" fill="#000000">+ mousePressEvent()</text>
<text text-anchor="start" x="550.5" y="-492.5" font-family="Helvetica,sans-Serif" font-size="10.00" fill="#000000">+ mouseReleaseEvent()</text>
<text text-anchor="start" x="550.5" y="-481.5" font-family="Helvetica,sans-Serif" font-size="10.00" fill="#000000">+ mouseMoveEvent()</text>
<text text-anchor="start" x="550.5" y="-470.5" font-family="Helvetica,sans-Serif" font-size="10.00" fill="#000000">+ wheelEvent()</text>
<text text-anchor="start" x="550.5" y="-459.5" font-family="Helvetica,sans-Serif" font-size="10.00" fill="#000000">+ keyReleaseEvent()</text>
<text text-anchor="start" x="550.5" y="-448.5" font-family="Helvetica,sans-Serif" font-size="10.00" fill="#000000">+ tick()</text>
<text text-anchor="start" x="550.5" y="-437.5" font-family="Helvetica,sans-Serif" font-size="10.00" fill="#000000">+ demo()</text>
<text text-anchor="start" x="550.5" y="-426.5" font-family="Helvetica,sans-Serif" font-size="10.00" fill="#000000">+ mapPosition()</text>
<text text-anchor="start" x="550.5" y="-415.5" font-family="Helvetica,sans-Serif" font-size="10.00" fill="#000000">+ toScreenPosition()</text>
<text text-anchor="start" x="550.5" y="-404.5" font-family="Helvetica,sans-Serif" font-size="10.00" fill="#000000">+ getMinPos()</text>
<text text-anchor="start" x="550.5" y="-393.5" font-family="Helvetica,sans-Serif" font-size="10.00" fill="#000000">+ getMaxPos()</text>
<text text-anchor="start" x="550.5" y="-382.5" font-family="Helvetica,sans-Serif" font-size="10.00" fill="#000000">+ animateMovement()</text>
<text text-anchor="start" x="550.5" y="-371.5" font-family="Helvetica,sans-Serif" font-size="10.00" fill="#000000">+ animateMovement()</text>
<text text-anchor="start" x="550.5" y="-360.5" font-family="Helvetica,sans-Serif" font-size="10.00" fill="#000000">+ onTileChange()</text>
<text text-anchor="start" x="550.5" y="-349.5" font-family="Helvetica,sans-Serif" font-size="10.00" fill="#000000">+ enableHighlight()</text>
</a>
</g>
</g>
<!-- Node7&#45;&gt;Node14 -->
<g id="edge20" class="edge">
<title>Node7&#45;&gt;Node14</title>
<path fill="none" stroke="#404040" d="M605,-854.2312C605,-805.365 605,-744.1322 605,-686.8303"/>
<polygon fill="none" stroke="#404040" points="605.0001,-686.6682 601,-680.6682 605,-674.6682 609,-680.6681 605.0001,-686.6682"/>
<text text-anchor="middle" x="620" y="-712.5" font-family="Helvetica,sans-Serif" font-size="10.00" fill="#000000"> +data</text>
</g>
<!-- Node8 -->
<g id="node8" class="node">
<title>Node8</title>
<g id="a_node8"><a xlink:href="classGraphicsManager.html" target="_top" xlink:title=" ">
<polygon fill="#ffffff" stroke="#000000" points="535.5,-1245.5 535.5,-1313.5 648.5,-1313.5 648.5,-1245.5 535.5,-1245.5"/>
<text text-anchor="middle" x="592" y="-1301.5" font-family="Helvetica,sans-Serif" font-size="10.00" fill="#000000">GraphicsManager</text>
<polyline fill="none" stroke="#000000" points="535.5,-1294.5 648.5,-1294.5 "/>
<text text-anchor="start" x="543.5" y="-1282.5" font-family="Helvetica,sans-Serif" font-size="10.00" fill="#000000">+ GRAPHICS</text>
<polyline fill="none" stroke="#000000" points="535.5,-1275.5 648.5,-1275.5 "/>
<text text-anchor="start" x="543.5" y="-1263.5" font-family="Helvetica,sans-Serif" font-size="10.00" fill="#000000">+ GraphicsManager()</text>
<text text-anchor="start" x="543.5" y="-1252.5" font-family="Helvetica,sans-Serif" font-size="10.00" fill="#000000">+ get()</text>
</a>
</g>
</g>
<!-- Node8&#45;&gt;Node3 -->
<g id="edge9" class="edge">
<title>Node8&#45;&gt;Node3</title>
<path fill="none" stroke="#404040" d="M544.6155,-1245.2885C514.5349,-1220.6031 477.9965,-1184.4231 460,-1143 440.0503,-1097.0812 471.8361,-728.958 437,-693 403.3311,-658.2468 259.3768,-703.1221 220,-675 200.6642,-661.1908 186.3877,-641.105 175.8671,-619.6284"/>
<polygon fill="none" stroke="#404040" points="175.8369,-619.5622 169.7052,-615.7671 170.8501,-608.6474 176.9817,-612.4425 175.8369,-619.5622"/>
<text text-anchor="middle" x="502.5" y="-946.5" font-family="Helvetica,sans-Serif" font-size="10.00" fill="#000000"> &#45;graphicsManager</text>
</g>
<!-- Node8&#45;&gt;Node7 -->
<g id="edge7" class="edge">
<title>Node8&#45;&gt;Node7</title>
<path fill="none" stroke="#404040" d="M591.8537,-1245.2662C591.8592,-1221.5944 592.0777,-1189.3767 593,-1161 594.1119,-1126.7903 595.9958,-1089.5086 597.9453,-1055.8832"/>
<polygon fill="none" stroke="#404040" points="597.9589,-1055.6521 594.319,-1049.427 598.6653,-1043.6729 602.3052,-1049.8979 597.9589,-1055.6521"/>
<text text-anchor="middle" x="635.5" y="-1164" font-family="Helvetica,sans-Serif" font-size="10.00" fill="#000000"> &#45;graphicsManager</text>
</g>
<!-- Node8&#45;&gt;Node14 -->
<g id="edge21" class="edge">
<title>Node8&#45;&gt;Node14</title>
<path fill="none" stroke="#404040" d="M629.6388,-1245.0647C648.0359,-1225.6405 668.2692,-1199.7405 678,-1172 679.6183,-1167.3867 678.0782,-1165.8883 678,-1161 675.1107,-980.4862 689.3677,-933.8849 665,-755 661.9625,-732.7019 657.7475,-709.4854 652.9459,-686.6053"/>
<polygon fill="none" stroke="#404040" points="652.9041,-686.4103 647.7336,-681.3839 650.3847,-674.6778 655.5553,-679.7043 652.9041,-686.4103"/>
<text text-anchor="middle" x="721.5" y="-946.5" font-family="Helvetica,sans-Serif" font-size="10.00" fill="#000000"> &#45;graphicsManager</text>
</g>
<!-- Node9 -->
<g id="node9" class="node">
<title>Node9</title>
<g id="a_node9"><a xlink:href="classCity.html" target="_top" xlink:title=" ">
<polygon fill="#ffffff" stroke="#000000" points="683.5,-1190.5 683.5,-1368.5 766.5,-1368.5 766.5,-1190.5 683.5,-1190.5"/>
<text text-anchor="middle" x="725" y="-1356.5" font-family="Helvetica,sans-Serif" font-size="10.00" fill="#000000">City</text>
<polyline fill="none" stroke="#000000" points="683.5,-1349.5 766.5,-1349.5 "/>
<text text-anchor="start" x="691.5" y="-1337.5" font-family="Helvetica,sans-Serif" font-size="10.00" fill="#000000">&#45; size</text>
<text text-anchor="start" x="691.5" y="-1326.5" font-family="Helvetica,sans-Serif" font-size="10.00" fill="#000000">&#45; centerX</text>
<text text-anchor="start" x="691.5" y="-1315.5" font-family="Helvetica,sans-Serif" font-size="10.00" fill="#000000">&#45; centerY</text>
<text text-anchor="start" x="691.5" y="-1304.5" font-family="Helvetica,sans-Serif" font-size="10.00" fill="#000000">&#45; name</text>
<polyline fill="none" stroke="#000000" points="683.5,-1297.5 766.5,-1297.5 "/>
<text text-anchor="start" x="691.5" y="-1285.5" font-family="Helvetica,sans-Serif" font-size="10.00" fill="#000000">+ City()</text>
<text text-anchor="start" x="691.5" y="-1274.5" font-family="Helvetica,sans-Serif" font-size="10.00" fill="#000000">+ City()</text>
<text text-anchor="start" x="691.5" y="-1263.5" font-family="Helvetica,sans-Serif" font-size="10.00" fill="#000000">+ getSize()</text>
<text text-anchor="start" x="691.5" y="-1252.5" font-family="Helvetica,sans-Serif" font-size="10.00" fill="#000000">+ getCenterX()</text>
<text text-anchor="start" x="691.5" y="-1241.5" font-family="Helvetica,sans-Serif" font-size="10.00" fill="#000000">+ getCenterY()</text>
<text text-anchor="start" x="691.5" y="-1230.5" font-family="Helvetica,sans-Serif" font-size="10.00" fill="#000000">+ getName()</text>
<text text-anchor="start" x="691.5" y="-1219.5" font-family="Helvetica,sans-Serif" font-size="10.00" fill="#000000">+ setSize()</text>
<text text-anchor="start" x="691.5" y="-1208.5" font-family="Helvetica,sans-Serif" font-size="10.00" fill="#000000">+ setCenter()</text>
<text text-anchor="start" x="691.5" y="-1197.5" font-family="Helvetica,sans-Serif" font-size="10.00" fill="#000000">+ setName()</text>
</a>
</g>
</g>
<!-- Node9&#45;&gt;Node7 -->
<g id="edge8" class="edge">
<title>Node9&#45;&gt;Node7</title>
<path fill="none" stroke="#404040" d="M695.2248,-1190.1875C691.1198,-1180.192 686.6899,-1170.2776 682,-1161 677.6623,-1152.4193 674.231,-1151.6339 670,-1143 656.477,-1115.4043 644.6704,-1084.3036 634.9647,-1055.2188"/>
<polygon fill="none" stroke="#404040" points="634.9456,-1055.16 629.2772,-1050.7026 631.2116,-1043.7558 636.88,-1048.2132 634.9456,-1055.16"/>
<text text-anchor="middle" x="697" y="-1164" font-family="Helvetica,sans-Serif" font-size="10.00" fill="#000000"> &#45;city</text>
</g>
<!-- Node10&#45;&gt;Node3 -->
<g id="edge10" class="edge">
<title>Node10&#45;&gt;Node3</title>
<path fill="none" stroke="#404040" d="M188.7423,-1239.939C182.2588,-1126.33 163.4092,-796.0332 153.4073,-620.773"/>
<polygon fill="none" stroke="#404040" points="153.4012,-620.6653 149.0658,-614.903 152.7174,-608.6848 157.0528,-614.4471 153.4012,-620.6653"/>
<text text-anchor="middle" x="218" y="-946.5" font-family="Helvetica,sans-Serif" font-size="10.00" fill="#000000"> &#45;secondPlayer</text>
</g>
<!-- Node11 -->
<g id="node11" class="node">
<title>Node11</title>
<g id="a_node11"><a xlink:href="classDataModel.html" target="_top" xlink:title=" ">
<polygon fill="#ffffff" stroke="#000000" points="277.5,-755.5 277.5,-1142.5 414.5,-1142.5 414.5,-755.5 277.5,-755.5"/>
<text text-anchor="middle" x="346" y="-1130.5" font-family="Helvetica,sans-Serif" font-size="10.00" fill="#000000">DataModel</text>
<polyline fill="none" stroke="#000000" points="277.5,-1123.5 414.5,-1123.5 "/>
<text text-anchor="start" x="285.5" y="-1111.5" font-family="Helvetica,sans-Serif" font-size="10.00" fill="#000000">&#45; balance</text>
<text text-anchor="start" x="285.5" y="-1100.5" font-family="Helvetica,sans-Serif" font-size="10.00" fill="#000000">&#45; time</text>
<text text-anchor="start" x="285.5" y="-1089.5" font-family="Helvetica,sans-Serif" font-size="10.00" fill="#000000">&#45; coordinateX</text>
<text text-anchor="start" x="285.5" y="-1078.5" font-family="Helvetica,sans-Serif" font-size="10.00" fill="#000000">&#45; coordinateY</text>
<text text-anchor="start" x="285.5" y="-1067.5" font-family="Helvetica,sans-Serif" font-size="10.00" fill="#000000">&#45; mapLoaded</text>
<text text-anchor="start" x="285.5" y="-1056.5" font-family="Helvetica,sans-Serif" font-size="10.00" fill="#000000">&#45; ip</text>
<text text-anchor="start" x="285.5" y="-1045.5" font-family="Helvetica,sans-Serif" font-size="10.00" fill="#000000">&#45; port</text>
<text text-anchor="start" x="285.5" y="-1034.5" font-family="Helvetica,sans-Serif" font-size="10.00" fill="#000000">&#45; balanceLabel</text>
<text text-anchor="start" x="285.5" y="-1023.5" font-family="Helvetica,sans-Serif" font-size="10.00" fill="#000000">&#45; timeLabel</text>
<text text-anchor="start" x="285.5" y="-1012.5" font-family="Helvetica,sans-Serif" font-size="10.00" fill="#000000">&#45; positionLabel</text>
<text text-anchor="start" x="285.5" y="-1001.5" font-family="Helvetica,sans-Serif" font-size="10.00" fill="#000000">&#45; statusDisplay</text>
<text text-anchor="start" x="285.5" y="-990.5" font-family="Helvetica,sans-Serif" font-size="10.00" fill="#000000">&#45; connectionLabel</text>
<text text-anchor="start" x="285.5" y="-979.5" font-family="Helvetica,sans-Serif" font-size="10.00" fill="#000000">&#45; mode</text>
<polyline fill="none" stroke="#000000" points="277.5,-972.5 414.5,-972.5 "/>
<text text-anchor="start" x="285.5" y="-960.5" font-family="Helvetica,sans-Serif" font-size="10.00" fill="#000000">+ DataModel()</text>
<text text-anchor="start" x="285.5" y="-949.5" font-family="Helvetica,sans-Serif" font-size="10.00" fill="#000000">+ getBalance()</text>
<text text-anchor="start" x="285.5" y="-938.5" font-family="Helvetica,sans-Serif" font-size="10.00" fill="#000000">+ updateBalance()</text>
<text text-anchor="start" x="285.5" y="-927.5" font-family="Helvetica,sans-Serif" font-size="10.00" fill="#000000">+ takeBalance()</text>
<text text-anchor="start" x="285.5" y="-916.5" font-family="Helvetica,sans-Serif" font-size="10.00" fill="#000000">+ timeTick()</text>
<text text-anchor="start" x="285.5" y="-905.5" font-family="Helvetica,sans-Serif" font-size="10.00" fill="#000000">+ getTime()</text>
<text text-anchor="start" x="285.5" y="-894.5" font-family="Helvetica,sans-Serif" font-size="10.00" fill="#000000">+ setTime()</text>
<text text-anchor="start" x="285.5" y="-883.5" font-family="Helvetica,sans-Serif" font-size="10.00" fill="#000000">+ getSystemMillis()</text>
<text text-anchor="start" x="285.5" y="-872.5" font-family="Helvetica,sans-Serif" font-size="10.00" fill="#000000">+ updateCoordinates()</text>
<text text-anchor="start" x="285.5" y="-861.5" font-family="Helvetica,sans-Serif" font-size="10.00" fill="#000000">+ getHoverX()</text>
<text text-anchor="start" x="285.5" y="-850.5" font-family="Helvetica,sans-Serif" font-size="10.00" fill="#000000">und 12 mehr ...</text>
<text text-anchor="start" x="285.5" y="-839.5" font-family="Helvetica,sans-Serif" font-size="10.00" fill="#000000">+ setDefaultMode()</text>
<text text-anchor="start" x="285.5" y="-828.5" font-family="Helvetica,sans-Serif" font-size="10.00" fill="#000000">+ setTrainStationMode()</text>
<text text-anchor="start" x="285.5" y="-817.5" font-family="Helvetica,sans-Serif" font-size="10.00" fill="#000000">+ setDepotMode()</text>
<text text-anchor="start" x="285.5" y="-806.5" font-family="Helvetica,sans-Serif" font-size="10.00" fill="#000000">+ setTerminalMode()</text>
<text text-anchor="start" x="285.5" y="-795.5" font-family="Helvetica,sans-Serif" font-size="10.00" fill="#000000">+ setBridgeMode()</text>
<text text-anchor="start" x="285.5" y="-784.5" font-family="Helvetica,sans-Serif" font-size="10.00" fill="#000000">+ setRailPlacementMode()</text>
<text text-anchor="start" x="285.5" y="-773.5" font-family="Helvetica,sans-Serif" font-size="10.00" fill="#000000">+ setRemoveMode()</text>
<text text-anchor="start" x="285.5" y="-762.5" font-family="Helvetica,sans-Serif" font-size="10.00" fill="#000000">+ setMapLoaded()</text>
</a>
</g>
</g>
<!-- Node10&#45;&gt;Node11 -->
<g id="edge14" class="edge">
<title>Node10&#45;&gt;Node11</title>
<path fill="none" stroke="#404040" d="M212.9707,-1239.915C227.6958,-1212.8966 247.2054,-1176.1338 263,-1143 266.08,-1136.5387 269.1734,-1129.9336 272.2602,-1123.2442"/>
<polygon fill="none" stroke="#404040" points="272.4503,-1122.8287 271.3107,-1115.7082 277.4451,-1111.9176 278.5848,-1119.0381 272.4503,-1122.8287"/>
<text text-anchor="middle" x="290.5" y="-1164" font-family="Helvetica,sans-Serif" font-size="10.00" fill="#000000"> +secondPlayer</text>
</g>
<!-- Node11&#45;&gt;Node1 -->
<g id="edge26" class="edge">
<title>Node11&#45;&gt;Node1</title>
<path fill="none" stroke="#404040" d="M382.6281,-755.2869C386.5081,-728.4067 389.8263,-701.0771 392,-675 397.0583,-614.319 407.2922,-184.4107 387,-127 382.3319,-113.7931 374.8241,-101.0004 366.4912,-89.4722"/>
<polygon fill="none" stroke="#404040" points="366.2977,-89.2192 359.4751,-86.8841 359.0065,-79.6882 365.8291,-82.0233 366.2977,-89.2192"/>
<text text-anchor="middle" x="425.5" y="-316" font-family="Helvetica,sans-Serif" font-size="10.00" fill="#000000"> &#45;dataModel</text>
</g>
<!-- Node11&#45;&gt;Node3 -->
<g id="edge12" class="edge">
<title>Node11&#45;&gt;Node3</title>
<path fill="none" stroke="#404040" d="M277.4183,-785.7792C272.6377,-775.3182 267.8075,-764.9846 263,-755 245.4882,-718.6301 237.674,-711.2913 220,-675 211.3764,-657.2925 202.6194,-638.3245 194.3064,-619.7628"/>
<polygon fill="none" stroke="#404040" points="194.2107,-619.5476 188.1164,-615.6927 189.3309,-608.5845 195.4251,-612.4394 194.2107,-619.5476"/>
<text text-anchor="middle" x="281.5" y="-712.5" font-family="Helvetica,sans-Serif" font-size="10.00" fill="#000000"> &#45;dataModel</text>
</g>
<!-- Node11&#45;&gt;Node13 -->
<g id="edge24" class="edge">
<title>Node11&#45;&gt;Node13</title>
<path fill="none" stroke="#404040" d="M337.7036,-755.4777C337.4623,-749.246 337.2271,-743.0741 337,-737 331.3854,-586.8176 325.9676,-412.4728 322.8116,-307.0174"/>
<polygon fill="none" stroke="#404040" points="322.8056,-306.8156 318.6283,-300.9377 322.4475,-294.821 326.6248,-300.6989 322.8056,-306.8156"/>
<text text-anchor="middle" x="361.5" y="-506" font-family="Helvetica,sans-Serif" font-size="10.00" fill="#000000"> &#45;dataModel</text>
</g>
<!-- Node11&#45;&gt;Node14 -->
<g id="edge23" class="edge">
<title>Node11&#45;&gt;Node14</title>
<path fill="none" stroke="#404040" d="M399.1846,-755.4807C408.1394,-733.7695 418.3748,-712.4813 430,-693 457.4252,-647.0415 498.1187,-603.237 533.3644,-569.8522"/>
<polygon fill="none" stroke="#404040" points="533.4311,-569.7899 535.0819,-562.7702 542.1965,-561.5941 540.5457,-568.6138 533.4311,-569.7899"/>
<text text-anchor="middle" x="457.5" y="-712.5" font-family="Helvetica,sans-Serif" font-size="10.00" fill="#000000"> &#45;dataModel</text>
</g>
<!-- Node12 -->
<g id="node12" class="node">
<title>Node12</title>
<g id="a_node12"><a xlink:title=" ">
<polygon fill="#ffffff" stroke="#bfbfbf" points="319.5,-1251 319.5,-1308 372.5,-1308 372.5,-1251 319.5,-1251"/>
<text text-anchor="middle" x="346" y="-1296" font-family="Helvetica,sans-Serif" font-size="10.00" fill="#000000">QObject</text>
<polyline fill="none" stroke="#bfbfbf" points="319.5,-1289 372.5,-1289 "/>
<text text-anchor="middle" x="346" y="-1277" font-family="Helvetica,sans-Serif" font-size="10.00" fill="#000000"> </text>
<polyline fill="none" stroke="#bfbfbf" points="319.5,-1270 372.5,-1270 "/>
<text text-anchor="middle" x="346" y="-1258" font-family="Helvetica,sans-Serif" font-size="10.00" fill="#000000"> </text>
</a>
</g>
</g>
<!-- Node12&#45;&gt;Node11 -->
<g id="edge13" class="edge">
<title>Node12&#45;&gt;Node11</title>
<path fill="none" stroke="#191970" d="M346,-1240.5022C346,-1215.1384 346,-1179.9574 346,-1142.7899"/>
<polygon fill="none" stroke="#191970" points="342.5001,-1240.7484 346,-1250.7485 349.5001,-1240.7485 342.5001,-1240.7484"/>
</g>
<!-- Node13&#45;&gt;Node1 -->
<g id="edge15" class="edge">
<title>Node13&#45;&gt;Node1</title>
<path fill="none" stroke="#404040" d="M320,-127.2533C320,-115.2026 320,-103.1055 320,-91.92"/>
<polygon fill="none" stroke="#404040" points="320.0001,-91.7296 316,-85.7296 320,-79.7296 324,-85.7296 320.0001,-91.7296"/>
<text text-anchor="middle" x="335" y="-101" font-family="Helvetica,sans-Serif" font-size="10.00" fill="#000000"> &#45;client</text>
</g>
<!-- Node14&#45;&gt;Node1 -->
<g id="edge25" class="edge">
<title>Node14&#45;&gt;Node1</title>
<path fill="none" stroke="#404040" d="M560.933,-342.3563C532.1218,-260.2852 487.1025,-164.8004 420,-98 406.3487,-84.4102 388.8778,-72.858 372.37,-63.7257"/>
<polygon fill="none" stroke="#404040" points="372.314,-63.696 365.1393,-64.4208 361.7109,-58.0768 368.8855,-57.3521 372.314,-63.696"/>
<text text-anchor="middle" x="555" y="-208.5" font-family="Helvetica,sans-Serif" font-size="10.00" fill="#000000"> &#45;view</text>
</g>
<!-- Node14&#45;&gt;Node13 -->
<g id="edge18" class="edge">
<title>Node14&#45;&gt;Node13</title>
<path fill="none" stroke="#404040" d="M542.4704,-407.6749C520.1196,-375.5857 493.3833,-341.1452 465,-313 442.0404,-290.2329 413.5062,-268.9746 387.8391,-251.8207"/>
<polygon fill="none" stroke="#404040" points="387.8157,-251.8054 380.6048,-251.8512 377.789,-245.2125 385,-245.1667 387.8157,-251.8054"/>
<text text-anchor="middle" x="508" y="-316" font-family="Helvetica,sans-Serif" font-size="10.00" fill="#000000"> &#45;mapRenderer</text>
</g>
<!-- Node15 -->
<g id="node15" class="node">
<title>Node15</title>
<g id="a_node15"><a xlink:title=" ">
<polygon fill="#ffffff" stroke="#bfbfbf" points="871,-920.5 871,-977.5 927,-977.5 927,-920.5 871,-920.5"/>
<text text-anchor="middle" x="899" y="-965.5" font-family="Helvetica,sans-Serif" font-size="10.00" fill="#000000">QWidget</text>
<polyline fill="none" stroke="#bfbfbf" points="871,-958.5 927,-958.5 "/>
<text text-anchor="middle" x="899" y="-946.5" font-family="Helvetica,sans-Serif" font-size="10.00" fill="#000000"> </text>
<polyline fill="none" stroke="#bfbfbf" points="871,-939.5 927,-939.5 "/>
<text text-anchor="middle" x="899" y="-927.5" font-family="Helvetica,sans-Serif" font-size="10.00" fill="#000000"> </text>
</a>
</g>
</g>
<!-- Node15&#45;&gt;Node14 -->
<g id="edge19" class="edge">
<title>Node15&#45;&gt;Node14</title>
<path fill="none" stroke="#191970" d="M898.5754,-909.9142C896.0771,-855.8624 884.4315,-757.6576 835,-693 788.675,-632.4058 718.3603,-579.8457 667.6745,-546.4945"/>
<polygon fill="none" stroke="#191970" points="895.0856,-910.2525 898.9616,-920.1129 902.0806,-909.9876 895.0856,-910.2525"/>
</g>
<!-- Node16 -->
<g id="node16" class="node">
<title>Node16</title>
<g id="a_node16"><a xlink:href="classPoint.html" target="_top" xlink:title=" ">
<polygon fill="#ffffff" stroke="#000000" points="795,-882 795,-1016 853,-1016 853,-882 795,-882"/>
<text text-anchor="middle" x="824" y="-1004" font-family="Helvetica,sans-Serif" font-size="10.00" fill="#000000">Point</text>
<polyline fill="none" stroke="#000000" points="795,-997 853,-997 "/>
<text text-anchor="start" x="803" y="-985" font-family="Helvetica,sans-Serif" font-size="10.00" fill="#000000">&#45; x</text>
<text text-anchor="start" x="803" y="-974" font-family="Helvetica,sans-Serif" font-size="10.00" fill="#000000">&#45; y</text>
<polyline fill="none" stroke="#000000" points="795,-967 853,-967 "/>
<text text-anchor="start" x="803" y="-955" font-family="Helvetica,sans-Serif" font-size="10.00" fill="#000000">+ Point()</text>
<text text-anchor="start" x="803" y="-944" font-family="Helvetica,sans-Serif" font-size="10.00" fill="#000000">+ getX()</text>
<text text-anchor="start" x="803" y="-933" font-family="Helvetica,sans-Serif" font-size="10.00" fill="#000000">+ getY()</text>
<text text-anchor="start" x="803" y="-922" font-family="Helvetica,sans-Serif" font-size="10.00" fill="#000000">+ add()</text>
<text text-anchor="start" x="803" y="-911" font-family="Helvetica,sans-Serif" font-size="10.00" fill="#000000">+ set()</text>
<text text-anchor="start" x="803" y="-900" font-family="Helvetica,sans-Serif" font-size="10.00" fill="#000000">+ move()</text>
<text text-anchor="start" x="803" y="-889" font-family="Helvetica,sans-Serif" font-size="10.00" fill="#000000">+ toTile()</text>
</a>
</g>
</g>
<!-- Node16&#45;&gt;Node14 -->
<g id="edge22" class="edge">
<title>Node16&#45;&gt;Node14</title>
<path fill="none" stroke="#404040" d="M815.9032,-881.8014C809.6349,-843.4572 798.8988,-795.1784 781,-755 754.3307,-695.1339 711.9127,-635.1327 675.4021,-589.3179"/>
<polygon fill="none" stroke="#404040" points="675.234,-589.1091 668.3556,-586.944 667.7085,-579.762 674.587,-581.927 675.234,-589.1091"/>
<text text-anchor="middle" x="800.5" y="-729" font-family="Helvetica,sans-Serif" font-size="10.00" fill="#000000"> &#45;activeTile</text>
<text text-anchor="middle" x="800.5" y="-718" font-family="Helvetica,sans-Serif" font-size="10.00" fill="#000000">&#45;dragOrigin</text>
<text text-anchor="middle" x="800.5" y="-707" font-family="Helvetica,sans-Serif" font-size="10.00" fill="#000000">+offset</text>
<text text-anchor="middle" x="800.5" y="-696" font-family="Helvetica,sans-Serif" font-size="10.00" fill="#000000">&#45;dragPosition</text>
</g>
</g>
</svg>
        <g id="navigator" transform="translate(0 0)" fill="#404254">
                <rect fill="#f2f5e9" fill-opacity="0.5" stroke="#606060" stroke-width=".5" x="0" y="0" width="60" height="60"/>
                <use id="zoomplus" xlink:href="#zoomPlus" x="17" y="9" onmousedown="handleZoom(evt,'in')"/>
                <use id="zoomminus" xlink:href="#zoomMin" x="42" y="9" onmousedown="handleZoom(evt,'out')"/>
                <use id="reset" xlink:href="#resetDef" x="30" y="36" onmousedown="handleReset()"/>
                <g id="arrowUp" xlink:href="#dirArrow" transform="translate(30 24)" onmousedown="handlePan(0,-1)">
                  <use xlink:href="#rim" fill="#404040">
                        <set attributeName="fill" to="#808080" begin="arrowUp.mouseover" end="arrowUp.mouseout"/>
                  </use>
                  <path fill="none" stroke="white" stroke-width="1.5" d="M0,-3.0v7 M-2.5,-0.5L0,-3.0L2.5,-0.5"/>
                </g>
                <g id="arrowRight" xlink:href="#dirArrow" transform="rotate(90) translate(36 -43)" onmousedown="handlePan(1,0)">
                  <use xlink:href="#rim" fill="#404040">
                        <set attributeName="fill" to="#808080" begin="arrowRight.mouseover" end="arrowRight.mouseout"/>
                  </use>
                  <path fill="none" stroke="white" stroke-width="1.5" d="M0,-3.0v7 M-2.5,-0.5L0,-3.0L2.5,-0.5"/>
                </g>
                <g id="arrowDown" xlink:href="#dirArrow" transform="rotate(180) translate(-30 -48)" onmousedown="handlePan(0,1)">
                  <use xlink:href="#rim" fill="#404040">
                        <set attributeName="fill" to="#808080" begin="arrowDown.mouseover" end="arrowDown.mouseout"/>
                  </use>
                  <path fill="none" stroke="white" stroke-width="1.5" d="M0,-3.0v7 M-2.5,-0.5L0,-3.0L2.5,-0.5"/>
                </g>
                <g id="arrowLeft" xlink:href="#dirArrow" transform="rotate(270) translate(-36 17)" onmousedown="handlePan(-1,0)">
                  <use xlink:href="#rim" fill="#404040">
                        <set attributeName="fill" to="#808080" begin="arrowLeft.mouseover" end="arrowLeft.mouseout"/>
                  </use>
                  <path fill="none" stroke="white" stroke-width="1.5" d="M0,-3.0v7 M-2.5,-0.5L0,-3.0L2.5,-0.5"/>
                </g>
        </g>
        <svg viewBox="0 0 15 15" width="100%" height="30px" preserveAspectRatio="xMaxYMin meet">
         <g id="arrow_out" transform="scale(0.3 0.3)">
          <a xlink:href="classGameLoop__coll__graph_org.svg" target="_base">
           <rect id="button" ry="5" rx="5" y="6" x="6" height="38" width="38"
                fill="#f2f5e9" fill-opacity="0.5" stroke="#606060" stroke-width="1.0"/>
           <path id="arrow"
             d="M 11.500037,31.436501 C 11.940474,20.09759 22.043105,11.32322 32.158766,21.979434 L 37.068811,17.246167 C 37.068811,17.246167 37.088388,32 37.088388,32 L 22.160133,31.978069 C 22.160133,31.978069 26.997745,27.140456 26.997745,27.140456 C 18.528582,18.264221 13.291696,25.230495 11.500037,31.436501 z"
             style="fill:#404040;"/>
          </a>
         </g>
        </svg>
</svg>
