<?xml version="1.0" encoding="UTF-8" standalone="no"?>
<!DOCTYPE svg PUBLIC "-//W3C//DTD SVG 1.1//EN"
 "http://www.w3.org/Graphics/SVG/1.1/DTD/svg11.dtd">
<!-- Generated by graphviz version 2.40.1 (20161225.0304)
 -->
<!-- Title: Minimap Pages: 1 -->
<svg width="723pt" height="1494pt"
 viewBox="0.00 0.00 723.00 1494.00" xmlns="http://www.w3.org/2000/svg" xmlns:xlink="http://www.w3.org/1999/xlink">
<g id="graph0" class="graph" transform="scale(1 1) rotate(0) translate(4 1490)">
<title>Minimap</title>
<polygon fill="#ffffff" stroke="transparent" points="-4,4 -4,-1490 719,-1490 719,4 -4,4"/>
<!-- Node1 -->
<g id="node1" class="node">
<title>Node1</title>
<g id="a_node1"><a xlink:title=" ">
<polygon fill="#bfbfbf" stroke="#000000" points="56.5,-.5 56.5,-211.5 181.5,-211.5 181.5,-.5 56.5,-.5"/>
<text text-anchor="middle" x="119" y="-199.5" font-family="Helvetica,sans-Serif" font-size="10.00" fill="#000000">Minimap</text>
<polyline fill="none" stroke="#000000" points="56.5,-192.5 181.5,-192.5 "/>
<text text-anchor="start" x="64.5" y="-180.5" font-family="Helvetica,sans-Serif" font-size="10.00" fill="#000000">&#45; width</text>
<text text-anchor="start" x="64.5" y="-169.5" font-family="Helvetica,sans-Serif" font-size="10.00" fill="#000000">&#45; height</text>
<text text-anchor="start" x="64.5" y="-158.5" font-family="Helvetica,sans-Serif" font-size="10.00" fill="#000000">&#45; mouseDown</text>
<text text-anchor="start" x="64.5" y="-147.5" font-family="Helvetica,sans-Serif" font-size="10.00" fill="#000000">&#45; renderCoordinates</text>
<text text-anchor="start" x="64.5" y="-136.5" font-family="Helvetica,sans-Serif" font-size="10.00" fill="#000000">&#45; location</text>
<text text-anchor="start" x="64.5" y="-125.5" font-family="Helvetica,sans-Serif" font-size="10.00" fill="#000000">&#45; compass</text>
<text text-anchor="start" x="64.5" y="-114.5" font-family="Helvetica,sans-Serif" font-size="10.00" fill="#000000">&#45; location_white</text>
<text text-anchor="start" x="64.5" y="-103.5" font-family="Helvetica,sans-Serif" font-size="10.00" fill="#000000">&#45; mapOverlay</text>
<text text-anchor="start" x="64.5" y="-92.5" font-family="Helvetica,sans-Serif" font-size="10.00" fill="#000000">&#45; map</text>
<polyline fill="none" stroke="#000000" points="56.5,-85.5 181.5,-85.5 "/>
<text text-anchor="start" x="64.5" y="-73.5" font-family="Helvetica,sans-Serif" font-size="10.00" fill="#000000">+ Minimap()</text>
<text text-anchor="start" x="64.5" y="-62.5" font-family="Helvetica,sans-Serif" font-size="10.00" fill="#000000">+ paintEvent()</text>
<text text-anchor="start" x="64.5" y="-51.5" font-family="Helvetica,sans-Serif" font-size="10.00" fill="#000000">+ mouseReleaseEvent()</text>
<text text-anchor="start" x="64.5" y="-40.5" font-family="Helvetica,sans-Serif" font-size="10.00" fill="#000000">+ mousePressEvent()</text>
<text text-anchor="start" x="64.5" y="-29.5" font-family="Helvetica,sans-Serif" font-size="10.00" fill="#000000">+ mouseMoveEvent()</text>
<text text-anchor="start" x="64.5" y="-18.5" font-family="Helvetica,sans-Serif" font-size="10.00" fill="#000000">+ viewChange()</text>
<text text-anchor="start" x="64.5" y="-7.5" font-family="Helvetica,sans-Serif" font-size="10.00" fill="#000000">&#45; renderMap()</text>
</a>
</g>
</g>
<!-- Node2 -->
<g id="node2" class="node">
<title>Node2</title>
<g id="a_node2"><a xlink:title=" ">
<polygon fill="#ffffff" stroke="#bfbfbf" points="0,-826.5 0,-883.5 56,-883.5 56,-826.5 0,-826.5"/>
<text text-anchor="middle" x="28" y="-871.5" font-family="Helvetica,sans-Serif" font-size="10.00" fill="#000000">QWidget</text>
<polyline fill="none" stroke="#bfbfbf" points="0,-864.5 56,-864.5 "/>
<text text-anchor="middle" x="28" y="-852.5" font-family="Helvetica,sans-Serif" font-size="10.00" fill="#000000"> </text>
<polyline fill="none" stroke="#bfbfbf" points="0,-845.5 56,-845.5 "/>
<text text-anchor="middle" x="28" y="-833.5" font-family="Helvetica,sans-Serif" font-size="10.00" fill="#000000"> </text>
</a>
</g>
</g>
<!-- Node2&#45;&gt;Node1 -->
<g id="edge1" class="edge">
<title>Node2&#45;&gt;Node1</title>
<path fill="none" stroke="#191970" d="M27.5417,-816.4009C27.093,-720.9239 30.0808,-466.4027 70,-259 72.9784,-243.5253 77.029,-227.4287 81.5333,-211.7384"/>
<polygon fill="none" stroke="#191970" points="24.042,-816.4792 27.6049,-826.457 31.0419,-816.4352 24.042,-816.4792"/>
</g>
<!-- Node3 -->
<g id="node3" class="node">
<title>Node3</title>
<g id="a_node3"><a xlink:href="classMapRenderer.html" target="_top" xlink:title=" ">
<polygon fill="#ffffff" stroke="#000000" points="158.5,-259.5 158.5,-580.5 283.5,-580.5 283.5,-259.5 158.5,-259.5"/>
<text text-anchor="middle" x="221" y="-568.5" font-family="Helvetica,sans-Serif" font-size="10.00" fill="#000000">MapRenderer</text>
<polyline fill="none" stroke="#000000" points="158.5,-561.5 283.5,-561.5 "/>
<text text-anchor="start" x="166.5" y="-549.5" font-family="Helvetica,sans-Serif" font-size="10.00" fill="#000000">+ codeCount</text>
<text text-anchor="start" x="166.5" y="-538.5" font-family="Helvetica,sans-Serif" font-size="10.00" fill="#000000">&#45; mouseDown</text>
<text text-anchor="start" x="166.5" y="-527.5" font-family="Helvetica,sans-Serif" font-size="10.00" fill="#000000">&#45; offsetTargetX</text>
<text text-anchor="start" x="166.5" y="-516.5" font-family="Helvetica,sans-Serif" font-size="10.00" fill="#000000">&#45; offsetTargetY</text>
<text text-anchor="start" x="166.5" y="-505.5" font-family="Helvetica,sans-Serif" font-size="10.00" fill="#000000">&#45; showHighlight</text>
<text text-anchor="start" x="166.5" y="-494.5" font-family="Helvetica,sans-Serif" font-size="10.00" fill="#000000">&#45; rendering</text>
<text text-anchor="start" x="166.5" y="-483.5" font-family="Helvetica,sans-Serif" font-size="10.00" fill="#000000">&#45; renderTime</text>
<text text-anchor="start" x="166.5" y="-472.5" font-family="Helvetica,sans-Serif" font-size="10.00" fill="#000000">&#45; scale</text>
<text text-anchor="start" x="166.5" y="-461.5" font-family="Helvetica,sans-Serif" font-size="10.00" fill="#000000">&#45; showExpertDetails</text>
<text text-anchor="start" x="166.5" y="-450.5" font-family="Helvetica,sans-Serif" font-size="10.00" fill="#000000">&#45; movementAnimations</text>
<text text-anchor="start" x="166.5" y="-439.5" font-family="Helvetica,sans-Serif" font-size="10.00" fill="#000000">&#45; lastFpsTake</text>
<text text-anchor="start" x="166.5" y="-428.5" font-family="Helvetica,sans-Serif" font-size="10.00" fill="#000000">und 16 mehr ...</text>
<polyline fill="none" stroke="#000000" points="158.5,-421.5 283.5,-421.5 "/>
<text text-anchor="start" x="166.5" y="-409.5" font-family="Helvetica,sans-Serif" font-size="10.00" fill="#000000">+ MapRenderer()</text>
<text text-anchor="start" x="166.5" y="-398.5" font-family="Helvetica,sans-Serif" font-size="10.00" fill="#000000">+ paintEvent()</text>
<text text-anchor="start" x="166.5" y="-387.5" font-family="Helvetica,sans-Serif" font-size="10.00" fill="#000000">+ mousePressEvent()</text>
<text text-anchor="start" x="166.5" y="-376.5" font-family="Helvetica,sans-Serif" font-size="10.00" fill="#000000">+ mouseReleaseEvent()</text>
<text text-anchor="start" x="166.5" y="-365.5" font-family="Helvetica,sans-Serif" font-size="10.00" fill="#000000">+ mouseMoveEvent()</text>
<text text-anchor="start" x="166.5" y="-354.5" font-family="Helvetica,sans-Serif" font-size="10.00" fill="#000000">+ wheelEvent()</text>
<text text-anchor="start" x="166.5" y="-343.5" font-family="Helvetica,sans-Serif" font-size="10.00" fill="#000000">+ keyReleaseEvent()</text>
<text text-anchor="start" x="166.5" y="-332.5" font-family="Helvetica,sans-Serif" font-size="10.00" fill="#000000">+ tick()</text>
<text text-anchor="start" x="166.5" y="-321.5" font-family="Helvetica,sans-Serif" font-size="10.00" fill="#000000">+ logicUpdate()</text>
<text text-anchor="start" x="166.5" y="-310.5" font-family="Helvetica,sans-Serif" font-size="10.00" fill="#000000">+ renderFrame()</text>
<text text-anchor="start" x="166.5" y="-299.5" font-family="Helvetica,sans-Serif" font-size="10.00" fill="#000000">und 13 mehr ...</text>
<text text-anchor="start" x="166.5" y="-288.5" font-family="Helvetica,sans-Serif" font-size="10.00" fill="#000000">+ onTileChange()</text>
<text text-anchor="start" x="166.5" y="-277.5" font-family="Helvetica,sans-Serif" font-size="10.00" fill="#000000">+ enableHighlight()</text>
<text text-anchor="start" x="166.5" y="-266.5" font-family="Helvetica,sans-Serif" font-size="10.00" fill="#000000">+ setLogicSpeed()</text>
</a>
</g>
</g>
<!-- Node2&#45;&gt;Node3 -->
<g id="edge3" class="edge">
<title>Node2&#45;&gt;Node3</title>
<path fill="none" stroke="#191970" d="M34.6261,-816.2344C41.6237,-776.8914 53.4985,-714.3488 67,-661 74.071,-633.0604 65.6571,-619.4153 86,-599 105.0513,-579.8809 123.5808,-598.6508 144,-581 149.0396,-576.6437 153.7758,-571.8835 158.2241,-566.818"/>
<polygon fill="none" stroke="#191970" points="31.1582,-815.7471 32.8694,-826.2028 38.0519,-816.9621 31.1582,-815.7471"/>
</g>
<!-- Node3&#45;&gt;Node1 -->
<g id="edge2" class="edge">
<title>Node3&#45;&gt;Node1</title>
<path fill="none" stroke="#404040" d="M168.8048,-259.3206C164.8714,-247.2119 160.9474,-235.1323 157.1267,-223.3703"/>
<polygon fill="none" stroke="#404040" points="157.0512,-223.1377 151.3931,-218.6671 153.3437,-211.7248 159.0018,-216.1954 157.0512,-223.1377"/>
<text text-anchor="middle" x="178" y="-233" font-family="Helvetica,sans-Serif" font-size="10.00" fill="#000000"> &#45;scene</text>
</g>
<!-- Node4 -->
<g id="node4" class="node">
<title>Node4</title>
<g id="a_node4"><a xlink:href="classMapTile.html" target="_top" xlink:title=" ">
<polygon fill="#ffffff" stroke="#000000" points="279,-760.5 279,-949.5 381,-949.5 381,-760.5 279,-760.5"/>
<text text-anchor="middle" x="330" y="-937.5" font-family="Helvetica,sans-Serif" font-size="10.00" fill="#000000">MapTile</text>
<polyline fill="none" stroke="#000000" points="279,-930.5 381,-930.5 "/>
<text text-anchor="start" x="287" y="-918.5" font-family="Helvetica,sans-Serif" font-size="10.00" fill="#000000">&#45; type</text>
<text text-anchor="start" x="287" y="-907.5" font-family="Helvetica,sans-Serif" font-size="10.00" fill="#000000">&#45; pixmapItem</text>
<text text-anchor="start" x="287" y="-896.5" font-family="Helvetica,sans-Serif" font-size="10.00" fill="#000000">&#45; currentRotation</text>
<polyline fill="none" stroke="#000000" points="279,-889.5 381,-889.5 "/>
<text text-anchor="start" x="287" y="-877.5" font-family="Helvetica,sans-Serif" font-size="10.00" fill="#000000">+ MapTile()</text>
<text text-anchor="start" x="287" y="-866.5" font-family="Helvetica,sans-Serif" font-size="10.00" fill="#000000">+ MapTile()</text>
<text text-anchor="start" x="287" y="-855.5" font-family="Helvetica,sans-Serif" font-size="10.00" fill="#000000">+ setType()</text>
<text text-anchor="start" x="287" y="-844.5" font-family="Helvetica,sans-Serif" font-size="10.00" fill="#000000">+ getType()</text>
<text text-anchor="start" x="287" y="-833.5" font-family="Helvetica,sans-Serif" font-size="10.00" fill="#000000">+ setRotation()</text>
<text text-anchor="start" x="287" y="-822.5" font-family="Helvetica,sans-Serif" font-size="10.00" fill="#000000">+ getRotation()</text>
<text text-anchor="start" x="287" y="-811.5" font-family="Helvetica,sans-Serif" font-size="10.00" fill="#000000">+ getRotationDeg()</text>
<text text-anchor="start" x="287" y="-800.5" font-family="Helvetica,sans-Serif" font-size="10.00" fill="#000000">+ setPosition()</text>
<text text-anchor="start" x="287" y="-789.5" font-family="Helvetica,sans-Serif" font-size="10.00" fill="#000000">+ isRiver()</text>
<text text-anchor="start" x="287" y="-778.5" font-family="Helvetica,sans-Serif" font-size="10.00" fill="#000000">+ isRail()</text>
<text text-anchor="start" x="287" y="-767.5" font-family="Helvetica,sans-Serif" font-size="10.00" fill="#000000">und 6 mehr ...</text>
</a>
</g>
</g>
<!-- Node4&#45;&gt;Node3 -->
<g id="edge4" class="edge">
<title>Node4&#45;&gt;Node3</title>
<path fill="none" stroke="#404040" d="M306.2814,-760.3433C293.9774,-711.2403 278.5591,-649.7083 264.2281,-592.5158"/>
<polygon fill="none" stroke="#404040" points="264.1998,-592.4027 258.8614,-587.5549 261.283,-580.7625 266.6215,-585.6103 264.1998,-592.4027"/>
<text text-anchor="middle" x="291" y="-618.5" font-family="Helvetica,sans-Serif" font-size="10.00" fill="#000000"> +data</text>
</g>
<!-- Node5 -->
<g id="node5" class="node">
<title>Node5</title>
<g id="a_node5"><a xlink:href="classGraphicsManager.html" target="_top" xlink:title=" ">
<polygon fill="#ffffff" stroke="#000000" points="138.5,-1151.5 138.5,-1219.5 251.5,-1219.5 251.5,-1151.5 138.5,-1151.5"/>
<text text-anchor="middle" x="195" y="-1207.5" font-family="Helvetica,sans-Serif" font-size="10.00" fill="#000000">GraphicsManager</text>
<polyline fill="none" stroke="#000000" points="138.5,-1200.5 251.5,-1200.5 "/>
<text text-anchor="start" x="146.5" y="-1188.5" font-family="Helvetica,sans-Serif" font-size="10.00" fill="#000000">+ GRAPHICS</text>
<polyline fill="none" stroke="#000000" points="138.5,-1181.5 251.5,-1181.5 "/>
<text text-anchor="start" x="146.5" y="-1169.5" font-family="Helvetica,sans-Serif" font-size="10.00" fill="#000000">+ GraphicsManager()</text>
<text text-anchor="start" x="146.5" y="-1158.5" font-family="Helvetica,sans-Serif" font-size="10.00" fill="#000000">+ get()</text>
</a>
</g>
</g>
<!-- Node5&#45;&gt;Node3 -->
<g id="edge7" class="edge">
<title>Node5&#45;&gt;Node3</title>
<path fill="none" stroke="#404040" d="M191.7996,-1151.3189C189.3846,-1123.7324 186.2769,-1083.9059 185,-1049 178.696,-876.6708 172.2266,-832.9707 185,-661 186.6478,-638.8157 189.1375,-615.5768 192.0538,-592.6525"/>
<polygon fill="none" stroke="#404040" points="192.0607,-592.5994 188.8718,-586.1317 193.6156,-580.7005 196.8044,-587.1682 192.0607,-592.5994"/>
<text text-anchor="middle" x="227.5" y="-852.5" font-family="Helvetica,sans-Serif" font-size="10.00" fill="#000000"> &#45;graphicsManager</text>
</g>
<!-- Node5&#45;&gt;Node4 -->
<g id="edge5" class="edge">
<title>Node5&#45;&gt;Node4</title>
<path fill="none" stroke="#404040" d="M202.8299,-1151.3157C209.8132,-1126.1744 221.9319,-1092.146 241,-1067 249.0563,-1056.3758 257.1955,-1059.8105 265,-1049 283.7129,-1023.0795 297.3021,-991.4061 307.0573,-961.2286"/>
<polygon fill="none" stroke="#404040" points="307.0617,-961.2143 305.0153,-954.2996 310.6111,-949.7512 312.6574,-956.6659 307.0617,-961.2143"/>
<text text-anchor="middle" x="283.5" y="-1070" font-family="Helvetica,sans-Serif" font-size="10.00" fill="#000000"> &#45;graphicsManager</text>
</g>
<!-- Node6 -->
<g id="node6" class="node">
<title>Node6</title>
<g id="a_node6"><a xlink:href="classCity.html" target="_top" xlink:title=" ">
<polygon fill="#ffffff" stroke="#000000" points="288.5,-1096.5 288.5,-1274.5 371.5,-1274.5 371.5,-1096.5 288.5,-1096.5"/>
<text text-anchor="middle" x="330" y="-1262.5" font-family="Helvetica,sans-Serif" font-size="10.00" fill="#000000">City</text>
<polyline fill="none" stroke="#000000" points="288.5,-1255.5 371.5,-1255.5 "/>
<text text-anchor="start" x="296.5" y="-1243.5" font-family="Helvetica,sans-Serif" font-size="10.00" fill="#000000">&#45; size</text>
<text text-anchor="start" x="296.5" y="-1232.5" font-family="Helvetica,sans-Serif" font-size="10.00" fill="#000000">&#45; centerX</text>
<text text-anchor="start" x="296.5" y="-1221.5" font-family="Helvetica,sans-Serif" font-size="10.00" fill="#000000">&#45; centerY</text>
<text text-anchor="start" x="296.5" y="-1210.5" font-family="Helvetica,sans-Serif" font-size="10.00" fill="#000000">&#45; name</text>
<polyline fill="none" stroke="#000000" points="288.5,-1203.5 371.5,-1203.5 "/>
<text text-anchor="start" x="296.5" y="-1191.5" font-family="Helvetica,sans-Serif" font-size="10.00" fill="#000000">+ City()</text>
<text text-anchor="start" x="296.5" y="-1180.5" font-family="Helvetica,sans-Serif" font-size="10.00" fill="#000000">+ City()</text>
<text text-anchor="start" x="296.5" y="-1169.5" font-family="Helvetica,sans-Serif" font-size="10.00" fill="#000000">+ getSize()</text>
<text text-anchor="start" x="296.5" y="-1158.5" font-family="Helvetica,sans-Serif" font-size="10.00" fill="#000000">+ getCenterX()</text>
<text text-anchor="start" x="296.5" y="-1147.5" font-family="Helvetica,sans-Serif" font-size="10.00" fill="#000000">+ getCenterY()</text>
<text text-anchor="start" x="296.5" y="-1136.5" font-family="Helvetica,sans-Serif" font-size="10.00" fill="#000000">+ getName()</text>
<text text-anchor="start" x="296.5" y="-1125.5" font-family="Helvetica,sans-Serif" font-size="10.00" fill="#000000">+ setSize()</text>
<text text-anchor="start" x="296.5" y="-1114.5" font-family="Helvetica,sans-Serif" font-size="10.00" fill="#000000">+ setCenter()</text>
<text text-anchor="start" x="296.5" y="-1103.5" font-family="Helvetica,sans-Serif" font-size="10.00" fill="#000000">+ setName()</text>
</a>
</g>
</g>
<!-- Node6&#45;&gt;Node4 -->
<g id="edge6" class="edge">
<title>Node6&#45;&gt;Node4</title>
<path fill="none" stroke="#404040" d="M330,-1096.4973C330,-1054.992 330,-1005.2673 330,-961.7551"/>
<polygon fill="none" stroke="#404040" points="330.0001,-961.6592 326,-955.6592 330,-949.6592 334,-955.6592 330.0001,-961.6592"/>
<text text-anchor="middle" x="341" y="-1070" font-family="Helvetica,sans-Serif" font-size="10.00" fill="#000000"> &#45;city</text>
</g>
<!-- Node7 -->
<g id="node7" class="node">
<title>Node7</title>
<g id="a_node7"><a xlink:href="classSprite.html" target="_top" xlink:title=" ">
<polygon fill="#ffffff" stroke="#000000" points="399,-804.5 399,-905.5 473,-905.5 473,-804.5 399,-804.5"/>
<text text-anchor="middle" x="436" y="-893.5" font-family="Helvetica,sans-Serif" font-size="10.00" fill="#000000">Sprite</text>
<polyline fill="none" stroke="#000000" points="399,-886.5 473,-886.5 "/>
<text text-anchor="start" x="407" y="-874.5" font-family="Helvetica,sans-Serif" font-size="10.00" fill="#000000">&#45; images</text>
<text text-anchor="start" x="407" y="-863.5" font-family="Helvetica,sans-Serif" font-size="10.00" fill="#000000">&#45; index</text>
<text text-anchor="start" x="407" y="-852.5" font-family="Helvetica,sans-Serif" font-size="10.00" fill="#000000">&#45; count</text>
<polyline fill="none" stroke="#000000" points="399,-845.5 473,-845.5 "/>
<text text-anchor="start" x="407" y="-833.5" font-family="Helvetica,sans-Serif" font-size="10.00" fill="#000000">+ Sprite()</text>
<text text-anchor="start" x="407" y="-822.5" font-family="Helvetica,sans-Serif" font-size="10.00" fill="#000000">+ getImage()</text>
<text text-anchor="start" x="407" y="-811.5" font-family="Helvetica,sans-Serif" font-size="10.00" fill="#000000">+ step()</text>
</a>
</g>
</g>
<!-- Node7&#45;&gt;Node3 -->
<g id="edge8" class="edge">
<title>Node7&#45;&gt;Node3</title>
<path fill="none" stroke="#404040" d="M429.3565,-804.2722C422.8401,-764.1045 410.7788,-707.2575 390,-661 364.5906,-604.434 325.2982,-547.3447 290.9931,-502.9376"/>
<polygon fill="none" stroke="#404040" points="290.9117,-502.8333 284.0671,-500.5636 283.5297,-493.3725 290.3743,-495.6422 290.9117,-502.8333"/>
<text text-anchor="middle" x="405.5" y="-618.5" font-family="Helvetica,sans-Serif" font-size="10.00" fill="#000000"> +testSprite</text>
</g>
<!-- Node8 -->
<g id="node8" class="node">
<title>Node8</title>
<g id="a_node8"><a xlink:href="classPoint.html" target="_top" xlink:title=" ">
<polygon fill="#ffffff" stroke="#000000" points="76,-788 76,-922 134,-922 134,-788 76,-788"/>
<text text-anchor="middle" x="105" y="-910" font-family="Helvetica,sans-Serif" font-size="10.00" fill="#000000">Point</text>
<polyline fill="none" stroke="#000000" points="76,-903 134,-903 "/>
<text text-anchor="start" x="84" y="-891" font-family="Helvetica,sans-Serif" font-size="10.00" fill="#000000">&#45; x</text>
<text text-anchor="start" x="84" y="-880" font-family="Helvetica,sans-Serif" font-size="10.00" fill="#000000">&#45; y</text>
<polyline fill="none" stroke="#000000" points="76,-873 134,-873 "/>
<text text-anchor="start" x="84" y="-861" font-family="Helvetica,sans-Serif" font-size="10.00" fill="#000000">+ Point()</text>
<text text-anchor="start" x="84" y="-850" font-family="Helvetica,sans-Serif" font-size="10.00" fill="#000000">+ getX()</text>
<text text-anchor="start" x="84" y="-839" font-family="Helvetica,sans-Serif" font-size="10.00" fill="#000000">+ getY()</text>
<text text-anchor="start" x="84" y="-828" font-family="Helvetica,sans-Serif" font-size="10.00" fill="#000000">+ add()</text>
<text text-anchor="start" x="84" y="-817" font-family="Helvetica,sans-Serif" font-size="10.00" fill="#000000">+ set()</text>
<text text-anchor="start" x="84" y="-806" font-family="Helvetica,sans-Serif" font-size="10.00" fill="#000000">+ move()</text>
<text text-anchor="start" x="84" y="-795" font-family="Helvetica,sans-Serif" font-size="10.00" fill="#000000">+ toTile()</text>
</a>
</g>
</g>
<!-- Node8&#45;&gt;Node1 -->
<g id="edge17" class="edge">
<title>Node8&#45;&gt;Node1</title>
<path fill="none" stroke="#404040" d="M95.8754,-787.7025C82.355,-677.0191 60.8564,-449.791 83,-259 84.3449,-247.4122 86.2445,-235.4279 88.4761,-223.5028"/>
<polygon fill="none" stroke="#404040" points="88.4983,-223.3894 85.7292,-216.7312 90.8101,-211.6141 93.5793,-218.2724 88.4983,-223.3894"/>
<text text-anchor="middle" x="116" y="-417.5" font-family="Helvetica,sans-Serif" font-size="10.00" fill="#000000"> &#45;hoverCoords</text>
</g>
<!-- Node8&#45;&gt;Node3 -->
<g id="edge9" class="edge">
<title>Node8&#45;&gt;Node3</title>
<path fill="none" stroke="#404040" d="M87.7648,-787.9118C77.6191,-732.9047 72.7941,-655.2251 108,-599 117.4936,-583.8385 131.4623,-593.7596 144,-581 146.3124,-578.6467 148.5656,-576.2106 150.7606,-573.7027"/>
<polygon fill="none" stroke="#404040" points="150.8421,-573.6034 151.5568,-566.4278 158.4553,-564.3277 157.7406,-571.5033 150.8421,-573.6034"/>
<text text-anchor="middle" x="138.5" y="-635" font-family="Helvetica,sans-Serif" font-size="10.00" fill="#000000"> &#45;activeTile</text>
<text text-anchor="middle" x="138.5" y="-624" font-family="Helvetica,sans-Serif" font-size="10.00" fill="#000000">&#45;dragOrigin</text>
<text text-anchor="middle" x="138.5" y="-613" font-family="Helvetica,sans-Serif" font-size="10.00" fill="#000000">+offset</text>
<text text-anchor="middle" x="138.5" y="-602" font-family="Helvetica,sans-Serif" font-size="10.00" fill="#000000">&#45;dragPosition</text>
</g>
<!-- Node9 -->
<g id="node9" class="node">
<title>Node9</title>
<g id="a_node9"><a xlink:href="classDataModel.html" target="_top" xlink:title=" ">
<polygon fill="#ffffff" stroke="#000000" points="491.5,-661.5 491.5,-1048.5 628.5,-1048.5 628.5,-661.5 491.5,-661.5"/>
<text text-anchor="middle" x="560" y="-1036.5" font-family="Helvetica,sans-Serif" font-size="10.00" fill="#000000">DataModel</text>
<polyline fill="none" stroke="#000000" points="491.5,-1029.5 628.5,-1029.5 "/>
<text text-anchor="start" x="499.5" y="-1017.5" font-family="Helvetica,sans-Serif" font-size="10.00" fill="#000000">&#45; balance</text>
<text text-anchor="start" x="499.5" y="-1006.5" font-family="Helvetica,sans-Serif" font-size="10.00" fill="#000000">&#45; time</text>
<text text-anchor="start" x="499.5" y="-995.5" font-family="Helvetica,sans-Serif" font-size="10.00" fill="#000000">&#45; coordinateX</text>
<text text-anchor="start" x="499.5" y="-984.5" font-family="Helvetica,sans-Serif" font-size="10.00" fill="#000000">&#45; coordinateY</text>
<text text-anchor="start" x="499.5" y="-973.5" font-family="Helvetica,sans-Serif" font-size="10.00" fill="#000000">&#45; mapLoaded</text>
<text text-anchor="start" x="499.5" y="-962.5" font-family="Helvetica,sans-Serif" font-size="10.00" fill="#000000">&#45; ip</text>
<text text-anchor="start" x="499.5" y="-951.5" font-family="Helvetica,sans-Serif" font-size="10.00" fill="#000000">&#45; port</text>
<text text-anchor="start" x="499.5" y="-940.5" font-family="Helvetica,sans-Serif" font-size="10.00" fill="#000000">&#45; balanceLabel</text>
<text text-anchor="start" x="499.5" y="-929.5" font-family="Helvetica,sans-Serif" font-size="10.00" fill="#000000">&#45; timeLabel</text>
<text text-anchor="start" x="499.5" y="-918.5" font-family="Helvetica,sans-Serif" font-size="10.00" fill="#000000">&#45; positionLabel</text>
<text text-anchor="start" x="499.5" y="-907.5" font-family="Helvetica,sans-Serif" font-size="10.00" fill="#000000">&#45; statusDisplay</text>
<text text-anchor="start" x="499.5" y="-896.5" font-family="Helvetica,sans-Serif" font-size="10.00" fill="#000000">&#45; connectionLabel</text>
<text text-anchor="start" x="499.5" y="-885.5" font-family="Helvetica,sans-Serif" font-size="10.00" fill="#000000">&#45; mode</text>
<polyline fill="none" stroke="#000000" points="491.5,-878.5 628.5,-878.5 "/>
<text text-anchor="start" x="499.5" y="-866.5" font-family="Helvetica,sans-Serif" font-size="10.00" fill="#000000">+ DataModel()</text>
<text text-anchor="start" x="499.5" y="-855.5" font-family="Helvetica,sans-Serif" font-size="10.00" fill="#000000">+ getBalance()</text>
<text text-anchor="start" x="499.5" y="-844.5" font-family="Helvetica,sans-Serif" font-size="10.00" fill="#000000">+ updateBalance()</text>
<text text-anchor="start" x="499.5" y="-833.5" font-family="Helvetica,sans-Serif" font-size="10.00" fill="#000000">+ takeBalance()</text>
<text text-anchor="start" x="499.5" y="-822.5" font-family="Helvetica,sans-Serif" font-size="10.00" fill="#000000">+ timeTick()</text>
<text text-anchor="start" x="499.5" y="-811.5" font-family="Helvetica,sans-Serif" font-size="10.00" fill="#000000">+ getTime()</text>
<text text-anchor="start" x="499.5" y="-800.5" font-family="Helvetica,sans-Serif" font-size="10.00" fill="#000000">+ setTime()</text>
<text text-anchor="start" x="499.5" y="-789.5" font-family="Helvetica,sans-Serif" font-size="10.00" fill="#000000">+ getSystemMillis()</text>
<text text-anchor="start" x="499.5" y="-778.5" font-family="Helvetica,sans-Serif" font-size="10.00" fill="#000000">+ updateCoordinates()</text>
<text text-anchor="start" x="499.5" y="-767.5" font-family="Helvetica,sans-Serif" font-size="10.00" fill="#000000">+ getHoverX()</text>
<text text-anchor="start" x="499.5" y="-756.5" font-family="Helvetica,sans-Serif" font-size="10.00" fill="#000000">und 13 mehr ...</text>
<text text-anchor="start" x="499.5" y="-745.5" font-family="Helvetica,sans-Serif" font-size="10.00" fill="#000000">+ setDefaultMode()</text>
<text text-anchor="start" x="499.5" y="-734.5" font-family="Helvetica,sans-Serif" font-size="10.00" fill="#000000">+ setTrainStationMode()</text>
<text text-anchor="start" x="499.5" y="-723.5" font-family="Helvetica,sans-Serif" font-size="10.00" fill="#000000">+ setDepotMode()</text>
<text text-anchor="start" x="499.5" y="-712.5" font-family="Helvetica,sans-Serif" font-size="10.00" fill="#000000">+ setTerminalMode()</text>
<text text-anchor="start" x="499.5" y="-701.5" font-family="Helvetica,sans-Serif" font-size="10.00" fill="#000000">+ setBridgeMode()</text>
<text text-anchor="start" x="499.5" y="-690.5" font-family="Helvetica,sans-Serif" font-size="10.00" fill="#000000">+ setRailPlacementMode()</text>
<text text-anchor="start" x="499.5" y="-679.5" font-family="Helvetica,sans-Serif" font-size="10.00" fill="#000000">+ setRemoveMode()</text>
<text text-anchor="start" x="499.5" y="-668.5" font-family="Helvetica,sans-Serif" font-size="10.00" fill="#000000">+ setMapLoaded()</text>
</a>
</g>
</g>
<!-- Node9&#45;&gt;Node1 -->
<g id="edge18" class="edge">
<title>Node9&#45;&gt;Node1</title>
<path fill="none" stroke="#404040" d="M544.2264,-661.3814C539.5683,-639.9639 533.6095,-618.7705 526,-599 460.1076,-427.802 413.6089,-396.3384 292,-259 261.5174,-224.5747 223.6285,-190.2889 191.0859,-162.926"/>
<polygon fill="none" stroke="#404040" points="190.8342,-162.7162 183.6643,-161.9463 181.6174,-155.0317 188.7873,-155.8017 190.8342,-162.7162"/>
<text text-anchor="middle" x="545.5" y="-417.5" font-family="Helvetica,sans-Serif" font-size="10.00" fill="#000000"> &#45;dataModel</text>
</g>
<!-- Node9&#45;&gt;Node3 -->
<g id="edge10" class="edge">
<title>Node9&#45;&gt;Node3</title>
<path fill="none" stroke="#404040" d="M491.4544,-678.4838C488.3745,-672.5299 485.2209,-666.6851 482,-661 436.0659,-579.9236 353.4387,-510.6019 293.4303,-467.4008"/>
<polygon fill="none" stroke="#404040" points="293.4084,-467.3853 286.2005,-467.1681 283.6288,-460.4311 290.8366,-460.6483 293.4084,-467.3853"/>
<text text-anchor="middle" x="494.5" y="-618.5" font-family="Helvetica,sans-Serif" font-size="10.00" fill="#000000"> &#45;dataModel</text>
</g>
<!-- Node10 -->
<g id="node10" class="node">
<title>Node10</title>
<g id="a_node10"><a xlink:title=" ">
<polygon fill="#ffffff" stroke="#bfbfbf" points="448.5,-1157 448.5,-1214 501.5,-1214 501.5,-1157 448.5,-1157"/>
<text text-anchor="middle" x="475" y="-1202" font-family="Helvetica,sans-Serif" font-size="10.00" fill="#000000">QObject</text>
<polyline fill="none" stroke="#bfbfbf" points="448.5,-1195 501.5,-1195 "/>
<text text-anchor="middle" x="475" y="-1183" font-family="Helvetica,sans-Serif" font-size="10.00" fill="#000000"> </text>
<polyline fill="none" stroke="#bfbfbf" points="448.5,-1176 501.5,-1176 "/>
<text text-anchor="middle" x="475" y="-1164" font-family="Helvetica,sans-Serif" font-size="10.00" fill="#000000"> </text>
</a>
</g>
</g>
<!-- Node10&#45;&gt;Node9 -->
<g id="edge11" class="edge">
<title>Node10&#45;&gt;Node9</title>
<path fill="none" stroke="#191970" d="M484.9425,-1146.8413C491.4721,-1121.4525 500.5583,-1086.1233 510.1599,-1048.7899"/>
<polygon fill="none" stroke="#191970" points="481.4957,-1146.1918 482.3945,-1156.7485 488.2751,-1147.9354 481.4957,-1146.1918"/>
</g>
<!-- Node11 -->
<g id="node11" class="node">
<title>Node11</title>
<g id="a_node11"><a xlink:href="classPlayer.html" target="_top" xlink:title=" ">
<polygon fill="#ffffff" stroke="#000000" points="519.5,-1146 519.5,-1225 600.5,-1225 600.5,-1146 519.5,-1146"/>
<text text-anchor="middle" x="560" y="-1213" font-family="Helvetica,sans-Serif" font-size="10.00" fill="#000000">Player</text>
<polyline fill="none" stroke="#000000" points="519.5,-1206 600.5,-1206 "/>
<text text-anchor="start" x="527.5" y="-1194" font-family="Helvetica,sans-Serif" font-size="10.00" fill="#000000">+ posX</text>
<text text-anchor="start" x="527.5" y="-1183" font-family="Helvetica,sans-Serif" font-size="10.00" fill="#000000">+ posY</text>
<polyline fill="none" stroke="#000000" points="519.5,-1176 600.5,-1176 "/>
<text text-anchor="start" x="527.5" y="-1164" font-family="Helvetica,sans-Serif" font-size="10.00" fill="#000000">+ Player()</text>
<text text-anchor="start" x="527.5" y="-1153" font-family="Helvetica,sans-Serif" font-size="10.00" fill="#000000">+ setPosition()</text>
</a>
</g>
</g>
<!-- Node11&#45;&gt;Node9 -->
<g id="edge12" class="edge">
<title>Node11&#45;&gt;Node9</title>
<path fill="none" stroke="#404040" d="M560,-1145.9623C560,-1123.3777 560,-1093.1372 560,-1060.6796"/>
<polygon fill="none" stroke="#404040" points="560.0001,-1060.6313 556,-1054.6313 560,-1048.6313 564,-1054.6313 560.0001,-1060.6313"/>
<text text-anchor="middle" x="596.5" y="-1070" font-family="Helvetica,sans-Serif" font-size="10.00" fill="#000000"> +secondPlayer</text>
</g>
<!-- Node12 -->
<g id="node12" class="node">
<title>Node12</title>
<g id="a_node12"><a xlink:href="classHighlighter.html" target="_top" xlink:title=" ">
<polygon fill="#ffffff" stroke="#000000" points="520.5,-1322.5 520.5,-1390.5 599.5,-1390.5 599.5,-1322.5 520.5,-1322.5"/>
<text text-anchor="middle" x="560" y="-1378.5" font-family="Helvetica,sans-Serif" font-size="10.00" fill="#000000">Highlighter</text>
<polyline fill="none" stroke="#000000" points="520.5,-1371.5 599.5,-1371.5 "/>
<text text-anchor="start" x="528.5" y="-1359.5" font-family="Helvetica,sans-Serif" font-size="10.00" fill="#000000">&#45; outline</text>
<polyline fill="none" stroke="#000000" points="520.5,-1352.5 599.5,-1352.5 "/>
<text text-anchor="start" x="528.5" y="-1340.5" font-family="Helvetica,sans-Serif" font-size="10.00" fill="#000000">+ Highlighter()</text>
<text text-anchor="start" x="528.5" y="-1329.5" font-family="Helvetica,sans-Serif" font-size="10.00" fill="#000000">+ setColor()</text>
</a>
</g>
</g>
<!-- Node12&#45;&gt;Node11 -->
<g id="edge13" class="edge">
<title>Node12&#45;&gt;Node11</title>
<path fill="none" stroke="#404040" d="M560,-1322.3066C560,-1297.9647 560,-1264.8183 560,-1237.249"/>
<polygon fill="none" stroke="#404040" points="560.0001,-1237.0262 556,-1231.0262 560,-1225.0262 564,-1231.0261 560.0001,-1237.0262"/>
<text text-anchor="middle" x="587.5" y="-1296" font-family="Helvetica,sans-Serif" font-size="10.00" fill="#000000"> +highlighter</text>
</g>
<!-- Node13 -->
<g id="node13" class="node">
<title>Node13</title>
<g id="a_node13"><a xlink:title=" ">
<polygon fill="#ffffff" stroke="#bfbfbf" points="508,-1428.5 508,-1485.5 612,-1485.5 612,-1428.5 508,-1428.5"/>
<text text-anchor="middle" x="560" y="-1473.5" font-family="Helvetica,sans-Serif" font-size="10.00" fill="#000000">QGraphicsRectItem</text>
<polyline fill="none" stroke="#bfbfbf" points="508,-1466.5 612,-1466.5 "/>
<text text-anchor="middle" x="560" y="-1454.5" font-family="Helvetica,sans-Serif" font-size="10.00" fill="#000000"> </text>
<polyline fill="none" stroke="#bfbfbf" points="508,-1447.5 612,-1447.5 "/>
<text text-anchor="middle" x="560" y="-1435.5" font-family="Helvetica,sans-Serif" font-size="10.00" fill="#000000"> </text>
</a>
</g>
</g>
<!-- Node13&#45;&gt;Node12 -->
<g id="edge14" class="edge">
<title>Node13&#45;&gt;Node12</title>
<path fill="none" stroke="#191970" d="M560,-1418.1903C560,-1409.1667 560,-1399.6233 560,-1390.8097"/>
<polygon fill="none" stroke="#191970" points="556.5001,-1418.4695 560,-1428.4696 563.5001,-1418.4696 556.5001,-1418.4695"/>
</g>
<!-- Node14 -->
<g id="node14" class="node">
<title>Node14</title>
<g id="a_node14"><a xlink:href="classMainWindow.html" target="_top" xlink:title=" ">
<polygon fill="#ffffff" stroke="#000000" points="619,-1151.5 619,-1219.5 715,-1219.5 715,-1151.5 619,-1151.5"/>
<text text-anchor="middle" x="667" y="-1207.5" font-family="Helvetica,sans-Serif" font-size="10.00" fill="#000000">MainWindow</text>
<polyline fill="none" stroke="#000000" points="619,-1200.5 715,-1200.5 "/>
<text text-anchor="start" x="627" y="-1188.5" font-family="Helvetica,sans-Serif" font-size="10.00" fill="#000000">&#45; ui</text>
<polyline fill="none" stroke="#000000" points="619,-1181.5 715,-1181.5 "/>
<text text-anchor="start" x="627" y="-1169.5" font-family="Helvetica,sans-Serif" font-size="10.00" fill="#000000">+ MainWindow()</text>
<text text-anchor="start" x="627" y="-1158.5" font-family="Helvetica,sans-Serif" font-size="10.00" fill="#000000">+ ~MainWindow()</text>
</a>
</g>
</g>
<!-- Node14&#45;&gt;Node9 -->
<g id="edge15" class="edge">
<title>Node14&#45;&gt;Node9</title>
<path fill="none" stroke="#404040" d="M659.2987,-1151.2805C653.7074,-1127.4755 645.6348,-1095.0955 637,-1067 635.4955,-1062.1048 633.9438,-1057.1565 632.3536,-1052.1733"/>
<polygon fill="none" stroke="#404040" points="632.2684,-1051.9093 626.6168,-1047.4304 628.5775,-1040.491 634.229,-1044.9698 632.2684,-1051.9093"/>
<text text-anchor="middle" x="672.5" y="-1070" font-family="Helvetica,sans-Serif" font-size="10.00" fill="#000000"> &#45;mainWindow</text>
</g>
<!-- Node15 -->
<g id="node15" class="node">
<title>Node15</title>
<g id="a_node15"><a xlink:title=" ">
<polygon fill="#ffffff" stroke="#bfbfbf" points="625.5,-1328 625.5,-1385 708.5,-1385 708.5,-1328 625.5,-1328"/>
<text text-anchor="middle" x="667" y="-1373" font-family="Helvetica,sans-Serif" font-size="10.00" fill="#000000">QMainWindow</text>
<polyline fill="none" stroke="#bfbfbf" points="625.5,-1366 708.5,-1366 "/>
<text text-anchor="middle" x="667" y="-1354" font-family="Helvetica,sans-Serif" font-size="10.00" fill="#000000"> </text>
<polyline fill="none" stroke="#bfbfbf" points="625.5,-1347 708.5,-1347 "/>
<text text-anchor="middle" x="667" y="-1335" font-family="Helvetica,sans-Serif" font-size="10.00" fill="#000000"> </text>
</a>
</g>
</g>
<!-- Node15&#45;&gt;Node14 -->
<g id="edge16" class="edge">
<title>Node15&#45;&gt;Node14</title>
<path fill="none" stroke="#191970" d="M667,-1317.5167C667,-1287.9698 667,-1247.768 667,-1219.5157"/>
<polygon fill="none" stroke="#191970" points="663.5001,-1317.8784 667,-1327.8784 670.5001,-1317.8785 663.5001,-1317.8784"/>
</g>
</g>
</svg>
