<?xml version="1.0" encoding="UTF-8" standalone="no"?>
<!DOCTYPE svg PUBLIC "-//W3C//DTD SVG 1.1//EN"
 "http://www.w3.org/Graphics/SVG/1.1/DTD/svg11.dtd">
<!-- Generated by graphviz version 2.40.1 (20161225.0304)
 -->
<!-- Title: View::enableAnimation Pages: 1 -->
<svg width="286pt" height="66pt"
 viewBox="0.00 0.00 286.00 66.00" xmlns="http://www.w3.org/2000/svg" xmlns:xlink="http://www.w3.org/1999/xlink">
<g id="graph0" class="graph" transform="scale(1 1) rotate(0) translate(4 62)">
<title>View::enableAnimation</title>
<polygon fill="#ffffff" stroke="transparent" points="-4,4 -4,-62 282,-62 282,4 -4,4"/>
<!-- Node1 -->
<g id="node1" class="node">
<title>Node1</title>
<g id="a_node1"><a xlink:title="View::enableAnimation Aktiviert animationen bis zum nächsten Event.">
<polygon fill="#bfbfbf" stroke="#000000" points="158,-19.5 158,-38.5 278,-38.5 278,-19.5 158,-19.5"/>
<text text-anchor="middle" x="218" y="-26.5" font-family="Helvetica,sans-Serif" font-size="10.00" fill="#000000">View::enableAnimation</text>
</a>
</g>
</g>
<!-- Node2 -->
<g id="node2" class="node">
<title>Node2</title>
<g id="a_node2"><a xlink:href="main_8cpp.html#a0ddf1224851353fc92bfbff6f499fa97" target="_top" xlink:title="main Startmethode.">
<polygon fill="#ffffff" stroke="#000000" points="42,-38.5 42,-57.5 80,-57.5 80,-38.5 42,-38.5"/>
<text text-anchor="middle" x="61" y="-45.5" font-family="Helvetica,sans-Serif" font-size="10.00" fill="#000000">main</text>
</a>
</g>
</g>
<!-- Node1&#45;&gt;Node2 -->
<g id="edge1" class="edge">
<title>Node1&#45;&gt;Node2</title>
<path fill="none" stroke="#191970" d="M147.6456,-37.5142C122.9908,-40.4979 97.2526,-43.6127 80.3004,-45.6643"/>
<polygon fill="#191970" stroke="#191970" points="148.2417,-40.9677 157.7487,-36.2916 147.4006,-34.0184 148.2417,-40.9677"/>
</g>
<!-- Node3 -->
<g id="node3" class="node">
<title>Node3</title>
<g id="a_node3"><a xlink:href="classView.html#a1e1a3f29a5b539e3f8991cba46721e8f" target="_top" xlink:title="View::zoomInAnimation Slot der nach dem Laden der Karte aufgerufen wird.">
<polygon fill="#ffffff" stroke="#000000" points="0,-.5 0,-19.5 122,-19.5 122,-.5 0,-.5"/>
<text text-anchor="middle" x="61" y="-7.5" font-family="Helvetica,sans-Serif" font-size="10.00" fill="#000000">View::zoomInAnimation</text>
</a>
</g>
</g>
<!-- Node1&#45;&gt;Node3 -->
<g id="edge2" class="edge">
<title>Node1&#45;&gt;Node3</title>
<path fill="none" stroke="#191970" d="M147.7882,-20.503C139.2303,-19.4674 130.5395,-18.4156 122.1288,-17.3977"/>
<polygon fill="#191970" stroke="#191970" points="147.4006,-23.9816 157.7487,-21.7084 148.2417,-17.0323 147.4006,-23.9816"/>
</g>
</g>
</svg>
