<?xml version="1.0" encoding="UTF-8" standalone="no"?>
<!DOCTYPE svg PUBLIC "-//W3C//DTD SVG 1.1//EN"
 "http://www.w3.org/Graphics/SVG/1.1/DTD/svg11.dtd">
<!-- Generated by graphviz version 2.40.1 (20161225.0304)
 -->
<!-- Title: AnimationMovement::setSpeed Pages: 1 -->
<svg width="525pt" height="85pt"
 viewBox="0.00 0.00 525.00 85.00" xmlns="http://www.w3.org/2000/svg" xmlns:xlink="http://www.w3.org/1999/xlink">
<g id="graph0" class="graph" transform="scale(1 1) rotate(0) translate(4 81)">
<title>AnimationMovement::setSpeed</title>
<polygon fill="#ffffff" stroke="transparent" points="-4,4 -4,-81 521,-81 521,4 -4,4"/>
<!-- Node1 -->
<g id="node1" class="node">
<title>Node1</title>
<g id="a_node1"><a xlink:title="AnimationMovement::setSpeed Setzt die Geschwindigkeit der Animation.">
<polygon fill="#bfbfbf" stroke="#000000" points="403,-33 403,-63 517,-63 517,-33 403,-33"/>
<text text-anchor="start" x="411" y="-51" font-family="Helvetica,sans-Serif" font-size="10.00" fill="#000000">AnimationMovement::</text>
<text text-anchor="middle" x="460" y="-40" font-family="Helvetica,sans-Serif" font-size="10.00" fill="#000000">setSpeed</text>
</a>
</g>
</g>
<!-- Node2 -->
<g id="node2" class="node">
<title>Node2</title>
<g id="a_node2"><a xlink:href="classMapRenderer.html#a919be325b2604b720ed0fa2eb5676592" target="_top" xlink:title=" ">
<polygon fill="#ffffff" stroke="#000000" points="200,-57.5 200,-76.5 367,-76.5 367,-57.5 200,-57.5"/>
<text text-anchor="middle" x="283.5" y="-64.5" font-family="Helvetica,sans-Serif" font-size="10.00" fill="#000000">MapRenderer::animateMovement</text>
</a>
</g>
</g>
<!-- Node1&#45;&gt;Node2 -->
<g id="edge1" class="edge">
<title>Node1&#45;&gt;Node2</title>
<path fill="none" stroke="#191970" d="M392.6567,-55.2494C384.301,-56.1489 375.68,-57.0769 367.1173,-57.9987"/>
<polygon fill="#191970" stroke="#191970" points="393.1276,-58.719 402.6955,-54.1688 392.3783,-51.7593 393.1276,-58.719"/>
</g>
<!-- Node3 -->
<g id="node3" class="node">
<title>Node3</title>
<g id="a_node3"><a xlink:href="classMapRenderer.html#a742fba1dadf2f2bcabe5d8e2fa73042a" target="_top" xlink:title="MapRenderer::cloudAnimation Führt eine Wolken&#45;Animation aus.">
<polygon fill="#ffffff" stroke="#000000" points="207,-19.5 207,-38.5 360,-38.5 360,-19.5 207,-19.5"/>
<text text-anchor="middle" x="283.5" y="-26.5" font-family="Helvetica,sans-Serif" font-size="10.00" fill="#000000">MapRenderer::cloudAnimation</text>
</a>
</g>
</g>
<!-- Node1&#45;&gt;Node3 -->
<g id="edge2" class="edge">
<title>Node1&#45;&gt;Node3</title>
<path fill="none" stroke="#191970" d="M392.647,-40.7495C382.006,-39.604 370.935,-38.4123 360.1023,-37.2461"/>
<polygon fill="#191970" stroke="#191970" points="392.3783,-44.2407 402.6955,-41.8312 393.1276,-37.281 392.3783,-44.2407"/>
</g>
<!-- Node4 -->
<g id="node4" class="node">
<title>Node4</title>
<g id="a_node4"><a xlink:href="classMapRenderer.html#a9f43e4b3db6a2cda8ea7cabf1bc6f805" target="_top" xlink:title=" ">
<polygon fill="#ffffff" stroke="#000000" points="0,-38.5 0,-57.5 164,-57.5 164,-38.5 0,-38.5"/>
<text text-anchor="middle" x="82" y="-45.5" font-family="Helvetica,sans-Serif" font-size="10.00" fill="#000000">MapRenderer::keyReleaseEvent</text>
</a>
</g>
</g>
<!-- Node3&#45;&gt;Node4 -->
<g id="edge3" class="edge">
<title>Node3&#45;&gt;Node4</title>
<path fill="none" stroke="#191970" d="M196.5482,-37.1989C185.8261,-38.2099 174.8916,-39.241 164.2427,-40.2451"/>
<polygon fill="#191970" stroke="#191970" points="197.1194,-40.6607 206.7467,-36.2373 196.4622,-33.6916 197.1194,-40.6607"/>
</g>
<!-- Node5 -->
<g id="node5" class="node">
<title>Node5</title>
<g id="a_node5"><a xlink:href="main_8cpp.html#a0ddf1224851353fc92bfbff6f499fa97" target="_top" xlink:title="main Startmethode.">
<polygon fill="#ffffff" stroke="#000000" points="63,-.5 63,-19.5 101,-19.5 101,-.5 63,-.5"/>
<text text-anchor="middle" x="82" y="-7.5" font-family="Helvetica,sans-Serif" font-size="10.00" fill="#000000">main</text>
</a>
</g>
</g>
<!-- Node3&#45;&gt;Node5 -->
<g id="edge4" class="edge">
<title>Node3&#45;&gt;Node5</title>
<path fill="none" stroke="#191970" d="M196.7895,-20.8238C161.2092,-17.4689 123.2463,-13.8892 101.1212,-11.803"/>
<polygon fill="#191970" stroke="#191970" points="196.4622,-24.3084 206.7467,-21.7627 197.1194,-17.3393 196.4622,-24.3084"/>
</g>
</g>
</svg>
