<?xml version="1.0" encoding="UTF-8" standalone="no"?>
<!DOCTYPE svg PUBLIC "-//W3C//DTD SVG 1.1//EN"
 "http://www.w3.org/Graphics/SVG/1.1/DTD/svg11.dtd">
<!-- Generated by graphviz version 2.40.1 (20161225.0304)
 -->
<!-- Title: AnimationMovement::reachedPoint Pages: 1 -->
<!--zoomable 124 -->
<svg id="main" version="1.1" xmlns="http://www.w3.org/2000/svg" xmlns:xlink="http://www.w3.org/1999/xlink" xml:space="preserve" onload="init(evt)">
<style type="text/css"><![CDATA[
.edge:hover path { stroke: red; }
.edge:hover polygon { stroke: red; fill: red; }
]]></style>
<script type="text/javascript"><![CDATA[
var edges = document.getElementsByTagName('g');
if (edges && edges.length) {
  for (var i=0;i<edges.length;i++) {
    if (edges[i].id.substr(0,4)=='edge') {
      edges[i].setAttribute('class','edge');
    }
  }
}
]]></script>
        <defs>
                <circle id="rim" cx="0" cy="0" r="7"/>
                <circle id="rim2" cx="0" cy="0" r="3.5"/>
                <g id="zoomPlus">
                        <use xlink:href="#rim" fill="#404040">
                                <set attributeName="fill" to="#808080" begin="zoomplus.mouseover" end="zoomplus.mouseout"/>
                        </use>
                        <path d="M-4,0h8M0,-4v8" fill="none" stroke="white" stroke-width="1.5" pointer-events="none"/>
                </g>
                <g id="zoomMin">
                        <use xlink:href="#rim" fill="#404040">
                                <set attributeName="fill" to="#808080" begin="zoomminus.mouseover" end="zoomminus.mouseout"/>
                        </use>
                        <path d="M-4,0h8" fill="none" stroke="white" stroke-width="1.5" pointer-events="none"/>
                </g>
                <g id="dirArrow">
                        <path fill="none" stroke="white" stroke-width="1.5" d="M0,-3.0v7 M-2.5,-0.5L0,-3.0L2.5,-0.5"/>
                </g>
               <g id="resetDef">
                       <use xlink:href="#rim2" fill="#404040">
                               <set attributeName="fill" to="#808080" begin="reset.mouseover" end="reset.mouseout"/>
                       </use>
               </g>
        </defs>

<script type="text/javascript">
var viewWidth = 599;
var viewHeight = 124;
var sectionId = 'dynsection-7';
</script>
<script xlink:href="svgpan.js"/>
<svg id="graph" class="graph">
<g id="viewport">
<title>AnimationMovement::reachedPoint</title>
<polygon fill="#ffffff" stroke="transparent" points="-4,4 -4,-119.5 595,-119.5 595,4 -4,4"/>
<!-- Node1 -->
<g id="node1" class="node">
<title>Node1</title>
<g id="a_node1"><a xlink:title=" ">
<polygon fill="#bfbfbf" stroke="#000000" points="477,-60 477,-90 591,-90 591,-60 477,-60"/>
<text text-anchor="start" x="485" y="-78" font-family="Helvetica,sans-Serif" font-size="10.00" fill="#000000">AnimationMovement::</text>
<text text-anchor="middle" x="534" y="-67" font-family="Helvetica,sans-Serif" font-size="10.00" fill="#000000">reachedPoint</text>
</a>
</g>
</g>
<!-- Node2 -->
<g id="node2" class="node">
<title>Node2</title>
<g id="a_node2"><a xlink:href="classMapRenderer.html#a58a55f100157958cf39c7028b12ef569" target="_top" xlink:title=" ">
<polygon fill="#ffffff" stroke="#000000" points="274,-85 274,-115 441,-115 441,-85 274,-85"/>
<text text-anchor="start" x="282" y="-103" font-family="Helvetica,sans-Serif" font-size="10.00" fill="#000000">MapRenderer::animateMovement</text>
<text text-anchor="middle" x="357.5" y="-92" font-family="Helvetica,sans-Serif" font-size="10.00" fill="#000000">Tracked</text>
</a>
</g>
</g>
<!-- Node1&#45;&gt;Node2 -->
<g id="edge1" class="edge">
<title>Node1&#45;&gt;Node2</title>
<path fill="none" stroke="#191970" d="M466.6567,-84.5387C458.301,-85.7222 449.68,-86.9433 441.1173,-88.1562"/>
<polygon fill="#191970" stroke="#191970" points="467.2852,-87.9847 476.6955,-83.1168 466.3035,-81.0539 467.2852,-87.9847"/>
</g>
<!-- Node5 -->
<g id="node5" class="node">
<title>Node5</title>
<g id="a_node5"><a xlink:href="classAnimationMovement.html#a0ec9be9fcfb79cc886d112d39670a980" target="_top" xlink:title=" ">
<polygon fill="#ffffff" stroke="#000000" points="300.5,-36 300.5,-66 414.5,-66 414.5,-36 300.5,-36"/>
<text text-anchor="start" x="308.5" y="-54" font-family="Helvetica,sans-Serif" font-size="10.00" fill="#000000">AnimationMovement::</text>
<text text-anchor="middle" x="357.5" y="-43" font-family="Helvetica,sans-Serif" font-size="10.00" fill="#000000">calculateVector</text>
</a>
</g>
</g>
<!-- Node1&#45;&gt;Node5 -->
<g id="edge4" class="edge">
<title>Node1&#45;&gt;Node5</title>
<path fill="none" stroke="#191970" d="M466.7128,-65.8505C449.5,-63.5099 431.1579,-61.0158 414.517,-58.753"/>
<polygon fill="#191970" stroke="#191970" points="466.3151,-69.3285 476.6955,-67.2079 467.2583,-62.3923 466.3151,-69.3285"/>
</g>
<!-- Node3 -->
<g id="node3" class="node">
<title>Node3</title>
<g id="a_node3"><a xlink:href="classClient.html#a4cc6ded21fb38d6341fd91314156920e" target="_top" xlink:title="Client::processCommand Führt einen empfangenen Befehl aus dem Serverprotokoll aus.">
<polygon fill="#ffffff" stroke="#000000" points="102.5,-90.5 102.5,-109.5 233.5,-109.5 233.5,-90.5 102.5,-90.5"/>
<text text-anchor="middle" x="168" y="-97.5" font-family="Helvetica,sans-Serif" font-size="10.00" fill="#000000">Client::processCommand</text>
</a>
</g>
</g>
<!-- Node2&#45;&gt;Node3 -->
<g id="edge2" class="edge">
<title>Node2&#45;&gt;Node3</title>
<path fill="none" stroke="#191970" d="M263.6782,-100C253.5033,-100 243.3141,-100 233.5801,-100"/>
<polygon fill="#191970" stroke="#191970" points="263.831,-103.5001 273.8309,-100 263.8309,-96.5001 263.831,-103.5001"/>
</g>
<!-- Node4 -->
<g id="node4" class="node">
<title>Node4</title>
<g id="a_node4"><a xlink:href="classClient.html#ad2cfacbefea1e51e34c4697403fb82cb" target="_top" xlink:title="Client::run Startet den Client&#45;Thread.">
<polygon fill="#ffffff" stroke="#000000" points="0,-90.5 0,-109.5 62,-109.5 62,-90.5 0,-90.5"/>
<text text-anchor="middle" x="31" y="-97.5" font-family="Helvetica,sans-Serif" font-size="10.00" fill="#000000">Client::run</text>
</a>
</g>
</g>
<!-- Node3&#45;&gt;Node4 -->
<g id="edge3" class="edge">
<title>Node3&#45;&gt;Node4</title>
<path fill="none" stroke="#191970" d="M92.1361,-100C81.5666,-100 71.2337,-100 62.1597,-100"/>
<polygon fill="#191970" stroke="#191970" points="92.3089,-103.5001 102.3089,-100 92.3088,-96.5001 92.3089,-103.5001"/>
</g>
<!-- Node6 -->
<g id="node6" class="node">
<title>Node6</title>
<g id="a_node6"><a xlink:href="classAnimationMovement.html#a98614fc05b08f2cadc06b1bff199d6aa" target="_top" xlink:title="AnimationMovement::calculateVector Berechnet den Vektor, den die Animation entlangläuft.">
<polygon fill="#ffffff" stroke="#000000" points="111,-39 111,-69 225,-69 225,-39 111,-39"/>
<text text-anchor="start" x="119" y="-57" font-family="Helvetica,sans-Serif" font-size="10.00" fill="#000000">AnimationMovement::</text>
<text text-anchor="middle" x="168" y="-46" font-family="Helvetica,sans-Serif" font-size="10.00" fill="#000000">calculateVector</text>
</a>
</g>
</g>
<!-- Node5&#45;&gt;Node6 -->
<g id="edge5" class="edge">
<title>Node5&#45;&gt;Node6</title>
<path fill="none" stroke="#191970" d="M290.1614,-52.066C268.9617,-52.4017 245.7587,-52.769 225.3232,-53.0925"/>
<polygon fill="#191970" stroke="#191970" points="290.4435,-55.5621 300.3868,-51.9042 290.3326,-48.563 290.4435,-55.5621"/>
</g>
<!-- Node7 -->
<g id="node7" class="node">
<title>Node7</title>
<g id="a_node7"><a xlink:href="classAnimationMovement.html#a9cdb7ef489af5bb1a09c94747c73a213" target="_top" xlink:title="AnimationMovement::move Führt einen Schritt der Animation durch.">
<polygon fill="#ffffff" stroke="#000000" points="98,-.5 98,-19.5 238,-19.5 238,-.5 98,-.5"/>
<text text-anchor="middle" x="168" y="-7.5" font-family="Helvetica,sans-Serif" font-size="10.00" fill="#000000">AnimationMovement::move</text>
</a>
</g>
</g>
<!-- Node5&#45;&gt;Node7 -->
<g id="edge6" class="edge">
<title>Node5&#45;&gt;Node7</title>
<path fill="none" stroke="#191970" d="M290.5696,-36.519C264.5129,-30.8814 235.3761,-24.5774 212.0502,-19.5307"/>
<polygon fill="#191970" stroke="#191970" points="289.8728,-39.9492 300.3868,-38.643 291.3531,-33.1075 289.8728,-39.9492"/>
</g>
</g>
</svg>
        <g id="navigator" transform="translate(0 0)" fill="#404254">
                <rect fill="#f2f5e9" fill-opacity="0.5" stroke="#606060" stroke-width=".5" x="0" y="0" width="60" height="60"/>
                <use id="zoomplus" xlink:href="#zoomPlus" x="17" y="9" onmousedown="handleZoom(evt,'in')"/>
                <use id="zoomminus" xlink:href="#zoomMin" x="42" y="9" onmousedown="handleZoom(evt,'out')"/>
                <use id="reset" xlink:href="#resetDef" x="30" y="36" onmousedown="handleReset()"/>
                <g id="arrowUp" xlink:href="#dirArrow" transform="translate(30 24)" onmousedown="handlePan(0,-1)">
                  <use xlink:href="#rim" fill="#404040">
                        <set attributeName="fill" to="#808080" begin="arrowUp.mouseover" end="arrowUp.mouseout"/>
                  </use>
                  <path fill="none" stroke="white" stroke-width="1.5" d="M0,-3.0v7 M-2.5,-0.5L0,-3.0L2.5,-0.5"/>
                </g>
                <g id="arrowRight" xlink:href="#dirArrow" transform="rotate(90) translate(36 -43)" onmousedown="handlePan(1,0)">
                  <use xlink:href="#rim" fill="#404040">
                        <set attributeName="fill" to="#808080" begin="arrowRight.mouseover" end="arrowRight.mouseout"/>
                  </use>
                  <path fill="none" stroke="white" stroke-width="1.5" d="M0,-3.0v7 M-2.5,-0.5L0,-3.0L2.5,-0.5"/>
                </g>
                <g id="arrowDown" xlink:href="#dirArrow" transform="rotate(180) translate(-30 -48)" onmousedown="handlePan(0,1)">
                  <use xlink:href="#rim" fill="#404040">
                        <set attributeName="fill" to="#808080" begin="arrowDown.mouseover" end="arrowDown.mouseout"/>
                  </use>
                  <path fill="none" stroke="white" stroke-width="1.5" d="M0,-3.0v7 M-2.5,-0.5L0,-3.0L2.5,-0.5"/>
                </g>
                <g id="arrowLeft" xlink:href="#dirArrow" transform="rotate(270) translate(-36 17)" onmousedown="handlePan(-1,0)">
                  <use xlink:href="#rim" fill="#404040">
                        <set attributeName="fill" to="#808080" begin="arrowLeft.mouseover" end="arrowLeft.mouseout"/>
                  </use>
                  <path fill="none" stroke="white" stroke-width="1.5" d="M0,-3.0v7 M-2.5,-0.5L0,-3.0L2.5,-0.5"/>
                </g>
        </g>
        <svg viewBox="0 0 15 15" width="100%" height="30px" preserveAspectRatio="xMaxYMin meet">
         <g id="arrow_out" transform="scale(0.3 0.3)">
          <a xlink:href="classAnimationMovement_a9387f3bdf129e82ef558d16d446769d1_icgraph_org.svg" target="_base">
           <rect id="button" ry="5" rx="5" y="6" x="6" height="38" width="38"
                fill="#f2f5e9" fill-opacity="0.5" stroke="#606060" stroke-width="1.0"/>
           <path id="arrow"
             d="M 11.500037,31.436501 C 11.940474,20.09759 22.043105,11.32322 32.158766,21.979434 L 37.068811,17.246167 C 37.068811,17.246167 37.088388,32 37.088388,32 L 22.160133,31.978069 C 22.160133,31.978069 26.997745,27.140456 26.997745,27.140456 C 18.528582,18.264221 13.291696,25.230495 11.500037,31.436501 z"
             style="fill:#404040;"/>
          </a>
         </g>
        </svg>
</svg>
