<?xml version="1.0" encoding="UTF-8" standalone="no"?>
<!DOCTYPE svg PUBLIC "-//W3C//DTD SVG 1.1//EN"
 "http://www.w3.org/Graphics/SVG/1.1/DTD/svg11.dtd">
<!-- Generated by graphviz version 2.40.1 (20161225.0304)
 -->
<!-- Title: DataModel::getHoverY Pages: 1 -->
<svg width="381pt" height="104pt"
 viewBox="0.00 0.00 381.00 104.00" xmlns="http://www.w3.org/2000/svg" xmlns:xlink="http://www.w3.org/1999/xlink">
<g id="graph0" class="graph" transform="scale(1 1) rotate(0) translate(4 100)">
<title>DataModel::getHoverY</title>
<polygon fill="#ffffff" stroke="transparent" points="-4,4 -4,-100 377,-100 377,4 -4,4"/>
<!-- Node1 -->
<g id="node1" class="node">
<title>Node1</title>
<g id="a_node1"><a xlink:title="DataModel::getHoverX Gibt die aktuelle Koordinate der Kachel zur端ck 端ber der die Maus ist.">
<polygon fill="#bfbfbf" stroke="#000000" points="252,-38.5 252,-57.5 373,-57.5 373,-38.5 252,-38.5"/>
<text text-anchor="middle" x="312.5" y="-45.5" font-family="Helvetica,sans-Serif" font-size="10.00" fill="#000000">DataModel::getHoverY</text>
</a>
</g>
</g>
<!-- Node2 -->
<g id="node2" class="node">
<title>Node2</title>
<g id="a_node2"><a xlink:href="classClient.html#a1be75a3d041ef5b07d4f0f50d3f21e9c" target="_top" xlink:title="Client::onLeftclick F端hrt einen Linksclick durch.">
<polygon fill="#ffffff" stroke="#000000" points="115.5,-76.5 115.5,-95.5 210.5,-95.5 210.5,-76.5 115.5,-76.5"/>
<text text-anchor="middle" x="163" y="-83.5" font-family="Helvetica,sans-Serif" font-size="10.00" fill="#000000">Client::onLeftclick</text>
</a>
</g>
</g>
<!-- Node1&#45;&gt;Node2 -->
<g id="edge1" class="edge">
<title>Node1&#45;&gt;Node2</title>
<path fill="none" stroke="#191970" d="M264.8484,-60.1121C244.0274,-65.4044 219.9623,-71.5213 200.4539,-76.4799"/>
<polygon fill="#191970" stroke="#191970" points="265.9453,-63.4447 274.7748,-57.589 264.2208,-56.6604 265.9453,-63.4447"/>
</g>
<!-- Node4 -->
<g id="node4" class="node">
<title>Node4</title>
<g id="a_node4"><a xlink:href="classClient.html#a423592967803355986a359fb34e268ad" target="_top" xlink:title="Client::onRightclick F端hrt einen Rechtsklick durch.">
<polygon fill="#ffffff" stroke="#000000" points="112,-38.5 112,-57.5 214,-57.5 214,-38.5 112,-38.5"/>
<text text-anchor="middle" x="163" y="-45.5" font-family="Helvetica,sans-Serif" font-size="10.00" fill="#000000">Client::onRightclick</text>
</a>
</g>
</g>
<!-- Node1&#45;&gt;Node4 -->
<g id="edge3" class="edge">
<title>Node1&#45;&gt;Node4</title>
<path fill="none" stroke="#191970" d="M241.686,-48C232.4099,-48 223.0527,-48 214.188,-48"/>
<polygon fill="#191970" stroke="#191970" points="241.6927,-51.5001 251.6926,-48 241.6926,-44.5001 241.6927,-51.5001"/>
</g>
<!-- Node5 -->
<g id="node5" class="node">
<title>Node5</title>
<g id="a_node5"><a xlink:href="classMinimap.html#ae162eea6dd404a3e3644516567a28334" target="_top" xlink:title="Minimap::paintEvent Rendert die Minimap.">
<polygon fill="#ffffff" stroke="#000000" points="110,-.5 110,-19.5 216,-19.5 216,-.5 110,-.5"/>
<text text-anchor="middle" x="163" y="-7.5" font-family="Helvetica,sans-Serif" font-size="10.00" fill="#000000">Minimap::paintEvent</text>
</a>
</g>
</g>
<!-- Node1&#45;&gt;Node5 -->
<g id="edge4" class="edge">
<title>Node1&#45;&gt;Node5</title>
<path fill="none" stroke="#191970" d="M264.8484,-35.8879C244.0274,-30.5956 219.9623,-24.4787 200.4539,-19.5201"/>
<polygon fill="#191970" stroke="#191970" points="264.2208,-39.3396 274.7748,-38.411 265.9453,-32.5553 264.2208,-39.3396"/>
</g>
<!-- Node3 -->
<g id="node3" class="node">
<title>Node3</title>
<g id="a_node3"><a xlink:href="classClient.html#a259d03bc8e9c317d6aeb86a68d7d0b22" target="_top" xlink:title="Client::Client Erzeugt einen neuen Client.">
<polygon fill="#ffffff" stroke="#000000" points="0,-76.5 0,-95.5 74,-95.5 74,-76.5 0,-76.5"/>
<text text-anchor="middle" x="37" y="-83.5" font-family="Helvetica,sans-Serif" font-size="10.00" fill="#000000">Client::Client</text>
</a>
</g>
</g>
<!-- Node2&#45;&gt;Node3 -->
<g id="edge2" class="edge">
<title>Node2&#45;&gt;Node3</title>
<path fill="none" stroke="#191970" d="M105.2996,-86C94.6958,-86 83.8902,-86 74.0961,-86"/>
<polygon fill="#191970" stroke="#191970" points="105.3648,-89.5001 115.3648,-86 105.3648,-82.5001 105.3648,-89.5001"/>
</g>
</g>
</svg>
