<?xml version="1.0" encoding="UTF-8" standalone="no"?>
<!DOCTYPE svg PUBLIC "-//W3C//DTD SVG 1.1//EN"
 "http://www.w3.org/Graphics/SVG/1.1/DTD/svg11.dtd">
<!-- Generated by graphviz version 2.40.1 (20161225.0304)
 -->
<!-- Title: Scene Pages: 1 -->
<svg width="735pt" height="1136pt"
 viewBox="0.00 0.00 735.00 1136.00" xmlns="http://www.w3.org/2000/svg" xmlns:xlink="http://www.w3.org/1999/xlink">
<g id="graph0" class="graph" transform="scale(1 1) rotate(0) translate(4 1132)">
<title>Scene</title>
<polygon fill="#ffffff" stroke="transparent" points="-4,4 -4,-1132 731,-1132 731,4 -4,4"/>
<!-- Node1 -->
<g id="node1" class="node">
<title>Node1</title>
<g id="a_node1"><a xlink:title=" ">
<polygon fill="#bfbfbf" stroke="#000000" points="342,-.5 342,-200.5 470,-200.5 470,-.5 342,-.5"/>
<text text-anchor="middle" x="406" y="-188.5" font-family="Helvetica,sans-Serif" font-size="10.00" fill="#000000">Scene</text>
<polyline fill="none" stroke="#000000" points="342,-181.5 470,-181.5 "/>
<text text-anchor="start" x="350" y="-169.5" font-family="Helvetica,sans-Serif" font-size="10.00" fill="#000000">+ MAP_SIZE</text>
<text text-anchor="start" x="350" y="-158.5" font-family="Helvetica,sans-Serif" font-size="10.00" fill="#000000">+ TILE_SIZE</text>
<text text-anchor="start" x="350" y="-147.5" font-family="Helvetica,sans-Serif" font-size="10.00" fill="#000000">&#45; radiusHighlighter</text>
<text text-anchor="start" x="350" y="-136.5" font-family="Helvetica,sans-Serif" font-size="10.00" fill="#000000">&#45; textHint</text>
<text text-anchor="start" x="350" y="-125.5" font-family="Helvetica,sans-Serif" font-size="10.00" fill="#000000">&#45; showRadius</text>
<text text-anchor="start" x="350" y="-114.5" font-family="Helvetica,sans-Serif" font-size="10.00" fill="#000000">&#45; players</text>
<polyline fill="none" stroke="#000000" points="342,-107.5 470,-107.5 "/>
<text text-anchor="start" x="350" y="-95.5" font-family="Helvetica,sans-Serif" font-size="10.00" fill="#000000">+ Scene()</text>
<text text-anchor="start" x="350" y="-84.5" font-family="Helvetica,sans-Serif" font-size="10.00" fill="#000000">+ generateWorld()</text>
<text text-anchor="start" x="350" y="-73.5" font-family="Helvetica,sans-Serif" font-size="10.00" fill="#000000">+ setActiveTile()</text>
<text text-anchor="start" x="350" y="-62.5" font-family="Helvetica,sans-Serif" font-size="10.00" fill="#000000">+ getTileAt()</text>
<text text-anchor="start" x="350" y="-51.5" font-family="Helvetica,sans-Serif" font-size="10.00" fill="#000000">+ setTileAt()</text>
<text text-anchor="start" x="350" y="-40.5" font-family="Helvetica,sans-Serif" font-size="10.00" fill="#000000">+ tileChanged()</text>
<text text-anchor="start" x="350" y="-29.5" font-family="Helvetica,sans-Serif" font-size="10.00" fill="#000000">+ tick()</text>
<text text-anchor="start" x="350" y="-18.5" font-family="Helvetica,sans-Serif" font-size="10.00" fill="#000000">+ onSetTile()</text>
<text text-anchor="start" x="350" y="-7.5" font-family="Helvetica,sans-Serif" font-size="10.00" fill="#000000">+ updatePlayerPosition()</text>
</a>
</g>
</g>
<!-- Node2 -->
<g id="node2" class="node">
<title>Node2</title>
<g id="a_node2"><a xlink:title=" ">
<polygon fill="#ffffff" stroke="#bfbfbf" points="63,-446.5 63,-503.5 157,-503.5 157,-446.5 63,-446.5"/>
<text text-anchor="middle" x="110" y="-491.5" font-family="Helvetica,sans-Serif" font-size="10.00" fill="#000000">QGraphicsScene</text>
<polyline fill="none" stroke="#bfbfbf" points="63,-484.5 157,-484.5 "/>
<text text-anchor="middle" x="110" y="-472.5" font-family="Helvetica,sans-Serif" font-size="10.00" fill="#000000"> </text>
<polyline fill="none" stroke="#bfbfbf" points="63,-465.5 157,-465.5 "/>
<text text-anchor="middle" x="110" y="-453.5" font-family="Helvetica,sans-Serif" font-size="10.00" fill="#000000"> </text>
</a>
</g>
</g>
<!-- Node2&#45;&gt;Node1 -->
<g id="edge1" class="edge">
<title>Node2&#45;&gt;Node1</title>
<path fill="none" stroke="#191970" d="M111.766,-436.2072C115.613,-390.0485 127.7633,-312.5139 166,-259 210.2697,-197.0426 286.9631,-152.656 341.7408,-126.8926"/>
<polygon fill="none" stroke="#191970" points="108.2596,-436.1648 111.0097,-446.3965 115.2404,-436.683 108.2596,-436.1648"/>
</g>
<!-- Node3 -->
<g id="node3" class="node">
<title>Node3</title>
<g id="a_node3"><a xlink:href="classHighlighter.html" target="_top" xlink:title=" ">
<polygon fill="#ffffff" stroke="#000000" points="366.5,-964.5 366.5,-1032.5 445.5,-1032.5 445.5,-964.5 366.5,-964.5"/>
<text text-anchor="middle" x="406" y="-1020.5" font-family="Helvetica,sans-Serif" font-size="10.00" fill="#000000">Highlighter</text>
<polyline fill="none" stroke="#000000" points="366.5,-1013.5 445.5,-1013.5 "/>
<text text-anchor="start" x="374.5" y="-1001.5" font-family="Helvetica,sans-Serif" font-size="10.00" fill="#000000">&#45; outline</text>
<polyline fill="none" stroke="#000000" points="366.5,-994.5 445.5,-994.5 "/>
<text text-anchor="start" x="374.5" y="-982.5" font-family="Helvetica,sans-Serif" font-size="10.00" fill="#000000">+ Highlighter()</text>
<text text-anchor="start" x="374.5" y="-971.5" font-family="Helvetica,sans-Serif" font-size="10.00" fill="#000000">+ setColor()</text>
</a>
</g>
</g>
<!-- Node3&#45;&gt;Node1 -->
<g id="edge2" class="edge">
<title>Node3&#45;&gt;Node1</title>
<path fill="none" stroke="#404040" d="M432.784,-964.3622C436.1609,-958.5164 439.0954,-952.2906 441,-946 485.2404,-799.884 457.5571,-410.7662 441,-259 439.3439,-243.8199 436.8208,-227.9647 433.8718,-212.4003"/>
<polygon fill="none" stroke="#404040" points="433.8609,-212.3444 428.7764,-207.2309 431.5411,-200.5708 436.6255,-205.6843 433.8609,-212.3444"/>
<text text-anchor="middle" x="491" y="-712" font-family="Helvetica,sans-Serif" font-size="10.00" fill="#000000"> &#45;highlighter</text>
</g>
<!-- Node8 -->
<g id="node8" class="node">
<title>Node8</title>
<g id="a_node8"><a xlink:href="classPlayer.html" target="_top" xlink:title=" ">
<polygon fill="#ffffff" stroke="#000000" points="316.5,-788 316.5,-867 397.5,-867 397.5,-788 316.5,-788"/>
<text text-anchor="middle" x="357" y="-855" font-family="Helvetica,sans-Serif" font-size="10.00" fill="#000000">Player</text>
<polyline fill="none" stroke="#000000" points="316.5,-848 397.5,-848 "/>
<text text-anchor="start" x="324.5" y="-836" font-family="Helvetica,sans-Serif" font-size="10.00" fill="#000000">+ posX</text>
<text text-anchor="start" x="324.5" y="-825" font-family="Helvetica,sans-Serif" font-size="10.00" fill="#000000">+ posY</text>
<polyline fill="none" stroke="#000000" points="316.5,-818 397.5,-818 "/>
<text text-anchor="start" x="324.5" y="-806" font-family="Helvetica,sans-Serif" font-size="10.00" fill="#000000">+ Player()</text>
<text text-anchor="start" x="324.5" y="-795" font-family="Helvetica,sans-Serif" font-size="10.00" fill="#000000">+ setPosition()</text>
</a>
</g>
</g>
<!-- Node3&#45;&gt;Node8 -->
<g id="edge9" class="edge">
<title>Node3&#45;&gt;Node8</title>
<path fill="none" stroke="#404040" d="M392.258,-964.2603C390.0349,-958.2209 387.8566,-951.9598 386,-946 379.2333,-924.2784 373.0393,-899.9219 368.1288,-878.9661"/>
<polygon fill="none" stroke="#404040" points="368.0817,-878.7608 362.8383,-873.8104 365.3913,-867.0663 370.6346,-872.0168 368.0817,-878.7608"/>
<text text-anchor="middle" x="413.5" y="-938" font-family="Helvetica,sans-Serif" font-size="10.00" fill="#000000"> +highlighter</text>
</g>
<!-- Node4 -->
<g id="node4" class="node">
<title>Node4</title>
<g id="a_node4"><a xlink:title=" ">
<polygon fill="#ffffff" stroke="#bfbfbf" points="354,-1070.5 354,-1127.5 458,-1127.5 458,-1070.5 354,-1070.5"/>
<text text-anchor="middle" x="406" y="-1115.5" font-family="Helvetica,sans-Serif" font-size="10.00" fill="#000000">QGraphicsRectItem</text>
<polyline fill="none" stroke="#bfbfbf" points="354,-1108.5 458,-1108.5 "/>
<text text-anchor="middle" x="406" y="-1096.5" font-family="Helvetica,sans-Serif" font-size="10.00" fill="#000000"> </text>
<polyline fill="none" stroke="#bfbfbf" points="354,-1089.5 458,-1089.5 "/>
<text text-anchor="middle" x="406" y="-1077.5" font-family="Helvetica,sans-Serif" font-size="10.00" fill="#000000"> </text>
</a>
</g>
</g>
<!-- Node4&#45;&gt;Node3 -->
<g id="edge3" class="edge">
<title>Node4&#45;&gt;Node3</title>
<path fill="none" stroke="#191970" d="M406,-1060.1903C406,-1051.1667 406,-1041.6233 406,-1032.8097"/>
<polygon fill="none" stroke="#191970" points="402.5001,-1060.4695 406,-1070.4696 409.5001,-1060.4696 402.5001,-1060.4695"/>
</g>
<!-- Node5 -->
<g id="node5" class="node">
<title>Node5</title>
<g id="a_node5"><a xlink:href="classMapTile.html" target="_top" xlink:title=" ">
<polygon fill="#ffffff" stroke="#000000" points="625,-380.5 625,-569.5 727,-569.5 727,-380.5 625,-380.5"/>
<text text-anchor="middle" x="676" y="-557.5" font-family="Helvetica,sans-Serif" font-size="10.00" fill="#000000">MapTile</text>
<polyline fill="none" stroke="#000000" points="625,-550.5 727,-550.5 "/>
<text text-anchor="start" x="633" y="-538.5" font-family="Helvetica,sans-Serif" font-size="10.00" fill="#000000">&#45; type</text>
<text text-anchor="start" x="633" y="-527.5" font-family="Helvetica,sans-Serif" font-size="10.00" fill="#000000">&#45; pixmapItem</text>
<text text-anchor="start" x="633" y="-516.5" font-family="Helvetica,sans-Serif" font-size="10.00" fill="#000000">&#45; currentRotation</text>
<polyline fill="none" stroke="#000000" points="625,-509.5 727,-509.5 "/>
<text text-anchor="start" x="633" y="-497.5" font-family="Helvetica,sans-Serif" font-size="10.00" fill="#000000">+ MapTile()</text>
<text text-anchor="start" x="633" y="-486.5" font-family="Helvetica,sans-Serif" font-size="10.00" fill="#000000">+ MapTile()</text>
<text text-anchor="start" x="633" y="-475.5" font-family="Helvetica,sans-Serif" font-size="10.00" fill="#000000">+ setType()</text>
<text text-anchor="start" x="633" y="-464.5" font-family="Helvetica,sans-Serif" font-size="10.00" fill="#000000">+ getType()</text>
<text text-anchor="start" x="633" y="-453.5" font-family="Helvetica,sans-Serif" font-size="10.00" fill="#000000">+ setRotation()</text>
<text text-anchor="start" x="633" y="-442.5" font-family="Helvetica,sans-Serif" font-size="10.00" fill="#000000">+ getRotation()</text>
<text text-anchor="start" x="633" y="-431.5" font-family="Helvetica,sans-Serif" font-size="10.00" fill="#000000">+ getRotationDeg()</text>
<text text-anchor="start" x="633" y="-420.5" font-family="Helvetica,sans-Serif" font-size="10.00" fill="#000000">+ setPosition()</text>
<text text-anchor="start" x="633" y="-409.5" font-family="Helvetica,sans-Serif" font-size="10.00" fill="#000000">+ isRiver()</text>
<text text-anchor="start" x="633" y="-398.5" font-family="Helvetica,sans-Serif" font-size="10.00" fill="#000000">+ isRail()</text>
<text text-anchor="start" x="633" y="-387.5" font-family="Helvetica,sans-Serif" font-size="10.00" fill="#000000">und 7 mehr ...</text>
</a>
</g>
</g>
<!-- Node5&#45;&gt;Node1 -->
<g id="edge4" class="edge">
<title>Node5&#45;&gt;Node1</title>
<path fill="none" stroke="#404040" d="M660.8364,-380.3512C651.1944,-340.3857 635.6883,-294.8964 611,-259 577.4861,-210.2714 524.3334,-169.7922 480.5493,-141.9398"/>
<polygon fill="none" stroke="#404040" points="480.3933,-141.8424 473.1854,-142.0575 470.2145,-135.4868 477.4225,-135.2717 480.3933,-141.8424"/>
<text text-anchor="middle" x="621" y="-233" font-family="Helvetica,sans-Serif" font-size="10.00" fill="#000000"> &#45;activeTile</text>
<text text-anchor="middle" x="621" y="-222" font-family="Helvetica,sans-Serif" font-size="10.00" fill="#000000">+data</text>
</g>
<!-- Node6 -->
<g id="node6" class="node">
<title>Node6</title>
<g id="a_node6"><a xlink:href="classGraphicsManager.html" target="_top" xlink:title=" ">
<polygon fill="#ffffff" stroke="#000000" points="493.5,-793.5 493.5,-861.5 606.5,-861.5 606.5,-793.5 493.5,-793.5"/>
<text text-anchor="middle" x="550" y="-849.5" font-family="Helvetica,sans-Serif" font-size="10.00" fill="#000000">GraphicsManager</text>
<polyline fill="none" stroke="#000000" points="493.5,-842.5 606.5,-842.5 "/>
<text text-anchor="start" x="501.5" y="-830.5" font-family="Helvetica,sans-Serif" font-size="10.00" fill="#000000">+ GRAPHICS</text>
<polyline fill="none" stroke="#000000" points="493.5,-823.5 606.5,-823.5 "/>
<text text-anchor="start" x="501.5" y="-811.5" font-family="Helvetica,sans-Serif" font-size="10.00" fill="#000000">+ GraphicsManager()</text>
<text text-anchor="start" x="501.5" y="-800.5" font-family="Helvetica,sans-Serif" font-size="10.00" fill="#000000">+ get()</text>
</a>
</g>
</g>
<!-- Node6&#45;&gt;Node1 -->
<g id="edge7" class="edge">
<title>Node6&#45;&gt;Node1</title>
<path fill="none" stroke="#404040" d="M545.164,-793.2909C541.2798,-765.6884 535.7149,-725.8543 531,-691 502.6373,-481.3298 533.4687,-420.5187 469,-219 468.2374,-216.6161 467.4278,-214.2237 466.5766,-211.8275"/>
<polygon fill="none" stroke="#404040" points="466.5745,-211.8218 460.7029,-207.6355 462.309,-200.6055 468.1805,-204.7918 466.5745,-211.8218"/>
<text text-anchor="middle" x="573.5" y="-472.5" font-family="Helvetica,sans-Serif" font-size="10.00" fill="#000000"> &#45;graphicsManager</text>
</g>
<!-- Node6&#45;&gt;Node5 -->
<g id="edge5" class="edge">
<title>Node6&#45;&gt;Node5</title>
<path fill="none" stroke="#404040" d="M554.8696,-793.3317C559.7576,-768.1987 569.2189,-734.1735 587,-709 594.6925,-698.1095 603.3639,-701.9302 611,-691 633.5649,-658.7009 648.433,-618.4266 658.1689,-581.4346"/>
<polygon fill="none" stroke="#404040" points="658.2297,-581.1924 655.8117,-574.3987 661.1528,-569.5538 663.5707,-576.3475 658.2297,-581.1924"/>
<text text-anchor="middle" x="629.5" y="-712" font-family="Helvetica,sans-Serif" font-size="10.00" fill="#000000"> &#45;graphicsManager</text>
</g>
<!-- Node7 -->
<g id="node7" class="node">
<title>Node7</title>
<g id="a_node7"><a xlink:href="classCity.html" target="_top" xlink:title=" ">
<polygon fill="#ffffff" stroke="#000000" points="634.5,-738.5 634.5,-916.5 717.5,-916.5 717.5,-738.5 634.5,-738.5"/>
<text text-anchor="middle" x="676" y="-904.5" font-family="Helvetica,sans-Serif" font-size="10.00" fill="#000000">City</text>
<polyline fill="none" stroke="#000000" points="634.5,-897.5 717.5,-897.5 "/>
<text text-anchor="start" x="642.5" y="-885.5" font-family="Helvetica,sans-Serif" font-size="10.00" fill="#000000">&#45; size</text>
<text text-anchor="start" x="642.5" y="-874.5" font-family="Helvetica,sans-Serif" font-size="10.00" fill="#000000">&#45; centerX</text>
<text text-anchor="start" x="642.5" y="-863.5" font-family="Helvetica,sans-Serif" font-size="10.00" fill="#000000">&#45; centerY</text>
<text text-anchor="start" x="642.5" y="-852.5" font-family="Helvetica,sans-Serif" font-size="10.00" fill="#000000">&#45; name</text>
<polyline fill="none" stroke="#000000" points="634.5,-845.5 717.5,-845.5 "/>
<text text-anchor="start" x="642.5" y="-833.5" font-family="Helvetica,sans-Serif" font-size="10.00" fill="#000000">+ City()</text>
<text text-anchor="start" x="642.5" y="-822.5" font-family="Helvetica,sans-Serif" font-size="10.00" fill="#000000">+ City()</text>
<text text-anchor="start" x="642.5" y="-811.5" font-family="Helvetica,sans-Serif" font-size="10.00" fill="#000000">+ getSize()</text>
<text text-anchor="start" x="642.5" y="-800.5" font-family="Helvetica,sans-Serif" font-size="10.00" fill="#000000">+ getCenterX()</text>
<text text-anchor="start" x="642.5" y="-789.5" font-family="Helvetica,sans-Serif" font-size="10.00" fill="#000000">+ getCenterY()</text>
<text text-anchor="start" x="642.5" y="-778.5" font-family="Helvetica,sans-Serif" font-size="10.00" fill="#000000">+ getName()</text>
<text text-anchor="start" x="642.5" y="-767.5" font-family="Helvetica,sans-Serif" font-size="10.00" fill="#000000">+ setSize()</text>
<text text-anchor="start" x="642.5" y="-756.5" font-family="Helvetica,sans-Serif" font-size="10.00" fill="#000000">+ setCenter()</text>
<text text-anchor="start" x="642.5" y="-745.5" font-family="Helvetica,sans-Serif" font-size="10.00" fill="#000000">+ setName()</text>
</a>
</g>
</g>
<!-- Node7&#45;&gt;Node5 -->
<g id="edge6" class="edge">
<title>Node7&#45;&gt;Node5</title>
<path fill="none" stroke="#404040" d="M676,-738.0937C676,-690.5147 676,-631.6791 676,-581.7199"/>
<polygon fill="none" stroke="#404040" points="676.0001,-581.5545 672,-575.5545 676,-569.5545 680,-575.5545 676.0001,-581.5545"/>
<text text-anchor="middle" x="687" y="-712" font-family="Helvetica,sans-Serif" font-size="10.00" fill="#000000"> &#45;city</text>
</g>
<!-- Node8&#45;&gt;Node1 -->
<g id="edge8" class="edge">
<title>Node8&#45;&gt;Node1</title>
<path fill="none" stroke="#404040" d="M355.3569,-787.6786C352.0916,-694.701 347.0217,-456.2376 371,-259 372.8428,-243.8414 375.4737,-227.9986 378.4763,-212.4404"/>
<polygon fill="none" stroke="#404040" points="378.4879,-212.3821 375.7405,-205.7149 380.8381,-200.6145 383.5855,-207.2817 378.4879,-212.3821"/>
<text text-anchor="middle" x="406" y="-472.5" font-family="Helvetica,sans-Serif" font-size="10.00" fill="#000000"> &#45;secondPlayer</text>
</g>
<!-- Node9 -->
<g id="node9" class="node">
<title>Node9</title>
<g id="a_node9"><a xlink:href="classDataModel.html" target="_top" xlink:title=" ">
<polygon fill="#ffffff" stroke="#000000" points="175.5,-259.5 175.5,-690.5 312.5,-690.5 312.5,-259.5 175.5,-259.5"/>
<text text-anchor="middle" x="244" y="-678.5" font-family="Helvetica,sans-Serif" font-size="10.00" fill="#000000">DataModel</text>
<polyline fill="none" stroke="#000000" points="175.5,-671.5 312.5,-671.5 "/>
<text text-anchor="start" x="183.5" y="-659.5" font-family="Helvetica,sans-Serif" font-size="10.00" fill="#000000">+ RADIUS_DEPOT</text>
<text text-anchor="start" x="183.5" y="-648.5" font-family="Helvetica,sans-Serif" font-size="10.00" fill="#000000">+ RADIUS_STATION</text>
<text text-anchor="start" x="183.5" y="-637.5" font-family="Helvetica,sans-Serif" font-size="10.00" fill="#000000">+ RADIUS_TERMINAL</text>
<text text-anchor="start" x="183.5" y="-626.5" font-family="Helvetica,sans-Serif" font-size="10.00" fill="#000000">+ mapLoaded</text>
<text text-anchor="start" x="183.5" y="-615.5" font-family="Helvetica,sans-Serif" font-size="10.00" fill="#000000">&#45; balance</text>
<text text-anchor="start" x="183.5" y="-604.5" font-family="Helvetica,sans-Serif" font-size="10.00" fill="#000000">&#45; time</text>
<text text-anchor="start" x="183.5" y="-593.5" font-family="Helvetica,sans-Serif" font-size="10.00" fill="#000000">&#45; coordinateX</text>
<text text-anchor="start" x="183.5" y="-582.5" font-family="Helvetica,sans-Serif" font-size="10.00" fill="#000000">&#45; coordinateY</text>
<text text-anchor="start" x="183.5" y="-571.5" font-family="Helvetica,sans-Serif" font-size="10.00" fill="#000000">&#45; ip</text>
<text text-anchor="start" x="183.5" y="-560.5" font-family="Helvetica,sans-Serif" font-size="10.00" fill="#000000">&#45; timeString</text>
<text text-anchor="start" x="183.5" y="-549.5" font-family="Helvetica,sans-Serif" font-size="10.00" fill="#000000">&#45; port</text>
<text text-anchor="start" x="183.5" y="-538.5" font-family="Helvetica,sans-Serif" font-size="10.00" fill="#000000">&#45; balanceLabel</text>
<text text-anchor="start" x="183.5" y="-527.5" font-family="Helvetica,sans-Serif" font-size="10.00" fill="#000000">&#45; timeLabel</text>
<text text-anchor="start" x="183.5" y="-516.5" font-family="Helvetica,sans-Serif" font-size="10.00" fill="#000000">&#45; positionLabel</text>
<text text-anchor="start" x="183.5" y="-505.5" font-family="Helvetica,sans-Serif" font-size="10.00" fill="#000000">&#45; statusDisplay</text>
<text text-anchor="start" x="183.5" y="-494.5" font-family="Helvetica,sans-Serif" font-size="10.00" fill="#000000">&#45; connectionLabel</text>
<text text-anchor="start" x="183.5" y="-483.5" font-family="Helvetica,sans-Serif" font-size="10.00" fill="#000000">&#45; mode</text>
<polyline fill="none" stroke="#000000" points="175.5,-476.5 312.5,-476.5 "/>
<text text-anchor="start" x="183.5" y="-464.5" font-family="Helvetica,sans-Serif" font-size="10.00" fill="#000000">+ DataModel()</text>
<text text-anchor="start" x="183.5" y="-453.5" font-family="Helvetica,sans-Serif" font-size="10.00" fill="#000000">+ getBalance()</text>
<text text-anchor="start" x="183.5" y="-442.5" font-family="Helvetica,sans-Serif" font-size="10.00" fill="#000000">+ updateBalance()</text>
<text text-anchor="start" x="183.5" y="-431.5" font-family="Helvetica,sans-Serif" font-size="10.00" fill="#000000">+ takeBalance()</text>
<text text-anchor="start" x="183.5" y="-420.5" font-family="Helvetica,sans-Serif" font-size="10.00" fill="#000000">+ timeTick()</text>
<text text-anchor="start" x="183.5" y="-409.5" font-family="Helvetica,sans-Serif" font-size="10.00" fill="#000000">+ getTime()</text>
<text text-anchor="start" x="183.5" y="-398.5" font-family="Helvetica,sans-Serif" font-size="10.00" fill="#000000">+ setTime()</text>
<text text-anchor="start" x="183.5" y="-387.5" font-family="Helvetica,sans-Serif" font-size="10.00" fill="#000000">+ getSystemMillis()</text>
<text text-anchor="start" x="183.5" y="-376.5" font-family="Helvetica,sans-Serif" font-size="10.00" fill="#000000">+ updateCoordinates()</text>
<text text-anchor="start" x="183.5" y="-365.5" font-family="Helvetica,sans-Serif" font-size="10.00" fill="#000000">+ getHoverX()</text>
<text text-anchor="start" x="183.5" y="-354.5" font-family="Helvetica,sans-Serif" font-size="10.00" fill="#000000">und 16 mehr ...</text>
<text text-anchor="start" x="183.5" y="-343.5" font-family="Helvetica,sans-Serif" font-size="10.00" fill="#000000">+ setDefaultMode()</text>
<text text-anchor="start" x="183.5" y="-332.5" font-family="Helvetica,sans-Serif" font-size="10.00" fill="#000000">+ setTrainStationMode()</text>
<text text-anchor="start" x="183.5" y="-321.5" font-family="Helvetica,sans-Serif" font-size="10.00" fill="#000000">+ setDepotMode()</text>
<text text-anchor="start" x="183.5" y="-310.5" font-family="Helvetica,sans-Serif" font-size="10.00" fill="#000000">+ setTerminalMode()</text>
<text text-anchor="start" x="183.5" y="-299.5" font-family="Helvetica,sans-Serif" font-size="10.00" fill="#000000">+ setBridgeMode()</text>
<text text-anchor="start" x="183.5" y="-288.5" font-family="Helvetica,sans-Serif" font-size="10.00" fill="#000000">+ setRailPlacementMode()</text>
<text text-anchor="start" x="183.5" y="-277.5" font-family="Helvetica,sans-Serif" font-size="10.00" fill="#000000">+ setRemoveMode()</text>
<text text-anchor="start" x="183.5" y="-266.5" font-family="Helvetica,sans-Serif" font-size="10.00" fill="#000000">+ setMapLoaded()</text>
</a>
</g>
</g>
<!-- Node8&#45;&gt;Node9 -->
<g id="edge14" class="edge">
<title>Node8&#45;&gt;Node9</title>
<path fill="none" stroke="#404040" d="M316.0683,-788.3043C298.8824,-769.3665 280.4834,-745.2835 270,-720 267.604,-714.2214 265.3969,-708.3035 263.365,-702.2809"/>
<polygon fill="none" stroke="#404040" points="263.2834,-702.0223 257.6622,-697.5054 259.6696,-690.5794 265.2908,-695.0963 263.2834,-702.0223"/>
<text text-anchor="middle" x="306.5" y="-712" font-family="Helvetica,sans-Serif" font-size="10.00" fill="#000000"> +secondPlayer</text>
</g>
<!-- Node9&#45;&gt;Node1 -->
<g id="edge10" class="edge">
<title>Node9&#45;&gt;Node1</title>
<path fill="none" stroke="#404040" d="M270.8991,-259.4497C275.7237,-245.4378 281.3778,-231.8216 288,-219 299.1753,-197.3628 315.6953,-177.1829 332.858,-159.8282"/>
<polygon fill="none" stroke="#404040" points="333.2876,-159.408 334.7803,-152.3531 341.8666,-151.0175 340.3739,-158.0725 333.2876,-159.408"/>
<text text-anchor="middle" x="315.5" y="-227.5" font-family="Helvetica,sans-Serif" font-size="10.00" fill="#000000"> &#45;dataModel</text>
</g>
<!-- Node10 -->
<g id="node10" class="node">
<title>Node10</title>
<g id="a_node10"><a xlink:title=" ">
<polygon fill="#ffffff" stroke="#bfbfbf" points="212.5,-799 212.5,-856 265.5,-856 265.5,-799 212.5,-799"/>
<text text-anchor="middle" x="239" y="-844" font-family="Helvetica,sans-Serif" font-size="10.00" fill="#000000">QObject</text>
<polyline fill="none" stroke="#bfbfbf" points="212.5,-837 265.5,-837 "/>
<text text-anchor="middle" x="239" y="-825" font-family="Helvetica,sans-Serif" font-size="10.00" fill="#000000"> </text>
<polyline fill="none" stroke="#bfbfbf" points="212.5,-818 265.5,-818 "/>
<text text-anchor="middle" x="239" y="-806" font-family="Helvetica,sans-Serif" font-size="10.00" fill="#000000"> </text>
</a>
</g>
</g>
<!-- Node10&#45;&gt;Node9 -->
<g id="edge11" class="edge">
<title>Node10&#45;&gt;Node9</title>
<path fill="none" stroke="#191970" d="M239.5493,-788.776C239.9068,-763.5672 240.4049,-728.4559 240.9389,-690.8054"/>
<polygon fill="none" stroke="#191970" points="236.0472,-788.9034 239.4049,-798.952 243.0465,-789.0027 236.0472,-788.9034"/>
</g>
<!-- Node11 -->
<g id="node11" class="node">
<title>Node11</title>
<g id="a_node11"><a xlink:href="classInfoWidget.html" target="_top" xlink:title=" ">
<polygon fill="#ffffff" stroke="#000000" points="0,-799 0,-856 80,-856 80,-799 0,-799"/>
<text text-anchor="middle" x="40" y="-844" font-family="Helvetica,sans-Serif" font-size="10.00" fill="#000000">InfoWidget</text>
<polyline fill="none" stroke="#000000" points="0,-837 80,-837 "/>
<text text-anchor="middle" x="40" y="-825" font-family="Helvetica,sans-Serif" font-size="10.00" fill="#000000"> </text>
<polyline fill="none" stroke="#000000" points="0,-818 80,-818 "/>
<text text-anchor="start" x="8" y="-806" font-family="Helvetica,sans-Serif" font-size="10.00" fill="#000000">+ InfoWidget()</text>
</a>
</g>
</g>
<!-- Node11&#45;&gt;Node9 -->
<g id="edge12" class="edge">
<title>Node11&#45;&gt;Node9</title>
<path fill="none" stroke="#404040" d="M54.8836,-798.9596C64.3171,-781.2191 76.9687,-758.0504 89,-738 96.9283,-724.7873 95.6947,-718.2743 108,-709 129.5543,-692.7548 146.4844,-709.645 166,-691 166.1982,-690.8106 166.3959,-690.6208 166.5931,-690.4303"/>
<polygon fill="none" stroke="#404040" points="166.8329,-690.1799 168.0941,-683.0799 175.133,-681.5133 173.8718,-688.6133 166.8329,-690.1799"/>
<text text-anchor="middle" x="135.5" y="-712" font-family="Helvetica,sans-Serif" font-size="10.00" fill="#000000"> &#45;infoWidget</text>
</g>
<!-- Node12 -->
<g id="node12" class="node">
<title>Node12</title>
<g id="a_node12"><a xlink:title=" ">
<polygon fill="#ffffff" stroke="#bfbfbf" points="12,-970 12,-1027 68,-1027 68,-970 12,-970"/>
<text text-anchor="middle" x="40" y="-1015" font-family="Helvetica,sans-Serif" font-size="10.00" fill="#000000">QWidget</text>
<polyline fill="none" stroke="#bfbfbf" points="12,-1008 68,-1008 "/>
<text text-anchor="middle" x="40" y="-996" font-family="Helvetica,sans-Serif" font-size="10.00" fill="#000000"> </text>
<polyline fill="none" stroke="#bfbfbf" points="12,-989 68,-989 "/>
<text text-anchor="middle" x="40" y="-977" font-family="Helvetica,sans-Serif" font-size="10.00" fill="#000000"> </text>
</a>
</g>
</g>
<!-- Node12&#45;&gt;Node11 -->
<g id="edge13" class="edge">
<title>Node12&#45;&gt;Node11</title>
<path fill="none" stroke="#191970" d="M40,-959.7146C40,-928.2509 40,-884.6082 40,-856.2149"/>
<polygon fill="none" stroke="#191970" points="36.5001,-959.8784 40,-969.8784 43.5001,-959.8785 36.5001,-959.8784"/>
</g>
<!-- Node13 -->
<g id="node13" class="node">
<title>Node13</title>
<g id="a_node13"><a xlink:href="classMainWindow.html" target="_top" xlink:title=" ">
<polygon fill="#ffffff" stroke="#000000" points="98,-793.5 98,-861.5 194,-861.5 194,-793.5 98,-793.5"/>
<text text-anchor="middle" x="146" y="-849.5" font-family="Helvetica,sans-Serif" font-size="10.00" fill="#000000">MainWindow</text>
<polyline fill="none" stroke="#000000" points="98,-842.5 194,-842.5 "/>
<text text-anchor="start" x="106" y="-830.5" font-family="Helvetica,sans-Serif" font-size="10.00" fill="#000000">&#45; ui</text>
<polyline fill="none" stroke="#000000" points="98,-823.5 194,-823.5 "/>
<text text-anchor="start" x="106" y="-811.5" font-family="Helvetica,sans-Serif" font-size="10.00" fill="#000000">+ MainWindow()</text>
<text text-anchor="start" x="106" y="-800.5" font-family="Helvetica,sans-Serif" font-size="10.00" fill="#000000">+ ~MainWindow()</text>
</a>
</g>
</g>
<!-- Node13&#45;&gt;Node9 -->
<g id="edge15" class="edge">
<title>Node13&#45;&gt;Node9</title>
<path fill="none" stroke="#404040" d="M151.5331,-793.2936C155.6518,-769.4945 161.7926,-737.1162 169,-709 170.0515,-704.8982 171.1341,-700.7627 172.244,-696.6023"/>
<polygon fill="none" stroke="#404040" points="172.2988,-696.4003 170.0092,-689.5623 175.4406,-684.8188 177.7301,-691.6568 172.2988,-696.4003"/>
<text text-anchor="middle" x="203" y="-712" font-family="Helvetica,sans-Serif" font-size="10.00" fill="#000000"> +mainWindow</text>
</g>
<!-- Node14 -->
<g id="node14" class="node">
<title>Node14</title>
<g id="a_node14"><a xlink:title=" ">
<polygon fill="#ffffff" stroke="#bfbfbf" points="104.5,-970 104.5,-1027 187.5,-1027 187.5,-970 104.5,-970"/>
<text text-anchor="middle" x="146" y="-1015" font-family="Helvetica,sans-Serif" font-size="10.00" fill="#000000">QMainWindow</text>
<polyline fill="none" stroke="#bfbfbf" points="104.5,-1008 187.5,-1008 "/>
<text text-anchor="middle" x="146" y="-996" font-family="Helvetica,sans-Serif" font-size="10.00" fill="#000000"> </text>
<polyline fill="none" stroke="#bfbfbf" points="104.5,-989 187.5,-989 "/>
<text text-anchor="middle" x="146" y="-977" font-family="Helvetica,sans-Serif" font-size="10.00" fill="#000000"> </text>
</a>
</g>
</g>
<!-- Node14&#45;&gt;Node13 -->
<g id="edge16" class="edge">
<title>Node14&#45;&gt;Node13</title>
<path fill="none" stroke="#191970" d="M146,-959.5167C146,-929.9698 146,-889.768 146,-861.5157"/>
<polygon fill="none" stroke="#191970" points="142.5001,-959.8784 146,-969.8784 149.5001,-959.8785 142.5001,-959.8784"/>
</g>
</g>
</svg>
