<?xml version="1.0" encoding="UTF-8" standalone="no"?>
<!DOCTYPE svg PUBLIC "-//W3C//DTD SVG 1.1//EN"
 "http://www.w3.org/Graphics/SVG/1.1/DTD/svg11.dtd">
<!-- Generated by graphviz version 2.40.1 (20161225.0304)
 -->
<!-- Title: MapTile::setRotation Pages: 1 -->
<svg width="517pt" height="142pt"
 viewBox="0.00 0.00 517.00 142.00" xmlns="http://www.w3.org/2000/svg" xmlns:xlink="http://www.w3.org/1999/xlink">
<g id="graph0" class="graph" transform="scale(1 1) rotate(0) translate(4 138)">
<title>MapTile::setRotation</title>
<polygon fill="#ffffff" stroke="transparent" points="-4,4 -4,-138 513,-138 513,4 -4,4"/>
<!-- Node1 -->
<g id="node1" class="node">
<title>Node1</title>
<g id="a_node1"><a xlink:title="MapTile::setRotation Hilfsfunktion zur Rotation im Quadrat.">
<polygon fill="#bfbfbf" stroke="#000000" points="399,-57.5 399,-76.5 509,-76.5 509,-57.5 399,-57.5"/>
<text text-anchor="middle" x="454" y="-64.5" font-family="Helvetica,sans-Serif" font-size="10.00" fill="#000000">MapTile::setRotation</text>
</a>
</g>
</g>
<!-- Node2 -->
<g id="node2" class="node">
<title>Node2</title>
<g id="a_node2"><a xlink:href="classScene.html#a1ef1c0e0972913d4c477ead916cf06b0" target="_top" xlink:title="Scene::generateWorld Diese Methode generiert eine neue Welt.">
<polygon fill="#ffffff" stroke="#000000" points="110,-114.5 110,-133.5 229,-133.5 229,-114.5 110,-114.5"/>
<text text-anchor="middle" x="169.5" y="-121.5" font-family="Helvetica,sans-Serif" font-size="10.00" fill="#000000">Scene::generateWorld</text>
</a>
</g>
</g>
<!-- Node1&#45;&gt;Node2 -->
<g id="edge1" class="edge">
<title>Node1&#45;&gt;Node2</title>
<path fill="none" stroke="#191970" d="M410.4496,-79.3282C395.4787,-83.3412 378.569,-87.6263 363,-91 318.3702,-100.6708 267.4458,-109.2591 229.0444,-115.2484"/>
<polygon fill="#191970" stroke="#191970" points="411.7311,-82.607 420.4639,-76.608 409.8961,-75.8517 411.7311,-82.607"/>
</g>
<!-- Node3 -->
<g id="node3" class="node">
<title>Node3</title>
<g id="a_node3"><a xlink:href="classScene.html#ad861f0bdfab5241fcec39c96f01105b0" target="_top" xlink:title="Scene::onSetTile Ändert ein MapTile ohne ein Signal an den Server. Notwendig zum Empfangen von Änderu...">
<polygon fill="#ffffff" stroke="#000000" points="121.5,-76.5 121.5,-95.5 217.5,-95.5 217.5,-76.5 121.5,-76.5"/>
<text text-anchor="middle" x="169.5" y="-83.5" font-family="Helvetica,sans-Serif" font-size="10.00" fill="#000000">Scene::onSetTile</text>
</a>
</g>
</g>
<!-- Node1&#45;&gt;Node3 -->
<g id="edge2" class="edge">
<title>Node1&#45;&gt;Node3</title>
<path fill="none" stroke="#191970" d="M388.673,-71.3628C336.6212,-74.839 264.9176,-79.6276 217.9057,-82.7673"/>
<polygon fill="#191970" stroke="#191970" points="389.0637,-74.8446 398.8082,-70.6859 388.5972,-67.8601 389.0637,-74.8446"/>
</g>
<!-- Node5 -->
<g id="node5" class="node">
<title>Node5</title>
<g id="a_node5"><a xlink:href="classScene.html#a38a79a03ba1fa403296646ee64ea8476" target="_top" xlink:title="Scene::setTileAt Setzt ein MapTile anhand der Pixel&#45;Koordinaten oder der Indezes.">
<polygon fill="#ffffff" stroke="#000000" points="123.5,-.5 123.5,-19.5 215.5,-19.5 215.5,-.5 123.5,-.5"/>
<text text-anchor="middle" x="169.5" y="-7.5" font-family="Helvetica,sans-Serif" font-size="10.00" fill="#000000">Scene::setTileAt</text>
</a>
</g>
</g>
<!-- Node1&#45;&gt;Node5 -->
<g id="edge4" class="edge">
<title>Node1&#45;&gt;Node5</title>
<path fill="none" stroke="#191970" d="M426.5814,-53.0231C408.8919,-44.6479 385.1329,-34.5743 363,-29 313.573,-16.5515 255.1327,-12.178 215.5085,-10.6845"/>
<polygon fill="#191970" stroke="#191970" points="425.2105,-56.248 435.7356,-57.4619 428.2647,-49.9495 425.2105,-56.248"/>
</g>
<!-- Node6 -->
<g id="node6" class="node">
<title>Node6</title>
<g id="a_node6"><a xlink:href="classMapTile.html#a6f6c6e03095e0f1ed503dd30f499793c" target="_top" xlink:title="MapTile::setType Setzt den Typ der Kachel.">
<polygon fill="#ffffff" stroke="#000000" points="265,-38.5 265,-57.5 363,-57.5 363,-38.5 265,-38.5"/>
<text text-anchor="middle" x="314" y="-45.5" font-family="Helvetica,sans-Serif" font-size="10.00" fill="#000000">MapTile::setType</text>
</a>
</g>
</g>
<!-- Node1&#45;&gt;Node6 -->
<g id="edge5" class="edge">
<title>Node1&#45;&gt;Node6</title>
<path fill="none" stroke="#191970" d="M388.6311,-58.1285C380.0173,-56.9595 371.3096,-55.7777 363.0328,-54.6545"/>
<polygon fill="#191970" stroke="#191970" points="388.2884,-61.614 398.6683,-59.4907 389.2298,-54.6776 388.2884,-61.614"/>
</g>
<!-- Node4 -->
<g id="node4" class="node">
<title>Node4</title>
<g id="a_node4"><a xlink:href="classClient.html#a31eda3a4d7b4780e159120aa055b1299" target="_top" xlink:title="Client::Client Erzeugt einen neuen Client.">
<polygon fill="#ffffff" stroke="#000000" points="0,-76.5 0,-95.5 74,-95.5 74,-76.5 0,-76.5"/>
<text text-anchor="middle" x="37" y="-83.5" font-family="Helvetica,sans-Serif" font-size="10.00" fill="#000000">Client::Client</text>
</a>
</g>
</g>
<!-- Node3&#45;&gt;Node4 -->
<g id="edge3" class="edge">
<title>Node3&#45;&gt;Node4</title>
<path fill="none" stroke="#191970" d="M110.9262,-86C98.4384,-86 85.5817,-86 74.1634,-86"/>
<polygon fill="#191970" stroke="#191970" points="111.2897,-89.5001 121.2896,-86 111.2896,-82.5001 111.2897,-89.5001"/>
</g>
<!-- Node6&#45;&gt;Node2 -->
<g id="edge6" class="edge">
<title>Node6&#45;&gt;Node2</title>
<path fill="none" stroke="#191970" d="M293.6213,-64.0713C276.9926,-76.5768 252.4896,-93.6561 229,-105 221.4812,-108.6311 213.1025,-111.7968 205.0614,-114.4485"/>
<polygon fill="#191970" stroke="#191970" points="296.1818,-66.5189 301.9929,-57.6598 291.9256,-60.9614 296.1818,-66.5189"/>
</g>
<!-- Node6&#45;&gt;Node3 -->
<g id="edge7" class="edge">
<title>Node6&#45;&gt;Node3</title>
<path fill="none" stroke="#191970" d="M267.6675,-60.1843C247.6061,-65.46 224.4715,-71.5438 205.7012,-76.4799"/>
<polygon fill="#191970" stroke="#191970" points="268.7555,-63.5173 277.5365,-57.589 266.9752,-56.7474 268.7555,-63.5173"/>
</g>
<!-- Node6&#45;&gt;Node5 -->
<g id="edge9" class="edge">
<title>Node6&#45;&gt;Node5</title>
<path fill="none" stroke="#191970" d="M267.6675,-35.8157C247.6061,-30.54 224.4715,-24.4562 205.7012,-19.5201"/>
<polygon fill="#191970" stroke="#191970" points="266.9752,-39.2526 277.5365,-38.411 268.7555,-32.4827 266.9752,-39.2526"/>
</g>
<!-- Node7 -->
<g id="node7" class="node">
<title>Node7</title>
<g id="a_node7"><a xlink:href="classScene.html#af4da84985eb7279d6f6ae36b299c0757" target="_top" xlink:title="Scene::Scene Konstruktor.">
<polygon fill="#ffffff" stroke="#000000" points="129,-38.5 129,-57.5 210,-57.5 210,-38.5 129,-38.5"/>
<text text-anchor="middle" x="169.5" y="-45.5" font-family="Helvetica,sans-Serif" font-size="10.00" fill="#000000">Scene::Scene</text>
</a>
</g>
</g>
<!-- Node6&#45;&gt;Node7 -->
<g id="edge8" class="edge">
<title>Node6&#45;&gt;Node7</title>
<path fill="none" stroke="#191970" d="M254.5588,-48C239.7279,-48 224.1531,-48 210.443,-48"/>
<polygon fill="#191970" stroke="#191970" points="254.6755,-51.5001 264.6754,-48 254.6754,-44.5001 254.6755,-51.5001"/>
</g>
</g>
</svg>
