<?xml version="1.0" encoding="UTF-8" standalone="no"?>
<!DOCTYPE svg PUBLIC "-//W3C//DTD SVG 1.1//EN"
 "http://www.w3.org/Graphics/SVG/1.1/DTD/svg11.dtd">
<!-- Generated by graphviz version 2.40.1 (20161225.0304)
 -->
<!-- Title: MapRenderer Pages: 1 -->
<!--zoomable 1268 -->
<svg id="main" version="1.1" xmlns="http://www.w3.org/2000/svg" xmlns:xlink="http://www.w3.org/1999/xlink" xml:space="preserve" onload="init(evt)">
<style type="text/css"><![CDATA[
.edge:hover path { stroke: red; }
.edge:hover polygon { stroke: red; fill: red; }
]]></style>
<script type="text/javascript"><![CDATA[
var edges = document.getElementsByTagName('g');
if (edges && edges.length) {
  for (var i=0;i<edges.length;i++) {
    if (edges[i].id.substr(0,4)=='edge') {
      edges[i].setAttribute('class','edge');
    }
  }
}
]]></script>
        <defs>
                <circle id="rim" cx="0" cy="0" r="7"/>
                <circle id="rim2" cx="0" cy="0" r="3.5"/>
                <g id="zoomPlus">
                        <use xlink:href="#rim" fill="#404040">
                                <set attributeName="fill" to="#808080" begin="zoomplus.mouseover" end="zoomplus.mouseout"/>
                        </use>
                        <path d="M-4,0h8M0,-4v8" fill="none" stroke="white" stroke-width="1.5" pointer-events="none"/>
                </g>
                <g id="zoomMin">
                        <use xlink:href="#rim" fill="#404040">
                                <set attributeName="fill" to="#808080" begin="zoomminus.mouseover" end="zoomminus.mouseout"/>
                        </use>
                        <path d="M-4,0h8" fill="none" stroke="white" stroke-width="1.5" pointer-events="none"/>
                </g>
                <g id="dirArrow">
                        <path fill="none" stroke="white" stroke-width="1.5" d="M0,-3.0v7 M-2.5,-0.5L0,-3.0L2.5,-0.5"/>
                </g>
               <g id="resetDef">
                       <use xlink:href="#rim2" fill="#404040">
                               <set attributeName="fill" to="#808080" begin="reset.mouseover" end="reset.mouseout"/>
                       </use>
               </g>
        </defs>

<script type="text/javascript">
var viewWidth = 623;
var viewHeight = 1268;
var sectionId = 'dynsection-1';
</script>
<script xlink:href="svgpan.js"/>
<svg id="graph" class="graph">
<g id="viewport">
<title>MapRenderer</title>
<polygon fill="#ffffff" stroke="transparent" points="-4,4 -4,-1264 619,-1264 619,4 -4,4"/>
<!-- Node1 -->
<g id="node1" class="node">
<title>Node1</title>
<g id="a_node1"><a xlink:title=" ">
<polygon fill="#bfbfbf" stroke="#000000" points="183.5,-.5 183.5,-321.5 308.5,-321.5 308.5,-.5 183.5,-.5"/>
<text text-anchor="middle" x="246" y="-309.5" font-family="Helvetica,sans-Serif" font-size="10.00" fill="#000000">MapRenderer</text>
<polyline fill="none" stroke="#000000" points="183.5,-302.5 308.5,-302.5 "/>
<text text-anchor="start" x="191.5" y="-290.5" font-family="Helvetica,sans-Serif" font-size="10.00" fill="#000000">+ codeCount</text>
<text text-anchor="start" x="191.5" y="-279.5" font-family="Helvetica,sans-Serif" font-size="10.00" fill="#000000">&#45; mouseDown</text>
<text text-anchor="start" x="191.5" y="-268.5" font-family="Helvetica,sans-Serif" font-size="10.00" fill="#000000">&#45; offsetTargetX</text>
<text text-anchor="start" x="191.5" y="-257.5" font-family="Helvetica,sans-Serif" font-size="10.00" fill="#000000">&#45; offsetTargetY</text>
<text text-anchor="start" x="191.5" y="-246.5" font-family="Helvetica,sans-Serif" font-size="10.00" fill="#000000">&#45; showHighlight</text>
<text text-anchor="start" x="191.5" y="-235.5" font-family="Helvetica,sans-Serif" font-size="10.00" fill="#000000">&#45; rendering</text>
<text text-anchor="start" x="191.5" y="-224.5" font-family="Helvetica,sans-Serif" font-size="10.00" fill="#000000">&#45; renderTime</text>
<text text-anchor="start" x="191.5" y="-213.5" font-family="Helvetica,sans-Serif" font-size="10.00" fill="#000000">&#45; scale</text>
<text text-anchor="start" x="191.5" y="-202.5" font-family="Helvetica,sans-Serif" font-size="10.00" fill="#000000">&#45; showExpertDetails</text>
<text text-anchor="start" x="191.5" y="-191.5" font-family="Helvetica,sans-Serif" font-size="10.00" fill="#000000">&#45; movementAnimations</text>
<text text-anchor="start" x="191.5" y="-180.5" font-family="Helvetica,sans-Serif" font-size="10.00" fill="#000000">&#45; lastFpsTake</text>
<text text-anchor="start" x="191.5" y="-169.5" font-family="Helvetica,sans-Serif" font-size="10.00" fill="#000000">und 16 mehr ...</text>
<polyline fill="none" stroke="#000000" points="183.5,-162.5 308.5,-162.5 "/>
<text text-anchor="start" x="191.5" y="-150.5" font-family="Helvetica,sans-Serif" font-size="10.00" fill="#000000">+ MapRenderer()</text>
<text text-anchor="start" x="191.5" y="-139.5" font-family="Helvetica,sans-Serif" font-size="10.00" fill="#000000">+ paintEvent()</text>
<text text-anchor="start" x="191.5" y="-128.5" font-family="Helvetica,sans-Serif" font-size="10.00" fill="#000000">+ mousePressEvent()</text>
<text text-anchor="start" x="191.5" y="-117.5" font-family="Helvetica,sans-Serif" font-size="10.00" fill="#000000">+ mouseReleaseEvent()</text>
<text text-anchor="start" x="191.5" y="-106.5" font-family="Helvetica,sans-Serif" font-size="10.00" fill="#000000">+ mouseMoveEvent()</text>
<text text-anchor="start" x="191.5" y="-95.5" font-family="Helvetica,sans-Serif" font-size="10.00" fill="#000000">+ wheelEvent()</text>
<text text-anchor="start" x="191.5" y="-84.5" font-family="Helvetica,sans-Serif" font-size="10.00" fill="#000000">+ keyReleaseEvent()</text>
<text text-anchor="start" x="191.5" y="-73.5" font-family="Helvetica,sans-Serif" font-size="10.00" fill="#000000">+ tick()</text>
<text text-anchor="start" x="191.5" y="-62.5" font-family="Helvetica,sans-Serif" font-size="10.00" fill="#000000">+ logicUpdate()</text>
<text text-anchor="start" x="191.5" y="-51.5" font-family="Helvetica,sans-Serif" font-size="10.00" fill="#000000">+ renderFrame()</text>
<text text-anchor="start" x="191.5" y="-40.5" font-family="Helvetica,sans-Serif" font-size="10.00" fill="#000000">und 13 mehr ...</text>
<text text-anchor="start" x="191.5" y="-29.5" font-family="Helvetica,sans-Serif" font-size="10.00" fill="#000000">+ onTileChange()</text>
<text text-anchor="start" x="191.5" y="-18.5" font-family="Helvetica,sans-Serif" font-size="10.00" fill="#000000">+ enableHighlight()</text>
<text text-anchor="start" x="191.5" y="-7.5" font-family="Helvetica,sans-Serif" font-size="10.00" fill="#000000">+ setLogicSpeed()</text>
</a>
</g>
</g>
<!-- Node2 -->
<g id="node2" class="node">
<title>Node2</title>
<g id="a_node2"><a xlink:title=" ">
<polygon fill="#ffffff" stroke="#bfbfbf" points="0,-584 0,-641 56,-641 56,-584 0,-584"/>
<text text-anchor="middle" x="28" y="-629" font-family="Helvetica,sans-Serif" font-size="10.00" fill="#000000">QWidget</text>
<polyline fill="none" stroke="#bfbfbf" points="0,-622 56,-622 "/>
<text text-anchor="middle" x="28" y="-610" font-family="Helvetica,sans-Serif" font-size="10.00" fill="#000000"> </text>
<polyline fill="none" stroke="#bfbfbf" points="0,-603 56,-603 "/>
<text text-anchor="middle" x="28" y="-591" font-family="Helvetica,sans-Serif" font-size="10.00" fill="#000000"> </text>
</a>
</g>
</g>
<!-- Node2&#45;&gt;Node1 -->
<g id="edge1" class="edge">
<title>Node2&#45;&gt;Node1</title>
<path fill="none" stroke="#191970" d="M28.3329,-573.767C30.2607,-518.8828 39.3024,-416.6387 78,-340 103.2614,-289.9711 146.8989,-244.1084 183.3685,-211.3323"/>
<polygon fill="none" stroke="#191970" points="24.8343,-573.6717 28.0428,-583.769 31.8314,-573.8747 24.8343,-573.6717"/>
</g>
<!-- Node3 -->
<g id="node3" class="node">
<title>Node3</title>
<g id="a_node3"><a xlink:href="classMapTile.html" target="_top" xlink:title=" ">
<polygon fill="#ffffff" stroke="#000000" points="195,-518 195,-707 297,-707 297,-518 195,-518"/>
<text text-anchor="middle" x="246" y="-695" font-family="Helvetica,sans-Serif" font-size="10.00" fill="#000000">MapTile</text>
<polyline fill="none" stroke="#000000" points="195,-688 297,-688 "/>
<text text-anchor="start" x="203" y="-676" font-family="Helvetica,sans-Serif" font-size="10.00" fill="#000000">&#45; type</text>
<text text-anchor="start" x="203" y="-665" font-family="Helvetica,sans-Serif" font-size="10.00" fill="#000000">&#45; pixmapItem</text>
<text text-anchor="start" x="203" y="-654" font-family="Helvetica,sans-Serif" font-size="10.00" fill="#000000">&#45; currentRotation</text>
<polyline fill="none" stroke="#000000" points="195,-647 297,-647 "/>
<text text-anchor="start" x="203" y="-635" font-family="Helvetica,sans-Serif" font-size="10.00" fill="#000000">+ MapTile()</text>
<text text-anchor="start" x="203" y="-624" font-family="Helvetica,sans-Serif" font-size="10.00" fill="#000000">+ MapTile()</text>
<text text-anchor="start" x="203" y="-613" font-family="Helvetica,sans-Serif" font-size="10.00" fill="#000000">+ setType()</text>
<text text-anchor="start" x="203" y="-602" font-family="Helvetica,sans-Serif" font-size="10.00" fill="#000000">+ getType()</text>
<text text-anchor="start" x="203" y="-591" font-family="Helvetica,sans-Serif" font-size="10.00" fill="#000000">+ setRotation()</text>
<text text-anchor="start" x="203" y="-580" font-family="Helvetica,sans-Serif" font-size="10.00" fill="#000000">+ getRotation()</text>
<text text-anchor="start" x="203" y="-569" font-family="Helvetica,sans-Serif" font-size="10.00" fill="#000000">+ getRotationDeg()</text>
<text text-anchor="start" x="203" y="-558" font-family="Helvetica,sans-Serif" font-size="10.00" fill="#000000">+ setPosition()</text>
<text text-anchor="start" x="203" y="-547" font-family="Helvetica,sans-Serif" font-size="10.00" fill="#000000">+ isRiver()</text>
<text text-anchor="start" x="203" y="-536" font-family="Helvetica,sans-Serif" font-size="10.00" fill="#000000">+ isRail()</text>
<text text-anchor="start" x="203" y="-525" font-family="Helvetica,sans-Serif" font-size="10.00" fill="#000000">und 6 mehr ...</text>
</a>
</g>
</g>
<!-- Node3&#45;&gt;Node1 -->
<g id="edge2" class="edge">
<title>Node3&#45;&gt;Node1</title>
<path fill="none" stroke="#404040" d="M246,-517.8508C246,-464.5285 246,-396.2727 246,-333.7619"/>
<polygon fill="none" stroke="#404040" points="246.0001,-333.7528 242,-327.7528 246,-321.7528 250,-327.7527 246.0001,-333.7528"/>
<text text-anchor="middle" x="261" y="-359.5" font-family="Helvetica,sans-Serif" font-size="10.00" fill="#000000"> +data</text>
</g>
<!-- Node4 -->
<g id="node4" class="node">
<title>Node4</title>
<g id="a_node4"><a xlink:href="classGraphicsManager.html" target="_top" xlink:title=" ">
<polygon fill="#ffffff" stroke="#000000" points="54.5,-925.5 54.5,-993.5 167.5,-993.5 167.5,-925.5 54.5,-925.5"/>
<text text-anchor="middle" x="111" y="-981.5" font-family="Helvetica,sans-Serif" font-size="10.00" fill="#000000">GraphicsManager</text>
<polyline fill="none" stroke="#000000" points="54.5,-974.5 167.5,-974.5 "/>
<text text-anchor="start" x="62.5" y="-962.5" font-family="Helvetica,sans-Serif" font-size="10.00" fill="#000000">+ GRAPHICS</text>
<polyline fill="none" stroke="#000000" points="54.5,-955.5 167.5,-955.5 "/>
<text text-anchor="start" x="62.5" y="-943.5" font-family="Helvetica,sans-Serif" font-size="10.00" fill="#000000">+ GraphicsManager()</text>
<text text-anchor="start" x="62.5" y="-932.5" font-family="Helvetica,sans-Serif" font-size="10.00" fill="#000000">+ get()</text>
</a>
</g>
</g>
<!-- Node4&#45;&gt;Node1 -->
<g id="edge5" class="edge">
<title>Node4&#45;&gt;Node1</title>
<path fill="none" stroke="#404040" d="M103.7733,-925.353C86.4475,-836.8674 47.7816,-593.6811 101,-402 116.0881,-347.6562 147.0783,-293.2909 176.5497,-249.9861"/>
<polygon fill="none" stroke="#404040" points="176.5782,-249.9448 176.6989,-242.7347 183.4008,-240.073 183.2801,-247.2831 176.5782,-249.9448"/>
<text text-anchor="middle" x="143.5" y="-610" font-family="Helvetica,sans-Serif" font-size="10.00" fill="#000000"> &#45;graphicsManager</text>
</g>
<!-- Node4&#45;&gt;Node3 -->
<g id="edge3" class="edge">
<title>Node4&#45;&gt;Node3</title>
<path fill="none" stroke="#404040" d="M118.8299,-925.3157C125.8132,-900.1744 137.9319,-866.146 157,-841 165.0563,-830.3758 173.3247,-833.9026 181,-823 202.6109,-792.3022 217.2054,-754.1993 226.9869,-718.8827"/>
<polygon fill="none" stroke="#404040" points="227.0541,-718.6283 224.7214,-711.8049 230.1228,-707.0273 232.4554,-713.8507 227.0541,-718.6283"/>
<text text-anchor="middle" x="199.5" y="-844" font-family="Helvetica,sans-Serif" font-size="10.00" fill="#000000"> &#45;graphicsManager</text>
</g>
<!-- Node5 -->
<g id="node5" class="node">
<title>Node5</title>
<g id="a_node5"><a xlink:href="classCity.html" target="_top" xlink:title=" ">
<polygon fill="#ffffff" stroke="#000000" points="204.5,-870.5 204.5,-1048.5 287.5,-1048.5 287.5,-870.5 204.5,-870.5"/>
<text text-anchor="middle" x="246" y="-1036.5" font-family="Helvetica,sans-Serif" font-size="10.00" fill="#000000">City</text>
<polyline fill="none" stroke="#000000" points="204.5,-1029.5 287.5,-1029.5 "/>
<text text-anchor="start" x="212.5" y="-1017.5" font-family="Helvetica,sans-Serif" font-size="10.00" fill="#000000">&#45; size</text>
<text text-anchor="start" x="212.5" y="-1006.5" font-family="Helvetica,sans-Serif" font-size="10.00" fill="#000000">&#45; centerX</text>
<text text-anchor="start" x="212.5" y="-995.5" font-family="Helvetica,sans-Serif" font-size="10.00" fill="#000000">&#45; centerY</text>
<text text-anchor="start" x="212.5" y="-984.5" font-family="Helvetica,sans-Serif" font-size="10.00" fill="#000000">&#45; name</text>
<polyline fill="none" stroke="#000000" points="204.5,-977.5 287.5,-977.5 "/>
<text text-anchor="start" x="212.5" y="-965.5" font-family="Helvetica,sans-Serif" font-size="10.00" fill="#000000">+ City()</text>
<text text-anchor="start" x="212.5" y="-954.5" font-family="Helvetica,sans-Serif" font-size="10.00" fill="#000000">+ City()</text>
<text text-anchor="start" x="212.5" y="-943.5" font-family="Helvetica,sans-Serif" font-size="10.00" fill="#000000">+ getSize()</text>
<text text-anchor="start" x="212.5" y="-932.5" font-family="Helvetica,sans-Serif" font-size="10.00" fill="#000000">+ getCenterX()</text>
<text text-anchor="start" x="212.5" y="-921.5" font-family="Helvetica,sans-Serif" font-size="10.00" fill="#000000">+ getCenterY()</text>
<text text-anchor="start" x="212.5" y="-910.5" font-family="Helvetica,sans-Serif" font-size="10.00" fill="#000000">+ getName()</text>
<text text-anchor="start" x="212.5" y="-899.5" font-family="Helvetica,sans-Serif" font-size="10.00" fill="#000000">+ setSize()</text>
<text text-anchor="start" x="212.5" y="-888.5" font-family="Helvetica,sans-Serif" font-size="10.00" fill="#000000">+ setCenter()</text>
<text text-anchor="start" x="212.5" y="-877.5" font-family="Helvetica,sans-Serif" font-size="10.00" fill="#000000">+ setName()</text>
</a>
</g>
</g>
<!-- Node5&#45;&gt;Node3 -->
<g id="edge4" class="edge">
<title>Node5&#45;&gt;Node3</title>
<path fill="none" stroke="#404040" d="M246,-870.1389C246,-824.0441 246,-767.4947 246,-719.1303"/>
<polygon fill="none" stroke="#404040" points="246.0001,-719.022 242,-713.022 246,-707.022 250,-713.022 246.0001,-719.022"/>
<text text-anchor="middle" x="257" y="-844" font-family="Helvetica,sans-Serif" font-size="10.00" fill="#000000"> &#45;city</text>
</g>
<!-- Node6 -->
<g id="node6" class="node">
<title>Node6</title>
<g id="a_node6"><a xlink:href="classPoint.html" target="_top" xlink:title=" ">
<polygon fill="#ffffff" stroke="#000000" points="315,-545.5 315,-679.5 373,-679.5 373,-545.5 315,-545.5"/>
<text text-anchor="middle" x="344" y="-667.5" font-family="Helvetica,sans-Serif" font-size="10.00" fill="#000000">Point</text>
<polyline fill="none" stroke="#000000" points="315,-660.5 373,-660.5 "/>
<text text-anchor="start" x="323" y="-648.5" font-family="Helvetica,sans-Serif" font-size="10.00" fill="#000000">&#45; x</text>
<text text-anchor="start" x="323" y="-637.5" font-family="Helvetica,sans-Serif" font-size="10.00" fill="#000000">&#45; y</text>
<polyline fill="none" stroke="#000000" points="315,-630.5 373,-630.5 "/>
<text text-anchor="start" x="323" y="-618.5" font-family="Helvetica,sans-Serif" font-size="10.00" fill="#000000">+ Point()</text>
<text text-anchor="start" x="323" y="-607.5" font-family="Helvetica,sans-Serif" font-size="10.00" fill="#000000">+ getX()</text>
<text text-anchor="start" x="323" y="-596.5" font-family="Helvetica,sans-Serif" font-size="10.00" fill="#000000">+ getY()</text>
<text text-anchor="start" x="323" y="-585.5" font-family="Helvetica,sans-Serif" font-size="10.00" fill="#000000">+ add()</text>
<text text-anchor="start" x="323" y="-574.5" font-family="Helvetica,sans-Serif" font-size="10.00" fill="#000000">+ set()</text>
<text text-anchor="start" x="323" y="-563.5" font-family="Helvetica,sans-Serif" font-size="10.00" fill="#000000">+ move()</text>
<text text-anchor="start" x="323" y="-552.5" font-family="Helvetica,sans-Serif" font-size="10.00" fill="#000000">+ toTile()</text>
</a>
</g>
</g>
<!-- Node6&#45;&gt;Node1 -->
<g id="edge6" class="edge">
<title>Node6&#45;&gt;Node1</title>
<path fill="none" stroke="#404040" d="M333.0462,-545.4448C325.9885,-503.9842 316.242,-449.7475 306,-402 301.2448,-379.8314 295.9116,-356.6017 290.4384,-333.6822"/>
<polygon fill="none" stroke="#404040" points="290.3706,-333.4 285.0791,-328.5011 287.5659,-321.7323 292.8575,-326.6312 290.3706,-333.4"/>
<text text-anchor="middle" x="332.5" y="-376" font-family="Helvetica,sans-Serif" font-size="10.00" fill="#000000"> &#45;activeTile</text>
<text text-anchor="middle" x="332.5" y="-365" font-family="Helvetica,sans-Serif" font-size="10.00" fill="#000000">&#45;dragOrigin</text>
<text text-anchor="middle" x="332.5" y="-354" font-family="Helvetica,sans-Serif" font-size="10.00" fill="#000000">+offset</text>
<text text-anchor="middle" x="332.5" y="-343" font-family="Helvetica,sans-Serif" font-size="10.00" fill="#000000">&#45;dragPosition</text>
</g>
<!-- Node7 -->
<g id="node7" class="node">
<title>Node7</title>
<g id="a_node7"><a xlink:href="classDataModel.html" target="_top" xlink:title=" ">
<polygon fill="#ffffff" stroke="#000000" points="391.5,-402.5 391.5,-822.5 528.5,-822.5 528.5,-402.5 391.5,-402.5"/>
<text text-anchor="middle" x="460" y="-810.5" font-family="Helvetica,sans-Serif" font-size="10.00" fill="#000000">DataModel</text>
<polyline fill="none" stroke="#000000" points="391.5,-803.5 528.5,-803.5 "/>
<text text-anchor="start" x="399.5" y="-791.5" font-family="Helvetica,sans-Serif" font-size="10.00" fill="#000000">+ RADIUS_DEPOT</text>
<text text-anchor="start" x="399.5" y="-780.5" font-family="Helvetica,sans-Serif" font-size="10.00" fill="#000000">+ RADIUS_STATION</text>
<text text-anchor="start" x="399.5" y="-769.5" font-family="Helvetica,sans-Serif" font-size="10.00" fill="#000000">+ RADIUS_TERMINAL</text>
<text text-anchor="start" x="399.5" y="-758.5" font-family="Helvetica,sans-Serif" font-size="10.00" fill="#000000">&#45; balance</text>
<text text-anchor="start" x="399.5" y="-747.5" font-family="Helvetica,sans-Serif" font-size="10.00" fill="#000000">&#45; time</text>
<text text-anchor="start" x="399.5" y="-736.5" font-family="Helvetica,sans-Serif" font-size="10.00" fill="#000000">&#45; coordinateX</text>
<text text-anchor="start" x="399.5" y="-725.5" font-family="Helvetica,sans-Serif" font-size="10.00" fill="#000000">&#45; coordinateY</text>
<text text-anchor="start" x="399.5" y="-714.5" font-family="Helvetica,sans-Serif" font-size="10.00" fill="#000000">&#45; mapLoaded</text>
<text text-anchor="start" x="399.5" y="-703.5" font-family="Helvetica,sans-Serif" font-size="10.00" fill="#000000">&#45; ip</text>
<text text-anchor="start" x="399.5" y="-692.5" font-family="Helvetica,sans-Serif" font-size="10.00" fill="#000000">&#45; port</text>
<text text-anchor="start" x="399.5" y="-681.5" font-family="Helvetica,sans-Serif" font-size="10.00" fill="#000000">&#45; balanceLabel</text>
<text text-anchor="start" x="399.5" y="-670.5" font-family="Helvetica,sans-Serif" font-size="10.00" fill="#000000">&#45; timeLabel</text>
<text text-anchor="start" x="399.5" y="-659.5" font-family="Helvetica,sans-Serif" font-size="10.00" fill="#000000">&#45; positionLabel</text>
<text text-anchor="start" x="399.5" y="-648.5" font-family="Helvetica,sans-Serif" font-size="10.00" fill="#000000">&#45; statusDisplay</text>
<text text-anchor="start" x="399.5" y="-637.5" font-family="Helvetica,sans-Serif" font-size="10.00" fill="#000000">&#45; connectionLabel</text>
<text text-anchor="start" x="399.5" y="-626.5" font-family="Helvetica,sans-Serif" font-size="10.00" fill="#000000">&#45; mode</text>
<polyline fill="none" stroke="#000000" points="391.5,-619.5 528.5,-619.5 "/>
<text text-anchor="start" x="399.5" y="-607.5" font-family="Helvetica,sans-Serif" font-size="10.00" fill="#000000">+ DataModel()</text>
<text text-anchor="start" x="399.5" y="-596.5" font-family="Helvetica,sans-Serif" font-size="10.00" fill="#000000">+ getBalance()</text>
<text text-anchor="start" x="399.5" y="-585.5" font-family="Helvetica,sans-Serif" font-size="10.00" fill="#000000">+ updateBalance()</text>
<text text-anchor="start" x="399.5" y="-574.5" font-family="Helvetica,sans-Serif" font-size="10.00" fill="#000000">+ takeBalance()</text>
<text text-anchor="start" x="399.5" y="-563.5" font-family="Helvetica,sans-Serif" font-size="10.00" fill="#000000">+ timeTick()</text>
<text text-anchor="start" x="399.5" y="-552.5" font-family="Helvetica,sans-Serif" font-size="10.00" fill="#000000">+ getTime()</text>
<text text-anchor="start" x="399.5" y="-541.5" font-family="Helvetica,sans-Serif" font-size="10.00" fill="#000000">+ setTime()</text>
<text text-anchor="start" x="399.5" y="-530.5" font-family="Helvetica,sans-Serif" font-size="10.00" fill="#000000">+ getSystemMillis()</text>
<text text-anchor="start" x="399.5" y="-519.5" font-family="Helvetica,sans-Serif" font-size="10.00" fill="#000000">+ updateCoordinates()</text>
<text text-anchor="start" x="399.5" y="-508.5" font-family="Helvetica,sans-Serif" font-size="10.00" fill="#000000">+ getHoverX()</text>
<text text-anchor="start" x="399.5" y="-497.5" font-family="Helvetica,sans-Serif" font-size="10.00" fill="#000000">und 13 mehr ...</text>
<text text-anchor="start" x="399.5" y="-486.5" font-family="Helvetica,sans-Serif" font-size="10.00" fill="#000000">+ setDefaultMode()</text>
<text text-anchor="start" x="399.5" y="-475.5" font-family="Helvetica,sans-Serif" font-size="10.00" fill="#000000">+ setTrainStationMode()</text>
<text text-anchor="start" x="399.5" y="-464.5" font-family="Helvetica,sans-Serif" font-size="10.00" fill="#000000">+ setDepotMode()</text>
<text text-anchor="start" x="399.5" y="-453.5" font-family="Helvetica,sans-Serif" font-size="10.00" fill="#000000">+ setTerminalMode()</text>
<text text-anchor="start" x="399.5" y="-442.5" font-family="Helvetica,sans-Serif" font-size="10.00" fill="#000000">+ setBridgeMode()</text>
<text text-anchor="start" x="399.5" y="-431.5" font-family="Helvetica,sans-Serif" font-size="10.00" fill="#000000">+ setRailPlacementMode()</text>
<text text-anchor="start" x="399.5" y="-420.5" font-family="Helvetica,sans-Serif" font-size="10.00" fill="#000000">+ setRemoveMode()</text>
<text text-anchor="start" x="399.5" y="-409.5" font-family="Helvetica,sans-Serif" font-size="10.00" fill="#000000">+ setMapLoaded()</text>
</a>
</g>
</g>
<!-- Node7&#45;&gt;Node1 -->
<g id="edge7" class="edge">
<title>Node7&#45;&gt;Node1</title>
<path fill="none" stroke="#404040" d="M394.5985,-402.2591C386.0782,-380.9038 376.8529,-359.8042 367,-340 352.4807,-310.8163 333.8764,-280.8201 315.6333,-253.9256"/>
<polygon fill="none" stroke="#404040" points="315.4591,-253.6719 308.7658,-250.9886 308.6683,-243.7781 315.3616,-246.4614 315.4591,-253.6719"/>
<text text-anchor="middle" x="414.5" y="-359.5" font-family="Helvetica,sans-Serif" font-size="10.00" fill="#000000"> &#45;dataModel</text>
</g>
<!-- Node8 -->
<g id="node8" class="node">
<title>Node8</title>
<g id="a_node8"><a xlink:title=" ">
<polygon fill="#ffffff" stroke="#bfbfbf" points="348.5,-931 348.5,-988 401.5,-988 401.5,-931 348.5,-931"/>
<text text-anchor="middle" x="375" y="-976" font-family="Helvetica,sans-Serif" font-size="10.00" fill="#000000">QObject</text>
<polyline fill="none" stroke="#bfbfbf" points="348.5,-969 401.5,-969 "/>
<text text-anchor="middle" x="375" y="-957" font-family="Helvetica,sans-Serif" font-size="10.00" fill="#000000"> </text>
<polyline fill="none" stroke="#bfbfbf" points="348.5,-950 401.5,-950 "/>
<text text-anchor="middle" x="375" y="-938" font-family="Helvetica,sans-Serif" font-size="10.00" fill="#000000"> </text>
</a>
</g>
</g>
<!-- Node8&#45;&gt;Node7 -->
<g id="edge8" class="edge">
<title>Node8&#45;&gt;Node7</title>
<path fill="none" stroke="#191970" d="M384.446,-920.9381C390.6447,-895.6329 399.2926,-860.3291 408.533,-822.6065"/>
<polygon fill="none" stroke="#191970" points="381.008,-920.2627 382.0282,-930.8083 387.807,-921.9282 381.008,-920.2627"/>
</g>
<!-- Node9 -->
<g id="node9" class="node">
<title>Node9</title>
<g id="a_node9"><a xlink:href="classPlayer.html" target="_top" xlink:title=" ">
<polygon fill="#ffffff" stroke="#000000" points="419.5,-920 419.5,-999 500.5,-999 500.5,-920 419.5,-920"/>
<text text-anchor="middle" x="460" y="-987" font-family="Helvetica,sans-Serif" font-size="10.00" fill="#000000">Player</text>
<polyline fill="none" stroke="#000000" points="419.5,-980 500.5,-980 "/>
<text text-anchor="start" x="427.5" y="-968" font-family="Helvetica,sans-Serif" font-size="10.00" fill="#000000">+ posX</text>
<text text-anchor="start" x="427.5" y="-957" font-family="Helvetica,sans-Serif" font-size="10.00" fill="#000000">+ posY</text>
<polyline fill="none" stroke="#000000" points="419.5,-950 500.5,-950 "/>
<text text-anchor="start" x="427.5" y="-938" font-family="Helvetica,sans-Serif" font-size="10.00" fill="#000000">+ Player()</text>
<text text-anchor="start" x="427.5" y="-927" font-family="Helvetica,sans-Serif" font-size="10.00" fill="#000000">+ setPosition()</text>
</a>
</g>
</g>
<!-- Node9&#45;&gt;Node7 -->
<g id="edge9" class="edge">
<title>Node9&#45;&gt;Node7</title>
<path fill="none" stroke="#404040" d="M460,-919.6947C460,-897.2601 460,-867.2584 460,-834.7737"/>
<polygon fill="none" stroke="#404040" points="460.0001,-834.7028 456,-828.7028 460,-822.7028 464,-828.7027 460.0001,-834.7028"/>
<text text-anchor="middle" x="496.5" y="-844" font-family="Helvetica,sans-Serif" font-size="10.00" fill="#000000"> +secondPlayer</text>
</g>
<!-- Node10 -->
<g id="node10" class="node">
<title>Node10</title>
<g id="a_node10"><a xlink:href="classHighlighter.html" target="_top" xlink:title=" ">
<polygon fill="#ffffff" stroke="#000000" points="420.5,-1096.5 420.5,-1164.5 499.5,-1164.5 499.5,-1096.5 420.5,-1096.5"/>
<text text-anchor="middle" x="460" y="-1152.5" font-family="Helvetica,sans-Serif" font-size="10.00" fill="#000000">Highlighter</text>
<polyline fill="none" stroke="#000000" points="420.5,-1145.5 499.5,-1145.5 "/>
<text text-anchor="start" x="428.5" y="-1133.5" font-family="Helvetica,sans-Serif" font-size="10.00" fill="#000000">&#45; outline</text>
<polyline fill="none" stroke="#000000" points="420.5,-1126.5 499.5,-1126.5 "/>
<text text-anchor="start" x="428.5" y="-1114.5" font-family="Helvetica,sans-Serif" font-size="10.00" fill="#000000">+ Highlighter()</text>
<text text-anchor="start" x="428.5" y="-1103.5" font-family="Helvetica,sans-Serif" font-size="10.00" fill="#000000">+ setColor()</text>
</a>
</g>
</g>
<!-- Node10&#45;&gt;Node9 -->
<g id="edge10" class="edge">
<title>Node10&#45;&gt;Node9</title>
<path fill="none" stroke="#404040" d="M460,-1096.3066C460,-1071.9647 460,-1038.8183 460,-1011.249"/>
<polygon fill="none" stroke="#404040" points="460.0001,-1011.0262 456,-1005.0262 460,-999.0262 464,-1005.0261 460.0001,-1011.0262"/>
<text text-anchor="middle" x="487.5" y="-1070" font-family="Helvetica,sans-Serif" font-size="10.00" fill="#000000"> +highlighter</text>
</g>
<!-- Node11 -->
<g id="node11" class="node">
<title>Node11</title>
<g id="a_node11"><a xlink:title=" ">
<polygon fill="#ffffff" stroke="#bfbfbf" points="408,-1202.5 408,-1259.5 512,-1259.5 512,-1202.5 408,-1202.5"/>
<text text-anchor="middle" x="460" y="-1247.5" font-family="Helvetica,sans-Serif" font-size="10.00" fill="#000000">QGraphicsRectItem</text>
<polyline fill="none" stroke="#bfbfbf" points="408,-1240.5 512,-1240.5 "/>
<text text-anchor="middle" x="460" y="-1228.5" font-family="Helvetica,sans-Serif" font-size="10.00" fill="#000000"> </text>
<polyline fill="none" stroke="#bfbfbf" points="408,-1221.5 512,-1221.5 "/>
<text text-anchor="middle" x="460" y="-1209.5" font-family="Helvetica,sans-Serif" font-size="10.00" fill="#000000"> </text>
</a>
</g>
</g>
<!-- Node11&#45;&gt;Node10 -->
<g id="edge11" class="edge">
<title>Node11&#45;&gt;Node10</title>
<path fill="none" stroke="#191970" d="M460,-1192.1903C460,-1183.1667 460,-1173.6233 460,-1164.8097"/>
<polygon fill="none" stroke="#191970" points="456.5001,-1192.4695 460,-1202.4696 463.5001,-1192.4696 456.5001,-1192.4695"/>
</g>
<!-- Node12 -->
<g id="node12" class="node">
<title>Node12</title>
<g id="a_node12"><a xlink:href="classMainWindow.html" target="_top" xlink:title=" ">
<polygon fill="#ffffff" stroke="#000000" points="519,-925.5 519,-993.5 615,-993.5 615,-925.5 519,-925.5"/>
<text text-anchor="middle" x="567" y="-981.5" font-family="Helvetica,sans-Serif" font-size="10.00" fill="#000000">MainWindow</text>
<polyline fill="none" stroke="#000000" points="519,-974.5 615,-974.5 "/>
<text text-anchor="start" x="527" y="-962.5" font-family="Helvetica,sans-Serif" font-size="10.00" fill="#000000">&#45; ui</text>
<polyline fill="none" stroke="#000000" points="519,-955.5 615,-955.5 "/>
<text text-anchor="start" x="527" y="-943.5" font-family="Helvetica,sans-Serif" font-size="10.00" fill="#000000">+ MainWindow()</text>
<text text-anchor="start" x="527" y="-932.5" font-family="Helvetica,sans-Serif" font-size="10.00" fill="#000000">+ ~MainWindow()</text>
</a>
</g>
</g>
<!-- Node12&#45;&gt;Node7 -->
<g id="edge12" class="edge">
<title>Node12&#45;&gt;Node7</title>
<path fill="none" stroke="#404040" d="M559.0909,-925.343C553.4056,-901.5663 545.306,-869.1944 537,-841 535.4441,-835.7186 533.8449,-830.3767 532.2108,-824.9945"/>
<polygon fill="none" stroke="#404040" points="532.0986,-824.6284 526.5156,-820.0643 528.5812,-813.1554 534.1642,-817.7194 532.0986,-824.6284"/>
<text text-anchor="middle" x="572.5" y="-844" font-family="Helvetica,sans-Serif" font-size="10.00" fill="#000000"> &#45;mainWindow</text>
</g>
<!-- Node13 -->
<g id="node13" class="node">
<title>Node13</title>
<g id="a_node13"><a xlink:title=" ">
<polygon fill="#ffffff" stroke="#bfbfbf" points="525.5,-1102 525.5,-1159 608.5,-1159 608.5,-1102 525.5,-1102"/>
<text text-anchor="middle" x="567" y="-1147" font-family="Helvetica,sans-Serif" font-size="10.00" fill="#000000">QMainWindow</text>
<polyline fill="none" stroke="#bfbfbf" points="525.5,-1140 608.5,-1140 "/>
<text text-anchor="middle" x="567" y="-1128" font-family="Helvetica,sans-Serif" font-size="10.00" fill="#000000"> </text>
<polyline fill="none" stroke="#bfbfbf" points="525.5,-1121 608.5,-1121 "/>
<text text-anchor="middle" x="567" y="-1109" font-family="Helvetica,sans-Serif" font-size="10.00" fill="#000000"> </text>
</a>
</g>
</g>
<!-- Node13&#45;&gt;Node12 -->
<g id="edge13" class="edge">
<title>Node13&#45;&gt;Node12</title>
<path fill="none" stroke="#191970" d="M567,-1091.5167C567,-1061.9698 567,-1021.768 567,-993.5157"/>
<polygon fill="none" stroke="#191970" points="563.5001,-1091.8784 567,-1101.8784 570.5001,-1091.8785 563.5001,-1091.8784"/>
</g>
</g>
</svg>
        <g id="navigator" transform="translate(0 0)" fill="#404254">
                <rect fill="#f2f5e9" fill-opacity="0.5" stroke="#606060" stroke-width=".5" x="0" y="0" width="60" height="60"/>
                <use id="zoomplus" xlink:href="#zoomPlus" x="17" y="9" onmousedown="handleZoom(evt,'in')"/>
                <use id="zoomminus" xlink:href="#zoomMin" x="42" y="9" onmousedown="handleZoom(evt,'out')"/>
                <use id="reset" xlink:href="#resetDef" x="30" y="36" onmousedown="handleReset()"/>
                <g id="arrowUp" xlink:href="#dirArrow" transform="translate(30 24)" onmousedown="handlePan(0,-1)">
                  <use xlink:href="#rim" fill="#404040">
                        <set attributeName="fill" to="#808080" begin="arrowUp.mouseover" end="arrowUp.mouseout"/>
                  </use>
                  <path fill="none" stroke="white" stroke-width="1.5" d="M0,-3.0v7 M-2.5,-0.5L0,-3.0L2.5,-0.5"/>
                </g>
                <g id="arrowRight" xlink:href="#dirArrow" transform="rotate(90) translate(36 -43)" onmousedown="handlePan(1,0)">
                  <use xlink:href="#rim" fill="#404040">
                        <set attributeName="fill" to="#808080" begin="arrowRight.mouseover" end="arrowRight.mouseout"/>
                  </use>
                  <path fill="none" stroke="white" stroke-width="1.5" d="M0,-3.0v7 M-2.5,-0.5L0,-3.0L2.5,-0.5"/>
                </g>
                <g id="arrowDown" xlink:href="#dirArrow" transform="rotate(180) translate(-30 -48)" onmousedown="handlePan(0,1)">
                  <use xlink:href="#rim" fill="#404040">
                        <set attributeName="fill" to="#808080" begin="arrowDown.mouseover" end="arrowDown.mouseout"/>
                  </use>
                  <path fill="none" stroke="white" stroke-width="1.5" d="M0,-3.0v7 M-2.5,-0.5L0,-3.0L2.5,-0.5"/>
                </g>
                <g id="arrowLeft" xlink:href="#dirArrow" transform="rotate(270) translate(-36 17)" onmousedown="handlePan(-1,0)">
                  <use xlink:href="#rim" fill="#404040">
                        <set attributeName="fill" to="#808080" begin="arrowLeft.mouseover" end="arrowLeft.mouseout"/>
                  </use>
                  <path fill="none" stroke="white" stroke-width="1.5" d="M0,-3.0v7 M-2.5,-0.5L0,-3.0L2.5,-0.5"/>
                </g>
        </g>
        <svg viewBox="0 0 15 15" width="100%" height="30px" preserveAspectRatio="xMaxYMin meet">
         <g id="arrow_out" transform="scale(0.3 0.3)">
          <a xlink:href="classMapRenderer__coll__graph_org.svg" target="_base">
           <rect id="button" ry="5" rx="5" y="6" x="6" height="38" width="38"
                fill="#f2f5e9" fill-opacity="0.5" stroke="#606060" stroke-width="1.0"/>
           <path id="arrow"
             d="M 11.500037,31.436501 C 11.940474,20.09759 22.043105,11.32322 32.158766,21.979434 L 37.068811,17.246167 C 37.068811,17.246167 37.088388,32 37.088388,32 L 22.160133,31.978069 C 22.160133,31.978069 26.997745,27.140456 26.997745,27.140456 C 18.528582,18.264221 13.291696,25.230495 11.500037,31.436501 z"
             style="fill:#404040;"/>
          </a>
         </g>
        </svg>
</svg>
