<?xml version="1.0" encoding="UTF-8" standalone="no"?>
<!DOCTYPE svg PUBLIC "-//W3C//DTD SVG 1.1//EN"
 "http://www.w3.org/Graphics/SVG/1.1/DTD/svg11.dtd">
<!-- Generated by graphviz version 2.40.1 (20161225.0304)
 -->
<!-- Title: MapRenderer Pages: 1 -->
<svg width="623pt" height="1235pt"
 viewBox="0.00 0.00 623.00 1235.00" xmlns="http://www.w3.org/2000/svg" xmlns:xlink="http://www.w3.org/1999/xlink">
<g id="graph0" class="graph" transform="scale(1 1) rotate(0) translate(4 1231)">
<title>MapRenderer</title>
<polygon fill="#ffffff" stroke="transparent" points="-4,4 -4,-1231 619,-1231 619,4 -4,4"/>
<!-- Node1 -->
<g id="node1" class="node">
<title>Node1</title>
<g id="a_node1"><a xlink:title=" ">
<polygon fill="#bfbfbf" stroke="#000000" points="183.5,-.5 183.5,-321.5 308.5,-321.5 308.5,-.5 183.5,-.5"/>
<text text-anchor="middle" x="246" y="-309.5" font-family="Helvetica,sans-Serif" font-size="10.00" fill="#000000">MapRenderer</text>
<polyline fill="none" stroke="#000000" points="183.5,-302.5 308.5,-302.5 "/>
<text text-anchor="start" x="191.5" y="-290.5" font-family="Helvetica,sans-Serif" font-size="10.00" fill="#000000">+ codeCount</text>
<text text-anchor="start" x="191.5" y="-279.5" font-family="Helvetica,sans-Serif" font-size="10.00" fill="#000000">&#45; mouseDown</text>
<text text-anchor="start" x="191.5" y="-268.5" font-family="Helvetica,sans-Serif" font-size="10.00" fill="#000000">&#45; offsetTargetX</text>
<text text-anchor="start" x="191.5" y="-257.5" font-family="Helvetica,sans-Serif" font-size="10.00" fill="#000000">&#45; offsetTargetY</text>
<text text-anchor="start" x="191.5" y="-246.5" font-family="Helvetica,sans-Serif" font-size="10.00" fill="#000000">&#45; showHighlight</text>
<text text-anchor="start" x="191.5" y="-235.5" font-family="Helvetica,sans-Serif" font-size="10.00" fill="#000000">&#45; rendering</text>
<text text-anchor="start" x="191.5" y="-224.5" font-family="Helvetica,sans-Serif" font-size="10.00" fill="#000000">&#45; renderTime</text>
<text text-anchor="start" x="191.5" y="-213.5" font-family="Helvetica,sans-Serif" font-size="10.00" fill="#000000">&#45; scale</text>
<text text-anchor="start" x="191.5" y="-202.5" font-family="Helvetica,sans-Serif" font-size="10.00" fill="#000000">&#45; showExpertDetails</text>
<text text-anchor="start" x="191.5" y="-191.5" font-family="Helvetica,sans-Serif" font-size="10.00" fill="#000000">&#45; movementAnimations</text>
<text text-anchor="start" x="191.5" y="-180.5" font-family="Helvetica,sans-Serif" font-size="10.00" fill="#000000">&#45; lastFpsTake</text>
<text text-anchor="start" x="191.5" y="-169.5" font-family="Helvetica,sans-Serif" font-size="10.00" fill="#000000">und 16 mehr ...</text>
<polyline fill="none" stroke="#000000" points="183.5,-162.5 308.5,-162.5 "/>
<text text-anchor="start" x="191.5" y="-150.5" font-family="Helvetica,sans-Serif" font-size="10.00" fill="#000000">+ MapRenderer()</text>
<text text-anchor="start" x="191.5" y="-139.5" font-family="Helvetica,sans-Serif" font-size="10.00" fill="#000000">+ paintEvent()</text>
<text text-anchor="start" x="191.5" y="-128.5" font-family="Helvetica,sans-Serif" font-size="10.00" fill="#000000">+ mousePressEvent()</text>
<text text-anchor="start" x="191.5" y="-117.5" font-family="Helvetica,sans-Serif" font-size="10.00" fill="#000000">+ mouseReleaseEvent()</text>
<text text-anchor="start" x="191.5" y="-106.5" font-family="Helvetica,sans-Serif" font-size="10.00" fill="#000000">+ mouseMoveEvent()</text>
<text text-anchor="start" x="191.5" y="-95.5" font-family="Helvetica,sans-Serif" font-size="10.00" fill="#000000">+ wheelEvent()</text>
<text text-anchor="start" x="191.5" y="-84.5" font-family="Helvetica,sans-Serif" font-size="10.00" fill="#000000">+ keyReleaseEvent()</text>
<text text-anchor="start" x="191.5" y="-73.5" font-family="Helvetica,sans-Serif" font-size="10.00" fill="#000000">+ tick()</text>
<text text-anchor="start" x="191.5" y="-62.5" font-family="Helvetica,sans-Serif" font-size="10.00" fill="#000000">+ logicUpdate()</text>
<text text-anchor="start" x="191.5" y="-51.5" font-family="Helvetica,sans-Serif" font-size="10.00" fill="#000000">+ renderFrame()</text>
<text text-anchor="start" x="191.5" y="-40.5" font-family="Helvetica,sans-Serif" font-size="10.00" fill="#000000">und 13 mehr ...</text>
<text text-anchor="start" x="191.5" y="-29.5" font-family="Helvetica,sans-Serif" font-size="10.00" fill="#000000">+ onTileChange()</text>
<text text-anchor="start" x="191.5" y="-18.5" font-family="Helvetica,sans-Serif" font-size="10.00" fill="#000000">+ enableHighlight()</text>
<text text-anchor="start" x="191.5" y="-7.5" font-family="Helvetica,sans-Serif" font-size="10.00" fill="#000000">+ setLogicSpeed()</text>
</a>
</g>
</g>
<!-- Node2 -->
<g id="node2" class="node">
<title>Node2</title>
<g id="a_node2"><a xlink:title=" ">
<polygon fill="#ffffff" stroke="#bfbfbf" points="0,-567.5 0,-624.5 56,-624.5 56,-567.5 0,-567.5"/>
<text text-anchor="middle" x="28" y="-612.5" font-family="Helvetica,sans-Serif" font-size="10.00" fill="#000000">QWidget</text>
<polyline fill="none" stroke="#bfbfbf" points="0,-605.5 56,-605.5 "/>
<text text-anchor="middle" x="28" y="-593.5" font-family="Helvetica,sans-Serif" font-size="10.00" fill="#000000"> </text>
<polyline fill="none" stroke="#bfbfbf" points="0,-586.5 56,-586.5 "/>
<text text-anchor="middle" x="28" y="-574.5" font-family="Helvetica,sans-Serif" font-size="10.00" fill="#000000"> </text>
</a>
</g>
</g>
<!-- Node2&#45;&gt;Node1 -->
<g id="edge1" class="edge">
<title>Node2&#45;&gt;Node1</title>
<path fill="none" stroke="#191970" d="M28.9588,-557.3038C31.6748,-505.2111 41.695,-410.8916 78,-340 103.4494,-290.3058 146.8447,-244.5983 183.1554,-211.81"/>
<polygon fill="none" stroke="#191970" points="25.4555,-557.2982 28.4952,-567.4476 32.4482,-557.6178 25.4555,-557.2982"/>
</g>
<!-- Node3 -->
<g id="node3" class="node">
<title>Node3</title>
<g id="a_node3"><a xlink:href="classMapTile.html" target="_top" xlink:title=" ">
<polygon fill="#ffffff" stroke="#000000" points="195,-501.5 195,-690.5 297,-690.5 297,-501.5 195,-501.5"/>
<text text-anchor="middle" x="246" y="-678.5" font-family="Helvetica,sans-Serif" font-size="10.00" fill="#000000">MapTile</text>
<polyline fill="none" stroke="#000000" points="195,-671.5 297,-671.5 "/>
<text text-anchor="start" x="203" y="-659.5" font-family="Helvetica,sans-Serif" font-size="10.00" fill="#000000">&#45; type</text>
<text text-anchor="start" x="203" y="-648.5" font-family="Helvetica,sans-Serif" font-size="10.00" fill="#000000">&#45; pixmapItem</text>
<text text-anchor="start" x="203" y="-637.5" font-family="Helvetica,sans-Serif" font-size="10.00" fill="#000000">&#45; currentRotation</text>
<polyline fill="none" stroke="#000000" points="195,-630.5 297,-630.5 "/>
<text text-anchor="start" x="203" y="-618.5" font-family="Helvetica,sans-Serif" font-size="10.00" fill="#000000">+ MapTile()</text>
<text text-anchor="start" x="203" y="-607.5" font-family="Helvetica,sans-Serif" font-size="10.00" fill="#000000">+ MapTile()</text>
<text text-anchor="start" x="203" y="-596.5" font-family="Helvetica,sans-Serif" font-size="10.00" fill="#000000">+ setType()</text>
<text text-anchor="start" x="203" y="-585.5" font-family="Helvetica,sans-Serif" font-size="10.00" fill="#000000">+ getType()</text>
<text text-anchor="start" x="203" y="-574.5" font-family="Helvetica,sans-Serif" font-size="10.00" fill="#000000">+ setRotation()</text>
<text text-anchor="start" x="203" y="-563.5" font-family="Helvetica,sans-Serif" font-size="10.00" fill="#000000">+ getRotation()</text>
<text text-anchor="start" x="203" y="-552.5" font-family="Helvetica,sans-Serif" font-size="10.00" fill="#000000">+ getRotationDeg()</text>
<text text-anchor="start" x="203" y="-541.5" font-family="Helvetica,sans-Serif" font-size="10.00" fill="#000000">+ setPosition()</text>
<text text-anchor="start" x="203" y="-530.5" font-family="Helvetica,sans-Serif" font-size="10.00" fill="#000000">+ isRiver()</text>
<text text-anchor="start" x="203" y="-519.5" font-family="Helvetica,sans-Serif" font-size="10.00" fill="#000000">+ isRail()</text>
<text text-anchor="start" x="203" y="-508.5" font-family="Helvetica,sans-Serif" font-size="10.00" fill="#000000">und 6 mehr ...</text>
</a>
</g>
</g>
<!-- Node3&#45;&gt;Node1 -->
<g id="edge2" class="edge">
<title>Node3&#45;&gt;Node1</title>
<path fill="none" stroke="#404040" d="M246,-501.3433C246,-452.3428 246,-390.9651 246,-333.8741"/>
<polygon fill="none" stroke="#404040" points="246.0001,-333.7625 242,-327.7626 246,-321.7625 250,-327.7625 246.0001,-333.7625"/>
<text text-anchor="middle" x="261" y="-359.5" font-family="Helvetica,sans-Serif" font-size="10.00" fill="#000000"> +data</text>
</g>
<!-- Node4 -->
<g id="node4" class="node">
<title>Node4</title>
<g id="a_node4"><a xlink:href="classGraphicsManager.html" target="_top" xlink:title=" ">
<polygon fill="#ffffff" stroke="#000000" points="54.5,-892.5 54.5,-960.5 167.5,-960.5 167.5,-892.5 54.5,-892.5"/>
<text text-anchor="middle" x="111" y="-948.5" font-family="Helvetica,sans-Serif" font-size="10.00" fill="#000000">GraphicsManager</text>
<polyline fill="none" stroke="#000000" points="54.5,-941.5 167.5,-941.5 "/>
<text text-anchor="start" x="62.5" y="-929.5" font-family="Helvetica,sans-Serif" font-size="10.00" fill="#000000">+ GRAPHICS</text>
<polyline fill="none" stroke="#000000" points="54.5,-922.5 167.5,-922.5 "/>
<text text-anchor="start" x="62.5" y="-910.5" font-family="Helvetica,sans-Serif" font-size="10.00" fill="#000000">+ GraphicsManager()</text>
<text text-anchor="start" x="62.5" y="-899.5" font-family="Helvetica,sans-Serif" font-size="10.00" fill="#000000">+ get()</text>
</a>
</g>
</g>
<!-- Node4&#45;&gt;Node1 -->
<g id="edge5" class="edge">
<title>Node4&#45;&gt;Node1</title>
<path fill="none" stroke="#404040" d="M103.7163,-892.2164C87.0701,-807.2347 51.357,-580.803 101,-402 116.0881,-347.6562 147.0783,-293.2909 176.5497,-249.9861"/>
<polygon fill="none" stroke="#404040" points="176.5782,-249.9448 176.6989,-242.7347 183.4008,-240.073 183.2801,-247.2831 176.5782,-249.9448"/>
<text text-anchor="middle" x="143.5" y="-593.5" font-family="Helvetica,sans-Serif" font-size="10.00" fill="#000000"> &#45;graphicsManager</text>
</g>
<!-- Node4&#45;&gt;Node3 -->
<g id="edge3" class="edge">
<title>Node4&#45;&gt;Node3</title>
<path fill="none" stroke="#404040" d="M118.8299,-892.3157C125.8132,-867.1744 137.9319,-833.146 157,-808 165.0563,-797.3758 173.1955,-800.8105 181,-790 199.7129,-764.0795 213.3021,-732.4061 223.0573,-702.2286"/>
<polygon fill="none" stroke="#404040" points="223.0617,-702.2143 221.0153,-695.2996 226.6111,-690.7512 228.6574,-697.6659 223.0617,-702.2143"/>
<text text-anchor="middle" x="199.5" y="-811" font-family="Helvetica,sans-Serif" font-size="10.00" fill="#000000"> &#45;graphicsManager</text>
</g>
<!-- Node5 -->
<g id="node5" class="node">
<title>Node5</title>
<g id="a_node5"><a xlink:href="classCity.html" target="_top" xlink:title=" ">
<polygon fill="#ffffff" stroke="#000000" points="204.5,-837.5 204.5,-1015.5 287.5,-1015.5 287.5,-837.5 204.5,-837.5"/>
<text text-anchor="middle" x="246" y="-1003.5" font-family="Helvetica,sans-Serif" font-size="10.00" fill="#000000">City</text>
<polyline fill="none" stroke="#000000" points="204.5,-996.5 287.5,-996.5 "/>
<text text-anchor="start" x="212.5" y="-984.5" font-family="Helvetica,sans-Serif" font-size="10.00" fill="#000000">&#45; size</text>
<text text-anchor="start" x="212.5" y="-973.5" font-family="Helvetica,sans-Serif" font-size="10.00" fill="#000000">&#45; centerX</text>
<text text-anchor="start" x="212.5" y="-962.5" font-family="Helvetica,sans-Serif" font-size="10.00" fill="#000000">&#45; centerY</text>
<text text-anchor="start" x="212.5" y="-951.5" font-family="Helvetica,sans-Serif" font-size="10.00" fill="#000000">&#45; name</text>
<polyline fill="none" stroke="#000000" points="204.5,-944.5 287.5,-944.5 "/>
<text text-anchor="start" x="212.5" y="-932.5" font-family="Helvetica,sans-Serif" font-size="10.00" fill="#000000">+ City()</text>
<text text-anchor="start" x="212.5" y="-921.5" font-family="Helvetica,sans-Serif" font-size="10.00" fill="#000000">+ City()</text>
<text text-anchor="start" x="212.5" y="-910.5" font-family="Helvetica,sans-Serif" font-size="10.00" fill="#000000">+ getSize()</text>
<text text-anchor="start" x="212.5" y="-899.5" font-family="Helvetica,sans-Serif" font-size="10.00" fill="#000000">+ getCenterX()</text>
<text text-anchor="start" x="212.5" y="-888.5" font-family="Helvetica,sans-Serif" font-size="10.00" fill="#000000">+ getCenterY()</text>
<text text-anchor="start" x="212.5" y="-877.5" font-family="Helvetica,sans-Serif" font-size="10.00" fill="#000000">+ getName()</text>
<text text-anchor="start" x="212.5" y="-866.5" font-family="Helvetica,sans-Serif" font-size="10.00" fill="#000000">+ setSize()</text>
<text text-anchor="start" x="212.5" y="-855.5" font-family="Helvetica,sans-Serif" font-size="10.00" fill="#000000">+ setCenter()</text>
<text text-anchor="start" x="212.5" y="-844.5" font-family="Helvetica,sans-Serif" font-size="10.00" fill="#000000">+ setName()</text>
</a>
</g>
</g>
<!-- Node5&#45;&gt;Node3 -->
<g id="edge4" class="edge">
<title>Node5&#45;&gt;Node3</title>
<path fill="none" stroke="#404040" d="M246,-837.4973C246,-795.992 246,-746.2673 246,-702.7551"/>
<polygon fill="none" stroke="#404040" points="246.0001,-702.6592 242,-696.6592 246,-690.6592 250,-696.6592 246.0001,-702.6592"/>
<text text-anchor="middle" x="257" y="-811" font-family="Helvetica,sans-Serif" font-size="10.00" fill="#000000"> &#45;city</text>
</g>
<!-- Node6 -->
<g id="node6" class="node">
<title>Node6</title>
<g id="a_node6"><a xlink:href="classPoint.html" target="_top" xlink:title=" ">
<polygon fill="#ffffff" stroke="#000000" points="315,-529 315,-663 373,-663 373,-529 315,-529"/>
<text text-anchor="middle" x="344" y="-651" font-family="Helvetica,sans-Serif" font-size="10.00" fill="#000000">Point</text>
<polyline fill="none" stroke="#000000" points="315,-644 373,-644 "/>
<text text-anchor="start" x="323" y="-632" font-family="Helvetica,sans-Serif" font-size="10.00" fill="#000000">&#45; x</text>
<text text-anchor="start" x="323" y="-621" font-family="Helvetica,sans-Serif" font-size="10.00" fill="#000000">&#45; y</text>
<polyline fill="none" stroke="#000000" points="315,-614 373,-614 "/>
<text text-anchor="start" x="323" y="-602" font-family="Helvetica,sans-Serif" font-size="10.00" fill="#000000">+ Point()</text>
<text text-anchor="start" x="323" y="-591" font-family="Helvetica,sans-Serif" font-size="10.00" fill="#000000">+ getX()</text>
<text text-anchor="start" x="323" y="-580" font-family="Helvetica,sans-Serif" font-size="10.00" fill="#000000">+ getY()</text>
<text text-anchor="start" x="323" y="-569" font-family="Helvetica,sans-Serif" font-size="10.00" fill="#000000">+ add()</text>
<text text-anchor="start" x="323" y="-558" font-family="Helvetica,sans-Serif" font-size="10.00" fill="#000000">+ set()</text>
<text text-anchor="start" x="323" y="-547" font-family="Helvetica,sans-Serif" font-size="10.00" fill="#000000">+ move()</text>
<text text-anchor="start" x="323" y="-536" font-family="Helvetica,sans-Serif" font-size="10.00" fill="#000000">+ toTile()</text>
</a>
</g>
</g>
<!-- Node6&#45;&gt;Node1 -->
<g id="edge6" class="edge">
<title>Node6&#45;&gt;Node1</title>
<path fill="none" stroke="#404040" d="M331.7291,-528.9371C324.6607,-491.4914 315.3456,-444.0462 306,-402 301.0805,-379.8673 295.6506,-356.6587 290.1273,-333.7501"/>
<polygon fill="none" stroke="#404040" points="290.0589,-333.4675 284.7584,-328.5784 287.2328,-321.8051 292.5333,-326.6942 290.0589,-333.4675"/>
<text text-anchor="middle" x="332.5" y="-376" font-family="Helvetica,sans-Serif" font-size="10.00" fill="#000000"> &#45;activeTile</text>
<text text-anchor="middle" x="332.5" y="-365" font-family="Helvetica,sans-Serif" font-size="10.00" fill="#000000">&#45;dragOrigin</text>
<text text-anchor="middle" x="332.5" y="-354" font-family="Helvetica,sans-Serif" font-size="10.00" fill="#000000">+offset</text>
<text text-anchor="middle" x="332.5" y="-343" font-family="Helvetica,sans-Serif" font-size="10.00" fill="#000000">&#45;dragPosition</text>
</g>
<!-- Node7 -->
<g id="node7" class="node">
<title>Node7</title>
<g id="a_node7"><a xlink:href="classDataModel.html" target="_top" xlink:title=" ">
<polygon fill="#ffffff" stroke="#000000" points="391.5,-402.5 391.5,-789.5 528.5,-789.5 528.5,-402.5 391.5,-402.5"/>
<text text-anchor="middle" x="460" y="-777.5" font-family="Helvetica,sans-Serif" font-size="10.00" fill="#000000">DataModel</text>
<polyline fill="none" stroke="#000000" points="391.5,-770.5 528.5,-770.5 "/>
<text text-anchor="start" x="399.5" y="-758.5" font-family="Helvetica,sans-Serif" font-size="10.00" fill="#000000">&#45; balance</text>
<text text-anchor="start" x="399.5" y="-747.5" font-family="Helvetica,sans-Serif" font-size="10.00" fill="#000000">&#45; time</text>
<text text-anchor="start" x="399.5" y="-736.5" font-family="Helvetica,sans-Serif" font-size="10.00" fill="#000000">&#45; coordinateX</text>
<text text-anchor="start" x="399.5" y="-725.5" font-family="Helvetica,sans-Serif" font-size="10.00" fill="#000000">&#45; coordinateY</text>
<text text-anchor="start" x="399.5" y="-714.5" font-family="Helvetica,sans-Serif" font-size="10.00" fill="#000000">&#45; mapLoaded</text>
<text text-anchor="start" x="399.5" y="-703.5" font-family="Helvetica,sans-Serif" font-size="10.00" fill="#000000">&#45; ip</text>
<text text-anchor="start" x="399.5" y="-692.5" font-family="Helvetica,sans-Serif" font-size="10.00" fill="#000000">&#45; port</text>
<text text-anchor="start" x="399.5" y="-681.5" font-family="Helvetica,sans-Serif" font-size="10.00" fill="#000000">&#45; balanceLabel</text>
<text text-anchor="start" x="399.5" y="-670.5" font-family="Helvetica,sans-Serif" font-size="10.00" fill="#000000">&#45; timeLabel</text>
<text text-anchor="start" x="399.5" y="-659.5" font-family="Helvetica,sans-Serif" font-size="10.00" fill="#000000">&#45; positionLabel</text>
<text text-anchor="start" x="399.5" y="-648.5" font-family="Helvetica,sans-Serif" font-size="10.00" fill="#000000">&#45; statusDisplay</text>
<text text-anchor="start" x="399.5" y="-637.5" font-family="Helvetica,sans-Serif" font-size="10.00" fill="#000000">&#45; connectionLabel</text>
<text text-anchor="start" x="399.5" y="-626.5" font-family="Helvetica,sans-Serif" font-size="10.00" fill="#000000">&#45; mode</text>
<polyline fill="none" stroke="#000000" points="391.5,-619.5 528.5,-619.5 "/>
<text text-anchor="start" x="399.5" y="-607.5" font-family="Helvetica,sans-Serif" font-size="10.00" fill="#000000">+ DataModel()</text>
<text text-anchor="start" x="399.5" y="-596.5" font-family="Helvetica,sans-Serif" font-size="10.00" fill="#000000">+ getBalance()</text>
<text text-anchor="start" x="399.5" y="-585.5" font-family="Helvetica,sans-Serif" font-size="10.00" fill="#000000">+ updateBalance()</text>
<text text-anchor="start" x="399.5" y="-574.5" font-family="Helvetica,sans-Serif" font-size="10.00" fill="#000000">+ takeBalance()</text>
<text text-anchor="start" x="399.5" y="-563.5" font-family="Helvetica,sans-Serif" font-size="10.00" fill="#000000">+ timeTick()</text>
<text text-anchor="start" x="399.5" y="-552.5" font-family="Helvetica,sans-Serif" font-size="10.00" fill="#000000">+ getTime()</text>
<text text-anchor="start" x="399.5" y="-541.5" font-family="Helvetica,sans-Serif" font-size="10.00" fill="#000000">+ setTime()</text>
<text text-anchor="start" x="399.5" y="-530.5" font-family="Helvetica,sans-Serif" font-size="10.00" fill="#000000">+ getSystemMillis()</text>
<text text-anchor="start" x="399.5" y="-519.5" font-family="Helvetica,sans-Serif" font-size="10.00" fill="#000000">+ updateCoordinates()</text>
<text text-anchor="start" x="399.5" y="-508.5" font-family="Helvetica,sans-Serif" font-size="10.00" fill="#000000">+ getHoverX()</text>
<text text-anchor="start" x="399.5" y="-497.5" font-family="Helvetica,sans-Serif" font-size="10.00" fill="#000000">und 13 mehr ...</text>
<text text-anchor="start" x="399.5" y="-486.5" font-family="Helvetica,sans-Serif" font-size="10.00" fill="#000000">+ setDefaultMode()</text>
<text text-anchor="start" x="399.5" y="-475.5" font-family="Helvetica,sans-Serif" font-size="10.00" fill="#000000">+ setTrainStationMode()</text>
<text text-anchor="start" x="399.5" y="-464.5" font-family="Helvetica,sans-Serif" font-size="10.00" fill="#000000">+ setDepotMode()</text>
<text text-anchor="start" x="399.5" y="-453.5" font-family="Helvetica,sans-Serif" font-size="10.00" fill="#000000">+ setTerminalMode()</text>
<text text-anchor="start" x="399.5" y="-442.5" font-family="Helvetica,sans-Serif" font-size="10.00" fill="#000000">+ setBridgeMode()</text>
<text text-anchor="start" x="399.5" y="-431.5" font-family="Helvetica,sans-Serif" font-size="10.00" fill="#000000">+ setRailPlacementMode()</text>
<text text-anchor="start" x="399.5" y="-420.5" font-family="Helvetica,sans-Serif" font-size="10.00" fill="#000000">+ setRemoveMode()</text>
<text text-anchor="start" x="399.5" y="-409.5" font-family="Helvetica,sans-Serif" font-size="10.00" fill="#000000">+ setMapLoaded()</text>
</a>
</g>
</g>
<!-- Node7&#45;&gt;Node1 -->
<g id="edge7" class="edge">
<title>Node7&#45;&gt;Node1</title>
<path fill="none" stroke="#404040" d="M395.4361,-402.31C386.6159,-380.959 377.0937,-359.8002 367,-340 352.2714,-311.1079 333.6908,-281.3152 315.5396,-254.5253"/>
<polygon fill="none" stroke="#404040" points="315.3944,-254.3132 308.7036,-251.6236 308.613,-244.413 315.3037,-247.1026 315.3944,-254.3132"/>
<text text-anchor="middle" x="414.5" y="-359.5" font-family="Helvetica,sans-Serif" font-size="10.00" fill="#000000"> &#45;dataModel</text>
</g>
<!-- Node8 -->
<g id="node8" class="node">
<title>Node8</title>
<g id="a_node8"><a xlink:title=" ">
<polygon fill="#ffffff" stroke="#bfbfbf" points="348.5,-898 348.5,-955 401.5,-955 401.5,-898 348.5,-898"/>
<text text-anchor="middle" x="375" y="-943" font-family="Helvetica,sans-Serif" font-size="10.00" fill="#000000">QObject</text>
<polyline fill="none" stroke="#bfbfbf" points="348.5,-936 401.5,-936 "/>
<text text-anchor="middle" x="375" y="-924" font-family="Helvetica,sans-Serif" font-size="10.00" fill="#000000"> </text>
<polyline fill="none" stroke="#bfbfbf" points="348.5,-917 401.5,-917 "/>
<text text-anchor="middle" x="375" y="-905" font-family="Helvetica,sans-Serif" font-size="10.00" fill="#000000"> </text>
</a>
</g>
</g>
<!-- Node8&#45;&gt;Node7 -->
<g id="edge8" class="edge">
<title>Node8&#45;&gt;Node7</title>
<path fill="none" stroke="#191970" d="M384.9425,-887.8413C391.4721,-862.4525 400.5583,-827.1233 410.1599,-789.7899"/>
<polygon fill="none" stroke="#191970" points="381.4957,-887.1918 382.3945,-897.7485 388.2751,-888.9354 381.4957,-887.1918"/>
</g>
<!-- Node9 -->
<g id="node9" class="node">
<title>Node9</title>
<g id="a_node9"><a xlink:href="classPlayer.html" target="_top" xlink:title=" ">
<polygon fill="#ffffff" stroke="#000000" points="419.5,-887 419.5,-966 500.5,-966 500.5,-887 419.5,-887"/>
<text text-anchor="middle" x="460" y="-954" font-family="Helvetica,sans-Serif" font-size="10.00" fill="#000000">Player</text>
<polyline fill="none" stroke="#000000" points="419.5,-947 500.5,-947 "/>
<text text-anchor="start" x="427.5" y="-935" font-family="Helvetica,sans-Serif" font-size="10.00" fill="#000000">+ posX</text>
<text text-anchor="start" x="427.5" y="-924" font-family="Helvetica,sans-Serif" font-size="10.00" fill="#000000">+ posY</text>
<polyline fill="none" stroke="#000000" points="419.5,-917 500.5,-917 "/>
<text text-anchor="start" x="427.5" y="-905" font-family="Helvetica,sans-Serif" font-size="10.00" fill="#000000">+ Player()</text>
<text text-anchor="start" x="427.5" y="-894" font-family="Helvetica,sans-Serif" font-size="10.00" fill="#000000">+ setPosition()</text>
</a>
</g>
</g>
<!-- Node9&#45;&gt;Node7 -->
<g id="edge9" class="edge">
<title>Node9&#45;&gt;Node7</title>
<path fill="none" stroke="#404040" d="M460,-886.9623C460,-864.3777 460,-834.1372 460,-801.6796"/>
<polygon fill="none" stroke="#404040" points="460.0001,-801.6313 456,-795.6313 460,-789.6313 464,-795.6313 460.0001,-801.6313"/>
<text text-anchor="middle" x="496.5" y="-811" font-family="Helvetica,sans-Serif" font-size="10.00" fill="#000000"> +secondPlayer</text>
</g>
<!-- Node10 -->
<g id="node10" class="node">
<title>Node10</title>
<g id="a_node10"><a xlink:href="classHighlighter.html" target="_top" xlink:title=" ">
<polygon fill="#ffffff" stroke="#000000" points="420.5,-1063.5 420.5,-1131.5 499.5,-1131.5 499.5,-1063.5 420.5,-1063.5"/>
<text text-anchor="middle" x="460" y="-1119.5" font-family="Helvetica,sans-Serif" font-size="10.00" fill="#000000">Highlighter</text>
<polyline fill="none" stroke="#000000" points="420.5,-1112.5 499.5,-1112.5 "/>
<text text-anchor="start" x="428.5" y="-1100.5" font-family="Helvetica,sans-Serif" font-size="10.00" fill="#000000">&#45; outline</text>
<polyline fill="none" stroke="#000000" points="420.5,-1093.5 499.5,-1093.5 "/>
<text text-anchor="start" x="428.5" y="-1081.5" font-family="Helvetica,sans-Serif" font-size="10.00" fill="#000000">+ Highlighter()</text>
<text text-anchor="start" x="428.5" y="-1070.5" font-family="Helvetica,sans-Serif" font-size="10.00" fill="#000000">+ setColor()</text>
</a>
</g>
</g>
<!-- Node10&#45;&gt;Node9 -->
<g id="edge10" class="edge">
<title>Node10&#45;&gt;Node9</title>
<path fill="none" stroke="#404040" d="M460,-1063.3066C460,-1038.9647 460,-1005.8183 460,-978.249"/>
<polygon fill="none" stroke="#404040" points="460.0001,-978.0262 456,-972.0262 460,-966.0262 464,-972.0261 460.0001,-978.0262"/>
<text text-anchor="middle" x="487.5" y="-1037" font-family="Helvetica,sans-Serif" font-size="10.00" fill="#000000"> +highlighter</text>
</g>
<!-- Node11 -->
<g id="node11" class="node">
<title>Node11</title>
<g id="a_node11"><a xlink:title=" ">
<polygon fill="#ffffff" stroke="#bfbfbf" points="408,-1169.5 408,-1226.5 512,-1226.5 512,-1169.5 408,-1169.5"/>
<text text-anchor="middle" x="460" y="-1214.5" font-family="Helvetica,sans-Serif" font-size="10.00" fill="#000000">QGraphicsRectItem</text>
<polyline fill="none" stroke="#bfbfbf" points="408,-1207.5 512,-1207.5 "/>
<text text-anchor="middle" x="460" y="-1195.5" font-family="Helvetica,sans-Serif" font-size="10.00" fill="#000000"> </text>
<polyline fill="none" stroke="#bfbfbf" points="408,-1188.5 512,-1188.5 "/>
<text text-anchor="middle" x="460" y="-1176.5" font-family="Helvetica,sans-Serif" font-size="10.00" fill="#000000"> </text>
</a>
</g>
</g>
<!-- Node11&#45;&gt;Node10 -->
<g id="edge11" class="edge">
<title>Node11&#45;&gt;Node10</title>
<path fill="none" stroke="#191970" d="M460,-1159.1903C460,-1150.1667 460,-1140.6233 460,-1131.8097"/>
<polygon fill="none" stroke="#191970" points="456.5001,-1159.4695 460,-1169.4696 463.5001,-1159.4696 456.5001,-1159.4695"/>
</g>
<!-- Node12 -->
<g id="node12" class="node">
<title>Node12</title>
<g id="a_node12"><a xlink:href="classMainWindow.html" target="_top" xlink:title=" ">
<polygon fill="#ffffff" stroke="#000000" points="519,-892.5 519,-960.5 615,-960.5 615,-892.5 519,-892.5"/>
<text text-anchor="middle" x="567" y="-948.5" font-family="Helvetica,sans-Serif" font-size="10.00" fill="#000000">MainWindow</text>
<polyline fill="none" stroke="#000000" points="519,-941.5 615,-941.5 "/>
<text text-anchor="start" x="527" y="-929.5" font-family="Helvetica,sans-Serif" font-size="10.00" fill="#000000">&#45; ui</text>
<polyline fill="none" stroke="#000000" points="519,-922.5 615,-922.5 "/>
<text text-anchor="start" x="527" y="-910.5" font-family="Helvetica,sans-Serif" font-size="10.00" fill="#000000">+ MainWindow()</text>
<text text-anchor="start" x="527" y="-899.5" font-family="Helvetica,sans-Serif" font-size="10.00" fill="#000000">+ ~MainWindow()</text>
</a>
</g>
</g>
<!-- Node12&#45;&gt;Node7 -->
<g id="edge12" class="edge">
<title>Node12&#45;&gt;Node7</title>
<path fill="none" stroke="#404040" d="M559.2987,-892.2805C553.7074,-868.4755 545.6348,-836.0955 537,-808 535.4955,-803.1048 533.9438,-798.1565 532.3536,-793.1733"/>
<polygon fill="none" stroke="#404040" points="532.2684,-792.9093 526.6168,-788.4304 528.5775,-781.491 534.229,-785.9698 532.2684,-792.9093"/>
<text text-anchor="middle" x="572.5" y="-811" font-family="Helvetica,sans-Serif" font-size="10.00" fill="#000000"> &#45;mainWindow</text>
</g>
<!-- Node13 -->
<g id="node13" class="node">
<title>Node13</title>
<g id="a_node13"><a xlink:title=" ">
<polygon fill="#ffffff" stroke="#bfbfbf" points="525.5,-1069 525.5,-1126 608.5,-1126 608.5,-1069 525.5,-1069"/>
<text text-anchor="middle" x="567" y="-1114" font-family="Helvetica,sans-Serif" font-size="10.00" fill="#000000">QMainWindow</text>
<polyline fill="none" stroke="#bfbfbf" points="525.5,-1107 608.5,-1107 "/>
<text text-anchor="middle" x="567" y="-1095" font-family="Helvetica,sans-Serif" font-size="10.00" fill="#000000"> </text>
<polyline fill="none" stroke="#bfbfbf" points="525.5,-1088 608.5,-1088 "/>
<text text-anchor="middle" x="567" y="-1076" font-family="Helvetica,sans-Serif" font-size="10.00" fill="#000000"> </text>
</a>
</g>
</g>
<!-- Node13&#45;&gt;Node12 -->
<g id="edge13" class="edge">
<title>Node13&#45;&gt;Node12</title>
<path fill="none" stroke="#191970" d="M567,-1058.5167C567,-1028.9698 567,-988.768 567,-960.5157"/>
<polygon fill="none" stroke="#191970" points="563.5001,-1058.8784 567,-1068.8784 570.5001,-1058.8785 563.5001,-1058.8784"/>
</g>
</g>
</svg>
