<?xml version="1.0" encoding="UTF-8" standalone="no"?>
<!DOCTYPE svg PUBLIC "-//W3C//DTD SVG 1.1//EN"
 "http://www.w3.org/Graphics/SVG/1.1/DTD/svg11.dtd">
<!-- Generated by graphviz version 2.40.1 (20161225.0304)
 -->
<!-- Title: MapRenderer::keyReleaseEvent Pages: 1 -->
<!--zoomable 256 -->
<svg id="main" version="1.1" xmlns="http://www.w3.org/2000/svg" xmlns:xlink="http://www.w3.org/1999/xlink" xml:space="preserve" onload="init(evt)">
<style type="text/css"><![CDATA[
.edge:hover path { stroke: red; }
.edge:hover polygon { stroke: red; fill: red; }
]]></style>
<script type="text/javascript"><![CDATA[
var edges = document.getElementsByTagName('g');
if (edges && edges.length) {
  for (var i=0;i<edges.length;i++) {
    if (edges[i].id.substr(0,4)=='edge') {
      edges[i].setAttribute('class','edge');
    }
  }
}
]]></script>
        <defs>
                <circle id="rim" cx="0" cy="0" r="7"/>
                <circle id="rim2" cx="0" cy="0" r="3.5"/>
                <g id="zoomPlus">
                        <use xlink:href="#rim" fill="#404040">
                                <set attributeName="fill" to="#808080" begin="zoomplus.mouseover" end="zoomplus.mouseout"/>
                        </use>
                        <path d="M-4,0h8M0,-4v8" fill="none" stroke="white" stroke-width="1.5" pointer-events="none"/>
                </g>
                <g id="zoomMin">
                        <use xlink:href="#rim" fill="#404040">
                                <set attributeName="fill" to="#808080" begin="zoomminus.mouseover" end="zoomminus.mouseout"/>
                        </use>
                        <path d="M-4,0h8" fill="none" stroke="white" stroke-width="1.5" pointer-events="none"/>
                </g>
                <g id="dirArrow">
                        <path fill="none" stroke="white" stroke-width="1.5" d="M0,-3.0v7 M-2.5,-0.5L0,-3.0L2.5,-0.5"/>
                </g>
               <g id="resetDef">
                       <use xlink:href="#rim2" fill="#404040">
                               <set attributeName="fill" to="#808080" begin="reset.mouseover" end="reset.mouseout"/>
                       </use>
               </g>
        </defs>

<script type="text/javascript">
var viewWidth = 713;
var viewHeight = 256;
var sectionId = 'dynsection-12';
</script>
<script xlink:href="svgpan.js"/>
<svg id="graph" class="graph">
<g id="viewport">
<title>MapRenderer::keyReleaseEvent</title>
<polygon fill="#ffffff" stroke="transparent" points="-4,4 -4,-252 709,-252 709,4 -4,4"/>
<!-- Node1 -->
<g id="node1" class="node">
<title>Node1</title>
<g id="a_node1"><a xlink:title=" ">
<polygon fill="#bfbfbf" stroke="#000000" points="0,-95.5 0,-114.5 164,-114.5 164,-95.5 0,-95.5"/>
<text text-anchor="middle" x="82" y="-102.5" font-family="Helvetica,sans-Serif" font-size="10.00" fill="#000000">MapRenderer::keyReleaseEvent</text>
</a>
</g>
</g>
<!-- Node2 -->
<g id="node2" class="node">
<title>Node2</title>
<g id="a_node2"><a xlink:href="classMapRenderer.html#a6b690a49223b2006a4816b706a4b156e" target="_top" xlink:title="MapRenderer::demo Zeigt eine Demo&#45;Visualisierung.">
<polygon fill="#ffffff" stroke="#000000" points="219,-114.5 219,-133.5 329,-133.5 329,-114.5 219,-114.5"/>
<text text-anchor="middle" x="274" y="-121.5" font-family="Helvetica,sans-Serif" font-size="10.00" fill="#000000">MapRenderer::demo</text>
</a>
</g>
</g>
<!-- Node1&#45;&gt;Node2 -->
<g id="edge1" class="edge">
<title>Node1&#45;&gt;Node2</title>
<path fill="none" stroke="#191970" d="M164.2608,-113.1404C179.0851,-114.6074 194.3557,-116.1185 208.6191,-117.53"/>
<polygon fill="#191970" stroke="#191970" points="208.5101,-121.0362 218.8062,-118.5381 209.1995,-114.0703 208.5101,-121.0362"/>
</g>
<!-- Node11 -->
<g id="node11" class="node">
<title>Node11</title>
<g id="a_node11"><a xlink:href="classDataModel.html#a6d8acc40d2adf1a5ab5c314f7e2727c6" target="_top" xlink:title="DataModel::toggleFullscreen Toggled den Vollbildmodus.">
<polygon fill="#ffffff" stroke="#000000" points="200,-76.5 200,-95.5 348,-95.5 348,-76.5 200,-76.5"/>
<text text-anchor="middle" x="274" y="-83.5" font-family="Helvetica,sans-Serif" font-size="10.00" fill="#000000">DataModel::toggleFullscreen</text>
</a>
</g>
</g>
<!-- Node1&#45;&gt;Node11 -->
<g id="edge11" class="edge">
<title>Node1&#45;&gt;Node11</title>
<path fill="none" stroke="#191970" d="M164.2608,-96.8596C172.6546,-96.029 181.1915,-95.1842 189.6076,-94.3513"/>
<polygon fill="#191970" stroke="#191970" points="190.189,-97.811 199.7957,-93.3431 189.4996,-90.845 190.189,-97.811"/>
</g>
<!-- Node3 -->
<g id="node3" class="node">
<title>Node3</title>
<g id="a_node3"><a xlink:href="classMapRenderer.html#aa798710f4ea856a9ccc8d789e7c27795" target="_top" xlink:title=" ">
<polygon fill="#ffffff" stroke="#000000" points="384,-228.5 384,-247.5 551,-247.5 551,-228.5 384,-228.5"/>
<text text-anchor="middle" x="467.5" y="-235.5" font-family="Helvetica,sans-Serif" font-size="10.00" fill="#000000">MapRenderer::animateMovement</text>
</a>
</g>
</g>
<!-- Node2&#45;&gt;Node3 -->
<g id="edge2" class="edge">
<title>Node2&#45;&gt;Node3</title>
<path fill="none" stroke="#191970" d="M282.0212,-133.5324C298.8301,-152.8538 339.8616,-196.6876 384,-219 388.8097,-221.4314 393.9315,-223.5551 399.1807,-225.4096"/>
<polygon fill="#191970" stroke="#191970" points="398.1357,-228.75 408.7267,-228.4653 400.2697,-222.0832 398.1357,-228.75"/>
</g>
<!-- Node4 -->
<g id="node4" class="node">
<title>Node4</title>
<g id="a_node4"><a xlink:href="classCity.html#aa386d95c7f928b239bc4973ce816106d" target="_top" xlink:title="City::setCenter Setzt den Mittelpunkt der Stadt.">
<polygon fill="#ffffff" stroke="#000000" points="426,-190.5 426,-209.5 509,-209.5 509,-190.5 426,-190.5"/>
<text text-anchor="middle" x="467.5" y="-197.5" font-family="Helvetica,sans-Serif" font-size="10.00" fill="#000000">City::setCenter</text>
</a>
</g>
</g>
<!-- Node2&#45;&gt;Node4 -->
<g id="edge3" class="edge">
<title>Node2&#45;&gt;Node4</title>
<path fill="none" stroke="#191970" d="M289.4525,-133.6221C310.2291,-146.1759 348.6533,-168.0609 384,-181 394.0509,-184.6792 405.0523,-187.7917 415.6748,-190.3653"/>
<polygon fill="#191970" stroke="#191970" points="415.1699,-193.8404 425.6997,-192.6685 416.7373,-187.0181 415.1699,-193.8404"/>
</g>
<!-- Node5 -->
<g id="node5" class="node">
<title>Node5</title>
<g id="a_node5"><a xlink:href="classMapTile.html#a95eefbf7247ae6adef4aaee0a35eaa4f" target="_top" xlink:title="MapTile::setCity.">
<polygon fill="#ffffff" stroke="#000000" points="422,-152.5 422,-171.5 513,-171.5 513,-152.5 422,-152.5"/>
<text text-anchor="middle" x="467.5" y="-159.5" font-family="Helvetica,sans-Serif" font-size="10.00" fill="#000000">MapTile::setCity</text>
</a>
</g>
</g>
<!-- Node2&#45;&gt;Node5 -->
<g id="edge4" class="edge">
<title>Node2&#45;&gt;Node5</title>
<path fill="none" stroke="#191970" d="M322.8282,-133.589C349.8505,-138.8957 383.5452,-145.5128 411.6166,-151.0255"/>
<polygon fill="#191970" stroke="#191970" points="411.1945,-154.5094 421.6815,-153.0021 412.5434,-147.6406 411.1945,-154.5094"/>
</g>
<!-- Node6 -->
<g id="node6" class="node">
<title>Node6</title>
<g id="a_node6"><a xlink:href="classCity.html#a198b26b45e0b52f27a18b3631db5070c" target="_top" xlink:title="City::setName Setzt den Namen der Stadt.">
<polygon fill="#ffffff" stroke="#000000" points="427.5,-114.5 427.5,-133.5 507.5,-133.5 507.5,-114.5 427.5,-114.5"/>
<text text-anchor="middle" x="467.5" y="-121.5" font-family="Helvetica,sans-Serif" font-size="10.00" fill="#000000">City::setName</text>
</a>
</g>
</g>
<!-- Node2&#45;&gt;Node6 -->
<g id="edge5" class="edge">
<title>Node2&#45;&gt;Node6</title>
<path fill="none" stroke="#191970" d="M329.1904,-124C356.9248,-124 390.2848,-124 417.2926,-124"/>
<polygon fill="#191970" stroke="#191970" points="417.3076,-127.5001 427.3076,-124 417.3075,-120.5001 417.3076,-127.5001"/>
</g>
<!-- Node7 -->
<g id="node7" class="node">
<title>Node7</title>
<g id="a_node7"><a xlink:href="classMapTile.html#a57b8310cfe045dc6a8e0c3c25fe9fc52" target="_top" xlink:title="MapTile::setRotation Hilfsfunktion zur Rotation im Quadrat.">
<polygon fill="#ffffff" stroke="#000000" points="591,-57.5 591,-76.5 701,-76.5 701,-57.5 591,-57.5"/>
<text text-anchor="middle" x="646" y="-64.5" font-family="Helvetica,sans-Serif" font-size="10.00" fill="#000000">MapTile::setRotation</text>
</a>
</g>
</g>
<!-- Node2&#45;&gt;Node7 -->
<g id="edge6" class="edge">
<title>Node2&#45;&gt;Node7</title>
<path fill="none" stroke="#191970" d="M327.3833,-114.4808C345.3542,-111.3559 365.5299,-107.934 384,-105 451.0585,-94.3476 527.97,-83.3352 581.0321,-75.9257"/>
<polygon fill="#191970" stroke="#191970" points="581.5639,-79.3855 590.9852,-74.539 580.5979,-72.4525 581.5639,-79.3855"/>
</g>
<!-- Node8 -->
<g id="node8" class="node">
<title>Node8</title>
<g id="a_node8"><a xlink:href="classCity.html#ac4ff08b2faa48f34b8ffbff37f4b0621" target="_top" xlink:title="City::setSize Gibt die Größe der Stadt zurück (Anzahl der Gebäude)">
<polygon fill="#ffffff" stroke="#000000" points="430.5,-38.5 430.5,-57.5 504.5,-57.5 504.5,-38.5 430.5,-38.5"/>
<text text-anchor="middle" x="467.5" y="-45.5" font-family="Helvetica,sans-Serif" font-size="10.00" fill="#000000">City::setSize</text>
</a>
</g>
</g>
<!-- Node2&#45;&gt;Node8 -->
<g id="edge7" class="edge">
<title>Node2&#45;&gt;Node8</title>
<path fill="none" stroke="#191970" d="M325.0155,-114.4327C332.9614,-111.9518 340.8865,-108.8551 348,-105 367.0829,-94.6581 365.0667,-82.6132 384,-72 395.2125,-65.7148 408.2129,-60.9545 420.5684,-57.4005"/>
<polygon fill="#191970" stroke="#191970" points="421.5346,-60.7652 430.2925,-54.8028 419.7279,-54.0024 421.5346,-60.7652"/>
</g>
<!-- Node9 -->
<g id="node9" class="node">
<title>Node9</title>
<g id="a_node9"><a xlink:href="classMapTile.html#a6f6c6e03095e0f1ed503dd30f499793c" target="_top" xlink:title="MapTile::setType Setzt den Typ der Kachel.">
<polygon fill="#ffffff" stroke="#000000" points="418.5,-.5 418.5,-19.5 516.5,-19.5 516.5,-.5 418.5,-.5"/>
<text text-anchor="middle" x="467.5" y="-7.5" font-family="Helvetica,sans-Serif" font-size="10.00" fill="#000000">MapTile::setType</text>
</a>
</g>
</g>
<!-- Node2&#45;&gt;Node9 -->
<g id="edge8" class="edge">
<title>Node2&#45;&gt;Node9</title>
<path fill="none" stroke="#191970" d="M329.192,-115.6942C335.9888,-113.0393 342.4754,-109.5585 348,-105 376.8288,-81.2126 354.8458,-52.3874 384,-29 391.1538,-23.2613 399.7083,-19.185 408.5732,-16.3032"/>
<polygon fill="#191970" stroke="#191970" points="409.5579,-19.6623 418.2627,-13.6228 407.6915,-12.9157 409.5579,-19.6623"/>
</g>
<!-- Node9&#45;&gt;Node7 -->
<g id="edge10" class="edge">
<title>Node9&#45;&gt;Node7</title>
<path fill="none" stroke="#191970" d="M515.5325,-19.5752C527.2326,-22.2785 539.645,-25.4611 551,-29 572.9944,-35.8548 597.0856,-45.517 615.5042,-53.3827"/>
<polygon fill="#191970" stroke="#191970" points="614.2726,-56.6634 624.8401,-57.4229 617.0527,-50.2391 614.2726,-56.6634"/>
</g>
<!-- Node10 -->
<g id="node10" class="node">
<title>Node10</title>
<g id="a_node10"><a xlink:href="classGraphicsManager.html#aa094318dfcf4d0d399296b323dd670c6" target="_top" xlink:title="GraphicsManager::get Liefert eine Grafik mit einem bestimmten Namen.">
<polygon fill="#ffffff" stroke="#000000" points="587,-.5 587,-19.5 705,-19.5 705,-.5 587,-.5"/>
<text text-anchor="middle" x="646" y="-7.5" font-family="Helvetica,sans-Serif" font-size="10.00" fill="#000000">GraphicsManager::get</text>
</a>
</g>
</g>
<!-- Node9&#45;&gt;Node10 -->
<g id="edge9" class="edge">
<title>Node9&#45;&gt;Node10</title>
<path fill="none" stroke="#191970" d="M516.7484,-10C535.2869,-10 556.7287,-10 576.7539,-10"/>
<polygon fill="#191970" stroke="#191970" points="576.7616,-13.5001 586.7616,-10 576.7616,-6.5001 576.7616,-13.5001"/>
</g>
</g>
</svg>
        <g id="navigator" transform="translate(0 0)" fill="#404254">
                <rect fill="#f2f5e9" fill-opacity="0.5" stroke="#606060" stroke-width=".5" x="0" y="0" width="60" height="60"/>
                <use id="zoomplus" xlink:href="#zoomPlus" x="17" y="9" onmousedown="handleZoom(evt,'in')"/>
                <use id="zoomminus" xlink:href="#zoomMin" x="42" y="9" onmousedown="handleZoom(evt,'out')"/>
                <use id="reset" xlink:href="#resetDef" x="30" y="36" onmousedown="handleReset()"/>
                <g id="arrowUp" xlink:href="#dirArrow" transform="translate(30 24)" onmousedown="handlePan(0,-1)">
                  <use xlink:href="#rim" fill="#404040">
                        <set attributeName="fill" to="#808080" begin="arrowUp.mouseover" end="arrowUp.mouseout"/>
                  </use>
                  <path fill="none" stroke="white" stroke-width="1.5" d="M0,-3.0v7 M-2.5,-0.5L0,-3.0L2.5,-0.5"/>
                </g>
                <g id="arrowRight" xlink:href="#dirArrow" transform="rotate(90) translate(36 -43)" onmousedown="handlePan(1,0)">
                  <use xlink:href="#rim" fill="#404040">
                        <set attributeName="fill" to="#808080" begin="arrowRight.mouseover" end="arrowRight.mouseout"/>
                  </use>
                  <path fill="none" stroke="white" stroke-width="1.5" d="M0,-3.0v7 M-2.5,-0.5L0,-3.0L2.5,-0.5"/>
                </g>
                <g id="arrowDown" xlink:href="#dirArrow" transform="rotate(180) translate(-30 -48)" onmousedown="handlePan(0,1)">
                  <use xlink:href="#rim" fill="#404040">
                        <set attributeName="fill" to="#808080" begin="arrowDown.mouseover" end="arrowDown.mouseout"/>
                  </use>
                  <path fill="none" stroke="white" stroke-width="1.5" d="M0,-3.0v7 M-2.5,-0.5L0,-3.0L2.5,-0.5"/>
                </g>
                <g id="arrowLeft" xlink:href="#dirArrow" transform="rotate(270) translate(-36 17)" onmousedown="handlePan(-1,0)">
                  <use xlink:href="#rim" fill="#404040">
                        <set attributeName="fill" to="#808080" begin="arrowLeft.mouseover" end="arrowLeft.mouseout"/>
                  </use>
                  <path fill="none" stroke="white" stroke-width="1.5" d="M0,-3.0v7 M-2.5,-0.5L0,-3.0L2.5,-0.5"/>
                </g>
        </g>
        <svg viewBox="0 0 15 15" width="100%" height="30px" preserveAspectRatio="xMaxYMin meet">
         <g id="arrow_out" transform="scale(0.3 0.3)">
          <a xlink:href="classMapRenderer_a9f43e4b3db6a2cda8ea7cabf1bc6f805_cgraph_org.svg" target="_base">
           <rect id="button" ry="5" rx="5" y="6" x="6" height="38" width="38"
                fill="#f2f5e9" fill-opacity="0.5" stroke="#606060" stroke-width="1.0"/>
           <path id="arrow"
             d="M 11.500037,31.436501 C 11.940474,20.09759 22.043105,11.32322 32.158766,21.979434 L 37.068811,17.246167 C 37.068811,17.246167 37.088388,32 37.088388,32 L 22.160133,31.978069 C 22.160133,31.978069 26.997745,27.140456 26.997745,27.140456 C 18.528582,18.264221 13.291696,25.230495 11.500037,31.436501 z"
             style="fill:#404040;"/>
          </a>
         </g>
        </svg>
</svg>
