<?xml version="1.0" encoding="UTF-8" standalone="no"?>
<!DOCTYPE svg PUBLIC "-//W3C//DTD SVG 1.1//EN"
 "http://www.w3.org/Graphics/SVG/1.1/DTD/svg11.dtd">
<!-- Generated by graphviz version 2.40.1 (20161225.0304)
 -->
<!-- Title: RouteListInterface::sendRequestRoutes Pages: 1 -->
<svg width="450pt" height="78pt"
 viewBox="0.00 0.00 450.00 77.50" xmlns="http://www.w3.org/2000/svg" xmlns:xlink="http://www.w3.org/1999/xlink">
<g id="graph0" class="graph" transform="scale(1 1) rotate(0) translate(4 73.5)">
<title>RouteListInterface::sendRequestRoutes</title>
<polygon fill="#ffffff" stroke="transparent" points="-4,4 -4,-73.5 446,-73.5 446,4 -4,4"/>
<!-- Node1 -->
<g id="node1" class="node">
<title>Node1</title>
<g id="a_node1"><a xlink:title=" ">
<polygon fill="#bfbfbf" stroke="#000000" points="328,-22.5 328,-52.5 442,-52.5 442,-22.5 328,-22.5"/>
<text text-anchor="start" x="336" y="-40.5" font-family="Helvetica,sans-Serif" font-size="10.00" fill="#000000">RouteListInterface</text>
<text text-anchor="middle" x="385" y="-29.5" font-family="Helvetica,sans-Serif" font-size="10.00" fill="#000000">::sendRequestRoutes</text>
</a>
</g>
</g>
<!-- Node2 -->
<g id="node2" class="node">
<title>Node2</title>
<g id="a_node2"><a xlink:href="classMenuBar.html#a065f4d5047c978f690c259e976e9a706" target="_top" xlink:title="MenuBar::openConnection Öffnet Input&#45;Dialog für IP&#45;Adresse und iniitiert Client.">
<polygon fill="#ffffff" stroke="#000000" points="138,-50 138,-69 292,-69 292,-50 138,-50"/>
<text text-anchor="middle" x="215" y="-57" font-family="Helvetica,sans-Serif" font-size="10.00" fill="#000000">MenuBar::slotOpenConnection</text>
</a>
</g>
</g>
<!-- Node1&#45;&gt;Node2 -->
<g id="edge1" class="edge">
<title>Node1&#45;&gt;Node2</title>
<path fill="none" stroke="#191970" d="M317.984,-46.1727C308.3154,-47.4239 298.3215,-48.7172 288.5343,-49.9838"/>
<polygon fill="#191970" stroke="#191970" points="318.4515,-49.6414 327.9195,-44.8869 317.553,-42.6993 318.4515,-49.6414"/>
</g>
<!-- Node3 -->
<g id="node3" class="node">
<title>Node3</title>
<g id="a_node3"><a xlink:href="classRouteListInterface.html#a89601e6903f18dae77c8990bf884fb91" target="_top" xlink:title="RouteListInterface::toggle Wechselt die Sichtbarkeit des Widgets.">
<polygon fill="#ffffff" stroke="#000000" points="167,-.5 167,-30.5 263,-30.5 263,-.5 167,-.5"/>
<text text-anchor="start" x="175" y="-18.5" font-family="Helvetica,sans-Serif" font-size="10.00" fill="#000000">RouteListInterface</text>
<text text-anchor="middle" x="215" y="-7.5" font-family="Helvetica,sans-Serif" font-size="10.00" fill="#000000">::toggle</text>
</a>
</g>
</g>
<!-- Node1&#45;&gt;Node3 -->
<g id="edge2" class="edge">
<title>Node1&#45;&gt;Node3</title>
<path fill="none" stroke="#191970" d="M317.8977,-28.8162C299.6027,-26.4486 280.1489,-23.931 263.1381,-21.7296"/>
<polygon fill="#191970" stroke="#191970" points="317.553,-32.3007 327.9195,-30.1131 318.4515,-25.3586 317.553,-32.3007"/>
</g>
<!-- Node4 -->
<g id="node4" class="node">
<title>Node4</title>
<g id="a_node4"><a xlink:href="classRouteListInterface.html#ad8af31a3f20a7d109420cae6de3316c5" target="_top" xlink:title=" ">
<polygon fill="#ffffff" stroke="#000000" points="0,-.5 0,-30.5 102,-30.5 102,-.5 0,-.5"/>
<text text-anchor="start" x="8" y="-18.5" font-family="Helvetica,sans-Serif" font-size="10.00" fill="#000000">RouteListInterface</text>
<text text-anchor="middle" x="51" y="-7.5" font-family="Helvetica,sans-Serif" font-size="10.00" fill="#000000">::RouteListInterface</text>
</a>
</g>
</g>
<!-- Node3&#45;&gt;Node4 -->
<g id="edge3" class="edge">
<title>Node3&#45;&gt;Node4</title>
<path fill="none" stroke="#191970" d="M156.4419,-15.5C138.6887,-15.5 119.335,-15.5 102.1108,-15.5"/>
<polygon fill="#191970" stroke="#191970" points="156.6816,-19.0001 166.6816,-15.5 156.6816,-12.0001 156.6816,-19.0001"/>
</g>
</g>
</svg>
