<?xml version="1.0" encoding="UTF-8" standalone="no"?>
<!DOCTYPE svg PUBLIC "-//W3C//DTD SVG 1.1//EN"
 "http://www.w3.org/Graphics/SVG/1.1/DTD/svg11.dtd">
<!-- Generated by graphviz version 2.40.1 (20161225.0304)
 -->
<!-- Title: View::mouseReleaseEvent Pages: 1 -->
<svg width="425pt" height="180pt"
 viewBox="0.00 0.00 425.00 180.00" xmlns="http://www.w3.org/2000/svg" xmlns:xlink="http://www.w3.org/1999/xlink">
<g id="graph0" class="graph" transform="scale(1 1) rotate(0) translate(4 176)">
<title>View::mouseReleaseEvent</title>
<polygon fill="#ffffff" stroke="transparent" points="-4,4 -4,-176 421,-176 421,4 -4,4"/>
<!-- Node1 -->
<g id="node1" class="node">
<title>Node1</title>
<g id="a_node1"><a xlink:title="View::mouseReleaseEvent QT Methode. Wird aufgerufen wenn die Maus losgelassen wird.">
<polygon fill="#bfbfbf" stroke="#000000" points="0,-76.5 0,-95.5 139,-95.5 139,-76.5 0,-76.5"/>
<text text-anchor="middle" x="69.5" y="-83.5" font-family="Helvetica,sans-Serif" font-size="10.00" fill="#000000">View::mouseReleaseEvent</text>
</a>
</g>
</g>
<!-- Node2 -->
<g id="node2" class="node">
<title>Node2</title>
<g id="a_node2"><a xlink:href="classScene.html#a12826e995b183844f9415c9df77a9ac7" target="_top" xlink:title="Scene::getTileAt Liefert ein MapTile anhand der Pixel&#45;Koordinaten oder der Indizes.">
<polygon fill="#ffffff" stroke="#000000" points="175,-114.5 175,-133.5 268,-133.5 268,-114.5 175,-114.5"/>
<text text-anchor="middle" x="221.5" y="-121.5" font-family="Helvetica,sans-Serif" font-size="10.00" fill="#000000">Scene::getTileAt</text>
</a>
</g>
</g>
<!-- Node1&#45;&gt;Node2 -->
<g id="edge1" class="edge">
<title>Node1&#45;&gt;Node2</title>
<path fill="none" stroke="#191970" d="M107.856,-95.589C127.8237,-100.5809 152.4295,-106.7324 173.6334,-112.0334"/>
<polygon fill="#191970" stroke="#191970" points="172.8695,-115.45 183.4198,-114.4799 174.5673,-108.659 172.8695,-115.45"/>
</g>
<!-- Node3 -->
<g id="node3" class="node">
<title>Node3</title>
<g id="a_node3"><a xlink:href="classView.html#a8583722c800d6f301bbe52941cc0b824" target="_top" xlink:title="View::leftclick Führt einen Linksklick aus.">
<polygon fill="#ffffff" stroke="#000000" points="182.5,-76.5 182.5,-95.5 260.5,-95.5 260.5,-76.5 182.5,-76.5"/>
<text text-anchor="middle" x="221.5" y="-83.5" font-family="Helvetica,sans-Serif" font-size="10.00" fill="#000000">View::leftclick</text>
</a>
</g>
</g>
<!-- Node1&#45;&gt;Node3 -->
<g id="edge2" class="edge">
<title>Node1&#45;&gt;Node3</title>
<path fill="none" stroke="#191970" d="M139.2718,-86C150.393,-86 161.6933,-86 172.2115,-86"/>
<polygon fill="#191970" stroke="#191970" points="172.4334,-89.5001 182.4334,-86 172.4333,-82.5001 172.4334,-89.5001"/>
</g>
<!-- Node9 -->
<g id="node9" class="node">
<title>Node9</title>
<g id="a_node9"><a xlink:href="classView.html#abab0c50f3b6bf34a1aaa6f4a2b69f7ea" target="_top" xlink:title="View::leftclick Führt einen Rechtsklick aus.">
<polygon fill="#ffffff" stroke="#000000" points="179.5,-38.5 179.5,-57.5 263.5,-57.5 263.5,-38.5 179.5,-38.5"/>
<text text-anchor="middle" x="221.5" y="-45.5" font-family="Helvetica,sans-Serif" font-size="10.00" fill="#000000">View::rightclick</text>
</a>
</g>
</g>
<!-- Node1&#45;&gt;Node9 -->
<g id="edge8" class="edge">
<title>Node1&#45;&gt;Node9</title>
<path fill="none" stroke="#191970" d="M107.856,-76.411C127.8237,-71.4191 152.4295,-65.2676 173.6334,-59.9666"/>
<polygon fill="#191970" stroke="#191970" points="174.5673,-63.341 183.4198,-57.5201 172.8695,-56.55 174.5673,-63.341"/>
</g>
<!-- Node4 -->
<g id="node4" class="node">
<title>Node4</title>
<g id="a_node4"><a xlink:href="classView.html#a5b3625ec64bc9d2432cc09d33e6879f1" target="_top" xlink:title="View::fluidMovement Verschiebt die Karte animiert an zu einer absoluten Koordinate.">
<polygon fill="#ffffff" stroke="#000000" points="305.5,-152.5 305.5,-171.5 415.5,-171.5 415.5,-152.5 305.5,-152.5"/>
<text text-anchor="middle" x="360.5" y="-159.5" font-family="Helvetica,sans-Serif" font-size="10.00" fill="#000000">View::fluidMovement</text>
</a>
</g>
</g>
<!-- Node3&#45;&gt;Node4 -->
<g id="edge3" class="edge">
<title>Node3&#45;&gt;Node4</title>
<path fill="none" stroke="#191970" d="M250.5148,-95.6286C256.5422,-98.2301 262.6743,-101.3553 268,-105 287.1989,-118.1392 284.3937,-130.4769 304,-143 307.1507,-145.0124 310.5372,-146.8352 314.0303,-148.4819"/>
<polygon fill="#191970" stroke="#191970" points="312.862,-151.7874 323.4369,-152.4383 315.576,-145.3349 312.862,-151.7874"/>
</g>
<!-- Node5 -->
<g id="node5" class="node">
<title>Node5</title>
<g id="a_node5"><a xlink:href="classView.html#a33de978d43cde59ae344035ebcb60184" target="_top" xlink:title="View::fluidZoom Startet eine Zoom&#45;Animation. Zuvor muss doAnimations=true gesetzt sein....">
<polygon fill="#ffffff" stroke="#000000" points="315.5,-114.5 315.5,-133.5 405.5,-133.5 405.5,-114.5 315.5,-114.5"/>
<text text-anchor="middle" x="360.5" y="-121.5" font-family="Helvetica,sans-Serif" font-size="10.00" fill="#000000">View::fluidZoom</text>
</a>
</g>
</g>
<!-- Node3&#45;&gt;Node5 -->
<g id="edge4" class="edge">
<title>Node3&#45;&gt;Node5</title>
<path fill="none" stroke="#191970" d="M256.5756,-95.589C274.5191,-100.4944 296.5584,-106.5196 315.7167,-111.7571"/>
<polygon fill="#191970" stroke="#191970" points="314.8666,-115.1531 325.4357,-114.4141 316.7126,-108.4008 314.8666,-115.1531"/>
</g>
<!-- Node6 -->
<g id="node6" class="node">
<title>Node6</title>
<g id="a_node6"><a xlink:href="classDataModel.html#a083d84049b068cd355ce6aaa396e7c79" target="_top" xlink:title="DataModel::getMode Gibt den aktuellen Bearbeitungsmodus.">
<polygon fill="#ffffff" stroke="#000000" points="304,-76.5 304,-95.5 417,-95.5 417,-76.5 304,-76.5"/>
<text text-anchor="middle" x="360.5" y="-83.5" font-family="Helvetica,sans-Serif" font-size="10.00" fill="#000000">DataModel::getMode</text>
</a>
</g>
</g>
<!-- Node3&#45;&gt;Node6 -->
<g id="edge5" class="edge">
<title>Node3&#45;&gt;Node6</title>
<path fill="none" stroke="#191970" d="M260.5892,-86C270.856,-86 282.2258,-86 293.5074,-86"/>
<polygon fill="#191970" stroke="#191970" points="293.8091,-89.5001 303.8091,-86 293.8091,-82.5001 293.8091,-89.5001"/>
</g>
<!-- Node7 -->
<g id="node7" class="node">
<title>Node7</title>
<g id="a_node7"><a xlink:href="classMapTile.html#aaee6fda415f2a6ff305f48d342a8a47b" target="_top" xlink:title="MapTile::getX.">
<polygon fill="#ffffff" stroke="#000000" points="320,-38.5 320,-57.5 401,-57.5 401,-38.5 320,-38.5"/>
<text text-anchor="middle" x="360.5" y="-45.5" font-family="Helvetica,sans-Serif" font-size="10.00" fill="#000000">MapTile::getX</text>
</a>
</g>
</g>
<!-- Node3&#45;&gt;Node7 -->
<g id="edge6" class="edge">
<title>Node3&#45;&gt;Node7</title>
<path fill="none" stroke="#191970" d="M256.5756,-76.411C274.5191,-71.5056 296.5584,-65.4804 315.7167,-60.2429"/>
<polygon fill="#191970" stroke="#191970" points="316.7126,-63.5992 325.4357,-57.5859 314.8666,-56.8469 316.7126,-63.5992"/>
</g>
<!-- Node8 -->
<g id="node8" class="node">
<title>Node8</title>
<g id="a_node8"><a xlink:href="classMapTile.html#a27013c9d383c819e1af233e551f63bbf" target="_top" xlink:title="MapTile::getY.">
<polygon fill="#ffffff" stroke="#000000" points="320,-.5 320,-19.5 401,-19.5 401,-.5 320,-.5"/>
<text text-anchor="middle" x="360.5" y="-7.5" font-family="Helvetica,sans-Serif" font-size="10.00" fill="#000000">MapTile::getY</text>
</a>
</g>
</g>
<!-- Node3&#45;&gt;Node8 -->
<g id="edge7" class="edge">
<title>Node3&#45;&gt;Node8</title>
<path fill="none" stroke="#191970" d="M250.5148,-76.3714C256.5422,-73.7699 262.6743,-70.6447 268,-67 287.1989,-53.8608 284.3937,-41.5231 304,-29 307.1507,-26.9876 310.5372,-25.1648 314.0303,-23.5181"/>
<polygon fill="#191970" stroke="#191970" points="315.576,-26.6651 323.4369,-19.5617 312.862,-20.2126 315.576,-26.6651"/>
</g>
</g>
</svg>
