<?xml version="1.0" encoding="UTF-8" standalone="no"?>
<!DOCTYPE svg PUBLIC "-//W3C//DTD SVG 1.1//EN"
 "http://www.w3.org/Graphics/SVG/1.1/DTD/svg11.dtd">
<!-- Generated by graphviz version 2.40.1 (20161225.0304)
 -->
<!-- Title: Client Pages: 1 -->
<!--zoomable 1019 -->
<svg id="main" version="1.1" xmlns="http://www.w3.org/2000/svg" xmlns:xlink="http://www.w3.org/1999/xlink" xml:space="preserve" onload="init(evt)">
<style type="text/css"><![CDATA[
.edge:hover path { stroke: red; }
.edge:hover polygon { stroke: red; fill: red; }
]]></style>
<script type="text/javascript"><![CDATA[
var edges = document.getElementsByTagName('g');
if (edges && edges.length) {
  for (var i=0;i<edges.length;i++) {
    if (edges[i].id.substr(0,4)=='edge') {
      edges[i].setAttribute('class','edge');
    }
  }
}
]]></script>
        <defs>
                <circle id="rim" cx="0" cy="0" r="7"/>
                <circle id="rim2" cx="0" cy="0" r="3.5"/>
                <g id="zoomPlus">
                        <use xlink:href="#rim" fill="#404040">
                                <set attributeName="fill" to="#808080" begin="zoomplus.mouseover" end="zoomplus.mouseout"/>
                        </use>
                        <path d="M-4,0h8M0,-4v8" fill="none" stroke="white" stroke-width="1.5" pointer-events="none"/>
                </g>
                <g id="zoomMin">
                        <use xlink:href="#rim" fill="#404040">
                                <set attributeName="fill" to="#808080" begin="zoomminus.mouseover" end="zoomminus.mouseout"/>
                        </use>
                        <path d="M-4,0h8" fill="none" stroke="white" stroke-width="1.5" pointer-events="none"/>
                </g>
                <g id="dirArrow">
                        <path fill="none" stroke="white" stroke-width="1.5" d="M0,-3.0v7 M-2.5,-0.5L0,-3.0L2.5,-0.5"/>
                </g>
               <g id="resetDef">
                       <use xlink:href="#rim2" fill="#404040">
                               <set attributeName="fill" to="#808080" begin="reset.mouseover" end="reset.mouseout"/>
                       </use>
               </g>
        </defs>

<script type="text/javascript">
var viewWidth = 635;
var viewHeight = 1019;
var sectionId = 'dynsection-1';
</script>
<script xlink:href="svgpan.js"/>
<svg id="graph" class="graph">
<g id="viewport">
<title>Client</title>
<polygon fill="#ffffff" stroke="transparent" points="-4,4 -4,-1015 630.5,-1015 630.5,4 -4,4"/>
<!-- Node1 -->
<g id="node1" class="node">
<title>Node1</title>
<g id="a_node1"><a xlink:title=" ">
<polygon fill="#bfbfbf" stroke="#000000" points="222.5,-.5 222.5,-123.5 337.5,-123.5 337.5,-.5 222.5,-.5"/>
<text text-anchor="middle" x="280" y="-111.5" font-family="Helvetica,sans-Serif" font-size="10.00" fill="#000000">Client</text>
<polyline fill="none" stroke="#000000" points="222.5,-104.5 337.5,-104.5 "/>
<text text-anchor="start" x="230.5" y="-92.5" font-family="Helvetica,sans-Serif" font-size="10.00" fill="#000000">&#45; socket</text>
<text text-anchor="start" x="230.5" y="-81.5" font-family="Helvetica,sans-Serif" font-size="10.00" fill="#000000">&#45; debug</text>
<polyline fill="none" stroke="#000000" points="222.5,-74.5 337.5,-74.5 "/>
<text text-anchor="start" x="230.5" y="-62.5" font-family="Helvetica,sans-Serif" font-size="10.00" fill="#000000">+ Client()</text>
<text text-anchor="start" x="230.5" y="-51.5" font-family="Helvetica,sans-Serif" font-size="10.00" fill="#000000">+ run()</text>
<text text-anchor="start" x="230.5" y="-40.5" font-family="Helvetica,sans-Serif" font-size="10.00" fill="#000000">+ requestMap()</text>
<text text-anchor="start" x="230.5" y="-29.5" font-family="Helvetica,sans-Serif" font-size="10.00" fill="#000000">+ onPositionChange()</text>
<text text-anchor="start" x="230.5" y="-18.5" font-family="Helvetica,sans-Serif" font-size="10.00" fill="#000000">+ onLeftclick()</text>
<text text-anchor="start" x="230.5" y="-7.5" font-family="Helvetica,sans-Serif" font-size="10.00" fill="#000000">&#45; processCommand()</text>
</a>
</g>
</g>
<!-- Node2 -->
<g id="node2" class="node">
<title>Node2</title>
<g id="a_node2"><a xlink:title=" ">
<polygon fill="#ffffff" stroke="#bfbfbf" points="128,-254 128,-311 186,-311 186,-254 128,-254"/>
<text text-anchor="middle" x="157" y="-299" font-family="Helvetica,sans-Serif" font-size="10.00" fill="#000000">QThread</text>
<polyline fill="none" stroke="#bfbfbf" points="128,-292 186,-292 "/>
<text text-anchor="middle" x="157" y="-280" font-family="Helvetica,sans-Serif" font-size="10.00" fill="#000000"> </text>
<polyline fill="none" stroke="#bfbfbf" points="128,-273 186,-273 "/>
<text text-anchor="middle" x="157" y="-261" font-family="Helvetica,sans-Serif" font-size="10.00" fill="#000000"> </text>
</a>
</g>
</g>
<!-- Node2&#45;&gt;Node1 -->
<g id="edge1" class="edge">
<title>Node2&#45;&gt;Node1</title>
<path fill="none" stroke="#191970" d="M166.6157,-244.2008C173.0051,-222.0551 182.5227,-194.0922 195,-171 203.7839,-154.7434 214.9736,-138.405 226.3272,-123.5047"/>
<polygon fill="none" stroke="#191970" points="163.2179,-243.3553 163.9007,-253.9281 169.9602,-245.2372 163.2179,-243.3553"/>
</g>
<!-- Node3 -->
<g id="node3" class="node">
<title>Node3</title>
<g id="a_node3"><a xlink:href="classScene.html" target="_top" xlink:title=" ">
<polygon fill="#ffffff" stroke="#000000" points="204.5,-171.5 204.5,-393.5 355.5,-393.5 355.5,-171.5 204.5,-171.5"/>
<text text-anchor="middle" x="280" y="-381.5" font-family="Helvetica,sans-Serif" font-size="10.00" fill="#000000">Scene</text>
<polyline fill="none" stroke="#000000" points="204.5,-374.5 355.5,-374.5 "/>
<text text-anchor="start" x="212.5" y="-362.5" font-family="Helvetica,sans-Serif" font-size="10.00" fill="#000000">+ MAP_SIZE</text>
<text text-anchor="start" x="212.5" y="-351.5" font-family="Helvetica,sans-Serif" font-size="10.00" fill="#000000">+ TILE_SIZE</text>
<text text-anchor="start" x="212.5" y="-340.5" font-family="Helvetica,sans-Serif" font-size="10.00" fill="#000000">&#45; radiusHighlighter</text>
<text text-anchor="start" x="212.5" y="-329.5" font-family="Helvetica,sans-Serif" font-size="10.00" fill="#000000">&#45; textHint</text>
<text text-anchor="start" x="212.5" y="-318.5" font-family="Helvetica,sans-Serif" font-size="10.00" fill="#000000">&#45; showRadius</text>
<text text-anchor="start" x="212.5" y="-307.5" font-family="Helvetica,sans-Serif" font-size="10.00" fill="#000000">&#45; players</text>
<polyline fill="none" stroke="#000000" points="204.5,-300.5 355.5,-300.5 "/>
<text text-anchor="start" x="212.5" y="-288.5" font-family="Helvetica,sans-Serif" font-size="10.00" fill="#000000">+ Scene()</text>
<text text-anchor="start" x="212.5" y="-277.5" font-family="Helvetica,sans-Serif" font-size="10.00" fill="#000000">+ generateWorld()</text>
<text text-anchor="start" x="212.5" y="-266.5" font-family="Helvetica,sans-Serif" font-size="10.00" fill="#000000">+ setActiveTile()</text>
<text text-anchor="start" x="212.5" y="-255.5" font-family="Helvetica,sans-Serif" font-size="10.00" fill="#000000">+ getTileAt()</text>
<text text-anchor="start" x="212.5" y="-244.5" font-family="Helvetica,sans-Serif" font-size="10.00" fill="#000000">+ setTileAt()</text>
<text text-anchor="start" x="212.5" y="-233.5" font-family="Helvetica,sans-Serif" font-size="10.00" fill="#000000">+ tileChanged()</text>
<text text-anchor="start" x="212.5" y="-222.5" font-family="Helvetica,sans-Serif" font-size="10.00" fill="#000000">+ tick()</text>
<text text-anchor="start" x="212.5" y="-211.5" font-family="Helvetica,sans-Serif" font-size="10.00" fill="#000000">+ onSetTile()</text>
<text text-anchor="start" x="212.5" y="-200.5" font-family="Helvetica,sans-Serif" font-size="10.00" fill="#000000">+ updatePlayerPosition()</text>
<text text-anchor="start" x="212.5" y="-189.5" font-family="Helvetica,sans-Serif" font-size="10.00" fill="#000000">+ addPlayer()</text>
<text text-anchor="start" x="212.5" y="-178.5" font-family="Helvetica,sans-Serif" font-size="10.00" fill="#000000">+ placementAllowedChange()</text>
</a>
</g>
</g>
<!-- Node3&#45;&gt;Node1 -->
<g id="edge2" class="edge">
<title>Node3&#45;&gt;Node1</title>
<path fill="none" stroke="#404040" d="M280,-171.281C280,-159.255 280,-147.2444 280,-135.8216"/>
<polygon fill="none" stroke="#404040" points="280.0001,-135.6844 276,-129.6844 280,-123.6844 284,-129.6843 280.0001,-135.6844"/>
<text text-anchor="middle" x="297" y="-145" font-family="Helvetica,sans-Serif" font-size="10.00" fill="#000000"> &#45;scene</text>
</g>
<!-- Node4 -->
<g id="node4" class="node">
<title>Node4</title>
<g id="a_node4"><a xlink:title=" ">
<polygon fill="#ffffff" stroke="#bfbfbf" points="0,-590 0,-647 94,-647 94,-590 0,-590"/>
<text text-anchor="middle" x="47" y="-635" font-family="Helvetica,sans-Serif" font-size="10.00" fill="#000000">QGraphicsScene</text>
<polyline fill="none" stroke="#bfbfbf" points="0,-628 94,-628 "/>
<text text-anchor="middle" x="47" y="-616" font-family="Helvetica,sans-Serif" font-size="10.00" fill="#000000"> </text>
<polyline fill="none" stroke="#bfbfbf" points="0,-609 94,-609 "/>
<text text-anchor="middle" x="47" y="-597" font-family="Helvetica,sans-Serif" font-size="10.00" fill="#000000"> </text>
</a>
</g>
</g>
<!-- Node4&#45;&gt;Node3 -->
<g id="edge3" class="edge">
<title>Node4&#45;&gt;Node3</title>
<path fill="none" stroke="#191970" d="M54.0683,-579.7365C61.8604,-544.2729 76.8939,-491.4748 103,-452 117.7608,-429.6803 125.1342,-425.8997 148,-412 167.114,-400.381 177.0932,-407.4049 195,-394 198.2152,-391.5931 201.369,-389.0333 204.4561,-386.3503"/>
<polygon fill="none" stroke="#191970" points="50.6055,-579.1957 51.9687,-589.7024 57.4551,-580.6387 50.6055,-579.1957"/>
</g>
<!-- Node5 -->
<g id="node5" class="node">
<title>Node5</title>
<g id="a_node5"><a xlink:href="classHighlighter.html" target="_top" xlink:title=" ">
<polygon fill="#ffffff" stroke="#000000" points="112.5,-584.5 112.5,-652.5 191.5,-652.5 191.5,-584.5 112.5,-584.5"/>
<text text-anchor="middle" x="152" y="-640.5" font-family="Helvetica,sans-Serif" font-size="10.00" fill="#000000">Highlighter</text>
<polyline fill="none" stroke="#000000" points="112.5,-633.5 191.5,-633.5 "/>
<text text-anchor="start" x="120.5" y="-621.5" font-family="Helvetica,sans-Serif" font-size="10.00" fill="#000000">&#45; outline</text>
<polyline fill="none" stroke="#000000" points="112.5,-614.5 191.5,-614.5 "/>
<text text-anchor="start" x="120.5" y="-602.5" font-family="Helvetica,sans-Serif" font-size="10.00" fill="#000000">+ Highlighter()</text>
<text text-anchor="start" x="120.5" y="-591.5" font-family="Helvetica,sans-Serif" font-size="10.00" fill="#000000">+ setColor()</text>
</a>
</g>
</g>
<!-- Node5&#45;&gt;Node3 -->
<g id="edge4" class="edge">
<title>Node5&#45;&gt;Node3</title>
<path fill="none" stroke="#404040" d="M144.1413,-584.424C136.0891,-540.8588 128.9253,-464.7645 162,-412 170.8732,-397.8445 182.3238,-404.8823 195,-394 195.0981,-393.9158 195.1962,-393.8314 195.2942,-393.7469"/>
<polygon fill="none" stroke="#404040" points="195.4206,-393.6316 197.1561,-386.6324 204.2844,-385.5424 202.5489,-392.5415 195.4206,-393.6316"/>
<text text-anchor="middle" x="188" y="-420.5" font-family="Helvetica,sans-Serif" font-size="10.00" fill="#000000"> &#45;highlighter</text>
</g>
<!-- Node6 -->
<g id="node6" class="node">
<title>Node6</title>
<g id="a_node6"><a xlink:title=" ">
<polygon fill="#ffffff" stroke="#bfbfbf" points="100,-893 100,-950 204,-950 204,-893 100,-893"/>
<text text-anchor="middle" x="152" y="-938" font-family="Helvetica,sans-Serif" font-size="10.00" fill="#000000">QGraphicsRectItem</text>
<polyline fill="none" stroke="#bfbfbf" points="100,-931 204,-931 "/>
<text text-anchor="middle" x="152" y="-919" font-family="Helvetica,sans-Serif" font-size="10.00" fill="#000000"> </text>
<polyline fill="none" stroke="#bfbfbf" points="100,-912 204,-912 "/>
<text text-anchor="middle" x="152" y="-900" font-family="Helvetica,sans-Serif" font-size="10.00" fill="#000000"> </text>
</a>
</g>
</g>
<!-- Node6&#45;&gt;Node5 -->
<g id="edge5" class="edge">
<title>Node6&#45;&gt;Node5</title>
<path fill="none" stroke="#191970" d="M152,-882.8505C152,-823.161 152,-709.5126 152,-652.6644"/>
<polygon fill="none" stroke="#191970" points="148.5001,-882.9945 152,-892.9945 155.5001,-882.9945 148.5001,-882.9945"/>
</g>
<!-- Node7 -->
<g id="node7" class="node">
<title>Node7</title>
<g id="a_node7"><a xlink:href="classMapTile.html" target="_top" xlink:title=" ">
<polygon fill="#ffffff" stroke="#000000" points="331,-507.5 331,-729.5 471,-729.5 471,-507.5 331,-507.5"/>
<text text-anchor="middle" x="401" y="-717.5" font-family="Helvetica,sans-Serif" font-size="10.00" fill="#000000">MapTile</text>
<polyline fill="none" stroke="#000000" points="331,-710.5 471,-710.5 "/>
<text text-anchor="start" x="339" y="-698.5" font-family="Helvetica,sans-Serif" font-size="10.00" fill="#000000">&#45; type</text>
<text text-anchor="start" x="339" y="-687.5" font-family="Helvetica,sans-Serif" font-size="10.00" fill="#000000">&#45; pixmapItem</text>
<text text-anchor="start" x="339" y="-676.5" font-family="Helvetica,sans-Serif" font-size="10.00" fill="#000000">&#45; currentRotation</text>
<polyline fill="none" stroke="#000000" points="331,-669.5 471,-669.5 "/>
<text text-anchor="start" x="339" y="-657.5" font-family="Helvetica,sans-Serif" font-size="10.00" fill="#000000">+ MapTile()</text>
<text text-anchor="start" x="339" y="-646.5" font-family="Helvetica,sans-Serif" font-size="10.00" fill="#000000">+ MapTile()</text>
<text text-anchor="start" x="339" y="-635.5" font-family="Helvetica,sans-Serif" font-size="10.00" fill="#000000">+ setType()</text>
<text text-anchor="start" x="339" y="-624.5" font-family="Helvetica,sans-Serif" font-size="10.00" fill="#000000">+ getType()</text>
<text text-anchor="start" x="339" y="-613.5" font-family="Helvetica,sans-Serif" font-size="10.00" fill="#000000">+ setRotation()</text>
<text text-anchor="start" x="339" y="-602.5" font-family="Helvetica,sans-Serif" font-size="10.00" fill="#000000">+ getRotation()</text>
<text text-anchor="start" x="339" y="-591.5" font-family="Helvetica,sans-Serif" font-size="10.00" fill="#000000">+ setPosition()</text>
<text text-anchor="start" x="339" y="-580.5" font-family="Helvetica,sans-Serif" font-size="10.00" fill="#000000">+ isRiver()</text>
<text text-anchor="start" x="339" y="-569.5" font-family="Helvetica,sans-Serif" font-size="10.00" fill="#000000">+ getPixmapItem()</text>
<text text-anchor="start" x="339" y="-558.5" font-family="Helvetica,sans-Serif" font-size="10.00" fill="#000000">+ getCity()</text>
<text text-anchor="start" x="339" y="-547.5" font-family="Helvetica,sans-Serif" font-size="10.00" fill="#000000">+ setCity()</text>
<text text-anchor="start" x="339" y="-536.5" font-family="Helvetica,sans-Serif" font-size="10.00" fill="#000000">+ getX()</text>
<text text-anchor="start" x="339" y="-525.5" font-family="Helvetica,sans-Serif" font-size="10.00" fill="#000000">+ getY()</text>
<text text-anchor="start" x="339" y="-514.5" font-family="Helvetica,sans-Serif" font-size="10.00" fill="#000000">+ attachGraphicsManager()</text>
</a>
</g>
</g>
<!-- Node7&#45;&gt;Node3 -->
<g id="edge6" class="edge">
<title>Node7&#45;&gt;Node3</title>
<path fill="none" stroke="#404040" d="M360.8768,-507.0836C349.1232,-474.4453 336.2077,-438.581 324.2148,-405.2782"/>
<polygon fill="none" stroke="#404040" points="324.0805,-404.9052 318.2841,-400.6154 320.0146,-393.6149 325.811,-397.9048 324.0805,-404.9052"/>
<text text-anchor="middle" x="360" y="-426" font-family="Helvetica,sans-Serif" font-size="10.00" fill="#000000"> &#45;activeTile</text>
<text text-anchor="middle" x="360" y="-415" font-family="Helvetica,sans-Serif" font-size="10.00" fill="#000000">+data</text>
</g>
<!-- Node8 -->
<g id="node8" class="node">
<title>Node8</title>
<g id="a_node8"><a xlink:href="classGraphicsManager.html" target="_top" xlink:title=" ">
<polygon fill="#ffffff" stroke="#000000" points="225.5,-887.5 225.5,-955.5 338.5,-955.5 338.5,-887.5 225.5,-887.5"/>
<text text-anchor="middle" x="282" y="-943.5" font-family="Helvetica,sans-Serif" font-size="10.00" fill="#000000">GraphicsManager</text>
<polyline fill="none" stroke="#000000" points="225.5,-936.5 338.5,-936.5 "/>
<text text-anchor="start" x="233.5" y="-924.5" font-family="Helvetica,sans-Serif" font-size="10.00" fill="#000000">+ GRAPHICS</text>
<polyline fill="none" stroke="#000000" points="225.5,-917.5 338.5,-917.5 "/>
<text text-anchor="start" x="233.5" y="-905.5" font-family="Helvetica,sans-Serif" font-size="10.00" fill="#000000">+ GraphicsManager()</text>
<text text-anchor="start" x="233.5" y="-894.5" font-family="Helvetica,sans-Serif" font-size="10.00" fill="#000000">+ get()</text>
</a>
</g>
</g>
<!-- Node8&#45;&gt;Node3 -->
<g id="edge9" class="edge">
<title>Node8&#45;&gt;Node3</title>
<path fill="none" stroke="#404040" d="M267.4142,-887.475C256.6005,-860.309 242.7762,-820.9698 237,-785 213.5341,-638.8721 218.6622,-598.8595 237,-452 238.8885,-436.8762 241.6899,-421.1655 244.9736,-405.6798"/>
<polygon fill="none" stroke="#404040" points="244.9881,-405.6138 242.3737,-398.8933 247.5716,-393.8952 250.1861,-400.6156 244.9881,-405.6138"/>
<text text-anchor="middle" x="279.5" y="-616" font-family="Helvetica,sans-Serif" font-size="10.00" fill="#000000"> &#45;graphicsManager</text>
</g>
<!-- Node8&#45;&gt;Node7 -->
<g id="edge7" class="edge">
<title>Node8&#45;&gt;Node7</title>
<path fill="none" stroke="#404040" d="M288.6994,-887.4994C293.8852,-863.5106 301.8846,-830.8229 312,-803 319.4676,-782.4599 328.4788,-761.1491 337.8621,-740.6212"/>
<polygon fill="none" stroke="#404040" points="337.906,-740.5263 336.7989,-733.4007 342.9506,-729.6381 344.0577,-736.7637 337.906,-740.5263"/>
<text text-anchor="middle" x="354.5" y="-806" font-family="Helvetica,sans-Serif" font-size="10.00" fill="#000000"> &#45;graphicsManager</text>
</g>
<!-- Node9 -->
<g id="node9" class="node">
<title>Node9</title>
<g id="a_node9"><a xlink:href="classCity.html" target="_top" xlink:title=" ">
<polygon fill="#ffffff" stroke="#000000" points="359.5,-832.5 359.5,-1010.5 442.5,-1010.5 442.5,-832.5 359.5,-832.5"/>
<text text-anchor="middle" x="401" y="-998.5" font-family="Helvetica,sans-Serif" font-size="10.00" fill="#000000">City</text>
<polyline fill="none" stroke="#000000" points="359.5,-991.5 442.5,-991.5 "/>
<text text-anchor="start" x="367.5" y="-979.5" font-family="Helvetica,sans-Serif" font-size="10.00" fill="#000000">&#45; size</text>
<text text-anchor="start" x="367.5" y="-968.5" font-family="Helvetica,sans-Serif" font-size="10.00" fill="#000000">&#45; centerX</text>
<text text-anchor="start" x="367.5" y="-957.5" font-family="Helvetica,sans-Serif" font-size="10.00" fill="#000000">&#45; centerY</text>
<text text-anchor="start" x="367.5" y="-946.5" font-family="Helvetica,sans-Serif" font-size="10.00" fill="#000000">&#45; name</text>
<polyline fill="none" stroke="#000000" points="359.5,-939.5 442.5,-939.5 "/>
<text text-anchor="start" x="367.5" y="-927.5" font-family="Helvetica,sans-Serif" font-size="10.00" fill="#000000">+ City()</text>
<text text-anchor="start" x="367.5" y="-916.5" font-family="Helvetica,sans-Serif" font-size="10.00" fill="#000000">+ City()</text>
<text text-anchor="start" x="367.5" y="-905.5" font-family="Helvetica,sans-Serif" font-size="10.00" fill="#000000">+ getSize()</text>
<text text-anchor="start" x="367.5" y="-894.5" font-family="Helvetica,sans-Serif" font-size="10.00" fill="#000000">+ getCenterX()</text>
<text text-anchor="start" x="367.5" y="-883.5" font-family="Helvetica,sans-Serif" font-size="10.00" fill="#000000">+ getCenterY()</text>
<text text-anchor="start" x="367.5" y="-872.5" font-family="Helvetica,sans-Serif" font-size="10.00" fill="#000000">+ getName()</text>
<text text-anchor="start" x="367.5" y="-861.5" font-family="Helvetica,sans-Serif" font-size="10.00" fill="#000000">+ setSize()</text>
<text text-anchor="start" x="367.5" y="-850.5" font-family="Helvetica,sans-Serif" font-size="10.00" fill="#000000">+ setCenter()</text>
<text text-anchor="start" x="367.5" y="-839.5" font-family="Helvetica,sans-Serif" font-size="10.00" fill="#000000">+ setName()</text>
</a>
</g>
</g>
<!-- Node9&#45;&gt;Node7 -->
<g id="edge8" class="edge">
<title>Node9&#45;&gt;Node7</title>
<path fill="none" stroke="#404040" d="M401,-832.2288C401,-803.9983 401,-772.2786 401,-742.0904"/>
<polygon fill="none" stroke="#404040" points="401.0001,-741.7129 397,-735.7129 401,-729.7129 405,-735.7128 401.0001,-741.7129"/>
<text text-anchor="middle" x="412" y="-806" font-family="Helvetica,sans-Serif" font-size="10.00" fill="#000000"> &#45;city</text>
</g>
<!-- Node10 -->
<g id="node10" class="node">
<title>Node10</title>
<g id="a_node10"><a xlink:href="classDataModel.html" target="_top" xlink:title=" ">
<polygon fill="#ffffff" stroke="#000000" points="489.5,-452.5 489.5,-784.5 626.5,-784.5 626.5,-452.5 489.5,-452.5"/>
<text text-anchor="middle" x="558" y="-772.5" font-family="Helvetica,sans-Serif" font-size="10.00" fill="#000000">DataModel</text>
<polyline fill="none" stroke="#000000" points="489.5,-765.5 626.5,-765.5 "/>
<text text-anchor="start" x="497.5" y="-753.5" font-family="Helvetica,sans-Serif" font-size="10.00" fill="#000000">&#45; balance</text>
<text text-anchor="start" x="497.5" y="-742.5" font-family="Helvetica,sans-Serif" font-size="10.00" fill="#000000">&#45; time</text>
<text text-anchor="start" x="497.5" y="-731.5" font-family="Helvetica,sans-Serif" font-size="10.00" fill="#000000">&#45; coordinateX</text>
<text text-anchor="start" x="497.5" y="-720.5" font-family="Helvetica,sans-Serif" font-size="10.00" fill="#000000">&#45; coordinateY</text>
<text text-anchor="start" x="497.5" y="-709.5" font-family="Helvetica,sans-Serif" font-size="10.00" fill="#000000">&#45; ip</text>
<text text-anchor="start" x="497.5" y="-698.5" font-family="Helvetica,sans-Serif" font-size="10.00" fill="#000000">&#45; port</text>
<text text-anchor="start" x="497.5" y="-687.5" font-family="Helvetica,sans-Serif" font-size="10.00" fill="#000000">&#45; balanceLabel</text>
<text text-anchor="start" x="497.5" y="-676.5" font-family="Helvetica,sans-Serif" font-size="10.00" fill="#000000">&#45; timeLabel</text>
<text text-anchor="start" x="497.5" y="-665.5" font-family="Helvetica,sans-Serif" font-size="10.00" fill="#000000">&#45; positionLabel</text>
<text text-anchor="start" x="497.5" y="-654.5" font-family="Helvetica,sans-Serif" font-size="10.00" fill="#000000">&#45; statusDisplay</text>
<text text-anchor="start" x="497.5" y="-643.5" font-family="Helvetica,sans-Serif" font-size="10.00" fill="#000000">&#45; connectionLabel</text>
<text text-anchor="start" x="497.5" y="-632.5" font-family="Helvetica,sans-Serif" font-size="10.00" fill="#000000">&#45; mode</text>
<polyline fill="none" stroke="#000000" points="489.5,-625.5 626.5,-625.5 "/>
<text text-anchor="start" x="497.5" y="-613.5" font-family="Helvetica,sans-Serif" font-size="10.00" fill="#000000">+ DataModel()</text>
<text text-anchor="start" x="497.5" y="-602.5" font-family="Helvetica,sans-Serif" font-size="10.00" fill="#000000">+ getBalance()</text>
<text text-anchor="start" x="497.5" y="-591.5" font-family="Helvetica,sans-Serif" font-size="10.00" fill="#000000">+ updateBalance()</text>
<text text-anchor="start" x="497.5" y="-580.5" font-family="Helvetica,sans-Serif" font-size="10.00" fill="#000000">+ takeBalance()</text>
<text text-anchor="start" x="497.5" y="-569.5" font-family="Helvetica,sans-Serif" font-size="10.00" fill="#000000">+ timeTick()</text>
<text text-anchor="start" x="497.5" y="-558.5" font-family="Helvetica,sans-Serif" font-size="10.00" fill="#000000">+ getTime()</text>
<text text-anchor="start" x="497.5" y="-547.5" font-family="Helvetica,sans-Serif" font-size="10.00" fill="#000000">+ getSystemMillis()</text>
<text text-anchor="start" x="497.5" y="-536.5" font-family="Helvetica,sans-Serif" font-size="10.00" fill="#000000">+ updateCoordinates()</text>
<text text-anchor="start" x="497.5" y="-525.5" font-family="Helvetica,sans-Serif" font-size="10.00" fill="#000000">+ getHoverX()</text>
<text text-anchor="start" x="497.5" y="-514.5" font-family="Helvetica,sans-Serif" font-size="10.00" fill="#000000">+ getHoverY()</text>
<text text-anchor="start" x="497.5" y="-503.5" font-family="Helvetica,sans-Serif" font-size="10.00" fill="#000000">und 11 mehr ...</text>
<text text-anchor="start" x="497.5" y="-492.5" font-family="Helvetica,sans-Serif" font-size="10.00" fill="#000000">+ setDefaultMode()</text>
<text text-anchor="start" x="497.5" y="-481.5" font-family="Helvetica,sans-Serif" font-size="10.00" fill="#000000">+ setTrainStationMode()</text>
<text text-anchor="start" x="497.5" y="-470.5" font-family="Helvetica,sans-Serif" font-size="10.00" fill="#000000">+ setBridgeMode()</text>
<text text-anchor="start" x="497.5" y="-459.5" font-family="Helvetica,sans-Serif" font-size="10.00" fill="#000000">+ setRailPlacementMode()</text>
</a>
</g>
</g>
<!-- Node10&#45;&gt;Node1 -->
<g id="edge12" class="edge">
<title>Node10&#45;&gt;Node1</title>
<path fill="none" stroke="#404040" d="M534.2975,-452.2899C530.5003,-438.4632 526.0995,-424.8665 521,-412 478.8769,-305.7192 399.4447,-199.8623 343.3055,-132.8584"/>
<polygon fill="none" stroke="#404040" points="343.2859,-132.8352 336.359,-130.8308 335.545,-123.6658 342.4719,-125.6702 343.2859,-132.8352"/>
<text text-anchor="middle" x="539.5" y="-280" font-family="Helvetica,sans-Serif" font-size="10.00" fill="#000000"> &#45;dataModel</text>
</g>
<!-- Node10&#45;&gt;Node3 -->
<g id="edge10" class="edge">
<title>Node10&#45;&gt;Node3</title>
<path fill="none" stroke="#404040" d="M489.3321,-464.9709C486.3111,-460.5195 483.1998,-456.1836 480,-452 448.0092,-410.1731 404.0849,-371.5327 365.5474,-341.7416"/>
<polygon fill="none" stroke="#404040" points="365.416,-341.6414 358.2196,-341.1815 355.8763,-334.3617 363.0727,-334.8217 365.416,-341.6414"/>
<text text-anchor="middle" x="489.5" y="-420.5" font-family="Helvetica,sans-Serif" font-size="10.00" fill="#000000"> &#45;dataModel</text>
</g>
<!-- Node11 -->
<g id="node11" class="node">
<title>Node11</title>
<g id="a_node11"><a xlink:title=" ">
<polygon fill="#ffffff" stroke="#bfbfbf" points="531.5,-893 531.5,-950 584.5,-950 584.5,-893 531.5,-893"/>
<text text-anchor="middle" x="558" y="-938" font-family="Helvetica,sans-Serif" font-size="10.00" fill="#000000">QObject</text>
<polyline fill="none" stroke="#bfbfbf" points="531.5,-931 584.5,-931 "/>
<text text-anchor="middle" x="558" y="-919" font-family="Helvetica,sans-Serif" font-size="10.00" fill="#000000"> </text>
<polyline fill="none" stroke="#bfbfbf" points="531.5,-912 584.5,-912 "/>
<text text-anchor="middle" x="558" y="-900" font-family="Helvetica,sans-Serif" font-size="10.00" fill="#000000"> </text>
</a>
</g>
</g>
<!-- Node11&#45;&gt;Node10 -->
<g id="edge11" class="edge">
<title>Node11&#45;&gt;Node10</title>
<path fill="none" stroke="#191970" d="M558,-882.986C558,-857.3376 558,-821.6832 558,-784.8468"/>
<polygon fill="none" stroke="#191970" points="554.5001,-882.9945 558,-892.9945 561.5001,-882.9945 554.5001,-882.9945"/>
</g>
</g>
</svg>
        <g id="navigator" transform="translate(0 0)" fill="#404254">
                <rect fill="#f2f5e9" fill-opacity="0.5" stroke="#606060" stroke-width=".5" x="0" y="0" width="60" height="60"/>
                <use id="zoomplus" xlink:href="#zoomPlus" x="17" y="9" onmousedown="handleZoom(evt,'in')"/>
                <use id="zoomminus" xlink:href="#zoomMin" x="42" y="9" onmousedown="handleZoom(evt,'out')"/>
                <use id="reset" xlink:href="#resetDef" x="30" y="36" onmousedown="handleReset()"/>
                <g id="arrowUp" xlink:href="#dirArrow" transform="translate(30 24)" onmousedown="handlePan(0,-1)">
                  <use xlink:href="#rim" fill="#404040">
                        <set attributeName="fill" to="#808080" begin="arrowUp.mouseover" end="arrowUp.mouseout"/>
                  </use>
                  <path fill="none" stroke="white" stroke-width="1.5" d="M0,-3.0v7 M-2.5,-0.5L0,-3.0L2.5,-0.5"/>
                </g>
                <g id="arrowRight" xlink:href="#dirArrow" transform="rotate(90) translate(36 -43)" onmousedown="handlePan(1,0)">
                  <use xlink:href="#rim" fill="#404040">
                        <set attributeName="fill" to="#808080" begin="arrowRight.mouseover" end="arrowRight.mouseout"/>
                  </use>
                  <path fill="none" stroke="white" stroke-width="1.5" d="M0,-3.0v7 M-2.5,-0.5L0,-3.0L2.5,-0.5"/>
                </g>
                <g id="arrowDown" xlink:href="#dirArrow" transform="rotate(180) translate(-30 -48)" onmousedown="handlePan(0,1)">
                  <use xlink:href="#rim" fill="#404040">
                        <set attributeName="fill" to="#808080" begin="arrowDown.mouseover" end="arrowDown.mouseout"/>
                  </use>
                  <path fill="none" stroke="white" stroke-width="1.5" d="M0,-3.0v7 M-2.5,-0.5L0,-3.0L2.5,-0.5"/>
                </g>
                <g id="arrowLeft" xlink:href="#dirArrow" transform="rotate(270) translate(-36 17)" onmousedown="handlePan(-1,0)">
                  <use xlink:href="#rim" fill="#404040">
                        <set attributeName="fill" to="#808080" begin="arrowLeft.mouseover" end="arrowLeft.mouseout"/>
                  </use>
                  <path fill="none" stroke="white" stroke-width="1.5" d="M0,-3.0v7 M-2.5,-0.5L0,-3.0L2.5,-0.5"/>
                </g>
        </g>
        <svg viewBox="0 0 15 15" width="100%" height="30px" preserveAspectRatio="xMaxYMin meet">
         <g id="arrow_out" transform="scale(0.3 0.3)">
          <a xlink:href="classClient__coll__graph_org.svg" target="_base">
           <rect id="button" ry="5" rx="5" y="6" x="6" height="38" width="38"
                fill="#f2f5e9" fill-opacity="0.5" stroke="#606060" stroke-width="1.0"/>
           <path id="arrow"
             d="M 11.500037,31.436501 C 11.940474,20.09759 22.043105,11.32322 32.158766,21.979434 L 37.068811,17.246167 C 37.068811,17.246167 37.088388,32 37.088388,32 L 22.160133,31.978069 C 22.160133,31.978069 26.997745,27.140456 26.997745,27.140456 C 18.528582,18.264221 13.291696,25.230495 11.500037,31.436501 z"
             style="fill:#404040;"/>
          </a>
         </g>
        </svg>
</svg>
