<?xml version="1.0" encoding="UTF-8" standalone="no"?>
<!DOCTYPE svg PUBLIC "-//W3C//DTD SVG 1.1//EN"
 "http://www.w3.org/Graphics/SVG/1.1/DTD/svg11.dtd">
<!-- Generated by graphviz version 2.40.1 (20161225.0304)
 -->
<!-- Title: MapTile::setRotation Pages: 1 -->
<svg width="626pt" height="218pt"
 viewBox="0.00 0.00 626.00 218.00" xmlns="http://www.w3.org/2000/svg" xmlns:xlink="http://www.w3.org/1999/xlink">
<g id="graph0" class="graph" transform="scale(1 1) rotate(0) translate(4 214)">
<title>MapTile::setRotation</title>
<polygon fill="#ffffff" stroke="transparent" points="-4,4 -4,-214 622,-214 622,4 -4,4"/>
<!-- Node1 -->
<g id="node1" class="node">
<title>Node1</title>
<g id="a_node1"><a xlink:title="MapTile::setRotation Hilfsfunktion zur Rotation im Quadrat.">
<polygon fill="#bfbfbf" stroke="#000000" points="508,-95.5 508,-114.5 618,-114.5 618,-95.5 508,-95.5"/>
<text text-anchor="middle" x="563" y="-102.5" font-family="Helvetica,sans-Serif" font-size="10.00" fill="#000000">MapTile::setRotation</text>
</a>
</g>
</g>
<!-- Node2 -->
<g id="node2" class="node">
<title>Node2</title>
<g id="a_node2"><a xlink:href="classMapRenderer.html#a6b690a49223b2006a4816b706a4b156e" target="_top" xlink:title="MapRenderer::demo Zeigt eine Demo&#45;Visualisierung.">
<polygon fill="#ffffff" stroke="#000000" points="208.5,-190.5 208.5,-209.5 318.5,-209.5 318.5,-190.5 208.5,-190.5"/>
<text text-anchor="middle" x="263.5" y="-197.5" font-family="Helvetica,sans-Serif" font-size="10.00" fill="#000000">MapRenderer::demo</text>
</a>
</g>
</g>
<!-- Node1&#45;&gt;Node2 -->
<g id="edge1" class="edge">
<title>Node1&#45;&gt;Node2</title>
<path fill="none" stroke="#191970" d="M543.1952,-121.2487C525.5843,-134.8289 498.5766,-153.5972 472,-164 422.2297,-183.4815 361.682,-192.4472 318.6852,-196.5574"/>
<polygon fill="#191970" stroke="#191970" points="545.8184,-123.6369 551.496,-114.6918 541.4793,-118.1439 545.8184,-123.6369"/>
</g>
<!-- Node3 -->
<g id="node3" class="node">
<title>Node3</title>
<g id="a_node3"><a xlink:href="classScene.html#a1ef1c0e0972913d4c477ead916cf06b0" target="_top" xlink:title="Scene::generateWorld Diese Methode generiert eine neue Welt.">
<polygon fill="#ffffff" stroke="#000000" points="204,-152.5 204,-171.5 323,-171.5 323,-152.5 204,-152.5"/>
<text text-anchor="middle" x="263.5" y="-159.5" font-family="Helvetica,sans-Serif" font-size="10.00" fill="#000000">Scene::generateWorld</text>
</a>
</g>
</g>
<!-- Node1&#45;&gt;Node3 -->
<g id="edge2" class="edge">
<title>Node1&#45;&gt;Node3</title>
<path fill="none" stroke="#191970" d="M535.5947,-119.0303C517.9105,-127.4264 494.1523,-137.5032 472,-143 422.7871,-155.2115 365.2966,-159.7562 323.1631,-161.3637"/>
<polygon fill="#191970" stroke="#191970" points="537.2845,-122.1006 544.7457,-114.5785 534.2221,-115.8059 537.2845,-122.1006"/>
</g>
<!-- Node4 -->
<g id="node4" class="node">
<title>Node4</title>
<g id="a_node4"><a xlink:href="classScene.html#ad861f0bdfab5241fcec39c96f01105b0" target="_top" xlink:title="Scene::onSetTile Ändert ein MapTile ohne ein Signal an den Server. Notwendig zum Empfangen von Änderu...">
<polygon fill="#ffffff" stroke="#000000" points="215.5,-76.5 215.5,-95.5 311.5,-95.5 311.5,-76.5 215.5,-76.5"/>
<text text-anchor="middle" x="263.5" y="-83.5" font-family="Helvetica,sans-Serif" font-size="10.00" fill="#000000">Scene::onSetTile</text>
</a>
</g>
</g>
<!-- Node1&#45;&gt;Node4 -->
<g id="edge3" class="edge">
<title>Node1&#45;&gt;Node4</title>
<path fill="none" stroke="#191970" d="M497.5271,-100.8465C441.4245,-97.2874 361.9213,-92.2438 311.54,-89.0476"/>
<polygon fill="#191970" stroke="#191970" points="497.5165,-104.3527 507.7181,-101.493 497.9597,-97.3668 497.5165,-104.3527"/>
</g>
<!-- Node5 -->
<g id="node5" class="node">
<title>Node5</title>
<g id="a_node5"><a xlink:href="classScene.html#ad22fc5010d69665d13f8ccef2cb094b0" target="_top" xlink:title="Scene::Scene Konstruktor.">
<polygon fill="#ffffff" stroke="#000000" points="223,-38.5 223,-57.5 304,-57.5 304,-38.5 223,-38.5"/>
<text text-anchor="middle" x="263.5" y="-45.5" font-family="Helvetica,sans-Serif" font-size="10.00" fill="#000000">Scene::Scene</text>
</a>
</g>
</g>
<!-- Node1&#45;&gt;Node5 -->
<g id="edge4" class="edge">
<title>Node1&#45;&gt;Node5</title>
<path fill="none" stroke="#191970" d="M502.9322,-93.5681C443.8912,-82.3315 355.4044,-65.491 304.1646,-55.7392"/>
<polygon fill="#191970" stroke="#191970" points="502.3924,-97.0281 512.8704,-95.4595 503.7012,-90.1515 502.3924,-97.0281"/>
</g>
<!-- Node6 -->
<g id="node6" class="node">
<title>Node6</title>
<g id="a_node6"><a xlink:href="classScene.html#a38a79a03ba1fa403296646ee64ea8476" target="_top" xlink:title="Scene::setTileAt Setzt ein MapTile anhand der Pixel&#45;Koordinaten oder der Indezes.">
<polygon fill="#ffffff" stroke="#000000" points="217.5,-.5 217.5,-19.5 309.5,-19.5 309.5,-.5 217.5,-.5"/>
<text text-anchor="middle" x="263.5" y="-7.5" font-family="Helvetica,sans-Serif" font-size="10.00" fill="#000000">Scene::setTileAt</text>
</a>
</g>
</g>
<!-- Node1&#45;&gt;Node6 -->
<g id="edge5" class="edge">
<title>Node1&#45;&gt;Node6</title>
<path fill="none" stroke="#191970" d="M533.5209,-91.1613C515.9014,-83.1947 492.9399,-73.3401 472,-66 413.6942,-45.5619 397.7146,-44.8571 338,-29 326.1312,-25.8482 313.1713,-22.508 301.4376,-19.5217"/>
<polygon fill="#191970" stroke="#191970" points="532.1633,-94.3891 542.7131,-95.365 535.0745,-88.0232 532.1633,-94.3891"/>
</g>
<!-- Node7 -->
<g id="node7" class="node">
<title>Node7</title>
<g id="a_node7"><a xlink:href="classMapTile.html#a6f6c6e03095e0f1ed503dd30f499793c" target="_top" xlink:title="MapTile::setType Setzt den Typ der Kachel.">
<polygon fill="#ffffff" stroke="#000000" points="374,-114.5 374,-133.5 472,-133.5 472,-114.5 374,-114.5"/>
<text text-anchor="middle" x="423" y="-121.5" font-family="Helvetica,sans-Serif" font-size="10.00" fill="#000000">MapTile::setType</text>
</a>
</g>
</g>
<!-- Node1&#45;&gt;Node7 -->
<g id="edge6" class="edge">
<title>Node1&#45;&gt;Node7</title>
<path fill="none" stroke="#191970" d="M497.6311,-113.8715C489.0173,-115.0405 480.3096,-116.2223 472.0328,-117.3455"/>
<polygon fill="#191970" stroke="#191970" points="498.2298,-117.3224 507.6683,-112.5093 497.2884,-110.386 498.2298,-117.3224"/>
</g>
<!-- Node7&#45;&gt;Node2 -->
<g id="edge7" class="edge">
<title>Node7&#45;&gt;Node2</title>
<path fill="none" stroke="#191970" d="M403.0836,-140.2357C386.5522,-152.9782 361.9529,-170.2972 338,-181 329.5911,-184.7573 320.3029,-187.8695 311.2203,-190.4113"/>
<polygon fill="#191970" stroke="#191970" points="405.6927,-142.636 411.3824,-133.6985 401.3611,-137.1371 405.6927,-142.636"/>
</g>
<!-- Node7&#45;&gt;Node3 -->
<g id="edge8" class="edge">
<title>Node7&#45;&gt;Node3</title>
<path fill="none" stroke="#191970" d="M372.766,-135.968C350.4145,-141.2931 324.4617,-147.4762 303.4592,-152.4799"/>
<polygon fill="#191970" stroke="#191970" points="373.8349,-139.3114 382.7514,-133.589 372.2125,-132.502 373.8349,-139.3114"/>
</g>
<!-- Node7&#45;&gt;Node4 -->
<g id="edge9" class="edge">
<title>Node7&#45;&gt;Node4</title>
<path fill="none" stroke="#191970" d="M372.766,-112.032C350.4145,-106.7069 324.4617,-100.5238 303.4592,-95.5201"/>
<polygon fill="#191970" stroke="#191970" points="372.2125,-115.498 382.7514,-114.411 373.8349,-108.6886 372.2125,-115.498"/>
</g>
<!-- Node7&#45;&gt;Node5 -->
<g id="edge13" class="edge">
<title>Node7&#45;&gt;Node5</title>
<path fill="none" stroke="#191970" d="M403.0836,-107.7643C386.5522,-95.0218 361.9529,-77.7028 338,-67 327.3975,-62.2625 315.3971,-58.5507 304.1735,-55.7145"/>
<polygon fill="#191970" stroke="#191970" points="401.3611,-110.8629 411.3824,-114.3015 405.6927,-105.364 401.3611,-110.8629"/>
</g>
<!-- Node7&#45;&gt;Node6 -->
<g id="edge14" class="edge">
<title>Node7&#45;&gt;Node6</title>
<path fill="none" stroke="#191970" d="M411.7443,-105.9263C397.3276,-84.311 370.3055,-48.5985 338,-29 329.4409,-23.8075 319.5025,-20.0267 309.7276,-17.2761"/>
<polygon fill="#191970" stroke="#191970" points="408.9207,-108.0052 417.2927,-114.4983 414.7971,-104.2016 408.9207,-108.0052"/>
</g>
<!-- Node8 -->
<g id="node8" class="node">
<title>Node8</title>
<g id="a_node8"><a xlink:href="classMapRenderer.html#a472525cfdf5cd4ab4ed226457ae6f55a" target="_top" xlink:title="MapRenderer::onTileChange Wird aufgerufen wenn sich eine Kachel ändert.">
<polygon fill="#ffffff" stroke="#000000" points="189,-114.5 189,-133.5 338,-133.5 338,-114.5 189,-114.5"/>
<text text-anchor="middle" x="263.5" y="-121.5" font-family="Helvetica,sans-Serif" font-size="10.00" fill="#000000">MapRenderer::onTileChange</text>
</a>
</g>
</g>
<!-- Node7&#45;&gt;Node8 -->
<g id="edge10" class="edge">
<title>Node7&#45;&gt;Node8</title>
<path fill="none" stroke="#191970" d="M363.7838,-124C355.3817,-124 346.6533,-124 338.0074,-124"/>
<polygon fill="#191970" stroke="#191970" points="363.8433,-127.5001 373.8433,-124 363.8432,-120.5001 363.8433,-127.5001"/>
</g>
<!-- Node9 -->
<g id="node9" class="node">
<title>Node9</title>
<g id="a_node9"><a xlink:href="classClient.html#a16ec13dd45e134c3d1ec31dd26e1a119" target="_top" xlink:title="Client::Client Erzeugt einen neuen Client.">
<polygon fill="#ffffff" stroke="#000000" points="39.5,-136.5 39.5,-155.5 113.5,-155.5 113.5,-136.5 39.5,-136.5"/>
<text text-anchor="middle" x="76.5" y="-143.5" font-family="Helvetica,sans-Serif" font-size="10.00" fill="#000000">Client::Client</text>
</a>
</g>
</g>
<!-- Node8&#45;&gt;Node9 -->
<g id="edge11" class="edge">
<title>Node8&#45;&gt;Node9</title>
<path fill="none" stroke="#191970" d="M178.712,-133.9751C155.8753,-136.6617 132.3394,-139.4307 113.6172,-141.6333"/>
<polygon fill="#191970" stroke="#191970" points="179.2639,-137.4344 188.7865,-132.7898 178.446,-130.4823 179.2639,-137.4344"/>
</g>
<!-- Node10 -->
<g id="node10" class="node">
<title>Node10</title>
<g id="a_node10"><a xlink:href="classMapRenderer.html#ac6c85d76a8de58f740066f02745d2e79" target="_top" xlink:title=" ">
<polygon fill="#ffffff" stroke="#000000" points="0,-87 0,-117 153,-117 153,-87 0,-87"/>
<text text-anchor="start" x="8" y="-105" font-family="Helvetica,sans-Serif" font-size="10.00" fill="#000000">MapRenderer::mouseRelease</text>
<text text-anchor="middle" x="76.5" y="-94" font-family="Helvetica,sans-Serif" font-size="10.00" fill="#000000">Event</text>
</a>
</g>
</g>
<!-- Node8&#45;&gt;Node10 -->
<g id="edge12" class="edge">
<title>Node8&#45;&gt;Node10</title>
<path fill="none" stroke="#191970" d="M178.8354,-114.0395C170.3051,-113.0359 161.6759,-112.0207 153.2351,-111.0277"/>
<polygon fill="#191970" stroke="#191970" points="178.446,-117.5177 188.7865,-115.2102 179.2639,-110.5656 178.446,-117.5177"/>
</g>
</g>
</svg>
