<?xml version="1.0" encoding="UTF-8" standalone="no"?>
<!DOCTYPE svg PUBLIC "-//W3C//DTD SVG 1.1//EN"
 "http://www.w3.org/Graphics/SVG/1.1/DTD/svg11.dtd">
<!-- Generated by graphviz version 2.40.1 (20161225.0304)
 -->
<!-- Title: View::mouseMoveEvent Pages: 1 -->
<svg width="463pt" height="256pt"
 viewBox="0.00 0.00 463.00 256.00" xmlns="http://www.w3.org/2000/svg" xmlns:xlink="http://www.w3.org/1999/xlink">
<g id="graph0" class="graph" transform="scale(1 1) rotate(0) translate(4 252)">
<title>View::mouseMoveEvent</title>
<polygon fill="#ffffff" stroke="transparent" points="-4,4 -4,-252 459,-252 459,4 -4,4"/>
<!-- Node1 -->
<g id="node1" class="node">
<title>Node1</title>
<g id="a_node1"><a xlink:title="View::mouseMoveEvent QT Methode. Wird aufgerufen wenn die Maus bewegt wird.">
<polygon fill="#bfbfbf" stroke="#000000" points="0,-114.5 0,-133.5 126,-133.5 126,-114.5 0,-114.5"/>
<text text-anchor="middle" x="63" y="-121.5" font-family="Helvetica,sans-Serif" font-size="10.00" fill="#000000">View::mouseMoveEvent</text>
</a>
</g>
</g>
<!-- Node2 -->
<g id="node2" class="node">
<title>Node2</title>
<g id="a_node2"><a xlink:href="classScene.html#a12826e995b183844f9415c9df77a9ac7" target="_top" xlink:title="Scene::getTileAt Liefert ein MapTile anhand der Pixel&#45;Koordinaten oder der Indizes.">
<polygon fill="#ffffff" stroke="#000000" points="195,-228.5 195,-247.5 288,-247.5 288,-228.5 195,-228.5"/>
<text text-anchor="middle" x="241.5" y="-235.5" font-family="Helvetica,sans-Serif" font-size="10.00" fill="#000000">Scene::getTileAt</text>
</a>
</g>
</g>
<!-- Node1&#45;&gt;Node2 -->
<g id="edge1" class="edge">
<title>Node1&#45;&gt;Node2</title>
<path fill="none" stroke="#191970" d="M70.9494,-133.6538C86.5333,-151.9689 122.9954,-191.8999 162,-214 169.9221,-218.4887 178.774,-222.2234 187.6148,-225.3028"/>
<polygon fill="#191970" stroke="#191970" points="186.5671,-228.6424 197.159,-228.3919 188.7227,-221.9826 186.5671,-228.6424"/>
</g>
<!-- Node3 -->
<g id="node3" class="node">
<title>Node3</title>
<g id="a_node3"><a xlink:href="classMapTile.html#af67fb2b04970d5160e8bdacb05484bac" target="_top" xlink:title="MapTile::getType Liefert den Typ des Quadranten.">
<polygon fill="#ffffff" stroke="#000000" points="357,-190.5 357,-209.5 455,-209.5 455,-190.5 357,-190.5"/>
<text text-anchor="middle" x="406" y="-197.5" font-family="Helvetica,sans-Serif" font-size="10.00" fill="#000000">MapTile::getType</text>
</a>
</g>
</g>
<!-- Node1&#45;&gt;Node3 -->
<g id="edge2" class="edge">
<title>Node1&#45;&gt;Node3</title>
<path fill="none" stroke="#191970" d="M75.2769,-133.5202C93.1966,-146.8201 128.0856,-170.5069 162,-181 222.9494,-199.8577 296.344,-203.1303 346.6159,-202.6128"/>
<polygon fill="#191970" stroke="#191970" points="346.7212,-206.1117 356.6653,-202.4557 346.6118,-199.1125 346.7212,-206.1117"/>
</g>
<!-- Node4 -->
<g id="node4" class="node">
<title>Node4</title>
<g id="a_node4"><a xlink:href="classToolTipMenu.html#affc16846c5e7183bb3e1c5d9460354c8" target="_top" xlink:title="ToolTipMenu::hide Blendet das Menü aus.">
<polygon fill="#ffffff" stroke="#000000" points="189.5,-152.5 189.5,-171.5 293.5,-171.5 293.5,-152.5 189.5,-152.5"/>
<text text-anchor="middle" x="241.5" y="-159.5" font-family="Helvetica,sans-Serif" font-size="10.00" fill="#000000">ToolTipMenu::hide</text>
</a>
</g>
</g>
<!-- Node1&#45;&gt;Node4 -->
<g id="edge3" class="edge">
<title>Node1&#45;&gt;Node4</title>
<path fill="none" stroke="#191970" d="M108.0431,-133.589C132.0225,-138.6939 161.6979,-145.0113 186.9721,-150.3918"/>
<polygon fill="#191970" stroke="#191970" points="186.2712,-153.821 196.7808,-152.4799 187.7288,-146.9744 186.2712,-153.821"/>
</g>
<!-- Node5 -->
<g id="node5" class="node">
<title>Node5</title>
<g id="a_node5"><a xlink:href="classScene.html#a4caee3e7069bad7901a4a12b19cd304c" target="_top" xlink:title="Scene::setActiveTile Setzt den MapTile über dem die Maus gerade ist. Wird von view aufgerufen.">
<polygon fill="#ffffff" stroke="#000000" points="186,-114.5 186,-133.5 297,-133.5 297,-114.5 186,-114.5"/>
<text text-anchor="middle" x="241.5" y="-121.5" font-family="Helvetica,sans-Serif" font-size="10.00" fill="#000000">Scene::setActiveTile</text>
</a>
</g>
</g>
<!-- Node1&#45;&gt;Node5 -->
<g id="edge4" class="edge">
<title>Node1&#45;&gt;Node5</title>
<path fill="none" stroke="#191970" d="M126.1836,-124C142.144,-124 159.3234,-124 175.4221,-124"/>
<polygon fill="#191970" stroke="#191970" points="175.8216,-127.5001 185.8216,-124 175.8215,-120.5001 175.8216,-127.5001"/>
</g>
<!-- Node11 -->
<g id="node11" class="node">
<title>Node11</title>
<g id="a_node11"><a xlink:href="classToolTipMenu.html#aa4a6c9633a69092416132f3780d97b9f" target="_top" xlink:title="ToolTipMenu::setText Setzt den Text. (HTML&#45;Fähig)">
<polygon fill="#ffffff" stroke="#000000" points="182,-76.5 182,-95.5 301,-95.5 301,-76.5 182,-76.5"/>
<text text-anchor="middle" x="241.5" y="-83.5" font-family="Helvetica,sans-Serif" font-size="10.00" fill="#000000">ToolTipMenu::setText</text>
</a>
</g>
</g>
<!-- Node1&#45;&gt;Node11 -->
<g id="edge11" class="edge">
<title>Node1&#45;&gt;Node11</title>
<path fill="none" stroke="#191970" d="M108.0431,-114.411C132.0225,-109.3061 161.6979,-102.9887 186.9721,-97.6082"/>
<polygon fill="#191970" stroke="#191970" points="187.7288,-101.0256 196.7808,-95.5201 186.2712,-94.179 187.7288,-101.0256"/>
</g>
<!-- Node12 -->
<g id="node12" class="node">
<title>Node12</title>
<g id="a_node12"><a xlink:href="classToolTipMenu.html#a8d76e087f23190420440a4f5c80b722e" target="_top" xlink:title="ToolTipMenu::showAt Blendet das Menü an einer bestimmten Stelle (relativ zum Parent) ein.">
<polygon fill="#ffffff" stroke="#000000" points="183,-38.5 183,-57.5 300,-57.5 300,-38.5 183,-38.5"/>
<text text-anchor="middle" x="241.5" y="-45.5" font-family="Helvetica,sans-Serif" font-size="10.00" fill="#000000">ToolTipMenu::showAt</text>
</a>
</g>
</g>
<!-- Node1&#45;&gt;Node12 -->
<g id="edge12" class="edge">
<title>Node1&#45;&gt;Node12</title>
<path fill="none" stroke="#191970" d="M76.7755,-114.3437C95.3286,-101.7521 129.7493,-79.8252 162,-67 168.2903,-64.4985 174.9968,-62.2696 181.7459,-60.2984"/>
<polygon fill="#191970" stroke="#191970" points="182.9013,-63.6109 191.6213,-57.5932 181.0518,-56.8597 182.9013,-63.6109"/>
</g>
<!-- Node13 -->
<g id="node13" class="node">
<title>Node13</title>
<g id="a_node13"><a xlink:href="classDataModel.html#a2dcc97fd7387151077bcb3794b1614af" target="_top" xlink:title="DataModel::updateCoordinates Aktualisiert die Koordinaten des fokussierten Quadrantens.">
<polygon fill="#ffffff" stroke="#000000" points="162,-.5 162,-19.5 321,-19.5 321,-.5 162,-.5"/>
<text text-anchor="middle" x="241.5" y="-7.5" font-family="Helvetica,sans-Serif" font-size="10.00" fill="#000000">DataModel::updateCoordinates</text>
</a>
</g>
</g>
<!-- Node1&#45;&gt;Node13 -->
<g id="edge13" class="edge">
<title>Node1&#45;&gt;Node13</title>
<path fill="none" stroke="#191970" d="M70.0122,-114.4773C84.7585,-95.1737 121.0197,-51.371 162,-29 166.2155,-26.6988 170.7058,-24.6739 175.3247,-22.8926"/>
<polygon fill="#191970" stroke="#191970" points="176.6322,-26.1439 184.9391,-19.5677 174.3443,-19.5283 176.6322,-26.1439"/>
</g>
<!-- Node5&#45;&gt;Node3 -->
<g id="edge10" class="edge">
<title>Node5&#45;&gt;Node3</title>
<path fill="none" stroke="#191970" d="M297.3962,-133.0017C305.6172,-135.5489 313.7488,-138.8144 321,-143 341.1487,-154.6304 337.6837,-168.0341 357,-181 359.7651,-182.8561 362.7378,-184.5691 365.8028,-186.1422"/>
<polygon fill="#191970" stroke="#191970" points="364.611,-189.4464 375.1587,-190.4445 367.5356,-183.0866 364.611,-189.4464"/>
</g>
<!-- Node6 -->
<g id="node6" class="node">
<title>Node6</title>
<g id="a_node6"><a xlink:href="classCity.html#a0543ff407447b87a952c40bb36f5eef1" target="_top" xlink:title="City::getCenterX Gibt den X&#45;Index des Mittelpunktes.">
<polygon fill="#ffffff" stroke="#000000" points="360.5,-152.5 360.5,-171.5 451.5,-171.5 451.5,-152.5 360.5,-152.5"/>
<text text-anchor="middle" x="406" y="-159.5" font-family="Helvetica,sans-Serif" font-size="10.00" fill="#000000">City::getCenterX</text>
</a>
</g>
</g>
<!-- Node5&#45;&gt;Node6 -->
<g id="edge5" class="edge">
<title>Node5&#45;&gt;Node6</title>
<path fill="none" stroke="#191970" d="M283.0103,-133.589C304.8156,-138.6261 331.7318,-144.8438 354.8191,-150.1771"/>
<polygon fill="#191970" stroke="#191970" points="354.257,-153.6393 364.7882,-152.4799 355.8326,-146.8189 354.257,-153.6393"/>
</g>
<!-- Node7 -->
<g id="node7" class="node">
<title>Node7</title>
<g id="a_node7"><a xlink:href="classCity.html#a99261799f5bec9256ef94c3e4ebda0df" target="_top" xlink:title="City::getCenterX Gibt den Y&#45;Index des Mittelpunktes.">
<polygon fill="#ffffff" stroke="#000000" points="360.5,-114.5 360.5,-133.5 451.5,-133.5 451.5,-114.5 360.5,-114.5"/>
<text text-anchor="middle" x="406" y="-121.5" font-family="Helvetica,sans-Serif" font-size="10.00" fill="#000000">City::getCenterY</text>
</a>
</g>
</g>
<!-- Node5&#45;&gt;Node7 -->
<g id="edge6" class="edge">
<title>Node5&#45;&gt;Node7</title>
<path fill="none" stroke="#191970" d="M297.1922,-124C314.2508,-124 333.0167,-124 350.0898,-124"/>
<polygon fill="#191970" stroke="#191970" points="350.4711,-127.5001 360.4711,-124 350.471,-120.5001 350.4711,-127.5001"/>
</g>
<!-- Node8 -->
<g id="node8" class="node">
<title>Node8</title>
<g id="a_node8"><a xlink:href="classMapTile.html#ab5245ea56fde79ef7640ed93583a57fd" target="_top" xlink:title="MapTile::getCity Die Informationen. Falls keine Stadt: null.">
<polygon fill="#ffffff" stroke="#000000" points="360,-76.5 360,-95.5 452,-95.5 452,-76.5 360,-76.5"/>
<text text-anchor="middle" x="406" y="-83.5" font-family="Helvetica,sans-Serif" font-size="10.00" fill="#000000">MapTile::getCity</text>
</a>
</g>
</g>
<!-- Node5&#45;&gt;Node8 -->
<g id="edge7" class="edge">
<title>Node5&#45;&gt;Node8</title>
<path fill="none" stroke="#191970" d="M283.0103,-114.411C304.8156,-109.3739 331.7318,-103.1562 354.8191,-97.8229"/>
<polygon fill="#191970" stroke="#191970" points="355.8326,-101.1811 364.7882,-95.5201 354.257,-94.3607 355.8326,-101.1811"/>
</g>
<!-- Node9 -->
<g id="node9" class="node">
<title>Node9</title>
<g id="a_node9"><a xlink:href="classCity.html#adc7fe5313b3572973918cf6385e87fd5" target="_top" xlink:title="City::getName Gibt den Namen der Stadt.">
<polygon fill="#ffffff" stroke="#000000" points="365.5,-38.5 365.5,-57.5 446.5,-57.5 446.5,-38.5 365.5,-38.5"/>
<text text-anchor="middle" x="406" y="-45.5" font-family="Helvetica,sans-Serif" font-size="10.00" fill="#000000">City::getName</text>
</a>
</g>
</g>
<!-- Node5&#45;&gt;Node9 -->
<g id="edge8" class="edge">
<title>Node5&#45;&gt;Node9</title>
<path fill="none" stroke="#191970" d="M297.3962,-114.9983C305.6172,-112.4511 313.7488,-109.1856 321,-105 341.1487,-93.3696 337.6837,-79.9659 357,-67 359.7651,-65.1439 362.7378,-63.4309 365.8028,-61.8578"/>
<polygon fill="#191970" stroke="#191970" points="367.5356,-64.9134 375.1587,-57.5555 364.611,-58.5536 367.5356,-64.9134"/>
</g>
<!-- Node10 -->
<g id="node10" class="node">
<title>Node10</title>
<g id="a_node10"><a xlink:href="classCity.html#ae2fad5199ff6b8f11a39fa7500757beb" target="_top" xlink:title="City::getSize Gibt die Anzahl der Felder zurück die zur Stadt gehören.">
<polygon fill="#ffffff" stroke="#000000" points="369,-.5 369,-19.5 443,-19.5 443,-.5 369,-.5"/>
<text text-anchor="middle" x="406" y="-7.5" font-family="Helvetica,sans-Serif" font-size="10.00" fill="#000000">City::getSize</text>
</a>
</g>
</g>
<!-- Node5&#45;&gt;Node10 -->
<g id="edge9" class="edge">
<title>Node5&#45;&gt;Node10</title>
<path fill="none" stroke="#191970" d="M297.0867,-117.489C305.7163,-114.6427 314.0568,-110.632 321,-105 350.0268,-81.4547 329.6314,-54.4538 357,-29 358.6828,-27.4349 360.5088,-25.9939 362.4336,-24.6676"/>
<polygon fill="#191970" stroke="#191970" points="364.4233,-27.5617 371.3667,-19.5592 360.9484,-21.4851 364.4233,-27.5617"/>
</g>
</g>
</svg>
