<?xml version="1.0" encoding="UTF-8" standalone="no"?>
<!DOCTYPE svg PUBLIC "-//W3C//DTD SVG 1.1//EN"
 "http://www.w3.org/Graphics/SVG/1.1/DTD/svg11.dtd">
<!-- Generated by graphviz version 2.40.1 (20161225.0304)
 -->
<!-- Title: ToolTipMenu::showAt Pages: 1 -->
<svg width="300pt" height="66pt"
 viewBox="0.00 0.00 300.00 66.00" xmlns="http://www.w3.org/2000/svg" xmlns:xlink="http://www.w3.org/1999/xlink">
<g id="graph0" class="graph" transform="scale(1 1) rotate(0) translate(4 62)">
<title>ToolTipMenu::showAt</title>
<polygon fill="#ffffff" stroke="transparent" points="-4,4 -4,-62 296,-62 296,4 -4,4"/>
<!-- Node1 -->
<g id="node1" class="node">
<title>Node1</title>
<g id="a_node1"><a xlink:title="ToolTipMenu::showAt Blendet das Menü an einer bestimmten Stelle (relativ zum Parent) ein.">
<polygon fill="#bfbfbf" stroke="#000000" points="175,-19.5 175,-38.5 292,-38.5 292,-19.5 175,-19.5"/>
<text text-anchor="middle" x="233.5" y="-26.5" font-family="Helvetica,sans-Serif" font-size="10.00" fill="#000000">ToolTipMenu::showAt</text>
</a>
</g>
</g>
<!-- Node2 -->
<g id="node2" class="node">
<title>Node2</title>
<g id="a_node2"><a xlink:href="classView.html#aae14a814f17c825ce462509655e54ee4" target="_top" xlink:title="View::mouseMoveEvent QT Methode. Wird aufgerufen wenn die Maus bewegt wird.">
<polygon fill="#ffffff" stroke="#000000" points="6.5,-38.5 6.5,-57.5 132.5,-57.5 132.5,-38.5 6.5,-38.5"/>
<text text-anchor="middle" x="69.5" y="-45.5" font-family="Helvetica,sans-Serif" font-size="10.00" fill="#000000">View::mouseMoveEvent</text>
</a>
</g>
</g>
<!-- Node1&#45;&gt;Node2 -->
<g id="edge1" class="edge">
<title>Node1&#45;&gt;Node2</title>
<path fill="none" stroke="#191970" d="M164.6637,-36.9749C154.0154,-38.2086 143.0631,-39.4775 132.5503,-40.6954"/>
<polygon fill="#191970" stroke="#191970" points="165.2247,-40.4334 174.7555,-35.8058 164.4191,-33.48 165.2247,-40.4334"/>
</g>
<!-- Node3 -->
<g id="node3" class="node">
<title>Node3</title>
<g id="a_node3"><a xlink:href="classView.html#a76d60435e43027b8497091d02acb77bd" target="_top" xlink:title="View::mouseReleaseEvent QT Methode. Wird aufgerufen wenn die Maus losgelassen wird.">
<polygon fill="#ffffff" stroke="#000000" points="0,-.5 0,-19.5 139,-19.5 139,-.5 0,-.5"/>
<text text-anchor="middle" x="69.5" y="-7.5" font-family="Helvetica,sans-Serif" font-size="10.00" fill="#000000">View::mouseReleaseEvent</text>
</a>
</g>
</g>
<!-- Node1&#45;&gt;Node3 -->
<g id="edge2" class="edge">
<title>Node1&#45;&gt;Node3</title>
<path fill="none" stroke="#191970" d="M164.5687,-21.0141C156.1196,-20.0352 147.4806,-19.0343 139.0229,-18.0545"/>
<polygon fill="#191970" stroke="#191970" points="164.4191,-24.5201 174.7555,-22.1942 165.2247,-17.5666 164.4191,-24.5201"/>
</g>
</g>
</svg>
