<?xml version="1.0" encoding="UTF-8" standalone="no"?>
<!DOCTYPE svg PUBLIC "-//W3C//DTD SVG 1.1//EN"
 "http://www.w3.org/Graphics/SVG/1.1/DTD/svg11.dtd">
<!-- Generated by graphviz version 2.40.1 (20161225.0304)
 -->
<!-- Title: Client::processCommand Pages: 1 -->
<svg width="342pt" height="66pt"
 viewBox="0.00 0.00 342.00 66.00" xmlns="http://www.w3.org/2000/svg" xmlns:xlink="http://www.w3.org/1999/xlink">
<g id="graph0" class="graph" transform="scale(1 1) rotate(0) translate(4 62)">
<title>Client::processCommand</title>
<polygon fill="#ffffff" stroke="transparent" points="-4,4 -4,-62 338,-62 338,4 -4,4"/>
<!-- Node1 -->
<g id="node1" class="node">
<title>Node1</title>
<g id="a_node1"><a xlink:title="Client::processCommand Führt einen empfangenen Befehl aus dem Serverprotokoll aus.">
<polygon fill="#bfbfbf" stroke="#000000" points="0,-19.5 0,-38.5 131,-38.5 131,-19.5 0,-19.5"/>
<text text-anchor="middle" x="65.5" y="-26.5" font-family="Helvetica,sans-Serif" font-size="10.00" fill="#000000">Client::processCommand</text>
</a>
</g>
</g>
<!-- Node2 -->
<g id="node2" class="node">
<title>Node2</title>
<g id="a_node2"><a xlink:href="classMapRenderer.html#aa798710f4ea856a9ccc8d789e7c27795" target="_top" xlink:title=" ">
<polygon fill="#ffffff" stroke="#000000" points="167,-38.5 167,-57.5 334,-57.5 334,-38.5 167,-38.5"/>
<text text-anchor="middle" x="250.5" y="-45.5" font-family="Helvetica,sans-Serif" font-size="10.00" fill="#000000">MapRenderer::animateMovement</text>
</a>
</g>
</g>
<!-- Node1&#45;&gt;Node2 -->
<g id="edge1" class="edge">
<title>Node1&#45;&gt;Node2</title>
<path fill="none" stroke="#191970" d="M131.245,-35.7522C139.5307,-36.6032 148.1299,-37.4863 156.7436,-38.371"/>
<polygon fill="#191970" stroke="#191970" points="156.5388,-41.8683 166.844,-39.4083 157.254,-34.9049 156.5388,-41.8683"/>
</g>
<!-- Node3 -->
<g id="node3" class="node">
<title>Node3</title>
<g id="a_node3"><a xlink:href="classDataModel.html#a75f38e795a59558568e22dbb095d24ac" target="_top" xlink:title="DataModel::setTime Setzt den aktuellen Zeitstempel.">
<polygon fill="#ffffff" stroke="#000000" points="195.5,-.5 195.5,-19.5 305.5,-19.5 305.5,-.5 195.5,-.5"/>
<text text-anchor="middle" x="250.5" y="-7.5" font-family="Helvetica,sans-Serif" font-size="10.00" fill="#000000">DataModel::setTime</text>
</a>
</g>
</g>
<!-- Node1&#45;&gt;Node3 -->
<g id="edge2" class="edge">
<title>Node1&#45;&gt;Node3</title>
<path fill="none" stroke="#191970" d="M131.245,-22.2478C148.7821,-20.4467 167.723,-18.5014 185.2342,-16.703"/>
<polygon fill="#191970" stroke="#191970" points="185.7679,-20.1667 195.3579,-15.6632 185.0527,-13.2033 185.7679,-20.1667"/>
</g>
</g>
</svg>
