<?xml version="1.0" encoding="UTF-8" standalone="no"?>
<!DOCTYPE svg PUBLIC "-//W3C//DTD SVG 1.1//EN"
 "http://www.w3.org/Graphics/SVG/1.1/DTD/svg11.dtd">
<!-- Generated by graphviz version 2.40.1 (20161225.0304)
 -->
<!-- Title: MapRenderer::tick Pages: 1 -->
<svg width="478pt" height="290pt"
 viewBox="0.00 0.00 478.00 289.50" xmlns="http://www.w3.org/2000/svg" xmlns:xlink="http://www.w3.org/1999/xlink">
<g id="graph0" class="graph" transform="scale(1 1) rotate(0) translate(4 285.5)">
<title>MapRenderer::tick</title>
<polygon fill="#ffffff" stroke="transparent" points="-4,4 -4,-285.5 474,-285.5 474,4 -4,4"/>
<!-- Node1 -->
<g id="node1" class="node">
<title>Node1</title>
<g id="a_node1"><a xlink:title=" ">
<polygon fill="#bfbfbf" stroke="#000000" points="0,-121 0,-140 99,-140 99,-121 0,-121"/>
<text text-anchor="middle" x="49.5" y="-128" font-family="Helvetica,sans-Serif" font-size="10.00" fill="#000000">MapRenderer::tick</text>
</a>
</g>
</g>
<!-- Node2 -->
<g id="node2" class="node">
<title>Node2</title>
<g id="a_node2"><a xlink:href="classMapRenderer.html#ae20163bc4a97f6f9b9894aa186143716" target="_top" xlink:title="MapRenderer::logicUpdate Führt einen Logikschritt durch (Animationen etc.)">
<polygon fill="#ffffff" stroke="#000000" points="136,-186 136,-205 274,-205 274,-186 136,-186"/>
<text text-anchor="middle" x="205" y="-193" font-family="Helvetica,sans-Serif" font-size="10.00" fill="#000000">MapRenderer::logicUpdate</text>
</a>
</g>
</g>
<!-- Node1&#45;&gt;Node2 -->
<g id="edge1" class="edge">
<title>Node1&#45;&gt;Node2</title>
<path fill="none" stroke="#191970" d="M72.4446,-140.091C98.9344,-151.1639 142.6935,-169.4555 172.6351,-181.9713"/>
<polygon fill="#191970" stroke="#191970" points="171.6384,-185.3481 182.2146,-185.9756 174.3381,-178.8896 171.6384,-185.3481"/>
</g>
<!-- Node7 -->
<g id="node7" class="node">
<title>Node7</title>
<g id="a_node7"><a xlink:href="classMapRenderer.html#aba0aa93d6c80aa3817424207b088d5a5" target="_top" xlink:title="MapRenderer::spawnCloud Erzeugt eine neue Wolke die über die Karte fliegt.">
<polygon fill="#ffffff" stroke="#000000" points="135,-80 135,-99 275,-99 275,-80 135,-80"/>
<text text-anchor="middle" x="205" y="-87" font-family="Helvetica,sans-Serif" font-size="10.00" fill="#000000">MapRenderer::spawnCloud</text>
</a>
</g>
</g>
<!-- Node1&#45;&gt;Node7 -->
<g id="edge6" class="edge">
<title>Node1&#45;&gt;Node7</title>
<path fill="none" stroke="#191970" d="M85.5657,-120.9907C107.4684,-115.2157 135.6371,-107.7886 159.1171,-101.5977"/>
<polygon fill="#191970" stroke="#191970" points="160.0837,-104.9626 168.8609,-99.0286 158.299,-98.1939 160.0837,-104.9626"/>
</g>
<!-- Node3 -->
<g id="node3" class="node">
<title>Node3</title>
<g id="a_node3"><a xlink:href="classPoint.html#a0b82a4aa9614c11854abc507d89a70a9" target="_top" xlink:title="Point::getX Gibt die X&#45;Koordinate des Punktes.">
<polygon fill="#ffffff" stroke="#000000" points="357.5,-262 357.5,-281 423.5,-281 423.5,-262 357.5,-262"/>
<text text-anchor="middle" x="390.5" y="-269" font-family="Helvetica,sans-Serif" font-size="10.00" fill="#000000">Point::getX</text>
</a>
</g>
</g>
<!-- Node2&#45;&gt;Node3 -->
<g id="edge2" class="edge">
<title>Node2&#45;&gt;Node3</title>
<path fill="none" stroke="#191970" d="M219.8579,-205.0985C239.8428,-217.6262 276.8298,-239.4825 311,-252.5 322.6034,-256.9205 335.5624,-260.5388 347.5948,-263.3869"/>
<polygon fill="#191970" stroke="#191970" points="346.9097,-266.8202 357.4339,-265.5989 348.4451,-259.9906 346.9097,-266.8202"/>
</g>
<!-- Node4 -->
<g id="node4" class="node">
<title>Node4</title>
<g id="a_node4"><a xlink:href="classPoint.html#a3770f321c49dfe7ca463900fddc2e2bc" target="_top" xlink:title="Point::getX Gibt die Y&#45;Koordinate des Punktes.">
<polygon fill="#ffffff" stroke="#000000" points="357.5,-224 357.5,-243 423.5,-243 423.5,-224 357.5,-224"/>
<text text-anchor="middle" x="390.5" y="-231" font-family="Helvetica,sans-Serif" font-size="10.00" fill="#000000">Point::getY</text>
</a>
</g>
</g>
<!-- Node2&#45;&gt;Node4 -->
<g id="edge3" class="edge">
<title>Node2&#45;&gt;Node4</title>
<path fill="none" stroke="#191970" d="M251.8095,-205.089C281.1558,-211.1006 318.7111,-218.7939 347.3386,-224.6583"/>
<polygon fill="#191970" stroke="#191970" points="346.951,-228.1515 357.4499,-226.7296 348.3558,-221.2939 346.951,-228.1515"/>
</g>
<!-- Node5 -->
<g id="node5" class="node">
<title>Node5</title>
<g id="a_node5"><a xlink:href="classPoint.html#a5fe68f58cafb4cbc29f09de0978344fd" target="_top" xlink:title="Point::move Verschiebt den Punkt.">
<polygon fill="#ffffff" stroke="#000000" points="355,-186 355,-205 426,-205 426,-186 355,-186"/>
<text text-anchor="middle" x="390.5" y="-193" font-family="Helvetica,sans-Serif" font-size="10.00" fill="#000000">Point::move</text>
</a>
</g>
</g>
<!-- Node2&#45;&gt;Node5 -->
<g id="edge4" class="edge">
<title>Node2&#45;&gt;Node5</title>
<path fill="none" stroke="#191970" d="M274.0734,-195.5C297.7089,-195.5 323.5429,-195.5 344.8579,-195.5"/>
<polygon fill="#191970" stroke="#191970" points="344.9293,-199.0001 354.9292,-195.5 344.9292,-192.0001 344.9293,-199.0001"/>
</g>
<!-- Node6 -->
<g id="node6" class="node">
<title>Node6</title>
<g id="a_node6"><a xlink:href="classDataModel.html#a2dcc97fd7387151077bcb3794b1614af" target="_top" xlink:title="DataModel::updateCoordinates Aktualisiert die Koordinaten des fokussierten Quadrantens.">
<polygon fill="#ffffff" stroke="#000000" points="311,-148 311,-167 470,-167 470,-148 311,-148"/>
<text text-anchor="middle" x="390.5" y="-155" font-family="Helvetica,sans-Serif" font-size="10.00" fill="#000000">DataModel::updateCoordinates</text>
</a>
</g>
</g>
<!-- Node2&#45;&gt;Node6 -->
<g id="edge5" class="edge">
<title>Node2&#45;&gt;Node6</title>
<path fill="none" stroke="#191970" d="M251.8095,-185.911C276.8395,-180.7835 307.8414,-174.4328 334.1822,-169.0368"/>
<polygon fill="#191970" stroke="#191970" points="334.933,-172.4558 344.0271,-167.0201 333.5281,-165.5982 334.933,-172.4558"/>
</g>
<!-- Node8 -->
<g id="node8" class="node">
<title>Node8</title>
<g id="a_node8"><a xlink:href="classAnimationMovement.html#ae9d448d345c9021f2d5f40ff8e04a18d" target="_top" xlink:title="AnimationMovement::setAutoRotate Setzt ob sich das Bild automatisch in Bewegungsrichtung drehen soll.">
<polygon fill="#ffffff" stroke="#000000" points="333.5,-98.5 333.5,-128.5 447.5,-128.5 447.5,-98.5 333.5,-98.5"/>
<text text-anchor="start" x="341.5" y="-116.5" font-family="Helvetica,sans-Serif" font-size="10.00" fill="#000000">AnimationMovement::</text>
<text text-anchor="middle" x="390.5" y="-105.5" font-family="Helvetica,sans-Serif" font-size="10.00" fill="#000000">setAutoRotate</text>
</a>
</g>
</g>
<!-- Node7&#45;&gt;Node8 -->
<g id="edge7" class="edge">
<title>Node7&#45;&gt;Node8</title>
<path fill="none" stroke="#191970" d="M275.1296,-98.5734C290.868,-100.6096 307.5319,-102.7656 323.1539,-104.7868"/>
<polygon fill="#191970" stroke="#191970" points="322.8827,-108.2808 333.2492,-106.0929 323.7809,-101.3386 322.8827,-108.2808"/>
</g>
<!-- Node9 -->
<g id="node9" class="node">
<title>Node9</title>
<g id="a_node9"><a xlink:href="classAnimationMovement.html#a80d0ce22ed161fcf03cc6f5106c58526" target="_top" xlink:title="AnimationMovement::setRepeat Setzt ob die Animation in Endlosschleife läuft.">
<polygon fill="#ffffff" stroke="#000000" points="333.5,-49.5 333.5,-79.5 447.5,-79.5 447.5,-49.5 333.5,-49.5"/>
<text text-anchor="start" x="341.5" y="-67.5" font-family="Helvetica,sans-Serif" font-size="10.00" fill="#000000">AnimationMovement::</text>
<text text-anchor="middle" x="390.5" y="-56.5" font-family="Helvetica,sans-Serif" font-size="10.00" fill="#000000">setRepeat</text>
</a>
</g>
</g>
<!-- Node7&#45;&gt;Node9 -->
<g id="edge8" class="edge">
<title>Node7&#45;&gt;Node9</title>
<path fill="none" stroke="#191970" d="M275.1296,-80.0486C290.868,-77.9275 307.5319,-75.6817 323.1539,-73.5763"/>
<polygon fill="#191970" stroke="#191970" points="323.8063,-77.0201 333.2492,-72.2157 322.8713,-70.0828 323.8063,-77.0201"/>
</g>
<!-- Node10 -->
<g id="node10" class="node">
<title>Node10</title>
<g id="a_node10"><a xlink:href="classAnimationMovement.html#abee6a37d2f482a521120d528c2bc84dc" target="_top" xlink:title="AnimationMovement::setSpeed Setzt die Geschwindigkeit der Animation.">
<polygon fill="#ffffff" stroke="#000000" points="333.5,-.5 333.5,-30.5 447.5,-30.5 447.5,-.5 333.5,-.5"/>
<text text-anchor="start" x="341.5" y="-18.5" font-family="Helvetica,sans-Serif" font-size="10.00" fill="#000000">AnimationMovement::</text>
<text text-anchor="middle" x="390.5" y="-7.5" font-family="Helvetica,sans-Serif" font-size="10.00" fill="#000000">setSpeed</text>
</a>
</g>
</g>
<!-- Node7&#45;&gt;Node10 -->
<g id="edge9" class="edge">
<title>Node7&#45;&gt;Node10</title>
<path fill="none" stroke="#191970" d="M223.8317,-79.899C244.7827,-69.4299 279.7979,-52.5605 311,-40.5 316.9337,-38.2064 323.1744,-35.9632 329.4415,-33.8208"/>
<polygon fill="#191970" stroke="#191970" points="330.8912,-37.0269 339.2712,-30.5442 328.6775,-30.3862 330.8912,-37.0269"/>
</g>
</g>
</svg>
