<?xml version="1.0" encoding="UTF-8" standalone="no"?>
<!DOCTYPE svg PUBLIC "-//W3C//DTD SVG 1.1//EN"
 "http://www.w3.org/Graphics/SVG/1.1/DTD/svg11.dtd">
<!-- Generated by graphviz version 2.40.1 (20161225.0304)
 -->
<!-- Title: MapRenderer::handleReachedPoint Pages: 1 -->
<svg width="314pt" height="127pt"
 viewBox="0.00 0.00 314.00 127.00" xmlns="http://www.w3.org/2000/svg" xmlns:xlink="http://www.w3.org/1999/xlink">
<g id="graph0" class="graph" transform="scale(1 1) rotate(0) translate(4 123)">
<title>MapRenderer::handleReachedPoint</title>
<polygon fill="#ffffff" stroke="transparent" points="-4,4 -4,-123 310,-123 310,4 -4,4"/>
<!-- Node1 -->
<g id="node1" class="node">
<title>Node1</title>
<g id="a_node1"><a xlink:title="MapRenderer::handleReachedPoint Wird aufgerufen, wenn eine Animation einen neuen Punkt erreicht.">
<polygon fill="#bfbfbf" stroke="#000000" points="0,-44.5 0,-74.5 156,-74.5 156,-44.5 0,-44.5"/>
<text text-anchor="start" x="8" y="-62.5" font-family="Helvetica,sans-Serif" font-size="10.00" fill="#000000">MapRenderer::handleReached</text>
<text text-anchor="middle" x="78" y="-51.5" font-family="Helvetica,sans-Serif" font-size="10.00" fill="#000000">Point</text>
</a>
</g>
</g>
<!-- Node2 -->
<g id="node2" class="node">
<title>Node2</title>
<g id="a_node2"><a xlink:href="classAnimationMovement.html#afa899606a17b3a76e8c8f5b9f2e3dbf8" target="_top" xlink:title="AnimationMovement::getEntity Liefert das Animation Entity.">
<polygon fill="#ffffff" stroke="#000000" points="192,-88.5 192,-118.5 306,-118.5 306,-88.5 192,-88.5"/>
<text text-anchor="start" x="200" y="-106.5" font-family="Helvetica,sans-Serif" font-size="10.00" fill="#000000">AnimationMovement::</text>
<text text-anchor="middle" x="249" y="-95.5" font-family="Helvetica,sans-Serif" font-size="10.00" fill="#000000">getEntity</text>
</a>
</g>
</g>
<!-- Node1&#45;&gt;Node2 -->
<g id="edge1" class="edge">
<title>Node1&#45;&gt;Node2</title>
<path fill="none" stroke="#191970" d="M136.3702,-74.5192C151.0532,-78.2973 166.927,-82.3818 181.9958,-86.2592"/>
<polygon fill="#191970" stroke="#191970" points="181.2046,-89.6695 191.7613,-88.7719 182.949,-82.8903 181.2046,-89.6695"/>
</g>
<!-- Node3 -->
<g id="node3" class="node">
<title>Node3</title>
<g id="a_node3"><a xlink:href="classAnimationEntity.html#a44265778f36955ef1bdaf322bff386c9" target="_top" xlink:title="AnimationEntity::getId Liefert die ID zurück.">
<polygon fill="#ffffff" stroke="#000000" points="192.5,-50 192.5,-69 305.5,-69 305.5,-50 192.5,-50"/>
<text text-anchor="middle" x="249" y="-57" font-family="Helvetica,sans-Serif" font-size="10.00" fill="#000000">AnimationEntity::getId</text>
</a>
</g>
</g>
<!-- Node1&#45;&gt;Node3 -->
<g id="edge2" class="edge">
<title>Node1&#45;&gt;Node3</title>
<path fill="none" stroke="#191970" d="M156.4933,-59.5C165.1072,-59.5 173.8166,-59.5 182.2686,-59.5"/>
<polygon fill="#191970" stroke="#191970" points="182.4268,-63.0001 192.4268,-59.5 182.4268,-56.0001 182.4268,-63.0001"/>
</g>
<!-- Node4 -->
<g id="node4" class="node">
<title>Node4</title>
<g id="a_node4"><a xlink:href="classAnimationMovement.html#a296515672535ad2a568c9f33028a3706" target="_top" xlink:title="AnimationMovement::pauseSteps Die Anzahl der zu überspringenden Schritte.">
<polygon fill="#ffffff" stroke="#000000" points="192,-.5 192,-30.5 306,-30.5 306,-.5 192,-.5"/>
<text text-anchor="start" x="200" y="-18.5" font-family="Helvetica,sans-Serif" font-size="10.00" fill="#000000">AnimationMovement::</text>
<text text-anchor="middle" x="249" y="-7.5" font-family="Helvetica,sans-Serif" font-size="10.00" fill="#000000">pauseSteps</text>
</a>
</g>
</g>
<!-- Node1&#45;&gt;Node4 -->
<g id="edge3" class="edge">
<title>Node1&#45;&gt;Node4</title>
<path fill="none" stroke="#191970" d="M136.3702,-44.4808C151.0532,-40.7027 166.927,-36.6182 181.9958,-32.7408"/>
<polygon fill="#191970" stroke="#191970" points="182.949,-36.1097 191.7613,-30.2281 181.2046,-29.3305 182.949,-36.1097"/>
</g>
</g>
</svg>
