<?xml version="1.0" encoding="UTF-8" standalone="no"?>
<!DOCTYPE svg PUBLIC "-//W3C//DTD SVG 1.1//EN"
 "http://www.w3.org/Graphics/SVG/1.1/DTD/svg11.dtd">
<!-- Generated by graphviz version 2.40.1 (20161225.0304)
 -->
<!-- Title: MenuBar Pages: 1 -->
<!--zoomable 1322 -->
<svg id="main" version="1.1" xmlns="http://www.w3.org/2000/svg" xmlns:xlink="http://www.w3.org/1999/xlink" xml:space="preserve" onload="init(evt)">
<style type="text/css"><![CDATA[
.edge:hover path { stroke: red; }
.edge:hover polygon { stroke: red; fill: red; }
]]></style>
<script type="text/javascript"><![CDATA[
var edges = document.getElementsByTagName('g');
if (edges && edges.length) {
  for (var i=0;i<edges.length;i++) {
    if (edges[i].id.substr(0,4)=='edge') {
      edges[i].setAttribute('class','edge');
    }
  }
}
]]></script>
        <defs>
                <circle id="rim" cx="0" cy="0" r="7"/>
                <circle id="rim2" cx="0" cy="0" r="3.5"/>
                <g id="zoomPlus">
                        <use xlink:href="#rim" fill="#404040">
                                <set attributeName="fill" to="#808080" begin="zoomplus.mouseover" end="zoomplus.mouseout"/>
                        </use>
                        <path d="M-4,0h8M0,-4v8" fill="none" stroke="white" stroke-width="1.5" pointer-events="none"/>
                </g>
                <g id="zoomMin">
                        <use xlink:href="#rim" fill="#404040">
                                <set attributeName="fill" to="#808080" begin="zoomminus.mouseover" end="zoomminus.mouseout"/>
                        </use>
                        <path d="M-4,0h8" fill="none" stroke="white" stroke-width="1.5" pointer-events="none"/>
                </g>
                <g id="dirArrow">
                        <path fill="none" stroke="white" stroke-width="1.5" d="M0,-3.0v7 M-2.5,-0.5L0,-3.0L2.5,-0.5"/>
                </g>
               <g id="resetDef">
                       <use xlink:href="#rim2" fill="#404040">
                               <set attributeName="fill" to="#808080" begin="reset.mouseover" end="reset.mouseout"/>
                       </use>
               </g>
        </defs>

<script type="text/javascript">
var viewWidth = 780;
var viewHeight = 1322;
var sectionId = 'dynsection-1';
</script>
<script xlink:href="svgpan.js"/>
<svg id="graph" class="graph">
<g id="viewport">
<title>MenuBar</title>
<polygon fill="#ffffff" stroke="transparent" points="-4,4 -4,-1318 775.5,-1318 775.5,4 -4,4"/>
<!-- Node1 -->
<g id="node1" class="node">
<title>Node1</title>
<g id="a_node1"><a xlink:title=" ">
<polygon fill="#bfbfbf" stroke="#000000" points="67.5,-.5 67.5,-79.5 189.5,-79.5 189.5,-.5 67.5,-.5"/>
<text text-anchor="middle" x="128.5" y="-67.5" font-family="Helvetica,sans-Serif" font-size="10.00" fill="#000000">MenuBar</text>
<polyline fill="none" stroke="#000000" points="67.5,-60.5 189.5,-60.5 "/>
<text text-anchor="middle" x="128.5" y="-48.5" font-family="Helvetica,sans-Serif" font-size="10.00" fill="#000000"> </text>
<polyline fill="none" stroke="#000000" points="67.5,-41.5 189.5,-41.5 "/>
<text text-anchor="start" x="75.5" y="-29.5" font-family="Helvetica,sans-Serif" font-size="10.00" fill="#000000">+ MenuBar()</text>
<text text-anchor="start" x="75.5" y="-18.5" font-family="Helvetica,sans-Serif" font-size="10.00" fill="#000000">&#45; slotOpenConnection()</text>
<text text-anchor="start" x="75.5" y="-7.5" font-family="Helvetica,sans-Serif" font-size="10.00" fill="#000000">&#45; slotCloseConnection()</text>
</a>
</g>
</g>
<!-- Node2 -->
<g id="node2" class="node">
<title>Node2</title>
<g id="a_node2"><a xlink:title=" ">
<polygon fill="#ffffff" stroke="#bfbfbf" points="0,-254 0,-311 65,-311 65,-254 0,-254"/>
<text text-anchor="middle" x="32.5" y="-299" font-family="Helvetica,sans-Serif" font-size="10.00" fill="#000000">QMenuBar</text>
<polyline fill="none" stroke="#bfbfbf" points="0,-292 65,-292 "/>
<text text-anchor="middle" x="32.5" y="-280" font-family="Helvetica,sans-Serif" font-size="10.00" fill="#000000"> </text>
<polyline fill="none" stroke="#bfbfbf" points="0,-273 65,-273 "/>
<text text-anchor="middle" x="32.5" y="-261" font-family="Helvetica,sans-Serif" font-size="10.00" fill="#000000"> </text>
</a>
</g>
</g>
<!-- Node2&#45;&gt;Node1 -->
<g id="edge1" class="edge">
<title>Node2&#45;&gt;Node1</title>
<path fill="none" stroke="#191970" d="M37.2124,-243.6C43.0605,-204.9619 55.3663,-144.8749 79.5,-98 82.7583,-91.6713 86.8223,-85.4319 91.2071,-79.5256"/>
<polygon fill="none" stroke="#191970" points="33.6903,-243.5037 35.7297,-253.9003 40.6188,-244.501 33.6903,-243.5037"/>
</g>
<!-- Node3 -->
<g id="node3" class="node">
<title>Node3</title>
<g id="a_node3"><a xlink:href="classView.html" target="_top" xlink:title=" ">
<polygon fill="#ffffff" stroke="#000000" points="239,-127.5 239,-437.5 364,-437.5 364,-127.5 239,-127.5"/>
<text text-anchor="middle" x="301.5" y="-425.5" font-family="Helvetica,sans-Serif" font-size="10.00" fill="#000000">View</text>
<polyline fill="none" stroke="#000000" points="239,-418.5 364,-418.5 "/>
<text text-anchor="start" x="247" y="-406.5" font-family="Helvetica,sans-Serif" font-size="10.00" fill="#000000">+ currentScale</text>
<text text-anchor="start" x="247" y="-395.5" font-family="Helvetica,sans-Serif" font-size="10.00" fill="#000000">&#45; dragOriginX</text>
<text text-anchor="start" x="247" y="-384.5" font-family="Helvetica,sans-Serif" font-size="10.00" fill="#000000">&#45; dragOriginY</text>
<text text-anchor="start" x="247" y="-373.5" font-family="Helvetica,sans-Serif" font-size="10.00" fill="#000000">&#45; dragPosX</text>
<text text-anchor="start" x="247" y="-362.5" font-family="Helvetica,sans-Serif" font-size="10.00" fill="#000000">&#45; dragPosY</text>
<text text-anchor="start" x="247" y="-351.5" font-family="Helvetica,sans-Serif" font-size="10.00" fill="#000000">&#45; mouseX</text>
<text text-anchor="start" x="247" y="-340.5" font-family="Helvetica,sans-Serif" font-size="10.00" fill="#000000">&#45; mouseY</text>
<text text-anchor="start" x="247" y="-329.5" font-family="Helvetica,sans-Serif" font-size="10.00" fill="#000000">&#45; mouseDown</text>
<text text-anchor="start" x="247" y="-318.5" font-family="Helvetica,sans-Serif" font-size="10.00" fill="#000000">&#45; doAnimations</text>
<polyline fill="none" stroke="#000000" points="239,-311.5 364,-311.5 "/>
<text text-anchor="start" x="247" y="-299.5" font-family="Helvetica,sans-Serif" font-size="10.00" fill="#000000">+ View()</text>
<text text-anchor="start" x="247" y="-288.5" font-family="Helvetica,sans-Serif" font-size="10.00" fill="#000000">+ mousePressEvent()</text>
<text text-anchor="start" x="247" y="-277.5" font-family="Helvetica,sans-Serif" font-size="10.00" fill="#000000">+ mouseReleaseEvent()</text>
<text text-anchor="start" x="247" y="-266.5" font-family="Helvetica,sans-Serif" font-size="10.00" fill="#000000">+ mouseMoveEvent()</text>
<text text-anchor="start" x="247" y="-255.5" font-family="Helvetica,sans-Serif" font-size="10.00" fill="#000000">+ wheelEvent()</text>
<text text-anchor="start" x="247" y="-244.5" font-family="Helvetica,sans-Serif" font-size="10.00" fill="#000000">+ keyPressEvent()</text>
<text text-anchor="start" x="247" y="-233.5" font-family="Helvetica,sans-Serif" font-size="10.00" fill="#000000">+ fluidZoom()</text>
<text text-anchor="start" x="247" y="-222.5" font-family="Helvetica,sans-Serif" font-size="10.00" fill="#000000">+ fluidMove()</text>
<text text-anchor="start" x="247" y="-211.5" font-family="Helvetica,sans-Serif" font-size="10.00" fill="#000000">+ fluidMovement()</text>
<text text-anchor="start" x="247" y="-200.5" font-family="Helvetica,sans-Serif" font-size="10.00" fill="#000000">+ enableAnimation()</text>
<text text-anchor="start" x="247" y="-189.5" font-family="Helvetica,sans-Serif" font-size="10.00" fill="#000000">+ setDataModel()</text>
<text text-anchor="start" x="247" y="-178.5" font-family="Helvetica,sans-Serif" font-size="10.00" fill="#000000">+ paintEvent()</text>
<text text-anchor="start" x="247" y="-167.5" font-family="Helvetica,sans-Serif" font-size="10.00" fill="#000000">+ tick()</text>
<text text-anchor="start" x="247" y="-156.5" font-family="Helvetica,sans-Serif" font-size="10.00" fill="#000000">+ zoomInAnimation()</text>
<text text-anchor="start" x="247" y="-145.5" font-family="Helvetica,sans-Serif" font-size="10.00" fill="#000000">&#45; leftclick()</text>
<text text-anchor="start" x="247" y="-134.5" font-family="Helvetica,sans-Serif" font-size="10.00" fill="#000000">&#45; rightclick()</text>
</a>
</g>
</g>
<!-- Node3&#45;&gt;Node1 -->
<g id="edge2" class="edge">
<title>Node3&#45;&gt;Node1</title>
<path fill="none" stroke="#404040" d="M238.9493,-181.3491C226.9009,-163 214.0995,-144.2291 201.5,-127 191.6243,-113.4955 188.2319,-110.8346 177.5,-98 175.0056,-95.0168 172.4353,-91.951 169.8399,-88.8612"/>
<polygon fill="none" stroke="#404040" points="169.755,-88.7602 162.8312,-86.7447 162.0287,-79.5784 168.9524,-81.5939 169.755,-88.7602"/>
<text text-anchor="middle" x="201.5" y="-101" font-family="Helvetica,sans-Serif" font-size="10.00" fill="#000000"> &#45;view</text>
</g>
<!-- Node4 -->
<g id="node4" class="node">
<title>Node4</title>
<g id="a_node4"><a xlink:title=" ">
<polygon fill="#ffffff" stroke="#bfbfbf" points="495,-562.5 495,-619.5 582,-619.5 582,-562.5 495,-562.5"/>
<text text-anchor="middle" x="538.5" y="-607.5" font-family="Helvetica,sans-Serif" font-size="10.00" fill="#000000">QGraphicsView</text>
<polyline fill="none" stroke="#bfbfbf" points="495,-600.5 582,-600.5 "/>
<text text-anchor="middle" x="538.5" y="-588.5" font-family="Helvetica,sans-Serif" font-size="10.00" fill="#000000"> </text>
<polyline fill="none" stroke="#bfbfbf" points="495,-581.5 582,-581.5 "/>
<text text-anchor="middle" x="538.5" y="-569.5" font-family="Helvetica,sans-Serif" font-size="10.00" fill="#000000"> </text>
</a>
</g>
</g>
<!-- Node4&#45;&gt;Node3 -->
<g id="edge3" class="edge">
<title>Node4&#45;&gt;Node3</title>
<path fill="none" stroke="#191970" d="M522.655,-553.1753C513.1656,-532.2935 500.1211,-506.3437 485.5,-485 450.0642,-433.2712 402.2516,-381.0492 364.2471,-342.5957"/>
<polygon fill="none" stroke="#191970" points="519.4891,-554.6698 526.7577,-562.3782 525.8826,-551.8196 519.4891,-554.6698"/>
</g>
<!-- Node5 -->
<g id="node5" class="node">
<title>Node5</title>
<g id="a_node5"><a xlink:href="classScene.html" target="_top" xlink:title=" ">
<polygon fill="#ffffff" stroke="#000000" points="237.5,-485.5 237.5,-696.5 365.5,-696.5 365.5,-485.5 237.5,-485.5"/>
<text text-anchor="middle" x="301.5" y="-684.5" font-family="Helvetica,sans-Serif" font-size="10.00" fill="#000000">Scene</text>
<polyline fill="none" stroke="#000000" points="237.5,-677.5 365.5,-677.5 "/>
<text text-anchor="start" x="245.5" y="-665.5" font-family="Helvetica,sans-Serif" font-size="10.00" fill="#000000">+ MAP_SIZE</text>
<text text-anchor="start" x="245.5" y="-654.5" font-family="Helvetica,sans-Serif" font-size="10.00" fill="#000000">+ TILE_SIZE</text>
<text text-anchor="start" x="245.5" y="-643.5" font-family="Helvetica,sans-Serif" font-size="10.00" fill="#000000">&#45; radiusHighlighter</text>
<text text-anchor="start" x="245.5" y="-632.5" font-family="Helvetica,sans-Serif" font-size="10.00" fill="#000000">&#45; textHint</text>
<text text-anchor="start" x="245.5" y="-621.5" font-family="Helvetica,sans-Serif" font-size="10.00" fill="#000000">&#45; showRadius</text>
<text text-anchor="start" x="245.5" y="-610.5" font-family="Helvetica,sans-Serif" font-size="10.00" fill="#000000">&#45; players</text>
<polyline fill="none" stroke="#000000" points="237.5,-603.5 365.5,-603.5 "/>
<text text-anchor="start" x="245.5" y="-591.5" font-family="Helvetica,sans-Serif" font-size="10.00" fill="#000000">+ Scene()</text>
<text text-anchor="start" x="245.5" y="-580.5" font-family="Helvetica,sans-Serif" font-size="10.00" fill="#000000">+ generateWorld()</text>
<text text-anchor="start" x="245.5" y="-569.5" font-family="Helvetica,sans-Serif" font-size="10.00" fill="#000000">+ setActiveTile()</text>
<text text-anchor="start" x="245.5" y="-558.5" font-family="Helvetica,sans-Serif" font-size="10.00" fill="#000000">+ getTileAt()</text>
<text text-anchor="start" x="245.5" y="-547.5" font-family="Helvetica,sans-Serif" font-size="10.00" fill="#000000">+ setTileAt()</text>
<text text-anchor="start" x="245.5" y="-536.5" font-family="Helvetica,sans-Serif" font-size="10.00" fill="#000000">+ tileChanged()</text>
<text text-anchor="start" x="245.5" y="-525.5" font-family="Helvetica,sans-Serif" font-size="10.00" fill="#000000">+ tick()</text>
<text text-anchor="start" x="245.5" y="-514.5" font-family="Helvetica,sans-Serif" font-size="10.00" fill="#000000">+ onSetTile()</text>
<text text-anchor="start" x="245.5" y="-503.5" font-family="Helvetica,sans-Serif" font-size="10.00" fill="#000000">+ updatePlayerPosition()</text>
<text text-anchor="start" x="245.5" y="-492.5" font-family="Helvetica,sans-Serif" font-size="10.00" fill="#000000">+ addPlayer()</text>
</a>
</g>
</g>
<!-- Node5&#45;&gt;Node1 -->
<g id="edge17" class="edge">
<title>Node5&#45;&gt;Node1</title>
<path fill="none" stroke="#404040" d="M237.318,-491.7882C235.7068,-489.4964 234.0992,-487.2308 232.5,-485 217.0105,-463.3935 206.2637,-462.3086 195.5,-438 144.0375,-321.777 131.866,-170.4242 129.1423,-92.0845"/>
<polygon fill="none" stroke="#404040" points="129.1307,-91.6931 124.9522,-85.8159 128.7702,-79.6985 132.9486,-85.5756 129.1307,-91.6931"/>
<text text-anchor="middle" x="212.5" y="-280" font-family="Helvetica,sans-Serif" font-size="10.00" fill="#000000"> &#45;scene</text>
</g>
<!-- Node5&#45;&gt;Node3 -->
<g id="edge4" class="edge">
<title>Node5&#45;&gt;Node3</title>
<path fill="none" stroke="#404040" d="M301.5,-485.2634C301.5,-473.7515 301.5,-461.8382 301.5,-449.8183"/>
<polygon fill="none" stroke="#404040" points="301.5001,-449.7738 297.5,-443.7739 301.5,-437.7738 305.5,-443.7738 301.5001,-449.7738"/>
<text text-anchor="middle" x="320" y="-459" font-family="Helvetica,sans-Serif" font-size="10.00" fill="#000000"> +scene</text>
</g>
<!-- Node6 -->
<g id="node6" class="node">
<title>Node6</title>
<g id="a_node6"><a xlink:title=" ">
<polygon fill="#ffffff" stroke="#bfbfbf" points="603.5,-893 603.5,-950 697.5,-950 697.5,-893 603.5,-893"/>
<text text-anchor="middle" x="650.5" y="-938" font-family="Helvetica,sans-Serif" font-size="10.00" fill="#000000">QGraphicsScene</text>
<polyline fill="none" stroke="#bfbfbf" points="603.5,-931 697.5,-931 "/>
<text text-anchor="middle" x="650.5" y="-919" font-family="Helvetica,sans-Serif" font-size="10.00" fill="#000000"> </text>
<polyline fill="none" stroke="#bfbfbf" points="603.5,-912 697.5,-912 "/>
<text text-anchor="middle" x="650.5" y="-900" font-family="Helvetica,sans-Serif" font-size="10.00" fill="#000000"> </text>
</a>
</g>
</g>
<!-- Node6&#45;&gt;Node5 -->
<g id="edge5" class="edge">
<title>Node6&#45;&gt;Node5</title>
<path fill="none" stroke="#191970" d="M647.302,-882.6469C642.1932,-845.1464 628.9289,-789.1673 594.5,-755 553.9973,-714.8051 527.7991,-729.0752 472.5,-715 429.5842,-704.0767 411.6707,-721.0713 374.5,-697 371.4054,-694.9959 368.4064,-692.8099 365.5036,-690.4736"/>
<polygon fill="none" stroke="#191970" points="643.8438,-883.2021 648.5375,-892.7005 650.7915,-882.3482 643.8438,-883.2021"/>
</g>
<!-- Node7 -->
<g id="node7" class="node">
<title>Node7</title>
<g id="a_node7"><a xlink:href="classHighlighter.html" target="_top" xlink:title=" ">
<polygon fill="#ffffff" stroke="#000000" points="227,-887.5 227,-955.5 306,-955.5 306,-887.5 227,-887.5"/>
<text text-anchor="middle" x="266.5" y="-943.5" font-family="Helvetica,sans-Serif" font-size="10.00" fill="#000000">Highlighter</text>
<polyline fill="none" stroke="#000000" points="227,-936.5 306,-936.5 "/>
<text text-anchor="start" x="235" y="-924.5" font-family="Helvetica,sans-Serif" font-size="10.00" fill="#000000">&#45; outline</text>
<polyline fill="none" stroke="#000000" points="227,-917.5 306,-917.5 "/>
<text text-anchor="start" x="235" y="-905.5" font-family="Helvetica,sans-Serif" font-size="10.00" fill="#000000">+ Highlighter()</text>
<text text-anchor="start" x="235" y="-894.5" font-family="Helvetica,sans-Serif" font-size="10.00" fill="#000000">+ setColor()</text>
</a>
</g>
</g>
<!-- Node7&#45;&gt;Node5 -->
<g id="edge6" class="edge">
<title>Node7&#45;&gt;Node5</title>
<path fill="none" stroke="#404040" d="M266.5832,-887.3825C267.0447,-846.3266 268.9955,-775.3735 276.5,-715 276.7561,-712.9399 277.0273,-710.8628 277.3123,-708.7728"/>
<polygon fill="none" stroke="#404040" points="277.3429,-708.5636 274.2558,-702.0468 279.084,-696.6906 282.1711,-703.2075 277.3429,-708.5636"/>
<text text-anchor="middle" x="302.5" y="-723.5" font-family="Helvetica,sans-Serif" font-size="10.00" fill="#000000"> &#45;highlighter</text>
</g>
<!-- Node8 -->
<g id="node8" class="node">
<title>Node8</title>
<g id="a_node8"><a xlink:title=" ">
<polygon fill="#ffffff" stroke="#bfbfbf" points="214.5,-1196 214.5,-1253 318.5,-1253 318.5,-1196 214.5,-1196"/>
<text text-anchor="middle" x="266.5" y="-1241" font-family="Helvetica,sans-Serif" font-size="10.00" fill="#000000">QGraphicsRectItem</text>
<polyline fill="none" stroke="#bfbfbf" points="214.5,-1234 318.5,-1234 "/>
<text text-anchor="middle" x="266.5" y="-1222" font-family="Helvetica,sans-Serif" font-size="10.00" fill="#000000"> </text>
<polyline fill="none" stroke="#bfbfbf" points="214.5,-1215 318.5,-1215 "/>
<text text-anchor="middle" x="266.5" y="-1203" font-family="Helvetica,sans-Serif" font-size="10.00" fill="#000000"> </text>
</a>
</g>
</g>
<!-- Node8&#45;&gt;Node7 -->
<g id="edge7" class="edge">
<title>Node8&#45;&gt;Node7</title>
<path fill="none" stroke="#191970" d="M266.5,-1185.8505C266.5,-1126.161 266.5,-1012.5126 266.5,-955.6644"/>
<polygon fill="none" stroke="#191970" points="263.0001,-1185.9945 266.5,-1195.9945 270.0001,-1185.9945 263.0001,-1185.9945"/>
</g>
<!-- Node9 -->
<g id="node9" class="node">
<title>Node9</title>
<g id="a_node9"><a xlink:href="classMapTile.html" target="_top" xlink:title=" ">
<polygon fill="#ffffff" stroke="#000000" points="445.5,-805 445.5,-1038 585.5,-1038 585.5,-805 445.5,-805"/>
<text text-anchor="middle" x="515.5" y="-1026" font-family="Helvetica,sans-Serif" font-size="10.00" fill="#000000">MapTile</text>
<polyline fill="none" stroke="#000000" points="445.5,-1019 585.5,-1019 "/>
<text text-anchor="start" x="453.5" y="-1007" font-family="Helvetica,sans-Serif" font-size="10.00" fill="#000000">&#45; type</text>
<text text-anchor="start" x="453.5" y="-996" font-family="Helvetica,sans-Serif" font-size="10.00" fill="#000000">&#45; pixmapItem</text>
<text text-anchor="start" x="453.5" y="-985" font-family="Helvetica,sans-Serif" font-size="10.00" fill="#000000">&#45; currentRotation</text>
<polyline fill="none" stroke="#000000" points="445.5,-978 585.5,-978 "/>
<text text-anchor="start" x="453.5" y="-966" font-family="Helvetica,sans-Serif" font-size="10.00" fill="#000000">+ MapTile()</text>
<text text-anchor="start" x="453.5" y="-955" font-family="Helvetica,sans-Serif" font-size="10.00" fill="#000000">+ MapTile()</text>
<text text-anchor="start" x="453.5" y="-944" font-family="Helvetica,sans-Serif" font-size="10.00" fill="#000000">+ setType()</text>
<text text-anchor="start" x="453.5" y="-933" font-family="Helvetica,sans-Serif" font-size="10.00" fill="#000000">+ getType()</text>
<text text-anchor="start" x="453.5" y="-922" font-family="Helvetica,sans-Serif" font-size="10.00" fill="#000000">+ setRotation()</text>
<text text-anchor="start" x="453.5" y="-911" font-family="Helvetica,sans-Serif" font-size="10.00" fill="#000000">+ getRotation()</text>
<text text-anchor="start" x="453.5" y="-900" font-family="Helvetica,sans-Serif" font-size="10.00" fill="#000000">+ setPosition()</text>
<text text-anchor="start" x="453.5" y="-889" font-family="Helvetica,sans-Serif" font-size="10.00" fill="#000000">+ isRiver()</text>
<text text-anchor="start" x="453.5" y="-878" font-family="Helvetica,sans-Serif" font-size="10.00" fill="#000000">+ isRail()</text>
<text text-anchor="start" x="453.5" y="-867" font-family="Helvetica,sans-Serif" font-size="10.00" fill="#000000">+ getPixmapItem()</text>
<text text-anchor="start" x="453.5" y="-856" font-family="Helvetica,sans-Serif" font-size="10.00" fill="#000000">+ getCity()</text>
<text text-anchor="start" x="453.5" y="-845" font-family="Helvetica,sans-Serif" font-size="10.00" fill="#000000">+ setCity()</text>
<text text-anchor="start" x="453.5" y="-834" font-family="Helvetica,sans-Serif" font-size="10.00" fill="#000000">+ getX()</text>
<text text-anchor="start" x="453.5" y="-823" font-family="Helvetica,sans-Serif" font-size="10.00" fill="#000000">+ getY()</text>
<text text-anchor="start" x="453.5" y="-812" font-family="Helvetica,sans-Serif" font-size="10.00" fill="#000000">+ attachGraphicsManager()</text>
</a>
</g>
</g>
<!-- Node9&#45;&gt;Node5 -->
<g id="edge8" class="edge">
<title>Node9&#45;&gt;Node5</title>
<path fill="none" stroke="#404040" d="M462.359,-804.5958C452.9137,-787.446 442.5354,-770.3934 431.5,-755 410.442,-725.626 397.503,-724.8771 374.5,-697 374.0334,-696.4345 373.5667,-695.8661 373.1001,-695.2949"/>
<polygon fill="none" stroke="#404040" points="373.0348,-695.2129 366.1675,-693.0128 365.5571,-685.8276 372.4244,-688.0277 373.0348,-695.2129"/>
<text text-anchor="middle" x="442.5" y="-729" font-family="Helvetica,sans-Serif" font-size="10.00" fill="#000000"> &#45;activeTile</text>
<text text-anchor="middle" x="442.5" y="-718" font-family="Helvetica,sans-Serif" font-size="10.00" fill="#000000">+data</text>
</g>
<!-- Node10 -->
<g id="node10" class="node">
<title>Node10</title>
<g id="a_node10"><a xlink:href="classGraphicsManager.html" target="_top" xlink:title=" ">
<polygon fill="#ffffff" stroke="#000000" points="340,-1190.5 340,-1258.5 453,-1258.5 453,-1190.5 340,-1190.5"/>
<text text-anchor="middle" x="396.5" y="-1246.5" font-family="Helvetica,sans-Serif" font-size="10.00" fill="#000000">GraphicsManager</text>
<polyline fill="none" stroke="#000000" points="340,-1239.5 453,-1239.5 "/>
<text text-anchor="start" x="348" y="-1227.5" font-family="Helvetica,sans-Serif" font-size="10.00" fill="#000000">+ GRAPHICS</text>
<polyline fill="none" stroke="#000000" points="340,-1220.5 453,-1220.5 "/>
<text text-anchor="start" x="348" y="-1208.5" font-family="Helvetica,sans-Serif" font-size="10.00" fill="#000000">+ GraphicsManager()</text>
<text text-anchor="start" x="348" y="-1197.5" font-family="Helvetica,sans-Serif" font-size="10.00" fill="#000000">+ get()</text>
</a>
</g>
</g>
<!-- Node10&#45;&gt;Node5 -->
<g id="edge11" class="edge">
<title>Node10&#45;&gt;Node5</title>
<path fill="none" stroke="#404040" d="M382.5261,-1190.3671C372.0498,-1163.1416 358.3809,-1123.7749 351.5,-1088 320.1291,-924.8969 351.3464,-879.5138 328.5,-715 328.2135,-712.9371 327.9114,-710.8574 327.5951,-708.7651"/>
<polygon fill="none" stroke="#404040" points="327.5552,-708.5174 322.649,-703.2326 325.6403,-696.6712 330.5465,-701.956 327.5552,-708.5174"/>
<text text-anchor="middle" x="394" y="-919" font-family="Helvetica,sans-Serif" font-size="10.00" fill="#000000"> &#45;graphicsManager</text>
</g>
<!-- Node10&#45;&gt;Node9 -->
<g id="edge9" class="edge">
<title>Node10&#45;&gt;Node9</title>
<path fill="none" stroke="#404040" d="M403.1994,-1190.4994C408.3852,-1166.5106 416.3846,-1133.8229 426.5,-1106 433.3057,-1087.2806 441.3934,-1067.9209 449.8765,-1049.0972"/>
<polygon fill="none" stroke="#404040" points="449.9215,-1048.9989 448.7779,-1041.879 454.9102,-1038.085 456.0538,-1045.2048 449.9215,-1048.9989"/>
<text text-anchor="middle" x="469" y="-1109" font-family="Helvetica,sans-Serif" font-size="10.00" fill="#000000"> &#45;graphicsManager</text>
</g>
<!-- Node11 -->
<g id="node11" class="node">
<title>Node11</title>
<g id="a_node11"><a xlink:href="classCity.html" target="_top" xlink:title=" ">
<polygon fill="#ffffff" stroke="#000000" points="474,-1135.5 474,-1313.5 557,-1313.5 557,-1135.5 474,-1135.5"/>
<text text-anchor="middle" x="515.5" y="-1301.5" font-family="Helvetica,sans-Serif" font-size="10.00" fill="#000000">City</text>
<polyline fill="none" stroke="#000000" points="474,-1294.5 557,-1294.5 "/>
<text text-anchor="start" x="482" y="-1282.5" font-family="Helvetica,sans-Serif" font-size="10.00" fill="#000000">&#45; size</text>
<text text-anchor="start" x="482" y="-1271.5" font-family="Helvetica,sans-Serif" font-size="10.00" fill="#000000">&#45; centerX</text>
<text text-anchor="start" x="482" y="-1260.5" font-family="Helvetica,sans-Serif" font-size="10.00" fill="#000000">&#45; centerY</text>
<text text-anchor="start" x="482" y="-1249.5" font-family="Helvetica,sans-Serif" font-size="10.00" fill="#000000">&#45; name</text>
<polyline fill="none" stroke="#000000" points="474,-1242.5 557,-1242.5 "/>
<text text-anchor="start" x="482" y="-1230.5" font-family="Helvetica,sans-Serif" font-size="10.00" fill="#000000">+ City()</text>
<text text-anchor="start" x="482" y="-1219.5" font-family="Helvetica,sans-Serif" font-size="10.00" fill="#000000">+ City()</text>
<text text-anchor="start" x="482" y="-1208.5" font-family="Helvetica,sans-Serif" font-size="10.00" fill="#000000">+ getSize()</text>
<text text-anchor="start" x="482" y="-1197.5" font-family="Helvetica,sans-Serif" font-size="10.00" fill="#000000">+ getCenterX()</text>
<text text-anchor="start" x="482" y="-1186.5" font-family="Helvetica,sans-Serif" font-size="10.00" fill="#000000">+ getCenterY()</text>
<text text-anchor="start" x="482" y="-1175.5" font-family="Helvetica,sans-Serif" font-size="10.00" fill="#000000">+ getName()</text>
<text text-anchor="start" x="482" y="-1164.5" font-family="Helvetica,sans-Serif" font-size="10.00" fill="#000000">+ setSize()</text>
<text text-anchor="start" x="482" y="-1153.5" font-family="Helvetica,sans-Serif" font-size="10.00" fill="#000000">+ setCenter()</text>
<text text-anchor="start" x="482" y="-1142.5" font-family="Helvetica,sans-Serif" font-size="10.00" fill="#000000">+ setName()</text>
</a>
</g>
</g>
<!-- Node11&#45;&gt;Node9 -->
<g id="edge10" class="edge">
<title>Node11&#45;&gt;Node9</title>
<path fill="none" stroke="#404040" d="M515.5,-1135.2288C515.5,-1108.6512 515.5,-1078.9811 515.5,-1050.4077"/>
<polygon fill="none" stroke="#404040" points="515.5001,-1050.2414 511.5,-1044.2414 515.5,-1038.2414 519.5,-1044.2413 515.5001,-1050.2414"/>
<text text-anchor="middle" x="526.5" y="-1109" font-family="Helvetica,sans-Serif" font-size="10.00" fill="#000000"> &#45;city</text>
</g>
<!-- Node12 -->
<g id="node12" class="node">
<title>Node12</title>
<g id="a_node12"><a xlink:href="classDataModel.html" target="_top" xlink:title=" ">
<polygon fill="#ffffff" stroke="#000000" points="72,-755.5 72,-1087.5 209,-1087.5 209,-755.5 72,-755.5"/>
<text text-anchor="middle" x="140.5" y="-1075.5" font-family="Helvetica,sans-Serif" font-size="10.00" fill="#000000">DataModel</text>
<polyline fill="none" stroke="#000000" points="72,-1068.5 209,-1068.5 "/>
<text text-anchor="start" x="80" y="-1056.5" font-family="Helvetica,sans-Serif" font-size="10.00" fill="#000000">&#45; balance</text>
<text text-anchor="start" x="80" y="-1045.5" font-family="Helvetica,sans-Serif" font-size="10.00" fill="#000000">&#45; time</text>
<text text-anchor="start" x="80" y="-1034.5" font-family="Helvetica,sans-Serif" font-size="10.00" fill="#000000">&#45; coordinateX</text>
<text text-anchor="start" x="80" y="-1023.5" font-family="Helvetica,sans-Serif" font-size="10.00" fill="#000000">&#45; coordinateY</text>
<text text-anchor="start" x="80" y="-1012.5" font-family="Helvetica,sans-Serif" font-size="10.00" fill="#000000">&#45; ip</text>
<text text-anchor="start" x="80" y="-1001.5" font-family="Helvetica,sans-Serif" font-size="10.00" fill="#000000">&#45; port</text>
<text text-anchor="start" x="80" y="-990.5" font-family="Helvetica,sans-Serif" font-size="10.00" fill="#000000">&#45; balanceLabel</text>
<text text-anchor="start" x="80" y="-979.5" font-family="Helvetica,sans-Serif" font-size="10.00" fill="#000000">&#45; timeLabel</text>
<text text-anchor="start" x="80" y="-968.5" font-family="Helvetica,sans-Serif" font-size="10.00" fill="#000000">&#45; positionLabel</text>
<text text-anchor="start" x="80" y="-957.5" font-family="Helvetica,sans-Serif" font-size="10.00" fill="#000000">&#45; statusDisplay</text>
<text text-anchor="start" x="80" y="-946.5" font-family="Helvetica,sans-Serif" font-size="10.00" fill="#000000">&#45; connectionLabel</text>
<text text-anchor="start" x="80" y="-935.5" font-family="Helvetica,sans-Serif" font-size="10.00" fill="#000000">&#45; mode</text>
<polyline fill="none" stroke="#000000" points="72,-928.5 209,-928.5 "/>
<text text-anchor="start" x="80" y="-916.5" font-family="Helvetica,sans-Serif" font-size="10.00" fill="#000000">+ DataModel()</text>
<text text-anchor="start" x="80" y="-905.5" font-family="Helvetica,sans-Serif" font-size="10.00" fill="#000000">+ getBalance()</text>
<text text-anchor="start" x="80" y="-894.5" font-family="Helvetica,sans-Serif" font-size="10.00" fill="#000000">+ updateBalance()</text>
<text text-anchor="start" x="80" y="-883.5" font-family="Helvetica,sans-Serif" font-size="10.00" fill="#000000">+ takeBalance()</text>
<text text-anchor="start" x="80" y="-872.5" font-family="Helvetica,sans-Serif" font-size="10.00" fill="#000000">+ timeTick()</text>
<text text-anchor="start" x="80" y="-861.5" font-family="Helvetica,sans-Serif" font-size="10.00" fill="#000000">+ getTime()</text>
<text text-anchor="start" x="80" y="-850.5" font-family="Helvetica,sans-Serif" font-size="10.00" fill="#000000">+ getSystemMillis()</text>
<text text-anchor="start" x="80" y="-839.5" font-family="Helvetica,sans-Serif" font-size="10.00" fill="#000000">+ updateCoordinates()</text>
<text text-anchor="start" x="80" y="-828.5" font-family="Helvetica,sans-Serif" font-size="10.00" fill="#000000">+ getHoverX()</text>
<text text-anchor="start" x="80" y="-817.5" font-family="Helvetica,sans-Serif" font-size="10.00" fill="#000000">+ getHoverY()</text>
<text text-anchor="start" x="80" y="-806.5" font-family="Helvetica,sans-Serif" font-size="10.00" fill="#000000">und 11 mehr ...</text>
<text text-anchor="start" x="80" y="-795.5" font-family="Helvetica,sans-Serif" font-size="10.00" fill="#000000">+ setDefaultMode()</text>
<text text-anchor="start" x="80" y="-784.5" font-family="Helvetica,sans-Serif" font-size="10.00" fill="#000000">+ setTrainStationMode()</text>
<text text-anchor="start" x="80" y="-773.5" font-family="Helvetica,sans-Serif" font-size="10.00" fill="#000000">+ setBridgeMode()</text>
<text text-anchor="start" x="80" y="-762.5" font-family="Helvetica,sans-Serif" font-size="10.00" fill="#000000">+ setRailPlacementMode()</text>
</a>
</g>
</g>
<!-- Node12&#45;&gt;Node1 -->
<g id="edge18" class="edge">
<title>Node12&#45;&gt;Node1</title>
<path fill="none" stroke="#404040" d="M132.1099,-755.0629C131.8889,-748.9664 131.6842,-742.93 131.5,-737 122.8319,-458.0108 126.3484,-388.1226 125.5,-109 125.4851,-104.1111 125.3737,-102.8873 125.5,-98 125.5528,-95.9557 125.6161,-93.8714 125.6879,-91.766"/>
<polygon fill="none" stroke="#404040" points="125.6944,-91.6032 121.9392,-85.447 126.1776,-79.6129 129.9328,-85.7692 125.6944,-91.6032"/>
<text text-anchor="middle" x="154" y="-459" font-family="Helvetica,sans-Serif" font-size="10.00" fill="#000000"> &#45;dataModel</text>
</g>
<!-- Node12&#45;&gt;Node3 -->
<g id="edge16" class="edge">
<title>Node12&#45;&gt;Node3</title>
<path fill="none" stroke="#404040" d="M134.3015,-755.3402C135.8645,-672.2684 144.939,-571.3091 173.5,-485 175.4398,-479.1381 203.13,-435.1299 232.26,-389.632"/>
<polygon fill="none" stroke="#404040" points="232.4075,-389.4018 232.278,-382.1918 238.8835,-379.2992 239.013,-386.5092 232.4075,-389.4018"/>
<text text-anchor="middle" x="201" y="-588.5" font-family="Helvetica,sans-Serif" font-size="10.00" fill="#000000"> &#45;dataModel</text>
</g>
<!-- Node12&#45;&gt;Node5 -->
<g id="edge12" class="edge">
<title>Node12&#45;&gt;Node5</title>
<path fill="none" stroke="#404040" d="M197.4803,-755.3576C203.4791,-741.5163 209.838,-727.8977 216.5,-715 220.9281,-706.4272 225.8499,-697.7445 231.0304,-689.1624"/>
<polygon fill="none" stroke="#404040" points="231.1522,-688.9654 230.9047,-681.7585 237.4621,-678.7582 237.7095,-685.9651 231.1522,-688.9654"/>
<text text-anchor="middle" x="244" y="-723.5" font-family="Helvetica,sans-Serif" font-size="10.00" fill="#000000"> &#45;dataModel</text>
</g>
<!-- Node13 -->
<g id="node13" class="node">
<title>Node13</title>
<g id="a_node13"><a xlink:title=" ">
<polygon fill="#ffffff" stroke="#bfbfbf" points="114,-1196 114,-1253 167,-1253 167,-1196 114,-1196"/>
<text text-anchor="middle" x="140.5" y="-1241" font-family="Helvetica,sans-Serif" font-size="10.00" fill="#000000">QObject</text>
<polyline fill="none" stroke="#bfbfbf" points="114,-1234 167,-1234 "/>
<text text-anchor="middle" x="140.5" y="-1222" font-family="Helvetica,sans-Serif" font-size="10.00" fill="#000000"> </text>
<polyline fill="none" stroke="#bfbfbf" points="114,-1215 167,-1215 "/>
<text text-anchor="middle" x="140.5" y="-1203" font-family="Helvetica,sans-Serif" font-size="10.00" fill="#000000"> </text>
</a>
</g>
</g>
<!-- Node13&#45;&gt;Node12 -->
<g id="edge13" class="edge">
<title>Node13&#45;&gt;Node12</title>
<path fill="none" stroke="#191970" d="M140.5,-1185.986C140.5,-1160.3376 140.5,-1124.6832 140.5,-1087.8468"/>
<polygon fill="none" stroke="#191970" points="137.0001,-1185.9945 140.5,-1195.9945 144.0001,-1185.9945 137.0001,-1185.9945"/>
</g>
<!-- Node14 -->
<g id="node14" class="node">
<title>Node14</title>
<g id="a_node14"><a xlink:href="classToolTipMenu.html" target="_top" xlink:title=" ">
<polygon fill="#ffffff" stroke="#000000" points="384,-546 384,-636 477,-636 477,-546 384,-546"/>
<text text-anchor="middle" x="430.5" y="-624" font-family="Helvetica,sans-Serif" font-size="10.00" fill="#000000">ToolTipMenu</text>
<polyline fill="none" stroke="#000000" points="384,-617 477,-617 "/>
<text text-anchor="start" x="392" y="-605" font-family="Helvetica,sans-Serif" font-size="10.00" fill="#000000">&#45; textlabel</text>
<polyline fill="none" stroke="#000000" points="384,-598 477,-598 "/>
<text text-anchor="start" x="392" y="-586" font-family="Helvetica,sans-Serif" font-size="10.00" fill="#000000">+ ToolTipMenu()</text>
<text text-anchor="start" x="392" y="-575" font-family="Helvetica,sans-Serif" font-size="10.00" fill="#000000">+ hide()</text>
<text text-anchor="start" x="392" y="-564" font-family="Helvetica,sans-Serif" font-size="10.00" fill="#000000">+ showAt()</text>
<text text-anchor="start" x="392" y="-553" font-family="Helvetica,sans-Serif" font-size="10.00" fill="#000000">+ setText()</text>
</a>
</g>
</g>
<!-- Node14&#45;&gt;Node3 -->
<g id="edge14" class="edge">
<title>Node14&#45;&gt;Node3</title>
<path fill="none" stroke="#404040" d="M411.6041,-545.8111C400.0435,-518.1641 384.4811,-480.9471 368.7027,-443.2133"/>
<polygon fill="none" stroke="#404040" points="368.6569,-443.1037 362.6518,-439.1113 364.0274,-432.0326 370.0325,-436.025 368.6569,-443.1037"/>
<text text-anchor="middle" x="395" y="-459" font-family="Helvetica,sans-Serif" font-size="10.00" fill="#000000"> &#45;tooltip</text>
</g>
<!-- Node15 -->
<g id="node15" class="node">
<title>Node15</title>
<g id="a_node15"><a xlink:title=" ">
<polygon fill="#ffffff" stroke="#bfbfbf" points="715.5,-893 715.5,-950 771.5,-950 771.5,-893 715.5,-893"/>
<text text-anchor="middle" x="743.5" y="-938" font-family="Helvetica,sans-Serif" font-size="10.00" fill="#000000">QWidget</text>
<polyline fill="none" stroke="#bfbfbf" points="715.5,-931 771.5,-931 "/>
<text text-anchor="middle" x="743.5" y="-919" font-family="Helvetica,sans-Serif" font-size="10.00" fill="#000000"> </text>
<polyline fill="none" stroke="#bfbfbf" points="715.5,-912 771.5,-912 "/>
<text text-anchor="middle" x="743.5" y="-900" font-family="Helvetica,sans-Serif" font-size="10.00" fill="#000000"> </text>
</a>
</g>
</g>
<!-- Node15&#45;&gt;Node14 -->
<g id="edge15" class="edge">
<title>Node15&#45;&gt;Node14</title>
<path fill="none" stroke="#191970" d="M741.2762,-882.5296C737.8221,-847.2414 729.0047,-794.837 706.5,-755 693.8209,-732.556 687.9245,-725.7605 664.5,-715 591.8426,-681.6235 551.6625,-741.8956 485.5,-697 464.57,-682.7976 451.0978,-658.058 442.7286,-636.0501"/>
<polygon fill="none" stroke="#191970" points="737.8252,-883.2426 742.1852,-892.8987 744.7985,-882.6312 737.8252,-883.2426"/>
</g>
</g>
</svg>
        <g id="navigator" transform="translate(0 0)" fill="#404254">
                <rect fill="#f2f5e9" fill-opacity="0.5" stroke="#606060" stroke-width=".5" x="0" y="0" width="60" height="60"/>
                <use id="zoomplus" xlink:href="#zoomPlus" x="17" y="9" onmousedown="handleZoom(evt,'in')"/>
                <use id="zoomminus" xlink:href="#zoomMin" x="42" y="9" onmousedown="handleZoom(evt,'out')"/>
                <use id="reset" xlink:href="#resetDef" x="30" y="36" onmousedown="handleReset()"/>
                <g id="arrowUp" xlink:href="#dirArrow" transform="translate(30 24)" onmousedown="handlePan(0,-1)">
                  <use xlink:href="#rim" fill="#404040">
                        <set attributeName="fill" to="#808080" begin="arrowUp.mouseover" end="arrowUp.mouseout"/>
                  </use>
                  <path fill="none" stroke="white" stroke-width="1.5" d="M0,-3.0v7 M-2.5,-0.5L0,-3.0L2.5,-0.5"/>
                </g>
                <g id="arrowRight" xlink:href="#dirArrow" transform="rotate(90) translate(36 -43)" onmousedown="handlePan(1,0)">
                  <use xlink:href="#rim" fill="#404040">
                        <set attributeName="fill" to="#808080" begin="arrowRight.mouseover" end="arrowRight.mouseout"/>
                  </use>
                  <path fill="none" stroke="white" stroke-width="1.5" d="M0,-3.0v7 M-2.5,-0.5L0,-3.0L2.5,-0.5"/>
                </g>
                <g id="arrowDown" xlink:href="#dirArrow" transform="rotate(180) translate(-30 -48)" onmousedown="handlePan(0,1)">
                  <use xlink:href="#rim" fill="#404040">
                        <set attributeName="fill" to="#808080" begin="arrowDown.mouseover" end="arrowDown.mouseout"/>
                  </use>
                  <path fill="none" stroke="white" stroke-width="1.5" d="M0,-3.0v7 M-2.5,-0.5L0,-3.0L2.5,-0.5"/>
                </g>
                <g id="arrowLeft" xlink:href="#dirArrow" transform="rotate(270) translate(-36 17)" onmousedown="handlePan(-1,0)">
                  <use xlink:href="#rim" fill="#404040">
                        <set attributeName="fill" to="#808080" begin="arrowLeft.mouseover" end="arrowLeft.mouseout"/>
                  </use>
                  <path fill="none" stroke="white" stroke-width="1.5" d="M0,-3.0v7 M-2.5,-0.5L0,-3.0L2.5,-0.5"/>
                </g>
        </g>
        <svg viewBox="0 0 15 15" width="100%" height="30px" preserveAspectRatio="xMaxYMin meet">
         <g id="arrow_out" transform="scale(0.3 0.3)">
          <a xlink:href="classMenuBar__coll__graph_org.svg" target="_base">
           <rect id="button" ry="5" rx="5" y="6" x="6" height="38" width="38"
                fill="#f2f5e9" fill-opacity="0.5" stroke="#606060" stroke-width="1.0"/>
           <path id="arrow"
             d="M 11.500037,31.436501 C 11.940474,20.09759 22.043105,11.32322 32.158766,21.979434 L 37.068811,17.246167 C 37.068811,17.246167 37.088388,32 37.088388,32 L 22.160133,31.978069 C 22.160133,31.978069 26.997745,27.140456 26.997745,27.140456 C 18.528582,18.264221 13.291696,25.230495 11.500037,31.436501 z"
             style="fill:#404040;"/>
          </a>
         </g>
        </svg>
</svg>
