<?xml version="1.0" encoding="UTF-8" standalone="no"?>
<!DOCTYPE svg PUBLIC "-//W3C//DTD SVG 1.1//EN"
 "http://www.w3.org/Graphics/SVG/1.1/DTD/svg11.dtd">
<!-- Generated by graphviz version 2.40.1 (20161225.0304)
 -->
<!-- Title: MapRenderer::mouseMoveEvent Pages: 1 -->
<svg width="470pt" height="202pt"
 viewBox="0.00 0.00 470.00 201.78" xmlns="http://www.w3.org/2000/svg" xmlns:xlink="http://www.w3.org/1999/xlink">
<g id="graph0" class="graph" transform="scale(1 1) rotate(0) translate(4 197.7798)">
<title>MapRenderer::mouseMoveEvent</title>
<polygon fill="#ffffff" stroke="transparent" points="-4,4 -4,-197.7798 466,-197.7798 466,4 -4,4"/>
<!-- Node1 -->
<g id="node1" class="node">
<title>Node1</title>
<g id="a_node1"><a xlink:title=" ">
<polygon fill="#bfbfbf" stroke="#000000" points="0,-95.5 0,-114.5 165,-114.5 165,-95.5 0,-95.5"/>
<text text-anchor="middle" x="82.5" y="-102.5" font-family="Helvetica,sans-Serif" font-size="10.00" fill="#000000">MapRenderer::mouseMoveEvent</text>
</a>
</g>
</g>
<!-- Node2 -->
<g id="node2" class="node">
<title>Node2</title>
<g id="a_node2"><a xlink:href="classPoint.html#a0b82a4aa9614c11854abc507d89a70a9" target="_top" xlink:title="Point::getX Gibt die X&#45;Koordinate des Punktes.">
<polygon fill="#ffffff" stroke="#000000" points="396,-171.5 396,-190.5 462,-190.5 462,-171.5 396,-171.5"/>
<text text-anchor="middle" x="429" y="-178.5" font-family="Helvetica,sans-Serif" font-size="10.00" fill="#000000">Point::getX</text>
</a>
</g>
</g>
<!-- Node1&#45;&gt;Node2 -->
<g id="edge1" class="edge">
<title>Node1&#45;&gt;Node2</title>
<path fill="none" stroke="#191970" d="M92.8752,-114.6711C112.288,-132.0261 156.2035,-167.8691 201,-181 263.1531,-199.2185 338.9985,-194.1479 385.6419,-188.1164"/>
<polygon fill="#191970" stroke="#191970" points="386.2713,-191.563 395.7052,-186.7411 385.3234,-184.6275 386.2713,-191.563"/>
</g>
<!-- Node3 -->
<g id="node3" class="node">
<title>Node3</title>
<g id="a_node3"><a xlink:href="classPoint.html#a3770f321c49dfe7ca463900fddc2e2bc" target="_top" xlink:title="Point::getX Gibt die Y&#45;Koordinate des Punktes.">
<polygon fill="#ffffff" stroke="#000000" points="396,-133.5 396,-152.5 462,-152.5 462,-133.5 396,-133.5"/>
<text text-anchor="middle" x="429" y="-140.5" font-family="Helvetica,sans-Serif" font-size="10.00" fill="#000000">Point::getY</text>
</a>
</g>
</g>
<!-- Node1&#45;&gt;Node3 -->
<g id="edge2" class="edge">
<title>Node1&#45;&gt;Node3</title>
<path fill="none" stroke="#191970" d="M165.0552,-114.0537C234.258,-121.643 330.3474,-132.181 385.4619,-138.2253"/>
<polygon fill="#191970" stroke="#191970" points="385.2674,-141.7248 395.5893,-139.3359 386.0305,-134.7665 385.2674,-141.7248"/>
</g>
<!-- Node4 -->
<g id="node4" class="node">
<title>Node4</title>
<g id="a_node4"><a xlink:href="classMapRenderer.html#a5e805bae5efab5f37a6ec8ee24543d0d" target="_top" xlink:title="MapRenderer::mapPosition Wandelt eine Position im Fenster in eine Kachelkoordinate um.">
<polygon fill="#ffffff" stroke="#000000" points="210.5,-152.5 210.5,-171.5 350.5,-171.5 350.5,-152.5 210.5,-152.5"/>
<text text-anchor="middle" x="280.5" y="-159.5" font-family="Helvetica,sans-Serif" font-size="10.00" fill="#000000">MapRenderer::mapPosition</text>
</a>
</g>
</g>
<!-- Node1&#45;&gt;Node4 -->
<g id="edge3" class="edge">
<title>Node1&#45;&gt;Node4</title>
<path fill="none" stroke="#191970" d="M115.6407,-114.5405C149.0494,-124.1582 200.771,-139.0477 237.3602,-149.581"/>
<polygon fill="#191970" stroke="#191970" points="236.6731,-153.0253 247.2511,-152.4284 238.6097,-146.2984 236.6731,-153.0253"/>
</g>
<!-- Node5 -->
<g id="node5" class="node">
<title>Node5</title>
<g id="a_node5"><a xlink:href="classPoint.html#a5fe68f58cafb4cbc29f09de0978344fd" target="_top" xlink:title="Point::move Verschiebt den Punkt.">
<polygon fill="#ffffff" stroke="#000000" points="245,-76.5 245,-95.5 316,-95.5 316,-76.5 245,-76.5"/>
<text text-anchor="middle" x="280.5" y="-83.5" font-family="Helvetica,sans-Serif" font-size="10.00" fill="#000000">Point::move</text>
</a>
</g>
</g>
<!-- Node1&#45;&gt;Node5 -->
<g id="edge6" class="edge">
<title>Node1&#45;&gt;Node5</title>
<path fill="none" stroke="#191970" d="M165.0361,-97.0799C188.9099,-94.789 214.0979,-92.3719 234.8351,-90.382"/>
<polygon fill="#191970" stroke="#191970" points="235.3169,-93.8519 244.9368,-89.4126 234.6482,-86.8839 235.3169,-93.8519"/>
</g>
<!-- Node6 -->
<g id="node6" class="node">
<title>Node6</title>
<g id="a_node6"><a xlink:href="classPoint.html#a773af172e76895550d05b081b15493fb" target="_top" xlink:title="Point::set Ändert die Koordinaten.">
<polygon fill="#ffffff" stroke="#000000" points="251,-38.5 251,-57.5 310,-57.5 310,-38.5 251,-38.5"/>
<text text-anchor="middle" x="280.5" y="-45.5" font-family="Helvetica,sans-Serif" font-size="10.00" fill="#000000">Point::set</text>
</a>
</g>
</g>
<!-- Node1&#45;&gt;Node6 -->
<g id="edge7" class="edge">
<title>Node1&#45;&gt;Node6</title>
<path fill="none" stroke="#191970" d="M110.095,-95.4965C133.9978,-87.4221 169.5801,-75.7788 201,-67 213.9413,-63.3842 228.1854,-59.8438 240.9981,-56.8178"/>
<polygon fill="#191970" stroke="#191970" points="241.9684,-60.1856 250.9145,-54.5096 240.3814,-53.3678 241.9684,-60.1856"/>
</g>
<!-- Node7 -->
<g id="node7" class="node">
<title>Node7</title>
<g id="a_node7"><a xlink:href="classDataModel.html#a2dcc97fd7387151077bcb3794b1614af" target="_top" xlink:title="DataModel::updateCoordinates Aktualisiert die Koordinaten des fokussierten Quadrantens.">
<polygon fill="#ffffff" stroke="#000000" points="201,-.5 201,-19.5 360,-19.5 360,-.5 201,-.5"/>
<text text-anchor="middle" x="280.5" y="-7.5" font-family="Helvetica,sans-Serif" font-size="10.00" fill="#000000">DataModel::updateCoordinates</text>
</a>
</g>
</g>
<!-- Node1&#45;&gt;Node7 -->
<g id="edge8" class="edge">
<title>Node1&#45;&gt;Node7</title>
<path fill="none" stroke="#191970" d="M94.5204,-95.3139C115.1013,-79.2018 158.9475,-46.9002 201,-29 206.8267,-26.5198 213.0378,-24.3269 219.3221,-22.3966"/>
<polygon fill="#191970" stroke="#191970" points="220.5564,-25.6842 229.2131,-19.5757 218.6366,-18.9526 220.5564,-25.6842"/>
</g>
<!-- Node4&#45;&gt;Node2 -->
<g id="edge4" class="edge">
<title>Node4&#45;&gt;Node2</title>
<path fill="none" stroke="#191970" d="M350.8361,-170.9992C362.7662,-172.5256 374.8315,-174.0694 385.7954,-175.4721"/>
<polygon fill="#191970" stroke="#191970" points="385.5658,-178.9712 395.9292,-176.7687 386.4543,-172.0278 385.5658,-178.9712"/>
</g>
<!-- Node4&#45;&gt;Node3 -->
<g id="edge5" class="edge">
<title>Node4&#45;&gt;Node3</title>
<path fill="none" stroke="#191970" d="M350.8361,-153.0008C362.7662,-151.4744 374.8315,-149.9306 385.7954,-148.5279"/>
<polygon fill="#191970" stroke="#191970" points="386.4543,-151.9722 395.9292,-147.2313 385.5658,-145.0288 386.4543,-151.9722"/>
</g>
</g>
</svg>
