<?xml version="1.0" encoding="UTF-8" standalone="no"?>
<!DOCTYPE svg PUBLIC "-//W3C//DTD SVG 1.1//EN"
 "http://www.w3.org/Graphics/SVG/1.1/DTD/svg11.dtd">
<!-- Generated by graphviz version 2.40.1 (20161225.0304)
 -->
<!-- Title: MapRenderer::mouseReleaseEvent Pages: 1 -->
<svg width="439pt" height="75pt"
 viewBox="0.00 0.00 439.00 75.00" xmlns="http://www.w3.org/2000/svg" xmlns:xlink="http://www.w3.org/1999/xlink">
<g id="graph0" class="graph" transform="scale(1 1) rotate(0) translate(4 71)">
<title>MapRenderer::mouseReleaseEvent</title>
<polygon fill="#ffffff" stroke="transparent" points="-4,4 -4,-71 435,-71 435,4 -4,4"/>
<!-- Node1 -->
<g id="node1" class="node">
<title>Node1</title>
<g id="a_node1"><a xlink:title=" ">
<polygon fill="#bfbfbf" stroke="#000000" points="0,-23 0,-53 153,-53 153,-23 0,-23"/>
<text text-anchor="start" x="8" y="-41" font-family="Helvetica,sans-Serif" font-size="10.00" fill="#000000">MapRenderer::mouseRelease</text>
<text text-anchor="middle" x="76.5" y="-30" font-family="Helvetica,sans-Serif" font-size="10.00" fill="#000000">Event</text>
</a>
</g>
</g>
<!-- Node2 -->
<g id="node2" class="node">
<title>Node2</title>
<g id="a_node2"><a xlink:href="classPoint.html#a0b82a4aa9614c11854abc507d89a70a9" target="_top" xlink:title="Point::getX Gibt die X&#45;Koordinate des Punktes.">
<polygon fill="#ffffff" stroke="#000000" points="365,-47.5 365,-66.5 431,-66.5 431,-47.5 365,-47.5"/>
<text text-anchor="middle" x="398" y="-54.5" font-family="Helvetica,sans-Serif" font-size="10.00" fill="#000000">Point::getX</text>
</a>
</g>
</g>
<!-- Node1&#45;&gt;Node2 -->
<g id="edge1" class="edge">
<title>Node1&#45;&gt;Node2</title>
<path fill="none" stroke="#191970" d="M153.1387,-52.7028C165.1009,-54.4879 177.3542,-56.0235 189,-57 246.1661,-61.7934 312.4372,-60.6662 354.7633,-59.103"/>
<polygon fill="#191970" stroke="#191970" points="355.134,-62.5912 364.9882,-58.6995 354.8579,-55.5966 355.134,-62.5912"/>
</g>
<!-- Node3 -->
<g id="node3" class="node">
<title>Node3</title>
<g id="a_node3"><a xlink:href="classPoint.html#a3770f321c49dfe7ca463900fddc2e2bc" target="_top" xlink:title="Point::getX Gibt die Y&#45;Koordinate des Punktes.">
<polygon fill="#ffffff" stroke="#000000" points="365,-.5 365,-19.5 431,-19.5 431,-.5 365,-.5"/>
<text text-anchor="middle" x="398" y="-7.5" font-family="Helvetica,sans-Serif" font-size="10.00" fill="#000000">Point::getY</text>
</a>
</g>
</g>
<!-- Node1&#45;&gt;Node3 -->
<g id="edge2" class="edge">
<title>Node1&#45;&gt;Node3</title>
<path fill="none" stroke="#191970" d="M153.1808,-23.742C165.1374,-21.8974 177.3779,-20.2269 189,-19 246.1026,-12.9721 312.3886,-10.957 354.7355,-10.2973"/>
<polygon fill="#191970" stroke="#191970" points="355.0146,-13.7939 364.9657,-10.1572 354.9186,-6.7945 355.0146,-13.7939"/>
</g>
<!-- Node4 -->
<g id="node4" class="node">
<title>Node4</title>
<g id="a_node4"><a xlink:href="classMapRenderer.html#a5e805bae5efab5f37a6ec8ee24543d0d" target="_top" xlink:title="MapRenderer::mapPosition Wandelt eine Position im Fenster in eine Kachelkoordinate um.">
<polygon fill="#ffffff" stroke="#000000" points="189,-28.5 189,-47.5 329,-47.5 329,-28.5 189,-28.5"/>
<text text-anchor="middle" x="259" y="-35.5" font-family="Helvetica,sans-Serif" font-size="10.00" fill="#000000">MapRenderer::mapPosition</text>
</a>
</g>
</g>
<!-- Node1&#45;&gt;Node4 -->
<g id="edge3" class="edge">
<title>Node1&#45;&gt;Node4</title>
<path fill="none" stroke="#191970" d="M153.1032,-38C161.6567,-38 170.3865,-38 178.9813,-38"/>
<polygon fill="#191970" stroke="#191970" points="178.9902,-41.5001 188.9902,-38 178.9901,-34.5001 178.9902,-41.5001"/>
</g>
<!-- Node4&#45;&gt;Node2 -->
<g id="edge4" class="edge">
<title>Node4&#45;&gt;Node2</title>
<path fill="none" stroke="#191970" d="M328.9072,-47.5557C337.7487,-48.7642 346.5814,-49.9716 354.8329,-51.0995"/>
<polygon fill="#191970" stroke="#191970" points="354.549,-54.5931 364.9309,-52.4798 355.497,-47.6576 354.549,-54.5931"/>
</g>
<!-- Node4&#45;&gt;Node3 -->
<g id="edge5" class="edge">
<title>Node4&#45;&gt;Node3</title>
<path fill="none" stroke="#191970" d="M306.4471,-28.4423C322.0389,-25.3015 339.2826,-21.828 354.5614,-18.7502"/>
<polygon fill="#191970" stroke="#191970" points="355.6687,-22.0976 364.7806,-16.6917 354.2863,-15.2354 355.6687,-22.0976"/>
</g>
</g>
</svg>
