<?xml version="1.0" encoding="UTF-8" standalone="no"?>
<!DOCTYPE svg PUBLIC "-//W3C//DTD SVG 1.1//EN"
 "http://www.w3.org/Graphics/SVG/1.1/DTD/svg11.dtd">
<!-- Generated by graphviz version 2.40.1 (20161225.0304)
 -->
<!-- Title: MapTile::setRotation Pages: 1 -->
<!--zoomable 165 -->
<svg id="main" version="1.1" xmlns="http://www.w3.org/2000/svg" xmlns:xlink="http://www.w3.org/1999/xlink" xml:space="preserve" onload="init(evt)">
<style type="text/css"><![CDATA[
.edge:hover path { stroke: red; }
.edge:hover polygon { stroke: red; fill: red; }
]]></style>
<script type="text/javascript"><![CDATA[
var edges = document.getElementsByTagName('g');
if (edges && edges.length) {
  for (var i=0;i<edges.length;i++) {
    if (edges[i].id.substr(0,4)=='edge') {
      edges[i].setAttribute('class','edge');
    }
  }
}
]]></script>
        <defs>
                <circle id="rim" cx="0" cy="0" r="7"/>
                <circle id="rim2" cx="0" cy="0" r="3.5"/>
                <g id="zoomPlus">
                        <use xlink:href="#rim" fill="#404040">
                                <set attributeName="fill" to="#808080" begin="zoomplus.mouseover" end="zoomplus.mouseout"/>
                        </use>
                        <path d="M-4,0h8M0,-4v8" fill="none" stroke="white" stroke-width="1.5" pointer-events="none"/>
                </g>
                <g id="zoomMin">
                        <use xlink:href="#rim" fill="#404040">
                                <set attributeName="fill" to="#808080" begin="zoomminus.mouseover" end="zoomminus.mouseout"/>
                        </use>
                        <path d="M-4,0h8" fill="none" stroke="white" stroke-width="1.5" pointer-events="none"/>
                </g>
                <g id="dirArrow">
                        <path fill="none" stroke="white" stroke-width="1.5" d="M0,-3.0v7 M-2.5,-0.5L0,-3.0L2.5,-0.5"/>
                </g>
               <g id="resetDef">
                       <use xlink:href="#rim2" fill="#404040">
                               <set attributeName="fill" to="#808080" begin="reset.mouseover" end="reset.mouseout"/>
                       </use>
               </g>
        </defs>

<script type="text/javascript">
var viewWidth = 517;
var viewHeight = 165;
var sectionId = 'dynsection-12';
</script>
<script xlink:href="svgpan.js"/>
<svg id="graph" class="graph">
<g id="viewport">
<title>MapTile::setRotation</title>
<polygon fill="#ffffff" stroke="transparent" points="-4,4 -4,-161 513,-161 513,4 -4,4"/>
<!-- Node1 -->
<g id="node1" class="node">
<title>Node1</title>
<g id="a_node1"><a xlink:title="MapTile::setRotation Hilfsfunktion zur Rotation im Quadrat.">
<polygon fill="#bfbfbf" stroke="#000000" points="399,-66.5 399,-85.5 509,-85.5 509,-66.5 399,-66.5"/>
<text text-anchor="middle" x="454" y="-73.5" font-family="Helvetica,sans-Serif" font-size="10.00" fill="#000000">MapTile::setRotation</text>
</a>
</g>
</g>
<!-- Node2 -->
<g id="node2" class="node">
<title>Node2</title>
<g id="a_node2"><a xlink:href="classScene.html#a1ef1c0e0972913d4c477ead916cf06b0" target="_top" xlink:title="Scene::generateWorld Diese Methode generiert eine neue Welt.">
<polygon fill="#ffffff" stroke="#000000" points="110,-137.5 110,-156.5 229,-156.5 229,-137.5 110,-137.5"/>
<text text-anchor="middle" x="169.5" y="-144.5" font-family="Helvetica,sans-Serif" font-size="10.00" fill="#000000">Scene::generateWorld</text>
</a>
</g>
</g>
<!-- Node1&#45;&gt;Node2 -->
<g id="edge1" class="edge">
<title>Node1&#45;&gt;Node2</title>
<path fill="none" stroke="#191970" d="M423.4536,-89.8396C406.0332,-97.2843 383.6235,-106.1181 363,-112 318.844,-124.5935 267.6734,-133.6152 229.0477,-139.342"/>
<polygon fill="#191970" stroke="#191970" points="425.3098,-92.8489 433.0828,-85.6496 422.5167,-86.4303 425.3098,-92.8489"/>
</g>
<!-- Node3 -->
<g id="node3" class="node">
<title>Node3</title>
<g id="a_node3"><a xlink:href="classScene.html#ad861f0bdfab5241fcec39c96f01105b0" target="_top" xlink:title="Scene::onSetTile Ändert ein MapTile ohne ein Signal an den Server. Notwendig zum Empfangen von Änderu...">
<polygon fill="#ffffff" stroke="#000000" points="121.5,-94.5 121.5,-113.5 217.5,-113.5 217.5,-94.5 121.5,-94.5"/>
<text text-anchor="middle" x="169.5" y="-101.5" font-family="Helvetica,sans-Serif" font-size="10.00" fill="#000000">Scene::onSetTile</text>
</a>
</g>
</g>
<!-- Node1&#45;&gt;Node3 -->
<g id="edge2" class="edge">
<title>Node1&#45;&gt;Node3</title>
<path fill="none" stroke="#191970" d="M405.1549,-87.6914C391.5788,-90.5324 376.7795,-93.2524 363,-95 313.7899,-101.2413 257.0497,-103.2782 217.7933,-103.8837"/>
<polygon fill="#191970" stroke="#191970" points="406.225,-91.0411 415.2611,-85.5094 404.7476,-84.1988 406.225,-91.0411"/>
</g>
<!-- Node5 -->
<g id="node5" class="node">
<title>Node5</title>
<g id="a_node5"><a xlink:href="classScene.html#ad22fc5010d69665d13f8ccef2cb094b0" target="_top" xlink:title="Scene::Scene Konstruktor.">
<polygon fill="#ffffff" stroke="#000000" points="129,-47.5 129,-66.5 210,-66.5 210,-47.5 129,-47.5"/>
<text text-anchor="middle" x="169.5" y="-54.5" font-family="Helvetica,sans-Serif" font-size="10.00" fill="#000000">Scene::Scene</text>
</a>
</g>
</g>
<!-- Node1&#45;&gt;Node5 -->
<g id="edge4" class="edge">
<title>Node1&#45;&gt;Node5</title>
<path fill="none" stroke="#191970" d="M407.1177,-64.2887C393.0283,-61.2914 377.4686,-58.4943 363,-57 310.3698,-51.5642 249.2571,-52.817 210.0206,-54.5858"/>
<polygon fill="#191970" stroke="#191970" points="406.5607,-67.75 417.0805,-66.4908 408.0716,-60.9149 406.5607,-67.75"/>
</g>
<!-- Node6 -->
<g id="node6" class="node">
<title>Node6</title>
<g id="a_node6"><a xlink:href="classScene.html#a38a79a03ba1fa403296646ee64ea8476" target="_top" xlink:title="Scene::setTileAt Setzt ein MapTile anhand der Pixel&#45;Koordinaten oder der Indezes.">
<polygon fill="#ffffff" stroke="#000000" points="123.5,-.5 123.5,-19.5 215.5,-19.5 215.5,-.5 123.5,-.5"/>
<text text-anchor="middle" x="169.5" y="-7.5" font-family="Helvetica,sans-Serif" font-size="10.00" fill="#000000">Scene::setTileAt</text>
</a>
</g>
</g>
<!-- Node1&#45;&gt;Node6 -->
<g id="edge5" class="edge">
<title>Node1&#45;&gt;Node6</title>
<path fill="none" stroke="#191970" d="M412.7409,-63.5086C397.2147,-58.9938 379.3608,-54.0224 363,-50 313.032,-37.7151 255.1873,-26.0937 215.8515,-18.5759"/>
<polygon fill="#191970" stroke="#191970" points="411.9874,-66.9351 422.5685,-66.3951 413.9601,-60.2188 411.9874,-66.9351"/>
</g>
<!-- Node7 -->
<g id="node7" class="node">
<title>Node7</title>
<g id="a_node7"><a xlink:href="classMapTile.html#a6f6c6e03095e0f1ed503dd30f499793c" target="_top" xlink:title="MapTile::setType Setzt den Typ der Kachel.">
<polygon fill="#ffffff" stroke="#000000" points="265,-66.5 265,-85.5 363,-85.5 363,-66.5 265,-66.5"/>
<text text-anchor="middle" x="314" y="-73.5" font-family="Helvetica,sans-Serif" font-size="10.00" fill="#000000">MapTile::setType</text>
</a>
</g>
</g>
<!-- Node1&#45;&gt;Node7 -->
<g id="edge6" class="edge">
<title>Node1&#45;&gt;Node7</title>
<path fill="none" stroke="#191970" d="M388.6311,-76C380.0173,-76 371.3096,-76 363.0328,-76"/>
<polygon fill="#191970" stroke="#191970" points="388.6683,-79.5001 398.6683,-76 388.6683,-72.5001 388.6683,-79.5001"/>
</g>
<!-- Node4 -->
<g id="node4" class="node">
<title>Node4</title>
<g id="a_node4"><a xlink:href="classClient.html#a31eda3a4d7b4780e159120aa055b1299" target="_top" xlink:title="Client::Client Erzeugt einen neuen Client.">
<polygon fill="#ffffff" stroke="#000000" points="0,-94.5 0,-113.5 74,-113.5 74,-94.5 0,-94.5"/>
<text text-anchor="middle" x="37" y="-101.5" font-family="Helvetica,sans-Serif" font-size="10.00" fill="#000000">Client::Client</text>
</a>
</g>
</g>
<!-- Node3&#45;&gt;Node4 -->
<g id="edge3" class="edge">
<title>Node3&#45;&gt;Node4</title>
<path fill="none" stroke="#191970" d="M110.9262,-104C98.4384,-104 85.5817,-104 74.1634,-104"/>
<polygon fill="#191970" stroke="#191970" points="111.2897,-107.5001 121.2896,-104 111.2896,-100.5001 111.2897,-107.5001"/>
</g>
<!-- Node7&#45;&gt;Node2 -->
<g id="edge7" class="edge">
<title>Node7&#45;&gt;Node2</title>
<path fill="none" stroke="#191970" d="M288.9153,-90.9265C272.2093,-100.6026 249.6191,-113.1857 229,-123 218.138,-128.1701 205.8511,-133.2494 195.2748,-137.3944"/>
<polygon fill="#191970" stroke="#191970" points="291.1458,-93.6768 298.0122,-85.6081 287.6128,-87.6337 291.1458,-93.6768"/>
</g>
<!-- Node7&#45;&gt;Node3 -->
<g id="edge8" class="edge">
<title>Node7&#45;&gt;Node3</title>
<path fill="none" stroke="#191970" d="M254.5113,-87.5272C242.2301,-89.907 229.4408,-92.3852 217.6243,-94.6749"/>
<polygon fill="#191970" stroke="#191970" points="255.5239,-90.8962 264.6754,-85.5577 254.1922,-84.024 255.5239,-90.8962"/>
</g>
<!-- Node7&#45;&gt;Node5 -->
<g id="edge9" class="edge">
<title>Node7&#45;&gt;Node5</title>
<path fill="none" stroke="#191970" d="M254.5588,-68.1842C239.7279,-66.2341 224.1531,-64.1862 210.443,-62.3835"/>
<polygon fill="#191970" stroke="#191970" points="254.3045,-71.6808 264.6754,-69.5144 255.2171,-64.7405 254.3045,-71.6808"/>
</g>
<!-- Node7&#45;&gt;Node6 -->
<g id="edge10" class="edge">
<title>Node7&#45;&gt;Node6</title>
<path fill="none" stroke="#191970" d="M283.6919,-62.1568C255.7669,-49.4022 215.0548,-30.8071 190.5369,-19.6085"/>
<polygon fill="#191970" stroke="#191970" points="282.4382,-65.432 292.9885,-66.403 285.3465,-59.0647 282.4382,-65.432"/>
</g>
</g>
</svg>
        <g id="navigator" transform="translate(0 0)" fill="#404254">
                <rect fill="#f2f5e9" fill-opacity="0.5" stroke="#606060" stroke-width=".5" x="0" y="0" width="60" height="60"/>
                <use id="zoomplus" xlink:href="#zoomPlus" x="17" y="9" onmousedown="handleZoom(evt,'in')"/>
                <use id="zoomminus" xlink:href="#zoomMin" x="42" y="9" onmousedown="handleZoom(evt,'out')"/>
                <use id="reset" xlink:href="#resetDef" x="30" y="36" onmousedown="handleReset()"/>
                <g id="arrowUp" xlink:href="#dirArrow" transform="translate(30 24)" onmousedown="handlePan(0,-1)">
                  <use xlink:href="#rim" fill="#404040">
                        <set attributeName="fill" to="#808080" begin="arrowUp.mouseover" end="arrowUp.mouseout"/>
                  </use>
                  <path fill="none" stroke="white" stroke-width="1.5" d="M0,-3.0v7 M-2.5,-0.5L0,-3.0L2.5,-0.5"/>
                </g>
                <g id="arrowRight" xlink:href="#dirArrow" transform="rotate(90) translate(36 -43)" onmousedown="handlePan(1,0)">
                  <use xlink:href="#rim" fill="#404040">
                        <set attributeName="fill" to="#808080" begin="arrowRight.mouseover" end="arrowRight.mouseout"/>
                  </use>
                  <path fill="none" stroke="white" stroke-width="1.5" d="M0,-3.0v7 M-2.5,-0.5L0,-3.0L2.5,-0.5"/>
                </g>
                <g id="arrowDown" xlink:href="#dirArrow" transform="rotate(180) translate(-30 -48)" onmousedown="handlePan(0,1)">
                  <use xlink:href="#rim" fill="#404040">
                        <set attributeName="fill" to="#808080" begin="arrowDown.mouseover" end="arrowDown.mouseout"/>
                  </use>
                  <path fill="none" stroke="white" stroke-width="1.5" d="M0,-3.0v7 M-2.5,-0.5L0,-3.0L2.5,-0.5"/>
                </g>
                <g id="arrowLeft" xlink:href="#dirArrow" transform="rotate(270) translate(-36 17)" onmousedown="handlePan(-1,0)">
                  <use xlink:href="#rim" fill="#404040">
                        <set attributeName="fill" to="#808080" begin="arrowLeft.mouseover" end="arrowLeft.mouseout"/>
                  </use>
                  <path fill="none" stroke="white" stroke-width="1.5" d="M0,-3.0v7 M-2.5,-0.5L0,-3.0L2.5,-0.5"/>
                </g>
        </g>
        <svg viewBox="0 0 15 15" width="100%" height="30px" preserveAspectRatio="xMaxYMin meet">
         <g id="arrow_out" transform="scale(0.3 0.3)">
          <a xlink:href="classMapTile_a57b8310cfe045dc6a8e0c3c25fe9fc52_icgraph_org.svg" target="_base">
           <rect id="button" ry="5" rx="5" y="6" x="6" height="38" width="38"
                fill="#f2f5e9" fill-opacity="0.5" stroke="#606060" stroke-width="1.0"/>
           <path id="arrow"
             d="M 11.500037,31.436501 C 11.940474,20.09759 22.043105,11.32322 32.158766,21.979434 L 37.068811,17.246167 C 37.068811,17.246167 37.088388,32 37.088388,32 L 22.160133,31.978069 C 22.160133,31.978069 26.997745,27.140456 26.997745,27.140456 C 18.528582,18.264221 13.291696,25.230495 11.500037,31.436501 z"
             style="fill:#404040;"/>
          </a>
         </g>
        </svg>
</svg>
