<?xml version="1.0" encoding="UTF-8" standalone="no"?>
<!DOCTYPE svg PUBLIC "-//W3C//DTD SVG 1.1//EN"
 "http://www.w3.org/Graphics/SVG/1.1/DTD/svg11.dtd">
<!-- Generated by graphviz version 2.40.1 (20161225.0304)
 -->
<!-- Title: SidePanel Pages: 1 -->
<!--zoomable 1219 -->
<svg id="main" version="1.1" xmlns="http://www.w3.org/2000/svg" xmlns:xlink="http://www.w3.org/1999/xlink" xml:space="preserve" onload="init(evt)">
<style type="text/css"><![CDATA[
.edge:hover path { stroke: red; }
.edge:hover polygon { stroke: red; fill: red; }
]]></style>
<script type="text/javascript"><![CDATA[
var edges = document.getElementsByTagName('g');
if (edges && edges.length) {
  for (var i=0;i<edges.length;i++) {
    if (edges[i].id.substr(0,4)=='edge') {
      edges[i].setAttribute('class','edge');
    }
  }
}
]]></script>
        <defs>
                <circle id="rim" cx="0" cy="0" r="7"/>
                <circle id="rim2" cx="0" cy="0" r="3.5"/>
                <g id="zoomPlus">
                        <use xlink:href="#rim" fill="#404040">
                                <set attributeName="fill" to="#808080" begin="zoomplus.mouseover" end="zoomplus.mouseout"/>
                        </use>
                        <path d="M-4,0h8M0,-4v8" fill="none" stroke="white" stroke-width="1.5" pointer-events="none"/>
                </g>
                <g id="zoomMin">
                        <use xlink:href="#rim" fill="#404040">
                                <set attributeName="fill" to="#808080" begin="zoomminus.mouseover" end="zoomminus.mouseout"/>
                        </use>
                        <path d="M-4,0h8" fill="none" stroke="white" stroke-width="1.5" pointer-events="none"/>
                </g>
                <g id="dirArrow">
                        <path fill="none" stroke="white" stroke-width="1.5" d="M0,-3.0v7 M-2.5,-0.5L0,-3.0L2.5,-0.5"/>
                </g>
               <g id="resetDef">
                       <use xlink:href="#rim2" fill="#404040">
                               <set attributeName="fill" to="#808080" begin="reset.mouseover" end="reset.mouseout"/>
                       </use>
               </g>
        </defs>

<script type="text/javascript">
var viewWidth = 725;
var viewHeight = 1219;
var sectionId = 'dynsection-1';
</script>
<script xlink:href="svgpan.js"/>
<svg id="graph" class="graph">
<g id="viewport">
<title>SidePanel</title>
<polygon fill="#ffffff" stroke="transparent" points="-4,4 -4,-1215 720.5,-1215 720.5,4 -4,4"/>
<!-- Node1 -->
<g id="node1" class="node">
<title>Node1</title>
<g id="a_node1"><a xlink:title=" ">
<polygon fill="#bfbfbf" stroke="#000000" points="177,-.5 177,-101.5 281,-101.5 281,-.5 177,-.5"/>
<text text-anchor="middle" x="229" y="-89.5" font-family="Helvetica,sans-Serif" font-size="10.00" fill="#000000">SidePanel</text>
<polyline fill="none" stroke="#000000" points="177,-82.5 281,-82.5 "/>
<text text-anchor="start" x="185" y="-70.5" font-family="Helvetica,sans-Serif" font-size="10.00" fill="#000000">&#45; layout</text>
<text text-anchor="start" x="185" y="-59.5" font-family="Helvetica,sans-Serif" font-size="10.00" fill="#000000">&#45; moneyLabel</text>
<text text-anchor="start" x="185" y="-48.5" font-family="Helvetica,sans-Serif" font-size="10.00" fill="#000000">&#45; timeLabel</text>
<text text-anchor="start" x="185" y="-37.5" font-family="Helvetica,sans-Serif" font-size="10.00" fill="#000000">&#45; positionLabel</text>
<polyline fill="none" stroke="#000000" points="177,-30.5 281,-30.5 "/>
<text text-anchor="start" x="185" y="-18.5" font-family="Helvetica,sans-Serif" font-size="10.00" fill="#000000">+ SidePanel()</text>
<text text-anchor="start" x="185" y="-7.5" font-family="Helvetica,sans-Serif" font-size="10.00" fill="#000000">+ hookDataModel()</text>
</a>
</g>
</g>
<!-- Node2 -->
<g id="node2" class="node">
<title>Node2</title>
<g id="a_node2"><a xlink:title=" ">
<polygon fill="#ffffff" stroke="#bfbfbf" points="180,-375.5 180,-432.5 236,-432.5 236,-375.5 180,-375.5"/>
<text text-anchor="middle" x="208" y="-420.5" font-family="Helvetica,sans-Serif" font-size="10.00" fill="#000000">QWidget</text>
<polyline fill="none" stroke="#bfbfbf" points="180,-413.5 236,-413.5 "/>
<text text-anchor="middle" x="208" y="-401.5" font-family="Helvetica,sans-Serif" font-size="10.00" fill="#000000"> </text>
<polyline fill="none" stroke="#bfbfbf" points="180,-394.5 236,-394.5 "/>
<text text-anchor="middle" x="208" y="-382.5" font-family="Helvetica,sans-Serif" font-size="10.00" fill="#000000"> </text>
</a>
</g>
</g>
<!-- Node2&#45;&gt;Node1 -->
<g id="edge1" class="edge">
<title>Node2&#45;&gt;Node1</title>
<path fill="none" stroke="#191970" d="M210.301,-365.3214C214.1151,-301.2079 221.746,-172.9361 225.9855,-101.6731"/>
<polygon fill="none" stroke="#191970" points="206.8009,-365.2213 209.7007,-375.4115 213.7885,-365.6371 206.8009,-365.2213"/>
</g>
<!-- Node3 -->
<g id="node3" class="node">
<title>Node3</title>
<g id="a_node3"><a xlink:href="classMinimap.html" target="_top" xlink:title=" ">
<polygon fill="#ffffff" stroke="#000000" points="250.5,-149.5 250.5,-261.5 339.5,-261.5 339.5,-149.5 250.5,-149.5"/>
<text text-anchor="middle" x="295" y="-249.5" font-family="Helvetica,sans-Serif" font-size="10.00" fill="#000000">Minimap</text>
<polyline fill="none" stroke="#000000" points="250.5,-242.5 339.5,-242.5 "/>
<text text-anchor="start" x="258.5" y="-230.5" font-family="Helvetica,sans-Serif" font-size="10.00" fill="#000000">&#45; width</text>
<text text-anchor="start" x="258.5" y="-219.5" font-family="Helvetica,sans-Serif" font-size="10.00" fill="#000000">&#45; height</text>
<text text-anchor="start" x="258.5" y="-208.5" font-family="Helvetica,sans-Serif" font-size="10.00" fill="#000000">&#45; location</text>
<text text-anchor="start" x="258.5" y="-197.5" font-family="Helvetica,sans-Serif" font-size="10.00" fill="#000000">&#45; compass</text>
<polyline fill="none" stroke="#000000" points="250.5,-190.5 339.5,-190.5 "/>
<text text-anchor="start" x="258.5" y="-178.5" font-family="Helvetica,sans-Serif" font-size="10.00" fill="#000000">+ Minimap()</text>
<text text-anchor="start" x="258.5" y="-167.5" font-family="Helvetica,sans-Serif" font-size="10.00" fill="#000000">+ paintEvent()</text>
<text text-anchor="start" x="258.5" y="-156.5" font-family="Helvetica,sans-Serif" font-size="10.00" fill="#000000">+ viewChange()</text>
</a>
</g>
</g>
<!-- Node2&#45;&gt;Node3 -->
<g id="edge3" class="edge">
<title>Node2&#45;&gt;Node3</title>
<path fill="none" stroke="#191970" d="M222.1415,-365.6704C228.7704,-348.2476 236.9658,-327.449 245,-309 251.7724,-293.4484 259.5598,-276.8136 266.9415,-261.5296"/>
<polygon fill="none" stroke="#191970" points="218.6899,-364.9036 218.4325,-375.4953 225.2388,-367.3759 218.6899,-364.9036"/>
</g>
<!-- Node3&#45;&gt;Node1 -->
<g id="edge2" class="edge">
<title>Node3&#45;&gt;Node1</title>
<path fill="none" stroke="#404040" d="M270.9858,-149.2849C265.9303,-137.4504 260.5702,-124.9029 255.4315,-112.8738"/>
<polygon fill="none" stroke="#404040" points="255.304,-112.5751 249.2685,-108.6288 250.5898,-101.5398 256.6253,-105.486 255.304,-112.5751"/>
<text text-anchor="middle" x="284" y="-123" font-family="Helvetica,sans-Serif" font-size="10.00" fill="#000000"> &#45;miniMap</text>
</g>
<!-- Node4 -->
<g id="node4" class="node">
<title>Node4</title>
<g id="a_node4"><a xlink:href="classScene.html" target="_top" xlink:title=" ">
<polygon fill="#ffffff" stroke="#000000" points="254,-309.5 254,-498.5 382,-498.5 382,-309.5 254,-309.5"/>
<text text-anchor="middle" x="318" y="-486.5" font-family="Helvetica,sans-Serif" font-size="10.00" fill="#000000">Scene</text>
<polyline fill="none" stroke="#000000" points="254,-479.5 382,-479.5 "/>
<text text-anchor="start" x="262" y="-467.5" font-family="Helvetica,sans-Serif" font-size="10.00" fill="#000000">+ MAP_SIZE</text>
<text text-anchor="start" x="262" y="-456.5" font-family="Helvetica,sans-Serif" font-size="10.00" fill="#000000">+ TILE_SIZE</text>
<text text-anchor="start" x="262" y="-445.5" font-family="Helvetica,sans-Serif" font-size="10.00" fill="#000000">&#45; radiusHighlighter</text>
<text text-anchor="start" x="262" y="-434.5" font-family="Helvetica,sans-Serif" font-size="10.00" fill="#000000">&#45; textHint</text>
<text text-anchor="start" x="262" y="-423.5" font-family="Helvetica,sans-Serif" font-size="10.00" fill="#000000">&#45; showRadius</text>
<polyline fill="none" stroke="#000000" points="254,-416.5 382,-416.5 "/>
<text text-anchor="start" x="262" y="-404.5" font-family="Helvetica,sans-Serif" font-size="10.00" fill="#000000">+ Scene()</text>
<text text-anchor="start" x="262" y="-393.5" font-family="Helvetica,sans-Serif" font-size="10.00" fill="#000000">+ generateWorld()</text>
<text text-anchor="start" x="262" y="-382.5" font-family="Helvetica,sans-Serif" font-size="10.00" fill="#000000">+ setActiveTile()</text>
<text text-anchor="start" x="262" y="-371.5" font-family="Helvetica,sans-Serif" font-size="10.00" fill="#000000">+ getTileAt()</text>
<text text-anchor="start" x="262" y="-360.5" font-family="Helvetica,sans-Serif" font-size="10.00" fill="#000000">+ setTileAt()</text>
<text text-anchor="start" x="262" y="-349.5" font-family="Helvetica,sans-Serif" font-size="10.00" fill="#000000">+ tileChanged()</text>
<text text-anchor="start" x="262" y="-338.5" font-family="Helvetica,sans-Serif" font-size="10.00" fill="#000000">+ tick()</text>
<text text-anchor="start" x="262" y="-327.5" font-family="Helvetica,sans-Serif" font-size="10.00" fill="#000000">+ onSetTile()</text>
<text text-anchor="start" x="262" y="-316.5" font-family="Helvetica,sans-Serif" font-size="10.00" fill="#000000">+ updatePlayerPosition()</text>
</a>
</g>
</g>
<!-- Node4&#45;&gt;Node3 -->
<g id="edge4" class="edge">
<title>Node4&#45;&gt;Node3</title>
<path fill="none" stroke="#404040" d="M307.0389,-309.4008C305.6454,-297.3745 304.2414,-285.257 302.9088,-273.7566"/>
<polygon fill="none" stroke="#404040" points="302.8761,-273.4733 298.212,-267.9736 301.4948,-261.5531 306.1589,-267.0528 302.8761,-273.4733"/>
<text text-anchor="middle" x="322" y="-283" font-family="Helvetica,sans-Serif" font-size="10.00" fill="#000000"> &#45;scene</text>
</g>
<!-- Node5 -->
<g id="node5" class="node">
<title>Node5</title>
<g id="a_node5"><a xlink:title=" ">
<polygon fill="#ffffff" stroke="#bfbfbf" points="0,-695 0,-752 94,-752 94,-695 0,-695"/>
<text text-anchor="middle" x="47" y="-740" font-family="Helvetica,sans-Serif" font-size="10.00" fill="#000000">QGraphicsScene</text>
<polyline fill="none" stroke="#bfbfbf" points="0,-733 94,-733 "/>
<text text-anchor="middle" x="47" y="-721" font-family="Helvetica,sans-Serif" font-size="10.00" fill="#000000"> </text>
<polyline fill="none" stroke="#bfbfbf" points="0,-714 94,-714 "/>
<text text-anchor="middle" x="47" y="-702" font-family="Helvetica,sans-Serif" font-size="10.00" fill="#000000"> </text>
</a>
</g>
</g>
<!-- Node5&#45;&gt;Node4 -->
<g id="edge5" class="edge">
<title>Node5&#45;&gt;Node4</title>
<path fill="none" stroke="#191970" d="M48.2629,-684.8081C52.0425,-637.4829 66.0044,-558.5565 116,-517 160.518,-479.9965 194.9692,-528.121 245,-499 248.056,-497.2212 251.0281,-495.2597 253.9138,-493.1477"/>
<polygon fill="none" stroke="#191970" points="44.7583,-684.7585 47.5689,-694.9737 51.742,-685.2353 44.7583,-684.7585"/>
</g>
<!-- Node6 -->
<g id="node6" class="node">
<title>Node6</title>
<g id="a_node6"><a xlink:href="classHighlighter.html" target="_top" xlink:title=" ">
<polygon fill="#ffffff" stroke="#000000" points="126.5,-992.5 126.5,-1060.5 205.5,-1060.5 205.5,-992.5 126.5,-992.5"/>
<text text-anchor="middle" x="166" y="-1048.5" font-family="Helvetica,sans-Serif" font-size="10.00" fill="#000000">Highlighter</text>
<polyline fill="none" stroke="#000000" points="126.5,-1041.5 205.5,-1041.5 "/>
<text text-anchor="start" x="134.5" y="-1029.5" font-family="Helvetica,sans-Serif" font-size="10.00" fill="#000000">&#45; outline</text>
<polyline fill="none" stroke="#000000" points="126.5,-1022.5 205.5,-1022.5 "/>
<text text-anchor="start" x="134.5" y="-1010.5" font-family="Helvetica,sans-Serif" font-size="10.00" fill="#000000">+ Highlighter()</text>
<text text-anchor="start" x="134.5" y="-999.5" font-family="Helvetica,sans-Serif" font-size="10.00" fill="#000000">+ setColor()</text>
</a>
</g>
</g>
<!-- Node6&#45;&gt;Node4 -->
<g id="edge6" class="edge">
<title>Node6&#45;&gt;Node4</title>
<path fill="none" stroke="#404040" d="M157.3,-992.2754C150.7936,-964.833 142.45,-925.2215 139,-890 131.7861,-816.3525 101.2677,-620.6575 139,-557 166.3827,-510.8032 204.209,-533.9292 245,-499 245.0938,-498.9197 245.1876,-498.8392 245.2813,-498.7586"/>
<polygon fill="none" stroke="#404040" points="245.0149,-499.0026 246.7386,-492.0005 253.865,-490.8986 252.1413,-497.9006 245.0149,-499.0026"/>
<text text-anchor="middle" x="165" y="-721" font-family="Helvetica,sans-Serif" font-size="10.00" fill="#000000"> &#45;highlighter</text>
</g>
<!-- Node11 -->
<g id="node11" class="node">
<title>Node11</title>
<g id="a_node11"><a xlink:href="classPlayer.html" target="_top" xlink:title=" ">
<polygon fill="#ffffff" stroke="#000000" points="200.5,-684 200.5,-763 281.5,-763 281.5,-684 200.5,-684"/>
<text text-anchor="middle" x="241" y="-751" font-family="Helvetica,sans-Serif" font-size="10.00" fill="#000000">Player</text>
<polyline fill="none" stroke="#000000" points="200.5,-744 281.5,-744 "/>
<text text-anchor="start" x="208.5" y="-732" font-family="Helvetica,sans-Serif" font-size="10.00" fill="#000000">+ posX</text>
<text text-anchor="start" x="208.5" y="-721" font-family="Helvetica,sans-Serif" font-size="10.00" fill="#000000">+ posY</text>
<polyline fill="none" stroke="#000000" points="200.5,-714 281.5,-714 "/>
<text text-anchor="start" x="208.5" y="-702" font-family="Helvetica,sans-Serif" font-size="10.00" fill="#000000">+ Player()</text>
<text text-anchor="start" x="208.5" y="-691" font-family="Helvetica,sans-Serif" font-size="10.00" fill="#000000">+ setPosition()</text>
</a>
</g>
</g>
<!-- Node6&#45;&gt;Node11 -->
<g id="edge13" class="edge">
<title>Node6&#45;&gt;Node11</title>
<path fill="none" stroke="#404040" d="M174.4577,-992.331C187.5667,-939.3707 212.8758,-837.1217 228.2221,-775.1225"/>
<polygon fill="none" stroke="#404040" points="228.2687,-774.9344 225.8275,-768.149 231.152,-763.2859 233.5932,-770.0712 228.2687,-774.9344"/>
<text text-anchor="middle" x="222.5" y="-911" font-family="Helvetica,sans-Serif" font-size="10.00" fill="#000000"> +highlighter</text>
</g>
<!-- Node7 -->
<g id="node7" class="node">
<title>Node7</title>
<g id="a_node7"><a xlink:title=" ">
<polygon fill="#ffffff" stroke="#bfbfbf" points="114,-1153.5 114,-1210.5 218,-1210.5 218,-1153.5 114,-1153.5"/>
<text text-anchor="middle" x="166" y="-1198.5" font-family="Helvetica,sans-Serif" font-size="10.00" fill="#000000">QGraphicsRectItem</text>
<polyline fill="none" stroke="#bfbfbf" points="114,-1191.5 218,-1191.5 "/>
<text text-anchor="middle" x="166" y="-1179.5" font-family="Helvetica,sans-Serif" font-size="10.00" fill="#000000"> </text>
<polyline fill="none" stroke="#bfbfbf" points="114,-1172.5 218,-1172.5 "/>
<text text-anchor="middle" x="166" y="-1160.5" font-family="Helvetica,sans-Serif" font-size="10.00" fill="#000000"> </text>
</a>
</g>
</g>
<!-- Node7&#45;&gt;Node6 -->
<g id="edge7" class="edge">
<title>Node7&#45;&gt;Node6</title>
<path fill="none" stroke="#191970" d="M166,-1143.4393C166,-1118.0039 166,-1084.9918 166,-1060.532"/>
<polygon fill="none" stroke="#191970" points="162.5001,-1143.4789 166,-1153.4789 169.5001,-1143.4789 162.5001,-1143.4789"/>
</g>
<!-- Node8 -->
<g id="node8" class="node">
<title>Node8</title>
<g id="a_node8"><a xlink:href="classMapTile.html" target="_top" xlink:title=" ">
<polygon fill="#ffffff" stroke="#000000" points="421,-607 421,-840 561,-840 561,-607 421,-607"/>
<text text-anchor="middle" x="491" y="-828" font-family="Helvetica,sans-Serif" font-size="10.00" fill="#000000">MapTile</text>
<polyline fill="none" stroke="#000000" points="421,-821 561,-821 "/>
<text text-anchor="start" x="429" y="-809" font-family="Helvetica,sans-Serif" font-size="10.00" fill="#000000">&#45; type</text>
<text text-anchor="start" x="429" y="-798" font-family="Helvetica,sans-Serif" font-size="10.00" fill="#000000">&#45; pixmapItem</text>
<text text-anchor="start" x="429" y="-787" font-family="Helvetica,sans-Serif" font-size="10.00" fill="#000000">&#45; currentRotation</text>
<polyline fill="none" stroke="#000000" points="421,-780 561,-780 "/>
<text text-anchor="start" x="429" y="-768" font-family="Helvetica,sans-Serif" font-size="10.00" fill="#000000">+ MapTile()</text>
<text text-anchor="start" x="429" y="-757" font-family="Helvetica,sans-Serif" font-size="10.00" fill="#000000">+ MapTile()</text>
<text text-anchor="start" x="429" y="-746" font-family="Helvetica,sans-Serif" font-size="10.00" fill="#000000">+ setType()</text>
<text text-anchor="start" x="429" y="-735" font-family="Helvetica,sans-Serif" font-size="10.00" fill="#000000">+ getType()</text>
<text text-anchor="start" x="429" y="-724" font-family="Helvetica,sans-Serif" font-size="10.00" fill="#000000">+ setRotation()</text>
<text text-anchor="start" x="429" y="-713" font-family="Helvetica,sans-Serif" font-size="10.00" fill="#000000">+ getRotation()</text>
<text text-anchor="start" x="429" y="-702" font-family="Helvetica,sans-Serif" font-size="10.00" fill="#000000">+ setPosition()</text>
<text text-anchor="start" x="429" y="-691" font-family="Helvetica,sans-Serif" font-size="10.00" fill="#000000">+ isRiver()</text>
<text text-anchor="start" x="429" y="-680" font-family="Helvetica,sans-Serif" font-size="10.00" fill="#000000">+ isRail()</text>
<text text-anchor="start" x="429" y="-669" font-family="Helvetica,sans-Serif" font-size="10.00" fill="#000000">+ getPixmapItem()</text>
<text text-anchor="start" x="429" y="-658" font-family="Helvetica,sans-Serif" font-size="10.00" fill="#000000">+ getCity()</text>
<text text-anchor="start" x="429" y="-647" font-family="Helvetica,sans-Serif" font-size="10.00" fill="#000000">+ setCity()</text>
<text text-anchor="start" x="429" y="-636" font-family="Helvetica,sans-Serif" font-size="10.00" fill="#000000">+ getX()</text>
<text text-anchor="start" x="429" y="-625" font-family="Helvetica,sans-Serif" font-size="10.00" fill="#000000">+ getY()</text>
<text text-anchor="start" x="429" y="-614" font-family="Helvetica,sans-Serif" font-size="10.00" fill="#000000">+ attachGraphicsManager()</text>
</a>
</g>
</g>
<!-- Node8&#45;&gt;Node4 -->
<g id="edge8" class="edge">
<title>Node8&#45;&gt;Node4</title>
<path fill="none" stroke="#404040" d="M433.1303,-606.5976C424.528,-589.8688 415.6454,-572.9369 407,-557 398.5259,-541.3789 389.3385,-525.0075 380.1926,-509.0219"/>
<polygon fill="none" stroke="#404040" points="380.1741,-508.9897 373.7168,-505.7797 374.1963,-498.5846 380.6536,-501.7945 380.1741,-508.9897"/>
<text text-anchor="middle" x="422" y="-531" font-family="Helvetica,sans-Serif" font-size="10.00" fill="#000000"> &#45;activeTile</text>
<text text-anchor="middle" x="422" y="-520" font-family="Helvetica,sans-Serif" font-size="10.00" fill="#000000">+data</text>
</g>
<!-- Node9 -->
<g id="node9" class="node">
<title>Node9</title>
<g id="a_node9"><a xlink:href="classGraphicsManager.html" target="_top" xlink:title=" ">
<polygon fill="#ffffff" stroke="#000000" points="290.5,-992.5 290.5,-1060.5 403.5,-1060.5 403.5,-992.5 290.5,-992.5"/>
<text text-anchor="middle" x="347" y="-1048.5" font-family="Helvetica,sans-Serif" font-size="10.00" fill="#000000">GraphicsManager</text>
<polyline fill="none" stroke="#000000" points="290.5,-1041.5 403.5,-1041.5 "/>
<text text-anchor="start" x="298.5" y="-1029.5" font-family="Helvetica,sans-Serif" font-size="10.00" fill="#000000">+ GRAPHICS</text>
<polyline fill="none" stroke="#000000" points="290.5,-1022.5 403.5,-1022.5 "/>
<text text-anchor="start" x="298.5" y="-1010.5" font-family="Helvetica,sans-Serif" font-size="10.00" fill="#000000">+ GraphicsManager()</text>
<text text-anchor="start" x="298.5" y="-999.5" font-family="Helvetica,sans-Serif" font-size="10.00" fill="#000000">+ get()</text>
</a>
</g>
</g>
<!-- Node9&#45;&gt;Node4 -->
<g id="edge11" class="edge">
<title>Node9&#45;&gt;Node4</title>
<path fill="none" stroke="#404040" d="M340.7786,-992.4188C336.0503,-964.8887 329.8838,-925.0896 327,-890 316.3003,-759.8094 315.2495,-609.3717 316.0909,-510.7721"/>
<polygon fill="none" stroke="#404040" points="316.0914,-510.7099 312.1486,-504.6721 316.2055,-498.7104 320.1482,-504.7482 316.0914,-510.7099"/>
<text text-anchor="middle" x="369.5" y="-721" font-family="Helvetica,sans-Serif" font-size="10.00" fill="#000000"> &#45;graphicsManager</text>
</g>
<!-- Node9&#45;&gt;Node8 -->
<g id="edge9" class="edge">
<title>Node9&#45;&gt;Node8</title>
<path fill="none" stroke="#404040" d="M362.6317,-992.4692C373.567,-968.7496 388.5631,-936.3941 402,-908 410.7515,-889.5069 420.0642,-870.0081 429.2439,-850.8895"/>
<polygon fill="none" stroke="#404040" points="429.2779,-850.8186 428.2719,-843.678 434.4763,-840.0029 435.4823,-847.1435 429.2779,-850.8186"/>
<text text-anchor="middle" x="444.5" y="-911" font-family="Helvetica,sans-Serif" font-size="10.00" fill="#000000"> &#45;graphicsManager</text>
</g>
<!-- Node10 -->
<g id="node10" class="node">
<title>Node10</title>
<g id="a_node10"><a xlink:href="classCity.html" target="_top" xlink:title=" ">
<polygon fill="#ffffff" stroke="#000000" points="449.5,-937.5 449.5,-1115.5 532.5,-1115.5 532.5,-937.5 449.5,-937.5"/>
<text text-anchor="middle" x="491" y="-1103.5" font-family="Helvetica,sans-Serif" font-size="10.00" fill="#000000">City</text>
<polyline fill="none" stroke="#000000" points="449.5,-1096.5 532.5,-1096.5 "/>
<text text-anchor="start" x="457.5" y="-1084.5" font-family="Helvetica,sans-Serif" font-size="10.00" fill="#000000">&#45; size</text>
<text text-anchor="start" x="457.5" y="-1073.5" font-family="Helvetica,sans-Serif" font-size="10.00" fill="#000000">&#45; centerX</text>
<text text-anchor="start" x="457.5" y="-1062.5" font-family="Helvetica,sans-Serif" font-size="10.00" fill="#000000">&#45; centerY</text>
<text text-anchor="start" x="457.5" y="-1051.5" font-family="Helvetica,sans-Serif" font-size="10.00" fill="#000000">&#45; name</text>
<polyline fill="none" stroke="#000000" points="449.5,-1044.5 532.5,-1044.5 "/>
<text text-anchor="start" x="457.5" y="-1032.5" font-family="Helvetica,sans-Serif" font-size="10.00" fill="#000000">+ City()</text>
<text text-anchor="start" x="457.5" y="-1021.5" font-family="Helvetica,sans-Serif" font-size="10.00" fill="#000000">+ City()</text>
<text text-anchor="start" x="457.5" y="-1010.5" font-family="Helvetica,sans-Serif" font-size="10.00" fill="#000000">+ getSize()</text>
<text text-anchor="start" x="457.5" y="-999.5" font-family="Helvetica,sans-Serif" font-size="10.00" fill="#000000">+ getCenterX()</text>
<text text-anchor="start" x="457.5" y="-988.5" font-family="Helvetica,sans-Serif" font-size="10.00" fill="#000000">+ getCenterY()</text>
<text text-anchor="start" x="457.5" y="-977.5" font-family="Helvetica,sans-Serif" font-size="10.00" fill="#000000">+ getName()</text>
<text text-anchor="start" x="457.5" y="-966.5" font-family="Helvetica,sans-Serif" font-size="10.00" fill="#000000">+ setSize()</text>
<text text-anchor="start" x="457.5" y="-955.5" font-family="Helvetica,sans-Serif" font-size="10.00" fill="#000000">+ setCenter()</text>
<text text-anchor="start" x="457.5" y="-944.5" font-family="Helvetica,sans-Serif" font-size="10.00" fill="#000000">+ setName()</text>
</a>
</g>
</g>
<!-- Node10&#45;&gt;Node8 -->
<g id="edge10" class="edge">
<title>Node10&#45;&gt;Node8</title>
<path fill="none" stroke="#404040" d="M491,-937.2288C491,-910.6512 491,-880.9811 491,-852.4077"/>
<polygon fill="none" stroke="#404040" points="491.0001,-852.2414 487,-846.2414 491,-840.2414 495,-846.2413 491.0001,-852.2414"/>
<text text-anchor="middle" x="502" y="-911" font-family="Helvetica,sans-Serif" font-size="10.00" fill="#000000"> &#45;city</text>
</g>
<!-- Node11&#45;&gt;Node4 -->
<g id="edge12" class="edge">
<title>Node11&#45;&gt;Node4</title>
<path fill="none" stroke="#404040" d="M231.7009,-683.9104C223.5382,-641.4687 215.572,-572.6792 234,-517 235.1059,-513.6586 239.9658,-506.1013 246.8345,-496.3941"/>
<polygon fill="none" stroke="#404040" points="246.9557,-496.2263 247.2237,-489.0201 253.9786,-486.496 253.7106,-493.7021 246.9557,-496.2263"/>
<text text-anchor="middle" x="269" y="-525.5" font-family="Helvetica,sans-Serif" font-size="10.00" fill="#000000"> &#45;secondPlayer</text>
</g>
<!-- Node12 -->
<g id="node12" class="node">
<title>Node12</title>
<g id="a_node12"><a xlink:href="classDataModel.html" target="_top" xlink:title=" ">
<polygon fill="#ffffff" stroke="#000000" points="579.5,-557.5 579.5,-889.5 716.5,-889.5 716.5,-557.5 579.5,-557.5"/>
<text text-anchor="middle" x="648" y="-877.5" font-family="Helvetica,sans-Serif" font-size="10.00" fill="#000000">DataModel</text>
<polyline fill="none" stroke="#000000" points="579.5,-870.5 716.5,-870.5 "/>
<text text-anchor="start" x="587.5" y="-858.5" font-family="Helvetica,sans-Serif" font-size="10.00" fill="#000000">&#45; balance</text>
<text text-anchor="start" x="587.5" y="-847.5" font-family="Helvetica,sans-Serif" font-size="10.00" fill="#000000">&#45; time</text>
<text text-anchor="start" x="587.5" y="-836.5" font-family="Helvetica,sans-Serif" font-size="10.00" fill="#000000">&#45; coordinateX</text>
<text text-anchor="start" x="587.5" y="-825.5" font-family="Helvetica,sans-Serif" font-size="10.00" fill="#000000">&#45; coordinateY</text>
<text text-anchor="start" x="587.5" y="-814.5" font-family="Helvetica,sans-Serif" font-size="10.00" fill="#000000">&#45; ip</text>
<text text-anchor="start" x="587.5" y="-803.5" font-family="Helvetica,sans-Serif" font-size="10.00" fill="#000000">&#45; port</text>
<text text-anchor="start" x="587.5" y="-792.5" font-family="Helvetica,sans-Serif" font-size="10.00" fill="#000000">&#45; balanceLabel</text>
<text text-anchor="start" x="587.5" y="-781.5" font-family="Helvetica,sans-Serif" font-size="10.00" fill="#000000">&#45; timeLabel</text>
<text text-anchor="start" x="587.5" y="-770.5" font-family="Helvetica,sans-Serif" font-size="10.00" fill="#000000">&#45; positionLabel</text>
<text text-anchor="start" x="587.5" y="-759.5" font-family="Helvetica,sans-Serif" font-size="10.00" fill="#000000">&#45; statusDisplay</text>
<text text-anchor="start" x="587.5" y="-748.5" font-family="Helvetica,sans-Serif" font-size="10.00" fill="#000000">&#45; connectionLabel</text>
<text text-anchor="start" x="587.5" y="-737.5" font-family="Helvetica,sans-Serif" font-size="10.00" fill="#000000">&#45; mode</text>
<polyline fill="none" stroke="#000000" points="579.5,-730.5 716.5,-730.5 "/>
<text text-anchor="start" x="587.5" y="-718.5" font-family="Helvetica,sans-Serif" font-size="10.00" fill="#000000">+ DataModel()</text>
<text text-anchor="start" x="587.5" y="-707.5" font-family="Helvetica,sans-Serif" font-size="10.00" fill="#000000">+ getBalance()</text>
<text text-anchor="start" x="587.5" y="-696.5" font-family="Helvetica,sans-Serif" font-size="10.00" fill="#000000">+ updateBalance()</text>
<text text-anchor="start" x="587.5" y="-685.5" font-family="Helvetica,sans-Serif" font-size="10.00" fill="#000000">+ takeBalance()</text>
<text text-anchor="start" x="587.5" y="-674.5" font-family="Helvetica,sans-Serif" font-size="10.00" fill="#000000">+ timeTick()</text>
<text text-anchor="start" x="587.5" y="-663.5" font-family="Helvetica,sans-Serif" font-size="10.00" fill="#000000">+ getTime()</text>
<text text-anchor="start" x="587.5" y="-652.5" font-family="Helvetica,sans-Serif" font-size="10.00" fill="#000000">+ getSystemMillis()</text>
<text text-anchor="start" x="587.5" y="-641.5" font-family="Helvetica,sans-Serif" font-size="10.00" fill="#000000">+ updateCoordinates()</text>
<text text-anchor="start" x="587.5" y="-630.5" font-family="Helvetica,sans-Serif" font-size="10.00" fill="#000000">+ getHoverX()</text>
<text text-anchor="start" x="587.5" y="-619.5" font-family="Helvetica,sans-Serif" font-size="10.00" fill="#000000">+ getHoverY()</text>
<text text-anchor="start" x="587.5" y="-608.5" font-family="Helvetica,sans-Serif" font-size="10.00" fill="#000000">und 11 mehr ...</text>
<text text-anchor="start" x="587.5" y="-597.5" font-family="Helvetica,sans-Serif" font-size="10.00" fill="#000000">+ setDefaultMode()</text>
<text text-anchor="start" x="587.5" y="-586.5" font-family="Helvetica,sans-Serif" font-size="10.00" fill="#000000">+ setTrainStationMode()</text>
<text text-anchor="start" x="587.5" y="-575.5" font-family="Helvetica,sans-Serif" font-size="10.00" fill="#000000">+ setBridgeMode()</text>
<text text-anchor="start" x="587.5" y="-564.5" font-family="Helvetica,sans-Serif" font-size="10.00" fill="#000000">+ setRailPlacementMode()</text>
</a>
</g>
</g>
<!-- Node12&#45;&gt;Node3 -->
<g id="edge16" class="edge">
<title>Node12&#45;&gt;Node3</title>
<path fill="none" stroke="#404040" d="M624.1458,-557.2805C619.4203,-543.2762 613.7655,-529.6506 607,-517 543.6517,-398.5479 420.533,-296.1109 349.3632,-243.3981"/>
<polygon fill="none" stroke="#404040" points="349.3535,-243.3909 342.1496,-243.0677 339.6773,-236.2936 346.8811,-236.6169 349.3535,-243.3909"/>
<text text-anchor="middle" x="621.5" y="-401.5" font-family="Helvetica,sans-Serif" font-size="10.00" fill="#000000"> &#45;dataModel</text>
</g>
<!-- Node12&#45;&gt;Node4 -->
<g id="edge14" class="edge">
<title>Node12&#45;&gt;Node4</title>
<path fill="none" stroke="#404040" d="M579.2769,-568.1205C576.2906,-564.2797 573.1989,-560.5628 570,-557 521.0554,-502.4867 448.0608,-461.1012 393.2122,-435.2058"/>
<polygon fill="none" stroke="#404040" points="393.0347,-435.1235 385.9086,-436.2281 382.1483,-430.0751 389.2743,-428.9705 393.0347,-435.1235"/>
<text text-anchor="middle" x="575.5" y="-525.5" font-family="Helvetica,sans-Serif" font-size="10.00" fill="#000000"> &#45;dataModel</text>
</g>
<!-- Node13 -->
<g id="node13" class="node">
<title>Node13</title>
<g id="a_node13"><a xlink:title=" ">
<polygon fill="#ffffff" stroke="#bfbfbf" points="621.5,-998 621.5,-1055 674.5,-1055 674.5,-998 621.5,-998"/>
<text text-anchor="middle" x="648" y="-1043" font-family="Helvetica,sans-Serif" font-size="10.00" fill="#000000">QObject</text>
<polyline fill="none" stroke="#bfbfbf" points="621.5,-1036 674.5,-1036 "/>
<text text-anchor="middle" x="648" y="-1024" font-family="Helvetica,sans-Serif" font-size="10.00" fill="#000000"> </text>
<polyline fill="none" stroke="#bfbfbf" points="621.5,-1017 674.5,-1017 "/>
<text text-anchor="middle" x="648" y="-1005" font-family="Helvetica,sans-Serif" font-size="10.00" fill="#000000"> </text>
</a>
</g>
</g>
<!-- Node13&#45;&gt;Node12 -->
<g id="edge15" class="edge">
<title>Node13&#45;&gt;Node12</title>
<path fill="none" stroke="#191970" d="M648,-987.986C648,-962.3376 648,-926.6832 648,-889.8468"/>
<polygon fill="none" stroke="#191970" points="644.5001,-987.9945 648,-997.9945 651.5001,-987.9945 644.5001,-987.9945"/>
</g>
</g>
</svg>
        <g id="navigator" transform="translate(0 0)" fill="#404254">
                <rect fill="#f2f5e9" fill-opacity="0.5" stroke="#606060" stroke-width=".5" x="0" y="0" width="60" height="60"/>
                <use id="zoomplus" xlink:href="#zoomPlus" x="17" y="9" onmousedown="handleZoom(evt,'in')"/>
                <use id="zoomminus" xlink:href="#zoomMin" x="42" y="9" onmousedown="handleZoom(evt,'out')"/>
                <use id="reset" xlink:href="#resetDef" x="30" y="36" onmousedown="handleReset()"/>
                <g id="arrowUp" xlink:href="#dirArrow" transform="translate(30 24)" onmousedown="handlePan(0,-1)">
                  <use xlink:href="#rim" fill="#404040">
                        <set attributeName="fill" to="#808080" begin="arrowUp.mouseover" end="arrowUp.mouseout"/>
                  </use>
                  <path fill="none" stroke="white" stroke-width="1.5" d="M0,-3.0v7 M-2.5,-0.5L0,-3.0L2.5,-0.5"/>
                </g>
                <g id="arrowRight" xlink:href="#dirArrow" transform="rotate(90) translate(36 -43)" onmousedown="handlePan(1,0)">
                  <use xlink:href="#rim" fill="#404040">
                        <set attributeName="fill" to="#808080" begin="arrowRight.mouseover" end="arrowRight.mouseout"/>
                  </use>
                  <path fill="none" stroke="white" stroke-width="1.5" d="M0,-3.0v7 M-2.5,-0.5L0,-3.0L2.5,-0.5"/>
                </g>
                <g id="arrowDown" xlink:href="#dirArrow" transform="rotate(180) translate(-30 -48)" onmousedown="handlePan(0,1)">
                  <use xlink:href="#rim" fill="#404040">
                        <set attributeName="fill" to="#808080" begin="arrowDown.mouseover" end="arrowDown.mouseout"/>
                  </use>
                  <path fill="none" stroke="white" stroke-width="1.5" d="M0,-3.0v7 M-2.5,-0.5L0,-3.0L2.5,-0.5"/>
                </g>
                <g id="arrowLeft" xlink:href="#dirArrow" transform="rotate(270) translate(-36 17)" onmousedown="handlePan(-1,0)">
                  <use xlink:href="#rim" fill="#404040">
                        <set attributeName="fill" to="#808080" begin="arrowLeft.mouseover" end="arrowLeft.mouseout"/>
                  </use>
                  <path fill="none" stroke="white" stroke-width="1.5" d="M0,-3.0v7 M-2.5,-0.5L0,-3.0L2.5,-0.5"/>
                </g>
        </g>
        <svg viewBox="0 0 15 15" width="100%" height="30px" preserveAspectRatio="xMaxYMin meet">
         <g id="arrow_out" transform="scale(0.3 0.3)">
          <a xlink:href="classSidePanel__coll__graph_org.svg" target="_base">
           <rect id="button" ry="5" rx="5" y="6" x="6" height="38" width="38"
                fill="#f2f5e9" fill-opacity="0.5" stroke="#606060" stroke-width="1.0"/>
           <path id="arrow"
             d="M 11.500037,31.436501 C 11.940474,20.09759 22.043105,11.32322 32.158766,21.979434 L 37.068811,17.246167 C 37.068811,17.246167 37.088388,32 37.088388,32 L 22.160133,31.978069 C 22.160133,31.978069 26.997745,27.140456 26.997745,27.140456 C 18.528582,18.264221 13.291696,25.230495 11.500037,31.436501 z"
             style="fill:#404040;"/>
          </a>
         </g>
        </svg>
</svg>
