<?xml version="1.0" encoding="UTF-8" standalone="no"?>
<!DOCTYPE svg PUBLIC "-//W3C//DTD SVG 1.1//EN"
 "http://www.w3.org/Graphics/SVG/1.1/DTD/svg11.dtd">
<!-- Generated by graphviz version 2.40.1 (20161225.0304)
 -->
<!-- Title: MapRenderer::animateMovementTracked Pages: 1 -->
<svg width="517pt" height="132pt"
 viewBox="0.00 0.00 517.00 132.00" xmlns="http://www.w3.org/2000/svg" xmlns:xlink="http://www.w3.org/1999/xlink">
<g id="graph0" class="graph" transform="scale(1 1) rotate(0) translate(4 128)">
<title>MapRenderer::animateMovementTracked</title>
<polygon fill="#ffffff" stroke="transparent" points="-4,4 -4,-128 513,-128 513,4 -4,4"/>
<!-- Node1 -->
<g id="node1" class="node">
<title>Node1</title>
<g id="a_node1"><a xlink:title=" ">
<polygon fill="#bfbfbf" stroke="#000000" points="0,-24.5 0,-54.5 167,-54.5 167,-24.5 0,-24.5"/>
<text text-anchor="start" x="8" y="-42.5" font-family="Helvetica,sans-Serif" font-size="10.00" fill="#000000">MapRenderer::animateMovement</text>
<text text-anchor="middle" x="83.5" y="-31.5" font-family="Helvetica,sans-Serif" font-size="10.00" fill="#000000">Tracked</text>
</a>
</g>
</g>
<!-- Node2 -->
<g id="node2" class="node">
<title>Node2</title>
<g id="a_node2"><a xlink:href="classMapRenderer.html#a8a4025ac579a3a9ec1b56544431f263b" target="_top" xlink:title="MapRenderer::handleReachedPoint Wird aufgerufen, wenn eine Animation einen neuen Punkt erreicht.">
<polygon fill="#ffffff" stroke="#000000" points="203,-49.5 203,-79.5 359,-79.5 359,-49.5 203,-49.5"/>
<text text-anchor="start" x="211" y="-67.5" font-family="Helvetica,sans-Serif" font-size="10.00" fill="#000000">MapRenderer::handleReached</text>
<text text-anchor="middle" x="281" y="-56.5" font-family="Helvetica,sans-Serif" font-size="10.00" fill="#000000">Point</text>
</a>
</g>
</g>
<!-- Node1&#45;&gt;Node2 -->
<g id="edge1" class="edge">
<title>Node1&#45;&gt;Node2</title>
<path fill="none" stroke="#191970" d="M167.2578,-50.1023C175.7211,-51.1736 184.3348,-52.2639 192.8424,-53.3408"/>
<polygon fill="#191970" stroke="#191970" points="192.4051,-56.8133 202.7655,-54.5969 193.2842,-49.8687 192.4051,-56.8133"/>
</g>
<!-- Node6 -->
<g id="node6" class="node">
<title>Node6</title>
<g id="a_node6"><a xlink:href="classAnimationMovement.html#ac08c2750866d7ed93bcede356626883b" target="_top" xlink:title="AnimationMovement::setEmitChanges Setzt ob jede Punktänderung emitted wird.">
<polygon fill="#ffffff" stroke="#000000" points="224,-.5 224,-30.5 338,-30.5 338,-.5 224,-.5"/>
<text text-anchor="start" x="232" y="-18.5" font-family="Helvetica,sans-Serif" font-size="10.00" fill="#000000">AnimationMovement::</text>
<text text-anchor="middle" x="281" y="-7.5" font-family="Helvetica,sans-Serif" font-size="10.00" fill="#000000">setEmitChanges</text>
</a>
</g>
</g>
<!-- Node1&#45;&gt;Node6 -->
<g id="edge5" class="edge">
<title>Node1&#45;&gt;Node6</title>
<path fill="none" stroke="#191970" d="M167.2578,-29.3218C182.7191,-27.443 198.6823,-25.5032 213.5837,-23.6924"/>
<polygon fill="#191970" stroke="#191970" points="214.2064,-27.1425 223.7111,-22.4617 213.3619,-20.1936 214.2064,-27.1425"/>
</g>
<!-- Node3 -->
<g id="node3" class="node">
<title>Node3</title>
<g id="a_node3"><a xlink:href="classAnimationMovement.html#afa899606a17b3a76e8c8f5b9f2e3dbf8" target="_top" xlink:title="AnimationMovement::getEntity Liefert das Animation Entity.">
<polygon fill="#ffffff" stroke="#000000" points="395,-93.5 395,-123.5 509,-123.5 509,-93.5 395,-93.5"/>
<text text-anchor="start" x="403" y="-111.5" font-family="Helvetica,sans-Serif" font-size="10.00" fill="#000000">AnimationMovement::</text>
<text text-anchor="middle" x="452" y="-100.5" font-family="Helvetica,sans-Serif" font-size="10.00" fill="#000000">getEntity</text>
</a>
</g>
</g>
<!-- Node2&#45;&gt;Node3 -->
<g id="edge2" class="edge">
<title>Node2&#45;&gt;Node3</title>
<path fill="none" stroke="#191970" d="M339.3702,-79.5192C354.0532,-83.2973 369.927,-87.3818 384.9958,-91.2592"/>
<polygon fill="#191970" stroke="#191970" points="384.2046,-94.6695 394.7613,-93.7719 385.949,-87.8903 384.2046,-94.6695"/>
</g>
<!-- Node4 -->
<g id="node4" class="node">
<title>Node4</title>
<g id="a_node4"><a xlink:href="classAnimationEntity.html#a44265778f36955ef1bdaf322bff386c9" target="_top" xlink:title="AnimationEntity::getId Liefert die ID zurück.">
<polygon fill="#ffffff" stroke="#000000" points="395.5,-55 395.5,-74 508.5,-74 508.5,-55 395.5,-55"/>
<text text-anchor="middle" x="452" y="-62" font-family="Helvetica,sans-Serif" font-size="10.00" fill="#000000">AnimationEntity::getId</text>
</a>
</g>
</g>
<!-- Node2&#45;&gt;Node4 -->
<g id="edge3" class="edge">
<title>Node2&#45;&gt;Node4</title>
<path fill="none" stroke="#191970" d="M359.4933,-64.5C368.1072,-64.5 376.8166,-64.5 385.2686,-64.5"/>
<polygon fill="#191970" stroke="#191970" points="385.4268,-68.0001 395.4268,-64.5 385.4268,-61.0001 385.4268,-68.0001"/>
</g>
<!-- Node5 -->
<g id="node5" class="node">
<title>Node5</title>
<g id="a_node5"><a xlink:href="classAnimationMovement.html#a296515672535ad2a568c9f33028a3706" target="_top" xlink:title="AnimationMovement::pauseSteps Die Anzahl der zu überspringenden Schritte.">
<polygon fill="#ffffff" stroke="#000000" points="395,-5.5 395,-35.5 509,-35.5 509,-5.5 395,-5.5"/>
<text text-anchor="start" x="403" y="-23.5" font-family="Helvetica,sans-Serif" font-size="10.00" fill="#000000">AnimationMovement::</text>
<text text-anchor="middle" x="452" y="-12.5" font-family="Helvetica,sans-Serif" font-size="10.00" fill="#000000">pauseSteps</text>
</a>
</g>
</g>
<!-- Node2&#45;&gt;Node5 -->
<g id="edge4" class="edge">
<title>Node2&#45;&gt;Node5</title>
<path fill="none" stroke="#191970" d="M339.3702,-49.4808C354.0532,-45.7027 369.927,-41.6182 384.9958,-37.7408"/>
<polygon fill="#191970" stroke="#191970" points="385.949,-41.1097 394.7613,-35.2281 384.2046,-34.3305 385.949,-41.1097"/>
</g>
</g>
</svg>
