<?xml version="1.0" encoding="UTF-8" standalone="no"?>
<!DOCTYPE svg PUBLIC "-//W3C//DTD SVG 1.1//EN"
 "http://www.w3.org/Graphics/SVG/1.1/DTD/svg11.dtd">
<!-- Generated by graphviz version 2.40.1 (20161225.0304)
 -->
<!-- Title: View Pages: 1 -->
<svg width="599pt" height="1184pt"
 viewBox="0.00 0.00 598.50 1184.00" xmlns="http://www.w3.org/2000/svg" xmlns:xlink="http://www.w3.org/1999/xlink">
<g id="graph0" class="graph" transform="scale(1 1) rotate(0) translate(4 1180)">
<title>View</title>
<polygon fill="#ffffff" stroke="transparent" points="-4,4 -4,-1180 594.5,-1180 594.5,4 -4,4"/>
<!-- Node1 -->
<g id="node1" class="node">
<title>Node1</title>
<g id="a_node1"><a xlink:title=" ">
<polygon fill="#bfbfbf" stroke="#000000" points="261.5,-.5 261.5,-299.5 386.5,-299.5 386.5,-.5 261.5,-.5"/>
<text text-anchor="middle" x="324" y="-287.5" font-family="Helvetica,sans-Serif" font-size="10.00" fill="#000000">View</text>
<polyline fill="none" stroke="#000000" points="261.5,-280.5 386.5,-280.5 "/>
<text text-anchor="start" x="269.5" y="-268.5" font-family="Helvetica,sans-Serif" font-size="10.00" fill="#000000">+ currentScale</text>
<text text-anchor="start" x="269.5" y="-257.5" font-family="Helvetica,sans-Serif" font-size="10.00" fill="#000000">&#45; dragOriginX</text>
<text text-anchor="start" x="269.5" y="-246.5" font-family="Helvetica,sans-Serif" font-size="10.00" fill="#000000">&#45; dragOriginY</text>
<text text-anchor="start" x="269.5" y="-235.5" font-family="Helvetica,sans-Serif" font-size="10.00" fill="#000000">&#45; dragPosX</text>
<text text-anchor="start" x="269.5" y="-224.5" font-family="Helvetica,sans-Serif" font-size="10.00" fill="#000000">&#45; dragPosY</text>
<text text-anchor="start" x="269.5" y="-213.5" font-family="Helvetica,sans-Serif" font-size="10.00" fill="#000000">&#45; mouseX</text>
<text text-anchor="start" x="269.5" y="-202.5" font-family="Helvetica,sans-Serif" font-size="10.00" fill="#000000">&#45; mouseY</text>
<text text-anchor="start" x="269.5" y="-191.5" font-family="Helvetica,sans-Serif" font-size="10.00" fill="#000000">&#45; mouseDown</text>
<text text-anchor="start" x="269.5" y="-180.5" font-family="Helvetica,sans-Serif" font-size="10.00" fill="#000000">&#45; doAnimations</text>
<polyline fill="none" stroke="#000000" points="261.5,-173.5 386.5,-173.5 "/>
<text text-anchor="start" x="269.5" y="-161.5" font-family="Helvetica,sans-Serif" font-size="10.00" fill="#000000">+ View()</text>
<text text-anchor="start" x="269.5" y="-150.5" font-family="Helvetica,sans-Serif" font-size="10.00" fill="#000000">+ mousePressEvent()</text>
<text text-anchor="start" x="269.5" y="-139.5" font-family="Helvetica,sans-Serif" font-size="10.00" fill="#000000">+ mouseReleaseEvent()</text>
<text text-anchor="start" x="269.5" y="-128.5" font-family="Helvetica,sans-Serif" font-size="10.00" fill="#000000">+ mouseMoveEvent()</text>
<text text-anchor="start" x="269.5" y="-117.5" font-family="Helvetica,sans-Serif" font-size="10.00" fill="#000000">+ wheelEvent()</text>
<text text-anchor="start" x="269.5" y="-106.5" font-family="Helvetica,sans-Serif" font-size="10.00" fill="#000000">+ keyPressEvent()</text>
<text text-anchor="start" x="269.5" y="-95.5" font-family="Helvetica,sans-Serif" font-size="10.00" fill="#000000">+ fluidZoom()</text>
<text text-anchor="start" x="269.5" y="-84.5" font-family="Helvetica,sans-Serif" font-size="10.00" fill="#000000">+ fluidMove()</text>
<text text-anchor="start" x="269.5" y="-73.5" font-family="Helvetica,sans-Serif" font-size="10.00" fill="#000000">+ fluidMovement()</text>
<text text-anchor="start" x="269.5" y="-62.5" font-family="Helvetica,sans-Serif" font-size="10.00" fill="#000000">+ enableAnimation()</text>
<text text-anchor="start" x="269.5" y="-51.5" font-family="Helvetica,sans-Serif" font-size="10.00" fill="#000000">+ setDataModel()</text>
<text text-anchor="start" x="269.5" y="-40.5" font-family="Helvetica,sans-Serif" font-size="10.00" fill="#000000">+ tick()</text>
<text text-anchor="start" x="269.5" y="-29.5" font-family="Helvetica,sans-Serif" font-size="10.00" fill="#000000">+ zoomInAnimation()</text>
<text text-anchor="start" x="269.5" y="-18.5" font-family="Helvetica,sans-Serif" font-size="10.00" fill="#000000">&#45; leftclick()</text>
<text text-anchor="start" x="269.5" y="-7.5" font-family="Helvetica,sans-Serif" font-size="10.00" fill="#000000">&#45; rightclick()</text>
</a>
</g>
</g>
<!-- Node2 -->
<g id="node2" class="node">
<title>Node2</title>
<g id="a_node2"><a xlink:title=" ">
<polygon fill="#ffffff" stroke="#bfbfbf" points="90.5,-479.5 90.5,-536.5 177.5,-536.5 177.5,-479.5 90.5,-479.5"/>
<text text-anchor="middle" x="134" y="-524.5" font-family="Helvetica,sans-Serif" font-size="10.00" fill="#000000">QGraphicsView</text>
<polyline fill="none" stroke="#bfbfbf" points="90.5,-517.5 177.5,-517.5 "/>
<text text-anchor="middle" x="134" y="-505.5" font-family="Helvetica,sans-Serif" font-size="10.00" fill="#000000"> </text>
<polyline fill="none" stroke="#bfbfbf" points="90.5,-498.5 177.5,-498.5 "/>
<text text-anchor="middle" x="134" y="-486.5" font-family="Helvetica,sans-Serif" font-size="10.00" fill="#000000"> </text>
</a>
</g>
</g>
<!-- Node2&#45;&gt;Node1 -->
<g id="edge1" class="edge">
<title>Node2&#45;&gt;Node1</title>
<path fill="none" stroke="#191970" d="M143.2817,-469.5574C152.129,-436.1459 167.0558,-386.9695 187,-347 207.5531,-305.8103 235.8881,-263.4751 261.4576,-228.6575"/>
<polygon fill="none" stroke="#191970" points="139.8536,-468.8343 140.7324,-479.3927 146.6296,-470.5908 139.8536,-468.8343"/>
</g>
<!-- Node3 -->
<g id="node3" class="node">
<title>Node3</title>
<g id="a_node3"><a xlink:href="classScene.html" target="_top" xlink:title=" ">
<polygon fill="#ffffff" stroke="#000000" points="196,-397 196,-619 324,-619 324,-397 196,-397"/>
<text text-anchor="middle" x="260" y="-607" font-family="Helvetica,sans-Serif" font-size="10.00" fill="#000000">Scene</text>
<polyline fill="none" stroke="#000000" points="196,-600 324,-600 "/>
<text text-anchor="start" x="204" y="-588" font-family="Helvetica,sans-Serif" font-size="10.00" fill="#000000">+ MAP_SIZE</text>
<text text-anchor="start" x="204" y="-577" font-family="Helvetica,sans-Serif" font-size="10.00" fill="#000000">+ TILE_SIZE</text>
<text text-anchor="start" x="204" y="-566" font-family="Helvetica,sans-Serif" font-size="10.00" fill="#000000">&#45; highlighter</text>
<text text-anchor="start" x="204" y="-555" font-family="Helvetica,sans-Serif" font-size="10.00" fill="#000000">&#45; radiusHighlighter</text>
<text text-anchor="start" x="204" y="-544" font-family="Helvetica,sans-Serif" font-size="10.00" fill="#000000">&#45; textHint</text>
<text text-anchor="start" x="204" y="-533" font-family="Helvetica,sans-Serif" font-size="10.00" fill="#000000">&#45; showRadius</text>
<text text-anchor="start" x="204" y="-522" font-family="Helvetica,sans-Serif" font-size="10.00" fill="#000000">&#45; players</text>
<polyline fill="none" stroke="#000000" points="196,-515 324,-515 "/>
<text text-anchor="start" x="204" y="-503" font-family="Helvetica,sans-Serif" font-size="10.00" fill="#000000">+ Scene()</text>
<text text-anchor="start" x="204" y="-492" font-family="Helvetica,sans-Serif" font-size="10.00" fill="#000000">+ generateWorld()</text>
<text text-anchor="start" x="204" y="-481" font-family="Helvetica,sans-Serif" font-size="10.00" fill="#000000">+ setActiveTile()</text>
<text text-anchor="start" x="204" y="-470" font-family="Helvetica,sans-Serif" font-size="10.00" fill="#000000">+ getTileAt()</text>
<text text-anchor="start" x="204" y="-459" font-family="Helvetica,sans-Serif" font-size="10.00" fill="#000000">+ setTileAt()</text>
<text text-anchor="start" x="204" y="-448" font-family="Helvetica,sans-Serif" font-size="10.00" fill="#000000">+ tileChanged()</text>
<text text-anchor="start" x="204" y="-437" font-family="Helvetica,sans-Serif" font-size="10.00" fill="#000000">+ tick()</text>
<text text-anchor="start" x="204" y="-426" font-family="Helvetica,sans-Serif" font-size="10.00" fill="#000000">+ onSetTile()</text>
<text text-anchor="start" x="204" y="-415" font-family="Helvetica,sans-Serif" font-size="10.00" fill="#000000">+ updatePlayerPosition()</text>
<text text-anchor="start" x="204" y="-404" font-family="Helvetica,sans-Serif" font-size="10.00" fill="#000000">+ addPlayer()</text>
</a>
</g>
</g>
<!-- Node3&#45;&gt;Node1 -->
<g id="edge2" class="edge">
<title>Node3&#45;&gt;Node1</title>
<path fill="none" stroke="#404040" d="M279.8992,-396.689C284.7206,-369.7189 289.9719,-340.3445 295.1149,-311.5762"/>
<polygon fill="none" stroke="#404040" points="295.1212,-311.5404 292.2395,-304.9301 297.233,-299.7277 300.1147,-306.338 295.1212,-311.5404"/>
<text text-anchor="middle" x="312.5" y="-321" font-family="Helvetica,sans-Serif" font-size="10.00" fill="#000000"> +scene</text>
</g>
<!-- Node4 -->
<g id="node4" class="node">
<title>Node4</title>
<g id="a_node4"><a xlink:title=" ">
<polygon fill="#ffffff" stroke="#bfbfbf" points="0,-810 0,-867 94,-867 94,-810 0,-810"/>
<text text-anchor="middle" x="47" y="-855" font-family="Helvetica,sans-Serif" font-size="10.00" fill="#000000">QGraphicsScene</text>
<polyline fill="none" stroke="#bfbfbf" points="0,-848 94,-848 "/>
<text text-anchor="middle" x="47" y="-836" font-family="Helvetica,sans-Serif" font-size="10.00" fill="#000000"> </text>
<polyline fill="none" stroke="#bfbfbf" points="0,-829 94,-829 "/>
<text text-anchor="middle" x="47" y="-817" font-family="Helvetica,sans-Serif" font-size="10.00" fill="#000000"> </text>
</a>
</g>
</g>
<!-- Node4&#45;&gt;Node3 -->
<g id="edge3" class="edge">
<title>Node4&#45;&gt;Node3</title>
<path fill="none" stroke="#191970" d="M54.6042,-800.2245C63.4659,-765.6512 81.5256,-715.8937 116,-687 140.6197,-666.3657 161.3447,-689.5917 186,-669 202.0554,-655.5908 214.8026,-637.9456 224.8662,-619.2609"/>
<polygon fill="none" stroke="#191970" points="51.1927,-799.4417 52.2418,-809.9844 57.9962,-801.0885 51.1927,-799.4417"/>
</g>
<!-- Node5 -->
<g id="node5" class="node">
<title>Node5</title>
<g id="a_node5"><a xlink:href="classMapTile.html" target="_top" xlink:title=" ">
<polygon fill="#ffffff" stroke="#000000" points="233,-727.5 233,-949.5 373,-949.5 373,-727.5 233,-727.5"/>
<text text-anchor="middle" x="303" y="-937.5" font-family="Helvetica,sans-Serif" font-size="10.00" fill="#000000">MapTile</text>
<polyline fill="none" stroke="#000000" points="233,-930.5 373,-930.5 "/>
<text text-anchor="start" x="241" y="-918.5" font-family="Helvetica,sans-Serif" font-size="10.00" fill="#000000">&#45; type</text>
<text text-anchor="start" x="241" y="-907.5" font-family="Helvetica,sans-Serif" font-size="10.00" fill="#000000">&#45; pixmapItem</text>
<text text-anchor="start" x="241" y="-896.5" font-family="Helvetica,sans-Serif" font-size="10.00" fill="#000000">&#45; currentRotation</text>
<polyline fill="none" stroke="#000000" points="233,-889.5 373,-889.5 "/>
<text text-anchor="start" x="241" y="-877.5" font-family="Helvetica,sans-Serif" font-size="10.00" fill="#000000">+ MapTile()</text>
<text text-anchor="start" x="241" y="-866.5" font-family="Helvetica,sans-Serif" font-size="10.00" fill="#000000">+ MapTile()</text>
<text text-anchor="start" x="241" y="-855.5" font-family="Helvetica,sans-Serif" font-size="10.00" fill="#000000">+ setType()</text>
<text text-anchor="start" x="241" y="-844.5" font-family="Helvetica,sans-Serif" font-size="10.00" fill="#000000">+ getType()</text>
<text text-anchor="start" x="241" y="-833.5" font-family="Helvetica,sans-Serif" font-size="10.00" fill="#000000">+ setRotation()</text>
<text text-anchor="start" x="241" y="-822.5" font-family="Helvetica,sans-Serif" font-size="10.00" fill="#000000">+ getRotation()</text>
<text text-anchor="start" x="241" y="-811.5" font-family="Helvetica,sans-Serif" font-size="10.00" fill="#000000">+ setPosition()</text>
<text text-anchor="start" x="241" y="-800.5" font-family="Helvetica,sans-Serif" font-size="10.00" fill="#000000">+ isRiver()</text>
<text text-anchor="start" x="241" y="-789.5" font-family="Helvetica,sans-Serif" font-size="10.00" fill="#000000">+ getPixmapItem()</text>
<text text-anchor="start" x="241" y="-778.5" font-family="Helvetica,sans-Serif" font-size="10.00" fill="#000000">+ getCity()</text>
<text text-anchor="start" x="241" y="-767.5" font-family="Helvetica,sans-Serif" font-size="10.00" fill="#000000">+ setCity()</text>
<text text-anchor="start" x="241" y="-756.5" font-family="Helvetica,sans-Serif" font-size="10.00" fill="#000000">+ getX()</text>
<text text-anchor="start" x="241" y="-745.5" font-family="Helvetica,sans-Serif" font-size="10.00" fill="#000000">+ getY()</text>
<text text-anchor="start" x="241" y="-734.5" font-family="Helvetica,sans-Serif" font-size="10.00" fill="#000000">+ attachGraphicsManager()</text>
</a>
</g>
</g>
<!-- Node5&#45;&gt;Node3 -->
<g id="edge4" class="edge">
<title>Node5&#45;&gt;Node3</title>
<path fill="none" stroke="#404040" d="M288.5021,-727.0685C284.4917,-696.2442 280.1164,-662.6152 276.0245,-631.1652"/>
<polygon fill="none" stroke="#404040" points="276.0198,-631.1284 271.2791,-625.6946 274.4715,-619.2287 279.2122,-624.6624 276.0198,-631.1284"/>
<text text-anchor="middle" x="312" y="-701" font-family="Helvetica,sans-Serif" font-size="10.00" fill="#000000"> &#45;activeTile</text>
<text text-anchor="middle" x="312" y="-690" font-family="Helvetica,sans-Serif" font-size="10.00" fill="#000000">&#45;data</text>
</g>
<!-- Node6 -->
<g id="node6" class="node">
<title>Node6</title>
<g id="a_node6"><a xlink:href="classGraphicsManager.html" target="_top" xlink:title=" ">
<polygon fill="#ffffff" stroke="#000000" points="102.5,-1052.5 102.5,-1120.5 215.5,-1120.5 215.5,-1052.5 102.5,-1052.5"/>
<text text-anchor="middle" x="159" y="-1108.5" font-family="Helvetica,sans-Serif" font-size="10.00" fill="#000000">GraphicsManager</text>
<polyline fill="none" stroke="#000000" points="102.5,-1101.5 215.5,-1101.5 "/>
<text text-anchor="start" x="110.5" y="-1089.5" font-family="Helvetica,sans-Serif" font-size="10.00" fill="#000000">+ GRAPHICS</text>
<polyline fill="none" stroke="#000000" points="102.5,-1082.5 215.5,-1082.5 "/>
<text text-anchor="start" x="110.5" y="-1070.5" font-family="Helvetica,sans-Serif" font-size="10.00" fill="#000000">+ GraphicsManager()</text>
<text text-anchor="start" x="110.5" y="-1059.5" font-family="Helvetica,sans-Serif" font-size="10.00" fill="#000000">+ get()</text>
</a>
</g>
</g>
<!-- Node6&#45;&gt;Node3 -->
<g id="edge7" class="edge">
<title>Node6&#45;&gt;Node3</title>
<path fill="none" stroke="#404040" d="M148.5717,-1052.3065C130.4545,-986.9211 98.7612,-840.5697 139,-727 150.0806,-695.7261 168.4906,-697.1826 186,-669 193.6859,-656.629 201.0599,-643.3273 207.9745,-629.8622"/>
<polygon fill="none" stroke="#404040" points="208.0246,-629.7625 207.1485,-622.6048 213.4186,-619.0431 214.2947,-626.2008 208.0246,-629.7625"/>
<text text-anchor="middle" x="181.5" y="-836" font-family="Helvetica,sans-Serif" font-size="10.00" fill="#000000"> &#45;graphicsManager</text>
</g>
<!-- Node6&#45;&gt;Node5 -->
<g id="edge5" class="edge">
<title>Node6&#45;&gt;Node5</title>
<path fill="none" stroke="#404040" d="M173.065,-1052.2887C183.4012,-1028.2019 198.3246,-995.4838 214,-968 217.9501,-961.0742 222.1584,-954.0419 226.5142,-947.0177"/>
<polygon fill="none" stroke="#404040" points="226.5901,-946.8972 226.4056,-939.6884 232.9889,-936.7455 233.1734,-943.9543 226.5901,-946.8972"/>
<text text-anchor="middle" x="256.5" y="-971" font-family="Helvetica,sans-Serif" font-size="10.00" fill="#000000"> &#45;graphicsManager</text>
</g>
<!-- Node7 -->
<g id="node7" class="node">
<title>Node7</title>
<g id="a_node7"><a xlink:href="classCity.html" target="_top" xlink:title=" ">
<polygon fill="#ffffff" stroke="#000000" points="261.5,-997.5 261.5,-1175.5 344.5,-1175.5 344.5,-997.5 261.5,-997.5"/>
<text text-anchor="middle" x="303" y="-1163.5" font-family="Helvetica,sans-Serif" font-size="10.00" fill="#000000">City</text>
<polyline fill="none" stroke="#000000" points="261.5,-1156.5 344.5,-1156.5 "/>
<text text-anchor="start" x="269.5" y="-1144.5" font-family="Helvetica,sans-Serif" font-size="10.00" fill="#000000">&#45; size</text>
<text text-anchor="start" x="269.5" y="-1133.5" font-family="Helvetica,sans-Serif" font-size="10.00" fill="#000000">&#45; centerX</text>
<text text-anchor="start" x="269.5" y="-1122.5" font-family="Helvetica,sans-Serif" font-size="10.00" fill="#000000">&#45; centerY</text>
<text text-anchor="start" x="269.5" y="-1111.5" font-family="Helvetica,sans-Serif" font-size="10.00" fill="#000000">&#45; name</text>
<polyline fill="none" stroke="#000000" points="261.5,-1104.5 344.5,-1104.5 "/>
<text text-anchor="start" x="269.5" y="-1092.5" font-family="Helvetica,sans-Serif" font-size="10.00" fill="#000000">+ City()</text>
<text text-anchor="start" x="269.5" y="-1081.5" font-family="Helvetica,sans-Serif" font-size="10.00" fill="#000000">+ City()</text>
<text text-anchor="start" x="269.5" y="-1070.5" font-family="Helvetica,sans-Serif" font-size="10.00" fill="#000000">+ getSize()</text>
<text text-anchor="start" x="269.5" y="-1059.5" font-family="Helvetica,sans-Serif" font-size="10.00" fill="#000000">+ getCenterX()</text>
<text text-anchor="start" x="269.5" y="-1048.5" font-family="Helvetica,sans-Serif" font-size="10.00" fill="#000000">+ getCenterY()</text>
<text text-anchor="start" x="269.5" y="-1037.5" font-family="Helvetica,sans-Serif" font-size="10.00" fill="#000000">+ getName()</text>
<text text-anchor="start" x="269.5" y="-1026.5" font-family="Helvetica,sans-Serif" font-size="10.00" fill="#000000">+ setSize()</text>
<text text-anchor="start" x="269.5" y="-1015.5" font-family="Helvetica,sans-Serif" font-size="10.00" fill="#000000">+ setCenter()</text>
<text text-anchor="start" x="269.5" y="-1004.5" font-family="Helvetica,sans-Serif" font-size="10.00" fill="#000000">+ setName()</text>
</a>
</g>
</g>
<!-- Node7&#45;&gt;Node5 -->
<g id="edge6" class="edge">
<title>Node7&#45;&gt;Node5</title>
<path fill="none" stroke="#404040" d="M303,-997.3167C303,-985.8765 303,-974.0062 303,-962.1402"/>
<polygon fill="none" stroke="#404040" points="303.0001,-961.7944 299,-955.7944 303,-949.7944 307,-955.7943 303.0001,-961.7944"/>
<text text-anchor="middle" x="314" y="-971" font-family="Helvetica,sans-Serif" font-size="10.00" fill="#000000"> &#45;city</text>
</g>
<!-- Node8 -->
<g id="node8" class="node">
<title>Node8</title>
<g id="a_node8"><a xlink:href="classToolTipMenu.html" target="_top" xlink:title=" ">
<polygon fill="#ffffff" stroke="#000000" points="342.5,-463 342.5,-553 435.5,-553 435.5,-463 342.5,-463"/>
<text text-anchor="middle" x="389" y="-541" font-family="Helvetica,sans-Serif" font-size="10.00" fill="#000000">ToolTipMenu</text>
<polyline fill="none" stroke="#000000" points="342.5,-534 435.5,-534 "/>
<text text-anchor="start" x="350.5" y="-522" font-family="Helvetica,sans-Serif" font-size="10.00" fill="#000000">&#45; textlabel</text>
<polyline fill="none" stroke="#000000" points="342.5,-515 435.5,-515 "/>
<text text-anchor="start" x="350.5" y="-503" font-family="Helvetica,sans-Serif" font-size="10.00" fill="#000000">+ ToolTipMenu()</text>
<text text-anchor="start" x="350.5" y="-492" font-family="Helvetica,sans-Serif" font-size="10.00" fill="#000000">+ hide()</text>
<text text-anchor="start" x="350.5" y="-481" font-family="Helvetica,sans-Serif" font-size="10.00" fill="#000000">+ showAt()</text>
<text text-anchor="start" x="350.5" y="-470" font-family="Helvetica,sans-Serif" font-size="10.00" fill="#000000">+ setText()</text>
</a>
</g>
</g>
<!-- Node8&#45;&gt;Node1 -->
<g id="edge8" class="edge">
<title>Node8&#45;&gt;Node1</title>
<path fill="none" stroke="#404040" d="M380.7677,-462.6591C373.7978,-424.2709 363.3682,-366.8281 353.3431,-311.6129"/>
<polygon fill="none" stroke="#404040" points="353.2882,-311.31 348.2806,-306.1211 351.1444,-299.503 356.152,-304.6919 353.2882,-311.31"/>
<text text-anchor="middle" x="373.5" y="-321" font-family="Helvetica,sans-Serif" font-size="10.00" fill="#000000"> &#45;tooltip</text>
</g>
<!-- Node9 -->
<g id="node9" class="node">
<title>Node9</title>
<g id="a_node9"><a xlink:title=" ">
<polygon fill="#ffffff" stroke="#bfbfbf" points="391,-810 391,-867 447,-867 447,-810 391,-810"/>
<text text-anchor="middle" x="419" y="-855" font-family="Helvetica,sans-Serif" font-size="10.00" fill="#000000">QWidget</text>
<polyline fill="none" stroke="#bfbfbf" points="391,-848 447,-848 "/>
<text text-anchor="middle" x="419" y="-836" font-family="Helvetica,sans-Serif" font-size="10.00" fill="#000000"> </text>
<polyline fill="none" stroke="#bfbfbf" points="391,-829 447,-829 "/>
<text text-anchor="middle" x="419" y="-817" font-family="Helvetica,sans-Serif" font-size="10.00" fill="#000000"> </text>
</a>
</g>
</g>
<!-- Node9&#45;&gt;Node8 -->
<g id="edge9" class="edge">
<title>Node9&#45;&gt;Node8</title>
<path fill="none" stroke="#191970" d="M415.4748,-799.6646C409.8838,-738.0704 399.0112,-618.2896 393.0873,-553.0284"/>
<polygon fill="none" stroke="#191970" points="412.0004,-800.1058 416.3902,-809.7485 418.9718,-799.473 412.0004,-800.1058"/>
</g>
<!-- Node10 -->
<g id="node10" class="node">
<title>Node10</title>
<g id="a_node10"><a xlink:href="classDataModel.html" target="_top" xlink:title=" ">
<polygon fill="#ffffff" stroke="#000000" points="453.5,-347.5 453.5,-668.5 590.5,-668.5 590.5,-347.5 453.5,-347.5"/>
<text text-anchor="middle" x="522" y="-656.5" font-family="Helvetica,sans-Serif" font-size="10.00" fill="#000000">DataModel</text>
<polyline fill="none" stroke="#000000" points="453.5,-649.5 590.5,-649.5 "/>
<text text-anchor="start" x="461.5" y="-637.5" font-family="Helvetica,sans-Serif" font-size="10.00" fill="#000000">&#45; balance</text>
<text text-anchor="start" x="461.5" y="-626.5" font-family="Helvetica,sans-Serif" font-size="10.00" fill="#000000">&#45; time</text>
<text text-anchor="start" x="461.5" y="-615.5" font-family="Helvetica,sans-Serif" font-size="10.00" fill="#000000">&#45; coordinateX</text>
<text text-anchor="start" x="461.5" y="-604.5" font-family="Helvetica,sans-Serif" font-size="10.00" fill="#000000">&#45; coordinateY</text>
<text text-anchor="start" x="461.5" y="-593.5" font-family="Helvetica,sans-Serif" font-size="10.00" fill="#000000">&#45; ip</text>
<text text-anchor="start" x="461.5" y="-582.5" font-family="Helvetica,sans-Serif" font-size="10.00" fill="#000000">&#45; port</text>
<text text-anchor="start" x="461.5" y="-571.5" font-family="Helvetica,sans-Serif" font-size="10.00" fill="#000000">&#45; balanceLabel</text>
<text text-anchor="start" x="461.5" y="-560.5" font-family="Helvetica,sans-Serif" font-size="10.00" fill="#000000">&#45; timeLabel</text>
<text text-anchor="start" x="461.5" y="-549.5" font-family="Helvetica,sans-Serif" font-size="10.00" fill="#000000">&#45; positionLabel</text>
<text text-anchor="start" x="461.5" y="-538.5" font-family="Helvetica,sans-Serif" font-size="10.00" fill="#000000">&#45; statusDisplay</text>
<text text-anchor="start" x="461.5" y="-527.5" font-family="Helvetica,sans-Serif" font-size="10.00" fill="#000000">&#45; mode</text>
<polyline fill="none" stroke="#000000" points="453.5,-520.5 590.5,-520.5 "/>
<text text-anchor="start" x="461.5" y="-508.5" font-family="Helvetica,sans-Serif" font-size="10.00" fill="#000000">+ DataModel()</text>
<text text-anchor="start" x="461.5" y="-497.5" font-family="Helvetica,sans-Serif" font-size="10.00" fill="#000000">+ getBalance()</text>
<text text-anchor="start" x="461.5" y="-486.5" font-family="Helvetica,sans-Serif" font-size="10.00" fill="#000000">+ updateBalance()</text>
<text text-anchor="start" x="461.5" y="-475.5" font-family="Helvetica,sans-Serif" font-size="10.00" fill="#000000">+ takeBalance()</text>
<text text-anchor="start" x="461.5" y="-464.5" font-family="Helvetica,sans-Serif" font-size="10.00" fill="#000000">+ timeTick()</text>
<text text-anchor="start" x="461.5" y="-453.5" font-family="Helvetica,sans-Serif" font-size="10.00" fill="#000000">+ getTime()</text>
<text text-anchor="start" x="461.5" y="-442.5" font-family="Helvetica,sans-Serif" font-size="10.00" fill="#000000">+ getSystemMillis()</text>
<text text-anchor="start" x="461.5" y="-431.5" font-family="Helvetica,sans-Serif" font-size="10.00" fill="#000000">+ updateCoordinates()</text>
<text text-anchor="start" x="461.5" y="-420.5" font-family="Helvetica,sans-Serif" font-size="10.00" fill="#000000">+ getHoverX()</text>
<text text-anchor="start" x="461.5" y="-409.5" font-family="Helvetica,sans-Serif" font-size="10.00" fill="#000000">+ getHoverY()</text>
<text text-anchor="start" x="461.5" y="-398.5" font-family="Helvetica,sans-Serif" font-size="10.00" fill="#000000">und 10 mehr ...</text>
<text text-anchor="start" x="461.5" y="-387.5" font-family="Helvetica,sans-Serif" font-size="10.00" fill="#000000">+ setDefaultMode()</text>
<text text-anchor="start" x="461.5" y="-376.5" font-family="Helvetica,sans-Serif" font-size="10.00" fill="#000000">+ setTrainStationMode()</text>
<text text-anchor="start" x="461.5" y="-365.5" font-family="Helvetica,sans-Serif" font-size="10.00" fill="#000000">+ setBridgeMode()</text>
<text text-anchor="start" x="461.5" y="-354.5" font-family="Helvetica,sans-Serif" font-size="10.00" fill="#000000">+ setRailPlacementMode()</text>
</a>
</g>
</g>
<!-- Node10&#45;&gt;Node1 -->
<g id="edge10" class="edge">
<title>Node10&#45;&gt;Node1</title>
<path fill="none" stroke="#404040" d="M453.3809,-364.5494C450.2567,-358.5971 447.122,-352.7266 444,-347 428.2081,-318.0332 410.1528,-287.3085 392.9264,-258.9571"/>
<polygon fill="none" stroke="#404040" points="392.8736,-258.8705 386.3338,-255.8322 386.6231,-248.6269 393.1629,-251.6652 392.8736,-258.8705"/>
<text text-anchor="middle" x="459.5" y="-321" font-family="Helvetica,sans-Serif" font-size="10.00" fill="#000000"> &#45;dataModel</text>
</g>
<!-- Node11 -->
<g id="node11" class="node">
<title>Node11</title>
<g id="a_node11"><a xlink:title=" ">
<polygon fill="#ffffff" stroke="#bfbfbf" points="495.5,-810 495.5,-867 548.5,-867 548.5,-810 495.5,-810"/>
<text text-anchor="middle" x="522" y="-855" font-family="Helvetica,sans-Serif" font-size="10.00" fill="#000000">QObject</text>
<polyline fill="none" stroke="#bfbfbf" points="495.5,-848 548.5,-848 "/>
<text text-anchor="middle" x="522" y="-836" font-family="Helvetica,sans-Serif" font-size="10.00" fill="#000000"> </text>
<polyline fill="none" stroke="#bfbfbf" points="495.5,-829 548.5,-829 "/>
<text text-anchor="middle" x="522" y="-817" font-family="Helvetica,sans-Serif" font-size="10.00" fill="#000000"> </text>
</a>
</g>
</g>
<!-- Node11&#45;&gt;Node10 -->
<g id="edge11" class="edge">
<title>Node11&#45;&gt;Node10</title>
<path fill="none" stroke="#191970" d="M522,-799.6916C522,-766.8591 522,-717.4798 522,-668.6381"/>
<polygon fill="none" stroke="#191970" points="518.5001,-799.7484 522,-809.7485 525.5001,-799.7485 518.5001,-799.7484"/>
</g>
</g>
</svg>
