<?xml version="1.0" encoding="UTF-8" standalone="no"?>
<!DOCTYPE svg PUBLIC "-//W3C//DTD SVG 1.1//EN"
 "http://www.w3.org/Graphics/SVG/1.1/DTD/svg11.dtd">
<!-- Generated by graphviz version 2.40.1 (20161225.0304)
 -->
<!-- Title: Client::tileChanged Pages: 1 -->
<svg width="376pt" height="66pt"
 viewBox="0.00 0.00 376.00 66.00" xmlns="http://www.w3.org/2000/svg" xmlns:xlink="http://www.w3.org/1999/xlink">
<g id="graph0" class="graph" transform="scale(1 1) rotate(0) translate(4 62)">
<title>Client::tileChanged</title>
<polygon fill="#ffffff" stroke="transparent" points="-4,4 -4,-62 372,-62 372,4 -4,4"/>
<!-- Node1 -->
<g id="node1" class="node">
<title>Node1</title>
<g id="a_node1"><a xlink:title=" ">
<polygon fill="#bfbfbf" stroke="#000000" points="265,-19.5 265,-38.5 368,-38.5 368,-19.5 265,-19.5"/>
<text text-anchor="middle" x="316.5" y="-26.5" font-family="Helvetica,sans-Serif" font-size="10.00" fill="#000000">Client::tileChanged</text>
</a>
</g>
</g>
<!-- Node2 -->
<g id="node2" class="node">
<title>Node2</title>
<g id="a_node2"><a xlink:href="classClient.html#a31eda3a4d7b4780e159120aa055b1299" target="_top" xlink:title="Client::Client Erzeugt einen neuen Client.">
<polygon fill="#ffffff" stroke="#000000" points="126.5,-38.5 126.5,-57.5 200.5,-57.5 200.5,-38.5 126.5,-38.5"/>
<text text-anchor="middle" x="163.5" y="-45.5" font-family="Helvetica,sans-Serif" font-size="10.00" fill="#000000">Client::Client</text>
</a>
</g>
</g>
<!-- Node1&#45;&gt;Node2 -->
<g id="edge1" class="edge">
<title>Node1&#45;&gt;Node2</title>
<path fill="none" stroke="#191970" d="M254.6915,-36.6756C236.4086,-38.946 216.9623,-41.3609 200.7446,-43.3749"/>
<polygon fill="#191970" stroke="#191970" points="255.2088,-40.1383 264.7012,-35.4325 254.346,-33.1917 255.2088,-40.1383"/>
</g>
<!-- Node3 -->
<g id="node3" class="node">
<title>Node3</title>
<g id="a_node3"><a xlink:href="classClient.html#a4cc6ded21fb38d6341fd91314156920e" target="_top" xlink:title="Client::processCommand Führt einen empfangenen Befehl aus dem Serverprotokoll aus.">
<polygon fill="#ffffff" stroke="#000000" points="98,-.5 98,-19.5 229,-19.5 229,-.5 98,-.5"/>
<text text-anchor="middle" x="163.5" y="-7.5" font-family="Helvetica,sans-Serif" font-size="10.00" fill="#000000">Client::processCommand</text>
</a>
</g>
</g>
<!-- Node1&#45;&gt;Node3 -->
<g id="edge2" class="edge">
<title>Node1&#45;&gt;Node3</title>
<path fill="none" stroke="#191970" d="M254.5992,-21.313C246.1946,-20.2693 237.5459,-19.1952 229.0794,-18.1438"/>
<polygon fill="#191970" stroke="#191970" points="254.346,-24.8083 264.7012,-22.5675 255.2088,-17.8617 254.346,-24.8083"/>
</g>
<!-- Node4 -->
<g id="node4" class="node">
<title>Node4</title>
<g id="a_node4"><a xlink:href="classClient.html#ad2cfacbefea1e51e34c4697403fb82cb" target="_top" xlink:title="Client::run Startet den Client&#45;Thread.">
<polygon fill="#ffffff" stroke="#000000" points="0,-.5 0,-19.5 62,-19.5 62,-.5 0,-.5"/>
<text text-anchor="middle" x="31" y="-7.5" font-family="Helvetica,sans-Serif" font-size="10.00" fill="#000000">Client::run</text>
</a>
</g>
</g>
<!-- Node3&#45;&gt;Node4 -->
<g id="edge3" class="edge">
<title>Node3&#45;&gt;Node4</title>
<path fill="none" stroke="#191970" d="M87.5463,-10C78.6662,-10 70.0238,-10 62.2761,-10"/>
<polygon fill="#191970" stroke="#191970" points="87.6382,-13.5001 97.6382,-10 87.6381,-6.5001 87.6382,-13.5001"/>
</g>
</g>
</svg>
