<?xml version="1.0" encoding="UTF-8" standalone="no"?>
<!DOCTYPE svg PUBLIC "-//W3C//DTD SVG 1.1//EN"
 "http://www.w3.org/Graphics/SVG/1.1/DTD/svg11.dtd">
<!-- Generated by graphviz version 2.40.1 (20161225.0304)
 -->
<!-- Title: Point::set Pages: 1 -->
<svg width="269pt" height="104pt"
 viewBox="0.00 0.00 269.00 104.00" xmlns="http://www.w3.org/2000/svg" xmlns:xlink="http://www.w3.org/1999/xlink">
<g id="graph0" class="graph" transform="scale(1 1) rotate(0) translate(4 100)">
<title>Point::set</title>
<polygon fill="#ffffff" stroke="transparent" points="-4,4 -4,-100 265,-100 265,4 -4,4"/>
<!-- Node1 -->
<g id="node1" class="node">
<title>Node1</title>
<g id="a_node1"><a xlink:title="Point::set Ändert die Koordinaten.">
<polygon fill="#bfbfbf" stroke="#000000" points="202,-38.5 202,-57.5 261,-57.5 261,-38.5 202,-38.5"/>
<text text-anchor="middle" x="231.5" y="-45.5" font-family="Helvetica,sans-Serif" font-size="10.00" fill="#000000">Point::set</text>
</a>
</g>
</g>
<!-- Node2 -->
<g id="node2" class="node">
<title>Node2</title>
<g id="a_node2"><a xlink:href="classMapRenderer.html#aa2f3c7d428114b22544682da3997efd9" target="_top" xlink:title=" ">
<polygon fill="#ffffff" stroke="#000000" points=".5,-76.5 .5,-95.5 165.5,-95.5 165.5,-76.5 .5,-76.5"/>
<text text-anchor="middle" x="83" y="-83.5" font-family="Helvetica,sans-Serif" font-size="10.00" fill="#000000">MapRenderer::mouseMoveEvent</text>
</a>
</g>
</g>
<!-- Node1&#45;&gt;Node2 -->
<g id="edge1" class="edge">
<title>Node1&#45;&gt;Node2</title>
<path fill="none" stroke="#191970" d="M192.1261,-59.8177C183.5401,-62.2836 174.485,-64.8001 166,-67 153.4078,-70.2648 139.6651,-73.5301 127.0508,-76.4099"/>
<polygon fill="#191970" stroke="#191970" points="193.3022,-63.1207 201.9275,-56.968 191.3479,-56.399 193.3022,-63.1207"/>
</g>
<!-- Node3 -->
<g id="node3" class="node">
<title>Node3</title>
<g id="a_node3"><a xlink:href="classMapRenderer.html#a2a8f6ec1b3a089ff1779e0a5aca9da46" target="_top" xlink:title=" ">
<polygon fill="#ffffff" stroke="#000000" points="0,-38.5 0,-57.5 166,-57.5 166,-38.5 0,-38.5"/>
<text text-anchor="middle" x="83" y="-45.5" font-family="Helvetica,sans-Serif" font-size="10.00" fill="#000000">MapRenderer::mousePressEvent</text>
</a>
</g>
</g>
<!-- Node1&#45;&gt;Node3 -->
<g id="edge2" class="edge">
<title>Node1&#45;&gt;Node3</title>
<path fill="none" stroke="#191970" d="M191.7305,-48C183.733,-48 175.0494,-48 166.1935,-48"/>
<polygon fill="#191970" stroke="#191970" points="191.8058,-51.5001 201.8057,-48 191.8057,-44.5001 191.8058,-51.5001"/>
</g>
<!-- Node4 -->
<g id="node4" class="node">
<title>Node4</title>
<g id="a_node4"><a xlink:href="classMapRenderer.html#afda821c83a4e0b63eb8325597f4fc6ef" target="_top" xlink:title="MapRenderer::paintEvent Rendert die Spielansicht.">
<polygon fill="#ffffff" stroke="#000000" points="18,-.5 18,-19.5 148,-19.5 148,-.5 18,-.5"/>
<text text-anchor="middle" x="83" y="-7.5" font-family="Helvetica,sans-Serif" font-size="10.00" fill="#000000">MapRenderer::paintEvent</text>
</a>
</g>
</g>
<!-- Node1&#45;&gt;Node4 -->
<g id="edge3" class="edge">
<title>Node1&#45;&gt;Node4</title>
<path fill="none" stroke="#191970" d="M192.1261,-36.1823C183.5401,-33.7164 174.485,-31.1999 166,-29 153.4078,-25.7352 139.6651,-22.4699 127.0508,-19.5901"/>
<polygon fill="#191970" stroke="#191970" points="191.3479,-39.601 201.9275,-39.032 193.3022,-32.8793 191.3479,-39.601"/>
</g>
</g>
</svg>
