<?xml version="1.0" encoding="UTF-8" standalone="no"?>
<!DOCTYPE svg PUBLIC "-//W3C//DTD SVG 1.1//EN"
 "http://www.w3.org/Graphics/SVG/1.1/DTD/svg11.dtd">
<!-- Generated by graphviz version 2.40.1 (20161225.0304)
 -->
<!-- Title: MapRenderer::keyReleaseEvent Pages: 1 -->
<!--zoomable 355 -->
<svg id="main" version="1.1" xmlns="http://www.w3.org/2000/svg" xmlns:xlink="http://www.w3.org/1999/xlink" xml:space="preserve" onload="init(evt)">
<style type="text/css"><![CDATA[
.edge:hover path { stroke: red; }
.edge:hover polygon { stroke: red; fill: red; }
]]></style>
<script type="text/javascript"><![CDATA[
var edges = document.getElementsByTagName('g');
if (edges && edges.length) {
  for (var i=0;i<edges.length;i++) {
    if (edges[i].id.substr(0,4)=='edge') {
      edges[i].setAttribute('class','edge');
    }
  }
}
]]></script>
        <defs>
                <circle id="rim" cx="0" cy="0" r="7"/>
                <circle id="rim2" cx="0" cy="0" r="3.5"/>
                <g id="zoomPlus">
                        <use xlink:href="#rim" fill="#404040">
                                <set attributeName="fill" to="#808080" begin="zoomplus.mouseover" end="zoomplus.mouseout"/>
                        </use>
                        <path d="M-4,0h8M0,-4v8" fill="none" stroke="white" stroke-width="1.5" pointer-events="none"/>
                </g>
                <g id="zoomMin">
                        <use xlink:href="#rim" fill="#404040">
                                <set attributeName="fill" to="#808080" begin="zoomminus.mouseover" end="zoomminus.mouseout"/>
                        </use>
                        <path d="M-4,0h8" fill="none" stroke="white" stroke-width="1.5" pointer-events="none"/>
                </g>
                <g id="dirArrow">
                        <path fill="none" stroke="white" stroke-width="1.5" d="M0,-3.0v7 M-2.5,-0.5L0,-3.0L2.5,-0.5"/>
                </g>
               <g id="resetDef">
                       <use xlink:href="#rim2" fill="#404040">
                               <set attributeName="fill" to="#808080" begin="reset.mouseover" end="reset.mouseout"/>
                       </use>
               </g>
        </defs>

<script type="text/javascript">
var viewWidth = 718;
var viewHeight = 355;
var sectionId = 'dynsection-14';
</script>
<script xlink:href="svgpan.js"/>
<svg id="graph" class="graph">
<g id="viewport">
<title>MapRenderer::keyReleaseEvent</title>
<polygon fill="#ffffff" stroke="transparent" points="-4,4 -4,-350.5 714,-350.5 714,4 -4,4"/>
<!-- Node1 -->
<g id="node1" class="node">
<title>Node1</title>
<g id="a_node1"><a xlink:title=" ">
<polygon fill="#bfbfbf" stroke="#000000" points="0,-133.5 0,-152.5 164,-152.5 164,-133.5 0,-133.5"/>
<text text-anchor="middle" x="82" y="-140.5" font-family="Helvetica,sans-Serif" font-size="10.00" fill="#000000">MapRenderer::keyReleaseEvent</text>
</a>
</g>
</g>
<!-- Node2 -->
<g id="node2" class="node">
<title>Node2</title>
<g id="a_node2"><a xlink:href="classMapRenderer.html#a742fba1dadf2f2bcabe5d8e2fa73042a" target="_top" xlink:title="MapRenderer::cloudAnimation Führt eine Wolken&#45;Animation aus.">
<polygon fill="#ffffff" stroke="#000000" points="200,-272.5 200,-291.5 353,-291.5 353,-272.5 200,-272.5"/>
<text text-anchor="middle" x="276.5" y="-279.5" font-family="Helvetica,sans-Serif" font-size="10.00" fill="#000000">MapRenderer::cloudAnimation</text>
</a>
</g>
</g>
<!-- Node1&#45;&gt;Node2 -->
<g id="edge1" class="edge">
<title>Node1&#45;&gt;Node2</title>
<path fill="none" stroke="#191970" d="M95.3688,-152.554C128.4025,-176.1617 214.1302,-237.4272 254.6598,-266.3918"/>
<polygon fill="#191970" stroke="#191970" points="252.8667,-269.4123 263.0377,-272.3791 256.9368,-263.7171 252.8667,-269.4123"/>
</g>
<!-- Node5 -->
<g id="node5" class="node">
<title>Node5</title>
<g id="a_node5"><a xlink:href="classMapRenderer.html#a6b690a49223b2006a4816b706a4b156e" target="_top" xlink:title="MapRenderer::demo Zeigt eine Demo&#45;Visualisierung.">
<polygon fill="#ffffff" stroke="#000000" points="221.5,-133.5 221.5,-152.5 331.5,-152.5 331.5,-133.5 221.5,-133.5"/>
<text text-anchor="middle" x="276.5" y="-140.5" font-family="Helvetica,sans-Serif" font-size="10.00" fill="#000000">MapRenderer::demo</text>
</a>
</g>
</g>
<!-- Node1&#45;&gt;Node5 -->
<g id="edge4" class="edge">
<title>Node1&#45;&gt;Node5</title>
<path fill="none" stroke="#191970" d="M164.2036,-143C179.872,-143 196.0745,-143 211.1306,-143"/>
<polygon fill="#191970" stroke="#191970" points="211.3504,-146.5001 221.3503,-143 211.3503,-139.5001 211.3504,-146.5001"/>
</g>
<!-- Node14 -->
<g id="node14" class="node">
<title>Node14</title>
<g id="a_node14"><a xlink:href="classDataModel.html#a6d8acc40d2adf1a5ab5c314f7e2727c6" target="_top" xlink:title="DataModel::toggleFullscreen Toggled den Vollbildmodus.">
<polygon fill="#ffffff" stroke="#000000" points="202.5,-95.5 202.5,-114.5 350.5,-114.5 350.5,-95.5 202.5,-95.5"/>
<text text-anchor="middle" x="276.5" y="-102.5" font-family="Helvetica,sans-Serif" font-size="10.00" fill="#000000">DataModel::toggleFullscreen</text>
</a>
</g>
</g>
<!-- Node1&#45;&gt;Node14 -->
<g id="edge14" class="edge">
<title>Node1&#45;&gt;Node14</title>
<path fill="none" stroke="#191970" d="M130.8295,-133.46C157.1876,-128.3104 189.9169,-121.916 217.6712,-116.4935"/>
<polygon fill="#191970" stroke="#191970" points="218.5071,-119.8965 227.6504,-114.5439 217.1648,-113.0264 218.5071,-119.8965"/>
</g>
<!-- Node3 -->
<g id="node3" class="node">
<title>Node3</title>
<g id="a_node3"><a xlink:href="classAnimationMovement.html#a80d0ce22ed161fcf03cc6f5106c58526" target="_top" xlink:title="AnimationMovement::setRepeat Setzt ob die Animation in Endlosschleife läuft.">
<polygon fill="#ffffff" stroke="#000000" points="415.5,-316 415.5,-346 529.5,-346 529.5,-316 415.5,-316"/>
<text text-anchor="start" x="423.5" y="-334" font-family="Helvetica,sans-Serif" font-size="10.00" fill="#000000">AnimationMovement::</text>
<text text-anchor="middle" x="472.5" y="-323" font-family="Helvetica,sans-Serif" font-size="10.00" fill="#000000">setRepeat</text>
</a>
</g>
</g>
<!-- Node2&#45;&gt;Node3 -->
<g id="edge2" class="edge">
<title>Node2&#45;&gt;Node3</title>
<path fill="none" stroke="#191970" d="M314.7561,-291.564C340.4794,-297.9948 375.0832,-306.6458 405.3261,-314.2065"/>
<polygon fill="#191970" stroke="#191970" points="404.8458,-317.6941 415.3961,-316.724 406.5436,-310.9031 404.8458,-317.6941"/>
</g>
<!-- Node4 -->
<g id="node4" class="node">
<title>Node4</title>
<g id="a_node4"><a xlink:href="classAnimationMovement.html#abee6a37d2f482a521120d528c2bc84dc" target="_top" xlink:title="AnimationMovement::setSpeed Setzt die Geschwindigkeit der Animation.">
<polygon fill="#ffffff" stroke="#000000" points="415.5,-267 415.5,-297 529.5,-297 529.5,-267 415.5,-267"/>
<text text-anchor="start" x="423.5" y="-285" font-family="Helvetica,sans-Serif" font-size="10.00" fill="#000000">AnimationMovement::</text>
<text text-anchor="middle" x="472.5" y="-274" font-family="Helvetica,sans-Serif" font-size="10.00" fill="#000000">setSpeed</text>
</a>
</g>
</g>
<!-- Node2&#45;&gt;Node4 -->
<g id="edge3" class="edge">
<title>Node2&#45;&gt;Node4</title>
<path fill="none" stroke="#191970" d="M353.1208,-282C370.2812,-282 388.361,-282 405.1139,-282"/>
<polygon fill="#191970" stroke="#191970" points="405.3534,-285.5001 415.3534,-282 405.3534,-278.5001 405.3534,-285.5001"/>
</g>
<!-- Node6 -->
<g id="node6" class="node">
<title>Node6</title>
<g id="a_node6"><a xlink:href="classMapRenderer.html#aa798710f4ea856a9ccc8d789e7c27795" target="_top" xlink:title=" ">
<polygon fill="#ffffff" stroke="#000000" points="389,-228.5 389,-247.5 556,-247.5 556,-228.5 389,-228.5"/>
<text text-anchor="middle" x="472.5" y="-235.5" font-family="Helvetica,sans-Serif" font-size="10.00" fill="#000000">MapRenderer::animateMovement</text>
</a>
</g>
</g>
<!-- Node5&#45;&gt;Node6 -->
<g id="edge5" class="edge">
<title>Node5&#45;&gt;Node6</title>
<path fill="none" stroke="#191970" d="M287.4898,-152.5086C306.7281,-168.6521 348.3414,-201.3801 389,-219 394.8188,-221.5217 401.0168,-223.7305 407.3061,-225.6608"/>
<polygon fill="#191970" stroke="#191970" points="406.6476,-229.1119 417.223,-228.4696 408.5553,-222.3768 406.6476,-229.1119"/>
</g>
<!-- Node7 -->
<g id="node7" class="node">
<title>Node7</title>
<g id="a_node7"><a xlink:href="classCity.html#aa386d95c7f928b239bc4973ce816106d" target="_top" xlink:title="City::setCenter Setzt den Mittelpunkt der Stadt.">
<polygon fill="#ffffff" stroke="#000000" points="431,-190.5 431,-209.5 514,-209.5 514,-190.5 431,-190.5"/>
<text text-anchor="middle" x="472.5" y="-197.5" font-family="Helvetica,sans-Serif" font-size="10.00" fill="#000000">City::setCenter</text>
</a>
</g>
</g>
<!-- Node5&#45;&gt;Node7 -->
<g id="edge6" class="edge">
<title>Node5&#45;&gt;Node7</title>
<path fill="none" stroke="#191970" d="M302.1823,-152.5098C324.8342,-160.6963 358.8399,-172.4988 389,-181 399.1933,-183.8732 410.1791,-186.6185 420.7271,-189.0847"/>
<polygon fill="#191970" stroke="#191970" points="420.1371,-192.54 430.6658,-191.3587 421.6984,-185.7164 420.1371,-192.54"/>
</g>
<!-- Node8 -->
<g id="node8" class="node">
<title>Node8</title>
<g id="a_node8"><a xlink:href="classMapTile.html#a95eefbf7247ae6adef4aaee0a35eaa4f" target="_top" xlink:title="MapTile::setCity.">
<polygon fill="#ffffff" stroke="#000000" points="427,-152.5 427,-171.5 518,-171.5 518,-152.5 427,-152.5"/>
<text text-anchor="middle" x="472.5" y="-159.5" font-family="Helvetica,sans-Serif" font-size="10.00" fill="#000000">MapTile::setCity</text>
</a>
</g>
</g>
<!-- Node5&#45;&gt;Node8 -->
<g id="edge7" class="edge">
<title>Node5&#45;&gt;Node8</title>
<path fill="none" stroke="#191970" d="M331.6185,-148.3431C358.1073,-150.9109 389.8026,-153.9834 416.4161,-156.5633"/>
<polygon fill="#191970" stroke="#191970" points="416.4306,-160.081 426.7216,-157.5623 417.106,-153.1137 416.4306,-160.081"/>
</g>
<!-- Node9 -->
<g id="node9" class="node">
<title>Node9</title>
<g id="a_node9"><a xlink:href="classCity.html#a198b26b45e0b52f27a18b3631db5070c" target="_top" xlink:title="City::setName Setzt den Namen der Stadt.">
<polygon fill="#ffffff" stroke="#000000" points="432.5,-114.5 432.5,-133.5 512.5,-133.5 512.5,-114.5 432.5,-114.5"/>
<text text-anchor="middle" x="472.5" y="-121.5" font-family="Helvetica,sans-Serif" font-size="10.00" fill="#000000">City::setName</text>
</a>
</g>
</g>
<!-- Node5&#45;&gt;Node9 -->
<g id="edge8" class="edge">
<title>Node5&#45;&gt;Node9</title>
<path fill="none" stroke="#191970" d="M331.6185,-137.6569C360.0317,-134.9025 394.4354,-131.5675 422.132,-128.8826"/>
<polygon fill="#191970" stroke="#191970" points="422.7766,-132.3366 432.3922,-127.888 422.1011,-125.3693 422.7766,-132.3366"/>
</g>
<!-- Node10 -->
<g id="node10" class="node">
<title>Node10</title>
<g id="a_node10"><a xlink:href="classMapTile.html#a57b8310cfe045dc6a8e0c3c25fe9fc52" target="_top" xlink:title="MapTile::setRotation Hilfsfunktion zur Rotation im Quadrat.">
<polygon fill="#ffffff" stroke="#000000" points="596,-57.5 596,-76.5 706,-76.5 706,-57.5 596,-57.5"/>
<text text-anchor="middle" x="651" y="-64.5" font-family="Helvetica,sans-Serif" font-size="10.00" fill="#000000">MapTile::setRotation</text>
</a>
</g>
</g>
<!-- Node5&#45;&gt;Node10 -->
<g id="edge9" class="edge">
<title>Node5&#45;&gt;Node10</title>
<path fill="none" stroke="#191970" d="M322.7685,-133.4243C332.8743,-130.8049 343.4108,-127.6591 353,-124 369.9029,-117.5501 371.7975,-110.6021 389,-105 453.9726,-83.8411 531.842,-74.442 585.7166,-70.28"/>
<polygon fill="#191970" stroke="#191970" points="586.107,-73.7608 595.8242,-69.5388 585.595,-66.7796 586.107,-73.7608"/>
</g>
<!-- Node11 -->
<g id="node11" class="node">
<title>Node11</title>
<g id="a_node11"><a xlink:href="classCity.html#ac4ff08b2faa48f34b8ffbff37f4b0621" target="_top" xlink:title="City::setSize Gibt die Größe der Stadt zurück (Anzahl der Gebäude)">
<polygon fill="#ffffff" stroke="#000000" points="435.5,-38.5 435.5,-57.5 509.5,-57.5 509.5,-38.5 435.5,-38.5"/>
<text text-anchor="middle" x="472.5" y="-45.5" font-family="Helvetica,sans-Serif" font-size="10.00" fill="#000000">City::setSize</text>
</a>
</g>
</g>
<!-- Node5&#45;&gt;Node11 -->
<g id="edge10" class="edge">
<title>Node5&#45;&gt;Node11</title>
<path fill="none" stroke="#191970" d="M331.6755,-134.4412C339.2284,-131.8328 346.5813,-128.4323 353,-124 376.1303,-108.0277 366.1646,-88.391 389,-72 399.6357,-64.3658 412.6581,-59.1494 425.2261,-55.5889"/>
<polygon fill="#191970" stroke="#191970" points="426.3195,-58.9226 435.1537,-53.074 424.6004,-52.137 426.3195,-58.9226"/>
</g>
<!-- Node12 -->
<g id="node12" class="node">
<title>Node12</title>
<g id="a_node12"><a xlink:href="classMapTile.html#a6f6c6e03095e0f1ed503dd30f499793c" target="_top" xlink:title="MapTile::setType Setzt den Typ der Kachel.">
<polygon fill="#ffffff" stroke="#000000" points="423.5,-.5 423.5,-19.5 521.5,-19.5 521.5,-.5 423.5,-.5"/>
<text text-anchor="middle" x="472.5" y="-7.5" font-family="Helvetica,sans-Serif" font-size="10.00" fill="#000000">MapTile::setType</text>
</a>
</g>
</g>
<!-- Node5&#45;&gt;Node12 -->
<g id="edge11" class="edge">
<title>Node5&#45;&gt;Node12</title>
<path fill="none" stroke="#191970" d="M331.5649,-136.2278C339.3953,-133.3907 346.8597,-129.4511 353,-124 386.7662,-94.0241 354.9401,-58.6418 389,-29 396.0005,-22.9076 404.5516,-18.6566 413.4809,-15.7113"/>
<polygon fill="#191970" stroke="#191970" points="414.5599,-19.0443 423.2631,-13.0024 412.6917,-12.2982 414.5599,-19.0443"/>
</g>
<!-- Node12&#45;&gt;Node10 -->
<g id="edge13" class="edge">
<title>Node12&#45;&gt;Node10</title>
<path fill="none" stroke="#191970" d="M520.5325,-19.5752C532.2326,-22.2785 544.645,-25.4611 556,-29 577.9944,-35.8548 602.0856,-45.517 620.5042,-53.3827"/>
<polygon fill="#191970" stroke="#191970" points="619.2726,-56.6634 629.8401,-57.4229 622.0527,-50.2391 619.2726,-56.6634"/>
</g>
<!-- Node13 -->
<g id="node13" class="node">
<title>Node13</title>
<g id="a_node13"><a xlink:href="classGraphicsManager.html#aa094318dfcf4d0d399296b323dd670c6" target="_top" xlink:title="GraphicsManager::get Liefert eine Grafik mit einem bestimmten Namen.">
<polygon fill="#ffffff" stroke="#000000" points="592,-.5 592,-19.5 710,-19.5 710,-.5 592,-.5"/>
<text text-anchor="middle" x="651" y="-7.5" font-family="Helvetica,sans-Serif" font-size="10.00" fill="#000000">GraphicsManager::get</text>
</a>
</g>
</g>
<!-- Node12&#45;&gt;Node13 -->
<g id="edge12" class="edge">
<title>Node12&#45;&gt;Node13</title>
<path fill="none" stroke="#191970" d="M521.7484,-10C540.2869,-10 561.7287,-10 581.7539,-10"/>
<polygon fill="#191970" stroke="#191970" points="581.7616,-13.5001 591.7616,-10 581.7616,-6.5001 581.7616,-13.5001"/>
</g>
</g>
</svg>
        <g id="navigator" transform="translate(0 0)" fill="#404254">
                <rect fill="#f2f5e9" fill-opacity="0.5" stroke="#606060" stroke-width=".5" x="0" y="0" width="60" height="60"/>
                <use id="zoomplus" xlink:href="#zoomPlus" x="17" y="9" onmousedown="handleZoom(evt,'in')"/>
                <use id="zoomminus" xlink:href="#zoomMin" x="42" y="9" onmousedown="handleZoom(evt,'out')"/>
                <use id="reset" xlink:href="#resetDef" x="30" y="36" onmousedown="handleReset()"/>
                <g id="arrowUp" xlink:href="#dirArrow" transform="translate(30 24)" onmousedown="handlePan(0,-1)">
                  <use xlink:href="#rim" fill="#404040">
                        <set attributeName="fill" to="#808080" begin="arrowUp.mouseover" end="arrowUp.mouseout"/>
                  </use>
                  <path fill="none" stroke="white" stroke-width="1.5" d="M0,-3.0v7 M-2.5,-0.5L0,-3.0L2.5,-0.5"/>
                </g>
                <g id="arrowRight" xlink:href="#dirArrow" transform="rotate(90) translate(36 -43)" onmousedown="handlePan(1,0)">
                  <use xlink:href="#rim" fill="#404040">
                        <set attributeName="fill" to="#808080" begin="arrowRight.mouseover" end="arrowRight.mouseout"/>
                  </use>
                  <path fill="none" stroke="white" stroke-width="1.5" d="M0,-3.0v7 M-2.5,-0.5L0,-3.0L2.5,-0.5"/>
                </g>
                <g id="arrowDown" xlink:href="#dirArrow" transform="rotate(180) translate(-30 -48)" onmousedown="handlePan(0,1)">
                  <use xlink:href="#rim" fill="#404040">
                        <set attributeName="fill" to="#808080" begin="arrowDown.mouseover" end="arrowDown.mouseout"/>
                  </use>
                  <path fill="none" stroke="white" stroke-width="1.5" d="M0,-3.0v7 M-2.5,-0.5L0,-3.0L2.5,-0.5"/>
                </g>
                <g id="arrowLeft" xlink:href="#dirArrow" transform="rotate(270) translate(-36 17)" onmousedown="handlePan(-1,0)">
                  <use xlink:href="#rim" fill="#404040">
                        <set attributeName="fill" to="#808080" begin="arrowLeft.mouseover" end="arrowLeft.mouseout"/>
                  </use>
                  <path fill="none" stroke="white" stroke-width="1.5" d="M0,-3.0v7 M-2.5,-0.5L0,-3.0L2.5,-0.5"/>
                </g>
        </g>
        <svg viewBox="0 0 15 15" width="100%" height="30px" preserveAspectRatio="xMaxYMin meet">
         <g id="arrow_out" transform="scale(0.3 0.3)">
          <a xlink:href="classMapRenderer_a9f43e4b3db6a2cda8ea7cabf1bc6f805_cgraph_org.svg" target="_base">
           <rect id="button" ry="5" rx="5" y="6" x="6" height="38" width="38"
                fill="#f2f5e9" fill-opacity="0.5" stroke="#606060" stroke-width="1.0"/>
           <path id="arrow"
             d="M 11.500037,31.436501 C 11.940474,20.09759 22.043105,11.32322 32.158766,21.979434 L 37.068811,17.246167 C 37.068811,17.246167 37.088388,32 37.088388,32 L 22.160133,31.978069 C 22.160133,31.978069 26.997745,27.140456 26.997745,27.140456 C 18.528582,18.264221 13.291696,25.230495 11.500037,31.436501 z"
             style="fill:#404040;"/>
          </a>
         </g>
        </svg>
</svg>
