<?xml version="1.0" encoding="UTF-8" standalone="no"?>
<!DOCTYPE svg PUBLIC "-//W3C//DTD SVG 1.1//EN"
 "http://www.w3.org/Graphics/SVG/1.1/DTD/svg11.dtd">
<!-- Generated by graphviz version 2.40.1 (20161225.0304)
 -->
<!-- Title: Minimap::mouseMoveEvent Pages: 1 -->
<svg width="517pt" height="75pt"
 viewBox="0.00 0.00 517.00 74.50" xmlns="http://www.w3.org/2000/svg" xmlns:xlink="http://www.w3.org/1999/xlink">
<g id="graph0" class="graph" transform="scale(1 1) rotate(0) translate(4 70.5)">
<title>Minimap::mouseMoveEvent</title>
<polygon fill="#ffffff" stroke="transparent" points="-4,4 -4,-70.5 513,-70.5 513,4 -4,4"/>
<!-- Node1 -->
<g id="node1" class="node">
<title>Node1</title>
<g id="a_node1"><a xlink:title="Minimap::mouseMoveEvent Wird aufgerufen wenn die Maus bewegt wurde. Erwirkt Vorschau der Koordinaten.">
<polygon fill="#bfbfbf" stroke="#000000" points="0,-28 0,-47 141,-47 141,-28 0,-28"/>
<text text-anchor="middle" x="70.5" y="-35" font-family="Helvetica,sans-Serif" font-size="10.00" fill="#000000">Minimap::mouseMoveEvent</text>
</a>
</g>
</g>
<!-- Node2 -->
<g id="node2" class="node">
<title>Node2</title>
<g id="a_node2"><a xlink:href="classPoint.html#a773af172e76895550d05b081b15493fb" target="_top" xlink:title="Point::set Ändert die Koordinaten.">
<polygon fill="#ffffff" stroke="#000000" points="400,-47 400,-66 459,-66 459,-47 400,-47"/>
<text text-anchor="middle" x="429.5" y="-54" font-family="Helvetica,sans-Serif" font-size="10.00" fill="#000000">Point::set</text>
</a>
</g>
</g>
<!-- Node1&#45;&gt;Node2 -->
<g id="edge1" class="edge">
<title>Node1&#45;&gt;Node2</title>
<path fill="none" stroke="#191970" d="M141.4268,-41.2538C215.6428,-45.1817 329.5236,-51.2088 389.4508,-54.3804"/>
<polygon fill="#191970" stroke="#191970" points="389.4703,-57.8862 399.6413,-54.9197 389.8403,-50.896 389.4703,-57.8862"/>
</g>
<!-- Node3 -->
<g id="node3" class="node">
<title>Node3</title>
<g id="a_node3"><a xlink:href="classMapRenderer.html#a4cb99b1a8f20b978c64f41e22cde070d" target="_top" xlink:title="MapRenderer::setViewportTilePosition Verschiebt den Viewport zu einer Tile&#45;Koordinate.">
<polygon fill="#ffffff" stroke="#000000" points="177,-.5 177,-30.5 314,-30.5 314,-.5 177,-.5"/>
<text text-anchor="start" x="185" y="-18.5" font-family="Helvetica,sans-Serif" font-size="10.00" fill="#000000">MapRenderer::setViewport</text>
<text text-anchor="middle" x="245.5" y="-7.5" font-family="Helvetica,sans-Serif" font-size="10.00" fill="#000000">TilePosition</text>
</a>
</g>
</g>
<!-- Node1&#45;&gt;Node3 -->
<g id="edge2" class="edge">
<title>Node1&#45;&gt;Node3</title>
<path fill="none" stroke="#191970" d="M141.1748,-28.6152C149.6293,-27.5523 158.3016,-26.4621 166.8596,-25.3862"/>
<polygon fill="#191970" stroke="#191970" points="167.3484,-28.8524 176.8337,-24.1323 166.4752,-21.9071 167.3484,-28.8524"/>
</g>
<!-- Node3&#45;&gt;Node2 -->
<g id="edge3" class="edge">
<title>Node3&#45;&gt;Node2</title>
<path fill="none" stroke="#191970" d="M312.97,-30.5341C338.7636,-36.2816 367.3324,-42.6474 389.7272,-47.6376"/>
<polygon fill="#191970" stroke="#191970" points="389.0283,-51.0676 399.5502,-49.8264 390.5508,-44.2352 389.0283,-51.0676"/>
</g>
<!-- Node4 -->
<g id="node4" class="node">
<title>Node4</title>
<g id="a_node4"><a xlink:href="classDataModel.html#a2dcc97fd7387151077bcb3794b1614af" target="_top" xlink:title="DataModel::updateCoordinates Aktualisiert die Koordinaten des fokussierten Quadrantens.">
<polygon fill="#ffffff" stroke="#000000" points="350,-6 350,-25 509,-25 509,-6 350,-6"/>
<text text-anchor="middle" x="429.5" y="-13" font-family="Helvetica,sans-Serif" font-size="10.00" fill="#000000">DataModel::updateCoordinates</text>
</a>
</g>
</g>
<!-- Node3&#45;&gt;Node4 -->
<g id="edge4" class="edge">
<title>Node3&#45;&gt;Node4</title>
<path fill="none" stroke="#191970" d="M314.0148,-15.5C322.3868,-15.5 331.0369,-15.5 339.6616,-15.5"/>
<polygon fill="#191970" stroke="#191970" points="339.7565,-19.0001 349.7565,-15.5 339.7564,-12.0001 339.7565,-19.0001"/>
</g>
</g>
</svg>
