<?xml version="1.0" encoding="UTF-8" standalone="no"?>
<!DOCTYPE svg PUBLIC "-//W3C//DTD SVG 1.1//EN"
 "http://www.w3.org/Graphics/SVG/1.1/DTD/svg11.dtd">
<!-- Generated by graphviz version 2.40.1 (20161225.0304)
 -->
<!-- Title: RenderThread Pages: 1 -->
<svg width="623pt" height="1351pt"
 viewBox="0.00 0.00 623.00 1351.00" xmlns="http://www.w3.org/2000/svg" xmlns:xlink="http://www.w3.org/1999/xlink">
<g id="graph0" class="graph" transform="scale(1 1) rotate(0) translate(4 1347)">
<title>RenderThread</title>
<polygon fill="#ffffff" stroke="transparent" points="-4,4 -4,-1347 619,-1347 619,4 -4,4"/>
<!-- Node1 -->
<g id="node1" class="node">
<title>Node1</title>
<g id="a_node1"><a xlink:title=" ">
<polygon fill="#bfbfbf" stroke="#000000" points="103,-.5 103,-68.5 201,-68.5 201,-.5 103,-.5"/>
<text text-anchor="middle" x="152" y="-56.5" font-family="Helvetica,sans-Serif" font-size="10.00" fill="#000000">RenderThread</text>
<polyline fill="none" stroke="#000000" points="103,-49.5 201,-49.5 "/>
<text text-anchor="middle" x="152" y="-37.5" font-family="Helvetica,sans-Serif" font-size="10.00" fill="#000000"> </text>
<polyline fill="none" stroke="#000000" points="103,-30.5 201,-30.5 "/>
<text text-anchor="start" x="111" y="-18.5" font-family="Helvetica,sans-Serif" font-size="10.00" fill="#000000">+ RenderThread()</text>
<text text-anchor="start" x="111" y="-7.5" font-family="Helvetica,sans-Serif" font-size="10.00" fill="#000000">+ run()</text>
</a>
</g>
</g>
<!-- Node2 -->
<g id="node2" class="node">
<title>Node2</title>
<g id="a_node2"><a xlink:title=" ">
<polygon fill="#ffffff" stroke="#bfbfbf" points="107,-248.5 107,-305.5 165,-305.5 165,-248.5 107,-248.5"/>
<text text-anchor="middle" x="136" y="-293.5" font-family="Helvetica,sans-Serif" font-size="10.00" fill="#000000">QThread</text>
<polyline fill="none" stroke="#bfbfbf" points="107,-286.5 165,-286.5 "/>
<text text-anchor="middle" x="136" y="-274.5" font-family="Helvetica,sans-Serif" font-size="10.00" fill="#000000"> </text>
<polyline fill="none" stroke="#bfbfbf" points="107,-267.5 165,-267.5 "/>
<text text-anchor="middle" x="136" y="-255.5" font-family="Helvetica,sans-Serif" font-size="10.00" fill="#000000"> </text>
</a>
</g>
</g>
<!-- Node2&#45;&gt;Node1 -->
<g id="edge1" class="edge">
<title>Node2&#45;&gt;Node1</title>
<path fill="none" stroke="#191970" d="M138.5623,-238.1652C141.6526,-191.3278 146.7982,-113.3396 149.7444,-68.6859"/>
<polygon fill="none" stroke="#191970" points="135.0643,-238.021 137.8982,-248.2298 142.0491,-238.4819 135.0643,-238.021"/>
</g>
<!-- Node3 -->
<g id="node3" class="node">
<title>Node3</title>
<g id="a_node3"><a xlink:href="classMapRenderer.html" target="_top" xlink:title=" ">
<polygon fill="#ffffff" stroke="#000000" points="183.5,-116.5 183.5,-437.5 308.5,-437.5 308.5,-116.5 183.5,-116.5"/>
<text text-anchor="middle" x="246" y="-425.5" font-family="Helvetica,sans-Serif" font-size="10.00" fill="#000000">MapRenderer</text>
<polyline fill="none" stroke="#000000" points="183.5,-418.5 308.5,-418.5 "/>
<text text-anchor="start" x="191.5" y="-406.5" font-family="Helvetica,sans-Serif" font-size="10.00" fill="#000000">+ codeCount</text>
<text text-anchor="start" x="191.5" y="-395.5" font-family="Helvetica,sans-Serif" font-size="10.00" fill="#000000">&#45; mouseDown</text>
<text text-anchor="start" x="191.5" y="-384.5" font-family="Helvetica,sans-Serif" font-size="10.00" fill="#000000">&#45; offsetTargetX</text>
<text text-anchor="start" x="191.5" y="-373.5" font-family="Helvetica,sans-Serif" font-size="10.00" fill="#000000">&#45; offsetTargetY</text>
<text text-anchor="start" x="191.5" y="-362.5" font-family="Helvetica,sans-Serif" font-size="10.00" fill="#000000">&#45; showHighlight</text>
<text text-anchor="start" x="191.5" y="-351.5" font-family="Helvetica,sans-Serif" font-size="10.00" fill="#000000">&#45; rendering</text>
<text text-anchor="start" x="191.5" y="-340.5" font-family="Helvetica,sans-Serif" font-size="10.00" fill="#000000">&#45; renderTime</text>
<text text-anchor="start" x="191.5" y="-329.5" font-family="Helvetica,sans-Serif" font-size="10.00" fill="#000000">&#45; scale</text>
<text text-anchor="start" x="191.5" y="-318.5" font-family="Helvetica,sans-Serif" font-size="10.00" fill="#000000">&#45; showExpertDetails</text>
<text text-anchor="start" x="191.5" y="-307.5" font-family="Helvetica,sans-Serif" font-size="10.00" fill="#000000">&#45; movementAnimations</text>
<text text-anchor="start" x="191.5" y="-296.5" font-family="Helvetica,sans-Serif" font-size="10.00" fill="#000000">&#45; lastFpsTake</text>
<text text-anchor="start" x="191.5" y="-285.5" font-family="Helvetica,sans-Serif" font-size="10.00" fill="#000000">und 16 mehr ...</text>
<polyline fill="none" stroke="#000000" points="183.5,-278.5 308.5,-278.5 "/>
<text text-anchor="start" x="191.5" y="-266.5" font-family="Helvetica,sans-Serif" font-size="10.00" fill="#000000">+ MapRenderer()</text>
<text text-anchor="start" x="191.5" y="-255.5" font-family="Helvetica,sans-Serif" font-size="10.00" fill="#000000">+ paintEvent()</text>
<text text-anchor="start" x="191.5" y="-244.5" font-family="Helvetica,sans-Serif" font-size="10.00" fill="#000000">+ mousePressEvent()</text>
<text text-anchor="start" x="191.5" y="-233.5" font-family="Helvetica,sans-Serif" font-size="10.00" fill="#000000">+ mouseReleaseEvent()</text>
<text text-anchor="start" x="191.5" y="-222.5" font-family="Helvetica,sans-Serif" font-size="10.00" fill="#000000">+ mouseMoveEvent()</text>
<text text-anchor="start" x="191.5" y="-211.5" font-family="Helvetica,sans-Serif" font-size="10.00" fill="#000000">+ wheelEvent()</text>
<text text-anchor="start" x="191.5" y="-200.5" font-family="Helvetica,sans-Serif" font-size="10.00" fill="#000000">+ keyReleaseEvent()</text>
<text text-anchor="start" x="191.5" y="-189.5" font-family="Helvetica,sans-Serif" font-size="10.00" fill="#000000">+ tick()</text>
<text text-anchor="start" x="191.5" y="-178.5" font-family="Helvetica,sans-Serif" font-size="10.00" fill="#000000">+ logicUpdate()</text>
<text text-anchor="start" x="191.5" y="-167.5" font-family="Helvetica,sans-Serif" font-size="10.00" fill="#000000">+ renderFrame()</text>
<text text-anchor="start" x="191.5" y="-156.5" font-family="Helvetica,sans-Serif" font-size="10.00" fill="#000000">und 13 mehr ...</text>
<text text-anchor="start" x="191.5" y="-145.5" font-family="Helvetica,sans-Serif" font-size="10.00" fill="#000000">+ onTileChange()</text>
<text text-anchor="start" x="191.5" y="-134.5" font-family="Helvetica,sans-Serif" font-size="10.00" fill="#000000">+ enableHighlight()</text>
<text text-anchor="start" x="191.5" y="-123.5" font-family="Helvetica,sans-Serif" font-size="10.00" fill="#000000">+ setLogicSpeed()</text>
</a>
</g>
</g>
<!-- Node3&#45;&gt;Node1 -->
<g id="edge2" class="edge">
<title>Node3&#45;&gt;Node1</title>
<path fill="none" stroke="#404040" d="M183.6931,-116.2614C178.6455,-103.2397 173.8623,-90.9001 169.6141,-79.9406"/>
<polygon fill="none" stroke="#404040" points="169.5642,-79.8117 163.666,-75.663 165.227,-68.6229 171.1252,-72.7716 169.5642,-79.8117"/>
<text text-anchor="middle" x="197.5" y="-90" font-family="Helvetica,sans-Serif" font-size="10.00" fill="#000000"> &#45;renderer</text>
</g>
<!-- Node4 -->
<g id="node4" class="node">
<title>Node4</title>
<g id="a_node4"><a xlink:title=" ">
<polygon fill="#ffffff" stroke="#bfbfbf" points="0,-683.5 0,-740.5 56,-740.5 56,-683.5 0,-683.5"/>
<text text-anchor="middle" x="28" y="-728.5" font-family="Helvetica,sans-Serif" font-size="10.00" fill="#000000">QWidget</text>
<polyline fill="none" stroke="#bfbfbf" points="0,-721.5 56,-721.5 "/>
<text text-anchor="middle" x="28" y="-709.5" font-family="Helvetica,sans-Serif" font-size="10.00" fill="#000000"> </text>
<polyline fill="none" stroke="#bfbfbf" points="0,-702.5 56,-702.5 "/>
<text text-anchor="middle" x="28" y="-690.5" font-family="Helvetica,sans-Serif" font-size="10.00" fill="#000000"> </text>
</a>
</g>
</g>
<!-- Node4&#45;&gt;Node3 -->
<g id="edge3" class="edge">
<title>Node4&#45;&gt;Node3</title>
<path fill="none" stroke="#191970" d="M23.3342,-673.2419C18.925,-617.0859 20.0253,-513.5394 78,-456 108.8111,-425.4202 139.9152,-464.8825 174,-438 177.2456,-435.4402 180.3491,-432.7027 183.3165,-429.8132"/>
<polygon fill="none" stroke="#191970" points="19.8727,-673.8319 24.2417,-683.484 26.8454,-673.2141 19.8727,-673.8319"/>
</g>
<!-- Node5 -->
<g id="node5" class="node">
<title>Node5</title>
<g id="a_node5"><a xlink:href="classMapTile.html" target="_top" xlink:title=" ">
<polygon fill="#ffffff" stroke="#000000" points="195,-617.5 195,-806.5 297,-806.5 297,-617.5 195,-617.5"/>
<text text-anchor="middle" x="246" y="-794.5" font-family="Helvetica,sans-Serif" font-size="10.00" fill="#000000">MapTile</text>
<polyline fill="none" stroke="#000000" points="195,-787.5 297,-787.5 "/>
<text text-anchor="start" x="203" y="-775.5" font-family="Helvetica,sans-Serif" font-size="10.00" fill="#000000">&#45; type</text>
<text text-anchor="start" x="203" y="-764.5" font-family="Helvetica,sans-Serif" font-size="10.00" fill="#000000">&#45; pixmapItem</text>
<text text-anchor="start" x="203" y="-753.5" font-family="Helvetica,sans-Serif" font-size="10.00" fill="#000000">&#45; currentRotation</text>
<polyline fill="none" stroke="#000000" points="195,-746.5 297,-746.5 "/>
<text text-anchor="start" x="203" y="-734.5" font-family="Helvetica,sans-Serif" font-size="10.00" fill="#000000">+ MapTile()</text>
<text text-anchor="start" x="203" y="-723.5" font-family="Helvetica,sans-Serif" font-size="10.00" fill="#000000">+ MapTile()</text>
<text text-anchor="start" x="203" y="-712.5" font-family="Helvetica,sans-Serif" font-size="10.00" fill="#000000">+ setType()</text>
<text text-anchor="start" x="203" y="-701.5" font-family="Helvetica,sans-Serif" font-size="10.00" fill="#000000">+ getType()</text>
<text text-anchor="start" x="203" y="-690.5" font-family="Helvetica,sans-Serif" font-size="10.00" fill="#000000">+ setRotation()</text>
<text text-anchor="start" x="203" y="-679.5" font-family="Helvetica,sans-Serif" font-size="10.00" fill="#000000">+ getRotation()</text>
<text text-anchor="start" x="203" y="-668.5" font-family="Helvetica,sans-Serif" font-size="10.00" fill="#000000">+ getRotationDeg()</text>
<text text-anchor="start" x="203" y="-657.5" font-family="Helvetica,sans-Serif" font-size="10.00" fill="#000000">+ setPosition()</text>
<text text-anchor="start" x="203" y="-646.5" font-family="Helvetica,sans-Serif" font-size="10.00" fill="#000000">+ isRiver()</text>
<text text-anchor="start" x="203" y="-635.5" font-family="Helvetica,sans-Serif" font-size="10.00" fill="#000000">+ isRail()</text>
<text text-anchor="start" x="203" y="-624.5" font-family="Helvetica,sans-Serif" font-size="10.00" fill="#000000">und 6 mehr ...</text>
</a>
</g>
</g>
<!-- Node5&#45;&gt;Node3 -->
<g id="edge4" class="edge">
<title>Node5&#45;&gt;Node3</title>
<path fill="none" stroke="#404040" d="M246,-617.3433C246,-568.3428 246,-506.9651 246,-449.8741"/>
<polygon fill="none" stroke="#404040" points="246.0001,-449.7625 242,-443.7626 246,-437.7625 250,-443.7625 246.0001,-449.7625"/>
<text text-anchor="middle" x="261" y="-475.5" font-family="Helvetica,sans-Serif" font-size="10.00" fill="#000000"> +data</text>
</g>
<!-- Node6 -->
<g id="node6" class="node">
<title>Node6</title>
<g id="a_node6"><a xlink:href="classGraphicsManager.html" target="_top" xlink:title=" ">
<polygon fill="#ffffff" stroke="#000000" points="54.5,-1008.5 54.5,-1076.5 167.5,-1076.5 167.5,-1008.5 54.5,-1008.5"/>
<text text-anchor="middle" x="111" y="-1064.5" font-family="Helvetica,sans-Serif" font-size="10.00" fill="#000000">GraphicsManager</text>
<polyline fill="none" stroke="#000000" points="54.5,-1057.5 167.5,-1057.5 "/>
<text text-anchor="start" x="62.5" y="-1045.5" font-family="Helvetica,sans-Serif" font-size="10.00" fill="#000000">+ GRAPHICS</text>
<polyline fill="none" stroke="#000000" points="54.5,-1038.5 167.5,-1038.5 "/>
<text text-anchor="start" x="62.5" y="-1026.5" font-family="Helvetica,sans-Serif" font-size="10.00" fill="#000000">+ GraphicsManager()</text>
<text text-anchor="start" x="62.5" y="-1015.5" font-family="Helvetica,sans-Serif" font-size="10.00" fill="#000000">+ get()</text>
</a>
</g>
</g>
<!-- Node6&#45;&gt;Node3 -->
<g id="edge7" class="edge">
<title>Node6&#45;&gt;Node3</title>
<path fill="none" stroke="#404040" d="M101.775,-1008.4443C80.2944,-922.5668 33.6772,-691.6564 101,-518 118.3986,-473.121 147.6175,-478.2592 174,-438 174.9965,-436.4794 175.9854,-434.9427 176.9667,-433.3916"/>
<polygon fill="none" stroke="#404040" points="177.0809,-433.2044 176.7905,-425.9991 183.3298,-422.9598 183.6202,-430.1651 177.0809,-433.2044"/>
<text text-anchor="middle" x="143.5" y="-709.5" font-family="Helvetica,sans-Serif" font-size="10.00" fill="#000000"> &#45;graphicsManager</text>
</g>
<!-- Node6&#45;&gt;Node5 -->
<g id="edge5" class="edge">
<title>Node6&#45;&gt;Node5</title>
<path fill="none" stroke="#404040" d="M118.8299,-1008.3157C125.8132,-983.1744 137.9319,-949.146 157,-924 165.0563,-913.3758 173.1955,-916.8105 181,-906 199.7129,-880.0795 213.3021,-848.4061 223.0573,-818.2286"/>
<polygon fill="none" stroke="#404040" points="223.0617,-818.2143 221.0153,-811.2996 226.6111,-806.7512 228.6574,-813.6659 223.0617,-818.2143"/>
<text text-anchor="middle" x="199.5" y="-927" font-family="Helvetica,sans-Serif" font-size="10.00" fill="#000000"> &#45;graphicsManager</text>
</g>
<!-- Node7 -->
<g id="node7" class="node">
<title>Node7</title>
<g id="a_node7"><a xlink:href="classCity.html" target="_top" xlink:title=" ">
<polygon fill="#ffffff" stroke="#000000" points="204.5,-953.5 204.5,-1131.5 287.5,-1131.5 287.5,-953.5 204.5,-953.5"/>
<text text-anchor="middle" x="246" y="-1119.5" font-family="Helvetica,sans-Serif" font-size="10.00" fill="#000000">City</text>
<polyline fill="none" stroke="#000000" points="204.5,-1112.5 287.5,-1112.5 "/>
<text text-anchor="start" x="212.5" y="-1100.5" font-family="Helvetica,sans-Serif" font-size="10.00" fill="#000000">&#45; size</text>
<text text-anchor="start" x="212.5" y="-1089.5" font-family="Helvetica,sans-Serif" font-size="10.00" fill="#000000">&#45; centerX</text>
<text text-anchor="start" x="212.5" y="-1078.5" font-family="Helvetica,sans-Serif" font-size="10.00" fill="#000000">&#45; centerY</text>
<text text-anchor="start" x="212.5" y="-1067.5" font-family="Helvetica,sans-Serif" font-size="10.00" fill="#000000">&#45; name</text>
<polyline fill="none" stroke="#000000" points="204.5,-1060.5 287.5,-1060.5 "/>
<text text-anchor="start" x="212.5" y="-1048.5" font-family="Helvetica,sans-Serif" font-size="10.00" fill="#000000">+ City()</text>
<text text-anchor="start" x="212.5" y="-1037.5" font-family="Helvetica,sans-Serif" font-size="10.00" fill="#000000">+ City()</text>
<text text-anchor="start" x="212.5" y="-1026.5" font-family="Helvetica,sans-Serif" font-size="10.00" fill="#000000">+ getSize()</text>
<text text-anchor="start" x="212.5" y="-1015.5" font-family="Helvetica,sans-Serif" font-size="10.00" fill="#000000">+ getCenterX()</text>
<text text-anchor="start" x="212.5" y="-1004.5" font-family="Helvetica,sans-Serif" font-size="10.00" fill="#000000">+ getCenterY()</text>
<text text-anchor="start" x="212.5" y="-993.5" font-family="Helvetica,sans-Serif" font-size="10.00" fill="#000000">+ getName()</text>
<text text-anchor="start" x="212.5" y="-982.5" font-family="Helvetica,sans-Serif" font-size="10.00" fill="#000000">+ setSize()</text>
<text text-anchor="start" x="212.5" y="-971.5" font-family="Helvetica,sans-Serif" font-size="10.00" fill="#000000">+ setCenter()</text>
<text text-anchor="start" x="212.5" y="-960.5" font-family="Helvetica,sans-Serif" font-size="10.00" fill="#000000">+ setName()</text>
</a>
</g>
</g>
<!-- Node7&#45;&gt;Node5 -->
<g id="edge6" class="edge">
<title>Node7&#45;&gt;Node5</title>
<path fill="none" stroke="#404040" d="M246,-953.4973C246,-911.992 246,-862.2673 246,-818.7551"/>
<polygon fill="none" stroke="#404040" points="246.0001,-818.6592 242,-812.6592 246,-806.6592 250,-812.6592 246.0001,-818.6592"/>
<text text-anchor="middle" x="257" y="-927" font-family="Helvetica,sans-Serif" font-size="10.00" fill="#000000"> &#45;city</text>
</g>
<!-- Node8 -->
<g id="node8" class="node">
<title>Node8</title>
<g id="a_node8"><a xlink:href="classPoint.html" target="_top" xlink:title=" ">
<polygon fill="#ffffff" stroke="#000000" points="315,-645 315,-779 373,-779 373,-645 315,-645"/>
<text text-anchor="middle" x="344" y="-767" font-family="Helvetica,sans-Serif" font-size="10.00" fill="#000000">Point</text>
<polyline fill="none" stroke="#000000" points="315,-760 373,-760 "/>
<text text-anchor="start" x="323" y="-748" font-family="Helvetica,sans-Serif" font-size="10.00" fill="#000000">&#45; x</text>
<text text-anchor="start" x="323" y="-737" font-family="Helvetica,sans-Serif" font-size="10.00" fill="#000000">&#45; y</text>
<polyline fill="none" stroke="#000000" points="315,-730 373,-730 "/>
<text text-anchor="start" x="323" y="-718" font-family="Helvetica,sans-Serif" font-size="10.00" fill="#000000">+ Point()</text>
<text text-anchor="start" x="323" y="-707" font-family="Helvetica,sans-Serif" font-size="10.00" fill="#000000">+ getX()</text>
<text text-anchor="start" x="323" y="-696" font-family="Helvetica,sans-Serif" font-size="10.00" fill="#000000">+ getY()</text>
<text text-anchor="start" x="323" y="-685" font-family="Helvetica,sans-Serif" font-size="10.00" fill="#000000">+ add()</text>
<text text-anchor="start" x="323" y="-674" font-family="Helvetica,sans-Serif" font-size="10.00" fill="#000000">+ set()</text>
<text text-anchor="start" x="323" y="-663" font-family="Helvetica,sans-Serif" font-size="10.00" fill="#000000">+ move()</text>
<text text-anchor="start" x="323" y="-652" font-family="Helvetica,sans-Serif" font-size="10.00" fill="#000000">+ toTile()</text>
</a>
</g>
</g>
<!-- Node8&#45;&gt;Node3 -->
<g id="edge8" class="edge">
<title>Node8&#45;&gt;Node3</title>
<path fill="none" stroke="#404040" d="M331.7291,-644.9371C324.6607,-607.4914 315.3456,-560.0462 306,-518 301.0805,-495.8673 295.6506,-472.6587 290.1273,-449.7501"/>
<polygon fill="none" stroke="#404040" points="290.0589,-449.4675 284.7584,-444.5784 287.2328,-437.8051 292.5333,-442.6942 290.0589,-449.4675"/>
<text text-anchor="middle" x="332.5" y="-492" font-family="Helvetica,sans-Serif" font-size="10.00" fill="#000000"> &#45;activeTile</text>
<text text-anchor="middle" x="332.5" y="-481" font-family="Helvetica,sans-Serif" font-size="10.00" fill="#000000">&#45;dragOrigin</text>
<text text-anchor="middle" x="332.5" y="-470" font-family="Helvetica,sans-Serif" font-size="10.00" fill="#000000">+offset</text>
<text text-anchor="middle" x="332.5" y="-459" font-family="Helvetica,sans-Serif" font-size="10.00" fill="#000000">&#45;dragPosition</text>
</g>
<!-- Node9 -->
<g id="node9" class="node">
<title>Node9</title>
<g id="a_node9"><a xlink:href="classDataModel.html" target="_top" xlink:title=" ">
<polygon fill="#ffffff" stroke="#000000" points="391.5,-518.5 391.5,-905.5 528.5,-905.5 528.5,-518.5 391.5,-518.5"/>
<text text-anchor="middle" x="460" y="-893.5" font-family="Helvetica,sans-Serif" font-size="10.00" fill="#000000">DataModel</text>
<polyline fill="none" stroke="#000000" points="391.5,-886.5 528.5,-886.5 "/>
<text text-anchor="start" x="399.5" y="-874.5" font-family="Helvetica,sans-Serif" font-size="10.00" fill="#000000">&#45; balance</text>
<text text-anchor="start" x="399.5" y="-863.5" font-family="Helvetica,sans-Serif" font-size="10.00" fill="#000000">&#45; time</text>
<text text-anchor="start" x="399.5" y="-852.5" font-family="Helvetica,sans-Serif" font-size="10.00" fill="#000000">&#45; coordinateX</text>
<text text-anchor="start" x="399.5" y="-841.5" font-family="Helvetica,sans-Serif" font-size="10.00" fill="#000000">&#45; coordinateY</text>
<text text-anchor="start" x="399.5" y="-830.5" font-family="Helvetica,sans-Serif" font-size="10.00" fill="#000000">&#45; mapLoaded</text>
<text text-anchor="start" x="399.5" y="-819.5" font-family="Helvetica,sans-Serif" font-size="10.00" fill="#000000">&#45; ip</text>
<text text-anchor="start" x="399.5" y="-808.5" font-family="Helvetica,sans-Serif" font-size="10.00" fill="#000000">&#45; port</text>
<text text-anchor="start" x="399.5" y="-797.5" font-family="Helvetica,sans-Serif" font-size="10.00" fill="#000000">&#45; balanceLabel</text>
<text text-anchor="start" x="399.5" y="-786.5" font-family="Helvetica,sans-Serif" font-size="10.00" fill="#000000">&#45; timeLabel</text>
<text text-anchor="start" x="399.5" y="-775.5" font-family="Helvetica,sans-Serif" font-size="10.00" fill="#000000">&#45; positionLabel</text>
<text text-anchor="start" x="399.5" y="-764.5" font-family="Helvetica,sans-Serif" font-size="10.00" fill="#000000">&#45; statusDisplay</text>
<text text-anchor="start" x="399.5" y="-753.5" font-family="Helvetica,sans-Serif" font-size="10.00" fill="#000000">&#45; connectionLabel</text>
<text text-anchor="start" x="399.5" y="-742.5" font-family="Helvetica,sans-Serif" font-size="10.00" fill="#000000">&#45; mode</text>
<polyline fill="none" stroke="#000000" points="391.5,-735.5 528.5,-735.5 "/>
<text text-anchor="start" x="399.5" y="-723.5" font-family="Helvetica,sans-Serif" font-size="10.00" fill="#000000">+ DataModel()</text>
<text text-anchor="start" x="399.5" y="-712.5" font-family="Helvetica,sans-Serif" font-size="10.00" fill="#000000">+ getBalance()</text>
<text text-anchor="start" x="399.5" y="-701.5" font-family="Helvetica,sans-Serif" font-size="10.00" fill="#000000">+ updateBalance()</text>
<text text-anchor="start" x="399.5" y="-690.5" font-family="Helvetica,sans-Serif" font-size="10.00" fill="#000000">+ takeBalance()</text>
<text text-anchor="start" x="399.5" y="-679.5" font-family="Helvetica,sans-Serif" font-size="10.00" fill="#000000">+ timeTick()</text>
<text text-anchor="start" x="399.5" y="-668.5" font-family="Helvetica,sans-Serif" font-size="10.00" fill="#000000">+ getTime()</text>
<text text-anchor="start" x="399.5" y="-657.5" font-family="Helvetica,sans-Serif" font-size="10.00" fill="#000000">+ setTime()</text>
<text text-anchor="start" x="399.5" y="-646.5" font-family="Helvetica,sans-Serif" font-size="10.00" fill="#000000">+ getSystemMillis()</text>
<text text-anchor="start" x="399.5" y="-635.5" font-family="Helvetica,sans-Serif" font-size="10.00" fill="#000000">+ updateCoordinates()</text>
<text text-anchor="start" x="399.5" y="-624.5" font-family="Helvetica,sans-Serif" font-size="10.00" fill="#000000">+ getHoverX()</text>
<text text-anchor="start" x="399.5" y="-613.5" font-family="Helvetica,sans-Serif" font-size="10.00" fill="#000000">und 13 mehr ...</text>
<text text-anchor="start" x="399.5" y="-602.5" font-family="Helvetica,sans-Serif" font-size="10.00" fill="#000000">+ setDefaultMode()</text>
<text text-anchor="start" x="399.5" y="-591.5" font-family="Helvetica,sans-Serif" font-size="10.00" fill="#000000">+ setTrainStationMode()</text>
<text text-anchor="start" x="399.5" y="-580.5" font-family="Helvetica,sans-Serif" font-size="10.00" fill="#000000">+ setDepotMode()</text>
<text text-anchor="start" x="399.5" y="-569.5" font-family="Helvetica,sans-Serif" font-size="10.00" fill="#000000">+ setTerminalMode()</text>
<text text-anchor="start" x="399.5" y="-558.5" font-family="Helvetica,sans-Serif" font-size="10.00" fill="#000000">+ setBridgeMode()</text>
<text text-anchor="start" x="399.5" y="-547.5" font-family="Helvetica,sans-Serif" font-size="10.00" fill="#000000">+ setRailPlacementMode()</text>
<text text-anchor="start" x="399.5" y="-536.5" font-family="Helvetica,sans-Serif" font-size="10.00" fill="#000000">+ setRemoveMode()</text>
<text text-anchor="start" x="399.5" y="-525.5" font-family="Helvetica,sans-Serif" font-size="10.00" fill="#000000">+ setMapLoaded()</text>
</a>
</g>
</g>
<!-- Node9&#45;&gt;Node3 -->
<g id="edge9" class="edge">
<title>Node9&#45;&gt;Node3</title>
<path fill="none" stroke="#404040" d="M395.4361,-518.31C386.6159,-496.959 377.0937,-475.8002 367,-456 352.2714,-427.1079 333.6908,-397.3152 315.5396,-370.5253"/>
<polygon fill="none" stroke="#404040" points="315.3944,-370.3132 308.7036,-367.6236 308.613,-360.413 315.3037,-363.1026 315.3944,-370.3132"/>
<text text-anchor="middle" x="414.5" y="-475.5" font-family="Helvetica,sans-Serif" font-size="10.00" fill="#000000"> &#45;dataModel</text>
</g>
<!-- Node10 -->
<g id="node10" class="node">
<title>Node10</title>
<g id="a_node10"><a xlink:title=" ">
<polygon fill="#ffffff" stroke="#bfbfbf" points="348.5,-1014 348.5,-1071 401.5,-1071 401.5,-1014 348.5,-1014"/>
<text text-anchor="middle" x="375" y="-1059" font-family="Helvetica,sans-Serif" font-size="10.00" fill="#000000">QObject</text>
<polyline fill="none" stroke="#bfbfbf" points="348.5,-1052 401.5,-1052 "/>
<text text-anchor="middle" x="375" y="-1040" font-family="Helvetica,sans-Serif" font-size="10.00" fill="#000000"> </text>
<polyline fill="none" stroke="#bfbfbf" points="348.5,-1033 401.5,-1033 "/>
<text text-anchor="middle" x="375" y="-1021" font-family="Helvetica,sans-Serif" font-size="10.00" fill="#000000"> </text>
</a>
</g>
</g>
<!-- Node10&#45;&gt;Node9 -->
<g id="edge10" class="edge">
<title>Node10&#45;&gt;Node9</title>
<path fill="none" stroke="#191970" d="M384.9425,-1003.8413C391.4721,-978.4525 400.5583,-943.1233 410.1599,-905.7899"/>
<polygon fill="none" stroke="#191970" points="381.4957,-1003.1918 382.3945,-1013.7485 388.2751,-1004.9354 381.4957,-1003.1918"/>
</g>
<!-- Node11 -->
<g id="node11" class="node">
<title>Node11</title>
<g id="a_node11"><a xlink:href="classPlayer.html" target="_top" xlink:title=" ">
<polygon fill="#ffffff" stroke="#000000" points="419.5,-1003 419.5,-1082 500.5,-1082 500.5,-1003 419.5,-1003"/>
<text text-anchor="middle" x="460" y="-1070" font-family="Helvetica,sans-Serif" font-size="10.00" fill="#000000">Player</text>
<polyline fill="none" stroke="#000000" points="419.5,-1063 500.5,-1063 "/>
<text text-anchor="start" x="427.5" y="-1051" font-family="Helvetica,sans-Serif" font-size="10.00" fill="#000000">+ posX</text>
<text text-anchor="start" x="427.5" y="-1040" font-family="Helvetica,sans-Serif" font-size="10.00" fill="#000000">+ posY</text>
<polyline fill="none" stroke="#000000" points="419.5,-1033 500.5,-1033 "/>
<text text-anchor="start" x="427.5" y="-1021" font-family="Helvetica,sans-Serif" font-size="10.00" fill="#000000">+ Player()</text>
<text text-anchor="start" x="427.5" y="-1010" font-family="Helvetica,sans-Serif" font-size="10.00" fill="#000000">+ setPosition()</text>
</a>
</g>
</g>
<!-- Node11&#45;&gt;Node9 -->
<g id="edge11" class="edge">
<title>Node11&#45;&gt;Node9</title>
<path fill="none" stroke="#404040" d="M460,-1002.9623C460,-980.3777 460,-950.1372 460,-917.6796"/>
<polygon fill="none" stroke="#404040" points="460.0001,-917.6313 456,-911.6313 460,-905.6313 464,-911.6313 460.0001,-917.6313"/>
<text text-anchor="middle" x="496.5" y="-927" font-family="Helvetica,sans-Serif" font-size="10.00" fill="#000000"> +secondPlayer</text>
</g>
<!-- Node12 -->
<g id="node12" class="node">
<title>Node12</title>
<g id="a_node12"><a xlink:href="classHighlighter.html" target="_top" xlink:title=" ">
<polygon fill="#ffffff" stroke="#000000" points="420.5,-1179.5 420.5,-1247.5 499.5,-1247.5 499.5,-1179.5 420.5,-1179.5"/>
<text text-anchor="middle" x="460" y="-1235.5" font-family="Helvetica,sans-Serif" font-size="10.00" fill="#000000">Highlighter</text>
<polyline fill="none" stroke="#000000" points="420.5,-1228.5 499.5,-1228.5 "/>
<text text-anchor="start" x="428.5" y="-1216.5" font-family="Helvetica,sans-Serif" font-size="10.00" fill="#000000">&#45; outline</text>
<polyline fill="none" stroke="#000000" points="420.5,-1209.5 499.5,-1209.5 "/>
<text text-anchor="start" x="428.5" y="-1197.5" font-family="Helvetica,sans-Serif" font-size="10.00" fill="#000000">+ Highlighter()</text>
<text text-anchor="start" x="428.5" y="-1186.5" font-family="Helvetica,sans-Serif" font-size="10.00" fill="#000000">+ setColor()</text>
</a>
</g>
</g>
<!-- Node12&#45;&gt;Node11 -->
<g id="edge12" class="edge">
<title>Node12&#45;&gt;Node11</title>
<path fill="none" stroke="#404040" d="M460,-1179.3066C460,-1154.9647 460,-1121.8183 460,-1094.249"/>
<polygon fill="none" stroke="#404040" points="460.0001,-1094.0262 456,-1088.0262 460,-1082.0262 464,-1088.0261 460.0001,-1094.0262"/>
<text text-anchor="middle" x="487.5" y="-1153" font-family="Helvetica,sans-Serif" font-size="10.00" fill="#000000"> +highlighter</text>
</g>
<!-- Node13 -->
<g id="node13" class="node">
<title>Node13</title>
<g id="a_node13"><a xlink:title=" ">
<polygon fill="#ffffff" stroke="#bfbfbf" points="408,-1285.5 408,-1342.5 512,-1342.5 512,-1285.5 408,-1285.5"/>
<text text-anchor="middle" x="460" y="-1330.5" font-family="Helvetica,sans-Serif" font-size="10.00" fill="#000000">QGraphicsRectItem</text>
<polyline fill="none" stroke="#bfbfbf" points="408,-1323.5 512,-1323.5 "/>
<text text-anchor="middle" x="460" y="-1311.5" font-family="Helvetica,sans-Serif" font-size="10.00" fill="#000000"> </text>
<polyline fill="none" stroke="#bfbfbf" points="408,-1304.5 512,-1304.5 "/>
<text text-anchor="middle" x="460" y="-1292.5" font-family="Helvetica,sans-Serif" font-size="10.00" fill="#000000"> </text>
</a>
</g>
</g>
<!-- Node13&#45;&gt;Node12 -->
<g id="edge13" class="edge">
<title>Node13&#45;&gt;Node12</title>
<path fill="none" stroke="#191970" d="M460,-1275.1903C460,-1266.1667 460,-1256.6233 460,-1247.8097"/>
<polygon fill="none" stroke="#191970" points="456.5001,-1275.4695 460,-1285.4696 463.5001,-1275.4696 456.5001,-1275.4695"/>
</g>
<!-- Node14 -->
<g id="node14" class="node">
<title>Node14</title>
<g id="a_node14"><a xlink:href="classMainWindow.html" target="_top" xlink:title=" ">
<polygon fill="#ffffff" stroke="#000000" points="519,-1008.5 519,-1076.5 615,-1076.5 615,-1008.5 519,-1008.5"/>
<text text-anchor="middle" x="567" y="-1064.5" font-family="Helvetica,sans-Serif" font-size="10.00" fill="#000000">MainWindow</text>
<polyline fill="none" stroke="#000000" points="519,-1057.5 615,-1057.5 "/>
<text text-anchor="start" x="527" y="-1045.5" font-family="Helvetica,sans-Serif" font-size="10.00" fill="#000000">&#45; ui</text>
<polyline fill="none" stroke="#000000" points="519,-1038.5 615,-1038.5 "/>
<text text-anchor="start" x="527" y="-1026.5" font-family="Helvetica,sans-Serif" font-size="10.00" fill="#000000">+ MainWindow()</text>
<text text-anchor="start" x="527" y="-1015.5" font-family="Helvetica,sans-Serif" font-size="10.00" fill="#000000">+ ~MainWindow()</text>
</a>
</g>
</g>
<!-- Node14&#45;&gt;Node9 -->
<g id="edge14" class="edge">
<title>Node14&#45;&gt;Node9</title>
<path fill="none" stroke="#404040" d="M559.2987,-1008.2805C553.7074,-984.4755 545.6348,-952.0955 537,-924 535.4955,-919.1048 533.9438,-914.1565 532.3536,-909.1733"/>
<polygon fill="none" stroke="#404040" points="532.2684,-908.9093 526.6168,-904.4304 528.5775,-897.491 534.229,-901.9698 532.2684,-908.9093"/>
<text text-anchor="middle" x="572.5" y="-927" font-family="Helvetica,sans-Serif" font-size="10.00" fill="#000000"> &#45;mainWindow</text>
</g>
<!-- Node15 -->
<g id="node15" class="node">
<title>Node15</title>
<g id="a_node15"><a xlink:title=" ">
<polygon fill="#ffffff" stroke="#bfbfbf" points="525.5,-1185 525.5,-1242 608.5,-1242 608.5,-1185 525.5,-1185"/>
<text text-anchor="middle" x="567" y="-1230" font-family="Helvetica,sans-Serif" font-size="10.00" fill="#000000">QMainWindow</text>
<polyline fill="none" stroke="#bfbfbf" points="525.5,-1223 608.5,-1223 "/>
<text text-anchor="middle" x="567" y="-1211" font-family="Helvetica,sans-Serif" font-size="10.00" fill="#000000"> </text>
<polyline fill="none" stroke="#bfbfbf" points="525.5,-1204 608.5,-1204 "/>
<text text-anchor="middle" x="567" y="-1192" font-family="Helvetica,sans-Serif" font-size="10.00" fill="#000000"> </text>
</a>
</g>
</g>
<!-- Node15&#45;&gt;Node14 -->
<g id="edge15" class="edge">
<title>Node15&#45;&gt;Node14</title>
<path fill="none" stroke="#191970" d="M567,-1174.5167C567,-1144.9698 567,-1104.768 567,-1076.5157"/>
<polygon fill="none" stroke="#191970" points="563.5001,-1174.8784 567,-1184.8784 570.5001,-1174.8785 563.5001,-1174.8784"/>
</g>
</g>
</svg>
