<?xml version="1.0" encoding="UTF-8" standalone="no"?>
<!DOCTYPE svg PUBLIC "-//W3C//DTD SVG 1.1//EN"
 "http://www.w3.org/Graphics/SVG/1.1/DTD/svg11.dtd">
<!-- Generated by graphviz version 2.40.1 (20161225.0304)
 -->
<!-- Title: MapRenderer::demo Pages: 1 -->
<svg width="475pt" height="262pt"
 viewBox="0.00 0.00 475.00 261.50" xmlns="http://www.w3.org/2000/svg" xmlns:xlink="http://www.w3.org/1999/xlink">
<g id="graph0" class="graph" transform="scale(1 1) rotate(0) translate(4 257.5)">
<title>MapRenderer::demo</title>
<polygon fill="#ffffff" stroke="transparent" points="-4,4 -4,-257.5 471,-257.5 471,4 -4,4"/>
<!-- Node1 -->
<g id="node1" class="node">
<title>Node1</title>
<g id="a_node1"><a xlink:title="MapRenderer::demo Zeigt eine Demo&#45;Visualisierung.">
<polygon fill="#bfbfbf" stroke="#000000" points="0,-114.5 0,-133.5 110,-133.5 110,-114.5 0,-114.5"/>
<text text-anchor="middle" x="55" y="-121.5" font-family="Helvetica,sans-Serif" font-size="10.00" fill="#000000">MapRenderer::demo</text>
</a>
</g>
</g>
<!-- Node2 -->
<g id="node2" class="node">
<title>Node2</title>
<g id="a_node2"><a xlink:href="classMapRenderer.html#a919be325b2604b720ed0fa2eb5676592" target="_top" xlink:title=" ">
<polygon fill="#ffffff" stroke="#000000" points="146,-228.5 146,-247.5 313,-247.5 313,-228.5 146,-228.5"/>
<text text-anchor="middle" x="229.5" y="-235.5" font-family="Helvetica,sans-Serif" font-size="10.00" fill="#000000">MapRenderer::animateMovement</text>
</a>
</g>
</g>
<!-- Node1&#45;&gt;Node2 -->
<g id="edge1" class="edge">
<title>Node1&#45;&gt;Node2</title>
<path fill="none" stroke="#191970" d="M61.2342,-133.5739C74.3992,-152.9719 107.049,-196.9396 146,-219 149.9638,-221.2449 154.1749,-223.2247 158.5174,-224.9705"/>
<polygon fill="#191970" stroke="#191970" points="157.5941,-228.3574 168.1887,-228.4311 159.9524,-221.7666 157.5941,-228.3574"/>
</g>
<!-- Node4 -->
<g id="node4" class="node">
<title>Node4</title>
<g id="a_node4"><a xlink:href="classCity.html#aa386d95c7f928b239bc4973ce816106d" target="_top" xlink:title="City::setCenter Setzt den Mittelpunkt der Stadt.">
<polygon fill="#ffffff" stroke="#000000" points="188,-190.5 188,-209.5 271,-209.5 271,-190.5 188,-190.5"/>
<text text-anchor="middle" x="229.5" y="-197.5" font-family="Helvetica,sans-Serif" font-size="10.00" fill="#000000">City::setCenter</text>
</a>
</g>
</g>
<!-- Node1&#45;&gt;Node4 -->
<g id="edge3" class="edge">
<title>Node1&#45;&gt;Node4</title>
<path fill="none" stroke="#191970" d="M67.2216,-133.551C84.0349,-146.2309 115.6746,-168.4757 146,-181 156.0999,-185.1712 167.2832,-188.5134 178.0954,-191.1589"/>
<polygon fill="#191970" stroke="#191970" points="177.3502,-194.5787 187.8789,-193.3962 178.9108,-187.7549 177.3502,-194.5787"/>
</g>
<!-- Node5 -->
<g id="node5" class="node">
<title>Node5</title>
<g id="a_node5"><a xlink:href="classMapTile.html#a95eefbf7247ae6adef4aaee0a35eaa4f" target="_top" xlink:title="MapTile::setCity.">
<polygon fill="#ffffff" stroke="#000000" points="184,-152.5 184,-171.5 275,-171.5 275,-152.5 184,-152.5"/>
<text text-anchor="middle" x="229.5" y="-159.5" font-family="Helvetica,sans-Serif" font-size="10.00" fill="#000000">MapTile::setCity</text>
</a>
</g>
</g>
<!-- Node1&#45;&gt;Node5 -->
<g id="edge4" class="edge">
<title>Node1&#45;&gt;Node5</title>
<path fill="none" stroke="#191970" d="M99.0337,-133.589C122.3721,-138.6713 151.2296,-144.9554 175.8658,-150.3203"/>
<polygon fill="#191970" stroke="#191970" points="175.2672,-153.7719 185.7829,-152.4799 176.7567,-146.9322 175.2672,-153.7719"/>
</g>
<!-- Node6 -->
<g id="node6" class="node">
<title>Node6</title>
<g id="a_node6"><a xlink:href="classCity.html#a198b26b45e0b52f27a18b3631db5070c" target="_top" xlink:title="City::setName Setzt den Namen der Stadt.">
<polygon fill="#ffffff" stroke="#000000" points="189.5,-114.5 189.5,-133.5 269.5,-133.5 269.5,-114.5 189.5,-114.5"/>
<text text-anchor="middle" x="229.5" y="-121.5" font-family="Helvetica,sans-Serif" font-size="10.00" fill="#000000">City::setName</text>
</a>
</g>
</g>
<!-- Node1&#45;&gt;Node6 -->
<g id="edge5" class="edge">
<title>Node1&#45;&gt;Node6</title>
<path fill="none" stroke="#191970" d="M110.2129,-124C132.2656,-124 157.4893,-124 179.0448,-124"/>
<polygon fill="#191970" stroke="#191970" points="179.3019,-127.5001 189.3019,-124 179.3018,-120.5001 179.3019,-127.5001"/>
</g>
<!-- Node7 -->
<g id="node7" class="node">
<title>Node7</title>
<g id="a_node7"><a xlink:href="classMapTile.html#a57b8310cfe045dc6a8e0c3c25fe9fc52" target="_top" xlink:title="MapTile::setRotation Hilfsfunktion zur Rotation im Quadrat.">
<polygon fill="#ffffff" stroke="#000000" points="353,-57.5 353,-76.5 463,-76.5 463,-57.5 353,-57.5"/>
<text text-anchor="middle" x="408" y="-64.5" font-family="Helvetica,sans-Serif" font-size="10.00" fill="#000000">MapTile::setRotation</text>
</a>
</g>
</g>
<!-- Node1&#45;&gt;Node7 -->
<g id="edge6" class="edge">
<title>Node1&#45;&gt;Node7</title>
<path fill="none" stroke="#191970" d="M97.9449,-114.4645C113.092,-111.2524 130.2659,-107.7808 146,-105 212.863,-93.1826 289.8047,-82.3498 342.9272,-75.3006"/>
<polygon fill="#191970" stroke="#191970" points="343.4363,-78.7638 352.8924,-73.9855 342.5204,-71.824 343.4363,-78.7638"/>
</g>
<!-- Node8 -->
<g id="node8" class="node">
<title>Node8</title>
<g id="a_node8"><a xlink:href="classCity.html#ac4ff08b2faa48f34b8ffbff37f4b0621" target="_top" xlink:title="City::setSize Gibt die Größe der Stadt zurück (Anzahl der Gebäude)">
<polygon fill="#ffffff" stroke="#000000" points="192.5,-38.5 192.5,-57.5 266.5,-57.5 266.5,-38.5 192.5,-38.5"/>
<text text-anchor="middle" x="229.5" y="-45.5" font-family="Helvetica,sans-Serif" font-size="10.00" fill="#000000">City::setSize</text>
</a>
</g>
</g>
<!-- Node1&#45;&gt;Node8 -->
<g id="edge7" class="edge">
<title>Node1&#45;&gt;Node8</title>
<path fill="none" stroke="#191970" d="M69.2611,-114.4112C86.7243,-103.015 117.5027,-84.0321 146,-72 157.5073,-67.1414 170.3074,-62.9147 182.3598,-59.4196"/>
<polygon fill="#191970" stroke="#191970" points="183.5708,-62.7155 192.2631,-56.6579 181.6904,-55.9727 183.5708,-62.7155"/>
</g>
<!-- Node9 -->
<g id="node9" class="node">
<title>Node9</title>
<g id="a_node9"><a xlink:href="classMapTile.html#a6f6c6e03095e0f1ed503dd30f499793c" target="_top" xlink:title="MapTile::setType Setzt den Typ der Kachel.">
<polygon fill="#ffffff" stroke="#000000" points="180.5,-.5 180.5,-19.5 278.5,-19.5 278.5,-.5 180.5,-.5"/>
<text text-anchor="middle" x="229.5" y="-7.5" font-family="Helvetica,sans-Serif" font-size="10.00" fill="#000000">MapTile::setType</text>
</a>
</g>
</g>
<!-- Node1&#45;&gt;Node9 -->
<g id="edge8" class="edge">
<title>Node1&#45;&gt;Node9</title>
<path fill="none" stroke="#191970" d="M61.2342,-114.4261C74.3992,-95.0281 107.049,-51.0604 146,-29 153.6133,-24.6881 162.139,-21.3547 170.7553,-18.7776"/>
<polygon fill="#191970" stroke="#191970" points="171.7218,-22.1422 180.4781,-16.1775 169.9134,-15.3798 171.7218,-22.1422"/>
</g>
<!-- Node3 -->
<g id="node3" class="node">
<title>Node3</title>
<g id="a_node3"><a xlink:href="classAnimationMovement.html#abee6a37d2f482a521120d528c2bc84dc" target="_top" xlink:title="AnimationMovement::setSpeed Setzt die Geschwindigkeit der Animation.">
<polygon fill="#ffffff" stroke="#000000" points="351,-223 351,-253 465,-253 465,-223 351,-223"/>
<text text-anchor="start" x="359" y="-241" font-family="Helvetica,sans-Serif" font-size="10.00" fill="#000000">AnimationMovement::</text>
<text text-anchor="middle" x="408" y="-230" font-family="Helvetica,sans-Serif" font-size="10.00" fill="#000000">setSpeed</text>
</a>
</g>
</g>
<!-- Node2&#45;&gt;Node3 -->
<g id="edge2" class="edge">
<title>Node2&#45;&gt;Node3</title>
<path fill="none" stroke="#191970" d="M313.0011,-238C322.2965,-238 331.6754,-238 340.7323,-238"/>
<polygon fill="#191970" stroke="#191970" points="340.7994,-241.5001 350.7994,-238 340.7993,-234.5001 340.7994,-241.5001"/>
</g>
<!-- Node9&#45;&gt;Node7 -->
<g id="edge10" class="edge">
<title>Node9&#45;&gt;Node7</title>
<path fill="none" stroke="#191970" d="M277.5325,-19.5752C289.2326,-22.2785 301.645,-25.4611 313,-29 334.9944,-35.8548 359.0856,-45.517 377.5042,-53.3827"/>
<polygon fill="#191970" stroke="#191970" points="376.2726,-56.6634 386.8401,-57.4229 379.0527,-50.2391 376.2726,-56.6634"/>
</g>
<!-- Node10 -->
<g id="node10" class="node">
<title>Node10</title>
<g id="a_node10"><a xlink:href="classGraphicsManager.html#aa094318dfcf4d0d399296b323dd670c6" target="_top" xlink:title="GraphicsManager::get Liefert eine Grafik mit einem bestimmten Namen.">
<polygon fill="#ffffff" stroke="#000000" points="349,-.5 349,-19.5 467,-19.5 467,-.5 349,-.5"/>
<text text-anchor="middle" x="408" y="-7.5" font-family="Helvetica,sans-Serif" font-size="10.00" fill="#000000">GraphicsManager::get</text>
</a>
</g>
</g>
<!-- Node9&#45;&gt;Node10 -->
<g id="edge9" class="edge">
<title>Node9&#45;&gt;Node10</title>
<path fill="none" stroke="#191970" d="M278.7484,-10C297.2869,-10 318.7287,-10 338.7539,-10"/>
<polygon fill="#191970" stroke="#191970" points="338.7616,-13.5001 348.7616,-10 338.7616,-6.5001 338.7616,-13.5001"/>
</g>
</g>
</svg>
