<?xml version="1.0" encoding="UTF-8" standalone="no"?>
<!DOCTYPE svg PUBLIC "-//W3C//DTD SVG 1.1//EN"
 "http://www.w3.org/Graphics/SVG/1.1/DTD/svg11.dtd">
<!-- Generated by graphviz version 2.40.1 (20161225.0304)
 -->
<!-- Title: Highlighter::setColor Pages: 1 -->
<svg width="425pt" height="66pt"
 viewBox="0.00 0.00 425.00 66.00" xmlns="http://www.w3.org/2000/svg" xmlns:xlink="http://www.w3.org/1999/xlink">
<g id="graph0" class="graph" transform="scale(1 1) rotate(0) translate(4 62)">
<title>Highlighter::setColor</title>
<polygon fill="#ffffff" stroke="transparent" points="-4,4 -4,-62 421,-62 421,4 -4,4"/>
<!-- Node1 -->
<g id="node1" class="node">
<title>Node1</title>
<g id="a_node1"><a xlink:title="Highlighter::setColor Setzt die Farbe des Highlighters.">
<polygon fill="#bfbfbf" stroke="#000000" points="309,-19.5 309,-38.5 417,-38.5 417,-19.5 309,-19.5"/>
<text text-anchor="middle" x="363" y="-26.5" font-family="Helvetica,sans-Serif" font-size="10.00" fill="#000000">Highlighter::setColor</text>
</a>
</g>
</g>
<!-- Node2 -->
<g id="node2" class="node">
<title>Node2</title>
<g id="a_node2"><a xlink:href="classScene.html#ad22fc5010d69665d13f8ccef2cb094b0" target="_top" xlink:title="Scene::Scene Konstruktor.">
<polygon fill="#ffffff" stroke="#000000" points="177,-38.5 177,-57.5 258,-57.5 258,-38.5 177,-38.5"/>
<text text-anchor="middle" x="217.5" y="-45.5" font-family="Helvetica,sans-Serif" font-size="10.00" fill="#000000">Scene::Scene</text>
</a>
</g>
</g>
<!-- Node1&#45;&gt;Node2 -->
<g id="edge1" class="edge">
<title>Node1&#45;&gt;Node2</title>
<path fill="none" stroke="#191970" d="M298.8412,-37.3781C284.993,-39.1865 270.7236,-41.0498 258.0782,-42.7011"/>
<polygon fill="#191970" stroke="#191970" points="299.3586,-40.8404 308.8212,-36.0749 298.4521,-33.8993 299.3586,-40.8404"/>
</g>
<!-- Node3 -->
<g id="node3" class="node">
<title>Node3</title>
<g id="a_node3"><a xlink:href="classScene.html#a4caee3e7069bad7901a4a12b19cd304c" target="_top" xlink:title="Scene::setActiveTile Setzt den MapTile über dem die Maus gerade ist. Wird von view aufgerufen.">
<polygon fill="#ffffff" stroke="#000000" points="162,-.5 162,-19.5 273,-19.5 273,-.5 162,-.5"/>
<text text-anchor="middle" x="217.5" y="-7.5" font-family="Helvetica,sans-Serif" font-size="10.00" fill="#000000">Scene::setActiveTile</text>
</a>
</g>
</g>
<!-- Node1&#45;&gt;Node3 -->
<g id="edge2" class="edge">
<title>Node1&#45;&gt;Node3</title>
<path fill="none" stroke="#191970" d="M298.8722,-20.6259C290.3093,-19.5077 281.5847,-18.3684 273.1821,-17.2712"/>
<polygon fill="#191970" stroke="#191970" points="298.4521,-24.1007 308.8212,-21.9251 299.3586,-17.1596 298.4521,-24.1007"/>
</g>
<!-- Node4 -->
<g id="node4" class="node">
<title>Node4</title>
<g id="a_node4"><a xlink:href="classView.html#aae14a814f17c825ce462509655e54ee4" target="_top" xlink:title="View::mouseMoveEvent QT Methode. Wird aufgerufen wenn die Maus bewegt wird.">
<polygon fill="#ffffff" stroke="#000000" points="0,-.5 0,-19.5 126,-19.5 126,-.5 0,-.5"/>
<text text-anchor="middle" x="63" y="-7.5" font-family="Helvetica,sans-Serif" font-size="10.00" fill="#000000">View::mouseMoveEvent</text>
</a>
</g>
</g>
<!-- Node3&#45;&gt;Node4 -->
<g id="edge3" class="edge">
<title>Node3&#45;&gt;Node4</title>
<path fill="none" stroke="#191970" d="M151.5306,-10C143.0777,-10 134.4406,-10 126.036,-10"/>
<polygon fill="#191970" stroke="#191970" points="151.722,-13.5001 161.722,-10 151.7219,-6.5001 151.722,-13.5001"/>
</g>
</g>
</svg>
