<?xml version="1.0" encoding="UTF-8" standalone="no"?>
<!DOCTYPE svg PUBLIC "-//W3C//DTD SVG 1.1//EN"
 "http://www.w3.org/Graphics/SVG/1.1/DTD/svg11.dtd">
<!-- Generated by graphviz version 2.40.1 (20161225.0304)
 -->
<!-- Title: MapTile::getY Pages: 1 -->
<svg width="411pt" height="66pt"
 viewBox="0.00 0.00 411.00 66.00" xmlns="http://www.w3.org/2000/svg" xmlns:xlink="http://www.w3.org/1999/xlink">
<g id="graph0" class="graph" transform="scale(1 1) rotate(0) translate(4 62)">
<title>MapTile::getY</title>
<polygon fill="#ffffff" stroke="transparent" points="-4,4 -4,-62 407,-62 407,4 -4,4"/>
<!-- Node1 -->
<g id="node1" class="node">
<title>Node1</title>
<g id="a_node1"><a xlink:title="MapTile::getY.">
<polygon fill="#bfbfbf" stroke="#000000" points="322,-19.5 322,-38.5 403,-38.5 403,-19.5 322,-19.5"/>
<text text-anchor="middle" x="362.5" y="-26.5" font-family="Helvetica,sans-Serif" font-size="10.00" fill="#000000">MapTile::getY</text>
</a>
</g>
</g>
<!-- Node2 -->
<g id="node2" class="node">
<title>Node2</title>
<g id="a_node2"><a xlink:href="classView.html#a8583722c800d6f301bbe52941cc0b824" target="_top" xlink:title="View::leftclick Führt einen Linksklick aus.">
<polygon fill="#ffffff" stroke="#000000" points="191.5,-38.5 191.5,-57.5 269.5,-57.5 269.5,-38.5 191.5,-38.5"/>
<text text-anchor="middle" x="230.5" y="-45.5" font-family="Helvetica,sans-Serif" font-size="10.00" fill="#000000">View::leftclick</text>
</a>
</g>
</g>
<!-- Node1&#45;&gt;Node2 -->
<g id="edge1" class="edge">
<title>Node1&#45;&gt;Node2</title>
<path fill="none" stroke="#191970" d="M311.8954,-36.284C297.9805,-38.2869 283.0986,-40.429 269.9158,-42.3265"/>
<polygon fill="#191970" stroke="#191970" points="312.4193,-39.7448 321.8186,-34.8557 311.4219,-32.8162 312.4193,-39.7448"/>
</g>
<!-- Node4 -->
<g id="node4" class="node">
<title>Node4</title>
<g id="a_node4"><a xlink:href="classScene.html#a4caee3e7069bad7901a4a12b19cd304c" target="_top" xlink:title="Scene::setActiveTile Setzt den MapTile über dem die Maus gerade ist. Wird von view aufgerufen.">
<polygon fill="#ffffff" stroke="#000000" points="175,-.5 175,-19.5 286,-19.5 286,-.5 175,-.5"/>
<text text-anchor="middle" x="230.5" y="-7.5" font-family="Helvetica,sans-Serif" font-size="10.00" fill="#000000">Scene::setActiveTile</text>
</a>
</g>
</g>
<!-- Node1&#45;&gt;Node4 -->
<g id="edge3" class="edge">
<title>Node1&#45;&gt;Node4</title>
<path fill="none" stroke="#191970" d="M311.847,-21.709C303.4995,-20.5075 294.8052,-19.256 286.3394,-18.0375"/>
<polygon fill="#191970" stroke="#191970" points="311.4219,-25.1838 321.8186,-23.1443 312.4193,-18.2552 311.4219,-25.1838"/>
</g>
<!-- Node3 -->
<g id="node3" class="node">
<title>Node3</title>
<g id="a_node3"><a xlink:href="classView.html#a76d60435e43027b8497091d02acb77bd" target="_top" xlink:title="View::mouseReleaseEvent QT Methode. Wird aufgerufen wenn die Maus losgelassen wird.">
<polygon fill="#ffffff" stroke="#000000" points="0,-38.5 0,-57.5 139,-57.5 139,-38.5 0,-38.5"/>
<text text-anchor="middle" x="69.5" y="-45.5" font-family="Helvetica,sans-Serif" font-size="10.00" fill="#000000">View::mouseReleaseEvent</text>
</a>
</g>
</g>
<!-- Node2&#45;&gt;Node3 -->
<g id="edge2" class="edge">
<title>Node2&#45;&gt;Node3</title>
<path fill="none" stroke="#191970" d="M180.8734,-48C167.7149,-48 153.2593,-48 139.2464,-48"/>
<polygon fill="#191970" stroke="#191970" points="181.115,-51.5001 191.115,-48 181.1149,-44.5001 181.115,-51.5001"/>
</g>
<!-- Node5 -->
<g id="node5" class="node">
<title>Node5</title>
<g id="a_node5"><a xlink:href="classView.html#aae14a814f17c825ce462509655e54ee4" target="_top" xlink:title="View::mouseMoveEvent QT Methode. Wird aufgerufen wenn die Maus bewegt wird.">
<polygon fill="#ffffff" stroke="#000000" points="6.5,-.5 6.5,-19.5 132.5,-19.5 132.5,-.5 6.5,-.5"/>
<text text-anchor="middle" x="69.5" y="-7.5" font-family="Helvetica,sans-Serif" font-size="10.00" fill="#000000">View::mouseMoveEvent</text>
</a>
</g>
</g>
<!-- Node4&#45;&gt;Node5 -->
<g id="edge4" class="edge">
<title>Node4&#45;&gt;Node5</title>
<path fill="none" stroke="#191970" d="M164.327,-10C153.8739,-10 143.0878,-10 132.7046,-10"/>
<polygon fill="#191970" stroke="#191970" points="164.6419,-13.5001 174.6419,-10 164.6418,-6.5001 164.6419,-13.5001"/>
</g>
</g>
</svg>
