<?xml version="1.0" encoding="UTF-8" standalone="no"?>
<!DOCTYPE svg PUBLIC "-//W3C//DTD SVG 1.1//EN"
 "http://www.w3.org/Graphics/SVG/1.1/DTD/svg11.dtd">
<!-- Generated by graphviz version 2.40.1 (20161225.0304)
 -->
<!-- Title: MenuBar Pages: 1 -->
<svg width="130pt" height="248pt"
 viewBox="0.00 0.00 130.00 248.00" xmlns="http://www.w3.org/2000/svg" xmlns:xlink="http://www.w3.org/1999/xlink">
<g id="graph0" class="graph" transform="scale(1 1) rotate(0) translate(4 244)">
<title>MenuBar</title>
<polygon fill="#ffffff" stroke="transparent" points="-4,4 -4,-244 126,-244 126,4 -4,4"/>
<!-- Node1 -->
<g id="node1" class="node">
<title>Node1</title>
<g id="a_node1"><a xlink:title=" ">
<polygon fill="#bfbfbf" stroke="#000000" points="0,-.5 0,-145.5 122,-145.5 122,-.5 0,-.5"/>
<text text-anchor="middle" x="61" y="-133.5" font-family="Helvetica,sans-Serif" font-size="10.00" fill="#000000">MenuBar</text>
<polyline fill="none" stroke="#000000" points="0,-126.5 122,-126.5 "/>
<text text-anchor="start" x="8" y="-114.5" font-family="Helvetica,sans-Serif" font-size="10.00" fill="#000000">&#45; scene</text>
<text text-anchor="start" x="8" y="-103.5" font-family="Helvetica,sans-Serif" font-size="10.00" fill="#000000">&#45; dataModel</text>
<text text-anchor="start" x="8" y="-92.5" font-family="Helvetica,sans-Serif" font-size="10.00" fill="#000000">&#45; mapRenderer</text>
<text text-anchor="start" x="8" y="-81.5" font-family="Helvetica,sans-Serif" font-size="10.00" fill="#000000">&#45; view</text>
<text text-anchor="start" x="8" y="-70.5" font-family="Helvetica,sans-Serif" font-size="10.00" fill="#000000">&#45; routeInterface</text>
<text text-anchor="start" x="8" y="-59.5" font-family="Helvetica,sans-Serif" font-size="10.00" fill="#000000">&#45; routeListInterface</text>
<text text-anchor="start" x="8" y="-48.5" font-family="Helvetica,sans-Serif" font-size="10.00" fill="#000000">&#45; infoWidget</text>
<polyline fill="none" stroke="#000000" points="0,-41.5 122,-41.5 "/>
<text text-anchor="start" x="8" y="-29.5" font-family="Helvetica,sans-Serif" font-size="10.00" fill="#000000">+ MenuBar()</text>
<text text-anchor="start" x="8" y="-18.5" font-family="Helvetica,sans-Serif" font-size="10.00" fill="#000000">&#45; slotOpenConnection()</text>
<text text-anchor="start" x="8" y="-7.5" font-family="Helvetica,sans-Serif" font-size="10.00" fill="#000000">&#45; slotCloseConnection()</text>
</a>
</g>
</g>
<!-- Node2 -->
<g id="node2" class="node">
<title>Node2</title>
<g id="a_node2"><a xlink:title=" ">
<polygon fill="#ffffff" stroke="#bfbfbf" points="30,-182.5 30,-239.5 92,-239.5 92,-182.5 30,-182.5"/>
<text text-anchor="middle" x="61" y="-227.5" font-family="Helvetica,sans-Serif" font-size="10.00" fill="#000000">QToolBar</text>
<polyline fill="none" stroke="#bfbfbf" points="30,-220.5 92,-220.5 "/>
<text text-anchor="middle" x="61" y="-208.5" font-family="Helvetica,sans-Serif" font-size="10.00" fill="#000000"> </text>
<polyline fill="none" stroke="#bfbfbf" points="30,-201.5 92,-201.5 "/>
<text text-anchor="middle" x="61" y="-189.5" font-family="Helvetica,sans-Serif" font-size="10.00" fill="#000000"> </text>
</a>
</g>
</g>
<!-- Node2&#45;&gt;Node1 -->
<g id="edge1" class="edge">
<title>Node2&#45;&gt;Node1</title>
<path fill="none" stroke="#191970" d="M61,-172.2817C61,-163.9388 61,-154.8592 61,-145.6924"/>
<polygon fill="none" stroke="#191970" points="57.5001,-172.4063 61,-182.4063 64.5001,-172.4063 57.5001,-172.4063"/>
</g>
</g>
</svg>
