<?xml version="1.0" encoding="UTF-8" standalone="no"?>
<!DOCTYPE svg PUBLIC "-//W3C//DTD SVG 1.1//EN"
 "http://www.w3.org/Graphics/SVG/1.1/DTD/svg11.dtd">
<!-- Generated by graphviz version 2.40.1 (20161225.0304)
 -->
<!-- Title: RouteInterface Pages: 1 -->
<svg width="107pt" height="281pt"
 viewBox="0.00 0.00 107.00 281.00" xmlns="http://www.w3.org/2000/svg" xmlns:xlink="http://www.w3.org/1999/xlink">
<g id="graph0" class="graph" transform="scale(1 1) rotate(0) translate(4 277)">
<title>RouteInterface</title>
<polygon fill="#ffffff" stroke="transparent" points="-4,4 -4,-277 103,-277 103,4 -4,4"/>
<!-- Node1 -->
<g id="node1" class="node">
<title>Node1</title>
<g id="a_node1"><a xlink:title=" ">
<polygon fill="#bfbfbf" stroke="#000000" points="0,-.5 0,-178.5 99,-178.5 99,-.5 0,-.5"/>
<text text-anchor="middle" x="49.5" y="-166.5" font-family="Helvetica,sans-Serif" font-size="10.00" fill="#000000">RouteInterface</text>
<polyline fill="none" stroke="#000000" points="0,-159.5 99,-159.5 "/>
<text text-anchor="start" x="8" y="-147.5" font-family="Helvetica,sans-Serif" font-size="10.00" fill="#000000">+ wagonCount</text>
<text text-anchor="start" x="8" y="-136.5" font-family="Helvetica,sans-Serif" font-size="10.00" fill="#000000">+ trainRenderer</text>
<text text-anchor="start" x="8" y="-125.5" font-family="Helvetica,sans-Serif" font-size="10.00" fill="#000000">+ tsCoords</text>
<text text-anchor="start" x="8" y="-114.5" font-family="Helvetica,sans-Serif" font-size="10.00" fill="#000000">+ tsCount</text>
<text text-anchor="start" x="8" y="-103.5" font-family="Helvetica,sans-Serif" font-size="10.00" fill="#000000">&#45; trainstationList</text>
<text text-anchor="start" x="8" y="-92.5" font-family="Helvetica,sans-Serif" font-size="10.00" fill="#000000">&#45; goodSelector</text>
<text text-anchor="start" x="8" y="-81.5" font-family="Helvetica,sans-Serif" font-size="10.00" fill="#000000">&#45; confirmBtn</text>
<polyline fill="none" stroke="#000000" points="0,-74.5 99,-74.5 "/>
<text text-anchor="start" x="8" y="-62.5" font-family="Helvetica,sans-Serif" font-size="10.00" fill="#000000">+ RouteInterface()</text>
<text text-anchor="start" x="8" y="-51.5" font-family="Helvetica,sans-Serif" font-size="10.00" fill="#000000">+ toggle()</text>
<text text-anchor="start" x="8" y="-40.5" font-family="Helvetica,sans-Serif" font-size="10.00" fill="#000000">+ onTileInteract()</text>
<text text-anchor="start" x="8" y="-29.5" font-family="Helvetica,sans-Serif" font-size="10.00" fill="#000000">+ addWagon()</text>
<text text-anchor="start" x="8" y="-18.5" font-family="Helvetica,sans-Serif" font-size="10.00" fill="#000000">+ confirmRoute()</text>
<text text-anchor="start" x="8" y="-7.5" font-family="Helvetica,sans-Serif" font-size="10.00" fill="#000000">+ removeWagon()</text>
</a>
</g>
</g>
<!-- Node2 -->
<g id="node2" class="node">
<title>Node2</title>
<g id="a_node2"><a xlink:title=" ">
<polygon fill="#ffffff" stroke="#bfbfbf" points="9.5,-215.5 9.5,-272.5 89.5,-272.5 89.5,-215.5 9.5,-215.5"/>
<text text-anchor="middle" x="49.5" y="-260.5" font-family="Helvetica,sans-Serif" font-size="10.00" fill="#000000">QDockWidget</text>
<polyline fill="none" stroke="#bfbfbf" points="9.5,-253.5 89.5,-253.5 "/>
<text text-anchor="middle" x="49.5" y="-241.5" font-family="Helvetica,sans-Serif" font-size="10.00" fill="#000000"> </text>
<polyline fill="none" stroke="#bfbfbf" points="9.5,-234.5 89.5,-234.5 "/>
<text text-anchor="middle" x="49.5" y="-222.5" font-family="Helvetica,sans-Serif" font-size="10.00" fill="#000000"> </text>
</a>
</g>
</g>
<!-- Node2&#45;&gt;Node1 -->
<g id="edge1" class="edge">
<title>Node2&#45;&gt;Node1</title>
<path fill="none" stroke="#191970" d="M49.5,-205.039C49.5,-196.8624 49.5,-187.9198 49.5,-178.7458"/>
<polygon fill="none" stroke="#191970" points="46.0001,-205.3018 49.5,-215.3018 53.0001,-205.3019 46.0001,-205.3018"/>
</g>
</g>
</svg>
