<?xml version="1.0" encoding="UTF-8" standalone="no"?>
<!DOCTYPE svg PUBLIC "-//W3C//DTD SVG 1.1//EN"
 "http://www.w3.org/Graphics/SVG/1.1/DTD/svg11.dtd">
<!-- Generated by graphviz version 2.40.1 (20161225.0304)
 -->
<!-- Title: DataModel::positionChange Pages: 1 -->
<svg width="737pt" height="165pt"
 viewBox="0.00 0.00 737.00 164.50" xmlns="http://www.w3.org/2000/svg" xmlns:xlink="http://www.w3.org/1999/xlink">
<g id="graph0" class="graph" transform="scale(1 1) rotate(0) translate(4 160.5)">
<title>DataModel::positionChange</title>
<polygon fill="#ffffff" stroke="transparent" points="-4,4 -4,-160.5 733,-160.5 733,4 -4,4"/>
<!-- Node1 -->
<g id="node1" class="node">
<title>Node1</title>
<g id="a_node1"><a xlink:title=" ">
<polygon fill="#bfbfbf" stroke="#000000" points="586,-96 586,-115 729,-115 729,-96 586,-96"/>
<text text-anchor="middle" x="657.5" y="-103" font-family="Helvetica,sans-Serif" font-size="10.00" fill="#000000">DataModel::positionChange</text>
</a>
</g>
</g>
<!-- Node2 -->
<g id="node2" class="node">
<title>Node2</title>
<g id="a_node2"><a xlink:href="classClient.html#a16ec13dd45e134c3d1ec31dd26e1a119" target="_top" xlink:title="Client::Client Erzeugt einen neuen Client.">
<polygon fill="#ffffff" stroke="#000000" points="433.5,-115 433.5,-134 507.5,-134 507.5,-115 433.5,-115"/>
<text text-anchor="middle" x="470.5" y="-122" font-family="Helvetica,sans-Serif" font-size="10.00" fill="#000000">Client::Client</text>
</a>
</g>
</g>
<!-- Node1&#45;&gt;Node2 -->
<g id="edge1" class="edge">
<title>Node1&#45;&gt;Node2</title>
<path fill="none" stroke="#191970" d="M575.6332,-113.818C551.8725,-116.2322 527.0938,-118.7498 507.5639,-120.7341"/>
<polygon fill="#191970" stroke="#191970" points="576.1408,-117.2846 585.7357,-112.7916 575.4331,-110.3204 576.1408,-117.2846"/>
</g>
<!-- Node3 -->
<g id="node3" class="node">
<title>Node3</title>
<g id="a_node3"><a xlink:href="classDataModel.html#a2dcc97fd7387151077bcb3794b1614af" target="_top" xlink:title="DataModel::updateCoordinates Aktualisiert die Koordinaten des fokussierten Quadrantens.">
<polygon fill="#ffffff" stroke="#000000" points="391,-77 391,-96 550,-96 550,-77 391,-77"/>
<text text-anchor="middle" x="470.5" y="-84" font-family="Helvetica,sans-Serif" font-size="10.00" fill="#000000">DataModel::updateCoordinates</text>
</a>
</g>
</g>
<!-- Node1&#45;&gt;Node3 -->
<g id="edge2" class="edge">
<title>Node1&#45;&gt;Node3</title>
<path fill="none" stroke="#191970" d="M575.5422,-97.1727C567.1184,-96.3168 558.5677,-95.4481 550.1692,-94.5947"/>
<polygon fill="#191970" stroke="#191970" points="575.4331,-100.6796 585.7357,-98.2084 576.1408,-93.7154 575.4331,-100.6796"/>
</g>
<!-- Node4 -->
<g id="node4" class="node">
<title>Node4</title>
<g id="a_node4"><a xlink:href="classView.html#aae14a814f17c825ce462509655e54ee4" target="_top" xlink:title="View::mouseMoveEvent QT Methode. Wird aufgerufen wenn die Maus bewegt wird.">
<polygon fill="#ffffff" stroke="#000000" points="209.5,-137 209.5,-156 335.5,-156 335.5,-137 209.5,-137"/>
<text text-anchor="middle" x="272.5" y="-144" font-family="Helvetica,sans-Serif" font-size="10.00" fill="#000000">View::mouseMoveEvent</text>
</a>
</g>
</g>
<!-- Node3&#45;&gt;Node4 -->
<g id="edge3" class="edge">
<title>Node3&#45;&gt;Node4</title>
<path fill="none" stroke="#191970" d="M410.3953,-98.7202C403.7545,-100.7004 397.1689,-102.9529 391,-105.5 373.6681,-112.6562 372.3612,-120.4152 355,-127.5 345.7463,-131.2762 335.5877,-134.3869 325.6579,-136.9192"/>
<polygon fill="#191970" stroke="#191970" points="411.428,-102.0659 420.1224,-96.0113 409.5499,-95.3225 411.428,-102.0659"/>
</g>
<!-- Node5 -->
<g id="node5" class="node">
<title>Node5</title>
<g id="a_node5"><a xlink:href="classMapRenderer.html#aa2f3c7d428114b22544682da3997efd9" target="_top" xlink:title=" ">
<polygon fill="#ffffff" stroke="#000000" points="190,-99 190,-118 355,-118 355,-99 190,-99"/>
<text text-anchor="middle" x="272.5" y="-106" font-family="Helvetica,sans-Serif" font-size="10.00" fill="#000000">MapRenderer::mouseMoveEvent</text>
</a>
</g>
</g>
<!-- Node3&#45;&gt;Node5 -->
<g id="edge4" class="edge">
<title>Node3&#45;&gt;Node5</title>
<path fill="none" stroke="#191970" d="M380.8651,-96.4594C372.3339,-97.4073 363.709,-98.3657 355.247,-99.3059"/>
<polygon fill="#191970" stroke="#191970" points="381.2694,-99.9361 390.8217,-95.3531 380.4963,-92.979 381.2694,-99.9361"/>
</g>
<!-- Node6 -->
<g id="node6" class="node">
<title>Node6</title>
<g id="a_node6"><a xlink:href="classDataModel.html#aacb6a19e48624b83281db172ef01ef4f" target="_top" xlink:title="DataModel::setGuiTimeLabel Setzt das Label in welchem die Koordinate dargestellt wird.">
<polygon fill="#ffffff" stroke="#000000" points="203.5,-49.5 203.5,-79.5 341.5,-79.5 341.5,-49.5 203.5,-49.5"/>
<text text-anchor="start" x="211.5" y="-67.5" font-family="Helvetica,sans-Serif" font-size="10.00" fill="#000000">DataModel::setGuiPosition</text>
<text text-anchor="middle" x="272.5" y="-56.5" font-family="Helvetica,sans-Serif" font-size="10.00" fill="#000000">Label</text>
</a>
</g>
</g>
<!-- Node3&#45;&gt;Node6 -->
<g id="edge5" class="edge">
<title>Node3&#45;&gt;Node6</title>
<path fill="none" stroke="#191970" d="M380.7936,-76.5326C367.6029,-75.067 354.1902,-73.5767 341.5032,-72.167"/>
<polygon fill="#191970" stroke="#191970" points="380.4963,-80.021 390.8217,-77.6469 381.2694,-73.0639 380.4963,-80.021"/>
</g>
<!-- Node8 -->
<g id="node8" class="node">
<title>Node8</title>
<g id="a_node8"><a xlink:href="classMapRenderer.html#a4cb99b1a8f20b978c64f41e22cde070d" target="_top" xlink:title="MapRenderer::setViewportTilePosition Verschiebt den Viewport zu einer Tile&#45;Koordinate.">
<polygon fill="#ffffff" stroke="#000000" points="204,-.5 204,-30.5 341,-30.5 341,-.5 204,-.5"/>
<text text-anchor="start" x="212" y="-18.5" font-family="Helvetica,sans-Serif" font-size="10.00" fill="#000000">MapRenderer::setViewport</text>
<text text-anchor="middle" x="272.5" y="-7.5" font-family="Helvetica,sans-Serif" font-size="10.00" fill="#000000">TilePosition</text>
</a>
</g>
</g>
<!-- Node3&#45;&gt;Node8 -->
<g id="edge7" class="edge">
<title>Node3&#45;&gt;Node8</title>
<path fill="none" stroke="#191970" d="M438.8463,-73.0519C415.7889,-63.4629 383.6998,-50.5433 355,-40.5 345.253,-37.0891 334.7668,-33.7007 324.6481,-30.5705"/>
<polygon fill="#191970" stroke="#191970" points="437.5627,-76.3088 448.1388,-76.9394 440.2644,-69.8511 437.5627,-76.3088"/>
</g>
<!-- Node7 -->
<g id="node7" class="node">
<title>Node7</title>
<g id="a_node7"><a xlink:href="classSidePanel.html#a26f78ad7518003db89a4ec57d63da2e4" target="_top" xlink:title="SidePanel::hookDataModel Verknüpft ein Datenmodell mit der Anzeige. Dadurch können dann Textfelder et...">
<polygon fill="#ffffff" stroke="#000000" points="5.5,-55 5.5,-74 148.5,-74 148.5,-55 5.5,-55"/>
<text text-anchor="middle" x="77" y="-62" font-family="Helvetica,sans-Serif" font-size="10.00" fill="#000000">SidePanel::hookDataModel</text>
</a>
</g>
</g>
<!-- Node6&#45;&gt;Node7 -->
<g id="edge6" class="edge">
<title>Node6&#45;&gt;Node7</title>
<path fill="none" stroke="#191970" d="M193.2244,-64.5C178.5137,-64.5 163.2238,-64.5 148.7535,-64.5"/>
<polygon fill="#191970" stroke="#191970" points="193.2989,-68.0001 203.2989,-64.5 193.2989,-61.0001 193.2989,-68.0001"/>
</g>
<!-- Node9 -->
<g id="node9" class="node">
<title>Node9</title>
<g id="a_node9"><a xlink:href="classMinimap.html#a802a1ec9586aa8f6e7b76aa55ae18374" target="_top" xlink:title=" ">
<polygon fill="#ffffff" stroke="#000000" points="0,-6 0,-25 154,-25 154,-6 0,-6"/>
<text text-anchor="middle" x="77" y="-13" font-family="Helvetica,sans-Serif" font-size="10.00" fill="#000000">Minimap::mouseReleaseEvent</text>
</a>
</g>
</g>
<!-- Node8&#45;&gt;Node9 -->
<g id="edge8" class="edge">
<title>Node8&#45;&gt;Node9</title>
<path fill="none" stroke="#191970" d="M193.5483,-15.5C180.5584,-15.5 167.1082,-15.5 154.1626,-15.5"/>
<polygon fill="#191970" stroke="#191970" points="193.8489,-19.0001 203.8489,-15.5 193.8489,-12.0001 193.8489,-19.0001"/>
</g>
</g>
</svg>
