<?xml version="1.0" encoding="UTF-8" standalone="no"?>
<!DOCTYPE svg PUBLIC "-//W3C//DTD SVG 1.1//EN"
 "http://www.w3.org/Graphics/SVG/1.1/DTD/svg11.dtd">
<!-- Generated by graphviz version 2.40.1 (20161225.0304)
 -->
<!-- Title: MapRenderer::mouseReleaseEvent Pages: 1 -->
<svg width="439pt" height="132pt"
 viewBox="0.00 0.00 439.00 132.00" xmlns="http://www.w3.org/2000/svg" xmlns:xlink="http://www.w3.org/1999/xlink">
<g id="graph0" class="graph" transform="scale(1 1) rotate(0) translate(4 128)">
<title>MapRenderer::mouseReleaseEvent</title>
<polygon fill="#ffffff" stroke="transparent" points="-4,4 -4,-128 435,-128 435,4 -4,4"/>
<!-- Node1 -->
<g id="node1" class="node">
<title>Node1</title>
<g id="a_node1"><a xlink:title=" ">
<polygon fill="#bfbfbf" stroke="#000000" points="0,-42 0,-72 153,-72 153,-42 0,-42"/>
<text text-anchor="start" x="8" y="-60" font-family="Helvetica,sans-Serif" font-size="10.00" fill="#000000">MapRenderer::mouseRelease</text>
<text text-anchor="middle" x="76.5" y="-49" font-family="Helvetica,sans-Serif" font-size="10.00" fill="#000000">Event</text>
</a>
</g>
</g>
<!-- Node2 -->
<g id="node2" class="node">
<title>Node2</title>
<g id="a_node2"><a xlink:href="classMapTile.html#af67fb2b04970d5160e8bdacb05484bac" target="_top" xlink:title="MapTile::getType Liefert den Typ des Quadranten.">
<polygon fill="#ffffff" stroke="#000000" points="210,-104.5 210,-123.5 308,-123.5 308,-104.5 210,-104.5"/>
<text text-anchor="middle" x="259" y="-111.5" font-family="Helvetica,sans-Serif" font-size="10.00" fill="#000000">MapTile::getType</text>
</a>
</g>
</g>
<!-- Node1&#45;&gt;Node2 -->
<g id="edge1" class="edge">
<title>Node1&#45;&gt;Node2</title>
<path fill="none" stroke="#191970" d="M124.9275,-72.1253C154.1767,-81.2607 191.0174,-92.7671 218.6757,-101.4056"/>
<polygon fill="#191970" stroke="#191970" points="217.8303,-104.8082 228.4191,-104.4487 219.9173,-98.1265 217.8303,-104.8082"/>
</g>
<!-- Node3 -->
<g id="node3" class="node">
<title>Node3</title>
<g id="a_node3"><a xlink:href="classPoint.html#a0b82a4aa9614c11854abc507d89a70a9" target="_top" xlink:title="Point::getX Gibt die X&#45;Koordinate des Punktes.">
<polygon fill="#ffffff" stroke="#000000" points="365,-47.5 365,-66.5 431,-66.5 431,-47.5 365,-47.5"/>
<text text-anchor="middle" x="398" y="-54.5" font-family="Helvetica,sans-Serif" font-size="10.00" fill="#000000">Point::getX</text>
</a>
</g>
</g>
<!-- Node1&#45;&gt;Node3 -->
<g id="edge2" class="edge">
<title>Node1&#45;&gt;Node3</title>
<path fill="none" stroke="#191970" d="M153.0988,-57C216.1729,-57 303.319,-57 354.8542,-57"/>
<polygon fill="#191970" stroke="#191970" points="354.9789,-60.5001 364.9789,-57 354.9789,-53.5001 354.9789,-60.5001"/>
</g>
<!-- Node4 -->
<g id="node4" class="node">
<title>Node4</title>
<g id="a_node4"><a xlink:href="classPoint.html#a3770f321c49dfe7ca463900fddc2e2bc" target="_top" xlink:title="Point::getX Gibt die Y&#45;Koordinate des Punktes.">
<polygon fill="#ffffff" stroke="#000000" points="365,-.5 365,-19.5 431,-19.5 431,-.5 365,-.5"/>
<text text-anchor="middle" x="398" y="-7.5" font-family="Helvetica,sans-Serif" font-size="10.00" fill="#000000">Point::getY</text>
</a>
</g>
</g>
<!-- Node1&#45;&gt;Node4 -->
<g id="edge3" class="edge">
<title>Node1&#45;&gt;Node4</title>
<path fill="none" stroke="#191970" d="M112.5367,-41.9195C134.2752,-33.5614 162.7557,-23.8948 189,-19 245.5661,-8.4499 312.1684,-7.5113 354.7178,-8.3282"/>
<polygon fill="#191970" stroke="#191970" points="354.6542,-11.8276 364.7331,-8.5617 354.8174,-4.8295 354.6542,-11.8276"/>
</g>
<!-- Node5 -->
<g id="node5" class="node">
<title>Node5</title>
<g id="a_node5"><a xlink:href="classMapRenderer.html#a5e805bae5efab5f37a6ec8ee24543d0d" target="_top" xlink:title="MapRenderer::mapPosition Wandelt eine Position im Fenster in eine Kachelkoordinate um.">
<polygon fill="#ffffff" stroke="#000000" points="189,-28.5 189,-47.5 329,-47.5 329,-28.5 189,-28.5"/>
<text text-anchor="middle" x="259" y="-35.5" font-family="Helvetica,sans-Serif" font-size="10.00" fill="#000000">MapRenderer::mapPosition</text>
</a>
</g>
</g>
<!-- Node1&#45;&gt;Node5 -->
<g id="edge4" class="edge">
<title>Node1&#45;&gt;Node5</title>
<path fill="none" stroke="#191970" d="M153.1032,-49.0249C161.6567,-48.1344 170.3865,-47.2255 178.9813,-46.3307"/>
<polygon fill="#191970" stroke="#191970" points="179.4064,-49.8055 188.9902,-45.2887 178.6815,-42.8431 179.4064,-49.8055"/>
</g>
<!-- Node5&#45;&gt;Node3 -->
<g id="edge5" class="edge">
<title>Node5&#45;&gt;Node3</title>
<path fill="none" stroke="#191970" d="M328.9072,-47.5557C337.7487,-48.7642 346.5814,-49.9716 354.8329,-51.0995"/>
<polygon fill="#191970" stroke="#191970" points="354.549,-54.5931 364.9309,-52.4798 355.497,-47.6576 354.549,-54.5931"/>
</g>
<!-- Node5&#45;&gt;Node4 -->
<g id="edge6" class="edge">
<title>Node5&#45;&gt;Node4</title>
<path fill="none" stroke="#191970" d="M306.4471,-28.4423C322.0389,-25.3015 339.2826,-21.828 354.5614,-18.7502"/>
<polygon fill="#191970" stroke="#191970" points="355.6687,-22.0976 364.7806,-16.6917 354.2863,-15.2354 355.6687,-22.0976"/>
</g>
</g>
</svg>
