<?xml version="1.0" encoding="UTF-8" standalone="no"?>
<!DOCTYPE svg PUBLIC "-//W3C//DTD SVG 1.1//EN"
 "http://www.w3.org/Graphics/SVG/1.1/DTD/svg11.dtd">
<!-- Generated by graphviz version 2.40.1 (20161225.0304)
 -->
<!-- Title: MapRenderer::paintEvent Pages: 1 -->
<svg width="546pt" height="266pt"
 viewBox="0.00 0.00 546.00 266.00" xmlns="http://www.w3.org/2000/svg" xmlns:xlink="http://www.w3.org/1999/xlink">
<g id="graph0" class="graph" transform="scale(1 1) rotate(0) translate(4 261.996)">
<title>MapRenderer::paintEvent</title>
<polygon fill="#ffffff" stroke="transparent" points="-4,4 -4,-261.996 542,-261.996 542,4 -4,4"/>
<!-- Node1 -->
<g id="node1" class="node">
<title>Node1</title>
<g id="a_node1"><a xlink:title="MapRenderer::paintEvent Rendert die Spielansicht.">
<polygon fill="#bfbfbf" stroke="#000000" points="0,-105.496 0,-124.496 130,-124.496 130,-105.496 0,-105.496"/>
<text text-anchor="middle" x="65" y="-112.496" font-family="Helvetica,sans-Serif" font-size="10.00" fill="#000000">MapRenderer::paintEvent</text>
</a>
</g>
</g>
<!-- Node2 -->
<g id="node2" class="node">
<title>Node2</title>
<g id="a_node2"><a xlink:href="classMapRenderer.html#ae68fe923734619c5a0e44586ca3281dd" target="_top" xlink:title="MapRenderer::getMinPos Gibt die maximale Position des Viewports zurück.">
<polygon fill="#ffffff" stroke="#000000" points="178.5,-238.496 178.5,-257.496 314.5,-257.496 314.5,-238.496 178.5,-238.496"/>
<text text-anchor="middle" x="246.5" y="-245.496" font-family="Helvetica,sans-Serif" font-size="10.00" fill="#000000">MapRenderer::getMaxPos</text>
</a>
</g>
</g>
<!-- Node1&#45;&gt;Node2 -->
<g id="edge1" class="edge">
<title>Node1&#45;&gt;Node2</title>
<path fill="none" stroke="#191970" d="M70.6656,-124.7448C84.1346,-147.0008 120.3811,-201.7259 166,-228.996 169.6745,-231.1926 173.5849,-233.1352 177.6264,-234.8532"/>
<polygon fill="#191970" stroke="#191970" points="176.6532,-238.2264 187.2453,-238.4683 179.1159,-231.6739 176.6532,-238.2264"/>
</g>
<!-- Node5 -->
<g id="node5" class="node">
<title>Node5</title>
<g id="a_node5"><a xlink:href="classMapRenderer.html#a6987b7277c79c4b06e4e5dd7e666477e" target="_top" xlink:title="MapRenderer::getMinPos Gibt die minimale Position des Viewports zurück.">
<polygon fill="#ffffff" stroke="#000000" points="180.5,-200.496 180.5,-219.496 312.5,-219.496 312.5,-200.496 180.5,-200.496"/>
<text text-anchor="middle" x="246.5" y="-207.496" font-family="Helvetica,sans-Serif" font-size="10.00" fill="#000000">MapRenderer::getMinPos</text>
</a>
</g>
</g>
<!-- Node1&#45;&gt;Node5 -->
<g id="edge4" class="edge">
<title>Node1&#45;&gt;Node5</title>
<path fill="none" stroke="#191970" d="M74.6862,-124.527C91.6859,-140.7044 128.6464,-173.4821 166,-190.996 171.2473,-193.4563 176.841,-195.6131 182.5412,-197.5009"/>
<polygon fill="#191970" stroke="#191970" points="181.6073,-200.8751 192.1928,-200.4302 183.6403,-194.1768 181.6073,-200.8751"/>
</g>
<!-- Node6 -->
<g id="node6" class="node">
<title>Node6</title>
<g id="a_node6"><a xlink:href="classMapTile.html#a04adb2286fb76310bca5f3ecef200c0e" target="_top" xlink:title="MapTile::getPixmapItem Liefert das Pixmap Item.">
<polygon fill="#ffffff" stroke="#000000" points="183,-162.496 183,-181.496 310,-181.496 310,-162.496 183,-162.496"/>
<text text-anchor="middle" x="246.5" y="-169.496" font-family="Helvetica,sans-Serif" font-size="10.00" fill="#000000">MapTile::getPixmapItem</text>
</a>
</g>
</g>
<!-- Node1&#45;&gt;Node6 -->
<g id="edge5" class="edge">
<title>Node1&#45;&gt;Node6</title>
<path fill="none" stroke="#191970" d="M93.6695,-124.5834C113.8521,-131.2787 141.5251,-140.3506 166,-147.996 178.4118,-151.8732 191.9432,-155.961 204.3085,-159.6424"/>
<polygon fill="#191970" stroke="#191970" points="203.3492,-163.0085 213.9316,-162.4959 205.3393,-156.2973 203.3492,-163.0085"/>
</g>
<!-- Node7 -->
<g id="node7" class="node">
<title>Node7</title>
<g id="a_node7"><a xlink:href="classPoint.html#a0b82a4aa9614c11854abc507d89a70a9" target="_top" xlink:title="Point::getX Gibt die X&#45;Koordinate des Punktes.">
<polygon fill="#ffffff" stroke="#000000" points="365.5,-105.496 365.5,-124.496 431.5,-124.496 431.5,-105.496 365.5,-105.496"/>
<text text-anchor="middle" x="398.5" y="-112.496" font-family="Helvetica,sans-Serif" font-size="10.00" fill="#000000">Point::getX</text>
</a>
</g>
</g>
<!-- Node1&#45;&gt;Node7 -->
<g id="edge6" class="edge">
<title>Node1&#45;&gt;Node7</title>
<path fill="none" stroke="#191970" d="M130.0939,-114.996C196.4783,-114.996 297.622,-114.996 354.9175,-114.996"/>
<polygon fill="#191970" stroke="#191970" points="355.0873,-118.4961 365.0873,-114.996 355.0872,-111.4961 355.0873,-118.4961"/>
</g>
<!-- Node8 -->
<g id="node8" class="node">
<title>Node8</title>
<g id="a_node8"><a xlink:href="classPoint.html#a3770f321c49dfe7ca463900fddc2e2bc" target="_top" xlink:title="Point::getX Gibt die Y&#45;Koordinate des Punktes.">
<polygon fill="#ffffff" stroke="#000000" points="365.5,-58.496 365.5,-77.496 431.5,-77.496 431.5,-58.496 365.5,-58.496"/>
<text text-anchor="middle" x="398.5" y="-65.496" font-family="Helvetica,sans-Serif" font-size="10.00" fill="#000000">Point::getY</text>
</a>
</g>
</g>
<!-- Node1&#45;&gt;Node8 -->
<g id="edge7" class="edge">
<title>Node1&#45;&gt;Node8</title>
<path fill="none" stroke="#191970" d="M73.539,-105.3548C89.5909,-88.0485 126.2474,-52.2818 166,-38.996 233.8656,-16.3145 256.7683,-25.2952 327,-38.996 342.1916,-41.9596 358.2356,-48.1558 371.2678,-54.0628"/>
<polygon fill="#191970" stroke="#191970" points="370.0458,-57.3565 380.5824,-58.4652 373.037,-51.0277 370.0458,-57.3565"/>
</g>
<!-- Node9 -->
<g id="node9" class="node">
<title>Node9</title>
<g id="a_node9"><a xlink:href="classPoint.html#a773af172e76895550d05b081b15493fb" target="_top" xlink:title="Point::set Ändert die Koordinaten.">
<polygon fill="#ffffff" stroke="#000000" points="217,-48.496 217,-67.496 276,-67.496 276,-48.496 217,-48.496"/>
<text text-anchor="middle" x="246.5" y="-55.496" font-family="Helvetica,sans-Serif" font-size="10.00" fill="#000000">Point::set</text>
</a>
</g>
</g>
<!-- Node1&#45;&gt;Node9 -->
<g id="edge8" class="edge">
<title>Node1&#45;&gt;Node9</title>
<path fill="none" stroke="#191970" d="M87.9764,-105.3874C108.2612,-97.1376 138.7601,-85.2977 166,-76.996 179.1146,-72.9992 193.6441,-69.3408 206.7089,-66.3244"/>
<polygon fill="#191970" stroke="#191970" points="207.8305,-69.6596 216.8176,-64.0487 206.293,-62.8305 207.8305,-69.6596"/>
</g>
<!-- Node10 -->
<g id="node10" class="node">
<title>Node10</title>
<g id="a_node10"><a xlink:href="classMapRenderer.html#aaacbdf96eb6d7e549664e7730063ec16" target="_top" xlink:title="MapRenderer::toScreenPosition Wandelt einen Kachelindex in eine Koordinate auf dem Bildschirm um.">
<polygon fill="#ffffff" stroke="#000000" points="166,-86.496 166,-105.496 327,-105.496 327,-86.496 166,-86.496"/>
<text text-anchor="middle" x="246.5" y="-93.496" font-family="Helvetica,sans-Serif" font-size="10.00" fill="#000000">MapRenderer::toScreenPosition</text>
</a>
</g>
</g>
<!-- Node1&#45;&gt;Node10 -->
<g id="edge9" class="edge">
<title>Node1&#45;&gt;Node10</title>
<path fill="none" stroke="#191970" d="M130.013,-108.1902C138.3475,-107.3178 146.9977,-106.4122 155.6492,-105.5066"/>
<polygon fill="#191970" stroke="#191970" points="156.2057,-108.9675 165.787,-104.4453 155.4769,-102.0056 156.2057,-108.9675"/>
</g>
<!-- Node11 -->
<g id="node11" class="node">
<title>Node11</title>
<g id="a_node11"><a xlink:href="classPoint.html#a17ac49f599b4de5661b87af87dd6779f" target="_top" xlink:title="Point::toTile Gibt den Punkt als Tile&#45;Index zurück.">
<polygon fill="#ffffff" stroke="#000000" points="363,-1.496 363,-20.496 434,-20.496 434,-1.496 363,-1.496"/>
<text text-anchor="middle" x="398.5" y="-8.496" font-family="Helvetica,sans-Serif" font-size="10.00" fill="#000000">Point::toTile</text>
</a>
</g>
</g>
<!-- Node1&#45;&gt;Node11 -->
<g id="edge12" class="edge">
<title>Node1&#45;&gt;Node11</title>
<path fill="none" stroke="#191970" d="M71.6845,-105.221C86.1241,-85.0559 122.4672,-39.2092 166,-20.996 226.7661,4.4273 304.4337,1.5242 352.8284,-3.9367"/>
<polygon fill="#191970" stroke="#191970" points="352.6414,-7.4397 362.9903,-5.17 353.4848,-.4906 352.6414,-7.4397"/>
</g>
<!-- Node3 -->
<g id="node3" class="node">
<title>Node3</title>
<g id="a_node3"><a xlink:href="classPoint.html#a61d0e21cd7712e57da1dd28f24bc922a" target="_top" xlink:title="Point::add Addiert Werte auf den Punkt.">
<polygon fill="#ffffff" stroke="#000000" points="367,-190.496 367,-209.496 430,-209.496 430,-190.496 367,-190.496"/>
<text text-anchor="middle" x="398.5" y="-197.496" font-family="Helvetica,sans-Serif" font-size="10.00" fill="#000000">Point::add</text>
</a>
</g>
</g>
<!-- Node2&#45;&gt;Node3 -->
<g id="edge2" class="edge">
<title>Node2&#45;&gt;Node3</title>
<path fill="none" stroke="#191970" d="M292.3867,-238.4505C303.7897,-235.7273 315.9179,-232.5282 327,-228.996 340.5953,-224.6628 355.2563,-218.9145 367.7421,-213.6791"/>
<polygon fill="#191970" stroke="#191970" points="369.4062,-216.7743 377.2273,-209.6272 366.6562,-210.337 369.4062,-216.7743"/>
</g>
<!-- Node4 -->
<g id="node4" class="node">
<title>Node4</title>
<g id="a_node4"><a xlink:href="classPoint.html#a7e2f39fba71990705aac9ffee1b389b4" target="_top" xlink:title="Point::Point Erzeugt einen 2D&#45;Punkt.">
<polygon fill="#ffffff" stroke="#000000" points="470,-58.496 470,-77.496 538,-77.496 538,-58.496 470,-58.496"/>
<text text-anchor="middle" x="504" y="-65.496" font-family="Helvetica,sans-Serif" font-size="10.00" fill="#000000">Point::Point</text>
</a>
</g>
</g>
<!-- Node3&#45;&gt;Node4 -->
<g id="edge3" class="edge">
<title>Node3&#45;&gt;Node4</title>
<path fill="none" stroke="#191970" d="M406.4296,-190.0746C424.1583,-167.8927 467.2098,-114.0273 489.7321,-85.8478"/>
<polygon fill="#191970" stroke="#191970" points="492.7557,-87.6706 496.2651,-77.6739 487.2876,-83.3003 492.7557,-87.6706"/>
</g>
<!-- Node10&#45;&gt;Node7 -->
<g id="edge10" class="edge">
<title>Node10&#45;&gt;Node7</title>
<path fill="none" stroke="#191970" d="M322.9453,-105.5517C334.0287,-106.9371 345.0994,-108.3209 355.2147,-109.5853"/>
<polygon fill="#191970" stroke="#191970" points="355.0134,-113.0873 365.3704,-110.8548 355.8817,-106.1414 355.0134,-113.0873"/>
</g>
<!-- Node10&#45;&gt;Node8 -->
<g id="edge11" class="edge">
<title>Node10&#45;&gt;Node8</title>
<path fill="none" stroke="#191970" d="M298.3846,-86.4383C316.9329,-83.0215 337.6192,-79.2109 355.351,-75.9445"/>
<polygon fill="#191970" stroke="#191970" points="356.2109,-79.3451 365.4114,-74.0913 354.9428,-72.4609 356.2109,-79.3451"/>
</g>
<!-- Node11&#45;&gt;Node4 -->
<g id="edge13" class="edge">
<title>Node11&#45;&gt;Node4</title>
<path fill="none" stroke="#191970" d="M416.3966,-20.6653C433.1697,-29.7275 458.4525,-43.3874 477.5524,-53.7068"/>
<polygon fill="#191970" stroke="#191970" points="475.9059,-56.7954 486.3677,-58.4695 479.2334,-50.6367 475.9059,-56.7954"/>
</g>
</g>
</svg>
