<?xml version="1.0" encoding="UTF-8" standalone="no"?>
<!DOCTYPE svg PUBLIC "-//W3C//DTD SVG 1.1//EN"
 "http://www.w3.org/Graphics/SVG/1.1/DTD/svg11.dtd">
<!-- Generated by graphviz version 2.40.1 (20161225.0304)
 -->
<!-- Title: Client::Client Pages: 1 -->
<svg width="554pt" height="256pt"
 viewBox="0.00 0.00 554.00 256.00" xmlns="http://www.w3.org/2000/svg" xmlns:xlink="http://www.w3.org/1999/xlink">
<g id="graph0" class="graph" transform="scale(1 1) rotate(0) translate(4 252)">
<title>Client::Client</title>
<polygon fill="#ffffff" stroke="transparent" points="-4,4 -4,-252 550,-252 550,4 -4,4"/>
<!-- Node1 -->
<g id="node1" class="node">
<title>Node1</title>
<g id="a_node1"><a xlink:title="Client::Client Erzeugt einen neuen Client.">
<polygon fill="#bfbfbf" stroke="#000000" points="0,-114.5 0,-133.5 74,-133.5 74,-114.5 0,-114.5"/>
<text text-anchor="middle" x="37" y="-121.5" font-family="Helvetica,sans-Serif" font-size="10.00" fill="#000000">Client::Client</text>
</a>
</g>
</g>
<!-- Node2 -->
<g id="node2" class="node">
<title>Node2</title>
<g id="a_node2"><a xlink:href="classScene.html#a5d29491d77c0b68b00249ef76e16c33e" target="_top" xlink:title="Scene::addPlayer Fügt einen Netzwerkspieler hinzu.">
<polygon fill="#ffffff" stroke="#000000" points="134.5,-228.5 134.5,-247.5 233.5,-247.5 233.5,-228.5 134.5,-228.5"/>
<text text-anchor="middle" x="184" y="-235.5" font-family="Helvetica,sans-Serif" font-size="10.00" fill="#000000">Scene::addPlayer</text>
</a>
</g>
</g>
<!-- Node1&#45;&gt;Node2 -->
<g id="edge1" class="edge">
<title>Node1&#45;&gt;Node2</title>
<path fill="none" stroke="#191970" d="M41.5435,-133.508C51.2603,-152.7846 75.9767,-196.54 110,-219 114.5662,-222.0143 119.5821,-224.5505 124.7844,-226.6844"/>
<polygon fill="#191970" stroke="#191970" points="123.6983,-230.0133 134.2927,-230.1074 126.0694,-223.4271 123.6983,-230.0133"/>
</g>
<!-- Node3 -->
<g id="node3" class="node">
<title>Node3</title>
<g id="a_node3"><a xlink:href="classDataModel.html#a8f97eec924a697993ce25cb3be5d8ecf" target="_top" xlink:title="DataModel::getIP Gibt die IP Adresse zur Verbindung zurück.">
<polygon fill="#ffffff" stroke="#000000" points="136,-190.5 136,-209.5 232,-209.5 232,-190.5 136,-190.5"/>
<text text-anchor="middle" x="184" y="-197.5" font-family="Helvetica,sans-Serif" font-size="10.00" fill="#000000">DataModel::getIP</text>
</a>
</g>
</g>
<!-- Node1&#45;&gt;Node3 -->
<g id="edge2" class="edge">
<title>Node1&#45;&gt;Node3</title>
<path fill="none" stroke="#191970" d="M46.4915,-133.5608C59.6248,-146.2518 84.606,-168.5091 110,-181 115.1848,-183.5503 120.7479,-185.7829 126.4103,-187.7319"/>
<polygon fill="#191970" stroke="#191970" points="125.3946,-191.0815 135.9842,-190.7505 127.4995,-184.4054 125.3946,-191.0815"/>
</g>
<!-- Node4 -->
<g id="node4" class="node">
<title>Node4</title>
<g id="a_node4"><a xlink:href="classDataModel.html#a10ee5a8c9913a04f6385a101f4a9668b" target="_top" xlink:title="DataModel::getPort Gibt den Port zur Verbindung zurück.">
<polygon fill="#ffffff" stroke="#000000" points="131.5,-152.5 131.5,-171.5 236.5,-171.5 236.5,-152.5 131.5,-152.5"/>
<text text-anchor="middle" x="184" y="-159.5" font-family="Helvetica,sans-Serif" font-size="10.00" fill="#000000">DataModel::getPort</text>
</a>
</g>
</g>
<!-- Node1&#45;&gt;Node4 -->
<g id="edge3" class="edge">
<title>Node1&#45;&gt;Node4</title>
<path fill="none" stroke="#191970" d="M73.7564,-133.592C85.3502,-136.6107 98.2085,-139.9517 110,-143 118.6772,-145.2432 127.9292,-147.6259 136.848,-149.9182"/>
<polygon fill="#191970" stroke="#191970" points="136.1714,-153.3579 146.7277,-152.4556 137.9127,-146.578 136.1714,-153.3579"/>
</g>
<!-- Node5 -->
<g id="node5" class="node">
<title>Node5</title>
<g id="a_node5"><a xlink:href="classClient.html#a660b8879b75b9dbfe82e88991e616fc3" target="_top" xlink:title="Client::onPositionChange Slot für Ändern der Position.">
<polygon fill="#ffffff" stroke="#000000" points="118.5,-114.5 118.5,-133.5 249.5,-133.5 249.5,-114.5 118.5,-114.5"/>
<text text-anchor="middle" x="184" y="-121.5" font-family="Helvetica,sans-Serif" font-size="10.00" fill="#000000">Client::onPositionChange</text>
</a>
</g>
</g>
<!-- Node1&#45;&gt;Node5 -->
<g id="edge4" class="edge">
<title>Node1&#45;&gt;Node5</title>
<path fill="none" stroke="#191970" d="M74.0943,-124C84.4881,-124 96.1814,-124 107.9618,-124"/>
<polygon fill="#191970" stroke="#191970" points="108.3062,-127.5001 118.3061,-124 108.3061,-120.5001 108.3062,-127.5001"/>
</g>
<!-- Node6 -->
<g id="node6" class="node">
<title>Node6</title>
<g id="a_node6"><a xlink:href="classScene.html#ad861f0bdfab5241fcec39c96f01105b0" target="_top" xlink:title="Scene::onSetTile Ändert ein MapTile ohne ein Signal an den Server. Notwendig zum Empfangen von Änderu...">
<polygon fill="#ffffff" stroke="#000000" points="136,-76.5 136,-95.5 232,-95.5 232,-76.5 136,-76.5"/>
<text text-anchor="middle" x="184" y="-83.5" font-family="Helvetica,sans-Serif" font-size="10.00" fill="#000000">Scene::onSetTile</text>
</a>
</g>
</g>
<!-- Node1&#45;&gt;Node6 -->
<g id="edge5" class="edge">
<title>Node1&#45;&gt;Node6</title>
<path fill="none" stroke="#191970" d="M73.7564,-114.408C85.3502,-111.3893 98.2085,-108.0483 110,-105 118.6772,-102.7568 127.9292,-100.3741 136.848,-98.0818"/>
<polygon fill="#191970" stroke="#191970" points="137.9127,-101.422 146.7277,-95.5444 136.1714,-94.6421 137.9127,-101.422"/>
</g>
<!-- Node10 -->
<g id="node10" class="node">
<title>Node10</title>
<g id="a_node10"><a xlink:href="classClient.html#a02790b5bbbd56fd7848c4b8f825ffacf" target="_top" xlink:title="Client::onTileChange Slot für Ändern eines Tiles.">
<polygon fill="#ffffff" stroke="#000000" points="127.5,-38.5 127.5,-57.5 240.5,-57.5 240.5,-38.5 127.5,-38.5"/>
<text text-anchor="middle" x="184" y="-45.5" font-family="Helvetica,sans-Serif" font-size="10.00" fill="#000000">Client::onTileChange</text>
</a>
</g>
</g>
<!-- Node1&#45;&gt;Node10 -->
<g id="edge10" class="edge">
<title>Node1&#45;&gt;Node10</title>
<path fill="none" stroke="#191970" d="M46.4915,-114.4392C59.6248,-101.7482 84.606,-79.4909 110,-67 114.8352,-64.6217 119.9993,-62.5197 125.2662,-60.6662"/>
<polygon fill="#191970" stroke="#191970" points="126.3635,-63.99 134.8088,-57.5925 124.2173,-57.3271 126.3635,-63.99"/>
</g>
<!-- Node11 -->
<g id="node11" class="node">
<title>Node11</title>
<g id="a_node11"><a xlink:href="classScene.html#afd6f9b9c25c47cac93b93e70e43becdf" target="_top" xlink:title="Scene::updatePlayerPosition Slot zum Updaten eines Spielers.">
<polygon fill="#ffffff" stroke="#000000" points="110,-.5 110,-19.5 258,-19.5 258,-.5 110,-.5"/>
<text text-anchor="middle" x="184" y="-7.5" font-family="Helvetica,sans-Serif" font-size="10.00" fill="#000000">Scene::updatePlayerPosition</text>
</a>
</g>
</g>
<!-- Node1&#45;&gt;Node11 -->
<g id="edge11" class="edge">
<title>Node1&#45;&gt;Node11</title>
<path fill="none" stroke="#191970" d="M41.5435,-114.492C51.2603,-95.2154 75.9767,-51.46 110,-29 113.1168,-26.9425 116.4431,-25.1078 119.8952,-23.4717"/>
<polygon fill="#191970" stroke="#191970" points="121.3702,-26.6491 129.2692,-19.5882 118.691,-20.1821 121.3702,-26.6491"/>
</g>
<!-- Node7 -->
<g id="node7" class="node">
<title>Node7</title>
<g id="a_node7"><a xlink:href="classMapTile.html#a57b8310cfe045dc6a8e0c3c25fe9fc52" target="_top" xlink:title="MapTile::setRotation Hilfsfunktion zur Rotation im Quadrat.">
<polygon fill="#ffffff" stroke="#000000" points="432,-95.5 432,-114.5 542,-114.5 542,-95.5 432,-95.5"/>
<text text-anchor="middle" x="487" y="-102.5" font-family="Helvetica,sans-Serif" font-size="10.00" fill="#000000">MapTile::setRotation</text>
</a>
</g>
</g>
<!-- Node6&#45;&gt;Node7 -->
<g id="edge6" class="edge">
<title>Node6&#45;&gt;Node7</title>
<path fill="none" stroke="#191970" d="M232.0113,-89.0106C283.2511,-92.2237 364.7449,-97.3338 421.774,-100.9099"/>
<polygon fill="#191970" stroke="#191970" points="421.5704,-104.4039 431.7699,-101.5367 422.0086,-97.4177 421.5704,-104.4039"/>
</g>
<!-- Node8 -->
<g id="node8" class="node">
<title>Node8</title>
<g id="a_node8"><a xlink:href="classMapTile.html#a6f6c6e03095e0f1ed503dd30f499793c" target="_top" xlink:title="MapTile::setType Setzt den Typ der Kachel.">
<polygon fill="#ffffff" stroke="#000000" points="294,-57.5 294,-76.5 392,-76.5 392,-57.5 294,-57.5"/>
<text text-anchor="middle" x="343" y="-64.5" font-family="Helvetica,sans-Serif" font-size="10.00" fill="#000000">MapTile::setType</text>
</a>
</g>
</g>
<!-- Node6&#45;&gt;Node8 -->
<g id="edge7" class="edge">
<title>Node6&#45;&gt;Node8</title>
<path fill="none" stroke="#191970" d="M232.1367,-80.2478C248.3349,-78.3122 266.6018,-76.1293 283.5647,-74.1023"/>
<polygon fill="#191970" stroke="#191970" points="284.4138,-77.5259 293.9279,-72.864 283.5832,-70.5753 284.4138,-77.5259"/>
</g>
<!-- Node8&#45;&gt;Node7 -->
<g id="edge9" class="edge">
<title>Node8&#45;&gt;Node7</title>
<path fill="none" stroke="#191970" d="M379.3373,-76.589C398.0829,-81.5358 421.1432,-87.6211 441.1066,-92.8892"/>
<polygon fill="#191970" stroke="#191970" points="440.3619,-96.3125 450.924,-95.4799 442.1481,-89.5442 440.3619,-96.3125"/>
</g>
<!-- Node9 -->
<g id="node9" class="node">
<title>Node9</title>
<g id="a_node9"><a xlink:href="classGraphicsManager.html#aa094318dfcf4d0d399296b323dd670c6" target="_top" xlink:title="GraphicsManager::get Liefert eine Grafik mit einem bestimmten Namen.">
<polygon fill="#ffffff" stroke="#000000" points="428,-57.5 428,-76.5 546,-76.5 546,-57.5 428,-57.5"/>
<text text-anchor="middle" x="487" y="-64.5" font-family="Helvetica,sans-Serif" font-size="10.00" fill="#000000">GraphicsManager::get</text>
</a>
</g>
</g>
<!-- Node8&#45;&gt;Node9 -->
<g id="edge8" class="edge">
<title>Node8&#45;&gt;Node9</title>
<path fill="none" stroke="#191970" d="M392.1539,-67C400.411,-67 409.1153,-67 417.7662,-67"/>
<polygon fill="#191970" stroke="#191970" points="417.8673,-70.5001 427.8672,-67 417.8672,-63.5001 417.8673,-70.5001"/>
</g>
</g>
</svg>
