<?xml version="1.0" encoding="UTF-8" standalone="no"?>
<!DOCTYPE svg PUBLIC "-//W3C//DTD SVG 1.1//EN"
 "http://www.w3.org/Graphics/SVG/1.1/DTD/svg11.dtd">
<!-- Generated by graphviz version 2.40.1 (20161225.0304)
 -->
<!-- Title: Point::set Pages: 1 -->
<svg width="459pt" height="192pt"
 viewBox="0.00 0.00 459.00 191.50" xmlns="http://www.w3.org/2000/svg" xmlns:xlink="http://www.w3.org/1999/xlink">
<g id="graph0" class="graph" transform="scale(1 1) rotate(0) translate(4 187.5)">
<title>Point::set</title>
<polygon fill="#ffffff" stroke="transparent" points="-4,4 -4,-187.5 455,-187.5 455,4 -4,4"/>
<!-- Node1 -->
<g id="node1" class="node">
<title>Node1</title>
<g id="a_node1"><a xlink:title="Point::set Ändert die Koordinaten.">
<polygon fill="#bfbfbf" stroke="#000000" points="392,-88 392,-107 451,-107 451,-88 392,-88"/>
<text text-anchor="middle" x="421.5" y="-95" font-family="Helvetica,sans-Serif" font-size="10.00" fill="#000000">Point::set</text>
</a>
</g>
</g>
<!-- Node2 -->
<g id="node2" class="node">
<title>Node2</title>
<g id="a_node2"><a xlink:href="classMinimap.html#a22c0d911f1bef44c8ff05e9980572c23" target="_top" xlink:title="Minimap::mouseMoveEvent Wird aufgerufen wenn die Maus bewegt wurde. Erwirkt Vorschau der Koordinaten.">
<polygon fill="#ffffff" stroke="#000000" points="202.5,-164 202.5,-183 343.5,-183 343.5,-164 202.5,-164"/>
<text text-anchor="middle" x="273" y="-171" font-family="Helvetica,sans-Serif" font-size="10.00" fill="#000000">Minimap::mouseMoveEvent</text>
</a>
</g>
</g>
<!-- Node1&#45;&gt;Node2 -->
<g id="edge1" class="edge">
<title>Node1&#45;&gt;Node2</title>
<path fill="none" stroke="#191970" d="M406.4148,-114.5669C394.0987,-127.4435 375.5829,-144.5383 356,-154.5 348.3581,-158.3874 339.9185,-161.4886 331.4349,-163.9603"/>
<polygon fill="#191970" stroke="#191970" points="409.0128,-116.9127 413.2363,-107.196 403.8752,-112.1581 409.0128,-116.9127"/>
</g>
<!-- Node3 -->
<g id="node3" class="node">
<title>Node3</title>
<g id="a_node3"><a xlink:href="classMapRenderer.html#aa2f3c7d428114b22544682da3997efd9" target="_top" xlink:title=" ">
<polygon fill="#ffffff" stroke="#000000" points="190.5,-126 190.5,-145 355.5,-145 355.5,-126 190.5,-126"/>
<text text-anchor="middle" x="273" y="-133" font-family="Helvetica,sans-Serif" font-size="10.00" fill="#000000">MapRenderer::mouseMoveEvent</text>
</a>
</g>
</g>
<!-- Node1&#45;&gt;Node3 -->
<g id="edge2" class="edge">
<title>Node1&#45;&gt;Node3</title>
<path fill="none" stroke="#191970" d="M382.1261,-109.3177C373.5401,-111.7836 364.485,-114.3001 356,-116.5 343.4078,-119.7648 329.6651,-123.0301 317.0508,-125.9099"/>
<polygon fill="#191970" stroke="#191970" points="383.3022,-112.6207 391.9275,-106.468 381.3479,-105.899 383.3022,-112.6207"/>
</g>
<!-- Node4 -->
<g id="node4" class="node">
<title>Node4</title>
<g id="a_node4"><a xlink:href="classMapRenderer.html#a2a8f6ec1b3a089ff1779e0a5aca9da46" target="_top" xlink:title=" ">
<polygon fill="#ffffff" stroke="#000000" points="190,-88 190,-107 356,-107 356,-88 190,-88"/>
<text text-anchor="middle" x="273" y="-95" font-family="Helvetica,sans-Serif" font-size="10.00" fill="#000000">MapRenderer::mousePressEvent</text>
</a>
</g>
</g>
<!-- Node1&#45;&gt;Node4 -->
<g id="edge3" class="edge">
<title>Node1&#45;&gt;Node4</title>
<path fill="none" stroke="#191970" d="M381.7305,-97.5C373.733,-97.5 365.0494,-97.5 356.1935,-97.5"/>
<polygon fill="#191970" stroke="#191970" points="381.8058,-101.0001 391.8057,-97.5 381.8057,-94.0001 381.8058,-101.0001"/>
</g>
<!-- Node5 -->
<g id="node5" class="node">
<title>Node5</title>
<g id="a_node5"><a xlink:href="classMapRenderer.html#afda821c83a4e0b63eb8325597f4fc6ef" target="_top" xlink:title="MapRenderer::paintEvent Rendert die Spielansicht.">
<polygon fill="#ffffff" stroke="#000000" points="208,-50 208,-69 338,-69 338,-50 208,-50"/>
<text text-anchor="middle" x="273" y="-57" font-family="Helvetica,sans-Serif" font-size="10.00" fill="#000000">MapRenderer::paintEvent</text>
</a>
</g>
</g>
<!-- Node1&#45;&gt;Node5 -->
<g id="edge4" class="edge">
<title>Node1&#45;&gt;Node5</title>
<path fill="none" stroke="#191970" d="M382.1261,-85.6823C373.5401,-83.2164 364.485,-80.6999 356,-78.5 343.4078,-75.2352 329.6651,-71.9699 317.0508,-69.0901"/>
<polygon fill="#191970" stroke="#191970" points="381.3479,-89.101 391.9275,-88.532 383.3022,-82.3793 381.3479,-89.101"/>
</g>
<!-- Node6 -->
<g id="node6" class="node">
<title>Node6</title>
<g id="a_node6"><a xlink:href="classMapRenderer.html#a4cb99b1a8f20b978c64f41e22cde070d" target="_top" xlink:title="MapRenderer::setViewportTilePosition Verschiebt den Viewport zu einer Tile&#45;Koordinate.">
<polygon fill="#ffffff" stroke="#000000" points="204.5,-.5 204.5,-30.5 341.5,-30.5 341.5,-.5 204.5,-.5"/>
<text text-anchor="start" x="212.5" y="-18.5" font-family="Helvetica,sans-Serif" font-size="10.00" fill="#000000">MapRenderer::setViewport</text>
<text text-anchor="middle" x="273" y="-7.5" font-family="Helvetica,sans-Serif" font-size="10.00" fill="#000000">TilePosition</text>
</a>
</g>
</g>
<!-- Node1&#45;&gt;Node6 -->
<g id="edge5" class="edge">
<title>Node1&#45;&gt;Node6</title>
<path fill="none" stroke="#191970" d="M405.7956,-80.3639C393.3774,-67.7353 375.0169,-50.9964 356,-40.5 349.1488,-36.7184 341.6563,-33.4416 334.0657,-30.6206"/>
<polygon fill="#191970" stroke="#191970" points="403.2737,-82.7908 412.7125,-87.6032 408.3349,-77.9551 403.2737,-82.7908"/>
</g>
<!-- Node7 -->
<g id="node7" class="node">
<title>Node7</title>
<g id="a_node7"><a xlink:href="classMinimap.html#a802a1ec9586aa8f6e7b76aa55ae18374" target="_top" xlink:title=" ">
<polygon fill="#ffffff" stroke="#000000" points="0,-6 0,-25 154,-25 154,-6 0,-6"/>
<text text-anchor="middle" x="77" y="-13" font-family="Helvetica,sans-Serif" font-size="10.00" fill="#000000">Minimap::mouseReleaseEvent</text>
</a>
</g>
</g>
<!-- Node6&#45;&gt;Node7 -->
<g id="edge6" class="edge">
<title>Node6&#45;&gt;Node7</title>
<path fill="none" stroke="#191970" d="M194.4299,-15.5C181.1805,-15.5 167.4374,-15.5 154.2226,-15.5"/>
<polygon fill="#191970" stroke="#191970" points="194.4487,-19.0001 204.4487,-15.5 194.4487,-12.0001 194.4487,-19.0001"/>
</g>
</g>
</svg>
