<?xml version="1.0" encoding="UTF-8" standalone="no"?>
<!DOCTYPE svg PUBLIC "-//W3C//DTD SVG 1.1//EN"
 "http://www.w3.org/Graphics/SVG/1.1/DTD/svg11.dtd">
<!-- Generated by graphviz version 2.40.1 (20161225.0304)
 -->
<!-- Title: AnimationMovement::targetDistance Pages: 1 -->
<svg width="269pt" height="142pt"
 viewBox="0.00 0.00 269.00 142.00" xmlns="http://www.w3.org/2000/svg" xmlns:xlink="http://www.w3.org/1999/xlink">
<g id="graph0" class="graph" transform="scale(1 1) rotate(0) translate(4 138)">
<title>AnimationMovement::targetDistance</title>
<polygon fill="#ffffff" stroke="transparent" points="-4,4 -4,-138 265,-138 265,4 -4,4"/>
<!-- Node1 -->
<g id="node1" class="node">
<title>Node1</title>
<g id="a_node1"><a xlink:title=" ">
<polygon fill="#bfbfbf" stroke="#000000" points="0,-52 0,-82 114,-82 114,-52 0,-52"/>
<text text-anchor="start" x="8" y="-70" font-family="Helvetica,sans-Serif" font-size="10.00" fill="#000000">AnimationMovement::</text>
<text text-anchor="middle" x="57" y="-59" font-family="Helvetica,sans-Serif" font-size="10.00" fill="#000000">targetDistance</text>
</a>
</g>
</g>
<!-- Node2 -->
<g id="node2" class="node">
<title>Node2</title>
<g id="a_node2"><a xlink:href="classPoint.html#a0b82a4aa9614c11854abc507d89a70a9" target="_top" xlink:title="Point::getX Gibt die X&#45;Koordinate des Punktes.">
<polygon fill="#ffffff" stroke="#000000" points="172.5,-114.5 172.5,-133.5 238.5,-133.5 238.5,-114.5 172.5,-114.5"/>
<text text-anchor="middle" x="205.5" y="-121.5" font-family="Helvetica,sans-Serif" font-size="10.00" fill="#000000">Point::getX</text>
</a>
</g>
</g>
<!-- Node1&#45;&gt;Node2 -->
<g id="edge1" class="edge">
<title>Node1&#45;&gt;Node2</title>
<path fill="none" stroke="#191970" d="M92.5805,-82.1042C109.8257,-89.2796 130.8933,-97.8329 150,-105 155.4979,-107.0623 161.3345,-109.1594 167.0783,-111.1711"/>
<polygon fill="#191970" stroke="#191970" points="165.9864,-114.4968 176.5811,-114.4546 168.2725,-107.8806 165.9864,-114.4968"/>
</g>
<!-- Node3 -->
<g id="node3" class="node">
<title>Node3</title>
<g id="a_node3"><a xlink:href="classAnimationEntity.html#af9863fe8cb62e7345d4e78600eef71b7" target="_top" xlink:title=" ">
<polygon fill="#ffffff" stroke="#000000" points="150,-76.5 150,-95.5 261,-95.5 261,-76.5 150,-76.5"/>
<text text-anchor="middle" x="205.5" y="-83.5" font-family="Helvetica,sans-Serif" font-size="10.00" fill="#000000">AnimationEntity::getX</text>
</a>
</g>
</g>
<!-- Node1&#45;&gt;Node3 -->
<g id="edge2" class="edge">
<title>Node1&#45;&gt;Node3</title>
<path fill="none" stroke="#191970" d="M114.414,-74.3459C122.6535,-75.4001 131.1849,-76.4917 139.5729,-77.5649"/>
<polygon fill="#191970" stroke="#191970" points="139.3406,-81.0636 149.704,-78.8611 140.229,-74.1202 139.3406,-81.0636"/>
</g>
<!-- Node4 -->
<g id="node4" class="node">
<title>Node4</title>
<g id="a_node4"><a xlink:href="classPoint.html#a3770f321c49dfe7ca463900fddc2e2bc" target="_top" xlink:title="Point::getX Gibt die Y&#45;Koordinate des Punktes.">
<polygon fill="#ffffff" stroke="#000000" points="172.5,-38.5 172.5,-57.5 238.5,-57.5 238.5,-38.5 172.5,-38.5"/>
<text text-anchor="middle" x="205.5" y="-45.5" font-family="Helvetica,sans-Serif" font-size="10.00" fill="#000000">Point::getY</text>
</a>
</g>
</g>
<!-- Node1&#45;&gt;Node4 -->
<g id="edge3" class="edge">
<title>Node1&#45;&gt;Node4</title>
<path fill="none" stroke="#191970" d="M114.414,-59.6541C130.3293,-57.6178 147.334,-55.4421 162.2897,-53.5286"/>
<polygon fill="#191970" stroke="#191970" points="162.8028,-56.9916 172.2777,-52.2507 161.9143,-50.0482 162.8028,-56.9916"/>
</g>
<!-- Node5 -->
<g id="node5" class="node">
<title>Node5</title>
<g id="a_node5"><a xlink:href="classAnimationEntity.html#a1c0ea4c96d31efc6b5b40c3150113061" target="_top" xlink:title=" ">
<polygon fill="#ffffff" stroke="#000000" points="150,-.5 150,-19.5 261,-19.5 261,-.5 150,-.5"/>
<text text-anchor="middle" x="205.5" y="-7.5" font-family="Helvetica,sans-Serif" font-size="10.00" fill="#000000">AnimationEntity::getY</text>
</a>
</g>
</g>
<!-- Node1&#45;&gt;Node5 -->
<g id="edge4" class="edge">
<title>Node1&#45;&gt;Node5</title>
<path fill="none" stroke="#191970" d="M92.5805,-51.8958C109.8257,-44.7204 130.8933,-36.1671 150,-29 155.4979,-26.9377 161.3345,-24.8406 167.0783,-22.8289"/>
<polygon fill="#191970" stroke="#191970" points="168.2725,-26.1194 176.5811,-19.5454 165.9864,-19.5032 168.2725,-26.1194"/>
</g>
</g>
</svg>
