<?xml version="1.0" encoding="UTF-8" standalone="no"?>
<!DOCTYPE svg PUBLIC "-//W3C//DTD SVG 1.1//EN"
 "http://www.w3.org/Graphics/SVG/1.1/DTD/svg11.dtd">
<!-- Generated by graphviz version 2.40.1 (20161225.0304)
 -->
<!-- Title: Point::getX Pages: 1 -->
<svg width="472pt" height="317pt"
 viewBox="0.00 0.00 472.00 316.50" xmlns="http://www.w3.org/2000/svg" xmlns:xlink="http://www.w3.org/1999/xlink">
<g id="graph0" class="graph" transform="scale(1 1) rotate(0) translate(4 312.5)">
<title>Point::getX</title>
<polygon fill="#ffffff" stroke="transparent" points="-4,4 -4,-312.5 468,-312.5 468,4 -4,4"/>
<!-- Node1 -->
<g id="node1" class="node">
<title>Node1</title>
<g id="a_node1"><a xlink:title="Point::getX Gibt die X&#45;Koordinate des Punktes.">
<polygon fill="#bfbfbf" stroke="#000000" points="398,-133.5 398,-152.5 464,-152.5 464,-133.5 398,-133.5"/>
<text text-anchor="middle" x="431" y="-140.5" font-family="Helvetica,sans-Serif" font-size="10.00" fill="#000000">Point::getX</text>
</a>
</g>
</g>
<!-- Node2 -->
<g id="node2" class="node">
<title>Node2</title>
<g id="a_node2"><a xlink:href="classAnimationMovement.html#a0ec9be9fcfb79cc886d112d39670a980" target="_top" xlink:title=" ">
<polygon fill="#ffffff" stroke="#000000" points="224.5,-278 224.5,-308 338.5,-308 338.5,-278 224.5,-278"/>
<text text-anchor="start" x="232.5" y="-296" font-family="Helvetica,sans-Serif" font-size="10.00" fill="#000000">AnimationMovement::</text>
<text text-anchor="middle" x="281.5" y="-285" font-family="Helvetica,sans-Serif" font-size="10.00" fill="#000000">calculateVector</text>
</a>
</g>
</g>
<!-- Node1&#45;&gt;Node2 -->
<g id="edge1" class="edge">
<title>Node1&#45;&gt;Node2</title>
<path fill="none" stroke="#191970" d="M425.6119,-162.2167C416.8634,-189.899 396.932,-240.7655 362,-269 355.1948,-274.5004 347.1576,-278.7409 338.8396,-282.0099"/>
<polygon fill="#191970" stroke="#191970" points="428.9981,-163.1092 428.5136,-152.5254 422.2923,-161.1013 428.9981,-163.1092"/>
</g>
<!-- Node5 -->
<g id="node5" class="node">
<title>Node5</title>
<g id="a_node5"><a xlink:href="classMapRenderer.html#a5e805bae5efab5f37a6ec8ee24543d0d" target="_top" xlink:title="MapRenderer::mapPosition Wandelt eine Position im Fenster in eine Kachelkoordinate um.">
<polygon fill="#ffffff" stroke="#000000" points="211.5,-152.5 211.5,-171.5 351.5,-171.5 351.5,-152.5 211.5,-152.5"/>
<text text-anchor="middle" x="281.5" y="-159.5" font-family="Helvetica,sans-Serif" font-size="10.00" fill="#000000">MapRenderer::mapPosition</text>
</a>
</g>
</g>
<!-- Node1&#45;&gt;Node5 -->
<g id="edge4" class="edge">
<title>Node1&#45;&gt;Node5</title>
<path fill="none" stroke="#191970" d="M387.794,-148.4911C376.4715,-149.93 363.9664,-151.5193 351.6298,-153.0872"/>
<polygon fill="#191970" stroke="#191970" points="388.3422,-151.9496 397.8211,-147.2167 387.4596,-145.0055 388.3422,-151.9496"/>
</g>
<!-- Node6 -->
<g id="node6" class="node">
<title>Node6</title>
<g id="a_node6"><a xlink:href="classMapRenderer.html#aa2f3c7d428114b22544682da3997efd9" target="_top" xlink:title=" ">
<polygon fill="#ffffff" stroke="#000000" points="0,-171.5 0,-190.5 165,-190.5 165,-171.5 0,-171.5"/>
<text text-anchor="middle" x="82.5" y="-178.5" font-family="Helvetica,sans-Serif" font-size="10.00" fill="#000000">MapRenderer::mouseMoveEvent</text>
</a>
</g>
</g>
<!-- Node1&#45;&gt;Node6 -->
<g id="edge7" class="edge">
<title>Node1&#45;&gt;Node6</title>
<path fill="none" stroke="#191970" d="M409.8218,-158.3369C396.7424,-166.8423 379.2182,-176.5723 362,-181 292.3294,-198.916 209.6188,-196.0816 152.3358,-190.5218"/>
<polygon fill="#191970" stroke="#191970" points="411.7913,-161.2302 418.1082,-152.7244 407.8658,-155.4345 411.7913,-161.2302"/>
</g>
<!-- Node7 -->
<g id="node7" class="node">
<title>Node7</title>
<g id="a_node7"><a xlink:href="classMapRenderer.html#ac6c85d76a8de58f740066f02745d2e79" target="_top" xlink:title=" ">
<polygon fill="#ffffff" stroke="#000000" points="6,-82 6,-112 159,-112 159,-82 6,-82"/>
<text text-anchor="start" x="14" y="-100" font-family="Helvetica,sans-Serif" font-size="10.00" fill="#000000">MapRenderer::mouseRelease</text>
<text text-anchor="middle" x="82.5" y="-89" font-family="Helvetica,sans-Serif" font-size="10.00" fill="#000000">Event</text>
</a>
</g>
</g>
<!-- Node1&#45;&gt;Node7 -->
<g id="edge8" class="edge">
<title>Node1&#45;&gt;Node7</title>
<path fill="none" stroke="#191970" d="M409.3954,-127.5979C396.3413,-119.2132 378.9881,-109.6287 362,-105 295.2576,-86.8151 216.2155,-86.3963 159.2468,-89.5995"/>
<polygon fill="#191970" stroke="#191970" points="407.8165,-130.7525 418.0744,-133.4032 411.7084,-124.9342 407.8165,-130.7525"/>
</g>
<!-- Node8 -->
<g id="node8" class="node">
<title>Node8</title>
<g id="a_node8"><a xlink:href="classMinimap.html#ae162eea6dd404a3e3644516567a28334" target="_top" xlink:title="Minimap::paintEvent Rendert die Minimap.">
<polygon fill="#ffffff" stroke="#000000" points="228.5,-114.5 228.5,-133.5 334.5,-133.5 334.5,-114.5 228.5,-114.5"/>
<text text-anchor="middle" x="281.5" y="-121.5" font-family="Helvetica,sans-Serif" font-size="10.00" fill="#000000">Minimap::paintEvent</text>
</a>
</g>
</g>
<!-- Node1&#45;&gt;Node8 -->
<g id="edge9" class="edge">
<title>Node1&#45;&gt;Node8</title>
<path fill="none" stroke="#191970" d="M387.8333,-137.5139C371.2,-135.4 352.0103,-132.9612 334.5501,-130.7421"/>
<polygon fill="#191970" stroke="#191970" points="387.4596,-140.9945 397.8211,-138.7833 388.3422,-134.0504 387.4596,-140.9945"/>
</g>
<!-- Node9 -->
<g id="node9" class="node">
<title>Node9</title>
<g id="a_node9"><a xlink:href="classMapRenderer.html#afda821c83a4e0b63eb8325597f4fc6ef" target="_top" xlink:title="MapRenderer::paintEvent Rendert die Spielansicht.">
<polygon fill="#ffffff" stroke="#000000" points="17.5,-27.5 17.5,-46.5 147.5,-46.5 147.5,-27.5 17.5,-27.5"/>
<text text-anchor="middle" x="82.5" y="-34.5" font-family="Helvetica,sans-Serif" font-size="10.00" fill="#000000">MapRenderer::paintEvent</text>
</a>
</g>
</g>
<!-- Node1&#45;&gt;Node9 -->
<g id="edge10" class="edge">
<title>Node1&#45;&gt;Node9</title>
<path fill="none" stroke="#191970" d="M415.6489,-125.4656C402.7355,-111.9039 383.0498,-93.8332 362,-84 293.345,-51.9285 206.1458,-41.4348 147.5581,-38.1641"/>
<polygon fill="#191970" stroke="#191970" points="413.4232,-128.2163 422.7658,-133.2129 418.5783,-123.4808 413.4232,-128.2163"/>
</g>
<!-- Node10 -->
<g id="node10" class="node">
<title>Node10</title>
<g id="a_node10"><a xlink:href="classAnimationMovement.html#a44ca067fe462153208cd2a23fa455313" target="_top" xlink:title=" ">
<polygon fill="#ffffff" stroke="#000000" points="224.5,-229 224.5,-259 338.5,-259 338.5,-229 224.5,-229"/>
<text text-anchor="start" x="232.5" y="-247" font-family="Helvetica,sans-Serif" font-size="10.00" fill="#000000">AnimationMovement::</text>
<text text-anchor="middle" x="281.5" y="-236" font-family="Helvetica,sans-Serif" font-size="10.00" fill="#000000">targetDistance</text>
</a>
</g>
</g>
<!-- Node1&#45;&gt;Node10 -->
<g id="edge11" class="edge">
<title>Node1&#45;&gt;Node10</title>
<path fill="none" stroke="#191970" d="M417.7344,-160.5583C404.9662,-176.4088 384.3472,-199.4161 362,-214 353.0071,-219.8688 342.705,-224.8095 332.5415,-228.8799"/>
<polygon fill="#191970" stroke="#191970" points="420.5674,-162.6176 423.9813,-152.5878 415.0578,-158.2995 420.5674,-162.6176"/>
</g>
<!-- Node11 -->
<g id="node11" class="node">
<title>Node11</title>
<g id="a_node11"><a xlink:href="classMapRenderer.html#aaacbdf96eb6d7e549664e7730063ec16" target="_top" xlink:title="MapRenderer::toScreenPosition Wandelt einen Kachelindex in eine Koordinate auf dem Bildschirm um.">
<polygon fill="#ffffff" stroke="#000000" points="201,-.5 201,-19.5 362,-19.5 362,-.5 201,-.5"/>
<text text-anchor="middle" x="281.5" y="-7.5" font-family="Helvetica,sans-Serif" font-size="10.00" fill="#000000">MapRenderer::toScreenPosition</text>
</a>
</g>
</g>
<!-- Node1&#45;&gt;Node11 -->
<g id="edge13" class="edge">
<title>Node1&#45;&gt;Node11</title>
<path fill="none" stroke="#191970" d="M423.746,-123.5796C413.6239,-99.112 392.9517,-57.4368 362,-34 353.6289,-27.6614 343.5988,-22.9898 333.5052,-19.5489"/>
<polygon fill="#191970" stroke="#191970" points="420.6159,-125.1823 427.5457,-133.1966 427.1261,-122.6101 420.6159,-125.1823"/>
</g>
<!-- Node3 -->
<g id="node3" class="node">
<title>Node3</title>
<g id="a_node3"><a xlink:href="classAnimationMovement.html#a98614fc05b08f2cadc06b1bff199d6aa" target="_top" xlink:title=" ">
<polygon fill="#ffffff" stroke="#000000" points="25.5,-278 25.5,-308 139.5,-308 139.5,-278 25.5,-278"/>
<text text-anchor="start" x="33.5" y="-296" font-family="Helvetica,sans-Serif" font-size="10.00" fill="#000000">AnimationMovement::</text>
<text text-anchor="middle" x="82.5" y="-285" font-family="Helvetica,sans-Serif" font-size="10.00" fill="#000000">calculateVector</text>
</a>
</g>
</g>
<!-- Node2&#45;&gt;Node3 -->
<g id="edge2" class="edge">
<title>Node2&#45;&gt;Node3</title>
<path fill="none" stroke="#191970" d="M214.2675,-293C189.995,-293 162.8496,-293 139.5337,-293"/>
<polygon fill="#191970" stroke="#191970" points="214.4746,-296.5001 224.4746,-293 214.4746,-289.5001 214.4746,-296.5001"/>
</g>
<!-- Node4 -->
<g id="node4" class="node">
<title>Node4</title>
<g id="a_node4"><a xlink:href="classAnimationMovement.html#a9cdb7ef489af5bb1a09c94747c73a213" target="_top" xlink:title="AnimationMovement::move Führt einen Schritt der Animation durch.">
<polygon fill="#ffffff" stroke="#000000" points="12.5,-236.5 12.5,-255.5 152.5,-255.5 152.5,-236.5 12.5,-236.5"/>
<text text-anchor="middle" x="82.5" y="-243.5" font-family="Helvetica,sans-Serif" font-size="10.00" fill="#000000">AnimationMovement::move</text>
</a>
</g>
</g>
<!-- Node2&#45;&gt;Node4 -->
<g id="edge3" class="edge">
<title>Node2&#45;&gt;Node4</title>
<path fill="none" stroke="#191970" d="M214.36,-277.1428C183.9678,-269.9647 149.0553,-261.7191 122.7921,-255.5162"/>
<polygon fill="#191970" stroke="#191970" points="213.9378,-280.6393 224.4746,-279.5317 215.5469,-273.8268 213.9378,-280.6393"/>
</g>
<!-- Node5&#45;&gt;Node6 -->
<g id="edge5" class="edge">
<title>Node5&#45;&gt;Node6</title>
<path fill="none" stroke="#191970" d="M201.0938,-169.677C189.3054,-170.8025 177.1456,-171.9635 165.3101,-173.0935"/>
<polygon fill="#191970" stroke="#191970" points="201.718,-173.1334 211.34,-168.6987 201.0526,-166.1651 201.718,-173.1334"/>
</g>
<!-- Node5&#45;&gt;Node7 -->
<g id="edge6" class="edge">
<title>Node5&#45;&gt;Node7</title>
<path fill="none" stroke="#191970" d="M226.2039,-150.0184C217.7104,-147.8704 209.0827,-145.5094 201,-143 172.4418,-134.1336 140.9167,-121.766 117.5662,-112.0875"/>
<polygon fill="#191970" stroke="#191970" points="225.5263,-153.4558 236.0722,-152.4381 227.1934,-146.6572 225.5263,-153.4558"/>
</g>
<!-- Node10&#45;&gt;Node4 -->
<g id="edge12" class="edge">
<title>Node10&#45;&gt;Node4</title>
<path fill="none" stroke="#191970" d="M214.2871,-244.6755C194.4334,-244.875 172.6561,-245.0939 152.6239,-245.2952"/>
<polygon fill="#191970" stroke="#191970" points="214.5103,-248.1735 224.4746,-244.5731 214.4399,-241.1739 214.5103,-248.1735"/>
</g>
<!-- Node11&#45;&gt;Node9 -->
<g id="edge14" class="edge">
<title>Node11&#45;&gt;Node9</title>
<path fill="none" stroke="#191970" d="M201.0185,-20.9196C183.2939,-23.3244 164.7329,-25.8428 147.6999,-28.1538"/>
<polygon fill="#191970" stroke="#191970" points="201.9014,-24.332 211.34,-19.5192 200.9602,-17.3955 201.9014,-24.332"/>
</g>
</g>
</svg>
