<?xml version="1.0" encoding="UTF-8" standalone="no"?>
<!DOCTYPE svg PUBLIC "-//W3C//DTD SVG 1.1//EN"
 "http://www.w3.org/Graphics/SVG/1.1/DTD/svg11.dtd">
<!-- Generated by graphviz version 2.40.1 (20161225.0304)
 -->
<!-- Title: MapRenderer::paintEvent Pages: 1 -->
<svg width="546pt" height="307pt"
 viewBox="0.00 0.00 546.00 307.33" xmlns="http://www.w3.org/2000/svg" xmlns:xlink="http://www.w3.org/1999/xlink">
<g id="graph0" class="graph" transform="scale(1 1) rotate(0) translate(4 303.3262)">
<title>MapRenderer::paintEvent</title>
<polygon fill="#ffffff" stroke="transparent" points="-4,4 -4,-303.3262 542,-303.3262 542,4 -4,4"/>
<!-- Node1 -->
<g id="node1" class="node">
<title>Node1</title>
<g id="a_node1"><a xlink:title="MapRenderer::paintEvent Rendert die Spielansicht.">
<polygon fill="#bfbfbf" stroke="#000000" points="0,-127.8262 0,-146.8262 130,-146.8262 130,-127.8262 0,-127.8262"/>
<text text-anchor="middle" x="65" y="-134.8262" font-family="Helvetica,sans-Serif" font-size="10.00" fill="#000000">MapRenderer::paintEvent</text>
</a>
</g>
</g>
<!-- Node2 -->
<g id="node2" class="node">
<title>Node2</title>
<g id="a_node2"><a xlink:href="classSprite.html#a37b20fb41171754d6cc893a1efe9cea8" target="_top" xlink:title="Sprite::getImage Liefert das aktuelle Bild des Sprites zurück.">
<polygon fill="#ffffff" stroke="#000000" points="201,-279.8262 201,-298.8262 292,-298.8262 292,-279.8262 201,-279.8262"/>
<text text-anchor="middle" x="246.5" y="-286.8262" font-family="Helvetica,sans-Serif" font-size="10.00" fill="#000000">Sprite::getImage</text>
</a>
</g>
</g>
<!-- Node1&#45;&gt;Node2 -->
<g id="edge1" class="edge">
<title>Node1&#45;&gt;Node2</title>
<path fill="none" stroke="#191970" d="M69.3232,-146.8389C81.0409,-171.4874 115.928,-237.7673 166,-270.3262 173.5222,-275.2174 182.1681,-278.8528 190.9411,-281.5541"/>
<polygon fill="#191970" stroke="#191970" points="190.2806,-285.001 200.8469,-284.2242 192.1024,-278.2422 190.2806,-285.001"/>
</g>
<!-- Node3 -->
<g id="node3" class="node">
<title>Node3</title>
<g id="a_node3"><a xlink:href="classMapRenderer.html#ae68fe923734619c5a0e44586ca3281dd" target="_top" xlink:title="MapRenderer::getMinPos Gibt die maximale Position des Viewports zurück.">
<polygon fill="#ffffff" stroke="#000000" points="178.5,-241.8262 178.5,-260.8262 314.5,-260.8262 314.5,-241.8262 178.5,-241.8262"/>
<text text-anchor="middle" x="246.5" y="-248.8262" font-family="Helvetica,sans-Serif" font-size="10.00" fill="#000000">MapRenderer::getMaxPos</text>
</a>
</g>
</g>
<!-- Node1&#45;&gt;Node3 -->
<g id="edge2" class="edge">
<title>Node1&#45;&gt;Node3</title>
<path fill="none" stroke="#191970" d="M72.1952,-146.8537C87.3157,-166.1661 124.4429,-209.9842 166,-232.3262 170.2805,-234.6274 174.8361,-236.6523 179.5193,-238.4336"/>
<polygon fill="#191970" stroke="#191970" points="178.6697,-241.8418 189.2642,-241.7586 180.9301,-235.2168 178.6697,-241.8418"/>
</g>
<!-- Node6 -->
<g id="node6" class="node">
<title>Node6</title>
<g id="a_node6"><a xlink:href="classMapRenderer.html#a6987b7277c79c4b06e4e5dd7e666477e" target="_top" xlink:title="MapRenderer::getMinPos Gibt die minimale Position des Viewports zurück.">
<polygon fill="#ffffff" stroke="#000000" points="180.5,-203.8262 180.5,-222.8262 312.5,-222.8262 312.5,-203.8262 180.5,-203.8262"/>
<text text-anchor="middle" x="246.5" y="-210.8262" font-family="Helvetica,sans-Serif" font-size="10.00" fill="#000000">MapRenderer::getMinPos</text>
</a>
</g>
</g>
<!-- Node1&#45;&gt;Node6 -->
<g id="edge5" class="edge">
<title>Node1&#45;&gt;Node6</title>
<path fill="none" stroke="#191970" d="M79.08,-146.9801C98.0369,-159.569 133.1849,-181.4929 166,-194.3262 172.4694,-196.8562 179.3683,-199.1085 186.3033,-201.0977"/>
<polygon fill="#191970" stroke="#191970" points="185.8781,-204.6077 196.444,-203.8255 187.6965,-197.848 185.8781,-204.6077"/>
</g>
<!-- Node7 -->
<g id="node7" class="node">
<title>Node7</title>
<g id="a_node7"><a xlink:href="classMapTile.html#a04adb2286fb76310bca5f3ecef200c0e" target="_top" xlink:title="MapTile::getPixmapItem Liefert das Pixmap Item.">
<polygon fill="#ffffff" stroke="#000000" points="183,-165.8262 183,-184.8262 310,-184.8262 310,-165.8262 183,-165.8262"/>
<text text-anchor="middle" x="246.5" y="-172.8262" font-family="Helvetica,sans-Serif" font-size="10.00" fill="#000000">MapTile::getPixmapItem</text>
</a>
</g>
</g>
<!-- Node1&#45;&gt;Node7 -->
<g id="edge6" class="edge">
<title>Node1&#45;&gt;Node7</title>
<path fill="none" stroke="#191970" d="M110.8001,-146.9152C135.1826,-152.02 165.3567,-158.3375 191.0557,-163.718"/>
<polygon fill="#191970" stroke="#191970" points="190.5242,-167.1825 201.0292,-165.8061 191.9587,-160.3311 190.5242,-167.1825"/>
</g>
<!-- Node8 -->
<g id="node8" class="node">
<title>Node8</title>
<g id="a_node8"><a xlink:href="classPoint.html#a0b82a4aa9614c11854abc507d89a70a9" target="_top" xlink:title="Point::getX Gibt die X&#45;Koordinate des Punktes.">
<polygon fill="#ffffff" stroke="#000000" points="365.5,-108.8262 365.5,-127.8262 431.5,-127.8262 431.5,-108.8262 365.5,-108.8262"/>
<text text-anchor="middle" x="398.5" y="-115.8262" font-family="Helvetica,sans-Serif" font-size="10.00" fill="#000000">Point::getX</text>
</a>
</g>
</g>
<!-- Node1&#45;&gt;Node8 -->
<g id="edge7" class="edge">
<title>Node1&#45;&gt;Node8</title>
<path fill="none" stroke="#191970" d="M130.0939,-133.6177C196.4783,-129.8356 297.622,-124.0733 354.9175,-120.8091"/>
<polygon fill="#191970" stroke="#191970" points="355.3026,-124.293 365.0873,-120.2297 354.9043,-117.3043 355.3026,-124.293"/>
</g>
<!-- Node9 -->
<g id="node9" class="node">
<title>Node9</title>
<g id="a_node9"><a xlink:href="classPoint.html#a3770f321c49dfe7ca463900fddc2e2bc" target="_top" xlink:title="Point::getX Gibt die Y&#45;Koordinate des Punktes.">
<polygon fill="#ffffff" stroke="#000000" points="365.5,-61.8262 365.5,-80.8262 431.5,-80.8262 431.5,-61.8262 365.5,-61.8262"/>
<text text-anchor="middle" x="398.5" y="-68.8262" font-family="Helvetica,sans-Serif" font-size="10.00" fill="#000000">Point::getY</text>
</a>
</g>
</g>
<!-- Node1&#45;&gt;Node9 -->
<g id="edge8" class="edge">
<title>Node1&#45;&gt;Node9</title>
<path fill="none" stroke="#191970" d="M71.3807,-127.6113C85.5035,-107.1145 121.6906,-59.8903 166,-42.3262 232.52,-15.9578 256.7683,-28.6254 327,-42.3262 342.1916,-45.2897 358.2356,-51.486 371.2678,-57.393"/>
<polygon fill="#191970" stroke="#191970" points="370.0458,-60.6866 380.5824,-61.7954 373.037,-54.3579 370.0458,-60.6866"/>
</g>
<!-- Node10 -->
<g id="node10" class="node">
<title>Node10</title>
<g id="a_node10"><a xlink:href="classPoint.html#a773af172e76895550d05b081b15493fb" target="_top" xlink:title="Point::set Ändert die Koordinaten.">
<polygon fill="#ffffff" stroke="#000000" points="217,-51.8262 217,-70.8262 276,-70.8262 276,-51.8262 217,-51.8262"/>
<text text-anchor="middle" x="246.5" y="-58.8262" font-family="Helvetica,sans-Serif" font-size="10.00" fill="#000000">Point::set</text>
</a>
</g>
</g>
<!-- Node1&#45;&gt;Node10 -->
<g id="edge9" class="edge">
<title>Node1&#45;&gt;Node10</title>
<path fill="none" stroke="#191970" d="M79.08,-127.6723C98.0369,-115.0833 133.1849,-93.1594 166,-80.3262 179.0014,-75.2416 193.7376,-71.2787 207.0158,-68.3189"/>
<polygon fill="#191970" stroke="#191970" points="207.77,-71.7369 216.8327,-66.249 206.3257,-64.8875 207.77,-71.7369"/>
</g>
<!-- Node11 -->
<g id="node11" class="node">
<title>Node11</title>
<g id="a_node11"><a xlink:href="classMapRenderer.html#aaacbdf96eb6d7e549664e7730063ec16" target="_top" xlink:title="MapRenderer::toScreenPosition Wandelt einen Kachelindex in eine Koordinate auf dem Bildschirm um.">
<polygon fill="#ffffff" stroke="#000000" points="166,-89.8262 166,-108.8262 327,-108.8262 327,-89.8262 166,-89.8262"/>
<text text-anchor="middle" x="246.5" y="-96.8262" font-family="Helvetica,sans-Serif" font-size="10.00" fill="#000000">MapRenderer::toScreenPosition</text>
</a>
</g>
</g>
<!-- Node1&#45;&gt;Node11 -->
<g id="edge10" class="edge">
<title>Node1&#45;&gt;Node11</title>
<path fill="none" stroke="#191970" d="M110.8001,-127.7372C135.1826,-122.6323 165.3567,-116.3148 191.0557,-110.9343"/>
<polygon fill="#191970" stroke="#191970" points="191.9587,-114.3212 201.0292,-108.8462 190.5242,-107.4698 191.9587,-114.3212"/>
</g>
<!-- Node12 -->
<g id="node12" class="node">
<title>Node12</title>
<g id="a_node12"><a xlink:href="classPoint.html#a17ac49f599b4de5661b87af87dd6779f" target="_top" xlink:title="Point::toTile Gibt den Punkt als Tile&#45;Index zurück.">
<polygon fill="#ffffff" stroke="#000000" points="363,-4.8262 363,-23.8262 434,-23.8262 434,-4.8262 363,-4.8262"/>
<text text-anchor="middle" x="398.5" y="-11.8262" font-family="Helvetica,sans-Serif" font-size="10.00" fill="#000000">Point::toTile</text>
</a>
</g>
</g>
<!-- Node1&#45;&gt;Node12 -->
<g id="edge13" class="edge">
<title>Node1&#45;&gt;Node12</title>
<path fill="none" stroke="#191970" d="M69.9259,-127.5483C82.305,-104.1971 117.2484,-45.4121 166,-22.3262 225.8079,5.9954 304.2977,1.3412 353.0566,-5.6797"/>
<polygon fill="#191970" stroke="#191970" points="352.5777,-9.1471 362.9926,-7.2028 353.6384,-2.2279 352.5777,-9.1471"/>
</g>
<!-- Node4 -->
<g id="node4" class="node">
<title>Node4</title>
<g id="a_node4"><a xlink:href="classPoint.html#a61d0e21cd7712e57da1dd28f24bc922a" target="_top" xlink:title="Point::add Addiert Werte auf den Punkt.">
<polygon fill="#ffffff" stroke="#000000" points="367,-193.8262 367,-212.8262 430,-212.8262 430,-193.8262 367,-193.8262"/>
<text text-anchor="middle" x="398.5" y="-200.8262" font-family="Helvetica,sans-Serif" font-size="10.00" fill="#000000">Point::add</text>
</a>
</g>
</g>
<!-- Node3&#45;&gt;Node4 -->
<g id="edge3" class="edge">
<title>Node3&#45;&gt;Node4</title>
<path fill="none" stroke="#191970" d="M292.3867,-241.7807C303.7897,-239.0575 315.9179,-235.8584 327,-232.3262 340.5953,-227.9929 355.2563,-222.2446 367.7421,-217.0092"/>
<polygon fill="#191970" stroke="#191970" points="369.4062,-220.1044 377.2273,-212.9573 366.6562,-213.6672 369.4062,-220.1044"/>
</g>
<!-- Node5 -->
<g id="node5" class="node">
<title>Node5</title>
<g id="a_node5"><a xlink:href="classPoint.html#a7e2f39fba71990705aac9ffee1b389b4" target="_top" xlink:title="Point::Point Erzeugt einen 2D&#45;Punkt.">
<polygon fill="#ffffff" stroke="#000000" points="470,-61.8262 470,-80.8262 538,-80.8262 538,-61.8262 470,-61.8262"/>
<text text-anchor="middle" x="504" y="-68.8262" font-family="Helvetica,sans-Serif" font-size="10.00" fill="#000000">Point::Point</text>
</a>
</g>
</g>
<!-- Node4&#45;&gt;Node5 -->
<g id="edge4" class="edge">
<title>Node4&#45;&gt;Node5</title>
<path fill="none" stroke="#191970" d="M406.4296,-193.4047C424.1583,-171.2229 467.2098,-117.3575 489.7321,-89.1779"/>
<polygon fill="#191970" stroke="#191970" points="492.7557,-91.0008 496.2651,-81.004 487.2876,-86.6304 492.7557,-91.0008"/>
</g>
<!-- Node11&#45;&gt;Node8 -->
<g id="edge11" class="edge">
<title>Node11&#45;&gt;Node8</title>
<path fill="none" stroke="#191970" d="M322.9453,-108.8818C334.0287,-110.2672 345.0994,-111.6511 355.2147,-112.9155"/>
<polygon fill="#191970" stroke="#191970" points="355.0134,-116.4175 365.3704,-114.185 355.8817,-109.4716 355.0134,-116.4175"/>
</g>
<!-- Node11&#45;&gt;Node9 -->
<g id="edge12" class="edge">
<title>Node11&#45;&gt;Node9</title>
<path fill="none" stroke="#191970" d="M298.3846,-89.7685C316.9329,-86.3517 337.6192,-82.5411 355.351,-79.2747"/>
<polygon fill="#191970" stroke="#191970" points="356.2109,-82.6752 365.4114,-77.4214 354.9428,-75.7911 356.2109,-82.6752"/>
</g>
<!-- Node12&#45;&gt;Node5 -->
<g id="edge14" class="edge">
<title>Node12&#45;&gt;Node5</title>
<path fill="none" stroke="#191970" d="M416.3966,-23.9954C433.1697,-33.0576 458.4525,-46.7176 477.5524,-57.0369"/>
<polygon fill="#191970" stroke="#191970" points="475.9059,-60.1255 486.3677,-61.7997 479.2334,-53.9669 475.9059,-60.1255"/>
</g>
</g>
</svg>
