<?xml version="1.0" encoding="UTF-8" standalone="no"?>
<!DOCTYPE svg PUBLIC "-//W3C//DTD SVG 1.1//EN"
 "http://www.w3.org/Graphics/SVG/1.1/DTD/svg11.dtd">
<!-- Generated by graphviz version 2.40.1 (20161225.0304)
 -->
<!-- Title: Minimap Pages: 1 -->
<svg width="670pt" height="1527pt"
 viewBox="0.00 0.00 669.50 1527.00" xmlns="http://www.w3.org/2000/svg" xmlns:xlink="http://www.w3.org/1999/xlink">
<g id="graph0" class="graph" transform="scale(1 1) rotate(0) translate(4 1523)">
<title>Minimap</title>
<polygon fill="#ffffff" stroke="transparent" points="-4,4 -4,-1523 665.5,-1523 665.5,4 -4,4"/>
<!-- Node1 -->
<g id="node1" class="node">
<title>Node1</title>
<g id="a_node1"><a xlink:title=" ">
<polygon fill="#bfbfbf" stroke="#000000" points="58.5,-.5 58.5,-211.5 183.5,-211.5 183.5,-.5 58.5,-.5"/>
<text text-anchor="middle" x="121" y="-199.5" font-family="Helvetica,sans-Serif" font-size="10.00" fill="#000000">Minimap</text>
<polyline fill="none" stroke="#000000" points="58.5,-192.5 183.5,-192.5 "/>
<text text-anchor="start" x="66.5" y="-180.5" font-family="Helvetica,sans-Serif" font-size="10.00" fill="#000000">&#45; width</text>
<text text-anchor="start" x="66.5" y="-169.5" font-family="Helvetica,sans-Serif" font-size="10.00" fill="#000000">&#45; height</text>
<text text-anchor="start" x="66.5" y="-158.5" font-family="Helvetica,sans-Serif" font-size="10.00" fill="#000000">&#45; mouseDown</text>
<text text-anchor="start" x="66.5" y="-147.5" font-family="Helvetica,sans-Serif" font-size="10.00" fill="#000000">&#45; renderCoordinates</text>
<text text-anchor="start" x="66.5" y="-136.5" font-family="Helvetica,sans-Serif" font-size="10.00" fill="#000000">&#45; location</text>
<text text-anchor="start" x="66.5" y="-125.5" font-family="Helvetica,sans-Serif" font-size="10.00" fill="#000000">&#45; compass</text>
<text text-anchor="start" x="66.5" y="-114.5" font-family="Helvetica,sans-Serif" font-size="10.00" fill="#000000">&#45; location_white</text>
<text text-anchor="start" x="66.5" y="-103.5" font-family="Helvetica,sans-Serif" font-size="10.00" fill="#000000">&#45; mapOverlay</text>
<text text-anchor="start" x="66.5" y="-92.5" font-family="Helvetica,sans-Serif" font-size="10.00" fill="#000000">&#45; map</text>
<polyline fill="none" stroke="#000000" points="58.5,-85.5 183.5,-85.5 "/>
<text text-anchor="start" x="66.5" y="-73.5" font-family="Helvetica,sans-Serif" font-size="10.00" fill="#000000">+ Minimap()</text>
<text text-anchor="start" x="66.5" y="-62.5" font-family="Helvetica,sans-Serif" font-size="10.00" fill="#000000">+ paintEvent()</text>
<text text-anchor="start" x="66.5" y="-51.5" font-family="Helvetica,sans-Serif" font-size="10.00" fill="#000000">+ mouseReleaseEvent()</text>
<text text-anchor="start" x="66.5" y="-40.5" font-family="Helvetica,sans-Serif" font-size="10.00" fill="#000000">+ mousePressEvent()</text>
<text text-anchor="start" x="66.5" y="-29.5" font-family="Helvetica,sans-Serif" font-size="10.00" fill="#000000">+ mouseMoveEvent()</text>
<text text-anchor="start" x="66.5" y="-18.5" font-family="Helvetica,sans-Serif" font-size="10.00" fill="#000000">+ viewChange()</text>
<text text-anchor="start" x="66.5" y="-7.5" font-family="Helvetica,sans-Serif" font-size="10.00" fill="#000000">&#45; renderMap()</text>
</a>
</g>
</g>
<!-- Node2 -->
<g id="node2" class="node">
<title>Node2</title>
<g id="a_node2"><a xlink:title=" ">
<polygon fill="#ffffff" stroke="#bfbfbf" points="0,-843 0,-900 56,-900 56,-843 0,-843"/>
<text text-anchor="middle" x="28" y="-888" font-family="Helvetica,sans-Serif" font-size="10.00" fill="#000000">QWidget</text>
<polyline fill="none" stroke="#bfbfbf" points="0,-881 56,-881 "/>
<text text-anchor="middle" x="28" y="-869" font-family="Helvetica,sans-Serif" font-size="10.00" fill="#000000"> </text>
<polyline fill="none" stroke="#bfbfbf" points="0,-862 56,-862 "/>
<text text-anchor="middle" x="28" y="-850" font-family="Helvetica,sans-Serif" font-size="10.00" fill="#000000"> </text>
</a>
</g>
</g>
<!-- Node2&#45;&gt;Node1 -->
<g id="edge1" class="edge">
<title>Node2&#45;&gt;Node1</title>
<path fill="none" stroke="#191970" d="M27.4406,-832.5113C26.7498,-734.9014 29.2757,-472.528 71,-259 74.028,-243.5042 78.1548,-227.3957 82.7481,-211.6998"/>
<polygon fill="none" stroke="#191970" points="23.943,-832.8137 27.53,-842.7828 30.9428,-832.7527 23.943,-832.8137"/>
</g>
<!-- Node3 -->
<g id="node3" class="node">
<title>Node3</title>
<g id="a_node3"><a xlink:href="classMapRenderer.html" target="_top" xlink:title=" ">
<polygon fill="#ffffff" stroke="#000000" points="160.5,-259.5 160.5,-580.5 285.5,-580.5 285.5,-259.5 160.5,-259.5"/>
<text text-anchor="middle" x="223" y="-568.5" font-family="Helvetica,sans-Serif" font-size="10.00" fill="#000000">MapRenderer</text>
<polyline fill="none" stroke="#000000" points="160.5,-561.5 285.5,-561.5 "/>
<text text-anchor="start" x="168.5" y="-549.5" font-family="Helvetica,sans-Serif" font-size="10.00" fill="#000000">+ codeCount</text>
<text text-anchor="start" x="168.5" y="-538.5" font-family="Helvetica,sans-Serif" font-size="10.00" fill="#000000">&#45; mouseDown</text>
<text text-anchor="start" x="168.5" y="-527.5" font-family="Helvetica,sans-Serif" font-size="10.00" fill="#000000">&#45; offsetTargetX</text>
<text text-anchor="start" x="168.5" y="-516.5" font-family="Helvetica,sans-Serif" font-size="10.00" fill="#000000">&#45; offsetTargetY</text>
<text text-anchor="start" x="168.5" y="-505.5" font-family="Helvetica,sans-Serif" font-size="10.00" fill="#000000">&#45; showHighlight</text>
<text text-anchor="start" x="168.5" y="-494.5" font-family="Helvetica,sans-Serif" font-size="10.00" fill="#000000">&#45; rendering</text>
<text text-anchor="start" x="168.5" y="-483.5" font-family="Helvetica,sans-Serif" font-size="10.00" fill="#000000">&#45; renderTime</text>
<text text-anchor="start" x="168.5" y="-472.5" font-family="Helvetica,sans-Serif" font-size="10.00" fill="#000000">&#45; scale</text>
<text text-anchor="start" x="168.5" y="-461.5" font-family="Helvetica,sans-Serif" font-size="10.00" fill="#000000">&#45; showExpertDetails</text>
<text text-anchor="start" x="168.5" y="-450.5" font-family="Helvetica,sans-Serif" font-size="10.00" fill="#000000">&#45; movementAnimations</text>
<text text-anchor="start" x="168.5" y="-439.5" font-family="Helvetica,sans-Serif" font-size="10.00" fill="#000000">&#45; lastFpsTake</text>
<text text-anchor="start" x="168.5" y="-428.5" font-family="Helvetica,sans-Serif" font-size="10.00" fill="#000000">und 16 mehr ...</text>
<polyline fill="none" stroke="#000000" points="160.5,-421.5 285.5,-421.5 "/>
<text text-anchor="start" x="168.5" y="-409.5" font-family="Helvetica,sans-Serif" font-size="10.00" fill="#000000">+ MapRenderer()</text>
<text text-anchor="start" x="168.5" y="-398.5" font-family="Helvetica,sans-Serif" font-size="10.00" fill="#000000">+ paintEvent()</text>
<text text-anchor="start" x="168.5" y="-387.5" font-family="Helvetica,sans-Serif" font-size="10.00" fill="#000000">+ mousePressEvent()</text>
<text text-anchor="start" x="168.5" y="-376.5" font-family="Helvetica,sans-Serif" font-size="10.00" fill="#000000">+ mouseReleaseEvent()</text>
<text text-anchor="start" x="168.5" y="-365.5" font-family="Helvetica,sans-Serif" font-size="10.00" fill="#000000">+ mouseMoveEvent()</text>
<text text-anchor="start" x="168.5" y="-354.5" font-family="Helvetica,sans-Serif" font-size="10.00" fill="#000000">+ wheelEvent()</text>
<text text-anchor="start" x="168.5" y="-343.5" font-family="Helvetica,sans-Serif" font-size="10.00" fill="#000000">+ keyReleaseEvent()</text>
<text text-anchor="start" x="168.5" y="-332.5" font-family="Helvetica,sans-Serif" font-size="10.00" fill="#000000">+ tick()</text>
<text text-anchor="start" x="168.5" y="-321.5" font-family="Helvetica,sans-Serif" font-size="10.00" fill="#000000">+ logicUpdate()</text>
<text text-anchor="start" x="168.5" y="-310.5" font-family="Helvetica,sans-Serif" font-size="10.00" fill="#000000">+ renderFrame()</text>
<text text-anchor="start" x="168.5" y="-299.5" font-family="Helvetica,sans-Serif" font-size="10.00" fill="#000000">und 13 mehr ...</text>
<text text-anchor="start" x="168.5" y="-288.5" font-family="Helvetica,sans-Serif" font-size="10.00" fill="#000000">+ onTileChange()</text>
<text text-anchor="start" x="168.5" y="-277.5" font-family="Helvetica,sans-Serif" font-size="10.00" fill="#000000">+ enableHighlight()</text>
<text text-anchor="start" x="168.5" y="-266.5" font-family="Helvetica,sans-Serif" font-size="10.00" fill="#000000">+ setLogicSpeed()</text>
</a>
</g>
</g>
<!-- Node2&#45;&gt;Node3 -->
<g id="edge3" class="edge">
<title>Node2&#45;&gt;Node3</title>
<path fill="none" stroke="#191970" d="M33.4302,-833.0359C39.8195,-790.5538 51.5465,-720.3096 67,-661 74.3355,-632.8467 67.1657,-619.3064 88,-599 107.3286,-580.1612 125.5808,-598.6508 146,-581 151.0396,-576.6437 155.7758,-571.8835 160.2241,-566.818"/>
<polygon fill="none" stroke="#191970" points="29.9639,-832.5511 31.9596,-842.9562 36.8882,-833.5776 29.9639,-832.5511"/>
</g>
<!-- Node3&#45;&gt;Node1 -->
<g id="edge2" class="edge">
<title>Node3&#45;&gt;Node1</title>
<path fill="none" stroke="#404040" d="M170.8048,-259.3206C166.8714,-247.2119 162.9474,-235.1323 159.1267,-223.3703"/>
<polygon fill="none" stroke="#404040" points="159.0512,-223.1377 153.3931,-218.6671 155.3437,-211.7248 161.0018,-216.1954 159.0512,-223.1377"/>
<text text-anchor="middle" x="180" y="-233" font-family="Helvetica,sans-Serif" font-size="10.00" fill="#000000"> &#45;scene</text>
</g>
<!-- Node4 -->
<g id="node4" class="node">
<title>Node4</title>
<g id="a_node4"><a xlink:href="classMapTile.html" target="_top" xlink:title=" ">
<polygon fill="#ffffff" stroke="#000000" points="288,-777 288,-966 390,-966 390,-777 288,-777"/>
<text text-anchor="middle" x="339" y="-954" font-family="Helvetica,sans-Serif" font-size="10.00" fill="#000000">MapTile</text>
<polyline fill="none" stroke="#000000" points="288,-947 390,-947 "/>
<text text-anchor="start" x="296" y="-935" font-family="Helvetica,sans-Serif" font-size="10.00" fill="#000000">&#45; type</text>
<text text-anchor="start" x="296" y="-924" font-family="Helvetica,sans-Serif" font-size="10.00" fill="#000000">&#45; pixmapItem</text>
<text text-anchor="start" x="296" y="-913" font-family="Helvetica,sans-Serif" font-size="10.00" fill="#000000">&#45; currentRotation</text>
<polyline fill="none" stroke="#000000" points="288,-906 390,-906 "/>
<text text-anchor="start" x="296" y="-894" font-family="Helvetica,sans-Serif" font-size="10.00" fill="#000000">+ MapTile()</text>
<text text-anchor="start" x="296" y="-883" font-family="Helvetica,sans-Serif" font-size="10.00" fill="#000000">+ MapTile()</text>
<text text-anchor="start" x="296" y="-872" font-family="Helvetica,sans-Serif" font-size="10.00" fill="#000000">+ setType()</text>
<text text-anchor="start" x="296" y="-861" font-family="Helvetica,sans-Serif" font-size="10.00" fill="#000000">+ getType()</text>
<text text-anchor="start" x="296" y="-850" font-family="Helvetica,sans-Serif" font-size="10.00" fill="#000000">+ setRotation()</text>
<text text-anchor="start" x="296" y="-839" font-family="Helvetica,sans-Serif" font-size="10.00" fill="#000000">+ getRotation()</text>
<text text-anchor="start" x="296" y="-828" font-family="Helvetica,sans-Serif" font-size="10.00" fill="#000000">+ getRotationDeg()</text>
<text text-anchor="start" x="296" y="-817" font-family="Helvetica,sans-Serif" font-size="10.00" fill="#000000">+ setPosition()</text>
<text text-anchor="start" x="296" y="-806" font-family="Helvetica,sans-Serif" font-size="10.00" fill="#000000">+ isRiver()</text>
<text text-anchor="start" x="296" y="-795" font-family="Helvetica,sans-Serif" font-size="10.00" fill="#000000">+ isRail()</text>
<text text-anchor="start" x="296" y="-784" font-family="Helvetica,sans-Serif" font-size="10.00" fill="#000000">und 6 mehr ...</text>
</a>
</g>
</g>
<!-- Node4&#45;&gt;Node3 -->
<g id="edge4" class="edge">
<title>Node4&#45;&gt;Node3</title>
<path fill="none" stroke="#404040" d="M314.6826,-776.8508C300.983,-723.5285 283.4466,-655.2727 267.3862,-592.7619"/>
<polygon fill="none" stroke="#404040" points="267.287,-592.3753 261.9197,-587.5594 264.3008,-580.7528 269.6681,-585.5687 267.287,-592.3753"/>
<text text-anchor="middle" x="293" y="-618.5" font-family="Helvetica,sans-Serif" font-size="10.00" fill="#000000"> +data</text>
</g>
<!-- Node5 -->
<g id="node5" class="node">
<title>Node5</title>
<g id="a_node5"><a xlink:href="classGraphicsManager.html" target="_top" xlink:title=" ">
<polygon fill="#ffffff" stroke="#000000" points="150.5,-1184.5 150.5,-1252.5 263.5,-1252.5 263.5,-1184.5 150.5,-1184.5"/>
<text text-anchor="middle" x="207" y="-1240.5" font-family="Helvetica,sans-Serif" font-size="10.00" fill="#000000">GraphicsManager</text>
<polyline fill="none" stroke="#000000" points="150.5,-1233.5 263.5,-1233.5 "/>
<text text-anchor="start" x="158.5" y="-1221.5" font-family="Helvetica,sans-Serif" font-size="10.00" fill="#000000">+ GRAPHICS</text>
<polyline fill="none" stroke="#000000" points="150.5,-1214.5 263.5,-1214.5 "/>
<text text-anchor="start" x="158.5" y="-1202.5" font-family="Helvetica,sans-Serif" font-size="10.00" fill="#000000">+ GraphicsManager()</text>
<text text-anchor="start" x="158.5" y="-1191.5" font-family="Helvetica,sans-Serif" font-size="10.00" fill="#000000">+ get()</text>
</a>
</g>
</g>
<!-- Node5&#45;&gt;Node3 -->
<g id="edge7" class="edge">
<title>Node5&#45;&gt;Node3</title>
<path fill="none" stroke="#404040" d="M202.8399,-1184.3452C199.7007,-1156.7734 195.6607,-1116.9541 194,-1082 185.1201,-895.0997 182.8028,-847.7758 194,-661 195.3315,-638.7902 197.3472,-615.4906 199.7084,-592.4956"/>
<polygon fill="none" stroke="#404040" points="199.7142,-592.4396 196.3656,-586.0531 200.9728,-580.5058 204.3215,-586.8922 199.7142,-592.4396"/>
<text text-anchor="middle" x="236.5" y="-869" font-family="Helvetica,sans-Serif" font-size="10.00" fill="#000000"> &#45;graphicsManager</text>
</g>
<!-- Node5&#45;&gt;Node4 -->
<g id="edge5" class="edge">
<title>Node5&#45;&gt;Node4</title>
<path fill="none" stroke="#404040" d="M212.8534,-1184.3767C218.5191,-1159.1055 229.1149,-1124.8846 248,-1100 256.4964,-1088.8044 265.6929,-1093.3368 274,-1082 296.2404,-1051.6485 310.9864,-1013.5379 320.7136,-978.1141"/>
<polygon fill="none" stroke="#404040" points="320.7881,-977.8286 318.4359,-971.012 323.8236,-966.2189 326.1758,-973.0356 320.7881,-977.8286"/>
<text text-anchor="middle" x="290.5" y="-1103" font-family="Helvetica,sans-Serif" font-size="10.00" fill="#000000"> &#45;graphicsManager</text>
</g>
<!-- Node6 -->
<g id="node6" class="node">
<title>Node6</title>
<g id="a_node6"><a xlink:href="classCity.html" target="_top" xlink:title=" ">
<polygon fill="#ffffff" stroke="#000000" points="293.5,-1129.5 293.5,-1307.5 376.5,-1307.5 376.5,-1129.5 293.5,-1129.5"/>
<text text-anchor="middle" x="335" y="-1295.5" font-family="Helvetica,sans-Serif" font-size="10.00" fill="#000000">City</text>
<polyline fill="none" stroke="#000000" points="293.5,-1288.5 376.5,-1288.5 "/>
<text text-anchor="start" x="301.5" y="-1276.5" font-family="Helvetica,sans-Serif" font-size="10.00" fill="#000000">&#45; size</text>
<text text-anchor="start" x="301.5" y="-1265.5" font-family="Helvetica,sans-Serif" font-size="10.00" fill="#000000">&#45; centerX</text>
<text text-anchor="start" x="301.5" y="-1254.5" font-family="Helvetica,sans-Serif" font-size="10.00" fill="#000000">&#45; centerY</text>
<text text-anchor="start" x="301.5" y="-1243.5" font-family="Helvetica,sans-Serif" font-size="10.00" fill="#000000">&#45; name</text>
<polyline fill="none" stroke="#000000" points="293.5,-1236.5 376.5,-1236.5 "/>
<text text-anchor="start" x="301.5" y="-1224.5" font-family="Helvetica,sans-Serif" font-size="10.00" fill="#000000">+ City()</text>
<text text-anchor="start" x="301.5" y="-1213.5" font-family="Helvetica,sans-Serif" font-size="10.00" fill="#000000">+ City()</text>
<text text-anchor="start" x="301.5" y="-1202.5" font-family="Helvetica,sans-Serif" font-size="10.00" fill="#000000">+ getSize()</text>
<text text-anchor="start" x="301.5" y="-1191.5" font-family="Helvetica,sans-Serif" font-size="10.00" fill="#000000">+ getCenterX()</text>
<text text-anchor="start" x="301.5" y="-1180.5" font-family="Helvetica,sans-Serif" font-size="10.00" fill="#000000">+ getCenterY()</text>
<text text-anchor="start" x="301.5" y="-1169.5" font-family="Helvetica,sans-Serif" font-size="10.00" fill="#000000">+ getName()</text>
<text text-anchor="start" x="301.5" y="-1158.5" font-family="Helvetica,sans-Serif" font-size="10.00" fill="#000000">+ setSize()</text>
<text text-anchor="start" x="301.5" y="-1147.5" font-family="Helvetica,sans-Serif" font-size="10.00" fill="#000000">+ setCenter()</text>
<text text-anchor="start" x="301.5" y="-1136.5" font-family="Helvetica,sans-Serif" font-size="10.00" fill="#000000">+ setName()</text>
</a>
</g>
</g>
<!-- Node6&#45;&gt;Node4 -->
<g id="edge6" class="edge">
<title>Node6&#45;&gt;Node4</title>
<path fill="none" stroke="#404040" d="M336.0301,-1129.1389C336.5615,-1083.0441 337.2133,-1026.4947 337.7708,-978.1303"/>
<polygon fill="none" stroke="#404040" points="337.772,-978.0212 333.8415,-971.9755 337.9104,-966.022 341.8409,-972.0677 337.772,-978.0212"/>
<text text-anchor="middle" x="348" y="-1103" font-family="Helvetica,sans-Serif" font-size="10.00" fill="#000000"> &#45;city</text>
</g>
<!-- Node7 -->
<g id="node7" class="node">
<title>Node7</title>
<g id="a_node7"><a xlink:href="classPoint.html" target="_top" xlink:title=" ">
<polygon fill="#ffffff" stroke="#000000" points="76,-804.5 76,-938.5 134,-938.5 134,-804.5 76,-804.5"/>
<text text-anchor="middle" x="105" y="-926.5" font-family="Helvetica,sans-Serif" font-size="10.00" fill="#000000">Point</text>
<polyline fill="none" stroke="#000000" points="76,-919.5 134,-919.5 "/>
<text text-anchor="start" x="84" y="-907.5" font-family="Helvetica,sans-Serif" font-size="10.00" fill="#000000">&#45; x</text>
<text text-anchor="start" x="84" y="-896.5" font-family="Helvetica,sans-Serif" font-size="10.00" fill="#000000">&#45; y</text>
<polyline fill="none" stroke="#000000" points="76,-889.5 134,-889.5 "/>
<text text-anchor="start" x="84" y="-877.5" font-family="Helvetica,sans-Serif" font-size="10.00" fill="#000000">+ Point()</text>
<text text-anchor="start" x="84" y="-866.5" font-family="Helvetica,sans-Serif" font-size="10.00" fill="#000000">+ getX()</text>
<text text-anchor="start" x="84" y="-855.5" font-family="Helvetica,sans-Serif" font-size="10.00" fill="#000000">+ getY()</text>
<text text-anchor="start" x="84" y="-844.5" font-family="Helvetica,sans-Serif" font-size="10.00" fill="#000000">+ add()</text>
<text text-anchor="start" x="84" y="-833.5" font-family="Helvetica,sans-Serif" font-size="10.00" fill="#000000">+ set()</text>
<text text-anchor="start" x="84" y="-822.5" font-family="Helvetica,sans-Serif" font-size="10.00" fill="#000000">+ move()</text>
<text text-anchor="start" x="84" y="-811.5" font-family="Helvetica,sans-Serif" font-size="10.00" fill="#000000">+ toTile()</text>
</a>
</g>
</g>
<!-- Node7&#45;&gt;Node1 -->
<g id="edge16" class="edge">
<title>Node7&#45;&gt;Node1</title>
<path fill="none" stroke="#404040" d="M96.32,-804.1621C83.1938,-691.0948 62.124,-456.1008 85,-259 86.3449,-247.4122 88.2445,-235.4279 90.4761,-223.5028"/>
<polygon fill="none" stroke="#404040" points="90.4983,-223.3894 87.7292,-216.7312 92.8101,-211.6141 95.5793,-218.2724 90.4983,-223.3894"/>
<text text-anchor="middle" x="118" y="-417.5" font-family="Helvetica,sans-Serif" font-size="10.00" fill="#000000"> &#45;hoverCoords</text>
</g>
<!-- Node7&#45;&gt;Node3 -->
<g id="edge8" class="edge">
<title>Node7&#45;&gt;Node3</title>
<path fill="none" stroke="#404040" d="M88.0197,-804.3958C77.1341,-745.607 71.3764,-660.2311 110,-599 119.5438,-583.87 133.4623,-593.7596 146,-581 148.3124,-578.6467 150.5656,-576.2106 152.7606,-573.7027"/>
<polygon fill="none" stroke="#404040" points="152.8421,-573.6034 153.5568,-566.4278 160.4553,-564.3277 159.7406,-571.5033 152.8421,-573.6034"/>
<text text-anchor="middle" x="140.5" y="-635" font-family="Helvetica,sans-Serif" font-size="10.00" fill="#000000"> &#45;activeTile</text>
<text text-anchor="middle" x="140.5" y="-624" font-family="Helvetica,sans-Serif" font-size="10.00" fill="#000000">&#45;dragOrigin</text>
<text text-anchor="middle" x="140.5" y="-613" font-family="Helvetica,sans-Serif" font-size="10.00" fill="#000000">+offset</text>
<text text-anchor="middle" x="140.5" y="-602" font-family="Helvetica,sans-Serif" font-size="10.00" fill="#000000">&#45;dragPosition</text>
</g>
<!-- Node8 -->
<g id="node8" class="node">
<title>Node8</title>
<g id="a_node8"><a xlink:href="classDataModel.html" target="_top" xlink:title=" ">
<polygon fill="#ffffff" stroke="#000000" points="408.5,-661.5 408.5,-1081.5 545.5,-1081.5 545.5,-661.5 408.5,-661.5"/>
<text text-anchor="middle" x="477" y="-1069.5" font-family="Helvetica,sans-Serif" font-size="10.00" fill="#000000">DataModel</text>
<polyline fill="none" stroke="#000000" points="408.5,-1062.5 545.5,-1062.5 "/>
<text text-anchor="start" x="416.5" y="-1050.5" font-family="Helvetica,sans-Serif" font-size="10.00" fill="#000000">+ RADIUS_DEPOT</text>
<text text-anchor="start" x="416.5" y="-1039.5" font-family="Helvetica,sans-Serif" font-size="10.00" fill="#000000">+ RADIUS_STATION</text>
<text text-anchor="start" x="416.5" y="-1028.5" font-family="Helvetica,sans-Serif" font-size="10.00" fill="#000000">+ RADIUS_TERMINAL</text>
<text text-anchor="start" x="416.5" y="-1017.5" font-family="Helvetica,sans-Serif" font-size="10.00" fill="#000000">&#45; balance</text>
<text text-anchor="start" x="416.5" y="-1006.5" font-family="Helvetica,sans-Serif" font-size="10.00" fill="#000000">&#45; time</text>
<text text-anchor="start" x="416.5" y="-995.5" font-family="Helvetica,sans-Serif" font-size="10.00" fill="#000000">&#45; coordinateX</text>
<text text-anchor="start" x="416.5" y="-984.5" font-family="Helvetica,sans-Serif" font-size="10.00" fill="#000000">&#45; coordinateY</text>
<text text-anchor="start" x="416.5" y="-973.5" font-family="Helvetica,sans-Serif" font-size="10.00" fill="#000000">&#45; mapLoaded</text>
<text text-anchor="start" x="416.5" y="-962.5" font-family="Helvetica,sans-Serif" font-size="10.00" fill="#000000">&#45; ip</text>
<text text-anchor="start" x="416.5" y="-951.5" font-family="Helvetica,sans-Serif" font-size="10.00" fill="#000000">&#45; port</text>
<text text-anchor="start" x="416.5" y="-940.5" font-family="Helvetica,sans-Serif" font-size="10.00" fill="#000000">&#45; balanceLabel</text>
<text text-anchor="start" x="416.5" y="-929.5" font-family="Helvetica,sans-Serif" font-size="10.00" fill="#000000">&#45; timeLabel</text>
<text text-anchor="start" x="416.5" y="-918.5" font-family="Helvetica,sans-Serif" font-size="10.00" fill="#000000">&#45; positionLabel</text>
<text text-anchor="start" x="416.5" y="-907.5" font-family="Helvetica,sans-Serif" font-size="10.00" fill="#000000">&#45; statusDisplay</text>
<text text-anchor="start" x="416.5" y="-896.5" font-family="Helvetica,sans-Serif" font-size="10.00" fill="#000000">&#45; connectionLabel</text>
<text text-anchor="start" x="416.5" y="-885.5" font-family="Helvetica,sans-Serif" font-size="10.00" fill="#000000">&#45; mode</text>
<polyline fill="none" stroke="#000000" points="408.5,-878.5 545.5,-878.5 "/>
<text text-anchor="start" x="416.5" y="-866.5" font-family="Helvetica,sans-Serif" font-size="10.00" fill="#000000">+ DataModel()</text>
<text text-anchor="start" x="416.5" y="-855.5" font-family="Helvetica,sans-Serif" font-size="10.00" fill="#000000">+ getBalance()</text>
<text text-anchor="start" x="416.5" y="-844.5" font-family="Helvetica,sans-Serif" font-size="10.00" fill="#000000">+ updateBalance()</text>
<text text-anchor="start" x="416.5" y="-833.5" font-family="Helvetica,sans-Serif" font-size="10.00" fill="#000000">+ takeBalance()</text>
<text text-anchor="start" x="416.5" y="-822.5" font-family="Helvetica,sans-Serif" font-size="10.00" fill="#000000">+ timeTick()</text>
<text text-anchor="start" x="416.5" y="-811.5" font-family="Helvetica,sans-Serif" font-size="10.00" fill="#000000">+ getTime()</text>
<text text-anchor="start" x="416.5" y="-800.5" font-family="Helvetica,sans-Serif" font-size="10.00" fill="#000000">+ setTime()</text>
<text text-anchor="start" x="416.5" y="-789.5" font-family="Helvetica,sans-Serif" font-size="10.00" fill="#000000">+ getSystemMillis()</text>
<text text-anchor="start" x="416.5" y="-778.5" font-family="Helvetica,sans-Serif" font-size="10.00" fill="#000000">+ updateCoordinates()</text>
<text text-anchor="start" x="416.5" y="-767.5" font-family="Helvetica,sans-Serif" font-size="10.00" fill="#000000">+ getHoverX()</text>
<text text-anchor="start" x="416.5" y="-756.5" font-family="Helvetica,sans-Serif" font-size="10.00" fill="#000000">und 13 mehr ...</text>
<text text-anchor="start" x="416.5" y="-745.5" font-family="Helvetica,sans-Serif" font-size="10.00" fill="#000000">+ setDefaultMode()</text>
<text text-anchor="start" x="416.5" y="-734.5" font-family="Helvetica,sans-Serif" font-size="10.00" fill="#000000">+ setTrainStationMode()</text>
<text text-anchor="start" x="416.5" y="-723.5" font-family="Helvetica,sans-Serif" font-size="10.00" fill="#000000">+ setDepotMode()</text>
<text text-anchor="start" x="416.5" y="-712.5" font-family="Helvetica,sans-Serif" font-size="10.00" fill="#000000">+ setTerminalMode()</text>
<text text-anchor="start" x="416.5" y="-701.5" font-family="Helvetica,sans-Serif" font-size="10.00" fill="#000000">+ setBridgeMode()</text>
<text text-anchor="start" x="416.5" y="-690.5" font-family="Helvetica,sans-Serif" font-size="10.00" fill="#000000">+ setRailPlacementMode()</text>
<text text-anchor="start" x="416.5" y="-679.5" font-family="Helvetica,sans-Serif" font-size="10.00" fill="#000000">+ setRemoveMode()</text>
<text text-anchor="start" x="416.5" y="-668.5" font-family="Helvetica,sans-Serif" font-size="10.00" fill="#000000">+ setMapLoaded()</text>
</a>
</g>
</g>
<!-- Node8&#45;&gt;Node1 -->
<g id="edge17" class="edge">
<title>Node8&#45;&gt;Node1</title>
<path fill="none" stroke="#404040" d="M459.6704,-661.2288C455.962,-640.0365 451.4615,-618.9791 446,-599 402.3538,-439.3337 391.9904,-392.4024 294,-259 266.1309,-221.0595 227.4356,-185.7378 193.7067,-158.6134"/>
<polygon fill="none" stroke="#404040" points="193.2839,-158.2785 186.0971,-157.6873 183.8787,-150.8258 191.0655,-151.4171 193.2839,-158.2785"/>
<text text-anchor="middle" x="468.5" y="-417.5" font-family="Helvetica,sans-Serif" font-size="10.00" fill="#000000"> &#45;dataModel</text>
</g>
<!-- Node8&#45;&gt;Node3 -->
<g id="edge9" class="edge">
<title>Node8&#45;&gt;Node3</title>
<path fill="none" stroke="#404040" d="M408.4457,-679.4625C405.3768,-673.1797 402.2267,-667.0088 399,-661 369.2562,-605.6119 328.1656,-548.5838 293.1682,-503.9153"/>
<polygon fill="none" stroke="#404040" points="293.0041,-503.7074 286.147,-501.4757 285.5696,-494.2878 292.4267,-496.5194 293.0041,-503.7074"/>
<text text-anchor="middle" x="415.5" y="-618.5" font-family="Helvetica,sans-Serif" font-size="10.00" fill="#000000"> &#45;dataModel</text>
</g>
<!-- Node9 -->
<g id="node9" class="node">
<title>Node9</title>
<g id="a_node9"><a xlink:title=" ">
<polygon fill="#ffffff" stroke="#bfbfbf" points="608.5,-1190 608.5,-1247 661.5,-1247 661.5,-1190 608.5,-1190"/>
<text text-anchor="middle" x="635" y="-1235" font-family="Helvetica,sans-Serif" font-size="10.00" fill="#000000">QObject</text>
<polyline fill="none" stroke="#bfbfbf" points="608.5,-1228 661.5,-1228 "/>
<text text-anchor="middle" x="635" y="-1216" font-family="Helvetica,sans-Serif" font-size="10.00" fill="#000000"> </text>
<polyline fill="none" stroke="#bfbfbf" points="608.5,-1209 661.5,-1209 "/>
<text text-anchor="middle" x="635" y="-1197" font-family="Helvetica,sans-Serif" font-size="10.00" fill="#000000"> </text>
</a>
</g>
</g>
<!-- Node9&#45;&gt;Node8 -->
<g id="edge10" class="edge">
<title>Node9&#45;&gt;Node8</title>
<path fill="none" stroke="#191970" d="M621.5793,-1180.3682C613.0776,-1156.9531 601.5421,-1126.4769 590,-1100 576.3824,-1068.7621 560.7336,-1035.6435 545.5075,-1004.6016"/>
<polygon fill="none" stroke="#191970" points="618.3452,-1181.7176 625.0284,-1189.9387 624.9306,-1179.3443 618.3452,-1181.7176"/>
</g>
<!-- Node10 -->
<g id="node10" class="node">
<title>Node10</title>
<g id="a_node10"><a xlink:href="classPlayer.html" target="_top" xlink:title=" ">
<polygon fill="#ffffff" stroke="#000000" points="394.5,-1179 394.5,-1258 475.5,-1258 475.5,-1179 394.5,-1179"/>
<text text-anchor="middle" x="435" y="-1246" font-family="Helvetica,sans-Serif" font-size="10.00" fill="#000000">Player</text>
<polyline fill="none" stroke="#000000" points="394.5,-1239 475.5,-1239 "/>
<text text-anchor="start" x="402.5" y="-1227" font-family="Helvetica,sans-Serif" font-size="10.00" fill="#000000">+ posX</text>
<text text-anchor="start" x="402.5" y="-1216" font-family="Helvetica,sans-Serif" font-size="10.00" fill="#000000">+ posY</text>
<polyline fill="none" stroke="#000000" points="394.5,-1209 475.5,-1209 "/>
<text text-anchor="start" x="402.5" y="-1197" font-family="Helvetica,sans-Serif" font-size="10.00" fill="#000000">+ Player()</text>
<text text-anchor="start" x="402.5" y="-1186" font-family="Helvetica,sans-Serif" font-size="10.00" fill="#000000">+ setPosition()</text>
</a>
</g>
</g>
<!-- Node10&#45;&gt;Node8 -->
<g id="edge11" class="edge">
<title>Node10&#45;&gt;Node8</title>
<path fill="none" stroke="#404040" d="M436.4167,-1178.9244C437.4722,-1155.8576 439.2222,-1126.2326 442,-1100 442.2215,-1097.9079 442.4487,-1095.8056 442.6811,-1093.6945"/>
<polygon fill="none" stroke="#404040" points="442.7101,-1093.4389 439.4146,-1087.0248 444.0677,-1081.5159 447.3633,-1087.9299 442.7101,-1093.4389"/>
<text text-anchor="middle" x="478.5" y="-1103" font-family="Helvetica,sans-Serif" font-size="10.00" fill="#000000"> +secondPlayer</text>
</g>
<!-- Node11 -->
<g id="node11" class="node">
<title>Node11</title>
<g id="a_node11"><a xlink:href="classHighlighter.html" target="_top" xlink:title=" ">
<polygon fill="#ffffff" stroke="#000000" points="395.5,-1355.5 395.5,-1423.5 474.5,-1423.5 474.5,-1355.5 395.5,-1355.5"/>
<text text-anchor="middle" x="435" y="-1411.5" font-family="Helvetica,sans-Serif" font-size="10.00" fill="#000000">Highlighter</text>
<polyline fill="none" stroke="#000000" points="395.5,-1404.5 474.5,-1404.5 "/>
<text text-anchor="start" x="403.5" y="-1392.5" font-family="Helvetica,sans-Serif" font-size="10.00" fill="#000000">&#45; outline</text>
<polyline fill="none" stroke="#000000" points="395.5,-1385.5 474.5,-1385.5 "/>
<text text-anchor="start" x="403.5" y="-1373.5" font-family="Helvetica,sans-Serif" font-size="10.00" fill="#000000">+ Highlighter()</text>
<text text-anchor="start" x="403.5" y="-1362.5" font-family="Helvetica,sans-Serif" font-size="10.00" fill="#000000">+ setColor()</text>
</a>
</g>
</g>
<!-- Node11&#45;&gt;Node10 -->
<g id="edge12" class="edge">
<title>Node11&#45;&gt;Node10</title>
<path fill="none" stroke="#404040" d="M435,-1355.3066C435,-1330.9647 435,-1297.8183 435,-1270.249"/>
<polygon fill="none" stroke="#404040" points="435.0001,-1270.0262 431,-1264.0262 435,-1258.0262 439,-1264.0261 435.0001,-1270.0262"/>
<text text-anchor="middle" x="462.5" y="-1329" font-family="Helvetica,sans-Serif" font-size="10.00" fill="#000000"> +highlighter</text>
</g>
<!-- Node12 -->
<g id="node12" class="node">
<title>Node12</title>
<g id="a_node12"><a xlink:title=" ">
<polygon fill="#ffffff" stroke="#bfbfbf" points="383,-1461.5 383,-1518.5 487,-1518.5 487,-1461.5 383,-1461.5"/>
<text text-anchor="middle" x="435" y="-1506.5" font-family="Helvetica,sans-Serif" font-size="10.00" fill="#000000">QGraphicsRectItem</text>
<polyline fill="none" stroke="#bfbfbf" points="383,-1499.5 487,-1499.5 "/>
<text text-anchor="middle" x="435" y="-1487.5" font-family="Helvetica,sans-Serif" font-size="10.00" fill="#000000"> </text>
<polyline fill="none" stroke="#bfbfbf" points="383,-1480.5 487,-1480.5 "/>
<text text-anchor="middle" x="435" y="-1468.5" font-family="Helvetica,sans-Serif" font-size="10.00" fill="#000000"> </text>
</a>
</g>
</g>
<!-- Node12&#45;&gt;Node11 -->
<g id="edge13" class="edge">
<title>Node12&#45;&gt;Node11</title>
<path fill="none" stroke="#191970" d="M435,-1451.1903C435,-1442.1667 435,-1432.6233 435,-1423.8097"/>
<polygon fill="none" stroke="#191970" points="431.5001,-1451.4695 435,-1461.4696 438.5001,-1451.4696 431.5001,-1451.4695"/>
</g>
<!-- Node13 -->
<g id="node13" class="node">
<title>Node13</title>
<g id="a_node13"><a xlink:href="classMainWindow.html" target="_top" xlink:title=" ">
<polygon fill="#ffffff" stroke="#000000" points="494,-1184.5 494,-1252.5 590,-1252.5 590,-1184.5 494,-1184.5"/>
<text text-anchor="middle" x="542" y="-1240.5" font-family="Helvetica,sans-Serif" font-size="10.00" fill="#000000">MainWindow</text>
<polyline fill="none" stroke="#000000" points="494,-1233.5 590,-1233.5 "/>
<text text-anchor="start" x="502" y="-1221.5" font-family="Helvetica,sans-Serif" font-size="10.00" fill="#000000">&#45; ui</text>
<polyline fill="none" stroke="#000000" points="494,-1214.5 590,-1214.5 "/>
<text text-anchor="start" x="502" y="-1202.5" font-family="Helvetica,sans-Serif" font-size="10.00" fill="#000000">+ MainWindow()</text>
<text text-anchor="start" x="502" y="-1191.5" font-family="Helvetica,sans-Serif" font-size="10.00" fill="#000000">+ ~MainWindow()</text>
</a>
</g>
</g>
<!-- Node13&#45;&gt;Node8 -->
<g id="edge14" class="edge">
<title>Node13&#45;&gt;Node8</title>
<path fill="none" stroke="#404040" d="M535.5897,-1184.2786C531.3021,-1161.3898 525.2514,-1129.088 518.6525,-1093.8603"/>
<polygon fill="none" stroke="#404040" points="518.6049,-1093.6056 513.5685,-1088.4447 516.3954,-1081.8108 521.4317,-1086.9717 518.6049,-1093.6056"/>
<text text-anchor="middle" x="553.5" y="-1103" font-family="Helvetica,sans-Serif" font-size="10.00" fill="#000000"> &#45;mainWindow</text>
</g>
<!-- Node14 -->
<g id="node14" class="node">
<title>Node14</title>
<g id="a_node14"><a xlink:title=" ">
<polygon fill="#ffffff" stroke="#bfbfbf" points="500.5,-1361 500.5,-1418 583.5,-1418 583.5,-1361 500.5,-1361"/>
<text text-anchor="middle" x="542" y="-1406" font-family="Helvetica,sans-Serif" font-size="10.00" fill="#000000">QMainWindow</text>
<polyline fill="none" stroke="#bfbfbf" points="500.5,-1399 583.5,-1399 "/>
<text text-anchor="middle" x="542" y="-1387" font-family="Helvetica,sans-Serif" font-size="10.00" fill="#000000"> </text>
<polyline fill="none" stroke="#bfbfbf" points="500.5,-1380 583.5,-1380 "/>
<text text-anchor="middle" x="542" y="-1368" font-family="Helvetica,sans-Serif" font-size="10.00" fill="#000000"> </text>
</a>
</g>
</g>
<!-- Node14&#45;&gt;Node13 -->
<g id="edge15" class="edge">
<title>Node14&#45;&gt;Node13</title>
<path fill="none" stroke="#191970" d="M542,-1350.5167C542,-1320.9698 542,-1280.768 542,-1252.5157"/>
<polygon fill="none" stroke="#191970" points="538.5001,-1350.8784 542,-1360.8784 545.5001,-1350.8785 538.5001,-1350.8784"/>
</g>
</g>
</svg>
