<?xml version="1.0" encoding="UTF-8" standalone="no"?>
<!DOCTYPE svg PUBLIC "-//W3C//DTD SVG 1.1//EN"
 "http://www.w3.org/Graphics/SVG/1.1/DTD/svg11.dtd">
<!-- Generated by graphviz version 2.40.1 (20161225.0304)
 -->
<!-- Title: MenuBar::slotOpenConnection Pages: 1 -->
<svg width="311pt" height="142pt"
 viewBox="0.00 0.00 311.00 142.00" xmlns="http://www.w3.org/2000/svg" xmlns:xlink="http://www.w3.org/1999/xlink">
<g id="graph0" class="graph" transform="scale(1 1) rotate(0) translate(4 138)">
<title>MenuBar::slotOpenConnection</title>
<polygon fill="#ffffff" stroke="transparent" points="-4,4 -4,-138 307,-138 307,4 -4,4"/>
<!-- Node1 -->
<g id="node1" class="node">
<title>Node1</title>
<g id="a_node1"><a xlink:title="MenuBar::openConnection Öffnet Input&#45;Dialog für IP&#45;Adresse und iniitiert Client.">
<polygon fill="#bfbfbf" stroke="#000000" points="0,-57.5 0,-76.5 154,-76.5 154,-57.5 0,-57.5"/>
<text text-anchor="middle" x="77" y="-64.5" font-family="Helvetica,sans-Serif" font-size="10.00" fill="#000000">MenuBar::slotOpenConnection</text>
</a>
</g>
</g>
<!-- Node2 -->
<g id="node2" class="node">
<title>Node2</title>
<g id="a_node2"><a xlink:href="classClient.html#a3e87107046f7d60f4dad63b5909c9fe6" target="_top" xlink:title="Client::requestInfo Fragt beim Client nach einer Auflistung der Informationen an der Stelle x,...">
<polygon fill="#ffffff" stroke="#000000" points="197.5,-114.5 197.5,-133.5 295.5,-133.5 295.5,-114.5 197.5,-114.5"/>
<text text-anchor="middle" x="246.5" y="-121.5" font-family="Helvetica,sans-Serif" font-size="10.00" fill="#000000">Client::requestInfo</text>
</a>
</g>
</g>
<!-- Node1&#45;&gt;Node2 -->
<g id="edge1" class="edge">
<title>Node1&#45;&gt;Node2</title>
<path fill="none" stroke="#191970" d="M105.3705,-76.5405C133.6037,-86.0349 177.1144,-100.6668 208.3587,-111.1737"/>
<polygon fill="#191970" stroke="#191970" points="207.4429,-114.5583 218.037,-114.4284 209.6742,-107.9234 207.4429,-114.5583"/>
</g>
<!-- Node3 -->
<g id="node3" class="node">
<title>Node3</title>
<g id="a_node3"><a xlink:href="classClient.html#a88311ac4a5f132a2fd5dcee110cb98c3" target="_top" xlink:title="Client::requestMap Fragt beim Server die gesamten Kartendaten an.">
<polygon fill="#ffffff" stroke="#000000" points="196,-76.5 196,-95.5 297,-95.5 297,-76.5 196,-76.5"/>
<text text-anchor="middle" x="246.5" y="-83.5" font-family="Helvetica,sans-Serif" font-size="10.00" fill="#000000">Client::requestMap</text>
</a>
</g>
</g>
<!-- Node1&#45;&gt;Node3 -->
<g id="edge2" class="edge">
<title>Node1&#45;&gt;Node3</title>
<path fill="none" stroke="#191970" d="M154.3098,-75.666C164.9182,-76.8551 175.6834,-78.0619 185.9334,-79.2108"/>
<polygon fill="#191970" stroke="#191970" points="185.6592,-82.7019 195.9869,-80.3378 186.4391,-75.7455 185.6592,-82.7019"/>
</g>
<!-- Node4 -->
<g id="node4" class="node">
<title>Node4</title>
<g id="a_node4"><a xlink:href="classClient.html#a0117b947b8fa4c074ad042aa58b81f0c" target="_top" xlink:title="Client::requestRoutes Fragt beim Server eine Liste aller Routen des Spielers an.">
<polygon fill="#ffffff" stroke="#000000" points="190,-38.5 190,-57.5 303,-57.5 303,-38.5 190,-38.5"/>
<text text-anchor="middle" x="246.5" y="-45.5" font-family="Helvetica,sans-Serif" font-size="10.00" fill="#000000">Client::requestRoutes</text>
</a>
</g>
</g>
<!-- Node1&#45;&gt;Node4 -->
<g id="edge3" class="edge">
<title>Node1&#45;&gt;Node4</title>
<path fill="none" stroke="#191970" d="M154.3098,-58.334C162.7518,-57.3877 171.293,-56.4303 179.595,-55.4997"/>
<polygon fill="#191970" stroke="#191970" points="180.0322,-58.9727 189.5801,-54.3804 179.2524,-52.0162 180.0322,-58.9727"/>
</g>
<!-- Node5 -->
<g id="node5" class="node">
<title>Node5</title>
<g id="a_node5"><a xlink:href="classClient.html#ada128336cc2851c3695585eb1f72c81f" target="_top" xlink:title="Client::sendRoute Schicke die Daten einer neuen Route an den Server, sodass dieser diese speichern ka...">
<polygon fill="#ffffff" stroke="#000000" points="198,-.5 198,-19.5 295,-19.5 295,-.5 198,-.5"/>
<text text-anchor="middle" x="246.5" y="-7.5" font-family="Helvetica,sans-Serif" font-size="10.00" fill="#000000">Client::sendRoute</text>
</a>
</g>
</g>
<!-- Node1&#45;&gt;Node5 -->
<g id="edge4" class="edge">
<title>Node1&#45;&gt;Node5</title>
<path fill="none" stroke="#191970" d="M105.3705,-57.4595C133.6037,-47.9651 177.1144,-33.3332 208.3587,-22.8263"/>
<polygon fill="#191970" stroke="#191970" points="209.6742,-26.0766 218.037,-19.5716 207.4429,-19.4417 209.6742,-26.0766"/>
</g>
</g>
</svg>
