<?xml version="1.0" encoding="UTF-8" standalone="no"?>
<!DOCTYPE svg PUBLIC "-//W3C//DTD SVG 1.1//EN"
 "http://www.w3.org/Graphics/SVG/1.1/DTD/svg11.dtd">
<!-- Generated by graphviz version 2.40.1 (20161225.0304)
 -->
<!-- Title: MapRenderer::onTrainPass Pages: 1 -->
<svg width="811pt" height="78pt"
 viewBox="0.00 0.00 811.00 77.50" xmlns="http://www.w3.org/2000/svg" xmlns:xlink="http://www.w3.org/1999/xlink">
<g id="graph0" class="graph" transform="scale(1 1) rotate(0) translate(4 73.5)">
<title>MapRenderer::onTrainPass</title>
<polygon fill="#ffffff" stroke="transparent" points="-4,4 -4,-73.5 807,-73.5 807,4 -4,4"/>
<!-- Node1 -->
<g id="node1" class="node">
<title>Node1</title>
<g id="a_node1"><a xlink:title=" ">
<polygon fill="#bfbfbf" stroke="#000000" points="660,-28 660,-47 803,-47 803,-28 660,-28"/>
<text text-anchor="middle" x="731.5" y="-35" font-family="Helvetica,sans-Serif" font-size="10.00" fill="#000000">MapRenderer::onTrainPass</text>
</a>
</g>
</g>
<!-- Node2 -->
<g id="node2" class="node">
<title>Node2</title>
<g id="a_node2"><a xlink:href="classClient.html#a259d03bc8e9c317d6aeb86a68d7d0b22" target="_top" xlink:title="Client::Client Erzeugt einen neuen Client.">
<polygon fill="#ffffff" stroke="#000000" points="509,-50 509,-69 583,-69 583,-50 509,-50"/>
<text text-anchor="middle" x="546" y="-57" font-family="Helvetica,sans-Serif" font-size="10.00" fill="#000000">Client::Client</text>
</a>
</g>
</g>
<!-- Node1&#45;&gt;Node2 -->
<g id="edge1" class="edge">
<title>Node1&#45;&gt;Node2</title>
<path fill="none" stroke="#191970" d="M649.5495,-47.2192C626.3244,-49.9737 602.1835,-52.8367 583.059,-55.1049"/>
<polygon fill="#191970" stroke="#191970" points="650.2627,-50.6592 659.7809,-46.0058 649.4382,-43.7079 650.2627,-50.6592"/>
</g>
<!-- Node3 -->
<g id="node3" class="node">
<title>Node3</title>
<g id="a_node3"><a xlink:href="classMapRenderer.html#a8a4025ac579a3a9ec1b56544431f263b" target="_top" xlink:title="MapRenderer::handleReachedPoint Wird aufgerufen, wenn eine Animation einen neuen Punkt erreicht.">
<polygon fill="#ffffff" stroke="#000000" points="468,-.5 468,-30.5 624,-30.5 624,-.5 468,-.5"/>
<text text-anchor="start" x="476" y="-18.5" font-family="Helvetica,sans-Serif" font-size="10.00" fill="#000000">MapRenderer::handleReached</text>
<text text-anchor="middle" x="546" y="-7.5" font-family="Helvetica,sans-Serif" font-size="10.00" fill="#000000">Point</text>
</a>
</g>
</g>
<!-- Node1&#45;&gt;Node3 -->
<g id="edge2" class="edge">
<title>Node1&#45;&gt;Node3</title>
<path fill="none" stroke="#191970" d="M649.6042,-27.7873C641.1967,-26.7902 632.6685,-25.7787 624.3011,-24.7864"/>
<polygon fill="#191970" stroke="#191970" points="649.4382,-31.2921 659.7809,-28.9942 650.2627,-24.3408 649.4382,-31.2921"/>
</g>
<!-- Node4 -->
<g id="node4" class="node">
<title>Node4</title>
<g id="a_node4"><a xlink:href="classMapRenderer.html#a58a55f100157958cf39c7028b12ef569" target="_top" xlink:title=" ">
<polygon fill="#ffffff" stroke="#000000" points="265,-.5 265,-30.5 432,-30.5 432,-.5 265,-.5"/>
<text text-anchor="start" x="273" y="-18.5" font-family="Helvetica,sans-Serif" font-size="10.00" fill="#000000">MapRenderer::animateMovement</text>
<text text-anchor="middle" x="348.5" y="-7.5" font-family="Helvetica,sans-Serif" font-size="10.00" fill="#000000">Tracked</text>
</a>
</g>
</g>
<!-- Node3&#45;&gt;Node4 -->
<g id="edge3" class="edge">
<title>Node3&#45;&gt;Node4</title>
<path fill="none" stroke="#191970" d="M457.6656,-15.5C449.1839,-15.5 440.5987,-15.5 432.1638,-15.5"/>
<polygon fill="#191970" stroke="#191970" points="457.9428,-19.0001 467.9428,-15.5 457.9427,-12.0001 457.9428,-19.0001"/>
</g>
<!-- Node5 -->
<g id="node5" class="node">
<title>Node5</title>
<g id="a_node5"><a xlink:href="classClient.html#a4cc6ded21fb38d6341fd91314156920e" target="_top" xlink:title="Client::processCommand Führt einen empfangenen Befehl aus dem Serverprotokoll aus.">
<polygon fill="#ffffff" stroke="#000000" points="98,-6 98,-25 229,-25 229,-6 98,-6"/>
<text text-anchor="middle" x="163.5" y="-13" font-family="Helvetica,sans-Serif" font-size="10.00" fill="#000000">Client::processCommand</text>
</a>
</g>
</g>
<!-- Node4&#45;&gt;Node5 -->
<g id="edge4" class="edge">
<title>Node4&#45;&gt;Node5</title>
<path fill="none" stroke="#191970" d="M254.8016,-15.5C246.1634,-15.5 237.5392,-15.5 229.2302,-15.5"/>
<polygon fill="#191970" stroke="#191970" points="254.9305,-19.0001 264.9305,-15.5 254.9305,-12.0001 254.9305,-19.0001"/>
</g>
<!-- Node6 -->
<g id="node6" class="node">
<title>Node6</title>
<g id="a_node6"><a xlink:href="classClient.html#ad2cfacbefea1e51e34c4697403fb82cb" target="_top" xlink:title="Client::run Startet den Client&#45;Thread.">
<polygon fill="#ffffff" stroke="#000000" points="0,-6 0,-25 62,-25 62,-6 0,-6"/>
<text text-anchor="middle" x="31" y="-13" font-family="Helvetica,sans-Serif" font-size="10.00" fill="#000000">Client::run</text>
</a>
</g>
</g>
<!-- Node5&#45;&gt;Node6 -->
<g id="edge5" class="edge">
<title>Node5&#45;&gt;Node6</title>
<path fill="none" stroke="#191970" d="M87.5463,-15.5C78.6662,-15.5 70.0238,-15.5 62.2761,-15.5"/>
<polygon fill="#191970" stroke="#191970" points="87.6382,-19.0001 97.6382,-15.5 87.6381,-12.0001 87.6382,-19.0001"/>
</g>
</g>
</svg>
