<?xml version="1.0" encoding="UTF-8" standalone="no"?>
<!DOCTYPE svg PUBLIC "-//W3C//DTD SVG 1.1//EN"
 "http://www.w3.org/Graphics/SVG/1.1/DTD/svg11.dtd">
<!-- Generated by graphviz version 2.40.1 (20161225.0304)
 -->
<!-- Title: Client Pages: 1 -->
<svg width="1178pt" height="1461pt"
 viewBox="0.00 0.00 1178.00 1461.00" xmlns="http://www.w3.org/2000/svg" xmlns:xlink="http://www.w3.org/1999/xlink">
<g id="graph0" class="graph" transform="scale(1 1) rotate(0) translate(4 1457)">
<title>Client</title>
<polygon fill="#ffffff" stroke="transparent" points="-4,4 -4,-1457 1174,-1457 1174,4 -4,4"/>
<!-- Node1 -->
<g id="node1" class="node">
<title>Node1</title>
<g id="a_node1"><a xlink:title=" ">
<polygon fill="#bfbfbf" stroke="#000000" points="368.5,-.5 368.5,-178.5 483.5,-178.5 483.5,-.5 368.5,-.5"/>
<text text-anchor="middle" x="426" y="-166.5" font-family="Helvetica,sans-Serif" font-size="10.00" fill="#000000">Client</text>
<polyline fill="none" stroke="#000000" points="368.5,-159.5 483.5,-159.5 "/>
<text text-anchor="start" x="376.5" y="-147.5" font-family="Helvetica,sans-Serif" font-size="10.00" fill="#000000">+ tmpRoutes</text>
<text text-anchor="start" x="376.5" y="-136.5" font-family="Helvetica,sans-Serif" font-size="10.00" fill="#000000">&#45; socket</text>
<text text-anchor="start" x="376.5" y="-125.5" font-family="Helvetica,sans-Serif" font-size="10.00" fill="#000000">&#45; debug</text>
<text text-anchor="start" x="376.5" y="-114.5" font-family="Helvetica,sans-Serif" font-size="10.00" fill="#000000">&#45; tickcount</text>
<polyline fill="none" stroke="#000000" points="368.5,-107.5 483.5,-107.5 "/>
<text text-anchor="start" x="376.5" y="-95.5" font-family="Helvetica,sans-Serif" font-size="10.00" fill="#000000">+ Client()</text>
<text text-anchor="start" x="376.5" y="-84.5" font-family="Helvetica,sans-Serif" font-size="10.00" fill="#000000">+ run()</text>
<text text-anchor="start" x="376.5" y="-73.5" font-family="Helvetica,sans-Serif" font-size="10.00" fill="#000000">+ requestMap()</text>
<text text-anchor="start" x="376.5" y="-62.5" font-family="Helvetica,sans-Serif" font-size="10.00" fill="#000000">+ onPositionChange()</text>
<text text-anchor="start" x="376.5" y="-51.5" font-family="Helvetica,sans-Serif" font-size="10.00" fill="#000000">+ onLeftclick()</text>
<text text-anchor="start" x="376.5" y="-40.5" font-family="Helvetica,sans-Serif" font-size="10.00" fill="#000000">+ onRightclick()</text>
<text text-anchor="start" x="376.5" y="-29.5" font-family="Helvetica,sans-Serif" font-size="10.00" fill="#000000">+ sendRoute()</text>
<text text-anchor="start" x="376.5" y="-18.5" font-family="Helvetica,sans-Serif" font-size="10.00" fill="#000000">+ requestRoutes()</text>
<text text-anchor="start" x="376.5" y="-7.5" font-family="Helvetica,sans-Serif" font-size="10.00" fill="#000000">&#45; processCommand()</text>
</a>
</g>
</g>
<!-- Node2 -->
<g id="node2" class="node">
<title>Node2</title>
<g id="a_node2"><a xlink:title=" ">
<polygon fill="#ffffff" stroke="#bfbfbf" points="186,-358.5 186,-415.5 244,-415.5 244,-358.5 186,-358.5"/>
<text text-anchor="middle" x="215" y="-403.5" font-family="Helvetica,sans-Serif" font-size="10.00" fill="#000000">QThread</text>
<polyline fill="none" stroke="#bfbfbf" points="186,-396.5 244,-396.5 "/>
<text text-anchor="middle" x="215" y="-384.5" font-family="Helvetica,sans-Serif" font-size="10.00" fill="#000000"> </text>
<polyline fill="none" stroke="#bfbfbf" points="186,-377.5 244,-377.5 "/>
<text text-anchor="middle" x="215" y="-365.5" font-family="Helvetica,sans-Serif" font-size="10.00" fill="#000000"> </text>
</a>
</g>
</g>
<!-- Node2&#45;&gt;Node1 -->
<g id="edge1" class="edge">
<title>Node2&#45;&gt;Node1</title>
<path fill="none" stroke="#191970" d="M216.9975,-348.1919C220.3558,-313.7288 229.2947,-263.2055 253,-226 281.4725,-181.3124 329.7736,-145.025 368.1143,-121.1284"/>
<polygon fill="none" stroke="#191970" points="213.4947,-348.0759 216.1243,-358.3392 220.4689,-348.6761 213.4947,-348.0759"/>
</g>
<!-- Node3 -->
<g id="node3" class="node">
<title>Node3</title>
<g id="a_node3"><a xlink:href="classScene.html" target="_top" xlink:title=" ">
<polygon fill="#ffffff" stroke="#000000" points="262,-287 262,-487 390,-487 390,-287 262,-287"/>
<text text-anchor="middle" x="326" y="-475" font-family="Helvetica,sans-Serif" font-size="10.00" fill="#000000">Scene</text>
<polyline fill="none" stroke="#000000" points="262,-468 390,-468 "/>
<text text-anchor="start" x="270" y="-456" font-family="Helvetica,sans-Serif" font-size="10.00" fill="#000000">+ MAP_SIZE</text>
<text text-anchor="start" x="270" y="-445" font-family="Helvetica,sans-Serif" font-size="10.00" fill="#000000">+ TILE_SIZE</text>
<text text-anchor="start" x="270" y="-434" font-family="Helvetica,sans-Serif" font-size="10.00" fill="#000000">&#45; radiusHighlighter</text>
<text text-anchor="start" x="270" y="-423" font-family="Helvetica,sans-Serif" font-size="10.00" fill="#000000">&#45; textHint</text>
<text text-anchor="start" x="270" y="-412" font-family="Helvetica,sans-Serif" font-size="10.00" fill="#000000">&#45; showRadius</text>
<text text-anchor="start" x="270" y="-401" font-family="Helvetica,sans-Serif" font-size="10.00" fill="#000000">&#45; players</text>
<polyline fill="none" stroke="#000000" points="262,-394 390,-394 "/>
<text text-anchor="start" x="270" y="-382" font-family="Helvetica,sans-Serif" font-size="10.00" fill="#000000">+ Scene()</text>
<text text-anchor="start" x="270" y="-371" font-family="Helvetica,sans-Serif" font-size="10.00" fill="#000000">+ generateWorld()</text>
<text text-anchor="start" x="270" y="-360" font-family="Helvetica,sans-Serif" font-size="10.00" fill="#000000">+ setActiveTile()</text>
<text text-anchor="start" x="270" y="-349" font-family="Helvetica,sans-Serif" font-size="10.00" fill="#000000">+ getTileAt()</text>
<text text-anchor="start" x="270" y="-338" font-family="Helvetica,sans-Serif" font-size="10.00" fill="#000000">+ setTileAt()</text>
<text text-anchor="start" x="270" y="-327" font-family="Helvetica,sans-Serif" font-size="10.00" fill="#000000">+ tileChanged()</text>
<text text-anchor="start" x="270" y="-316" font-family="Helvetica,sans-Serif" font-size="10.00" fill="#000000">+ tick()</text>
<text text-anchor="start" x="270" y="-305" font-family="Helvetica,sans-Serif" font-size="10.00" fill="#000000">+ onSetTile()</text>
<text text-anchor="start" x="270" y="-294" font-family="Helvetica,sans-Serif" font-size="10.00" fill="#000000">+ updatePlayerPosition()</text>
</a>
</g>
</g>
<!-- Node3&#45;&gt;Node1 -->
<g id="edge2" class="edge">
<title>Node3&#45;&gt;Node1</title>
<path fill="none" stroke="#404040" d="M350.4267,-286.5129C358.3392,-257.355 367.7479,-225.6587 378,-197 378.8471,-194.632 379.7237,-192.2433 380.6249,-189.8413"/>
<polygon fill="none" stroke="#404040" points="380.6711,-189.7218 379.1078,-182.6822 385.0047,-178.5316 386.568,-185.5712 380.6711,-189.7218"/>
<text text-anchor="middle" x="395" y="-200" font-family="Helvetica,sans-Serif" font-size="10.00" fill="#000000"> &#45;scene</text>
</g>
<!-- Node4 -->
<g id="node4" class="node">
<title>Node4</title>
<g id="a_node4"><a xlink:title=" ">
<polygon fill="#ffffff" stroke="#bfbfbf" points="0,-793.5 0,-850.5 94,-850.5 94,-793.5 0,-793.5"/>
<text text-anchor="middle" x="47" y="-838.5" font-family="Helvetica,sans-Serif" font-size="10.00" fill="#000000">QGraphicsScene</text>
<polyline fill="none" stroke="#bfbfbf" points="0,-831.5 94,-831.5 "/>
<text text-anchor="middle" x="47" y="-819.5" font-family="Helvetica,sans-Serif" font-size="10.00" fill="#000000"> </text>
<polyline fill="none" stroke="#bfbfbf" points="0,-812.5 94,-812.5 "/>
<text text-anchor="middle" x="47" y="-800.5" font-family="Helvetica,sans-Serif" font-size="10.00" fill="#000000"> </text>
</a>
</g>
</g>
<!-- Node4&#45;&gt;Node3 -->
<g id="edge3" class="edge">
<title>Node4&#45;&gt;Node3</title>
<path fill="none" stroke="#191970" d="M43.7831,-783.3676C41.3932,-726.5493 46.312,-621.227 108,-566 156.3827,-522.6848 200.6926,-586.4841 253,-548 273.6417,-532.8133 288.5843,-510.405 299.3494,-487.1019"/>
<polygon fill="none" stroke="#191970" points="40.2895,-783.5839 44.3024,-793.3894 47.2802,-783.2216 40.2895,-783.5839"/>
</g>
<!-- Node5 -->
<g id="node5" class="node">
<title>Node5</title>
<g id="a_node5"><a xlink:href="classHighlighter.html" target="_top" xlink:title=" ">
<polygon fill="#ffffff" stroke="#000000" points="108.5,-1289.5 108.5,-1357.5 187.5,-1357.5 187.5,-1289.5 108.5,-1289.5"/>
<text text-anchor="middle" x="148" y="-1345.5" font-family="Helvetica,sans-Serif" font-size="10.00" fill="#000000">Highlighter</text>
<polyline fill="none" stroke="#000000" points="108.5,-1338.5 187.5,-1338.5 "/>
<text text-anchor="start" x="116.5" y="-1326.5" font-family="Helvetica,sans-Serif" font-size="10.00" fill="#000000">&#45; outline</text>
<polyline fill="none" stroke="#000000" points="108.5,-1319.5 187.5,-1319.5 "/>
<text text-anchor="start" x="116.5" y="-1307.5" font-family="Helvetica,sans-Serif" font-size="10.00" fill="#000000">+ Highlighter()</text>
<text text-anchor="start" x="116.5" y="-1296.5" font-family="Helvetica,sans-Serif" font-size="10.00" fill="#000000">+ setColor()</text>
</a>
</g>
</g>
<!-- Node5&#45;&gt;Node3 -->
<g id="edge4" class="edge">
<title>Node5&#45;&gt;Node3</title>
<path fill="none" stroke="#404040" d="M144.8275,-1289.2411C140.1541,-1236.7315 131.6827,-1133.162 129,-1045 123.3259,-858.5292 130.7579,-808.7352 177,-628 184.3646,-599.2158 180.5339,-586.542 202,-566 219.3664,-549.3812 235.2851,-564.2469 253,-548 268.126,-534.1275 280.3309,-516.516 290.1086,-498.0656"/>
<polygon fill="none" stroke="#404040" points="290.2135,-497.8561 289.3249,-490.6999 295.5888,-487.1273 296.4774,-494.2834 290.2135,-497.8561"/>
<text text-anchor="middle" x="155" y="-1037" font-family="Helvetica,sans-Serif" font-size="10.00" fill="#000000"> &#45;highlighter</text>
</g>
<!-- Node10 -->
<g id="node10" class="node">
<title>Node10</title>
<g id="a_node10"><a xlink:href="classPlayer.html" target="_top" xlink:title=" ">
<polygon fill="#ffffff" stroke="#000000" points="150.5,-1113 150.5,-1192 231.5,-1192 231.5,-1113 150.5,-1113"/>
<text text-anchor="middle" x="191" y="-1180" font-family="Helvetica,sans-Serif" font-size="10.00" fill="#000000">Player</text>
<polyline fill="none" stroke="#000000" points="150.5,-1173 231.5,-1173 "/>
<text text-anchor="start" x="158.5" y="-1161" font-family="Helvetica,sans-Serif" font-size="10.00" fill="#000000">+ posX</text>
<text text-anchor="start" x="158.5" y="-1150" font-family="Helvetica,sans-Serif" font-size="10.00" fill="#000000">+ posY</text>
<polyline fill="none" stroke="#000000" points="150.5,-1143 231.5,-1143 "/>
<text text-anchor="start" x="158.5" y="-1131" font-family="Helvetica,sans-Serif" font-size="10.00" fill="#000000">+ Player()</text>
<text text-anchor="start" x="158.5" y="-1120" font-family="Helvetica,sans-Serif" font-size="10.00" fill="#000000">+ setPosition()</text>
</a>
</g>
</g>
<!-- Node5&#45;&gt;Node10 -->
<g id="edge11" class="edge">
<title>Node5&#45;&gt;Node10</title>
<path fill="none" stroke="#404040" d="M156.5983,-1289.3066C162.747,-1264.855 171.1296,-1231.5196 178.0807,-1203.8768"/>
<polygon fill="none" stroke="#404040" points="178.1342,-1203.6639 175.7182,-1196.8695 181.0607,-1192.0262 183.4766,-1198.8205 178.1342,-1203.6639"/>
<text text-anchor="middle" x="191.5" y="-1263" font-family="Helvetica,sans-Serif" font-size="10.00" fill="#000000"> +highlighter</text>
</g>
<!-- Node6 -->
<g id="node6" class="node">
<title>Node6</title>
<g id="a_node6"><a xlink:title=" ">
<polygon fill="#ffffff" stroke="#bfbfbf" points="96,-1395.5 96,-1452.5 200,-1452.5 200,-1395.5 96,-1395.5"/>
<text text-anchor="middle" x="148" y="-1440.5" font-family="Helvetica,sans-Serif" font-size="10.00" fill="#000000">QGraphicsRectItem</text>
<polyline fill="none" stroke="#bfbfbf" points="96,-1433.5 200,-1433.5 "/>
<text text-anchor="middle" x="148" y="-1421.5" font-family="Helvetica,sans-Serif" font-size="10.00" fill="#000000"> </text>
<polyline fill="none" stroke="#bfbfbf" points="96,-1414.5 200,-1414.5 "/>
<text text-anchor="middle" x="148" y="-1402.5" font-family="Helvetica,sans-Serif" font-size="10.00" fill="#000000"> </text>
</a>
</g>
</g>
<!-- Node6&#45;&gt;Node5 -->
<g id="edge5" class="edge">
<title>Node6&#45;&gt;Node5</title>
<path fill="none" stroke="#191970" d="M148,-1385.1903C148,-1376.1667 148,-1366.6233 148,-1357.8097"/>
<polygon fill="none" stroke="#191970" points="144.5001,-1385.4695 148,-1395.4696 151.5001,-1385.4696 144.5001,-1385.4695"/>
</g>
<!-- Node7 -->
<g id="node7" class="node">
<title>Node7</title>
<g id="a_node7"><a xlink:href="classMapTile.html" target="_top" xlink:title=" ">
<polygon fill="#ffffff" stroke="#000000" points="652,-727.5 652,-916.5 754,-916.5 754,-727.5 652,-727.5"/>
<text text-anchor="middle" x="703" y="-904.5" font-family="Helvetica,sans-Serif" font-size="10.00" fill="#000000">MapTile</text>
<polyline fill="none" stroke="#000000" points="652,-897.5 754,-897.5 "/>
<text text-anchor="start" x="660" y="-885.5" font-family="Helvetica,sans-Serif" font-size="10.00" fill="#000000">&#45; type</text>
<text text-anchor="start" x="660" y="-874.5" font-family="Helvetica,sans-Serif" font-size="10.00" fill="#000000">&#45; pixmapItem</text>
<text text-anchor="start" x="660" y="-863.5" font-family="Helvetica,sans-Serif" font-size="10.00" fill="#000000">&#45; currentRotation</text>
<polyline fill="none" stroke="#000000" points="652,-856.5 754,-856.5 "/>
<text text-anchor="start" x="660" y="-844.5" font-family="Helvetica,sans-Serif" font-size="10.00" fill="#000000">+ MapTile()</text>
<text text-anchor="start" x="660" y="-833.5" font-family="Helvetica,sans-Serif" font-size="10.00" fill="#000000">+ MapTile()</text>
<text text-anchor="start" x="660" y="-822.5" font-family="Helvetica,sans-Serif" font-size="10.00" fill="#000000">+ setType()</text>
<text text-anchor="start" x="660" y="-811.5" font-family="Helvetica,sans-Serif" font-size="10.00" fill="#000000">+ getType()</text>
<text text-anchor="start" x="660" y="-800.5" font-family="Helvetica,sans-Serif" font-size="10.00" fill="#000000">+ setRotation()</text>
<text text-anchor="start" x="660" y="-789.5" font-family="Helvetica,sans-Serif" font-size="10.00" fill="#000000">+ getRotation()</text>
<text text-anchor="start" x="660" y="-778.5" font-family="Helvetica,sans-Serif" font-size="10.00" fill="#000000">+ getRotationDeg()</text>
<text text-anchor="start" x="660" y="-767.5" font-family="Helvetica,sans-Serif" font-size="10.00" fill="#000000">+ setPosition()</text>
<text text-anchor="start" x="660" y="-756.5" font-family="Helvetica,sans-Serif" font-size="10.00" fill="#000000">+ isRiver()</text>
<text text-anchor="start" x="660" y="-745.5" font-family="Helvetica,sans-Serif" font-size="10.00" fill="#000000">+ isRail()</text>
<text text-anchor="start" x="660" y="-734.5" font-family="Helvetica,sans-Serif" font-size="10.00" fill="#000000">und 6 mehr ...</text>
</a>
</g>
</g>
<!-- Node7&#45;&gt;Node3 -->
<g id="edge6" class="edge">
<title>Node7&#45;&gt;Node3</title>
<path fill="none" stroke="#404040" d="M688.1874,-727.0813C679.3402,-693.2164 665.2823,-656.4483 643,-628 610.0529,-585.9358 590.4309,-583.6532 540,-566 482.4523,-545.8556 453.4236,-583.7048 404,-548 386.2624,-535.1859 372.3802,-517.2309 361.5748,-497.9351"/>
<polygon fill="none" stroke="#404040" points="361.4643,-497.7247 355.1327,-494.2734 355.8833,-487.1015 362.2149,-490.5528 361.4643,-497.7247"/>
<text text-anchor="middle" x="652" y="-591" font-family="Helvetica,sans-Serif" font-size="10.00" fill="#000000"> &#45;activeTile</text>
<text text-anchor="middle" x="652" y="-580" font-family="Helvetica,sans-Serif" font-size="10.00" fill="#000000">+data</text>
</g>
<!-- Node17 -->
<g id="node17" class="node">
<title>Node17</title>
<g id="a_node17"><a xlink:href="classMapRenderer.html" target="_top" xlink:title=" ">
<polygon fill="#ffffff" stroke="#000000" points="737.5,-226.5 737.5,-547.5 862.5,-547.5 862.5,-226.5 737.5,-226.5"/>
<text text-anchor="middle" x="800" y="-535.5" font-family="Helvetica,sans-Serif" font-size="10.00" fill="#000000">MapRenderer</text>
<polyline fill="none" stroke="#000000" points="737.5,-528.5 862.5,-528.5 "/>
<text text-anchor="start" x="745.5" y="-516.5" font-family="Helvetica,sans-Serif" font-size="10.00" fill="#000000">+ codeCount</text>
<text text-anchor="start" x="745.5" y="-505.5" font-family="Helvetica,sans-Serif" font-size="10.00" fill="#000000">&#45; mouseDown</text>
<text text-anchor="start" x="745.5" y="-494.5" font-family="Helvetica,sans-Serif" font-size="10.00" fill="#000000">&#45; offsetTargetX</text>
<text text-anchor="start" x="745.5" y="-483.5" font-family="Helvetica,sans-Serif" font-size="10.00" fill="#000000">&#45; offsetTargetY</text>
<text text-anchor="start" x="745.5" y="-472.5" font-family="Helvetica,sans-Serif" font-size="10.00" fill="#000000">&#45; showHighlight</text>
<text text-anchor="start" x="745.5" y="-461.5" font-family="Helvetica,sans-Serif" font-size="10.00" fill="#000000">&#45; rendering</text>
<text text-anchor="start" x="745.5" y="-450.5" font-family="Helvetica,sans-Serif" font-size="10.00" fill="#000000">&#45; renderTime</text>
<text text-anchor="start" x="745.5" y="-439.5" font-family="Helvetica,sans-Serif" font-size="10.00" fill="#000000">&#45; scale</text>
<text text-anchor="start" x="745.5" y="-428.5" font-family="Helvetica,sans-Serif" font-size="10.00" fill="#000000">&#45; showExpertDetails</text>
<text text-anchor="start" x="745.5" y="-417.5" font-family="Helvetica,sans-Serif" font-size="10.00" fill="#000000">&#45; movementAnimations</text>
<text text-anchor="start" x="745.5" y="-406.5" font-family="Helvetica,sans-Serif" font-size="10.00" fill="#000000">&#45; lastFpsTake</text>
<text text-anchor="start" x="745.5" y="-395.5" font-family="Helvetica,sans-Serif" font-size="10.00" fill="#000000">und 16 mehr ...</text>
<polyline fill="none" stroke="#000000" points="737.5,-388.5 862.5,-388.5 "/>
<text text-anchor="start" x="745.5" y="-376.5" font-family="Helvetica,sans-Serif" font-size="10.00" fill="#000000">+ MapRenderer()</text>
<text text-anchor="start" x="745.5" y="-365.5" font-family="Helvetica,sans-Serif" font-size="10.00" fill="#000000">+ paintEvent()</text>
<text text-anchor="start" x="745.5" y="-354.5" font-family="Helvetica,sans-Serif" font-size="10.00" fill="#000000">+ mousePressEvent()</text>
<text text-anchor="start" x="745.5" y="-343.5" font-family="Helvetica,sans-Serif" font-size="10.00" fill="#000000">+ mouseReleaseEvent()</text>
<text text-anchor="start" x="745.5" y="-332.5" font-family="Helvetica,sans-Serif" font-size="10.00" fill="#000000">+ mouseMoveEvent()</text>
<text text-anchor="start" x="745.5" y="-321.5" font-family="Helvetica,sans-Serif" font-size="10.00" fill="#000000">+ wheelEvent()</text>
<text text-anchor="start" x="745.5" y="-310.5" font-family="Helvetica,sans-Serif" font-size="10.00" fill="#000000">+ keyReleaseEvent()</text>
<text text-anchor="start" x="745.5" y="-299.5" font-family="Helvetica,sans-Serif" font-size="10.00" fill="#000000">+ tick()</text>
<text text-anchor="start" x="745.5" y="-288.5" font-family="Helvetica,sans-Serif" font-size="10.00" fill="#000000">+ logicUpdate()</text>
<text text-anchor="start" x="745.5" y="-277.5" font-family="Helvetica,sans-Serif" font-size="10.00" fill="#000000">+ renderFrame()</text>
<text text-anchor="start" x="745.5" y="-266.5" font-family="Helvetica,sans-Serif" font-size="10.00" fill="#000000">und 13 mehr ...</text>
<text text-anchor="start" x="745.5" y="-255.5" font-family="Helvetica,sans-Serif" font-size="10.00" fill="#000000">+ onTileChange()</text>
<text text-anchor="start" x="745.5" y="-244.5" font-family="Helvetica,sans-Serif" font-size="10.00" fill="#000000">+ enableHighlight()</text>
<text text-anchor="start" x="745.5" y="-233.5" font-family="Helvetica,sans-Serif" font-size="10.00" fill="#000000">+ setLogicSpeed()</text>
</a>
</g>
</g>
<!-- Node7&#45;&gt;Node17 -->
<g id="edge21" class="edge">
<title>Node7&#45;&gt;Node17</title>
<path fill="none" stroke="#404040" d="M724.1073,-727.3433C735.0568,-678.2403 748.7777,-616.7083 761.531,-559.5158"/>
<polygon fill="none" stroke="#404040" points="761.54,-559.4749 758.9418,-552.7481 764.1518,-547.7625 766.75,-554.4893 761.54,-559.4749"/>
<text text-anchor="middle" x="772" y="-585.5" font-family="Helvetica,sans-Serif" font-size="10.00" fill="#000000"> +data</text>
</g>
<!-- Node8 -->
<g id="node8" class="node">
<title>Node8</title>
<g id="a_node8"><a xlink:href="classGraphicsManager.html" target="_top" xlink:title=" ">
<polygon fill="#ffffff" stroke="#000000" points="586.5,-1118.5 586.5,-1186.5 699.5,-1186.5 699.5,-1118.5 586.5,-1118.5"/>
<text text-anchor="middle" x="643" y="-1174.5" font-family="Helvetica,sans-Serif" font-size="10.00" fill="#000000">GraphicsManager</text>
<polyline fill="none" stroke="#000000" points="586.5,-1167.5 699.5,-1167.5 "/>
<text text-anchor="start" x="594.5" y="-1155.5" font-family="Helvetica,sans-Serif" font-size="10.00" fill="#000000">+ GRAPHICS</text>
<polyline fill="none" stroke="#000000" points="586.5,-1148.5 699.5,-1148.5 "/>
<text text-anchor="start" x="594.5" y="-1136.5" font-family="Helvetica,sans-Serif" font-size="10.00" fill="#000000">+ GraphicsManager()</text>
<text text-anchor="start" x="594.5" y="-1125.5" font-family="Helvetica,sans-Serif" font-size="10.00" fill="#000000">+ get()</text>
</a>
</g>
</g>
<!-- Node8&#45;&gt;Node3 -->
<g id="edge9" class="edge">
<title>Node8&#45;&gt;Node3</title>
<path fill="none" stroke="#404040" d="M586.3908,-1126.4862C543.9074,-1103.7385 488.3759,-1066.4332 460,-1016 417.5286,-940.5145 443.4925,-712.1542 423,-628 412.3925,-584.4394 395.3976,-538.371 378.575,-498.3101"/>
<polygon fill="none" stroke="#404040" points="378.5367,-498.22 372.5075,-494.2642 373.8401,-487.1773 379.8694,-491.1331 378.5367,-498.22"/>
<text text-anchor="middle" x="502.5" y="-819.5" font-family="Helvetica,sans-Serif" font-size="10.00" fill="#000000"> &#45;graphicsManager</text>
</g>
<!-- Node8&#45;&gt;Node7 -->
<g id="edge7" class="edge">
<title>Node8&#45;&gt;Node7</title>
<path fill="none" stroke="#404040" d="M643.339,-1118.3555C643.984,-1094.5844 645.6784,-1062.2141 650,-1034 655.3181,-999.2801 663.7217,-961.945 672.2835,-928.4274"/>
<polygon fill="none" stroke="#404040" points="672.3015,-928.3575 669.9356,-921.5455 675.3136,-916.7416 677.6795,-923.5536 672.3015,-928.3575"/>
<text text-anchor="middle" x="692.5" y="-1037" font-family="Helvetica,sans-Serif" font-size="10.00" fill="#000000"> &#45;graphicsManager</text>
</g>
<!-- Node8&#45;&gt;Node17 -->
<g id="edge22" class="edge">
<title>Node8&#45;&gt;Node17</title>
<path fill="none" stroke="#404040" d="M659.6427,-1118.2769C670.872,-1098.9178 687.5566,-1076.0419 709,-1063 765.9036,-1028.3911 961.7554,-1066.6528 1005,-1016 1134.9757,-863.758 1090.796,-736.5553 986,-566 956.4765,-517.9506 911.0364,-473.8886 872.4606,-441.5036"/>
<polygon fill="none" stroke="#404040" points="872.0622,-441.1742 864.8893,-440.4327 862.8149,-433.5264 869.9879,-434.2678 872.0622,-441.1742"/>
<text text-anchor="middle" x="1127.5" y="-819.5" font-family="Helvetica,sans-Serif" font-size="10.00" fill="#000000"> &#45;graphicsManager</text>
</g>
<!-- Node9 -->
<g id="node9" class="node">
<title>Node9</title>
<g id="a_node9"><a xlink:href="classCity.html" target="_top" xlink:title=" ">
<polygon fill="#ffffff" stroke="#000000" points="717.5,-1063.5 717.5,-1241.5 800.5,-1241.5 800.5,-1063.5 717.5,-1063.5"/>
<text text-anchor="middle" x="759" y="-1229.5" font-family="Helvetica,sans-Serif" font-size="10.00" fill="#000000">City</text>
<polyline fill="none" stroke="#000000" points="717.5,-1222.5 800.5,-1222.5 "/>
<text text-anchor="start" x="725.5" y="-1210.5" font-family="Helvetica,sans-Serif" font-size="10.00" fill="#000000">&#45; size</text>
<text text-anchor="start" x="725.5" y="-1199.5" font-family="Helvetica,sans-Serif" font-size="10.00" fill="#000000">&#45; centerX</text>
<text text-anchor="start" x="725.5" y="-1188.5" font-family="Helvetica,sans-Serif" font-size="10.00" fill="#000000">&#45; centerY</text>
<text text-anchor="start" x="725.5" y="-1177.5" font-family="Helvetica,sans-Serif" font-size="10.00" fill="#000000">&#45; name</text>
<polyline fill="none" stroke="#000000" points="717.5,-1170.5 800.5,-1170.5 "/>
<text text-anchor="start" x="725.5" y="-1158.5" font-family="Helvetica,sans-Serif" font-size="10.00" fill="#000000">+ City()</text>
<text text-anchor="start" x="725.5" y="-1147.5" font-family="Helvetica,sans-Serif" font-size="10.00" fill="#000000">+ City()</text>
<text text-anchor="start" x="725.5" y="-1136.5" font-family="Helvetica,sans-Serif" font-size="10.00" fill="#000000">+ getSize()</text>
<text text-anchor="start" x="725.5" y="-1125.5" font-family="Helvetica,sans-Serif" font-size="10.00" fill="#000000">+ getCenterX()</text>
<text text-anchor="start" x="725.5" y="-1114.5" font-family="Helvetica,sans-Serif" font-size="10.00" fill="#000000">+ getCenterY()</text>
<text text-anchor="start" x="725.5" y="-1103.5" font-family="Helvetica,sans-Serif" font-size="10.00" fill="#000000">+ getName()</text>
<text text-anchor="start" x="725.5" y="-1092.5" font-family="Helvetica,sans-Serif" font-size="10.00" fill="#000000">+ setSize()</text>
<text text-anchor="start" x="725.5" y="-1081.5" font-family="Helvetica,sans-Serif" font-size="10.00" fill="#000000">+ setCenter()</text>
<text text-anchor="start" x="725.5" y="-1070.5" font-family="Helvetica,sans-Serif" font-size="10.00" fill="#000000">+ setName()</text>
</a>
</g>
</g>
<!-- Node9&#45;&gt;Node7 -->
<g id="edge8" class="edge">
<title>Node9&#45;&gt;Node7</title>
<path fill="none" stroke="#404040" d="M743.9194,-1063.4973C736.8867,-1021.992 728.4613,-972.2673 721.0886,-928.7551"/>
<polygon fill="none" stroke="#404040" points="721.0439,-928.4906 716.0977,-923.2431 719.0391,-916.6592 723.9853,-921.9066 721.0439,-928.4906"/>
<text text-anchor="middle" x="750" y="-1037" font-family="Helvetica,sans-Serif" font-size="10.00" fill="#000000"> &#45;city</text>
</g>
<!-- Node10&#45;&gt;Node3 -->
<g id="edge10" class="edge">
<title>Node10&#45;&gt;Node3</title>
<path fill="none" stroke="#404040" d="M188.5762,-1112.8517C182.5545,-1006.7065 169.374,-718.0413 198,-628 211.0728,-586.8803 231.7862,-585.5726 253,-548 261.912,-532.2156 270.5974,-515.1448 278.6865,-498.2212"/>
<polygon fill="none" stroke="#404040" points="278.7952,-497.9906 277.7357,-490.8577 283.9124,-487.1364 284.9719,-494.2692 278.7952,-497.9906"/>
<text text-anchor="middle" x="233" y="-819.5" font-family="Helvetica,sans-Serif" font-size="10.00" fill="#000000"> &#45;secondPlayer</text>
</g>
<!-- Node11 -->
<g id="node11" class="node">
<title>Node11</title>
<g id="a_node11"><a xlink:href="classDataModel.html" target="_top" xlink:title=" ">
<polygon fill="#ffffff" stroke="#000000" points="277.5,-628.5 277.5,-1015.5 414.5,-1015.5 414.5,-628.5 277.5,-628.5"/>
<text text-anchor="middle" x="346" y="-1003.5" font-family="Helvetica,sans-Serif" font-size="10.00" fill="#000000">DataModel</text>
<polyline fill="none" stroke="#000000" points="277.5,-996.5 414.5,-996.5 "/>
<text text-anchor="start" x="285.5" y="-984.5" font-family="Helvetica,sans-Serif" font-size="10.00" fill="#000000">&#45; balance</text>
<text text-anchor="start" x="285.5" y="-973.5" font-family="Helvetica,sans-Serif" font-size="10.00" fill="#000000">&#45; time</text>
<text text-anchor="start" x="285.5" y="-962.5" font-family="Helvetica,sans-Serif" font-size="10.00" fill="#000000">&#45; coordinateX</text>
<text text-anchor="start" x="285.5" y="-951.5" font-family="Helvetica,sans-Serif" font-size="10.00" fill="#000000">&#45; coordinateY</text>
<text text-anchor="start" x="285.5" y="-940.5" font-family="Helvetica,sans-Serif" font-size="10.00" fill="#000000">&#45; mapLoaded</text>
<text text-anchor="start" x="285.5" y="-929.5" font-family="Helvetica,sans-Serif" font-size="10.00" fill="#000000">&#45; ip</text>
<text text-anchor="start" x="285.5" y="-918.5" font-family="Helvetica,sans-Serif" font-size="10.00" fill="#000000">&#45; port</text>
<text text-anchor="start" x="285.5" y="-907.5" font-family="Helvetica,sans-Serif" font-size="10.00" fill="#000000">&#45; balanceLabel</text>
<text text-anchor="start" x="285.5" y="-896.5" font-family="Helvetica,sans-Serif" font-size="10.00" fill="#000000">&#45; timeLabel</text>
<text text-anchor="start" x="285.5" y="-885.5" font-family="Helvetica,sans-Serif" font-size="10.00" fill="#000000">&#45; positionLabel</text>
<text text-anchor="start" x="285.5" y="-874.5" font-family="Helvetica,sans-Serif" font-size="10.00" fill="#000000">&#45; statusDisplay</text>
<text text-anchor="start" x="285.5" y="-863.5" font-family="Helvetica,sans-Serif" font-size="10.00" fill="#000000">&#45; connectionLabel</text>
<text text-anchor="start" x="285.5" y="-852.5" font-family="Helvetica,sans-Serif" font-size="10.00" fill="#000000">&#45; mode</text>
<polyline fill="none" stroke="#000000" points="277.5,-845.5 414.5,-845.5 "/>
<text text-anchor="start" x="285.5" y="-833.5" font-family="Helvetica,sans-Serif" font-size="10.00" fill="#000000">+ DataModel()</text>
<text text-anchor="start" x="285.5" y="-822.5" font-family="Helvetica,sans-Serif" font-size="10.00" fill="#000000">+ getBalance()</text>
<text text-anchor="start" x="285.5" y="-811.5" font-family="Helvetica,sans-Serif" font-size="10.00" fill="#000000">+ updateBalance()</text>
<text text-anchor="start" x="285.5" y="-800.5" font-family="Helvetica,sans-Serif" font-size="10.00" fill="#000000">+ takeBalance()</text>
<text text-anchor="start" x="285.5" y="-789.5" font-family="Helvetica,sans-Serif" font-size="10.00" fill="#000000">+ timeTick()</text>
<text text-anchor="start" x="285.5" y="-778.5" font-family="Helvetica,sans-Serif" font-size="10.00" fill="#000000">+ getTime()</text>
<text text-anchor="start" x="285.5" y="-767.5" font-family="Helvetica,sans-Serif" font-size="10.00" fill="#000000">+ setTime()</text>
<text text-anchor="start" x="285.5" y="-756.5" font-family="Helvetica,sans-Serif" font-size="10.00" fill="#000000">+ getSystemMillis()</text>
<text text-anchor="start" x="285.5" y="-745.5" font-family="Helvetica,sans-Serif" font-size="10.00" fill="#000000">+ updateCoordinates()</text>
<text text-anchor="start" x="285.5" y="-734.5" font-family="Helvetica,sans-Serif" font-size="10.00" fill="#000000">+ getHoverX()</text>
<text text-anchor="start" x="285.5" y="-723.5" font-family="Helvetica,sans-Serif" font-size="10.00" fill="#000000">und 13 mehr ...</text>
<text text-anchor="start" x="285.5" y="-712.5" font-family="Helvetica,sans-Serif" font-size="10.00" fill="#000000">+ setDefaultMode()</text>
<text text-anchor="start" x="285.5" y="-701.5" font-family="Helvetica,sans-Serif" font-size="10.00" fill="#000000">+ setTrainStationMode()</text>
<text text-anchor="start" x="285.5" y="-690.5" font-family="Helvetica,sans-Serif" font-size="10.00" fill="#000000">+ setDepotMode()</text>
<text text-anchor="start" x="285.5" y="-679.5" font-family="Helvetica,sans-Serif" font-size="10.00" fill="#000000">+ setTerminalMode()</text>
<text text-anchor="start" x="285.5" y="-668.5" font-family="Helvetica,sans-Serif" font-size="10.00" fill="#000000">+ setBridgeMode()</text>
<text text-anchor="start" x="285.5" y="-657.5" font-family="Helvetica,sans-Serif" font-size="10.00" fill="#000000">+ setRailPlacementMode()</text>
<text text-anchor="start" x="285.5" y="-646.5" font-family="Helvetica,sans-Serif" font-size="10.00" fill="#000000">+ setRemoveMode()</text>
<text text-anchor="start" x="285.5" y="-635.5" font-family="Helvetica,sans-Serif" font-size="10.00" fill="#000000">+ setMapLoaded()</text>
</a>
</g>
</g>
<!-- Node10&#45;&gt;Node11 -->
<g id="edge14" class="edge">
<title>Node10&#45;&gt;Node11</title>
<path fill="none" stroke="#404040" d="M209.5767,-1112.9125C220.8861,-1089.5797 236.0042,-1059.6908 251,-1034 255.8469,-1025.6963 258.4231,-1024.4555 263,-1016 265.9755,-1010.503 268.923,-1004.877 271.8332,-999.1636"/>
<polygon fill="none" stroke="#404040" points="272.0099,-998.8103 271.1185,-991.6545 277.381,-988.0794 278.2724,-995.2352 272.0099,-998.8103"/>
<text text-anchor="middle" x="287.5" y="-1037" font-family="Helvetica,sans-Serif" font-size="10.00" fill="#000000"> +secondPlayer</text>
</g>
<!-- Node11&#45;&gt;Node1 -->
<g id="edge26" class="edge">
<title>Node11&#45;&gt;Node1</title>
<path fill="none" stroke="#404040" d="M392.0864,-628.4348C393.1323,-622.2301 394.1083,-616.0735 395,-610 416.2197,-465.4778 423.0054,-296.3509 425.1225,-191.0554"/>
<polygon fill="none" stroke="#404040" points="425.1263,-190.8517 421.2402,-184.7773 425.3527,-178.8539 429.2388,-184.9283 425.1263,-190.8517"/>
<text text-anchor="middle" x="452.5" y="-384.5" font-family="Helvetica,sans-Serif" font-size="10.00" fill="#000000"> &#45;dataModel</text>
</g>
<!-- Node11&#45;&gt;Node3 -->
<g id="edge12" class="edge">
<title>Node11&#45;&gt;Node3</title>
<path fill="none" stroke="#404040" d="M337.0967,-628.3525C335.0655,-584.1744 332.9732,-538.6676 331.1605,-499.2413"/>
<polygon fill="none" stroke="#404040" points="331.1585,-499.1963 326.8871,-493.3864 330.6073,-487.2089 334.8787,-493.0189 331.1585,-499.1963"/>
<text text-anchor="middle" x="363.5" y="-585.5" font-family="Helvetica,sans-Serif" font-size="10.00" fill="#000000"> &#45;dataModel</text>
</g>
<!-- Node11&#45;&gt;Node17 -->
<g id="edge25" class="edge">
<title>Node11&#45;&gt;Node17</title>
<path fill="none" stroke="#404040" d="M414.5285,-653.247C419.1824,-644.5821 424.0127,-636.1147 429,-628 438.4157,-612.68 465.1143,-574.4263 481,-566 550.0726,-529.3618 586.3534,-583.5349 656,-548 683.5725,-533.9321 708.3351,-512.198 729.2333,-489.204"/>
<polygon fill="none" stroke="#404040" points="729.4146,-488.9982 730.3808,-481.8521 737.3488,-479.9954 736.3827,-487.1415 729.4146,-488.9982"/>
<text text-anchor="middle" x="508.5" y="-585.5" font-family="Helvetica,sans-Serif" font-size="10.00" fill="#000000"> &#45;dataModel</text>
</g>
<!-- Node12 -->
<g id="node12" class="node">
<title>Node12</title>
<g id="a_node12"><a xlink:title=" ">
<polygon fill="#ffffff" stroke="#bfbfbf" points="291.5,-1124 291.5,-1181 344.5,-1181 344.5,-1124 291.5,-1124"/>
<text text-anchor="middle" x="318" y="-1169" font-family="Helvetica,sans-Serif" font-size="10.00" fill="#000000">QObject</text>
<polyline fill="none" stroke="#bfbfbf" points="291.5,-1162 344.5,-1162 "/>
<text text-anchor="middle" x="318" y="-1150" font-family="Helvetica,sans-Serif" font-size="10.00" fill="#000000"> </text>
<polyline fill="none" stroke="#bfbfbf" points="291.5,-1143 344.5,-1143 "/>
<text text-anchor="middle" x="318" y="-1131" font-family="Helvetica,sans-Serif" font-size="10.00" fill="#000000"> </text>
</a>
</g>
</g>
<!-- Node12&#45;&gt;Node11 -->
<g id="edge13" class="edge">
<title>Node12&#45;&gt;Node11</title>
<path fill="none" stroke="#191970" d="M321.3039,-1113.5022C323.4527,-1088.1384 326.4333,-1052.9574 329.5821,-1015.7899"/>
<polygon fill="none" stroke="#191970" points="317.7926,-1113.4887 320.4358,-1123.7485 324.7676,-1114.0796 317.7926,-1113.4887"/>
</g>
<!-- Node13 -->
<g id="node13" class="node">
<title>Node13</title>
<g id="a_node13"><a xlink:href="classMainWindow.html" target="_top" xlink:title=" ">
<polygon fill="#ffffff" stroke="#000000" points="363,-1118.5 363,-1186.5 459,-1186.5 459,-1118.5 363,-1118.5"/>
<text text-anchor="middle" x="411" y="-1174.5" font-family="Helvetica,sans-Serif" font-size="10.00" fill="#000000">MainWindow</text>
<polyline fill="none" stroke="#000000" points="363,-1167.5 459,-1167.5 "/>
<text text-anchor="start" x="371" y="-1155.5" font-family="Helvetica,sans-Serif" font-size="10.00" fill="#000000">&#45; ui</text>
<polyline fill="none" stroke="#000000" points="363,-1148.5 459,-1148.5 "/>
<text text-anchor="start" x="371" y="-1136.5" font-family="Helvetica,sans-Serif" font-size="10.00" fill="#000000">+ MainWindow()</text>
<text text-anchor="start" x="371" y="-1125.5" font-family="Helvetica,sans-Serif" font-size="10.00" fill="#000000">+ ~MainWindow()</text>
</a>
</g>
</g>
<!-- Node13&#45;&gt;Node11 -->
<g id="edge15" class="edge">
<title>Node13&#45;&gt;Node11</title>
<path fill="none" stroke="#404040" d="M396.2705,-1118.2639C387.8997,-1097.4467 377.9354,-1070.1177 372,-1045 370.6562,-1039.313 369.3805,-1033.5274 368.1698,-1027.674"/>
<polygon fill="none" stroke="#404040" points="368.1049,-1027.3458 363.0158,-1022.2368 365.7745,-1015.5742 370.8635,-1020.6832 368.1049,-1027.3458"/>
<text text-anchor="middle" x="404.5" y="-1037" font-family="Helvetica,sans-Serif" font-size="10.00" fill="#000000"> &#45;mainWindow</text>
</g>
<!-- Node14 -->
<g id="node14" class="node">
<title>Node14</title>
<g id="a_node14"><a xlink:title=" ">
<polygon fill="#ffffff" stroke="#bfbfbf" points="369.5,-1295 369.5,-1352 452.5,-1352 452.5,-1295 369.5,-1295"/>
<text text-anchor="middle" x="411" y="-1340" font-family="Helvetica,sans-Serif" font-size="10.00" fill="#000000">QMainWindow</text>
<polyline fill="none" stroke="#bfbfbf" points="369.5,-1333 452.5,-1333 "/>
<text text-anchor="middle" x="411" y="-1321" font-family="Helvetica,sans-Serif" font-size="10.00" fill="#000000"> </text>
<polyline fill="none" stroke="#bfbfbf" points="369.5,-1314 452.5,-1314 "/>
<text text-anchor="middle" x="411" y="-1302" font-family="Helvetica,sans-Serif" font-size="10.00" fill="#000000"> </text>
</a>
</g>
</g>
<!-- Node14&#45;&gt;Node13 -->
<g id="edge16" class="edge">
<title>Node14&#45;&gt;Node13</title>
<path fill="none" stroke="#191970" d="M411,-1284.5167C411,-1254.9698 411,-1214.768 411,-1186.5157"/>
<polygon fill="none" stroke="#191970" points="407.5001,-1284.8784 411,-1294.8784 414.5001,-1284.8785 407.5001,-1284.8784"/>
</g>
<!-- Node15 -->
<g id="node15" class="node">
<title>Node15</title>
<g id="a_node15"><a xlink:href="classRouteListInterface.html" target="_top" xlink:title=" ">
<polygon fill="#ffffff" stroke="#000000" points="536.5,-347.5 536.5,-426.5 647.5,-426.5 647.5,-347.5 536.5,-347.5"/>
<text text-anchor="middle" x="592" y="-414.5" font-family="Helvetica,sans-Serif" font-size="10.00" fill="#000000">RouteListInterface</text>
<polyline fill="none" stroke="#000000" points="536.5,-407.5 647.5,-407.5 "/>
<text text-anchor="start" x="544.5" y="-395.5" font-family="Helvetica,sans-Serif" font-size="10.00" fill="#000000">+ routeList</text>
<polyline fill="none" stroke="#000000" points="536.5,-388.5 647.5,-388.5 "/>
<text text-anchor="start" x="544.5" y="-376.5" font-family="Helvetica,sans-Serif" font-size="10.00" fill="#000000">+ RouteListInterface()</text>
<text text-anchor="start" x="544.5" y="-365.5" font-family="Helvetica,sans-Serif" font-size="10.00" fill="#000000">+ toggle()</text>
<text text-anchor="start" x="544.5" y="-354.5" font-family="Helvetica,sans-Serif" font-size="10.00" fill="#000000">+ deleteRoute()</text>
</a>
</g>
</g>
<!-- Node15&#45;&gt;Node1 -->
<g id="edge17" class="edge">
<title>Node15&#45;&gt;Node1</title>
<path fill="none" stroke="#404040" d="M569.9565,-347.4943C547.5497,-307.3376 511.9337,-243.5077 481.735,-189.3865"/>
<polygon fill="none" stroke="#404040" points="481.6202,-189.1806 475.2035,-185.8901 475.773,-178.7015 482.1896,-181.992 481.6202,-189.1806"/>
<text text-anchor="middle" x="531" y="-200" font-family="Helvetica,sans-Serif" font-size="10.00" fill="#000000"> &#45;routeListInterface</text>
</g>
<!-- Node16 -->
<g id="node16" class="node">
<title>Node16</title>
<g id="a_node16"><a xlink:title=" ">
<polygon fill="#ffffff" stroke="#bfbfbf" points="554,-793.5 554,-850.5 634,-850.5 634,-793.5 554,-793.5"/>
<text text-anchor="middle" x="594" y="-838.5" font-family="Helvetica,sans-Serif" font-size="10.00" fill="#000000">QDockWidget</text>
<polyline fill="none" stroke="#bfbfbf" points="554,-831.5 634,-831.5 "/>
<text text-anchor="middle" x="594" y="-819.5" font-family="Helvetica,sans-Serif" font-size="10.00" fill="#000000"> </text>
<polyline fill="none" stroke="#bfbfbf" points="554,-812.5 634,-812.5 "/>
<text text-anchor="middle" x="594" y="-800.5" font-family="Helvetica,sans-Serif" font-size="10.00" fill="#000000"> </text>
</a>
</g>
</g>
<!-- Node16&#45;&gt;Node15 -->
<g id="edge18" class="edge">
<title>Node16&#45;&gt;Node15</title>
<path fill="none" stroke="#191970" d="M600.7197,-783.1559C608.5801,-733.0219 619.9312,-643.0706 615,-566 611.9191,-517.8474 604.2217,-462.8523 598.577,-426.6725"/>
<polygon fill="none" stroke="#191970" points="597.2317,-782.8023 599.1025,-793.2307 604.1433,-783.9118 597.2317,-782.8023"/>
</g>
<!-- Node17&#45;&gt;Node1 -->
<g id="edge19" class="edge">
<title>Node17&#45;&gt;Node1</title>
<path fill="none" stroke="#404040" d="M737.3712,-307.4573C713.5526,-279.8982 685.1063,-249.9416 656,-226 606.0968,-184.9518 542.4839,-148.1957 494.8126,-123.1949"/>
<polygon fill="none" stroke="#404040" points="494.6273,-123.0988 487.4592,-123.8846 483.9768,-117.5701 491.1449,-116.7842 494.6273,-123.0988"/>
<text text-anchor="middle" x="661" y="-200" font-family="Helvetica,sans-Serif" font-size="10.00" fill="#000000"> &#45;mapRenderer</text>
</g>
<!-- Node18 -->
<g id="node18" class="node">
<title>Node18</title>
<g id="a_node18"><a xlink:title=" ">
<polygon fill="#ffffff" stroke="#bfbfbf" points="772,-793.5 772,-850.5 828,-850.5 828,-793.5 772,-793.5"/>
<text text-anchor="middle" x="800" y="-838.5" font-family="Helvetica,sans-Serif" font-size="10.00" fill="#000000">QWidget</text>
<polyline fill="none" stroke="#bfbfbf" points="772,-831.5 828,-831.5 "/>
<text text-anchor="middle" x="800" y="-819.5" font-family="Helvetica,sans-Serif" font-size="10.00" fill="#000000"> </text>
<polyline fill="none" stroke="#bfbfbf" points="772,-812.5 828,-812.5 "/>
<text text-anchor="middle" x="800" y="-800.5" font-family="Helvetica,sans-Serif" font-size="10.00" fill="#000000"> </text>
</a>
</g>
</g>
<!-- Node18&#45;&gt;Node17 -->
<g id="edge20" class="edge">
<title>Node18&#45;&gt;Node17</title>
<path fill="none" stroke="#191970" d="M800,-783.2068C800,-730.4254 800,-632.7983 800,-547.6649"/>
<polygon fill="none" stroke="#191970" points="796.5001,-783.4584 800,-793.4584 803.5001,-783.4585 796.5001,-783.4584"/>
</g>
<!-- Node19 -->
<g id="node19" class="node">
<title>Node19</title>
<g id="a_node19"><a xlink:href="classSprite.html" target="_top" xlink:title=" ">
<polygon fill="#ffffff" stroke="#000000" points="846,-771.5 846,-872.5 920,-872.5 920,-771.5 846,-771.5"/>
<text text-anchor="middle" x="883" y="-860.5" font-family="Helvetica,sans-Serif" font-size="10.00" fill="#000000">Sprite</text>
<polyline fill="none" stroke="#000000" points="846,-853.5 920,-853.5 "/>
<text text-anchor="start" x="854" y="-841.5" font-family="Helvetica,sans-Serif" font-size="10.00" fill="#000000">&#45; images</text>
<text text-anchor="start" x="854" y="-830.5" font-family="Helvetica,sans-Serif" font-size="10.00" fill="#000000">&#45; index</text>
<text text-anchor="start" x="854" y="-819.5" font-family="Helvetica,sans-Serif" font-size="10.00" fill="#000000">&#45; count</text>
<polyline fill="none" stroke="#000000" points="846,-812.5 920,-812.5 "/>
<text text-anchor="start" x="854" y="-800.5" font-family="Helvetica,sans-Serif" font-size="10.00" fill="#000000">+ Sprite()</text>
<text text-anchor="start" x="854" y="-789.5" font-family="Helvetica,sans-Serif" font-size="10.00" fill="#000000">+ getImage()</text>
<text text-anchor="start" x="854" y="-778.5" font-family="Helvetica,sans-Serif" font-size="10.00" fill="#000000">+ step()</text>
</a>
</g>
</g>
<!-- Node19&#45;&gt;Node17 -->
<g id="edge23" class="edge">
<title>Node19&#45;&gt;Node17</title>
<path fill="none" stroke="#404040" d="M873.3164,-771.2486C863.4122,-719.3409 847.4657,-635.766 832.9703,-559.7959"/>
<polygon fill="none" stroke="#404040" points="832.9066,-559.4619 827.8529,-554.3179 830.6574,-547.6745 835.7111,-552.8185 832.9066,-559.4619"/>
<text text-anchor="middle" x="866.5" y="-585.5" font-family="Helvetica,sans-Serif" font-size="10.00" fill="#000000"> +testSprite</text>
</g>
<!-- Node20 -->
<g id="node20" class="node">
<title>Node20</title>
<g id="a_node20"><a xlink:href="classPoint.html" target="_top" xlink:title=" ">
<polygon fill="#ffffff" stroke="#000000" points="938,-755 938,-889 996,-889 996,-755 938,-755"/>
<text text-anchor="middle" x="967" y="-877" font-family="Helvetica,sans-Serif" font-size="10.00" fill="#000000">Point</text>
<polyline fill="none" stroke="#000000" points="938,-870 996,-870 "/>
<text text-anchor="start" x="946" y="-858" font-family="Helvetica,sans-Serif" font-size="10.00" fill="#000000">&#45; x</text>
<text text-anchor="start" x="946" y="-847" font-family="Helvetica,sans-Serif" font-size="10.00" fill="#000000">&#45; y</text>
<polyline fill="none" stroke="#000000" points="938,-840 996,-840 "/>
<text text-anchor="start" x="946" y="-828" font-family="Helvetica,sans-Serif" font-size="10.00" fill="#000000">+ Point()</text>
<text text-anchor="start" x="946" y="-817" font-family="Helvetica,sans-Serif" font-size="10.00" fill="#000000">+ getX()</text>
<text text-anchor="start" x="946" y="-806" font-family="Helvetica,sans-Serif" font-size="10.00" fill="#000000">+ getY()</text>
<text text-anchor="start" x="946" y="-795" font-family="Helvetica,sans-Serif" font-size="10.00" fill="#000000">+ add()</text>
<text text-anchor="start" x="946" y="-784" font-family="Helvetica,sans-Serif" font-size="10.00" fill="#000000">+ set()</text>
<text text-anchor="start" x="946" y="-773" font-family="Helvetica,sans-Serif" font-size="10.00" fill="#000000">+ move()</text>
<text text-anchor="start" x="946" y="-762" font-family="Helvetica,sans-Serif" font-size="10.00" fill="#000000">+ toTile()</text>
</a>
</g>
</g>
<!-- Node20&#45;&gt;Node17 -->
<g id="edge24" class="edge">
<title>Node20&#45;&gt;Node17</title>
<path fill="none" stroke="#404040" d="M958.8209,-754.7022C952.9796,-716.7611 943.5306,-668.9117 929,-628 913.3261,-583.8693 890.5677,-537.9507 868.5157,-498.1801"/>
<polygon fill="none" stroke="#404040" points="868.4929,-498.1393 862.0702,-494.8607 862.6263,-487.6711 869.049,-490.9497 868.4929,-498.1393"/>
<text text-anchor="middle" x="951.5" y="-602" font-family="Helvetica,sans-Serif" font-size="10.00" fill="#000000"> &#45;activeTile</text>
<text text-anchor="middle" x="951.5" y="-591" font-family="Helvetica,sans-Serif" font-size="10.00" fill="#000000">&#45;dragOrigin</text>
<text text-anchor="middle" x="951.5" y="-580" font-family="Helvetica,sans-Serif" font-size="10.00" fill="#000000">+offset</text>
<text text-anchor="middle" x="951.5" y="-569" font-family="Helvetica,sans-Serif" font-size="10.00" fill="#000000">&#45;dragPosition</text>
</g>
</g>
</svg>
