<?xml version="1.0" encoding="UTF-8" standalone="no"?>
<!DOCTYPE svg PUBLIC "-//W3C//DTD SVG 1.1//EN"
 "http://www.w3.org/Graphics/SVG/1.1/DTD/svg11.dtd">
<!-- Generated by graphviz version 2.40.1 (20161225.0304)
 -->
<!-- Title: MapRenderer::logicUpdate Pages: 1 -->
<svg width="341pt" height="142pt"
 viewBox="0.00 0.00 341.00 142.00" xmlns="http://www.w3.org/2000/svg" xmlns:xlink="http://www.w3.org/1999/xlink">
<g id="graph0" class="graph" transform="scale(1 1) rotate(0) translate(4 138)">
<title>MapRenderer::logicUpdate</title>
<polygon fill="#ffffff" stroke="transparent" points="-4,4 -4,-138 337,-138 337,4 -4,4"/>
<!-- Node1 -->
<g id="node1" class="node">
<title>Node1</title>
<g id="a_node1"><a xlink:title="MapRenderer::logicUpdate Führt einen Logikschritt durch (Animationen etc.)">
<polygon fill="#bfbfbf" stroke="#000000" points="0,-57.5 0,-76.5 138,-76.5 138,-57.5 0,-57.5"/>
<text text-anchor="middle" x="69" y="-64.5" font-family="Helvetica,sans-Serif" font-size="10.00" fill="#000000">MapRenderer::logicUpdate</text>
</a>
</g>
</g>
<!-- Node2 -->
<g id="node2" class="node">
<title>Node2</title>
<g id="a_node2"><a xlink:href="classPoint.html#a0b82a4aa9614c11854abc507d89a70a9" target="_top" xlink:title="Point::getX Gibt die X&#45;Koordinate des Punktes.">
<polygon fill="#ffffff" stroke="#000000" points="220.5,-114.5 220.5,-133.5 286.5,-133.5 286.5,-114.5 220.5,-114.5"/>
<text text-anchor="middle" x="253.5" y="-121.5" font-family="Helvetica,sans-Serif" font-size="10.00" fill="#000000">Point::getX</text>
</a>
</g>
</g>
<!-- Node1&#45;&gt;Node2 -->
<g id="edge1" class="edge">
<title>Node1&#45;&gt;Node2</title>
<path fill="none" stroke="#191970" d="M92.9308,-76.5341C114.0474,-84.7362 145.7711,-96.5479 174,-105 185.789,-108.5298 198.7135,-111.8484 210.6515,-114.6938"/>
<polygon fill="#191970" stroke="#191970" points="209.8673,-118.1048 220.4009,-116.967 211.4568,-111.2876 209.8673,-118.1048"/>
</g>
<!-- Node3 -->
<g id="node3" class="node">
<title>Node3</title>
<g id="a_node3"><a xlink:href="classPoint.html#a3770f321c49dfe7ca463900fddc2e2bc" target="_top" xlink:title="Point::getX Gibt die Y&#45;Koordinate des Punktes.">
<polygon fill="#ffffff" stroke="#000000" points="220.5,-76.5 220.5,-95.5 286.5,-95.5 286.5,-76.5 220.5,-76.5"/>
<text text-anchor="middle" x="253.5" y="-83.5" font-family="Helvetica,sans-Serif" font-size="10.00" fill="#000000">Point::getY</text>
</a>
</g>
</g>
<!-- Node1&#45;&gt;Node3 -->
<g id="edge2" class="edge">
<title>Node1&#45;&gt;Node3</title>
<path fill="none" stroke="#191970" d="M138.2259,-74.129C162.3029,-76.6084 188.6152,-79.3181 210.0144,-81.5218"/>
<polygon fill="#191970" stroke="#191970" points="209.7875,-85.0169 220.0935,-82.5598 210.5046,-78.0537 209.7875,-85.0169"/>
</g>
<!-- Node4 -->
<g id="node4" class="node">
<title>Node4</title>
<g id="a_node4"><a xlink:href="classPoint.html#a5fe68f58cafb4cbc29f09de0978344fd" target="_top" xlink:title="Point::move Verschiebt den Punkt.">
<polygon fill="#ffffff" stroke="#000000" points="218,-38.5 218,-57.5 289,-57.5 289,-38.5 218,-38.5"/>
<text text-anchor="middle" x="253.5" y="-45.5" font-family="Helvetica,sans-Serif" font-size="10.00" fill="#000000">Point::move</text>
</a>
</g>
</g>
<!-- Node1&#45;&gt;Node4 -->
<g id="edge3" class="edge">
<title>Node1&#45;&gt;Node4</title>
<path fill="none" stroke="#191970" d="M138.2259,-59.871C161.4062,-57.4839 186.6584,-54.8834 207.6034,-52.7265"/>
<polygon fill="#191970" stroke="#191970" points="208.231,-56.1805 217.8198,-51.6744 207.5138,-49.2173 208.231,-56.1805"/>
</g>
<!-- Node5 -->
<g id="node5" class="node">
<title>Node5</title>
<g id="a_node5"><a xlink:href="classDataModel.html#a2dcc97fd7387151077bcb3794b1614af" target="_top" xlink:title="DataModel::updateCoordinates Aktualisiert die Koordinaten des fokussierten Quadrantens.">
<polygon fill="#ffffff" stroke="#000000" points="174,-.5 174,-19.5 333,-19.5 333,-.5 174,-.5"/>
<text text-anchor="middle" x="253.5" y="-7.5" font-family="Helvetica,sans-Serif" font-size="10.00" fill="#000000">DataModel::updateCoordinates</text>
</a>
</g>
</g>
<!-- Node1&#45;&gt;Node5 -->
<g id="edge4" class="edge">
<title>Node1&#45;&gt;Node5</title>
<path fill="none" stroke="#191970" d="M92.9308,-57.4659C114.0474,-49.2638 145.7711,-37.4521 174,-29 182.2077,-26.5425 190.9658,-24.1874 199.5582,-22.023"/>
<polygon fill="#191970" stroke="#191970" points="200.6492,-25.3592 209.5259,-19.5752 198.9797,-18.5612 200.6492,-25.3592"/>
</g>
</g>
</svg>
