<?xml version="1.0" encoding="UTF-8" standalone="no"?>
<!DOCTYPE svg PUBLIC "-//W3C//DTD SVG 1.1//EN"
 "http://www.w3.org/Graphics/SVG/1.1/DTD/svg11.dtd">
<!-- Generated by graphviz version 2.40.1 (20161225.0304)
 -->
<!-- Title: Point::getX Pages: 1 -->
<svg width="478pt" height="405pt"
 viewBox="0.00 0.00 478.00 404.50" xmlns="http://www.w3.org/2000/svg" xmlns:xlink="http://www.w3.org/1999/xlink">
<g id="graph0" class="graph" transform="scale(1 1) rotate(0) translate(4 400.5)">
<title>Point::getX</title>
<polygon fill="#ffffff" stroke="transparent" points="-4,4 -4,-400.5 474,-400.5 474,4 -4,4"/>
<!-- Node1 -->
<g id="node1" class="node">
<title>Node1</title>
<g id="a_node1"><a xlink:title="Point::getX Gibt die X&#45;Koordinate des Punktes.">
<polygon fill="#bfbfbf" stroke="#000000" points="404,-171.5 404,-190.5 470,-190.5 470,-171.5 404,-171.5"/>
<text text-anchor="middle" x="437" y="-178.5" font-family="Helvetica,sans-Serif" font-size="10.00" fill="#000000">Point::getX</text>
</a>
</g>
</g>
<!-- Node2 -->
<g id="node2" class="node">
<title>Node2</title>
<g id="a_node2"><a xlink:href="classMapRenderer.html#a15bd2845914440803193a2209b1a9230" target="_top" xlink:title="MapRenderer::animateMovementToTilePosition Führt eine Bewegungsanimation zu einer Kachelkoordinate du...">
<polygon fill="#ffffff" stroke="#000000" points="201,-366 201,-396 368,-396 368,-366 201,-366"/>
<text text-anchor="start" x="209" y="-384" font-family="Helvetica,sans-Serif" font-size="10.00" fill="#000000">MapRenderer::animateMovement</text>
<text text-anchor="middle" x="284.5" y="-373" font-family="Helvetica,sans-Serif" font-size="10.00" fill="#000000">ToTilePosition</text>
</a>
</g>
</g>
<!-- Node1&#45;&gt;Node2 -->
<g id="edge1" class="edge">
<title>Node1&#45;&gt;Node2</title>
<path fill="none" stroke="#191970" d="M434.902,-200.9459C429.9968,-237.3588 414.426,-314.7345 368,-357 364.2078,-360.4524 359.95,-363.4111 355.4172,-365.9463"/>
<polygon fill="#191970" stroke="#191970" points="438.42,-201.0071 436.1454,-190.6593 431.4705,-200.167 438.42,-201.0071"/>
</g>
<!-- Node4 -->
<g id="node4" class="node">
<title>Node4</title>
<g id="a_node4"><a xlink:href="classAnimationMovement.html#a0ec9be9fcfb79cc886d112d39670a980" target="_top" xlink:title=" ">
<polygon fill="#ffffff" stroke="#000000" points="227.5,-317 227.5,-347 341.5,-347 341.5,-317 227.5,-317"/>
<text text-anchor="start" x="235.5" y="-335" font-family="Helvetica,sans-Serif" font-size="10.00" fill="#000000">AnimationMovement::</text>
<text text-anchor="middle" x="284.5" y="-324" font-family="Helvetica,sans-Serif" font-size="10.00" fill="#000000">calculateVector</text>
</a>
</g>
</g>
<!-- Node1&#45;&gt;Node4 -->
<g id="edge3" class="edge">
<title>Node1&#45;&gt;Node4</title>
<path fill="none" stroke="#191970" d="M431.6076,-200.2113C422.8536,-227.887 402.9156,-278.7452 368,-307 360.3539,-313.1875 351.2075,-317.8446 341.8156,-321.3495"/>
<polygon fill="#191970" stroke="#191970" points="434.993,-201.1065 434.5113,-190.5226 428.2877,-199.0968 434.993,-201.1065"/>
</g>
<!-- Node7 -->
<g id="node7" class="node">
<title>Node7</title>
<g id="a_node7"><a xlink:href="classMapRenderer.html#a16e18fbc2209227f9c891349b49079e4" target="_top" xlink:title="MapRenderer::getTileCenter Liefert die Koordinate der zentralen Kachel zurück.">
<polygon fill="#ffffff" stroke="#000000" points="211.5,-278.5 211.5,-297.5 357.5,-297.5 357.5,-278.5 211.5,-278.5"/>
<text text-anchor="middle" x="284.5" y="-285.5" font-family="Helvetica,sans-Serif" font-size="10.00" fill="#000000">MapRenderer::getTileCenter</text>
</a>
</g>
</g>
<!-- Node1&#45;&gt;Node7 -->
<g id="edge6" class="edge">
<title>Node1&#45;&gt;Node7</title>
<path fill="none" stroke="#191970" d="M427.477,-199.6376C416.1181,-219.9242 395.1997,-251.7654 368,-269 361.8464,-272.8991 354.9894,-276.0017 347.9236,-278.4698"/>
<polygon fill="#191970" stroke="#191970" points="430.6179,-201.1867 432.2709,-190.7216 424.4525,-197.8717 430.6179,-201.1867"/>
</g>
<!-- Node8 -->
<g id="node8" class="node">
<title>Node8</title>
<g id="a_node8"><a xlink:href="classMapRenderer.html#a5e805bae5efab5f37a6ec8ee24543d0d" target="_top" xlink:title="MapRenderer::mapPosition Wandelt eine Position im Fenster in eine Kachelkoordinate um.">
<polygon fill="#ffffff" stroke="#000000" points="214.5,-152.5 214.5,-171.5 354.5,-171.5 354.5,-152.5 214.5,-152.5"/>
<text text-anchor="middle" x="284.5" y="-159.5" font-family="Helvetica,sans-Serif" font-size="10.00" fill="#000000">MapRenderer::mapPosition</text>
</a>
</g>
</g>
<!-- Node1&#45;&gt;Node8 -->
<g id="edge7" class="edge">
<title>Node1&#45;&gt;Node8</title>
<path fill="none" stroke="#191970" d="M393.651,-175.5991C381.5289,-174.0889 368.0343,-172.4075 354.7815,-170.7564"/>
<polygon fill="#191970" stroke="#191970" points="393.5537,-179.114 403.9098,-176.8773 394.4192,-172.1677 393.5537,-179.114"/>
</g>
<!-- Node9 -->
<g id="node9" class="node">
<title>Node9</title>
<g id="a_node9"><a xlink:href="classMapRenderer.html#aa2f3c7d428114b22544682da3997efd9" target="_top" xlink:title=" ">
<polygon fill="#ffffff" stroke="#000000" points="0,-171.5 0,-190.5 165,-190.5 165,-171.5 0,-171.5"/>
<text text-anchor="middle" x="82.5" y="-178.5" font-family="Helvetica,sans-Serif" font-size="10.00" fill="#000000">MapRenderer::mouseMoveEvent</text>
</a>
</g>
</g>
<!-- Node1&#45;&gt;Node9 -->
<g id="edge10" class="edge">
<title>Node1&#45;&gt;Node9</title>
<path fill="none" stroke="#191970" d="M393.9347,-181C337.3725,-181 236.8633,-181 165.3295,-181"/>
<polygon fill="#191970" stroke="#191970" points="393.9679,-184.5001 403.9678,-181 393.9678,-177.5001 393.9679,-184.5001"/>
</g>
<!-- Node10 -->
<g id="node10" class="node">
<title>Node10</title>
<g id="a_node10"><a xlink:href="classMapRenderer.html#ac6c85d76a8de58f740066f02745d2e79" target="_top" xlink:title=" ">
<polygon fill="#ffffff" stroke="#000000" points="6,-82 6,-112 159,-112 159,-82 6,-82"/>
<text text-anchor="start" x="14" y="-100" font-family="Helvetica,sans-Serif" font-size="10.00" fill="#000000">MapRenderer::mouseRelease</text>
<text text-anchor="middle" x="82.5" y="-89" font-family="Helvetica,sans-Serif" font-size="10.00" fill="#000000">Event</text>
</a>
</g>
</g>
<!-- Node1&#45;&gt;Node10 -->
<g id="edge11" class="edge">
<title>Node1&#45;&gt;Node10</title>
<path fill="none" stroke="#191970" d="M426.4894,-162.5921C414.8436,-144.2203 394.1993,-117.0417 368,-105 302.3332,-74.8182 218.8964,-76.4105 159.2093,-83.3797"/>
<polygon fill="#191970" stroke="#191970" points="423.569,-164.5266 431.7409,-171.2698 429.5577,-160.9023 423.569,-164.5266"/>
</g>
<!-- Node11 -->
<g id="node11" class="node">
<title>Node11</title>
<g id="a_node11"><a xlink:href="classMinimap.html#ae162eea6dd404a3e3644516567a28334" target="_top" xlink:title="Minimap::paintEvent Rendert die Minimap.">
<polygon fill="#ffffff" stroke="#000000" points="231.5,-114.5 231.5,-133.5 337.5,-133.5 337.5,-114.5 231.5,-114.5"/>
<text text-anchor="middle" x="284.5" y="-121.5" font-family="Helvetica,sans-Serif" font-size="10.00" fill="#000000">Minimap::paintEvent</text>
</a>
</g>
</g>
<!-- Node1&#45;&gt;Node11 -->
<g id="edge12" class="edge">
<title>Node1&#45;&gt;Node11</title>
<path fill="none" stroke="#191970" d="M413.7529,-166.0563C400.7289,-158.2412 383.9422,-149.0657 368,-143 358.1343,-139.2463 347.3183,-136.1133 336.8378,-133.5453"/>
<polygon fill="#191970" stroke="#191970" points="412.1545,-169.1823 422.5055,-171.4425 415.8233,-163.2207 412.1545,-169.1823"/>
</g>
<!-- Node12 -->
<g id="node12" class="node">
<title>Node12</title>
<g id="a_node12"><a xlink:href="classMapRenderer.html#afda821c83a4e0b63eb8325597f4fc6ef" target="_top" xlink:title="MapRenderer::paintEvent Rendert die Spielansicht.">
<polygon fill="#ffffff" stroke="#000000" points="17.5,-27.5 17.5,-46.5 147.5,-46.5 147.5,-27.5 17.5,-27.5"/>
<text text-anchor="middle" x="82.5" y="-34.5" font-family="Helvetica,sans-Serif" font-size="10.00" fill="#000000">MapRenderer::paintEvent</text>
</a>
</g>
</g>
<!-- Node1&#45;&gt;Node12 -->
<g id="edge13" class="edge">
<title>Node1&#45;&gt;Node12</title>
<path fill="none" stroke="#191970" d="M430.2783,-161.7101C420.6255,-137.1387 400.3501,-95.4191 368,-75 301.6134,-33.0973 209.2736,-28.2985 147.7828,-30.8536"/>
<polygon fill="#191970" stroke="#191970" points="427.1037,-163.215 433.8705,-171.3674 433.6645,-160.7745 427.1037,-163.215"/>
</g>
<!-- Node13 -->
<g id="node13" class="node">
<title>Node13</title>
<g id="a_node13"><a xlink:href="classAnimationMovement.html#a44ca067fe462153208cd2a23fa455313" target="_top" xlink:title=" ">
<polygon fill="#ffffff" stroke="#000000" points="227.5,-229 227.5,-259 341.5,-259 341.5,-229 227.5,-229"/>
<text text-anchor="start" x="235.5" y="-247" font-family="Helvetica,sans-Serif" font-size="10.00" fill="#000000">AnimationMovement::</text>
<text text-anchor="middle" x="284.5" y="-236" font-family="Helvetica,sans-Serif" font-size="10.00" fill="#000000">targetDistance</text>
</a>
</g>
</g>
<!-- Node1&#45;&gt;Node13 -->
<g id="edge14" class="edge">
<title>Node1&#45;&gt;Node13</title>
<path fill="none" stroke="#191970" d="M409.2117,-195.08C396.7423,-201.1922 381.768,-208.2517 368,-214 355.4912,-219.2226 341.7155,-224.3996 329.0219,-228.9452"/>
<polygon fill="#191970" stroke="#191970" points="410.7908,-198.2037 418.1975,-190.6279 407.6831,-191.9314 410.7908,-198.2037"/>
</g>
<!-- Node14 -->
<g id="node14" class="node">
<title>Node14</title>
<g id="a_node14"><a xlink:href="classMapRenderer.html#aaacbdf96eb6d7e549664e7730063ec16" target="_top" xlink:title="MapRenderer::toScreenPosition Wandelt einen Kachelindex in eine Koordinate auf dem Bildschirm um.">
<polygon fill="#ffffff" stroke="#000000" points="204,-.5 204,-19.5 365,-19.5 365,-.5 204,-.5"/>
<text text-anchor="middle" x="284.5" y="-7.5" font-family="Helvetica,sans-Serif" font-size="10.00" fill="#000000">MapRenderer::toScreenPosition</text>
</a>
</g>
</g>
<!-- Node1&#45;&gt;Node14 -->
<g id="edge16" class="edge">
<title>Node1&#45;&gt;Node14</title>
<path fill="none" stroke="#191970" d="M433.2097,-161.2862C426.1002,-129.7027 407.7455,-67.8807 368,-34 360.5388,-27.6397 351.4833,-22.9621 342.1242,-19.5225"/>
<polygon fill="#191970" stroke="#191970" points="429.8622,-162.3768 435.339,-171.4463 436.7133,-160.9409 429.8622,-162.3768"/>
</g>
<!-- Node3 -->
<g id="node3" class="node">
<title>Node3</title>
<g id="a_node3"><a xlink:href="classMinimap.html#a802a1ec9586aa8f6e7b76aa55ae18374" target="_top" xlink:title=" ">
<polygon fill="#ffffff" stroke="#000000" points="5.5,-371.5 5.5,-390.5 159.5,-390.5 159.5,-371.5 5.5,-371.5"/>
<text text-anchor="middle" x="82.5" y="-378.5" font-family="Helvetica,sans-Serif" font-size="10.00" fill="#000000">Minimap::mouseReleaseEvent</text>
</a>
</g>
</g>
<!-- Node2&#45;&gt;Node3 -->
<g id="edge2" class="edge">
<title>Node2&#45;&gt;Node3</title>
<path fill="none" stroke="#191970" d="M190.558,-381C180.1857,-381 169.7137,-381 159.5823,-381"/>
<polygon fill="#191970" stroke="#191970" points="190.8808,-384.5001 200.8807,-381 190.8807,-377.5001 190.8808,-384.5001"/>
</g>
<!-- Node5 -->
<g id="node5" class="node">
<title>Node5</title>
<g id="a_node5"><a xlink:href="classAnimationMovement.html#a98614fc05b08f2cadc06b1bff199d6aa" target="_top" xlink:title=" ">
<polygon fill="#ffffff" stroke="#000000" points="25.5,-317 25.5,-347 139.5,-347 139.5,-317 25.5,-317"/>
<text text-anchor="start" x="33.5" y="-335" font-family="Helvetica,sans-Serif" font-size="10.00" fill="#000000">AnimationMovement::</text>
<text text-anchor="middle" x="82.5" y="-324" font-family="Helvetica,sans-Serif" font-size="10.00" fill="#000000">calculateVector</text>
</a>
</g>
</g>
<!-- Node4&#45;&gt;Node5 -->
<g id="edge4" class="edge">
<title>Node4&#45;&gt;Node5</title>
<path fill="none" stroke="#191970" d="M217.2479,-332C192.1474,-332 163.9049,-332 139.7842,-332"/>
<polygon fill="#191970" stroke="#191970" points="217.4249,-335.5001 227.4249,-332 217.4248,-328.5001 217.4249,-335.5001"/>
</g>
<!-- Node6 -->
<g id="node6" class="node">
<title>Node6</title>
<g id="a_node6"><a xlink:href="classAnimationMovement.html#a9cdb7ef489af5bb1a09c94747c73a213" target="_top" xlink:title="AnimationMovement::move Führt einen Schritt der Animation durch.">
<polygon fill="#ffffff" stroke="#000000" points="12.5,-256.5 12.5,-275.5 152.5,-275.5 152.5,-256.5 12.5,-256.5"/>
<text text-anchor="middle" x="82.5" y="-263.5" font-family="Helvetica,sans-Serif" font-size="10.00" fill="#000000">AnimationMovement::move</text>
</a>
</g>
</g>
<!-- Node4&#45;&gt;Node6 -->
<g id="edge5" class="edge">
<title>Node4&#45;&gt;Node6</title>
<path fill="none" stroke="#191970" d="M223.014,-313.9125C215.5825,-311.6316 208.1097,-309.2932 201,-307 169.3007,-296.7758 133.1646,-284.1278 109.2178,-275.6052"/>
<polygon fill="#191970" stroke="#191970" points="222.1397,-317.3049 232.7256,-316.8693 224.1785,-310.6084 222.1397,-317.3049"/>
</g>
<!-- Node8&#45;&gt;Node9 -->
<g id="edge8" class="edge">
<title>Node8&#45;&gt;Node9</title>
<path fill="none" stroke="#191970" d="M204.2608,-169.5473C191.4514,-170.7521 178.1765,-172.0007 165.3089,-173.211"/>
<polygon fill="#191970" stroke="#191970" points="204.7888,-173.0131 214.4171,-168.592 204.1333,-166.0439 204.7888,-173.0131"/>
</g>
<!-- Node8&#45;&gt;Node10 -->
<g id="edge9" class="edge">
<title>Node8&#45;&gt;Node10</title>
<path fill="none" stroke="#191970" d="M227.0954,-150.1066C218.299,-147.9481 209.3664,-145.5606 201,-143 172.3008,-134.2163 140.6507,-121.7829 117.2846,-112.0565"/>
<polygon fill="#191970" stroke="#191970" points="226.3931,-153.5371 236.9313,-152.4435 228.0112,-146.7267 226.3931,-153.5371"/>
</g>
<!-- Node13&#45;&gt;Node6 -->
<g id="edge15" class="edge">
<title>Node13&#45;&gt;Node6</title>
<path fill="none" stroke="#191970" d="M217.4202,-251.3057C196.6492,-253.5679 173.7126,-256.066 152.7339,-258.3508"/>
<polygon fill="#191970" stroke="#191970" points="217.8626,-254.7783 227.4249,-250.2161 217.1047,-247.8195 217.8626,-254.7783"/>
</g>
<!-- Node14&#45;&gt;Node12 -->
<g id="edge17" class="edge">
<title>Node14&#45;&gt;Node12</title>
<path fill="none" stroke="#191970" d="M203.146,-20.8741C184.7026,-23.3393 165.35,-25.926 147.6783,-28.288"/>
<polygon fill="#191970" stroke="#191970" points="203.8342,-24.3133 213.2824,-19.5192 202.9068,-17.375 203.8342,-24.3133"/>
</g>
</g>
</svg>
