<?xml version="1.0" encoding="UTF-8" standalone="no"?>
<!DOCTYPE svg PUBLIC "-//W3C//DTD SVG 1.1//EN"
 "http://www.w3.org/Graphics/SVG/1.1/DTD/svg11.dtd">
<!-- Generated by graphviz version 2.40.1 (20161225.0304)
 -->
<!-- Title: DataModel::updateBalance Pages: 1 -->
<svg width="504pt" height="78pt"
 viewBox="0.00 0.00 504.00 77.50" xmlns="http://www.w3.org/2000/svg" xmlns:xlink="http://www.w3.org/1999/xlink">
<g id="graph0" class="graph" transform="scale(1 1) rotate(0) translate(4 73.5)">
<title>DataModel::updateBalance</title>
<polygon fill="#ffffff" stroke="transparent" points="-4,4 -4,-73.5 500,-73.5 500,4 -4,4"/>
<!-- Node1 -->
<g id="node1" class="node">
<title>Node1</title>
<g id="a_node1"><a xlink:title="DataModel::updateBalance Aktualisiert den Kontostand. Auch in Anzeigen etc.">
<polygon fill="#bfbfbf" stroke="#000000" points="355,-22.5 355,-41.5 496,-41.5 496,-22.5 355,-22.5"/>
<text text-anchor="middle" x="425.5" y="-29.5" font-family="Helvetica,sans-Serif" font-size="10.00" fill="#000000">DataModel::updateBalance</text>
</a>
</g>
</g>
<!-- Node2 -->
<g id="node2" class="node">
<title>Node2</title>
<g id="a_node2"><a xlink:href="classDataModel.html#aa43618b4473a997594d2f971f3e50874" target="_top" xlink:title="DataModel::setGuiBalanceLabel Setzt das Label in welchem der Kontostand dargestellt wird.">
<polygon fill="#ffffff" stroke="#000000" points="179,-39 179,-69 319,-69 319,-39 179,-39"/>
<text text-anchor="start" x="187" y="-57" font-family="Helvetica,sans-Serif" font-size="10.00" fill="#000000">DataModel::setGuiBalance</text>
<text text-anchor="middle" x="249" y="-46" font-family="Helvetica,sans-Serif" font-size="10.00" fill="#000000">Label</text>
</a>
</g>
</g>
<!-- Node1&#45;&gt;Node2 -->
<g id="edge1" class="edge">
<title>Node1&#45;&gt;Node2</title>
<path fill="none" stroke="#191970" d="M344.9316,-42.0425C336.315,-43.1165 327.6,-44.2028 319.1185,-45.26"/>
<polygon fill="#191970" stroke="#191970" points="345.4913,-45.4999 354.9816,-40.7898 344.6254,-38.5537 345.4913,-45.4999"/>
</g>
<!-- Node4 -->
<g id="node4" class="node">
<title>Node4</title>
<g id="a_node4"><a xlink:href="classDataModel.html#a1fec3cdae29e15b34cbeb060cded8acd" target="_top" xlink:title="DataModel::takeBalance Zieht Geld ab falls noch genug da ist.">
<polygon fill="#ffffff" stroke="#000000" points="184,-.5 184,-19.5 314,-19.5 314,-.5 184,-.5"/>
<text text-anchor="middle" x="249" y="-7.5" font-family="Helvetica,sans-Serif" font-size="10.00" fill="#000000">DataModel::takeBalance</text>
</a>
</g>
</g>
<!-- Node1&#45;&gt;Node4 -->
<g id="edge3" class="edge">
<title>Node1&#45;&gt;Node4</title>
<path fill="none" stroke="#191970" d="M344.8128,-21.9427C334.5778,-20.6669 324.2061,-19.3741 314.2539,-18.1336"/>
<polygon fill="#191970" stroke="#191970" points="344.6254,-25.4463 354.9816,-23.2102 345.4913,-18.5001 344.6254,-25.4463"/>
</g>
<!-- Node3 -->
<g id="node3" class="node">
<title>Node3</title>
<g id="a_node3"><a xlink:href="classSidePanel.html#a26f78ad7518003db89a4ec57d63da2e4" target="_top" xlink:title="SidePanel::hookDataModel Verknüpft ein Datenmodell mit der Anzeige. Dadurch können dann Textfelder et...">
<polygon fill="#ffffff" stroke="#000000" points="0,-44.5 0,-63.5 143,-63.5 143,-44.5 0,-44.5"/>
<text text-anchor="middle" x="71.5" y="-51.5" font-family="Helvetica,sans-Serif" font-size="10.00" fill="#000000">SidePanel::hookDataModel</text>
</a>
</g>
</g>
<!-- Node2&#45;&gt;Node3 -->
<g id="edge2" class="edge">
<title>Node2&#45;&gt;Node3</title>
<path fill="none" stroke="#191970" d="M168.5866,-54C160.116,-54 151.5431,-54 143.1804,-54"/>
<polygon fill="#191970" stroke="#191970" points="168.8473,-57.5001 178.8473,-54 168.8473,-50.5001 168.8473,-57.5001"/>
</g>
</g>
</svg>
