<?xml version="1.0" encoding="UTF-8" standalone="no"?>
<!DOCTYPE svg PUBLIC "-//W3C//DTD SVG 1.1//EN"
 "http://www.w3.org/Graphics/SVG/1.1/DTD/svg11.dtd">
<!-- Generated by graphviz version 2.40.1 (20161225.0304)
 -->
<!-- Title: src/application_server/client.h Pages: 1 -->
<!--zoomable 307 -->
<svg id="main" version="1.1" xmlns="http://www.w3.org/2000/svg" xmlns:xlink="http://www.w3.org/1999/xlink" xml:space="preserve" onload="init(evt)">
<style type="text/css"><![CDATA[
.edge:hover path { stroke: red; }
.edge:hover polygon { stroke: red; fill: red; }
]]></style>
<script type="text/javascript"><![CDATA[
var edges = document.getElementsByTagName('g');
if (edges && edges.length) {
  for (var i=0;i<edges.length;i++) {
    if (edges[i].id.substr(0,4)=='edge') {
      edges[i].setAttribute('class','edge');
    }
  }
}
]]></script>
        <defs>
                <circle id="rim" cx="0" cy="0" r="7"/>
                <circle id="rim2" cx="0" cy="0" r="3.5"/>
                <g id="zoomPlus">
                        <use xlink:href="#rim" fill="#404040">
                                <set attributeName="fill" to="#808080" begin="zoomplus.mouseover" end="zoomplus.mouseout"/>
                        </use>
                        <path d="M-4,0h8M0,-4v8" fill="none" stroke="white" stroke-width="1.5" pointer-events="none"/>
                </g>
                <g id="zoomMin">
                        <use xlink:href="#rim" fill="#404040">
                                <set attributeName="fill" to="#808080" begin="zoomminus.mouseover" end="zoomminus.mouseout"/>
                        </use>
                        <path d="M-4,0h8" fill="none" stroke="white" stroke-width="1.5" pointer-events="none"/>
                </g>
                <g id="dirArrow">
                        <path fill="none" stroke="white" stroke-width="1.5" d="M0,-3.0v7 M-2.5,-0.5L0,-3.0L2.5,-0.5"/>
                </g>
               <g id="resetDef">
                       <use xlink:href="#rim2" fill="#404040">
                               <set attributeName="fill" to="#808080" begin="reset.mouseover" end="reset.mouseout"/>
                       </use>
               </g>
        </defs>

<script type="text/javascript">
var viewWidth = 501;
var viewHeight = 307;
var sectionId = 'dynsection-1';
</script>
<script xlink:href="svgpan.js"/>
<svg id="graph" class="graph">
<g id="viewport">
<title>src/application_server/client.h</title>
<polygon fill="#ffffff" stroke="transparent" points="-4,4 -4,-303 496.6042,-303 496.6042,4 -4,4"/>
<!-- Node1 -->
<g id="node1" class="node">
<title>Node1</title>
<g id="a_node1"><a xlink:title=" ">
<polygon fill="#bfbfbf" stroke="#000000" points="239.5838,-268.5 239.5838,-298.5 354.5838,-298.5 354.5838,-268.5 239.5838,-268.5"/>
<text text-anchor="start" x="247.5838" y="-286.5" font-family="Helvetica,sans-Serif" font-size="10.00" fill="#000000">src/application_server</text>
<text text-anchor="middle" x="297.0838" y="-275.5" font-family="Helvetica,sans-Serif" font-size="10.00" fill="#000000">/client.h</text>
</a>
</g>
</g>
<!-- Node2 -->
<g id="node2" class="node">
<title>Node2</title>
<g id="a_node2"><a xlink:href="client_8cpp.html" target="_top" xlink:title=" ">
<polygon fill="#ffffff" stroke="#000000" points="20.5838,-201.5 20.5838,-231.5 135.5838,-231.5 135.5838,-201.5 20.5838,-201.5"/>
<text text-anchor="start" x="28.5838" y="-219.5" font-family="Helvetica,sans-Serif" font-size="10.00" fill="#000000">src/application_server</text>
<text text-anchor="middle" x="78.0838" y="-208.5" font-family="Helvetica,sans-Serif" font-size="10.00" fill="#000000">/client.cpp</text>
</a>
</g>
</g>
<!-- Node1&#45;&gt;Node2 -->
<g id="edge1" class="edge">
<title>Node1&#45;&gt;Node2</title>
<path fill="none" stroke="#191970" d="M237.9614,-265.4123C203.3709,-254.8298 160.2039,-241.6235 127.4461,-231.6017"/>
<polygon fill="#191970" stroke="#191970" points="237.3495,-268.8852 247.936,-268.4639 239.3974,-262.1914 237.3495,-268.8852"/>
</g>
<!-- Node3 -->
<g id="node3" class="node">
<title>Node3</title>
<g id="a_node3"><a xlink:href="gameloop_8h.html" target="_top" xlink:title=" ">
<polygon fill="#ffffff" stroke="#000000" points="363.5838,-201.5 363.5838,-231.5 478.5838,-231.5 478.5838,-201.5 363.5838,-201.5"/>
<text text-anchor="start" x="371.5838" y="-219.5" font-family="Helvetica,sans-Serif" font-size="10.00" fill="#000000">src/application_server</text>
<text text-anchor="middle" x="421.0838" y="-208.5" font-family="Helvetica,sans-Serif" font-size="10.00" fill="#000000">/gameloop.h</text>
</a>
</g>
</g>
<!-- Node1&#45;&gt;Node3 -->
<g id="edge2" class="edge">
<title>Node1&#45;&gt;Node3</title>
<path fill="none" stroke="#191970" d="M333.8486,-263.6352C352.7505,-253.422 375.4255,-241.1702 392.9197,-231.7177"/>
<polygon fill="#191970" stroke="#191970" points="332.0459,-260.6309 324.9119,-268.4639 335.3735,-266.7894 332.0459,-260.6309"/>
</g>
<!-- Node6 -->
<g id="node6" class="node">
<title>Node6</title>
<g id="a_node6"><a xlink:href="main_8h.html" target="_top" xlink:title=" ">
<polygon fill="#ffffff" stroke="#000000" points="148.5838,-67.5 148.5838,-97.5 263.5838,-97.5 263.5838,-67.5 148.5838,-67.5"/>
<text text-anchor="start" x="156.5838" y="-85.5" font-family="Helvetica,sans-Serif" font-size="10.00" fill="#000000">src/application_server</text>
<text text-anchor="middle" x="206.0838" y="-74.5" font-family="Helvetica,sans-Serif" font-size="10.00" fill="#000000">/main.h</text>
</a>
</g>
</g>
<!-- Node1&#45;&gt;Node6 -->
<g id="edge5" class="edge">
<title>Node1&#45;&gt;Node6</title>
<path fill="none" stroke="#191970" d="M299.7484,-258.1186C301.7955,-226.6872 301.1158,-172.5847 278.0838,-134 268.7888,-118.4284 252.7653,-106.27 238.1909,-97.6866"/>
<polygon fill="#191970" stroke="#191970" points="296.2483,-257.9818 298.9427,-268.2282 303.2262,-258.5379 296.2483,-257.9818"/>
</g>
<!-- Node7 -->
<g id="node7" class="node">
<title>Node7</title>
<g id="a_node7"><a xlink:href="routeinterface_8h.html" target="_top" xlink:title=" ">
<polygon fill="#ffffff" stroke="#000000" points="153.5838,-201.5 153.5838,-231.5 268.5838,-231.5 268.5838,-201.5 153.5838,-201.5"/>
<text text-anchor="start" x="161.5838" y="-219.5" font-family="Helvetica,sans-Serif" font-size="10.00" fill="#000000">src/application_server</text>
<text text-anchor="middle" x="211.0838" y="-208.5" font-family="Helvetica,sans-Serif" font-size="10.00" fill="#000000">/routeinterface.h</text>
</a>
</g>
</g>
<!-- Node1&#45;&gt;Node7 -->
<g id="edge7" class="edge">
<title>Node1&#45;&gt;Node7</title>
<path fill="none" stroke="#191970" d="M269.5694,-262.0643C256.8534,-252.1577 242.0522,-240.6265 230.5213,-231.6432"/>
<polygon fill="#191970" stroke="#191970" points="267.5295,-264.9119 277.5691,-268.2967 271.8315,-259.3899 267.5295,-264.9119"/>
</g>
<!-- Node9 -->
<g id="node9" class="node">
<title>Node9</title>
<g id="a_node9"><a xlink:href="menubar_8cpp.html" target="_top" xlink:title=" ">
<polygon fill="#ffffff" stroke="#000000" points="281.5838,-67.5 281.5838,-97.5 396.5838,-97.5 396.5838,-67.5 281.5838,-67.5"/>
<text text-anchor="start" x="289.5838" y="-85.5" font-family="Helvetica,sans-Serif" font-size="10.00" fill="#000000">src/application_server</text>
<text text-anchor="middle" x="339.0838" y="-74.5" font-family="Helvetica,sans-Serif" font-size="10.00" fill="#000000">/menubar.cpp</text>
</a>
</g>
</g>
<!-- Node1&#45;&gt;Node9 -->
<g id="edge13" class="edge">
<title>Node1&#45;&gt;Node9</title>
<path fill="none" stroke="#191970" d="M304.3527,-258.357C306.6506,-250.0063 309.1046,-240.6362 311.0838,-232 322.2326,-183.3535 332.1812,-125.0503 336.625,-97.8643"/>
<polygon fill="#191970" stroke="#191970" points="300.9065,-257.6835 301.5729,-268.2573 307.6459,-259.5758 300.9065,-257.6835"/>
</g>
<!-- Node4 -->
<g id="node4" class="node">
<title>Node4</title>
<g id="a_node4"><a xlink:href="gameloop_8cpp.html" target="_top" xlink:title=" ">
<polygon fill="#ffffff" stroke="#000000" points="363.5838,-134.5 363.5838,-164.5 478.5838,-164.5 478.5838,-134.5 363.5838,-134.5"/>
<text text-anchor="start" x="371.5838" y="-152.5" font-family="Helvetica,sans-Serif" font-size="10.00" fill="#000000">src/application_server</text>
<text text-anchor="middle" x="421.0838" y="-141.5" font-family="Helvetica,sans-Serif" font-size="10.00" fill="#000000">/gameloop.cpp</text>
</a>
</g>
</g>
<!-- Node3&#45;&gt;Node4 -->
<g id="edge3" class="edge">
<title>Node3&#45;&gt;Node4</title>
<path fill="none" stroke="#191970" d="M421.0838,-191.0249C421.0838,-182.128 421.0838,-172.4287 421.0838,-164.6432"/>
<polygon fill="#191970" stroke="#191970" points="417.5839,-191.2966 421.0838,-201.2967 424.5839,-191.2967 417.5839,-191.2966"/>
</g>
<!-- Node5 -->
<g id="node5" class="node">
<title>Node5</title>
<g id="a_node5"><a xlink:href="main_8cpp.html" target="_top" xlink:title=" ">
<polygon fill="#ffffff" stroke="#000000" points="148.5838,-.5 148.5838,-30.5 263.5838,-30.5 263.5838,-.5 148.5838,-.5"/>
<text text-anchor="start" x="156.5838" y="-18.5" font-family="Helvetica,sans-Serif" font-size="10.00" fill="#000000">src/application_server</text>
<text text-anchor="middle" x="206.0838" y="-7.5" font-family="Helvetica,sans-Serif" font-size="10.00" fill="#000000">/main.cpp</text>
</a>
</g>
</g>
<!-- Node3&#45;&gt;Node5 -->
<g id="edge4" class="edge">
<title>Node3&#45;&gt;Node5</title>
<path fill="none" stroke="#191970" d="M460.0041,-195.8045C471.1492,-187.781 481.9358,-177.4802 488.0838,-165 494.1724,-152.6405 493.988,-146.4486 488.0838,-134 467.916,-91.4774 448.0746,-88.2531 406.0838,-67 360.977,-44.1698 304.8861,-30.8654 263.5945,-23.5194"/>
<polygon fill="#191970" stroke="#191970" points="457.8553,-193.0307 451.4825,-201.4946 461.7425,-198.8523 457.8553,-193.0307"/>
</g>
<!-- Node6&#45;&gt;Node5 -->
<g id="edge6" class="edge">
<title>Node6&#45;&gt;Node5</title>
<path fill="none" stroke="#191970" d="M206.0838,-57.0249C206.0838,-48.128 206.0838,-38.4287 206.0838,-30.6432"/>
<polygon fill="#191970" stroke="#191970" points="202.5839,-57.2966 206.0838,-67.2967 209.5839,-57.2967 202.5839,-57.2966"/>
</g>
<!-- Node7&#45;&gt;Node5 -->
<g id="edge11" class="edge">
<title>Node7&#45;&gt;Node5</title>
<path fill="none" stroke="#191970" d="M143.8059,-200.1951C86.5559,-186.1649 13.2187,-167.7542 11.0838,-165 -36.3494,-103.8054 81.4947,-54.2353 154.1007,-30.5666"/>
<polygon fill="#191970" stroke="#191970" points="143.0181,-203.6055 153.5634,-202.5823 144.6816,-196.8061 143.0181,-203.6055"/>
</g>
<!-- Node8 -->
<g id="node8" class="node">
<title>Node8</title>
<g id="a_node8"><a xlink:href="menubar_8h.html" target="_top" xlink:title=" ">
<polygon fill="#ffffff" stroke="#000000" points="153.5838,-134.5 153.5838,-164.5 268.5838,-164.5 268.5838,-134.5 153.5838,-134.5"/>
<text text-anchor="start" x="161.5838" y="-152.5" font-family="Helvetica,sans-Serif" font-size="10.00" fill="#000000">src/application_server</text>
<text text-anchor="middle" x="211.0838" y="-141.5" font-family="Helvetica,sans-Serif" font-size="10.00" fill="#000000">/menubar.h</text>
</a>
</g>
</g>
<!-- Node7&#45;&gt;Node8 -->
<g id="edge8" class="edge">
<title>Node7&#45;&gt;Node8</title>
<path fill="none" stroke="#191970" d="M211.0838,-191.0249C211.0838,-182.128 211.0838,-172.4287 211.0838,-164.6432"/>
<polygon fill="#191970" stroke="#191970" points="207.5839,-191.2966 211.0838,-201.2967 214.5839,-191.2967 207.5839,-191.2966"/>
</g>
<!-- Node10 -->
<g id="node10" class="node">
<title>Node10</title>
<g id="a_node10"><a xlink:href="routeinterface_8cpp.html" target="_top" xlink:title=" ">
<polygon fill="#ffffff" stroke="#000000" points="20.5838,-134.5 20.5838,-164.5 135.5838,-164.5 135.5838,-134.5 20.5838,-134.5"/>
<text text-anchor="start" x="28.5838" y="-152.5" font-family="Helvetica,sans-Serif" font-size="10.00" fill="#000000">src/application_server</text>
<text text-anchor="middle" x="78.0838" y="-141.5" font-family="Helvetica,sans-Serif" font-size="10.00" fill="#000000">/routeinterface.cpp</text>
</a>
</g>
</g>
<!-- Node7&#45;&gt;Node10 -->
<g id="edge12" class="edge">
<title>Node7&#45;&gt;Node10</title>
<path fill="none" stroke="#191970" d="M172.2025,-196.9132C151.8195,-186.645 127.2266,-174.2561 108.2922,-164.7177"/>
<polygon fill="#191970" stroke="#191970" points="170.7306,-200.0906 181.236,-201.4639 173.8799,-193.8391 170.7306,-200.0906"/>
</g>
<!-- Node8&#45;&gt;Node6 -->
<g id="edge9" class="edge">
<title>Node8&#45;&gt;Node6</title>
<path fill="none" stroke="#191970" d="M209.2046,-124.3179C208.5347,-115.3414 207.8013,-105.5143 207.2139,-97.6432"/>
<polygon fill="#191970" stroke="#191970" points="205.7147,-124.5849 209.9493,-134.2967 212.6953,-124.0639 205.7147,-124.5849"/>
</g>
<!-- Node8&#45;&gt;Node9 -->
<g id="edge10" class="edge">
<title>Node8&#45;&gt;Node9</title>
<path fill="none" stroke="#191970" d="M248.7688,-129.7743C268.3333,-119.5335 291.8706,-107.2132 310.0111,-97.7177"/>
<polygon fill="#191970" stroke="#191970" points="247.0461,-126.7255 239.8095,-134.4639 250.2924,-132.9272 247.0461,-126.7255"/>
</g>
</g>
</svg>
        <g id="navigator" transform="translate(0 0)" fill="#404254">
                <rect fill="#f2f5e9" fill-opacity="0.5" stroke="#606060" stroke-width=".5" x="0" y="0" width="60" height="60"/>
                <use id="zoomplus" xlink:href="#zoomPlus" x="17" y="9" onmousedown="handleZoom(evt,'in')"/>
                <use id="zoomminus" xlink:href="#zoomMin" x="42" y="9" onmousedown="handleZoom(evt,'out')"/>
                <use id="reset" xlink:href="#resetDef" x="30" y="36" onmousedown="handleReset()"/>
                <g id="arrowUp" xlink:href="#dirArrow" transform="translate(30 24)" onmousedown="handlePan(0,-1)">
                  <use xlink:href="#rim" fill="#404040">
                        <set attributeName="fill" to="#808080" begin="arrowUp.mouseover" end="arrowUp.mouseout"/>
                  </use>
                  <path fill="none" stroke="white" stroke-width="1.5" d="M0,-3.0v7 M-2.5,-0.5L0,-3.0L2.5,-0.5"/>
                </g>
                <g id="arrowRight" xlink:href="#dirArrow" transform="rotate(90) translate(36 -43)" onmousedown="handlePan(1,0)">
                  <use xlink:href="#rim" fill="#404040">
                        <set attributeName="fill" to="#808080" begin="arrowRight.mouseover" end="arrowRight.mouseout"/>
                  </use>
                  <path fill="none" stroke="white" stroke-width="1.5" d="M0,-3.0v7 M-2.5,-0.5L0,-3.0L2.5,-0.5"/>
                </g>
                <g id="arrowDown" xlink:href="#dirArrow" transform="rotate(180) translate(-30 -48)" onmousedown="handlePan(0,1)">
                  <use xlink:href="#rim" fill="#404040">
                        <set attributeName="fill" to="#808080" begin="arrowDown.mouseover" end="arrowDown.mouseout"/>
                  </use>
                  <path fill="none" stroke="white" stroke-width="1.5" d="M0,-3.0v7 M-2.5,-0.5L0,-3.0L2.5,-0.5"/>
                </g>
                <g id="arrowLeft" xlink:href="#dirArrow" transform="rotate(270) translate(-36 17)" onmousedown="handlePan(-1,0)">
                  <use xlink:href="#rim" fill="#404040">
                        <set attributeName="fill" to="#808080" begin="arrowLeft.mouseover" end="arrowLeft.mouseout"/>
                  </use>
                  <path fill="none" stroke="white" stroke-width="1.5" d="M0,-3.0v7 M-2.5,-0.5L0,-3.0L2.5,-0.5"/>
                </g>
        </g>
        <svg viewBox="0 0 15 15" width="100%" height="30px" preserveAspectRatio="xMaxYMin meet">
         <g id="arrow_out" transform="scale(0.3 0.3)">
          <a xlink:href="client_8h__dep__incl_org.svg" target="_base">
           <rect id="button" ry="5" rx="5" y="6" x="6" height="38" width="38"
                fill="#f2f5e9" fill-opacity="0.5" stroke="#606060" stroke-width="1.0"/>
           <path id="arrow"
             d="M 11.500037,31.436501 C 11.940474,20.09759 22.043105,11.32322 32.158766,21.979434 L 37.068811,17.246167 C 37.068811,17.246167 37.088388,32 37.088388,32 L 22.160133,31.978069 C 22.160133,31.978069 26.997745,27.140456 26.997745,27.140456 C 18.528582,18.264221 13.291696,25.230495 11.500037,31.436501 z"
             style="fill:#404040;"/>
          </a>
         </g>
        </svg>
</svg>
