<?xml version="1.0" encoding="UTF-8" standalone="no"?>
<!DOCTYPE svg PUBLIC "-//W3C//DTD SVG 1.1//EN"
 "http://www.w3.org/Graphics/SVG/1.1/DTD/svg11.dtd">
<!-- Generated by graphviz version 2.40.1 (20161225.0304)
 -->
<!-- Title: src/application_server/client.h Pages: 1 -->
<svg width="1254pt" height="375pt"
 viewBox="0.00 0.00 1254.00 375.00" xmlns="http://www.w3.org/2000/svg" xmlns:xlink="http://www.w3.org/1999/xlink">
<g id="graph0" class="graph" transform="scale(1 1) rotate(0) translate(4 371)">
<title>src/application_server/client.h</title>
<polygon fill="#ffffff" stroke="transparent" points="-4,4 -4,-371 1250,-371 1250,4 -4,4"/>
<!-- Node1 -->
<g id="node1" class="node">
<title>Node1</title>
<g id="a_node1"><a xlink:title=" ">
<polygon fill="#bfbfbf" stroke="#000000" points="276.5,-336.5 276.5,-366.5 391.5,-366.5 391.5,-336.5 276.5,-336.5"/>
<text text-anchor="start" x="284.5" y="-354.5" font-family="Helvetica,sans-Serif" font-size="10.00" fill="#000000">src/application_server</text>
<text text-anchor="middle" x="334" y="-343.5" font-family="Helvetica,sans-Serif" font-size="10.00" fill="#000000">/client.h</text>
</a>
</g>
</g>
<!-- Node2 -->
<g id="node2" class="node">
<title>Node2</title>
<g id="a_node2"><a xlink:title=" ">
<polygon fill="#ffffff" stroke="#bfbfbf" points="0,-280.5 0,-299.5 74,-299.5 74,-280.5 0,-280.5"/>
<text text-anchor="middle" x="37" y="-287.5" font-family="Helvetica,sans-Serif" font-size="10.00" fill="#000000">QTcpSocket</text>
</a>
</g>
</g>
<!-- Node1&#45;&gt;Node2 -->
<g id="edge1" class="edge">
<title>Node1&#45;&gt;Node2</title>
<path fill="none" stroke="#191970" d="M276.138,-339.8277C227.5252,-329.9756 155.9403,-315.3624 84.2615,-300.2501"/>
<polygon fill="#191970" stroke="#191970" points="84.6565,-296.7564 74.1491,-298.1149 83.2102,-303.6054 84.6565,-296.7564"/>
</g>
<!-- Node3 -->
<g id="node3" class="node">
<title>Node3</title>
<g id="a_node3"><a xlink:title=" ">
<polygon fill="#ffffff" stroke="#bfbfbf" points="92.5,-280.5 92.5,-299.5 145.5,-299.5 145.5,-280.5 92.5,-280.5"/>
<text text-anchor="middle" x="119" y="-287.5" font-family="Helvetica,sans-Serif" font-size="10.00" fill="#000000">QObject</text>
</a>
</g>
</g>
<!-- Node1&#45;&gt;Node3 -->
<g id="edge2" class="edge">
<title>Node1&#45;&gt;Node3</title>
<path fill="none" stroke="#191970" d="M281.4051,-336.4554C242.2558,-325.2569 189.8264,-310.2596 155.2636,-300.3731"/>
<polygon fill="#191970" stroke="#191970" points="156.1575,-296.9885 145.5805,-297.6033 154.2324,-303.7185 156.1575,-296.9885"/>
</g>
<!-- Node4 -->
<g id="node4" class="node">
<title>Node4</title>
<g id="a_node4"><a xlink:title=" ">
<polygon fill="#ffffff" stroke="#bfbfbf" points="164,-280.5 164,-299.5 222,-299.5 222,-280.5 164,-280.5"/>
<text text-anchor="middle" x="193" y="-287.5" font-family="Helvetica,sans-Serif" font-size="10.00" fill="#000000">QThread</text>
</a>
</g>
</g>
<!-- Node1&#45;&gt;Node4 -->
<g id="edge3" class="edge">
<title>Node1&#45;&gt;Node4</title>
<path fill="none" stroke="#191970" d="M299.5075,-336.4554C276.4972,-326.419 246.4914,-313.3314 224.1945,-303.6061"/>
<polygon fill="#191970" stroke="#191970" points="225.4154,-300.3202 214.85,-299.5303 222.6167,-306.7364 225.4154,-300.3202"/>
</g>
<!-- Node5 -->
<g id="node5" class="node">
<title>Node5</title>
<g id="a_node5"><a xlink:title=" ">
<polygon fill="#ffffff" stroke="#bfbfbf" points="240.5,-280.5 240.5,-299.5 305.5,-299.5 305.5,-280.5 240.5,-280.5"/>
<text text-anchor="middle" x="273" y="-287.5" font-family="Helvetica,sans-Serif" font-size="10.00" fill="#000000">QStringList</text>
</a>
</g>
</g>
<!-- Node1&#45;&gt;Node5 -->
<g id="edge4" class="edge">
<title>Node1&#45;&gt;Node5</title>
<path fill="none" stroke="#191970" d="M318.9213,-336.2977C310.1011,-327.4052 298.9459,-316.1586 289.8388,-306.9769"/>
<polygon fill="#191970" stroke="#191970" points="292.294,-304.4821 282.7669,-299.8469 287.3241,-309.4116 292.294,-304.4821"/>
</g>
<!-- Node6 -->
<g id="node6" class="node">
<title>Node6</title>
<g id="a_node6"><a xlink:title=" ">
<polygon fill="#ffffff" stroke="#bfbfbf" points="466,-.5 466,-19.5 516,-19.5 516,-.5 466,-.5"/>
<text text-anchor="middle" x="491" y="-7.5" font-family="Helvetica,sans-Serif" font-size="10.00" fill="#000000">QString</text>
</a>
</g>
</g>
<!-- Node1&#45;&gt;Node6 -->
<g id="edge5" class="edge">
<title>Node1&#45;&gt;Node6</title>
<path fill="none" stroke="#191970" d="M332.5993,-336.3607C330.5656,-321.0202 325.6617,-297.1659 314,-280 276.0368,-224.1185 229.2227,-245.0251 193,-188 161.0284,-137.6674 129.9313,-101.0466 169,-56 187.6343,-34.5144 376.344,-18.3581 455.9133,-12.4488"/>
<polygon fill="#191970" stroke="#191970" points="456.2274,-15.9353 465.9455,-11.7152 455.7169,-8.9539 456.2274,-15.9353"/>
</g>
<!-- Node7 -->
<g id="node7" class="node">
<title>Node7</title>
<g id="a_node7"><a xlink:href="scene_8h.html" target="_top" xlink:title=" ">
<polygon fill="#ffffff" stroke="#000000" points="481,-224.5 481,-243.5 533,-243.5 533,-224.5 481,-224.5"/>
<text text-anchor="middle" x="507" y="-231.5" font-family="Helvetica,sans-Serif" font-size="10.00" fill="#000000">scene.h</text>
</a>
</g>
</g>
<!-- Node1&#45;&gt;Node7 -->
<g id="edge6" class="edge">
<title>Node1&#45;&gt;Node7</title>
<path fill="none" stroke="#191970" d="M356.2626,-336.3795C389.2954,-313.9439 450.9614,-272.0609 484.2649,-249.4415"/>
<polygon fill="#191970" stroke="#191970" points="486.5528,-252.1185 492.8587,-243.6046 482.6199,-246.3278 486.5528,-252.1185"/>
</g>
<!-- Node13 -->
<g id="node13" class="node">
<title>Node13</title>
<g id="a_node13"><a xlink:href="maptile_8h.html" target="_top" xlink:title=" ">
<polygon fill="#ffffff" stroke="#000000" points="759,-168.5 759,-187.5 815,-187.5 815,-168.5 759,-168.5"/>
<text text-anchor="middle" x="787" y="-175.5" font-family="Helvetica,sans-Serif" font-size="10.00" fill="#000000">maptile.h</text>
</a>
</g>
</g>
<!-- Node1&#45;&gt;Node13 -->
<g id="edge39" class="edge">
<title>Node1&#45;&gt;Node13</title>
<path fill="none" stroke="#191970" d="M373.4083,-336.4065C460.9057,-302.8948 670.1519,-222.7531 752.6867,-191.1421"/>
<polygon fill="#191970" stroke="#191970" points="754.0205,-194.3792 762.1071,-187.534 751.5168,-187.8423 754.0205,-194.3792"/>
</g>
<!-- Node23 -->
<g id="node23" class="node">
<title>Node23</title>
<g id="a_node23"><a xlink:href="datamodel_8h.html" target="_top" xlink:title=" ">
<polygon fill="#ffffff" stroke="#000000" points="833.5,-168.5 833.5,-187.5 906.5,-187.5 906.5,-168.5 833.5,-168.5"/>
<text text-anchor="middle" x="870" y="-175.5" font-family="Helvetica,sans-Serif" font-size="10.00" fill="#000000">datamodel.h</text>
</a>
</g>
</g>
<!-- Node1&#45;&gt;Node23 -->
<g id="edge40" class="edge">
<title>Node1&#45;&gt;Node23</title>
<path fill="none" stroke="#191970" d="M386.6939,-336.4582C421.2806,-326.4489 467.4509,-312.8287 508,-300 627.4404,-262.2119 767.7093,-213.7662 833.0398,-190.9644"/>
<polygon fill="#191970" stroke="#191970" points="834.5811,-194.1334 842.8669,-187.5306 832.272,-187.5252 834.5811,-194.1334"/>
</g>
<!-- Node30 -->
<g id="node30" class="node">
<title>Node30</title>
<g id="a_node30"><a xlink:href="view_8h.html" target="_top" xlink:title=" ">
<polygon fill="#ffffff" stroke="#000000" points="821.5,-280.5 821.5,-299.5 866.5,-299.5 866.5,-280.5 821.5,-280.5"/>
<text text-anchor="middle" x="844" y="-287.5" font-family="Helvetica,sans-Serif" font-size="10.00" fill="#000000">view.h</text>
</a>
</g>
</g>
<!-- Node1&#45;&gt;Node30 -->
<g id="edge41" class="edge">
<title>Node1&#45;&gt;Node30</title>
<path fill="none" stroke="#191970" d="M391.5727,-346.0069C477.5928,-337.5584 644.6825,-320.2163 786,-300 794.2501,-298.8198 803.1306,-297.3765 811.4024,-295.9576"/>
<polygon fill="#191970" stroke="#191970" points="812.2155,-299.3686 821.4613,-294.1951 811.0072,-292.4736 812.2155,-299.3686"/>
</g>
<!-- Node8 -->
<g id="node8" class="node">
<title>Node8</title>
<g id="a_node8"><a xlink:title=" ">
<polygon fill="#ffffff" stroke="#bfbfbf" points="647,-168.5 647,-187.5 741,-187.5 741,-168.5 647,-168.5"/>
<text text-anchor="middle" x="694" y="-175.5" font-family="Helvetica,sans-Serif" font-size="10.00" fill="#000000">QGraphicsScene</text>
</a>
</g>
</g>
<!-- Node7&#45;&gt;Node8 -->
<g id="edge7" class="edge">
<title>Node7&#45;&gt;Node8</title>
<path fill="none" stroke="#191970" d="M533.0015,-226.2134C563.8235,-216.9833 615.5993,-201.4783 652.1,-190.5476"/>
<polygon fill="#191970" stroke="#191970" points="653.3843,-193.8166 661.9599,-187.5949 651.3761,-187.1109 653.3843,-193.8166"/>
</g>
<!-- Node9 -->
<g id="node9" class="node">
<title>Node9</title>
<g id="a_node9"><a xlink:title=" ">
<polygon fill="#ffffff" stroke="#bfbfbf" points="216,-168.5 216,-187.5 320,-187.5 320,-168.5 216,-168.5"/>
<text text-anchor="middle" x="268" y="-175.5" font-family="Helvetica,sans-Serif" font-size="10.00" fill="#000000">QGraphicsTextItem</text>
</a>
</g>
</g>
<!-- Node7&#45;&gt;Node9 -->
<g id="edge8" class="edge">
<title>Node7&#45;&gt;Node9</title>
<path fill="none" stroke="#191970" d="M480.9678,-227.9004C442.1451,-218.8039 368.3309,-201.5085 318.6363,-189.8646"/>
<polygon fill="#191970" stroke="#191970" points="319.263,-186.4167 308.7282,-187.543 317.666,-193.2321 319.263,-186.4167"/>
</g>
<!-- Node10 -->
<g id="node10" class="node">
<title>Node10</title>
<g id="a_node10"><a xlink:title=" ">
<polygon fill="#ffffff" stroke="#bfbfbf" points="338.5,-168.5 338.5,-187.5 421.5,-187.5 421.5,-168.5 338.5,-168.5"/>
<text text-anchor="middle" x="380" y="-175.5" font-family="Helvetica,sans-Serif" font-size="10.00" fill="#000000">QGraphicsItem</text>
</a>
</g>
</g>
<!-- Node7&#45;&gt;Node10 -->
<g id="edge9" class="edge">
<title>Node7&#45;&gt;Node10</title>
<path fill="none" stroke="#191970" d="M485.1679,-224.3733C464.6897,-215.3435 433.8601,-201.7494 410.8681,-191.6111"/>
<polygon fill="#191970" stroke="#191970" points="412.1093,-188.3333 401.5472,-187.5011 409.285,-194.7383 412.1093,-188.3333"/>
</g>
<!-- Node11 -->
<g id="node11" class="node">
<title>Node11</title>
<g id="a_node11"><a xlink:title=" ">
<polygon fill="#ffffff" stroke="#bfbfbf" points="111,-.5 111,-19.5 215,-19.5 215,-.5 111,-.5"/>
<text text-anchor="middle" x="163" y="-7.5" font-family="Helvetica,sans-Serif" font-size="10.00" fill="#000000">QGraphicsRectItem</text>
</a>
</g>
</g>
<!-- Node7&#45;&gt;Node11 -->
<g id="edge10" class="edge">
<title>Node7&#45;&gt;Node11</title>
<path fill="none" stroke="#191970" d="M480.7459,-231.8641C409.0659,-225.7979 213.9625,-207.63 193,-188 148.8444,-146.6512 154.2212,-66.4553 159.5378,-29.5051"/>
<polygon fill="#191970" stroke="#191970" points="163.012,-29.9436 161.1309,-19.5171 156.0994,-28.8409 163.012,-29.9436"/>
</g>
<!-- Node12 -->
<g id="node12" class="node">
<title>Node12</title>
<g id="a_node12"><a xlink:title=" ">
<polygon fill="#ffffff" stroke="#bfbfbf" points="439.5,-168.5 439.5,-187.5 552.5,-187.5 552.5,-168.5 439.5,-168.5"/>
<text text-anchor="middle" x="496" y="-175.5" font-family="Helvetica,sans-Serif" font-size="10.00" fill="#000000">QGraphicsEllipseItem</text>
</a>
</g>
</g>
<!-- Node7&#45;&gt;Node12 -->
<g id="edge11" class="edge">
<title>Node7&#45;&gt;Node12</title>
<path fill="none" stroke="#191970" d="M505.0839,-224.2455C503.6486,-216.9382 501.6364,-206.6944 499.8705,-197.7046"/>
<polygon fill="#191970" stroke="#191970" points="503.256,-196.7805 497.8941,-187.6427 496.3873,-198.1298 503.256,-196.7805"/>
</g>
<!-- Node7&#45;&gt;Node13 -->
<g id="edge12" class="edge">
<title>Node7&#45;&gt;Node13</title>
<path fill="none" stroke="#191970" d="M533.0298,-229.7489C575.9527,-222.5939 664.4527,-207.232 748.7805,-188.1519"/>
<polygon fill="#191970" stroke="#191970" points="749.8053,-191.508 758.7744,-185.8683 748.2459,-184.6839 749.8053,-191.508"/>
</g>
<!-- Node18 -->
<g id="node18" class="node">
<title>Node18</title>
<g id="a_node18"><a xlink:href="graphicsmanager_8h.html" target="_top" xlink:title=" ">
<polygon fill="#ffffff" stroke="#000000" points="560.5,-112.5 560.5,-131.5 663.5,-131.5 663.5,-112.5 560.5,-112.5"/>
<text text-anchor="middle" x="612" y="-119.5" font-family="Helvetica,sans-Serif" font-size="10.00" fill="#000000">graphicsmanager.h</text>
</a>
</g>
</g>
<!-- Node7&#45;&gt;Node18 -->
<g id="edge21" class="edge">
<title>Node7&#45;&gt;Node18</title>
<path fill="none" stroke="#191970" d="M527.0624,-224.3494C542.2335,-216.2791 562.8054,-203.5924 577,-188 589.3845,-174.396 598.7901,-155.6052 604.7158,-141.5519"/>
<polygon fill="#191970" stroke="#191970" points="608.1141,-142.4784 608.5607,-131.893 601.6104,-139.8895 608.1141,-142.4784"/>
</g>
<!-- Node21 -->
<g id="node21" class="node">
<title>Node21</title>
<g id="a_node21"><a xlink:href="player_8h.html" target="_top" xlink:title=" ">
<polygon fill="#ffffff" stroke="#000000" points="490,-112.5 490,-131.5 542,-131.5 542,-112.5 490,-112.5"/>
<text text-anchor="middle" x="516" y="-119.5" font-family="Helvetica,sans-Serif" font-size="10.00" fill="#000000">player.h</text>
</a>
</g>
</g>
<!-- Node7&#45;&gt;Node21 -->
<g id="edge22" class="edge">
<title>Node7&#45;&gt;Node21</title>
<path fill="none" stroke="#191970" d="M524.9599,-224.3701C537.6324,-216.4681 553.6167,-203.9885 561,-188 569.4379,-169.7279 553.8473,-150.9621 538.7599,-138.1345"/>
<polygon fill="#191970" stroke="#191970" points="540.5976,-135.1252 530.5855,-131.6598 536.2513,-140.6124 540.5976,-135.1252"/>
</g>
<!-- Node22 -->
<g id="node22" class="node">
<title>Node22</title>
<g id="a_node22"><a xlink:href="highlighter_8h.html" target="_top" xlink:title=" ">
<polygon fill="#ffffff" stroke="#000000" points="178,-56.5 178,-75.5 248,-75.5 248,-56.5 178,-56.5"/>
<text text-anchor="middle" x="213" y="-63.5" font-family="Helvetica,sans-Serif" font-size="10.00" fill="#000000">highlighter.h</text>
</a>
</g>
</g>
<!-- Node7&#45;&gt;Node22 -->
<g id="edge25" class="edge">
<title>Node7&#45;&gt;Node22</title>
<path fill="none" stroke="#191970" d="M480.9457,-231.9268C411.2901,-226.1221 224.8247,-208.7661 207,-188 182.3693,-159.3047 194.9653,-111.3877 204.876,-84.9526"/>
<polygon fill="#191970" stroke="#191970" points="208.1302,-86.2411 208.5875,-75.6561 201.6291,-83.6456 208.1302,-86.2411"/>
</g>
<!-- Node7&#45;&gt;Node23 -->
<g id="edge26" class="edge">
<title>Node7&#45;&gt;Node23</title>
<path fill="none" stroke="#191970" d="M533.4025,-230.8035C586.3613,-224.2562 709.5073,-208.3506 823.4504,-187.9922"/>
<polygon fill="#191970" stroke="#191970" points="824.1674,-191.4195 833.3879,-186.2009 822.9256,-184.5305 824.1674,-191.4195"/>
</g>
<!-- Node14 -->
<g id="node14" class="node">
<title>Node14</title>
<g id="a_node14"><a xlink:title=" ">
<polygon fill="#ffffff" stroke="#bfbfbf" points="760.5,-.5 760.5,-19.5 877.5,-19.5 877.5,-.5 760.5,-.5"/>
<text text-anchor="middle" x="819" y="-7.5" font-family="Helvetica,sans-Serif" font-size="10.00" fill="#000000">QGraphicsPixmapItem</text>
</a>
</g>
</g>
<!-- Node13&#45;&gt;Node14 -->
<g id="edge13" class="edge">
<title>Node13&#45;&gt;Node14</title>
<path fill="none" stroke="#191970" d="M788.8121,-168.4862C793.8925,-141.8144 808.3501,-65.9117 815.2486,-29.695"/>
<polygon fill="#191970" stroke="#191970" points="818.695,-30.3062 817.128,-19.8279 811.8186,-28.9963 818.695,-30.3062"/>
</g>
<!-- Node15 -->
<g id="node15" class="node">
<title>Node15</title>
<g id="a_node15"><a xlink:href="city_8h.html" target="_top" xlink:title=" ">
<polygon fill="#ffffff" stroke="#000000" points="720.5,-112.5 720.5,-131.5 759.5,-131.5 759.5,-112.5 720.5,-112.5"/>
<text text-anchor="middle" x="740" y="-119.5" font-family="Helvetica,sans-Serif" font-size="10.00" fill="#000000">city.h</text>
</a>
</g>
</g>
<!-- Node13&#45;&gt;Node15 -->
<g id="edge14" class="edge">
<title>Node13&#45;&gt;Node15</title>
<path fill="none" stroke="#191970" d="M778.8132,-168.2455C772.1411,-160.2958 762.5521,-148.8706 754.5747,-139.3656"/>
<polygon fill="#191970" stroke="#191970" points="757.2026,-137.0524 748.093,-131.6427 751.8408,-141.5525 757.2026,-137.0524"/>
</g>
<!-- Node13&#45;&gt;Node18 -->
<g id="edge17" class="edge">
<title>Node13&#45;&gt;Node18</title>
<path fill="none" stroke="#191970" d="M758.8832,-169.0026C729.8133,-159.7002 684.1861,-145.0995 651.4999,-134.64"/>
<polygon fill="#191970" stroke="#191970" points="652.3951,-131.2516 641.8041,-131.5373 650.2616,-137.9186 652.3951,-131.2516"/>
</g>
<!-- Node16 -->
<g id="node16" class="node">
<title>Node16</title>
<g id="a_node16"><a xlink:title=" ">
<polygon fill="#ffffff" stroke="#bfbfbf" points="656.5,-56.5 656.5,-75.5 697.5,-75.5 697.5,-56.5 656.5,-56.5"/>
<text text-anchor="middle" x="677" y="-63.5" font-family="Helvetica,sans-Serif" font-size="10.00" fill="#000000">string</text>
</a>
</g>
</g>
<!-- Node15&#45;&gt;Node16 -->
<g id="edge15" class="edge">
<title>Node15&#45;&gt;Node16</title>
<path fill="none" stroke="#191970" d="M729.0262,-112.2455C719.8118,-104.0549 706.4468,-92.1749 695.5703,-82.5069"/>
<polygon fill="#191970" stroke="#191970" points="697.6474,-79.6704 687.848,-75.6427 692.9968,-84.9023 697.6474,-79.6704"/>
</g>
<!-- Node17 -->
<g id="node17" class="node">
<title>Node17</title>
<g id="a_node17"><a xlink:title=" ">
<polygon fill="#ffffff" stroke="#bfbfbf" points="716,-56.5 716,-75.5 760,-75.5 760,-56.5 716,-56.5"/>
<text text-anchor="middle" x="738" y="-63.5" font-family="Helvetica,sans-Serif" font-size="10.00" fill="#000000">vector</text>
</a>
</g>
</g>
<!-- Node15&#45;&gt;Node17 -->
<g id="edge16" class="edge">
<title>Node15&#45;&gt;Node17</title>
<path fill="none" stroke="#191970" d="M739.6516,-112.2455C739.3907,-104.9382 739.0248,-94.6944 738.7037,-85.7046"/>
<polygon fill="#191970" stroke="#191970" points="742.1992,-85.5113 738.3444,-75.6427 735.2036,-85.7613 742.1992,-85.5113"/>
</g>
<!-- Node18&#45;&gt;Node16 -->
<g id="edge20" class="edge">
<title>Node18&#45;&gt;Node16</title>
<path fill="none" stroke="#191970" d="M623.3221,-112.2455C632.9223,-103.9746 646.8892,-91.9416 658.1695,-82.2232"/>
<polygon fill="#191970" stroke="#191970" points="660.516,-84.8214 665.8076,-75.6427 655.947,-79.5182 660.516,-84.8214"/>
</g>
<!-- Node19 -->
<g id="node19" class="node">
<title>Node19</title>
<g id="a_node19"><a xlink:title=" ">
<polygon fill="#ffffff" stroke="#bfbfbf" points="509,-56.5 509,-75.5 567,-75.5 567,-56.5 509,-56.5"/>
<text text-anchor="middle" x="538" y="-63.5" font-family="Helvetica,sans-Serif" font-size="10.00" fill="#000000">QPixmap</text>
</a>
</g>
</g>
<!-- Node18&#45;&gt;Node19 -->
<g id="edge18" class="edge">
<title>Node18&#45;&gt;Node19</title>
<path fill="none" stroke="#191970" d="M599.1102,-112.2455C588.0746,-103.8943 571.9708,-91.7076 559.0647,-81.9408"/>
<polygon fill="#191970" stroke="#191970" points="560.8283,-78.8862 550.7421,-75.6427 556.6041,-84.4681 560.8283,-78.8862"/>
</g>
<!-- Node20 -->
<g id="node20" class="node">
<title>Node20</title>
<g id="a_node20"><a xlink:title=" ">
<polygon fill="#ffffff" stroke="#bfbfbf" points="585.5,-56.5 585.5,-75.5 638.5,-75.5 638.5,-56.5 585.5,-56.5"/>
<text text-anchor="middle" x="612" y="-63.5" font-family="Helvetica,sans-Serif" font-size="10.00" fill="#000000">QImage</text>
</a>
</g>
</g>
<!-- Node18&#45;&gt;Node20 -->
<g id="edge19" class="edge">
<title>Node18&#45;&gt;Node20</title>
<path fill="none" stroke="#191970" d="M612,-112.2455C612,-104.9382 612,-94.6944 612,-85.7046"/>
<polygon fill="#191970" stroke="#191970" points="615.5001,-85.6426 612,-75.6427 608.5001,-85.6427 615.5001,-85.6426"/>
</g>
<!-- Node21&#45;&gt;Node22 -->
<g id="edge23" class="edge">
<title>Node21&#45;&gt;Node22</title>
<path fill="none" stroke="#191970" d="M489.9041,-117.177C438.262,-107.6326 322.4819,-86.2343 258.1924,-74.3524"/>
<polygon fill="#191970" stroke="#191970" points="258.8037,-70.9062 248.3341,-72.5304 257.5315,-77.7896 258.8037,-70.9062"/>
</g>
<!-- Node22&#45;&gt;Node11 -->
<g id="edge24" class="edge">
<title>Node22&#45;&gt;Node11</title>
<path fill="none" stroke="#191970" d="M204.2907,-56.2455C197.1927,-48.2958 186.9916,-36.8706 178.505,-27.3656"/>
<polygon fill="#191970" stroke="#191970" points="180.8805,-24.771 171.6095,-19.6427 175.6589,-29.4331 180.8805,-24.771"/>
</g>
<!-- Node23&#45;&gt;Node16 -->
<g id="edge27" class="edge">
<title>Node23&#45;&gt;Node16</title>
<path fill="none" stroke="#191970" d="M833.2072,-168.8973C789.5759,-157.8548 721.5272,-139.7557 712,-132 697.2692,-120.0083 687.9381,-100.1367 682.6497,-85.3257"/>
<polygon fill="#191970" stroke="#191970" points="685.9147,-84.0481 679.4939,-75.6205 679.2578,-86.2127 685.9147,-84.0481"/>
</g>
<!-- Node23&#45;&gt;Node21 -->
<g id="edge30" class="edge">
<title>Node23&#45;&gt;Node21</title>
<path fill="none" stroke="#191970" d="M833.3955,-169.7558C830.2242,-169.1287 827.0595,-168.5333 824,-168 706.6134,-147.5371 672.6091,-156.3777 552.2424,-132.0086"/>
<polygon fill="#191970" stroke="#191970" points="552.7705,-128.544 542.27,-129.9545 551.3582,-135.4001 552.7705,-128.544"/>
</g>
<!-- Node24 -->
<g id="node24" class="node">
<title>Node24</title>
<g id="a_node24"><a xlink:title=" ">
<polygon fill="#ffffff" stroke="#bfbfbf" points="1016.5,-112.5 1016.5,-131.5 1065.5,-131.5 1065.5,-112.5 1016.5,-112.5"/>
<text text-anchor="middle" x="1041" y="-119.5" font-family="Helvetica,sans-Serif" font-size="10.00" fill="#000000">QLabel</text>
</a>
</g>
</g>
<!-- Node23&#45;&gt;Node24 -->
<g id="edge28" class="edge">
<title>Node23&#45;&gt;Node24</title>
<path fill="none" stroke="#191970" d="M899.3959,-168.3733C929.2093,-158.6098 975.3171,-143.5102 1006.7613,-133.2127"/>
<polygon fill="#191970" stroke="#191970" points="1008.0019,-136.4894 1016.416,-130.0509 1005.8233,-129.837 1008.0019,-136.4894"/>
</g>
<!-- Node25 -->
<g id="node25" class="node">
<title>Node25</title>
<g id="a_node25"><a xlink:title=" ">
<polygon fill="#ffffff" stroke="#bfbfbf" points="942,-112.5 942,-131.5 998,-131.5 998,-112.5 942,-112.5"/>
<text text-anchor="middle" x="970" y="-119.5" font-family="Helvetica,sans-Serif" font-size="10.00" fill="#000000">QWidget</text>
</a>
</g>
</g>
<!-- Node23&#45;&gt;Node25 -->
<g id="edge29" class="edge">
<title>Node23&#45;&gt;Node25</title>
<path fill="none" stroke="#191970" d="M887.4187,-168.2455C903.0485,-159.4928 926.2019,-146.527 944.0185,-136.5496"/>
<polygon fill="#191970" stroke="#191970" points="945.766,-139.5825 952.7809,-131.6427 942.3457,-133.475 945.766,-139.5825"/>
</g>
<!-- Node26 -->
<g id="node26" class="node">
<title>Node26</title>
<g id="a_node26"><a xlink:href="animationmanager_8h.html" target="_top" xlink:title=" ">
<polygon fill="#ffffff" stroke="#000000" points="816,-112.5 816,-131.5 924,-131.5 924,-112.5 816,-112.5"/>
<text text-anchor="middle" x="870" y="-119.5" font-family="Helvetica,sans-Serif" font-size="10.00" fill="#000000">animationmanager.h</text>
</a>
</g>
</g>
<!-- Node23&#45;&gt;Node26 -->
<g id="edge31" class="edge">
<title>Node23&#45;&gt;Node26</title>
<path fill="none" stroke="#191970" d="M870,-168.2455C870,-160.9382 870,-150.6944 870,-141.7046"/>
<polygon fill="#191970" stroke="#191970" points="873.5001,-141.6426 870,-131.6427 866.5001,-141.6427 873.5001,-141.6426"/>
</g>
<!-- Node26&#45;&gt;Node14 -->
<g id="edge38" class="edge">
<title>Node26&#45;&gt;Node14</title>
<path fill="none" stroke="#191970" d="M864.5831,-112.261C859.5345,-103.0391 851.9166,-88.7457 846,-76 838.761,-60.4055 831.4303,-42.3076 826.2378,-29.0116"/>
<polygon fill="#191970" stroke="#191970" points="829.4397,-27.5872 822.5744,-19.5176 822.909,-30.1071 829.4397,-27.5872"/>
</g>
<!-- Node27 -->
<g id="node27" class="node">
<title>Node27</title>
<g id="a_node27"><a xlink:href="animationmovement_8h.html" target="_top" xlink:title=" ">
<polygon fill="#ffffff" stroke="#000000" points="854.5,-56.5 854.5,-75.5 969.5,-75.5 969.5,-56.5 854.5,-56.5"/>
<text text-anchor="middle" x="912" y="-63.5" font-family="Helvetica,sans-Serif" font-size="10.00" fill="#000000">animationmovement.h</text>
</a>
</g>
</g>
<!-- Node26&#45;&gt;Node27 -->
<g id="edge32" class="edge">
<title>Node26&#45;&gt;Node27</title>
<path fill="none" stroke="#191970" d="M877.3158,-112.2455C883.2179,-104.3761 891.6742,-93.101 898.7594,-83.6542"/>
<polygon fill="#191970" stroke="#191970" points="901.568,-85.7427 904.768,-75.6427 895.9679,-81.5427 901.568,-85.7427"/>
</g>
<!-- Node29 -->
<g id="node29" class="node">
<title>Node29</title>
<g id="a_node29"><a xlink:title=" ">
<polygon fill="#ffffff" stroke="#bfbfbf" points="971.5,-.5 971.5,-19.5 1010.5,-19.5 1010.5,-.5 971.5,-.5"/>
<text text-anchor="middle" x="991" y="-7.5" font-family="Helvetica,sans-Serif" font-size="10.00" fill="#000000">QList</text>
</a>
</g>
</g>
<!-- Node26&#45;&gt;Node29 -->
<g id="edge37" class="edge">
<title>Node26&#45;&gt;Node29</title>
<path fill="none" stroke="#191970" d="M918.7722,-112.4557C940.3219,-105.7792 964.099,-94.5915 979,-76 989.345,-63.0929 991.9048,-44.1921 992.1336,-29.9212"/>
<polygon fill="#191970" stroke="#191970" points="995.6277,-29.5974 991.9216,-19.6719 988.6292,-29.7422 995.6277,-29.5974"/>
</g>
<!-- Node27&#45;&gt;Node6 -->
<g id="edge35" class="edge">
<title>Node27&#45;&gt;Node6</title>
<path fill="none" stroke="#191970" d="M854.3445,-58.3309C765.6975,-46.5393 598.5869,-24.3108 526.0621,-14.6638"/>
<polygon fill="#191970" stroke="#191970" points="526.4428,-11.1837 516.0686,-13.3345 525.5198,-18.1226 526.4428,-11.1837"/>
</g>
<!-- Node27&#45;&gt;Node14 -->
<g id="edge36" class="edge">
<title>Node27&#45;&gt;Node14</title>
<path fill="none" stroke="#191970" d="M895.8006,-56.2455C881.3982,-47.5731 860.1268,-34.7645 843.6201,-24.825"/>
<polygon fill="#191970" stroke="#191970" points="845.386,-21.8028 835.0137,-19.6427 841.775,-27.7996 845.386,-21.8028"/>
</g>
<!-- Node28 -->
<g id="node28" class="node">
<title>Node28</title>
<g id="a_node28"><a xlink:href="point_8h.html" target="_top" xlink:title=" ">
<polygon fill="#ffffff" stroke="#000000" points="895.5,-.5 895.5,-19.5 940.5,-19.5 940.5,-.5 895.5,-.5"/>
<text text-anchor="middle" x="918" y="-7.5" font-family="Helvetica,sans-Serif" font-size="10.00" fill="#000000">point.h</text>
</a>
</g>
</g>
<!-- Node27&#45;&gt;Node28 -->
<g id="edge33" class="edge">
<title>Node27&#45;&gt;Node28</title>
<path fill="none" stroke="#191970" d="M913.0451,-56.2455C913.828,-48.9382 914.9256,-38.6944 915.8888,-29.7046"/>
<polygon fill="#191970" stroke="#191970" points="919.3815,-29.9587 916.9669,-19.6427 912.4214,-29.2129 919.3815,-29.9587"/>
</g>
<!-- Node27&#45;&gt;Node29 -->
<g id="edge34" class="edge">
<title>Node27&#45;&gt;Node29</title>
<path fill="none" stroke="#191970" d="M925.7607,-56.2455C937.6552,-47.814 955.065,-35.4729 968.9085,-25.6598"/>
<polygon fill="#191970" stroke="#191970" points="971.2628,-28.2811 977.3969,-19.6427 967.2146,-22.5704 971.2628,-28.2811"/>
</g>
<!-- Node30&#45;&gt;Node7 -->
<g id="edge43" class="edge">
<title>Node30&#45;&gt;Node7</title>
<path fill="none" stroke="#191970" d="M821.3652,-286.2387C764.0937,-276.7218 613.0355,-251.6201 543.2678,-240.0267"/>
<polygon fill="#191970" stroke="#191970" points="543.6281,-236.5387 533.1896,-238.352 542.4806,-243.444 543.6281,-236.5387"/>
</g>
<!-- Node30&#45;&gt;Node23 -->
<g id="edge44" class="edge">
<title>Node30&#45;&gt;Node23</title>
<path fill="none" stroke="#191970" d="M846.2167,-280.4509C850.4765,-262.1013 859.8807,-221.5908 865.5035,-197.3693"/>
<polygon fill="#191970" stroke="#191970" points="868.9368,-198.0573 867.7889,-187.5249 862.1182,-196.4744 868.9368,-198.0573"/>
</g>
<!-- Node31 -->
<g id="node31" class="node">
<title>Node31</title>
<g id="a_node31"><a xlink:title=" ">
<polygon fill="#ffffff" stroke="#bfbfbf" points="872.5,-224.5 872.5,-243.5 959.5,-243.5 959.5,-224.5 872.5,-224.5"/>
<text text-anchor="middle" x="916" y="-231.5" font-family="Helvetica,sans-Serif" font-size="10.00" fill="#000000">QGraphicsView</text>
</a>
</g>
</g>
<!-- Node30&#45;&gt;Node31 -->
<g id="edge42" class="edge">
<title>Node30&#45;&gt;Node31</title>
<path fill="none" stroke="#191970" d="M856.5414,-280.2455C867.2787,-271.8943 882.9473,-259.7076 895.5047,-249.9408"/>
<polygon fill="#191970" stroke="#191970" points="897.8575,-252.5449 903.6023,-243.6427 893.5599,-247.0194 897.8575,-252.5449"/>
</g>
<!-- Node32 -->
<g id="node32" class="node">
<title>Node32</title>
<g id="a_node32"><a xlink:href="tooltipmenu_8h.html" target="_top" xlink:title=" ">
<polygon fill="#ffffff" stroke="#000000" points="1003.5,-168.5 1003.5,-187.5 1078.5,-187.5 1078.5,-168.5 1003.5,-168.5"/>
<text text-anchor="middle" x="1041" y="-175.5" font-family="Helvetica,sans-Serif" font-size="10.00" fill="#000000">tooltipmenu.h</text>
</a>
</g>
</g>
<!-- Node30&#45;&gt;Node32 -->
<g id="edge45" class="edge">
<title>Node30&#45;&gt;Node32</title>
<path fill="none" stroke="#191970" d="M866.8622,-284.4729C892.8766,-277.5479 936.023,-264.0953 969,-244 990.9921,-230.5986 1012.2311,-209.869 1025.8703,-195.2229"/>
<polygon fill="#191970" stroke="#191970" points="1028.4843,-197.5507 1032.6223,-187.7973 1023.3052,-192.8414 1028.4843,-197.5507"/>
</g>
<!-- Node32&#45;&gt;Node24 -->
<g id="edge47" class="edge">
<title>Node32&#45;&gt;Node24</title>
<path fill="none" stroke="#191970" d="M1041,-168.2455C1041,-160.9382 1041,-150.6944 1041,-141.7046"/>
<polygon fill="#191970" stroke="#191970" points="1044.5001,-141.6426 1041,-131.6427 1037.5001,-141.6427 1044.5001,-141.6426"/>
</g>
<!-- Node32&#45;&gt;Node25 -->
<g id="edge46" class="edge">
<title>Node32&#45;&gt;Node25</title>
<path fill="none" stroke="#191970" d="M1028.6327,-168.2455C1018.0446,-159.8943 1002.5936,-147.7076 990.2107,-137.9408"/>
<polygon fill="#191970" stroke="#191970" points="992.2447,-135.0875 982.2255,-131.6427 987.9097,-140.5837 992.2447,-135.0875"/>
</g>
<!-- Node33 -->
<g id="node33" class="node">
<title>Node33</title>
<g id="a_node33"><a xlink:title=" ">
<polygon fill="#ffffff" stroke="#bfbfbf" points="1176,-112.5 1176,-131.5 1246,-131.5 1246,-112.5 1176,-112.5"/>
<text text-anchor="middle" x="1211" y="-119.5" font-family="Helvetica,sans-Serif" font-size="10.00" fill="#000000">QGroupBox</text>
</a>
</g>
</g>
<!-- Node32&#45;&gt;Node33 -->
<g id="edge48" class="edge">
<title>Node32&#45;&gt;Node33</title>
<path fill="none" stroke="#191970" d="M1070.224,-168.3733C1098.4925,-159.0613 1141.4965,-144.8953 1172.5344,-134.671"/>
<polygon fill="#191970" stroke="#191970" points="1173.7544,-137.9542 1182.1573,-131.5011 1171.5643,-131.3056 1173.7544,-137.9542"/>
</g>
<!-- Node34 -->
<g id="node34" class="node">
<title>Node34</title>
<g id="a_node34"><a xlink:title=" ">
<polygon fill="#ffffff" stroke="#bfbfbf" points="1084,-112.5 1084,-131.5 1158,-131.5 1158,-112.5 1084,-112.5"/>
<text text-anchor="middle" x="1121" y="-119.5" font-family="Helvetica,sans-Serif" font-size="10.00" fill="#000000">QGridLayout</text>
</a>
</g>
</g>
<!-- Node32&#45;&gt;Node34 -->
<g id="edge49" class="edge">
<title>Node32&#45;&gt;Node34</title>
<path fill="none" stroke="#191970" d="M1054.9349,-168.2455C1067.0947,-159.7337 1084.9464,-147.2375 1099.0285,-137.3801"/>
<polygon fill="#191970" stroke="#191970" points="1101.0395,-140.2447 1107.2248,-131.6427 1097.0253,-134.51 1101.0395,-140.2447"/>
</g>
</g>
</svg>
