<?xml version="1.0" encoding="UTF-8" standalone="no"?>
<!DOCTYPE svg PUBLIC "-//W3C//DTD SVG 1.1//EN"
 "http://www.w3.org/Graphics/SVG/1.1/DTD/svg11.dtd">
<!-- Generated by graphviz version 2.40.1 (20161225.0304)
 -->
<!-- Title: src/application_server/client.h Pages: 1 -->
<svg width="2005pt" height="375pt"
 viewBox="0.00 0.00 2005.26 375.00" xmlns="http://www.w3.org/2000/svg" xmlns:xlink="http://www.w3.org/1999/xlink">
<g id="graph0" class="graph" transform="scale(1 1) rotate(0) translate(4 371)">
<title>src/application_server/client.h</title>
<polygon fill="#ffffff" stroke="transparent" points="-4,4 -4,-371 2001.2622,-371 2001.2622,4 -4,4"/>
<!-- Node1 -->
<g id="node1" class="node">
<title>Node1</title>
<g id="a_node1"><a xlink:title=" ">
<polygon fill="#bfbfbf" stroke="#000000" points="800.7622,-336.5 800.7622,-366.5 915.7622,-366.5 915.7622,-336.5 800.7622,-336.5"/>
<text text-anchor="start" x="808.7622" y="-354.5" font-family="Helvetica,sans-Serif" font-size="10.00" fill="#000000">src/application_server</text>
<text text-anchor="middle" x="858.2622" y="-343.5" font-family="Helvetica,sans-Serif" font-size="10.00" fill="#000000">/client.h</text>
</a>
</g>
</g>
<!-- Node2 -->
<g id="node2" class="node">
<title>Node2</title>
<g id="a_node2"><a xlink:title=" ">
<polygon fill="#ffffff" stroke="#bfbfbf" points="507.2622,-280.5 507.2622,-299.5 581.2622,-299.5 581.2622,-280.5 507.2622,-280.5"/>
<text text-anchor="middle" x="544.2622" y="-287.5" font-family="Helvetica,sans-Serif" font-size="10.00" fill="#000000">QTcpSocket</text>
</a>
</g>
</g>
<!-- Node1&#45;&gt;Node2 -->
<g id="edge1" class="edge">
<title>Node1&#45;&gt;Node2</title>
<path fill="none" stroke="#191970" d="M800.542,-340.2017C747.2558,-329.7703 665.9189,-313.845 595.2622,-300 593.9921,-299.7511 592.7043,-299.4988 591.4047,-299.2441"/>
<polygon fill="#191970" stroke="#191970" points="591.7957,-295.7542 581.3092,-297.2653 590.4492,-302.6235 591.7957,-295.7542"/>
</g>
<!-- Node3 -->
<g id="node3" class="node">
<title>Node3</title>
<g id="a_node3"><a xlink:title=" ">
<polygon fill="#ffffff" stroke="#bfbfbf" points="1035.7622,-112.5 1035.7622,-131.5 1088.7622,-131.5 1088.7622,-112.5 1035.7622,-112.5"/>
<text text-anchor="middle" x="1062.2622" y="-119.5" font-family="Helvetica,sans-Serif" font-size="10.00" fill="#000000">QObject</text>
</a>
</g>
</g>
<!-- Node1&#45;&gt;Node3 -->
<g id="edge2" class="edge">
<title>Node1&#45;&gt;Node3</title>
<path fill="none" stroke="#191970" d="M869.8702,-336.1367C894.549,-303.8104 954.6169,-226.8923 1011.2622,-168 1021.207,-157.6607 1033.0687,-146.8797 1042.8491,-138.3557"/>
<polygon fill="#191970" stroke="#191970" points="1045.1884,-140.9602 1050.4873,-131.7857 1040.6236,-135.6533 1045.1884,-140.9602"/>
</g>
<!-- Node4 -->
<g id="node4" class="node">
<title>Node4</title>
<g id="a_node4"><a xlink:title=" ">
<polygon fill="#ffffff" stroke="#bfbfbf" points="1621.2622,-168.5 1621.2622,-187.5 1679.2622,-187.5 1679.2622,-168.5 1621.2622,-168.5"/>
<text text-anchor="middle" x="1650.2622" y="-175.5" font-family="Helvetica,sans-Serif" font-size="10.00" fill="#000000">QThread</text>
</a>
</g>
</g>
<!-- Node1&#45;&gt;Node4 -->
<g id="edge3" class="edge">
<title>Node1&#45;&gt;Node4</title>
<path fill="none" stroke="#191970" d="M915.9042,-340.6582C968.8604,-330.5715 1049.477,-314.8979 1119.2622,-300 1303.8994,-260.5831 1523.4145,-208.4678 1611.1804,-187.4168"/>
<polygon fill="#191970" stroke="#191970" points="1612.0689,-190.803 1620.9754,-185.0651 1610.4346,-183.9964 1612.0689,-190.803"/>
</g>
<!-- Node5 -->
<g id="node5" class="node">
<title>Node5</title>
<g id="a_node5"><a xlink:title=" ">
<polygon fill="#ffffff" stroke="#bfbfbf" points="1805.7622,-280.5 1805.7622,-299.5 1870.7622,-299.5 1870.7622,-280.5 1805.7622,-280.5"/>
<text text-anchor="middle" x="1838.2622" y="-287.5" font-family="Helvetica,sans-Serif" font-size="10.00" fill="#000000">QStringList</text>
</a>
</g>
</g>
<!-- Node1&#45;&gt;Node5 -->
<g id="edge4" class="edge">
<title>Node1&#45;&gt;Node5</title>
<path fill="none" stroke="#191970" d="M915.8325,-349.7355C1089.3812,-344.2004 1606.615,-326.0668 1795.6018,-299.9659"/>
<polygon fill="#191970" stroke="#191970" points="1796.2944,-303.4025 1805.6957,-298.5172 1795.2998,-296.4735 1796.2944,-303.4025"/>
</g>
<!-- Node6 -->
<g id="node6" class="node">
<title>Node6</title>
<g id="a_node6"><a xlink:title=" ">
<polygon fill="#ffffff" stroke="#bfbfbf" points="891.2622,-112.5 891.2622,-131.5 941.2622,-131.5 941.2622,-112.5 891.2622,-112.5"/>
<text text-anchor="middle" x="916.2622" y="-119.5" font-family="Helvetica,sans-Serif" font-size="10.00" fill="#000000">QString</text>
</a>
</g>
</g>
<!-- Node1&#45;&gt;Node6 -->
<g id="edge5" class="edge">
<title>Node1&#45;&gt;Node6</title>
<path fill="none" stroke="#191970" d="M854.7628,-336.2955C848.0506,-303.6205 836.2926,-225.0478 863.2622,-168 869.1204,-155.6083 880.0651,-145.2242 890.4944,-137.4764"/>
<polygon fill="#191970" stroke="#191970" points="892.7665,-140.1611 899.0109,-131.602 888.7919,-134.3989 892.7665,-140.1611"/>
</g>
<!-- Node7 -->
<g id="node7" class="node">
<title>Node7</title>
<g id="a_node7"><a xlink:href="scene_8h.html" target="_top" xlink:title=" ">
<polygon fill="#ffffff" stroke="#000000" points="439.2622,-224.5 439.2622,-243.5 491.2622,-243.5 491.2622,-224.5 439.2622,-224.5"/>
<text text-anchor="middle" x="465.2622" y="-231.5" font-family="Helvetica,sans-Serif" font-size="10.00" fill="#000000">scene.h</text>
</a>
</g>
</g>
<!-- Node1&#45;&gt;Node7 -->
<g id="edge6" class="edge">
<title>Node1&#45;&gt;Node7</title>
<path fill="none" stroke="#191970" d="M800.3445,-342.896C753.093,-334.8483 685.1016,-320.9014 628.2622,-300 610.3496,-293.4131 607.7,-287.7569 590.2622,-280 560.7918,-266.8906 526.3268,-254.4106 501.0588,-245.766"/>
<polygon fill="#191970" stroke="#191970" points="502.11,-242.4268 491.5158,-242.5337 499.8644,-249.0568 502.11,-242.4268"/>
</g>
<!-- Node13 -->
<g id="node13" class="node">
<title>Node13</title>
<g id="a_node13"><a xlink:href="maptile_8h.html" target="_top" xlink:title=" ">
<polygon fill="#ffffff" stroke="#000000" points="1509.2622,-168.5 1509.2622,-187.5 1565.2622,-187.5 1565.2622,-168.5 1509.2622,-168.5"/>
<text text-anchor="middle" x="1537.2622" y="-175.5" font-family="Helvetica,sans-Serif" font-size="10.00" fill="#000000">maptile.h</text>
</a>
</g>
</g>
<!-- Node1&#45;&gt;Node13 -->
<g id="edge39" class="edge">
<title>Node1&#45;&gt;Node13</title>
<path fill="none" stroke="#191970" d="M915.8836,-337.125C1026.7149,-309.4102 1277.5091,-246.3797 1499.1278,-188.2742"/>
<polygon fill="#191970" stroke="#191970" points="1500.2074,-191.6095 1508.9918,-185.6862 1498.4309,-184.8387 1500.2074,-191.6095"/>
</g>
<!-- Node22 -->
<g id="node22" class="node">
<title>Node22</title>
<g id="a_node22"><a xlink:href="datamodel_8h.html" target="_top" xlink:title=" ">
<polygon fill="#ffffff" stroke="#000000" points="694.7622,-168.5 694.7622,-187.5 767.7622,-187.5 767.7622,-168.5 694.7622,-168.5"/>
<text text-anchor="middle" x="731.2622" y="-175.5" font-family="Helvetica,sans-Serif" font-size="10.00" fill="#000000">datamodel.h</text>
</a>
</g>
</g>
<!-- Node1&#45;&gt;Node22 -->
<g id="edge40" class="edge">
<title>Node1&#45;&gt;Node22</title>
<path fill="none" stroke="#191970" d="M847.2139,-336.4065C823.8361,-304.469 769.4568,-230.1793 744.3707,-195.9081"/>
<polygon fill="#191970" stroke="#191970" points="747.1211,-193.7399 738.3903,-187.738 741.4727,-197.8746 747.1211,-193.7399"/>
</g>
<!-- Node30 -->
<g id="node30" class="node">
<title>Node30</title>
<g id="a_node30"><a xlink:href="infowidget_8h.html" target="_top" xlink:title=" ">
<polygon fill="#ffffff" stroke="#000000" points="427.2622,-112.5 427.2622,-131.5 497.2622,-131.5 497.2622,-112.5 427.2622,-112.5"/>
<text text-anchor="middle" x="462.2622" y="-119.5" font-family="Helvetica,sans-Serif" font-size="10.00" fill="#000000">infowidget.h</text>
</a>
</g>
</g>
<!-- Node1&#45;&gt;Node30 -->
<g id="edge80" class="edge">
<title>Node1&#45;&gt;Node30</title>
<path fill="none" stroke="#191970" d="M842.3351,-336.2799C815.0659,-310.7666 756.9717,-258.7539 701.2622,-224 650.9854,-192.6352 634.7826,-191.217 580.2622,-168 552.8255,-156.3163 521.3406,-144.1014 497.7975,-135.1974"/>
<polygon fill="#191970" stroke="#191970" points="498.8208,-131.8429 488.2288,-131.5953 496.3546,-138.3941 498.8208,-131.8429"/>
</g>
<!-- Node32 -->
<g id="node32" class="node">
<title>Node32</title>
<g id="a_node32"><a xlink:href="view_8h.html" target="_top" xlink:title=" ">
<polygon fill="#ffffff" stroke="#000000" points="637.7622,-280.5 637.7622,-299.5 682.7622,-299.5 682.7622,-280.5 637.7622,-280.5"/>
<text text-anchor="middle" x="660.2622" y="-287.5" font-family="Helvetica,sans-Serif" font-size="10.00" fill="#000000">view.h</text>
</a>
</g>
</g>
<!-- Node1&#45;&gt;Node32 -->
<g id="edge41" class="edge">
<title>Node1&#45;&gt;Node32</title>
<path fill="none" stroke="#191970" d="M809.8259,-336.4554C773.3585,-325.1284 724.3788,-309.915 692.5694,-300.0348"/>
<polygon fill="#191970" stroke="#191970" points="693.4708,-296.6499 682.8826,-297.026 691.3943,-303.3349 693.4708,-296.6499"/>
</g>
<!-- Node37 -->
<g id="node37" class="node">
<title>Node37</title>
<g id="a_node37"><a xlink:href="maprenderer_8h.html" target="_top" xlink:title=" ">
<polygon fill="#ffffff" stroke="#000000" points="1098.2622,-224.5 1098.2622,-243.5 1180.2622,-243.5 1180.2622,-224.5 1098.2622,-224.5"/>
<text text-anchor="middle" x="1139.2622" y="-231.5" font-family="Helvetica,sans-Serif" font-size="10.00" fill="#000000">maprenderer.h</text>
</a>
</g>
</g>
<!-- Node1&#45;&gt;Node37 -->
<g id="edge50" class="edge">
<title>Node1&#45;&gt;Node37</title>
<path fill="none" stroke="#191970" d="M894.1365,-336.4992C949.2945,-313.4349 1054.0844,-269.617 1106.988,-247.4954"/>
<polygon fill="#191970" stroke="#191970" points="1108.3632,-250.7141 1116.2388,-243.6272 1105.6627,-244.256 1108.3632,-250.7141"/>
</g>
<!-- Node44 -->
<g id="node44" class="node">
<title>Node44</title>
<g id="a_node44"><a xlink:href="routelistinterface_8h.html" target="_top" xlink:title=" ">
<polygon fill="#ffffff" stroke="#000000" points="1690.7622,-280.5 1690.7622,-299.5 1787.7622,-299.5 1787.7622,-280.5 1690.7622,-280.5"/>
<text text-anchor="middle" x="1739.2622" y="-287.5" font-family="Helvetica,sans-Serif" font-size="10.00" fill="#000000">routelistinterface.h</text>
</a>
</g>
</g>
<!-- Node1&#45;&gt;Node44 -->
<g id="edge75" class="edge">
<title>Node1&#45;&gt;Node44</title>
<path fill="none" stroke="#191970" d="M916.0671,-347.4648C1075.4533,-336.3385 1519.988,-305.3069 1680.5044,-294.1017"/>
<polygon fill="#191970" stroke="#191970" points="1680.9287,-297.5807 1690.6606,-293.3927 1680.4411,-290.5977 1680.9287,-297.5807"/>
</g>
<!-- Node8 -->
<g id="node8" class="node">
<title>Node8</title>
<g id="a_node8"><a xlink:title=" ">
<polygon fill="#ffffff" stroke="#bfbfbf" points="455.2622,-168.5 455.2622,-187.5 549.2622,-187.5 549.2622,-168.5 455.2622,-168.5"/>
<text text-anchor="middle" x="502.2622" y="-175.5" font-family="Helvetica,sans-Serif" font-size="10.00" fill="#000000">QGraphicsScene</text>
</a>
</g>
</g>
<!-- Node7&#45;&gt;Node8 -->
<g id="edge7" class="edge">
<title>Node7&#45;&gt;Node8</title>
<path fill="none" stroke="#191970" d="M471.7071,-224.2455C476.8004,-216.5367 484.053,-205.5598 490.2142,-196.2348"/>
<polygon fill="#191970" stroke="#191970" points="493.2987,-197.9155 495.8911,-187.6427 487.4583,-194.0566 493.2987,-197.9155"/>
</g>
<!-- Node9 -->
<g id="node9" class="node">
<title>Node9</title>
<g id="a_node9"><a xlink:title=" ">
<polygon fill="#ffffff" stroke="#bfbfbf" points="24.2622,-168.5 24.2622,-187.5 128.2622,-187.5 128.2622,-168.5 24.2622,-168.5"/>
<text text-anchor="middle" x="76.2622" y="-175.5" font-family="Helvetica,sans-Serif" font-size="10.00" fill="#000000">QGraphicsTextItem</text>
</a>
</g>
</g>
<!-- Node7&#45;&gt;Node9 -->
<g id="edge8" class="edge">
<title>Node7&#45;&gt;Node9</title>
<path fill="none" stroke="#191970" d="M438.8736,-230.323C383.7543,-222.6248 252.3813,-204.1833 142.2622,-188 141.0045,-187.8152 139.7335,-187.6278 138.4525,-187.4385"/>
<polygon fill="#191970" stroke="#191970" points="138.9006,-183.9667 128.4945,-185.9579 137.871,-190.8906 138.9006,-183.9667"/>
</g>
<!-- Node10 -->
<g id="node10" class="node">
<title>Node10</title>
<g id="a_node10"><a xlink:title=" ">
<polygon fill="#ffffff" stroke="#bfbfbf" points="184.7622,-168.5 184.7622,-187.5 267.7622,-187.5 267.7622,-168.5 184.7622,-168.5"/>
<text text-anchor="middle" x="226.2622" y="-175.5" font-family="Helvetica,sans-Serif" font-size="10.00" fill="#000000">QGraphicsItem</text>
</a>
</g>
</g>
<!-- Node7&#45;&gt;Node10 -->
<g id="edge9" class="edge">
<title>Node7&#45;&gt;Node10</title>
<path fill="none" stroke="#191970" d="M439.23,-227.9004C400.4073,-218.8039 326.5931,-201.5085 276.8985,-189.8646"/>
<polygon fill="#191970" stroke="#191970" points="277.5252,-186.4167 266.9904,-187.543 275.9282,-193.2321 277.5252,-186.4167"/>
</g>
<!-- Node11 -->
<g id="node11" class="node">
<title>Node11</title>
<g id="a_node11"><a xlink:title=" ">
<polygon fill="#ffffff" stroke="#bfbfbf" points="24.2622,-.5 24.2622,-19.5 128.2622,-19.5 128.2622,-.5 24.2622,-.5"/>
<text text-anchor="middle" x="76.2622" y="-7.5" font-family="Helvetica,sans-Serif" font-size="10.00" fill="#000000">QGraphicsRectItem</text>
</a>
</g>
</g>
<!-- Node7&#45;&gt;Node11 -->
<g id="edge10" class="edge">
<title>Node7&#45;&gt;Node11</title>
<path fill="none" stroke="#191970" d="M439.1007,-233.3241C347.2963,-230.6862 43.8147,-219.62 15.2622,-188 -27.3233,-140.8394 30.0239,-62.5806 60.0269,-27.7097"/>
<polygon fill="#191970" stroke="#191970" points="62.9939,-29.6374 66.9882,-19.8244 57.7462,-25.0047 62.9939,-29.6374"/>
</g>
<!-- Node12 -->
<g id="node12" class="node">
<title>Node12</title>
<g id="a_node12"><a xlink:title=" ">
<polygon fill="#ffffff" stroke="#bfbfbf" points="285.7622,-168.5 285.7622,-187.5 398.7622,-187.5 398.7622,-168.5 285.7622,-168.5"/>
<text text-anchor="middle" x="342.2622" y="-175.5" font-family="Helvetica,sans-Serif" font-size="10.00" fill="#000000">QGraphicsEllipseItem</text>
</a>
</g>
</g>
<!-- Node7&#45;&gt;Node12 -->
<g id="edge11" class="edge">
<title>Node7&#45;&gt;Node12</title>
<path fill="none" stroke="#191970" d="M444.1177,-224.3733C424.373,-215.3838 394.6923,-201.8706 372.4567,-191.7471"/>
<polygon fill="#191970" stroke="#191970" points="373.6821,-188.4594 363.1307,-187.5011 370.7816,-194.8302 373.6821,-188.4594"/>
</g>
<!-- Node7&#45;&gt;Node13 -->
<g id="edge12" class="edge">
<title>Node7&#45;&gt;Node13</title>
<path fill="none" stroke="#191970" d="M491.3411,-231.7283C517.7653,-229.4927 559.8288,-226.1153 596.2622,-224 994.3503,-200.8869 1101.0295,-248.0427 1499.0632,-187.8384"/>
<polygon fill="#191970" stroke="#191970" points="1499.7621,-191.2724 1509.1197,-186.304 1498.7062,-184.3524 1499.7621,-191.2724"/>
</g>
<!-- Node17 -->
<g id="node17" class="node">
<title>Node17</title>
<g id="a_node17"><a xlink:href="graphicsmanager_8h.html" target="_top" xlink:title=" ">
<polygon fill="#ffffff" stroke="#000000" points="1542.7622,-112.5 1542.7622,-131.5 1645.7622,-131.5 1645.7622,-112.5 1542.7622,-112.5"/>
<text text-anchor="middle" x="1594.2622" y="-119.5" font-family="Helvetica,sans-Serif" font-size="10.00" fill="#000000">graphicsmanager.h</text>
</a>
</g>
</g>
<!-- Node7&#45;&gt;Node17 -->
<g id="edge20" class="edge">
<title>Node7&#45;&gt;Node17</title>
<path fill="none" stroke="#191970" d="M491.3539,-231.9265C517.788,-229.8451 559.8591,-226.5851 596.2622,-224 839.7296,-206.7107 903.2939,-226.8532 1144.2622,-188 1179.1691,-182.3717 1186.5033,-174.4803 1221.2622,-168 1355.6922,-142.9376 1393.8258,-151.1053 1532.4219,-132.194"/>
<polygon fill="#191970" stroke="#191970" points="1533.1532,-135.6262 1542.5772,-130.7848 1532.191,-128.6926 1533.1532,-135.6262"/>
</g>
<!-- Node20 -->
<g id="node20" class="node">
<title>Node20</title>
<g id="a_node20"><a xlink:href="player_8h.html" target="_top" xlink:title=" ">
<polygon fill="#ffffff" stroke="#000000" points="225.2622,-112.5 225.2622,-131.5 277.2622,-131.5 277.2622,-112.5 225.2622,-112.5"/>
<text text-anchor="middle" x="251.2622" y="-119.5" font-family="Helvetica,sans-Serif" font-size="10.00" fill="#000000">player.h</text>
</a>
</g>
</g>
<!-- Node7&#45;&gt;Node20 -->
<g id="edge21" class="edge">
<title>Node7&#45;&gt;Node20</title>
<path fill="none" stroke="#191970" d="M459.3905,-224.3893C450.1047,-209.9965 430.6611,-182.9414 407.2622,-168 404.6556,-166.3356 332.5137,-145.3936 287.2594,-132.3472"/>
<polygon fill="#191970" stroke="#191970" points="288.0729,-128.9392 277.4948,-129.5343 286.1352,-135.6657 288.0729,-128.9392"/>
</g>
<!-- Node21 -->
<g id="node21" class="node">
<title>Node21</title>
<g id="a_node21"><a xlink:href="highlighter_8h.html" target="_top" xlink:title=" ">
<polygon fill="#ffffff" stroke="#000000" points="121.2622,-56.5 121.2622,-75.5 191.2622,-75.5 191.2622,-56.5 121.2622,-56.5"/>
<text text-anchor="middle" x="156.2622" y="-63.5" font-family="Helvetica,sans-Serif" font-size="10.00" fill="#000000">highlighter.h</text>
</a>
</g>
</g>
<!-- Node7&#45;&gt;Node21 -->
<g id="edge24" class="edge">
<title>Node7&#45;&gt;Node21</title>
<path fill="none" stroke="#191970" d="M439.012,-231.5957C371.1424,-225.1372 193.8447,-206.6349 175.2622,-188 148.3767,-161.0387 149.653,-112.7577 152.9545,-85.722"/>
<polygon fill="#191970" stroke="#191970" points="156.4566,-85.9568 154.4171,-75.5602 149.5281,-84.9595 156.4566,-85.9568"/>
</g>
<!-- Node7&#45;&gt;Node22 -->
<g id="edge25" class="edge">
<title>Node7&#45;&gt;Node22</title>
<path fill="none" stroke="#191970" d="M491.7398,-228.4258C536.6463,-218.9718 628.3101,-199.6741 684.3106,-187.8845"/>
<polygon fill="#191970" stroke="#191970" points="685.2684,-191.2597 694.3328,-185.7746 683.8263,-184.4099 685.2684,-191.2597"/>
</g>
<!-- Node14 -->
<g id="node14" class="node">
<title>Node14</title>
<g id="a_node14"><a xlink:title=" ">
<polygon fill="#ffffff" stroke="#bfbfbf" points="1311.7622,-112.5 1311.7622,-131.5 1428.7622,-131.5 1428.7622,-112.5 1311.7622,-112.5"/>
<text text-anchor="middle" x="1370.2622" y="-119.5" font-family="Helvetica,sans-Serif" font-size="10.00" fill="#000000">QGraphicsPixmapItem</text>
</a>
</g>
</g>
<!-- Node13&#45;&gt;Node14 -->
<g id="edge13" class="edge">
<title>Node13&#45;&gt;Node14</title>
<path fill="none" stroke="#191970" d="M1508.9329,-168.5004C1481.2226,-159.2083 1438.8396,-144.996 1408.2237,-134.7296"/>
<polygon fill="#191970" stroke="#191970" points="1409.3244,-131.4072 1398.7304,-131.5462 1407.0988,-138.044 1409.3244,-131.4072"/>
</g>
<!-- Node15 -->
<g id="node15" class="node">
<title>Node15</title>
<g id="a_node15"><a xlink:href="city_8h.html" target="_top" xlink:title=" ">
<polygon fill="#ffffff" stroke="#000000" points="1485.7622,-112.5 1485.7622,-131.5 1524.7622,-131.5 1524.7622,-112.5 1485.7622,-112.5"/>
<text text-anchor="middle" x="1505.2622" y="-119.5" font-family="Helvetica,sans-Serif" font-size="10.00" fill="#000000">city.h</text>
</a>
</g>
</g>
<!-- Node13&#45;&gt;Node15 -->
<g id="edge14" class="edge">
<title>Node13&#45;&gt;Node15</title>
<path fill="none" stroke="#191970" d="M1531.6882,-168.2455C1527.3291,-160.617 1521.1411,-149.7881 1515.8489,-140.5267"/>
<polygon fill="#191970" stroke="#191970" points="1518.7726,-138.5886 1510.7723,-131.6427 1512.6949,-142.0616 1518.7726,-138.5886"/>
</g>
<!-- Node13&#45;&gt;Node17 -->
<g id="edge16" class="edge">
<title>Node13&#45;&gt;Node17</title>
<path fill="none" stroke="#191970" d="M1547.1908,-168.2455C1555.446,-160.1352 1567.3831,-148.4075 1577.1704,-138.7919"/>
<polygon fill="#191970" stroke="#191970" points="1579.7668,-141.1476 1584.4473,-131.6427 1574.861,-136.1542 1579.7668,-141.1476"/>
</g>
<!-- Node16 -->
<g id="node16" class="node">
<title>Node16</title>
<g id="a_node16"><a xlink:title=" ">
<polygon fill="#ffffff" stroke="#bfbfbf" points="1503.7622,-56.5 1503.7622,-75.5 1544.7622,-75.5 1544.7622,-56.5 1503.7622,-56.5"/>
<text text-anchor="middle" x="1524.2622" y="-63.5" font-family="Helvetica,sans-Serif" font-size="10.00" fill="#000000">string</text>
</a>
</g>
</g>
<!-- Node15&#45;&gt;Node16 -->
<g id="edge15" class="edge">
<title>Node15&#45;&gt;Node16</title>
<path fill="none" stroke="#191970" d="M1508.5717,-112.2455C1511.1055,-104.7776 1514.6799,-94.2427 1517.7772,-85.1137"/>
<polygon fill="#191970" stroke="#191970" points="1521.092,-86.237 1520.9906,-75.6427 1514.4631,-83.9879 1521.092,-86.237"/>
</g>
<!-- Node17&#45;&gt;Node16 -->
<g id="edge19" class="edge">
<title>Node17&#45;&gt;Node16</title>
<path fill="none" stroke="#191970" d="M1582.0691,-112.2455C1571.6301,-103.8943 1556.3967,-91.7076 1544.1882,-81.9408"/>
<polygon fill="#191970" stroke="#191970" points="1546.3107,-79.1566 1536.3155,-75.6427 1541.9378,-84.6227 1546.3107,-79.1566"/>
</g>
<!-- Node18 -->
<g id="node18" class="node">
<title>Node18</title>
<g id="a_node18"><a xlink:title=" ">
<polygon fill="#ffffff" stroke="#bfbfbf" points="1565.2622,-56.5 1565.2622,-75.5 1623.2622,-75.5 1623.2622,-56.5 1565.2622,-56.5"/>
<text text-anchor="middle" x="1594.2622" y="-63.5" font-family="Helvetica,sans-Serif" font-size="10.00" fill="#000000">QPixmap</text>
</a>
</g>
</g>
<!-- Node17&#45;&gt;Node18 -->
<g id="edge17" class="edge">
<title>Node17&#45;&gt;Node18</title>
<path fill="none" stroke="#191970" d="M1594.2622,-112.2455C1594.2622,-104.9382 1594.2622,-94.6944 1594.2622,-85.7046"/>
<polygon fill="#191970" stroke="#191970" points="1597.7623,-85.6426 1594.2622,-75.6427 1590.7623,-85.6427 1597.7623,-85.6426"/>
</g>
<!-- Node19 -->
<g id="node19" class="node">
<title>Node19</title>
<g id="a_node19"><a xlink:title=" ">
<polygon fill="#ffffff" stroke="#bfbfbf" points="1430.7622,-56.5 1430.7622,-75.5 1483.7622,-75.5 1483.7622,-56.5 1430.7622,-56.5"/>
<text text-anchor="middle" x="1457.2622" y="-63.5" font-family="Helvetica,sans-Serif" font-size="10.00" fill="#000000">QImage</text>
</a>
</g>
</g>
<!-- Node17&#45;&gt;Node19 -->
<g id="edge18" class="edge">
<title>Node17&#45;&gt;Node19</title>
<path fill="none" stroke="#191970" d="M1570.7111,-112.3733C1548.4231,-103.2629 1514.7685,-89.5062 1489.8985,-79.3404"/>
<polygon fill="#191970" stroke="#191970" points="1491.0869,-76.0451 1480.506,-75.5011 1488.4382,-82.5247 1491.0869,-76.0451"/>
</g>
<!-- Node20&#45;&gt;Node21 -->
<g id="edge22" class="edge">
<title>Node20&#45;&gt;Node21</title>
<path fill="none" stroke="#191970" d="M234.7145,-112.2455C220.0023,-103.5731 198.2734,-90.7645 181.4117,-80.825"/>
<polygon fill="#191970" stroke="#191970" points="183.0123,-77.7057 172.6203,-75.6427 179.4576,-83.736 183.0123,-77.7057"/>
</g>
<!-- Node21&#45;&gt;Node11 -->
<g id="edge23" class="edge">
<title>Node21&#45;&gt;Node11</title>
<path fill="none" stroke="#191970" d="M142.3273,-56.2455C130.1675,-47.7337 112.3157,-35.2375 98.2337,-25.3801"/>
<polygon fill="#191970" stroke="#191970" points="100.2369,-22.51 90.0374,-19.6427 96.2226,-28.2447 100.2369,-22.51"/>
</g>
<!-- Node22&#45;&gt;Node6 -->
<g id="edge28" class="edge">
<title>Node22&#45;&gt;Node6</title>
<path fill="none" stroke="#191970" d="M763.0648,-168.3733C795.9268,-158.4259 847.0879,-142.9393 881.1262,-132.6358"/>
<polygon fill="#191970" stroke="#191970" points="882.5438,-135.8636 891.1009,-129.6164 880.5157,-129.1638 882.5438,-135.8636"/>
</g>
<!-- Node22&#45;&gt;Node20 -->
<g id="edge34" class="edge">
<title>Node22&#45;&gt;Node20</title>
<path fill="none" stroke="#191970" d="M694.6051,-176.3873C619.7476,-172.6285 443.8868,-161.4171 287.7693,-131.9995"/>
<polygon fill="#191970" stroke="#191970" points="287.9959,-128.4793 277.516,-130.0353 286.6789,-135.3543 287.9959,-128.4793"/>
</g>
<!-- Node23 -->
<g id="node23" class="node">
<title>Node23</title>
<g id="a_node23"><a xlink:title=" ">
<polygon fill="#ffffff" stroke="#bfbfbf" points="389.7622,-56.5 389.7622,-75.5 438.7622,-75.5 438.7622,-56.5 389.7622,-56.5"/>
<text text-anchor="middle" x="414.2622" y="-63.5" font-family="Helvetica,sans-Serif" font-size="10.00" fill="#000000">QLabel</text>
</a>
</g>
</g>
<!-- Node22&#45;&gt;Node23 -->
<g id="edge26" class="edge">
<title>Node22&#45;&gt;Node23</title>
<path fill="none" stroke="#191970" d="M694.6652,-175.1918C616.0753,-168.8014 436.7646,-152.1538 418.2622,-132 407.1267,-119.8707 407.214,-100.6135 409.4435,-86.0239"/>
<polygon fill="#191970" stroke="#191970" points="412.9248,-86.4592 411.4157,-75.9724 406.0558,-85.1114 412.9248,-86.4592"/>
</g>
<!-- Node24 -->
<g id="node24" class="node">
<title>Node24</title>
<g id="a_node24"><a xlink:title=" ">
<polygon fill="#ffffff" stroke="#bfbfbf" points="464.2622,-56.5 464.2622,-75.5 520.2622,-75.5 520.2622,-56.5 464.2622,-56.5"/>
<text text-anchor="middle" x="492.2622" y="-63.5" font-family="Helvetica,sans-Serif" font-size="10.00" fill="#000000">QWidget</text>
</a>
</g>
</g>
<!-- Node22&#45;&gt;Node24 -->
<g id="edge27" class="edge">
<title>Node22&#45;&gt;Node24</title>
<path fill="none" stroke="#191970" d="M694.5247,-170.3087C643.7369,-159.4719 556.8743,-140.1258 544.2622,-132 525.9544,-120.2046 511.3146,-99.7198 502.2913,-84.6925"/>
<polygon fill="#191970" stroke="#191970" points="505.186,-82.7032 497.1907,-75.7516 499.1059,-86.1719 505.186,-82.7032"/>
</g>
<!-- Node25 -->
<g id="node25" class="node">
<title>Node25</title>
<g id="a_node25"><a xlink:title=" ">
<polygon fill="#ffffff" stroke="#bfbfbf" points="689.2622,-112.5 689.2622,-131.5 771.2622,-131.5 771.2622,-112.5 689.2622,-112.5"/>
<text text-anchor="middle" x="730.2622" y="-119.5" font-family="Helvetica,sans-Serif" font-size="10.00" fill="#000000">QMediaPlayer</text>
</a>
</g>
</g>
<!-- Node22&#45;&gt;Node25 -->
<g id="edge29" class="edge">
<title>Node22&#45;&gt;Node25</title>
<path fill="none" stroke="#191970" d="M731.088,-168.2455C730.9575,-160.9382 730.7746,-150.6944 730.6141,-141.7046"/>
<polygon fill="#191970" stroke="#191970" points="734.1125,-141.5786 730.4344,-131.6427 727.1136,-141.7036 734.1125,-141.5786"/>
</g>
<!-- Node26 -->
<g id="node26" class="node">
<title>Node26</title>
<g id="a_node26"><a xlink:title=" ">
<polygon fill="#ffffff" stroke="#bfbfbf" points="789.7622,-112.5 789.7622,-131.5 872.7622,-131.5 872.7622,-112.5 789.7622,-112.5"/>
<text text-anchor="middle" x="831.2622" y="-119.5" font-family="Helvetica,sans-Serif" font-size="10.00" fill="#000000">QVideoWidget</text>
</a>
</g>
</g>
<!-- Node22&#45;&gt;Node26 -->
<g id="edge30" class="edge">
<title>Node22&#45;&gt;Node26</title>
<path fill="none" stroke="#191970" d="M748.6809,-168.2455C764.3107,-159.4928 787.464,-146.527 805.2807,-136.5496"/>
<polygon fill="#191970" stroke="#191970" points="807.0282,-139.5825 814.0431,-131.6427 803.6079,-133.475 807.0282,-139.5825"/>
</g>
<!-- Node27 -->
<g id="node27" class="node">
<title>Node27</title>
<g id="a_node27"><a xlink:href="mainwindow_8h.html" target="_top" xlink:title=" ">
<polygon fill="#ffffff" stroke="#000000" points="553.2622,-112.5 553.2622,-131.5 633.2622,-131.5 633.2622,-112.5 553.2622,-112.5"/>
<text text-anchor="middle" x="593.2622" y="-119.5" font-family="Helvetica,sans-Serif" font-size="10.00" fill="#000000">mainwindow.h</text>
</a>
</g>
</g>
<!-- Node22&#45;&gt;Node27 -->
<g id="edge31" class="edge">
<title>Node22&#45;&gt;Node27</title>
<path fill="none" stroke="#191970" d="M707.5391,-168.3733C685.0885,-159.2629 651.1883,-145.5062 626.1367,-135.3404"/>
<polygon fill="#191970" stroke="#191970" points="627.2579,-132.0182 616.6757,-131.5011 624.6257,-138.5045 627.2579,-132.0182"/>
</g>
<!-- Node22&#45;&gt;Node30 -->
<g id="edge35" class="edge">
<title>Node22&#45;&gt;Node30</title>
<path fill="none" stroke="#191970" d="M694.7037,-170.3893C646.0866,-160.2683 560.1805,-142.3845 507.5247,-131.4227"/>
<polygon fill="#191970" stroke="#191970" points="507.9613,-127.9386 497.4578,-129.327 506.5346,-134.7917 507.9613,-127.9386"/>
</g>
<!-- Node31 -->
<g id="node31" class="node">
<title>Node31</title>
<g id="a_node31"><a xlink:href="point_8h.html" target="_top" xlink:title=" ">
<polygon fill="#ffffff" stroke="#000000" points="1039.7622,-56.5 1039.7622,-75.5 1084.7622,-75.5 1084.7622,-56.5 1039.7622,-56.5"/>
<text text-anchor="middle" x="1062.2622" y="-63.5" font-family="Helvetica,sans-Serif" font-size="10.00" fill="#000000">point.h</text>
</a>
</g>
</g>
<!-- Node22&#45;&gt;Node31 -->
<g id="edge38" class="edge">
<title>Node22&#45;&gt;Node31</title>
<path fill="none" stroke="#191970" d="M714.4795,-168.2788C693.7991,-155.1129 663.3524,-131.0682 680.2622,-112 703.3135,-86.0063 941.1826,-71.8814 1029.4947,-67.5014"/>
<polygon fill="#191970" stroke="#191970" points="1029.6802,-70.9967 1039.4986,-67.0155 1029.3405,-64.0049 1029.6802,-70.9967"/>
</g>
<!-- Node28 -->
<g id="node28" class="node">
<title>Node28</title>
<g id="a_node28"><a xlink:title=" ">
<polygon fill="#ffffff" stroke="#bfbfbf" points="545.7622,-56.5 545.7622,-75.5 628.7622,-75.5 628.7622,-56.5 545.7622,-56.5"/>
<text text-anchor="middle" x="587.2622" y="-63.5" font-family="Helvetica,sans-Serif" font-size="10.00" fill="#000000">QMainWindow</text>
</a>
</g>
</g>
<!-- Node27&#45;&gt;Node28 -->
<g id="edge32" class="edge">
<title>Node27&#45;&gt;Node28</title>
<path fill="none" stroke="#191970" d="M592.2171,-112.2455C591.4341,-104.9382 590.3366,-94.6944 589.3734,-85.7046"/>
<polygon fill="#191970" stroke="#191970" points="592.8408,-85.2129 588.2953,-75.6427 585.8807,-85.9587 592.8408,-85.2129"/>
</g>
<!-- Node29 -->
<g id="node29" class="node">
<title>Node29</title>
<g id="a_node29"><a xlink:title=" ">
<polygon fill="#ffffff" stroke="#bfbfbf" points="646.7622,-56.5 646.7622,-75.5 713.7622,-75.5 713.7622,-56.5 646.7622,-56.5"/>
<text text-anchor="middle" x="680.2622" y="-63.5" font-family="Helvetica,sans-Serif" font-size="10.00" fill="#000000">QKeyEvent</text>
</a>
</g>
</g>
<!-- Node27&#45;&gt;Node29 -->
<g id="edge33" class="edge">
<title>Node27&#45;&gt;Node29</title>
<path fill="none" stroke="#191970" d="M608.4164,-112.2455C621.7649,-103.6534 641.4208,-91.0014 656.8005,-81.1018"/>
<polygon fill="#191970" stroke="#191970" points="658.7673,-83.9982 665.2816,-75.6427 654.9786,-78.1121 658.7673,-83.9982"/>
</g>
<!-- Node30&#45;&gt;Node23 -->
<g id="edge36" class="edge">
<title>Node30&#45;&gt;Node23</title>
<path fill="none" stroke="#191970" d="M453.9012,-112.2455C447.0872,-104.2958 437.2941,-92.8706 429.147,-83.3656"/>
<polygon fill="#191970" stroke="#191970" points="431.6927,-80.9575 422.5273,-75.6427 426.3779,-85.513 431.6927,-80.9575"/>
</g>
<!-- Node30&#45;&gt;Node24 -->
<g id="edge37" class="edge">
<title>Node30&#45;&gt;Node24</title>
<path fill="none" stroke="#191970" d="M467.4878,-112.2455C471.5745,-104.617 477.3757,-93.7881 482.3371,-84.5267"/>
<polygon fill="#191970" stroke="#191970" points="485.4594,-86.1103 487.0965,-75.6427 479.289,-82.8047 485.4594,-86.1103"/>
</g>
<!-- Node32&#45;&gt;Node7 -->
<g id="edge43" class="edge">
<title>Node32&#45;&gt;Node7</title>
<path fill="none" stroke="#191970" d="M637.5116,-283.4665C603.9626,-273.8319 540.9045,-255.7229 501.1005,-244.292"/>
<polygon fill="#191970" stroke="#191970" points="501.8469,-240.865 491.2693,-241.4687 499.9147,-247.593 501.8469,-240.865"/>
</g>
<!-- Node32&#45;&gt;Node22 -->
<g id="edge44" class="edge">
<title>Node32&#45;&gt;Node22</title>
<path fill="none" stroke="#191970" d="M670.3198,-280.486C679.2602,-271.647 692.2708,-257.8048 701.2622,-244 710.802,-229.3533 718.82,-211.1749 724.1599,-197.6068"/>
<polygon fill="#191970" stroke="#191970" points="727.579,-198.461 727.8462,-187.8695 721.0324,-195.9826 727.579,-198.461"/>
</g>
<!-- Node33 -->
<g id="node33" class="node">
<title>Node33</title>
<g id="a_node33"><a xlink:title=" ">
<polygon fill="#ffffff" stroke="#bfbfbf" points="605.7622,-224.5 605.7622,-243.5 692.7622,-243.5 692.7622,-224.5 605.7622,-224.5"/>
<text text-anchor="middle" x="649.2622" y="-231.5" font-family="Helvetica,sans-Serif" font-size="10.00" fill="#000000">QGraphicsView</text>
</a>
</g>
</g>
<!-- Node32&#45;&gt;Node33 -->
<g id="edge42" class="edge">
<title>Node32&#45;&gt;Node33</title>
<path fill="none" stroke="#191970" d="M658.3461,-280.2455C656.9108,-272.9382 654.8986,-262.6944 653.1327,-253.7046"/>
<polygon fill="#191970" stroke="#191970" points="656.5182,-252.7805 651.1563,-243.6427 649.6494,-254.1298 656.5182,-252.7805"/>
</g>
<!-- Node34 -->
<g id="node34" class="node">
<title>Node34</title>
<g id="a_node34"><a xlink:href="tooltipmenu_8h.html" target="_top" xlink:title=" ">
<polygon fill="#ffffff" stroke="#000000" points="295.7622,-112.5 295.7622,-131.5 370.7622,-131.5 370.7622,-112.5 295.7622,-112.5"/>
<text text-anchor="middle" x="333.2622" y="-119.5" font-family="Helvetica,sans-Serif" font-size="10.00" fill="#000000">tooltipmenu.h</text>
</a>
</g>
</g>
<!-- Node32&#45;&gt;Node34 -->
<g id="edge45" class="edge">
<title>Node32&#45;&gt;Node34</title>
<path fill="none" stroke="#191970" d="M642.4293,-280.4109C628.4729,-272.206 609.3066,-259.3114 596.2622,-244 571.7715,-215.2532 588.225,-190.987 558.2622,-168 544.3283,-157.3101 442.9952,-139.5453 381.1678,-129.5078"/>
<polygon fill="#191970" stroke="#191970" points="381.6609,-126.0422 371.2312,-127.9058 380.5466,-132.9529 381.6609,-126.0422"/>
</g>
<!-- Node34&#45;&gt;Node23 -->
<g id="edge47" class="edge">
<title>Node34&#45;&gt;Node23</title>
<path fill="none" stroke="#191970" d="M347.3713,-112.2455C359.6831,-103.7337 377.758,-91.2375 392.016,-81.3801"/>
<polygon fill="#191970" stroke="#191970" points="394.0796,-84.2085 400.3148,-75.6427 390.0988,-78.4506 394.0796,-84.2085"/>
</g>
<!-- Node34&#45;&gt;Node24 -->
<g id="edge46" class="edge">
<title>Node34&#45;&gt;Node24</title>
<path fill="none" stroke="#191970" d="M360.5953,-112.3733C386.8056,-103.1419 426.5606,-89.1402 455.529,-78.9375"/>
<polygon fill="#191970" stroke="#191970" points="457.0164,-82.1244 465.2858,-75.5011 454.691,-75.5219 457.0164,-82.1244"/>
</g>
<!-- Node35 -->
<g id="node35" class="node">
<title>Node35</title>
<g id="a_node35"><a xlink:title=" ">
<polygon fill="#ffffff" stroke="#bfbfbf" points="209.2622,-56.5 209.2622,-75.5 279.2622,-75.5 279.2622,-56.5 209.2622,-56.5"/>
<text text-anchor="middle" x="244.2622" y="-63.5" font-family="Helvetica,sans-Serif" font-size="10.00" fill="#000000">QGroupBox</text>
</a>
</g>
</g>
<!-- Node34&#45;&gt;Node35 -->
<g id="edge48" class="edge">
<title>Node34&#45;&gt;Node35</title>
<path fill="none" stroke="#191970" d="M317.7596,-112.2455C304.1042,-103.6534 283.9965,-91.0014 268.2633,-81.1018"/>
<polygon fill="#191970" stroke="#191970" points="269.9151,-78.006 259.5872,-75.6427 266.1871,-83.9307 269.9151,-78.006"/>
</g>
<!-- Node36 -->
<g id="node36" class="node">
<title>Node36</title>
<g id="a_node36"><a xlink:title=" ">
<polygon fill="#ffffff" stroke="#bfbfbf" points="297.2622,-56.5 297.2622,-75.5 371.2622,-75.5 371.2622,-56.5 297.2622,-56.5"/>
<text text-anchor="middle" x="334.2622" y="-63.5" font-family="Helvetica,sans-Serif" font-size="10.00" fill="#000000">QGridLayout</text>
</a>
</g>
</g>
<!-- Node34&#45;&gt;Node36 -->
<g id="edge49" class="edge">
<title>Node34&#45;&gt;Node36</title>
<path fill="none" stroke="#191970" d="M333.4364,-112.2455C333.5669,-104.9382 333.7498,-94.6944 333.9103,-85.7046"/>
<polygon fill="#191970" stroke="#191970" points="337.4108,-85.7036 334.09,-75.6427 330.4119,-85.5786 337.4108,-85.7036"/>
</g>
<!-- Node37&#45;&gt;Node4 -->
<g id="edge53" class="edge">
<title>Node37&#45;&gt;Node4</title>
<path fill="none" stroke="#191970" d="M1180.5012,-231.7605C1262.3165,-226.9183 1450.7817,-213.7726 1607.2622,-188 1608.5384,-187.7898 1609.8332,-187.5639 1611.1385,-187.3252"/>
<polygon fill="#191970" stroke="#191970" points="1612.1082,-190.7003 1621.2207,-185.2953 1610.7265,-183.838 1612.1082,-190.7003"/>
</g>
<!-- Node37&#45;&gt;Node13 -->
<g id="edge59" class="edge">
<title>Node37&#45;&gt;Node13</title>
<path fill="none" stroke="#191970" d="M1180.4316,-230.6075C1245.923,-224.8084 1377.9698,-211.4748 1498.9034,-188.046"/>
<polygon fill="#191970" stroke="#191970" points="1499.9377,-191.4097 1509.0745,-186.0461 1498.5871,-184.5412 1499.9377,-191.4097"/>
</g>
<!-- Node37&#45;&gt;Node17 -->
<g id="edge57" class="edge">
<title>Node37&#45;&gt;Node17</title>
<path fill="none" stroke="#191970" d="M1180.6053,-232.2036C1283.3677,-227.3799 1544.2689,-212.8029 1574.2622,-188 1587.6438,-176.9341 1592.2824,-157.2235 1593.7894,-142.2148"/>
<polygon fill="#191970" stroke="#191970" points="1597.3047,-142.0709 1594.4243,-131.8751 1590.3179,-141.6417 1597.3047,-142.0709"/>
</g>
<!-- Node37&#45;&gt;Node22 -->
<g id="edge58" class="edge">
<title>Node37&#45;&gt;Node22</title>
<path fill="none" stroke="#191970" d="M1098.0086,-229.3705C1031.8658,-221.7836 898.0616,-205.7599 785.2622,-188 782.7899,-187.6107 780.2568,-187.1962 777.7014,-186.7656"/>
<polygon fill="#191970" stroke="#191970" points="778.2682,-183.3117 767.8161,-185.0449 777.0678,-190.208 778.2682,-183.3117"/>
</g>
<!-- Node37&#45;&gt;Node24 -->
<g id="edge51" class="edge">
<title>Node37&#45;&gt;Node24</title>
<path fill="none" stroke="#191970" d="M1098.1188,-228.0353C1068.2229,-222.017 1028.1123,-210.2889 999.2622,-188 967.4584,-163.4291 984.6828,-132.7468 950.2622,-112 871.171,-64.3283 627.5007,-90.2664 536.2622,-76 534.3466,-75.7005 532.3902,-75.3654 530.4187,-75.0044"/>
<polygon fill="#191970" stroke="#191970" points="531.0478,-71.561 520.5551,-73.0288 529.6729,-78.4247 531.0478,-71.561"/>
</g>
<!-- Node37&#45;&gt;Node25 -->
<g id="edge55" class="edge">
<title>Node37&#45;&gt;Node25</title>
<path fill="none" stroke="#191970" d="M1098.2091,-228.5389C1049.8042,-221.557 967.2114,-207.9363 898.2622,-188 848.5331,-173.6211 793.0287,-150.3172 759.9094,-135.5939"/>
<polygon fill="#191970" stroke="#191970" points="761.3397,-132.3996 750.783,-131.5015 758.4756,-138.7868 761.3397,-132.3996"/>
</g>
<!-- Node37&#45;&gt;Node26 -->
<g id="edge54" class="edge">
<title>Node37&#45;&gt;Node26</title>
<path fill="none" stroke="#191970" d="M1098.249,-228.5287C1056.9749,-222.1171 992.0457,-209.5311 939.2622,-188 906.8606,-174.783 872.9783,-152.4697 851.9959,-137.4918"/>
<polygon fill="#191970" stroke="#191970" points="853.9843,-134.6103 843.8352,-131.5697 849.873,-140.2757 853.9843,-134.6103"/>
</g>
<!-- Node37&#45;&gt;Node31 -->
<g id="edge60" class="edge">
<title>Node37&#45;&gt;Node31</title>
<path fill="none" stroke="#191970" d="M1098.1626,-224.6612C1064.775,-216.1442 1021.5857,-202.6799 1011.2622,-188 987.5333,-154.2578 1022.2414,-107.7775 1045.0426,-83.0647"/>
<polygon fill="#191970" stroke="#191970" points="1047.8315,-85.2127 1052.2171,-75.5682 1042.7743,-80.3728 1047.8315,-85.2127"/>
</g>
<!-- Node38 -->
<g id="node38" class="node">
<title>Node38</title>
<g id="a_node38"><a xlink:title=" ">
<polygon fill="#ffffff" stroke="#bfbfbf" points="1254.7622,-112.5 1254.7622,-131.5 1293.7622,-131.5 1293.7622,-112.5 1254.7622,-112.5"/>
<text text-anchor="middle" x="1274.2622" y="-119.5" font-family="Helvetica,sans-Serif" font-size="10.00" fill="#000000">QList</text>
</a>
</g>
</g>
<!-- Node37&#45;&gt;Node38 -->
<g id="edge52" class="edge">
<title>Node37&#45;&gt;Node38</title>
<path fill="none" stroke="#191970" d="M1150.7722,-224.4509C1173.8864,-205.2747 1226.173,-161.8962 1254.7368,-138.1988"/>
<polygon fill="#191970" stroke="#191970" points="1257.3198,-140.6036 1262.7813,-131.5249 1252.8503,-135.2162 1257.3198,-140.6036"/>
</g>
<!-- Node39 -->
<g id="node39" class="node">
<title>Node39</title>
<g id="a_node39"><a xlink:title=" ">
<polygon fill="#ffffff" stroke="#bfbfbf" points="1229.7622,-168.5 1229.7622,-187.5 1314.7622,-187.5 1314.7622,-168.5 1229.7622,-168.5"/>
<text text-anchor="middle" x="1272.2622" y="-175.5" font-family="Helvetica,sans-Serif" font-size="10.00" fill="#000000">QMediaPlaylist</text>
</a>
</g>
</g>
<!-- Node37&#45;&gt;Node39 -->
<g id="edge56" class="edge">
<title>Node37&#45;&gt;Node39</title>
<path fill="none" stroke="#191970" d="M1162.1257,-224.3733C1183.6671,-215.3032 1216.146,-201.6279 1240.2578,-191.4755"/>
<polygon fill="#191970" stroke="#191970" points="1241.8389,-194.6075 1249.697,-187.5011 1239.1224,-188.156 1241.8389,-194.6075"/>
</g>
<!-- Node40 -->
<g id="node40" class="node">
<title>Node40</title>
<g id="a_node40"><a xlink:href="animationmovement_8h.html" target="_top" xlink:title=" ">
<polygon fill="#ffffff" stroke="#000000" points="1019.7622,-168.5 1019.7622,-187.5 1134.7622,-187.5 1134.7622,-168.5 1019.7622,-168.5"/>
<text text-anchor="middle" x="1077.2622" y="-175.5" font-family="Helvetica,sans-Serif" font-size="10.00" fill="#000000">animationmovement.h</text>
</a>
</g>
</g>
<!-- Node37&#45;&gt;Node40 -->
<g id="edge61" class="edge">
<title>Node37&#45;&gt;Node40</title>
<path fill="none" stroke="#191970" d="M1128.4626,-224.2455C1119.3944,-216.0549 1106.2416,-204.1749 1095.5377,-194.5069"/>
<polygon fill="#191970" stroke="#191970" points="1097.7051,-191.7482 1087.938,-187.6427 1093.013,-196.9429 1097.7051,-191.7482"/>
</g>
<!-- Node42 -->
<g id="node42" class="node">
<title>Node42</title>
<g id="a_node42"><a xlink:href="sprite_8h.html" target="_top" xlink:title=" ">
<polygon fill="#ffffff" stroke="#000000" points="1443.2622,-168.5 1443.2622,-187.5 1491.2622,-187.5 1491.2622,-168.5 1443.2622,-168.5"/>
<text text-anchor="middle" x="1467.2622" y="-175.5" font-family="Helvetica,sans-Serif" font-size="10.00" fill="#000000">sprite.h</text>
</a>
</g>
</g>
<!-- Node37&#45;&gt;Node42 -->
<g id="edge70" class="edge">
<title>Node37&#45;&gt;Node42</title>
<path fill="none" stroke="#191970" d="M1180.6487,-229.396C1236.1299,-222.8194 1337.7807,-209.354 1433.3886,-187.9444"/>
<polygon fill="#191970" stroke="#191970" points="1434.2404,-191.3402 1443.2157,-185.7104 1432.6886,-184.5143 1434.2404,-191.3402"/>
</g>
<!-- Node43 -->
<g id="node43" class="node">
<title>Node43</title>
<g id="a_node43"><a xlink:href="scaleanimation_8h.html" target="_top" xlink:title=" ">
<polygon fill="#ffffff" stroke="#000000" points="1333.2622,-168.5 1333.2622,-187.5 1425.2622,-187.5 1425.2622,-168.5 1333.2622,-168.5"/>
<text text-anchor="middle" x="1379.2622" y="-175.5" font-family="Helvetica,sans-Serif" font-size="10.00" fill="#000000">scaleanimation.h</text>
</a>
</g>
</g>
<!-- Node37&#45;&gt;Node43 -->
<g id="edge73" class="edge">
<title>Node37&#45;&gt;Node43</title>
<path fill="none" stroke="#191970" d="M1180.247,-224.4369C1221.2348,-214.8731 1284.3626,-200.1432 1328.4979,-189.845"/>
<polygon fill="#191970" stroke="#191970" points="1329.5034,-193.2045 1338.4465,-187.5237 1327.9127,-186.3876 1329.5034,-193.2045"/>
</g>
<!-- Node40&#45;&gt;Node3 -->
<g id="edge68" class="edge">
<title>Node40&#45;&gt;Node3</title>
<path fill="none" stroke="#191970" d="M1074.6494,-168.2455C1072.6706,-160.8579 1069.8878,-150.4689 1067.4609,-141.4087"/>
<polygon fill="#191970" stroke="#191970" points="1070.8133,-140.3966 1064.845,-131.6427 1064.0517,-142.2078 1070.8133,-140.3966"/>
</g>
<!-- Node40&#45;&gt;Node6 -->
<g id="edge67" class="edge">
<title>Node40&#45;&gt;Node6</title>
<path fill="none" stroke="#191970" d="M1049.5853,-168.3733C1022.2831,-158.8769 980.4671,-144.3321 950.9581,-134.0682"/>
<polygon fill="#191970" stroke="#191970" points="952.0561,-130.7444 941.4613,-130.7649 949.7564,-137.3559 952.0561,-130.7444"/>
</g>
<!-- Node40&#45;&gt;Node14 -->
<g id="edge69" class="edge">
<title>Node40&#45;&gt;Node14</title>
<path fill="none" stroke="#191970" d="M1127.2978,-168.4369C1177.9692,-158.7522 1256.357,-143.7703 1310.3181,-133.4569"/>
<polygon fill="#191970" stroke="#191970" points="1311.2678,-136.8388 1320.433,-131.5237 1309.9537,-129.9633 1311.2678,-136.8388"/>
</g>
<!-- Node40&#45;&gt;Node31 -->
<g id="edge62" class="edge">
<title>Node40&#45;&gt;Node31</title>
<path fill="none" stroke="#191970" d="M1084.4448,-168.1114C1092.9296,-155.1617 1105.082,-131.7797 1098.2622,-112 1094.5435,-101.2144 1087.1409,-91.0249 1080.0103,-82.9904"/>
<polygon fill="#191970" stroke="#191970" points="1082.5413,-80.5729 1073.117,-75.7321 1077.4655,-85.3934 1082.5413,-80.5729"/>
</g>
<!-- Node40&#45;&gt;Node38 -->
<g id="edge66" class="edge">
<title>Node40&#45;&gt;Node38</title>
<path fill="none" stroke="#191970" d="M1115.7658,-168.4242C1148.0967,-160.1823 1195.6803,-147.5854 1245.1586,-132.1971"/>
<polygon fill="#191970" stroke="#191970" points="1246.2526,-135.5222 1254.7451,-129.1875 1244.1559,-128.8436 1246.2526,-135.5222"/>
</g>
<!-- Node41 -->
<g id="node41" class="node">
<title>Node41</title>
<g id="a_node41"><a xlink:href="animationentity_8h.html" target="_top" xlink:title=" ">
<polygon fill="#ffffff" stroke="#000000" points="1145.7622,-112.5 1145.7622,-131.5 1236.7622,-131.5 1236.7622,-112.5 1145.7622,-112.5"/>
<text text-anchor="middle" x="1191.2622" y="-119.5" font-family="Helvetica,sans-Serif" font-size="10.00" fill="#000000">animationentity.h</text>
</a>
</g>
</g>
<!-- Node40&#45;&gt;Node41 -->
<g id="edge63" class="edge">
<title>Node40&#45;&gt;Node41</title>
<path fill="none" stroke="#191970" d="M1096.8595,-168.3733C1114.9953,-159.4644 1142.1757,-146.1127 1162.7209,-136.0203"/>
<polygon fill="#191970" stroke="#191970" points="1164.4882,-139.0517 1171.9206,-131.5011 1161.4019,-132.7688 1164.4882,-139.0517"/>
</g>
<!-- Node41&#45;&gt;Node19 -->
<g id="edge64" class="edge">
<title>Node41&#45;&gt;Node19</title>
<path fill="none" stroke="#191970" d="M1236.687,-112.4369C1288.6655,-101.494 1372.7692,-83.788 1420.7089,-73.6954"/>
<polygon fill="#191970" stroke="#191970" points="1421.5861,-77.0876 1430.6505,-71.6025 1420.144,-70.2377 1421.5861,-77.0876"/>
</g>
<!-- Node41&#45;&gt;Node31 -->
<g id="edge65" class="edge">
<title>Node41&#45;&gt;Node31</title>
<path fill="none" stroke="#191970" d="M1169.0863,-112.3733C1148.2856,-103.3435 1116.9705,-89.7494 1093.6164,-79.6111"/>
<polygon fill="#191970" stroke="#191970" points="1094.7154,-76.2727 1084.1487,-75.5011 1091.9279,-82.6938 1094.7154,-76.2727"/>
</g>
<!-- Node42&#45;&gt;Node19 -->
<g id="edge71" class="edge">
<title>Node42&#45;&gt;Node19</title>
<path fill="none" stroke="#191970" d="M1466.4096,-168.4509C1464.7786,-150.184 1461.1868,-109.9553 1459.0209,-85.6976"/>
<polygon fill="#191970" stroke="#191970" points="1462.4882,-85.174 1458.1126,-75.5249 1455.5159,-85.7966 1462.4882,-85.174"/>
</g>
<!-- Node42&#45;&gt;Node38 -->
<g id="edge72" class="edge">
<title>Node42&#45;&gt;Node38</title>
<path fill="none" stroke="#191970" d="M1443.1331,-170.609C1440.149,-169.7183 1437.1378,-168.8307 1434.2622,-168 1379.199,-152.0941 1362.6088,-150.0319 1303.6932,-131.9863"/>
<polygon fill="#191970" stroke="#191970" points="1304.4494,-128.5567 1293.8618,-128.9483 1302.3827,-135.2447 1304.4494,-128.5567"/>
</g>
<!-- Node43&#45;&gt;Node41 -->
<g id="edge74" class="edge">
<title>Node43&#45;&gt;Node41</title>
<path fill="none" stroke="#191970" d="M1346.9438,-168.3733C1315.4116,-158.9807 1267.3001,-144.6496 1232.9121,-134.4064"/>
<polygon fill="#191970" stroke="#191970" points="1233.7419,-131.0016 1223.1588,-131.5011 1231.7435,-137.7103 1233.7419,-131.0016"/>
</g>
<!-- Node44&#45;&gt;Node17 -->
<g id="edge79" class="edge">
<title>Node44&#45;&gt;Node17</title>
<path fill="none" stroke="#191970" d="M1736.1633,-280.2025C1727.8459,-254.3855 1704.5591,-185.2905 1688.2622,-168 1674.3829,-153.2746 1654.7883,-142.6553 1637.0784,-135.3565"/>
<polygon fill="#191970" stroke="#191970" points="1638.0708,-131.9875 1627.4817,-131.6383 1635.5418,-138.5147 1638.0708,-131.9875"/>
</g>
<!-- Node45 -->
<g id="node45" class="node">
<title>Node45</title>
<g id="a_node45"><a xlink:title=" ">
<polygon fill="#ffffff" stroke="#bfbfbf" points="1917.2622,-224.5 1917.2622,-243.5 1997.2622,-243.5 1997.2622,-224.5 1917.2622,-224.5"/>
<text text-anchor="middle" x="1957.2622" y="-231.5" font-family="Helvetica,sans-Serif" font-size="10.00" fill="#000000">QDockWidget</text>
</a>
</g>
</g>
<!-- Node44&#45;&gt;Node45 -->
<g id="edge76" class="edge">
<title>Node44&#45;&gt;Node45</title>
<path fill="none" stroke="#191970" d="M1776.7377,-280.3733C1813.7724,-270.8598 1870.5303,-256.2797 1910.4983,-246.0127"/>
<polygon fill="#191970" stroke="#191970" points="1911.461,-249.3792 1920.2757,-243.5011 1909.7193,-242.5993 1911.461,-249.3792"/>
</g>
<!-- Node46 -->
<g id="node46" class="node">
<title>Node46</title>
<g id="a_node46"><a xlink:title=" ">
<polygon fill="#ffffff" stroke="#bfbfbf" points="1735.7622,-224.5 1735.7622,-243.5 1806.7622,-243.5 1806.7622,-224.5 1735.7622,-224.5"/>
<text text-anchor="middle" x="1771.2622" y="-231.5" font-family="Helvetica,sans-Serif" font-size="10.00" fill="#000000">QListWidget</text>
</a>
</g>
</g>
<!-- Node44&#45;&gt;Node46 -->
<g id="edge77" class="edge">
<title>Node44&#45;&gt;Node46</title>
<path fill="none" stroke="#191970" d="M1744.8362,-280.2455C1749.1953,-272.617 1755.3833,-261.7881 1760.6755,-252.5267"/>
<polygon fill="#191970" stroke="#191970" points="1763.8295,-254.0616 1765.7521,-243.6427 1757.7518,-250.5886 1763.8295,-254.0616"/>
</g>
<!-- Node47 -->
<g id="node47" class="node">
<title>Node47</title>
<g id="a_node47"><a xlink:title=" ">
<polygon fill="#ffffff" stroke="#bfbfbf" points="1825.2622,-224.5 1825.2622,-243.5 1899.2622,-243.5 1899.2622,-224.5 1825.2622,-224.5"/>
<text text-anchor="middle" x="1862.2622" y="-231.5" font-family="Helvetica,sans-Serif" font-size="10.00" fill="#000000">QPushButton</text>
</a>
</g>
</g>
<!-- Node44&#45;&gt;Node47 -->
<g id="edge78" class="edge">
<title>Node44&#45;&gt;Node47</title>
<path fill="none" stroke="#191970" d="M1760.4066,-280.3733C1780.1513,-271.3838 1809.832,-257.8706 1832.0677,-247.7471"/>
<polygon fill="#191970" stroke="#191970" points="1833.7428,-250.8302 1841.3937,-243.5011 1830.8422,-244.4594 1833.7428,-250.8302"/>
</g>
</g>
</svg>
