<?xml version="1.0" encoding="UTF-8" standalone="no"?>
<!DOCTYPE svg PUBLIC "-//W3C//DTD SVG 1.1//EN"
 "http://www.w3.org/Graphics/SVG/1.1/DTD/svg11.dtd">
<!-- Generated by graphviz version 2.40.1 (20161225.0304)
 -->
<!-- Title: src/application_server/client.cpp Pages: 1 -->
<svg width="1335pt" height="431pt"
 viewBox="0.00 0.00 1335.06 431.00" xmlns="http://www.w3.org/2000/svg" xmlns:xlink="http://www.w3.org/1999/xlink">
<g id="graph0" class="graph" transform="scale(1 1) rotate(0) translate(4 427)">
<title>src/application_server/client.cpp</title>
<polygon fill="#ffffff" stroke="transparent" points="-4,4 -4,-427 1331.061,-427 1331.061,4 -4,4"/>
<!-- Node1 -->
<g id="node1" class="node">
<title>Node1</title>
<g id="a_node1"><a xlink:title=" ">
<polygon fill="#bfbfbf" stroke="#000000" points="486.7457,-392.5 486.7457,-422.5 601.7457,-422.5 601.7457,-392.5 486.7457,-392.5"/>
<text text-anchor="start" x="494.7457" y="-410.5" font-family="Helvetica,sans-Serif" font-size="10.00" fill="#000000">src/application_server</text>
<text text-anchor="middle" x="544.2457" y="-399.5" font-family="Helvetica,sans-Serif" font-size="10.00" fill="#000000">/client.cpp</text>
</a>
</g>
</g>
<!-- Node2 -->
<g id="node2" class="node">
<title>Node2</title>
<g id="a_node2"><a xlink:href="client_8h.html" target="_top" xlink:title=" ">
<polygon fill="#ffffff" stroke="#000000" points="487.7457,-336.5 487.7457,-355.5 534.7457,-355.5 534.7457,-336.5 487.7457,-336.5"/>
<text text-anchor="middle" x="511.2457" y="-343.5" font-family="Helvetica,sans-Serif" font-size="10.00" fill="#000000">client.h</text>
</a>
</g>
</g>
<!-- Node1&#45;&gt;Node2 -->
<g id="edge1" class="edge">
<title>Node1&#45;&gt;Node2</title>
<path fill="none" stroke="#191970" d="M536.0884,-392.2977C531.6508,-384.0277 526.1207,-373.7215 521.4053,-364.9339"/>
<polygon fill="#191970" stroke="#191970" points="524.3417,-363.0037 516.5294,-355.8469 518.1736,-366.3134 524.3417,-363.0037"/>
</g>
<!-- Node4 -->
<g id="node4" class="node">
<title>Node4</title>
<g id="a_node4"><a xlink:title=" ">
<polygon fill="#ffffff" stroke="#bfbfbf" points="148.7457,-280.5 148.7457,-299.5 201.7457,-299.5 201.7457,-280.5 148.7457,-280.5"/>
<text text-anchor="middle" x="175.2457" y="-287.5" font-family="Helvetica,sans-Serif" font-size="10.00" fill="#000000">QObject</text>
</a>
</g>
</g>
<!-- Node1&#45;&gt;Node4 -->
<g id="edge63" class="edge">
<title>Node1&#45;&gt;Node4</title>
<path fill="none" stroke="#191970" d="M497.1368,-392.4992C422.6601,-368.7837 279.2761,-323.1262 211.9087,-301.6745"/>
<polygon fill="#191970" stroke="#191970" points="212.745,-298.2677 202.1545,-298.5685 210.6211,-304.9377 212.745,-298.2677"/>
</g>
<!-- Node40 -->
<g id="node40" class="node">
<title>Node40</title>
<g id="a_node40"><a xlink:title=" ">
<polygon fill="#ffffff" stroke="#bfbfbf" points="552.7457,-336.5 552.7457,-355.5 603.7457,-355.5 603.7457,-336.5 552.7457,-336.5"/>
<text text-anchor="middle" x="578.2457" y="-343.5" font-family="Helvetica,sans-Serif" font-size="10.00" fill="#000000">QTimer</text>
</a>
</g>
</g>
<!-- Node1&#45;&gt;Node40 -->
<g id="edge61" class="edge">
<title>Node1&#45;&gt;Node40</title>
<path fill="none" stroke="#191970" d="M552.6502,-392.2977C557.2714,-383.9388 563.0426,-373.4997 567.9346,-364.6509"/>
<polygon fill="#191970" stroke="#191970" points="571.0266,-366.292 572.8019,-355.8469 564.9005,-362.9051 571.0266,-366.292"/>
</g>
<!-- Node41 -->
<g id="node41" class="node">
<title>Node41</title>
<g id="a_node41"><a xlink:title=" ">
<polygon fill="#ffffff" stroke="#bfbfbf" points="622.2457,-336.5 622.2457,-355.5 676.2457,-355.5 676.2457,-336.5 622.2457,-336.5"/>
<text text-anchor="middle" x="649.2457" y="-343.5" font-family="Helvetica,sans-Serif" font-size="10.00" fill="#000000">QDebug</text>
</a>
</g>
</g>
<!-- Node1&#45;&gt;Node41 -->
<g id="edge62" class="edge">
<title>Node1&#45;&gt;Node41</title>
<path fill="none" stroke="#191970" d="M569.9316,-392.4554C586.3754,-382.8241 607.6165,-370.3828 623.978,-360.7996"/>
<polygon fill="#191970" stroke="#191970" points="626.1145,-363.6045 632.9744,-355.5303 622.5767,-357.5643 626.1145,-363.6045"/>
</g>
<!-- Node3 -->
<g id="node3" class="node">
<title>Node3</title>
<g id="a_node3"><a xlink:title=" ">
<polygon fill="#ffffff" stroke="#bfbfbf" points="682.2457,-280.5 682.2457,-299.5 756.2457,-299.5 756.2457,-280.5 682.2457,-280.5"/>
<text text-anchor="middle" x="719.2457" y="-287.5" font-family="Helvetica,sans-Serif" font-size="10.00" fill="#000000">QTcpSocket</text>
</a>
</g>
</g>
<!-- Node2&#45;&gt;Node3 -->
<g id="edge2" class="edge">
<title>Node2&#45;&gt;Node3</title>
<path fill="none" stroke="#191970" d="M535.0077,-338.6842C538.1102,-337.7629 541.2503,-336.8472 544.2457,-336 587.3026,-323.8219 636.6229,-310.9547 671.9068,-301.9355"/>
<polygon fill="#191970" stroke="#191970" points="673.1004,-305.2432 681.9259,-299.3814 671.3712,-298.4602 673.1004,-305.2432"/>
</g>
<!-- Node2&#45;&gt;Node4 -->
<g id="edge3" class="edge">
<title>Node2&#45;&gt;Node4</title>
<path fill="none" stroke="#191970" d="M487.6425,-343.4247C438.1864,-337.8103 319.9554,-323.2466 211.9895,-300.1801"/>
<polygon fill="#191970" stroke="#191970" points="212.4248,-296.6933 201.9103,-297.995 210.9416,-303.5343 212.4248,-296.6933"/>
</g>
<!-- Node5 -->
<g id="node5" class="node">
<title>Node5</title>
<g id="a_node5"><a xlink:title=" ">
<polygon fill="#ffffff" stroke="#bfbfbf" points="774.2457,-280.5 774.2457,-299.5 832.2457,-299.5 832.2457,-280.5 774.2457,-280.5"/>
<text text-anchor="middle" x="803.2457" y="-287.5" font-family="Helvetica,sans-Serif" font-size="10.00" fill="#000000">QThread</text>
</a>
</g>
</g>
<!-- Node2&#45;&gt;Node5 -->
<g id="edge4" class="edge">
<title>Node2&#45;&gt;Node5</title>
<path fill="none" stroke="#191970" d="M534.9372,-338.4098C538.0511,-337.5333 541.2132,-336.7032 544.2457,-336 638.0662,-314.2446 666.1081,-320.2558 763.8524,-300.1316"/>
<polygon fill="#191970" stroke="#191970" points="764.7861,-303.5119 773.8538,-298.0322 763.3481,-296.6612 764.7861,-303.5119"/>
</g>
<!-- Node6 -->
<g id="node6" class="node">
<title>Node6</title>
<g id="a_node6"><a xlink:title=" ">
<polygon fill="#ffffff" stroke="#bfbfbf" points="219.7457,-280.5 219.7457,-299.5 284.7457,-299.5 284.7457,-280.5 219.7457,-280.5"/>
<text text-anchor="middle" x="252.2457" y="-287.5" font-family="Helvetica,sans-Serif" font-size="10.00" fill="#000000">QStringList</text>
</a>
</g>
</g>
<!-- Node2&#45;&gt;Node6 -->
<g id="edge5" class="edge">
<title>Node2&#45;&gt;Node6</title>
<path fill="none" stroke="#191970" d="M487.3438,-340.832C443.488,-331.3497 349.6371,-311.0576 294.7011,-299.1795"/>
<polygon fill="#191970" stroke="#191970" points="295.4308,-295.7565 284.917,-297.0641 293.9515,-302.5984 295.4308,-295.7565"/>
</g>
<!-- Node7 -->
<g id="node7" class="node">
<title>Node7</title>
<g id="a_node7"><a xlink:title=" ">
<polygon fill="#ffffff" stroke="#bfbfbf" points="13.2457,-112.5 13.2457,-131.5 63.2457,-131.5 63.2457,-112.5 13.2457,-112.5"/>
<text text-anchor="middle" x="38.2457" y="-119.5" font-family="Helvetica,sans-Serif" font-size="10.00" fill="#000000">QString</text>
</a>
</g>
</g>
<!-- Node2&#45;&gt;Node7 -->
<g id="edge6" class="edge">
<title>Node2&#45;&gt;Node7</title>
<path fill="none" stroke="#191970" d="M487.6287,-338.3326C426.4892,-318.0383 258.8383,-259.5429 130.2457,-188 103.8216,-173.2989 75.9351,-152.4347 57.8846,-138.1222"/>
<polygon fill="#191970" stroke="#191970" points="59.851,-135.2124 49.8631,-131.6781 55.467,-140.6696 59.851,-135.2124"/>
</g>
<!-- Node8 -->
<g id="node8" class="node">
<title>Node8</title>
<g id="a_node8"><a xlink:href="scene_8h.html" target="_top" xlink:title=" ">
<polygon fill="#ffffff" stroke="#000000" points="826.2457,-224.5 826.2457,-243.5 878.2457,-243.5 878.2457,-224.5 826.2457,-224.5"/>
<text text-anchor="middle" x="852.2457" y="-231.5" font-family="Helvetica,sans-Serif" font-size="10.00" fill="#000000">scene.h</text>
</a>
</g>
</g>
<!-- Node2&#45;&gt;Node8 -->
<g id="edge7" class="edge">
<title>Node2&#45;&gt;Node8</title>
<path fill="none" stroke="#191970" d="M534.9187,-338.2387C560.1435,-329.7335 601.0693,-315.2563 635.2457,-300 652.6734,-292.2203 655.4383,-286.8661 673.2457,-280 721.2024,-261.5091 779.2288,-248.1481 815.946,-240.7369"/>
<polygon fill="#191970" stroke="#191970" points="817.0347,-244.0896 826.1663,-238.717 815.6774,-237.2224 817.0347,-244.0896"/>
</g>
<!-- Node14 -->
<g id="node14" class="node">
<title>Node14</title>
<g id="a_node14"><a xlink:href="maptile_8h.html" target="_top" xlink:title=" ">
<polygon fill="#ffffff" stroke="#000000" points="470.2457,-168.5 470.2457,-187.5 526.2457,-187.5 526.2457,-168.5 470.2457,-168.5"/>
<text text-anchor="middle" x="498.2457" y="-175.5" font-family="Helvetica,sans-Serif" font-size="10.00" fill="#000000">maptile.h</text>
</a>
</g>
</g>
<!-- Node2&#45;&gt;Node14 -->
<g id="edge35" class="edge">
<title>Node2&#45;&gt;Node14</title>
<path fill="none" stroke="#191970" d="M510.5095,-336.4862C508.4545,-309.9293 502.6228,-234.5651 499.8061,-198.1655"/>
<polygon fill="#191970" stroke="#191970" points="503.2674,-197.528 499.0062,-187.8279 496.2882,-198.0681 503.2674,-197.528"/>
</g>
<!-- Node24 -->
<g id="node24" class="node">
<title>Node24</title>
<g id="a_node24"><a xlink:href="datamodel_8h.html" target="_top" xlink:title=" ">
<polygon fill="#ffffff" stroke="#000000" points="620.7457,-168.5 620.7457,-187.5 693.7457,-187.5 693.7457,-168.5 620.7457,-168.5"/>
<text text-anchor="middle" x="657.2457" y="-175.5" font-family="Helvetica,sans-Serif" font-size="10.00" fill="#000000">datamodel.h</text>
</a>
</g>
</g>
<!-- Node2&#45;&gt;Node24 -->
<g id="edge36" class="edge">
<title>Node2&#45;&gt;Node24</title>
<path fill="none" stroke="#191970" d="M518.5869,-336.1984C534.5413,-315.0709 573.8716,-263.9225 610.2457,-224 619.5237,-213.8169 630.4964,-203.0144 639.5054,-194.4384"/>
<polygon fill="#191970" stroke="#191970" points="641.9436,-196.95 646.8249,-187.5466 637.145,-191.8536 641.9436,-196.95"/>
</g>
<!-- Node30 -->
<g id="node30" class="node">
<title>Node30</title>
<g id="a_node30"><a xlink:href="view_8h.html" target="_top" xlink:title=" ">
<polygon fill="#ffffff" stroke="#000000" points="580.7457,-280.5 580.7457,-299.5 625.7457,-299.5 625.7457,-280.5 580.7457,-280.5"/>
<text text-anchor="middle" x="603.2457" y="-287.5" font-family="Helvetica,sans-Serif" font-size="10.00" fill="#000000">view.h</text>
</a>
</g>
</g>
<!-- Node2&#45;&gt;Node30 -->
<g id="edge37" class="edge">
<title>Node2&#45;&gt;Node30</title>
<path fill="none" stroke="#191970" d="M527.2709,-336.2455C541.3865,-327.6534 562.1721,-315.0014 578.4356,-305.1018"/>
<polygon fill="#191970" stroke="#191970" points="580.682,-307.8319 587.4042,-299.6427 577.0423,-301.8525 580.682,-307.8319"/>
</g>
<!-- Node35 -->
<g id="node35" class="node">
<title>Node35</title>
<g id="a_node35"><a xlink:href="maprenderer_8h.html" target="_top" xlink:title=" ">
<polygon fill="#ffffff" stroke="#000000" points="401.2457,-224.5 401.2457,-243.5 483.2457,-243.5 483.2457,-224.5 401.2457,-224.5"/>
<text text-anchor="middle" x="442.2457" y="-231.5" font-family="Helvetica,sans-Serif" font-size="10.00" fill="#000000">maprenderer.h</text>
</a>
</g>
</g>
<!-- Node2&#45;&gt;Node35 -->
<g id="edge46" class="edge">
<title>Node2&#45;&gt;Node35</title>
<path fill="none" stroke="#191970" d="M505.3628,-336.4509C493.8544,-317.7707 468.197,-276.1238 453.3819,-252.0761"/>
<polygon fill="#191970" stroke="#191970" points="456.3389,-250.203 448.1137,-243.5249 450.3791,-253.8747 456.3389,-250.203"/>
</g>
<!-- Node9 -->
<g id="node9" class="node">
<title>Node9</title>
<g id="a_node9"><a xlink:title=" ">
<polygon fill="#ffffff" stroke="#bfbfbf" points="843.2457,-168.5 843.2457,-187.5 937.2457,-187.5 937.2457,-168.5 843.2457,-168.5"/>
<text text-anchor="middle" x="890.2457" y="-175.5" font-family="Helvetica,sans-Serif" font-size="10.00" fill="#000000">QGraphicsScene</text>
</a>
</g>
</g>
<!-- Node8&#45;&gt;Node9 -->
<g id="edge8" class="edge">
<title>Node8&#45;&gt;Node9</title>
<path fill="none" stroke="#191970" d="M858.8648,-224.2455C864.1503,-216.4564 871.6998,-205.3308 878.0695,-195.9439"/>
<polygon fill="#191970" stroke="#191970" points="880.9836,-197.8827 883.7025,-187.6427 875.1912,-193.9522 880.9836,-197.8827"/>
</g>
<!-- Node10 -->
<g id="node10" class="node">
<title>Node10</title>
<g id="a_node10"><a xlink:title=" ">
<polygon fill="#ffffff" stroke="#bfbfbf" points="955.2457,-168.5 955.2457,-187.5 1059.2457,-187.5 1059.2457,-168.5 955.2457,-168.5"/>
<text text-anchor="middle" x="1007.2457" y="-175.5" font-family="Helvetica,sans-Serif" font-size="10.00" fill="#000000">QGraphicsTextItem</text>
</a>
</g>
</g>
<!-- Node8&#45;&gt;Node10 -->
<g id="edge9" class="edge">
<title>Node8&#45;&gt;Node10</title>
<path fill="none" stroke="#191970" d="M878.5393,-224.5004C904.0358,-215.2887 942.9159,-201.2417 971.2715,-190.9971"/>
<polygon fill="#191970" stroke="#191970" points="972.6074,-194.236 980.8231,-187.5462 970.2288,-187.6525 972.6074,-194.236"/>
</g>
<!-- Node11 -->
<g id="node11" class="node">
<title>Node11</title>
<g id="a_node11"><a xlink:title=" ">
<polygon fill="#ffffff" stroke="#bfbfbf" points="1077.7457,-168.5 1077.7457,-187.5 1160.7457,-187.5 1160.7457,-168.5 1077.7457,-168.5"/>
<text text-anchor="middle" x="1119.2457" y="-175.5" font-family="Helvetica,sans-Serif" font-size="10.00" fill="#000000">QGraphicsItem</text>
</a>
</g>
</g>
<!-- Node8&#45;&gt;Node11 -->
<g id="edge10" class="edge">
<title>Node8&#45;&gt;Node11</title>
<path fill="none" stroke="#191970" d="M878.3329,-228.5285C922.0296,-219.3637 1010.7971,-200.7458 1067.5224,-188.8483"/>
<polygon fill="#191970" stroke="#191970" points="1068.3082,-192.2598 1077.3768,-186.7815 1066.8712,-185.4088 1068.3082,-192.2598"/>
</g>
<!-- Node12 -->
<g id="node12" class="node">
<title>Node12</title>
<g id="a_node12"><a xlink:title=" ">
<polygon fill="#ffffff" stroke="#bfbfbf" points="1083.2457,-.5 1083.2457,-19.5 1187.2457,-19.5 1187.2457,-.5 1083.2457,-.5"/>
<text text-anchor="middle" x="1135.2457" y="-7.5" font-family="Helvetica,sans-Serif" font-size="10.00" fill="#000000">QGraphicsRectItem</text>
</a>
</g>
</g>
<!-- Node8&#45;&gt;Node12 -->
<g id="edge11" class="edge">
<title>Node8&#45;&gt;Node12</title>
<path fill="none" stroke="#191970" d="M844.778,-224.3188C834.9473,-210.3209 820.4397,-184.3225 834.2457,-168 896.5312,-94.3614 966.4785,-183.1493 1048.2457,-132 1088.1407,-107.0437 1115.094,-56.4426 1127.4757,-28.8985"/>
<polygon fill="#191970" stroke="#191970" points="1130.7517,-30.1405 1131.5042,-19.5724 1124.3256,-27.3646 1130.7517,-30.1405"/>
</g>
<!-- Node13 -->
<g id="node13" class="node">
<title>Node13</title>
<g id="a_node13"><a xlink:title=" ">
<polygon fill="#ffffff" stroke="#bfbfbf" points="1178.7457,-168.5 1178.7457,-187.5 1291.7457,-187.5 1291.7457,-168.5 1178.7457,-168.5"/>
<text text-anchor="middle" x="1235.2457" y="-175.5" font-family="Helvetica,sans-Serif" font-size="10.00" fill="#000000">QGraphicsEllipseItem</text>
</a>
</g>
</g>
<!-- Node8&#45;&gt;Node13 -->
<g id="edge12" class="edge">
<title>Node8&#45;&gt;Node13</title>
<path fill="none" stroke="#191970" d="M878.6418,-230.2635C931.6071,-222.7486 1054.8643,-205.1722 1168.6105,-188.2352"/>
<polygon fill="#191970" stroke="#191970" points="1169.1555,-191.6928 1178.53,-186.7562 1168.1231,-184.7693 1169.1555,-191.6928"/>
</g>
<!-- Node8&#45;&gt;Node14 -->
<g id="edge13" class="edge">
<title>Node8&#45;&gt;Node14</title>
<path fill="none" stroke="#191970" d="M826.2152,-229.8822C764.4273,-220.1078 608.6914,-195.4716 536.3141,-184.0221"/>
<polygon fill="#191970" stroke="#191970" points="536.6856,-180.5374 526.2615,-182.4319 535.5918,-187.4515 536.6856,-180.5374"/>
</g>
<!-- Node19 -->
<g id="node19" class="node">
<title>Node19</title>
<g id="a_node19"><a xlink:href="graphicsmanager_8h.html" target="_top" xlink:title=" ">
<polygon fill="#ffffff" stroke="#000000" points="420.7457,-112.5 420.7457,-131.5 523.7457,-131.5 523.7457,-112.5 420.7457,-112.5"/>
<text text-anchor="middle" x="472.2457" y="-119.5" font-family="Helvetica,sans-Serif" font-size="10.00" fill="#000000">graphicsmanager.h</text>
</a>
</g>
</g>
<!-- Node8&#45;&gt;Node19 -->
<g id="edge22" class="edge">
<title>Node8&#45;&gt;Node19</title>
<path fill="none" stroke="#191970" d="M826.1368,-231.1748C781.4679,-225.8632 687.88,-212.6412 612.2457,-188 570.6502,-174.4484 525.3389,-151.4402 497.8609,-136.4842"/>
<polygon fill="#191970" stroke="#191970" points="499.3683,-133.3187 488.9206,-131.5586 495.9903,-139.4497 499.3683,-133.3187"/>
</g>
<!-- Node22 -->
<g id="node22" class="node">
<title>Node22</title>
<g id="a_node22"><a xlink:href="player_8h.html" target="_top" xlink:title=" ">
<polygon fill="#ffffff" stroke="#000000" points="1178.2457,-112.5 1178.2457,-131.5 1230.2457,-131.5 1230.2457,-112.5 1178.2457,-112.5"/>
<text text-anchor="middle" x="1204.2457" y="-119.5" font-family="Helvetica,sans-Serif" font-size="10.00" fill="#000000">player.h</text>
</a>
</g>
</g>
<!-- Node8&#45;&gt;Node22 -->
<g id="edge23" class="edge">
<title>Node8&#45;&gt;Node22</title>
<path fill="none" stroke="#191970" d="M878.3493,-233.3194C969.9503,-230.666 1272.7595,-219.5537 1301.2457,-188 1323.8901,-162.9171 1276.4471,-142.626 1240.2477,-131.4502"/>
<polygon fill="#191970" stroke="#191970" points="1240.9852,-128.0186 1230.4034,-128.5434 1239.0028,-134.7321 1240.9852,-128.0186"/>
</g>
<!-- Node23 -->
<g id="node23" class="node">
<title>Node23</title>
<g id="a_node23"><a xlink:href="highlighter_8h.html" target="_top" xlink:title=" ">
<polygon fill="#ffffff" stroke="#000000" points="1169.2457,-56.5 1169.2457,-75.5 1239.2457,-75.5 1239.2457,-56.5 1169.2457,-56.5"/>
<text text-anchor="middle" x="1204.2457" y="-63.5" font-family="Helvetica,sans-Serif" font-size="10.00" fill="#000000">highlighter.h</text>
</a>
</g>
</g>
<!-- Node8&#45;&gt;Node23 -->
<g id="edge26" class="edge">
<title>Node8&#45;&gt;Node23</title>
<path fill="none" stroke="#191970" d="M878.3006,-233.418C971.9596,-231.0608 1287.5957,-220.7278 1317.2457,-188 1352.9857,-148.5499 1278.6217,-102.6387 1234.2185,-80.0389"/>
<polygon fill="#191970" stroke="#191970" points="1235.7612,-76.8972 1225.2485,-75.5809 1232.6458,-83.1658 1235.7612,-76.8972"/>
</g>
<!-- Node8&#45;&gt;Node24 -->
<g id="edge27" class="edge">
<title>Node8&#45;&gt;Node24</title>
<path fill="none" stroke="#191970" d="M825.9471,-226.4476C793.7871,-217.2119 738.9021,-201.45 700.4941,-190.4201"/>
<polygon fill="#191970" stroke="#191970" points="701.1978,-186.9807 690.6202,-187.5845 699.2656,-193.7088 701.1978,-186.9807"/>
</g>
<!-- Node15 -->
<g id="node15" class="node">
<title>Node15</title>
<g id="a_node15"><a xlink:title=" ">
<polygon fill="#ffffff" stroke="#bfbfbf" points="285.7457,-112.5 285.7457,-131.5 402.7457,-131.5 402.7457,-112.5 285.7457,-112.5"/>
<text text-anchor="middle" x="344.2457" y="-119.5" font-family="Helvetica,sans-Serif" font-size="10.00" fill="#000000">QGraphicsPixmapItem</text>
</a>
</g>
</g>
<!-- Node14&#45;&gt;Node15 -->
<g id="edge14" class="edge">
<title>Node14&#45;&gt;Node15</title>
<path fill="none" stroke="#191970" d="M471.7722,-168.3733C446.386,-159.1419 407.8813,-145.1402 379.8237,-134.9375"/>
<polygon fill="#191970" stroke="#191970" points="380.9679,-131.6293 370.3738,-131.5011 378.5756,-138.2079 380.9679,-131.6293"/>
</g>
<!-- Node16 -->
<g id="node16" class="node">
<title>Node16</title>
<g id="a_node16"><a xlink:href="city_8h.html" target="_top" xlink:title=" ">
<polygon fill="#ffffff" stroke="#000000" points="541.7457,-112.5 541.7457,-131.5 580.7457,-131.5 580.7457,-112.5 541.7457,-112.5"/>
<text text-anchor="middle" x="561.2457" y="-119.5" font-family="Helvetica,sans-Serif" font-size="10.00" fill="#000000">city.h</text>
</a>
</g>
</g>
<!-- Node14&#45;&gt;Node16 -->
<g id="edge15" class="edge">
<title>Node14&#45;&gt;Node16</title>
<path fill="none" stroke="#191970" d="M509.2195,-168.2455C518.4339,-160.0549 531.7989,-148.1749 542.6754,-138.5069"/>
<polygon fill="#191970" stroke="#191970" points="545.2489,-140.9023 550.3977,-131.6427 540.5983,-135.6704 545.2489,-140.9023"/>
</g>
<!-- Node14&#45;&gt;Node19 -->
<g id="edge18" class="edge">
<title>Node14&#45;&gt;Node19</title>
<path fill="none" stroke="#191970" d="M493.7169,-168.2455C490.2123,-160.6973 485.253,-150.0158 480.9834,-140.8197"/>
<polygon fill="#191970" stroke="#191970" points="484.1084,-139.2389 476.7227,-131.6427 477.7593,-142.1867 484.1084,-139.2389"/>
</g>
<!-- Node17 -->
<g id="node17" class="node">
<title>Node17</title>
<g id="a_node17"><a xlink:title=" ">
<polygon fill="#ffffff" stroke="#bfbfbf" points="530.7457,-56.5 530.7457,-75.5 571.7457,-75.5 571.7457,-56.5 530.7457,-56.5"/>
<text text-anchor="middle" x="551.2457" y="-63.5" font-family="Helvetica,sans-Serif" font-size="10.00" fill="#000000">string</text>
</a>
</g>
</g>
<!-- Node16&#45;&gt;Node17 -->
<g id="edge16" class="edge">
<title>Node16&#45;&gt;Node17</title>
<path fill="none" stroke="#191970" d="M559.5038,-112.2455C558.199,-104.9382 556.3697,-94.6944 554.7644,-85.7046"/>
<polygon fill="#191970" stroke="#191970" points="558.1711,-84.8717 552.9676,-75.6427 551.2801,-86.1022 558.1711,-84.8717"/>
</g>
<!-- Node18 -->
<g id="node18" class="node">
<title>Node18</title>
<g id="a_node18"><a xlink:title=" ">
<polygon fill="#ffffff" stroke="#bfbfbf" points="590.2457,-56.5 590.2457,-75.5 634.2457,-75.5 634.2457,-56.5 590.2457,-56.5"/>
<text text-anchor="middle" x="612.2457" y="-63.5" font-family="Helvetica,sans-Serif" font-size="10.00" fill="#000000">vector</text>
</a>
</g>
</g>
<!-- Node16&#45;&gt;Node18 -->
<g id="edge17" class="edge">
<title>Node16&#45;&gt;Node18</title>
<path fill="none" stroke="#191970" d="M570.1292,-112.2455C577.4423,-104.2155 587.9848,-92.6394 596.6924,-83.0781"/>
<polygon fill="#191970" stroke="#191970" points="599.3184,-85.3928 603.464,-75.6427 594.1429,-80.6795 599.3184,-85.3928"/>
</g>
<!-- Node19&#45;&gt;Node17 -->
<g id="edge21" class="edge">
<title>Node19&#45;&gt;Node17</title>
<path fill="none" stroke="#191970" d="M486.0065,-112.2455C497.9009,-103.814 515.3107,-91.4729 529.1543,-81.6598"/>
<polygon fill="#191970" stroke="#191970" points="531.5085,-84.2811 537.6426,-75.6427 527.4603,-78.5704 531.5085,-84.2811"/>
</g>
<!-- Node20 -->
<g id="node20" class="node">
<title>Node20</title>
<g id="a_node20"><a xlink:title=" ">
<polygon fill="#ffffff" stroke="#bfbfbf" points="443.2457,-56.5 443.2457,-75.5 501.2457,-75.5 501.2457,-56.5 443.2457,-56.5"/>
<text text-anchor="middle" x="472.2457" y="-63.5" font-family="Helvetica,sans-Serif" font-size="10.00" fill="#000000">QPixmap</text>
</a>
</g>
</g>
<!-- Node19&#45;&gt;Node20 -->
<g id="edge19" class="edge">
<title>Node19&#45;&gt;Node20</title>
<path fill="none" stroke="#191970" d="M472.2457,-112.2455C472.2457,-104.9382 472.2457,-94.6944 472.2457,-85.7046"/>
<polygon fill="#191970" stroke="#191970" points="475.7458,-85.6426 472.2457,-75.6427 468.7458,-85.6427 475.7458,-85.6426"/>
</g>
<!-- Node21 -->
<g id="node21" class="node">
<title>Node21</title>
<g id="a_node21"><a xlink:title=" ">
<polygon fill="#ffffff" stroke="#bfbfbf" points="255.7457,-56.5 255.7457,-75.5 308.7457,-75.5 308.7457,-56.5 255.7457,-56.5"/>
<text text-anchor="middle" x="282.2457" y="-63.5" font-family="Helvetica,sans-Serif" font-size="10.00" fill="#000000">QImage</text>
</a>
</g>
</g>
<!-- Node19&#45;&gt;Node21 -->
<g id="edge20" class="edge">
<title>Node19&#45;&gt;Node21</title>
<path fill="none" stroke="#191970" d="M439.5835,-112.3733C405.9776,-102.4684 353.7384,-87.0715 318.7804,-76.7681"/>
<polygon fill="#191970" stroke="#191970" points="319.5494,-73.346 308.9678,-73.876 317.5704,-80.0604 319.5494,-73.346"/>
</g>
<!-- Node22&#45;&gt;Node23 -->
<g id="edge24" class="edge">
<title>Node22&#45;&gt;Node23</title>
<path fill="none" stroke="#191970" d="M1204.2457,-112.2455C1204.2457,-104.9382 1204.2457,-94.6944 1204.2457,-85.7046"/>
<polygon fill="#191970" stroke="#191970" points="1207.7458,-85.6426 1204.2457,-75.6427 1200.7458,-85.6427 1207.7458,-85.6426"/>
</g>
<!-- Node23&#45;&gt;Node12 -->
<g id="edge25" class="edge">
<title>Node23&#45;&gt;Node12</title>
<path fill="none" stroke="#191970" d="M1192.2268,-56.2455C1182.0359,-47.9746 1167.2095,-35.9416 1155.235,-26.2232"/>
<polygon fill="#191970" stroke="#191970" points="1157.0971,-23.2268 1147.1269,-19.6427 1152.6859,-28.662 1157.0971,-23.2268"/>
</g>
<!-- Node24&#45;&gt;Node17 -->
<g id="edge28" class="edge">
<title>Node24&#45;&gt;Node17</title>
<path fill="none" stroke="#191970" d="M661.9872,-168.0922C667.8369,-154.2791 675.6926,-129.0188 664.2457,-112 659.3522,-104.7246 613.5158,-87.6167 581.7471,-76.4392"/>
<polygon fill="#191970" stroke="#191970" points="582.5915,-73.0269 571.9966,-73.0385 580.2862,-79.6365 582.5915,-73.0269"/>
</g>
<!-- Node24&#45;&gt;Node22 -->
<g id="edge34" class="edge">
<title>Node24&#45;&gt;Node22</title>
<path fill="none" stroke="#191970" d="M693.8285,-169.624C697.0046,-169.0254 700.1763,-168.4727 703.2457,-168 793.2014,-154.1459 1068.7251,-132.3627 1168.0628,-124.7421"/>
<polygon fill="#191970" stroke="#191970" points="1168.4984,-128.2191 1178.2023,-123.9665 1167.9645,-121.2394 1168.4984,-128.2191"/>
</g>
<!-- Node25 -->
<g id="node25" class="node">
<title>Node25</title>
<g id="a_node25"><a xlink:title=" ">
<polygon fill="#ffffff" stroke="#bfbfbf" points="809.7457,-112.5 809.7457,-131.5 858.7457,-131.5 858.7457,-112.5 809.7457,-112.5"/>
<text text-anchor="middle" x="834.2457" y="-119.5" font-family="Helvetica,sans-Serif" font-size="10.00" fill="#000000">QLabel</text>
</a>
</g>
</g>
<!-- Node24&#45;&gt;Node25 -->
<g id="edge29" class="edge">
<title>Node24&#45;&gt;Node25</title>
<path fill="none" stroke="#191970" d="M687.6731,-168.3733C718.9348,-158.4825 767.5055,-143.1156 800.0708,-132.8124"/>
<polygon fill="#191970" stroke="#191970" points="801.1482,-136.1426 809.6266,-129.7891 799.0366,-129.4687 801.1482,-136.1426"/>
</g>
<!-- Node26 -->
<g id="node26" class="node">
<title>Node26</title>
<g id="a_node26"><a xlink:title=" ">
<polygon fill="#ffffff" stroke="#bfbfbf" points="599.2457,-112.5 599.2457,-131.5 655.2457,-131.5 655.2457,-112.5 599.2457,-112.5"/>
<text text-anchor="middle" x="627.2457" y="-119.5" font-family="Helvetica,sans-Serif" font-size="10.00" fill="#000000">QWidget</text>
</a>
</g>
</g>
<!-- Node24&#45;&gt;Node26 -->
<g id="edge30" class="edge">
<title>Node24&#45;&gt;Node26</title>
<path fill="none" stroke="#191970" d="M652.0201,-168.2455C647.9334,-160.617 642.1322,-149.7881 637.1707,-140.5267"/>
<polygon fill="#191970" stroke="#191970" points="640.2189,-138.8047 632.4114,-131.6427 634.0485,-142.1103 640.2189,-138.8047"/>
</g>
<!-- Node27 -->
<g id="node27" class="node">
<title>Node27</title>
<g id="a_node27"><a xlink:href="mainwindow_8h.html" target="_top" xlink:title=" ">
<polygon fill="#ffffff" stroke="#000000" points="711.2457,-112.5 711.2457,-131.5 791.2457,-131.5 791.2457,-112.5 711.2457,-112.5"/>
<text text-anchor="middle" x="751.2457" y="-119.5" font-family="Helvetica,sans-Serif" font-size="10.00" fill="#000000">mainwindow.h</text>
</a>
</g>
</g>
<!-- Node24&#45;&gt;Node27 -->
<g id="edge31" class="edge">
<title>Node24&#45;&gt;Node27</title>
<path fill="none" stroke="#191970" d="M673.6193,-168.2455C688.1765,-159.5731 709.6767,-146.7645 726.3609,-136.825"/>
<polygon fill="#191970" stroke="#191970" points="728.2601,-139.7676 735.0598,-131.6427 724.6774,-133.7539 728.2601,-139.7676"/>
</g>
<!-- Node28 -->
<g id="node28" class="node">
<title>Node28</title>
<g id="a_node28"><a xlink:title=" ">
<polygon fill="#ffffff" stroke="#bfbfbf" points="681.7457,-56.5 681.7457,-75.5 764.7457,-75.5 764.7457,-56.5 681.7457,-56.5"/>
<text text-anchor="middle" x="723.2457" y="-63.5" font-family="Helvetica,sans-Serif" font-size="10.00" fill="#000000">QMainWindow</text>
</a>
</g>
</g>
<!-- Node27&#45;&gt;Node28 -->
<g id="edge32" class="edge">
<title>Node27&#45;&gt;Node28</title>
<path fill="none" stroke="#191970" d="M746.3685,-112.2455C742.5944,-104.6973 737.2536,-94.0158 732.6556,-84.8197"/>
<polygon fill="#191970" stroke="#191970" points="735.6697,-83.0217 728.067,-75.6427 729.4087,-86.1522 735.6697,-83.0217"/>
</g>
<!-- Node29 -->
<g id="node29" class="node">
<title>Node29</title>
<g id="a_node29"><a xlink:title=" ">
<polygon fill="#ffffff" stroke="#bfbfbf" points="782.7457,-56.5 782.7457,-75.5 849.7457,-75.5 849.7457,-56.5 782.7457,-56.5"/>
<text text-anchor="middle" x="816.2457" y="-63.5" font-family="Helvetica,sans-Serif" font-size="10.00" fill="#000000">QKeyEvent</text>
</a>
</g>
</g>
<!-- Node27&#45;&gt;Node29 -->
<g id="edge33" class="edge">
<title>Node27&#45;&gt;Node29</title>
<path fill="none" stroke="#191970" d="M762.5678,-112.2455C772.168,-103.9746 786.1349,-91.9416 797.4152,-82.2232"/>
<polygon fill="#191970" stroke="#191970" points="799.7617,-84.8214 805.0533,-75.6427 795.1927,-79.5182 799.7617,-84.8214"/>
</g>
<!-- Node30&#45;&gt;Node8 -->
<g id="edge39" class="edge">
<title>Node30&#45;&gt;Node8</title>
<path fill="none" stroke="#191970" d="M625.8974,-283.6845C630.6274,-282.4201 635.5907,-281.1333 640.2457,-280 701.7722,-265.0206 773.9289,-249.8749 816.2119,-241.2429"/>
<polygon fill="#191970" stroke="#191970" points="816.9371,-244.6671 826.0389,-239.2443 815.542,-237.8075 816.9371,-244.6671"/>
</g>
<!-- Node30&#45;&gt;Node24 -->
<g id="edge40" class="edge">
<title>Node30&#45;&gt;Node24</title>
<path fill="none" stroke="#191970" d="M605.114,-280.2094C607.8824,-266.9649 613.7894,-242.8313 623.2457,-224 628.3393,-213.8565 635.6621,-203.601 642.2082,-195.3556"/>
<polygon fill="#191970" stroke="#191970" points="644.9592,-197.5208 648.6227,-187.5795 639.5593,-193.0664 644.9592,-197.5208"/>
</g>
<!-- Node31 -->
<g id="node31" class="node">
<title>Node31</title>
<g id="a_node31"><a xlink:title=" ">
<polygon fill="#ffffff" stroke="#bfbfbf" points="631.7457,-224.5 631.7457,-243.5 718.7457,-243.5 718.7457,-224.5 631.7457,-224.5"/>
<text text-anchor="middle" x="675.2457" y="-231.5" font-family="Helvetica,sans-Serif" font-size="10.00" fill="#000000">QGraphicsView</text>
</a>
</g>
</g>
<!-- Node30&#45;&gt;Node31 -->
<g id="edge38" class="edge">
<title>Node30&#45;&gt;Node31</title>
<path fill="none" stroke="#191970" d="M615.7871,-280.2455C626.5244,-271.8943 642.193,-259.7076 654.7504,-249.9408"/>
<polygon fill="#191970" stroke="#191970" points="657.1032,-252.5449 662.848,-243.6427 652.8056,-247.0194 657.1032,-252.5449"/>
</g>
<!-- Node32 -->
<g id="node32" class="node">
<title>Node32</title>
<g id="a_node32"><a xlink:href="tooltipmenu_8h.html" target="_top" xlink:title=" ">
<polygon fill="#ffffff" stroke="#000000" points="711.7457,-168.5 711.7457,-187.5 786.7457,-187.5 786.7457,-168.5 711.7457,-168.5"/>
<text text-anchor="middle" x="749.2457" y="-175.5" font-family="Helvetica,sans-Serif" font-size="10.00" fill="#000000">tooltipmenu.h</text>
</a>
</g>
</g>
<!-- Node30&#45;&gt;Node32 -->
<g id="edge41" class="edge">
<title>Node30&#45;&gt;Node32</title>
<path fill="none" stroke="#191970" d="M625.8795,-282.8662C659.868,-271.977 720.9136,-251.6664 728.2457,-244 740.1667,-231.5355 745.3217,-212.3188 747.5502,-197.8295"/>
<polygon fill="#191970" stroke="#191970" points="751.0299,-198.2072 748.7476,-187.8612 744.0799,-197.3724 751.0299,-198.2072"/>
</g>
<!-- Node32&#45;&gt;Node25 -->
<g id="edge43" class="edge">
<title>Node32&#45;&gt;Node25</title>
<path fill="none" stroke="#191970" d="M764.0516,-168.2455C776.9713,-159.7337 795.9388,-147.2375 810.9009,-137.3801"/>
<polygon fill="#191970" stroke="#191970" points="813.1844,-140.067 819.6095,-131.6427 809.3333,-134.2216 813.1844,-140.067"/>
</g>
<!-- Node32&#45;&gt;Node26 -->
<g id="edge42" class="edge">
<title>Node32&#45;&gt;Node26</title>
<path fill="none" stroke="#191970" d="M728.2732,-168.3733C708.689,-159.3838 679.2496,-145.8706 657.1947,-135.7471"/>
<polygon fill="#191970" stroke="#191970" points="658.493,-132.4919 647.9446,-131.5011 655.5728,-138.8538 658.493,-132.4919"/>
</g>
<!-- Node33 -->
<g id="node33" class="node">
<title>Node33</title>
<g id="a_node33"><a xlink:title=" ">
<polygon fill="#ffffff" stroke="#bfbfbf" points="877.2457,-112.5 877.2457,-131.5 947.2457,-131.5 947.2457,-112.5 877.2457,-112.5"/>
<text text-anchor="middle" x="912.2457" y="-119.5" font-family="Helvetica,sans-Serif" font-size="10.00" fill="#000000">QGroupBox</text>
</a>
</g>
</g>
<!-- Node32&#45;&gt;Node33 -->
<g id="edge44" class="edge">
<title>Node32&#45;&gt;Node33</title>
<path fill="none" stroke="#191970" d="M777.2664,-168.3733C804.2535,-159.1016 845.2474,-145.0178 874.9768,-134.804"/>
<polygon fill="#191970" stroke="#191970" points="876.2705,-138.0605 884.5907,-131.5011 873.996,-131.4403 876.2705,-138.0605"/>
</g>
<!-- Node34 -->
<g id="node34" class="node">
<title>Node34</title>
<g id="a_node34"><a xlink:title=" ">
<polygon fill="#ffffff" stroke="#bfbfbf" points="965.2457,-112.5 965.2457,-131.5 1039.2457,-131.5 1039.2457,-112.5 965.2457,-112.5"/>
<text text-anchor="middle" x="1002.2457" y="-119.5" font-family="Helvetica,sans-Serif" font-size="10.00" fill="#000000">QGridLayout</text>
</a>
</g>
</g>
<!-- Node32&#45;&gt;Node34 -->
<g id="edge45" class="edge">
<title>Node32&#45;&gt;Node34</title>
<path fill="none" stroke="#191970" d="M786.8492,-169.6767C831.5711,-159.7778 906.267,-143.2443 954.8892,-132.4821"/>
<polygon fill="#191970" stroke="#191970" points="955.8415,-135.8561 964.8488,-130.2776 954.3287,-129.0215 955.8415,-135.8561"/>
</g>
<!-- Node35&#45;&gt;Node14 -->
<g id="edge51" class="edge">
<title>Node35&#45;&gt;Node14</title>
<path fill="none" stroke="#191970" d="M452.0002,-224.2455C460.1105,-216.1352 471.8382,-204.4075 481.4538,-194.7919"/>
<polygon fill="#191970" stroke="#191970" points="484.0068,-197.1887 488.603,-187.6427 479.0571,-192.2389 484.0068,-197.1887"/>
</g>
<!-- Node35&#45;&gt;Node19 -->
<g id="edge49" class="edge">
<title>Node35&#45;&gt;Node19</title>
<path fill="none" stroke="#191970" d="M444.8035,-224.4509C449.7186,-206.1013 460.5696,-165.5908 467.0575,-141.3693"/>
<polygon fill="#191970" stroke="#191970" points="470.4878,-142.09 469.6944,-131.5249 463.7261,-140.2788 470.4878,-142.09"/>
</g>
<!-- Node35&#45;&gt;Node24 -->
<g id="edge50" class="edge">
<title>Node35&#45;&gt;Node24</title>
<path fill="none" stroke="#191970" d="M479.2055,-224.3733C515.6532,-214.8799 571.4703,-200.3415 610.8746,-190.0781"/>
<polygon fill="#191970" stroke="#191970" points="611.9733,-193.4087 620.7682,-187.5011 610.2088,-186.6348 611.9733,-193.4087"/>
</g>
<!-- Node35&#45;&gt;Node26 -->
<g id="edge47" class="edge">
<title>Node35&#45;&gt;Node26</title>
<path fill="none" stroke="#191970" d="M464.1993,-224.3722C483.3884,-215.6699 511.7735,-202.0961 535.2457,-188 561.0238,-172.5191 588.8436,-151.9738 607.0612,-137.9439"/>
<polygon fill="#191970" stroke="#191970" points="609.4353,-140.5315 615.182,-131.6305 605.1389,-135.005 609.4353,-140.5315"/>
</g>
<!-- Node36 -->
<g id="node36" class="node">
<title>Node36</title>
<g id="a_node36"><a xlink:title=" ">
<polygon fill="#ffffff" stroke="#bfbfbf" points="228.7457,-112.5 228.7457,-131.5 267.7457,-131.5 267.7457,-112.5 228.7457,-112.5"/>
<text text-anchor="middle" x="248.2457" y="-119.5" font-family="Helvetica,sans-Serif" font-size="10.00" fill="#000000">QList</text>
</a>
</g>
</g>
<!-- Node35&#45;&gt;Node36 -->
<g id="edge48" class="edge">
<title>Node35&#45;&gt;Node36</title>
<path fill="none" stroke="#191970" d="M425.7054,-224.4509C391.702,-204.8201 313.7656,-159.8259 273.4436,-136.5472"/>
<polygon fill="#191970" stroke="#191970" points="275.1545,-133.4936 264.7442,-131.5249 271.6546,-139.5559 275.1545,-133.4936"/>
</g>
<!-- Node37 -->
<g id="node37" class="node">
<title>Node37</title>
<g id="a_node37"><a xlink:href="point_8h.html" target="_top" xlink:title=" ">
<polygon fill="#ffffff" stroke="#000000" points="68.7457,-56.5 68.7457,-75.5 113.7457,-75.5 113.7457,-56.5 68.7457,-56.5"/>
<text text-anchor="middle" x="91.2457" y="-63.5" font-family="Helvetica,sans-Serif" font-size="10.00" fill="#000000">point.h</text>
</a>
</g>
</g>
<!-- Node35&#45;&gt;Node37 -->
<g id="edge52" class="edge">
<title>Node35&#45;&gt;Node37</title>
<path fill="none" stroke="#191970" d="M401.1132,-231.377C300.6284,-223.9602 47.6947,-198.8576 4.2457,-132 -12.6736,-105.9652 27.6624,-86.2295 58.9204,-75.3887"/>
<polygon fill="#191970" stroke="#191970" points="60.2594,-78.6329 68.6661,-72.1848 58.0732,-71.983 60.2594,-78.6329"/>
</g>
<!-- Node38 -->
<g id="node38" class="node">
<title>Node38</title>
<g id="a_node38"><a xlink:href="animationmovement_8h.html" target="_top" xlink:title=" ">
<polygon fill="#ffffff" stroke="#000000" points="139.7457,-168.5 139.7457,-187.5 254.7457,-187.5 254.7457,-168.5 139.7457,-168.5"/>
<text text-anchor="middle" x="197.2457" y="-175.5" font-family="Helvetica,sans-Serif" font-size="10.00" fill="#000000">animationmovement.h</text>
</a>
</g>
</g>
<!-- Node35&#45;&gt;Node38 -->
<g id="edge53" class="edge">
<title>Node35&#45;&gt;Node38</title>
<path fill="none" stroke="#191970" d="M401.2382,-224.6269C359.4458,-215.0743 294.4938,-200.2281 249.143,-189.8622"/>
<polygon fill="#191970" stroke="#191970" points="249.7367,-186.4077 239.2082,-187.5914 248.1769,-193.2318 249.7367,-186.4077"/>
</g>
<!-- Node38&#45;&gt;Node7 -->
<g id="edge59" class="edge">
<title>Node38&#45;&gt;Node7</title>
<path fill="none" stroke="#191970" d="M169.9126,-168.3733C143.1463,-158.9461 102.2547,-144.544 73.1502,-134.2934"/>
<polygon fill="#191970" stroke="#191970" points="73.9845,-130.8766 63.3897,-130.8557 71.6591,-137.479 73.9845,-130.8766"/>
</g>
<!-- Node38&#45;&gt;Node15 -->
<g id="edge60" class="edge">
<title>Node38&#45;&gt;Node15</title>
<path fill="none" stroke="#191970" d="M222.5159,-168.3733C246.6423,-159.1822 283.1819,-145.2624 309.9334,-135.0713"/>
<polygon fill="#191970" stroke="#191970" points="311.2064,-138.3318 319.3053,-131.5011 308.7144,-131.7904 311.2064,-138.3318"/>
</g>
<!-- Node38&#45;&gt;Node36 -->
<g id="edge58" class="edge">
<title>Node38&#45;&gt;Node36</title>
<path fill="none" stroke="#191970" d="M206.1292,-168.2455C213.4423,-160.2155 223.9848,-148.6394 232.6924,-139.0781"/>
<polygon fill="#191970" stroke="#191970" points="235.3184,-141.3928 239.464,-131.6427 230.1429,-136.6795 235.3184,-141.3928"/>
</g>
<!-- Node38&#45;&gt;Node37 -->
<g id="edge54" class="edge">
<title>Node38&#45;&gt;Node37</title>
<path fill="none" stroke="#191970" d="M165.7947,-168.3973C147.1543,-161.1859 124.4682,-149.5029 110.2457,-132 99.5658,-118.8567 94.8881,-99.9818 92.8398,-85.7808"/>
<polygon fill="#191970" stroke="#191970" points="96.2899,-85.14 91.6964,-75.5928 89.3336,-85.9208 96.2899,-85.14"/>
</g>
<!-- Node39 -->
<g id="node39" class="node">
<title>Node39</title>
<g id="a_node39"><a xlink:href="animationentity_8h.html" target="_top" xlink:title=" ">
<polygon fill="#ffffff" stroke="#000000" points="119.7457,-112.5 119.7457,-131.5 210.7457,-131.5 210.7457,-112.5 119.7457,-112.5"/>
<text text-anchor="middle" x="165.2457" y="-119.5" font-family="Helvetica,sans-Serif" font-size="10.00" fill="#000000">animationentity.h</text>
</a>
</g>
</g>
<!-- Node38&#45;&gt;Node39 -->
<g id="edge55" class="edge">
<title>Node38&#45;&gt;Node39</title>
<path fill="none" stroke="#191970" d="M191.6717,-168.2455C187.3126,-160.617 181.1246,-149.7881 175.8324,-140.5267"/>
<polygon fill="#191970" stroke="#191970" points="178.7561,-138.5886 170.7558,-131.6427 172.6784,-142.0616 178.7561,-138.5886"/>
</g>
<!-- Node39&#45;&gt;Node21 -->
<g id="edge56" class="edge">
<title>Node39&#45;&gt;Node21</title>
<path fill="none" stroke="#191970" d="M185.3587,-112.3733C204.056,-103.4241 232.1201,-89.9917 253.2391,-79.8835"/>
<polygon fill="#191970" stroke="#191970" points="254.8862,-82.9755 262.3951,-75.5011 251.864,-76.6614 254.8862,-82.9755"/>
</g>
<!-- Node39&#45;&gt;Node37 -->
<g id="edge57" class="edge">
<title>Node39&#45;&gt;Node37</title>
<path fill="none" stroke="#191970" d="M152.3559,-112.2455C141.3203,-103.8943 125.2165,-91.7076 112.3104,-81.9408"/>
<polygon fill="#191970" stroke="#191970" points="114.074,-78.8862 103.9878,-75.6427 109.8498,-84.4681 114.074,-78.8862"/>
</g>
</g>
</svg>
