<?xml version="1.0" encoding="UTF-8" standalone="no"?>
<!DOCTYPE svg PUBLIC "-//W3C//DTD SVG 1.1//EN"
 "http://www.w3.org/Graphics/SVG/1.1/DTD/svg11.dtd">
<!-- Generated by graphviz version 2.40.1 (20161225.0304)
 -->
<!-- Title: src/application_server/client.h Pages: 1 -->
<svg width="1332pt" height="375pt"
 viewBox="0.00 0.00 1332.39 375.00" xmlns="http://www.w3.org/2000/svg" xmlns:xlink="http://www.w3.org/1999/xlink">
<g id="graph0" class="graph" transform="scale(1 1) rotate(0) translate(4 371)">
<title>src/application_server/client.h</title>
<polygon fill="#ffffff" stroke="transparent" points="-4,4 -4,-371 1328.3884,-371 1328.3884,4 -4,4"/>
<!-- Node1 -->
<g id="node1" class="node">
<title>Node1</title>
<g id="a_node1"><a xlink:title=" ">
<polygon fill="#bfbfbf" stroke="#000000" points="298.8884,-336.5 298.8884,-366.5 413.8884,-366.5 413.8884,-336.5 298.8884,-336.5"/>
<text text-anchor="start" x="306.8884" y="-354.5" font-family="Helvetica,sans-Serif" font-size="10.00" fill="#000000">src/application_server</text>
<text text-anchor="middle" x="356.3884" y="-343.5" font-family="Helvetica,sans-Serif" font-size="10.00" fill="#000000">/client.h</text>
</a>
</g>
</g>
<!-- Node2 -->
<g id="node2" class="node">
<title>Node2</title>
<g id="a_node2"><a xlink:title=" ">
<polygon fill="#ffffff" stroke="#bfbfbf" points="3.3884,-280.5 3.3884,-299.5 77.3884,-299.5 77.3884,-280.5 3.3884,-280.5"/>
<text text-anchor="middle" x="40.3884" y="-287.5" font-family="Helvetica,sans-Serif" font-size="10.00" fill="#000000">QTcpSocket</text>
</a>
</g>
</g>
<!-- Node1&#45;&gt;Node2 -->
<g id="edge1" class="edge">
<title>Node1&#45;&gt;Node2</title>
<path fill="none" stroke="#191970" d="M298.6312,-340.9256C246.1494,-331.2167 166.3242,-316.2002 87.6186,-300.2152"/>
<polygon fill="#191970" stroke="#191970" points="88.0258,-296.7263 77.5283,-298.1592 86.6281,-303.5854 88.0258,-296.7263"/>
</g>
<!-- Node3 -->
<g id="node3" class="node">
<title>Node3</title>
<g id="a_node3"><a xlink:title=" ">
<polygon fill="#ffffff" stroke="#bfbfbf" points="95.8884,-280.5 95.8884,-299.5 148.8884,-299.5 148.8884,-280.5 95.8884,-280.5"/>
<text text-anchor="middle" x="122.3884" y="-287.5" font-family="Helvetica,sans-Serif" font-size="10.00" fill="#000000">QObject</text>
</a>
</g>
</g>
<!-- Node1&#45;&gt;Node3 -->
<g id="edge2" class="edge">
<title>Node1&#45;&gt;Node3</title>
<path fill="none" stroke="#191970" d="M298.706,-336.7641C261.4876,-327.1943 211.7864,-314.3009 159.0011,-300.1351"/>
<polygon fill="#191970" stroke="#191970" points="159.6772,-296.6927 149.1114,-297.4758 157.8594,-303.4525 159.6772,-296.6927"/>
</g>
<!-- Node4 -->
<g id="node4" class="node">
<title>Node4</title>
<g id="a_node4"><a xlink:title=" ">
<polygon fill="#ffffff" stroke="#bfbfbf" points="167.3884,-280.5 167.3884,-299.5 225.3884,-299.5 225.3884,-280.5 167.3884,-280.5"/>
<text text-anchor="middle" x="196.3884" y="-287.5" font-family="Helvetica,sans-Serif" font-size="10.00" fill="#000000">QThread</text>
</a>
</g>
</g>
<!-- Node1&#45;&gt;Node4 -->
<g id="edge3" class="edge">
<title>Node1&#45;&gt;Node4</title>
<path fill="none" stroke="#191970" d="M317.248,-336.4554C290.7858,-326.284 256.1704,-312.9787 230.7701,-303.2155"/>
<polygon fill="#191970" stroke="#191970" points="231.7727,-299.8512 221.1828,-299.5303 229.2612,-306.3852 231.7727,-299.8512"/>
</g>
<!-- Node5 -->
<g id="node5" class="node">
<title>Node5</title>
<g id="a_node5"><a xlink:title=" ">
<polygon fill="#ffffff" stroke="#bfbfbf" points="243.8884,-280.5 243.8884,-299.5 308.8884,-299.5 308.8884,-280.5 243.8884,-280.5"/>
<text text-anchor="middle" x="276.3884" y="-287.5" font-family="Helvetica,sans-Serif" font-size="10.00" fill="#000000">QStringList</text>
</a>
</g>
</g>
<!-- Node1&#45;&gt;Node5 -->
<g id="edge4" class="edge">
<title>Node1&#45;&gt;Node5</title>
<path fill="none" stroke="#191970" d="M336.6132,-336.2977C324.6986,-327.1384 309.5353,-315.4816 297.4046,-306.1562"/>
<polygon fill="#191970" stroke="#191970" points="299.2587,-303.1668 289.1975,-299.8469 294.9924,-308.7165 299.2587,-303.1668"/>
</g>
<!-- Node6 -->
<g id="node6" class="node">
<title>Node6</title>
<g id="a_node6"><a xlink:title=" ">
<polygon fill="#ffffff" stroke="#bfbfbf" points="14.3884,-112.5 14.3884,-131.5 64.3884,-131.5 64.3884,-112.5 14.3884,-112.5"/>
<text text-anchor="middle" x="39.3884" y="-119.5" font-family="Helvetica,sans-Serif" font-size="10.00" fill="#000000">QString</text>
</a>
</g>
</g>
<!-- Node1&#45;&gt;Node6 -->
<g id="edge5" class="edge">
<title>Node1&#45;&gt;Node6</title>
<path fill="none" stroke="#191970" d="M351.2873,-336.3488C345.3115,-320.5503 334.0588,-295.9153 317.3884,-280 249.8156,-215.4879 208.2507,-236.4761 128.3884,-188 103.2341,-172.7314 76.3637,-152.1447 58.8094,-138.047"/>
<polygon fill="#191970" stroke="#191970" points="60.9586,-135.2837 50.9885,-131.6993 56.5473,-140.7188 60.9586,-135.2837"/>
</g>
<!-- Node7 -->
<g id="node7" class="node">
<title>Node7</title>
<g id="a_node7"><a xlink:href="scene_8h.html" target="_top" xlink:title=" ">
<polygon fill="#ffffff" stroke="#000000" points="858.3884,-224.5 858.3884,-243.5 910.3884,-243.5 910.3884,-224.5 858.3884,-224.5"/>
<text text-anchor="middle" x="884.3884" y="-231.5" font-family="Helvetica,sans-Serif" font-size="10.00" fill="#000000">scene.h</text>
</a>
</g>
</g>
<!-- Node1&#45;&gt;Node7 -->
<g id="edge6" class="edge">
<title>Node1&#45;&gt;Node7</title>
<path fill="none" stroke="#191970" d="M414.0618,-347.1986C485.3065,-340.9709 609.7915,-327.0946 713.3884,-300 764.5259,-286.6256 821.2934,-262.8212 854.8563,-247.7522"/>
<polygon fill="#191970" stroke="#191970" points="856.4287,-250.8823 864.0894,-243.5635 853.5367,-244.5076 856.4287,-250.8823"/>
</g>
<!-- Node13 -->
<g id="node13" class="node">
<title>Node13</title>
<g id="a_node13"><a xlink:href="maptile_8h.html" target="_top" xlink:title=" ">
<polygon fill="#ffffff" stroke="#000000" points="416.3884,-168.5 416.3884,-187.5 472.3884,-187.5 472.3884,-168.5 416.3884,-168.5"/>
<text text-anchor="middle" x="444.3884" y="-175.5" font-family="Helvetica,sans-Serif" font-size="10.00" fill="#000000">maptile.h</text>
</a>
</g>
</g>
<!-- Node1&#45;&gt;Node13 -->
<g id="edge31" class="edge">
<title>Node1&#45;&gt;Node13</title>
<path fill="none" stroke="#191970" d="M368.1891,-336.2957C383.309,-316.1787 409.4615,-279.1476 425.3884,-244 432.1554,-229.0666 437.1344,-211.1348 440.294,-197.7337"/>
<polygon fill="#191970" stroke="#191970" points="443.7693,-198.2284 442.5193,-187.7076 436.9356,-196.7116 443.7693,-198.2284"/>
</g>
<!-- Node23 -->
<g id="node23" class="node">
<title>Node23</title>
<g id="a_node23"><a xlink:href="datamodel_8h.html" target="_top" xlink:title=" ">
<polygon fill="#ffffff" stroke="#000000" points="566.8884,-168.5 566.8884,-187.5 639.8884,-187.5 639.8884,-168.5 566.8884,-168.5"/>
<text text-anchor="middle" x="603.3884" y="-175.5" font-family="Helvetica,sans-Serif" font-size="10.00" fill="#000000">datamodel.h</text>
</a>
</g>
</g>
<!-- Node1&#45;&gt;Node23 -->
<g id="edge32" class="edge">
<title>Node1&#45;&gt;Node23</title>
<path fill="none" stroke="#191970" d="M377.876,-336.4065C424.5176,-303.6441 534.6081,-226.3133 581.5585,-193.334"/>
<polygon fill="#191970" stroke="#191970" points="583.6443,-196.1461 589.8155,-187.534 579.6207,-190.418 583.6443,-196.1461"/>
</g>
<!-- Node26 -->
<g id="node26" class="node">
<title>Node26</title>
<g id="a_node26"><a xlink:href="view_8h.html" target="_top" xlink:title=" ">
<polygon fill="#ffffff" stroke="#000000" points="658.8884,-280.5 658.8884,-299.5 703.8884,-299.5 703.8884,-280.5 658.8884,-280.5"/>
<text text-anchor="middle" x="681.3884" y="-287.5" font-family="Helvetica,sans-Serif" font-size="10.00" fill="#000000">view.h</text>
</a>
</g>
</g>
<!-- Node1&#45;&gt;Node26 -->
<g id="edge33" class="edge">
<title>Node1&#45;&gt;Node26</title>
<path fill="none" stroke="#191970" d="M414.1174,-340.5759C482.4909,-327.6375 594.0046,-306.5357 648.844,-296.1584"/>
<polygon fill="#191970" stroke="#191970" points="649.5393,-299.589 658.7141,-294.2907 648.2377,-292.7111 649.5393,-299.589"/>
</g>
<!-- Node31 -->
<g id="node31" class="node">
<title>Node31</title>
<g id="a_node31"><a xlink:href="maprenderer_8h.html" target="_top" xlink:title=" ">
<polygon fill="#ffffff" stroke="#000000" points="334.3884,-224.5 334.3884,-243.5 416.3884,-243.5 416.3884,-224.5 334.3884,-224.5"/>
<text text-anchor="middle" x="375.3884" y="-231.5" font-family="Helvetica,sans-Serif" font-size="10.00" fill="#000000">maprenderer.h</text>
</a>
</g>
</g>
<!-- Node1&#45;&gt;Node31 -->
<g id="edge42" class="edge">
<title>Node1&#45;&gt;Node31</title>
<path fill="none" stroke="#191970" d="M358.8724,-336.1389C362.2955,-314.9692 368.4648,-276.8174 372.2173,-253.6112"/>
<polygon fill="#191970" stroke="#191970" points="375.7014,-253.99 373.8427,-243.5595 368.7912,-252.8725 375.7014,-253.99"/>
</g>
<!-- Node8 -->
<g id="node8" class="node">
<title>Node8</title>
<g id="a_node8"><a xlink:title=" ">
<polygon fill="#ffffff" stroke="#bfbfbf" points="751.3884,-168.5 751.3884,-187.5 845.3884,-187.5 845.3884,-168.5 751.3884,-168.5"/>
<text text-anchor="middle" x="798.3884" y="-175.5" font-family="Helvetica,sans-Serif" font-size="10.00" fill="#000000">QGraphicsScene</text>
</a>
</g>
</g>
<!-- Node7&#45;&gt;Node8 -->
<g id="edge7" class="edge">
<title>Node7&#45;&gt;Node8</title>
<path fill="none" stroke="#191970" d="M869.4084,-224.2455C856.2133,-215.6534 836.7834,-203.0014 821.5805,-193.1018"/>
<polygon fill="#191970" stroke="#191970" points="823.4867,-190.1665 813.1968,-187.6427 819.667,-196.0325 823.4867,-190.1665"/>
</g>
<!-- Node9 -->
<g id="node9" class="node">
<title>Node9</title>
<g id="a_node9"><a xlink:title=" ">
<polygon fill="#ffffff" stroke="#bfbfbf" points="863.3884,-168.5 863.3884,-187.5 967.3884,-187.5 967.3884,-168.5 863.3884,-168.5"/>
<text text-anchor="middle" x="915.3884" y="-175.5" font-family="Helvetica,sans-Serif" font-size="10.00" fill="#000000">QGraphicsTextItem</text>
</a>
</g>
</g>
<!-- Node7&#45;&gt;Node9 -->
<g id="edge8" class="edge">
<title>Node7&#45;&gt;Node9</title>
<path fill="none" stroke="#191970" d="M889.7882,-224.2455C894.0112,-216.617 900.0057,-205.7881 905.1326,-196.5267"/>
<polygon fill="#191970" stroke="#191970" points="908.2695,-198.0867 910.0505,-187.6427 902.1452,-194.6965 908.2695,-198.0867"/>
</g>
<!-- Node10 -->
<g id="node10" class="node">
<title>Node10</title>
<g id="a_node10"><a xlink:title=" ">
<polygon fill="#ffffff" stroke="#bfbfbf" points="985.8884,-168.5 985.8884,-187.5 1068.8884,-187.5 1068.8884,-168.5 985.8884,-168.5"/>
<text text-anchor="middle" x="1027.3884" y="-175.5" font-family="Helvetica,sans-Serif" font-size="10.00" fill="#000000">QGraphicsItem</text>
</a>
</g>
</g>
<!-- Node7&#45;&gt;Node10 -->
<g id="edge9" class="edge">
<title>Node7&#45;&gt;Node10</title>
<path fill="none" stroke="#191970" d="M908.971,-224.3733C932.338,-215.2226 967.6747,-201.3844 993.6669,-191.2057"/>
<polygon fill="#191970" stroke="#191970" points="995.0915,-194.4066 1003.1266,-187.5011 992.5389,-187.8886 995.0915,-194.4066"/>
</g>
<!-- Node11 -->
<g id="node11" class="node">
<title>Node11</title>
<g id="a_node11"><a xlink:title=" ">
<polygon fill="#ffffff" stroke="#bfbfbf" points="1220.3884,-.5 1220.3884,-19.5 1324.3884,-19.5 1324.3884,-.5 1220.3884,-.5"/>
<text text-anchor="middle" x="1272.3884" y="-7.5" font-family="Helvetica,sans-Serif" font-size="10.00" fill="#000000">QGraphicsRectItem</text>
</a>
</g>
</g>
<!-- Node7&#45;&gt;Node11 -->
<g id="edge10" class="edge">
<title>Node7&#45;&gt;Node11</title>
<path fill="none" stroke="#191970" d="M910.641,-232.2919C989.8009,-226.9218 1222.3241,-209.4557 1248.3884,-188 1295.4285,-149.2775 1293.7525,-116.351 1285.3884,-56 1284.1527,-47.0835 1281.6303,-37.4647 1279.1334,-29.3395"/>
<polygon fill="#191970" stroke="#191970" points="1282.4158,-28.1164 1275.9761,-19.7033 1275.7638,-30.296 1282.4158,-28.1164"/>
</g>
<!-- Node12 -->
<g id="node12" class="node">
<title>Node12</title>
<g id="a_node12"><a xlink:title=" ">
<polygon fill="#ffffff" stroke="#bfbfbf" points="1086.8884,-168.5 1086.8884,-187.5 1199.8884,-187.5 1199.8884,-168.5 1086.8884,-168.5"/>
<text text-anchor="middle" x="1143.3884" y="-175.5" font-family="Helvetica,sans-Serif" font-size="10.00" fill="#000000">QGraphicsEllipseItem</text>
</a>
</g>
</g>
<!-- Node7&#45;&gt;Node12 -->
<g id="edge11" class="edge">
<title>Node7&#45;&gt;Node12</title>
<path fill="none" stroke="#191970" d="M910.6481,-228.3222C952.4168,-219.2912 1034.8474,-201.4683 1089.545,-189.6418"/>
<polygon fill="#191970" stroke="#191970" points="1090.385,-193.0412 1099.4194,-187.5068 1088.9056,-186.1993 1090.385,-193.0412"/>
</g>
<!-- Node7&#45;&gt;Node13 -->
<g id="edge12" class="edge">
<title>Node7&#45;&gt;Node13</title>
<path fill="none" stroke="#191970" d="M858.0448,-230.5195C842.9339,-228.549 823.6029,-226.0717 806.3884,-224 664.2943,-206.8996 627.3743,-212.6203 486.3884,-188 485.1424,-187.7824 483.8782,-187.5501 482.6035,-187.3058"/>
<polygon fill="#191970" stroke="#191970" points="483.2621,-183.8679 472.7577,-185.249 481.8307,-190.72 483.2621,-183.8679"/>
</g>
<!-- Node18 -->
<g id="node18" class="node">
<title>Node18</title>
<g id="a_node18"><a xlink:href="graphicsmanager_8h.html" target="_top" xlink:title=" ">
<polygon fill="#ffffff" stroke="#000000" points="422.8884,-112.5 422.8884,-131.5 525.8884,-131.5 525.8884,-112.5 422.8884,-112.5"/>
<text text-anchor="middle" x="474.3884" y="-119.5" font-family="Helvetica,sans-Serif" font-size="10.00" fill="#000000">graphicsmanager.h</text>
</a>
</g>
</g>
<!-- Node7&#45;&gt;Node18 -->
<g id="edge21" class="edge">
<title>Node7&#45;&gt;Node18</title>
<path fill="none" stroke="#191970" d="M858.3532,-230.5097C782.2898,-220.2889 565.3221,-190.9566 558.3884,-188 531.6575,-176.6014 506.1805,-154.4312 490.4364,-138.9454"/>
<polygon fill="#191970" stroke="#191970" points="492.6514,-136.207 483.1354,-131.549 487.6696,-141.1246 492.6514,-136.207"/>
</g>
<!-- Node21 -->
<g id="node21" class="node">
<title>Node21</title>
<g id="a_node21"><a xlink:href="player_8h.html" target="_top" xlink:title=" ">
<polygon fill="#ffffff" stroke="#000000" points="1186.3884,-112.5 1186.3884,-131.5 1238.3884,-131.5 1238.3884,-112.5 1186.3884,-112.5"/>
<text text-anchor="middle" x="1212.3884" y="-119.5" font-family="Helvetica,sans-Serif" font-size="10.00" fill="#000000">player.h</text>
</a>
</g>
</g>
<!-- Node7&#45;&gt;Node21 -->
<g id="edge22" class="edge">
<title>Node7&#45;&gt;Node21</title>
<path fill="none" stroke="#191970" d="M910.4108,-232.2033C983.9493,-226.8697 1189.2878,-210.1111 1209.3884,-188 1220.4555,-175.826 1220.0626,-156.5743 1217.5774,-141.9981"/>
<polygon fill="#191970" stroke="#191970" points="1220.9433,-141.0014 1215.4243,-131.9576 1214.0989,-142.4692 1220.9433,-141.0014"/>
</g>
<!-- Node22 -->
<g id="node22" class="node">
<title>Node22</title>
<g id="a_node22"><a xlink:href="highlighter_8h.html" target="_top" xlink:title=" ">
<polygon fill="#ffffff" stroke="#000000" points="1206.3884,-56.5 1206.3884,-75.5 1276.3884,-75.5 1276.3884,-56.5 1206.3884,-56.5"/>
<text text-anchor="middle" x="1241.3884" y="-63.5" font-family="Helvetica,sans-Serif" font-size="10.00" fill="#000000">highlighter.h</text>
</a>
</g>
</g>
<!-- Node7&#45;&gt;Node22 -->
<g id="edge25" class="edge">
<title>Node7&#45;&gt;Node22</title>
<path fill="none" stroke="#191970" d="M910.4433,-232.0634C986.2301,-226.2169 1202.7848,-207.9182 1227.3884,-188 1257.2304,-163.8411 1252.0138,-113.2956 1246.2967,-85.4452"/>
<polygon fill="#191970" stroke="#191970" points="1249.704,-84.6442 1244.0743,-75.6688 1242.8781,-86.1959 1249.704,-84.6442"/>
</g>
<!-- Node7&#45;&gt;Node23 -->
<g id="edge26" class="edge">
<title>Node7&#45;&gt;Node23</title>
<path fill="none" stroke="#191970" d="M858.2717,-229.0712C816.5525,-221.1584 732.0559,-204.9708 650.0212,-188.0983"/>
<polygon fill="#191970" stroke="#191970" points="650.5331,-184.6303 640.0322,-186.0378 649.1189,-191.486 650.5331,-184.6303"/>
</g>
<!-- Node14 -->
<g id="node14" class="node">
<title>Node14</title>
<g id="a_node14"><a xlink:title=" ">
<polygon fill="#ffffff" stroke="#bfbfbf" points="287.8884,-112.5 287.8884,-131.5 404.8884,-131.5 404.8884,-112.5 287.8884,-112.5"/>
<text text-anchor="middle" x="346.3884" y="-119.5" font-family="Helvetica,sans-Serif" font-size="10.00" fill="#000000">QGraphicsPixmapItem</text>
</a>
</g>
</g>
<!-- Node13&#45;&gt;Node14 -->
<g id="edge13" class="edge">
<title>Node13&#45;&gt;Node14</title>
<path fill="none" stroke="#191970" d="M427.3181,-168.2455C412.1414,-159.5731 389.7263,-146.7645 372.3322,-136.825"/>
<polygon fill="#191970" stroke="#191970" points="373.6821,-133.5653 363.2631,-131.6427 370.2091,-139.643 373.6821,-133.5653"/>
</g>
<!-- Node15 -->
<g id="node15" class="node">
<title>Node15</title>
<g id="a_node15"><a xlink:href="city_8h.html" target="_top" xlink:title=" ">
<polygon fill="#ffffff" stroke="#000000" points="543.8884,-112.5 543.8884,-131.5 582.8884,-131.5 582.8884,-112.5 543.8884,-112.5"/>
<text text-anchor="middle" x="563.3884" y="-119.5" font-family="Helvetica,sans-Serif" font-size="10.00" fill="#000000">city.h</text>
</a>
</g>
</g>
<!-- Node13&#45;&gt;Node15 -->
<g id="edge14" class="edge">
<title>Node13&#45;&gt;Node15</title>
<path fill="none" stroke="#191970" d="M464.8453,-168.3733C483.9775,-159.3699 512.7523,-145.8288 534.2758,-135.7001"/>
<polygon fill="#191970" stroke="#191970" points="536.0361,-138.7399 543.594,-131.315 533.0555,-132.4062 536.0361,-138.7399"/>
</g>
<!-- Node13&#45;&gt;Node18 -->
<g id="edge17" class="edge">
<title>Node13&#45;&gt;Node18</title>
<path fill="none" stroke="#191970" d="M449.614,-168.2455C453.7008,-160.617 459.5019,-149.7881 464.4634,-140.5267"/>
<polygon fill="#191970" stroke="#191970" points="467.5856,-142.1103 469.2227,-131.6427 461.4153,-138.8047 467.5856,-142.1103"/>
</g>
<!-- Node16 -->
<g id="node16" class="node">
<title>Node16</title>
<g id="a_node16"><a xlink:title=" ">
<polygon fill="#ffffff" stroke="#bfbfbf" points="532.8884,-56.5 532.8884,-75.5 573.8884,-75.5 573.8884,-56.5 532.8884,-56.5"/>
<text text-anchor="middle" x="553.3884" y="-63.5" font-family="Helvetica,sans-Serif" font-size="10.00" fill="#000000">string</text>
</a>
</g>
</g>
<!-- Node15&#45;&gt;Node16 -->
<g id="edge15" class="edge">
<title>Node15&#45;&gt;Node16</title>
<path fill="none" stroke="#191970" d="M561.6466,-112.2455C560.3417,-104.9382 558.5124,-94.6944 556.9071,-85.7046"/>
<polygon fill="#191970" stroke="#191970" points="560.3138,-84.8717 555.1104,-75.6427 553.4228,-86.1022 560.3138,-84.8717"/>
</g>
<!-- Node17 -->
<g id="node17" class="node">
<title>Node17</title>
<g id="a_node17"><a xlink:title=" ">
<polygon fill="#ffffff" stroke="#bfbfbf" points="592.3884,-56.5 592.3884,-75.5 636.3884,-75.5 636.3884,-56.5 592.3884,-56.5"/>
<text text-anchor="middle" x="614.3884" y="-63.5" font-family="Helvetica,sans-Serif" font-size="10.00" fill="#000000">vector</text>
</a>
</g>
</g>
<!-- Node15&#45;&gt;Node17 -->
<g id="edge16" class="edge">
<title>Node15&#45;&gt;Node17</title>
<path fill="none" stroke="#191970" d="M572.272,-112.2455C579.585,-104.2155 590.1276,-92.6394 598.8351,-83.0781"/>
<polygon fill="#191970" stroke="#191970" points="601.4611,-85.3928 605.6067,-75.6427 596.2857,-80.6795 601.4611,-85.3928"/>
</g>
<!-- Node18&#45;&gt;Node16 -->
<g id="edge20" class="edge">
<title>Node18&#45;&gt;Node16</title>
<path fill="none" stroke="#191970" d="M488.1492,-112.2455C500.0437,-103.814 517.4534,-91.4729 531.297,-81.6598"/>
<polygon fill="#191970" stroke="#191970" points="533.6512,-84.2811 539.7854,-75.6427 529.6031,-78.5704 533.6512,-84.2811"/>
</g>
<!-- Node19 -->
<g id="node19" class="node">
<title>Node19</title>
<g id="a_node19"><a xlink:title=" ">
<polygon fill="#ffffff" stroke="#bfbfbf" points="445.3884,-56.5 445.3884,-75.5 503.3884,-75.5 503.3884,-56.5 445.3884,-56.5"/>
<text text-anchor="middle" x="474.3884" y="-63.5" font-family="Helvetica,sans-Serif" font-size="10.00" fill="#000000">QPixmap</text>
</a>
</g>
</g>
<!-- Node18&#45;&gt;Node19 -->
<g id="edge18" class="edge">
<title>Node18&#45;&gt;Node19</title>
<path fill="none" stroke="#191970" d="M474.3884,-112.2455C474.3884,-104.9382 474.3884,-94.6944 474.3884,-85.7046"/>
<polygon fill="#191970" stroke="#191970" points="477.8885,-85.6426 474.3884,-75.6427 470.8885,-85.6427 477.8885,-85.6426"/>
</g>
<!-- Node20 -->
<g id="node20" class="node">
<title>Node20</title>
<g id="a_node20"><a xlink:title=" ">
<polygon fill="#ffffff" stroke="#bfbfbf" points="285.8884,-56.5 285.8884,-75.5 338.8884,-75.5 338.8884,-56.5 285.8884,-56.5"/>
<text text-anchor="middle" x="312.3884" y="-63.5" font-family="Helvetica,sans-Serif" font-size="10.00" fill="#000000">QImage</text>
</a>
</g>
</g>
<!-- Node18&#45;&gt;Node20 -->
<g id="edge19" class="edge">
<title>Node18&#45;&gt;Node20</title>
<path fill="none" stroke="#191970" d="M446.5397,-112.3733C419.4743,-103.0173 378.2338,-88.7614 348.6256,-78.5264"/>
<polygon fill="#191970" stroke="#191970" points="349.6626,-75.1817 339.0678,-75.2225 347.3756,-81.7976 349.6626,-75.1817"/>
</g>
<!-- Node21&#45;&gt;Node22 -->
<g id="edge23" class="edge">
<title>Node21&#45;&gt;Node22</title>
<path fill="none" stroke="#191970" d="M1217.4399,-112.2455C1221.3903,-104.617 1226.9982,-93.7881 1231.7942,-84.5267"/>
<polygon fill="#191970" stroke="#191970" points="1234.9043,-86.1321 1236.3949,-75.6427 1228.6883,-82.9131 1234.9043,-86.1321"/>
</g>
<!-- Node22&#45;&gt;Node11 -->
<g id="edge24" class="edge">
<title>Node22&#45;&gt;Node11</title>
<path fill="none" stroke="#191970" d="M1246.7882,-56.2455C1251.0112,-48.617 1257.0057,-37.7881 1262.1326,-28.5267"/>
<polygon fill="#191970" stroke="#191970" points="1265.2695,-30.0867 1267.0505,-19.6427 1259.1452,-26.6965 1265.2695,-30.0867"/>
</g>
<!-- Node23&#45;&gt;Node16 -->
<g id="edge27" class="edge">
<title>Node23&#45;&gt;Node16</title>
<path fill="none" stroke="#191970" d="M624.6124,-168.437C648.318,-156.3737 681.506,-134.4762 666.3884,-112 661.495,-104.7246 615.6585,-87.6167 583.8898,-76.4392"/>
<polygon fill="#191970" stroke="#191970" points="584.7342,-73.0269 574.1394,-73.0385 582.4289,-79.6365 584.7342,-73.0269"/>
</g>
<!-- Node23&#45;&gt;Node21 -->
<g id="edge30" class="edge">
<title>Node23&#45;&gt;Node21</title>
<path fill="none" stroke="#191970" d="M639.9662,-169.5905C643.1433,-168.9992 646.3167,-168.4573 649.3884,-168 846.7619,-138.6154 1086.0606,-126.8815 1175.9428,-123.3036"/>
<polygon fill="#191970" stroke="#191970" points="1176.2939,-126.7927 1186.1505,-122.9071 1176.0222,-119.798 1176.2939,-126.7927"/>
</g>
<!-- Node24 -->
<g id="node24" class="node">
<title>Node24</title>
<g id="a_node24"><a xlink:title=" ">
<polygon fill="#ffffff" stroke="#bfbfbf" points="713.8884,-112.5 713.8884,-131.5 762.8884,-131.5 762.8884,-112.5 713.8884,-112.5"/>
<text text-anchor="middle" x="738.3884" y="-119.5" font-family="Helvetica,sans-Serif" font-size="10.00" fill="#000000">QLabel</text>
</a>
</g>
</g>
<!-- Node23&#45;&gt;Node24 -->
<g id="edge28" class="edge">
<title>Node23&#45;&gt;Node24</title>
<path fill="none" stroke="#191970" d="M626.5958,-168.3733C648.5583,-159.2629 681.7216,-145.5062 706.2286,-135.3404"/>
<polygon fill="#191970" stroke="#191970" points="707.5882,-138.5657 715.484,-131.5011 704.906,-132.0999 707.5882,-138.5657"/>
</g>
<!-- Node25 -->
<g id="node25" class="node">
<title>Node25</title>
<g id="a_node25"><a xlink:title=" ">
<polygon fill="#ffffff" stroke="#bfbfbf" points="601.3884,-112.5 601.3884,-131.5 657.3884,-131.5 657.3884,-112.5 601.3884,-112.5"/>
<text text-anchor="middle" x="629.3884" y="-119.5" font-family="Helvetica,sans-Serif" font-size="10.00" fill="#000000">QWidget</text>
</a>
</g>
</g>
<!-- Node23&#45;&gt;Node25 -->
<g id="edge29" class="edge">
<title>Node23&#45;&gt;Node25</title>
<path fill="none" stroke="#191970" d="M607.9173,-168.2455C611.4218,-160.6973 616.3811,-150.0158 620.6507,-140.8197"/>
<polygon fill="#191970" stroke="#191970" points="623.8749,-142.1867 624.9115,-131.6427 617.5258,-139.2389 623.8749,-142.1867"/>
</g>
<!-- Node26&#45;&gt;Node7 -->
<g id="edge35" class="edge">
<title>Node26&#45;&gt;Node7</title>
<path fill="none" stroke="#191970" d="M703.8886,-283.7931C738.8881,-274.138 806.6845,-255.4356 848.4944,-243.9018"/>
<polygon fill="#191970" stroke="#191970" points="849.5643,-247.2375 858.2734,-241.2041 847.7027,-240.4895 849.5643,-247.2375"/>
</g>
<!-- Node26&#45;&gt;Node23 -->
<g id="edge36" class="edge">
<title>Node26&#45;&gt;Node23</title>
<path fill="none" stroke="#191970" d="M674.7382,-280.4509C661.6712,-261.688 632.4677,-219.7548 615.7556,-195.758"/>
<polygon fill="#191970" stroke="#191970" points="618.609,-193.7307 610.0218,-187.5249 612.8647,-197.7312 618.609,-193.7307"/>
</g>
<!-- Node27 -->
<g id="node27" class="node">
<title>Node27</title>
<g id="a_node27"><a xlink:title=" ">
<polygon fill="#ffffff" stroke="#bfbfbf" points="709.8884,-224.5 709.8884,-243.5 796.8884,-243.5 796.8884,-224.5 709.8884,-224.5"/>
<text text-anchor="middle" x="753.3884" y="-231.5" font-family="Helvetica,sans-Serif" font-size="10.00" fill="#000000">QGraphicsView</text>
</a>
</g>
</g>
<!-- Node26&#45;&gt;Node27 -->
<g id="edge34" class="edge">
<title>Node26&#45;&gt;Node27</title>
<path fill="none" stroke="#191970" d="M693.9299,-280.2455C704.6672,-271.8943 720.3358,-259.7076 732.8931,-249.9408"/>
<polygon fill="#191970" stroke="#191970" points="735.246,-252.5449 740.9907,-243.6427 730.9484,-247.0194 735.246,-252.5449"/>
</g>
<!-- Node28 -->
<g id="node28" class="node">
<title>Node28</title>
<g id="a_node28"><a xlink:href="tooltipmenu_8h.html" target="_top" xlink:title=" ">
<polygon fill="#ffffff" stroke="#000000" points="657.8884,-168.5 657.8884,-187.5 732.8884,-187.5 732.8884,-168.5 657.8884,-168.5"/>
<text text-anchor="middle" x="695.3884" y="-175.5" font-family="Helvetica,sans-Serif" font-size="10.00" fill="#000000">tooltipmenu.h</text>
</a>
</g>
</g>
<!-- Node26&#45;&gt;Node28 -->
<g id="edge37" class="edge">
<title>Node26&#45;&gt;Node28</title>
<path fill="none" stroke="#191970" d="M682.5821,-280.4509C684.8654,-262.184 689.894,-221.9553 692.9262,-197.6976"/>
<polygon fill="#191970" stroke="#191970" points="696.4304,-197.8818 694.1978,-187.5249 689.4844,-197.0135 696.4304,-197.8818"/>
</g>
<!-- Node28&#45;&gt;Node24 -->
<g id="edge39" class="edge">
<title>Node28&#45;&gt;Node24</title>
<path fill="none" stroke="#191970" d="M702.8785,-168.2455C708.9211,-160.3761 717.5787,-149.101 724.8325,-139.6542"/>
<polygon fill="#191970" stroke="#191970" points="727.67,-141.7058 730.9842,-131.6427 722.1179,-137.4426 727.67,-141.7058"/>
</g>
<!-- Node28&#45;&gt;Node25 -->
<g id="edge38" class="edge">
<title>Node28&#45;&gt;Node25</title>
<path fill="none" stroke="#191970" d="M683.8921,-168.2455C674.1443,-159.9746 659.9625,-147.9416 648.5087,-138.2232"/>
<polygon fill="#191970" stroke="#191970" points="650.6426,-135.4437 640.753,-131.6427 646.1137,-140.7813 650.6426,-135.4437"/>
</g>
<!-- Node29 -->
<g id="node29" class="node">
<title>Node29</title>
<g id="a_node29"><a xlink:title=" ">
<polygon fill="#ffffff" stroke="#bfbfbf" points="781.3884,-112.5 781.3884,-131.5 851.3884,-131.5 851.3884,-112.5 781.3884,-112.5"/>
<text text-anchor="middle" x="816.3884" y="-119.5" font-family="Helvetica,sans-Serif" font-size="10.00" fill="#000000">QGroupBox</text>
</a>
</g>
</g>
<!-- Node28&#45;&gt;Node29 -->
<g id="edge40" class="edge">
<title>Node28&#45;&gt;Node29</title>
<path fill="none" stroke="#191970" d="M716.1891,-168.3733C735.6127,-159.3838 764.8108,-145.8706 786.6849,-135.7471"/>
<polygon fill="#191970" stroke="#191970" points="788.2541,-138.8776 795.8592,-131.5011 785.314,-132.5249 788.2541,-138.8776"/>
</g>
<!-- Node30 -->
<g id="node30" class="node">
<title>Node30</title>
<g id="a_node30"><a xlink:title=" ">
<polygon fill="#ffffff" stroke="#bfbfbf" points="869.3884,-112.5 869.3884,-131.5 943.3884,-131.5 943.3884,-112.5 869.3884,-112.5"/>
<text text-anchor="middle" x="906.3884" y="-119.5" font-family="Helvetica,sans-Serif" font-size="10.00" fill="#000000">QGridLayout</text>
</a>
</g>
</g>
<!-- Node28&#45;&gt;Node30 -->
<g id="edge41" class="edge">
<title>Node28&#45;&gt;Node30</title>
<path fill="none" stroke="#191970" d="M731.6606,-168.3733C767.3543,-158.9001 821.9764,-144.4032 860.6335,-134.1435"/>
<polygon fill="#191970" stroke="#191970" points="861.822,-137.4493 870.5896,-131.5011 860.0263,-130.6835 861.822,-137.4493"/>
</g>
<!-- Node31&#45;&gt;Node13 -->
<g id="edge47" class="edge">
<title>Node31&#45;&gt;Node13</title>
<path fill="none" stroke="#191970" d="M387.4073,-224.2455C397.5983,-215.9746 412.4247,-203.9416 424.3991,-194.2232"/>
<polygon fill="#191970" stroke="#191970" points="426.9483,-196.662 432.5073,-187.6427 422.5371,-191.2268 426.9483,-196.662"/>
</g>
<!-- Node31&#45;&gt;Node18 -->
<g id="edge45" class="edge">
<title>Node31&#45;&gt;Node18</title>
<path fill="none" stroke="#191970" d="M378.374,-224.1386C382.9111,-210.3805 392.6084,-185.1852 407.3884,-168 418.3023,-155.3102 433.4879,-144.5036 446.6429,-136.5598"/>
<polygon fill="#191970" stroke="#191970" points="448.441,-139.5631 455.3484,-131.5296 444.9388,-133.5022 448.441,-139.5631"/>
</g>
<!-- Node31&#45;&gt;Node23 -->
<g id="edge46" class="edge">
<title>Node31&#45;&gt;Node23</title>
<path fill="none" stroke="#191970" d="M414.324,-224.4369C453.8035,-214.7402 514.9045,-199.7329 556.8996,-189.4183"/>
<polygon fill="#191970" stroke="#191970" points="557.9984,-192.7525 566.8749,-186.9682 556.3286,-185.9546 557.9984,-192.7525"/>
</g>
<!-- Node31&#45;&gt;Node25 -->
<g id="edge43" class="edge">
<title>Node31&#45;&gt;Node25</title>
<path fill="none" stroke="#191970" d="M397.7506,-224.373C419.2229,-215.1108 452.5594,-200.6831 481.3884,-188 521.8769,-170.1875 568.4577,-149.3595 598.3751,-135.9388"/>
<polygon fill="#191970" stroke="#191970" points="600.1594,-138.9745 607.8494,-131.6865 597.293,-132.5882 600.1594,-138.9745"/>
</g>
<!-- Node32 -->
<g id="node32" class="node">
<title>Node32</title>
<g id="a_node32"><a xlink:title=" ">
<polygon fill="#ffffff" stroke="#bfbfbf" points="82.8884,-112.5 82.8884,-131.5 121.8884,-131.5 121.8884,-112.5 82.8884,-112.5"/>
<text text-anchor="middle" x="102.3884" y="-119.5" font-family="Helvetica,sans-Serif" font-size="10.00" fill="#000000">QList</text>
</a>
</g>
</g>
<!-- Node31&#45;&gt;Node32 -->
<g id="edge44" class="edge">
<title>Node31&#45;&gt;Node32</title>
<path fill="none" stroke="#191970" d="M334.1337,-228.8413C278.7699,-221.3428 183.9611,-206.3087 154.3884,-188 135.8713,-176.5359 121.2665,-155.9959 112.3085,-140.8651"/>
<polygon fill="#191970" stroke="#191970" points="115.198,-138.862 107.253,-131.8529 109.0929,-142.2867 115.198,-138.862"/>
</g>
<!-- Node33 -->
<g id="node33" class="node">
<title>Node33</title>
<g id="a_node33"><a xlink:href="point_8h.html" target="_top" xlink:title=" ">
<polygon fill="#ffffff" stroke="#000000" points="127.8884,-56.5 127.8884,-75.5 172.8884,-75.5 172.8884,-56.5 127.8884,-56.5"/>
<text text-anchor="middle" x="150.3884" y="-63.5" font-family="Helvetica,sans-Serif" font-size="10.00" fill="#000000">point.h</text>
</a>
</g>
</g>
<!-- Node31&#45;&gt;Node33 -->
<g id="edge48" class="edge">
<title>Node31&#45;&gt;Node33</title>
<path fill="none" stroke="#191970" d="M334.1981,-229.4147C245.4541,-218.5398 41.3099,-187.8236 5.3884,-132 -22.4179,-88.7876 66.503,-73.5352 117.3726,-68.4192"/>
<polygon fill="#191970" stroke="#191970" points="117.9588,-71.8801 127.5944,-67.4749 117.3148,-64.9097 117.9588,-71.8801"/>
</g>
<!-- Node34 -->
<g id="node34" class="node">
<title>Node34</title>
<g id="a_node34"><a xlink:href="animationmovement_8h.html" target="_top" xlink:title=" ">
<polygon fill="#ffffff" stroke="#000000" points="163.8884,-168.5 163.8884,-187.5 278.8884,-187.5 278.8884,-168.5 163.8884,-168.5"/>
<text text-anchor="middle" x="221.3884" y="-175.5" font-family="Helvetica,sans-Serif" font-size="10.00" fill="#000000">animationmovement.h</text>
</a>
</g>
</g>
<!-- Node31&#45;&gt;Node34 -->
<g id="edge49" class="edge">
<title>Node31&#45;&gt;Node34</title>
<path fill="none" stroke="#191970" d="M348.9149,-224.3733C323.5288,-215.1419 285.024,-201.1402 256.9665,-190.9375"/>
<polygon fill="#191970" stroke="#191970" points="258.1106,-187.6293 247.5165,-187.5011 255.7183,-194.2079 258.1106,-187.6293"/>
</g>
<!-- Node34&#45;&gt;Node6 -->
<g id="edge55" class="edge">
<title>Node34&#45;&gt;Node6</title>
<path fill="none" stroke="#191970" d="M190.1015,-168.3733C157.8646,-158.4542 107.7277,-143.0275 74.2413,-132.7239"/>
<polygon fill="#191970" stroke="#191970" points="75.0089,-129.2983 64.4217,-129.7026 72.9502,-135.9887 75.0089,-129.2983"/>
</g>
<!-- Node34&#45;&gt;Node14 -->
<g id="edge56" class="edge">
<title>Node34&#45;&gt;Node14</title>
<path fill="none" stroke="#191970" d="M242.8767,-168.3733C263.0324,-159.3435 293.3765,-145.7494 316.0065,-135.6111"/>
<polygon fill="#191970" stroke="#191970" points="317.4855,-138.7838 325.1806,-131.5011 314.6236,-132.3955 317.4855,-138.7838"/>
</g>
<!-- Node34&#45;&gt;Node32 -->
<g id="edge54" class="edge">
<title>Node34&#45;&gt;Node32</title>
<path fill="none" stroke="#191970" d="M200.9316,-168.3733C181.7994,-159.3699 153.0246,-145.8288 131.5011,-135.7001"/>
<polygon fill="#191970" stroke="#191970" points="132.7214,-132.4062 122.1829,-131.315 129.7408,-138.7399 132.7214,-132.4062"/>
</g>
<!-- Node34&#45;&gt;Node33 -->
<g id="edge50" class="edge">
<title>Node34&#45;&gt;Node33</title>
<path fill="none" stroke="#191970" d="M206.5196,-168.3992C194.807,-160.0994 178.9158,-147.0814 169.3884,-132 160.4441,-117.8414 155.595,-99.3521 153.0399,-85.5461"/>
<polygon fill="#191970" stroke="#191970" points="156.4919,-84.9674 151.4482,-75.6502 149.5808,-86.0791 156.4919,-84.9674"/>
</g>
<!-- Node35 -->
<g id="node35" class="node">
<title>Node35</title>
<g id="a_node35"><a xlink:href="animationentity_8h.html" target="_top" xlink:title=" ">
<polygon fill="#ffffff" stroke="#000000" points="178.8884,-112.5 178.8884,-131.5 269.8884,-131.5 269.8884,-112.5 178.8884,-112.5"/>
<text text-anchor="middle" x="224.3884" y="-119.5" font-family="Helvetica,sans-Serif" font-size="10.00" fill="#000000">animationentity.h</text>
</a>
</g>
</g>
<!-- Node34&#45;&gt;Node35 -->
<g id="edge51" class="edge">
<title>Node34&#45;&gt;Node35</title>
<path fill="none" stroke="#191970" d="M221.911,-168.2455C222.3025,-160.9382 222.8512,-150.6944 223.3328,-141.7046"/>
<polygon fill="#191970" stroke="#191970" points="226.8318,-141.8156 223.8719,-131.6427 219.8418,-141.4411 226.8318,-141.8156"/>
</g>
<!-- Node35&#45;&gt;Node20 -->
<g id="edge52" class="edge">
<title>Node35&#45;&gt;Node20</title>
<path fill="none" stroke="#191970" d="M239.7169,-112.2455C253.2188,-103.6534 273.1006,-91.0014 288.657,-81.1018"/>
<polygon fill="#191970" stroke="#191970" points="290.6781,-83.9643 297.2357,-75.6427 286.92,-78.0587 290.6781,-83.9643"/>
</g>
<!-- Node35&#45;&gt;Node33 -->
<g id="edge53" class="edge">
<title>Node35&#45;&gt;Node33</title>
<path fill="none" stroke="#191970" d="M211.4986,-112.2455C200.4631,-103.8943 184.3592,-91.7076 171.4531,-81.9408"/>
<polygon fill="#191970" stroke="#191970" points="173.2167,-78.8862 163.1305,-75.6427 168.9926,-84.4681 173.2167,-78.8862"/>
</g>
</g>
</svg>
