<?xml version="1.0" encoding="UTF-8" standalone="no"?>
<!DOCTYPE svg PUBLIC "-//W3C//DTD SVG 1.1//EN"
 "http://www.w3.org/Graphics/SVG/1.1/DTD/svg11.dtd">
<!-- Generated by graphviz version 2.40.1 (20161225.0304)
 -->
<!-- Title: src/application_server/client.cpp Pages: 1 -->
<!--zoomable 431 -->
<svg id="main" version="1.1" xmlns="http://www.w3.org/2000/svg" xmlns:xlink="http://www.w3.org/1999/xlink" xml:space="preserve" onload="init(evt)">
<style type="text/css"><![CDATA[
.edge:hover path { stroke: red; }
.edge:hover polygon { stroke: red; fill: red; }
]]></style>
<script type="text/javascript"><![CDATA[
var edges = document.getElementsByTagName('g');
if (edges && edges.length) {
  for (var i=0;i<edges.length;i++) {
    if (edges[i].id.substr(0,4)=='edge') {
      edges[i].setAttribute('class','edge');
    }
  }
}
]]></script>
        <defs>
                <circle id="rim" cx="0" cy="0" r="7"/>
                <circle id="rim2" cx="0" cy="0" r="3.5"/>
                <g id="zoomPlus">
                        <use xlink:href="#rim" fill="#404040">
                                <set attributeName="fill" to="#808080" begin="zoomplus.mouseover" end="zoomplus.mouseout"/>
                        </use>
                        <path d="M-4,0h8M0,-4v8" fill="none" stroke="white" stroke-width="1.5" pointer-events="none"/>
                </g>
                <g id="zoomMin">
                        <use xlink:href="#rim" fill="#404040">
                                <set attributeName="fill" to="#808080" begin="zoomminus.mouseover" end="zoomminus.mouseout"/>
                        </use>
                        <path d="M-4,0h8" fill="none" stroke="white" stroke-width="1.5" pointer-events="none"/>
                </g>
                <g id="dirArrow">
                        <path fill="none" stroke="white" stroke-width="1.5" d="M0,-3.0v7 M-2.5,-0.5L0,-3.0L2.5,-0.5"/>
                </g>
               <g id="resetDef">
                       <use xlink:href="#rim2" fill="#404040">
                               <set attributeName="fill" to="#808080" begin="reset.mouseover" end="reset.mouseout"/>
                       </use>
               </g>
        </defs>

<script type="text/javascript">
var viewWidth = 1401;
var viewHeight = 431;
var sectionId = 'dynsection-0';
</script>
<script xlink:href="svgpan.js"/>
<svg id="graph" class="graph">
<g id="viewport">
<title>src/application_server/client.cpp</title>
<polygon fill="#ffffff" stroke="transparent" points="-4,4 -4,-427 1397,-427 1397,4 -4,4"/>
<!-- Node1 -->
<g id="node1" class="node">
<title>Node1</title>
<g id="a_node1"><a xlink:title=" ">
<polygon fill="#bfbfbf" stroke="#000000" points="586.5,-392.5 586.5,-422.5 701.5,-422.5 701.5,-392.5 586.5,-392.5"/>
<text text-anchor="start" x="594.5" y="-410.5" font-family="Helvetica,sans-Serif" font-size="10.00" fill="#000000">src/application_server</text>
<text text-anchor="middle" x="644" y="-399.5" font-family="Helvetica,sans-Serif" font-size="10.00" fill="#000000">/client.cpp</text>
</a>
</g>
</g>
<!-- Node2 -->
<g id="node2" class="node">
<title>Node2</title>
<g id="a_node2"><a xlink:href="client_8h.html" target="_top" xlink:title=" ">
<polygon fill="#ffffff" stroke="#000000" points="587.5,-336.5 587.5,-355.5 634.5,-355.5 634.5,-336.5 587.5,-336.5"/>
<text text-anchor="middle" x="611" y="-343.5" font-family="Helvetica,sans-Serif" font-size="10.00" fill="#000000">client.h</text>
</a>
</g>
</g>
<!-- Node1&#45;&gt;Node2 -->
<g id="edge1" class="edge">
<title>Node1&#45;&gt;Node2</title>
<path fill="none" stroke="#191970" d="M635.8427,-392.2977C631.4051,-384.0277 625.875,-373.7215 621.1596,-364.9339"/>
<polygon fill="#191970" stroke="#191970" points="624.096,-363.0037 616.2837,-355.8469 617.9279,-366.3134 624.096,-363.0037"/>
</g>
<!-- Node4 -->
<g id="node4" class="node">
<title>Node4</title>
<g id="a_node4"><a xlink:title=" ">
<polygon fill="#ffffff" stroke="#bfbfbf" points="65.5,-280.5 65.5,-299.5 118.5,-299.5 118.5,-280.5 65.5,-280.5"/>
<text text-anchor="middle" x="92" y="-287.5" font-family="Helvetica,sans-Serif" font-size="10.00" fill="#000000">QObject</text>
</a>
</g>
</g>
<!-- Node1&#45;&gt;Node4 -->
<g id="edge62" class="edge">
<title>Node1&#45;&gt;Node4</title>
<path fill="none" stroke="#191970" d="M586.3943,-396.0047C491.6299,-376.9545 296.994,-337.2392 133,-300 131.571,-299.6755 130.1151,-299.3407 128.6451,-298.9991"/>
<polygon fill="#191970" stroke="#191970" points="129.4148,-295.5847 118.8773,-296.6853 127.8012,-302.3962 129.4148,-295.5847"/>
</g>
<!-- Node39 -->
<g id="node39" class="node">
<title>Node39</title>
<g id="a_node39"><a xlink:title=" ">
<polygon fill="#ffffff" stroke="#bfbfbf" points="652.5,-336.5 652.5,-355.5 703.5,-355.5 703.5,-336.5 652.5,-336.5"/>
<text text-anchor="middle" x="678" y="-343.5" font-family="Helvetica,sans-Serif" font-size="10.00" fill="#000000">QTimer</text>
</a>
</g>
</g>
<!-- Node1&#45;&gt;Node39 -->
<g id="edge60" class="edge">
<title>Node1&#45;&gt;Node39</title>
<path fill="none" stroke="#191970" d="M652.4045,-392.2977C657.0257,-383.9388 662.7969,-373.4997 667.6889,-364.6509"/>
<polygon fill="#191970" stroke="#191970" points="670.7809,-366.292 672.5562,-355.8469 664.6548,-362.9051 670.7809,-366.292"/>
</g>
<!-- Node40 -->
<g id="node40" class="node">
<title>Node40</title>
<g id="a_node40"><a xlink:title=" ">
<polygon fill="#ffffff" stroke="#bfbfbf" points="722,-336.5 722,-355.5 776,-355.5 776,-336.5 722,-336.5"/>
<text text-anchor="middle" x="749" y="-343.5" font-family="Helvetica,sans-Serif" font-size="10.00" fill="#000000">QDebug</text>
</a>
</g>
</g>
<!-- Node1&#45;&gt;Node40 -->
<g id="edge61" class="edge">
<title>Node1&#45;&gt;Node40</title>
<path fill="none" stroke="#191970" d="M669.6859,-392.4554C686.1297,-382.8241 707.3708,-370.3828 723.7323,-360.7996"/>
<polygon fill="#191970" stroke="#191970" points="725.8688,-363.6045 732.7287,-355.5303 722.331,-357.5643 725.8688,-363.6045"/>
</g>
<!-- Node3 -->
<g id="node3" class="node">
<title>Node3</title>
<g id="a_node3"><a xlink:title=" ">
<polygon fill="#ffffff" stroke="#bfbfbf" points="741,-280.5 741,-299.5 815,-299.5 815,-280.5 741,-280.5"/>
<text text-anchor="middle" x="778" y="-287.5" font-family="Helvetica,sans-Serif" font-size="10.00" fill="#000000">QTcpSocket</text>
</a>
</g>
</g>
<!-- Node2&#45;&gt;Node3 -->
<g id="edge2" class="edge">
<title>Node2&#45;&gt;Node3</title>
<path fill="none" stroke="#191970" d="M634.5728,-338.0953C661.9503,-328.9149 707.4937,-313.6428 739.9121,-302.772"/>
<polygon fill="#191970" stroke="#191970" points="741.1486,-306.049 749.517,-299.5512 738.923,-299.4122 741.1486,-306.049"/>
</g>
<!-- Node2&#45;&gt;Node4 -->
<g id="edge3" class="edge">
<title>Node2&#45;&gt;Node4</title>
<path fill="none" stroke="#191970" d="M587.4663,-344.9313C517.694,-341.507 306.0342,-329.2725 133,-300 131.5552,-299.7556 130.0859,-299.4883 128.6047,-299.2033"/>
<polygon fill="#191970" stroke="#191970" points="129.3009,-295.7731 118.7918,-297.1176 127.8456,-302.6202 129.3009,-295.7731"/>
</g>
<!-- Node5 -->
<g id="node5" class="node">
<title>Node5</title>
<g id="a_node5"><a xlink:title=" ">
<polygon fill="#ffffff" stroke="#bfbfbf" points="833,-280.5 833,-299.5 891,-299.5 891,-280.5 833,-280.5"/>
<text text-anchor="middle" x="862" y="-287.5" font-family="Helvetica,sans-Serif" font-size="10.00" fill="#000000">QThread</text>
</a>
</g>
</g>
<!-- Node2&#45;&gt;Node5 -->
<g id="edge4" class="edge">
<title>Node2&#45;&gt;Node5</title>
<path fill="none" stroke="#191970" d="M634.7164,-338.5133C637.8263,-337.6199 640.9806,-336.7575 644,-336 720.0407,-316.9222 742.7566,-318.2481 822.9289,-300.1317"/>
<polygon fill="#191970" stroke="#191970" points="824.0332,-303.4694 832.9983,-297.8233 822.469,-296.6464 824.0332,-303.4694"/>
</g>
<!-- Node6 -->
<g id="node6" class="node">
<title>Node6</title>
<g id="a_node6"><a xlink:title=" ">
<polygon fill="#ffffff" stroke="#bfbfbf" points="909.5,-280.5 909.5,-299.5 974.5,-299.5 974.5,-280.5 909.5,-280.5"/>
<text text-anchor="middle" x="942" y="-287.5" font-family="Helvetica,sans-Serif" font-size="10.00" fill="#000000">QStringList</text>
</a>
</g>
</g>
<!-- Node2&#45;&gt;Node6 -->
<g id="edge5" class="edge">
<title>Node2&#45;&gt;Node6</title>
<path fill="none" stroke="#191970" d="M634.6772,-338.3468C637.7935,-337.4806 640.96,-336.6701 644,-336 753.0257,-311.9662 785.2847,-320.7877 898.9022,-300.0456"/>
<polygon fill="#191970" stroke="#191970" points="899.8582,-303.4278 909.0478,-298.1551 898.5758,-296.5463 899.8582,-303.4278"/>
</g>
<!-- Node7 -->
<g id="node7" class="node">
<title>Node7</title>
<g id="a_node7"><a xlink:title=" ">
<polygon fill="#ffffff" stroke="#bfbfbf" points="0,-112.5 0,-131.5 50,-131.5 50,-112.5 0,-112.5"/>
<text text-anchor="middle" x="25" y="-119.5" font-family="Helvetica,sans-Serif" font-size="10.00" fill="#000000">QString</text>
</a>
</g>
</g>
<!-- Node2&#45;&gt;Node7 -->
<g id="edge6" class="edge">
<title>Node2&#45;&gt;Node7</title>
<path fill="none" stroke="#191970" d="M587.3469,-338.6468C520.0773,-317.5239 322.2558,-253.9441 163,-188 123.9305,-171.8222 80.0755,-150.2363 52.5022,-136.2283"/>
<polygon fill="#191970" stroke="#191970" points="53.9604,-133.043 43.4628,-131.6108 50.776,-139.2767 53.9604,-133.043"/>
</g>
<!-- Node8 -->
<g id="node8" class="node">
<title>Node8</title>
<g id="a_node8"><a xlink:href="scene_8h.html" target="_top" xlink:title=" ">
<polygon fill="#ffffff" stroke="#000000" points="899,-224.5 899,-243.5 951,-243.5 951,-224.5 899,-224.5"/>
<text text-anchor="middle" x="925" y="-231.5" font-family="Helvetica,sans-Serif" font-size="10.00" fill="#000000">scene.h</text>
</a>
</g>
</g>
<!-- Node2&#45;&gt;Node8 -->
<g id="edge7" class="edge">
<title>Node2&#45;&gt;Node8</title>
<path fill="none" stroke="#191970" d="M628.3982,-336.352C660.5742,-318.5313 726.6109,-282.0696 732,-280 784.8374,-259.709 849.3595,-246.5147 888.7981,-239.6664"/>
<polygon fill="#191970" stroke="#191970" points="889.4687,-243.1028 898.7439,-237.982 888.2998,-236.2011 889.4687,-243.1028"/>
</g>
<!-- Node14 -->
<g id="node14" class="node">
<title>Node14</title>
<g id="a_node14"><a xlink:href="maptile_8h.html" target="_top" xlink:title=" ">
<polygon fill="#ffffff" stroke="#000000" points="485,-168.5 485,-187.5 541,-187.5 541,-168.5 485,-168.5"/>
<text text-anchor="middle" x="513" y="-175.5" font-family="Helvetica,sans-Serif" font-size="10.00" fill="#000000">maptile.h</text>
</a>
</g>
</g>
<!-- Node2&#45;&gt;Node14 -->
<g id="edge34" class="edge">
<title>Node2&#45;&gt;Node14</title>
<path fill="none" stroke="#191970" d="M605.4503,-336.4862C589.7576,-309.5845 544.8497,-232.5994 523.9476,-196.7673"/>
<polygon fill="#191970" stroke="#191970" points="526.7949,-194.7021 518.7329,-187.8279 520.7485,-198.2293 526.7949,-194.7021"/>
</g>
<!-- Node23 -->
<g id="node23" class="node">
<title>Node23</title>
<g id="a_node23"><a xlink:href="datamodel_8h.html" target="_top" xlink:title=" ">
<polygon fill="#ffffff" stroke="#000000" points="635.5,-168.5 635.5,-187.5 708.5,-187.5 708.5,-168.5 635.5,-168.5"/>
<text text-anchor="middle" x="672" y="-175.5" font-family="Helvetica,sans-Serif" font-size="10.00" fill="#000000">datamodel.h</text>
</a>
</g>
</g>
<!-- Node2&#45;&gt;Node23 -->
<g id="edge35" class="edge">
<title>Node2&#45;&gt;Node23</title>
<path fill="none" stroke="#191970" d="M613.7138,-336.0723C617.3322,-323.0803 624.0876,-299.6526 631,-280 641.2999,-250.7165 655.062,-217.4696 663.7293,-197.1162"/>
<polygon fill="#191970" stroke="#191970" points="667.0267,-198.3072 667.7519,-187.7373 660.5935,-195.548 667.0267,-198.3072"/>
</g>
<!-- Node29 -->
<g id="node29" class="node">
<title>Node29</title>
<g id="a_node29"><a xlink:href="view_8h.html" target="_top" xlink:title=" ">
<polygon fill="#ffffff" stroke="#000000" points="639.5,-280.5 639.5,-299.5 684.5,-299.5 684.5,-280.5 639.5,-280.5"/>
<text text-anchor="middle" x="662" y="-287.5" font-family="Helvetica,sans-Serif" font-size="10.00" fill="#000000">view.h</text>
</a>
</g>
</g>
<!-- Node2&#45;&gt;Node29 -->
<g id="edge36" class="edge">
<title>Node2&#45;&gt;Node29</title>
<path fill="none" stroke="#191970" d="M619.8835,-336.2455C627.1966,-328.2155 637.7391,-316.6394 646.4467,-307.0781"/>
<polygon fill="#191970" stroke="#191970" points="649.0727,-309.3928 653.2183,-299.6427 643.8972,-304.6795 649.0727,-309.3928"/>
</g>
<!-- Node34 -->
<g id="node34" class="node">
<title>Node34</title>
<g id="a_node34"><a xlink:href="maprenderer_8h.html" target="_top" xlink:title=" ">
<polygon fill="#ffffff" stroke="#000000" points="423,-224.5 423,-243.5 505,-243.5 505,-224.5 423,-224.5"/>
<text text-anchor="middle" x="464" y="-231.5" font-family="Helvetica,sans-Serif" font-size="10.00" fill="#000000">maprenderer.h</text>
</a>
</g>
</g>
<!-- Node2&#45;&gt;Node34 -->
<g id="edge45" class="edge">
<title>Node2&#45;&gt;Node34</title>
<path fill="none" stroke="#191970" d="M596.8724,-336.3759C583.5828,-327.2351 563.2106,-312.9966 546,-300 524.1429,-283.4946 499.7727,-263.6938 483.3235,-250.1134"/>
<polygon fill="#191970" stroke="#191970" points="485.4319,-247.3151 475.4989,-243.6292 480.9654,-252.7049 485.4319,-247.3151"/>
</g>
<!-- Node9 -->
<g id="node9" class="node">
<title>Node9</title>
<g id="a_node9"><a xlink:title=" ">
<polygon fill="#ffffff" stroke="#bfbfbf" points="820,-168.5 820,-187.5 914,-187.5 914,-168.5 820,-168.5"/>
<text text-anchor="middle" x="867" y="-175.5" font-family="Helvetica,sans-Serif" font-size="10.00" fill="#000000">QGraphicsScene</text>
</a>
</g>
</g>
<!-- Node8&#45;&gt;Node9 -->
<g id="edge8" class="edge">
<title>Node8&#45;&gt;Node9</title>
<path fill="none" stroke="#191970" d="M914.8972,-224.2455C906.4972,-216.1352 894.3506,-204.4075 884.3916,-194.7919"/>
<polygon fill="#191970" stroke="#191970" points="886.6122,-192.0707 876.9871,-187.6427 881.75,-197.1066 886.6122,-192.0707"/>
</g>
<!-- Node10 -->
<g id="node10" class="node">
<title>Node10</title>
<g id="a_node10"><a xlink:title=" ">
<polygon fill="#ffffff" stroke="#bfbfbf" points="932,-168.5 932,-187.5 1036,-187.5 1036,-168.5 932,-168.5"/>
<text text-anchor="middle" x="984" y="-175.5" font-family="Helvetica,sans-Serif" font-size="10.00" fill="#000000">QGraphicsTextItem</text>
</a>
</g>
</g>
<!-- Node8&#45;&gt;Node10 -->
<g id="edge9" class="edge">
<title>Node8&#45;&gt;Node10</title>
<path fill="none" stroke="#191970" d="M935.277,-224.2455C943.8218,-216.1352 956.1778,-204.4075 966.3085,-194.7919"/>
<polygon fill="#191970" stroke="#191970" points="968.9972,-197.0655 973.8408,-187.6427 964.1782,-191.9884 968.9972,-197.0655"/>
</g>
<!-- Node11 -->
<g id="node11" class="node">
<title>Node11</title>
<g id="a_node11"><a xlink:title=" ">
<polygon fill="#ffffff" stroke="#bfbfbf" points="1054.5,-168.5 1054.5,-187.5 1137.5,-187.5 1137.5,-168.5 1054.5,-168.5"/>
<text text-anchor="middle" x="1096" y="-175.5" font-family="Helvetica,sans-Serif" font-size="10.00" fill="#000000">QGraphicsItem</text>
</a>
</g>
</g>
<!-- Node8&#45;&gt;Node11 -->
<g id="edge10" class="edge">
<title>Node8&#45;&gt;Node11</title>
<path fill="none" stroke="#191970" d="M951.344,-225.3727C979.6165,-216.1139 1024.8156,-201.3118 1057.1655,-190.7177"/>
<polygon fill="#191970" stroke="#191970" points="1058.3456,-194.0142 1066.7597,-187.5758 1056.167,-187.3619 1058.3456,-194.0142"/>
</g>
<!-- Node12 -->
<g id="node12" class="node">
<title>Node12</title>
<g id="a_node12"><a xlink:title=" ">
<polygon fill="#ffffff" stroke="#bfbfbf" points="1289,-.5 1289,-19.5 1393,-19.5 1393,-.5 1289,-.5"/>
<text text-anchor="middle" x="1341" y="-7.5" font-family="Helvetica,sans-Serif" font-size="10.00" fill="#000000">QGraphicsRectItem</text>
</a>
</g>
</g>
<!-- Node8&#45;&gt;Node12 -->
<g id="edge11" class="edge">
<title>Node8&#45;&gt;Node12</title>
<path fill="none" stroke="#191970" d="M951.2568,-232.4877C1034.0128,-227.5044 1285.6108,-210.6183 1314,-188 1361.9447,-149.8014 1362.4153,-116.7208 1354,-56 1352.7643,-47.0835 1350.2419,-37.4647 1347.745,-29.3395"/>
<polygon fill="#191970" stroke="#191970" points="1351.0274,-28.1164 1344.5876,-19.7033 1344.3753,-30.296 1351.0274,-28.1164"/>
</g>
<!-- Node13 -->
<g id="node13" class="node">
<title>Node13</title>
<g id="a_node13"><a xlink:title=" ">
<polygon fill="#ffffff" stroke="#bfbfbf" points="1155.5,-168.5 1155.5,-187.5 1268.5,-187.5 1268.5,-168.5 1155.5,-168.5"/>
<text text-anchor="middle" x="1212" y="-175.5" font-family="Helvetica,sans-Serif" font-size="10.00" fill="#000000">QGraphicsEllipseItem</text>
</a>
</g>
</g>
<!-- Node8&#45;&gt;Node13 -->
<g id="edge12" class="edge">
<title>Node8&#45;&gt;Node13</title>
<path fill="none" stroke="#191970" d="M951.2302,-228.8819C996.715,-220.0068 1091.2759,-201.5559 1153.1529,-189.4824"/>
<polygon fill="#191970" stroke="#191970" points="1154.0244,-192.8784 1163.169,-187.528 1152.6837,-186.008 1154.0244,-192.8784"/>
</g>
<!-- Node8&#45;&gt;Node14 -->
<g id="edge13" class="edge">
<title>Node8&#45;&gt;Node14</title>
<path fill="none" stroke="#191970" d="M898.915,-230.4545C828.4331,-220.8744 633.9233,-194.4362 551.1199,-183.1813"/>
<polygon fill="#191970" stroke="#191970" points="551.5072,-179.7019 541.1269,-181.8231 550.5643,-186.6381 551.5072,-179.7019"/>
</g>
<!-- Node18 -->
<g id="node18" class="node">
<title>Node18</title>
<g id="a_node18"><a xlink:href="graphicsmanager_8h.html" target="_top" xlink:title=" ">
<polygon fill="#ffffff" stroke="#000000" points="447.5,-112.5 447.5,-131.5 550.5,-131.5 550.5,-112.5 447.5,-112.5"/>
<text text-anchor="middle" x="499" y="-119.5" font-family="Helvetica,sans-Serif" font-size="10.00" fill="#000000">graphicsmanager.h</text>
</a>
</g>
</g>
<!-- Node8&#45;&gt;Node18 -->
<g id="edge21" class="edge">
<title>Node8&#45;&gt;Node18</title>
<path fill="none" stroke="#191970" d="M898.9321,-231.0693C836.0811,-223.8279 677.6505,-204.4827 627,-188 588.4201,-175.4453 547.3206,-152.2888 522.3965,-137.0149"/>
<polygon fill="#191970" stroke="#191970" points="524.0142,-133.8993 513.6751,-131.5856 520.3148,-139.8418 524.0142,-133.8993"/>
</g>
<!-- Node21 -->
<g id="node21" class="node">
<title>Node21</title>
<g id="a_node21"><a xlink:href="player_8h.html" target="_top" xlink:title=" ">
<polygon fill="#ffffff" stroke="#000000" points="904,-112.5 904,-131.5 956,-131.5 956,-112.5 904,-112.5"/>
<text text-anchor="middle" x="930" y="-119.5" font-family="Helvetica,sans-Serif" font-size="10.00" fill="#000000">player.h</text>
</a>
</g>
</g>
<!-- Node8&#45;&gt;Node21 -->
<g id="edge22" class="edge">
<title>Node8&#45;&gt;Node21</title>
<path fill="none" stroke="#191970" d="M951.0594,-232.5555C1029.0234,-227.9707 1256.412,-212.5836 1278,-188 1283.8653,-181.3208 1283.9154,-174.6348 1278,-168 1233.3178,-117.8841 1049.6345,-143.3467 966.3736,-131.708"/>
<polygon fill="#191970" stroke="#191970" points="966.7032,-128.2142 956.2603,-130.0022 965.5389,-135.1167 966.7032,-128.2142"/>
</g>
<!-- Node22 -->
<g id="node22" class="node">
<title>Node22</title>
<g id="a_node22"><a xlink:href="highlighter_8h.html" target="_top" xlink:title=" ">
<polygon fill="#ffffff" stroke="#000000" points="1275,-56.5 1275,-75.5 1345,-75.5 1345,-56.5 1275,-56.5"/>
<text text-anchor="middle" x="1310" y="-63.5" font-family="Helvetica,sans-Serif" font-size="10.00" fill="#000000">highlighter.h</text>
</a>
</g>
</g>
<!-- Node8&#45;&gt;Node22 -->
<g id="edge25" class="edge">
<title>Node8&#45;&gt;Node22</title>
<path fill="none" stroke="#191970" d="M951.2347,-232.5608C1031.4801,-227.9107 1269.6714,-212.1739 1294,-188 1320.916,-161.2552 1318.1836,-112.8902 1313.9877,-85.7829"/>
<polygon fill="#191970" stroke="#191970" points="1317.3731,-84.828 1312.182,-75.592 1310.4805,-86.0493 1317.3731,-84.828"/>
</g>
<!-- Node8&#45;&gt;Node23 -->
<g id="edge26" class="edge">
<title>Node8&#45;&gt;Node23</title>
<path fill="none" stroke="#191970" d="M898.8775,-228.2179C856.2972,-218.7931 771.3694,-199.9948 718.3603,-188.2616"/>
<polygon fill="#191970" stroke="#191970" points="719.0488,-184.8293 708.5287,-186.0854 717.536,-191.6639 719.0488,-184.8293"/>
</g>
<!-- Node15 -->
<g id="node15" class="node">
<title>Node15</title>
<g id="a_node15"><a xlink:title=" ">
<polygon fill="#ffffff" stroke="#bfbfbf" points="273.5,-112.5 273.5,-131.5 390.5,-131.5 390.5,-112.5 273.5,-112.5"/>
<text text-anchor="middle" x="332" y="-119.5" font-family="Helvetica,sans-Serif" font-size="10.00" fill="#000000">QGraphicsPixmapItem</text>
</a>
</g>
</g>
<!-- Node14&#45;&gt;Node15 -->
<g id="edge14" class="edge">
<title>Node14&#45;&gt;Node15</title>
<path fill="none" stroke="#191970" d="M484.7188,-169.25C454.5844,-159.9267 406.6119,-145.0843 372.4795,-134.5241"/>
<polygon fill="#191970" stroke="#191970" points="373.3944,-131.1435 362.8067,-131.5314 371.3254,-137.8307 373.3944,-131.1435"/>
</g>
<!-- Node16 -->
<g id="node16" class="node">
<title>Node16</title>
<g id="a_node16"><a xlink:href="city_8h.html" target="_top" xlink:title=" ">
<polygon fill="#ffffff" stroke="#000000" points="568.5,-112.5 568.5,-131.5 607.5,-131.5 607.5,-112.5 568.5,-112.5"/>
<text text-anchor="middle" x="588" y="-119.5" font-family="Helvetica,sans-Serif" font-size="10.00" fill="#000000">city.h</text>
</a>
</g>
</g>
<!-- Node14&#45;&gt;Node16 -->
<g id="edge15" class="edge">
<title>Node14&#45;&gt;Node16</title>
<path fill="none" stroke="#191970" d="M526.064,-168.2455C537.3562,-159.814 553.8845,-147.4729 567.0271,-137.6598"/>
<polygon fill="#191970" stroke="#191970" points="569.1669,-140.4301 575.0857,-131.6427 564.9789,-134.8211 569.1669,-140.4301"/>
</g>
<!-- Node14&#45;&gt;Node18 -->
<g id="edge17" class="edge">
<title>Node14&#45;&gt;Node18</title>
<path fill="none" stroke="#191970" d="M510.5614,-168.2455C508.7145,-160.8579 506.1172,-150.4689 503.8522,-141.4087"/>
<polygon fill="#191970" stroke="#191970" points="507.2316,-140.4952 501.4107,-131.6427 500.4406,-142.193 507.2316,-140.4952"/>
</g>
<!-- Node17 -->
<g id="node17" class="node">
<title>Node17</title>
<g id="a_node17"><a xlink:title=" ">
<polygon fill="#ffffff" stroke="#bfbfbf" points="567.5,-56.5 567.5,-75.5 608.5,-75.5 608.5,-56.5 567.5,-56.5"/>
<text text-anchor="middle" x="588" y="-63.5" font-family="Helvetica,sans-Serif" font-size="10.00" fill="#000000">string</text>
</a>
</g>
</g>
<!-- Node16&#45;&gt;Node17 -->
<g id="edge16" class="edge">
<title>Node16&#45;&gt;Node17</title>
<path fill="none" stroke="#191970" d="M588,-112.2455C588,-104.9382 588,-94.6944 588,-85.7046"/>
<polygon fill="#191970" stroke="#191970" points="591.5001,-85.6426 588,-75.6427 584.5001,-85.6427 591.5001,-85.6426"/>
</g>
<!-- Node18&#45;&gt;Node17 -->
<g id="edge20" class="edge">
<title>Node18&#45;&gt;Node17</title>
<path fill="none" stroke="#191970" d="M514.5026,-112.2455C528.158,-103.6534 548.2657,-91.0014 563.9989,-81.1018"/>
<polygon fill="#191970" stroke="#191970" points="566.0751,-83.9307 572.675,-75.6427 562.3471,-78.006 566.0751,-83.9307"/>
</g>
<!-- Node19 -->
<g id="node19" class="node">
<title>Node19</title>
<g id="a_node19"><a xlink:title=" ">
<polygon fill="#ffffff" stroke="#bfbfbf" points="470,-56.5 470,-75.5 528,-75.5 528,-56.5 470,-56.5"/>
<text text-anchor="middle" x="499" y="-63.5" font-family="Helvetica,sans-Serif" font-size="10.00" fill="#000000">QPixmap</text>
</a>
</g>
</g>
<!-- Node18&#45;&gt;Node19 -->
<g id="edge18" class="edge">
<title>Node18&#45;&gt;Node19</title>
<path fill="none" stroke="#191970" d="M499,-112.2455C499,-104.9382 499,-94.6944 499,-85.7046"/>
<polygon fill="#191970" stroke="#191970" points="502.5001,-85.6426 499,-75.6427 495.5001,-85.6427 502.5001,-85.6426"/>
</g>
<!-- Node20 -->
<g id="node20" class="node">
<title>Node20</title>
<g id="a_node20"><a xlink:title=" ">
<polygon fill="#ffffff" stroke="#bfbfbf" points="324.5,-56.5 324.5,-75.5 377.5,-75.5 377.5,-56.5 324.5,-56.5"/>
<text text-anchor="middle" x="351" y="-63.5" font-family="Helvetica,sans-Serif" font-size="10.00" fill="#000000">QImage</text>
</a>
</g>
</g>
<!-- Node18&#45;&gt;Node20 -->
<g id="edge19" class="edge">
<title>Node18&#45;&gt;Node20</title>
<path fill="none" stroke="#191970" d="M473.5579,-112.3733C449.2674,-103.1822 412.4792,-89.2624 385.5457,-79.0713"/>
<polygon fill="#191970" stroke="#191970" points="386.7016,-75.7666 376.1101,-75.5011 384.2243,-82.3136 386.7016,-75.7666"/>
</g>
<!-- Node21&#45;&gt;Node22 -->
<g id="edge23" class="edge">
<title>Node21&#45;&gt;Node22</title>
<path fill="none" stroke="#191970" d="M956.2709,-114.0497C959.2009,-113.2957 962.1541,-112.593 965,-112 1071.4069,-89.8285 1198.611,-76.1038 1264.8522,-69.9019"/>
<polygon fill="#191970" stroke="#191970" points="1265.3112,-73.3745 1274.9476,-68.971 1264.6684,-66.4041 1265.3112,-73.3745"/>
</g>
<!-- Node22&#45;&gt;Node12 -->
<g id="edge24" class="edge">
<title>Node22&#45;&gt;Node12</title>
<path fill="none" stroke="#191970" d="M1315.3998,-56.2455C1319.6227,-48.617 1325.6173,-37.7881 1330.7441,-28.5267"/>
<polygon fill="#191970" stroke="#191970" points="1333.881,-30.0867 1335.6621,-19.6427 1327.7568,-26.6965 1333.881,-30.0867"/>
</g>
<!-- Node23&#45;&gt;Node17 -->
<g id="edge27" class="edge">
<title>Node23&#45;&gt;Node17</title>
<path fill="none" stroke="#191970" d="M679.4332,-168.3117C688.8521,-154.7593 702.5493,-129.8067 691,-112 675.1478,-87.5592 642.9423,-75.9905 618.7399,-70.587"/>
<polygon fill="#191970" stroke="#191970" points="619.42,-67.1538 608.9284,-68.6291 618.0501,-74.0184 619.42,-67.1538"/>
</g>
<!-- Node23&#45;&gt;Node21 -->
<g id="edge33" class="edge">
<title>Node23&#45;&gt;Node21</title>
<path fill="none" stroke="#191970" d="M708.6488,-169.9865C711.8105,-169.3093 714.9609,-168.6394 718,-168 793.489,-152.1186 815.3268,-151.0996 893.8239,-132.1566"/>
<polygon fill="#191970" stroke="#191970" points="894.797,-135.522 903.6851,-129.7554 893.1409,-128.7207 894.797,-135.522"/>
</g>
<!-- Node24 -->
<g id="node24" class="node">
<title>Node24</title>
<g id="a_node24"><a xlink:title=" ">
<polygon fill="#ffffff" stroke="#bfbfbf" points="836.5,-112.5 836.5,-131.5 885.5,-131.5 885.5,-112.5 836.5,-112.5"/>
<text text-anchor="middle" x="861" y="-119.5" font-family="Helvetica,sans-Serif" font-size="10.00" fill="#000000">QLabel</text>
</a>
</g>
</g>
<!-- Node23&#45;&gt;Node24 -->
<g id="edge28" class="edge">
<title>Node23&#45;&gt;Node24</title>
<path fill="none" stroke="#191970" d="M704.4903,-168.3733C738.5917,-158.2691 791.9817,-142.4499 826.7348,-132.1526"/>
<polygon fill="#191970" stroke="#191970" points="827.8516,-135.4722 836.4452,-129.2755 825.8629,-128.7606 827.8516,-135.4722"/>
</g>
<!-- Node25 -->
<g id="node25" class="node">
<title>Node25</title>
<g id="a_node25"><a xlink:title=" ">
<polygon fill="#ffffff" stroke="#bfbfbf" points="626,-112.5 626,-131.5 682,-131.5 682,-112.5 626,-112.5"/>
<text text-anchor="middle" x="654" y="-119.5" font-family="Helvetica,sans-Serif" font-size="10.00" fill="#000000">QWidget</text>
</a>
</g>
</g>
<!-- Node23&#45;&gt;Node25 -->
<g id="edge29" class="edge">
<title>Node23&#45;&gt;Node25</title>
<path fill="none" stroke="#191970" d="M668.8646,-168.2455C666.49,-160.8579 663.1507,-150.4689 660.2385,-141.4087"/>
<polygon fill="#191970" stroke="#191970" points="663.4917,-140.0919 657.0994,-131.6427 656.8275,-142.234 663.4917,-140.0919"/>
</g>
<!-- Node26 -->
<g id="node26" class="node">
<title>Node26</title>
<g id="a_node26"><a xlink:href="mainwindow_8h.html" target="_top" xlink:title=" ">
<polygon fill="#ffffff" stroke="#000000" points="738,-112.5 738,-131.5 818,-131.5 818,-112.5 738,-112.5"/>
<text text-anchor="middle" x="778" y="-119.5" font-family="Helvetica,sans-Serif" font-size="10.00" fill="#000000">mainwindow.h</text>
</a>
</g>
</g>
<!-- Node23&#45;&gt;Node26 -->
<g id="edge30" class="edge">
<title>Node23&#45;&gt;Node26</title>
<path fill="none" stroke="#191970" d="M690.4638,-168.2455C707.1074,-159.4527 731.7993,-146.4079 750.7192,-136.4125"/>
<polygon fill="#191970" stroke="#191970" points="752.5408,-139.4086 759.7478,-131.6427 749.2709,-133.2193 752.5408,-139.4086"/>
</g>
<!-- Node27 -->
<g id="node27" class="node">
<title>Node27</title>
<g id="a_node27"><a xlink:title=" ">
<polygon fill="#ffffff" stroke="#bfbfbf" points="690.5,-56.5 690.5,-75.5 773.5,-75.5 773.5,-56.5 690.5,-56.5"/>
<text text-anchor="middle" x="732" y="-63.5" font-family="Helvetica,sans-Serif" font-size="10.00" fill="#000000">QMainWindow</text>
</a>
</g>
</g>
<!-- Node26&#45;&gt;Node27 -->
<g id="edge31" class="edge">
<title>Node26&#45;&gt;Node27</title>
<path fill="none" stroke="#191970" d="M769.9874,-112.2455C763.5232,-104.3761 754.2615,-93.101 746.5017,-83.6542"/>
<polygon fill="#191970" stroke="#191970" points="748.9727,-81.1484 739.9208,-75.6427 743.5636,-85.5916 748.9727,-81.1484"/>
</g>
<!-- Node28 -->
<g id="node28" class="node">
<title>Node28</title>
<g id="a_node28"><a xlink:title=" ">
<polygon fill="#ffffff" stroke="#bfbfbf" points="791.5,-56.5 791.5,-75.5 858.5,-75.5 858.5,-56.5 791.5,-56.5"/>
<text text-anchor="middle" x="825" y="-63.5" font-family="Helvetica,sans-Serif" font-size="10.00" fill="#000000">QKeyEvent</text>
</a>
</g>
</g>
<!-- Node26&#45;&gt;Node28 -->
<g id="edge32" class="edge">
<title>Node26&#45;&gt;Node28</title>
<path fill="none" stroke="#191970" d="M786.1868,-112.2455C792.8589,-104.2958 802.4479,-92.8706 810.4253,-83.3656"/>
<polygon fill="#191970" stroke="#191970" points="813.1592,-85.5525 816.907,-75.6427 807.7974,-81.0524 813.1592,-85.5525"/>
</g>
<!-- Node29&#45;&gt;Node8 -->
<g id="edge38" class="edge">
<title>Node29&#45;&gt;Node8</title>
<path fill="none" stroke="#191970" d="M684.6406,-283.638C689.3714,-282.377 694.3378,-281.1033 699,-280 765.5537,-264.2497 843.9056,-249.039 888.684,-240.6595"/>
<polygon fill="#191970" stroke="#191970" points="889.5924,-244.0506 898.7827,-238.7791 888.311,-237.1689 889.5924,-244.0506"/>
</g>
<!-- Node29&#45;&gt;Node23 -->
<g id="edge39" class="edge">
<title>Node29&#45;&gt;Node23</title>
<path fill="none" stroke="#191970" d="M662.8526,-280.4509C664.4836,-262.184 668.0754,-221.9553 670.2413,-197.6976"/>
<polygon fill="#191970" stroke="#191970" points="673.7463,-197.7966 671.1496,-187.5249 666.774,-197.174 673.7463,-197.7966"/>
</g>
<!-- Node30 -->
<g id="node30" class="node">
<title>Node30</title>
<g id="a_node30"><a xlink:title=" ">
<polygon fill="#ffffff" stroke="#bfbfbf" points="728.5,-224.5 728.5,-243.5 815.5,-243.5 815.5,-224.5 728.5,-224.5"/>
<text text-anchor="middle" x="772" y="-231.5" font-family="Helvetica,sans-Serif" font-size="10.00" fill="#000000">QGraphicsView</text>
</a>
</g>
</g>
<!-- Node29&#45;&gt;Node30 -->
<g id="edge37" class="edge">
<title>Node29&#45;&gt;Node30</title>
<path fill="none" stroke="#191970" d="M681.1605,-280.2455C698.5111,-271.4125 724.2901,-258.2887 743.9583,-248.2758"/>
<polygon fill="#191970" stroke="#191970" points="745.7353,-251.2986 753.059,-243.6427 742.5595,-245.0605 745.7353,-251.2986"/>
</g>
<!-- Node31 -->
<g id="node31" class="node">
<title>Node31</title>
<g id="a_node31"><a xlink:href="tooltipmenu_8h.html" target="_top" xlink:title=" ">
<polygon fill="#ffffff" stroke="#000000" points="726.5,-168.5 726.5,-187.5 801.5,-187.5 801.5,-168.5 726.5,-168.5"/>
<text text-anchor="middle" x="764" y="-175.5" font-family="Helvetica,sans-Serif" font-size="10.00" fill="#000000">tooltipmenu.h</text>
</a>
</g>
</g>
<!-- Node29&#45;&gt;Node31 -->
<g id="edge40" class="edge">
<title>Node29&#45;&gt;Node31</title>
<path fill="none" stroke="#191970" d="M670.1366,-280.4897C681.246,-267.5629 701.8562,-243.7882 720,-224 728.9204,-214.2712 739.0946,-203.6075 747.4111,-194.9989"/>
<polygon fill="#191970" stroke="#191970" points="749.9861,-197.3712 754.4371,-187.7567 744.9618,-192.4971 749.9861,-197.3712"/>
</g>
<!-- Node31&#45;&gt;Node24 -->
<g id="edge42" class="edge">
<title>Node31&#45;&gt;Node24</title>
<path fill="none" stroke="#191970" d="M780.8961,-168.2455C795.918,-159.5731 818.1043,-146.7645 835.321,-136.825"/>
<polygon fill="#191970" stroke="#191970" points="837.3871,-139.6737 844.2975,-131.6427 833.8872,-133.6114 837.3871,-139.6737"/>
</g>
<!-- Node31&#45;&gt;Node25 -->
<g id="edge41" class="edge">
<title>Node31&#45;&gt;Node25</title>
<path fill="none" stroke="#191970" d="M744.8395,-168.2455C727.4889,-159.4125 701.7099,-146.2887 682.0417,-136.2758"/>
<polygon fill="#191970" stroke="#191970" points="683.4405,-133.0605 672.941,-131.6427 680.2647,-139.2986 683.4405,-133.0605"/>
</g>
<!-- Node32 -->
<g id="node32" class="node">
<title>Node32</title>
<g id="a_node32"><a xlink:title=" ">
<polygon fill="#ffffff" stroke="#bfbfbf" points="1066,-112.5 1066,-131.5 1136,-131.5 1136,-112.5 1066,-112.5"/>
<text text-anchor="middle" x="1101" y="-119.5" font-family="Helvetica,sans-Serif" font-size="10.00" fill="#000000">QGroupBox</text>
</a>
</g>
</g>
<!-- Node31&#45;&gt;Node32 -->
<g id="edge43" class="edge">
<title>Node31&#45;&gt;Node32</title>
<path fill="none" stroke="#191970" d="M801.6681,-169.7627C804.82,-169.1412 807.9618,-168.5449 811,-168 916.5758,-149.0637 946.63,-152.059 1055.8748,-132.0892"/>
<polygon fill="#191970" stroke="#191970" points="1056.7911,-135.4791 1065.9868,-130.217 1055.5167,-128.596 1056.7911,-135.4791"/>
</g>
<!-- Node33 -->
<g id="node33" class="node">
<title>Node33</title>
<g id="a_node33"><a xlink:title=" ">
<polygon fill="#ffffff" stroke="#bfbfbf" points="974,-112.5 974,-131.5 1048,-131.5 1048,-112.5 974,-112.5"/>
<text text-anchor="middle" x="1011" y="-119.5" font-family="Helvetica,sans-Serif" font-size="10.00" fill="#000000">QGridLayout</text>
</a>
</g>
</g>
<!-- Node31&#45;&gt;Node33 -->
<g id="edge44" class="edge">
<title>Node31&#45;&gt;Node33</title>
<path fill="none" stroke="#191970" d="M801.514,-169.4948C845.0167,-159.6318 916.7777,-143.3621 963.9714,-132.6624"/>
<polygon fill="#191970" stroke="#191970" points="964.9637,-136.0263 973.9423,-130.4017 963.4159,-129.1995 964.9637,-136.0263"/>
</g>
<!-- Node34&#45;&gt;Node14 -->
<g id="edge50" class="edge">
<title>Node34&#45;&gt;Node14</title>
<path fill="none" stroke="#191970" d="M472.5351,-224.2455C479.4912,-216.2958 489.4883,-204.8706 497.8051,-195.3656"/>
<polygon fill="#191970" stroke="#191970" points="500.6116,-197.4732 504.5627,-187.6427 495.3436,-192.8637 500.6116,-197.4732"/>
</g>
<!-- Node34&#45;&gt;Node18 -->
<g id="edge48" class="edge">
<title>Node34&#45;&gt;Node18</title>
<path fill="none" stroke="#191970" d="M464.8842,-224.3893C466.277,-211.3487 469.5182,-187.4454 476,-168 479.1315,-158.6056 483.8664,-148.7175 488.2278,-140.5266"/>
<polygon fill="#191970" stroke="#191970" points="491.4321,-141.9658 493.2296,-131.5246 485.3132,-138.566 491.4321,-141.9658"/>
</g>
<!-- Node34&#45;&gt;Node23 -->
<g id="edge49" class="edge">
<title>Node34&#45;&gt;Node23</title>
<path fill="none" stroke="#191970" d="M499.7565,-224.3733C534.9426,-214.9001 588.7881,-200.4032 626.8956,-190.1435"/>
<polygon fill="#191970" stroke="#191970" points="627.9639,-193.4806 636.7101,-187.5011 626.144,-186.7213 627.9639,-193.4806"/>
</g>
<!-- Node34&#45;&gt;Node25 -->
<g id="edge46" class="edge">
<title>Node34&#45;&gt;Node25</title>
<path fill="none" stroke="#191970" d="M483.0119,-224.3472C500.5878,-215.3023 527.3335,-201.2297 550,-188 578.4758,-171.3796 610.3759,-150.8385 631.2461,-137.1284"/>
<polygon fill="#191970" stroke="#191970" points="633.3197,-139.9535 639.7399,-131.5255 629.4652,-134.1103 633.3197,-139.9535"/>
</g>
<!-- Node35 -->
<g id="node35" class="node">
<title>Node35</title>
<g id="a_node35"><a xlink:title=" ">
<polygon fill="#ffffff" stroke="#bfbfbf" points="68.5,-112.5 68.5,-131.5 107.5,-131.5 107.5,-112.5 68.5,-112.5"/>
<text text-anchor="middle" x="88" y="-119.5" font-family="Helvetica,sans-Serif" font-size="10.00" fill="#000000">QList</text>
</a>
</g>
</g>
<!-- Node34&#45;&gt;Node35 -->
<g id="edge47" class="edge">
<title>Node34&#45;&gt;Node35</title>
<path fill="none" stroke="#191970" d="M422.8019,-231.0746C370.5744,-226.3896 278.3823,-214.8317 204,-188 185.4949,-181.3247 140.5026,-154.4671 112.3026,-137.1379"/>
<polygon fill="#191970" stroke="#191970" points="113.793,-133.9447 103.4454,-131.6692 110.1154,-139.9009 113.793,-133.9447"/>
</g>
<!-- Node36 -->
<g id="node36" class="node">
<title>Node36</title>
<g id="a_node36"><a xlink:href="point_8h.html" target="_top" xlink:title=" ">
<polygon fill="#ffffff" stroke="#000000" points="187.5,-56.5 187.5,-75.5 232.5,-75.5 232.5,-56.5 187.5,-56.5"/>
<text text-anchor="middle" x="210" y="-63.5" font-family="Helvetica,sans-Serif" font-size="10.00" fill="#000000">point.h</text>
</a>
</g>
</g>
<!-- Node34&#45;&gt;Node36 -->
<g id="edge51" class="edge">
<title>Node34&#45;&gt;Node36</title>
<path fill="none" stroke="#191970" d="M461.7444,-224.3186C455.808,-201.0817 437.487,-141.8702 399,-112 374.8176,-93.2318 290.1034,-77.9768 242.7171,-70.6713"/>
<polygon fill="#191970" stroke="#191970" points="243.0588,-67.1833 232.6485,-69.152 242.0143,-74.1049 243.0588,-67.1833"/>
</g>
<!-- Node37 -->
<g id="node37" class="node">
<title>Node37</title>
<g id="a_node37"><a xlink:href="animationmovement_8h.html" target="_top" xlink:title=" ">
<polygon fill="#ffffff" stroke="#000000" points="213.5,-168.5 213.5,-187.5 328.5,-187.5 328.5,-168.5 213.5,-168.5"/>
<text text-anchor="middle" x="271" y="-175.5" font-family="Helvetica,sans-Serif" font-size="10.00" fill="#000000">animationmovement.h</text>
</a>
</g>
</g>
<!-- Node34&#45;&gt;Node37 -->
<g id="edge52" class="edge">
<title>Node34&#45;&gt;Node37</title>
<path fill="none" stroke="#191970" d="M430.8221,-224.3733C398.4513,-214.9807 349.0602,-200.6496 313.7576,-190.4064"/>
<polygon fill="#191970" stroke="#191970" points="314.3242,-186.9264 303.7449,-187.5011 312.3735,-193.6492 314.3242,-186.9264"/>
</g>
<!-- Node37&#45;&gt;Node7 -->
<g id="edge58" class="edge">
<title>Node37&#45;&gt;Node7</title>
<path fill="none" stroke="#191970" d="M222.3514,-168.487C181.4196,-160.2479 121.1545,-147.5709 60.0125,-132.1321"/>
<polygon fill="#191970" stroke="#191970" points="60.7495,-128.7082 50.1949,-129.6309 59.0212,-135.4915 60.7495,-128.7082"/>
</g>
<!-- Node37&#45;&gt;Node15 -->
<g id="edge59" class="edge">
<title>Node37&#45;&gt;Node15</title>
<path fill="none" stroke="#191970" d="M281.6254,-168.2455C290.5473,-160.0549 303.488,-148.1749 314.0192,-138.5069"/>
<polygon fill="#191970" stroke="#191970" points="316.4968,-140.9837 321.4964,-131.6427 311.7629,-135.8271 316.4968,-140.9837"/>
</g>
<!-- Node37&#45;&gt;Node35 -->
<g id="edge57" class="edge">
<title>Node37&#45;&gt;Node35</title>
<path fill="none" stroke="#191970" d="M239.5412,-168.3733C205.1822,-157.859 150.6004,-141.1564 117.172,-130.9269"/>
<polygon fill="#191970" stroke="#191970" points="118.109,-127.5535 107.5225,-127.9741 116.0607,-134.2472 118.109,-127.5535"/>
</g>
<!-- Node37&#45;&gt;Node36 -->
<g id="edge53" class="edge">
<title>Node37&#45;&gt;Node36</title>
<path fill="none" stroke="#191970" d="M213.3052,-169.2397C191.267,-162.7735 168.268,-151.5346 155,-132 142.3708,-113.406 163.6697,-93.8323 183.3282,-80.8759"/>
<polygon fill="#191970" stroke="#191970" points="185.1917,-83.8386 191.8325,-75.5832 181.493,-77.8955 185.1917,-83.8386"/>
</g>
<!-- Node38 -->
<g id="node38" class="node">
<title>Node38</title>
<g id="a_node38"><a xlink:href="animationentity_8h.html" target="_top" xlink:title=" ">
<polygon fill="#ffffff" stroke="#000000" points="164.5,-112.5 164.5,-131.5 255.5,-131.5 255.5,-112.5 164.5,-112.5"/>
<text text-anchor="middle" x="210" y="-119.5" font-family="Helvetica,sans-Serif" font-size="10.00" fill="#000000">animationentity.h</text>
</a>
</g>
</g>
<!-- Node37&#45;&gt;Node38 -->
<g id="edge54" class="edge">
<title>Node37&#45;&gt;Node38</title>
<path fill="none" stroke="#191970" d="M260.3746,-168.2455C251.4527,-160.0549 238.512,-148.1749 227.9808,-138.5069"/>
<polygon fill="#191970" stroke="#191970" points="230.2371,-135.8271 220.5036,-131.6427 225.5032,-140.9837 230.2371,-135.8271"/>
</g>
<!-- Node38&#45;&gt;Node20 -->
<g id="edge55" class="edge">
<title>Node38&#45;&gt;Node20</title>
<path fill="none" stroke="#191970" d="M234.2388,-112.3733C257.2789,-103.2226 292.1214,-89.3844 317.7501,-79.2057"/>
<polygon fill="#191970" stroke="#191970" points="319.0756,-82.4452 327.0775,-75.5011 316.4918,-75.9395 319.0756,-82.4452"/>
</g>
<!-- Node38&#45;&gt;Node36 -->
<g id="edge56" class="edge">
<title>Node38&#45;&gt;Node36</title>
<path fill="none" stroke="#191970" d="M210,-112.2455C210,-104.9382 210,-94.6944 210,-85.7046"/>
<polygon fill="#191970" stroke="#191970" points="213.5001,-85.6426 210,-75.6427 206.5001,-85.6427 213.5001,-85.6426"/>
</g>
</g>
</svg>
        <g id="navigator" transform="translate(0 0)" fill="#404254">
                <rect fill="#f2f5e9" fill-opacity="0.5" stroke="#606060" stroke-width=".5" x="0" y="0" width="60" height="60"/>
                <use id="zoomplus" xlink:href="#zoomPlus" x="17" y="9" onmousedown="handleZoom(evt,'in')"/>
                <use id="zoomminus" xlink:href="#zoomMin" x="42" y="9" onmousedown="handleZoom(evt,'out')"/>
                <use id="reset" xlink:href="#resetDef" x="30" y="36" onmousedown="handleReset()"/>
                <g id="arrowUp" xlink:href="#dirArrow" transform="translate(30 24)" onmousedown="handlePan(0,-1)">
                  <use xlink:href="#rim" fill="#404040">
                        <set attributeName="fill" to="#808080" begin="arrowUp.mouseover" end="arrowUp.mouseout"/>
                  </use>
                  <path fill="none" stroke="white" stroke-width="1.5" d="M0,-3.0v7 M-2.5,-0.5L0,-3.0L2.5,-0.5"/>
                </g>
                <g id="arrowRight" xlink:href="#dirArrow" transform="rotate(90) translate(36 -43)" onmousedown="handlePan(1,0)">
                  <use xlink:href="#rim" fill="#404040">
                        <set attributeName="fill" to="#808080" begin="arrowRight.mouseover" end="arrowRight.mouseout"/>
                  </use>
                  <path fill="none" stroke="white" stroke-width="1.5" d="M0,-3.0v7 M-2.5,-0.5L0,-3.0L2.5,-0.5"/>
                </g>
                <g id="arrowDown" xlink:href="#dirArrow" transform="rotate(180) translate(-30 -48)" onmousedown="handlePan(0,1)">
                  <use xlink:href="#rim" fill="#404040">
                        <set attributeName="fill" to="#808080" begin="arrowDown.mouseover" end="arrowDown.mouseout"/>
                  </use>
                  <path fill="none" stroke="white" stroke-width="1.5" d="M0,-3.0v7 M-2.5,-0.5L0,-3.0L2.5,-0.5"/>
                </g>
                <g id="arrowLeft" xlink:href="#dirArrow" transform="rotate(270) translate(-36 17)" onmousedown="handlePan(-1,0)">
                  <use xlink:href="#rim" fill="#404040">
                        <set attributeName="fill" to="#808080" begin="arrowLeft.mouseover" end="arrowLeft.mouseout"/>
                  </use>
                  <path fill="none" stroke="white" stroke-width="1.5" d="M0,-3.0v7 M-2.5,-0.5L0,-3.0L2.5,-0.5"/>
                </g>
        </g>
        <svg viewBox="0 0 15 15" width="100%" height="30px" preserveAspectRatio="xMaxYMin meet">
         <g id="arrow_out" transform="scale(0.3 0.3)">
          <a xlink:href="client_8cpp__incl_org.svg" target="_base">
           <rect id="button" ry="5" rx="5" y="6" x="6" height="38" width="38"
                fill="#f2f5e9" fill-opacity="0.5" stroke="#606060" stroke-width="1.0"/>
           <path id="arrow"
             d="M 11.500037,31.436501 C 11.940474,20.09759 22.043105,11.32322 32.158766,21.979434 L 37.068811,17.246167 C 37.068811,17.246167 37.088388,32 37.088388,32 L 22.160133,31.978069 C 22.160133,31.978069 26.997745,27.140456 26.997745,27.140456 C 18.528582,18.264221 13.291696,25.230495 11.500037,31.436501 z"
             style="fill:#404040;"/>
          </a>
         </g>
        </svg>
</svg>
