<?xml version="1.0" encoding="UTF-8" standalone="no"?>
<!DOCTYPE svg PUBLIC "-//W3C//DTD SVG 1.1//EN"
 "http://www.w3.org/Graphics/SVG/1.1/DTD/svg11.dtd">
<!-- Generated by graphviz version 2.40.1 (20161225.0304)
 -->
<!-- Title: src/application_server/client.h Pages: 1 -->
<!--zoomable 375 -->
<svg id="main" version="1.1" xmlns="http://www.w3.org/2000/svg" xmlns:xlink="http://www.w3.org/1999/xlink" xml:space="preserve" onload="init(evt)">
<style type="text/css"><![CDATA[
.edge:hover path { stroke: red; }
.edge:hover polygon { stroke: red; fill: red; }
]]></style>
<script type="text/javascript"><![CDATA[
var edges = document.getElementsByTagName('g');
if (edges && edges.length) {
  for (var i=0;i<edges.length;i++) {
    if (edges[i].id.substr(0,4)=='edge') {
      edges[i].setAttribute('class','edge');
    }
  }
}
]]></script>
        <defs>
                <circle id="rim" cx="0" cy="0" r="7"/>
                <circle id="rim2" cx="0" cy="0" r="3.5"/>
                <g id="zoomPlus">
                        <use xlink:href="#rim" fill="#404040">
                                <set attributeName="fill" to="#808080" begin="zoomplus.mouseover" end="zoomplus.mouseout"/>
                        </use>
                        <path d="M-4,0h8M0,-4v8" fill="none" stroke="white" stroke-width="1.5" pointer-events="none"/>
                </g>
                <g id="zoomMin">
                        <use xlink:href="#rim" fill="#404040">
                                <set attributeName="fill" to="#808080" begin="zoomminus.mouseover" end="zoomminus.mouseout"/>
                        </use>
                        <path d="M-4,0h8" fill="none" stroke="white" stroke-width="1.5" pointer-events="none"/>
                </g>
                <g id="dirArrow">
                        <path fill="none" stroke="white" stroke-width="1.5" d="M0,-3.0v7 M-2.5,-0.5L0,-3.0L2.5,-0.5"/>
                </g>
               <g id="resetDef">
                       <use xlink:href="#rim2" fill="#404040">
                               <set attributeName="fill" to="#808080" begin="reset.mouseover" end="reset.mouseout"/>
                       </use>
               </g>
        </defs>

<script type="text/javascript">
var viewWidth = 1105;
var viewHeight = 375;
var sectionId = 'dynsection-0';
</script>
<script xlink:href="svgpan.js"/>
<svg id="graph" class="graph">
<g id="viewport">
<title>src/application_server/client.h</title>
<polygon fill="#ffffff" stroke="transparent" points="-4,4 -4,-371 1101,-371 1101,4 -4,4"/>
<!-- Node1 -->
<g id="node1" class="node">
<title>Node1</title>
<g id="a_node1"><a xlink:title=" ">
<polygon fill="#bfbfbf" stroke="#000000" points="390.5,-336.5 390.5,-366.5 505.5,-366.5 505.5,-336.5 390.5,-336.5"/>
<text text-anchor="start" x="398.5" y="-354.5" font-family="Helvetica,sans-Serif" font-size="10.00" fill="#000000">src/application_server</text>
<text text-anchor="middle" x="448" y="-343.5" font-family="Helvetica,sans-Serif" font-size="10.00" fill="#000000">/client.h</text>
</a>
</g>
</g>
<!-- Node2 -->
<g id="node2" class="node">
<title>Node2</title>
<g id="a_node2"><a xlink:title=" ">
<polygon fill="#ffffff" stroke="#bfbfbf" points="99,-280.5 99,-299.5 173,-299.5 173,-280.5 99,-280.5"/>
<text text-anchor="middle" x="136" y="-287.5" font-family="Helvetica,sans-Serif" font-size="10.00" fill="#000000">QTcpSocket</text>
</a>
</g>
</g>
<!-- Node1&#45;&gt;Node2 -->
<g id="edge1" class="edge">
<title>Node1&#45;&gt;Node2</title>
<path fill="none" stroke="#191970" d="M390.3283,-340.7272C338.6102,-330.9772 260.3871,-316.0113 183.0568,-300.1854"/>
<polygon fill="#191970" stroke="#191970" points="183.6412,-296.7324 173.1417,-298.1504 182.2338,-303.5895 183.6412,-296.7324"/>
</g>
<!-- Node3 -->
<g id="node3" class="node">
<title>Node3</title>
<g id="a_node3"><a xlink:title=" ">
<polygon fill="#ffffff" stroke="#bfbfbf" points="191.5,-280.5 191.5,-299.5 244.5,-299.5 244.5,-280.5 191.5,-280.5"/>
<text text-anchor="middle" x="218" y="-287.5" font-family="Helvetica,sans-Serif" font-size="10.00" fill="#000000">QObject</text>
</a>
</g>
</g>
<!-- Node1&#45;&gt;Node3 -->
<g id="edge2" class="edge">
<title>Node1&#45;&gt;Node3</title>
<path fill="none" stroke="#191970" d="M390.6548,-336.4614C354.2746,-326.8781 305.9633,-314.0742 254.3922,-300.086"/>
<polygon fill="#191970" stroke="#191970" points="255.2948,-296.7044 244.727,-297.4609 253.4599,-303.4597 255.2948,-296.7044"/>
</g>
<!-- Node4 -->
<g id="node4" class="node">
<title>Node4</title>
<g id="a_node4"><a xlink:title=" ">
<polygon fill="#ffffff" stroke="#bfbfbf" points="263,-280.5 263,-299.5 321,-299.5 321,-280.5 263,-280.5"/>
<text text-anchor="middle" x="292" y="-287.5" font-family="Helvetica,sans-Serif" font-size="10.00" fill="#000000">QThread</text>
</a>
</g>
</g>
<!-- Node1&#45;&gt;Node4 -->
<g id="edge3" class="edge">
<title>Node1&#45;&gt;Node4</title>
<path fill="none" stroke="#191970" d="M409.8381,-336.4554C384.0374,-326.284 350.2874,-312.9787 325.5222,-303.2155"/>
<polygon fill="#191970" stroke="#191970" points="326.7613,-299.9419 316.1745,-299.5303 324.194,-306.4541 326.7613,-299.9419"/>
</g>
<!-- Node5 -->
<g id="node5" class="node">
<title>Node5</title>
<g id="a_node5"><a xlink:title=" ">
<polygon fill="#ffffff" stroke="#bfbfbf" points="339.5,-280.5 339.5,-299.5 404.5,-299.5 404.5,-280.5 339.5,-280.5"/>
<text text-anchor="middle" x="372" y="-287.5" font-family="Helvetica,sans-Serif" font-size="10.00" fill="#000000">QStringList</text>
</a>
</g>
</g>
<!-- Node1&#45;&gt;Node5 -->
<g id="edge4" class="edge">
<title>Node1&#45;&gt;Node5</title>
<path fill="none" stroke="#191970" d="M429.2135,-336.2977C417.8947,-327.1384 403.4895,-315.4816 391.9654,-306.1562"/>
<polygon fill="#191970" stroke="#191970" points="394.1439,-303.4167 384.1686,-299.8469 389.7405,-308.8583 394.1439,-303.4167"/>
</g>
<!-- Node6 -->
<g id="node6" class="node">
<title>Node6</title>
<g id="a_node6"><a xlink:title=" ">
<polygon fill="#ffffff" stroke="#bfbfbf" points="423,-280.5 423,-299.5 473,-299.5 473,-280.5 423,-280.5"/>
<text text-anchor="middle" x="448" y="-287.5" font-family="Helvetica,sans-Serif" font-size="10.00" fill="#000000">QString</text>
</a>
</g>
</g>
<!-- Node1&#45;&gt;Node6 -->
<g id="edge5" class="edge">
<title>Node1&#45;&gt;Node6</title>
<path fill="none" stroke="#191970" d="M448,-336.2977C448,-328.3834 448,-318.6043 448,-310.0759"/>
<polygon fill="#191970" stroke="#191970" points="451.5001,-309.8469 448,-299.8469 444.5001,-309.847 451.5001,-309.8469"/>
</g>
<!-- Node7 -->
<g id="node7" class="node">
<title>Node7</title>
<g id="a_node7"><a xlink:href="scene_8h.html" target="_top" xlink:title=" ">
<polygon fill="#ffffff" stroke="#000000" points="529,-224.5 529,-243.5 581,-243.5 581,-224.5 529,-224.5"/>
<text text-anchor="middle" x="555" y="-231.5" font-family="Helvetica,sans-Serif" font-size="10.00" fill="#000000">scene.h</text>
</a>
</g>
</g>
<!-- Node1&#45;&gt;Node7 -->
<g id="edge6" class="edge">
<title>Node1&#45;&gt;Node7</title>
<path fill="none" stroke="#191970" d="M471.7873,-336.4629C485.4625,-327.0678 502.3767,-314.101 515,-300 527.8004,-285.7013 538.7989,-266.7418 546.0047,-252.8132"/>
<polygon fill="#191970" stroke="#191970" points="549.2196,-254.2093 550.5529,-243.6987 542.9561,-251.0838 549.2196,-254.2093"/>
</g>
<!-- Node13 -->
<g id="node13" class="node">
<title>Node13</title>
<g id="a_node13"><a xlink:href="maptile_8h.html" target="_top" xlink:title=" ">
<polygon fill="#ffffff" stroke="#000000" points="90,-168.5 90,-187.5 146,-187.5 146,-168.5 90,-168.5"/>
<text text-anchor="middle" x="118" y="-175.5" font-family="Helvetica,sans-Serif" font-size="10.00" fill="#000000">maptile.h</text>
</a>
</g>
</g>
<!-- Node1&#45;&gt;Node13 -->
<g id="edge31" class="edge">
<title>Node1&#45;&gt;Node13</title>
<path fill="none" stroke="#191970" d="M464.3638,-336.2698C478.685,-321.0725 495.2883,-297.5238 482,-280 461.9028,-253.497 245.3754,-205.006 156.122,-185.9707"/>
<polygon fill="#191970" stroke="#191970" points="156.6479,-182.5044 146.139,-183.8514 155.1942,-189.3518 156.6479,-182.5044"/>
</g>
<!-- Node23 -->
<g id="node23" class="node">
<title>Node23</title>
<g id="a_node23"><a xlink:href="datamodel_8h.html" target="_top" xlink:title=" ">
<polygon fill="#ffffff" stroke="#000000" points="784.5,-168.5 784.5,-187.5 857.5,-187.5 857.5,-168.5 784.5,-168.5"/>
<text text-anchor="middle" x="821" y="-175.5" font-family="Helvetica,sans-Serif" font-size="10.00" fill="#000000">datamodel.h</text>
</a>
</g>
</g>
<!-- Node1&#45;&gt;Node23 -->
<g id="edge32" class="edge">
<title>Node1&#45;&gt;Node23</title>
<path fill="none" stroke="#191970" d="M480.4488,-336.4065C551.9083,-303.1673 721.9924,-224.0531 791.0684,-191.9226"/>
<polygon fill="#191970" stroke="#191970" points="792.9123,-194.9251 800.5032,-187.534 789.96,-188.5781 792.9123,-194.9251"/>
</g>
<!-- Node26 -->
<g id="node26" class="node">
<title>Node26</title>
<g id="a_node26"><a xlink:href="view_8h.html" target="_top" xlink:title=" ">
<polygon fill="#ffffff" stroke="#000000" points="709.5,-280.5 709.5,-299.5 754.5,-299.5 754.5,-280.5 709.5,-280.5"/>
<text text-anchor="middle" x="732" y="-287.5" font-family="Helvetica,sans-Serif" font-size="10.00" fill="#000000">view.h</text>
</a>
</g>
</g>
<!-- Node1&#45;&gt;Node26 -->
<g id="edge33" class="edge">
<title>Node1&#45;&gt;Node26</title>
<path fill="none" stroke="#191970" d="M505.814,-338.9804C564.1654,-326.3445 652.2001,-307.2806 699.3862,-297.0625"/>
<polygon fill="#191970" stroke="#191970" points="700.3282,-300.4397 709.3608,-294.9025 698.8466,-293.5983 700.3282,-300.4397"/>
</g>
<!-- Node8 -->
<g id="node8" class="node">
<title>Node8</title>
<g id="a_node8"><a xlink:title=" ">
<polygon fill="#ffffff" stroke="#bfbfbf" points="202,-168.5 202,-187.5 296,-187.5 296,-168.5 202,-168.5"/>
<text text-anchor="middle" x="249" y="-175.5" font-family="Helvetica,sans-Serif" font-size="10.00" fill="#000000">QGraphicsScene</text>
</a>
</g>
</g>
<!-- Node7&#45;&gt;Node8 -->
<g id="edge7" class="edge">
<title>Node7&#45;&gt;Node8</title>
<path fill="none" stroke="#191970" d="M528.8152,-227.1542C524.2246,-226.0399 519.4831,-224.9433 515,-224 425.4109,-205.1502 399.9505,-204.3565 305.9792,-188.1516"/>
<polygon fill="#191970" stroke="#191970" points="306.5012,-184.6899 296.0496,-186.4261 305.3027,-191.5866 306.5012,-184.6899"/>
</g>
<!-- Node9 -->
<g id="node9" class="node">
<title>Node9</title>
<g id="a_node9"><a xlink:title=" ">
<polygon fill="#ffffff" stroke="#bfbfbf" points="314,-168.5 314,-187.5 418,-187.5 418,-168.5 314,-168.5"/>
<text text-anchor="middle" x="366" y="-175.5" font-family="Helvetica,sans-Serif" font-size="10.00" fill="#000000">QGraphicsTextItem</text>
</a>
</g>
</g>
<!-- Node7&#45;&gt;Node9 -->
<g id="edge8" class="edge">
<title>Node7&#45;&gt;Node9</title>
<path fill="none" stroke="#191970" d="M528.7204,-226.2134C497.5687,-216.9833 445.2392,-201.4783 408.3482,-190.5476"/>
<polygon fill="#191970" stroke="#191970" points="408.9651,-187.0801 398.3828,-187.5949 406.9765,-193.7917 408.9651,-187.0801"/>
</g>
<!-- Node10 -->
<g id="node10" class="node">
<title>Node10</title>
<g id="a_node10"><a xlink:title=" ">
<polygon fill="#ffffff" stroke="#bfbfbf" points="436.5,-168.5 436.5,-187.5 519.5,-187.5 519.5,-168.5 436.5,-168.5"/>
<text text-anchor="middle" x="478" y="-175.5" font-family="Helvetica,sans-Serif" font-size="10.00" fill="#000000">QGraphicsItem</text>
</a>
</g>
</g>
<!-- Node7&#45;&gt;Node10 -->
<g id="edge9" class="edge">
<title>Node7&#45;&gt;Node10</title>
<path fill="none" stroke="#191970" d="M541.5876,-224.2455C529.9943,-215.814 513.0252,-203.4729 499.5322,-193.6598"/>
<polygon fill="#191970" stroke="#191970" points="501.4047,-190.6938 491.2587,-187.6427 497.2874,-196.355 501.4047,-190.6938"/>
</g>
<!-- Node11 -->
<g id="node11" class="node">
<title>Node11</title>
<g id="a_node11"><a xlink:title=" ">
<polygon fill="#ffffff" stroke="#bfbfbf" points="527,-.5 527,-19.5 631,-19.5 631,-.5 527,-.5"/>
<text text-anchor="middle" x="579" y="-7.5" font-family="Helvetica,sans-Serif" font-size="10.00" fill="#000000">QGraphicsRectItem</text>
</a>
</g>
</g>
<!-- Node7&#45;&gt;Node11 -->
<g id="edge10" class="edge">
<title>Node7&#45;&gt;Node11</title>
<path fill="none" stroke="#191970" d="M555.0165,-224.2798C555.1994,-197.3533 556.6568,-119.588 567,-56 568.4373,-47.1638 570.8109,-37.5573 573.0694,-29.4195"/>
<polygon fill="#191970" stroke="#191970" points="576.4479,-30.3359 575.8836,-19.7561 569.7271,-28.3786 576.4479,-30.3359"/>
</g>
<!-- Node12 -->
<g id="node12" class="node">
<title>Node12</title>
<g id="a_node12"><a xlink:title=" ">
<polygon fill="#ffffff" stroke="#bfbfbf" points="614.5,-168.5 614.5,-187.5 727.5,-187.5 727.5,-168.5 614.5,-168.5"/>
<text text-anchor="middle" x="671" y="-175.5" font-family="Helvetica,sans-Serif" font-size="10.00" fill="#000000">QGraphicsEllipseItem</text>
</a>
</g>
</g>
<!-- Node7&#45;&gt;Node12 -->
<g id="edge11" class="edge">
<title>Node7&#45;&gt;Node12</title>
<path fill="none" stroke="#191970" d="M574.9411,-224.3733C593.4786,-215.4241 621.3028,-201.9917 642.2413,-191.8835"/>
<polygon fill="#191970" stroke="#191970" points="643.8352,-195.0006 651.3191,-187.5011 640.7919,-188.6967 643.8352,-195.0006"/>
</g>
<!-- Node7&#45;&gt;Node13 -->
<g id="edge12" class="edge">
<title>Node7&#45;&gt;Node13</title>
<path fill="none" stroke="#191970" d="M528.8654,-226.8934C524.2692,-225.808 519.5128,-224.7887 515,-224 358.7809,-196.6979 316.3701,-214.4241 160,-188 158.7528,-187.7892 157.4876,-187.5628 156.212,-187.3237"/>
<polygon fill="#191970" stroke="#191970" points="156.8629,-183.8844 146.3619,-185.2918 155.4486,-190.74 156.8629,-183.8844"/>
</g>
<!-- Node18 -->
<g id="node18" class="node">
<title>Node18</title>
<g id="a_node18"><a xlink:href="graphicsmanager_8h.html" target="_top" xlink:title=" ">
<polygon fill="#ffffff" stroke="#000000" points="233.5,-112.5 233.5,-131.5 336.5,-131.5 336.5,-112.5 233.5,-112.5"/>
<text text-anchor="middle" x="285" y="-119.5" font-family="Helvetica,sans-Serif" font-size="10.00" fill="#000000">graphicsmanager.h</text>
</a>
</g>
</g>
<!-- Node7&#45;&gt;Node18 -->
<g id="edge21" class="edge">
<title>Node7&#45;&gt;Node18</title>
<path fill="none" stroke="#191970" d="M528.8585,-226.9325C524.2631,-225.8428 519.5087,-224.8119 515,-224 444.1383,-211.2401 241.001,-241.6666 193,-188 173.0812,-165.7302 209.2473,-146.6387 241.921,-134.802"/>
<polygon fill="#191970" stroke="#191970" points="243.1295,-138.0875 251.4375,-131.5127 240.8427,-131.4715 243.1295,-138.0875"/>
</g>
<!-- Node21 -->
<g id="node21" class="node">
<title>Node21</title>
<g id="a_node21"><a xlink:href="player_8h.html" target="_top" xlink:title=" ">
<polygon fill="#ffffff" stroke="#000000" points="723,-112.5 723,-131.5 775,-131.5 775,-112.5 723,-112.5"/>
<text text-anchor="middle" x="749" y="-119.5" font-family="Helvetica,sans-Serif" font-size="10.00" fill="#000000">player.h</text>
</a>
</g>
</g>
<!-- Node7&#45;&gt;Node21 -->
<g id="edge22" class="edge">
<title>Node7&#45;&gt;Node21</title>
<path fill="none" stroke="#191970" d="M581.1946,-230.8679C626.32,-224.9272 715.9163,-210.5619 737,-188 748.4056,-175.7947 750.7973,-156.5468 750.6955,-141.9799"/>
<polygon fill="#191970" stroke="#191970" points="754.19,-141.7779 750.2395,-131.9472 747.1972,-142.0958 754.19,-141.7779"/>
</g>
<!-- Node22 -->
<g id="node22" class="node">
<title>Node22</title>
<g id="a_node22"><a xlink:href="highlighter_8h.html" target="_top" xlink:title=" ">
<polygon fill="#ffffff" stroke="#000000" points="576,-56.5 576,-75.5 646,-75.5 646,-56.5 576,-56.5"/>
<text text-anchor="middle" x="611" y="-63.5" font-family="Helvetica,sans-Serif" font-size="10.00" fill="#000000">highlighter.h</text>
</a>
</g>
</g>
<!-- Node7&#45;&gt;Node22 -->
<g id="edge25" class="edge">
<title>Node7&#45;&gt;Node22</title>
<path fill="none" stroke="#191970" d="M558.1713,-224.4862C567.0619,-197.8144 592.3628,-121.9117 604.435,-85.695"/>
<polygon fill="#191970" stroke="#191970" points="607.8821,-86.4215 607.724,-75.8279 601.2413,-84.2079 607.8821,-86.4215"/>
</g>
<!-- Node7&#45;&gt;Node23 -->
<g id="edge26" class="edge">
<title>Node7&#45;&gt;Node23</title>
<path fill="none" stroke="#191970" d="M581.4776,-228.4258C626.3841,-218.9718 718.0479,-199.6741 774.0484,-187.8845"/>
<polygon fill="#191970" stroke="#191970" points="775.0062,-191.2597 784.0706,-185.7746 773.5641,-184.4099 775.0062,-191.2597"/>
</g>
<!-- Node14 -->
<g id="node14" class="node">
<title>Node14</title>
<g id="a_node14"><a xlink:title=" ">
<polygon fill="#ffffff" stroke="#bfbfbf" points="59.5,-112.5 59.5,-131.5 176.5,-131.5 176.5,-112.5 59.5,-112.5"/>
<text text-anchor="middle" x="118" y="-119.5" font-family="Helvetica,sans-Serif" font-size="10.00" fill="#000000">QGraphicsPixmapItem</text>
</a>
</g>
</g>
<!-- Node13&#45;&gt;Node14 -->
<g id="edge13" class="edge">
<title>Node13&#45;&gt;Node14</title>
<path fill="none" stroke="#191970" d="M118,-168.2455C118,-160.9382 118,-150.6944 118,-141.7046"/>
<polygon fill="#191970" stroke="#191970" points="121.5001,-141.6426 118,-131.6427 114.5001,-141.6427 121.5001,-141.6426"/>
</g>
<!-- Node15 -->
<g id="node15" class="node">
<title>Node15</title>
<g id="a_node15"><a xlink:href="city_8h.html" target="_top" xlink:title=" ">
<polygon fill="#ffffff" stroke="#000000" points="2.5,-112.5 2.5,-131.5 41.5,-131.5 41.5,-112.5 2.5,-112.5"/>
<text text-anchor="middle" x="22" y="-119.5" font-family="Helvetica,sans-Serif" font-size="10.00" fill="#000000">city.h</text>
</a>
</g>
</g>
<!-- Node13&#45;&gt;Node15 -->
<g id="edge14" class="edge">
<title>Node13&#45;&gt;Node15</title>
<path fill="none" stroke="#191970" d="M101.2781,-168.2455C86.4111,-159.5731 64.4534,-146.7645 47.4142,-136.825"/>
<polygon fill="#191970" stroke="#191970" points="48.9317,-133.6582 38.5303,-131.6427 45.4045,-139.7047 48.9317,-133.6582"/>
</g>
<!-- Node13&#45;&gt;Node18 -->
<g id="edge17" class="edge">
<title>Node13&#45;&gt;Node18</title>
<path fill="none" stroke="#191970" d="M146.3293,-168.5004C174.0396,-159.2083 216.4226,-144.996 247.0385,-134.7296"/>
<polygon fill="#191970" stroke="#191970" points="248.1634,-138.044 256.5318,-131.5462 245.9378,-131.4072 248.1634,-138.044"/>
</g>
<!-- Node16 -->
<g id="node16" class="node">
<title>Node16</title>
<g id="a_node16"><a xlink:title=" ">
<polygon fill="#ffffff" stroke="#bfbfbf" points="184.5,-56.5 184.5,-75.5 225.5,-75.5 225.5,-56.5 184.5,-56.5"/>
<text text-anchor="middle" x="205" y="-63.5" font-family="Helvetica,sans-Serif" font-size="10.00" fill="#000000">string</text>
</a>
</g>
</g>
<!-- Node15&#45;&gt;Node16 -->
<g id="edge15" class="edge">
<title>Node15&#45;&gt;Node16</title>
<path fill="none" stroke="#191970" d="M41.5354,-114.8698C44.3669,-113.8811 47.2523,-112.8976 50,-112 92.9101,-97.9817 143.0769,-83.4227 174.4489,-74.5344"/>
<polygon fill="#191970" stroke="#191970" points="175.6561,-77.8305 184.33,-71.7465 173.7553,-71.0936 175.6561,-77.8305"/>
</g>
<!-- Node17 -->
<g id="node17" class="node">
<title>Node17</title>
<g id="a_node17"><a xlink:title=" ">
<polygon fill="#ffffff" stroke="#bfbfbf" points="0,-56.5 0,-75.5 44,-75.5 44,-56.5 0,-56.5"/>
<text text-anchor="middle" x="22" y="-63.5" font-family="Helvetica,sans-Serif" font-size="10.00" fill="#000000">vector</text>
</a>
</g>
</g>
<!-- Node15&#45;&gt;Node17 -->
<g id="edge16" class="edge">
<title>Node15&#45;&gt;Node17</title>
<path fill="none" stroke="#191970" d="M22,-112.2455C22,-104.9382 22,-94.6944 22,-85.7046"/>
<polygon fill="#191970" stroke="#191970" points="25.5001,-85.6426 22,-75.6427 18.5001,-85.6427 25.5001,-85.6426"/>
</g>
<!-- Node18&#45;&gt;Node16 -->
<g id="edge20" class="edge">
<title>Node18&#45;&gt;Node16</title>
<path fill="none" stroke="#191970" d="M271.0651,-112.2455C258.9053,-103.7337 241.0536,-91.2375 226.9715,-81.3801"/>
<polygon fill="#191970" stroke="#191970" points="228.9747,-78.51 218.7752,-75.6427 224.9605,-84.2447 228.9747,-78.51"/>
</g>
<!-- Node19 -->
<g id="node19" class="node">
<title>Node19</title>
<g id="a_node19"><a xlink:title=" ">
<polygon fill="#ffffff" stroke="#bfbfbf" points="323,-56.5 323,-75.5 381,-75.5 381,-56.5 323,-56.5"/>
<text text-anchor="middle" x="352" y="-63.5" font-family="Helvetica,sans-Serif" font-size="10.00" fill="#000000">QPixmap</text>
</a>
</g>
</g>
<!-- Node18&#45;&gt;Node19 -->
<g id="edge18" class="edge">
<title>Node18&#45;&gt;Node19</title>
<path fill="none" stroke="#191970" d="M296.6705,-112.2455C306.5661,-103.9746 320.9627,-91.9416 332.5901,-82.2232"/>
<polygon fill="#191970" stroke="#191970" points="335.035,-84.7413 340.4632,-75.6427 330.5458,-79.3703 335.035,-84.7413"/>
</g>
<!-- Node20 -->
<g id="node20" class="node">
<title>Node20</title>
<g id="a_node20"><a xlink:title=" ">
<polygon fill="#ffffff" stroke="#bfbfbf" points="251.5,-56.5 251.5,-75.5 304.5,-75.5 304.5,-56.5 251.5,-56.5"/>
<text text-anchor="middle" x="278" y="-63.5" font-family="Helvetica,sans-Serif" font-size="10.00" fill="#000000">QImage</text>
</a>
</g>
</g>
<!-- Node18&#45;&gt;Node20 -->
<g id="edge19" class="edge">
<title>Node18&#45;&gt;Node20</title>
<path fill="none" stroke="#191970" d="M283.7807,-112.2455C282.8673,-104.9382 281.5868,-94.6944 280.4631,-85.7046"/>
<polygon fill="#191970" stroke="#191970" points="283.9187,-85.1313 279.2053,-75.6427 276.9728,-85.9996 283.9187,-85.1313"/>
</g>
<!-- Node21&#45;&gt;Node22 -->
<g id="edge23" class="edge">
<title>Node21&#45;&gt;Node22</title>
<path fill="none" stroke="#191970" d="M725.277,-112.3733C702.8263,-103.2629 668.9261,-89.5062 643.8745,-79.3404"/>
<polygon fill="#191970" stroke="#191970" points="644.9957,-76.0182 634.4135,-75.5011 642.3635,-82.5045 644.9957,-76.0182"/>
</g>
<!-- Node22&#45;&gt;Node11 -->
<g id="edge24" class="edge">
<title>Node22&#45;&gt;Node11</title>
<path fill="none" stroke="#191970" d="M605.426,-56.2455C601.0669,-48.617 594.8789,-37.7881 589.5867,-28.5267"/>
<polygon fill="#191970" stroke="#191970" points="592.5104,-26.5886 584.5101,-19.6427 586.4327,-30.0616 592.5104,-26.5886"/>
</g>
<!-- Node23&#45;&gt;Node16 -->
<g id="edge27" class="edge">
<title>Node23&#45;&gt;Node16</title>
<path fill="none" stroke="#191970" d="M784.2413,-173.233C769.5638,-171.4318 752.4984,-169.4655 737,-168 680.1136,-162.6211 268.4206,-167.9417 224,-132 210.5564,-121.1225 206.247,-101.3868 205.0371,-86.321"/>
<polygon fill="#191970" stroke="#191970" points="208.5183,-85.7844 204.616,-75.9344 201.524,-86.068 208.5183,-85.7844"/>
</g>
<!-- Node23&#45;&gt;Node21 -->
<g id="edge30" class="edge">
<title>Node23&#45;&gt;Node21</title>
<path fill="none" stroke="#191970" d="M808.4586,-168.2455C797.7213,-159.8943 782.0527,-147.7076 769.4953,-137.9408"/>
<polygon fill="#191970" stroke="#191970" points="771.4401,-135.0194 761.3977,-131.6427 767.1425,-140.5449 771.4401,-135.0194"/>
</g>
<!-- Node24 -->
<g id="node24" class="node">
<title>Node24</title>
<g id="a_node24"><a xlink:title=" ">
<polygon fill="#ffffff" stroke="#bfbfbf" points="867.5,-112.5 867.5,-131.5 916.5,-131.5 916.5,-112.5 867.5,-112.5"/>
<text text-anchor="middle" x="892" y="-119.5" font-family="Helvetica,sans-Serif" font-size="10.00" fill="#000000">QLabel</text>
</a>
</g>
</g>
<!-- Node23&#45;&gt;Node24 -->
<g id="edge28" class="edge">
<title>Node23&#45;&gt;Node24</title>
<path fill="none" stroke="#191970" d="M833.3673,-168.2455C843.9554,-159.8943 859.4064,-147.7076 871.7893,-137.9408"/>
<polygon fill="#191970" stroke="#191970" points="874.0903,-140.5837 879.7745,-131.6427 869.7553,-135.0875 874.0903,-140.5837"/>
</g>
<!-- Node25 -->
<g id="node25" class="node">
<title>Node25</title>
<g id="a_node25"><a xlink:title=" ">
<polygon fill="#ffffff" stroke="#bfbfbf" points="793,-112.5 793,-131.5 849,-131.5 849,-112.5 793,-112.5"/>
<text text-anchor="middle" x="821" y="-119.5" font-family="Helvetica,sans-Serif" font-size="10.00" fill="#000000">QWidget</text>
</a>
</g>
</g>
<!-- Node23&#45;&gt;Node25 -->
<g id="edge29" class="edge">
<title>Node23&#45;&gt;Node25</title>
<path fill="none" stroke="#191970" d="M821,-168.2455C821,-160.9382 821,-150.6944 821,-141.7046"/>
<polygon fill="#191970" stroke="#191970" points="824.5001,-141.6426 821,-131.6427 817.5001,-141.6427 824.5001,-141.6426"/>
</g>
<!-- Node26&#45;&gt;Node7 -->
<g id="edge35" class="edge">
<title>Node26&#45;&gt;Node7</title>
<path fill="none" stroke="#191970" d="M709.2227,-282.7936C679.3096,-273.3296 626.4472,-256.6048 591.0679,-245.4113"/>
<polygon fill="#191970" stroke="#191970" points="591.7307,-241.9501 581.1408,-242.2705 589.6192,-248.624 591.7307,-241.9501"/>
</g>
<!-- Node26&#45;&gt;Node23 -->
<g id="edge36" class="edge">
<title>Node26&#45;&gt;Node23</title>
<path fill="none" stroke="#191970" d="M732.9011,-280.1185C734.5906,-266.3365 739.2982,-241.1129 752,-224 761.8303,-210.7558 776.6806,-200.1532 790.0892,-192.4803"/>
<polygon fill="#191970" stroke="#191970" points="791.9229,-195.468 799.0623,-187.6399 788.5995,-189.3072 791.9229,-195.468"/>
</g>
<!-- Node27 -->
<g id="node27" class="node">
<title>Node27</title>
<g id="a_node27"><a xlink:title=" ">
<polygon fill="#ffffff" stroke="#bfbfbf" points="760.5,-224.5 760.5,-243.5 847.5,-243.5 847.5,-224.5 760.5,-224.5"/>
<text text-anchor="middle" x="804" y="-231.5" font-family="Helvetica,sans-Serif" font-size="10.00" fill="#000000">QGraphicsView</text>
</a>
</g>
</g>
<!-- Node26&#45;&gt;Node27 -->
<g id="edge34" class="edge">
<title>Node26&#45;&gt;Node27</title>
<path fill="none" stroke="#191970" d="M744.5414,-280.2455C755.2787,-271.8943 770.9473,-259.7076 783.5047,-249.9408"/>
<polygon fill="#191970" stroke="#191970" points="785.8575,-252.5449 791.6023,-243.6427 781.5599,-247.0194 785.8575,-252.5449"/>
</g>
<!-- Node28 -->
<g id="node28" class="node">
<title>Node28</title>
<g id="a_node28"><a xlink:href="tooltipmenu_8h.html" target="_top" xlink:title=" ">
<polygon fill="#ffffff" stroke="#000000" points="875.5,-168.5 875.5,-187.5 950.5,-187.5 950.5,-168.5 875.5,-168.5"/>
<text text-anchor="middle" x="913" y="-175.5" font-family="Helvetica,sans-Serif" font-size="10.00" fill="#000000">tooltipmenu.h</text>
</a>
</g>
</g>
<!-- Node26&#45;&gt;Node28 -->
<g id="edge37" class="edge">
<title>Node26&#45;&gt;Node28</title>
<path fill="none" stroke="#191970" d="M754.8682,-285.3184C781.274,-279.1088 825.1556,-266.252 857,-244 875.188,-231.2907 891.0249,-211.2857 901.1722,-196.6291"/>
<polygon fill="#191970" stroke="#191970" points="904.3555,-198.1635 906.9862,-187.9004 898.5296,-194.2829 904.3555,-198.1635"/>
</g>
<!-- Node28&#45;&gt;Node24 -->
<g id="edge39" class="edge">
<title>Node28&#45;&gt;Node24</title>
<path fill="none" stroke="#191970" d="M909.3421,-168.2455C906.5416,-160.7776 902.591,-150.2427 899.1676,-141.1137"/>
<polygon fill="#191970" stroke="#191970" points="902.4045,-139.777 895.616,-131.6427 895.8501,-142.2349 902.4045,-139.777"/>
</g>
<!-- Node28&#45;&gt;Node25 -->
<g id="edge38" class="edge">
<title>Node28&#45;&gt;Node25</title>
<path fill="none" stroke="#191970" d="M896.9748,-168.2455C882.8592,-159.6534 862.0737,-147.0014 845.8101,-137.1018"/>
<polygon fill="#191970" stroke="#191970" points="847.2034,-133.8525 836.8415,-131.6427 843.5637,-139.8319 847.2034,-133.8525"/>
</g>
<!-- Node29 -->
<g id="node29" class="node">
<title>Node29</title>
<g id="a_node29"><a xlink:title=" ">
<polygon fill="#ffffff" stroke="#bfbfbf" points="1027,-112.5 1027,-131.5 1097,-131.5 1097,-112.5 1027,-112.5"/>
<text text-anchor="middle" x="1062" y="-119.5" font-family="Helvetica,sans-Serif" font-size="10.00" fill="#000000">QGroupBox</text>
</a>
</g>
</g>
<!-- Node28&#45;&gt;Node29 -->
<g id="edge40" class="edge">
<title>Node28&#45;&gt;Node29</title>
<path fill="none" stroke="#191970" d="M938.614,-168.3733C963.0687,-159.1822 1000.1054,-145.2624 1027.2209,-135.0713"/>
<polygon fill="#191970" stroke="#191970" points="1028.5909,-138.2956 1036.7202,-131.5011 1026.1281,-131.7431 1028.5909,-138.2956"/>
</g>
<!-- Node30 -->
<g id="node30" class="node">
<title>Node30</title>
<g id="a_node30"><a xlink:title=" ">
<polygon fill="#ffffff" stroke="#bfbfbf" points="935,-112.5 935,-131.5 1009,-131.5 1009,-112.5 935,-112.5"/>
<text text-anchor="middle" x="972" y="-119.5" font-family="Helvetica,sans-Serif" font-size="10.00" fill="#000000">QGridLayout</text>
</a>
</g>
</g>
<!-- Node28&#45;&gt;Node30 -->
<g id="edge41" class="edge">
<title>Node28&#45;&gt;Node30</title>
<path fill="none" stroke="#191970" d="M923.277,-168.2455C931.8218,-160.1352 944.1778,-148.4075 954.3085,-138.7919"/>
<polygon fill="#191970" stroke="#191970" points="956.9972,-141.0655 961.8408,-131.6427 952.1782,-135.9884 956.9972,-141.0655"/>
</g>
</g>
</svg>
        <g id="navigator" transform="translate(0 0)" fill="#404254">
                <rect fill="#f2f5e9" fill-opacity="0.5" stroke="#606060" stroke-width=".5" x="0" y="0" width="60" height="60"/>
                <use id="zoomplus" xlink:href="#zoomPlus" x="17" y="9" onmousedown="handleZoom(evt,'in')"/>
                <use id="zoomminus" xlink:href="#zoomMin" x="42" y="9" onmousedown="handleZoom(evt,'out')"/>
                <use id="reset" xlink:href="#resetDef" x="30" y="36" onmousedown="handleReset()"/>
                <g id="arrowUp" xlink:href="#dirArrow" transform="translate(30 24)" onmousedown="handlePan(0,-1)">
                  <use xlink:href="#rim" fill="#404040">
                        <set attributeName="fill" to="#808080" begin="arrowUp.mouseover" end="arrowUp.mouseout"/>
                  </use>
                  <path fill="none" stroke="white" stroke-width="1.5" d="M0,-3.0v7 M-2.5,-0.5L0,-3.0L2.5,-0.5"/>
                </g>
                <g id="arrowRight" xlink:href="#dirArrow" transform="rotate(90) translate(36 -43)" onmousedown="handlePan(1,0)">
                  <use xlink:href="#rim" fill="#404040">
                        <set attributeName="fill" to="#808080" begin="arrowRight.mouseover" end="arrowRight.mouseout"/>
                  </use>
                  <path fill="none" stroke="white" stroke-width="1.5" d="M0,-3.0v7 M-2.5,-0.5L0,-3.0L2.5,-0.5"/>
                </g>
                <g id="arrowDown" xlink:href="#dirArrow" transform="rotate(180) translate(-30 -48)" onmousedown="handlePan(0,1)">
                  <use xlink:href="#rim" fill="#404040">
                        <set attributeName="fill" to="#808080" begin="arrowDown.mouseover" end="arrowDown.mouseout"/>
                  </use>
                  <path fill="none" stroke="white" stroke-width="1.5" d="M0,-3.0v7 M-2.5,-0.5L0,-3.0L2.5,-0.5"/>
                </g>
                <g id="arrowLeft" xlink:href="#dirArrow" transform="rotate(270) translate(-36 17)" onmousedown="handlePan(-1,0)">
                  <use xlink:href="#rim" fill="#404040">
                        <set attributeName="fill" to="#808080" begin="arrowLeft.mouseover" end="arrowLeft.mouseout"/>
                  </use>
                  <path fill="none" stroke="white" stroke-width="1.5" d="M0,-3.0v7 M-2.5,-0.5L0,-3.0L2.5,-0.5"/>
                </g>
        </g>
        <svg viewBox="0 0 15 15" width="100%" height="30px" preserveAspectRatio="xMaxYMin meet">
         <g id="arrow_out" transform="scale(0.3 0.3)">
          <a xlink:href="client_8h__incl_org.svg" target="_base">
           <rect id="button" ry="5" rx="5" y="6" x="6" height="38" width="38"
                fill="#f2f5e9" fill-opacity="0.5" stroke="#606060" stroke-width="1.0"/>
           <path id="arrow"
             d="M 11.500037,31.436501 C 11.940474,20.09759 22.043105,11.32322 32.158766,21.979434 L 37.068811,17.246167 C 37.068811,17.246167 37.088388,32 37.088388,32 L 22.160133,31.978069 C 22.160133,31.978069 26.997745,27.140456 26.997745,27.140456 C 18.528582,18.264221 13.291696,25.230495 11.500037,31.436501 z"
             style="fill:#404040;"/>
          </a>
         </g>
        </svg>
</svg>
