<?xml version="1.0" encoding="UTF-8" standalone="no"?>
<!DOCTYPE svg PUBLIC "-//W3C//DTD SVG 1.1//EN"
 "http://www.w3.org/Graphics/SVG/1.1/DTD/svg11.dtd">
<!-- Generated by graphviz version 2.40.1 (20161225.0304)
 -->
<!-- Title: src/application_server/client.h Pages: 1 -->
<svg width="1702pt" height="375pt"
 viewBox="0.00 0.00 1702.00 375.00" xmlns="http://www.w3.org/2000/svg" xmlns:xlink="http://www.w3.org/1999/xlink">
<g id="graph0" class="graph" transform="scale(1 1) rotate(0) translate(4 371)">
<title>src/application_server/client.h</title>
<polygon fill="#ffffff" stroke="transparent" points="-4,4 -4,-371 1698,-371 1698,4 -4,4"/>
<!-- Node1 -->
<g id="node1" class="node">
<title>Node1</title>
<g id="a_node1"><a xlink:title=" ">
<polygon fill="#bfbfbf" stroke="#000000" points="562.5,-336.5 562.5,-366.5 677.5,-366.5 677.5,-336.5 562.5,-336.5"/>
<text text-anchor="start" x="570.5" y="-354.5" font-family="Helvetica,sans-Serif" font-size="10.00" fill="#000000">src/application_server</text>
<text text-anchor="middle" x="620" y="-343.5" font-family="Helvetica,sans-Serif" font-size="10.00" fill="#000000">/client.h</text>
</a>
</g>
</g>
<!-- Node2 -->
<g id="node2" class="node">
<title>Node2</title>
<g id="a_node2"><a xlink:title=" ">
<polygon fill="#ffffff" stroke="#bfbfbf" points="0,-280.5 0,-299.5 74,-299.5 74,-280.5 0,-280.5"/>
<text text-anchor="middle" x="37" y="-287.5" font-family="Helvetica,sans-Serif" font-size="10.00" fill="#000000">QTcpSocket</text>
</a>
</g>
</g>
<!-- Node1&#45;&gt;Node2 -->
<g id="edge1" class="edge">
<title>Node1&#45;&gt;Node2</title>
<path fill="none" stroke="#191970" d="M562.4994,-348.2284C465.703,-342.23 263.9649,-327.6221 83.997,-299.9952"/>
<polygon fill="#191970" stroke="#191970" points="84.5048,-296.5322 74.0863,-298.4571 83.4312,-303.4494 84.5048,-296.5322"/>
</g>
<!-- Node3 -->
<g id="node3" class="node">
<title>Node3</title>
<g id="a_node3"><a xlink:title=" ">
<polygon fill="#ffffff" stroke="#bfbfbf" points="92.5,-280.5 92.5,-299.5 145.5,-299.5 145.5,-280.5 92.5,-280.5"/>
<text text-anchor="middle" x="119" y="-287.5" font-family="Helvetica,sans-Serif" font-size="10.00" fill="#000000">QObject</text>
</a>
</g>
</g>
<!-- Node1&#45;&gt;Node3 -->
<g id="edge2" class="edge">
<title>Node1&#45;&gt;Node3</title>
<path fill="none" stroke="#191970" d="M562.2908,-347.4191C474.8124,-340.6974 303.6166,-325.4463 160,-300 158.5571,-299.7443 157.0895,-299.4676 155.6097,-299.1746"/>
<polygon fill="#191970" stroke="#191970" points="156.3157,-295.7465 145.8023,-297.057 154.8383,-302.5888 156.3157,-295.7465"/>
</g>
<!-- Node4 -->
<g id="node4" class="node">
<title>Node4</title>
<g id="a_node4"><a xlink:title=" ">
<polygon fill="#ffffff" stroke="#bfbfbf" points="202,-168.5 202,-187.5 260,-187.5 260,-168.5 202,-168.5"/>
<text text-anchor="middle" x="231" y="-175.5" font-family="Helvetica,sans-Serif" font-size="10.00" fill="#000000">QThread</text>
</a>
</g>
</g>
<!-- Node1&#45;&gt;Node4 -->
<g id="edge3" class="edge">
<title>Node1&#45;&gt;Node4</title>
<path fill="none" stroke="#191970" d="M586.1593,-336.4065C511.4818,-303.0992 333.5271,-223.7287 261.774,-191.7257"/>
<polygon fill="#191970" stroke="#191970" points="262.9345,-188.411 252.376,-187.534 260.0831,-194.8039 262.9345,-188.411"/>
</g>
<!-- Node5 -->
<g id="node5" class="node">
<title>Node5</title>
<g id="a_node5"><a xlink:title=" ">
<polygon fill="#ffffff" stroke="#bfbfbf" points="1550.5,-280.5 1550.5,-299.5 1615.5,-299.5 1615.5,-280.5 1550.5,-280.5"/>
<text text-anchor="middle" x="1583" y="-287.5" font-family="Helvetica,sans-Serif" font-size="10.00" fill="#000000">QStringList</text>
</a>
</g>
</g>
<!-- Node1&#45;&gt;Node5 -->
<g id="edge4" class="edge">
<title>Node1&#45;&gt;Node5</title>
<path fill="none" stroke="#191970" d="M677.6912,-349.6193C849.105,-343.8223 1354.414,-325.1711 1540.1678,-299.8256"/>
<polygon fill="#191970" stroke="#191970" points="1540.6818,-303.2878 1550.0921,-298.4199 1539.7,-296.357 1540.6818,-303.2878"/>
</g>
<!-- Node6 -->
<g id="node6" class="node">
<title>Node6</title>
<g id="a_node6"><a xlink:title=" ">
<polygon fill="#ffffff" stroke="#bfbfbf" points="171,-112.5 171,-131.5 221,-131.5 221,-112.5 171,-112.5"/>
<text text-anchor="middle" x="196" y="-119.5" font-family="Helvetica,sans-Serif" font-size="10.00" fill="#000000">QString</text>
</a>
</g>
</g>
<!-- Node1&#45;&gt;Node6 -->
<g id="edge5" class="edge">
<title>Node1&#45;&gt;Node6</title>
<path fill="none" stroke="#191970" d="M562.4637,-338.1409C456.0619,-312.1263 235.4865,-251.6209 193,-188 183.9645,-174.4699 185.8627,-155.6712 189.3523,-141.596"/>
<polygon fill="#191970" stroke="#191970" points="192.7348,-142.499 192.1763,-131.9188 186.015,-140.5379 192.7348,-142.499"/>
</g>
<!-- Node7 -->
<g id="node7" class="node">
<title>Node7</title>
<g id="a_node7"><a xlink:href="scene_8h.html" target="_top" xlink:title=" ">
<polygon fill="#ffffff" stroke="#000000" points="915,-224.5 915,-243.5 967,-243.5 967,-224.5 915,-224.5"/>
<text text-anchor="middle" x="941" y="-231.5" font-family="Helvetica,sans-Serif" font-size="10.00" fill="#000000">scene.h</text>
</a>
</g>
</g>
<!-- Node1&#45;&gt;Node7 -->
<g id="edge6" class="edge">
<title>Node1&#45;&gt;Node7</title>
<path fill="none" stroke="#191970" d="M660.9809,-336.4992C724.3828,-313.2914 845.1896,-269.0708 905.2532,-247.0849"/>
<polygon fill="#191970" stroke="#191970" points="906.5117,-250.3514 914.6993,-243.6272 904.1055,-243.7779 906.5117,-250.3514"/>
</g>
<!-- Node13 -->
<g id="node13" class="node">
<title>Node13</title>
<g id="a_node13"><a xlink:href="maptile_8h.html" target="_top" xlink:title=" ">
<polygon fill="#ffffff" stroke="#000000" points="592,-168.5 592,-187.5 648,-187.5 648,-168.5 592,-168.5"/>
<text text-anchor="middle" x="620" y="-175.5" font-family="Helvetica,sans-Serif" font-size="10.00" fill="#000000">maptile.h</text>
</a>
</g>
</g>
<!-- Node1&#45;&gt;Node13 -->
<g id="edge33" class="edge">
<title>Node1&#45;&gt;Node13</title>
<path fill="none" stroke="#191970" d="M620,-336.4065C620,-305.1485 620,-233.3214 620,-198.1492"/>
<polygon fill="#191970" stroke="#191970" points="623.5001,-197.738 620,-187.738 616.5001,-197.738 623.5001,-197.738"/>
</g>
<!-- Node22 -->
<g id="node22" class="node">
<title>Node22</title>
<g id="a_node22"><a xlink:href="datamodel_8h.html" target="_top" xlink:title=" ">
<polygon fill="#ffffff" stroke="#000000" points="1362.5,-168.5 1362.5,-187.5 1435.5,-187.5 1435.5,-168.5 1362.5,-168.5"/>
<text text-anchor="middle" x="1399" y="-175.5" font-family="Helvetica,sans-Serif" font-size="10.00" fill="#000000">datamodel.h</text>
</a>
</g>
</g>
<!-- Node1&#45;&gt;Node22 -->
<g id="edge34" class="edge">
<title>Node1&#45;&gt;Node22</title>
<path fill="none" stroke="#191970" d="M677.8252,-349.998C768.5215,-346.5901 949.2351,-335.5436 1098,-300 1166.4037,-283.6567 1180.8058,-270.3796 1246,-244 1288.5878,-226.7676 1337.2177,-205.5159 1368.0033,-191.8635"/>
<polygon fill="#191970" stroke="#191970" points="1369.6251,-194.9729 1377.3414,-187.7127 1366.7818,-188.5763 1369.6251,-194.9729"/>
</g>
<!-- Node28 -->
<g id="node28" class="node">
<title>Node28</title>
<g id="a_node28"><a xlink:href="view_8h.html" target="_top" xlink:title=" ">
<polygon fill="#ffffff" stroke="#000000" points="1043.5,-280.5 1043.5,-299.5 1088.5,-299.5 1088.5,-280.5 1043.5,-280.5"/>
<text text-anchor="middle" x="1066" y="-287.5" font-family="Helvetica,sans-Serif" font-size="10.00" fill="#000000">view.h</text>
</a>
</g>
</g>
<!-- Node1&#45;&gt;Node28 -->
<g id="edge35" class="edge">
<title>Node1&#45;&gt;Node28</title>
<path fill="none" stroke="#191970" d="M677.8495,-343.523C772.6511,-330.4506 958.0473,-304.8859 1033.1929,-294.5239"/>
<polygon fill="#191970" stroke="#191970" points="1034.0279,-297.9419 1043.456,-293.1086 1033.0716,-291.0075 1034.0279,-297.9419"/>
</g>
<!-- Node33 -->
<g id="node33" class="node">
<title>Node33</title>
<g id="a_node33"><a xlink:href="maprenderer_8h.html" target="_top" xlink:title=" ">
<polygon fill="#ffffff" stroke="#000000" points="491,-224.5 491,-243.5 573,-243.5 573,-224.5 491,-224.5"/>
<text text-anchor="middle" x="532" y="-231.5" font-family="Helvetica,sans-Serif" font-size="10.00" fill="#000000">maprenderer.h</text>
</a>
</g>
</g>
<!-- Node1&#45;&gt;Node33 -->
<g id="edge44" class="edge">
<title>Node1&#45;&gt;Node33</title>
<path fill="none" stroke="#191970" d="M608.4955,-336.1389C592.2084,-314.3919 562.4995,-274.7238 545.291,-251.7465"/>
<polygon fill="#191970" stroke="#191970" points="547.9555,-249.4655 539.1594,-243.5595 542.3526,-253.6617 547.9555,-249.4655"/>
</g>
<!-- Node39 -->
<g id="node39" class="node">
<title>Node39</title>
<g id="a_node39"><a xlink:href="routeListInterface_8h.html" target="_top" xlink:title=" ">
<polygon fill="#ffffff" stroke="#000000" points="1432,-280.5 1432,-299.5 1532,-299.5 1532,-280.5 1432,-280.5"/>
<text text-anchor="middle" x="1482" y="-287.5" font-family="Helvetica,sans-Serif" font-size="10.00" fill="#000000">routeListInterface.h</text>
</a>
</g>
</g>
<!-- Node1&#45;&gt;Node39 -->
<g id="edge63" class="edge">
<title>Node1&#45;&gt;Node39</title>
<path fill="none" stroke="#191970" d="M677.7369,-349.5678C809.3642,-344.7708 1141.6649,-330.4423 1418,-300 1419.2576,-299.8615 1420.5282,-299.7158 1421.8083,-299.5639"/>
<polygon fill="#191970" stroke="#191970" points="1422.274,-303.0329 1431.7488,-298.2918 1421.3854,-296.0895 1422.274,-303.0329"/>
</g>
<!-- Node8 -->
<g id="node8" class="node">
<title>Node8</title>
<g id="a_node8"><a xlink:title=" ">
<polygon fill="#ffffff" stroke="#bfbfbf" points="988,-168.5 988,-187.5 1082,-187.5 1082,-168.5 988,-168.5"/>
<text text-anchor="middle" x="1035" y="-175.5" font-family="Helvetica,sans-Serif" font-size="10.00" fill="#000000">QGraphicsScene</text>
</a>
</g>
</g>
<!-- Node7&#45;&gt;Node8 -->
<g id="edge7" class="edge">
<title>Node7&#45;&gt;Node8</title>
<path fill="none" stroke="#191970" d="M957.3736,-224.2455C971.9308,-215.5731 993.431,-202.7645 1010.1152,-192.825"/>
<polygon fill="#191970" stroke="#191970" points="1012.0144,-195.7676 1018.8141,-187.6427 1008.4317,-189.7539 1012.0144,-195.7676"/>
</g>
<!-- Node9 -->
<g id="node9" class="node">
<title>Node9</title>
<g id="a_node9"><a xlink:title=" ">
<polygon fill="#ffffff" stroke="#bfbfbf" points="1100,-168.5 1100,-187.5 1204,-187.5 1204,-168.5 1100,-168.5"/>
<text text-anchor="middle" x="1152" y="-175.5" font-family="Helvetica,sans-Serif" font-size="10.00" fill="#000000">QGraphicsTextItem</text>
</a>
</g>
</g>
<!-- Node7&#45;&gt;Node9 -->
<g id="edge8" class="edge">
<title>Node7&#45;&gt;Node9</title>
<path fill="none" stroke="#191970" d="M967.2967,-227.0208C1002.0698,-217.7919 1063.8962,-201.383 1106.3699,-190.1104"/>
<polygon fill="#191970" stroke="#191970" points="1107.4205,-193.4528 1116.1881,-187.5046 1105.6248,-186.687 1107.4205,-193.4528"/>
</g>
<!-- Node10 -->
<g id="node10" class="node">
<title>Node10</title>
<g id="a_node10"><a xlink:title=" ">
<polygon fill="#ffffff" stroke="#bfbfbf" points="1222.5,-168.5 1222.5,-187.5 1305.5,-187.5 1305.5,-168.5 1222.5,-168.5"/>
<text text-anchor="middle" x="1264" y="-175.5" font-family="Helvetica,sans-Serif" font-size="10.00" fill="#000000">QGraphicsItem</text>
</a>
</g>
</g>
<!-- Node7&#45;&gt;Node10 -->
<g id="edge9" class="edge">
<title>Node7&#45;&gt;Node10</title>
<path fill="none" stroke="#191970" d="M967.2974,-229.7867C1014.2792,-222.2091 1115.9633,-205.5815 1212.3578,-188.0806"/>
<polygon fill="#191970" stroke="#191970" points="1213.0577,-191.5108 1222.2683,-186.2747 1211.8028,-184.6242 1213.0577,-191.5108"/>
</g>
<!-- Node11 -->
<g id="node11" class="node">
<title>Node11</title>
<g id="a_node11"><a xlink:title=" ">
<polygon fill="#ffffff" stroke="#bfbfbf" points="863,-.5 863,-19.5 967,-19.5 967,-.5 863,-.5"/>
<text text-anchor="middle" x="915" y="-7.5" font-family="Helvetica,sans-Serif" font-size="10.00" fill="#000000">QGraphicsRectItem</text>
</a>
</g>
</g>
<!-- Node7&#45;&gt;Node11 -->
<g id="edge10" class="edge">
<title>Node7&#45;&gt;Node11</title>
<path fill="none" stroke="#191970" d="M937.7721,-224.1657C929.8832,-199.5502 909.7763,-133.1537 903,-76 901.9534,-67.1729 901.8689,-64.8166 903,-56 904.1391,-47.1204 906.4673,-37.5073 908.7723,-29.3763"/>
<polygon fill="#191970" stroke="#191970" points="912.1457,-30.3125 911.6873,-19.7276 905.4448,-28.2881 912.1457,-30.3125"/>
</g>
<!-- Node12 -->
<g id="node12" class="node">
<title>Node12</title>
<g id="a_node12"><a xlink:title=" ">
<polygon fill="#ffffff" stroke="#bfbfbf" points="742.5,-168.5 742.5,-187.5 855.5,-187.5 855.5,-168.5 742.5,-168.5"/>
<text text-anchor="middle" x="799" y="-175.5" font-family="Helvetica,sans-Serif" font-size="10.00" fill="#000000">QGraphicsEllipseItem</text>
</a>
</g>
</g>
<!-- Node7&#45;&gt;Node12 -->
<g id="edge11" class="edge">
<title>Node7&#45;&gt;Node12</title>
<path fill="none" stroke="#191970" d="M916.5893,-224.3733C893.3858,-215.2226 858.2962,-201.3844 832.4858,-191.2057"/>
<polygon fill="#191970" stroke="#191970" points="833.6789,-187.9139 823.0921,-187.5011 831.1108,-194.4258 833.6789,-187.9139"/>
</g>
<!-- Node7&#45;&gt;Node13 -->
<g id="edge12" class="edge">
<title>Node7&#45;&gt;Node13</title>
<path fill="none" stroke="#191970" d="M914.7312,-229.4173C858.0209,-219.5239 723.9364,-196.1322 657.98,-184.6258"/>
<polygon fill="#191970" stroke="#191970" points="658.4544,-181.1558 648.0016,-182.885 657.2513,-188.0516 658.4544,-181.1558"/>
</g>
<!-- Node17 -->
<g id="node17" class="node">
<title>Node17</title>
<g id="a_node17"><a xlink:href="graphicsmanager_8h.html" target="_top" xlink:title=" ">
<polygon fill="#ffffff" stroke="#000000" points="685.5,-112.5 685.5,-131.5 788.5,-131.5 788.5,-112.5 685.5,-112.5"/>
<text text-anchor="middle" x="737" y="-119.5" font-family="Helvetica,sans-Serif" font-size="10.00" fill="#000000">graphicsmanager.h</text>
</a>
</g>
</g>
<!-- Node7&#45;&gt;Node17 -->
<g id="edge20" class="edge">
<title>Node7&#45;&gt;Node17</title>
<path fill="none" stroke="#191970" d="M914.7791,-232.1464C864.253,-227.9712 756.4021,-215.9269 734,-188 723.7052,-175.1663 725.8886,-155.9942 729.7991,-141.6154"/>
<polygon fill="#191970" stroke="#191970" points="733.245,-142.3294 732.948,-131.7387 726.5757,-140.203 733.245,-142.3294"/>
</g>
<!-- Node20 -->
<g id="node20" class="node">
<title>Node20</title>
<g id="a_node20"><a xlink:href="player_8h.html" target="_top" xlink:title=" ">
<polygon fill="#ffffff" stroke="#000000" points="950,-112.5 950,-131.5 1002,-131.5 1002,-112.5 950,-112.5"/>
<text text-anchor="middle" x="976" y="-119.5" font-family="Helvetica,sans-Serif" font-size="10.00" fill="#000000">player.h</text>
</a>
</g>
</g>
<!-- Node7&#45;&gt;Node20 -->
<g id="edge21" class="edge">
<title>Node7&#45;&gt;Node20</title>
<path fill="none" stroke="#191970" d="M943.9841,-224.4509C949.7183,-206.1013 962.3779,-165.5908 969.9471,-141.3693"/>
<polygon fill="#191970" stroke="#191970" points="973.3813,-142.1137 973.0235,-131.5249 966.7,-140.0257 973.3813,-142.1137"/>
</g>
<!-- Node21 -->
<g id="node21" class="node">
<title>Node21</title>
<g id="a_node21"><a xlink:href="highlighter_8h.html" target="_top" xlink:title=" ">
<polygon fill="#ffffff" stroke="#000000" points="912,-56.5 912,-75.5 982,-75.5 982,-56.5 912,-56.5"/>
<text text-anchor="middle" x="947" y="-63.5" font-family="Helvetica,sans-Serif" font-size="10.00" fill="#000000">highlighter.h</text>
</a>
</g>
</g>
<!-- Node7&#45;&gt;Node21 -->
<g id="edge24" class="edge">
<title>Node7&#45;&gt;Node21</title>
<path fill="none" stroke="#191970" d="M940.5815,-224.4951C939.7685,-203.9441 938.2822,-153.8493 941,-112 941.5598,-103.3805 942.7036,-93.9095 943.8439,-85.8133"/>
<polygon fill="#191970" stroke="#191970" points="947.3185,-86.243 945.3414,-75.8343 940.396,-85.2041 947.3185,-86.243"/>
</g>
<!-- Node7&#45;&gt;Node22 -->
<g id="edge25" class="edge">
<title>Node7&#45;&gt;Node22</title>
<path fill="none" stroke="#191970" d="M967.0005,-230.3276C980.932,-228.3878 998.3936,-226.0011 1014,-224 1030.5852,-221.8734 1253.4036,-195.331 1352.2887,-183.5593"/>
<polygon fill="#191970" stroke="#191970" points="1352.7907,-187.0244 1362.3069,-182.3668 1351.9632,-180.0734 1352.7907,-187.0244"/>
</g>
<!-- Node14 -->
<g id="node14" class="node">
<title>Node14</title>
<g id="a_node14"><a xlink:title=" ">
<polygon fill="#ffffff" stroke="#bfbfbf" points="550.5,-112.5 550.5,-131.5 667.5,-131.5 667.5,-112.5 550.5,-112.5"/>
<text text-anchor="middle" x="609" y="-119.5" font-family="Helvetica,sans-Serif" font-size="10.00" fill="#000000">QGraphicsPixmapItem</text>
</a>
</g>
</g>
<!-- Node13&#45;&gt;Node14 -->
<g id="edge13" class="edge">
<title>Node13&#45;&gt;Node14</title>
<path fill="none" stroke="#191970" d="M618.0839,-168.2455C616.6486,-160.9382 614.6364,-150.6944 612.8705,-141.7046"/>
<polygon fill="#191970" stroke="#191970" points="616.256,-140.7805 610.8941,-131.6427 609.3873,-142.1298 616.256,-140.7805"/>
</g>
<!-- Node15 -->
<g id="node15" class="node">
<title>Node15</title>
<g id="a_node15"><a xlink:href="city_8h.html" target="_top" xlink:title=" ">
<polygon fill="#ffffff" stroke="#000000" points="806.5,-112.5 806.5,-131.5 845.5,-131.5 845.5,-112.5 806.5,-112.5"/>
<text text-anchor="middle" x="826" y="-119.5" font-family="Helvetica,sans-Serif" font-size="10.00" fill="#000000">city.h</text>
</a>
</g>
</g>
<!-- Node13&#45;&gt;Node15 -->
<g id="edge14" class="edge">
<title>Node13&#45;&gt;Node15</title>
<path fill="none" stroke="#191970" d="M648.007,-171.0901C687.1866,-161.3725 757.239,-143.8004 796.6929,-132.1822"/>
<polygon fill="#191970" stroke="#191970" points="797.9334,-135.4637 806.493,-129.22 795.908,-128.7631 797.9334,-135.4637"/>
</g>
<!-- Node13&#45;&gt;Node17 -->
<g id="edge16" class="edge">
<title>Node13&#45;&gt;Node17</title>
<path fill="none" stroke="#191970" d="M640.113,-168.3733C658.8103,-159.4241 686.8744,-145.9917 707.9934,-135.8835"/>
<polygon fill="#191970" stroke="#191970" points="709.6405,-138.9755 717.1494,-131.5011 706.6183,-132.6614 709.6405,-138.9755"/>
</g>
<!-- Node16 -->
<g id="node16" class="node">
<title>Node16</title>
<g id="a_node16"><a xlink:title=" ">
<polygon fill="#ffffff" stroke="#bfbfbf" points="805.5,-56.5 805.5,-75.5 846.5,-75.5 846.5,-56.5 805.5,-56.5"/>
<text text-anchor="middle" x="826" y="-63.5" font-family="Helvetica,sans-Serif" font-size="10.00" fill="#000000">string</text>
</a>
</g>
</g>
<!-- Node15&#45;&gt;Node16 -->
<g id="edge15" class="edge">
<title>Node15&#45;&gt;Node16</title>
<path fill="none" stroke="#191970" d="M826,-112.2455C826,-104.9382 826,-94.6944 826,-85.7046"/>
<polygon fill="#191970" stroke="#191970" points="829.5001,-85.6426 826,-75.6427 822.5001,-85.6427 829.5001,-85.6426"/>
</g>
<!-- Node17&#45;&gt;Node16 -->
<g id="edge19" class="edge">
<title>Node17&#45;&gt;Node16</title>
<path fill="none" stroke="#191970" d="M752.5026,-112.2455C766.158,-103.6534 786.2657,-91.0014 801.9989,-81.1018"/>
<polygon fill="#191970" stroke="#191970" points="804.0751,-83.9307 810.675,-75.6427 800.3471,-78.006 804.0751,-83.9307"/>
</g>
<!-- Node18 -->
<g id="node18" class="node">
<title>Node18</title>
<g id="a_node18"><a xlink:title=" ">
<polygon fill="#ffffff" stroke="#bfbfbf" points="708,-56.5 708,-75.5 766,-75.5 766,-56.5 708,-56.5"/>
<text text-anchor="middle" x="737" y="-63.5" font-family="Helvetica,sans-Serif" font-size="10.00" fill="#000000">QPixmap</text>
</a>
</g>
</g>
<!-- Node17&#45;&gt;Node18 -->
<g id="edge17" class="edge">
<title>Node17&#45;&gt;Node18</title>
<path fill="none" stroke="#191970" d="M737,-112.2455C737,-104.9382 737,-94.6944 737,-85.7046"/>
<polygon fill="#191970" stroke="#191970" points="740.5001,-85.6426 737,-75.6427 733.5001,-85.6427 740.5001,-85.6426"/>
</g>
<!-- Node19 -->
<g id="node19" class="node">
<title>Node19</title>
<g id="a_node19"><a xlink:title=" ">
<polygon fill="#ffffff" stroke="#bfbfbf" points="495.5,-56.5 495.5,-75.5 548.5,-75.5 548.5,-56.5 495.5,-56.5"/>
<text text-anchor="middle" x="522" y="-63.5" font-family="Helvetica,sans-Serif" font-size="10.00" fill="#000000">QImage</text>
</a>
</g>
</g>
<!-- Node17&#45;&gt;Node19 -->
<g id="edge18" class="edge">
<title>Node17&#45;&gt;Node19</title>
<path fill="none" stroke="#191970" d="M700.0402,-112.3733C660.3895,-102.0456 597.8155,-85.7473 558.3872,-75.4776"/>
<polygon fill="#191970" stroke="#191970" points="559.2066,-72.0743 548.6472,-72.9407 557.4421,-78.8483 559.2066,-72.0743"/>
</g>
<!-- Node20&#45;&gt;Node21 -->
<g id="edge22" class="edge">
<title>Node20&#45;&gt;Node21</title>
<path fill="none" stroke="#191970" d="M970.9486,-112.2455C966.9981,-104.617 961.3903,-93.7881 956.5942,-84.5267"/>
<polygon fill="#191970" stroke="#191970" points="959.7001,-82.9131 951.9935,-75.6427 953.4841,-86.1321 959.7001,-82.9131"/>
</g>
<!-- Node21&#45;&gt;Node11 -->
<g id="edge23" class="edge">
<title>Node21&#45;&gt;Node11</title>
<path fill="none" stroke="#191970" d="M941.426,-56.2455C937.0669,-48.617 930.8789,-37.7881 925.5867,-28.5267"/>
<polygon fill="#191970" stroke="#191970" points="928.5104,-26.5886 920.5101,-19.6427 922.4327,-30.0616 928.5104,-26.5886"/>
</g>
<!-- Node22&#45;&gt;Node16 -->
<g id="edge26" class="edge">
<title>Node22&#45;&gt;Node16</title>
<path fill="none" stroke="#191970" d="M1362.2295,-170.7871C1357.4426,-169.849 1352.6045,-168.9013 1348,-168 1161.5403,-131.5023 937.5921,-87.7806 856.8763,-72.026"/>
<polygon fill="#191970" stroke="#191970" points="857.3722,-68.5568 846.8869,-70.0763 856.0312,-75.4272 857.3722,-68.5568"/>
</g>
<!-- Node22&#45;&gt;Node20 -->
<g id="edge32" class="edge">
<title>Node22&#45;&gt;Node20</title>
<path fill="none" stroke="#191970" d="M1362.2842,-170.4794C1357.4883,-169.5916 1352.6332,-168.7397 1348,-168 1225.394,-148.4243 1078.9135,-132.4769 1012.2466,-125.6228"/>
<polygon fill="#191970" stroke="#191970" points="1012.552,-122.1359 1002.2481,-124.6017 1011.8408,-129.0997 1012.552,-122.1359"/>
</g>
<!-- Node23 -->
<g id="node23" class="node">
<title>Node23</title>
<g id="a_node23"><a xlink:title=" ">
<polygon fill="#ffffff" stroke="#bfbfbf" points="1422.5,-112.5 1422.5,-131.5 1471.5,-131.5 1471.5,-112.5 1422.5,-112.5"/>
<text text-anchor="middle" x="1447" y="-119.5" font-family="Helvetica,sans-Serif" font-size="10.00" fill="#000000">QLabel</text>
</a>
</g>
</g>
<!-- Node22&#45;&gt;Node23 -->
<g id="edge27" class="edge">
<title>Node22&#45;&gt;Node23</title>
<path fill="none" stroke="#191970" d="M1407.361,-168.2455C1414.175,-160.2958 1423.9681,-148.8706 1432.1152,-139.3656"/>
<polygon fill="#191970" stroke="#191970" points="1434.8843,-141.513 1438.7349,-131.6427 1429.5695,-136.9575 1434.8843,-141.513"/>
</g>
<!-- Node24 -->
<g id="node24" class="node">
<title>Node24</title>
<g id="a_node24"><a xlink:title=" ">
<polygon fill="#ffffff" stroke="#bfbfbf" points="1250,-112.5 1250,-131.5 1306,-131.5 1306,-112.5 1250,-112.5"/>
<text text-anchor="middle" x="1278" y="-119.5" font-family="Helvetica,sans-Serif" font-size="10.00" fill="#000000">QWidget</text>
</a>
</g>
</g>
<!-- Node22&#45;&gt;Node24 -->
<g id="edge28" class="edge">
<title>Node22&#45;&gt;Node24</title>
<path fill="none" stroke="#191970" d="M1378.1994,-168.3733C1358.7757,-159.3838 1329.5776,-145.8706 1307.7036,-135.7471"/>
<polygon fill="#191970" stroke="#191970" points="1309.0745,-132.5249 1298.5292,-131.5011 1306.1344,-138.8776 1309.0745,-132.5249"/>
</g>
<!-- Node25 -->
<g id="node25" class="node">
<title>Node25</title>
<g id="a_node25"><a xlink:href="mainwindow_8h.html" target="_top" xlink:title=" ">
<polygon fill="#ffffff" stroke="#000000" points="1324,-112.5 1324,-131.5 1404,-131.5 1404,-112.5 1324,-112.5"/>
<text text-anchor="middle" x="1364" y="-119.5" font-family="Helvetica,sans-Serif" font-size="10.00" fill="#000000">mainwindow.h</text>
</a>
</g>
</g>
<!-- Node22&#45;&gt;Node25 -->
<g id="edge29" class="edge">
<title>Node22&#45;&gt;Node25</title>
<path fill="none" stroke="#191970" d="M1392.9035,-168.2455C1388.0855,-160.5367 1381.2249,-149.5598 1375.3968,-140.2348"/>
<polygon fill="#191970" stroke="#191970" points="1378.2947,-138.2677 1370.0267,-131.6427 1372.3587,-141.9777 1378.2947,-138.2677"/>
</g>
<!-- Node26 -->
<g id="node26" class="node">
<title>Node26</title>
<g id="a_node26"><a xlink:title=" ">
<polygon fill="#ffffff" stroke="#bfbfbf" points="1275.5,-56.5 1275.5,-75.5 1358.5,-75.5 1358.5,-56.5 1275.5,-56.5"/>
<text text-anchor="middle" x="1317" y="-63.5" font-family="Helvetica,sans-Serif" font-size="10.00" fill="#000000">QMainWindow</text>
</a>
</g>
</g>
<!-- Node25&#45;&gt;Node26 -->
<g id="edge30" class="edge">
<title>Node25&#45;&gt;Node26</title>
<path fill="none" stroke="#191970" d="M1355.8132,-112.2455C1349.1411,-104.2958 1339.5521,-92.8706 1331.5747,-83.3656"/>
<polygon fill="#191970" stroke="#191970" points="1334.2026,-81.0524 1325.093,-75.6427 1328.8408,-85.5525 1334.2026,-81.0524"/>
</g>
<!-- Node27 -->
<g id="node27" class="node">
<title>Node27</title>
<g id="a_node27"><a xlink:title=" ">
<polygon fill="#ffffff" stroke="#bfbfbf" points="1376.5,-56.5 1376.5,-75.5 1443.5,-75.5 1443.5,-56.5 1376.5,-56.5"/>
<text text-anchor="middle" x="1410" y="-63.5" font-family="Helvetica,sans-Serif" font-size="10.00" fill="#000000">QKeyEvent</text>
</a>
</g>
</g>
<!-- Node25&#45;&gt;Node27 -->
<g id="edge31" class="edge">
<title>Node25&#45;&gt;Node27</title>
<path fill="none" stroke="#191970" d="M1372.0126,-112.2455C1378.4768,-104.3761 1387.7385,-93.101 1395.4983,-83.6542"/>
<polygon fill="#191970" stroke="#191970" points="1398.4364,-85.5916 1402.0792,-75.6427 1393.0273,-81.1484 1398.4364,-85.5916"/>
</g>
<!-- Node28&#45;&gt;Node7 -->
<g id="edge37" class="edge">
<title>Node28&#45;&gt;Node7</title>
<path fill="none" stroke="#191970" d="M1044.5117,-280.3733C1024.356,-271.3435 994.012,-257.7494 971.382,-247.6111"/>
<polygon fill="#191970" stroke="#191970" points="972.7649,-244.3955 962.2079,-243.5011 969.9029,-250.7838 972.7649,-244.3955"/>
</g>
<!-- Node28&#45;&gt;Node22 -->
<g id="edge38" class="edge">
<title>Node28&#45;&gt;Node22</title>
<path fill="none" stroke="#191970" d="M1088.6266,-282.3898C1144.7152,-263.5252 1290.6744,-214.4338 1360.5832,-190.921"/>
<polygon fill="#191970" stroke="#191970" points="1361.9636,-194.1494 1370.326,-187.6441 1359.732,-187.5147 1361.9636,-194.1494"/>
</g>
<!-- Node29 -->
<g id="node29" class="node">
<title>Node29</title>
<g id="a_node29"><a xlink:title=" ">
<polygon fill="#ffffff" stroke="#bfbfbf" points="1022.5,-224.5 1022.5,-243.5 1109.5,-243.5 1109.5,-224.5 1022.5,-224.5"/>
<text text-anchor="middle" x="1066" y="-231.5" font-family="Helvetica,sans-Serif" font-size="10.00" fill="#000000">QGraphicsView</text>
</a>
</g>
</g>
<!-- Node28&#45;&gt;Node29 -->
<g id="edge36" class="edge">
<title>Node28&#45;&gt;Node29</title>
<path fill="none" stroke="#191970" d="M1066,-280.2455C1066,-272.9382 1066,-262.6944 1066,-253.7046"/>
<polygon fill="#191970" stroke="#191970" points="1069.5001,-253.6426 1066,-243.6427 1062.5001,-253.6427 1069.5001,-253.6426"/>
</g>
<!-- Node30 -->
<g id="node30" class="node">
<title>Node30</title>
<g id="a_node30"><a xlink:href="tooltipmenu_8h.html" target="_top" xlink:title=" ">
<polygon fill="#ffffff" stroke="#000000" points="1453.5,-168.5 1453.5,-187.5 1528.5,-187.5 1528.5,-168.5 1453.5,-168.5"/>
<text text-anchor="middle" x="1491" y="-175.5" font-family="Helvetica,sans-Serif" font-size="10.00" fill="#000000">tooltipmenu.h</text>
</a>
</g>
</g>
<!-- Node28&#45;&gt;Node30 -->
<g id="edge39" class="edge">
<title>Node28&#45;&gt;Node30</title>
<path fill="none" stroke="#191970" d="M1088.7561,-284.2849C1122.9326,-275.679 1189.5322,-258.8205 1246,-244 1316.1567,-225.5867 1397.4198,-203.5562 1446.4791,-190.179"/>
<polygon fill="#191970" stroke="#191970" points="1447.42,-193.5503 1456.146,-187.5414 1445.5773,-186.7972 1447.42,-193.5503"/>
</g>
<!-- Node30&#45;&gt;Node23 -->
<g id="edge41" class="edge">
<title>Node30&#45;&gt;Node23</title>
<path fill="none" stroke="#191970" d="M1483.3358,-168.2455C1477.1527,-160.3761 1468.2937,-149.101 1460.8711,-139.6542"/>
<polygon fill="#191970" stroke="#191970" points="1463.5068,-137.3435 1454.5764,-131.6427 1458.0025,-141.6683 1463.5068,-137.3435"/>
</g>
<!-- Node30&#45;&gt;Node24 -->
<g id="edge40" class="edge">
<title>Node30&#45;&gt;Node24</title>
<path fill="none" stroke="#191970" d="M1454.2338,-168.4856C1420.6987,-159.7863 1369.5124,-146.4556 1316.2424,-132.3165"/>
<polygon fill="#191970" stroke="#191970" points="1316.8387,-128.8535 1306.2752,-129.6679 1315.041,-135.6188 1316.8387,-128.8535"/>
</g>
<!-- Node31 -->
<g id="node31" class="node">
<title>Node31</title>
<g id="a_node31"><a xlink:title=" ">
<polygon fill="#ffffff" stroke="#bfbfbf" points="1490,-112.5 1490,-131.5 1560,-131.5 1560,-112.5 1490,-112.5"/>
<text text-anchor="middle" x="1525" y="-119.5" font-family="Helvetica,sans-Serif" font-size="10.00" fill="#000000">QGroupBox</text>
</a>
</g>
</g>
<!-- Node30&#45;&gt;Node31 -->
<g id="edge42" class="edge">
<title>Node30&#45;&gt;Node31</title>
<path fill="none" stroke="#191970" d="M1496.9223,-168.2455C1501.6027,-160.5367 1508.2673,-149.5598 1513.9289,-140.2348"/>
<polygon fill="#191970" stroke="#191970" points="1516.9475,-142.007 1519.1455,-131.6427 1510.9639,-138.3741 1516.9475,-142.007"/>
</g>
<!-- Node32 -->
<g id="node32" class="node">
<title>Node32</title>
<g id="a_node32"><a xlink:title=" ">
<polygon fill="#ffffff" stroke="#bfbfbf" points="1578,-112.5 1578,-131.5 1652,-131.5 1652,-112.5 1578,-112.5"/>
<text text-anchor="middle" x="1615" y="-119.5" font-family="Helvetica,sans-Serif" font-size="10.00" fill="#000000">QGridLayout</text>
</a>
</g>
</g>
<!-- Node30&#45;&gt;Node32 -->
<g id="edge43" class="edge">
<title>Node30&#45;&gt;Node32</title>
<path fill="none" stroke="#191970" d="M1512.3164,-168.3733C1532.2216,-159.3838 1562.1436,-145.8706 1584.56,-135.7471"/>
<polygon fill="#191970" stroke="#191970" points="1586.2887,-138.8068 1593.9618,-131.5011 1583.4075,-132.4272 1586.2887,-138.8068"/>
</g>
<!-- Node33&#45;&gt;Node4 -->
<g id="edge47" class="edge">
<title>Node33&#45;&gt;Node4</title>
<path fill="none" stroke="#191970" d="M490.7646,-227.3282C439.7248,-218.9136 350.2124,-203.645 274,-188 272.733,-187.7399 271.4463,-187.4707 270.1478,-187.1946"/>
<polygon fill="#191970" stroke="#191970" points="270.6178,-183.7143 260.0992,-184.9833 269.1133,-190.5508 270.6178,-183.7143"/>
</g>
<!-- Node33&#45;&gt;Node13 -->
<g id="edge50" class="edge">
<title>Node33&#45;&gt;Node13</title>
<path fill="none" stroke="#191970" d="M547.3284,-224.2455C560.8303,-215.6534 580.7122,-203.0014 596.2686,-193.1018"/>
<polygon fill="#191970" stroke="#191970" points="598.2897,-195.9643 604.8472,-187.6427 594.5315,-190.0587 598.2897,-195.9643"/>
</g>
<!-- Node33&#45;&gt;Node17 -->
<g id="edge48" class="edge">
<title>Node33&#45;&gt;Node17</title>
<path fill="none" stroke="#191970" d="M536.874,-224.3828C544.6615,-209.9816 561.2721,-182.9155 583,-168 599.6828,-156.5478 646.8944,-143.3068 684.687,-133.9799"/>
<polygon fill="#191970" stroke="#191970" points="685.675,-137.3417 694.5644,-131.5774 684.0205,-130.5401 685.675,-137.3417"/>
</g>
<!-- Node33&#45;&gt;Node22 -->
<g id="edge49" class="edge">
<title>Node33&#45;&gt;Node22</title>
<path fill="none" stroke="#191970" d="M573.2382,-232.4474C689.8433,-227.8698 1031.8558,-213.1483 1315,-188 1327.1144,-186.924 1340.1812,-185.4977 1352.3165,-184.0604"/>
<polygon fill="#191970" stroke="#191970" points="1352.7428,-187.5344 1362.2496,-182.8578 1351.9015,-180.5852 1352.7428,-187.5344"/>
</g>
<!-- Node33&#45;&gt;Node24 -->
<g id="edge45" class="edge">
<title>Node33&#45;&gt;Node24</title>
<path fill="none" stroke="#191970" d="M555.1596,-224.4762C592.2231,-209.6849 667.4695,-181.4918 734,-168 831.2013,-148.2884 1133.0398,-130.063 1239.9712,-124.0674"/>
<polygon fill="#191970" stroke="#191970" points="1240.2005,-127.5602 1249.9904,-123.5095 1239.8113,-120.571 1240.2005,-127.5602"/>
</g>
<!-- Node34 -->
<g id="node34" class="node">
<title>Node34</title>
<g id="a_node34"><a xlink:title=" ">
<polygon fill="#ffffff" stroke="#bfbfbf" points="454.5,-112.5 454.5,-131.5 493.5,-131.5 493.5,-112.5 454.5,-112.5"/>
<text text-anchor="middle" x="474" y="-119.5" font-family="Helvetica,sans-Serif" font-size="10.00" fill="#000000">QList</text>
</a>
</g>
</g>
<!-- Node33&#45;&gt;Node34 -->
<g id="edge46" class="edge">
<title>Node33&#45;&gt;Node34</title>
<path fill="none" stroke="#191970" d="M515.2235,-224.4576C502.8841,-216.4455 486.9347,-203.7843 479,-188 471.8228,-173.7226 470.9677,-155.4812 471.6841,-141.7954"/>
<polygon fill="#191970" stroke="#191970" points="475.1946,-141.8176 472.5511,-131.5579 468.2196,-141.2268 475.1946,-141.8176"/>
</g>
<!-- Node35 -->
<g id="node35" class="node">
<title>Node35</title>
<g id="a_node35"><a xlink:href="point_8h.html" target="_top" xlink:title=" ">
<polygon fill="#ffffff" stroke="#000000" points="294.5,-56.5 294.5,-75.5 339.5,-75.5 339.5,-56.5 294.5,-56.5"/>
<text text-anchor="middle" x="317" y="-63.5" font-family="Helvetica,sans-Serif" font-size="10.00" fill="#000000">point.h</text>
</a>
</g>
</g>
<!-- Node33&#45;&gt;Node35 -->
<g id="edge51" class="edge">
<title>Node33&#45;&gt;Node35</title>
<path fill="none" stroke="#191970" d="M490.7698,-231.6307C432.2764,-227.3106 329.7534,-215.8759 307,-188 283.036,-158.641 297.3108,-110.9849 308.1789,-84.7693"/>
<polygon fill="#191970" stroke="#191970" points="311.4089,-86.1188 312.2294,-75.5558 305.0008,-83.3016 311.4089,-86.1188"/>
</g>
<!-- Node36 -->
<g id="node36" class="node">
<title>Node36</title>
<g id="a_node36"><a xlink:href="animationmovement_8h.html" target="_top" xlink:title=" ">
<polygon fill="#ffffff" stroke="#000000" points="316.5,-168.5 316.5,-187.5 431.5,-187.5 431.5,-168.5 316.5,-168.5"/>
<text text-anchor="middle" x="374" y="-175.5" font-family="Helvetica,sans-Serif" font-size="10.00" fill="#000000">animationmovement.h</text>
</a>
</g>
</g>
<!-- Node33&#45;&gt;Node36 -->
<g id="edge52" class="edge">
<title>Node33&#45;&gt;Node36</title>
<path fill="none" stroke="#191970" d="M504.8388,-224.3733C478.7933,-215.1419 439.2884,-201.1402 410.5021,-190.9375"/>
<polygon fill="#191970" stroke="#191970" points="411.4015,-187.5429 400.8067,-187.5011 409.063,-194.1408 411.4015,-187.5429"/>
</g>
<!-- Node38 -->
<g id="node38" class="node">
<title>Node38</title>
<g id="a_node38"><a xlink:href="sprite_8h.html" target="_top" xlink:title=" ">
<polygon fill="#ffffff" stroke="#000000" points="488,-168.5 488,-187.5 536,-187.5 536,-168.5 488,-168.5"/>
<text text-anchor="middle" x="512" y="-175.5" font-family="Helvetica,sans-Serif" font-size="10.00" fill="#000000">sprite.h</text>
</a>
</g>
</g>
<!-- Node33&#45;&gt;Node38 -->
<g id="edge60" class="edge">
<title>Node33&#45;&gt;Node38</title>
<path fill="none" stroke="#191970" d="M528.5163,-224.2455C525.8492,-216.7776 522.0867,-206.2427 518.8263,-197.1137"/>
<polygon fill="#191970" stroke="#191970" points="522.1033,-195.8829 515.4438,-187.6427 515.5111,-198.2373 522.1033,-195.8829"/>
</g>
<!-- Node36&#45;&gt;Node6 -->
<g id="edge58" class="edge">
<title>Node36&#45;&gt;Node6</title>
<path fill="none" stroke="#191970" d="M343.4007,-168.3733C312.0524,-158.5109 263.3971,-143.2036 230.6499,-132.9011"/>
<polygon fill="#191970" stroke="#191970" points="231.6239,-129.5384 221.0344,-129.876 229.5231,-136.2158 231.6239,-129.5384"/>
</g>
<!-- Node36&#45;&gt;Node14 -->
<g id="edge59" class="edge">
<title>Node36&#45;&gt;Node14</title>
<path fill="none" stroke="#191970" d="M414.1309,-168.4369C454.2649,-158.8731 516.0775,-144.1432 559.2933,-133.845"/>
<polygon fill="#191970" stroke="#191970" points="560.1183,-137.2465 569.0346,-131.5237 558.4956,-130.4372 560.1183,-137.2465"/>
</g>
<!-- Node36&#45;&gt;Node34 -->
<g id="edge57" class="edge">
<title>Node36&#45;&gt;Node34</title>
<path fill="none" stroke="#191970" d="M391.4187,-168.2455C407.0485,-159.4928 430.2019,-146.527 448.0185,-136.5496"/>
<polygon fill="#191970" stroke="#191970" points="449.766,-139.5825 456.7809,-131.6427 446.3457,-133.475 449.766,-139.5825"/>
</g>
<!-- Node36&#45;&gt;Node35 -->
<g id="edge53" class="edge">
<title>Node36&#45;&gt;Node35</title>
<path fill="none" stroke="#191970" d="M363.9181,-168.2882C355.3649,-159.5321 343.3457,-145.9266 336,-132 328.3511,-117.4985 323.4375,-99.5347 320.5276,-86.0113"/>
<polygon fill="#191970" stroke="#191970" points="323.8977,-85.0089 318.5384,-75.8696 317.0286,-86.3563 323.8977,-85.0089"/>
</g>
<!-- Node37 -->
<g id="node37" class="node">
<title>Node37</title>
<g id="a_node37"><a xlink:href="animationentity_8h.html" target="_top" xlink:title=" ">
<polygon fill="#ffffff" stroke="#000000" points="345.5,-112.5 345.5,-131.5 436.5,-131.5 436.5,-112.5 345.5,-112.5"/>
<text text-anchor="middle" x="391" y="-119.5" font-family="Helvetica,sans-Serif" font-size="10.00" fill="#000000">animationentity.h</text>
</a>
</g>
</g>
<!-- Node36&#45;&gt;Node37 -->
<g id="edge54" class="edge">
<title>Node36&#45;&gt;Node37</title>
<path fill="none" stroke="#191970" d="M376.9612,-168.2455C379.2038,-160.8579 382.3577,-150.4689 385.1081,-141.4087"/>
<polygon fill="#191970" stroke="#191970" points="388.517,-142.2282 388.0728,-131.6427 381.8188,-140.1948 388.517,-142.2282"/>
</g>
<!-- Node37&#45;&gt;Node19 -->
<g id="edge55" class="edge">
<title>Node37&#45;&gt;Node19</title>
<path fill="none" stroke="#191970" d="M413.5197,-112.3733C434.7372,-103.3032 466.7276,-89.6279 490.4769,-79.4755"/>
<polygon fill="#191970" stroke="#191970" points="491.9548,-82.6502 499.7742,-75.5011 489.2033,-76.2136 491.9548,-82.6502"/>
</g>
<!-- Node37&#45;&gt;Node35 -->
<g id="edge56" class="edge">
<title>Node37&#45;&gt;Node35</title>
<path fill="none" stroke="#191970" d="M378.1102,-112.2455C367.0746,-103.8943 350.9708,-91.7076 338.0647,-81.9408"/>
<polygon fill="#191970" stroke="#191970" points="339.8283,-78.8862 329.7421,-75.6427 335.6041,-84.4681 339.8283,-78.8862"/>
</g>
<!-- Node38&#45;&gt;Node19 -->
<g id="edge61" class="edge">
<title>Node38&#45;&gt;Node19</title>
<path fill="none" stroke="#191970" d="M512.8526,-168.4509C514.4836,-150.184 518.0754,-109.9553 520.2413,-85.6976"/>
<polygon fill="#191970" stroke="#191970" points="523.7463,-85.7966 521.1496,-75.5249 516.774,-85.174 523.7463,-85.7966"/>
</g>
<!-- Node38&#45;&gt;Node34 -->
<g id="edge62" class="edge">
<title>Node38&#45;&gt;Node34</title>
<path fill="none" stroke="#191970" d="M505.3809,-168.2455C500.0954,-160.4564 492.5459,-149.3308 486.1762,-139.9439"/>
<polygon fill="#191970" stroke="#191970" points="489.0545,-137.9522 480.5432,-131.6427 483.2621,-141.8827 489.0545,-137.9522"/>
</g>
<!-- Node39&#45;&gt;Node17 -->
<g id="edge67" class="edge">
<title>Node39&#45;&gt;Node17</title>
<path fill="none" stroke="#191970" d="M1469.7309,-280.4226C1434.2211,-252.7913 1332.7483,-174.4832 1315,-168 1209.6764,-129.527 927.7902,-144.4809 798.6837,-131.8804"/>
<polygon fill="#191970" stroke="#191970" points="798.853,-128.3786 788.5373,-130.7944 798.108,-135.3388 798.853,-128.3786"/>
</g>
<!-- Node40 -->
<g id="node40" class="node">
<title>Node40</title>
<g id="a_node40"><a xlink:title=" ">
<polygon fill="#ffffff" stroke="#bfbfbf" points="1432,-224.5 1432,-243.5 1512,-243.5 1512,-224.5 1432,-224.5"/>
<text text-anchor="middle" x="1472" y="-231.5" font-family="Helvetica,sans-Serif" font-size="10.00" fill="#000000">QDockWidget</text>
</a>
</g>
</g>
<!-- Node39&#45;&gt;Node40 -->
<g id="edge64" class="edge">
<title>Node39&#45;&gt;Node40</title>
<path fill="none" stroke="#191970" d="M1480.2581,-280.2455C1478.9533,-272.9382 1477.124,-262.6944 1475.5187,-253.7046"/>
<polygon fill="#191970" stroke="#191970" points="1478.9254,-252.8717 1473.7219,-243.6427 1472.0344,-254.1022 1478.9254,-252.8717"/>
</g>
<!-- Node41 -->
<g id="node41" class="node">
<title>Node41</title>
<g id="a_node41"><a xlink:title=" ">
<polygon fill="#ffffff" stroke="#bfbfbf" points="1530.5,-224.5 1530.5,-243.5 1601.5,-243.5 1601.5,-224.5 1530.5,-224.5"/>
<text text-anchor="middle" x="1566" y="-231.5" font-family="Helvetica,sans-Serif" font-size="10.00" fill="#000000">QListWidget</text>
</a>
</g>
</g>
<!-- Node39&#45;&gt;Node41 -->
<g id="edge65" class="edge">
<title>Node39&#45;&gt;Node41</title>
<path fill="none" stroke="#191970" d="M1496.6317,-280.2455C1509.3994,-271.7337 1528.1438,-259.2375 1542.9299,-249.3801"/>
<polygon fill="#191970" stroke="#191970" points="1545.1569,-252.1019 1551.536,-243.6427 1541.274,-246.2775 1545.1569,-252.1019"/>
</g>
<!-- Node42 -->
<g id="node42" class="node">
<title>Node42</title>
<g id="a_node42"><a xlink:title=" ">
<polygon fill="#ffffff" stroke="#bfbfbf" points="1620,-224.5 1620,-243.5 1694,-243.5 1694,-224.5 1620,-224.5"/>
<text text-anchor="middle" x="1657" y="-231.5" font-family="Helvetica,sans-Serif" font-size="10.00" fill="#000000">QPushButton</text>
</a>
</g>
</g>
<!-- Node39&#45;&gt;Node42 -->
<g id="edge66" class="edge">
<title>Node39&#45;&gt;Node42</title>
<path fill="none" stroke="#191970" d="M1512.0836,-280.3733C1541.1834,-271.0613 1585.4523,-256.8953 1617.403,-246.671"/>
<polygon fill="#191970" stroke="#191970" points="1618.8515,-249.8824 1627.309,-243.5011 1616.718,-243.2155 1618.8515,-249.8824"/>
</g>
</g>
</svg>
