<?xml version="1.0" encoding="UTF-8" standalone="no"?>
<!DOCTYPE svg PUBLIC "-//W3C//DTD SVG 1.1//EN"
 "http://www.w3.org/Graphics/SVG/1.1/DTD/svg11.dtd">
<!-- Generated by graphviz version 2.40.1 (20161225.0304)
 -->
<!-- Title: src/application_server/datamodel.h Pages: 1 -->
<svg width="733pt" height="307pt"
 viewBox="0.00 0.00 733.00 307.00" xmlns="http://www.w3.org/2000/svg" xmlns:xlink="http://www.w3.org/1999/xlink">
<g id="graph0" class="graph" transform="scale(1 1) rotate(0) translate(4 303)">
<title>src/application_server/datamodel.h</title>
<polygon fill="#ffffff" stroke="transparent" points="-4,4 -4,-303 729,-303 729,4 -4,4"/>
<!-- Node1 -->
<g id="node1" class="node">
<title>Node1</title>
<g id="a_node1"><a xlink:title=" ">
<polygon fill="#bfbfbf" stroke="#000000" points="305,-268.5 305,-298.5 420,-298.5 420,-268.5 305,-268.5"/>
<text text-anchor="start" x="313" y="-286.5" font-family="Helvetica,sans-Serif" font-size="10.00" fill="#000000">src/application_server</text>
<text text-anchor="middle" x="362.5" y="-275.5" font-family="Helvetica,sans-Serif" font-size="10.00" fill="#000000">/datamodel.h</text>
</a>
</g>
</g>
<!-- Node2 -->
<g id="node2" class="node">
<title>Node2</title>
<g id="a_node2"><a xlink:href="client_8h.html" target="_top" xlink:title=" ">
<polygon fill="#ffffff" stroke="#000000" points="219,-201.5 219,-231.5 334,-231.5 334,-201.5 219,-201.5"/>
<text text-anchor="start" x="227" y="-219.5" font-family="Helvetica,sans-Serif" font-size="10.00" fill="#000000">src/application_server</text>
<text text-anchor="middle" x="276.5" y="-208.5" font-family="Helvetica,sans-Serif" font-size="10.00" fill="#000000">/client.h</text>
</a>
</g>
</g>
<!-- Node1&#45;&gt;Node2 -->
<g id="edge1" class="edge">
<title>Node1&#45;&gt;Node2</title>
<path fill="none" stroke="#191970" d="M334.9855,-262.0643C322.2696,-252.1577 307.4684,-240.6265 295.9375,-231.6432"/>
<polygon fill="#191970" stroke="#191970" points="332.9456,-264.9119 342.9853,-268.2967 337.2477,-259.3899 332.9456,-264.9119"/>
</g>
<!-- Node4 -->
<g id="node4" class="node">
<title>Node4</title>
<g id="a_node4"><a xlink:href="main_8h.html" target="_top" xlink:title=" ">
<polygon fill="#ffffff" stroke="#000000" points="266,-134.5 266,-164.5 381,-164.5 381,-134.5 266,-134.5"/>
<text text-anchor="start" x="274" y="-152.5" font-family="Helvetica,sans-Serif" font-size="10.00" fill="#000000">src/application_server</text>
<text text-anchor="middle" x="323.5" y="-141.5" font-family="Helvetica,sans-Serif" font-size="10.00" fill="#000000">/main.h</text>
</a>
</g>
</g>
<!-- Node1&#45;&gt;Node4 -->
<g id="edge10" class="edge">
<title>Node1&#45;&gt;Node4</title>
<path fill="none" stroke="#191970" d="M357.7145,-258.4697C354.3238,-241.9848 349.3484,-220.0147 343.5,-201 339.6652,-188.5319 334.2603,-174.7765 330.0359,-164.6204"/>
<polygon fill="#191970" stroke="#191970" points="354.3123,-259.3059 359.707,-268.4244 361.1762,-257.932 354.3123,-259.3059"/>
</g>
<!-- Node6 -->
<g id="node6" class="node">
<title>Node6</title>
<g id="a_node6"><a xlink:href="view_8h.html" target="_top" xlink:title=" ">
<polygon fill="#ffffff" stroke="#000000" points="445,-67.5 445,-97.5 560,-97.5 560,-67.5 445,-67.5"/>
<text text-anchor="start" x="453" y="-85.5" font-family="Helvetica,sans-Serif" font-size="10.00" fill="#000000">src/application_server</text>
<text text-anchor="middle" x="502.5" y="-74.5" font-family="Helvetica,sans-Serif" font-size="10.00" fill="#000000">/view.h</text>
</a>
</g>
</g>
<!-- Node1&#45;&gt;Node6 -->
<g id="edge14" class="edge">
<title>Node1&#45;&gt;Node6</title>
<path fill="none" stroke="#191970" d="M429.8856,-270.654C458.2945,-262.8622 490.499,-250.6875 515.5,-232 544.6345,-210.2229 551.5472,-199.6857 562.5,-165 566.6487,-151.8617 568.2528,-146.5193 562.5,-134 555.5071,-118.7821 541.5526,-106.3725 528.8599,-97.5507"/>
<polygon fill="#191970" stroke="#191970" points="428.8053,-267.3186 420.0134,-273.2308 430.5732,-274.0917 428.8053,-267.3186"/>
</g>
<!-- Node8 -->
<g id="node8" class="node">
<title>Node8</title>
<g id="a_node8"><a xlink:href="menubar_8cpp.html" target="_top" xlink:title=" ">
<polygon fill="#ffffff" stroke="#000000" points="0,-134.5 0,-164.5 115,-164.5 115,-134.5 0,-134.5"/>
<text text-anchor="start" x="8" y="-152.5" font-family="Helvetica,sans-Serif" font-size="10.00" fill="#000000">src/application_server</text>
<text text-anchor="middle" x="57.5" y="-141.5" font-family="Helvetica,sans-Serif" font-size="10.00" fill="#000000">/menubar.cpp</text>
</a>
</g>
</g>
<!-- Node1&#45;&gt;Node8 -->
<g id="edge18" class="edge">
<title>Node1&#45;&gt;Node8</title>
<path fill="none" stroke="#191970" d="M294.7141,-279.7534C220.2439,-274.2191 107.1098,-261.169 76.5,-232 58.1986,-214.56 55.9128,-183.3132 56.3832,-164.6852"/>
<polygon fill="#191970" stroke="#191970" points="294.7288,-283.2633 304.953,-280.4853 295.228,-276.2811 294.7288,-283.2633"/>
</g>
<!-- Node9 -->
<g id="node9" class="node">
<title>Node9</title>
<g id="a_node9"><a xlink:href="datamodel_8cpp.html" target="_top" xlink:title=" ">
<polygon fill="#ffffff" stroke="#000000" points="610,-201.5 610,-231.5 725,-231.5 725,-201.5 610,-201.5"/>
<text text-anchor="start" x="618" y="-219.5" font-family="Helvetica,sans-Serif" font-size="10.00" fill="#000000">src/application_server</text>
<text text-anchor="middle" x="667.5" y="-208.5" font-family="Helvetica,sans-Serif" font-size="10.00" fill="#000000">/datamodel.cpp</text>
</a>
</g>
</g>
<!-- Node1&#45;&gt;Node9 -->
<g id="edge9" class="edge">
<title>Node1&#45;&gt;Node9</title>
<path fill="none" stroke="#191970" d="M430.0372,-268.664C483.9289,-256.8255 558.6116,-240.4197 609.7505,-229.186"/>
<polygon fill="#191970" stroke="#191970" points="429.2429,-265.2549 420.2267,-270.819 430.7448,-272.0919 429.2429,-265.2549"/>
</g>
<!-- Node10 -->
<g id="node10" class="node">
<title>Node10</title>
<g id="a_node10"><a xlink:href="menubar_8h.html" target="_top" xlink:title=" ">
<polygon fill="#ffffff" stroke="#000000" points="86,-201.5 86,-231.5 201,-231.5 201,-201.5 86,-201.5"/>
<text text-anchor="start" x="94" y="-219.5" font-family="Helvetica,sans-Serif" font-size="10.00" fill="#000000">src/application_server</text>
<text text-anchor="middle" x="143.5" y="-208.5" font-family="Helvetica,sans-Serif" font-size="10.00" fill="#000000">/menubar.h</text>
</a>
</g>
</g>
<!-- Node1&#45;&gt;Node10 -->
<g id="edge11" class="edge">
<title>Node1&#45;&gt;Node10</title>
<path fill="none" stroke="#191970" d="M303.3776,-265.4123C268.787,-254.8298 225.6201,-241.6235 192.8622,-231.6017"/>
<polygon fill="#191970" stroke="#191970" points="302.7657,-268.8852 313.3521,-268.4639 304.8136,-262.1914 302.7657,-268.8852"/>
</g>
<!-- Node11 -->
<g id="node11" class="node">
<title>Node11</title>
<g id="a_node11"><a xlink:href="sidepanel_8h.html" target="_top" xlink:title=" ">
<polygon fill="#ffffff" stroke="#000000" points="391,-201.5 391,-231.5 506,-231.5 506,-201.5 391,-201.5"/>
<text text-anchor="start" x="399" y="-219.5" font-family="Helvetica,sans-Serif" font-size="10.00" fill="#000000">src/application_server</text>
<text text-anchor="middle" x="448.5" y="-208.5" font-family="Helvetica,sans-Serif" font-size="10.00" fill="#000000">/sidepanel.h</text>
</a>
</g>
</g>
<!-- Node1&#45;&gt;Node11 -->
<g id="edge15" class="edge">
<title>Node1&#45;&gt;Node11</title>
<path fill="none" stroke="#191970" d="M390.0145,-262.0643C402.7304,-252.1577 417.5316,-240.6265 429.0625,-231.6432"/>
<polygon fill="#191970" stroke="#191970" points="387.7523,-259.3899 382.0147,-268.2967 392.0544,-264.9119 387.7523,-259.3899"/>
</g>
<!-- Node3 -->
<g id="node3" class="node">
<title>Node3</title>
<g id="a_node3"><a xlink:href="client_8cpp.html" target="_top" xlink:title=" ">
<polygon fill="#ffffff" stroke="#000000" points="133,-134.5 133,-164.5 248,-164.5 248,-134.5 133,-134.5"/>
<text text-anchor="start" x="141" y="-152.5" font-family="Helvetica,sans-Serif" font-size="10.00" fill="#000000">src/application_server</text>
<text text-anchor="middle" x="190.5" y="-141.5" font-family="Helvetica,sans-Serif" font-size="10.00" fill="#000000">/client.cpp</text>
</a>
</g>
</g>
<!-- Node2&#45;&gt;Node3 -->
<g id="edge2" class="edge">
<title>Node2&#45;&gt;Node3</title>
<path fill="none" stroke="#191970" d="M248.9855,-195.0643C236.2696,-185.1577 221.4684,-173.6265 209.9375,-164.6432"/>
<polygon fill="#191970" stroke="#191970" points="246.9456,-197.9119 256.9853,-201.2967 251.2477,-192.3899 246.9456,-197.9119"/>
</g>
<!-- Node2&#45;&gt;Node4 -->
<g id="edge3" class="edge">
<title>Node2&#45;&gt;Node4</title>
<path fill="none" stroke="#191970" d="M292.9412,-193.0626C299.557,-183.6315 306.9955,-173.0276 312.8772,-164.6432"/>
<polygon fill="#191970" stroke="#191970" points="290.0426,-191.1001 287.165,-201.2967 295.7732,-195.1201 290.0426,-191.1001"/>
</g>
<!-- Node2&#45;&gt;Node8 -->
<g id="edge8" class="edge">
<title>Node2&#45;&gt;Node8</title>
<path fill="none" stroke="#191970" d="M217.3776,-198.4123C182.787,-187.8298 139.6201,-174.6235 106.8622,-164.6017"/>
<polygon fill="#191970" stroke="#191970" points="216.7657,-201.8852 227.3521,-201.4639 218.8136,-195.1914 216.7657,-201.8852"/>
</g>
<!-- Node5 -->
<g id="node5" class="node">
<title>Node5</title>
<g id="a_node5"><a xlink:href="main_8cpp.html" target="_top" xlink:title=" ">
<polygon fill="#ffffff" stroke="#000000" points="319,-.5 319,-30.5 434,-30.5 434,-.5 319,-.5"/>
<text text-anchor="start" x="327" y="-18.5" font-family="Helvetica,sans-Serif" font-size="10.00" fill="#000000">src/application_server</text>
<text text-anchor="middle" x="376.5" y="-7.5" font-family="Helvetica,sans-Serif" font-size="10.00" fill="#000000">/main.cpp</text>
</a>
</g>
</g>
<!-- Node4&#45;&gt;Node5 -->
<g id="edge4" class="edge">
<title>Node4&#45;&gt;Node5</title>
<path fill="none" stroke="#191970" d="M333.1631,-125.0686C344.0355,-97.58 361.3621,-53.7732 370.4638,-30.7614"/>
<polygon fill="#191970" stroke="#191970" points="329.9001,-123.8026 329.4767,-134.389 336.4095,-126.3772 329.9001,-123.8026"/>
</g>
<!-- Node4&#45;&gt;Node6 -->
<g id="edge5" class="edge">
<title>Node4&#45;&gt;Node6</title>
<path fill="none" stroke="#191970" d="M373.286,-130.865C401.3054,-120.3773 435.8387,-107.4515 462.1537,-97.6017"/>
<polygon fill="#191970" stroke="#191970" points="371.8096,-127.6804 363.6711,-134.4639 374.2635,-134.2362 371.8096,-127.6804"/>
</g>
<!-- Node6&#45;&gt;Node5 -->
<g id="edge6" class="edge">
<title>Node6&#45;&gt;Node5</title>
<path fill="none" stroke="#191970" d="M465.1422,-62.6352C445.9355,-52.422 422.8947,-40.1702 405.1184,-30.7177"/>
<polygon fill="#191970" stroke="#191970" points="463.7505,-65.8591 474.2231,-67.4639 467.037,-59.6786 463.7505,-65.8591"/>
</g>
<!-- Node7 -->
<g id="node7" class="node">
<title>Node7</title>
<g id="a_node7"><a xlink:href="view_8cpp.html" target="_top" xlink:title=" ">
<polygon fill="#ffffff" stroke="#000000" points="452,-.5 452,-30.5 567,-30.5 567,-.5 452,-.5"/>
<text text-anchor="start" x="460" y="-18.5" font-family="Helvetica,sans-Serif" font-size="10.00" fill="#000000">src/application_server</text>
<text text-anchor="middle" x="509.5" y="-7.5" font-family="Helvetica,sans-Serif" font-size="10.00" fill="#000000">/view.cpp</text>
</a>
</g>
</g>
<!-- Node6&#45;&gt;Node7 -->
<g id="edge7" class="edge">
<title>Node6&#45;&gt;Node7</title>
<path fill="none" stroke="#191970" d="M505.131,-57.3179C506.0688,-48.3414 507.0955,-38.5143 507.9179,-30.6432"/>
<polygon fill="#191970" stroke="#191970" points="501.6466,-56.9871 504.0884,-67.2967 508.6087,-57.7145 501.6466,-56.9871"/>
</g>
<!-- Node10&#45;&gt;Node4 -->
<g id="edge12" class="edge">
<title>Node10&#45;&gt;Node4</title>
<path fill="none" stroke="#191970" d="M193.5642,-197.865C221.74,-187.3773 256.4663,-174.4515 282.9283,-164.6017"/>
<polygon fill="#191970" stroke="#191970" points="192.0464,-194.6953 183.8955,-201.4639 194.4883,-201.2556 192.0464,-194.6953"/>
</g>
<!-- Node10&#45;&gt;Node8 -->
<g id="edge13" class="edge">
<title>Node10&#45;&gt;Node8</title>
<path fill="none" stroke="#191970" d="M115.9855,-195.0643C103.2696,-185.1577 88.4684,-173.6265 76.9375,-164.6432"/>
<polygon fill="#191970" stroke="#191970" points="113.9456,-197.9119 123.9853,-201.2967 118.2477,-192.3899 113.9456,-197.9119"/>
</g>
<!-- Node11&#45;&gt;Node5 -->
<g id="edge16" class="edge">
<title>Node11&#45;&gt;Node5</title>
<path fill="none" stroke="#191970" d="M439.2249,-191.5569C436.1112,-183.1309 432.6342,-173.665 429.5,-165 411.797,-116.0572 391.3455,-57.8951 381.8529,-30.8034"/>
<polygon fill="#191970" stroke="#191970" points="436.0395,-193.0337 442.7955,-201.195 442.6036,-190.6019 436.0395,-193.0337"/>
</g>
<!-- Node12 -->
<g id="node12" class="node">
<title>Node12</title>
<g id="a_node12"><a xlink:href="sidepanel_8cpp.html" target="_top" xlink:title=" ">
<polygon fill="#ffffff" stroke="#000000" points="438,-134.5 438,-164.5 553,-164.5 553,-134.5 438,-134.5"/>
<text text-anchor="start" x="446" y="-152.5" font-family="Helvetica,sans-Serif" font-size="10.00" fill="#000000">src/application_server</text>
<text text-anchor="middle" x="495.5" y="-141.5" font-family="Helvetica,sans-Serif" font-size="10.00" fill="#000000">/sidepanel.cpp</text>
</a>
</g>
</g>
<!-- Node11&#45;&gt;Node12 -->
<g id="edge17" class="edge">
<title>Node11&#45;&gt;Node12</title>
<path fill="none" stroke="#191970" d="M464.9412,-193.0626C471.557,-183.6315 478.9955,-173.0276 484.8772,-164.6432"/>
<polygon fill="#191970" stroke="#191970" points="462.0426,-191.1001 459.165,-201.2967 467.7732,-195.1201 462.0426,-191.1001"/>
</g>
</g>
</svg>
