<?xml version="1.0" encoding="UTF-8" standalone="no"?>
<!DOCTYPE svg PUBLIC "-//W3C//DTD SVG 1.1//EN"
 "http://www.w3.org/Graphics/SVG/1.1/DTD/svg11.dtd">
<!-- Generated by graphviz version 2.40.1 (20161225.0304)
 -->
<!-- Title: src/application_server/datamodel.h Pages: 1 -->
<svg width="962pt" height="374pt"
 viewBox="0.00 0.00 962.00 374.00" xmlns="http://www.w3.org/2000/svg" xmlns:xlink="http://www.w3.org/1999/xlink">
<g id="graph0" class="graph" transform="scale(1 1) rotate(0) translate(4 370)">
<title>src/application_server/datamodel.h</title>
<polygon fill="#ffffff" stroke="transparent" points="-4,4 -4,-370 958,-370 958,4 -4,4"/>
<!-- Node1 -->
<g id="node1" class="node">
<title>Node1</title>
<g id="a_node1"><a xlink:title=" ">
<polygon fill="#bfbfbf" stroke="#000000" points="610,-335.5 610,-365.5 725,-365.5 725,-335.5 610,-335.5"/>
<text text-anchor="start" x="618" y="-353.5" font-family="Helvetica,sans-Serif" font-size="10.00" fill="#000000">src/application_server</text>
<text text-anchor="middle" x="667.5" y="-342.5" font-family="Helvetica,sans-Serif" font-size="10.00" fill="#000000">/datamodel.h</text>
</a>
</g>
</g>
<!-- Node2 -->
<g id="node2" class="node">
<title>Node2</title>
<g id="a_node2"><a xlink:href="scene_8h.html" target="_top" xlink:title=" ">
<polygon fill="#ffffff" stroke="#000000" points="336,-268.5 336,-298.5 451,-298.5 451,-268.5 336,-268.5"/>
<text text-anchor="start" x="344" y="-286.5" font-family="Helvetica,sans-Serif" font-size="10.00" fill="#000000">src/application_server</text>
<text text-anchor="middle" x="393.5" y="-275.5" font-family="Helvetica,sans-Serif" font-size="10.00" fill="#000000">/scene.h</text>
</a>
</g>
</g>
<!-- Node1&#45;&gt;Node2 -->
<g id="edge1" class="edge">
<title>Node1&#45;&gt;Node2</title>
<path fill="none" stroke="#191970" d="M599.9137,-333.9734C554.2558,-322.8089 494.6188,-308.2261 451.1945,-297.6078"/>
<polygon fill="#191970" stroke="#191970" points="599.1813,-337.3974 609.7265,-336.3729 600.844,-330.5977 599.1813,-337.3974"/>
</g>
<!-- Node3 -->
<g id="node3" class="node">
<title>Node3</title>
<g id="a_node3"><a xlink:href="client_8h.html" target="_top" xlink:title=" ">
<polygon fill="#ffffff" stroke="#000000" points="477,-134.5 477,-164.5 592,-164.5 592,-134.5 477,-134.5"/>
<text text-anchor="start" x="485" y="-152.5" font-family="Helvetica,sans-Serif" font-size="10.00" fill="#000000">src/application_server</text>
<text text-anchor="middle" x="534.5" y="-141.5" font-family="Helvetica,sans-Serif" font-size="10.00" fill="#000000">/client.h</text>
</a>
</g>
</g>
<!-- Node1&#45;&gt;Node3 -->
<g id="edge28" class="edge">
<title>Node1&#45;&gt;Node3</title>
<path fill="none" stroke="#191970" d="M651.9142,-326.9456C624.2654,-285.1605 567.3861,-199.2001 544.4312,-164.5088"/>
<polygon fill="#191970" stroke="#191970" points="649.0662,-328.9841 657.5034,-335.3923 654.904,-325.1213 649.0662,-328.9841"/>
</g>
<!-- Node5 -->
<g id="node5" class="node">
<title>Node5</title>
<g id="a_node5"><a xlink:href="gameloop_8h.html" target="_top" xlink:title=" ">
<polygon fill="#ffffff" stroke="#000000" points="0,-67.5 0,-97.5 115,-97.5 115,-67.5 0,-67.5"/>
<text text-anchor="start" x="8" y="-85.5" font-family="Helvetica,sans-Serif" font-size="10.00" fill="#000000">src/application_server</text>
<text text-anchor="middle" x="57.5" y="-74.5" font-family="Helvetica,sans-Serif" font-size="10.00" fill="#000000">/gameloop.h</text>
</a>
</g>
</g>
<!-- Node1&#45;&gt;Node5 -->
<g id="edge31" class="edge">
<title>Node1&#45;&gt;Node5</title>
<path fill="none" stroke="#191970" d="M599.3975,-344.5587C465.0316,-331.5523 172.3246,-296.4489 97.5,-232 57.5996,-197.6324 55.3494,-128.256 56.4864,-97.6237"/>
<polygon fill="#191970" stroke="#191970" points="599.2825,-348.0635 609.57,-345.5304 599.9481,-341.0953 599.2825,-348.0635"/>
</g>
<!-- Node8 -->
<g id="node8" class="node">
<title>Node8</title>
<g id="a_node8"><a xlink:href="main_8h.html" target="_top" xlink:title=" ">
<polygon fill="#ffffff" stroke="#000000" points="477,-67.5 477,-97.5 592,-97.5 592,-67.5 477,-67.5"/>
<text text-anchor="start" x="485" y="-85.5" font-family="Helvetica,sans-Serif" font-size="10.00" fill="#000000">src/application_server</text>
<text text-anchor="middle" x="534.5" y="-74.5" font-family="Helvetica,sans-Serif" font-size="10.00" fill="#000000">/main.h</text>
</a>
</g>
</g>
<!-- Node1&#45;&gt;Node8 -->
<g id="edge32" class="edge">
<title>Node1&#45;&gt;Node8</title>
<path fill="none" stroke="#191970" d="M686.824,-327.4065C719.8927,-284.9586 779.5204,-193.4463 733.5,-134 731.2608,-131.1076 650.2209,-110.7854 592.2627,-96.5525"/>
<polygon fill="#191970" stroke="#191970" points="683.9056,-325.4527 680.4107,-335.4545 689.38,-329.8151 683.9056,-325.4527"/>
</g>
<!-- Node9 -->
<g id="node9" class="node">
<title>Node9</title>
<g id="a_node9"><a xlink:href="menubar_8cpp.html" target="_top" xlink:title=" ">
<polygon fill="#ffffff" stroke="#000000" points="743,-67.5 743,-97.5 858,-97.5 858,-67.5 743,-67.5"/>
<text text-anchor="start" x="751" y="-85.5" font-family="Helvetica,sans-Serif" font-size="10.00" fill="#000000">src/application_server</text>
<text text-anchor="middle" x="800.5" y="-74.5" font-family="Helvetica,sans-Serif" font-size="10.00" fill="#000000">/menubar.cpp</text>
</a>
</g>
</g>
<!-- Node1&#45;&gt;Node9 -->
<g id="edge35" class="edge">
<title>Node1&#45;&gt;Node9</title>
<path fill="none" stroke="#191970" d="M700.2339,-329.2987C711.2857,-320.9034 722.9697,-310.5017 731.5,-299 779.4404,-234.3604 794.7915,-135.2605 799.0498,-97.6682"/>
<polygon fill="#191970" stroke="#191970" points="697.9955,-326.5989 691.9686,-335.3125 702.1139,-332.2592 697.9955,-326.5989"/>
</g>
<!-- Node10 -->
<g id="node10" class="node">
<title>Node10</title>
<g id="a_node10"><a xlink:href="view_8h.html" target="_top" xlink:title=" ">
<polygon fill="#ffffff" stroke="#000000" points="391,-201.5 391,-231.5 506,-231.5 506,-201.5 391,-201.5"/>
<text text-anchor="start" x="399" y="-219.5" font-family="Helvetica,sans-Serif" font-size="10.00" fill="#000000">src/application_server</text>
<text text-anchor="middle" x="448.5" y="-208.5" font-family="Helvetica,sans-Serif" font-size="10.00" fill="#000000">/view.h</text>
</a>
</g>
</g>
<!-- Node1&#45;&gt;Node10 -->
<g id="edge29" class="edge">
<title>Node1&#45;&gt;Node10</title>
<path fill="none" stroke="#191970" d="M634.1334,-330.0839C589.8006,-302.9579 512.5027,-255.6615 473.1061,-231.5558"/>
<polygon fill="#191970" stroke="#191970" points="632.4469,-333.1552 642.8036,-335.389 636.1004,-327.1842 632.4469,-333.1552"/>
</g>
<!-- Node11 -->
<g id="node11" class="node">
<title>Node11</title>
<g id="a_node11"><a xlink:href="menubar_8h.html" target="_top" xlink:title=" ">
<polygon fill="#ffffff" stroke="#000000" points="610,-134.5 610,-164.5 725,-164.5 725,-134.5 610,-134.5"/>
<text text-anchor="start" x="618" y="-152.5" font-family="Helvetica,sans-Serif" font-size="10.00" fill="#000000">src/application_server</text>
<text text-anchor="middle" x="667.5" y="-141.5" font-family="Helvetica,sans-Serif" font-size="10.00" fill="#000000">/menubar.h</text>
</a>
</g>
</g>
<!-- Node1&#45;&gt;Node11 -->
<g id="edge33" class="edge">
<title>Node1&#45;&gt;Node11</title>
<path fill="none" stroke="#191970" d="M667.5,-325.348C667.5,-283.0061 667.5,-198.7637 667.5,-164.5088"/>
<polygon fill="#191970" stroke="#191970" points="664.0001,-325.3923 667.5,-335.3923 671.0001,-325.3924 664.0001,-325.3923"/>
</g>
<!-- Node13 -->
<g id="node13" class="node">
<title>Node13</title>
<g id="a_node13"><a xlink:href="sidepanel_8h.html" target="_top" xlink:title=" ">
<polygon fill="#ffffff" stroke="#000000" points="610,-67.5 610,-97.5 725,-97.5 725,-67.5 610,-67.5"/>
<text text-anchor="start" x="618" y="-85.5" font-family="Helvetica,sans-Serif" font-size="10.00" fill="#000000">src/application_server</text>
<text text-anchor="middle" x="667.5" y="-74.5" font-family="Helvetica,sans-Serif" font-size="10.00" fill="#000000">/sidepanel.h</text>
</a>
</g>
</g>
<!-- Node1&#45;&gt;Node13 -->
<g id="edge34" class="edge">
<title>Node1&#45;&gt;Node13</title>
<path fill="none" stroke="#191970" d="M713.7984,-330.4049C726.9939,-322.4808 740.0628,-312.0865 748.5,-299 788.4997,-236.9588 805.9332,-197.0236 767.5,-134 757.1293,-116.994 739.1476,-105.3639 721.2661,-97.5255"/>
<polygon fill="#191970" stroke="#191970" points="711.7146,-327.5602 704.6982,-335.4988 715.1337,-333.6684 711.7146,-327.5602"/>
</g>
<!-- Node18 -->
<g id="node18" class="node">
<title>Node18</title>
<g id="a_node18"><a xlink:href="datamodel_8cpp.html" target="_top" xlink:title=" ">
<polygon fill="#ffffff" stroke="#000000" points="839,-268.5 839,-298.5 954,-298.5 954,-268.5 839,-268.5"/>
<text text-anchor="start" x="847" y="-286.5" font-family="Helvetica,sans-Serif" font-size="10.00" fill="#000000">src/application_server</text>
<text text-anchor="middle" x="896.5" y="-275.5" font-family="Helvetica,sans-Serif" font-size="10.00" fill="#000000">/datamodel.cpp</text>
</a>
</g>
</g>
<!-- Node1&#45;&gt;Node18 -->
<g id="edge30" class="edge">
<title>Node1&#45;&gt;Node18</title>
<path fill="none" stroke="#191970" d="M728.8569,-332.5484C765.1045,-321.9432 810.4831,-308.6665 844.8838,-298.6017"/>
<polygon fill="#191970" stroke="#191970" points="727.5069,-329.2966 718.8921,-335.4639 729.4726,-336.015 727.5069,-329.2966"/>
</g>
<!-- Node2&#45;&gt;Node3 -->
<g id="edge2" class="edge">
<title>Node2&#45;&gt;Node3</title>
<path fill="none" stroke="#191970" d="M460.8039,-267.4238C480.5803,-259.6873 500.6085,-248.3885 514.5,-232 530.7001,-212.8879 534.204,-182.7783 534.73,-164.7053"/>
<polygon fill="#191970" stroke="#191970" points="459.3421,-264.2312 451.1437,-270.9422 461.7377,-270.8086 459.3421,-264.2312"/>
</g>
<!-- Node2&#45;&gt;Node5 -->
<g id="edge23" class="edge">
<title>Node2&#45;&gt;Node5</title>
<path fill="none" stroke="#191970" d="M325.783,-277.2065C257.9951,-269.7113 159.5637,-255.2035 129.5,-232 84.8012,-197.501 66.3424,-128.1944 60.1452,-97.6021"/>
<polygon fill="#191970" stroke="#191970" points="325.6491,-280.7123 335.967,-278.3056 326.4003,-273.7527 325.6491,-280.7123"/>
</g>
<!-- Node7 -->
<g id="node7" class="node">
<title>Node7</title>
<g id="a_node7"><a xlink:href="main_8cpp.html" target="_top" xlink:title=" ">
<polygon fill="#ffffff" stroke="#000000" points="258,-.5 258,-30.5 373,-30.5 373,-.5 258,-.5"/>
<text text-anchor="start" x="266" y="-18.5" font-family="Helvetica,sans-Serif" font-size="10.00" fill="#000000">src/application_server</text>
<text text-anchor="middle" x="315.5" y="-7.5" font-family="Helvetica,sans-Serif" font-size="10.00" fill="#000000">/main.cpp</text>
</a>
</g>
</g>
<!-- Node2&#45;&gt;Node7 -->
<g id="edge25" class="edge">
<title>Node2&#45;&gt;Node7</title>
<path fill="none" stroke="#191970" d="M325.9897,-272.7438C267.8291,-259.2014 189.1594,-229.3615 162.5,-165 145.832,-124.7599 137.0846,-102.3715 162.5,-67 174.0297,-50.9537 219.2728,-36.9604 257.5942,-27.6263"/>
<polygon fill="#191970" stroke="#191970" points="325.343,-276.1854 335.8637,-274.934 326.859,-269.3515 325.343,-276.1854"/>
</g>
<!-- Node2&#45;&gt;Node10 -->
<g id="edge10" class="edge">
<title>Node2&#45;&gt;Node10</title>
<path fill="none" stroke="#191970" d="M412.503,-260.3509C420.3037,-250.8482 429.116,-240.1132 436.069,-231.6432"/>
<polygon fill="#191970" stroke="#191970" points="409.6201,-258.3466 405.9804,-268.2967 415.0306,-262.7881 409.6201,-258.3466"/>
</g>
<!-- Node2&#45;&gt;Node11 -->
<g id="edge24" class="edge">
<title>Node2&#45;&gt;Node11</title>
<path fill="none" stroke="#191970" d="M453.3148,-265.1817C479.3966,-256.3783 510.0029,-244.9256 536.5,-232 577.3244,-212.0853 621.3384,-182.5102 646.5393,-164.7084"/>
<polygon fill="#191970" stroke="#191970" points="451.9444,-261.9488 443.5582,-268.4235 454.1517,-268.5917 451.9444,-261.9488"/>
</g>
<!-- Node12 -->
<g id="node12" class="node">
<title>Node12</title>
<g id="a_node12"><a xlink:href="minimap_8h.html" target="_top" xlink:title=" ">
<polygon fill="#ffffff" stroke="#000000" points="172,-134.5 172,-164.5 287,-164.5 287,-134.5 172,-134.5"/>
<text text-anchor="start" x="180" y="-152.5" font-family="Helvetica,sans-Serif" font-size="10.00" fill="#000000">src/application_server</text>
<text text-anchor="middle" x="229.5" y="-141.5" font-family="Helvetica,sans-Serif" font-size="10.00" fill="#000000">/minimap.h</text>
</a>
</g>
</g>
<!-- Node2&#45;&gt;Node12 -->
<g id="edge26" class="edge">
<title>Node2&#45;&gt;Node12</title>
<path fill="none" stroke="#191970" d="M325.8737,-274.0199C298.2865,-266.8341 268.2873,-254.2027 248.5,-232 231.778,-213.2368 228.9181,-182.73 228.8624,-164.5402"/>
<polygon fill="#191970" stroke="#191970" points="325.364,-277.497 335.9049,-276.4286 326.9985,-270.6904 325.364,-277.497"/>
</g>
<!-- Node17 -->
<g id="node17" class="node">
<title>Node17</title>
<g id="a_node17"><a xlink:href="scene_8cpp.html" target="_top" xlink:title=" ">
<polygon fill="#ffffff" stroke="#000000" points="258,-201.5 258,-231.5 373,-231.5 373,-201.5 258,-201.5"/>
<text text-anchor="start" x="266" y="-219.5" font-family="Helvetica,sans-Serif" font-size="10.00" fill="#000000">src/application_server</text>
<text text-anchor="middle" x="315.5" y="-208.5" font-family="Helvetica,sans-Serif" font-size="10.00" fill="#000000">/scene.cpp</text>
</a>
</g>
</g>
<!-- Node2&#45;&gt;Node17 -->
<g id="edge27" class="edge">
<title>Node2&#45;&gt;Node17</title>
<path fill="none" stroke="#191970" d="M367.884,-261.4965C356.5016,-251.7193 343.3884,-240.4554 333.1294,-231.6432"/>
<polygon fill="#191970" stroke="#191970" points="365.9343,-264.4357 375.8006,-268.2967 370.4955,-259.1257 365.9343,-264.4357"/>
</g>
<!-- Node4 -->
<g id="node4" class="node">
<title>Node4</title>
<g id="a_node4"><a xlink:href="client_8cpp.html" target="_top" xlink:title=" ">
<polygon fill="#ffffff" stroke="#000000" points="344,-67.5 344,-97.5 459,-97.5 459,-67.5 344,-67.5"/>
<text text-anchor="start" x="352" y="-85.5" font-family="Helvetica,sans-Serif" font-size="10.00" fill="#000000">src/application_server</text>
<text text-anchor="middle" x="401.5" y="-74.5" font-family="Helvetica,sans-Serif" font-size="10.00" fill="#000000">/client.cpp</text>
</a>
</g>
</g>
<!-- Node3&#45;&gt;Node4 -->
<g id="edge3" class="edge">
<title>Node3&#45;&gt;Node4</title>
<path fill="none" stroke="#191970" d="M495.6187,-129.9132C475.2357,-119.645 450.6428,-107.2561 431.7083,-97.7177"/>
<polygon fill="#191970" stroke="#191970" points="494.1467,-133.0906 504.6522,-134.4639 497.2961,-126.8391 494.1467,-133.0906"/>
</g>
<!-- Node3&#45;&gt;Node5 -->
<g id="edge4" class="edge">
<title>Node3&#45;&gt;Node5</title>
<path fill="none" stroke="#191970" d="M466.903,-134.0178C331.3214,-110.8218 294.6374,-115.5475 162.5,-98 147.1563,-95.9624 130.5769,-93.5931 115.2248,-91.3293"/>
<polygon fill="#191970" stroke="#191970" points="466.3881,-137.4806 476.8385,-135.7368 467.5816,-130.5831 466.3881,-137.4806"/>
</g>
<!-- Node3&#45;&gt;Node8 -->
<g id="edge7" class="edge">
<title>Node3&#45;&gt;Node8</title>
<path fill="none" stroke="#191970" d="M534.5,-124.0249C534.5,-115.128 534.5,-105.4287 534.5,-97.6432"/>
<polygon fill="#191970" stroke="#191970" points="531.0001,-124.2966 534.5,-134.2967 538.0001,-124.2967 531.0001,-124.2966"/>
</g>
<!-- Node3&#45;&gt;Node9 -->
<g id="edge9" class="edge">
<title>Node3&#45;&gt;Node9</title>
<path fill="none" stroke="#191970" d="M602.1422,-132.4623C645.6314,-121.5082 701.5281,-107.429 742.8946,-97.0096"/>
<polygon fill="#191970" stroke="#191970" points="601.0603,-129.1254 592.218,-134.962 602.7701,-135.9134 601.0603,-129.1254"/>
</g>
<!-- Node6 -->
<g id="node6" class="node">
<title>Node6</title>
<g id="a_node6"><a xlink:href="gameloop_8cpp.html" target="_top" xlink:title=" ">
<polygon fill="#ffffff" stroke="#000000" points="0,-.5 0,-30.5 115,-30.5 115,-.5 0,-.5"/>
<text text-anchor="start" x="8" y="-18.5" font-family="Helvetica,sans-Serif" font-size="10.00" fill="#000000">src/application_server</text>
<text text-anchor="middle" x="57.5" y="-7.5" font-family="Helvetica,sans-Serif" font-size="10.00" fill="#000000">/gameloop.cpp</text>
</a>
</g>
</g>
<!-- Node5&#45;&gt;Node6 -->
<g id="edge5" class="edge">
<title>Node5&#45;&gt;Node6</title>
<path fill="none" stroke="#191970" d="M57.5,-57.0249C57.5,-48.128 57.5,-38.4287 57.5,-30.6432"/>
<polygon fill="#191970" stroke="#191970" points="54.0001,-57.2966 57.5,-67.2967 61.0001,-57.2967 54.0001,-57.2966"/>
</g>
<!-- Node5&#45;&gt;Node7 -->
<g id="edge6" class="edge">
<title>Node5&#45;&gt;Node7</title>
<path fill="none" stroke="#191970" d="M124.7733,-65.0298C166.0149,-54.3198 218.2701,-40.7496 257.6512,-30.5227"/>
<polygon fill="#191970" stroke="#191970" points="123.8783,-61.646 115.0791,-67.5473 125.6378,-68.4213 123.8783,-61.646"/>
</g>
<!-- Node8&#45;&gt;Node7 -->
<g id="edge8" class="edge">
<title>Node8&#45;&gt;Node7</title>
<path fill="none" stroke="#191970" d="M475.3776,-64.4123C440.787,-53.8298 397.6201,-40.6235 364.8622,-30.6017"/>
<polygon fill="#191970" stroke="#191970" points="474.7657,-67.8852 485.3521,-67.4639 476.8136,-61.1914 474.7657,-67.8852"/>
</g>
<!-- Node10&#45;&gt;Node3 -->
<g id="edge11" class="edge">
<title>Node10&#45;&gt;Node3</title>
<path fill="none" stroke="#191970" d="M476.0145,-195.0643C488.7304,-185.1577 503.5316,-173.6265 515.0625,-164.6432"/>
<polygon fill="#191970" stroke="#191970" points="473.7523,-192.3899 468.0147,-201.2967 478.0544,-197.9119 473.7523,-192.3899"/>
</g>
<!-- Node10&#45;&gt;Node5 -->
<g id="edge12" class="edge">
<title>Node10&#45;&gt;Node5</title>
<path fill="none" stroke="#191970" d="M380.7785,-201.0046C282.6129,-183.2814 249.879,-203.4406 162.5,-165 125.789,-148.8497 90.7438,-116.8514 71.8781,-97.8002"/>
<polygon fill="#191970" stroke="#191970" points="380.3305,-204.4819 390.8073,-202.9047 381.6336,-197.6043 380.3305,-204.4819"/>
</g>
<!-- Node10&#45;&gt;Node7 -->
<g id="edge16" class="edge">
<title>Node10&#45;&gt;Node7</title>
<path fill="none" stroke="#191970" d="M381.4213,-199.407C363.5932,-191.7114 346.0962,-180.691 334.5,-165 304.4882,-124.3907 308.9294,-60.0406 312.9329,-30.8277"/>
<polygon fill="#191970" stroke="#191970" points="380.1601,-202.6722 390.7448,-203.1354 382.7593,-196.1726 380.1601,-202.6722"/>
</g>
<!-- Node10&#45;&gt;Node11 -->
<g id="edge13" class="edge">
<title>Node10&#45;&gt;Node11</title>
<path fill="none" stroke="#191970" d="M507.6224,-198.4123C542.213,-187.8298 585.3799,-174.6235 618.1378,-164.6017"/>
<polygon fill="#191970" stroke="#191970" points="506.1864,-195.1914 497.6479,-201.4639 508.2343,-201.8852 506.1864,-195.1914"/>
</g>
<!-- Node10&#45;&gt;Node12 -->
<g id="edge17" class="edge">
<title>Node10&#45;&gt;Node12</title>
<path fill="none" stroke="#191970" d="M389.3776,-198.4123C354.787,-187.8298 311.6201,-174.6235 278.8622,-164.6017"/>
<polygon fill="#191970" stroke="#191970" points="388.7657,-201.8852 399.3521,-201.4639 390.8136,-195.1914 388.7657,-201.8852"/>
</g>
<!-- Node16 -->
<g id="node16" class="node">
<title>Node16</title>
<g id="a_node16"><a xlink:href="view_8cpp.html" target="_top" xlink:title=" ">
<polygon fill="#ffffff" stroke="#000000" points="344,-134.5 344,-164.5 459,-164.5 459,-134.5 344,-134.5"/>
<text text-anchor="start" x="352" y="-152.5" font-family="Helvetica,sans-Serif" font-size="10.00" fill="#000000">src/application_server</text>
<text text-anchor="middle" x="401.5" y="-141.5" font-family="Helvetica,sans-Serif" font-size="10.00" fill="#000000">/view.cpp</text>
</a>
</g>
</g>
<!-- Node10&#45;&gt;Node16 -->
<g id="edge22" class="edge">
<title>Node10&#45;&gt;Node16</title>
<path fill="none" stroke="#191970" d="M432.0588,-193.0626C425.443,-183.6315 418.0045,-173.0276 412.1228,-164.6432"/>
<polygon fill="#191970" stroke="#191970" points="429.2268,-195.1201 437.835,-201.2967 434.9574,-191.1001 429.2268,-195.1201"/>
</g>
<!-- Node11&#45;&gt;Node8 -->
<g id="edge14" class="edge">
<title>Node11&#45;&gt;Node8</title>
<path fill="none" stroke="#191970" d="M628.6187,-129.9132C608.2357,-119.645 583.6428,-107.2561 564.7083,-97.7177"/>
<polygon fill="#191970" stroke="#191970" points="627.1467,-133.0906 637.6522,-134.4639 630.2961,-126.8391 627.1467,-133.0906"/>
</g>
<!-- Node11&#45;&gt;Node9 -->
<g id="edge15" class="edge">
<title>Node11&#45;&gt;Node9</title>
<path fill="none" stroke="#191970" d="M706.3813,-129.9132C726.7643,-119.645 751.3572,-107.2561 770.2917,-97.7177"/>
<polygon fill="#191970" stroke="#191970" points="704.7039,-126.8391 697.3478,-134.4639 707.8533,-133.0906 704.7039,-126.8391"/>
</g>
<!-- Node12&#45;&gt;Node13 -->
<g id="edge18" class="edge">
<title>Node12&#45;&gt;Node13</title>
<path fill="none" stroke="#191970" d="M297.4733,-139.3438C309.7921,-137.5379 322.5267,-135.6939 334.5,-134 452.6238,-117.2886 483.1474,-119.4677 600.5,-98 603.5535,-97.4414 606.6779,-96.8364 609.8272,-96.2002"/>
<polygon fill="#191970" stroke="#191970" points="296.6333,-135.9296 287.2491,-140.8476 297.652,-142.8551 296.6333,-135.9296"/>
</g>
<!-- Node15 -->
<g id="node15" class="node">
<title>Node15</title>
<g id="a_node15"><a xlink:href="minimap_8cpp.html" target="_top" xlink:title=" ">
<polygon fill="#ffffff" stroke="#000000" points="172,-67.5 172,-97.5 287,-97.5 287,-67.5 172,-67.5"/>
<text text-anchor="start" x="180" y="-85.5" font-family="Helvetica,sans-Serif" font-size="10.00" fill="#000000">src/application_server</text>
<text text-anchor="middle" x="229.5" y="-74.5" font-family="Helvetica,sans-Serif" font-size="10.00" fill="#000000">/minimap.cpp</text>
</a>
</g>
</g>
<!-- Node12&#45;&gt;Node15 -->
<g id="edge21" class="edge">
<title>Node12&#45;&gt;Node15</title>
<path fill="none" stroke="#191970" d="M229.5,-124.0249C229.5,-115.128 229.5,-105.4287 229.5,-97.6432"/>
<polygon fill="#191970" stroke="#191970" points="226.0001,-124.2966 229.5,-134.2967 233.0001,-124.2967 226.0001,-124.2966"/>
</g>
<!-- Node13&#45;&gt;Node7 -->
<g id="edge19" class="edge">
<title>Node13&#45;&gt;Node7</title>
<path fill="none" stroke="#191970" d="M599.7597,-66.9033C515.1797,-49.6436 428.7366,-34.4932 373.2466,-25.0883"/>
<polygon fill="#191970" stroke="#191970" points="599.2959,-70.381 609.7955,-68.9631 600.7034,-63.5239 599.2959,-70.381"/>
</g>
<!-- Node14 -->
<g id="node14" class="node">
<title>Node14</title>
<g id="a_node14"><a xlink:href="sidepanel_8cpp.html" target="_top" xlink:title=" ">
<polygon fill="#ffffff" stroke="#000000" points="610,-.5 610,-30.5 725,-30.5 725,-.5 610,-.5"/>
<text text-anchor="start" x="618" y="-18.5" font-family="Helvetica,sans-Serif" font-size="10.00" fill="#000000">src/application_server</text>
<text text-anchor="middle" x="667.5" y="-7.5" font-family="Helvetica,sans-Serif" font-size="10.00" fill="#000000">/sidepanel.cpp</text>
</a>
</g>
</g>
<!-- Node13&#45;&gt;Node14 -->
<g id="edge20" class="edge">
<title>Node13&#45;&gt;Node14</title>
<path fill="none" stroke="#191970" d="M667.5,-57.0249C667.5,-48.128 667.5,-38.4287 667.5,-30.6432"/>
<polygon fill="#191970" stroke="#191970" points="664.0001,-57.2966 667.5,-67.2967 671.0001,-57.2967 664.0001,-57.2966"/>
</g>
</g>
</svg>
