<?xml version="1.0" encoding="UTF-8" standalone="no"?>
<!DOCTYPE svg PUBLIC "-//W3C//DTD SVG 1.1//EN"
 "http://www.w3.org/Graphics/SVG/1.1/DTD/svg11.dtd">
<!-- Generated by graphviz version 2.40.1 (20161225.0304)
 -->
<!-- Title: src/application_server/datamodel.h Pages: 1 -->
<!--zoomable 508 -->
<svg id="main" version="1.1" xmlns="http://www.w3.org/2000/svg" xmlns:xlink="http://www.w3.org/1999/xlink" xml:space="preserve" onload="init(evt)">
<style type="text/css"><![CDATA[
.edge:hover path { stroke: red; }
.edge:hover polygon { stroke: red; fill: red; }
]]></style>
<script type="text/javascript"><![CDATA[
var edges = document.getElementsByTagName('g');
if (edges && edges.length) {
  for (var i=0;i<edges.length;i++) {
    if (edges[i].id.substr(0,4)=='edge') {
      edges[i].setAttribute('class','edge');
    }
  }
}
]]></script>
        <defs>
                <circle id="rim" cx="0" cy="0" r="7"/>
                <circle id="rim2" cx="0" cy="0" r="3.5"/>
                <g id="zoomPlus">
                        <use xlink:href="#rim" fill="#404040">
                                <set attributeName="fill" to="#808080" begin="zoomplus.mouseover" end="zoomplus.mouseout"/>
                        </use>
                        <path d="M-4,0h8M0,-4v8" fill="none" stroke="white" stroke-width="1.5" pointer-events="none"/>
                </g>
                <g id="zoomMin">
                        <use xlink:href="#rim" fill="#404040">
                                <set attributeName="fill" to="#808080" begin="zoomminus.mouseover" end="zoomminus.mouseout"/>
                        </use>
                        <path d="M-4,0h8" fill="none" stroke="white" stroke-width="1.5" pointer-events="none"/>
                </g>
                <g id="dirArrow">
                        <path fill="none" stroke="white" stroke-width="1.5" d="M0,-3.0v7 M-2.5,-0.5L0,-3.0L2.5,-0.5"/>
                </g>
               <g id="resetDef">
                       <use xlink:href="#rim2" fill="#404040">
                               <set attributeName="fill" to="#808080" begin="reset.mouseover" end="reset.mouseout"/>
                       </use>
               </g>
        </defs>

<script type="text/javascript">
var viewWidth = 1220;
var viewHeight = 508;
var sectionId = 'dynsection-1';
</script>
<script xlink:href="svgpan.js"/>
<svg id="graph" class="graph">
<g id="viewport">
<title>src/application_server/datamodel.h</title>
<polygon fill="#ffffff" stroke="transparent" points="-4,4 -4,-504 1215.5,-504 1215.5,4 -4,4"/>
<!-- Node1 -->
<g id="node1" class="node">
<title>Node1</title>
<g id="a_node1"><a xlink:title=" ">
<polygon fill="#bfbfbf" stroke="#000000" points="552.5,-469.5 552.5,-499.5 667.5,-499.5 667.5,-469.5 552.5,-469.5"/>
<text text-anchor="start" x="560.5" y="-487.5" font-family="Helvetica,sans-Serif" font-size="10.00" fill="#000000">src/application_server</text>
<text text-anchor="middle" x="610" y="-476.5" font-family="Helvetica,sans-Serif" font-size="10.00" fill="#000000">/datamodel.h</text>
</a>
</g>
</g>
<!-- Node2 -->
<g id="node2" class="node">
<title>Node2</title>
<g id="a_node2"><a xlink:href="scene_8h.html" target="_top" xlink:title=" ">
<polygon fill="#ffffff" stroke="#000000" points="333.5,-402.5 333.5,-432.5 448.5,-432.5 448.5,-402.5 333.5,-402.5"/>
<text text-anchor="start" x="341.5" y="-420.5" font-family="Helvetica,sans-Serif" font-size="10.00" fill="#000000">src/application_server</text>
<text text-anchor="middle" x="391" y="-409.5" font-family="Helvetica,sans-Serif" font-size="10.00" fill="#000000">/scene.h</text>
</a>
</g>
</g>
<!-- Node1&#45;&gt;Node2 -->
<g id="edge1" class="edge">
<title>Node1&#45;&gt;Node2</title>
<path fill="none" stroke="#191970" d="M550.8776,-466.4123C516.287,-455.8298 473.1201,-442.6235 440.3622,-432.6017"/>
<polygon fill="#191970" stroke="#191970" points="550.2657,-469.8852 560.8521,-469.4639 552.3136,-463.1914 550.2657,-469.8852"/>
</g>
<!-- Node3 -->
<g id="node3" class="node">
<title>Node3</title>
<g id="a_node3"><a xlink:href="client_8h.html" target="_top" xlink:title=" ">
<polygon fill="#ffffff" stroke="#000000" points="390.5,-268.5 390.5,-298.5 505.5,-298.5 505.5,-268.5 390.5,-268.5"/>
<text text-anchor="start" x="398.5" y="-286.5" font-family="Helvetica,sans-Serif" font-size="10.00" fill="#000000">src/application_server</text>
<text text-anchor="middle" x="448" y="-275.5" font-family="Helvetica,sans-Serif" font-size="10.00" fill="#000000">/client.h</text>
</a>
</g>
</g>
<!-- Node1&#45;&gt;Node3 -->
<g id="edge25" class="edge">
<title>Node1&#45;&gt;Node3</title>
<path fill="none" stroke="#191970" d="M591.4376,-461.4688C557.92,-419.8822 488.174,-333.3455 460.0966,-298.5088"/>
<polygon fill="#191970" stroke="#191970" points="588.8233,-463.8027 597.8237,-469.3923 594.2735,-459.41 588.8233,-463.8027"/>
</g>
<!-- Node5 -->
<g id="node5" class="node">
<title>Node5</title>
<g id="a_node5"><a xlink:href="gameloop_8h.html" target="_top" xlink:title=" ">
<polygon fill="#ffffff" stroke="#000000" points="562.5,-201.5 562.5,-231.5 677.5,-231.5 677.5,-201.5 562.5,-201.5"/>
<text text-anchor="start" x="570.5" y="-219.5" font-family="Helvetica,sans-Serif" font-size="10.00" fill="#000000">src/application_server</text>
<text text-anchor="middle" x="620" y="-208.5" font-family="Helvetica,sans-Serif" font-size="10.00" fill="#000000">/gameloop.h</text>
</a>
</g>
</g>
<!-- Node1&#45;&gt;Node5 -->
<g id="edge40" class="edge">
<title>Node1&#45;&gt;Node5</title>
<path fill="none" stroke="#191970" d="M610.9496,-459.0511C613.0026,-404.0306 617.8012,-275.4277 619.4399,-231.5103"/>
<polygon fill="#191970" stroke="#191970" points="607.4417,-459.1997 610.5663,-469.3233 614.4368,-459.4608 607.4417,-459.1997"/>
</g>
<!-- Node8 -->
<g id="node8" class="node">
<title>Node8</title>
<g id="a_node8"><a xlink:href="main_8h.html" target="_top" xlink:title=" ">
<polygon fill="#ffffff" stroke="#000000" points="428.5,-67.5 428.5,-97.5 543.5,-97.5 543.5,-67.5 428.5,-67.5"/>
<text text-anchor="start" x="436.5" y="-85.5" font-family="Helvetica,sans-Serif" font-size="10.00" fill="#000000">src/application_server</text>
<text text-anchor="middle" x="486" y="-74.5" font-family="Helvetica,sans-Serif" font-size="10.00" fill="#000000">/main.h</text>
</a>
</g>
</g>
<!-- Node1&#45;&gt;Node8 -->
<g id="edge41" class="edge">
<title>Node1&#45;&gt;Node8</title>
<path fill="none" stroke="#191970" d="M623.4792,-460.2821C661.8602,-389.7957 766.3065,-186.4402 724,-134 701.7687,-106.4437 606.7403,-92.9 543.694,-86.8291"/>
<polygon fill="#191970" stroke="#191970" points="620.2642,-458.8657 618.5241,-469.3166 626.4017,-462.2319 620.2642,-458.8657"/>
</g>
<!-- Node10 -->
<g id="node10" class="node">
<title>Node10</title>
<g id="a_node10"><a xlink:href="menubar_8h.html" target="_top" xlink:title=" ">
<polygon fill="#ffffff" stroke="#000000" points="352.5,-134.5 352.5,-164.5 467.5,-164.5 467.5,-134.5 352.5,-134.5"/>
<text text-anchor="start" x="360.5" y="-152.5" font-family="Helvetica,sans-Serif" font-size="10.00" fill="#000000">src/application_server</text>
<text text-anchor="middle" x="410" y="-141.5" font-family="Helvetica,sans-Serif" font-size="10.00" fill="#000000">/menubar.h</text>
</a>
</g>
</g>
<!-- Node1&#45;&gt;Node10 -->
<g id="edge42" class="edge">
<title>Node1&#45;&gt;Node10</title>
<path fill="none" stroke="#191970" d="M603.1881,-459.5247C587.8204,-406.8098 546.2161,-282.3529 476,-201 463.8447,-186.9168 447.3447,-174.0418 433.8835,-164.6876"/>
<polygon fill="#191970" stroke="#191970" points="599.8845,-460.7031 605.9915,-469.3607 606.6164,-458.7843 599.8845,-460.7031"/>
</g>
<!-- Node11 -->
<g id="node11" class="node">
<title>Node11</title>
<g id="a_node11"><a xlink:href="menubar_8cpp.html" target="_top" xlink:title=" ">
<polygon fill="#ffffff" stroke="#000000" points="104.5,-67.5 104.5,-97.5 219.5,-97.5 219.5,-67.5 104.5,-67.5"/>
<text text-anchor="start" x="112.5" y="-85.5" font-family="Helvetica,sans-Serif" font-size="10.00" fill="#000000">src/application_server</text>
<text text-anchor="middle" x="162" y="-74.5" font-family="Helvetica,sans-Serif" font-size="10.00" fill="#000000">/menubar.cpp</text>
</a>
</g>
</g>
<!-- Node1&#45;&gt;Node11 -->
<g id="edge44" class="edge">
<title>Node1&#45;&gt;Node11</title>
<path fill="none" stroke="#191970" d="M542.2,-476.7006C383.2642,-457.5026 0,-405.5054 0,-350.5 0,-350.5 0,-350.5 0,-216.5 0,-155.3631 69.3529,-116.8636 117.304,-97.5513"/>
<polygon fill="#191970" stroke="#191970" points="541.9921,-480.2007 552.338,-477.9174 542.8264,-473.2506 541.9921,-480.2007"/>
</g>
<!-- Node13 -->
<g id="node13" class="node">
<title>Node13</title>
<g id="a_node13"><a xlink:href="view_8h.html" target="_top" xlink:title=" ">
<polygon fill="#ffffff" stroke="#000000" points="161.5,-335.5 161.5,-365.5 276.5,-365.5 276.5,-335.5 161.5,-335.5"/>
<text text-anchor="start" x="169.5" y="-353.5" font-family="Helvetica,sans-Serif" font-size="10.00" fill="#000000">src/application_server</text>
<text text-anchor="middle" x="219" y="-342.5" font-family="Helvetica,sans-Serif" font-size="10.00" fill="#000000">/view.h</text>
</a>
</g>
</g>
<!-- Node1&#45;&gt;Node13 -->
<g id="edge26" class="edge">
<title>Node1&#45;&gt;Node13</title>
<path fill="none" stroke="#191970" d="M542.1496,-476.1311C470.2847,-466.5892 362.0543,-450.0883 324,-433 287.4131,-416.5706 252.3242,-384.6704 233.4172,-365.7122"/>
<polygon fill="#191970" stroke="#191970" points="542.1053,-479.6553 552.476,-477.4877 543.0171,-472.7149 542.1053,-479.6553"/>
</g>
<!-- Node16 -->
<g id="node16" class="node">
<title>Node16</title>
<g id="a_node16"><a xlink:href="maprenderer_8h.html" target="_top" xlink:title=" ">
<polygon fill="#ffffff" stroke="#000000" points="714.5,-335.5 714.5,-365.5 829.5,-365.5 829.5,-335.5 714.5,-335.5"/>
<text text-anchor="start" x="722.5" y="-353.5" font-family="Helvetica,sans-Serif" font-size="10.00" fill="#000000">src/application_server</text>
<text text-anchor="middle" x="772" y="-342.5" font-family="Helvetica,sans-Serif" font-size="10.00" fill="#000000">/maprenderer.h</text>
</a>
</g>
</g>
<!-- Node1&#45;&gt;Node16 -->
<g id="edge27" class="edge">
<title>Node1&#45;&gt;Node16</title>
<path fill="none" stroke="#191970" d="M651.2111,-464.6743C667.2176,-456.0372 685.2175,-445.1138 700,-433 724.8497,-412.6364 748.2681,-383.2051 761.3153,-365.5529"/>
<polygon fill="#191970" stroke="#191970" points="649.2791,-461.7357 642.0565,-469.4872 652.5365,-467.9317 649.2791,-461.7357"/>
</g>
<!-- Node18 -->
<g id="node18" class="node">
<title>Node18</title>
<g id="a_node18"><a xlink:href="sidepanel_8h.html" target="_top" xlink:title=" ">
<polygon fill="#ffffff" stroke="#000000" points="1033.5,-201.5 1033.5,-231.5 1148.5,-231.5 1148.5,-201.5 1033.5,-201.5"/>
<text text-anchor="start" x="1041.5" y="-219.5" font-family="Helvetica,sans-Serif" font-size="10.00" fill="#000000">src/application_server</text>
<text text-anchor="middle" x="1091" y="-208.5" font-family="Helvetica,sans-Serif" font-size="10.00" fill="#000000">/sidepanel.h</text>
</a>
</g>
</g>
<!-- Node1&#45;&gt;Node18 -->
<g id="edge43" class="edge">
<title>Node1&#45;&gt;Node18</title>
<path fill="none" stroke="#191970" d="M677.7718,-471.2036C771.5199,-449.7178 941.3614,-399.2453 1049,-299 1069.1121,-280.2693 1081.0954,-249.7516 1086.8357,-231.5509"/>
<polygon fill="#191970" stroke="#191970" points="676.8226,-467.8295 667.8338,-473.4378 678.358,-474.6591 676.8226,-467.8295"/>
</g>
<!-- Node22 -->
<g id="node22" class="node">
<title>Node22</title>
<g id="a_node22"><a xlink:href="datamodel_8cpp.html" target="_top" xlink:title=" ">
<polygon fill="#ffffff" stroke="#000000" points="1096.5,-402.5 1096.5,-432.5 1211.5,-432.5 1211.5,-402.5 1096.5,-402.5"/>
<text text-anchor="start" x="1104.5" y="-420.5" font-family="Helvetica,sans-Serif" font-size="10.00" fill="#000000">src/application_server</text>
<text text-anchor="middle" x="1154" y="-409.5" font-family="Helvetica,sans-Serif" font-size="10.00" fill="#000000">/datamodel.cpp</text>
</a>
</g>
</g>
<!-- Node1&#45;&gt;Node22 -->
<g id="edge39" class="edge">
<title>Node1&#45;&gt;Node22</title>
<path fill="none" stroke="#191970" d="M677.6623,-479.33C769.5772,-471.8033 938.8599,-456.1529 1082,-433 1086.6703,-432.2446 1091.4945,-431.3838 1096.3308,-430.4637"/>
<polygon fill="#191970" stroke="#191970" points="677.341,-475.8445 667.657,-480.1422 677.9074,-482.8216 677.341,-475.8445"/>
</g>
<!-- Node2&#45;&gt;Node3 -->
<g id="edge2" class="edge">
<title>Node2&#45;&gt;Node3</title>
<path fill="none" stroke="#191970" d="M429.3523,-396.6919C440.3317,-388.6618 450.9545,-378.3855 457,-366 467.5543,-344.3772 460.5086,-315.8573 454.3339,-298.6405"/>
<polygon fill="#191970" stroke="#191970" points="427.2636,-393.8795 420.9566,-402.3925 431.1958,-399.6707 427.2636,-393.8795"/>
</g>
<!-- Node2&#45;&gt;Node5 -->
<g id="edge21" class="edge">
<title>Node2&#45;&gt;Node5</title>
<path fill="none" stroke="#191970" d="M427.9675,-397.1737C442.8204,-388.3507 459.7617,-377.4269 474,-366 528.3237,-322.4026 583.2869,-260.1075 607.3732,-231.6849"/>
<polygon fill="#191970" stroke="#191970" points="425.9094,-394.3221 419.0322,-402.3815 429.4343,-400.3698 425.9094,-394.3221"/>
</g>
<!-- Node7 -->
<g id="node7" class="node">
<title>Node7</title>
<g id="a_node7"><a xlink:href="main_8cpp.html" target="_top" xlink:title=" ">
<polygon fill="#ffffff" stroke="#000000" points="428.5,-.5 428.5,-30.5 543.5,-30.5 543.5,-.5 428.5,-.5"/>
<text text-anchor="start" x="436.5" y="-18.5" font-family="Helvetica,sans-Serif" font-size="10.00" fill="#000000">src/application_server</text>
<text text-anchor="middle" x="486" y="-7.5" font-family="Helvetica,sans-Serif" font-size="10.00" fill="#000000">/main.cpp</text>
</a>
</g>
</g>
<!-- Node2&#45;&gt;Node7 -->
<g id="edge23" class="edge">
<title>Node2&#45;&gt;Node7</title>
<path fill="none" stroke="#191970" d="M323.1936,-410.4756C274.0315,-403.5977 206.833,-390.4436 152,-366 94.8764,-340.5353 38,-346.0424 38,-283.5 38,-283.5 38,-283.5 38,-149.5 38,-109.8416 40.4724,-91.0582 72,-67 99.7821,-45.7999 320.9811,-27.2943 428.1699,-19.47"/>
<polygon fill="#191970" stroke="#191970" points="323.0219,-413.984 333.3996,-411.8499 323.9561,-407.0466 323.0219,-413.984"/>
</g>
<!-- Node2&#45;&gt;Node10 -->
<g id="edge22" class="edge">
<title>Node2&#45;&gt;Node10</title>
<path fill="none" stroke="#191970" d="M352.0797,-396.8045C340.9346,-388.781 330.1481,-378.4802 324,-366 317.9114,-353.6405 323.0305,-348.7436 324,-335 328.2327,-274.9979 312.6873,-252.9549 343,-201 351.946,-185.6668 367.4033,-173.323 381.2181,-164.5681"/>
<polygon fill="#191970" stroke="#191970" points="350.3413,-399.8523 360.6014,-402.4946 354.2285,-394.0307 350.3413,-399.8523"/>
</g>
<!-- Node2&#45;&gt;Node13 -->
<g id="edge16" class="edge">
<title>Node2&#45;&gt;Node13</title>
<path fill="none" stroke="#191970" d="M342.8078,-398.7275C315.9477,-388.2645 282.9441,-375.4084 257.7685,-365.6017"/>
<polygon fill="#191970" stroke="#191970" points="341.8114,-402.0954 352.3998,-402.4639 344.3522,-395.5728 341.8114,-402.0954"/>
</g>
<!-- Node15 -->
<g id="node15" class="node">
<title>Node15</title>
<g id="a_node15"><a xlink:href="scene_8cpp.html" target="_top" xlink:title=" ">
<polygon fill="#ffffff" stroke="#000000" points="333.5,-335.5 333.5,-365.5 448.5,-365.5 448.5,-335.5 333.5,-335.5"/>
<text text-anchor="start" x="341.5" y="-353.5" font-family="Helvetica,sans-Serif" font-size="10.00" fill="#000000">src/application_server</text>
<text text-anchor="middle" x="391" y="-342.5" font-family="Helvetica,sans-Serif" font-size="10.00" fill="#000000">/scene.cpp</text>
</a>
</g>
</g>
<!-- Node2&#45;&gt;Node15 -->
<g id="edge24" class="edge">
<title>Node2&#45;&gt;Node15</title>
<path fill="none" stroke="#191970" d="M391,-392.0249C391,-383.128 391,-373.4287 391,-365.6432"/>
<polygon fill="#191970" stroke="#191970" points="387.5001,-392.2966 391,-402.2967 394.5001,-392.2967 387.5001,-392.2966"/>
</g>
<!-- Node4 -->
<g id="node4" class="node">
<title>Node4</title>
<g id="a_node4"><a xlink:href="client_8cpp.html" target="_top" xlink:title=" ">
<polygon fill="#ffffff" stroke="#000000" points="352.5,-201.5 352.5,-231.5 467.5,-231.5 467.5,-201.5 352.5,-201.5"/>
<text text-anchor="start" x="360.5" y="-219.5" font-family="Helvetica,sans-Serif" font-size="10.00" fill="#000000">src/application_server</text>
<text text-anchor="middle" x="410" y="-208.5" font-family="Helvetica,sans-Serif" font-size="10.00" fill="#000000">/client.cpp</text>
</a>
</g>
</g>
<!-- Node3&#45;&gt;Node4 -->
<g id="edge3" class="edge">
<title>Node3&#45;&gt;Node4</title>
<path fill="none" stroke="#191970" d="M434.3788,-259.4837C429.1132,-250.1996 423.247,-239.8565 418.5887,-231.6432"/>
<polygon fill="#191970" stroke="#191970" points="431.3993,-261.325 439.3772,-268.2967 437.4882,-257.8716 431.3993,-261.325"/>
</g>
<!-- Node3&#45;&gt;Node5 -->
<g id="edge4" class="edge">
<title>Node3&#45;&gt;Node5</title>
<path fill="none" stroke="#191970" d="M496.1922,-264.7275C523.0523,-254.2645 556.0559,-241.4084 581.2315,-231.6017"/>
<polygon fill="#191970" stroke="#191970" points="494.6478,-261.5728 486.6002,-268.4639 497.1886,-268.0954 494.6478,-261.5728"/>
</g>
<!-- Node3&#45;&gt;Node8 -->
<g id="edge7" class="edge">
<title>Node3&#45;&gt;Node8</title>
<path fill="none" stroke="#191970" d="M463.5961,-259.9138C468.4268,-251.4517 473.2094,-241.6181 476,-232 489.7721,-184.5331 488.6097,-125.174 487.0949,-97.7219"/>
<polygon fill="#191970" stroke="#191970" points="460.5954,-258.1121 458.4273,-268.4827 466.5894,-261.7277 460.5954,-258.1121"/>
</g>
<!-- Node9 -->
<g id="node9" class="node">
<title>Node9</title>
<g id="a_node9"><a xlink:href="routeinterface_8h.html" target="_top" xlink:title=" ">
<polygon fill="#ffffff" stroke="#000000" points="142.5,-201.5 142.5,-231.5 257.5,-231.5 257.5,-201.5 142.5,-201.5"/>
<text text-anchor="start" x="150.5" y="-219.5" font-family="Helvetica,sans-Serif" font-size="10.00" fill="#000000">src/application_server</text>
<text text-anchor="middle" x="200" y="-208.5" font-family="Helvetica,sans-Serif" font-size="10.00" fill="#000000">/routeinterface.h</text>
</a>
</g>
</g>
<!-- Node3&#45;&gt;Node9 -->
<g id="edge9" class="edge">
<title>Node3&#45;&gt;Node9</title>
<path fill="none" stroke="#191970" d="M382.5567,-265.8198C343.1383,-255.1704 293.4721,-241.7525 255.8988,-231.6017"/>
<polygon fill="#191970" stroke="#191970" points="381.7772,-269.2346 392.344,-268.4639 383.6029,-262.4768 381.7772,-269.2346"/>
</g>
<!-- Node3&#45;&gt;Node11 -->
<g id="edge15" class="edge">
<title>Node3&#45;&gt;Node11</title>
<path fill="none" stroke="#191970" d="M380.3303,-277.0773C292.5862,-268.0549 148.8345,-250.6335 133,-232 99.7863,-192.9152 133.5662,-127.2135 151.8765,-97.6817"/>
<polygon fill="#191970" stroke="#191970" points="380.1751,-280.5794 390.4779,-278.109 380.8832,-273.6153 380.1751,-280.5794"/>
</g>
<!-- Node6 -->
<g id="node6" class="node">
<title>Node6</title>
<g id="a_node6"><a xlink:href="gameloop_8cpp.html" target="_top" xlink:title=" ">
<polygon fill="#ffffff" stroke="#000000" points="600.5,-134.5 600.5,-164.5 715.5,-164.5 715.5,-134.5 600.5,-134.5"/>
<text text-anchor="start" x="608.5" y="-152.5" font-family="Helvetica,sans-Serif" font-size="10.00" fill="#000000">src/application_server</text>
<text text-anchor="middle" x="658" y="-141.5" font-family="Helvetica,sans-Serif" font-size="10.00" fill="#000000">/gameloop.cpp</text>
</a>
</g>
</g>
<!-- Node5&#45;&gt;Node6 -->
<g id="edge5" class="edge">
<title>Node5&#45;&gt;Node6</title>
<path fill="none" stroke="#191970" d="M633.6212,-192.4837C638.8868,-183.1996 644.753,-172.8565 649.4113,-164.6432"/>
<polygon fill="#191970" stroke="#191970" points="630.5118,-190.8716 628.6228,-201.2967 636.6007,-194.325 630.5118,-190.8716"/>
</g>
<!-- Node5&#45;&gt;Node7 -->
<g id="edge6" class="edge">
<title>Node5&#45;&gt;Node7</title>
<path fill="none" stroke="#191970" d="M605.7284,-192.717C600.8037,-184.117 595.4188,-174.2466 591,-165 570.7873,-122.7037 580.1253,-104.5033 552,-67 541.0129,-52.3494 524.8528,-39.6447 511.2735,-30.5195"/>
<polygon fill="#191970" stroke="#191970" points="602.7649,-194.5832 610.824,-201.4608 608.8128,-191.0586 602.7649,-194.5832"/>
</g>
<!-- Node8&#45;&gt;Node7 -->
<g id="edge8" class="edge">
<title>Node8&#45;&gt;Node7</title>
<path fill="none" stroke="#191970" d="M486,-57.0249C486,-48.128 486,-38.4287 486,-30.6432"/>
<polygon fill="#191970" stroke="#191970" points="482.5001,-57.2966 486,-67.2967 489.5001,-57.2967 482.5001,-57.2966"/>
</g>
<!-- Node9&#45;&gt;Node7 -->
<g id="edge13" class="edge">
<title>Node9&#45;&gt;Node7</title>
<path fill="none" stroke="#191970" d="M196.8532,-191.2867C196.014,-173.5825 197.8222,-150.2561 210,-134 262.2895,-64.1985 364.0598,-35.0234 428.3387,-23.1838"/>
<polygon fill="#191970" stroke="#191970" points="193.3804,-191.7731 197.6488,-201.4701 200.3592,-191.2278 193.3804,-191.7731"/>
</g>
<!-- Node9&#45;&gt;Node10 -->
<g id="edge10" class="edge">
<title>Node9&#45;&gt;Node10</title>
<path fill="none" stroke="#191970" d="M256.6928,-198.4123C289.8618,-187.8298 331.2547,-174.6235 362.6664,-164.6017"/>
<polygon fill="#191970" stroke="#191970" points="255.5911,-195.0899 247.1281,-201.4639 257.7188,-201.7587 255.5911,-195.0899"/>
</g>
<!-- Node12 -->
<g id="node12" class="node">
<title>Node12</title>
<g id="a_node12"><a xlink:href="routeinterface_8cpp.html" target="_top" xlink:title=" ">
<polygon fill="#ffffff" stroke="#000000" points="219.5,-134.5 219.5,-164.5 334.5,-164.5 334.5,-134.5 219.5,-134.5"/>
<text text-anchor="start" x="227.5" y="-152.5" font-family="Helvetica,sans-Serif" font-size="10.00" fill="#000000">src/application_server</text>
<text text-anchor="middle" x="277" y="-141.5" font-family="Helvetica,sans-Serif" font-size="10.00" fill="#000000">/routeinterface.cpp</text>
</a>
</g>
</g>
<!-- Node9&#45;&gt;Node12 -->
<g id="edge14" class="edge">
<title>Node9&#45;&gt;Node12</title>
<path fill="none" stroke="#191970" d="M225.2876,-194.4965C236.524,-184.7193 249.4692,-173.4554 259.5967,-164.6432"/>
<polygon fill="#191970" stroke="#191970" points="222.719,-192.092 217.4725,-201.2967 227.3139,-197.3728 222.719,-192.092"/>
</g>
<!-- Node10&#45;&gt;Node8 -->
<g id="edge11" class="edge">
<title>Node10&#45;&gt;Node8</title>
<path fill="none" stroke="#191970" d="M434.9592,-127.4965C446.0497,-117.7193 458.8267,-106.4554 468.8227,-97.6432"/>
<polygon fill="#191970" stroke="#191970" points="432.4323,-125.0582 427.2456,-134.2967 437.0614,-130.3091 432.4323,-125.0582"/>
</g>
<!-- Node10&#45;&gt;Node11 -->
<g id="edge12" class="edge">
<title>Node10&#45;&gt;Node11</title>
<path fill="none" stroke="#191970" d="M344.5567,-131.8198C305.1383,-121.1704 255.4721,-107.7525 217.8988,-97.6017"/>
<polygon fill="#191970" stroke="#191970" points="343.7772,-135.2346 354.344,-134.4639 345.6029,-128.4768 343.7772,-135.2346"/>
</g>
<!-- Node13&#45;&gt;Node3 -->
<g id="edge17" class="edge">
<title>Node13&#45;&gt;Node3</title>
<path fill="none" stroke="#191970" d="M280.3569,-332.5484C316.6045,-321.9432 361.9831,-308.6665 396.3838,-298.6017"/>
<polygon fill="#191970" stroke="#191970" points="279.0069,-329.2966 270.3921,-335.4639 280.9726,-336.015 279.0069,-329.2966"/>
</g>
<!-- Node13&#45;&gt;Node7 -->
<g id="edge19" class="edge">
<title>Node13&#45;&gt;Node7</title>
<path fill="none" stroke="#191970" d="M173.5782,-330.9772C131.7033,-309.5629 76,-270.8606 76,-216.5 76,-216.5 76,-216.5 76,-149.5 76,-111.8735 67.1557,-92.3071 95,-67 119.2255,-44.9819 325.4773,-27.1191 428.2619,-19.4916"/>
<polygon fill="#191970" stroke="#191970" points="172.0297,-334.116 182.5451,-335.4112 175.1325,-327.8412 172.0297,-334.116"/>
</g>
<!-- Node13&#45;&gt;Node10 -->
<g id="edge18" class="edge">
<title>Node13&#45;&gt;Node10</title>
<path fill="none" stroke="#191970" d="M242.4319,-327.9795C250.5493,-319.4052 259.2869,-309.2268 266,-299 292.1999,-259.0867 277.156,-235.6523 310,-201 325.3144,-184.8424 346.8198,-172.8625 365.9654,-164.5437"/>
<polygon fill="#191970" stroke="#191970" points="239.7091,-325.7581 235.2273,-335.3584 244.7177,-330.6484 239.7091,-325.7581"/>
</g>
<!-- Node14 -->
<g id="node14" class="node">
<title>Node14</title>
<g id="a_node14"><a xlink:href="view_8cpp.html" target="_top" xlink:title=" ">
<polygon fill="#ffffff" stroke="#000000" points="142.5,-268.5 142.5,-298.5 257.5,-298.5 257.5,-268.5 142.5,-268.5"/>
<text text-anchor="start" x="150.5" y="-286.5" font-family="Helvetica,sans-Serif" font-size="10.00" fill="#000000">src/application_server</text>
<text text-anchor="middle" x="200" y="-275.5" font-family="Helvetica,sans-Serif" font-size="10.00" fill="#000000">/view.cpp</text>
</a>
</g>
</g>
<!-- Node13&#45;&gt;Node14 -->
<g id="edge20" class="edge">
<title>Node13&#45;&gt;Node14</title>
<path fill="none" stroke="#191970" d="M211.9417,-325.6103C209.3739,-316.5553 206.5507,-306.5998 204.2943,-298.6432"/>
<polygon fill="#191970" stroke="#191970" points="208.5931,-326.6309 214.6886,-335.2967 215.3275,-324.7211 208.5931,-326.6309"/>
</g>
<!-- Node16&#45;&gt;Node3 -->
<g id="edge28" class="edge">
<title>Node16&#45;&gt;Node3</title>
<path fill="none" stroke="#191970" d="M704.5047,-336.5426C645.6684,-324.3759 561.2588,-306.9208 505.5601,-295.4029"/>
<polygon fill="#191970" stroke="#191970" points="703.947,-340.0013 714.4486,-338.5989 705.3646,-333.1463 703.947,-340.0013"/>
</g>
<!-- Node16&#45;&gt;Node5 -->
<g id="edge29" class="edge">
<title>Node16&#45;&gt;Node5</title>
<path fill="none" stroke="#191970" d="M745.3247,-328.8221C734.2887,-319.73 721.4255,-308.9715 710,-299 683.6499,-276.0032 653.8789,-248.3785 636.0431,-231.6449"/>
<polygon fill="#191970" stroke="#191970" points="743.4027,-331.7724 753.3537,-335.4094 747.8427,-326.3607 743.4027,-331.7724"/>
</g>
<!-- Node16&#45;&gt;Node7 -->
<g id="edge37" class="edge">
<title>Node16&#45;&gt;Node7</title>
<path fill="none" stroke="#191970" d="M839.1596,-331.1584C854.1193,-323.5911 868.1502,-313.1976 877,-299 884.2882,-287.3077 881.8934,-280.8795 877,-268 823.2604,-126.5554 638.9461,-56.9382 543.825,-29.7473"/>
<polygon fill="#191970" stroke="#191970" points="837.364,-328.1329 829.763,-335.5137 840.3077,-334.4839 837.364,-328.1329"/>
</g>
<!-- Node16&#45;&gt;Node10 -->
<g id="edge30" class="edge">
<title>Node16&#45;&gt;Node10</title>
<path fill="none" stroke="#191970" d="M758.8563,-326.452C736.2335,-285.2361 691.7933,-205.1064 686,-201 651.6514,-176.6529 537.9802,-161.7138 467.682,-154.5722"/>
<polygon fill="#191970" stroke="#191970" points="755.8416,-328.2338 763.7172,-335.3208 761.9801,-324.8694 755.8416,-328.2338"/>
</g>
<!-- Node17 -->
<g id="node17" class="node">
<title>Node17</title>
<g id="a_node17"><a xlink:href="minimap_8h.html" target="_top" xlink:title=" ">
<polygon fill="#ffffff" stroke="#000000" points="924.5,-268.5 924.5,-298.5 1039.5,-298.5 1039.5,-268.5 924.5,-268.5"/>
<text text-anchor="start" x="932.5" y="-286.5" font-family="Helvetica,sans-Serif" font-size="10.00" fill="#000000">src/application_server</text>
<text text-anchor="middle" x="982" y="-275.5" font-family="Helvetica,sans-Serif" font-size="10.00" fill="#000000">/minimap.h</text>
</a>
</g>
</g>
<!-- Node16&#45;&gt;Node17 -->
<g id="edge31" class="edge">
<title>Node16&#45;&gt;Node17</title>
<path fill="none" stroke="#191970" d="M828.6928,-332.4123C861.8618,-321.8298 903.2547,-308.6235 934.6664,-298.6017"/>
<polygon fill="#191970" stroke="#191970" points="827.5911,-329.0899 819.1281,-335.4639 829.7188,-335.7587 827.5911,-329.0899"/>
</g>
<!-- Node21 -->
<g id="node21" class="node">
<title>Node21</title>
<g id="a_node21"><a xlink:href="maprenderer_8cpp.html" target="_top" xlink:title=" ">
<polygon fill="#ffffff" stroke="#000000" points="752.5,-268.5 752.5,-298.5 867.5,-298.5 867.5,-268.5 752.5,-268.5"/>
<text text-anchor="start" x="760.5" y="-286.5" font-family="Helvetica,sans-Serif" font-size="10.00" fill="#000000">src/application_server</text>
<text text-anchor="middle" x="810" y="-275.5" font-family="Helvetica,sans-Serif" font-size="10.00" fill="#000000">/maprenderer.cpp</text>
</a>
</g>
</g>
<!-- Node16&#45;&gt;Node21 -->
<g id="edge38" class="edge">
<title>Node16&#45;&gt;Node21</title>
<path fill="none" stroke="#191970" d="M785.6212,-326.4837C790.8868,-317.1996 796.753,-306.8565 801.4113,-298.6432"/>
<polygon fill="#191970" stroke="#191970" points="782.5118,-324.8716 780.6228,-335.2967 788.6007,-328.325 782.5118,-324.8716"/>
</g>
<!-- Node17&#45;&gt;Node18 -->
<g id="edge32" class="edge">
<title>Node17&#45;&gt;Node18</title>
<path fill="none" stroke="#191970" d="M1015.227,-263.0761C1031.6561,-252.9774 1051.1445,-240.9983 1066.2428,-231.7177"/>
<polygon fill="#191970" stroke="#191970" points="1013.1482,-260.2455 1006.4617,-268.4639 1016.8138,-266.209 1013.1482,-260.2455"/>
</g>
<!-- Node20 -->
<g id="node20" class="node">
<title>Node20</title>
<g id="a_node20"><a xlink:href="minimap_8cpp.html" target="_top" xlink:title=" ">
<polygon fill="#ffffff" stroke="#000000" points="900.5,-201.5 900.5,-231.5 1015.5,-231.5 1015.5,-201.5 900.5,-201.5"/>
<text text-anchor="start" x="908.5" y="-219.5" font-family="Helvetica,sans-Serif" font-size="10.00" fill="#000000">src/application_server</text>
<text text-anchor="middle" x="958" y="-208.5" font-family="Helvetica,sans-Serif" font-size="10.00" fill="#000000">/minimap.cpp</text>
</a>
</g>
</g>
<!-- Node17&#45;&gt;Node20 -->
<g id="edge36" class="edge">
<title>Node17&#45;&gt;Node20</title>
<path fill="none" stroke="#191970" d="M973.0843,-258.6103C969.8407,-249.5553 966.2746,-239.5998 963.4244,-231.6432"/>
<polygon fill="#191970" stroke="#191970" points="969.8867,-260.0627 976.554,-268.2967 976.4767,-257.7021 969.8867,-260.0627"/>
</g>
<!-- Node18&#45;&gt;Node7 -->
<g id="edge34" class="edge">
<title>Node18&#45;&gt;Node7</title>
<path fill="none" stroke="#191970" d="M1063.2678,-195.0813C1011.9797,-155.649 905.7212,-74.8557 886,-67 825.0998,-42.7411 639.285,-26.4172 543.8744,-19.3991"/>
<polygon fill="#191970" stroke="#191970" points="1061.2388,-197.9363 1071.2979,-201.2626 1065.5086,-192.3893 1061.2388,-197.9363"/>
</g>
<!-- Node18&#45;&gt;Node8 -->
<g id="edge33" class="edge">
<title>Node18&#45;&gt;Node8</title>
<path fill="none" stroke="#191970" d="M1024.3595,-198.8285C957.3166,-181.3248 850.8461,-154.2744 758,-134 684.3984,-117.928 598.9526,-102.2297 543.7616,-92.4731"/>
<polygon fill="#191970" stroke="#191970" points="1023.8052,-202.3012 1034.3655,-201.4464 1025.5771,-195.5292 1023.8052,-202.3012"/>
</g>
<!-- Node19 -->
<g id="node19" class="node">
<title>Node19</title>
<g id="a_node19"><a xlink:href="sidepanel_8cpp.html" target="_top" xlink:title=" ">
<polygon fill="#ffffff" stroke="#000000" points="1033.5,-134.5 1033.5,-164.5 1148.5,-164.5 1148.5,-134.5 1033.5,-134.5"/>
<text text-anchor="start" x="1041.5" y="-152.5" font-family="Helvetica,sans-Serif" font-size="10.00" fill="#000000">src/application_server</text>
<text text-anchor="middle" x="1091" y="-141.5" font-family="Helvetica,sans-Serif" font-size="10.00" fill="#000000">/sidepanel.cpp</text>
</a>
</g>
</g>
<!-- Node18&#45;&gt;Node19 -->
<g id="edge35" class="edge">
<title>Node18&#45;&gt;Node19</title>
<path fill="none" stroke="#191970" d="M1091,-191.0249C1091,-182.128 1091,-172.4287 1091,-164.6432"/>
<polygon fill="#191970" stroke="#191970" points="1087.5001,-191.2966 1091,-201.2967 1094.5001,-191.2967 1087.5001,-191.2966"/>
</g>
</g>
</svg>
        <g id="navigator" transform="translate(0 0)" fill="#404254">
                <rect fill="#f2f5e9" fill-opacity="0.5" stroke="#606060" stroke-width=".5" x="0" y="0" width="60" height="60"/>
                <use id="zoomplus" xlink:href="#zoomPlus" x="17" y="9" onmousedown="handleZoom(evt,'in')"/>
                <use id="zoomminus" xlink:href="#zoomMin" x="42" y="9" onmousedown="handleZoom(evt,'out')"/>
                <use id="reset" xlink:href="#resetDef" x="30" y="36" onmousedown="handleReset()"/>
                <g id="arrowUp" xlink:href="#dirArrow" transform="translate(30 24)" onmousedown="handlePan(0,-1)">
                  <use xlink:href="#rim" fill="#404040">
                        <set attributeName="fill" to="#808080" begin="arrowUp.mouseover" end="arrowUp.mouseout"/>
                  </use>
                  <path fill="none" stroke="white" stroke-width="1.5" d="M0,-3.0v7 M-2.5,-0.5L0,-3.0L2.5,-0.5"/>
                </g>
                <g id="arrowRight" xlink:href="#dirArrow" transform="rotate(90) translate(36 -43)" onmousedown="handlePan(1,0)">
                  <use xlink:href="#rim" fill="#404040">
                        <set attributeName="fill" to="#808080" begin="arrowRight.mouseover" end="arrowRight.mouseout"/>
                  </use>
                  <path fill="none" stroke="white" stroke-width="1.5" d="M0,-3.0v7 M-2.5,-0.5L0,-3.0L2.5,-0.5"/>
                </g>
                <g id="arrowDown" xlink:href="#dirArrow" transform="rotate(180) translate(-30 -48)" onmousedown="handlePan(0,1)">
                  <use xlink:href="#rim" fill="#404040">
                        <set attributeName="fill" to="#808080" begin="arrowDown.mouseover" end="arrowDown.mouseout"/>
                  </use>
                  <path fill="none" stroke="white" stroke-width="1.5" d="M0,-3.0v7 M-2.5,-0.5L0,-3.0L2.5,-0.5"/>
                </g>
                <g id="arrowLeft" xlink:href="#dirArrow" transform="rotate(270) translate(-36 17)" onmousedown="handlePan(-1,0)">
                  <use xlink:href="#rim" fill="#404040">
                        <set attributeName="fill" to="#808080" begin="arrowLeft.mouseover" end="arrowLeft.mouseout"/>
                  </use>
                  <path fill="none" stroke="white" stroke-width="1.5" d="M0,-3.0v7 M-2.5,-0.5L0,-3.0L2.5,-0.5"/>
                </g>
        </g>
        <svg viewBox="0 0 15 15" width="100%" height="30px" preserveAspectRatio="xMaxYMin meet">
         <g id="arrow_out" transform="scale(0.3 0.3)">
          <a xlink:href="datamodel_8h__dep__incl_org.svg" target="_base">
           <rect id="button" ry="5" rx="5" y="6" x="6" height="38" width="38"
                fill="#f2f5e9" fill-opacity="0.5" stroke="#606060" stroke-width="1.0"/>
           <path id="arrow"
             d="M 11.500037,31.436501 C 11.940474,20.09759 22.043105,11.32322 32.158766,21.979434 L 37.068811,17.246167 C 37.068811,17.246167 37.088388,32 37.088388,32 L 22.160133,31.978069 C 22.160133,31.978069 26.997745,27.140456 26.997745,27.140456 C 18.528582,18.264221 13.291696,25.230495 11.500037,31.436501 z"
             style="fill:#404040;"/>
          </a>
         </g>
        </svg>
</svg>
