<?xml version="1.0" encoding="UTF-8" standalone="no"?>
<!DOCTYPE svg PUBLIC "-//W3C//DTD SVG 1.1//EN"
 "http://www.w3.org/Graphics/SVG/1.1/DTD/svg11.dtd">
<!-- Generated by graphviz version 2.40.1 (20161225.0304)
 -->
<!-- Title: src/application_server/datamodel.h Pages: 1 -->
<!--zoomable 508 -->
<svg id="main" version="1.1" xmlns="http://www.w3.org/2000/svg" xmlns:xlink="http://www.w3.org/1999/xlink" xml:space="preserve" onload="init(evt)">
<style type="text/css"><![CDATA[
.edge:hover path { stroke: red; }
.edge:hover polygon { stroke: red; fill: red; }
]]></style>
<script type="text/javascript"><![CDATA[
var edges = document.getElementsByTagName('g');
if (edges && edges.length) {
  for (var i=0;i<edges.length;i++) {
    if (edges[i].id.substr(0,4)=='edge') {
      edges[i].setAttribute('class','edge');
    }
  }
}
]]></script>
        <defs>
                <circle id="rim" cx="0" cy="0" r="7"/>
                <circle id="rim2" cx="0" cy="0" r="3.5"/>
                <g id="zoomPlus">
                        <use xlink:href="#rim" fill="#404040">
                                <set attributeName="fill" to="#808080" begin="zoomplus.mouseover" end="zoomplus.mouseout"/>
                        </use>
                        <path d="M-4,0h8M0,-4v8" fill="none" stroke="white" stroke-width="1.5" pointer-events="none"/>
                </g>
                <g id="zoomMin">
                        <use xlink:href="#rim" fill="#404040">
                                <set attributeName="fill" to="#808080" begin="zoomminus.mouseover" end="zoomminus.mouseout"/>
                        </use>
                        <path d="M-4,0h8" fill="none" stroke="white" stroke-width="1.5" pointer-events="none"/>
                </g>
                <g id="dirArrow">
                        <path fill="none" stroke="white" stroke-width="1.5" d="M0,-3.0v7 M-2.5,-0.5L0,-3.0L2.5,-0.5"/>
                </g>
               <g id="resetDef">
                       <use xlink:href="#rim2" fill="#404040">
                               <set attributeName="fill" to="#808080" begin="reset.mouseover" end="reset.mouseout"/>
                       </use>
               </g>
        </defs>

<script type="text/javascript">
var viewWidth = 1144;
var viewHeight = 508;
var sectionId = 'dynsection-1';
</script>
<script xlink:href="svgpan.js"/>
<svg id="graph" class="graph">
<g id="viewport">
<title>src/application_server/datamodel.h</title>
<polygon fill="#ffffff" stroke="transparent" points="-4,4 -4,-504 1139.5,-504 1139.5,4 -4,4"/>
<!-- Node1 -->
<g id="node1" class="node">
<title>Node1</title>
<g id="a_node1"><a xlink:title=" ">
<polygon fill="#bfbfbf" stroke="#000000" points="457.5,-469.5 457.5,-499.5 572.5,-499.5 572.5,-469.5 457.5,-469.5"/>
<text text-anchor="start" x="465.5" y="-487.5" font-family="Helvetica,sans-Serif" font-size="10.00" fill="#000000">src/application_server</text>
<text text-anchor="middle" x="515" y="-476.5" font-family="Helvetica,sans-Serif" font-size="10.00" fill="#000000">/datamodel.h</text>
</a>
</g>
</g>
<!-- Node2 -->
<g id="node2" class="node">
<title>Node2</title>
<g id="a_node2"><a xlink:href="scene_8h.html" target="_top" xlink:title=" ">
<polygon fill="#ffffff" stroke="#000000" points="276.5,-402.5 276.5,-432.5 391.5,-432.5 391.5,-402.5 276.5,-402.5"/>
<text text-anchor="start" x="284.5" y="-420.5" font-family="Helvetica,sans-Serif" font-size="10.00" fill="#000000">src/application_server</text>
<text text-anchor="middle" x="334" y="-409.5" font-family="Helvetica,sans-Serif" font-size="10.00" fill="#000000">/scene.h</text>
</a>
</g>
</g>
<!-- Node1&#45;&gt;Node2 -->
<g id="edge1" class="edge">
<title>Node1&#45;&gt;Node2</title>
<path fill="none" stroke="#191970" d="M464.6577,-465.865C436.3253,-455.3773 401.4062,-442.4515 374.7971,-432.6017"/>
<polygon fill="#191970" stroke="#191970" points="463.7869,-469.2747 474.3801,-469.4639 466.217,-462.71 463.7869,-469.2747"/>
</g>
<!-- Node3 -->
<g id="node3" class="node">
<title>Node3</title>
<g id="a_node3"><a xlink:href="client_8h.html" target="_top" xlink:title=" ">
<polygon fill="#ffffff" stroke="#000000" points="352.5,-268.5 352.5,-298.5 467.5,-298.5 467.5,-268.5 352.5,-268.5"/>
<text text-anchor="start" x="360.5" y="-286.5" font-family="Helvetica,sans-Serif" font-size="10.00" fill="#000000">src/application_server</text>
<text text-anchor="middle" x="410" y="-275.5" font-family="Helvetica,sans-Serif" font-size="10.00" fill="#000000">/client.h</text>
</a>
</g>
</g>
<!-- Node1&#45;&gt;Node3 -->
<g id="edge25" class="edge">
<title>Node1&#45;&gt;Node3</title>
<path fill="none" stroke="#191970" d="M502.4197,-460.4176C480.4913,-418.4405 435.8867,-333.0546 417.8404,-298.5088"/>
<polygon fill="#191970" stroke="#191970" points="499.3755,-462.1494 507.1079,-469.3923 505.5799,-458.9083 499.3755,-462.1494"/>
</g>
<!-- Node5 -->
<g id="node5" class="node">
<title>Node5</title>
<g id="a_node5"><a xlink:href="gameloop_8h.html" target="_top" xlink:title=" ">
<polygon fill="#ffffff" stroke="#000000" points="638.5,-201.5 638.5,-231.5 753.5,-231.5 753.5,-201.5 638.5,-201.5"/>
<text text-anchor="start" x="646.5" y="-219.5" font-family="Helvetica,sans-Serif" font-size="10.00" fill="#000000">src/application_server</text>
<text text-anchor="middle" x="696" y="-208.5" font-family="Helvetica,sans-Serif" font-size="10.00" fill="#000000">/gameloop.h</text>
</a>
</g>
</g>
<!-- Node1&#45;&gt;Node5 -->
<g id="edge39" class="edge">
<title>Node1&#45;&gt;Node5</title>
<path fill="none" stroke="#191970" d="M530.9701,-460.7581C557.7919,-420.8971 613.6079,-338.0047 661,-268 669.242,-255.8254 678.6048,-242.0517 685.5714,-231.8139"/>
<polygon fill="#191970" stroke="#191970" points="527.9261,-459.0126 525.2477,-469.2633 533.7339,-462.9202 527.9261,-459.0126"/>
</g>
<!-- Node8 -->
<g id="node8" class="node">
<title>Node8</title>
<g id="a_node8"><a xlink:href="main_8h.html" target="_top" xlink:title=" ">
<polygon fill="#ffffff" stroke="#000000" points="213.5,-67.5 213.5,-97.5 328.5,-97.5 328.5,-67.5 213.5,-67.5"/>
<text text-anchor="start" x="221.5" y="-85.5" font-family="Helvetica,sans-Serif" font-size="10.00" fill="#000000">src/application_server</text>
<text text-anchor="middle" x="271" y="-74.5" font-family="Helvetica,sans-Serif" font-size="10.00" fill="#000000">/main.h</text>
</a>
</g>
</g>
<!-- Node1&#45;&gt;Node8 -->
<g id="edge40" class="edge">
<title>Node1&#45;&gt;Node8</title>
<path fill="none" stroke="#191970" d="M447.2493,-481.0391C307.454,-472.0427 0,-441.8705 0,-350.5 0,-350.5 0,-350.5 0,-283.5 0,-178.2074 133.6064,-121.6814 213.1961,-97.3497"/>
<polygon fill="#191970" stroke="#191970" points="447.223,-484.5442 457.422,-481.6754 447.66,-477.5579 447.223,-484.5442"/>
</g>
<!-- Node10 -->
<g id="node10" class="node">
<title>Node10</title>
<g id="a_node10"><a xlink:href="menubar_8h.html" target="_top" xlink:title=" ">
<polygon fill="#ffffff" stroke="#000000" points="256.5,-134.5 256.5,-164.5 371.5,-164.5 371.5,-134.5 256.5,-134.5"/>
<text text-anchor="start" x="264.5" y="-152.5" font-family="Helvetica,sans-Serif" font-size="10.00" fill="#000000">src/application_server</text>
<text text-anchor="middle" x="314" y="-141.5" font-family="Helvetica,sans-Serif" font-size="10.00" fill="#000000">/menubar.h</text>
</a>
</g>
</g>
<!-- Node1&#45;&gt;Node10 -->
<g id="edge41" class="edge">
<title>Node1&#45;&gt;Node10</title>
<path fill="none" stroke="#191970" d="M447.0663,-477.9797C323.82,-464.2571 76,-427.1358 76,-350.5 76,-350.5 76,-350.5 76,-283.5 76,-200.992 185.9501,-168.7386 256.3868,-156.5417"/>
<polygon fill="#191970" stroke="#191970" points="446.836,-481.4753 457.157,-479.0819 447.5962,-474.5167 446.836,-481.4753"/>
</g>
<!-- Node11 -->
<g id="node11" class="node">
<title>Node11</title>
<g id="a_node11"><a xlink:href="menubar_8cpp.html" target="_top" xlink:title=" ">
<polygon fill="#ffffff" stroke="#000000" points="504.5,-67.5 504.5,-97.5 619.5,-97.5 619.5,-67.5 504.5,-67.5"/>
<text text-anchor="start" x="512.5" y="-85.5" font-family="Helvetica,sans-Serif" font-size="10.00" fill="#000000">src/application_server</text>
<text text-anchor="middle" x="562" y="-74.5" font-family="Helvetica,sans-Serif" font-size="10.00" fill="#000000">/menubar.cpp</text>
</a>
</g>
</g>
<!-- Node1&#45;&gt;Node11 -->
<g id="edge43" class="edge">
<title>Node1&#45;&gt;Node11</title>
<path fill="none" stroke="#191970" d="M522.8004,-459.8372C539.1187,-406.6606 576.2386,-276.9597 587,-165 588.3182,-151.2854 590.0869,-147.4275 587,-134 584.0162,-121.0206 577.3064,-107.5187 571.5887,-97.5975"/>
<polygon fill="#191970" stroke="#191970" points="519.4464,-458.8362 519.828,-469.4242 526.1324,-460.9092 519.4464,-458.8362"/>
</g>
<!-- Node13 -->
<g id="node13" class="node">
<title>Node13</title>
<g id="a_node13"><a xlink:href="view_8h.html" target="_top" xlink:title=" ">
<polygon fill="#ffffff" stroke="#000000" points="276.5,-335.5 276.5,-365.5 391.5,-365.5 391.5,-335.5 276.5,-335.5"/>
<text text-anchor="start" x="284.5" y="-353.5" font-family="Helvetica,sans-Serif" font-size="10.00" fill="#000000">src/application_server</text>
<text text-anchor="middle" x="334" y="-342.5" font-family="Helvetica,sans-Serif" font-size="10.00" fill="#000000">/view.h</text>
</a>
</g>
</g>
<!-- Node1&#45;&gt;Node13 -->
<g id="edge26" class="edge">
<title>Node1&#45;&gt;Node13</title>
<path fill="none" stroke="#191970" d="M486.2668,-463.2279C449.4524,-435.973 386.5573,-389.4098 354.3366,-365.5558"/>
<polygon fill="#191970" stroke="#191970" points="484.4691,-466.2518 494.5888,-469.389 488.6342,-460.6258 484.4691,-466.2518"/>
</g>
<!-- Node16 -->
<g id="node16" class="node">
<title>Node16</title>
<g id="a_node16"><a xlink:href="maprenderer_8h.html" target="_top" xlink:title=" ">
<polygon fill="#ffffff" stroke="#000000" points="638.5,-335.5 638.5,-365.5 753.5,-365.5 753.5,-335.5 638.5,-335.5"/>
<text text-anchor="start" x="646.5" y="-353.5" font-family="Helvetica,sans-Serif" font-size="10.00" fill="#000000">src/application_server</text>
<text text-anchor="middle" x="696" y="-342.5" font-family="Helvetica,sans-Serif" font-size="10.00" fill="#000000">/maprenderer.h</text>
</a>
</g>
</g>
<!-- Node1&#45;&gt;Node16 -->
<g id="edge27" class="edge">
<title>Node1&#45;&gt;Node16</title>
<path fill="none" stroke="#191970" d="M566.0566,-465.5755C585.2226,-457.1744 606.5675,-446.1787 624,-433 649.7799,-413.5107 673.0714,-383.5249 685.8109,-365.5776"/>
<polygon fill="#191970" stroke="#191970" points="564.6833,-462.3561 556.8496,-469.4894 567.4219,-468.7982 564.6833,-462.3561"/>
</g>
<!-- Node18 -->
<g id="node18" class="node">
<title>Node18</title>
<g id="a_node18"><a xlink:href="sidepanel_8h.html" target="_top" xlink:title=" ">
<polygon fill="#ffffff" stroke="#000000" points="981.5,-201.5 981.5,-231.5 1096.5,-231.5 1096.5,-201.5 981.5,-201.5"/>
<text text-anchor="start" x="989.5" y="-219.5" font-family="Helvetica,sans-Serif" font-size="10.00" fill="#000000">src/application_server</text>
<text text-anchor="middle" x="1039" y="-208.5" font-family="Helvetica,sans-Serif" font-size="10.00" fill="#000000">/sidepanel.h</text>
</a>
</g>
</g>
<!-- Node1&#45;&gt;Node18 -->
<g id="edge42" class="edge">
<title>Node1&#45;&gt;Node18</title>
<path fill="none" stroke="#191970" d="M582.414,-469.0609C676.9741,-444.9227 851.0659,-391.2013 973,-299 997.8718,-280.193 1018.8154,-249.9833 1030.0799,-231.8086"/>
<polygon fill="#191970" stroke="#191970" points="581.5217,-465.6762 572.6794,-471.5128 583.2315,-472.4642 581.5217,-465.6762"/>
</g>
<!-- Node22 -->
<g id="node22" class="node">
<title>Node22</title>
<g id="a_node22"><a xlink:href="datamodel_8cpp.html" target="_top" xlink:title=" ">
<polygon fill="#ffffff" stroke="#000000" points="1020.5,-402.5 1020.5,-432.5 1135.5,-432.5 1135.5,-402.5 1020.5,-402.5"/>
<text text-anchor="start" x="1028.5" y="-420.5" font-family="Helvetica,sans-Serif" font-size="10.00" fill="#000000">src/application_server</text>
<text text-anchor="middle" x="1078" y="-409.5" font-family="Helvetica,sans-Serif" font-size="10.00" fill="#000000">/datamodel.cpp</text>
</a>
</g>
</g>
<!-- Node1&#45;&gt;Node22 -->
<g id="edge38" class="edge">
<title>Node1&#45;&gt;Node22</title>
<path fill="none" stroke="#191970" d="M582.7607,-479.7103C677.7542,-472.4697 855.7387,-456.983 1006,-433 1010.6718,-432.2543 1015.4972,-431.4004 1020.3342,-430.4852"/>
<polygon fill="#191970" stroke="#191970" points="582.4208,-476.2259 572.7128,-480.4689 582.9479,-483.206 582.4208,-476.2259"/>
</g>
<!-- Node2&#45;&gt;Node3 -->
<g id="edge2" class="edge">
<title>Node2&#45;&gt;Node3</title>
<path fill="none" stroke="#191970" d="M370.9265,-396.6363C382.0409,-388.5161 393.105,-378.2003 400,-366 411.9258,-344.8982 412.5056,-315.9627 411.495,-298.5631"/>
<polygon fill="#191970" stroke="#191970" points="368.7616,-393.8767 362.4857,-402.4127 372.715,-399.6535 368.7616,-393.8767"/>
</g>
<!-- Node2&#45;&gt;Node5 -->
<g id="edge21" class="edge">
<title>Node2&#45;&gt;Node5</title>
<path fill="none" stroke="#191970" d="M368.2045,-397.3578C417.9785,-368.1901 513.4454,-312.7843 596,-268 619.1729,-255.4291 645.7148,-241.7949 665.6282,-231.7147"/>
<polygon fill="#191970" stroke="#191970" points="366.3101,-394.4113 359.4558,-402.4902 369.8521,-400.449 366.3101,-394.4113"/>
</g>
<!-- Node7 -->
<g id="node7" class="node">
<title>Node7</title>
<g id="a_node7"><a xlink:href="main_8cpp.html" target="_top" xlink:title=" ">
<polygon fill="#ffffff" stroke="#000000" points="342.5,-.5 342.5,-30.5 457.5,-30.5 457.5,-.5 342.5,-.5"/>
<text text-anchor="start" x="350.5" y="-18.5" font-family="Helvetica,sans-Serif" font-size="10.00" fill="#000000">src/application_server</text>
<text text-anchor="middle" x="400" y="-7.5" font-family="Helvetica,sans-Serif" font-size="10.00" fill="#000000">/main.cpp</text>
</a>
</g>
</g>
<!-- Node2&#45;&gt;Node7 -->
<g id="edge23" class="edge">
<title>Node2&#45;&gt;Node7</title>
<path fill="none" stroke="#191970" d="M266.2068,-408.564C205.7304,-399.5844 122.604,-384.4511 95,-366 57.948,-341.2336 38,-328.0671 38,-283.5 38,-283.5 38,-283.5 38,-149.5 38,-91.8827 85.9185,-91.6428 138,-67 203.7872,-35.8722 287.4241,-23.5547 342.2735,-18.6831"/>
<polygon fill="#191970" stroke="#191970" points="266.0596,-412.0795 276.4602,-410.0601 267.0704,-405.1528 266.0596,-412.0795"/>
</g>
<!-- Node2&#45;&gt;Node10 -->
<g id="edge22" class="edge">
<title>Node2&#45;&gt;Node10</title>
<path fill="none" stroke="#191970" d="M306.3159,-396.381C294.2111,-387.1054 279.8664,-376.0574 267,-366 249.5552,-352.3637 246.0536,-347.8195 228,-335 203.5697,-317.6524 185.4632,-325.241 171,-299 139.0997,-241.1225 226.9301,-189.2119 278.8581,-164.5905"/>
<polygon fill="#191970" stroke="#191970" points="304.2241,-399.1875 314.2926,-402.4855 308.4784,-393.6286 304.2241,-399.1875"/>
</g>
<!-- Node2&#45;&gt;Node13 -->
<g id="edge16" class="edge">
<title>Node2&#45;&gt;Node13</title>
<path fill="none" stroke="#191970" d="M334,-392.0249C334,-383.128 334,-373.4287 334,-365.6432"/>
<polygon fill="#191970" stroke="#191970" points="330.5001,-392.2966 334,-402.2967 337.5001,-392.2967 330.5001,-392.2966"/>
</g>
<!-- Node15 -->
<g id="node15" class="node">
<title>Node15</title>
<g id="a_node15"><a xlink:href="scene_8cpp.html" target="_top" xlink:title=" ">
<polygon fill="#ffffff" stroke="#000000" points="104.5,-335.5 104.5,-365.5 219.5,-365.5 219.5,-335.5 104.5,-335.5"/>
<text text-anchor="start" x="112.5" y="-353.5" font-family="Helvetica,sans-Serif" font-size="10.00" fill="#000000">src/application_server</text>
<text text-anchor="middle" x="162" y="-342.5" font-family="Helvetica,sans-Serif" font-size="10.00" fill="#000000">/scene.cpp</text>
</a>
</g>
</g>
<!-- Node2&#45;&gt;Node15 -->
<g id="edge24" class="edge">
<title>Node2&#45;&gt;Node15</title>
<path fill="none" stroke="#191970" d="M285.8078,-398.7275C258.9477,-388.2645 225.9441,-375.4084 200.7685,-365.6017"/>
<polygon fill="#191970" stroke="#191970" points="284.8114,-402.0954 295.3998,-402.4639 287.3522,-395.5728 284.8114,-402.0954"/>
</g>
<!-- Node4 -->
<g id="node4" class="node">
<title>Node4</title>
<g id="a_node4"><a xlink:href="client_8cpp.html" target="_top" xlink:title=" ">
<polygon fill="#ffffff" stroke="#000000" points="256.5,-201.5 256.5,-231.5 371.5,-231.5 371.5,-201.5 256.5,-201.5"/>
<text text-anchor="start" x="264.5" y="-219.5" font-family="Helvetica,sans-Serif" font-size="10.00" fill="#000000">src/application_server</text>
<text text-anchor="middle" x="314" y="-208.5" font-family="Helvetica,sans-Serif" font-size="10.00" fill="#000000">/client.cpp</text>
</a>
</g>
</g>
<!-- Node3&#45;&gt;Node4 -->
<g id="edge3" class="edge">
<title>Node3&#45;&gt;Node4</title>
<path fill="none" stroke="#191970" d="M379.6911,-262.3469C365.4067,-252.3776 348.6919,-240.7121 335.6977,-231.6432"/>
<polygon fill="#191970" stroke="#191970" points="378.0126,-265.4436 388.2161,-268.2967 382.0189,-259.7033 378.0126,-265.4436"/>
</g>
<!-- Node3&#45;&gt;Node5 -->
<g id="edge4" class="edge">
<title>Node3&#45;&gt;Node5</title>
<path fill="none" stroke="#191970" d="M477.379,-267.7154C526.2149,-256.2748 591.5699,-240.9644 638.0698,-230.0711"/>
<polygon fill="#191970" stroke="#191970" points="476.4704,-264.3334 467.5323,-270.0221 478.0671,-271.1489 476.4704,-264.3334"/>
</g>
<!-- Node3&#45;&gt;Node8 -->
<g id="edge7" class="edge">
<title>Node3&#45;&gt;Node8</title>
<path fill="none" stroke="#191970" d="M342.3509,-270.514C302.9492,-261.4237 258.7644,-248.0547 247,-232 217.0125,-191.0767 245.8815,-126.8861 261.9066,-97.7706"/>
<polygon fill="#191970" stroke="#191970" points="341.7191,-273.9592 352.2426,-272.7319 343.2507,-267.1288 341.7191,-273.9592"/>
</g>
<!-- Node9 -->
<g id="node9" class="node">
<title>Node9</title>
<g id="a_node9"><a xlink:href="routeinterface_8h.html" target="_top" xlink:title=" ">
<polygon fill="#ffffff" stroke="#000000" points="428.5,-201.5 428.5,-231.5 543.5,-231.5 543.5,-201.5 428.5,-201.5"/>
<text text-anchor="start" x="436.5" y="-219.5" font-family="Helvetica,sans-Serif" font-size="10.00" fill="#000000">src/application_server</text>
<text text-anchor="middle" x="486" y="-208.5" font-family="Helvetica,sans-Serif" font-size="10.00" fill="#000000">/routeinterface.h</text>
</a>
</g>
</g>
<!-- Node3&#45;&gt;Node9 -->
<g id="edge9" class="edge">
<title>Node3&#45;&gt;Node9</title>
<path fill="none" stroke="#191970" d="M434.9592,-261.4965C446.0497,-251.7193 458.8267,-240.4554 468.8227,-231.6432"/>
<polygon fill="#191970" stroke="#191970" points="432.4323,-259.0582 427.2456,-268.2967 437.0614,-264.3091 432.4323,-259.0582"/>
</g>
<!-- Node3&#45;&gt;Node11 -->
<g id="edge15" class="edge">
<title>Node3&#45;&gt;Node11</title>
<path fill="none" stroke="#191970" d="M477.4663,-266.6324C509.2562,-257.2407 542.3222,-244.8681 552,-232 582.1763,-191.8763 572.5362,-127.2796 565.9638,-97.9159"/>
<polygon fill="#191970" stroke="#191970" points="476.3127,-263.3222 467.6688,-269.4486 478.2465,-270.0498 476.3127,-263.3222"/>
</g>
<!-- Node6 -->
<g id="node6" class="node">
<title>Node6</title>
<g id="a_node6"><a xlink:href="gameloop_8cpp.html" target="_top" xlink:title=" ">
<polygon fill="#ffffff" stroke="#000000" points="676.5,-134.5 676.5,-164.5 791.5,-164.5 791.5,-134.5 676.5,-134.5"/>
<text text-anchor="start" x="684.5" y="-152.5" font-family="Helvetica,sans-Serif" font-size="10.00" fill="#000000">src/application_server</text>
<text text-anchor="middle" x="734" y="-141.5" font-family="Helvetica,sans-Serif" font-size="10.00" fill="#000000">/gameloop.cpp</text>
</a>
</g>
</g>
<!-- Node5&#45;&gt;Node6 -->
<g id="edge5" class="edge">
<title>Node5&#45;&gt;Node6</title>
<path fill="none" stroke="#191970" d="M709.6212,-192.4837C714.8868,-183.1996 720.753,-172.8565 725.4113,-164.6432"/>
<polygon fill="#191970" stroke="#191970" points="706.5118,-190.8716 704.6228,-201.2967 712.6007,-194.325 706.5118,-190.8716"/>
</g>
<!-- Node5&#45;&gt;Node7 -->
<g id="edge6" class="edge">
<title>Node5&#45;&gt;Node7</title>
<path fill="none" stroke="#191970" d="M682.319,-192.6474C677.5733,-184.0408 672.3547,-174.1842 668,-165 647.8449,-122.4922 663.8989,-97.404 628,-67 602.646,-45.5268 516.4411,-30.453 457.6052,-22.3776"/>
<polygon fill="#191970" stroke="#191970" points="679.2818,-194.3874 687.2196,-201.4047 685.3904,-190.9689 679.2818,-194.3874"/>
</g>
<!-- Node8&#45;&gt;Node7 -->
<g id="edge8" class="edge">
<title>Node8&#45;&gt;Node7</title>
<path fill="none" stroke="#191970" d="M308.9793,-62.7743C328.6967,-52.5335 352.4179,-40.2132 370.7002,-30.7177"/>
<polygon fill="#191970" stroke="#191970" points="307.2113,-59.7486 299.9501,-67.4639 310.4378,-65.9607 307.2113,-59.7486"/>
</g>
<!-- Node9&#45;&gt;Node7 -->
<g id="edge13" class="edge">
<title>Node9&#45;&gt;Node7</title>
<path fill="none" stroke="#191970" d="M448.5617,-195.7173C437.2823,-187.6027 426.0405,-177.2698 419,-165 393.9988,-121.4292 395.8119,-59.1209 398.281,-30.6899"/>
<polygon fill="#191970" stroke="#191970" points="446.8762,-198.8019 457.1256,-201.4854 450.7868,-192.996 446.8762,-198.8019"/>
</g>
<!-- Node9&#45;&gt;Node10 -->
<g id="edge10" class="edge">
<title>Node9&#45;&gt;Node10</title>
<path fill="none" stroke="#191970" d="M437.8078,-197.7275C410.9477,-187.2645 377.9441,-174.4084 352.7685,-164.6017"/>
<polygon fill="#191970" stroke="#191970" points="436.8114,-201.0954 447.3998,-201.4639 439.3522,-194.5728 436.8114,-201.0954"/>
</g>
<!-- Node12 -->
<g id="node12" class="node">
<title>Node12</title>
<g id="a_node12"><a xlink:href="routeinterface_8cpp.html" target="_top" xlink:title=" ">
<polygon fill="#ffffff" stroke="#000000" points="428.5,-134.5 428.5,-164.5 543.5,-164.5 543.5,-134.5 428.5,-134.5"/>
<text text-anchor="start" x="436.5" y="-152.5" font-family="Helvetica,sans-Serif" font-size="10.00" fill="#000000">src/application_server</text>
<text text-anchor="middle" x="486" y="-141.5" font-family="Helvetica,sans-Serif" font-size="10.00" fill="#000000">/routeinterface.cpp</text>
</a>
</g>
</g>
<!-- Node9&#45;&gt;Node12 -->
<g id="edge14" class="edge">
<title>Node9&#45;&gt;Node12</title>
<path fill="none" stroke="#191970" d="M486,-191.0249C486,-182.128 486,-172.4287 486,-164.6432"/>
<polygon fill="#191970" stroke="#191970" points="482.5001,-191.2966 486,-201.2967 489.5001,-191.2967 482.5001,-191.2966"/>
</g>
<!-- Node10&#45;&gt;Node8 -->
<g id="edge11" class="edge">
<title>Node10&#45;&gt;Node8</title>
<path fill="none" stroke="#191970" d="M298.7725,-125.7735C292.7666,-116.4154 286.0449,-105.9421 280.7188,-97.6432"/>
<polygon fill="#191970" stroke="#191970" points="295.8958,-127.7712 304.2426,-134.2967 301.7869,-123.9903 295.8958,-127.7712"/>
</g>
<!-- Node10&#45;&gt;Node11 -->
<g id="edge12" class="edge">
<title>Node10&#45;&gt;Node11</title>
<path fill="none" stroke="#191970" d="M379.4433,-131.8198C418.8617,-121.1704 468.5279,-107.7525 506.1012,-97.6017"/>
<polygon fill="#191970" stroke="#191970" points="378.3971,-128.4768 369.656,-134.4639 380.2228,-135.2346 378.3971,-128.4768"/>
</g>
<!-- Node13&#45;&gt;Node3 -->
<g id="edge17" class="edge">
<title>Node13&#45;&gt;Node3</title>
<path fill="none" stroke="#191970" d="M358.9592,-328.4965C370.0497,-318.7193 382.8267,-307.4554 392.8227,-298.6432"/>
<polygon fill="#191970" stroke="#191970" points="356.4323,-326.0582 351.2456,-335.2967 361.0614,-331.3091 356.4323,-326.0582"/>
</g>
<!-- Node13&#45;&gt;Node7 -->
<g id="edge19" class="edge">
<title>Node13&#45;&gt;Node7</title>
<path fill="none" stroke="#191970" d="M266.7219,-338.8536C202.0309,-323.3385 114,-288.9209 114,-216.5 114,-216.5 114,-216.5 114,-149.5 114,-95.2373 156.3656,-92.9886 204,-67 247.2392,-43.4093 301.8037,-30.2187 342.3748,-23.1085"/>
<polygon fill="#191970" stroke="#191970" points="265.9552,-342.2685 276.485,-341.0961 267.5223,-335.4462 265.9552,-342.2685"/>
</g>
<!-- Node13&#45;&gt;Node10 -->
<g id="edge18" class="edge">
<title>Node13&#45;&gt;Node10</title>
<path fill="none" stroke="#191970" d="M329.3438,-325.251C325.0974,-307.7162 317.3808,-284.6104 304,-268 285.2032,-244.6664 261.4632,-258.241 247,-232 240.3494,-219.9337 240.9114,-213.3595 247,-201 254.7152,-185.3386 269.735,-173.1093 283.6014,-164.5054"/>
<polygon fill="#191970" stroke="#191970" points="325.996,-326.3243 331.559,-335.3412 332.8332,-324.8232 325.996,-326.3243"/>
</g>
<!-- Node14 -->
<g id="node14" class="node">
<title>Node14</title>
<g id="a_node14"><a xlink:href="view_8cpp.html" target="_top" xlink:title=" ">
<polygon fill="#ffffff" stroke="#000000" points="180.5,-268.5 180.5,-298.5 295.5,-298.5 295.5,-268.5 180.5,-268.5"/>
<text text-anchor="start" x="188.5" y="-286.5" font-family="Helvetica,sans-Serif" font-size="10.00" fill="#000000">src/application_server</text>
<text text-anchor="middle" x="238" y="-275.5" font-family="Helvetica,sans-Serif" font-size="10.00" fill="#000000">/view.cpp</text>
</a>
</g>
</g>
<!-- Node13&#45;&gt;Node14 -->
<g id="edge20" class="edge">
<title>Node13&#45;&gt;Node14</title>
<path fill="none" stroke="#191970" d="M303.6911,-329.3469C289.4067,-319.3776 272.6919,-307.7121 259.6977,-298.6432"/>
<polygon fill="#191970" stroke="#191970" points="302.0126,-332.4436 312.2161,-335.2967 306.0189,-326.7033 302.0126,-332.4436"/>
</g>
<!-- Node16&#45;&gt;Node3 -->
<g id="edge28" class="edge">
<title>Node16&#45;&gt;Node3</title>
<path fill="none" stroke="#191970" d="M628.621,-334.7154C579.7851,-323.2748 514.4301,-307.9644 467.9302,-297.0711"/>
<polygon fill="#191970" stroke="#191970" points="627.9329,-338.1489 638.4677,-337.0221 629.5296,-331.3334 627.9329,-338.1489"/>
</g>
<!-- Node16&#45;&gt;Node5 -->
<g id="edge29" class="edge">
<title>Node16&#45;&gt;Node5</title>
<path fill="none" stroke="#191970" d="M679.6669,-326.3666C674.9381,-318.0592 670.4052,-308.4594 668,-299 664.6048,-285.6471 664.6048,-281.3529 668,-268 671.3104,-254.9806 678.6513,-241.6952 684.9861,-231.8796"/>
<polygon fill="#191970" stroke="#191970" points="676.802,-328.392 684.9861,-335.1204 682.7842,-324.7569 676.802,-328.392"/>
</g>
<!-- Node16&#45;&gt;Node7 -->
<g id="edge36" class="edge">
<title>Node16&#45;&gt;Node7</title>
<path fill="none" stroke="#191970" d="M757.858,-331.2086C773.9504,-323.5038 789.8724,-313.0288 801,-299 824.3825,-269.521 820,-254.1265 820,-216.5 820,-216.5 820,-216.5 820,-149.5 820,-74.3015 572.546,-35.5948 457.5186,-21.6645"/>
<polygon fill="#191970" stroke="#191970" points="756.1033,-328.1589 748.3982,-335.4309 758.9565,-334.5511 756.1033,-328.1589"/>
</g>
<!-- Node16&#45;&gt;Node10 -->
<g id="edge30" class="edge">
<title>Node16&#45;&gt;Node10</title>
<path fill="none" stroke="#191970" d="M641.4497,-332.0876C584.0365,-311.5993 492.0357,-275.5737 419,-232 399.9849,-220.6554 397.3951,-214.6997 380,-201 364.3573,-188.6804 346.5553,-174.7974 333.3851,-164.5526"/>
<polygon fill="#191970" stroke="#191970" points="640.4615,-335.4505 651.0563,-335.4859 642.796,-328.8513 640.4615,-335.4505"/>
</g>
<!-- Node17 -->
<g id="node17" class="node">
<title>Node17</title>
<g id="a_node17"><a xlink:href="minimap_8h.html" target="_top" xlink:title=" ">
<polygon fill="#ffffff" stroke="#000000" points="848.5,-268.5 848.5,-298.5 963.5,-298.5 963.5,-268.5 848.5,-268.5"/>
<text text-anchor="start" x="856.5" y="-286.5" font-family="Helvetica,sans-Serif" font-size="10.00" fill="#000000">src/application_server</text>
<text text-anchor="middle" x="906" y="-275.5" font-family="Helvetica,sans-Serif" font-size="10.00" fill="#000000">/minimap.h</text>
</a>
</g>
</g>
<!-- Node16&#45;&gt;Node17 -->
<g id="edge31" class="edge">
<title>Node16&#45;&gt;Node17</title>
<path fill="none" stroke="#191970" d="M752.6928,-332.4123C785.8618,-321.8298 827.2547,-308.6235 858.6664,-298.6017"/>
<polygon fill="#191970" stroke="#191970" points="751.5911,-329.0899 743.1281,-335.4639 753.7188,-335.7587 751.5911,-329.0899"/>
</g>
<!-- Node21 -->
<g id="node21" class="node">
<title>Node21</title>
<g id="a_node21"><a xlink:href="maprenderer_8cpp.html" target="_top" xlink:title=" ">
<polygon fill="#ffffff" stroke="#000000" points="676.5,-268.5 676.5,-298.5 791.5,-298.5 791.5,-268.5 676.5,-268.5"/>
<text text-anchor="start" x="684.5" y="-286.5" font-family="Helvetica,sans-Serif" font-size="10.00" fill="#000000">src/application_server</text>
<text text-anchor="middle" x="734" y="-275.5" font-family="Helvetica,sans-Serif" font-size="10.00" fill="#000000">/maprenderer.cpp</text>
</a>
</g>
</g>
<!-- Node16&#45;&gt;Node21 -->
<g id="edge37" class="edge">
<title>Node16&#45;&gt;Node21</title>
<path fill="none" stroke="#191970" d="M709.6212,-326.4837C714.8868,-317.1996 720.753,-306.8565 725.4113,-298.6432"/>
<polygon fill="#191970" stroke="#191970" points="706.5118,-324.8716 704.6228,-335.2967 712.6007,-328.325 706.5118,-324.8716"/>
</g>
<!-- Node17&#45;&gt;Node18 -->
<g id="edge32" class="edge">
<title>Node17&#45;&gt;Node18</title>
<path fill="none" stroke="#191970" d="M944.8813,-263.9132C965.2643,-253.645 989.8572,-241.2561 1008.7917,-231.7177"/>
<polygon fill="#191970" stroke="#191970" points="943.2039,-260.8391 935.8478,-268.4639 946.3533,-267.0906 943.2039,-260.8391"/>
</g>
<!-- Node20 -->
<g id="node20" class="node">
<title>Node20</title>
<g id="a_node20"><a xlink:href="minimap_8cpp.html" target="_top" xlink:title=" ">
<polygon fill="#ffffff" stroke="#000000" points="848.5,-201.5 848.5,-231.5 963.5,-231.5 963.5,-201.5 848.5,-201.5"/>
<text text-anchor="start" x="856.5" y="-219.5" font-family="Helvetica,sans-Serif" font-size="10.00" fill="#000000">src/application_server</text>
<text text-anchor="middle" x="906" y="-208.5" font-family="Helvetica,sans-Serif" font-size="10.00" fill="#000000">/minimap.cpp</text>
</a>
</g>
</g>
<!-- Node17&#45;&gt;Node20 -->
<g id="edge35" class="edge">
<title>Node17&#45;&gt;Node20</title>
<path fill="none" stroke="#191970" d="M906,-258.0249C906,-249.128 906,-239.4287 906,-231.6432"/>
<polygon fill="#191970" stroke="#191970" points="902.5001,-258.2966 906,-268.2967 909.5001,-258.2967 902.5001,-258.2966"/>
</g>
<!-- Node18&#45;&gt;Node7 -->
<g id="edge33" class="edge">
<title>Node18&#45;&gt;Node7</title>
<path fill="none" stroke="#191970" d="M1011.2749,-195.0634C959.9988,-155.6006 853.7599,-74.7576 834,-67 766.8152,-40.6237 559.794,-25.0081 457.8848,-18.7268"/>
<polygon fill="#191970" stroke="#191970" points="1009.2456,-197.9182 1019.3031,-201.2496 1013.5182,-192.3734 1009.2456,-197.9182"/>
</g>
<!-- Node19 -->
<g id="node19" class="node">
<title>Node19</title>
<g id="a_node19"><a xlink:href="sidepanel_8cpp.html" target="_top" xlink:title=" ">
<polygon fill="#ffffff" stroke="#000000" points="981.5,-134.5 981.5,-164.5 1096.5,-164.5 1096.5,-134.5 981.5,-134.5"/>
<text text-anchor="start" x="989.5" y="-152.5" font-family="Helvetica,sans-Serif" font-size="10.00" fill="#000000">src/application_server</text>
<text text-anchor="middle" x="1039" y="-141.5" font-family="Helvetica,sans-Serif" font-size="10.00" fill="#000000">/sidepanel.cpp</text>
</a>
</g>
</g>
<!-- Node18&#45;&gt;Node19 -->
<g id="edge34" class="edge">
<title>Node18&#45;&gt;Node19</title>
<path fill="none" stroke="#191970" d="M1039,-191.0249C1039,-182.128 1039,-172.4287 1039,-164.6432"/>
<polygon fill="#191970" stroke="#191970" points="1035.5001,-191.2966 1039,-201.2967 1042.5001,-191.2967 1035.5001,-191.2966"/>
</g>
</g>
</svg>
        <g id="navigator" transform="translate(0 0)" fill="#404254">
                <rect fill="#f2f5e9" fill-opacity="0.5" stroke="#606060" stroke-width=".5" x="0" y="0" width="60" height="60"/>
                <use id="zoomplus" xlink:href="#zoomPlus" x="17" y="9" onmousedown="handleZoom(evt,'in')"/>
                <use id="zoomminus" xlink:href="#zoomMin" x="42" y="9" onmousedown="handleZoom(evt,'out')"/>
                <use id="reset" xlink:href="#resetDef" x="30" y="36" onmousedown="handleReset()"/>
                <g id="arrowUp" xlink:href="#dirArrow" transform="translate(30 24)" onmousedown="handlePan(0,-1)">
                  <use xlink:href="#rim" fill="#404040">
                        <set attributeName="fill" to="#808080" begin="arrowUp.mouseover" end="arrowUp.mouseout"/>
                  </use>
                  <path fill="none" stroke="white" stroke-width="1.5" d="M0,-3.0v7 M-2.5,-0.5L0,-3.0L2.5,-0.5"/>
                </g>
                <g id="arrowRight" xlink:href="#dirArrow" transform="rotate(90) translate(36 -43)" onmousedown="handlePan(1,0)">
                  <use xlink:href="#rim" fill="#404040">
                        <set attributeName="fill" to="#808080" begin="arrowRight.mouseover" end="arrowRight.mouseout"/>
                  </use>
                  <path fill="none" stroke="white" stroke-width="1.5" d="M0,-3.0v7 M-2.5,-0.5L0,-3.0L2.5,-0.5"/>
                </g>
                <g id="arrowDown" xlink:href="#dirArrow" transform="rotate(180) translate(-30 -48)" onmousedown="handlePan(0,1)">
                  <use xlink:href="#rim" fill="#404040">
                        <set attributeName="fill" to="#808080" begin="arrowDown.mouseover" end="arrowDown.mouseout"/>
                  </use>
                  <path fill="none" stroke="white" stroke-width="1.5" d="M0,-3.0v7 M-2.5,-0.5L0,-3.0L2.5,-0.5"/>
                </g>
                <g id="arrowLeft" xlink:href="#dirArrow" transform="rotate(270) translate(-36 17)" onmousedown="handlePan(-1,0)">
                  <use xlink:href="#rim" fill="#404040">
                        <set attributeName="fill" to="#808080" begin="arrowLeft.mouseover" end="arrowLeft.mouseout"/>
                  </use>
                  <path fill="none" stroke="white" stroke-width="1.5" d="M0,-3.0v7 M-2.5,-0.5L0,-3.0L2.5,-0.5"/>
                </g>
        </g>
        <svg viewBox="0 0 15 15" width="100%" height="30px" preserveAspectRatio="xMaxYMin meet">
         <g id="arrow_out" transform="scale(0.3 0.3)">
          <a xlink:href="datamodel_8h__dep__incl_org.svg" target="_base">
           <rect id="button" ry="5" rx="5" y="6" x="6" height="38" width="38"
                fill="#f2f5e9" fill-opacity="0.5" stroke="#606060" stroke-width="1.0"/>
           <path id="arrow"
             d="M 11.500037,31.436501 C 11.940474,20.09759 22.043105,11.32322 32.158766,21.979434 L 37.068811,17.246167 C 37.068811,17.246167 37.088388,32 37.088388,32 L 22.160133,31.978069 C 22.160133,31.978069 26.997745,27.140456 26.997745,27.140456 C 18.528582,18.264221 13.291696,25.230495 11.500037,31.436501 z"
             style="fill:#404040;"/>
          </a>
         </g>
        </svg>
</svg>
