<?xml version="1.0" encoding="UTF-8" standalone="no"?>
<!DOCTYPE svg PUBLIC "-//W3C//DTD SVG 1.1//EN"
 "http://www.w3.org/Graphics/SVG/1.1/DTD/svg11.dtd">
<!-- Generated by graphviz version 2.40.1 (20161225.0304)
 -->
<!-- Title: src/application_server/datamodel.h Pages: 1 -->
<svg width="287pt" height="207pt"
 viewBox="0.00 0.00 286.50 207.00" xmlns="http://www.w3.org/2000/svg" xmlns:xlink="http://www.w3.org/1999/xlink">
<g id="graph0" class="graph" transform="scale(1 1) rotate(0) translate(4 203)">
<title>src/application_server/datamodel.h</title>
<polygon fill="#ffffff" stroke="transparent" points="-4,4 -4,-203 282.5,-203 282.5,4 -4,4"/>
<!-- Node1 -->
<g id="node1" class="node">
<title>Node1</title>
<g id="a_node1"><a xlink:title=" ">
<polygon fill="#bfbfbf" stroke="#000000" points="61,-168.5 61,-198.5 176,-198.5 176,-168.5 61,-168.5"/>
<text text-anchor="start" x="69" y="-186.5" font-family="Helvetica,sans-Serif" font-size="10.00" fill="#000000">src/application_server</text>
<text text-anchor="middle" x="118.5" y="-175.5" font-family="Helvetica,sans-Serif" font-size="10.00" fill="#000000">/datamodel.h</text>
</a>
</g>
</g>
<!-- Node2 -->
<g id="node2" class="node">
<title>Node2</title>
<g id="a_node2"><a xlink:title=" ">
<polygon fill="#ffffff" stroke="#bfbfbf" points="0,-112.5 0,-131.5 41,-131.5 41,-112.5 0,-112.5"/>
<text text-anchor="middle" x="20.5" y="-119.5" font-family="Helvetica,sans-Serif" font-size="10.00" fill="#000000">string</text>
</a>
</g>
</g>
<!-- Node1&#45;&gt;Node2 -->
<g id="edge1" class="edge">
<title>Node1&#45;&gt;Node2</title>
<path fill="none" stroke="#191970" d="M94.5265,-168.4554C79.3224,-158.9141 59.7241,-146.6151 44.5125,-137.0691"/>
<polygon fill="#191970" stroke="#191970" points="46.0172,-133.8813 35.6865,-131.5303 42.2963,-139.8105 46.0172,-133.8813"/>
</g>
<!-- Node3 -->
<g id="node3" class="node">
<title>Node3</title>
<g id="a_node3"><a xlink:title=" ">
<polygon fill="#ffffff" stroke="#bfbfbf" points="59,-112.5 59,-131.5 108,-131.5 108,-112.5 59,-112.5"/>
<text text-anchor="middle" x="83.5" y="-119.5" font-family="Helvetica,sans-Serif" font-size="10.00" fill="#000000">QLabel</text>
</a>
</g>
</g>
<!-- Node1&#45;&gt;Node3 -->
<g id="edge2" class="edge">
<title>Node1&#45;&gt;Node3</title>
<path fill="none" stroke="#191970" d="M109.8483,-168.2977C105.0912,-159.9388 99.1502,-149.4997 94.1143,-140.6509"/>
<polygon fill="#191970" stroke="#191970" points="97.0921,-138.8069 89.1039,-131.8469 91.0083,-142.2692 97.0921,-138.8069"/>
</g>
<!-- Node4 -->
<g id="node4" class="node">
<title>Node4</title>
<g id="a_node4"><a xlink:title=" ">
<polygon fill="#ffffff" stroke="#bfbfbf" points="126.5,-112.5 126.5,-131.5 182.5,-131.5 182.5,-112.5 126.5,-112.5"/>
<text text-anchor="middle" x="154.5" y="-119.5" font-family="Helvetica,sans-Serif" font-size="10.00" fill="#000000">QWidget</text>
</a>
</g>
</g>
<!-- Node1&#45;&gt;Node4 -->
<g id="edge3" class="edge">
<title>Node1&#45;&gt;Node4</title>
<path fill="none" stroke="#191970" d="M127.3989,-168.2977C132.2919,-159.9388 138.4026,-149.4997 143.5824,-140.6509"/>
<polygon fill="#191970" stroke="#191970" points="146.7047,-142.2452 148.7359,-131.8469 140.6635,-138.7089 146.7047,-142.2452"/>
</g>
<!-- Node5 -->
<g id="node5" class="node">
<title>Node5</title>
<g id="a_node5"><a xlink:href="player_8h.html" target="_top" xlink:title=" ">
<polygon fill="#ffffff" stroke="#000000" points="200.5,-112.5 200.5,-131.5 252.5,-131.5 252.5,-112.5 200.5,-112.5"/>
<text text-anchor="middle" x="226.5" y="-119.5" font-family="Helvetica,sans-Serif" font-size="10.00" fill="#000000">player.h</text>
</a>
</g>
</g>
<!-- Node1&#45;&gt;Node5 -->
<g id="edge4" class="edge">
<title>Node1&#45;&gt;Node5</title>
<path fill="none" stroke="#191970" d="M144.9198,-168.4554C161.9914,-158.734 184.0902,-146.15 200.9809,-136.5317"/>
<polygon fill="#191970" stroke="#191970" points="202.8059,-139.5202 209.7638,-131.5303 199.342,-133.4373 202.8059,-139.5202"/>
</g>
<!-- Node6 -->
<g id="node6" class="node">
<title>Node6</title>
<g id="a_node6"><a xlink:href="highlighter_8h.html" target="_top" xlink:title=" ">
<polygon fill="#ffffff" stroke="#000000" points="191.5,-56.5 191.5,-75.5 261.5,-75.5 261.5,-56.5 191.5,-56.5"/>
<text text-anchor="middle" x="226.5" y="-63.5" font-family="Helvetica,sans-Serif" font-size="10.00" fill="#000000">highlighter.h</text>
</a>
</g>
</g>
<!-- Node5&#45;&gt;Node6 -->
<g id="edge5" class="edge">
<title>Node5&#45;&gt;Node6</title>
<path fill="none" stroke="#191970" d="M226.5,-112.2455C226.5,-104.9382 226.5,-94.6944 226.5,-85.7046"/>
<polygon fill="#191970" stroke="#191970" points="230.0001,-85.6426 226.5,-75.6427 223.0001,-85.6427 230.0001,-85.6426"/>
</g>
<!-- Node7 -->
<g id="node7" class="node">
<title>Node7</title>
<g id="a_node7"><a xlink:title=" ">
<polygon fill="#ffffff" stroke="#bfbfbf" points="174.5,-.5 174.5,-19.5 278.5,-19.5 278.5,-.5 174.5,-.5"/>
<text text-anchor="middle" x="226.5" y="-7.5" font-family="Helvetica,sans-Serif" font-size="10.00" fill="#000000">QGraphicsRectItem</text>
</a>
</g>
</g>
<!-- Node6&#45;&gt;Node7 -->
<g id="edge6" class="edge">
<title>Node6&#45;&gt;Node7</title>
<path fill="none" stroke="#191970" d="M226.5,-56.2455C226.5,-48.9382 226.5,-38.6944 226.5,-29.7046"/>
<polygon fill="#191970" stroke="#191970" points="230.0001,-29.6426 226.5,-19.6427 223.0001,-29.6427 230.0001,-29.6426"/>
</g>
</g>
</svg>
