<?xml version="1.0" encoding="UTF-8" standalone="no"?>
<!DOCTYPE svg PUBLIC "-//W3C//DTD SVG 1.1//EN"
 "http://www.w3.org/Graphics/SVG/1.1/DTD/svg11.dtd">
<!-- Generated by graphviz version 2.40.1 (20161225.0304)
 -->
<!-- Title: src/application_server/datamodel.cpp Pages: 1 -->
<svg width="590pt" height="263pt"
 viewBox="0.00 0.00 589.50 263.00" xmlns="http://www.w3.org/2000/svg" xmlns:xlink="http://www.w3.org/1999/xlink">
<g id="graph0" class="graph" transform="scale(1 1) rotate(0) translate(4 259)">
<title>src/application_server/datamodel.cpp</title>
<polygon fill="#ffffff" stroke="transparent" points="-4,4 -4,-259 585.5,-259 585.5,4 -4,4"/>
<!-- Node1 -->
<g id="node1" class="node">
<title>Node1</title>
<g id="a_node1"><a xlink:title=" ">
<polygon fill="#bfbfbf" stroke="#000000" points="225,-224.5 225,-254.5 340,-254.5 340,-224.5 225,-224.5"/>
<text text-anchor="start" x="233" y="-242.5" font-family="Helvetica,sans-Serif" font-size="10.00" fill="#000000">src/application_server</text>
<text text-anchor="middle" x="282.5" y="-231.5" font-family="Helvetica,sans-Serif" font-size="10.00" fill="#000000">/datamodel.cpp</text>
</a>
</g>
</g>
<!-- Node2 -->
<g id="node2" class="node">
<title>Node2</title>
<g id="a_node2"><a xlink:href="datamodel_8h.html" target="_top" xlink:title=" ">
<polygon fill="#ffffff" stroke="#000000" points="205,-168.5 205,-187.5 278,-187.5 278,-168.5 205,-168.5"/>
<text text-anchor="middle" x="241.5" y="-175.5" font-family="Helvetica,sans-Serif" font-size="10.00" fill="#000000">datamodel.h</text>
</a>
</g>
</g>
<!-- Node1&#45;&gt;Node2 -->
<g id="edge1" class="edge">
<title>Node1&#45;&gt;Node2</title>
<path fill="none" stroke="#191970" d="M272.3652,-224.2977C266.7332,-215.8498 259.6849,-205.2773 253.746,-196.369"/>
<polygon fill="#191970" stroke="#191970" points="256.5238,-194.226 248.0646,-187.8469 250.6995,-198.1089 256.5238,-194.226"/>
</g>
<!-- Node14 -->
<g id="node14" class="node">
<title>Node14</title>
<g id="a_node14"><a xlink:title=" ">
<polygon fill="#ffffff" stroke="#bfbfbf" points="296.5,-168.5 296.5,-187.5 350.5,-187.5 350.5,-168.5 296.5,-168.5"/>
<text text-anchor="middle" x="323.5" y="-175.5" font-family="Helvetica,sans-Serif" font-size="10.00" fill="#000000">QDebug</text>
</a>
</g>
</g>
<!-- Node1&#45;&gt;Node14 -->
<g id="edge13" class="edge">
<title>Node1&#45;&gt;Node14</title>
<path fill="none" stroke="#191970" d="M292.6348,-224.2977C298.2668,-215.8498 305.3151,-205.2773 311.254,-196.369"/>
<polygon fill="#191970" stroke="#191970" points="314.3005,-198.1089 316.9354,-187.8469 308.4762,-194.226 314.3005,-198.1089"/>
</g>
<!-- Node3 -->
<g id="node3" class="node">
<title>Node3</title>
<g id="a_node3"><a xlink:title=" ">
<polygon fill="#ffffff" stroke="#bfbfbf" points="0,-112.5 0,-131.5 41,-131.5 41,-112.5 0,-112.5"/>
<text text-anchor="middle" x="20.5" y="-119.5" font-family="Helvetica,sans-Serif" font-size="10.00" fill="#000000">string</text>
</a>
</g>
</g>
<!-- Node2&#45;&gt;Node3 -->
<g id="edge2" class="edge">
<title>Node2&#45;&gt;Node3</title>
<path fill="none" stroke="#191970" d="M204.7725,-170.3109C167.9722,-162.3621 109.5467,-149.081 50.8228,-132.2019"/>
<polygon fill="#191970" stroke="#191970" points="51.5958,-128.7818 41.0162,-129.3498 49.6409,-135.5033 51.5958,-128.7818"/>
</g>
<!-- Node4 -->
<g id="node4" class="node">
<title>Node4</title>
<g id="a_node4"><a xlink:title=" ">
<polygon fill="#ffffff" stroke="#bfbfbf" points="59,-112.5 59,-131.5 108,-131.5 108,-112.5 59,-112.5"/>
<text text-anchor="middle" x="83.5" y="-119.5" font-family="Helvetica,sans-Serif" font-size="10.00" fill="#000000">QLabel</text>
</a>
</g>
</g>
<!-- Node2&#45;&gt;Node4 -->
<g id="edge3" class="edge">
<title>Node2&#45;&gt;Node4</title>
<path fill="none" stroke="#191970" d="M214.3388,-168.3733C187.6619,-158.9181 146.8651,-144.4585 117.9278,-134.2023"/>
<polygon fill="#191970" stroke="#191970" points="118.8243,-130.8067 108.2296,-130.7649 116.4858,-137.4046 118.8243,-130.8067"/>
</g>
<!-- Node5 -->
<g id="node5" class="node">
<title>Node5</title>
<g id="a_node5"><a xlink:title=" ">
<polygon fill="#ffffff" stroke="#bfbfbf" points="126.5,-112.5 126.5,-131.5 182.5,-131.5 182.5,-112.5 126.5,-112.5"/>
<text text-anchor="middle" x="154.5" y="-119.5" font-family="Helvetica,sans-Serif" font-size="10.00" fill="#000000">QWidget</text>
</a>
</g>
</g>
<!-- Node2&#45;&gt;Node5 -->
<g id="edge4" class="edge">
<title>Node2&#45;&gt;Node5</title>
<path fill="none" stroke="#191970" d="M226.3458,-168.2455C212.9973,-159.6534 193.3414,-147.0014 177.9617,-137.1018"/>
<polygon fill="#191970" stroke="#191970" points="179.7836,-134.1121 169.4806,-131.6427 175.9949,-139.9982 179.7836,-134.1121"/>
</g>
<!-- Node6 -->
<g id="node6" class="node">
<title>Node6</title>
<g id="a_node6"><a xlink:title=" ">
<polygon fill="#ffffff" stroke="#bfbfbf" points="200.5,-112.5 200.5,-131.5 282.5,-131.5 282.5,-112.5 200.5,-112.5"/>
<text text-anchor="middle" x="241.5" y="-119.5" font-family="Helvetica,sans-Serif" font-size="10.00" fill="#000000">QMediaPlayer</text>
</a>
</g>
</g>
<!-- Node2&#45;&gt;Node6 -->
<g id="edge5" class="edge">
<title>Node2&#45;&gt;Node6</title>
<path fill="none" stroke="#191970" d="M241.5,-168.2455C241.5,-160.9382 241.5,-150.6944 241.5,-141.7046"/>
<polygon fill="#191970" stroke="#191970" points="245.0001,-141.6426 241.5,-131.6427 238.0001,-141.6427 245.0001,-141.6426"/>
</g>
<!-- Node7 -->
<g id="node7" class="node">
<title>Node7</title>
<g id="a_node7"><a xlink:title=" ">
<polygon fill="#ffffff" stroke="#bfbfbf" points="301,-112.5 301,-131.5 384,-131.5 384,-112.5 301,-112.5"/>
<text text-anchor="middle" x="342.5" y="-119.5" font-family="Helvetica,sans-Serif" font-size="10.00" fill="#000000">QVideoWidget</text>
</a>
</g>
</g>
<!-- Node2&#45;&gt;Node7 -->
<g id="edge6" class="edge">
<title>Node2&#45;&gt;Node7</title>
<path fill="none" stroke="#191970" d="M259.0929,-168.2455C274.879,-159.4928 298.2639,-146.527 316.2587,-136.5496"/>
<polygon fill="#191970" stroke="#191970" points="318.0603,-139.5528 325.1087,-131.6427 314.6659,-133.4308 318.0603,-139.5528"/>
</g>
<!-- Node8 -->
<g id="node8" class="node">
<title>Node8</title>
<g id="a_node8"><a xlink:href="mainwindow_8h.html" target="_top" xlink:title=" ">
<polygon fill="#ffffff" stroke="#000000" points="402.5,-112.5 402.5,-131.5 482.5,-131.5 482.5,-112.5 402.5,-112.5"/>
<text text-anchor="middle" x="442.5" y="-119.5" font-family="Helvetica,sans-Serif" font-size="10.00" fill="#000000">mainwindow.h</text>
</a>
</g>
</g>
<!-- Node2&#45;&gt;Node8 -->
<g id="edge7" class="edge">
<title>Node2&#45;&gt;Node8</title>
<path fill="none" stroke="#191970" d="M276.0531,-168.3733C309.9104,-158.9404 361.646,-144.5265 398.4426,-134.2747"/>
<polygon fill="#191970" stroke="#191970" points="399.704,-137.5566 408.3978,-131.5011 397.8253,-130.8135 399.704,-137.5566"/>
</g>
<!-- Node11 -->
<g id="node11" class="node">
<title>Node11</title>
<g id="a_node11"><a xlink:href="player_8h.html" target="_top" xlink:title=" ">
<polygon fill="#ffffff" stroke="#000000" points="501.5,-112.5 501.5,-131.5 553.5,-131.5 553.5,-112.5 501.5,-112.5"/>
<text text-anchor="middle" x="527.5" y="-119.5" font-family="Helvetica,sans-Serif" font-size="10.00" fill="#000000">player.h</text>
</a>
</g>
</g>
<!-- Node2&#45;&gt;Node11 -->
<g id="edge10" class="edge">
<title>Node2&#45;&gt;Node11</title>
<path fill="none" stroke="#191970" d="M278.1313,-169.9005C281.2968,-169.2419 284.4529,-168.5998 287.5,-168 377.834,-150.2176 401.7083,-152.3442 491.5,-132 491.5988,-131.9776 491.6978,-131.9551 491.7969,-131.9325"/>
<polygon fill="#191970" stroke="#191970" points="492.3537,-135.4 501.2281,-129.6124 490.6815,-128.6027 492.3537,-135.4"/>
</g>
<!-- Node9 -->
<g id="node9" class="node">
<title>Node9</title>
<g id="a_node9"><a xlink:title=" ">
<polygon fill="#ffffff" stroke="#bfbfbf" points="308,-56.5 308,-75.5 391,-75.5 391,-56.5 308,-56.5"/>
<text text-anchor="middle" x="349.5" y="-63.5" font-family="Helvetica,sans-Serif" font-size="10.00" fill="#000000">QMainWindow</text>
</a>
</g>
</g>
<!-- Node8&#45;&gt;Node9 -->
<g id="edge8" class="edge">
<title>Node8&#45;&gt;Node9</title>
<path fill="none" stroke="#191970" d="M426.3006,-112.2455C411.8982,-103.5731 390.6268,-90.7645 374.1201,-80.825"/>
<polygon fill="#191970" stroke="#191970" points="375.886,-77.8028 365.5137,-75.6427 372.275,-83.7996 375.886,-77.8028"/>
</g>
<!-- Node10 -->
<g id="node10" class="node">
<title>Node10</title>
<g id="a_node10"><a xlink:title=" ">
<polygon fill="#ffffff" stroke="#bfbfbf" points="409,-56.5 409,-75.5 476,-75.5 476,-56.5 409,-56.5"/>
<text text-anchor="middle" x="442.5" y="-63.5" font-family="Helvetica,sans-Serif" font-size="10.00" fill="#000000">QKeyEvent</text>
</a>
</g>
</g>
<!-- Node8&#45;&gt;Node10 -->
<g id="edge9" class="edge">
<title>Node8&#45;&gt;Node10</title>
<path fill="none" stroke="#191970" d="M442.5,-112.2455C442.5,-104.9382 442.5,-94.6944 442.5,-85.7046"/>
<polygon fill="#191970" stroke="#191970" points="446.0001,-85.6426 442.5,-75.6427 439.0001,-85.6427 446.0001,-85.6426"/>
</g>
<!-- Node12 -->
<g id="node12" class="node">
<title>Node12</title>
<g id="a_node12"><a xlink:href="highlighter_8h.html" target="_top" xlink:title=" ">
<polygon fill="#ffffff" stroke="#000000" points="494.5,-56.5 494.5,-75.5 564.5,-75.5 564.5,-56.5 494.5,-56.5"/>
<text text-anchor="middle" x="529.5" y="-63.5" font-family="Helvetica,sans-Serif" font-size="10.00" fill="#000000">highlighter.h</text>
</a>
</g>
</g>
<!-- Node11&#45;&gt;Node12 -->
<g id="edge11" class="edge">
<title>Node11&#45;&gt;Node12</title>
<path fill="none" stroke="#191970" d="M527.8484,-112.2455C528.1093,-104.9382 528.4752,-94.6944 528.7963,-85.7046"/>
<polygon fill="#191970" stroke="#191970" points="532.2964,-85.7613 529.1556,-75.6427 525.3008,-85.5113 532.2964,-85.7613"/>
</g>
<!-- Node13 -->
<g id="node13" class="node">
<title>Node13</title>
<g id="a_node13"><a xlink:title=" ">
<polygon fill="#ffffff" stroke="#bfbfbf" points="477.5,-.5 477.5,-19.5 581.5,-19.5 581.5,-.5 477.5,-.5"/>
<text text-anchor="middle" x="529.5" y="-7.5" font-family="Helvetica,sans-Serif" font-size="10.00" fill="#000000">QGraphicsRectItem</text>
</a>
</g>
</g>
<!-- Node12&#45;&gt;Node13 -->
<g id="edge12" class="edge">
<title>Node12&#45;&gt;Node13</title>
<path fill="none" stroke="#191970" d="M529.5,-56.2455C529.5,-48.9382 529.5,-38.6944 529.5,-29.7046"/>
<polygon fill="#191970" stroke="#191970" points="533.0001,-29.6426 529.5,-19.6427 526.0001,-29.6427 533.0001,-29.6426"/>
</g>
</g>
</svg>
