<?xml version="1.0" encoding="UTF-8" standalone="no"?>
<!DOCTYPE svg PUBLIC "-//W3C//DTD SVG 1.1//EN"
 "http://www.w3.org/Graphics/SVG/1.1/DTD/svg11.dtd">
<!-- Generated by graphviz version 2.40.1 (20161225.0304)
 -->
<!-- Title: src/application_server/datamodel.cpp Pages: 1 -->
<svg width="581pt" height="263pt"
 viewBox="0.00 0.00 581.00 263.00" xmlns="http://www.w3.org/2000/svg" xmlns:xlink="http://www.w3.org/1999/xlink">
<g id="graph0" class="graph" transform="scale(1 1) rotate(0) translate(4 259)">
<title>src/application_server/datamodel.cpp</title>
<polygon fill="#ffffff" stroke="transparent" points="-4,4 -4,-259 577,-259 577,4 -4,4"/>
<!-- Node1 -->
<g id="node1" class="node">
<title>Node1</title>
<g id="a_node1"><a xlink:title=" ">
<polygon fill="#bfbfbf" stroke="#000000" points="138,-224.5 138,-254.5 253,-254.5 253,-224.5 138,-224.5"/>
<text text-anchor="start" x="146" y="-242.5" font-family="Helvetica,sans-Serif" font-size="10.00" fill="#000000">src/application_server</text>
<text text-anchor="middle" x="195.5" y="-231.5" font-family="Helvetica,sans-Serif" font-size="10.00" fill="#000000">/datamodel.cpp</text>
</a>
</g>
</g>
<!-- Node2 -->
<g id="node2" class="node">
<title>Node2</title>
<g id="a_node2"><a xlink:href="datamodel_8h.html" target="_top" xlink:title=" ">
<polygon fill="#ffffff" stroke="#000000" points="118,-168.5 118,-187.5 191,-187.5 191,-168.5 118,-168.5"/>
<text text-anchor="middle" x="154.5" y="-175.5" font-family="Helvetica,sans-Serif" font-size="10.00" fill="#000000">datamodel.h</text>
</a>
</g>
</g>
<!-- Node1&#45;&gt;Node2 -->
<g id="edge1" class="edge">
<title>Node1&#45;&gt;Node2</title>
<path fill="none" stroke="#191970" d="M185.3652,-224.2977C179.7332,-215.8498 172.6849,-205.2773 166.746,-196.369"/>
<polygon fill="#191970" stroke="#191970" points="169.5238,-194.226 161.0646,-187.8469 163.6995,-198.1089 169.5238,-194.226"/>
</g>
<!-- Node15 -->
<g id="node15" class="node">
<title>Node15</title>
<g id="a_node15"><a xlink:title=" ">
<polygon fill="#ffffff" stroke="#bfbfbf" points="209.5,-168.5 209.5,-187.5 263.5,-187.5 263.5,-168.5 209.5,-168.5"/>
<text text-anchor="middle" x="236.5" y="-175.5" font-family="Helvetica,sans-Serif" font-size="10.00" fill="#000000">QDebug</text>
</a>
</g>
</g>
<!-- Node1&#45;&gt;Node15 -->
<g id="edge16" class="edge">
<title>Node1&#45;&gt;Node15</title>
<path fill="none" stroke="#191970" d="M205.6348,-224.2977C211.2668,-215.8498 218.3151,-205.2773 224.254,-196.369"/>
<polygon fill="#191970" stroke="#191970" points="227.3005,-198.1089 229.9354,-187.8469 221.4762,-194.226 227.3005,-198.1089"/>
</g>
<!-- Node3 -->
<g id="node3" class="node">
<title>Node3</title>
<g id="a_node3"><a xlink:title=" ">
<polygon fill="#ffffff" stroke="#bfbfbf" points="0,-112.5 0,-131.5 41,-131.5 41,-112.5 0,-112.5"/>
<text text-anchor="middle" x="20.5" y="-119.5" font-family="Helvetica,sans-Serif" font-size="10.00" fill="#000000">string</text>
</a>
</g>
</g>
<!-- Node2&#45;&gt;Node3 -->
<g id="edge2" class="edge">
<title>Node2&#45;&gt;Node3</title>
<path fill="none" stroke="#191970" d="M131.4646,-168.3733C109.1035,-159.0283 75.0448,-144.7949 50.5603,-134.5625"/>
<polygon fill="#191970" stroke="#191970" points="51.6173,-131.2109 41.041,-130.5843 48.9181,-137.6696 51.6173,-131.2109"/>
</g>
<!-- Node4 -->
<g id="node4" class="node">
<title>Node4</title>
<g id="a_node4"><a xlink:title=" ">
<polygon fill="#ffffff" stroke="#bfbfbf" points="59,-112.5 59,-131.5 108,-131.5 108,-112.5 59,-112.5"/>
<text text-anchor="middle" x="83.5" y="-119.5" font-family="Helvetica,sans-Serif" font-size="10.00" fill="#000000">QLabel</text>
</a>
</g>
</g>
<!-- Node2&#45;&gt;Node4 -->
<g id="edge3" class="edge">
<title>Node2&#45;&gt;Node4</title>
<path fill="none" stroke="#191970" d="M142.1327,-168.2455C131.5446,-159.8943 116.0936,-147.7076 103.7107,-137.9408"/>
<polygon fill="#191970" stroke="#191970" points="105.7447,-135.0875 95.7255,-131.6427 101.4097,-140.5837 105.7447,-135.0875"/>
</g>
<!-- Node5 -->
<g id="node5" class="node">
<title>Node5</title>
<g id="a_node5"><a xlink:title=" ">
<polygon fill="#ffffff" stroke="#bfbfbf" points="126.5,-112.5 126.5,-131.5 182.5,-131.5 182.5,-112.5 126.5,-112.5"/>
<text text-anchor="middle" x="154.5" y="-119.5" font-family="Helvetica,sans-Serif" font-size="10.00" fill="#000000">QWidget</text>
</a>
</g>
</g>
<!-- Node2&#45;&gt;Node5 -->
<g id="edge4" class="edge">
<title>Node2&#45;&gt;Node5</title>
<path fill="none" stroke="#191970" d="M154.5,-168.2455C154.5,-160.9382 154.5,-150.6944 154.5,-141.7046"/>
<polygon fill="#191970" stroke="#191970" points="158.0001,-141.6426 154.5,-131.6427 151.0001,-141.6427 158.0001,-141.6426"/>
</g>
<!-- Node6 -->
<g id="node6" class="node">
<title>Node6</title>
<g id="a_node6"><a xlink:href="player_8h.html" target="_top" xlink:title=" ">
<polygon fill="#ffffff" stroke="#000000" points="200.5,-112.5 200.5,-131.5 252.5,-131.5 252.5,-112.5 200.5,-112.5"/>
<text text-anchor="middle" x="226.5" y="-119.5" font-family="Helvetica,sans-Serif" font-size="10.00" fill="#000000">player.h</text>
</a>
</g>
</g>
<!-- Node2&#45;&gt;Node6 -->
<g id="edge5" class="edge">
<title>Node2&#45;&gt;Node6</title>
<path fill="none" stroke="#191970" d="M167.0414,-168.2455C177.7787,-159.8943 193.4473,-147.7076 206.0047,-137.9408"/>
<polygon fill="#191970" stroke="#191970" points="208.3575,-140.5449 214.1023,-131.6427 204.0599,-135.0194 208.3575,-140.5449"/>
</g>
<!-- Node9 -->
<g id="node9" class="node">
<title>Node9</title>
<g id="a_node9"><a xlink:href="animationmanager_8h.html" target="_top" xlink:title=" ">
<polygon fill="#ffffff" stroke="#000000" points="302.5,-112.5 302.5,-131.5 410.5,-131.5 410.5,-112.5 302.5,-112.5"/>
<text text-anchor="middle" x="356.5" y="-119.5" font-family="Helvetica,sans-Serif" font-size="10.00" fill="#000000">animationmanager.h</text>
</a>
</g>
</g>
<!-- Node2&#45;&gt;Node9 -->
<g id="edge8" class="edge">
<title>Node2&#45;&gt;Node9</title>
<path fill="none" stroke="#191970" d="M189.225,-168.3733C223.2508,-158.9404 275.2437,-144.5265 312.2234,-134.2747"/>
<polygon fill="#191970" stroke="#191970" points="313.5266,-137.5455 322.2281,-131.5011 311.6565,-130.7999 313.5266,-137.5455"/>
</g>
<!-- Node7 -->
<g id="node7" class="node">
<title>Node7</title>
<g id="a_node7"><a xlink:href="highlighter_8h.html" target="_top" xlink:title=" ">
<polygon fill="#ffffff" stroke="#000000" points="175.5,-56.5 175.5,-75.5 245.5,-75.5 245.5,-56.5 175.5,-56.5"/>
<text text-anchor="middle" x="210.5" y="-63.5" font-family="Helvetica,sans-Serif" font-size="10.00" fill="#000000">highlighter.h</text>
</a>
</g>
</g>
<!-- Node6&#45;&gt;Node7 -->
<g id="edge6" class="edge">
<title>Node6&#45;&gt;Node7</title>
<path fill="none" stroke="#191970" d="M223.713,-112.2455C221.6023,-104.8579 218.634,-94.4689 216.0453,-85.4087"/>
<polygon fill="#191970" stroke="#191970" points="219.3677,-84.2964 213.255,-75.6427 212.637,-86.2195 219.3677,-84.2964"/>
</g>
<!-- Node8 -->
<g id="node8" class="node">
<title>Node8</title>
<g id="a_node8"><a xlink:title=" ">
<polygon fill="#ffffff" stroke="#bfbfbf" points="144.5,-.5 144.5,-19.5 248.5,-19.5 248.5,-.5 144.5,-.5"/>
<text text-anchor="middle" x="196.5" y="-7.5" font-family="Helvetica,sans-Serif" font-size="10.00" fill="#000000">QGraphicsRectItem</text>
</a>
</g>
</g>
<!-- Node7&#45;&gt;Node8 -->
<g id="edge7" class="edge">
<title>Node7&#45;&gt;Node8</title>
<path fill="none" stroke="#191970" d="M208.0614,-56.2455C206.2145,-48.8579 203.6172,-38.4689 201.3522,-29.4087"/>
<polygon fill="#191970" stroke="#191970" points="204.7316,-28.4952 198.9107,-19.6427 197.9406,-30.193 204.7316,-28.4952"/>
</g>
<!-- Node10 -->
<g id="node10" class="node">
<title>Node10</title>
<g id="a_node10"><a xlink:href="animationmovement_8h.html" target="_top" xlink:title=" ">
<polygon fill="#ffffff" stroke="#000000" points="315,-56.5 315,-75.5 430,-75.5 430,-56.5 315,-56.5"/>
<text text-anchor="middle" x="372.5" y="-63.5" font-family="Helvetica,sans-Serif" font-size="10.00" fill="#000000">animationmovement.h</text>
</a>
</g>
</g>
<!-- Node9&#45;&gt;Node10 -->
<g id="edge9" class="edge">
<title>Node9&#45;&gt;Node10</title>
<path fill="none" stroke="#191970" d="M359.287,-112.2455C361.3977,-104.8579 364.366,-94.4689 366.9547,-85.4087"/>
<polygon fill="#191970" stroke="#191970" points="370.363,-86.2195 369.745,-75.6427 363.6323,-84.2964 370.363,-86.2195"/>
</g>
<!-- Node12 -->
<g id="node12" class="node">
<title>Node12</title>
<g id="a_node12"><a xlink:title=" ">
<polygon fill="#ffffff" stroke="#bfbfbf" points="267,-.5 267,-19.5 306,-19.5 306,-.5 267,-.5"/>
<text text-anchor="middle" x="286.5" y="-7.5" font-family="Helvetica,sans-Serif" font-size="10.00" fill="#000000">QList</text>
</a>
</g>
</g>
<!-- Node9&#45;&gt;Node12 -->
<g id="edge14" class="edge">
<title>Node9&#45;&gt;Node12</title>
<path fill="none" stroke="#191970" d="M342.2679,-112.2408C331.0435,-103.8491 315.7824,-90.7847 306.5,-76 297.5583,-61.758 292.408,-43.2769 289.5804,-29.4952"/>
<polygon fill="#191970" stroke="#191970" points="293.0173,-28.8321 287.7826,-19.6208 286.1305,-30.086 293.0173,-28.8321"/>
</g>
<!-- Node14 -->
<g id="node14" class="node">
<title>Node14</title>
<g id="a_node14"><a xlink:title=" ">
<polygon fill="#ffffff" stroke="#bfbfbf" points="456,-.5 456,-19.5 573,-19.5 573,-.5 456,-.5"/>
<text text-anchor="middle" x="514.5" y="-7.5" font-family="Helvetica,sans-Serif" font-size="10.00" fill="#000000">QGraphicsPixmapItem</text>
</a>
</g>
</g>
<!-- Node9&#45;&gt;Node14 -->
<g id="edge15" class="edge">
<title>Node9&#45;&gt;Node14</title>
<path fill="none" stroke="#191970" d="M376.672,-112.3646C393.9419,-103.7591 419.1649,-90.3299 439.5,-76 460.7935,-60.9947 482.9161,-40.8797 497.5662,-26.815"/>
<polygon fill="#191970" stroke="#191970" points="500.1576,-29.177 504.8836,-19.6946 495.2758,-24.1602 500.1576,-29.177"/>
</g>
<!-- Node11 -->
<g id="node11" class="node">
<title>Node11</title>
<g id="a_node11"><a xlink:href="point_8h.html" target="_top" xlink:title=" ">
<polygon fill="#ffffff" stroke="#000000" points="324,-.5 324,-19.5 369,-19.5 369,-.5 324,-.5"/>
<text text-anchor="middle" x="346.5" y="-7.5" font-family="Helvetica,sans-Serif" font-size="10.00" fill="#000000">point.h</text>
</a>
</g>
</g>
<!-- Node10&#45;&gt;Node11 -->
<g id="edge10" class="edge">
<title>Node10&#45;&gt;Node11</title>
<path fill="none" stroke="#191970" d="M367.9711,-56.2455C364.4666,-48.6973 359.5073,-38.0158 355.2377,-28.8197"/>
<polygon fill="#191970" stroke="#191970" points="358.3627,-27.2389 350.977,-19.6427 352.0136,-30.1867 358.3627,-27.2389"/>
</g>
<!-- Node10&#45;&gt;Node12 -->
<g id="edge11" class="edge">
<title>Node10&#45;&gt;Node12</title>
<path fill="none" stroke="#191970" d="M357.5199,-56.2455C344.3249,-47.6534 324.8949,-35.0014 309.6921,-25.1018"/>
<polygon fill="#191970" stroke="#191970" points="311.5983,-22.1665 301.3084,-19.6427 307.7785,-28.0325 311.5983,-22.1665"/>
</g>
<!-- Node13 -->
<g id="node13" class="node">
<title>Node13</title>
<g id="a_node13"><a xlink:title=" ">
<polygon fill="#ffffff" stroke="#bfbfbf" points="387.5,-.5 387.5,-19.5 437.5,-19.5 437.5,-.5 387.5,-.5"/>
<text text-anchor="middle" x="412.5" y="-7.5" font-family="Helvetica,sans-Serif" font-size="10.00" fill="#000000">QString</text>
</a>
</g>
</g>
<!-- Node10&#45;&gt;Node13 -->
<g id="edge12" class="edge">
<title>Node10&#45;&gt;Node13</title>
<path fill="none" stroke="#191970" d="M379.4675,-56.2455C385.0311,-48.4564 392.978,-37.3308 399.6829,-27.9439"/>
<polygon fill="#191970" stroke="#191970" points="402.648,-29.8144 405.6124,-19.6427 396.9519,-25.7457 402.648,-29.8144"/>
</g>
<!-- Node10&#45;&gt;Node14 -->
<g id="edge13" class="edge">
<title>Node10&#45;&gt;Node14</title>
<path fill="none" stroke="#191970" d="M396.9107,-56.3733C420.1142,-47.2226 455.2038,-33.3844 481.0142,-23.2057"/>
<polygon fill="#191970" stroke="#191970" points="482.3892,-26.4258 490.4079,-19.5011 479.8211,-19.9139 482.3892,-26.4258"/>
</g>
</g>
</svg>
