<?xml version="1.0" encoding="UTF-8" standalone="no"?>
<!DOCTYPE svg PUBLIC "-//W3C//DTD SVG 1.1//EN"
 "http://www.w3.org/Graphics/SVG/1.1/DTD/svg11.dtd">
<!-- Generated by graphviz version 2.40.1 (20161225.0304)
 -->
<!-- Title: src/application_server/gameloop.cpp Pages: 1 -->
<!--zoomable 487 -->
<svg id="main" version="1.1" xmlns="http://www.w3.org/2000/svg" xmlns:xlink="http://www.w3.org/1999/xlink" xml:space="preserve" onload="init(evt)">
<style type="text/css"><![CDATA[
.edge:hover path { stroke: red; }
.edge:hover polygon { stroke: red; fill: red; }
]]></style>
<script type="text/javascript"><![CDATA[
var edges = document.getElementsByTagName('g');
if (edges && edges.length) {
  for (var i=0;i<edges.length;i++) {
    if (edges[i].id.substr(0,4)=='edge') {
      edges[i].setAttribute('class','edge');
    }
  }
}
]]></script>
        <defs>
                <circle id="rim" cx="0" cy="0" r="7"/>
                <circle id="rim2" cx="0" cy="0" r="3.5"/>
                <g id="zoomPlus">
                        <use xlink:href="#rim" fill="#404040">
                                <set attributeName="fill" to="#808080" begin="zoomplus.mouseover" end="zoomplus.mouseout"/>
                        </use>
                        <path d="M-4,0h8M0,-4v8" fill="none" stroke="white" stroke-width="1.5" pointer-events="none"/>
                </g>
                <g id="zoomMin">
                        <use xlink:href="#rim" fill="#404040">
                                <set attributeName="fill" to="#808080" begin="zoomminus.mouseover" end="zoomminus.mouseout"/>
                        </use>
                        <path d="M-4,0h8" fill="none" stroke="white" stroke-width="1.5" pointer-events="none"/>
                </g>
                <g id="dirArrow">
                        <path fill="none" stroke="white" stroke-width="1.5" d="M0,-3.0v7 M-2.5,-0.5L0,-3.0L2.5,-0.5"/>
                </g>
               <g id="resetDef">
                       <use xlink:href="#rim2" fill="#404040">
                               <set attributeName="fill" to="#808080" begin="reset.mouseover" end="reset.mouseout"/>
                       </use>
               </g>
        </defs>

<script type="text/javascript">
var viewWidth = 1446;
var viewHeight = 487;
var sectionId = 'dynsection-0';
</script>
<script xlink:href="svgpan.js"/>
<svg id="graph" class="graph">
<g id="viewport">
<title>src/application_server/gameloop.cpp</title>
<polygon fill="#ffffff" stroke="transparent" points="-4,4 -4,-483 1442.2813,-483 1442.2813,4 -4,4"/>
<!-- Node1 -->
<g id="node1" class="node">
<title>Node1</title>
<g id="a_node1"><a xlink:title=" ">
<polygon fill="#bfbfbf" stroke="#000000" points="709.5,-448.5 709.5,-478.5 824.5,-478.5 824.5,-448.5 709.5,-448.5"/>
<text text-anchor="start" x="717.5" y="-466.5" font-family="Helvetica,sans-Serif" font-size="10.00" fill="#000000">src/application_server</text>
<text text-anchor="middle" x="767" y="-455.5" font-family="Helvetica,sans-Serif" font-size="10.00" fill="#000000">/gameloop.cpp</text>
</a>
</g>
</g>
<!-- Node2 -->
<g id="node2" class="node">
<title>Node2</title>
<g id="a_node2"><a xlink:href="gameloop_8h.html" target="_top" xlink:title=" ">
<polygon fill="#ffffff" stroke="#000000" points="618,-392.5 618,-411.5 688,-411.5 688,-392.5 618,-392.5"/>
<text text-anchor="middle" x="653" y="-399.5" font-family="Helvetica,sans-Serif" font-size="10.00" fill="#000000">gameloop.h</text>
</a>
</g>
</g>
<!-- Node1&#45;&gt;Node2 -->
<g id="edge1" class="edge">
<title>Node1&#45;&gt;Node2</title>
<path fill="none" stroke="#191970" d="M739.1125,-448.4554C721.0924,-438.734 697.7659,-426.15 679.9368,-416.5317"/>
<polygon fill="#191970" stroke="#191970" points="681.1287,-413.1979 670.666,-411.5303 677.8052,-419.3586 681.1287,-413.1979"/>
</g>
<!-- Node38 -->
<g id="node38" class="node">
<title>Node38</title>
<g id="a_node38"><a xlink:title=" ">
<polygon fill="#ffffff" stroke="#bfbfbf" points="706,-392.5 706,-411.5 762,-411.5 762,-392.5 706,-392.5"/>
<text text-anchor="middle" x="734" y="-399.5" font-family="Helvetica,sans-Serif" font-size="10.00" fill="#000000">iostream</text>
</a>
</g>
</g>
<!-- Node1&#45;&gt;Node38 -->
<g id="edge63" class="edge">
<title>Node1&#45;&gt;Node38</title>
<path fill="none" stroke="#191970" d="M758.8427,-448.2977C754.4051,-440.0277 748.875,-429.7215 744.1596,-420.9339"/>
<polygon fill="#191970" stroke="#191970" points="747.096,-419.0037 739.2837,-411.8469 740.9279,-422.3134 747.096,-419.0037"/>
</g>
<!-- Node39 -->
<g id="node39" class="node">
<title>Node39</title>
<g id="a_node39"><a xlink:title=" ">
<polygon fill="#ffffff" stroke="#bfbfbf" points="780.5,-392.5 780.5,-411.5 821.5,-411.5 821.5,-392.5 780.5,-392.5"/>
<text text-anchor="middle" x="801" y="-399.5" font-family="Helvetica,sans-Serif" font-size="10.00" fill="#000000">ctime</text>
</a>
</g>
</g>
<!-- Node1&#45;&gt;Node39 -->
<g id="edge64" class="edge">
<title>Node1&#45;&gt;Node39</title>
<path fill="none" stroke="#191970" d="M775.4045,-448.2977C780.0257,-439.9388 785.7969,-429.4997 790.6889,-420.6509"/>
<polygon fill="#191970" stroke="#191970" points="793.7809,-422.292 795.5562,-411.8469 787.6548,-418.9051 793.7809,-422.292"/>
</g>
<!-- Node40 -->
<g id="node40" class="node">
<title>Node40</title>
<g id="a_node40"><a xlink:title=" ">
<polygon fill="#ffffff" stroke="#bfbfbf" points="840,-392.5 840,-411.5 894,-411.5 894,-392.5 840,-392.5"/>
<text text-anchor="middle" x="867" y="-399.5" font-family="Helvetica,sans-Serif" font-size="10.00" fill="#000000">QDebug</text>
</a>
</g>
</g>
<!-- Node1&#45;&gt;Node40 -->
<g id="edge65" class="edge">
<title>Node1&#45;&gt;Node40</title>
<path fill="none" stroke="#191970" d="M791.4628,-448.4554C807.1235,-438.8241 827.3532,-426.3828 842.9356,-416.7996"/>
<polygon fill="#191970" stroke="#191970" points="844.819,-419.7503 851.5035,-411.5303 841.152,-413.7876 844.819,-419.7503"/>
</g>
<!-- Node3 -->
<g id="node3" class="node">
<title>Node3</title>
<g id="a_node3"><a xlink:title=" ">
<polygon fill="#ffffff" stroke="#bfbfbf" points="330,-280.5 330,-299.5 388,-299.5 388,-280.5 330,-280.5"/>
<text text-anchor="middle" x="359" y="-287.5" font-family="Helvetica,sans-Serif" font-size="10.00" fill="#000000">QThread</text>
</a>
</g>
</g>
<!-- Node2&#45;&gt;Node3 -->
<g id="edge2" class="edge">
<title>Node2&#45;&gt;Node3</title>
<path fill="none" stroke="#191970" d="M627.9337,-392.4509C575.318,-372.4069 453.2904,-325.9202 393.404,-303.1063"/>
<polygon fill="#191970" stroke="#191970" points="394.5937,-299.8142 384.0028,-299.5249 392.1017,-306.3556 394.5937,-299.8142"/>
</g>
<!-- Node4 -->
<g id="node4" class="node">
<title>Node4</title>
<g id="a_node4"><a xlink:href="maprenderer_8h.html" target="_top" xlink:title=" ">
<polygon fill="#ffffff" stroke="#000000" points="918,-224.5 918,-243.5 1000,-243.5 1000,-224.5 918,-224.5"/>
<text text-anchor="middle" x="959" y="-231.5" font-family="Helvetica,sans-Serif" font-size="10.00" fill="#000000">maprenderer.h</text>
</a>
</g>
</g>
<!-- Node2&#45;&gt;Node4 -->
<g id="edge3" class="edge">
<title>Node2&#45;&gt;Node4</title>
<path fill="none" stroke="#191970" d="M688.0963,-392.5484C725.0131,-382.3364 780.4201,-366.1655 800,-356 856.7733,-326.5243 914.008,-276.462 941.7595,-250.5851"/>
<polygon fill="#191970" stroke="#191970" points="944.215,-253.0802 949.0871,-243.672 939.4114,-247.9886 944.215,-253.0802"/>
</g>
<!-- Node11 -->
<g id="node11" class="node">
<title>Node11</title>
<g id="a_node11"><a xlink:href="datamodel_8h.html" target="_top" xlink:title=" ">
<polygon fill="#ffffff" stroke="#000000" points="182.5,-168.5 182.5,-187.5 255.5,-187.5 255.5,-168.5 182.5,-168.5"/>
<text text-anchor="middle" x="219" y="-175.5" font-family="Helvetica,sans-Serif" font-size="10.00" fill="#000000">datamodel.h</text>
</a>
</g>
</g>
<!-- Node2&#45;&gt;Node11 -->
<g id="edge43" class="edge">
<title>Node2&#45;&gt;Node11</title>
<path fill="none" stroke="#191970" d="M617.7685,-398.1882C553.6596,-389.8212 415.8148,-365.11 321,-300 280.0559,-271.8834 246.2847,-223.0331 229.8259,-196.4765"/>
<polygon fill="#191970" stroke="#191970" points="232.7357,-194.5246 224.5641,-187.7809 226.7467,-198.1485 232.7357,-194.5246"/>
</g>
<!-- Node24 -->
<g id="node24" class="node">
<title>Node24</title>
<g id="a_node24"><a xlink:href="scene_8h.html" target="_top" xlink:title=" ">
<polygon fill="#ffffff" stroke="#000000" points="646,-224.5 646,-243.5 698,-243.5 698,-224.5 646,-224.5"/>
<text text-anchor="middle" x="672" y="-231.5" font-family="Helvetica,sans-Serif" font-size="10.00" fill="#000000">scene.h</text>
</a>
</g>
</g>
<!-- Node2&#45;&gt;Node24 -->
<g id="edge32" class="edge">
<title>Node2&#45;&gt;Node24</title>
<path fill="none" stroke="#191970" d="M688.352,-393.038C730.4489,-380.2574 798.8478,-352.3246 829,-300 856.2523,-252.7079 762.5626,-239.3015 708.1834,-235.502"/>
<polygon fill="#191970" stroke="#191970" points="708.4003,-232.0088 698.2021,-234.8805 707.9653,-238.9952 708.4003,-232.0088"/>
</g>
<!-- Node29 -->
<g id="node29" class="node">
<title>Node29</title>
<g id="a_node29"><a xlink:href="client_8h.html" target="_top" xlink:title=" ">
<polygon fill="#ffffff" stroke="#000000" points="629.5,-336.5 629.5,-355.5 676.5,-355.5 676.5,-336.5 629.5,-336.5"/>
<text text-anchor="middle" x="653" y="-343.5" font-family="Helvetica,sans-Serif" font-size="10.00" fill="#000000">client.h</text>
</a>
</g>
</g>
<!-- Node2&#45;&gt;Node29 -->
<g id="edge44" class="edge">
<title>Node2&#45;&gt;Node29</title>
<path fill="none" stroke="#191970" d="M653,-392.2455C653,-384.9382 653,-374.6944 653,-365.7046"/>
<polygon fill="#191970" stroke="#191970" points="656.5001,-365.6426 653,-355.6427 649.5001,-365.6427 656.5001,-365.6426"/>
</g>
<!-- Node5 -->
<g id="node5" class="node">
<title>Node5</title>
<g id="a_node5"><a xlink:title=" ">
<polygon fill="#ffffff" stroke="#bfbfbf" points="248,-112.5 248,-131.5 304,-131.5 304,-112.5 248,-112.5"/>
<text text-anchor="middle" x="276" y="-119.5" font-family="Helvetica,sans-Serif" font-size="10.00" fill="#000000">QWidget</text>
</a>
</g>
</g>
<!-- Node4&#45;&gt;Node5 -->
<g id="edge4" class="edge">
<title>Node4&#45;&gt;Node5</title>
<path fill="none" stroke="#191970" d="M932.0151,-224.4576C889.7322,-209.9019 805.0363,-182.3357 731,-168 578.5711,-138.485 393.5203,-127.2203 314.629,-123.5462"/>
<polygon fill="#191970" stroke="#191970" points="314.3636,-120.0307 304.2161,-123.077 314.0484,-127.0236 314.3636,-120.0307"/>
</g>
<!-- Node6 -->
<g id="node6" class="node">
<title>Node6</title>
<g id="a_node6"><a xlink:title=" ">
<polygon fill="#ffffff" stroke="#bfbfbf" points="1316.5,-112.5 1316.5,-131.5 1355.5,-131.5 1355.5,-112.5 1316.5,-112.5"/>
<text text-anchor="middle" x="1336" y="-119.5" font-family="Helvetica,sans-Serif" font-size="10.00" fill="#000000">QList</text>
</a>
</g>
</g>
<!-- Node4&#45;&gt;Node6 -->
<g id="edge5" class="edge">
<title>Node4&#45;&gt;Node6</title>
<path fill="none" stroke="#191970" d="M1000.2986,-232.3459C1077.9524,-228.5799 1242.2108,-217.3062 1290,-188 1307.9711,-176.9794 1320.7416,-156.0109 1328.1967,-140.656"/>
<polygon fill="#191970" stroke="#191970" points="1331.3893,-142.0904 1332.3295,-131.5374 1325.0136,-139.2007 1331.3893,-142.0904"/>
</g>
<!-- Node7 -->
<g id="node7" class="node">
<title>Node7</title>
<g id="a_node7"><a xlink:href="graphicsmanager_8h.html" target="_top" xlink:title=" ">
<polygon fill="#ffffff" stroke="#000000" points="912.5,-112.5 912.5,-131.5 1015.5,-131.5 1015.5,-112.5 912.5,-112.5"/>
<text text-anchor="middle" x="964" y="-119.5" font-family="Helvetica,sans-Serif" font-size="10.00" fill="#000000">graphicsmanager.h</text>
</a>
</g>
</g>
<!-- Node4&#45;&gt;Node7 -->
<g id="edge6" class="edge">
<title>Node4&#45;&gt;Node7</title>
<path fill="none" stroke="#191970" d="M970.1502,-224.3293C979.0671,-215.8007 990.8921,-202.5 996,-188 1002.039,-170.8566 991.3961,-152.3127 980.7961,-139.2593"/>
<polygon fill="#191970" stroke="#191970" points="983.244,-136.7429 974.0123,-131.5442 977.9871,-141.3652 983.244,-136.7429"/>
</g>
<!-- Node4&#45;&gt;Node11 -->
<g id="edge10" class="edge">
<title>Node4&#45;&gt;Node11</title>
<path fill="none" stroke="#191970" d="M917.6152,-232.0627C791.2502,-226.0234 410.7493,-206.8869 265.6071,-187.8324"/>
<polygon fill="#191970" stroke="#191970" points="265.9521,-184.3471 255.5703,-186.4608 265.0043,-191.2826 265.9521,-184.3471"/>
</g>
<!-- Node16 -->
<g id="node16" class="node">
<title>Node16</title>
<g id="a_node16"><a xlink:href="maptile_8h.html" target="_top" xlink:title=" ">
<polygon fill="#ffffff" stroke="#000000" points="931,-168.5 931,-187.5 987,-187.5 987,-168.5 931,-168.5"/>
<text text-anchor="middle" x="959" y="-175.5" font-family="Helvetica,sans-Serif" font-size="10.00" fill="#000000">maptile.h</text>
</a>
</g>
</g>
<!-- Node4&#45;&gt;Node16 -->
<g id="edge17" class="edge">
<title>Node4&#45;&gt;Node16</title>
<path fill="none" stroke="#191970" d="M959,-224.2455C959,-216.9382 959,-206.6944 959,-197.7046"/>
<polygon fill="#191970" stroke="#191970" points="962.5001,-197.6426 959,-187.6427 955.5001,-197.6427 962.5001,-197.6426"/>
</g>
<!-- Node20 -->
<g id="node20" class="node">
<title>Node20</title>
<g id="a_node20"><a xlink:href="point_8h.html" target="_top" xlink:title=" ">
<polygon fill="#ffffff" stroke="#000000" points="1265.5,-56.5 1265.5,-75.5 1310.5,-75.5 1310.5,-56.5 1265.5,-56.5"/>
<text text-anchor="middle" x="1288" y="-63.5" font-family="Helvetica,sans-Serif" font-size="10.00" fill="#000000">point.h</text>
</a>
</g>
</g>
<!-- Node4&#45;&gt;Node20 -->
<g id="edge23" class="edge">
<title>Node4&#45;&gt;Node20</title>
<path fill="none" stroke="#191970" d="M1000.0889,-232.2649C1106.5739,-226.7464 1386.4314,-205.382 1433,-132 1460.5334,-88.6133 1371.7358,-73.4396 1320.9543,-68.3799"/>
<polygon fill="#191970" stroke="#191970" points="1321.0277,-64.8721 1310.7506,-67.4472 1320.3905,-71.843 1321.0277,-64.8721"/>
</g>
<!-- Node21 -->
<g id="node21" class="node">
<title>Node21</title>
<g id="a_node21"><a xlink:href="animationmovement_8h.html" target="_top" xlink:title=" ">
<polygon fill="#ffffff" stroke="#000000" points="1165.5,-168.5 1165.5,-187.5 1280.5,-187.5 1280.5,-168.5 1165.5,-168.5"/>
<text text-anchor="middle" x="1223" y="-175.5" font-family="Helvetica,sans-Serif" font-size="10.00" fill="#000000">animationmovement.h</text>
</a>
</g>
</g>
<!-- Node4&#45;&gt;Node21 -->
<g id="edge24" class="edge">
<title>Node4&#45;&gt;Node21</title>
<path fill="none" stroke="#191970" d="M1000.25,-225.25C1045.429,-215.6666 1118.098,-200.2519 1168.0764,-189.6505"/>
<polygon fill="#191970" stroke="#191970" points="1169.0104,-193.0303 1178.0665,-187.5314 1167.5578,-186.1827 1169.0104,-193.0303"/>
</g>
<!-- Node8 -->
<g id="node8" class="node">
<title>Node8</title>
<g id="a_node8"><a xlink:title=" ">
<polygon fill="#ffffff" stroke="#bfbfbf" points="935,-56.5 935,-75.5 993,-75.5 993,-56.5 935,-56.5"/>
<text text-anchor="middle" x="964" y="-63.5" font-family="Helvetica,sans-Serif" font-size="10.00" fill="#000000">QPixmap</text>
</a>
</g>
</g>
<!-- Node7&#45;&gt;Node8 -->
<g id="edge7" class="edge">
<title>Node7&#45;&gt;Node8</title>
<path fill="none" stroke="#191970" d="M964,-112.2455C964,-104.9382 964,-94.6944 964,-85.7046"/>
<polygon fill="#191970" stroke="#191970" points="967.5001,-85.6426 964,-75.6427 960.5001,-85.6427 967.5001,-85.6426"/>
</g>
<!-- Node9 -->
<g id="node9" class="node">
<title>Node9</title>
<g id="a_node9"><a xlink:title=" ">
<polygon fill="#ffffff" stroke="#bfbfbf" points="1099.5,-56.5 1099.5,-75.5 1152.5,-75.5 1152.5,-56.5 1099.5,-56.5"/>
<text text-anchor="middle" x="1126" y="-63.5" font-family="Helvetica,sans-Serif" font-size="10.00" fill="#000000">QImage</text>
</a>
</g>
</g>
<!-- Node7&#45;&gt;Node9 -->
<g id="edge8" class="edge">
<title>Node7&#45;&gt;Node9</title>
<path fill="none" stroke="#191970" d="M991.8488,-112.3733C1018.9141,-103.0173 1060.1546,-88.7614 1089.7628,-78.5264"/>
<polygon fill="#191970" stroke="#191970" points="1091.0129,-81.7976 1099.3206,-75.2225 1088.7259,-75.1817 1091.0129,-81.7976"/>
</g>
<!-- Node10 -->
<g id="node10" class="node">
<title>Node10</title>
<g id="a_node10"><a xlink:title=" ">
<polygon fill="#ffffff" stroke="#bfbfbf" points="867.5,-56.5 867.5,-75.5 908.5,-75.5 908.5,-56.5 867.5,-56.5"/>
<text text-anchor="middle" x="888" y="-63.5" font-family="Helvetica,sans-Serif" font-size="10.00" fill="#000000">string</text>
</a>
</g>
</g>
<!-- Node7&#45;&gt;Node10 -->
<g id="edge9" class="edge">
<title>Node7&#45;&gt;Node10</title>
<path fill="none" stroke="#191970" d="M950.7618,-112.2455C939.319,-103.814 922.5704,-91.4729 909.2525,-81.6598"/>
<polygon fill="#191970" stroke="#191970" points="911.2133,-78.757 901.0865,-75.6427 907.0609,-84.3924 911.2133,-78.757"/>
</g>
<!-- Node11&#45;&gt;Node5 -->
<g id="edge13" class="edge">
<title>Node11&#45;&gt;Node5</title>
<path fill="none" stroke="#191970" d="M228.9286,-168.2455C237.1838,-160.1352 249.1209,-148.4075 258.9082,-138.7919"/>
<polygon fill="#191970" stroke="#191970" points="261.5046,-141.1476 266.1851,-131.6427 256.5989,-136.1542 261.5046,-141.1476"/>
</g>
<!-- Node11&#45;&gt;Node10 -->
<g id="edge11" class="edge">
<title>Node11&#45;&gt;Node10</title>
<path fill="none" stroke="#191970" d="M255.5727,-169.5559C258.7509,-168.9721 261.9259,-168.4414 265,-168 487.7297,-136.0186 554.4184,-196.466 770,-132 806.7289,-121.0168 844.6206,-97.1852 867.2426,-81.3691"/>
<polygon fill="#191970" stroke="#191970" points="869.2992,-84.2013 875.4057,-75.5432 865.2328,-78.5035 869.2992,-84.2013"/>
</g>
<!-- Node12 -->
<g id="node12" class="node">
<title>Node12</title>
<g id="a_node12"><a xlink:title=" ">
<polygon fill="#ffffff" stroke="#bfbfbf" points="180.5,-112.5 180.5,-131.5 229.5,-131.5 229.5,-112.5 180.5,-112.5"/>
<text text-anchor="middle" x="205" y="-119.5" font-family="Helvetica,sans-Serif" font-size="10.00" fill="#000000">QLabel</text>
</a>
</g>
</g>
<!-- Node11&#45;&gt;Node12 -->
<g id="edge12" class="edge">
<title>Node11&#45;&gt;Node12</title>
<path fill="none" stroke="#191970" d="M216.5614,-168.2455C214.7145,-160.8579 212.1172,-150.4689 209.8522,-141.4087"/>
<polygon fill="#191970" stroke="#191970" points="213.2316,-140.4952 207.4107,-131.6427 206.4406,-142.193 213.2316,-140.4952"/>
</g>
<!-- Node13 -->
<g id="node13" class="node">
<title>Node13</title>
<g id="a_node13"><a xlink:href="player_8h.html" target="_top" xlink:title=" ">
<polygon fill="#ffffff" stroke="#000000" points="709,-112.5 709,-131.5 761,-131.5 761,-112.5 709,-112.5"/>
<text text-anchor="middle" x="735" y="-119.5" font-family="Helvetica,sans-Serif" font-size="10.00" fill="#000000">player.h</text>
</a>
</g>
</g>
<!-- Node11&#45;&gt;Node13 -->
<g id="edge14" class="edge">
<title>Node11&#45;&gt;Node13</title>
<path fill="none" stroke="#191970" d="M255.5859,-169.644C258.7613,-169.0411 261.932,-168.4819 265,-168 425.5127,-142.786 619.1726,-129.0429 698.4658,-124.1211"/>
<polygon fill="#191970" stroke="#191970" points="699.1121,-127.5882 708.8801,-123.4849 698.6852,-120.6013 699.1121,-127.5882"/>
</g>
<!-- Node14 -->
<g id="node14" class="node">
<title>Node14</title>
<g id="a_node14"><a xlink:href="highlighter_8h.html" target="_top" xlink:title=" ">
<polygon fill="#ffffff" stroke="#000000" points="709,-56.5 709,-75.5 779,-75.5 779,-56.5 709,-56.5"/>
<text text-anchor="middle" x="744" y="-63.5" font-family="Helvetica,sans-Serif" font-size="10.00" fill="#000000">highlighter.h</text>
</a>
</g>
</g>
<!-- Node13&#45;&gt;Node14 -->
<g id="edge15" class="edge">
<title>Node13&#45;&gt;Node14</title>
<path fill="none" stroke="#191970" d="M736.5677,-112.2455C737.7421,-104.9382 739.3884,-94.6944 740.8332,-85.7046"/>
<polygon fill="#191970" stroke="#191970" points="744.3191,-86.0714 742.4503,-75.6427 737.4078,-84.9606 744.3191,-86.0714"/>
</g>
<!-- Node15 -->
<g id="node15" class="node">
<title>Node15</title>
<g id="a_node15"><a xlink:title=" ">
<polygon fill="#ffffff" stroke="#bfbfbf" points="660,-.5 660,-19.5 764,-19.5 764,-.5 660,-.5"/>
<text text-anchor="middle" x="712" y="-7.5" font-family="Helvetica,sans-Serif" font-size="10.00" fill="#000000">QGraphicsRectItem</text>
</a>
</g>
</g>
<!-- Node14&#45;&gt;Node15 -->
<g id="edge16" class="edge">
<title>Node14&#45;&gt;Node15</title>
<path fill="none" stroke="#191970" d="M738.426,-56.2455C734.0669,-48.617 727.8789,-37.7881 722.5867,-28.5267"/>
<polygon fill="#191970" stroke="#191970" points="725.5104,-26.5886 717.5101,-19.6427 719.4327,-30.0616 725.5104,-26.5886"/>
</g>
<!-- Node16&#45;&gt;Node7 -->
<g id="edge22" class="edge">
<title>Node16&#45;&gt;Node7</title>
<path fill="none" stroke="#191970" d="M959.8709,-168.2455C960.5234,-160.9382 961.438,-150.6944 962.2407,-141.7046"/>
<polygon fill="#191970" stroke="#191970" points="965.7358,-141.9143 963.139,-131.6427 958.7635,-141.2918 965.7358,-141.9143"/>
</g>
<!-- Node17 -->
<g id="node17" class="node">
<title>Node17</title>
<g id="a_node17"><a xlink:title=" ">
<polygon fill="#ffffff" stroke="#bfbfbf" points="1033.5,-112.5 1033.5,-131.5 1150.5,-131.5 1150.5,-112.5 1033.5,-112.5"/>
<text text-anchor="middle" x="1092" y="-119.5" font-family="Helvetica,sans-Serif" font-size="10.00" fill="#000000">QGraphicsPixmapItem</text>
</a>
</g>
</g>
<!-- Node16&#45;&gt;Node17 -->
<g id="edge18" class="edge">
<title>Node16&#45;&gt;Node17</title>
<path fill="none" stroke="#191970" d="M981.8635,-168.3733C1003.405,-159.3032 1035.8838,-145.6279 1059.9956,-135.4755"/>
<polygon fill="#191970" stroke="#191970" points="1061.5767,-138.6075 1069.4348,-131.5011 1058.8603,-132.156 1061.5767,-138.6075"/>
</g>
<!-- Node18 -->
<g id="node18" class="node">
<title>Node18</title>
<g id="a_node18"><a xlink:href="city_8h.html" target="_top" xlink:title=" ">
<polygon fill="#ffffff" stroke="#000000" points="855.5,-112.5 855.5,-131.5 894.5,-131.5 894.5,-112.5 855.5,-112.5"/>
<text text-anchor="middle" x="875" y="-119.5" font-family="Helvetica,sans-Serif" font-size="10.00" fill="#000000">city.h</text>
</a>
</g>
</g>
<!-- Node16&#45;&gt;Node18 -->
<g id="edge19" class="edge">
<title>Node16&#45;&gt;Node18</title>
<path fill="none" stroke="#191970" d="M944.3683,-168.2455C931.6006,-159.7337 912.8562,-147.2375 898.0701,-137.3801"/>
<polygon fill="#191970" stroke="#191970" points="899.726,-134.2775 889.464,-131.6427 895.8431,-140.1019 899.726,-134.2775"/>
</g>
<!-- Node18&#45;&gt;Node10 -->
<g id="edge20" class="edge">
<title>Node18&#45;&gt;Node10</title>
<path fill="none" stroke="#191970" d="M877.2644,-112.2455C878.9794,-104.8579 881.3912,-94.4689 883.4944,-85.4087"/>
<polygon fill="#191970" stroke="#191970" points="886.9095,-86.1751 885.7615,-75.6427 880.0908,-84.5922 886.9095,-86.1751"/>
</g>
<!-- Node19 -->
<g id="node19" class="node">
<title>Node19</title>
<g id="a_node19"><a xlink:title=" ">
<polygon fill="#ffffff" stroke="#bfbfbf" points="805,-56.5 805,-75.5 849,-75.5 849,-56.5 805,-56.5"/>
<text text-anchor="middle" x="827" y="-63.5" font-family="Helvetica,sans-Serif" font-size="10.00" fill="#000000">vector</text>
</a>
</g>
</g>
<!-- Node18&#45;&gt;Node19 -->
<g id="edge21" class="edge">
<title>Node18&#45;&gt;Node19</title>
<path fill="none" stroke="#191970" d="M866.639,-112.2455C859.825,-104.2958 850.0319,-92.8706 841.8848,-83.3656"/>
<polygon fill="#191970" stroke="#191970" points="844.4305,-80.9575 835.2651,-75.6427 839.1157,-85.513 844.4305,-80.9575"/>
</g>
<!-- Node21&#45;&gt;Node6 -->
<g id="edge29" class="edge">
<title>Node21&#45;&gt;Node6</title>
<path fill="none" stroke="#191970" d="M1242.4254,-168.3733C1260.4021,-159.4644 1287.3441,-146.1127 1307.709,-136.0203"/>
<polygon fill="#191970" stroke="#191970" points="1309.4222,-139.0776 1316.8281,-131.5011 1306.3139,-132.8055 1309.4222,-139.0776"/>
</g>
<!-- Node21&#45;&gt;Node17 -->
<g id="edge31" class="edge">
<title>Node21&#45;&gt;Node17</title>
<path fill="none" stroke="#191970" d="M1200.4803,-168.3733C1179.2628,-159.3032 1147.2724,-145.6279 1123.5231,-135.4755"/>
<polygon fill="#191970" stroke="#191970" points="1124.7967,-132.2136 1114.2258,-131.5011 1122.0452,-138.6502 1124.7967,-132.2136"/>
</g>
<!-- Node21&#45;&gt;Node20 -->
<g id="edge25" class="edge">
<title>Node21&#45;&gt;Node20</title>
<path fill="none" stroke="#191970" d="M1235.7023,-168.3768C1246.0804,-159.8772 1260.3941,-146.5924 1269,-132 1277.4232,-117.7174 1282.3017,-99.4765 1285.0011,-85.7922"/>
<polygon fill="#191970" stroke="#191970" points="1288.5161,-86.0086 1286.786,-75.556 1281.6201,-84.8061 1288.5161,-86.0086"/>
</g>
<!-- Node22 -->
<g id="node22" class="node">
<title>Node22</title>
<g id="a_node22"><a xlink:href="animationentity_8h.html" target="_top" xlink:title=" ">
<polygon fill="#ffffff" stroke="#000000" points="1168.5,-112.5 1168.5,-131.5 1259.5,-131.5 1259.5,-112.5 1168.5,-112.5"/>
<text text-anchor="middle" x="1214" y="-119.5" font-family="Helvetica,sans-Serif" font-size="10.00" fill="#000000">animationentity.h</text>
</a>
</g>
</g>
<!-- Node21&#45;&gt;Node22 -->
<g id="edge26" class="edge">
<title>Node21&#45;&gt;Node22</title>
<path fill="none" stroke="#191970" d="M1221.4323,-168.2455C1220.2579,-160.9382 1218.6116,-150.6944 1217.1668,-141.7046"/>
<polygon fill="#191970" stroke="#191970" points="1220.5922,-140.9606 1215.5497,-131.6427 1213.6809,-142.0714 1220.5922,-140.9606"/>
</g>
<!-- Node23 -->
<g id="node23" class="node">
<title>Node23</title>
<g id="a_node23"><a xlink:title=" ">
<polygon fill="#ffffff" stroke="#bfbfbf" points="1374,-112.5 1374,-131.5 1424,-131.5 1424,-112.5 1374,-112.5"/>
<text text-anchor="middle" x="1399" y="-119.5" font-family="Helvetica,sans-Serif" font-size="10.00" fill="#000000">QString</text>
</a>
</g>
</g>
<!-- Node21&#45;&gt;Node23 -->
<g id="edge30" class="edge">
<title>Node21&#45;&gt;Node23</title>
<path fill="none" stroke="#191970" d="M1253.2555,-168.3733C1284.0293,-158.5816 1331.671,-143.4229 1364.0404,-133.1235"/>
<polygon fill="#191970" stroke="#191970" points="1365.5046,-136.3306 1373.9726,-129.9633 1363.3821,-129.6601 1365.5046,-136.3306"/>
</g>
<!-- Node22&#45;&gt;Node9 -->
<g id="edge27" class="edge">
<title>Node22&#45;&gt;Node9</title>
<path fill="none" stroke="#191970" d="M1198.6716,-112.2455C1185.1697,-103.6534 1165.2878,-91.0014 1149.7314,-81.1018"/>
<polygon fill="#191970" stroke="#191970" points="1151.4685,-78.0587 1141.1528,-75.6427 1147.7103,-83.9643 1151.4685,-78.0587"/>
</g>
<!-- Node22&#45;&gt;Node20 -->
<g id="edge28" class="edge">
<title>Node22&#45;&gt;Node20</title>
<path fill="none" stroke="#191970" d="M1226.8898,-112.2455C1237.9254,-103.8943 1254.0292,-91.7076 1266.9353,-81.9408"/>
<polygon fill="#191970" stroke="#191970" points="1269.3959,-84.4681 1275.2579,-75.6427 1265.1717,-78.8862 1269.3959,-84.4681"/>
</g>
<!-- Node24&#45;&gt;Node7 -->
<g id="edge39" class="edge">
<title>Node24&#45;&gt;Node7</title>
<path fill="none" stroke="#191970" d="M698.2756,-227.1984C742.3517,-215.737 827.6879,-193.3034 841,-188 876.7751,-173.7475 915.5292,-151.7589 939.7798,-137.1297"/>
<polygon fill="#191970" stroke="#191970" points="941.9173,-139.9256 948.6296,-131.7283 938.2704,-133.9506 941.9173,-139.9256"/>
</g>
<!-- Node24&#45;&gt;Node11 -->
<g id="edge42" class="edge">
<title>Node24&#45;&gt;Node11</title>
<path fill="none" stroke="#191970" d="M645.8676,-226.8809C641.2712,-225.7969 636.5141,-224.7813 632,-224 473.6612,-196.5952 428.6539,-212.7885 265.48,-187.8926"/>
<polygon fill="#191970" stroke="#191970" points="266.0049,-184.4323 255.586,-186.3552 264.93,-191.3493 266.0049,-184.4323"/>
</g>
<!-- Node24&#45;&gt;Node13 -->
<g id="edge40" class="edge">
<title>Node24&#45;&gt;Node13</title>
<path fill="none" stroke="#191970" d="M698.2185,-224.6098C722.9701,-215.1501 757.3976,-200.2418 765,-188 774.6781,-172.4158 763.6117,-153.1834 752.2849,-139.5085"/>
<polygon fill="#191970" stroke="#191970" points="754.6585,-136.9123 745.3818,-131.7943 749.4421,-141.5803 754.6585,-136.9123"/>
</g>
<!-- Node24&#45;&gt;Node14 -->
<g id="edge41" class="edge">
<title>Node24&#45;&gt;Node14</title>
<path fill="none" stroke="#191970" d="M698.1443,-226.6057C727.2384,-217.7862 771.4339,-202.4202 781,-188 802.7942,-155.1469 776.3464,-108.9473 758.2389,-83.8797"/>
<polygon fill="#191970" stroke="#191970" points="760.8624,-81.5454 752.0498,-75.6642 755.2714,-85.7574 760.8624,-81.5454"/>
</g>
<!-- Node24&#45;&gt;Node15 -->
<g id="edge36" class="edge">
<title>Node24&#45;&gt;Node15</title>
<path fill="none" stroke="#191970" d="M692.1561,-224.4543C705.8815,-216.7394 722.9635,-204.4561 731,-188 734.9007,-180.0127 734.0935,-176.3332 731,-168 723.6518,-148.2053 707.3482,-151.7947 700,-132 687.1606,-97.4131 697.2115,-53.7273 705.04,-29.1238"/>
<polygon fill="#191970" stroke="#191970" points="708.3909,-30.1405 708.288,-19.5461 701.7618,-27.8923 708.3909,-30.1405"/>
</g>
<!-- Node24&#45;&gt;Node16 -->
<g id="edge38" class="edge">
<title>Node24&#45;&gt;Node16</title>
<path fill="none" stroke="#191970" d="M698.1881,-227.1696C702.7783,-226.0535 707.5189,-224.9523 712,-224 802.4845,-204.7699 826.4089,-206.7215 917,-188 918.2387,-187.744 919.4966,-187.4783 920.7657,-187.2053"/>
<polygon fill="#191970" stroke="#191970" points="921.5901,-190.6075 930.585,-185.009 920.0621,-183.7763 921.5901,-190.6075"/>
</g>
<!-- Node25 -->
<g id="node25" class="node">
<title>Node25</title>
<g id="a_node25"><a xlink:title=" ">
<polygon fill="#ffffff" stroke="#bfbfbf" points="274,-168.5 274,-187.5 368,-187.5 368,-168.5 274,-168.5"/>
<text text-anchor="middle" x="321" y="-175.5" font-family="Helvetica,sans-Serif" font-size="10.00" fill="#000000">QGraphicsScene</text>
</a>
</g>
</g>
<!-- Node24&#45;&gt;Node25 -->
<g id="edge33" class="edge">
<title>Node24&#45;&gt;Node25</title>
<path fill="none" stroke="#191970" d="M645.8379,-227.0424C641.2448,-225.9404 636.4965,-224.877 632,-224 522.841,-202.7105 491.7678,-205.859 378.1788,-188.1313"/>
<polygon fill="#191970" stroke="#191970" points="378.4566,-184.6319 368.0327,-186.527 377.3633,-191.546 378.4566,-184.6319"/>
</g>
<!-- Node26 -->
<g id="node26" class="node">
<title>Node26</title>
<g id="a_node26"><a xlink:title=" ">
<polygon fill="#ffffff" stroke="#bfbfbf" points="386,-168.5 386,-187.5 490,-187.5 490,-168.5 386,-168.5"/>
<text text-anchor="middle" x="438" y="-175.5" font-family="Helvetica,sans-Serif" font-size="10.00" fill="#000000">QGraphicsTextItem</text>
</a>
</g>
</g>
<!-- Node24&#45;&gt;Node26 -->
<g id="edge34" class="edge">
<title>Node24&#45;&gt;Node26</title>
<path fill="none" stroke="#191970" d="M645.7613,-227.3918C641.1767,-226.2511 636.4511,-225.0841 632,-224 583.427,-212.1702 527.9129,-199.0472 488.7499,-189.8554"/>
<polygon fill="#191970" stroke="#191970" points="489.4447,-186.4235 478.9097,-187.5478 487.8465,-193.2386 489.4447,-186.4235"/>
</g>
<!-- Node27 -->
<g id="node27" class="node">
<title>Node27</title>
<g id="a_node27"><a xlink:title=" ">
<polygon fill="#ffffff" stroke="#bfbfbf" points="508.5,-168.5 508.5,-187.5 591.5,-187.5 591.5,-168.5 508.5,-168.5"/>
<text text-anchor="middle" x="550" y="-175.5" font-family="Helvetica,sans-Serif" font-size="10.00" fill="#000000">QGraphicsItem</text>
</a>
</g>
</g>
<!-- Node24&#45;&gt;Node27 -->
<g id="edge35" class="edge">
<title>Node24&#45;&gt;Node27</title>
<path fill="none" stroke="#191970" d="M651.0275,-224.3733C631.4433,-215.3838 602.0039,-201.8706 579.949,-191.7471"/>
<polygon fill="#191970" stroke="#191970" points="581.2473,-188.4919 570.6989,-187.5011 578.3271,-194.8538 581.2473,-188.4919"/>
</g>
<!-- Node28 -->
<g id="node28" class="node">
<title>Node28</title>
<g id="a_node28"><a xlink:title=" ">
<polygon fill="#ffffff" stroke="#bfbfbf" points="609.5,-168.5 609.5,-187.5 722.5,-187.5 722.5,-168.5 609.5,-168.5"/>
<text text-anchor="middle" x="666" y="-175.5" font-family="Helvetica,sans-Serif" font-size="10.00" fill="#000000">QGraphicsEllipseItem</text>
</a>
</g>
</g>
<!-- Node24&#45;&gt;Node28 -->
<g id="edge37" class="edge">
<title>Node24&#45;&gt;Node28</title>
<path fill="none" stroke="#191970" d="M670.9549,-224.2455C670.172,-216.9382 669.0744,-206.6944 668.1112,-197.7046"/>
<polygon fill="#191970" stroke="#191970" points="671.5786,-197.2129 667.0331,-187.6427 664.6185,-197.9587 671.5786,-197.2129"/>
</g>
<!-- Node29&#45;&gt;Node3 -->
<g id="edge47" class="edge">
<title>Node29&#45;&gt;Node3</title>
<path fill="none" stroke="#191970" d="M629.2277,-342.3765C585.4528,-335.566 488.9773,-319.9148 398.2896,-300.1599"/>
<polygon fill="#191970" stroke="#191970" points="398.9208,-296.7151 388.4022,-297.9844 397.4165,-303.5516 398.9208,-296.7151"/>
</g>
<!-- Node29&#45;&gt;Node4 -->
<g id="edge62" class="edge">
<title>Node29&#45;&gt;Node4</title>
<path fill="none" stroke="#191970" d="M676.5577,-341.5203C710.7945,-334.6369 775.9988,-320.1142 829,-300 866.9375,-285.6026 908.3403,-263.355 933.991,-248.7352"/>
<polygon fill="#191970" stroke="#191970" points="935.7747,-251.7469 942.693,-243.7227 932.2808,-245.6812 935.7747,-251.7469"/>
</g>
<!-- Node29&#45;&gt;Node11 -->
<g id="edge52" class="edge">
<title>Node29&#45;&gt;Node11</title>
<path fill="none" stroke="#191970" d="M649.5004,-336.1694C643.9955,-321.9852 632.0454,-295.7571 614,-280 495.649,-176.6568 425.4535,-216.5013 265.7738,-188.0123"/>
<polygon fill="#191970" stroke="#191970" points="266.0956,-184.5124 255.6252,-186.1311 264.8197,-191.3952 266.0956,-184.5124"/>
</g>
<!-- Node29&#45;&gt;Node16 -->
<g id="edge51" class="edge">
<title>Node29&#45;&gt;Node16</title>
<path fill="none" stroke="#191970" d="M663.5375,-336.3757C678.889,-322.6778 708.669,-297.3049 737,-280 799.4241,-241.8707 878.4906,-208.8243 923.4476,-191.3163"/>
<polygon fill="#191970" stroke="#191970" points="924.9709,-194.4801 933.0407,-187.6151 922.4511,-187.9494 924.9709,-194.4801"/>
</g>
<!-- Node29&#45;&gt;Node23 -->
<g id="edge49" class="edge">
<title>Node29&#45;&gt;Node23</title>
<path fill="none" stroke="#191970" d="M676.6953,-341.1433C716.08,-333.0125 797.4675,-315.9624 866,-300 1065.8886,-253.4425 1129.4261,-277.7527 1314,-188 1340.0405,-175.3373 1365.7048,-153.8166 1381.9041,-138.8044"/>
<polygon fill="#191970" stroke="#191970" points="1384.6208,-141.0514 1389.4644,-131.6286 1379.8018,-135.9742 1384.6208,-141.0514"/>
</g>
<!-- Node29&#45;&gt;Node24 -->
<g id="edge50" class="edge">
<title>Node29&#45;&gt;Node24</title>
<path fill="none" stroke="#191970" d="M654.6199,-336.4509C657.7188,-318.184 664.5433,-277.9553 668.6584,-253.6976"/>
<polygon fill="#191970" stroke="#191970" points="672.1623,-253.9694 670.3842,-243.5249 665.2609,-252.7986 672.1623,-253.9694"/>
</g>
<!-- Node30 -->
<g id="node30" class="node">
<title>Node30</title>
<g id="a_node30"><a xlink:title=" ">
<polygon fill="#ffffff" stroke="#bfbfbf" points="746,-280.5 746,-299.5 820,-299.5 820,-280.5 746,-280.5"/>
<text text-anchor="middle" x="783" y="-287.5" font-family="Helvetica,sans-Serif" font-size="10.00" fill="#000000">QTcpSocket</text>
</a>
</g>
</g>
<!-- Node29&#45;&gt;Node30 -->
<g id="edge45" class="edge">
<title>Node29&#45;&gt;Node30</title>
<path fill="none" stroke="#191970" d="M675.3478,-336.3733C696.4033,-327.3032 728.1495,-313.6279 751.7175,-303.4755"/>
<polygon fill="#191970" stroke="#191970" points="753.1444,-306.6719 760.9438,-299.5011 750.375,-300.243 753.1444,-306.6719"/>
</g>
<!-- Node31 -->
<g id="node31" class="node">
<title>Node31</title>
<g id="a_node31"><a xlink:title=" ">
<polygon fill="#ffffff" stroke="#bfbfbf" points="469.5,-280.5 469.5,-299.5 522.5,-299.5 522.5,-280.5 469.5,-280.5"/>
<text text-anchor="middle" x="496" y="-287.5" font-family="Helvetica,sans-Serif" font-size="10.00" fill="#000000">QObject</text>
</a>
</g>
</g>
<!-- Node29&#45;&gt;Node31 -->
<g id="edge46" class="edge">
<title>Node29&#45;&gt;Node31</title>
<path fill="none" stroke="#191970" d="M629.4955,-337.6162C603.7492,-328.4328 562.1417,-313.5919 532.2177,-302.9184"/>
<polygon fill="#191970" stroke="#191970" points="533.1519,-299.5357 522.5573,-299.4727 530.8002,-306.1289 533.1519,-299.5357"/>
</g>
<!-- Node32 -->
<g id="node32" class="node">
<title>Node32</title>
<g id="a_node32"><a xlink:title=" ">
<polygon fill="#ffffff" stroke="#bfbfbf" points="540.5,-280.5 540.5,-299.5 605.5,-299.5 605.5,-280.5 540.5,-280.5"/>
<text text-anchor="middle" x="573" y="-287.5" font-family="Helvetica,sans-Serif" font-size="10.00" fill="#000000">QStringList</text>
</a>
</g>
</g>
<!-- Node29&#45;&gt;Node32 -->
<g id="edge48" class="edge">
<title>Node29&#45;&gt;Node32</title>
<path fill="none" stroke="#191970" d="M639.0651,-336.2455C626.9053,-327.7337 609.0536,-315.2375 594.9715,-305.3801"/>
<polygon fill="#191970" stroke="#191970" points="596.9747,-302.51 586.7752,-299.6427 592.9605,-308.2447 596.9747,-302.51"/>
</g>
<!-- Node33 -->
<g id="node33" class="node">
<title>Node33</title>
<g id="a_node33"><a xlink:href="view_8h.html" target="_top" xlink:title=" ">
<polygon fill="#ffffff" stroke="#000000" points="406.5,-280.5 406.5,-299.5 451.5,-299.5 451.5,-280.5 406.5,-280.5"/>
<text text-anchor="middle" x="429" y="-287.5" font-family="Helvetica,sans-Serif" font-size="10.00" fill="#000000">view.h</text>
</a>
</g>
</g>
<!-- Node29&#45;&gt;Node33 -->
<g id="edge53" class="edge">
<title>Node29&#45;&gt;Node33</title>
<path fill="none" stroke="#191970" d="M629.3774,-340.9934C594.5578,-333.4802 527.2353,-318.4467 461.3339,-300.2334"/>
<polygon fill="#191970" stroke="#191970" points="462.1979,-296.8408 451.6251,-297.5236 460.316,-303.5831 462.1979,-296.8408"/>
</g>
<!-- Node33&#45;&gt;Node11 -->
<g id="edge56" class="edge">
<title>Node33&#45;&gt;Node11</title>
<path fill="none" stroke="#191970" d="M411.0955,-280.4509C374.1328,-260.7375 289.2123,-215.4465 245.7269,-192.2543"/>
<polygon fill="#191970" stroke="#191970" points="247.3298,-189.1426 236.8592,-187.5249 244.0356,-195.3191 247.3298,-189.1426"/>
</g>
<!-- Node33&#45;&gt;Node24 -->
<g id="edge55" class="edge">
<title>Node33&#45;&gt;Node24</title>
<path fill="none" stroke="#191970" d="M451.6103,-282.4226C454.4232,-281.5639 457.2696,-280.7347 460,-280 521.1486,-263.546 593.4238,-248.8627 635.8327,-240.7218"/>
<polygon fill="#191970" stroke="#191970" points="636.5222,-244.1535 645.6907,-238.8442 635.2124,-237.2771 636.5222,-244.1535"/>
</g>
<!-- Node34 -->
<g id="node34" class="node">
<title>Node34</title>
<g id="a_node34"><a xlink:title=" ">
<polygon fill="#ffffff" stroke="#bfbfbf" points="385.5,-224.5 385.5,-243.5 472.5,-243.5 472.5,-224.5 385.5,-224.5"/>
<text text-anchor="middle" x="429" y="-231.5" font-family="Helvetica,sans-Serif" font-size="10.00" fill="#000000">QGraphicsView</text>
</a>
</g>
</g>
<!-- Node33&#45;&gt;Node34 -->
<g id="edge54" class="edge">
<title>Node33&#45;&gt;Node34</title>
<path fill="none" stroke="#191970" d="M429,-280.2455C429,-272.9382 429,-262.6944 429,-253.7046"/>
<polygon fill="#191970" stroke="#191970" points="432.5001,-253.6426 429,-243.6427 425.5001,-253.6427 432.5001,-253.6426"/>
</g>
<!-- Node35 -->
<g id="node35" class="node">
<title>Node35</title>
<g id="a_node35"><a xlink:href="tooltipmenu_8h.html" target="_top" xlink:title=" ">
<polygon fill="#ffffff" stroke="#000000" points="89.5,-168.5 89.5,-187.5 164.5,-187.5 164.5,-168.5 89.5,-168.5"/>
<text text-anchor="middle" x="127" y="-175.5" font-family="Helvetica,sans-Serif" font-size="10.00" fill="#000000">tooltipmenu.h</text>
</a>
</g>
</g>
<!-- Node33&#45;&gt;Node35 -->
<g id="edge57" class="edge">
<title>Node33&#45;&gt;Node35</title>
<path fill="none" stroke="#191970" d="M406.3009,-281.5818C354.0871,-262.2177 225.1413,-214.3968 162.4114,-191.1327"/>
<polygon fill="#191970" stroke="#191970" points="163.5271,-187.8136 152.9341,-187.6179 161.093,-194.3768 163.5271,-187.8136"/>
</g>
<!-- Node35&#45;&gt;Node5 -->
<g id="edge58" class="edge">
<title>Node35&#45;&gt;Node5</title>
<path fill="none" stroke="#191970" d="M152.614,-168.3733C177.0687,-159.1822 214.1054,-145.2624 241.2209,-135.0713"/>
<polygon fill="#191970" stroke="#191970" points="242.5909,-138.2956 250.7202,-131.5011 240.1281,-131.7431 242.5909,-138.2956"/>
</g>
<!-- Node35&#45;&gt;Node12 -->
<g id="edge59" class="edge">
<title>Node35&#45;&gt;Node12</title>
<path fill="none" stroke="#191970" d="M140.5866,-168.2455C152.3305,-159.814 169.5199,-147.4729 183.1882,-137.6598"/>
<polygon fill="#191970" stroke="#191970" points="185.4871,-140.3179 191.5691,-131.6427 181.4046,-134.6316 185.4871,-140.3179"/>
</g>
<!-- Node36 -->
<g id="node36" class="node">
<title>Node36</title>
<g id="a_node36"><a xlink:title=" ">
<polygon fill="#ffffff" stroke="#bfbfbf" points="92,-112.5 92,-131.5 162,-131.5 162,-112.5 92,-112.5"/>
<text text-anchor="middle" x="127" y="-119.5" font-family="Helvetica,sans-Serif" font-size="10.00" fill="#000000">QGroupBox</text>
</a>
</g>
</g>
<!-- Node35&#45;&gt;Node36 -->
<g id="edge60" class="edge">
<title>Node35&#45;&gt;Node36</title>
<path fill="none" stroke="#191970" d="M127,-168.2455C127,-160.9382 127,-150.6944 127,-141.7046"/>
<polygon fill="#191970" stroke="#191970" points="130.5001,-141.6426 127,-131.6427 123.5001,-141.6427 130.5001,-141.6426"/>
</g>
<!-- Node37 -->
<g id="node37" class="node">
<title>Node37</title>
<g id="a_node37"><a xlink:title=" ">
<polygon fill="#ffffff" stroke="#bfbfbf" points="0,-112.5 0,-131.5 74,-131.5 74,-112.5 0,-112.5"/>
<text text-anchor="middle" x="37" y="-119.5" font-family="Helvetica,sans-Serif" font-size="10.00" fill="#000000">QGridLayout</text>
</a>
</g>
</g>
<!-- Node35&#45;&gt;Node37 -->
<g id="edge61" class="edge">
<title>Node35&#45;&gt;Node37</title>
<path fill="none" stroke="#191970" d="M111.3232,-168.2455C97.5144,-159.6534 77.1807,-147.0014 61.2708,-137.1018"/>
<polygon fill="#191970" stroke="#191970" points="62.8368,-133.954 52.4972,-131.6427 59.1387,-139.8974 62.8368,-133.954"/>
</g>
</g>
</svg>
        <g id="navigator" transform="translate(0 0)" fill="#404254">
                <rect fill="#f2f5e9" fill-opacity="0.5" stroke="#606060" stroke-width=".5" x="0" y="0" width="60" height="60"/>
                <use id="zoomplus" xlink:href="#zoomPlus" x="17" y="9" onmousedown="handleZoom(evt,'in')"/>
                <use id="zoomminus" xlink:href="#zoomMin" x="42" y="9" onmousedown="handleZoom(evt,'out')"/>
                <use id="reset" xlink:href="#resetDef" x="30" y="36" onmousedown="handleReset()"/>
                <g id="arrowUp" xlink:href="#dirArrow" transform="translate(30 24)" onmousedown="handlePan(0,-1)">
                  <use xlink:href="#rim" fill="#404040">
                        <set attributeName="fill" to="#808080" begin="arrowUp.mouseover" end="arrowUp.mouseout"/>
                  </use>
                  <path fill="none" stroke="white" stroke-width="1.5" d="M0,-3.0v7 M-2.5,-0.5L0,-3.0L2.5,-0.5"/>
                </g>
                <g id="arrowRight" xlink:href="#dirArrow" transform="rotate(90) translate(36 -43)" onmousedown="handlePan(1,0)">
                  <use xlink:href="#rim" fill="#404040">
                        <set attributeName="fill" to="#808080" begin="arrowRight.mouseover" end="arrowRight.mouseout"/>
                  </use>
                  <path fill="none" stroke="white" stroke-width="1.5" d="M0,-3.0v7 M-2.5,-0.5L0,-3.0L2.5,-0.5"/>
                </g>
                <g id="arrowDown" xlink:href="#dirArrow" transform="rotate(180) translate(-30 -48)" onmousedown="handlePan(0,1)">
                  <use xlink:href="#rim" fill="#404040">
                        <set attributeName="fill" to="#808080" begin="arrowDown.mouseover" end="arrowDown.mouseout"/>
                  </use>
                  <path fill="none" stroke="white" stroke-width="1.5" d="M0,-3.0v7 M-2.5,-0.5L0,-3.0L2.5,-0.5"/>
                </g>
                <g id="arrowLeft" xlink:href="#dirArrow" transform="rotate(270) translate(-36 17)" onmousedown="handlePan(-1,0)">
                  <use xlink:href="#rim" fill="#404040">
                        <set attributeName="fill" to="#808080" begin="arrowLeft.mouseover" end="arrowLeft.mouseout"/>
                  </use>
                  <path fill="none" stroke="white" stroke-width="1.5" d="M0,-3.0v7 M-2.5,-0.5L0,-3.0L2.5,-0.5"/>
                </g>
        </g>
        <svg viewBox="0 0 15 15" width="100%" height="30px" preserveAspectRatio="xMaxYMin meet">
         <g id="arrow_out" transform="scale(0.3 0.3)">
          <a xlink:href="gameloop_8cpp__incl_org.svg" target="_base">
           <rect id="button" ry="5" rx="5" y="6" x="6" height="38" width="38"
                fill="#f2f5e9" fill-opacity="0.5" stroke="#606060" stroke-width="1.0"/>
           <path id="arrow"
             d="M 11.500037,31.436501 C 11.940474,20.09759 22.043105,11.32322 32.158766,21.979434 L 37.068811,17.246167 C 37.068811,17.246167 37.088388,32 37.088388,32 L 22.160133,31.978069 C 22.160133,31.978069 26.997745,27.140456 26.997745,27.140456 C 18.528582,18.264221 13.291696,25.230495 11.500037,31.436501 z"
             style="fill:#404040;"/>
          </a>
         </g>
        </svg>
</svg>
