<?xml version="1.0" encoding="UTF-8" standalone="no"?>
<!DOCTYPE svg PUBLIC "-//W3C//DTD SVG 1.1//EN"
 "http://www.w3.org/Graphics/SVG/1.1/DTD/svg11.dtd">
<!-- Generated by graphviz version 2.40.1 (20161225.0304)
 -->
<!-- Title: src/application_server/gameloop.h Pages: 1 -->
<!--zoomable 319 -->
<svg id="main" version="1.1" xmlns="http://www.w3.org/2000/svg" xmlns:xlink="http://www.w3.org/1999/xlink" xml:space="preserve" onload="init(evt)">
<style type="text/css"><![CDATA[
.edge:hover path { stroke: red; }
.edge:hover polygon { stroke: red; fill: red; }
]]></style>
<script type="text/javascript"><![CDATA[
var edges = document.getElementsByTagName('g');
if (edges && edges.length) {
  for (var i=0;i<edges.length;i++) {
    if (edges[i].id.substr(0,4)=='edge') {
      edges[i].setAttribute('class','edge');
    }
  }
}
]]></script>
        <defs>
                <circle id="rim" cx="0" cy="0" r="7"/>
                <circle id="rim2" cx="0" cy="0" r="3.5"/>
                <g id="zoomPlus">
                        <use xlink:href="#rim" fill="#404040">
                                <set attributeName="fill" to="#808080" begin="zoomplus.mouseover" end="zoomplus.mouseout"/>
                        </use>
                        <path d="M-4,0h8M0,-4v8" fill="none" stroke="white" stroke-width="1.5" pointer-events="none"/>
                </g>
                <g id="zoomMin">
                        <use xlink:href="#rim" fill="#404040">
                                <set attributeName="fill" to="#808080" begin="zoomminus.mouseover" end="zoomminus.mouseout"/>
                        </use>
                        <path d="M-4,0h8" fill="none" stroke="white" stroke-width="1.5" pointer-events="none"/>
                </g>
                <g id="dirArrow">
                        <path fill="none" stroke="white" stroke-width="1.5" d="M0,-3.0v7 M-2.5,-0.5L0,-3.0L2.5,-0.5"/>
                </g>
               <g id="resetDef">
                       <use xlink:href="#rim2" fill="#404040">
                               <set attributeName="fill" to="#808080" begin="reset.mouseover" end="reset.mouseout"/>
                       </use>
               </g>
        </defs>

<script type="text/javascript">
var viewWidth = 1029;
var viewHeight = 319;
var sectionId = 'dynsection-0';
</script>
<script xlink:href="svgpan.js"/>
<svg id="graph" class="graph">
<g id="viewport">
<title>src/application_server/gameloop.h</title>
<polygon fill="#ffffff" stroke="transparent" points="-4,4 -4,-315 1025,-315 1025,4 -4,4"/>
<!-- Node1 -->
<g id="node1" class="node">
<title>Node1</title>
<g id="a_node1"><a xlink:title=" ">
<polygon fill="#bfbfbf" stroke="#000000" points="543.5,-280.5 543.5,-310.5 658.5,-310.5 658.5,-280.5 543.5,-280.5"/>
<text text-anchor="start" x="551.5" y="-298.5" font-family="Helvetica,sans-Serif" font-size="10.00" fill="#000000">src/application_server</text>
<text text-anchor="middle" x="601" y="-287.5" font-family="Helvetica,sans-Serif" font-size="10.00" fill="#000000">/gameloop.h</text>
</a>
</g>
</g>
<!-- Node2 -->
<g id="node2" class="node">
<title>Node2</title>
<g id="a_node2"><a xlink:title=" ">
<polygon fill="#ffffff" stroke="#bfbfbf" points="490,-224.5 490,-243.5 548,-243.5 548,-224.5 490,-224.5"/>
<text text-anchor="middle" x="519" y="-231.5" font-family="Helvetica,sans-Serif" font-size="10.00" fill="#000000">QThread</text>
</a>
</g>
</g>
<!-- Node1&#45;&gt;Node2 -->
<g id="edge1" class="edge">
<title>Node1&#45;&gt;Node2</title>
<path fill="none" stroke="#191970" d="M580.7303,-280.2977C568.3994,-271.0495 552.6734,-259.2551 540.1803,-249.8853"/>
<polygon fill="#191970" stroke="#191970" points="542.2293,-247.047 532.1292,-243.8469 538.0292,-252.647 542.2293,-247.047"/>
</g>
<!-- Node3 -->
<g id="node3" class="node">
<title>Node3</title>
<g id="a_node3"><a xlink:href="view_8h.html" target="_top" xlink:title=" ">
<polygon fill="#ffffff" stroke="#000000" points="604.5,-224.5 604.5,-243.5 649.5,-243.5 649.5,-224.5 604.5,-224.5"/>
<text text-anchor="middle" x="627" y="-231.5" font-family="Helvetica,sans-Serif" font-size="10.00" fill="#000000">view.h</text>
</a>
</g>
</g>
<!-- Node1&#45;&gt;Node3 -->
<g id="edge2" class="edge">
<title>Node1&#45;&gt;Node3</title>
<path fill="none" stroke="#191970" d="M607.427,-280.2977C610.8857,-272.1166 615.1867,-261.943 618.8754,-253.2179"/>
<polygon fill="#191970" stroke="#191970" points="622.1668,-254.4205 622.8371,-243.8469 615.7193,-251.6947 622.1668,-254.4205"/>
</g>
<!-- Node5 -->
<g id="node5" class="node">
<title>Node5</title>
<g id="a_node5"><a xlink:href="scene_8h.html" target="_top" xlink:title=" ">
<polygon fill="#ffffff" stroke="#000000" points="442,-168.5 442,-187.5 494,-187.5 494,-168.5 442,-168.5"/>
<text text-anchor="middle" x="468" y="-175.5" font-family="Helvetica,sans-Serif" font-size="10.00" fill="#000000">scene.h</text>
</a>
</g>
</g>
<!-- Node1&#45;&gt;Node5 -->
<g id="edge34" class="edge">
<title>Node1&#45;&gt;Node5</title>
<path fill="none" stroke="#191970" d="M594.6932,-280.4461C587.4906,-264.7288 574.4142,-240.161 557,-224 541.6175,-209.7245 520.9648,-198.6872 503.4268,-191.0068"/>
<polygon fill="#191970" stroke="#191970" points="504.6331,-187.7175 494.0571,-187.086 501.9309,-194.175 504.6331,-187.7175"/>
</g>
<!-- Node21 -->
<g id="node21" class="node">
<title>Node21</title>
<g id="a_node21"><a xlink:href="datamodel_8h.html" target="_top" xlink:title=" ">
<polygon fill="#ffffff" stroke="#000000" points="736.5,-112.5 736.5,-131.5 809.5,-131.5 809.5,-112.5 736.5,-112.5"/>
<text text-anchor="middle" x="773" y="-119.5" font-family="Helvetica,sans-Serif" font-size="10.00" fill="#000000">datamodel.h</text>
</a>
</g>
</g>
<!-- Node1&#45;&gt;Node21 -->
<g id="edge35" class="edge">
<title>Node1&#45;&gt;Node21</title>
<path fill="none" stroke="#191970" d="M618.4627,-280.4015C630.0839,-270.2545 645.6166,-256.5012 659,-244 684.9529,-219.7579 691.7067,-213.905 716,-188 730.9523,-172.0557 747.1687,-153.1037 758.4676,-139.6077"/>
<polygon fill="#191970" stroke="#191970" points="761.414,-141.5388 765.1199,-131.6132 756.0332,-137.0614 761.414,-141.5388"/>
</g>
<!-- Node4 -->
<g id="node4" class="node">
<title>Node4</title>
<g id="a_node4"><a xlink:title=" ">
<polygon fill="#ffffff" stroke="#bfbfbf" points="619.5,-168.5 619.5,-187.5 706.5,-187.5 706.5,-168.5 619.5,-168.5"/>
<text text-anchor="middle" x="663" y="-175.5" font-family="Helvetica,sans-Serif" font-size="10.00" fill="#000000">QGraphicsView</text>
</a>
</g>
</g>
<!-- Node3&#45;&gt;Node4 -->
<g id="edge3" class="edge">
<title>Node3&#45;&gt;Node4</title>
<path fill="none" stroke="#191970" d="M633.2707,-224.2455C638.2264,-216.5367 645.283,-205.5598 651.2776,-196.2348"/>
<polygon fill="#191970" stroke="#191970" points="654.3376,-197.9471 656.8011,-187.6427 648.4494,-194.1618 654.3376,-197.9471"/>
</g>
<!-- Node3&#45;&gt;Node5 -->
<g id="edge4" class="edge">
<title>Node3&#45;&gt;Node5</title>
<path fill="none" stroke="#191970" d="M604.2192,-225.9766C577.9523,-216.7253 534.4487,-201.4033 503.6805,-190.5667"/>
<polygon fill="#191970" stroke="#191970" points="504.7711,-187.2401 494.1763,-187.2193 502.4457,-193.8426 504.7711,-187.2401"/>
</g>
<!-- Node3&#45;&gt;Node21 -->
<g id="edge28" class="edge">
<title>Node3&#45;&gt;Node21</title>
<path fill="none" stroke="#191970" d="M620.2241,-224.4801C611.3138,-210.683 598.2061,-184.9325 611,-168 624.9512,-149.5358 683.5982,-136.317 726.3267,-128.9171"/>
<polygon fill="#191970" stroke="#191970" points="726.9819,-132.3562 736.265,-127.2498 725.8237,-125.4526 726.9819,-132.3562"/>
</g>
<!-- Node24 -->
<g id="node24" class="node">
<title>Node24</title>
<g id="a_node24"><a xlink:href="tooltipmenu_8h.html" target="_top" xlink:title=" ">
<polygon fill="#ffffff" stroke="#000000" points="827.5,-112.5 827.5,-131.5 902.5,-131.5 902.5,-112.5 827.5,-112.5"/>
<text text-anchor="middle" x="865" y="-119.5" font-family="Helvetica,sans-Serif" font-size="10.00" fill="#000000">tooltipmenu.h</text>
</a>
</g>
</g>
<!-- Node3&#45;&gt;Node24 -->
<g id="edge29" class="edge">
<title>Node3&#45;&gt;Node24</title>
<path fill="none" stroke="#191970" d="M647.2917,-224.4509C689.4463,-204.6135 786.6388,-158.8758 835.6338,-135.8194"/>
<polygon fill="#191970" stroke="#191970" points="837.2017,-138.9498 844.7596,-131.5249 834.2211,-132.616 837.2017,-138.9498"/>
</g>
<!-- Node6 -->
<g id="node6" class="node">
<title>Node6</title>
<g id="a_node6"><a xlink:title=" ">
<polygon fill="#ffffff" stroke="#bfbfbf" points="362,-112.5 362,-131.5 456,-131.5 456,-112.5 362,-112.5"/>
<text text-anchor="middle" x="409" y="-119.5" font-family="Helvetica,sans-Serif" font-size="10.00" fill="#000000">QGraphicsScene</text>
</a>
</g>
</g>
<!-- Node5&#45;&gt;Node6 -->
<g id="edge5" class="edge">
<title>Node5&#45;&gt;Node6</title>
<path fill="none" stroke="#191970" d="M457.723,-168.2455C449.1782,-160.1352 436.8222,-148.4075 426.6915,-138.7919"/>
<polygon fill="#191970" stroke="#191970" points="428.8218,-135.9884 419.1592,-131.6427 424.0028,-141.0655 428.8218,-135.9884"/>
</g>
<!-- Node7 -->
<g id="node7" class="node">
<title>Node7</title>
<g id="a_node7"><a xlink:title=" ">
<polygon fill="#ffffff" stroke="#bfbfbf" points="474,-112.5 474,-131.5 578,-131.5 578,-112.5 474,-112.5"/>
<text text-anchor="middle" x="526" y="-119.5" font-family="Helvetica,sans-Serif" font-size="10.00" fill="#000000">QGraphicsTextItem</text>
</a>
</g>
</g>
<!-- Node5&#45;&gt;Node7 -->
<g id="edge6" class="edge">
<title>Node5&#45;&gt;Node7</title>
<path fill="none" stroke="#191970" d="M478.1028,-168.2455C486.5028,-160.1352 498.6494,-148.4075 508.6084,-138.7919"/>
<polygon fill="#191970" stroke="#191970" points="511.25,-141.1066 516.0129,-131.6427 506.3878,-136.0707 511.25,-141.1066"/>
</g>
<!-- Node8 -->
<g id="node8" class="node">
<title>Node8</title>
<g id="a_node8"><a xlink:title=" ">
<polygon fill="#ffffff" stroke="#bfbfbf" points="596.5,-112.5 596.5,-131.5 679.5,-131.5 679.5,-112.5 596.5,-112.5"/>
<text text-anchor="middle" x="638" y="-119.5" font-family="Helvetica,sans-Serif" font-size="10.00" fill="#000000">QGraphicsItem</text>
</a>
</g>
</g>
<!-- Node5&#45;&gt;Node8 -->
<g id="edge7" class="edge">
<title>Node5&#45;&gt;Node8</title>
<path fill="none" stroke="#191970" d="M494.1899,-169.3727C522.2971,-160.1139 567.2319,-145.3118 599.3926,-134.7177"/>
<polygon fill="#191970" stroke="#191970" points="600.5278,-138.0289 608.9307,-131.5758 598.3376,-131.3803 600.5278,-138.0289"/>
</g>
<!-- Node9 -->
<g id="node9" class="node">
<title>Node9</title>
<g id="a_node9"><a xlink:title=" ">
<polygon fill="#ffffff" stroke="#bfbfbf" points="0,-.5 0,-19.5 104,-19.5 104,-.5 0,-.5"/>
<text text-anchor="middle" x="52" y="-7.5" font-family="Helvetica,sans-Serif" font-size="10.00" fill="#000000">QGraphicsRectItem</text>
</a>
</g>
</g>
<!-- Node5&#45;&gt;Node9 -->
<g id="edge8" class="edge">
<title>Node5&#45;&gt;Node9</title>
<path fill="none" stroke="#191970" d="M441.8588,-176.4675C357.5754,-171.3277 96.6725,-153.7926 66,-132 36.7786,-111.2383 34.0791,-91.5067 39,-56 40.2357,-47.0835 42.7581,-37.4647 45.255,-29.3395"/>
<polygon fill="#191970" stroke="#191970" points="48.6247,-30.296 48.4124,-19.7033 41.9726,-28.1164 48.6247,-30.296"/>
</g>
<!-- Node10 -->
<g id="node10" class="node">
<title>Node10</title>
<g id="a_node10"><a xlink:title=" ">
<polygon fill="#ffffff" stroke="#bfbfbf" points="86.5,-112.5 86.5,-131.5 199.5,-131.5 199.5,-112.5 86.5,-112.5"/>
<text text-anchor="middle" x="143" y="-119.5" font-family="Helvetica,sans-Serif" font-size="10.00" fill="#000000">QGraphicsEllipseItem</text>
</a>
</g>
</g>
<!-- Node5&#45;&gt;Node10 -->
<g id="edge9" class="edge">
<title>Node5&#45;&gt;Node10</title>
<path fill="none" stroke="#191970" d="M441.9533,-173.5119C391.7767,-164.8661 280.3432,-145.6653 208.6027,-133.3038"/>
<polygon fill="#191970" stroke="#191970" points="208.7672,-129.7807 198.3181,-131.5317 207.5785,-136.679 208.7672,-129.7807"/>
</g>
<!-- Node11 -->
<g id="node11" class="node">
<title>Node11</title>
<g id="a_node11"><a xlink:href="maptile_8h.html" target="_top" xlink:title=" ">
<polygon fill="#ffffff" stroke="#000000" points="288,-112.5 288,-131.5 344,-131.5 344,-112.5 288,-112.5"/>
<text text-anchor="middle" x="316" y="-119.5" font-family="Helvetica,sans-Serif" font-size="10.00" fill="#000000">maptile.h</text>
</a>
</g>
</g>
<!-- Node5&#45;&gt;Node11 -->
<g id="edge10" class="edge">
<title>Node5&#45;&gt;Node11</title>
<path fill="none" stroke="#191970" d="M441.8703,-168.3733C416.9232,-159.1822 379.1408,-145.2624 351.4794,-135.0713"/>
<polygon fill="#191970" stroke="#191970" points="352.3822,-131.674 341.7888,-131.5011 349.9622,-138.2424 352.3822,-131.674"/>
</g>
<!-- Node16 -->
<g id="node16" class="node">
<title>Node16</title>
<g id="a_node16"><a xlink:href="graphicsmanager_8h.html" target="_top" xlink:title=" ">
<polygon fill="#ffffff" stroke="#000000" points="520.5,-56.5 520.5,-75.5 623.5,-75.5 623.5,-56.5 520.5,-56.5"/>
<text text-anchor="middle" x="572" y="-63.5" font-family="Helvetica,sans-Serif" font-size="10.00" fill="#000000">graphicsmanager.h</text>
</a>
</g>
</g>
<!-- Node5&#45;&gt;Node16 -->
<g id="edge19" class="edge">
<title>Node5&#45;&gt;Node16</title>
<path fill="none" stroke="#191970" d="M494.1602,-174.4238C549.9796,-166.532 676.698,-147.1262 689,-132 710.0941,-106.0632 670.8773,-88.4787 632.2795,-78.0254"/>
<polygon fill="#191970" stroke="#191970" points="633.0731,-74.6157 622.517,-75.5206 631.3334,-81.3961 633.0731,-74.6157"/>
</g>
<!-- Node19 -->
<g id="node19" class="node">
<title>Node19</title>
<g id="a_node19"><a xlink:href="player_8h.html" target="_top" xlink:title=" ">
<polygon fill="#ffffff" stroke="#000000" points="218,-112.5 218,-131.5 270,-131.5 270,-112.5 218,-112.5"/>
<text text-anchor="middle" x="244" y="-119.5" font-family="Helvetica,sans-Serif" font-size="10.00" fill="#000000">player.h</text>
</a>
</g>
</g>
<!-- Node5&#45;&gt;Node19 -->
<g id="edge20" class="edge">
<title>Node5&#45;&gt;Node19</title>
<path fill="none" stroke="#191970" d="M441.9317,-171.9995C407.1849,-163.9269 343.559,-148.8869 280.1088,-132.2252"/>
<polygon fill="#191970" stroke="#191970" points="280.9046,-128.8155 270.3425,-129.6471 279.1179,-135.5836 280.9046,-128.8155"/>
</g>
<!-- Node20 -->
<g id="node20" class="node">
<title>Node20</title>
<g id="a_node20"><a xlink:href="highlighter_8h.html" target="_top" xlink:title=" ">
<polygon fill="#ffffff" stroke="#000000" points="48,-56.5 48,-75.5 118,-75.5 118,-56.5 48,-56.5"/>
<text text-anchor="middle" x="83" y="-63.5" font-family="Helvetica,sans-Serif" font-size="10.00" fill="#000000">highlighter.h</text>
</a>
</g>
</g>
<!-- Node5&#45;&gt;Node20 -->
<g id="edge23" class="edge">
<title>Node5&#45;&gt;Node20</title>
<path fill="none" stroke="#191970" d="M441.8424,-176.8983C358.2008,-173.1107 101.2995,-159.3258 77,-132 65.9258,-119.5466 69.3038,-100.0571 74.3252,-85.4801"/>
<polygon fill="#191970" stroke="#191970" points="77.688,-86.4922 78.0888,-75.905 71.1732,-83.9315 77.688,-86.4922"/>
</g>
<!-- Node5&#45;&gt;Node21 -->
<g id="edge24" class="edge">
<title>Node5&#45;&gt;Node21</title>
<path fill="none" stroke="#191970" d="M494.3504,-173.3573C540.5105,-165.1955 638.9878,-147.6545 722,-132 723.4408,-131.7283 724.9042,-131.4508 726.3815,-131.1693"/>
<polygon fill="#191970" stroke="#191970" points="727.082,-134.5988 736.2412,-129.2735 725.7602,-127.7247 727.082,-134.5988"/>
</g>
<!-- Node12 -->
<g id="node12" class="node">
<title>Node12</title>
<g id="a_node12"><a xlink:title=" ">
<polygon fill="#ffffff" stroke="#bfbfbf" points="257.5,-56.5 257.5,-75.5 374.5,-75.5 374.5,-56.5 257.5,-56.5"/>
<text text-anchor="middle" x="316" y="-63.5" font-family="Helvetica,sans-Serif" font-size="10.00" fill="#000000">QGraphicsPixmapItem</text>
</a>
</g>
</g>
<!-- Node11&#45;&gt;Node12 -->
<g id="edge11" class="edge">
<title>Node11&#45;&gt;Node12</title>
<path fill="none" stroke="#191970" d="M316,-112.2455C316,-104.9382 316,-94.6944 316,-85.7046"/>
<polygon fill="#191970" stroke="#191970" points="319.5001,-85.6426 316,-75.6427 312.5001,-85.6427 319.5001,-85.6426"/>
</g>
<!-- Node13 -->
<g id="node13" class="node">
<title>Node13</title>
<g id="a_node13"><a xlink:href="city_8h.html" target="_top" xlink:title=" ">
<polygon fill="#ffffff" stroke="#000000" points="398.5,-56.5 398.5,-75.5 437.5,-75.5 437.5,-56.5 398.5,-56.5"/>
<text text-anchor="middle" x="418" y="-63.5" font-family="Helvetica,sans-Serif" font-size="10.00" fill="#000000">city.h</text>
</a>
</g>
</g>
<!-- Node11&#45;&gt;Node13 -->
<g id="edge12" class="edge">
<title>Node11&#45;&gt;Node13</title>
<path fill="none" stroke="#191970" d="M333.767,-112.2455C349.7095,-103.4928 373.3259,-90.527 391.4989,-80.5496"/>
<polygon fill="#191970" stroke="#191970" points="393.3552,-83.5233 400.4366,-75.6427 389.9863,-77.3873 393.3552,-83.5233"/>
</g>
<!-- Node11&#45;&gt;Node16 -->
<g id="edge15" class="edge">
<title>Node11&#45;&gt;Node16</title>
<path fill="none" stroke="#191970" d="M344.2394,-114.1902C347.1917,-113.4269 350.153,-112.6831 353,-112 406.7988,-99.0909 468.512,-86.3094 512.6865,-77.5082"/>
<polygon fill="#191970" stroke="#191970" points="513.5505,-80.9051 522.6781,-75.5258 512.1881,-74.0389 513.5505,-80.9051"/>
</g>
<!-- Node14 -->
<g id="node14" class="node">
<title>Node14</title>
<g id="a_node14"><a xlink:title=" ">
<polygon fill="#ffffff" stroke="#bfbfbf" points="616.5,-.5 616.5,-19.5 657.5,-19.5 657.5,-.5 616.5,-.5"/>
<text text-anchor="middle" x="637" y="-7.5" font-family="Helvetica,sans-Serif" font-size="10.00" fill="#000000">string</text>
</a>
</g>
</g>
<!-- Node13&#45;&gt;Node14 -->
<g id="edge13" class="edge">
<title>Node13&#45;&gt;Node14</title>
<path fill="none" stroke="#191970" d="M437.5807,-61.9001C470.5919,-54.8529 539.5675,-39.5477 606.6091,-20.2234"/>
<polygon fill="#191970" stroke="#191970" points="607.8621,-23.5039 616.482,-17.3436 605.9019,-16.7839 607.8621,-23.5039"/>
</g>
<!-- Node15 -->
<g id="node15" class="node">
<title>Node15</title>
<g id="a_node15"><a xlink:title=" ">
<polygon fill="#ffffff" stroke="#bfbfbf" points="396,-.5 396,-19.5 440,-19.5 440,-.5 396,-.5"/>
<text text-anchor="middle" x="418" y="-7.5" font-family="Helvetica,sans-Serif" font-size="10.00" fill="#000000">vector</text>
</a>
</g>
</g>
<!-- Node13&#45;&gt;Node15 -->
<g id="edge14" class="edge">
<title>Node13&#45;&gt;Node15</title>
<path fill="none" stroke="#191970" d="M418,-56.2455C418,-48.9382 418,-38.6944 418,-29.7046"/>
<polygon fill="#191970" stroke="#191970" points="421.5001,-29.6426 418,-19.6427 414.5001,-29.6427 421.5001,-29.6426"/>
</g>
<!-- Node16&#45;&gt;Node14 -->
<g id="edge18" class="edge">
<title>Node16&#45;&gt;Node14</title>
<path fill="none" stroke="#191970" d="M583.3221,-56.2455C592.9223,-47.9746 606.8892,-35.9416 618.1695,-26.2232"/>
<polygon fill="#191970" stroke="#191970" points="620.516,-28.8214 625.8076,-19.6427 615.947,-23.5182 620.516,-28.8214"/>
</g>
<!-- Node17 -->
<g id="node17" class="node">
<title>Node17</title>
<g id="a_node17"><a xlink:title=" ">
<polygon fill="#ffffff" stroke="#bfbfbf" points="469,-.5 469,-19.5 527,-19.5 527,-.5 469,-.5"/>
<text text-anchor="middle" x="498" y="-7.5" font-family="Helvetica,sans-Serif" font-size="10.00" fill="#000000">QPixmap</text>
</a>
</g>
</g>
<!-- Node16&#45;&gt;Node17 -->
<g id="edge16" class="edge">
<title>Node16&#45;&gt;Node17</title>
<path fill="none" stroke="#191970" d="M559.1102,-56.2455C548.0746,-47.8943 531.9708,-35.7076 519.0647,-25.9408"/>
<polygon fill="#191970" stroke="#191970" points="520.8283,-22.8862 510.7421,-19.6427 516.6041,-28.4681 520.8283,-22.8862"/>
</g>
<!-- Node18 -->
<g id="node18" class="node">
<title>Node18</title>
<g id="a_node18"><a xlink:title=" ">
<polygon fill="#ffffff" stroke="#bfbfbf" points="545.5,-.5 545.5,-19.5 598.5,-19.5 598.5,-.5 545.5,-.5"/>
<text text-anchor="middle" x="572" y="-7.5" font-family="Helvetica,sans-Serif" font-size="10.00" fill="#000000">QImage</text>
</a>
</g>
</g>
<!-- Node16&#45;&gt;Node18 -->
<g id="edge17" class="edge">
<title>Node16&#45;&gt;Node18</title>
<path fill="none" stroke="#191970" d="M572,-56.2455C572,-48.9382 572,-38.6944 572,-29.7046"/>
<polygon fill="#191970" stroke="#191970" points="575.5001,-29.6426 572,-19.6427 568.5001,-29.6427 575.5001,-29.6426"/>
</g>
<!-- Node19&#45;&gt;Node20 -->
<g id="edge21" class="edge">
<title>Node19&#45;&gt;Node20</title>
<path fill="none" stroke="#191970" d="M217.7742,-112.878C191.2762,-103.6613 150.0924,-89.3365 120.2219,-78.9468"/>
<polygon fill="#191970" stroke="#191970" points="121.158,-75.5667 110.5632,-75.5872 118.8583,-82.1782 121.158,-75.5667"/>
</g>
<!-- Node20&#45;&gt;Node9 -->
<g id="edge22" class="edge">
<title>Node20&#45;&gt;Node9</title>
<path fill="none" stroke="#191970" d="M77.6002,-56.2455C73.3773,-48.617 67.3827,-37.7881 62.2559,-28.5267"/>
<polygon fill="#191970" stroke="#191970" points="65.2432,-26.6965 57.3379,-19.6427 59.119,-30.0867 65.2432,-26.6965"/>
</g>
<!-- Node21&#45;&gt;Node14 -->
<g id="edge25" class="edge">
<title>Node21&#45;&gt;Node14</title>
<path fill="none" stroke="#191970" d="M758.6598,-112.4167C745.4478,-103.4198 725.4573,-89.3786 709,-76 689.6414,-60.2629 668.7531,-40.8152 654.4873,-27.1197"/>
<polygon fill="#191970" stroke="#191970" points="656.535,-24.2308 646.9147,-19.7923 651.6673,-29.2614 656.535,-24.2308"/>
</g>
<!-- Node22 -->
<g id="node22" class="node">
<title>Node22</title>
<g id="a_node22"><a xlink:title=" ">
<polygon fill="#ffffff" stroke="#bfbfbf" points="717.5,-56.5 717.5,-75.5 766.5,-75.5 766.5,-56.5 717.5,-56.5"/>
<text text-anchor="middle" x="742" y="-63.5" font-family="Helvetica,sans-Serif" font-size="10.00" fill="#000000">QLabel</text>
</a>
</g>
</g>
<!-- Node21&#45;&gt;Node22 -->
<g id="edge26" class="edge">
<title>Node21&#45;&gt;Node22</title>
<path fill="none" stroke="#191970" d="M767.6002,-112.2455C763.3773,-104.617 757.3827,-93.7881 752.2559,-84.5267"/>
<polygon fill="#191970" stroke="#191970" points="755.2432,-82.6965 747.3379,-75.6427 749.119,-86.0867 755.2432,-82.6965"/>
</g>
<!-- Node23 -->
<g id="node23" class="node">
<title>Node23</title>
<g id="a_node23"><a xlink:title=" ">
<polygon fill="#ffffff" stroke="#bfbfbf" points="785,-56.5 785,-75.5 841,-75.5 841,-56.5 785,-56.5"/>
<text text-anchor="middle" x="813" y="-63.5" font-family="Helvetica,sans-Serif" font-size="10.00" fill="#000000">QWidget</text>
</a>
</g>
</g>
<!-- Node21&#45;&gt;Node23 -->
<g id="edge27" class="edge">
<title>Node21&#45;&gt;Node23</title>
<path fill="none" stroke="#191970" d="M779.9675,-112.2455C785.5311,-104.4564 793.478,-93.3308 800.1829,-83.9439"/>
<polygon fill="#191970" stroke="#191970" points="803.148,-85.8144 806.1124,-75.6427 797.4519,-81.7457 803.148,-85.8144"/>
</g>
<!-- Node24&#45;&gt;Node22 -->
<g id="edge31" class="edge">
<title>Node24&#45;&gt;Node22</title>
<path fill="none" stroke="#191970" d="M843.8555,-112.3733C824.1108,-103.3838 794.4302,-89.8706 772.1945,-79.7471"/>
<polygon fill="#191970" stroke="#191970" points="773.42,-76.4594 762.8685,-75.5011 770.5194,-82.8302 773.42,-76.4594"/>
</g>
<!-- Node24&#45;&gt;Node23 -->
<g id="edge30" class="edge">
<title>Node24&#45;&gt;Node23</title>
<path fill="none" stroke="#191970" d="M855.9423,-112.2455C848.4858,-104.2155 837.7366,-92.6394 828.8583,-83.0781"/>
<polygon fill="#191970" stroke="#191970" points="831.3232,-80.589 821.9539,-75.6427 826.1937,-85.3522 831.3232,-80.589"/>
</g>
<!-- Node25 -->
<g id="node25" class="node">
<title>Node25</title>
<g id="a_node25"><a xlink:title=" ">
<polygon fill="#ffffff" stroke="#bfbfbf" points="951,-56.5 951,-75.5 1021,-75.5 1021,-56.5 951,-56.5"/>
<text text-anchor="middle" x="986" y="-63.5" font-family="Helvetica,sans-Serif" font-size="10.00" fill="#000000">QGroupBox</text>
</a>
</g>
</g>
<!-- Node24&#45;&gt;Node25 -->
<g id="edge32" class="edge">
<title>Node24&#45;&gt;Node25</title>
<path fill="none" stroke="#191970" d="M885.8006,-112.3733C905.2243,-103.3838 934.4224,-89.8706 956.2964,-79.7471"/>
<polygon fill="#191970" stroke="#191970" points="957.8656,-82.8776 965.4708,-75.5011 954.9255,-76.5249 957.8656,-82.8776"/>
</g>
<!-- Node26 -->
<g id="node26" class="node">
<title>Node26</title>
<g id="a_node26"><a xlink:title=" ">
<polygon fill="#ffffff" stroke="#bfbfbf" points="859,-56.5 859,-75.5 933,-75.5 933,-56.5 859,-56.5"/>
<text text-anchor="middle" x="896" y="-63.5" font-family="Helvetica,sans-Serif" font-size="10.00" fill="#000000">QGridLayout</text>
</a>
</g>
</g>
<!-- Node24&#45;&gt;Node26 -->
<g id="edge33" class="edge">
<title>Node24&#45;&gt;Node26</title>
<path fill="none" stroke="#191970" d="M870.3998,-112.2455C874.6227,-104.617 880.6173,-93.7881 885.7441,-84.5267"/>
<polygon fill="#191970" stroke="#191970" points="888.881,-86.0867 890.6621,-75.6427 882.7568,-82.6965 888.881,-86.0867"/>
</g>
</g>
</svg>
        <g id="navigator" transform="translate(0 0)" fill="#404254">
                <rect fill="#f2f5e9" fill-opacity="0.5" stroke="#606060" stroke-width=".5" x="0" y="0" width="60" height="60"/>
                <use id="zoomplus" xlink:href="#zoomPlus" x="17" y="9" onmousedown="handleZoom(evt,'in')"/>
                <use id="zoomminus" xlink:href="#zoomMin" x="42" y="9" onmousedown="handleZoom(evt,'out')"/>
                <use id="reset" xlink:href="#resetDef" x="30" y="36" onmousedown="handleReset()"/>
                <g id="arrowUp" xlink:href="#dirArrow" transform="translate(30 24)" onmousedown="handlePan(0,-1)">
                  <use xlink:href="#rim" fill="#404040">
                        <set attributeName="fill" to="#808080" begin="arrowUp.mouseover" end="arrowUp.mouseout"/>
                  </use>
                  <path fill="none" stroke="white" stroke-width="1.5" d="M0,-3.0v7 M-2.5,-0.5L0,-3.0L2.5,-0.5"/>
                </g>
                <g id="arrowRight" xlink:href="#dirArrow" transform="rotate(90) translate(36 -43)" onmousedown="handlePan(1,0)">
                  <use xlink:href="#rim" fill="#404040">
                        <set attributeName="fill" to="#808080" begin="arrowRight.mouseover" end="arrowRight.mouseout"/>
                  </use>
                  <path fill="none" stroke="white" stroke-width="1.5" d="M0,-3.0v7 M-2.5,-0.5L0,-3.0L2.5,-0.5"/>
                </g>
                <g id="arrowDown" xlink:href="#dirArrow" transform="rotate(180) translate(-30 -48)" onmousedown="handlePan(0,1)">
                  <use xlink:href="#rim" fill="#404040">
                        <set attributeName="fill" to="#808080" begin="arrowDown.mouseover" end="arrowDown.mouseout"/>
                  </use>
                  <path fill="none" stroke="white" stroke-width="1.5" d="M0,-3.0v7 M-2.5,-0.5L0,-3.0L2.5,-0.5"/>
                </g>
                <g id="arrowLeft" xlink:href="#dirArrow" transform="rotate(270) translate(-36 17)" onmousedown="handlePan(-1,0)">
                  <use xlink:href="#rim" fill="#404040">
                        <set attributeName="fill" to="#808080" begin="arrowLeft.mouseover" end="arrowLeft.mouseout"/>
                  </use>
                  <path fill="none" stroke="white" stroke-width="1.5" d="M0,-3.0v7 M-2.5,-0.5L0,-3.0L2.5,-0.5"/>
                </g>
        </g>
        <svg viewBox="0 0 15 15" width="100%" height="30px" preserveAspectRatio="xMaxYMin meet">
         <g id="arrow_out" transform="scale(0.3 0.3)">
          <a xlink:href="gameloop_8h__incl_org.svg" target="_base">
           <rect id="button" ry="5" rx="5" y="6" x="6" height="38" width="38"
                fill="#f2f5e9" fill-opacity="0.5" stroke="#606060" stroke-width="1.0"/>
           <path id="arrow"
             d="M 11.500037,31.436501 C 11.940474,20.09759 22.043105,11.32322 32.158766,21.979434 L 37.068811,17.246167 C 37.068811,17.246167 37.088388,32 37.088388,32 L 22.160133,31.978069 C 22.160133,31.978069 26.997745,27.140456 26.997745,27.140456 C 18.528582,18.264221 13.291696,25.230495 11.500037,31.436501 z"
             style="fill:#404040;"/>
          </a>
         </g>
        </svg>
</svg>
