<?xml version="1.0" encoding="UTF-8" standalone="no"?>
<!DOCTYPE svg PUBLIC "-//W3C//DTD SVG 1.1//EN"
 "http://www.w3.org/Graphics/SVG/1.1/DTD/svg11.dtd">
<!-- Generated by graphviz version 2.40.1 (20161225.0304)
 -->
<!-- Title: src/application_server/gameloop.h Pages: 1 -->
<!--zoomable 375 -->
<svg id="main" version="1.1" xmlns="http://www.w3.org/2000/svg" xmlns:xlink="http://www.w3.org/1999/xlink" xml:space="preserve" onload="init(evt)">
<style type="text/css"><![CDATA[
.edge:hover path { stroke: red; }
.edge:hover polygon { stroke: red; fill: red; }
]]></style>
<script type="text/javascript"><![CDATA[
var edges = document.getElementsByTagName('g');
if (edges && edges.length) {
  for (var i=0;i<edges.length;i++) {
    if (edges[i].id.substr(0,4)=='edge') {
      edges[i].setAttribute('class','edge');
    }
  }
}
]]></script>
        <defs>
                <circle id="rim" cx="0" cy="0" r="7"/>
                <circle id="rim2" cx="0" cy="0" r="3.5"/>
                <g id="zoomPlus">
                        <use xlink:href="#rim" fill="#404040">
                                <set attributeName="fill" to="#808080" begin="zoomplus.mouseover" end="zoomplus.mouseout"/>
                        </use>
                        <path d="M-4,0h8M0,-4v8" fill="none" stroke="white" stroke-width="1.5" pointer-events="none"/>
                </g>
                <g id="zoomMin">
                        <use xlink:href="#rim" fill="#404040">
                                <set attributeName="fill" to="#808080" begin="zoomminus.mouseover" end="zoomminus.mouseout"/>
                        </use>
                        <path d="M-4,0h8" fill="none" stroke="white" stroke-width="1.5" pointer-events="none"/>
                </g>
                <g id="dirArrow">
                        <path fill="none" stroke="white" stroke-width="1.5" d="M0,-3.0v7 M-2.5,-0.5L0,-3.0L2.5,-0.5"/>
                </g>
               <g id="resetDef">
                       <use xlink:href="#rim2" fill="#404040">
                               <set attributeName="fill" to="#808080" begin="reset.mouseover" end="reset.mouseout"/>
                       </use>
               </g>
        </defs>

<script type="text/javascript">
var viewWidth = 1098;
var viewHeight = 375;
var sectionId = 'dynsection-0';
</script>
<script xlink:href="svgpan.js"/>
<svg id="graph" class="graph">
<g id="viewport">
<title>src/application_server/gameloop.h</title>
<polygon fill="#ffffff" stroke="transparent" points="-4,4 -4,-371 1094,-371 1094,4 -4,4"/>
<!-- Node1 -->
<g id="node1" class="node">
<title>Node1</title>
<g id="a_node1"><a xlink:title=" ">
<polygon fill="#bfbfbf" stroke="#000000" points="480.5,-336.5 480.5,-366.5 595.5,-366.5 595.5,-336.5 480.5,-336.5"/>
<text text-anchor="start" x="488.5" y="-354.5" font-family="Helvetica,sans-Serif" font-size="10.00" fill="#000000">src/application_server</text>
<text text-anchor="middle" x="538" y="-343.5" font-family="Helvetica,sans-Serif" font-size="10.00" fill="#000000">/gameloop.h</text>
</a>
</g>
</g>
<!-- Node2 -->
<g id="node2" class="node">
<title>Node2</title>
<g id="a_node2"><a xlink:title=" ">
<polygon fill="#ffffff" stroke="#bfbfbf" points="282,-224.5 282,-243.5 340,-243.5 340,-224.5 282,-224.5"/>
<text text-anchor="middle" x="311" y="-231.5" font-family="Helvetica,sans-Serif" font-size="10.00" fill="#000000">QThread</text>
</a>
</g>
</g>
<!-- Node1&#45;&gt;Node2 -->
<g id="edge1" class="edge">
<title>Node1&#45;&gt;Node2</title>
<path fill="none" stroke="#191970" d="M508.7884,-336.3795C464.7038,-313.5603 381.7531,-270.6233 338.6236,-248.2986"/>
<polygon fill="#191970" stroke="#191970" points="340.045,-245.0933 329.5553,-243.6046 336.8272,-251.3098 340.045,-245.0933"/>
</g>
<!-- Node3 -->
<g id="node3" class="node">
<title>Node3</title>
<g id="a_node3"><a xlink:href="view_8h.html" target="_top" xlink:title=" ">
<polygon fill="#ffffff" stroke="#000000" points="825.5,-224.5 825.5,-243.5 870.5,-243.5 870.5,-224.5 825.5,-224.5"/>
<text text-anchor="middle" x="848" y="-231.5" font-family="Helvetica,sans-Serif" font-size="10.00" fill="#000000">view.h</text>
</a>
</g>
</g>
<!-- Node1&#45;&gt;Node3 -->
<g id="edge2" class="edge">
<title>Node1&#45;&gt;Node3</title>
<path fill="none" stroke="#191970" d="M595.7064,-346.3545C665.3342,-339.1773 777.268,-324.2424 811,-300 826.6222,-288.7727 836.4794,-268.7909 842.0548,-253.7456"/>
<polygon fill="#191970" stroke="#191970" points="845.5096,-254.4526 845.379,-243.8586 838.8746,-252.2218 845.5096,-254.4526"/>
</g>
<!-- Node5 -->
<g id="node5" class="node">
<title>Node5</title>
<g id="a_node5"><a xlink:href="scene_8h.html" target="_top" xlink:title=" ">
<polygon fill="#ffffff" stroke="#000000" points="326,-168.5 326,-187.5 378,-187.5 378,-168.5 326,-168.5"/>
<text text-anchor="middle" x="352" y="-175.5" font-family="Helvetica,sans-Serif" font-size="10.00" fill="#000000">scene.h</text>
</a>
</g>
</g>
<!-- Node1&#45;&gt;Node5 -->
<g id="edge34" class="edge">
<title>Node1&#45;&gt;Node5</title>
<path fill="none" stroke="#191970" d="M480.3535,-346.6764C417.03,-337.9208 318.3142,-313.2861 273,-244 258.0805,-221.1879 288.9788,-202.1311 316.3966,-190.452"/>
<polygon fill="#191970" stroke="#191970" points="317.9019,-193.619 325.8687,-186.6346 315.2852,-187.1264 317.9019,-193.619"/>
</g>
<!-- Node21 -->
<g id="node21" class="node">
<title>Node21</title>
<g id="a_node21"><a xlink:href="datamodel_8h.html" target="_top" xlink:title=" ">
<polygon fill="#ffffff" stroke="#000000" points="760.5,-112.5 760.5,-131.5 833.5,-131.5 833.5,-112.5 760.5,-112.5"/>
<text text-anchor="middle" x="797" y="-119.5" font-family="Helvetica,sans-Serif" font-size="10.00" fill="#000000">datamodel.h</text>
</a>
</g>
</g>
<!-- Node1&#45;&gt;Node21 -->
<g id="edge35" class="edge">
<title>Node1&#45;&gt;Node21</title>
<path fill="none" stroke="#191970" d="M595.529,-336.7073C645.3562,-321.1884 716.2749,-292.2052 761,-244 787.4294,-215.5141 794.5345,-168.5491 796.3939,-141.9663"/>
<polygon fill="#191970" stroke="#191970" points="799.907,-141.795 796.9203,-131.6299 792.9161,-141.4388 799.907,-141.795"/>
</g>
<!-- Node27 -->
<g id="node27" class="node">
<title>Node27</title>
<g id="a_node27"><a xlink:href="client_8h.html" target="_top" xlink:title=" ">
<polygon fill="#ffffff" stroke="#000000" points="514.5,-280.5 514.5,-299.5 561.5,-299.5 561.5,-280.5 514.5,-280.5"/>
<text text-anchor="middle" x="538" y="-287.5" font-family="Helvetica,sans-Serif" font-size="10.00" fill="#000000">client.h</text>
</a>
</g>
</g>
<!-- Node1&#45;&gt;Node27 -->
<g id="edge36" class="edge">
<title>Node1&#45;&gt;Node27</title>
<path fill="none" stroke="#191970" d="M538,-336.2977C538,-328.3834 538,-318.6043 538,-310.0759"/>
<polygon fill="#191970" stroke="#191970" points="541.5001,-309.8469 538,-299.8469 534.5001,-309.847 541.5001,-309.8469"/>
</g>
<!-- Node4 -->
<g id="node4" class="node">
<title>Node4</title>
<g id="a_node4"><a xlink:title=" ">
<polygon fill="#ffffff" stroke="#bfbfbf" points="863.5,-168.5 863.5,-187.5 950.5,-187.5 950.5,-168.5 863.5,-168.5"/>
<text text-anchor="middle" x="907" y="-175.5" font-family="Helvetica,sans-Serif" font-size="10.00" fill="#000000">QGraphicsView</text>
</a>
</g>
</g>
<!-- Node3&#45;&gt;Node4 -->
<g id="edge3" class="edge">
<title>Node3&#45;&gt;Node4</title>
<path fill="none" stroke="#191970" d="M858.277,-224.2455C866.8218,-216.1352 879.1778,-204.4075 889.3085,-194.7919"/>
<polygon fill="#191970" stroke="#191970" points="891.9972,-197.0655 896.8408,-187.6427 887.1782,-191.9884 891.9972,-197.0655"/>
</g>
<!-- Node3&#45;&gt;Node5 -->
<g id="edge4" class="edge">
<title>Node3&#45;&gt;Node5</title>
<path fill="none" stroke="#191970" d="M825.399,-231.4483C746.8518,-222.58 485.2601,-193.0455 388.4431,-182.1145"/>
<polygon fill="#191970" stroke="#191970" points="388.5974,-178.6098 378.2678,-180.9657 387.812,-185.5656 388.5974,-178.6098"/>
</g>
<!-- Node3&#45;&gt;Node21 -->
<g id="edge28" class="edge">
<title>Node3&#45;&gt;Node21</title>
<path fill="none" stroke="#191970" d="M843.6518,-224.4509C835.2209,-205.936 816.5162,-164.8591 805.5237,-140.7187"/>
<polygon fill="#191970" stroke="#191970" points="808.6667,-139.1753 801.3372,-131.5249 802.2961,-142.0762 808.6667,-139.1753"/>
</g>
<!-- Node24 -->
<g id="node24" class="node">
<title>Node24</title>
<g id="a_node24"><a xlink:href="tooltipmenu_8h.html" target="_top" xlink:title=" ">
<polygon fill="#ffffff" stroke="#000000" points="925.5,-112.5 925.5,-131.5 1000.5,-131.5 1000.5,-112.5 925.5,-112.5"/>
<text text-anchor="middle" x="963" y="-119.5" font-family="Helvetica,sans-Serif" font-size="10.00" fill="#000000">tooltipmenu.h</text>
</a>
</g>
</g>
<!-- Node3&#45;&gt;Node24 -->
<g id="edge29" class="edge">
<title>Node3&#45;&gt;Node24</title>
<path fill="none" stroke="#191970" d="M870.9299,-231.7386C897.293,-227.793 939.5543,-217.0514 960,-188 969.3761,-174.6774 969.2718,-155.8221 967.3205,-141.6742"/>
<polygon fill="#191970" stroke="#191970" points="970.7126,-140.7597 965.5056,-131.5327 963.8221,-141.9929 970.7126,-140.7597"/>
</g>
<!-- Node6 -->
<g id="node6" class="node">
<title>Node6</title>
<g id="a_node6"><a xlink:title=" ">
<polygon fill="#ffffff" stroke="#bfbfbf" points="540,-112.5 540,-131.5 634,-131.5 634,-112.5 540,-112.5"/>
<text text-anchor="middle" x="587" y="-119.5" font-family="Helvetica,sans-Serif" font-size="10.00" fill="#000000">QGraphicsScene</text>
</a>
</g>
</g>
<!-- Node5&#45;&gt;Node6 -->
<g id="edge5" class="edge">
<title>Node5&#45;&gt;Node6</title>
<path fill="none" stroke="#191970" d="M378.2377,-171.3875C382.8224,-170.2472 387.5483,-169.0815 392,-168 440.8169,-156.1405 496.618,-143.0213 535.9848,-133.8385"/>
<polygon fill="#191970" stroke="#191970" points="536.9316,-137.2117 545.8763,-131.5334 535.3428,-130.3944 536.9316,-137.2117"/>
</g>
<!-- Node7 -->
<g id="node7" class="node">
<title>Node7</title>
<g id="a_node7"><a xlink:title=" ">
<polygon fill="#ffffff" stroke="#bfbfbf" points="0,-112.5 0,-131.5 104,-131.5 104,-112.5 0,-112.5"/>
<text text-anchor="middle" x="52" y="-119.5" font-family="Helvetica,sans-Serif" font-size="10.00" fill="#000000">QGraphicsTextItem</text>
</a>
</g>
</g>
<!-- Node5&#45;&gt;Node7 -->
<g id="edge6" class="edge">
<title>Node5&#45;&gt;Node7</title>
<path fill="none" stroke="#191970" d="M325.9018,-173.1283C278.8119,-164.3382 178.4733,-145.6084 113.1963,-133.4233"/>
<polygon fill="#191970" stroke="#191970" points="113.5067,-129.9209 103.0343,-131.5264 112.2222,-136.802 113.5067,-129.9209"/>
</g>
<!-- Node8 -->
<g id="node8" class="node">
<title>Node8</title>
<g id="a_node8"><a xlink:title=" ">
<polygon fill="#ffffff" stroke="#bfbfbf" points="122.5,-112.5 122.5,-131.5 205.5,-131.5 205.5,-112.5 122.5,-112.5"/>
<text text-anchor="middle" x="164" y="-119.5" font-family="Helvetica,sans-Serif" font-size="10.00" fill="#000000">QGraphicsItem</text>
</a>
</g>
</g>
<!-- Node5&#45;&gt;Node8 -->
<g id="edge7" class="edge">
<title>Node5&#45;&gt;Node8</title>
<path fill="none" stroke="#191970" d="M325.8594,-170.2134C294.8726,-160.9833 242.82,-145.4783 206.1241,-134.5476"/>
<polygon fill="#191970" stroke="#191970" points="206.7945,-131.0954 196.2115,-131.5949 204.7962,-137.8041 206.7945,-131.0954"/>
</g>
<!-- Node9 -->
<g id="node9" class="node">
<title>Node9</title>
<g id="a_node9"><a xlink:title=" ">
<polygon fill="#ffffff" stroke="#bfbfbf" points="255,-.5 255,-19.5 359,-19.5 359,-.5 255,-.5"/>
<text text-anchor="middle" x="307" y="-7.5" font-family="Helvetica,sans-Serif" font-size="10.00" fill="#000000">QGraphicsRectItem</text>
</a>
</g>
</g>
<!-- Node5&#45;&gt;Node9 -->
<g id="edge8" class="edge">
<title>Node5&#45;&gt;Node9</title>
<path fill="none" stroke="#191970" d="M350.0691,-168.4226C345.8219,-147.7308 335.0805,-97.3786 323,-56 320.4008,-47.0971 317.0916,-37.3786 314.158,-29.1777"/>
<polygon fill="#191970" stroke="#191970" points="317.443,-27.9697 310.7247,-19.7774 310.8678,-30.3712 317.443,-27.9697"/>
</g>
<!-- Node10 -->
<g id="node10" class="node">
<title>Node10</title>
<g id="a_node10"><a xlink:title=" ">
<polygon fill="#ffffff" stroke="#bfbfbf" points="408.5,-112.5 408.5,-131.5 521.5,-131.5 521.5,-112.5 408.5,-112.5"/>
<text text-anchor="middle" x="465" y="-119.5" font-family="Helvetica,sans-Serif" font-size="10.00" fill="#000000">QGraphicsEllipseItem</text>
</a>
</g>
</g>
<!-- Node5&#45;&gt;Node10 -->
<g id="edge9" class="edge">
<title>Node5&#45;&gt;Node10</title>
<path fill="none" stroke="#191970" d="M371.4254,-168.3733C389.4021,-159.4644 416.3441,-146.1127 436.709,-136.0203"/>
<polygon fill="#191970" stroke="#191970" points="438.4222,-139.0776 445.8281,-131.5011 435.3139,-132.8055 438.4222,-139.0776"/>
</g>
<!-- Node11 -->
<g id="node11" class="node">
<title>Node11</title>
<g id="a_node11"><a xlink:href="maptile_8h.html" target="_top" xlink:title=" ">
<polygon fill="#ffffff" stroke="#000000" points="652,-112.5 652,-131.5 708,-131.5 708,-112.5 652,-112.5"/>
<text text-anchor="middle" x="680" y="-119.5" font-family="Helvetica,sans-Serif" font-size="10.00" fill="#000000">maptile.h</text>
</a>
</g>
</g>
<!-- Node5&#45;&gt;Node11 -->
<g id="edge10" class="edge">
<title>Node5&#45;&gt;Node11</title>
<path fill="none" stroke="#191970" d="M378.1638,-171.0507C382.7567,-169.9479 387.5045,-168.8819 392,-168 499.4573,-146.9194 530.8561,-154.29 641.8879,-132.0236"/>
<polygon fill="#191970" stroke="#191970" points="642.705,-135.429 651.803,-129.9997 641.305,-128.5704 642.705,-135.429"/>
</g>
<!-- Node16 -->
<g id="node16" class="node">
<title>Node16</title>
<g id="a_node16"><a xlink:href="graphicsmanager_8h.html" target="_top" xlink:title=" ">
<polygon fill="#ffffff" stroke="#000000" points="434.5,-56.5 434.5,-75.5 537.5,-75.5 537.5,-56.5 434.5,-56.5"/>
<text text-anchor="middle" x="486" y="-63.5" font-family="Helvetica,sans-Serif" font-size="10.00" fill="#000000">graphicsmanager.h</text>
</a>
</g>
</g>
<!-- Node5&#45;&gt;Node16 -->
<g id="edge19" class="edge">
<title>Node5&#45;&gt;Node16</title>
<path fill="none" stroke="#191970" d="M356.9307,-168.4134C364.4532,-154.5332 379.9504,-128.6801 399,-112 414.3658,-98.5455 434.3512,-87.6262 451.2915,-79.8082"/>
<polygon fill="#191970" stroke="#191970" points="453.1327,-82.8205 460.8558,-75.5676 450.2954,-76.4212 453.1327,-82.8205"/>
</g>
<!-- Node19 -->
<g id="node19" class="node">
<title>Node19</title>
<g id="a_node19"><a xlink:href="player_8h.html" target="_top" xlink:title=" ">
<polygon fill="#ffffff" stroke="#000000" points="224,-112.5 224,-131.5 276,-131.5 276,-112.5 224,-112.5"/>
<text text-anchor="middle" x="250" y="-119.5" font-family="Helvetica,sans-Serif" font-size="10.00" fill="#000000">player.h</text>
</a>
</g>
</g>
<!-- Node5&#45;&gt;Node19 -->
<g id="edge20" class="edge">
<title>Node5&#45;&gt;Node19</title>
<path fill="none" stroke="#191970" d="M334.233,-168.2455C318.2905,-159.4928 294.6741,-146.527 276.5011,-136.5496"/>
<polygon fill="#191970" stroke="#191970" points="278.0137,-133.3873 267.5634,-131.6427 274.6448,-139.5233 278.0137,-133.3873"/>
</g>
<!-- Node20 -->
<g id="node20" class="node">
<title>Node20</title>
<g id="a_node20"><a xlink:href="highlighter_8h.html" target="_top" xlink:title=" ">
<polygon fill="#ffffff" stroke="#000000" points="244,-56.5 244,-75.5 314,-75.5 314,-56.5 244,-56.5"/>
<text text-anchor="middle" x="279" y="-63.5" font-family="Helvetica,sans-Serif" font-size="10.00" fill="#000000">highlighter.h</text>
</a>
</g>
</g>
<!-- Node5&#45;&gt;Node20 -->
<g id="edge23" class="edge">
<title>Node5&#45;&gt;Node20</title>
<path fill="none" stroke="#191970" d="M345.7761,-168.4509C333.6005,-149.7707 306.4557,-108.1238 290.7818,-84.0761"/>
<polygon fill="#191970" stroke="#191970" points="293.6008,-81.9913 285.2082,-75.5249 287.7365,-85.8137 293.6008,-81.9913"/>
</g>
<!-- Node5&#45;&gt;Node21 -->
<g id="edge24" class="edge">
<title>Node5&#45;&gt;Node21</title>
<path fill="none" stroke="#191970" d="M378.1754,-174.706C451.0824,-165.5312 657.2102,-139.5915 750.3223,-127.874"/>
<polygon fill="#191970" stroke="#191970" points="750.8197,-131.3391 760.3044,-126.6179 749.9457,-124.3939 750.8197,-131.3391"/>
</g>
<!-- Node12 -->
<g id="node12" class="node">
<title>Node12</title>
<g id="a_node12"><a xlink:title=" ">
<polygon fill="#ffffff" stroke="#bfbfbf" points="555.5,-56.5 555.5,-75.5 672.5,-75.5 672.5,-56.5 555.5,-56.5"/>
<text text-anchor="middle" x="614" y="-63.5" font-family="Helvetica,sans-Serif" font-size="10.00" fill="#000000">QGraphicsPixmapItem</text>
</a>
</g>
</g>
<!-- Node11&#45;&gt;Node12 -->
<g id="edge11" class="edge">
<title>Node11&#45;&gt;Node12</title>
<path fill="none" stroke="#191970" d="M668.5037,-112.2455C658.7558,-103.9746 644.5741,-91.9416 633.1202,-82.2232"/>
<polygon fill="#191970" stroke="#191970" points="635.2541,-79.4437 625.3646,-75.6427 630.7253,-84.7813 635.2541,-79.4437"/>
</g>
<!-- Node13 -->
<g id="node13" class="node">
<title>Node13</title>
<g id="a_node13"><a xlink:href="city_8h.html" target="_top" xlink:title=" ">
<polygon fill="#ffffff" stroke="#000000" points="690.5,-56.5 690.5,-75.5 729.5,-75.5 729.5,-56.5 690.5,-56.5"/>
<text text-anchor="middle" x="710" y="-63.5" font-family="Helvetica,sans-Serif" font-size="10.00" fill="#000000">city.h</text>
</a>
</g>
</g>
<!-- Node11&#45;&gt;Node13 -->
<g id="edge12" class="edge">
<title>Node11&#45;&gt;Node13</title>
<path fill="none" stroke="#191970" d="M685.2256,-112.2455C689.3123,-104.617 695.1135,-93.7881 700.075,-84.5267"/>
<polygon fill="#191970" stroke="#191970" points="703.1972,-86.1103 704.8343,-75.6427 697.0268,-82.8047 703.1972,-86.1103"/>
</g>
<!-- Node11&#45;&gt;Node16 -->
<g id="edge15" class="edge">
<title>Node11&#45;&gt;Node16</title>
<path fill="none" stroke="#191970" d="M651.7907,-113.8571C619.4739,-104.5285 566.1687,-89.1415 528.7457,-78.339"/>
<polygon fill="#191970" stroke="#191970" points="529.6983,-74.9711 519.1199,-75.5604 527.7569,-81.6965 529.6983,-74.9711"/>
</g>
<!-- Node14 -->
<g id="node14" class="node">
<title>Node14</title>
<g id="a_node14"><a xlink:title=" ">
<polygon fill="#ffffff" stroke="#bfbfbf" points="658.5,-.5 658.5,-19.5 699.5,-19.5 699.5,-.5 658.5,-.5"/>
<text text-anchor="middle" x="679" y="-7.5" font-family="Helvetica,sans-Serif" font-size="10.00" fill="#000000">string</text>
</a>
</g>
</g>
<!-- Node13&#45;&gt;Node14 -->
<g id="edge13" class="edge">
<title>Node13&#45;&gt;Node14</title>
<path fill="none" stroke="#191970" d="M704.6002,-56.2455C700.3773,-48.617 694.3827,-37.7881 689.2559,-28.5267"/>
<polygon fill="#191970" stroke="#191970" points="692.2432,-26.6965 684.3379,-19.6427 686.119,-30.0867 692.2432,-26.6965"/>
</g>
<!-- Node15 -->
<g id="node15" class="node">
<title>Node15</title>
<g id="a_node15"><a xlink:title=" ">
<polygon fill="#ffffff" stroke="#bfbfbf" points="718,-.5 718,-19.5 762,-19.5 762,-.5 718,-.5"/>
<text text-anchor="middle" x="740" y="-7.5" font-family="Helvetica,sans-Serif" font-size="10.00" fill="#000000">vector</text>
</a>
</g>
</g>
<!-- Node13&#45;&gt;Node15 -->
<g id="edge14" class="edge">
<title>Node13&#45;&gt;Node15</title>
<path fill="none" stroke="#191970" d="M715.2256,-56.2455C719.3123,-48.617 725.1135,-37.7881 730.075,-28.5267"/>
<polygon fill="#191970" stroke="#191970" points="733.1972,-30.1103 734.8343,-19.6427 727.0268,-26.8047 733.1972,-30.1103"/>
</g>
<!-- Node16&#45;&gt;Node14 -->
<g id="edge18" class="edge">
<title>Node16&#45;&gt;Node14</title>
<path fill="none" stroke="#191970" d="M519.1779,-56.3733C555.5705,-45.8137 613.4754,-29.0123 648.6886,-18.795"/>
<polygon fill="#191970" stroke="#191970" points="649.7821,-22.1222 658.4106,-15.9741 647.8314,-15.3994 649.7821,-22.1222"/>
</g>
<!-- Node17 -->
<g id="node17" class="node">
<title>Node17</title>
<g id="a_node17"><a xlink:title=" ">
<polygon fill="#ffffff" stroke="#bfbfbf" points="475,-.5 475,-19.5 533,-19.5 533,-.5 475,-.5"/>
<text text-anchor="middle" x="504" y="-7.5" font-family="Helvetica,sans-Serif" font-size="10.00" fill="#000000">QPixmap</text>
</a>
</g>
</g>
<!-- Node16&#45;&gt;Node17 -->
<g id="edge16" class="edge">
<title>Node16&#45;&gt;Node17</title>
<path fill="none" stroke="#191970" d="M489.1354,-56.2455C491.51,-48.8579 494.8493,-38.4689 497.7615,-29.4087"/>
<polygon fill="#191970" stroke="#191970" points="501.1725,-30.234 500.9006,-19.6427 494.5083,-28.0919 501.1725,-30.234"/>
</g>
<!-- Node18 -->
<g id="node18" class="node">
<title>Node18</title>
<g id="a_node18"><a xlink:title=" ">
<polygon fill="#ffffff" stroke="#bfbfbf" points="403.5,-.5 403.5,-19.5 456.5,-19.5 456.5,-.5 403.5,-.5"/>
<text text-anchor="middle" x="430" y="-7.5" font-family="Helvetica,sans-Serif" font-size="10.00" fill="#000000">QImage</text>
</a>
</g>
</g>
<!-- Node16&#45;&gt;Node18 -->
<g id="edge17" class="edge">
<title>Node16&#45;&gt;Node18</title>
<path fill="none" stroke="#191970" d="M476.2455,-56.2455C468.1352,-48.1352 456.4075,-36.4075 446.7919,-26.7919"/>
<polygon fill="#191970" stroke="#191970" points="449.1887,-24.2389 439.6427,-19.6427 444.2389,-29.1887 449.1887,-24.2389"/>
</g>
<!-- Node19&#45;&gt;Node20 -->
<g id="edge21" class="edge">
<title>Node19&#45;&gt;Node20</title>
<path fill="none" stroke="#191970" d="M255.0514,-112.2455C259.0019,-104.617 264.6097,-93.7881 269.4058,-84.5267"/>
<polygon fill="#191970" stroke="#191970" points="272.5159,-86.1321 274.0065,-75.6427 266.2999,-82.9131 272.5159,-86.1321"/>
</g>
<!-- Node20&#45;&gt;Node9 -->
<g id="edge22" class="edge">
<title>Node20&#45;&gt;Node9</title>
<path fill="none" stroke="#191970" d="M283.8772,-56.2455C287.6513,-48.6973 292.9921,-38.0158 297.5901,-28.8197"/>
<polygon fill="#191970" stroke="#191970" points="300.837,-30.1522 302.1787,-19.6427 294.576,-27.0217 300.837,-30.1522"/>
</g>
<!-- Node21&#45;&gt;Node14 -->
<g id="edge25" class="edge">
<title>Node21&#45;&gt;Node14</title>
<path fill="none" stroke="#191970" d="M789.2924,-112.065C778.6691,-98.6568 758.608,-74.3384 739,-56 727.2356,-44.9973 712.9625,-33.9728 701.2892,-25.4757"/>
<polygon fill="#191970" stroke="#191970" points="703.1236,-22.4845 692.954,-19.5128 699.0507,-28.1777 703.1236,-22.4845"/>
</g>
<!-- Node22 -->
<g id="node22" class="node">
<title>Node22</title>
<g id="a_node22"><a xlink:title=" ">
<polygon fill="#ffffff" stroke="#bfbfbf" points="860.5,-56.5 860.5,-75.5 909.5,-75.5 909.5,-56.5 860.5,-56.5"/>
<text text-anchor="middle" x="885" y="-63.5" font-family="Helvetica,sans-Serif" font-size="10.00" fill="#000000">QLabel</text>
</a>
</g>
</g>
<!-- Node21&#45;&gt;Node22 -->
<g id="edge26" class="edge">
<title>Node21&#45;&gt;Node22</title>
<path fill="none" stroke="#191970" d="M812.3284,-112.2455C825.8303,-103.6534 845.7122,-91.0014 861.2686,-81.1018"/>
<polygon fill="#191970" stroke="#191970" points="863.2897,-83.9643 869.8472,-75.6427 859.5315,-78.0587 863.2897,-83.9643"/>
</g>
<!-- Node23 -->
<g id="node23" class="node">
<title>Node23</title>
<g id="a_node23"><a xlink:title=" ">
<polygon fill="#ffffff" stroke="#bfbfbf" points="786,-56.5 786,-75.5 842,-75.5 842,-56.5 786,-56.5"/>
<text text-anchor="middle" x="814" y="-63.5" font-family="Helvetica,sans-Serif" font-size="10.00" fill="#000000">QWidget</text>
</a>
</g>
</g>
<!-- Node21&#45;&gt;Node23 -->
<g id="edge27" class="edge">
<title>Node21&#45;&gt;Node23</title>
<path fill="none" stroke="#191970" d="M799.9612,-112.2455C802.2038,-104.8579 805.3577,-94.4689 808.1081,-85.4087"/>
<polygon fill="#191970" stroke="#191970" points="811.517,-86.2282 811.0728,-75.6427 804.8188,-84.1948 811.517,-86.2282"/>
</g>
<!-- Node24&#45;&gt;Node22 -->
<g id="edge31" class="edge">
<title>Node24&#45;&gt;Node22</title>
<path fill="none" stroke="#191970" d="M949.4134,-112.2455C937.6695,-103.814 920.4801,-91.4729 906.8118,-81.6598"/>
<polygon fill="#191970" stroke="#191970" points="908.5954,-78.6316 898.4309,-75.6427 904.5129,-84.3179 908.5954,-78.6316"/>
</g>
<!-- Node24&#45;&gt;Node23 -->
<g id="edge30" class="edge">
<title>Node24&#45;&gt;Node23</title>
<path fill="none" stroke="#191970" d="M937.386,-112.3733C912.9313,-103.1822 875.8946,-89.2624 848.7791,-79.0713"/>
<polygon fill="#191970" stroke="#191970" points="849.8719,-75.7431 839.2798,-75.5011 847.4091,-82.2956 849.8719,-75.7431"/>
</g>
<!-- Node25 -->
<g id="node25" class="node">
<title>Node25</title>
<g id="a_node25"><a xlink:title=" ">
<polygon fill="#ffffff" stroke="#bfbfbf" points="928,-56.5 928,-75.5 998,-75.5 998,-56.5 928,-56.5"/>
<text text-anchor="middle" x="963" y="-63.5" font-family="Helvetica,sans-Serif" font-size="10.00" fill="#000000">QGroupBox</text>
</a>
</g>
</g>
<!-- Node24&#45;&gt;Node25 -->
<g id="edge32" class="edge">
<title>Node24&#45;&gt;Node25</title>
<path fill="none" stroke="#191970" d="M963,-112.2455C963,-104.9382 963,-94.6944 963,-85.7046"/>
<polygon fill="#191970" stroke="#191970" points="966.5001,-85.6426 963,-75.6427 959.5001,-85.6427 966.5001,-85.6426"/>
</g>
<!-- Node26 -->
<g id="node26" class="node">
<title>Node26</title>
<g id="a_node26"><a xlink:title=" ">
<polygon fill="#ffffff" stroke="#bfbfbf" points="1016,-56.5 1016,-75.5 1090,-75.5 1090,-56.5 1016,-56.5"/>
<text text-anchor="middle" x="1053" y="-63.5" font-family="Helvetica,sans-Serif" font-size="10.00" fill="#000000">QGridLayout</text>
</a>
</g>
</g>
<!-- Node24&#45;&gt;Node26 -->
<g id="edge33" class="edge">
<title>Node24&#45;&gt;Node26</title>
<path fill="none" stroke="#191970" d="M978.6768,-112.2455C992.4856,-103.6534 1012.8193,-91.0014 1028.7292,-81.1018"/>
<polygon fill="#191970" stroke="#191970" points="1030.8613,-83.8974 1037.5028,-75.6427 1027.1632,-77.954 1030.8613,-83.8974"/>
</g>
<!-- Node27&#45;&gt;Node2 -->
<g id="edge39" class="edge">
<title>Node27&#45;&gt;Node2</title>
<path fill="none" stroke="#191970" d="M514.1361,-284.1129C475.1099,-274.4853 397.2654,-255.2813 350.0882,-243.6429"/>
<polygon fill="#191970" stroke="#191970" points="350.7733,-240.2071 340.226,-241.2099 349.0966,-247.0033 350.7733,-240.2071"/>
</g>
<!-- Node27&#45;&gt;Node3 -->
<g id="edge45" class="edge">
<title>Node27&#45;&gt;Node3</title>
<path fill="none" stroke="#191970" d="M561.5548,-285.7449C616.3177,-275.8523 752.313,-251.2854 815.1758,-239.9295"/>
<polygon fill="#191970" stroke="#191970" points="816.1032,-243.3187 825.3217,-238.0967 814.8588,-236.4302 816.1032,-243.3187"/>
</g>
<!-- Node27&#45;&gt;Node5 -->
<g id="edge42" class="edge">
<title>Node27&#45;&gt;Node5</title>
<path fill="none" stroke="#191970" d="M514.3866,-287.724C483.3746,-283.6695 428.5807,-272.7188 392,-244 376.5658,-231.8829 365.6997,-212.0294 359.2264,-197.2568"/>
<polygon fill="#191970" stroke="#191970" points="362.2995,-195.5231 355.2866,-187.5814 355.8164,-198.163 362.2995,-195.5231"/>
</g>
<!-- Node27&#45;&gt;Node11 -->
<g id="edge43" class="edge">
<title>Node27&#45;&gt;Node11</title>
<path fill="none" stroke="#191970" d="M514.2002,-286.17C474.3782,-278.6861 400.8633,-259.6507 425,-224 437.8029,-205.0897 574.2515,-157.3594 642.1148,-134.5344"/>
<polygon fill="#191970" stroke="#191970" points="643.237,-137.8497 651.6068,-131.3539 641.0129,-131.2124 643.237,-137.8497"/>
</g>
<!-- Node27&#45;&gt;Node21 -->
<g id="edge44" class="edge">
<title>Node27&#45;&gt;Node21</title>
<path fill="none" stroke="#191970" d="M561.5662,-287.251C608.7316,-281.3383 712.5659,-266.1311 740,-244 756.9277,-230.3444 779.3592,-172.0925 790.3521,-141.2836"/>
<polygon fill="#191970" stroke="#191970" points="793.7245,-142.2436 793.7356,-131.6487 787.1199,-139.9242 793.7245,-142.2436"/>
</g>
<!-- Node28 -->
<g id="node28" class="node">
<title>Node28</title>
<g id="a_node28"><a xlink:title=" ">
<polygon fill="#ffffff" stroke="#bfbfbf" points="657,-224.5 657,-243.5 731,-243.5 731,-224.5 657,-224.5"/>
<text text-anchor="middle" x="694" y="-231.5" font-family="Helvetica,sans-Serif" font-size="10.00" fill="#000000">QTcpSocket</text>
</a>
</g>
</g>
<!-- Node27&#45;&gt;Node28 -->
<g id="edge37" class="edge">
<title>Node27&#45;&gt;Node28</title>
<path fill="none" stroke="#191970" d="M561.693,-281.4948C587.2703,-272.3132 628.3141,-257.5796 657.909,-246.9558"/>
<polygon fill="#191970" stroke="#191970" points="659.2383,-250.1973 667.4677,-243.5244 656.8732,-243.6089 659.2383,-250.1973"/>
</g>
<!-- Node29 -->
<g id="node29" class="node">
<title>Node29</title>
<g id="a_node29"><a xlink:title=" ">
<polygon fill="#ffffff" stroke="#bfbfbf" points="434.5,-224.5 434.5,-243.5 487.5,-243.5 487.5,-224.5 434.5,-224.5"/>
<text text-anchor="middle" x="461" y="-231.5" font-family="Helvetica,sans-Serif" font-size="10.00" fill="#000000">QObject</text>
</a>
</g>
</g>
<!-- Node27&#45;&gt;Node29 -->
<g id="edge38" class="edge">
<title>Node27&#45;&gt;Node29</title>
<path fill="none" stroke="#191970" d="M524.5876,-280.2455C512.9943,-271.814 496.0252,-259.4729 482.5322,-249.6598"/>
<polygon fill="#191970" stroke="#191970" points="484.4047,-246.6938 474.2587,-243.6427 480.2874,-252.355 484.4047,-246.6938"/>
</g>
<!-- Node30 -->
<g id="node30" class="node">
<title>Node30</title>
<g id="a_node30"><a xlink:title=" ">
<polygon fill="#ffffff" stroke="#bfbfbf" points="505.5,-224.5 505.5,-243.5 570.5,-243.5 570.5,-224.5 505.5,-224.5"/>
<text text-anchor="middle" x="538" y="-231.5" font-family="Helvetica,sans-Serif" font-size="10.00" fill="#000000">QStringList</text>
</a>
</g>
</g>
<!-- Node27&#45;&gt;Node30 -->
<g id="edge40" class="edge">
<title>Node27&#45;&gt;Node30</title>
<path fill="none" stroke="#191970" d="M538,-280.2455C538,-272.9382 538,-262.6944 538,-253.7046"/>
<polygon fill="#191970" stroke="#191970" points="541.5001,-253.6426 538,-243.6427 534.5001,-253.6427 541.5001,-253.6426"/>
</g>
<!-- Node31 -->
<g id="node31" class="node">
<title>Node31</title>
<g id="a_node31"><a xlink:title=" ">
<polygon fill="#ffffff" stroke="#bfbfbf" points="589,-224.5 589,-243.5 639,-243.5 639,-224.5 589,-224.5"/>
<text text-anchor="middle" x="614" y="-231.5" font-family="Helvetica,sans-Serif" font-size="10.00" fill="#000000">QString</text>
</a>
</g>
</g>
<!-- Node27&#45;&gt;Node31 -->
<g id="edge41" class="edge">
<title>Node27&#45;&gt;Node31</title>
<path fill="none" stroke="#191970" d="M551.2382,-280.2455C562.681,-271.814 579.4296,-259.4729 592.7475,-249.6598"/>
<polygon fill="#191970" stroke="#191970" points="594.9391,-252.3924 600.9135,-243.6427 590.7867,-246.757 594.9391,-252.3924"/>
</g>
</g>
</svg>
        <g id="navigator" transform="translate(0 0)" fill="#404254">
                <rect fill="#f2f5e9" fill-opacity="0.5" stroke="#606060" stroke-width=".5" x="0" y="0" width="60" height="60"/>
                <use id="zoomplus" xlink:href="#zoomPlus" x="17" y="9" onmousedown="handleZoom(evt,'in')"/>
                <use id="zoomminus" xlink:href="#zoomMin" x="42" y="9" onmousedown="handleZoom(evt,'out')"/>
                <use id="reset" xlink:href="#resetDef" x="30" y="36" onmousedown="handleReset()"/>
                <g id="arrowUp" xlink:href="#dirArrow" transform="translate(30 24)" onmousedown="handlePan(0,-1)">
                  <use xlink:href="#rim" fill="#404040">
                        <set attributeName="fill" to="#808080" begin="arrowUp.mouseover" end="arrowUp.mouseout"/>
                  </use>
                  <path fill="none" stroke="white" stroke-width="1.5" d="M0,-3.0v7 M-2.5,-0.5L0,-3.0L2.5,-0.5"/>
                </g>
                <g id="arrowRight" xlink:href="#dirArrow" transform="rotate(90) translate(36 -43)" onmousedown="handlePan(1,0)">
                  <use xlink:href="#rim" fill="#404040">
                        <set attributeName="fill" to="#808080" begin="arrowRight.mouseover" end="arrowRight.mouseout"/>
                  </use>
                  <path fill="none" stroke="white" stroke-width="1.5" d="M0,-3.0v7 M-2.5,-0.5L0,-3.0L2.5,-0.5"/>
                </g>
                <g id="arrowDown" xlink:href="#dirArrow" transform="rotate(180) translate(-30 -48)" onmousedown="handlePan(0,1)">
                  <use xlink:href="#rim" fill="#404040">
                        <set attributeName="fill" to="#808080" begin="arrowDown.mouseover" end="arrowDown.mouseout"/>
                  </use>
                  <path fill="none" stroke="white" stroke-width="1.5" d="M0,-3.0v7 M-2.5,-0.5L0,-3.0L2.5,-0.5"/>
                </g>
                <g id="arrowLeft" xlink:href="#dirArrow" transform="rotate(270) translate(-36 17)" onmousedown="handlePan(-1,0)">
                  <use xlink:href="#rim" fill="#404040">
                        <set attributeName="fill" to="#808080" begin="arrowLeft.mouseover" end="arrowLeft.mouseout"/>
                  </use>
                  <path fill="none" stroke="white" stroke-width="1.5" d="M0,-3.0v7 M-2.5,-0.5L0,-3.0L2.5,-0.5"/>
                </g>
        </g>
        <svg viewBox="0 0 15 15" width="100%" height="30px" preserveAspectRatio="xMaxYMin meet">
         <g id="arrow_out" transform="scale(0.3 0.3)">
          <a xlink:href="gameloop_8h__incl_org.svg" target="_base">
           <rect id="button" ry="5" rx="5" y="6" x="6" height="38" width="38"
                fill="#f2f5e9" fill-opacity="0.5" stroke="#606060" stroke-width="1.0"/>
           <path id="arrow"
             d="M 11.500037,31.436501 C 11.940474,20.09759 22.043105,11.32322 32.158766,21.979434 L 37.068811,17.246167 C 37.068811,17.246167 37.088388,32 37.088388,32 L 22.160133,31.978069 C 22.160133,31.978069 26.997745,27.140456 26.997745,27.140456 C 18.528582,18.264221 13.291696,25.230495 11.500037,31.436501 z"
             style="fill:#404040;"/>
          </a>
         </g>
        </svg>
</svg>
