<?xml version="1.0" encoding="UTF-8" standalone="no"?>
<!DOCTYPE svg PUBLIC "-//W3C//DTD SVG 1.1//EN"
 "http://www.w3.org/Graphics/SVG/1.1/DTD/svg11.dtd">
<!-- Generated by graphviz version 2.40.1 (20161225.0304)
 -->
<!-- Title: src/application_server/goodselector.h Pages: 1 -->
<svg width="475pt" height="307pt"
 viewBox="0.00 0.00 475.00 307.00" xmlns="http://www.w3.org/2000/svg" xmlns:xlink="http://www.w3.org/1999/xlink">
<g id="graph0" class="graph" transform="scale(1 1) rotate(0) translate(4 303)">
<title>src/application_server/goodselector.h</title>
<polygon fill="#ffffff" stroke="transparent" points="-4,4 -4,-303 471,-303 471,4 -4,4"/>
<!-- Node1 -->
<g id="node1" class="node">
<title>Node1</title>
<g id="a_node1"><a xlink:title=" ">
<polygon fill="#bfbfbf" stroke="#000000" points="285,-268.5 285,-298.5 400,-298.5 400,-268.5 285,-268.5"/>
<text text-anchor="start" x="293" y="-286.5" font-family="Helvetica,sans-Serif" font-size="10.00" fill="#000000">src/application_server</text>
<text text-anchor="middle" x="342.5" y="-275.5" font-family="Helvetica,sans-Serif" font-size="10.00" fill="#000000">/goodselector.h</text>
</a>
</g>
</g>
<!-- Node2 -->
<g id="node2" class="node">
<title>Node2</title>
<g id="a_node2"><a xlink:href="routeinterface_8h.html" target="_top" xlink:title=" ">
<polygon fill="#ffffff" stroke="#000000" points="219,-201.5 219,-231.5 334,-231.5 334,-201.5 219,-201.5"/>
<text text-anchor="start" x="227" y="-219.5" font-family="Helvetica,sans-Serif" font-size="10.00" fill="#000000">src/application_server</text>
<text text-anchor="middle" x="276.5" y="-208.5" font-family="Helvetica,sans-Serif" font-size="10.00" fill="#000000">/routeinterface.h</text>
</a>
</g>
</g>
<!-- Node1&#45;&gt;Node2 -->
<g id="edge1" class="edge">
<title>Node1&#45;&gt;Node2</title>
<path fill="none" stroke="#191970" d="M320.2622,-260.9253C310.7637,-251.2828 299.9293,-240.2843 291.4172,-231.6432"/>
<polygon fill="#191970" stroke="#191970" points="318.0124,-263.6288 327.5236,-268.2967 322.9993,-258.7164 318.0124,-263.6288"/>
</g>
<!-- Node9 -->
<g id="node9" class="node">
<title>Node9</title>
<g id="a_node9"><a xlink:href="goodselector_8cpp.html" target="_top" xlink:title=" ">
<polygon fill="#ffffff" stroke="#000000" points="352,-201.5 352,-231.5 467,-231.5 467,-201.5 352,-201.5"/>
<text text-anchor="start" x="360" y="-219.5" font-family="Helvetica,sans-Serif" font-size="10.00" fill="#000000">src/application_server</text>
<text text-anchor="middle" x="409.5" y="-208.5" font-family="Helvetica,sans-Serif" font-size="10.00" fill="#000000">/goodselector.cpp</text>
</a>
</g>
</g>
<!-- Node1&#45;&gt;Node9 -->
<g id="edge9" class="edge">
<title>Node1&#45;&gt;Node9</title>
<path fill="none" stroke="#191970" d="M364.7887,-261.2113C374.4991,-251.5009 385.6302,-240.3698 394.3568,-231.6432"/>
<polygon fill="#191970" stroke="#191970" points="362.2996,-258.7507 357.7033,-268.2967 367.2493,-263.7004 362.2996,-258.7507"/>
</g>
<!-- Node3 -->
<g id="node3" class="node">
<title>Node3</title>
<g id="a_node3"><a xlink:href="menubar_8h.html" target="_top" xlink:title=" ">
<polygon fill="#ffffff" stroke="#000000" points="133,-134.5 133,-164.5 248,-164.5 248,-134.5 133,-134.5"/>
<text text-anchor="start" x="141" y="-152.5" font-family="Helvetica,sans-Serif" font-size="10.00" fill="#000000">src/application_server</text>
<text text-anchor="middle" x="190.5" y="-141.5" font-family="Helvetica,sans-Serif" font-size="10.00" fill="#000000">/menubar.h</text>
</a>
</g>
</g>
<!-- Node2&#45;&gt;Node3 -->
<g id="edge2" class="edge">
<title>Node2&#45;&gt;Node3</title>
<path fill="none" stroke="#191970" d="M248.9855,-195.0643C236.2696,-185.1577 221.4684,-173.6265 209.9375,-164.6432"/>
<polygon fill="#191970" stroke="#191970" points="246.9456,-197.9119 256.9853,-201.2967 251.2477,-192.3899 246.9456,-197.9119"/>
</g>
<!-- Node6 -->
<g id="node6" class="node">
<title>Node6</title>
<g id="a_node6"><a xlink:href="main_8cpp.html" target="_top" xlink:title=" ">
<polygon fill="#ffffff" stroke="#000000" points="176,-.5 176,-30.5 291,-30.5 291,-.5 176,-.5"/>
<text text-anchor="start" x="184" y="-18.5" font-family="Helvetica,sans-Serif" font-size="10.00" fill="#000000">src/application_server</text>
<text text-anchor="middle" x="233.5" y="-7.5" font-family="Helvetica,sans-Serif" font-size="10.00" fill="#000000">/main.cpp</text>
</a>
</g>
</g>
<!-- Node2&#45;&gt;Node6 -->
<g id="edge7" class="edge">
<title>Node2&#45;&gt;Node6</title>
<path fill="none" stroke="#191970" d="M275.3337,-191.3044C273.4402,-161.2231 268.597,-109.6286 256.5,-67 252.9179,-54.377 246.7841,-40.8584 241.7514,-30.8403"/>
<polygon fill="#191970" stroke="#191970" points="271.8432,-191.5723 275.9058,-201.3572 278.8319,-191.1745 271.8432,-191.5723"/>
</g>
<!-- Node8 -->
<g id="node8" class="node">
<title>Node8</title>
<g id="a_node8"><a xlink:href="routeinterface_8cpp.html" target="_top" xlink:title=" ">
<polygon fill="#ffffff" stroke="#000000" points="305,-134.5 305,-164.5 420,-164.5 420,-134.5 305,-134.5"/>
<text text-anchor="start" x="313" y="-152.5" font-family="Helvetica,sans-Serif" font-size="10.00" fill="#000000">src/application_server</text>
<text text-anchor="middle" x="362.5" y="-141.5" font-family="Helvetica,sans-Serif" font-size="10.00" fill="#000000">/routeinterface.cpp</text>
</a>
</g>
</g>
<!-- Node2&#45;&gt;Node8 -->
<g id="edge8" class="edge">
<title>Node2&#45;&gt;Node8</title>
<path fill="none" stroke="#191970" d="M304.0145,-195.0643C316.7304,-185.1577 331.5316,-173.6265 343.0625,-164.6432"/>
<polygon fill="#191970" stroke="#191970" points="301.7523,-192.3899 296.0147,-201.2967 306.0544,-197.9119 301.7523,-192.3899"/>
</g>
<!-- Node4 -->
<g id="node4" class="node">
<title>Node4</title>
<g id="a_node4"><a xlink:href="main_8h.html" target="_top" xlink:title=" ">
<polygon fill="#ffffff" stroke="#000000" points="0,-67.5 0,-97.5 115,-97.5 115,-67.5 0,-67.5"/>
<text text-anchor="start" x="8" y="-85.5" font-family="Helvetica,sans-Serif" font-size="10.00" fill="#000000">src/application_server</text>
<text text-anchor="middle" x="57.5" y="-74.5" font-family="Helvetica,sans-Serif" font-size="10.00" fill="#000000">/main.h</text>
</a>
</g>
</g>
<!-- Node3&#45;&gt;Node4 -->
<g id="edge3" class="edge">
<title>Node3&#45;&gt;Node4</title>
<path fill="none" stroke="#191970" d="M151.6187,-129.9132C131.2357,-119.645 106.6428,-107.2561 87.7083,-97.7177"/>
<polygon fill="#191970" stroke="#191970" points="150.1467,-133.0906 160.6522,-134.4639 153.2961,-126.8391 150.1467,-133.0906"/>
</g>
<!-- Node7 -->
<g id="node7" class="node">
<title>Node7</title>
<g id="a_node7"><a xlink:href="menubar_8cpp.html" target="_top" xlink:title=" ">
<polygon fill="#ffffff" stroke="#000000" points="133,-67.5 133,-97.5 248,-97.5 248,-67.5 133,-67.5"/>
<text text-anchor="start" x="141" y="-85.5" font-family="Helvetica,sans-Serif" font-size="10.00" fill="#000000">src/application_server</text>
<text text-anchor="middle" x="190.5" y="-74.5" font-family="Helvetica,sans-Serif" font-size="10.00" fill="#000000">/menubar.cpp</text>
</a>
</g>
</g>
<!-- Node3&#45;&gt;Node7 -->
<g id="edge6" class="edge">
<title>Node3&#45;&gt;Node7</title>
<path fill="none" stroke="#191970" d="M190.5,-124.0249C190.5,-115.128 190.5,-105.4287 190.5,-97.6432"/>
<polygon fill="#191970" stroke="#191970" points="187.0001,-124.2966 190.5,-134.2967 194.0001,-124.2967 187.0001,-124.2966"/>
</g>
<!-- Node5 -->
<g id="node5" class="node">
<title>Node5</title>
<g id="a_node5"><a xlink:href="client_8cpp.html" target="_top" xlink:title=" ">
<polygon fill="#ffffff" stroke="#000000" points="0,-.5 0,-30.5 115,-30.5 115,-.5 0,-.5"/>
<text text-anchor="start" x="8" y="-18.5" font-family="Helvetica,sans-Serif" font-size="10.00" fill="#000000">src/application_server</text>
<text text-anchor="middle" x="57.5" y="-7.5" font-family="Helvetica,sans-Serif" font-size="10.00" fill="#000000">/client.cpp</text>
</a>
</g>
</g>
<!-- Node4&#45;&gt;Node5 -->
<g id="edge4" class="edge">
<title>Node4&#45;&gt;Node5</title>
<path fill="none" stroke="#191970" d="M57.5,-57.0249C57.5,-48.128 57.5,-38.4287 57.5,-30.6432"/>
<polygon fill="#191970" stroke="#191970" points="54.0001,-57.2966 57.5,-67.2967 61.0001,-57.2967 54.0001,-57.2966"/>
</g>
<!-- Node4&#45;&gt;Node6 -->
<g id="edge5" class="edge">
<title>Node4&#45;&gt;Node6</title>
<path fill="none" stroke="#191970" d="M106.4516,-63.865C134.0014,-53.3773 167.9559,-40.4515 193.8299,-30.6017"/>
<polygon fill="#191970" stroke="#191970" points="105.0983,-60.6351 96.9978,-67.4639 107.5888,-67.1771 105.0983,-60.6351"/>
</g>
</g>
</svg>
