<?xml version="1.0" encoding="UTF-8" standalone="no"?>
<!DOCTYPE svg PUBLIC "-//W3C//DTD SVG 1.1//EN"
 "http://www.w3.org/Graphics/SVG/1.1/DTD/svg11.dtd">
<!-- Generated by graphviz version 2.40.1 (20161225.0304)
 -->
<!-- Title: src/application_server/graphicsmanager.h Pages: 1 -->
<svg width="197pt" height="95pt"
 viewBox="0.00 0.00 196.50 95.00" xmlns="http://www.w3.org/2000/svg" xmlns:xlink="http://www.w3.org/1999/xlink">
<g id="graph0" class="graph" transform="scale(1 1) rotate(0) translate(4 91)">
<title>src/application_server/graphicsmanager.h</title>
<polygon fill="#ffffff" stroke="transparent" points="-4,4 -4,-91 192.5,-91 192.5,4 -4,4"/>
<!-- Node1 -->
<g id="node1" class="node">
<title>Node1</title>
<g id="a_node1"><a xlink:title=" ">
<polygon fill="#bfbfbf" stroke="#000000" points="45.5,-56.5 45.5,-86.5 160.5,-86.5 160.5,-56.5 45.5,-56.5"/>
<text text-anchor="start" x="53.5" y="-74.5" font-family="Helvetica,sans-Serif" font-size="10.00" fill="#000000">src/application_server</text>
<text text-anchor="middle" x="103" y="-63.5" font-family="Helvetica,sans-Serif" font-size="10.00" fill="#000000">/graphicsmanager.h</text>
</a>
</g>
</g>
<!-- Node2 -->
<g id="node2" class="node">
<title>Node2</title>
<g id="a_node2"><a xlink:title=" ">
<polygon fill="#ffffff" stroke="#bfbfbf" points="0,-.5 0,-19.5 58,-19.5 58,-.5 0,-.5"/>
<text text-anchor="middle" x="29" y="-7.5" font-family="Helvetica,sans-Serif" font-size="10.00" fill="#000000">QPixmap</text>
</a>
</g>
</g>
<!-- Node1&#45;&gt;Node2 -->
<g id="edge1" class="edge">
<title>Node1&#45;&gt;Node2</title>
<path fill="none" stroke="#191970" d="M84.7079,-56.2977C73.7939,-47.2274 59.9329,-35.7077 48.7676,-26.4285"/>
<polygon fill="#191970" stroke="#191970" points="50.7762,-23.5468 40.8483,-19.8469 46.302,-28.9303 50.7762,-23.5468"/>
</g>
<!-- Node3 -->
<g id="node3" class="node">
<title>Node3</title>
<g id="a_node3"><a xlink:title=" ">
<polygon fill="#ffffff" stroke="#bfbfbf" points="76.5,-.5 76.5,-19.5 129.5,-19.5 129.5,-.5 76.5,-.5"/>
<text text-anchor="middle" x="103" y="-7.5" font-family="Helvetica,sans-Serif" font-size="10.00" fill="#000000">QImage</text>
</a>
</g>
</g>
<!-- Node1&#45;&gt;Node3 -->
<g id="edge2" class="edge">
<title>Node1&#45;&gt;Node3</title>
<path fill="none" stroke="#191970" d="M103,-56.2977C103,-48.3834 103,-38.6043 103,-30.0759"/>
<polygon fill="#191970" stroke="#191970" points="106.5001,-29.8469 103,-19.8469 99.5001,-29.847 106.5001,-29.8469"/>
</g>
<!-- Node4 -->
<g id="node4" class="node">
<title>Node4</title>
<g id="a_node4"><a xlink:title=" ">
<polygon fill="#ffffff" stroke="#bfbfbf" points="147.5,-.5 147.5,-19.5 188.5,-19.5 188.5,-.5 147.5,-.5"/>
<text text-anchor="middle" x="168" y="-7.5" font-family="Helvetica,sans-Serif" font-size="10.00" fill="#000000">string</text>
</a>
</g>
</g>
<!-- Node1&#45;&gt;Node4 -->
<g id="edge3" class="edge">
<title>Node1&#45;&gt;Node4</title>
<path fill="none" stroke="#191970" d="M119.0674,-56.2977C128.466,-47.4052 140.3527,-36.1586 150.057,-26.9769"/>
<polygon fill="#191970" stroke="#191970" points="152.7342,-29.2621 157.5927,-19.8469 147.9232,-24.1774 152.7342,-29.2621"/>
</g>
</g>
</svg>
