<?xml version="1.0" encoding="UTF-8" standalone="no"?>
<!DOCTYPE svg PUBLIC "-//W3C//DTD SVG 1.1//EN"
 "http://www.w3.org/Graphics/SVG/1.1/DTD/svg11.dtd">
<!-- Generated by graphviz version 2.40.1 (20161225.0304)
 -->
<!-- Title: src/application_server/graphicsmanager.h Pages: 1 -->
<svg width="1201pt" height="575pt"
 viewBox="0.00 0.00 1200.83 575.00" xmlns="http://www.w3.org/2000/svg" xmlns:xlink="http://www.w3.org/1999/xlink">
<g id="graph0" class="graph" transform="scale(1 1) rotate(0) translate(4 571)">
<title>src/application_server/graphicsmanager.h</title>
<polygon fill="#ffffff" stroke="transparent" points="-4,4 -4,-571 1196.8333,-571 1196.8333,4 -4,4"/>
<!-- Node1 -->
<g id="node1" class="node">
<title>Node1</title>
<g id="a_node1"><a xlink:title=" ">
<polygon fill="#bfbfbf" stroke="#000000" points="819.8333,-536.5 819.8333,-566.5 934.8333,-566.5 934.8333,-536.5 819.8333,-536.5"/>
<text text-anchor="start" x="827.8333" y="-554.5" font-family="Helvetica,sans-Serif" font-size="10.00" fill="#000000">src/application_server</text>
<text text-anchor="middle" x="877.3333" y="-543.5" font-family="Helvetica,sans-Serif" font-size="10.00" fill="#000000">/graphicsmanager.h</text>
</a>
</g>
</g>
<!-- Node2 -->
<g id="node2" class="node">
<title>Node2</title>
<g id="a_node2"><a xlink:href="maptile_8h.html" target="_top" xlink:title=" ">
<polygon fill="#ffffff" stroke="#000000" points="219.8333,-469.5 219.8333,-499.5 334.8333,-499.5 334.8333,-469.5 219.8333,-469.5"/>
<text text-anchor="start" x="227.8333" y="-487.5" font-family="Helvetica,sans-Serif" font-size="10.00" fill="#000000">src/application_server</text>
<text text-anchor="middle" x="277.3333" y="-476.5" font-family="Helvetica,sans-Serif" font-size="10.00" fill="#000000">/maptile.h</text>
</a>
</g>
</g>
<!-- Node1&#45;&gt;Node2 -->
<g id="edge1" class="edge">
<title>Node1&#45;&gt;Node2</title>
<path fill="none" stroke="#191970" d="M809.7391,-543.952C690.9128,-530.683 446.6354,-503.4054 335.1298,-490.9539"/>
<polygon fill="#191970" stroke="#191970" points="809.4761,-547.4443 819.8028,-545.0758 810.253,-540.4875 809.4761,-547.4443"/>
</g>
<!-- Node3 -->
<g id="node3" class="node">
<title>Node3</title>
<g id="a_node3"><a xlink:href="scene_8h.html" target="_top" xlink:title=" ">
<polygon fill="#ffffff" stroke="#000000" points="400.8333,-402.5 400.8333,-432.5 515.8333,-432.5 515.8333,-402.5 400.8333,-402.5"/>
<text text-anchor="start" x="408.8333" y="-420.5" font-family="Helvetica,sans-Serif" font-size="10.00" fill="#000000">src/application_server</text>
<text text-anchor="middle" x="458.3333" y="-409.5" font-family="Helvetica,sans-Serif" font-size="10.00" fill="#000000">/scene.h</text>
</a>
</g>
</g>
<!-- Node1&#45;&gt;Node3 -->
<g id="edge41" class="edge">
<title>Node1&#45;&gt;Node3</title>
<path fill="none" stroke="#191970" d="M820.5133,-533.3284C737.0693,-506.6423 582.9103,-457.3408 505.4108,-432.5558"/>
<polygon fill="#191970" stroke="#191970" points="819.4922,-536.6765 830.0832,-536.389 821.6246,-530.0091 819.4922,-536.6765"/>
</g>
<!-- Node8 -->
<g id="node8" class="node">
<title>Node8</title>
<g id="a_node8"><a xlink:href="main_8cpp.html" target="_top" xlink:title=" ">
<polygon fill="#ffffff" stroke="#000000" points="724.8333,-.5 724.8333,-30.5 839.8333,-30.5 839.8333,-.5 724.8333,-.5"/>
<text text-anchor="start" x="732.8333" y="-18.5" font-family="Helvetica,sans-Serif" font-size="10.00" fill="#000000">src/application_server</text>
<text text-anchor="middle" x="782.3333" y="-7.5" font-family="Helvetica,sans-Serif" font-size="10.00" fill="#000000">/main.cpp</text>
</a>
</g>
</g>
<!-- Node1&#45;&gt;Node8 -->
<g id="edge48" class="edge">
<title>Node1&#45;&gt;Node8</title>
<path fill="none" stroke="#191970" d="M877.3333,-526.1092C877.3333,-499.1594 877.3333,-455.3265 877.3333,-417.5 877.3333,-417.5 877.3333,-417.5 877.3333,-149.5 877.3333,-98.4543 830.8872,-53.2793 802.9469,-30.7218"/>
<polygon fill="#191970" stroke="#191970" points="873.8334,-526.227 877.3333,-536.2271 880.8334,-526.2271 873.8334,-526.227"/>
</g>
<!-- Node10 -->
<g id="node10" class="node">
<title>Node10</title>
<g id="a_node10"><a xlink:href="routeinterface_8h.html" target="_top" xlink:title=" ">
<polygon fill="#ffffff" stroke="#000000" points="905.8333,-201.5 905.8333,-231.5 1020.8333,-231.5 1020.8333,-201.5 905.8333,-201.5"/>
<text text-anchor="start" x="913.8333" y="-219.5" font-family="Helvetica,sans-Serif" font-size="10.00" fill="#000000">src/application_server</text>
<text text-anchor="middle" x="963.3333" y="-208.5" font-family="Helvetica,sans-Serif" font-size="10.00" fill="#000000">/routeinterface.h</text>
</a>
</g>
</g>
<!-- Node1&#45;&gt;Node10 -->
<g id="edge47" class="edge">
<title>Node1&#45;&gt;Node10</title>
<path fill="none" stroke="#191970" d="M888.7024,-526.9769C899.8982,-500.5463 915.3333,-456.9532 915.3333,-417.5 915.3333,-417.5 915.3333,-417.5 915.3333,-350.5 915.3333,-305.031 940.1302,-255.6991 954.0784,-231.5465"/>
<polygon fill="#191970" stroke="#191970" points="885.4595,-525.6573 884.6601,-536.222 891.8732,-528.4617 885.4595,-525.6573"/>
</g>
<!-- Node21 -->
<g id="node21" class="node">
<title>Node21</title>
<g id="a_node21"><a xlink:href="maprenderer_8h.html" target="_top" xlink:title=" ">
<polygon fill="#ffffff" stroke="#000000" points="28.8333,-335.5 28.8333,-365.5 143.8333,-365.5 143.8333,-335.5 28.8333,-335.5"/>
<text text-anchor="start" x="36.8333" y="-353.5" font-family="Helvetica,sans-Serif" font-size="10.00" fill="#000000">src/application_server</text>
<text text-anchor="middle" x="86.3333" y="-342.5" font-family="Helvetica,sans-Serif" font-size="10.00" fill="#000000">/maprenderer.h</text>
</a>
</g>
</g>
<!-- Node1&#45;&gt;Node21 -->
<g id="edge42" class="edge">
<title>Node1&#45;&gt;Node21</title>
<path fill="none" stroke="#191970" d="M809.5589,-549.8361C663.0767,-545.6613 321.2484,-532.6425 210.3333,-500 150.2403,-482.3145 118.4162,-486.8018 86.3333,-433 74.0093,-412.3331 77.8605,-383.2617 81.9645,-365.7172"/>
<polygon fill="#191970" stroke="#191970" points="809.6682,-553.3404 819.7622,-550.1215 809.864,-546.3431 809.6682,-553.3404"/>
</g>
<!-- Node24 -->
<g id="node24" class="node">
<title>Node24</title>
<g id="a_node24"><a xlink:href="graphicsmanager_8cpp.html" target="_top" xlink:title=" ">
<polygon fill="#ffffff" stroke="#000000" points="943.3333,-469.5 943.3333,-499.5 1059.3333,-499.5 1059.3333,-469.5 943.3333,-469.5"/>
<text text-anchor="start" x="951.3333" y="-487.5" font-family="Helvetica,sans-Serif" font-size="10.00" fill="#000000">src/application_server</text>
<text text-anchor="middle" x="1001.3333" y="-476.5" font-family="Helvetica,sans-Serif" font-size="10.00" fill="#000000">/graphicsmanager.cpp</text>
</a>
</g>
</g>
<!-- Node1&#45;&gt;Node24 -->
<g id="edge43" class="edge">
<title>Node1&#45;&gt;Node24</title>
<path fill="none" stroke="#191970" d="M914.0981,-531.6352C933,-521.422 955.675,-509.1702 973.1691,-499.7177"/>
<polygon fill="#191970" stroke="#191970" points="912.2954,-528.6309 905.1613,-536.4639 915.623,-534.7894 912.2954,-528.6309"/>
</g>
<!-- Node25 -->
<g id="node25" class="node">
<title>Node25</title>
<g id="a_node25"><a xlink:href="trainrenderer_8h.html" target="_top" xlink:title=" ">
<polygon fill="#ffffff" stroke="#000000" points="1077.8333,-469.5 1077.8333,-499.5 1192.8333,-499.5 1192.8333,-469.5 1077.8333,-469.5"/>
<text text-anchor="start" x="1085.8333" y="-487.5" font-family="Helvetica,sans-Serif" font-size="10.00" fill="#000000">src/application_server</text>
<text text-anchor="middle" x="1135.3333" y="-476.5" font-family="Helvetica,sans-Serif" font-size="10.00" fill="#000000">/trainrenderer.h</text>
</a>
</g>
</g>
<!-- Node1&#45;&gt;Node25 -->
<g id="edge44" class="edge">
<title>Node1&#45;&gt;Node25</title>
<path fill="none" stroke="#191970" d="M944.6066,-534.0298C985.8482,-523.3198 1038.1034,-509.7496 1077.4845,-499.5227"/>
<polygon fill="#191970" stroke="#191970" points="943.7116,-530.646 934.9124,-536.5473 945.4711,-537.4213 943.7116,-530.646"/>
</g>
<!-- Node2&#45;&gt;Node3 -->
<g id="edge2" class="edge">
<title>Node2&#45;&gt;Node3</title>
<path fill="none" stroke="#191970" d="M327.6756,-465.865C356.008,-455.3773 390.9272,-442.4515 417.5362,-432.6017"/>
<polygon fill="#191970" stroke="#191970" points="326.1163,-462.71 317.9532,-469.4639 328.5464,-469.2747 326.1163,-462.71"/>
</g>
<!-- Node4 -->
<g id="node4" class="node">
<title>Node4</title>
<g id="a_node4"><a xlink:href="client_8h.html" target="_top" xlink:title=" ">
<polygon fill="#ffffff" stroke="#000000" points="276.8333,-268.5 276.8333,-298.5 391.8333,-298.5 391.8333,-268.5 276.8333,-268.5"/>
<text text-anchor="start" x="284.8333" y="-286.5" font-family="Helvetica,sans-Serif" font-size="10.00" fill="#000000">src/application_server</text>
<text text-anchor="middle" x="334.3333" y="-275.5" font-family="Helvetica,sans-Serif" font-size="10.00" fill="#000000">/client.h</text>
</a>
</g>
</g>
<!-- Node2&#45;&gt;Node4 -->
<g id="edge32" class="edge">
<title>Node2&#45;&gt;Node4</title>
<path fill="none" stroke="#191970" d="M264.8091,-460.4831C246.533,-423.9039 216.0963,-356.236 229.3333,-335 240.0199,-317.8557 258.2613,-306.2585 276.5703,-298.4863"/>
<polygon fill="#191970" stroke="#191970" points="261.7323,-462.1544 269.3775,-469.4893 267.9751,-458.9877 261.7323,-462.1544"/>
</g>
<!-- Node20 -->
<g id="node20" class="node">
<title>Node20</title>
<g id="a_node20"><a xlink:href="scene_8cpp.html" target="_top" xlink:title=" ">
<polygon fill="#ffffff" stroke="#000000" points="238.8333,-335.5 238.8333,-365.5 353.8333,-365.5 353.8333,-335.5 238.8333,-335.5"/>
<text text-anchor="start" x="246.8333" y="-353.5" font-family="Helvetica,sans-Serif" font-size="10.00" fill="#000000">src/application_server</text>
<text text-anchor="middle" x="296.3333" y="-342.5" font-family="Helvetica,sans-Serif" font-size="10.00" fill="#000000">/scene.cpp</text>
</a>
</g>
</g>
<!-- Node2&#45;&gt;Node20 -->
<g id="edge40" class="edge">
<title>Node2&#45;&gt;Node20</title>
<path fill="none" stroke="#191970" d="M280.9006,-459.3415C284.8038,-431.8131 290.9351,-388.5714 294.1694,-365.7614"/>
<polygon fill="#191970" stroke="#191970" points="277.4145,-458.9966 279.4759,-469.389 284.3452,-459.9794 277.4145,-458.9966"/>
</g>
<!-- Node2&#45;&gt;Node21 -->
<g id="edge33" class="edge">
<title>Node2&#45;&gt;Node21</title>
<path fill="none" stroke="#191970" d="M209.8692,-471.5626C168.18,-462.2347 119.938,-448.5795 105.3333,-433 88.1443,-414.6637 85.4413,-384.0135 85.5413,-365.6813"/>
<polygon fill="#191970" stroke="#191970" points="209.232,-475.0059 219.7486,-473.7213 210.7263,-468.1672 209.232,-475.0059"/>
</g>
<!-- Node23 -->
<g id="node23" class="node">
<title>Node23</title>
<g id="a_node23"><a xlink:href="maptile_8cpp.html" target="_top" xlink:title=" ">
<polygon fill="#ffffff" stroke="#000000" points="114.8333,-402.5 114.8333,-432.5 229.8333,-432.5 229.8333,-402.5 114.8333,-402.5"/>
<text text-anchor="start" x="122.8333" y="-420.5" font-family="Helvetica,sans-Serif" font-size="10.00" fill="#000000">src/application_server</text>
<text text-anchor="middle" x="172.3333" y="-409.5" font-family="Helvetica,sans-Serif" font-size="10.00" fill="#000000">/maptile.cpp</text>
</a>
</g>
</g>
<!-- Node2&#45;&gt;Node23 -->
<g id="edge39" class="edge">
<title>Node2&#45;&gt;Node23</title>
<path fill="none" stroke="#191970" d="M245.3257,-464.0761C229.4995,-453.9774 210.7262,-441.9983 196.182,-432.7177"/>
<polygon fill="#191970" stroke="#191970" points="243.4565,-467.0352 253.7693,-469.4639 247.222,-461.1342 243.4565,-467.0352"/>
</g>
<!-- Node3&#45;&gt;Node4 -->
<g id="edge3" class="edge">
<title>Node3&#45;&gt;Node4</title>
<path fill="none" stroke="#191970" d="M442.8903,-394.0267C431.088,-376.8604 413.9062,-353.4499 396.3333,-335 383.5943,-321.6253 367.5085,-308.351 354.9142,-298.6295"/>
<polygon fill="#191970" stroke="#191970" points="440.0393,-396.0587 448.5454,-402.3751 445.8348,-392.1328 440.0393,-396.0587"/>
</g>
<!-- Node6 -->
<g id="node6" class="node">
<title>Node6</title>
<g id="a_node6"><a xlink:href="gameloop_8h.html" target="_top" xlink:title=" ">
<polygon fill="#ffffff" stroke="#000000" points="66.8333,-201.5 66.8333,-231.5 181.8333,-231.5 181.8333,-201.5 66.8333,-201.5"/>
<text text-anchor="start" x="74.8333" y="-219.5" font-family="Helvetica,sans-Serif" font-size="10.00" fill="#000000">src/application_server</text>
<text text-anchor="middle" x="124.3333" y="-208.5" font-family="Helvetica,sans-Serif" font-size="10.00" fill="#000000">/gameloop.h</text>
</a>
</g>
</g>
<!-- Node3&#45;&gt;Node6 -->
<g id="edge27" class="edge">
<title>Node3&#45;&gt;Node6</title>
<path fill="none" stroke="#191970" d="M431.6713,-395.8068C420.6373,-386.7124 407.7721,-375.9562 396.3333,-366 380.9085,-352.5744 379.7588,-345.7017 362.3333,-335 323.8578,-311.3706 308.1317,-318.3445 267.3333,-299 223.8246,-278.3704 175.8361,-249.2874 147.9852,-231.7305"/>
<polygon fill="#191970" stroke="#191970" points="429.7482,-398.7565 439.698,-402.3968 434.19,-393.3462 429.7482,-398.7565"/>
</g>
<!-- Node3&#45;&gt;Node8 -->
<g id="edge29" class="edge">
<title>Node3&#45;&gt;Node8</title>
<path fill="none" stroke="#191970" d="M526.1723,-407.8758C635.6956,-390.4107 839.3333,-349.1151 839.3333,-283.5 839.3333,-283.5 839.3333,-283.5 839.3333,-149.5 839.3333,-103.2355 810.2062,-54.6406 793.5947,-30.6882"/>
<polygon fill="#191970" stroke="#191970" points="525.535,-404.4329 516.199,-409.4418 526.6209,-411.3481 525.535,-404.4329"/>
</g>
<!-- Node11 -->
<g id="node11" class="node">
<title>Node11</title>
<g id="a_node11"><a xlink:href="menubar_8h.html" target="_top" xlink:title=" ">
<polygon fill="#ffffff" stroke="#000000" points="448.8333,-134.5 448.8333,-164.5 563.8333,-164.5 563.8333,-134.5 448.8333,-134.5"/>
<text text-anchor="start" x="456.8333" y="-152.5" font-family="Helvetica,sans-Serif" font-size="10.00" fill="#000000">src/application_server</text>
<text text-anchor="middle" x="506.3333" y="-141.5" font-family="Helvetica,sans-Serif" font-size="10.00" fill="#000000">/menubar.h</text>
</a>
</g>
</g>
<!-- Node3&#45;&gt;Node11 -->
<g id="edge28" class="edge">
<title>Node3&#45;&gt;Node11</title>
<path fill="none" stroke="#191970" d="M462.8298,-392.3947C472.6495,-337.5679 495.7627,-208.5194 503.6449,-164.5103"/>
<polygon fill="#191970" stroke="#191970" points="459.3694,-391.8628 461.0515,-402.3233 466.2598,-393.097 459.3694,-391.8628"/>
</g>
<!-- Node14 -->
<g id="node14" class="node">
<title>Node14</title>
<g id="a_node14"><a xlink:href="view_8h.html" target="_top" xlink:title=" ">
<polygon fill="#ffffff" stroke="#000000" points="505.8333,-335.5 505.8333,-365.5 620.8333,-365.5 620.8333,-335.5 505.8333,-335.5"/>
<text text-anchor="start" x="513.8333" y="-353.5" font-family="Helvetica,sans-Serif" font-size="10.00" fill="#000000">src/application_server</text>
<text text-anchor="middle" x="563.3333" y="-342.5" font-family="Helvetica,sans-Serif" font-size="10.00" fill="#000000">/view.h</text>
</a>
</g>
</g>
<!-- Node3&#45;&gt;Node14 -->
<g id="edge17" class="edge">
<title>Node3&#45;&gt;Node14</title>
<path fill="none" stroke="#191970" d="M490.3409,-397.0761C506.1672,-386.9774 524.9404,-374.9983 539.4846,-365.7177"/>
<polygon fill="#191970" stroke="#191970" points="488.4447,-394.1342 481.8974,-402.4639 492.2101,-400.0352 488.4447,-394.1342"/>
</g>
<!-- Node15 -->
<g id="node15" class="node">
<title>Node15</title>
<g id="a_node15"><a xlink:href="minimap_8h.html" target="_top" xlink:title=" ">
<polygon fill="#ffffff" stroke="#000000" points="657.8333,-268.5 657.8333,-298.5 772.8333,-298.5 772.8333,-268.5 657.8333,-268.5"/>
<text text-anchor="start" x="665.8333" y="-286.5" font-family="Helvetica,sans-Serif" font-size="10.00" fill="#000000">src/application_server</text>
<text text-anchor="middle" x="715.3333" y="-275.5" font-family="Helvetica,sans-Serif" font-size="10.00" fill="#000000">/minimap.h</text>
</a>
</g>
</g>
<!-- Node3&#45;&gt;Node15 -->
<g id="edge30" class="edge">
<title>Node3&#45;&gt;Node15</title>
<path fill="none" stroke="#191970" d="M526.1367,-405.1127C559.1131,-397.1636 598.4176,-384.7299 630.3333,-366 660.8396,-348.0972 688.7234,-317.0095 703.7377,-298.5357"/>
<polygon fill="#191970" stroke="#191970" points="525.0705,-401.767 516.121,-407.4377 526.6534,-408.5857 525.0705,-401.767"/>
</g>
<!-- Node3&#45;&gt;Node20 -->
<g id="edge31" class="edge">
<title>Node3&#45;&gt;Node20</title>
<path fill="none" stroke="#191970" d="M412.6098,-398.5897C387.3719,-388.1518 356.4557,-375.3654 332.8478,-365.6017"/>
<polygon fill="#191970" stroke="#191970" points="411.3988,-401.8763 421.9773,-402.4639 414.0741,-395.4077 411.3988,-401.8763"/>
</g>
<!-- Node5 -->
<g id="node5" class="node">
<title>Node5</title>
<g id="a_node5"><a xlink:href="client_8cpp.html" target="_top" xlink:title=" ">
<polygon fill="#ffffff" stroke="#000000" points="276.8333,-201.5 276.8333,-231.5 391.8333,-231.5 391.8333,-201.5 276.8333,-201.5"/>
<text text-anchor="start" x="284.8333" y="-219.5" font-family="Helvetica,sans-Serif" font-size="10.00" fill="#000000">src/application_server</text>
<text text-anchor="middle" x="334.3333" y="-208.5" font-family="Helvetica,sans-Serif" font-size="10.00" fill="#000000">/client.cpp</text>
</a>
</g>
</g>
<!-- Node4&#45;&gt;Node5 -->
<g id="edge4" class="edge">
<title>Node4&#45;&gt;Node5</title>
<path fill="none" stroke="#191970" d="M334.3333,-258.0249C334.3333,-249.128 334.3333,-239.4287 334.3333,-231.6432"/>
<polygon fill="#191970" stroke="#191970" points="330.8334,-258.2966 334.3333,-268.2967 337.8334,-258.2967 330.8334,-258.2966"/>
</g>
<!-- Node4&#45;&gt;Node6 -->
<g id="edge5" class="edge">
<title>Node4&#45;&gt;Node6</title>
<path fill="none" stroke="#191970" d="M277.6406,-265.4123C244.4716,-254.8298 203.0786,-241.6235 171.667,-231.6017"/>
<polygon fill="#191970" stroke="#191970" points="276.6145,-268.7587 287.2052,-268.4639 278.7422,-262.0899 276.6145,-268.7587"/>
</g>
<!-- Node9 -->
<g id="node9" class="node">
<title>Node9</title>
<g id="a_node9"><a xlink:href="main_8h.html" target="_top" xlink:title=" ">
<polygon fill="#ffffff" stroke="#000000" points="315.8333,-67.5 315.8333,-97.5 430.8333,-97.5 430.8333,-67.5 315.8333,-67.5"/>
<text text-anchor="start" x="323.8333" y="-85.5" font-family="Helvetica,sans-Serif" font-size="10.00" fill="#000000">src/application_server</text>
<text text-anchor="middle" x="373.3333" y="-74.5" font-family="Helvetica,sans-Serif" font-size="10.00" fill="#000000">/main.h</text>
</a>
</g>
</g>
<!-- Node4&#45;&gt;Node9 -->
<g id="edge8" class="edge">
<title>Node4&#45;&gt;Node9</title>
<path fill="none" stroke="#191970" d="M295.413,-262.8045C284.2679,-254.781 273.4814,-244.4802 267.3333,-232 261.2447,-219.6405 262.4168,-213.8707 267.3333,-201 284.3736,-156.3912 326.791,-117.9574 352.5048,-97.7246"/>
<polygon fill="#191970" stroke="#191970" points="293.6746,-265.8523 303.9347,-268.4946 297.5618,-260.0307 293.6746,-265.8523"/>
</g>
<!-- Node4&#45;&gt;Node10 -->
<g id="edge10" class="edge">
<title>Node4&#45;&gt;Node10</title>
<path fill="none" stroke="#191970" d="M402.2687,-276.2636C526.7965,-262.9992 789.4925,-235.0172 905.8171,-222.6265"/>
<polygon fill="#191970" stroke="#191970" points="401.6732,-272.8072 392.1002,-277.3468 402.4147,-279.7678 401.6732,-272.8072"/>
</g>
<!-- Node12 -->
<g id="node12" class="node">
<title>Node12</title>
<g id="a_node12"><a xlink:href="menubar_8cpp.html" target="_top" xlink:title=" ">
<polygon fill="#ffffff" stroke="#000000" points="448.8333,-67.5 448.8333,-97.5 563.8333,-97.5 563.8333,-67.5 448.8333,-67.5"/>
<text text-anchor="start" x="456.8333" y="-85.5" font-family="Helvetica,sans-Serif" font-size="10.00" fill="#000000">src/application_server</text>
<text text-anchor="middle" x="506.3333" y="-74.5" font-family="Helvetica,sans-Serif" font-size="10.00" fill="#000000">/menubar.cpp</text>
</a>
</g>
</g>
<!-- Node4&#45;&gt;Node12 -->
<g id="edge16" class="edge">
<title>Node4&#45;&gt;Node12</title>
<path fill="none" stroke="#191970" d="M367.7445,-262.6937C379.2389,-254.2713 391.4405,-243.7502 400.3333,-232 428.7232,-194.488 411.9434,-171.512 440.3333,-134 451.3846,-119.3978 467.5457,-106.6938 481.1094,-97.5569"/>
<polygon fill="#191970" stroke="#191970" points="365.7295,-259.8319 359.5572,-268.4431 369.7523,-265.5605 365.7295,-259.8319"/>
</g>
<!-- Node7 -->
<g id="node7" class="node">
<title>Node7</title>
<g id="a_node7"><a xlink:href="gameloop_8cpp.html" target="_top" xlink:title=" ">
<polygon fill="#ffffff" stroke="#000000" points="66.8333,-134.5 66.8333,-164.5 181.8333,-164.5 181.8333,-134.5 66.8333,-134.5"/>
<text text-anchor="start" x="74.8333" y="-152.5" font-family="Helvetica,sans-Serif" font-size="10.00" fill="#000000">src/application_server</text>
<text text-anchor="middle" x="124.3333" y="-141.5" font-family="Helvetica,sans-Serif" font-size="10.00" fill="#000000">/gameloop.cpp</text>
</a>
</g>
</g>
<!-- Node6&#45;&gt;Node7 -->
<g id="edge6" class="edge">
<title>Node6&#45;&gt;Node7</title>
<path fill="none" stroke="#191970" d="M124.3333,-191.0249C124.3333,-182.128 124.3333,-172.4287 124.3333,-164.6432"/>
<polygon fill="#191970" stroke="#191970" points="120.8334,-191.2966 124.3333,-201.2967 127.8334,-191.2967 120.8334,-191.2966"/>
</g>
<!-- Node6&#45;&gt;Node8 -->
<g id="edge7" class="edge">
<title>Node6&#45;&gt;Node8</title>
<path fill="none" stroke="#191970" d="M89.1188,-195.9747C65.275,-179.4372 40.8663,-155.4836 57.3333,-134 127.0513,-43.0427 193.6925,-88.116 306.3333,-67 455.8407,-38.9729 634.836,-24.6992 724.7622,-18.8377"/>
<polygon fill="#191970" stroke="#191970" points="87.1909,-198.8959 97.4611,-201.4987 91.0557,-193.0595 87.1909,-198.8959"/>
</g>
<!-- Node9&#45;&gt;Node8 -->
<g id="edge9" class="edge">
<title>Node9&#45;&gt;Node8</title>
<path fill="none" stroke="#191970" d="M440.9092,-66.978C546.7403,-47.0698 658.501,-31.4645 724.615,-22.7955"/>
<polygon fill="#191970" stroke="#191970" points="440.1887,-63.5522 431.0164,-68.855 441.4936,-70.4295 440.1887,-63.5522"/>
</g>
<!-- Node10&#45;&gt;Node8 -->
<g id="edge14" class="edge">
<title>Node10&#45;&gt;Node8</title>
<path fill="none" stroke="#191970" d="M949.8282,-192.5621C945.099,-183.9476 939.8457,-174.1078 935.3333,-165 914.1376,-122.2186 924.7648,-101.0858 891.3333,-67 875.2125,-50.5637 852.8207,-38.7438 832.5234,-30.6078"/>
<polygon fill="#191970" stroke="#191970" points="946.7835,-194.2886 954.6944,-201.3361 952.905,-190.8935 946.7835,-194.2886"/>
</g>
<!-- Node10&#45;&gt;Node11 -->
<g id="edge11" class="edge">
<title>Node10&#45;&gt;Node11</title>
<path fill="none" stroke="#191970" d="M895.5769,-206.6131C824.6955,-196.2641 710.1975,-179.5294 611.3333,-165 596.0194,-162.7494 579.4503,-160.307 564.0985,-158.0408"/>
<polygon fill="#191970" stroke="#191970" points="895.3105,-210.1113 905.7113,-208.0927 896.3218,-203.1847 895.3105,-210.1113"/>
</g>
<!-- Node13 -->
<g id="node13" class="node">
<title>Node13</title>
<g id="a_node13"><a xlink:href="routeinterface_8cpp.html" target="_top" xlink:title=" ">
<polygon fill="#ffffff" stroke="#000000" points="943.8333,-134.5 943.8333,-164.5 1058.8333,-164.5 1058.8333,-134.5 943.8333,-134.5"/>
<text text-anchor="start" x="951.8333" y="-152.5" font-family="Helvetica,sans-Serif" font-size="10.00" fill="#000000">src/application_server</text>
<text text-anchor="middle" x="1001.3333" y="-141.5" font-family="Helvetica,sans-Serif" font-size="10.00" fill="#000000">/routeinterface.cpp</text>
</a>
</g>
</g>
<!-- Node10&#45;&gt;Node13 -->
<g id="edge15" class="edge">
<title>Node10&#45;&gt;Node13</title>
<path fill="none" stroke="#191970" d="M976.9545,-192.4837C982.2201,-183.1996 988.0863,-172.8565 992.7446,-164.6432"/>
<polygon fill="#191970" stroke="#191970" points="973.8451,-190.8716 971.9561,-201.2967 979.934,-194.325 973.8451,-190.8716"/>
</g>
<!-- Node11&#45;&gt;Node9 -->
<g id="edge12" class="edge">
<title>Node11&#45;&gt;Node9</title>
<path fill="none" stroke="#191970" d="M467.452,-129.9132C447.069,-119.645 422.4761,-107.2561 403.5417,-97.7177"/>
<polygon fill="#191970" stroke="#191970" points="465.98,-133.0906 476.4855,-134.4639 469.1294,-126.8391 465.98,-133.0906"/>
</g>
<!-- Node11&#45;&gt;Node12 -->
<g id="edge13" class="edge">
<title>Node11&#45;&gt;Node12</title>
<path fill="none" stroke="#191970" d="M506.3333,-124.0249C506.3333,-115.128 506.3333,-105.4287 506.3333,-97.6432"/>
<polygon fill="#191970" stroke="#191970" points="502.8334,-124.2966 506.3333,-134.2967 509.8334,-124.2967 502.8334,-124.2966"/>
</g>
<!-- Node14&#45;&gt;Node4 -->
<g id="edge18" class="edge">
<title>Node14&#45;&gt;Node4</title>
<path fill="none" stroke="#191970" d="M501.9764,-332.5484C465.7289,-321.9432 420.3502,-308.6665 385.9495,-298.6017"/>
<polygon fill="#191970" stroke="#191970" points="501.3607,-336.015 511.9412,-335.4639 503.3264,-329.2966 501.3607,-336.015"/>
</g>
<!-- Node14&#45;&gt;Node8 -->
<g id="edge20" class="edge">
<title>Node14&#45;&gt;Node8</title>
<path fill="none" stroke="#191970" d="M630.858,-342.4917C687.0877,-334.4471 761.2459,-320.1848 782.3333,-299 808.8779,-272.3328 801.3333,-254.1265 801.3333,-216.5 801.3333,-216.5 801.3333,-216.5 801.3333,-149.5 801.3333,-106.0313 791.4109,-55.4094 785.9071,-30.6736"/>
<polygon fill="#191970" stroke="#191970" points="630.3603,-339.0271 620.939,-343.8736 631.3263,-345.9602 630.3603,-339.0271"/>
</g>
<!-- Node14&#45;&gt;Node11 -->
<g id="edge19" class="edge">
<title>Node14&#45;&gt;Node11</title>
<path fill="none" stroke="#191970" d="M537.0426,-328.3317C528.9672,-320.0153 520.9885,-309.911 516.3333,-299 496.8358,-253.3009 500.8657,-192.5734 504.1691,-164.6813"/>
<polygon fill="#191970" stroke="#191970" points="534.7712,-331.004 544.3935,-335.4383 539.6367,-325.9713 534.7712,-331.004"/>
</g>
<!-- Node14&#45;&gt;Node15 -->
<g id="edge21" class="edge">
<title>Node14&#45;&gt;Node15</title>
<path fill="none" stroke="#191970" d="M606.8615,-331.3132C630.425,-320.9267 659.1174,-308.2794 681.0728,-298.6017"/>
<polygon fill="#191970" stroke="#191970" points="605.1838,-328.2277 597.4451,-335.4639 608.0073,-334.6331 605.1838,-328.2277"/>
</g>
<!-- Node19 -->
<g id="node19" class="node">
<title>Node19</title>
<g id="a_node19"><a xlink:href="view_8cpp.html" target="_top" xlink:title=" ">
<polygon fill="#ffffff" stroke="#000000" points="524.8333,-268.5 524.8333,-298.5 639.8333,-298.5 639.8333,-268.5 524.8333,-268.5"/>
<text text-anchor="start" x="532.8333" y="-286.5" font-family="Helvetica,sans-Serif" font-size="10.00" fill="#000000">src/application_server</text>
<text text-anchor="middle" x="582.3333" y="-275.5" font-family="Helvetica,sans-Serif" font-size="10.00" fill="#000000">/view.cpp</text>
</a>
</g>
</g>
<!-- Node14&#45;&gt;Node19 -->
<g id="edge26" class="edge">
<title>Node14&#45;&gt;Node19</title>
<path fill="none" stroke="#191970" d="M570.3916,-325.6103C572.9594,-316.5553 575.7826,-306.5998 578.039,-298.6432"/>
<polygon fill="#191970" stroke="#191970" points="567.0058,-324.7211 567.6447,-335.2967 573.7402,-326.6309 567.0058,-324.7211"/>
</g>
<!-- Node16 -->
<g id="node16" class="node">
<title>Node16</title>
<g id="a_node16"><a xlink:href="sidepanel_8h.html" target="_top" xlink:title=" ">
<polygon fill="#ffffff" stroke="#000000" points="657.8333,-201.5 657.8333,-231.5 772.8333,-231.5 772.8333,-201.5 657.8333,-201.5"/>
<text text-anchor="start" x="665.8333" y="-219.5" font-family="Helvetica,sans-Serif" font-size="10.00" fill="#000000">src/application_server</text>
<text text-anchor="middle" x="715.3333" y="-208.5" font-family="Helvetica,sans-Serif" font-size="10.00" fill="#000000">/sidepanel.h</text>
</a>
</g>
</g>
<!-- Node15&#45;&gt;Node16 -->
<g id="edge22" class="edge">
<title>Node15&#45;&gt;Node16</title>
<path fill="none" stroke="#191970" d="M715.3333,-258.0249C715.3333,-249.128 715.3333,-239.4287 715.3333,-231.6432"/>
<polygon fill="#191970" stroke="#191970" points="711.8334,-258.2966 715.3333,-268.2967 718.8334,-258.2967 711.8334,-258.2966"/>
</g>
<!-- Node18 -->
<g id="node18" class="node">
<title>Node18</title>
<g id="a_node18"><a xlink:href="minimap_8cpp.html" target="_top" xlink:title=" ">
<polygon fill="#ffffff" stroke="#000000" points="524.8333,-201.5 524.8333,-231.5 639.8333,-231.5 639.8333,-201.5 524.8333,-201.5"/>
<text text-anchor="start" x="532.8333" y="-219.5" font-family="Helvetica,sans-Serif" font-size="10.00" fill="#000000">src/application_server</text>
<text text-anchor="middle" x="582.3333" y="-208.5" font-family="Helvetica,sans-Serif" font-size="10.00" fill="#000000">/minimap.cpp</text>
</a>
</g>
</g>
<!-- Node15&#45;&gt;Node18 -->
<g id="edge25" class="edge">
<title>Node15&#45;&gt;Node18</title>
<path fill="none" stroke="#191970" d="M676.452,-263.9132C656.069,-253.645 631.4761,-241.2561 612.5417,-231.7177"/>
<polygon fill="#191970" stroke="#191970" points="674.98,-267.0906 685.4855,-268.4639 678.1294,-260.8391 674.98,-267.0906"/>
</g>
<!-- Node16&#45;&gt;Node8 -->
<g id="edge23" class="edge">
<title>Node16&#45;&gt;Node8</title>
<path fill="none" stroke="#191970" d="M730.5049,-192.6361C735.4267,-184.151 740.5797,-174.3739 744.3333,-165 763.2482,-117.764 775.0183,-58.293 779.83,-30.7679"/>
<polygon fill="#191970" stroke="#191970" points="727.4765,-190.8806 725.332,-201.2561 733.4787,-194.4825 727.4765,-190.8806"/>
</g>
<!-- Node17 -->
<g id="node17" class="node">
<title>Node17</title>
<g id="a_node17"><a xlink:href="sidepanel_8cpp.html" target="_top" xlink:title=" ">
<polygon fill="#ffffff" stroke="#000000" points="619.8333,-134.5 619.8333,-164.5 734.8333,-164.5 734.8333,-134.5 619.8333,-134.5"/>
<text text-anchor="start" x="627.8333" y="-152.5" font-family="Helvetica,sans-Serif" font-size="10.00" fill="#000000">src/application_server</text>
<text text-anchor="middle" x="677.3333" y="-141.5" font-family="Helvetica,sans-Serif" font-size="10.00" fill="#000000">/sidepanel.cpp</text>
</a>
</g>
</g>
<!-- Node16&#45;&gt;Node17 -->
<g id="edge24" class="edge">
<title>Node16&#45;&gt;Node17</title>
<path fill="none" stroke="#191970" d="M701.7121,-192.4837C696.4465,-183.1996 690.5803,-172.8565 685.922,-164.6432"/>
<polygon fill="#191970" stroke="#191970" points="698.7326,-194.325 706.7105,-201.2967 704.8215,-190.8716 698.7326,-194.325"/>
</g>
<!-- Node21&#45;&gt;Node4 -->
<g id="edge34" class="edge">
<title>Node21&#45;&gt;Node4</title>
<path fill="none" stroke="#191970" d="M151.7766,-332.8198C191.195,-322.1704 240.8612,-308.7525 278.4345,-298.6017"/>
<polygon fill="#191970" stroke="#191970" points="150.7304,-329.4768 141.9894,-335.4639 152.5561,-336.2346 150.7304,-329.4768"/>
</g>
<!-- Node21&#45;&gt;Node6 -->
<g id="edge35" class="edge">
<title>Node21&#45;&gt;Node6</title>
<path fill="none" stroke="#191970" d="M124.6856,-329.6919C135.665,-321.6618 146.2878,-311.3855 152.3333,-299 163.3469,-276.4364 148.304,-248.4461 136.3658,-231.5542"/>
<polygon fill="#191970" stroke="#191970" points="122.5969,-326.8795 116.2899,-335.3925 126.5291,-332.6707 122.5969,-326.8795"/>
</g>
<!-- Node21&#45;&gt;Node8 -->
<g id="edge37" class="edge">
<title>Node21&#45;&gt;Node8</title>
<path fill="none" stroke="#191970" d="M49.8776,-329.491C38.5572,-321.3144 27.0411,-311.0011 19.3333,-299 -.9999,-267.3407 .3333,-254.1265 .3333,-216.5 .3333,-216.5 .3333,-216.5 .3333,-149.5 .3333,-94.5787 41.8066,-88.5266 92.3333,-67 149.8001,-42.5166 569.3912,-23.8207 724.7175,-17.6705"/>
<polygon fill="#191970" stroke="#191970" points="48.1955,-332.58 58.43,-335.3197 52.1377,-326.7957 48.1955,-332.58"/>
</g>
<!-- Node21&#45;&gt;Node11 -->
<g id="edge36" class="edge">
<title>Node21&#45;&gt;Node11</title>
<path fill="none" stroke="#191970" d="M122.4041,-330.1958C137.1409,-321.3092 154.0449,-310.333 168.3333,-299 216.8399,-260.5266 212.8904,-230.4798 267.3333,-201 298.0796,-184.3515 388.237,-167.802 448.6028,-158.1194"/>
<polygon fill="#191970" stroke="#191970" points="120.3688,-327.3336 113.5512,-335.4435 123.9382,-333.3552 120.3688,-327.3336"/>
</g>
<!-- Node22 -->
<g id="node22" class="node">
<title>Node22</title>
<g id="a_node22"><a xlink:href="maprenderer_8cpp.html" target="_top" xlink:title=" ">
<polygon fill="#ffffff" stroke="#000000" points="28.8333,-268.5 28.8333,-298.5 143.8333,-298.5 143.8333,-268.5 28.8333,-268.5"/>
<text text-anchor="start" x="36.8333" y="-286.5" font-family="Helvetica,sans-Serif" font-size="10.00" fill="#000000">src/application_server</text>
<text text-anchor="middle" x="86.3333" y="-275.5" font-family="Helvetica,sans-Serif" font-size="10.00" fill="#000000">/maprenderer.cpp</text>
</a>
</g>
</g>
<!-- Node21&#45;&gt;Node22 -->
<g id="edge38" class="edge">
<title>Node21&#45;&gt;Node22</title>
<path fill="none" stroke="#191970" d="M86.3333,-325.0249C86.3333,-316.128 86.3333,-306.4287 86.3333,-298.6432"/>
<polygon fill="#191970" stroke="#191970" points="82.8334,-325.2966 86.3333,-335.2967 89.8334,-325.2967 82.8334,-325.2966"/>
</g>
<!-- Node25&#45;&gt;Node10 -->
<g id="edge45" class="edge">
<title>Node25&#45;&gt;Node10</title>
<path fill="none" stroke="#191970" d="M1102.6246,-463.5576C1091.0975,-455.0651 1078.6928,-444.533 1069.3333,-433 1015.667,-366.8714 980.3403,-269.0704 968.1078,-231.7379"/>
<polygon fill="#191970" stroke="#191970" points="1100.6266,-466.4314 1110.8069,-469.3661 1104.6786,-460.7234 1100.6266,-466.4314"/>
</g>
<!-- Node26 -->
<g id="node26" class="node">
<title>Node26</title>
<g id="a_node26"><a xlink:href="trainrenderer_8cpp.html" target="_top" xlink:title=" ">
<polygon fill="#ffffff" stroke="#000000" points="1077.8333,-402.5 1077.8333,-432.5 1192.8333,-432.5 1192.8333,-402.5 1077.8333,-402.5"/>
<text text-anchor="start" x="1085.8333" y="-420.5" font-family="Helvetica,sans-Serif" font-size="10.00" fill="#000000">src/application_server</text>
<text text-anchor="middle" x="1135.3333" y="-409.5" font-family="Helvetica,sans-Serif" font-size="10.00" fill="#000000">/trainrenderer.cpp</text>
</a>
</g>
</g>
<!-- Node25&#45;&gt;Node26 -->
<g id="edge46" class="edge">
<title>Node25&#45;&gt;Node26</title>
<path fill="none" stroke="#191970" d="M1135.3333,-459.0249C1135.3333,-450.128 1135.3333,-440.4287 1135.3333,-432.6432"/>
<polygon fill="#191970" stroke="#191970" points="1131.8334,-459.2966 1135.3333,-469.2967 1138.8334,-459.2967 1131.8334,-459.2966"/>
</g>
</g>
</svg>
