<?xml version="1.0" encoding="UTF-8" standalone="no"?>
<!DOCTYPE svg PUBLIC "-//W3C//DTD SVG 1.1//EN"
 "http://www.w3.org/Graphics/SVG/1.1/DTD/svg11.dtd">
<!-- Generated by graphviz version 2.40.1 (20161225.0304)
 -->
<!-- Title: Grafische Darstellung der Klassenhierarchie Pages: 1 -->
<svg width="178pt" height="104pt"
 viewBox="0.00 0.00 178.00 104.00" xmlns="http://www.w3.org/2000/svg" xmlns:xlink="http://www.w3.org/1999/xlink">
<g id="graph0" class="graph" transform="scale(1 1) rotate(0) translate(4 100)">
<title>Grafische Darstellung der Klassenhierarchie</title>
<polygon fill="#ffffff" stroke="transparent" points="-4,4 -4,-100 174,-100 174,4 -4,4"/>
<!-- Node2 -->
<g id="node1" class="node">
<title>Node2</title>
<g id="a_node1"><a xlink:title=" ">
<polygon fill="#ffffff" stroke="#bfbfbf" points="0,-38.5 0,-57.5 56,-57.5 56,-38.5 0,-38.5"/>
<text text-anchor="middle" x="28" y="-45.5" font-family="Helvetica,sans-Serif" font-size="10.00" fill="#000000">QWidget</text>
</a>
</g>
</g>
<!-- Node0 -->
<g id="node2" class="node">
<title>Node0</title>
<g id="a_node2"><a xlink:href="classMinimap.html" target="_top" xlink:title=" ">
<polygon fill="#ffffff" stroke="#000000" points="104,-76.5 104,-95.5 158,-95.5 158,-76.5 104,-76.5"/>
<text text-anchor="middle" x="131" y="-83.5" font-family="Helvetica,sans-Serif" font-size="10.00" fill="#000000">Minimap</text>
</a>
</g>
</g>
<!-- Node2&#45;&gt;Node0 -->
<g id="edge1" class="edge">
<title>Node2&#45;&gt;Node0</title>
<path fill="none" stroke="#191970" d="M63.5567,-61.118C77.1796,-66.1439 92.4539,-71.7791 105.0171,-76.4141"/>
<polygon fill="#191970" stroke="#191970" points="64.5846,-57.7667 53.9912,-57.589 62.1617,-64.334 64.5846,-57.7667"/>
</g>
<!-- Node4 -->
<g id="node3" class="node">
<title>Node4</title>
<g id="a_node3"><a xlink:href="classSidePanel.html" target="_top" xlink:title=" ">
<polygon fill="#ffffff" stroke="#000000" points="99,-38.5 99,-57.5 163,-57.5 163,-38.5 99,-38.5"/>
<text text-anchor="middle" x="131" y="-45.5" font-family="Helvetica,sans-Serif" font-size="10.00" fill="#000000">SidePanel</text>
</a>
</g>
</g>
<!-- Node2&#45;&gt;Node4 -->
<g id="edge2" class="edge">
<title>Node2&#45;&gt;Node4</title>
<path fill="none" stroke="#191970" d="M66.477,-48C77.1491,-48 88.6197,-48 98.8867,-48"/>
<polygon fill="#191970" stroke="#191970" points="66.1452,-44.5001 56.1452,-48 66.1452,-51.5001 66.1452,-44.5001"/>
</g>
<!-- Node5 -->
<g id="node4" class="node">
<title>Node5</title>
<g id="a_node4"><a xlink:href="classToolTipMenu.html" target="_top" xlink:title=" ">
<polygon fill="#ffffff" stroke="#000000" points="92,-.5 92,-19.5 170,-19.5 170,-.5 92,-.5"/>
<text text-anchor="middle" x="131" y="-7.5" font-family="Helvetica,sans-Serif" font-size="10.00" fill="#000000">ToolTipMenu</text>
</a>
</g>
</g>
<!-- Node2&#45;&gt;Node5 -->
<g id="edge3" class="edge">
<title>Node2&#45;&gt;Node5</title>
<path fill="none" stroke="#191970" d="M63.5567,-34.882C77.1796,-29.8561 92.4539,-24.2209 105.0171,-19.5859"/>
<polygon fill="#191970" stroke="#191970" points="62.1617,-31.666 53.9912,-38.411 64.5846,-38.2333 62.1617,-31.666"/>
</g>
</g>
</svg>
