<?xml version="1.0" encoding="UTF-8" standalone="no"?>
<!DOCTYPE svg PUBLIC "-//W3C//DTD SVG 1.1//EN"
 "http://www.w3.org/Graphics/SVG/1.1/DTD/svg11.dtd">
<!-- Generated by graphviz version 2.40.1 (20161225.0304)
 -->
<!-- Title: src/application_server/mainwindow.h Pages: 1 -->
<svg width="299pt" height="173pt"
 viewBox="0.00 0.00 299.00 173.00" xmlns="http://www.w3.org/2000/svg" xmlns:xlink="http://www.w3.org/1999/xlink">
<g id="graph0" class="graph" transform="scale(1 1) rotate(0) translate(4 169)">
<title>src/application_server/mainwindow.h</title>
<polygon fill="#ffffff" stroke="transparent" points="-4,4 -4,-169 295,-169 295,4 -4,4"/>
<!-- Node1 -->
<g id="node1" class="node">
<title>Node1</title>
<g id="a_node1"><a xlink:title=" ">
<polygon fill="#bfbfbf" stroke="#000000" points="43,-134.5 43,-164.5 158,-164.5 158,-134.5 43,-134.5"/>
<text text-anchor="start" x="51" y="-152.5" font-family="Helvetica,sans-Serif" font-size="10.00" fill="#000000">src/application_server</text>
<text text-anchor="middle" x="100.5" y="-141.5" font-family="Helvetica,sans-Serif" font-size="10.00" fill="#000000">/mainwindow.h</text>
</a>
</g>
</g>
<!-- Node2 -->
<g id="node2" class="node">
<title>Node2</title>
<g id="a_node2"><a xlink:href="main_8cpp.html" target="_top" xlink:title=" ">
<polygon fill="#ffffff" stroke="#000000" points="0,-.5 0,-30.5 115,-30.5 115,-.5 0,-.5"/>
<text text-anchor="start" x="8" y="-18.5" font-family="Helvetica,sans-Serif" font-size="10.00" fill="#000000">src/application_server</text>
<text text-anchor="middle" x="57.5" y="-7.5" font-family="Helvetica,sans-Serif" font-size="10.00" fill="#000000">/main.cpp</text>
</a>
</g>
</g>
<!-- Node1&#45;&gt;Node2 -->
<g id="edge1" class="edge">
<title>Node1&#45;&gt;Node2</title>
<path fill="none" stroke="#191970" d="M62.1477,-128.6919C51.1683,-120.6618 40.5455,-110.3855 34.5,-98 23.673,-75.8186 36.5581,-47.7148 46.9561,-30.6959"/>
<polygon fill="#191970" stroke="#191970" points="60.3042,-131.6707 70.5434,-134.3925 64.2364,-125.8795 60.3042,-131.6707"/>
</g>
<!-- Node3 -->
<g id="node3" class="node">
<title>Node3</title>
<g id="a_node3"><a xlink:href="main_8h.html" target="_top" xlink:title=" ">
<polygon fill="#ffffff" stroke="#000000" points="43,-67.5 43,-97.5 158,-97.5 158,-67.5 43,-67.5"/>
<text text-anchor="start" x="51" y="-85.5" font-family="Helvetica,sans-Serif" font-size="10.00" fill="#000000">src/application_server</text>
<text text-anchor="middle" x="100.5" y="-74.5" font-family="Helvetica,sans-Serif" font-size="10.00" fill="#000000">/main.h</text>
</a>
</g>
</g>
<!-- Node1&#45;&gt;Node3 -->
<g id="edge2" class="edge">
<title>Node1&#45;&gt;Node3</title>
<path fill="none" stroke="#191970" d="M100.5,-124.0249C100.5,-115.128 100.5,-105.4287 100.5,-97.6432"/>
<polygon fill="#191970" stroke="#191970" points="97.0001,-124.2966 100.5,-134.2967 104.0001,-124.2967 97.0001,-124.2966"/>
</g>
<!-- Node4 -->
<g id="node4" class="node">
<title>Node4</title>
<g id="a_node4"><a xlink:href="mainwindow_8cpp.html" target="_top" xlink:title=" ">
<polygon fill="#ffffff" stroke="#000000" points="176,-67.5 176,-97.5 291,-97.5 291,-67.5 176,-67.5"/>
<text text-anchor="start" x="184" y="-85.5" font-family="Helvetica,sans-Serif" font-size="10.00" fill="#000000">src/application_server</text>
<text text-anchor="middle" x="233.5" y="-74.5" font-family="Helvetica,sans-Serif" font-size="10.00" fill="#000000">/mainwindow.cpp</text>
</a>
</g>
</g>
<!-- Node1&#45;&gt;Node4 -->
<g id="edge4" class="edge">
<title>Node1&#45;&gt;Node4</title>
<path fill="none" stroke="#191970" d="M139.3813,-129.9132C159.7643,-119.645 184.3572,-107.2561 203.2917,-97.7177"/>
<polygon fill="#191970" stroke="#191970" points="137.7039,-126.8391 130.3478,-134.4639 140.8533,-133.0906 137.7039,-126.8391"/>
</g>
<!-- Node3&#45;&gt;Node2 -->
<g id="edge3" class="edge">
<title>Node3&#45;&gt;Node2</title>
<path fill="none" stroke="#191970" d="M85.2725,-58.7735C79.2666,-49.4154 72.5449,-38.9421 67.2188,-30.6432"/>
<polygon fill="#191970" stroke="#191970" points="82.3958,-60.7712 90.7426,-67.2967 88.2869,-56.9903 82.3958,-60.7712"/>
</g>
</g>
</svg>
