<?xml version="1.0" encoding="UTF-8" standalone="no"?>
<!DOCTYPE svg PUBLIC "-//W3C//DTD SVG 1.1//EN"
 "http://www.w3.org/Graphics/SVG/1.1/DTD/svg11.dtd">
<!-- Generated by graphviz version 2.40.1 (20161225.0304)
 -->
<!-- Title: src/application_server/main.cpp Pages: 1 -->
<svg width="2162pt" height="599pt"
 viewBox="0.00 0.00 2161.50 599.00" xmlns="http://www.w3.org/2000/svg" xmlns:xlink="http://www.w3.org/1999/xlink">
<g id="graph0" class="graph" transform="scale(1 1) rotate(0) translate(4 595)">
<title>src/application_server/main.cpp</title>
<polygon fill="#ffffff" stroke="transparent" points="-4,4 -4,-595 2157.5,-595 2157.5,4 -4,4"/>
<!-- Node1 -->
<g id="node1" class="node">
<title>Node1</title>
<g id="a_node1"><a xlink:title=" ">
<polygon fill="#bfbfbf" stroke="#000000" points="824,-560.5 824,-590.5 939,-590.5 939,-560.5 824,-560.5"/>
<text text-anchor="start" x="832" y="-578.5" font-family="Helvetica,sans-Serif" font-size="10.00" fill="#000000">src/application_server</text>
<text text-anchor="middle" x="881.5" y="-567.5" font-family="Helvetica,sans-Serif" font-size="10.00" fill="#000000">/main.cpp</text>
</a>
</g>
</g>
<!-- Node2 -->
<g id="node2" class="node">
<title>Node2</title>
<g id="a_node2"><a xlink:title=" ">
<polygon fill="#ffffff" stroke="#bfbfbf" points="0,-504.5 0,-523.5 73,-523.5 73,-504.5 0,-504.5"/>
<text text-anchor="middle" x="36.5" y="-511.5" font-family="Helvetica,sans-Serif" font-size="10.00" fill="#000000">QApplication</text>
</a>
</g>
</g>
<!-- Node1&#45;&gt;Node2 -->
<g id="edge1" class="edge">
<title>Node1&#45;&gt;Node2</title>
<path fill="none" stroke="#191970" d="M823.9548,-574.836C693.5568,-572.6769 365.5668,-563.5646 83.2744,-524.0699"/>
<polygon fill="#191970" stroke="#191970" points="83.6438,-520.5874 73.2521,-522.6521 82.6632,-527.5184 83.6438,-520.5874"/>
</g>
<!-- Node3 -->
<g id="node3" class="node">
<title>Node3</title>
<g id="a_node3"><a xlink:title=" ">
<polygon fill="#ffffff" stroke="#bfbfbf" points="91,-504.5 91,-523.5 156,-523.5 156,-504.5 91,-504.5"/>
<text text-anchor="middle" x="123.5" y="-511.5" font-family="Helvetica,sans-Serif" font-size="10.00" fill="#000000">QMenuBar</text>
</a>
</g>
</g>
<!-- Node1&#45;&gt;Node3 -->
<g id="edge2" class="edge">
<title>Node1&#45;&gt;Node3</title>
<path fill="none" stroke="#191970" d="M823.6035,-574.5081C702.9603,-571.7557 415.856,-561.6341 166.3931,-523.8967"/>
<polygon fill="#191970" stroke="#191970" points="166.8299,-520.4229 156.4155,-522.3694 165.7707,-527.3423 166.8299,-520.4229"/>
</g>
<!-- Node4 -->
<g id="node4" class="node">
<title>Node4</title>
<g id="a_node4"><a xlink:title=" ">
<polygon fill="#ffffff" stroke="#bfbfbf" points="174.5,-504.5 174.5,-523.5 228.5,-523.5 228.5,-504.5 174.5,-504.5"/>
<text text-anchor="middle" x="201.5" y="-511.5" font-family="Helvetica,sans-Serif" font-size="10.00" fill="#000000">QDebug</text>
</a>
</g>
</g>
<!-- Node1&#45;&gt;Node4 -->
<g id="edge3" class="edge">
<title>Node1&#45;&gt;Node4</title>
<path fill="none" stroke="#191970" d="M823.7395,-574.5713C712.1637,-571.9787 459.288,-562.2178 239.0254,-523.9744"/>
<polygon fill="#191970" stroke="#191970" points="239.3486,-520.4776 228.8932,-522.1908 238.135,-527.3716 239.3486,-520.4776"/>
</g>
<!-- Node5 -->
<g id="node5" class="node">
<title>Node5</title>
<g id="a_node5"><a xlink:title=" ">
<polygon fill="#ffffff" stroke="#bfbfbf" points="246.5,-504.5 246.5,-523.5 298.5,-523.5 298.5,-504.5 246.5,-504.5"/>
<text text-anchor="middle" x="272.5" y="-511.5" font-family="Helvetica,sans-Serif" font-size="10.00" fill="#000000">QAction</text>
</a>
</g>
</g>
<!-- Node1&#45;&gt;Node5 -->
<g id="edge4" class="edge">
<title>Node1&#45;&gt;Node5</title>
<path fill="none" stroke="#191970" d="M823.9829,-573.9272C721.8277,-570.3542 502.073,-559.1529 308.8028,-523.9333"/>
<polygon fill="#191970" stroke="#191970" points="309.2161,-520.4505 298.7464,-522.0743 307.9436,-527.3338 309.2161,-520.4505"/>
</g>
<!-- Node6 -->
<g id="node6" class="node">
<title>Node6</title>
<g id="a_node6"><a xlink:title=" ">
<polygon fill="#ffffff" stroke="#bfbfbf" points="316.5,-504.5 316.5,-523.5 380.5,-523.5 380.5,-504.5 316.5,-504.5"/>
<text text-anchor="middle" x="348.5" y="-511.5" font-family="Helvetica,sans-Serif" font-size="10.00" fill="#000000">QTextItem</text>
</a>
</g>
</g>
<!-- Node1&#45;&gt;Node6 -->
<g id="edge5" class="edge">
<title>Node1&#45;&gt;Node6</title>
<path fill="none" stroke="#191970" d="M823.9616,-572.005C733.6458,-565.9646 553.0149,-551.6494 390.8062,-524.0266"/>
<polygon fill="#191970" stroke="#191970" points="391.0921,-520.5244 380.6428,-522.2741 389.9026,-527.4226 391.0921,-520.5244"/>
</g>
<!-- Node7 -->
<g id="node7" class="node">
<title>Node7</title>
<g id="a_node7"><a xlink:title=" ">
<polygon fill="#ffffff" stroke="#bfbfbf" points="399,-504.5 399,-523.5 450,-523.5 450,-504.5 399,-504.5"/>
<text text-anchor="middle" x="424.5" y="-511.5" font-family="Helvetica,sans-Serif" font-size="10.00" fill="#000000">QTimer</text>
</a>
</g>
</g>
<!-- Node1&#45;&gt;Node7 -->
<g id="edge6" class="edge">
<title>Node1&#45;&gt;Node7</title>
<path fill="none" stroke="#191970" d="M823.8251,-570.6224C743.0392,-563.2815 591.7949,-547.6809 464.5,-524 463.0485,-523.73 461.5713,-523.4386 460.0819,-523.1309"/>
<polygon fill="#191970" stroke="#191970" points="460.7427,-519.6923 450.2193,-520.9208 459.2119,-526.5229 460.7427,-519.6923"/>
</g>
<!-- Node8 -->
<g id="node8" class="node">
<title>Node8</title>
<g id="a_node8"><a xlink:title=" ">
<polygon fill="#ffffff" stroke="#bfbfbf" points="1311.5,-336.5 1311.5,-355.5 1391.5,-355.5 1391.5,-336.5 1311.5,-336.5"/>
<text text-anchor="middle" x="1351.5" y="-343.5" font-family="Helvetica,sans-Serif" font-size="10.00" fill="#000000">QDockWidget</text>
</a>
</g>
</g>
<!-- Node1&#45;&gt;Node8 -->
<g id="edge7" class="edge">
<title>Node1&#45;&gt;Node8</title>
<path fill="none" stroke="#191970" d="M939.0724,-565.775C1027.3195,-548.3795 1197.5433,-504.7172 1309.5,-412 1324.7982,-399.3307 1336.3246,-379.5966 1343.3959,-365.0046"/>
<polygon fill="#191970" stroke="#191970" points="1346.5955,-366.4239 1347.5712,-355.8741 1340.2295,-363.5127 1346.5955,-366.4239"/>
</g>
<!-- Node9 -->
<g id="node9" class="node">
<title>Node9</title>
<g id="a_node9"><a xlink:title=" ">
<polygon fill="#ffffff" stroke="#bfbfbf" points="1622.5,-112.5 1622.5,-131.5 1678.5,-131.5 1678.5,-112.5 1622.5,-112.5"/>
<text text-anchor="middle" x="1650.5" y="-119.5" font-family="Helvetica,sans-Serif" font-size="10.00" fill="#000000">QWidget</text>
</a>
</g>
</g>
<!-- Node1&#45;&gt;Node9 -->
<g id="edge8" class="edge">
<title>Node1&#45;&gt;Node9</title>
<path fill="none" stroke="#191970" d="M939.2157,-574.4165C1126.4923,-570.6141 1715.951,-556.321 1903.5,-524 2000.7491,-507.2407 2115.5,-556.6827 2115.5,-458 2115.5,-458 2115.5,-458 2115.5,-234 2115.5,-197.1996 2097.5012,-186.1712 2065.5,-168 2001.6053,-131.7187 1778.6644,-124.0529 1688.6385,-122.4335"/>
<polygon fill="#191970" stroke="#191970" points="1688.6445,-118.9333 1678.5883,-122.2682 1688.5293,-125.9323 1688.6445,-118.9333"/>
</g>
<!-- Node10 -->
<g id="node10" class="node">
<title>Node10</title>
<g id="a_node10"><a xlink:title=" ">
<polygon fill="#ffffff" stroke="#bfbfbf" points="1937.5,-168.5 1937.5,-187.5 2011.5,-187.5 2011.5,-168.5 1937.5,-168.5"/>
<text text-anchor="middle" x="1974.5" y="-175.5" font-family="Helvetica,sans-Serif" font-size="10.00" fill="#000000">QGridLayout</text>
</a>
</g>
</g>
<!-- Node1&#45;&gt;Node10 -->
<g id="edge9" class="edge">
<title>Node1&#45;&gt;Node10</title>
<path fill="none" stroke="#191970" d="M939.0397,-572.3993C1165.1671,-559.8399 1980.5,-510.8886 1980.5,-458 1980.5,-458 1980.5,-458 1980.5,-290 1980.5,-257.6653 1977.9755,-220.1547 1976.2016,-197.7876"/>
<polygon fill="#191970" stroke="#191970" points="1979.6698,-197.2576 1975.3597,-187.5791 1972.6935,-197.833 1979.6698,-197.2576"/>
</g>
<!-- Node11 -->
<g id="node11" class="node">
<title>Node11</title>
<g id="a_node11"><a xlink:title=" ">
<polygon fill="#ffffff" stroke="#bfbfbf" points="564.5,-392.5 564.5,-411.5 638.5,-411.5 638.5,-392.5 564.5,-392.5"/>
<text text-anchor="middle" x="601.5" y="-399.5" font-family="Helvetica,sans-Serif" font-size="10.00" fill="#000000">QInputDialog</text>
</a>
</g>
</g>
<!-- Node1&#45;&gt;Node11 -->
<g id="edge10" class="edge">
<title>Node1&#45;&gt;Node11</title>
<path fill="none" stroke="#191970" d="M823.8122,-564.9059C790.9163,-557.0829 749.9163,-544.2079 717.5,-524 672.6839,-496.0623 633.3413,-446.7819 614.0733,-420.2068"/>
<polygon fill="#191970" stroke="#191970" points="616.7641,-417.951 608.1191,-411.826 611.0576,-422.0052 616.7641,-417.951"/>
</g>
<!-- Node12 -->
<g id="node12" class="node">
<title>Node12</title>
<g id="a_node12"><a xlink:title=" ">
<polygon fill="#ffffff" stroke="#bfbfbf" points="656.5,-392.5 656.5,-411.5 718.5,-411.5 718.5,-392.5 656.5,-392.5"/>
<text text-anchor="middle" x="687.5" y="-399.5" font-family="Helvetica,sans-Serif" font-size="10.00" fill="#000000">QToolBar</text>
</a>
</g>
</g>
<!-- Node1&#45;&gt;Node12 -->
<g id="edge11" class="edge">
<title>Node1&#45;&gt;Node12</title>
<path fill="none" stroke="#191970" d="M823.9464,-566.6696C794.601,-559.5353 760.2018,-546.7576 736.5,-524 707.3992,-496.0585 695.1245,-448.5437 690.3136,-421.8031"/>
<polygon fill="#191970" stroke="#191970" points="693.7363,-421.0436 688.6815,-411.7324 686.8265,-422.1636 693.7363,-421.0436"/>
</g>
<!-- Node13 -->
<g id="node13" class="node">
<title>Node13</title>
<g id="a_node13"><a xlink:title=" ">
<polygon fill="#ffffff" stroke="#bfbfbf" points="745.5,-504.5 745.5,-523.5 819.5,-523.5 819.5,-504.5 745.5,-504.5"/>
<text text-anchor="middle" x="782.5" y="-511.5" font-family="Helvetica,sans-Serif" font-size="10.00" fill="#000000">QToolButton</text>
</a>
</g>
</g>
<!-- Node1&#45;&gt;Node13 -->
<g id="edge12" class="edge">
<title>Node1&#45;&gt;Node13</title>
<path fill="none" stroke="#191970" d="M857.2819,-560.4554C841.9227,-550.9141 822.1243,-538.6151 806.7575,-529.0691"/>
<polygon fill="#191970" stroke="#191970" points="808.1828,-525.8341 797.8415,-523.5303 804.489,-531.7802 808.1828,-525.8341"/>
</g>
<!-- Node14 -->
<g id="node14" class="node">
<title>Node14</title>
<g id="a_node14"><a xlink:title=" ">
<polygon fill="#ffffff" stroke="#bfbfbf" points="837.5,-504.5 837.5,-523.5 925.5,-523.5 925.5,-504.5 837.5,-504.5"/>
<text text-anchor="middle" x="881.5" y="-511.5" font-family="Helvetica,sans-Serif" font-size="10.00" fill="#000000">QFontDatabase</text>
</a>
</g>
</g>
<!-- Node1&#45;&gt;Node14 -->
<g id="edge13" class="edge">
<title>Node1&#45;&gt;Node14</title>
<path fill="none" stroke="#191970" d="M881.5,-560.2977C881.5,-552.3834 881.5,-542.6043 881.5,-534.0759"/>
<polygon fill="#191970" stroke="#191970" points="885.0001,-533.8469 881.5,-523.8469 878.0001,-533.847 885.0001,-533.8469"/>
</g>
<!-- Node15 -->
<g id="node15" class="node">
<title>Node15</title>
<g id="a_node15"><a xlink:title=" ">
<polygon fill="#ffffff" stroke="#bfbfbf" points="1509,-56.5 1509,-75.5 1562,-75.5 1562,-56.5 1509,-56.5"/>
<text text-anchor="middle" x="1535.5" y="-63.5" font-family="Helvetica,sans-Serif" font-size="10.00" fill="#000000">QImage</text>
</a>
</g>
</g>
<!-- Node1&#45;&gt;Node15 -->
<g id="edge14" class="edge">
<title>Node1&#45;&gt;Node15</title>
<path fill="none" stroke="#191970" d="M939.053,-574.2077C1154.8518,-569.1805 1908.9541,-549.9164 2013.5,-524 2080.2689,-507.4483 2153.5,-526.7899 2153.5,-458 2153.5,-458 2153.5,-458 2153.5,-178 2153.5,-118.548 1704.9664,-79.1061 1572.1365,-68.7291"/>
<polygon fill="#191970" stroke="#191970" points="1572.2946,-65.231 1562.0547,-67.9502 1571.7553,-72.2102 1572.2946,-65.231"/>
</g>
<!-- Node16 -->
<g id="node16" class="node">
<title>Node16</title>
<g id="a_node16"><a xlink:href="mainwindow_8h.html" target="_top" xlink:title=" ">
<polygon fill="#ffffff" stroke="#000000" points="198.5,-112.5 198.5,-131.5 278.5,-131.5 278.5,-112.5 198.5,-112.5"/>
<text text-anchor="middle" x="238.5" y="-119.5" font-family="Helvetica,sans-Serif" font-size="10.00" fill="#000000">mainwindow.h</text>
</a>
</g>
</g>
<!-- Node1&#45;&gt;Node16 -->
<g id="edge15" class="edge">
<title>Node1&#45;&gt;Node16</title>
<path fill="none" stroke="#191970" d="M823.9818,-568.6643C755.424,-560.1079 637.5558,-544.1032 537.5,-524 501.9908,-516.8655 493.6454,-512.7522 458.5,-504 393.2294,-487.7458 371.5289,-498.3475 311.5,-468 270.6693,-447.3581 232.5,-447.7519 232.5,-402 232.5,-402 232.5,-402 232.5,-234 232.5,-201.6653 235.0245,-164.1547 236.7984,-141.7876"/>
<polygon fill="#191970" stroke="#191970" points="240.3065,-141.833 237.6403,-131.5791 233.3302,-141.2576 240.3065,-141.833"/>
</g>
<!-- Node19 -->
<g id="node19" class="node">
<title>Node19</title>
<g id="a_node19"><a xlink:href="main_8h.html" target="_top" xlink:title=" ">
<polygon fill="#ffffff" stroke="#000000" points="605.5,-504.5 605.5,-523.5 651.5,-523.5 651.5,-504.5 605.5,-504.5"/>
<text text-anchor="middle" x="628.5" y="-511.5" font-family="Helvetica,sans-Serif" font-size="10.00" fill="#000000">main.h</text>
</a>
</g>
</g>
<!-- Node1&#45;&gt;Node19 -->
<g id="edge18" class="edge">
<title>Node1&#45;&gt;Node19</title>
<path fill="none" stroke="#191970" d="M823.627,-562.1969C780.0646,-552.0633 718.9278,-537.586 665.5,-524 664.2304,-523.6772 662.9372,-523.3448 661.6316,-523.0064"/>
<polygon fill="#191970" stroke="#191970" points="662.1268,-519.5172 651.5646,-520.3479 660.3395,-526.2852 662.1268,-519.5172"/>
</g>
<!-- Node32 -->
<g id="node32" class="node">
<title>Node32</title>
<g id="a_node32"><a xlink:href="scene_8h.html" target="_top" xlink:title=" ">
<polygon fill="#ffffff" stroke="#000000" points="514.5,-224.5 514.5,-243.5 566.5,-243.5 566.5,-224.5 514.5,-224.5"/>
<text text-anchor="middle" x="540.5" y="-231.5" font-family="Helvetica,sans-Serif" font-size="10.00" fill="#000000">scene.h</text>
</a>
</g>
</g>
<!-- Node1&#45;&gt;Node32 -->
<g id="edge113" class="edge">
<title>Node1&#45;&gt;Node32</title>
<path fill="none" stroke="#191970" d="M823.8014,-569.9518C765.3671,-563.2094 672.9534,-549.4386 596.5,-524 519.4522,-498.3637 460.5,-483.2009 460.5,-402 460.5,-402 460.5,-402 460.5,-346 460.5,-305.601 495.3919,-269.7136 519.0894,-249.9987"/>
<polygon fill="#191970" stroke="#191970" points="521.3125,-252.7024 526.9291,-243.7189 516.9361,-247.2391 521.3125,-252.7024"/>
</g>
<!-- Node41 -->
<g id="node41" class="node">
<title>Node41</title>
<g id="a_node41"><a xlink:href="graphicsmanager_8h.html" target="_top" xlink:title=" ">
<polygon fill="#ffffff" stroke="#000000" points="1447,-112.5 1447,-131.5 1550,-131.5 1550,-112.5 1447,-112.5"/>
<text text-anchor="middle" x="1498.5" y="-119.5" font-family="Helvetica,sans-Serif" font-size="10.00" fill="#000000">graphicsmanager.h</text>
</a>
</g>
</g>
<!-- Node1&#45;&gt;Node41 -->
<g id="edge114" class="edge">
<title>Node1&#45;&gt;Node41</title>
<path fill="none" stroke="#191970" d="M939.0665,-574.2341C1074.3086,-570.7579 1422.6844,-558.8808 1711.5,-524 1875.5979,-504.1816 2077.5,-623.2903 2077.5,-458 2077.5,-458 2077.5,-458 2077.5,-234 2077.5,-200.3717 2068.7758,-186.2029 2040.5,-168 1960.4314,-116.4547 1708.3783,-140.1247 1613.5,-132 1596.1407,-130.5135 1577.3091,-128.8833 1560.0073,-127.3785"/>
<polygon fill="#191970" stroke="#191970" points="1560.2855,-123.8896 1550.0196,-126.509 1559.6784,-130.8632 1560.2855,-123.8896"/>
</g>
<!-- Node43 -->
<g id="node43" class="node">
<title>Node43</title>
<g id="a_node43"><a xlink:href="view_8h.html" target="_top" xlink:title=" ">
<polygon fill="#ffffff" stroke="#000000" points="1270,-280.5 1270,-299.5 1315,-299.5 1315,-280.5 1270,-280.5"/>
<text text-anchor="middle" x="1292.5" y="-287.5" font-family="Helvetica,sans-Serif" font-size="10.00" fill="#000000">view.h</text>
</a>
</g>
</g>
<!-- Node1&#45;&gt;Node43 -->
<g id="edge112" class="edge">
<title>Node1&#45;&gt;Node43</title>
<path fill="none" stroke="#191970" d="M939.193,-567.9089C991.7499,-560.0554 1071.0677,-545.8363 1137.5,-524 1269.2659,-480.6886 1340.8558,-481.2226 1400.5,-356 1416.7379,-321.9087 1362.5115,-303.8466 1325.1045,-295.6555"/>
<polygon fill="#191970" stroke="#191970" points="1325.5712,-292.1785 1315.0724,-293.6018 1324.1673,-299.0363 1325.5712,-292.1785"/>
</g>
<!-- Node45 -->
<g id="node45" class="node">
<title>Node45</title>
<g id="a_node45"><a xlink:href="tooltipmenu_8h.html" target="_top" xlink:title=" ">
<polygon fill="#ffffff" stroke="#000000" points="1693,-224.5 1693,-243.5 1768,-243.5 1768,-224.5 1693,-224.5"/>
<text text-anchor="middle" x="1730.5" y="-231.5" font-family="Helvetica,sans-Serif" font-size="10.00" fill="#000000">tooltipmenu.h</text>
</a>
</g>
</g>
<!-- Node1&#45;&gt;Node45 -->
<g id="edge116" class="edge">
<title>Node1&#45;&gt;Node45</title>
<path fill="none" stroke="#191970" d="M939.1339,-573.2675C1124.9872,-565.311 1696.5,-534.6155 1696.5,-458 1696.5,-458 1696.5,-458 1696.5,-346 1696.5,-311.9677 1711.0515,-274.5293 1721.1151,-252.7067"/>
<polygon fill="#191970" stroke="#191970" points="1724.319,-254.1198 1725.4832,-243.5891 1718.0061,-251.0954 1724.319,-254.1198"/>
</g>
<!-- Node47 -->
<g id="node47" class="node">
<title>Node47</title>
<g id="a_node47"><a xlink:href="maprenderer_8h.html" target="_top" xlink:title=" ">
<polygon fill="#ffffff" stroke="#000000" points="1302.5,-224.5 1302.5,-243.5 1384.5,-243.5 1384.5,-224.5 1302.5,-224.5"/>
<text text-anchor="middle" x="1343.5" y="-231.5" font-family="Helvetica,sans-Serif" font-size="10.00" fill="#000000">maprenderer.h</text>
</a>
</g>
</g>
<!-- Node1&#45;&gt;Node47 -->
<g id="edge125" class="edge">
<title>Node1&#45;&gt;Node47</title>
<path fill="none" stroke="#191970" d="M939.1004,-569.7915C1084.9798,-554.5619 1457.5,-510.5287 1457.5,-458 1457.5,-458 1457.5,-458 1457.5,-402 1457.5,-336.6402 1397.6887,-277.8221 1364.7129,-250.3607"/>
<polygon fill="#191970" stroke="#191970" points="1366.55,-247.3445 1356.5772,-243.7676 1362.1427,-252.7829 1366.55,-247.3445"/>
</g>
<!-- Node53 -->
<g id="node53" class="node">
<title>Node53</title>
<g id="a_node53"><a xlink:href="routeinterface_8h.html" target="_top" xlink:title=" ">
<polygon fill="#ffffff" stroke="#000000" points="1215,-392.5 1215,-411.5 1300,-411.5 1300,-392.5 1215,-392.5"/>
<text text-anchor="middle" x="1257.5" y="-399.5" font-family="Helvetica,sans-Serif" font-size="10.00" fill="#000000">routeinterface.h</text>
</a>
</g>
</g>
<!-- Node1&#45;&gt;Node53 -->
<g id="edge123" class="edge">
<title>Node1&#45;&gt;Node53</title>
<path fill="none" stroke="#191970" d="M914.2098,-560.4065C986.3917,-527.0992 1158.3992,-447.7287 1227.7544,-415.7257"/>
<polygon fill="#191970" stroke="#191970" points="1229.2249,-418.9019 1236.8384,-411.534 1226.292,-412.5459 1229.2249,-418.9019"/>
</g>
<!-- Node58 -->
<g id="node58" class="node">
<title>Node58</title>
<g id="a_node58"><a xlink:href="routeListInterface_8h.html" target="_top" xlink:title=" ">
<polygon fill="#ffffff" stroke="#000000" points="1075.5,-392.5 1075.5,-411.5 1175.5,-411.5 1175.5,-392.5 1075.5,-392.5"/>
<text text-anchor="middle" x="1125.5" y="-399.5" font-family="Helvetica,sans-Serif" font-size="10.00" fill="#000000">routeListInterface.h</text>
</a>
</g>
</g>
<!-- Node1&#45;&gt;Node58 -->
<g id="edge124" class="edge">
<title>Node1&#45;&gt;Node58</title>
<path fill="none" stroke="#191970" d="M902.7266,-560.4065C948.8017,-527.6441 1057.555,-450.3133 1103.9352,-417.334"/>
<polygon fill="#191970" stroke="#191970" points="1105.9704,-420.1815 1112.0919,-411.534 1101.9139,-414.4766 1105.9704,-420.1815"/>
</g>
<!-- Node59 -->
<g id="node59" class="node">
<title>Node59</title>
<g id="a_node59"><a xlink:href="sidepanel_8h.html" target="_top" xlink:title=" ">
<polygon fill="#ffffff" stroke="#000000" points="1794.5,-336.5 1794.5,-355.5 1862.5,-355.5 1862.5,-336.5 1794.5,-336.5"/>
<text text-anchor="middle" x="1828.5" y="-343.5" font-family="Helvetica,sans-Serif" font-size="10.00" fill="#000000">sidepanel.h</text>
</a>
</g>
</g>
<!-- Node1&#45;&gt;Node59 -->
<g id="edge115" class="edge">
<title>Node1&#45;&gt;Node59</title>
<path fill="none" stroke="#191970" d="M939.1582,-573.2111C1067.3352,-567.6788 1372.414,-551.9353 1471.5,-524 1606.3462,-485.9829 1751.0045,-396.8974 1805.7626,-361.1941"/>
<polygon fill="#191970" stroke="#191970" points="1807.9099,-363.9712 1814.3441,-355.5539 1804.0651,-358.1215 1807.9099,-363.9712"/>
</g>
<!-- Node61 -->
<g id="node61" class="node">
<title>Node61</title>
<g id="a_node61"><a xlink:href="gameloop_8h.html" target="_top" xlink:title=" ">
<polygon fill="#ffffff" stroke="#000000" points="911.5,-392.5 911.5,-411.5 981.5,-411.5 981.5,-392.5 911.5,-392.5"/>
<text text-anchor="middle" x="946.5" y="-399.5" font-family="Helvetica,sans-Serif" font-size="10.00" fill="#000000">gameloop.h</text>
</a>
</g>
</g>
<!-- Node1&#45;&gt;Node61 -->
<g id="edge117" class="edge">
<title>Node1&#45;&gt;Node61</title>
<path fill="none" stroke="#191970" d="M903.1937,-560.4136C914.5357,-551.2674 927.4845,-538.5641 934.5,-524 950.4389,-490.911 950.3418,-446.9942 948.5857,-421.8838"/>
<polygon fill="#191970" stroke="#191970" points="952.0604,-421.4386 947.7138,-411.7764 945.0863,-422.0403 952.0604,-421.4386"/>
</g>
<!-- Node17 -->
<g id="node17" class="node">
<title>Node17</title>
<g id="a_node17"><a xlink:title=" ">
<polygon fill="#ffffff" stroke="#bfbfbf" points="197,-56.5 197,-75.5 280,-75.5 280,-56.5 197,-56.5"/>
<text text-anchor="middle" x="238.5" y="-63.5" font-family="Helvetica,sans-Serif" font-size="10.00" fill="#000000">QMainWindow</text>
</a>
</g>
</g>
<!-- Node16&#45;&gt;Node17 -->
<g id="edge16" class="edge">
<title>Node16&#45;&gt;Node17</title>
<path fill="none" stroke="#191970" d="M238.5,-112.2455C238.5,-104.9382 238.5,-94.6944 238.5,-85.7046"/>
<polygon fill="#191970" stroke="#191970" points="242.0001,-85.6426 238.5,-75.6427 235.0001,-85.6427 242.0001,-85.6426"/>
</g>
<!-- Node18 -->
<g id="node18" class="node">
<title>Node18</title>
<g id="a_node18"><a xlink:title=" ">
<polygon fill="#ffffff" stroke="#bfbfbf" points="112,-56.5 112,-75.5 179,-75.5 179,-56.5 112,-56.5"/>
<text text-anchor="middle" x="145.5" y="-63.5" font-family="Helvetica,sans-Serif" font-size="10.00" fill="#000000">QKeyEvent</text>
</a>
</g>
</g>
<!-- Node16&#45;&gt;Node18 -->
<g id="edge17" class="edge">
<title>Node16&#45;&gt;Node18</title>
<path fill="none" stroke="#191970" d="M222.3006,-112.2455C207.8982,-103.5731 186.6268,-90.7645 170.1201,-80.825"/>
<polygon fill="#191970" stroke="#191970" points="171.886,-77.8028 161.5137,-75.6427 168.275,-83.7996 171.886,-77.8028"/>
</g>
<!-- Node19&#45;&gt;Node16 -->
<g id="edge19" class="edge">
<title>Node19&#45;&gt;Node16</title>
<path fill="none" stroke="#191970" d="M605.2865,-511.8307C525.9555,-503.7861 270.5,-472.4147 270.5,-402 270.5,-402 270.5,-402 270.5,-234 270.5,-200.132 256.8045,-162.643 247.3328,-140.7657"/>
<polygon fill="#191970" stroke="#191970" points="250.5149,-139.3077 243.2217,-131.6226 244.1305,-142.1784 250.5149,-139.3077"/>
</g>
<!-- Node20 -->
<g id="node20" class="node">
<title>Node20</title>
<g id="a_node20"><a xlink:href="datamodel_8h.html" target="_top" xlink:title=" ">
<polygon fill="#ffffff" stroke="#000000" points="956,-168.5 956,-187.5 1029,-187.5 1029,-168.5 956,-168.5"/>
<text text-anchor="middle" x="992.5" y="-175.5" font-family="Helvetica,sans-Serif" font-size="10.00" fill="#000000">datamodel.h</text>
</a>
</g>
</g>
<!-- Node19&#45;&gt;Node20 -->
<g id="edge20" class="edge">
<title>Node19&#45;&gt;Node20</title>
<path fill="none" stroke="#191970" d="M614.9988,-504.378C588.1532,-484.0068 532.5559,-434.8714 555.5,-392 619.0155,-273.3202 684.3651,-278.3775 807.5,-224 820.166,-218.4066 895.3244,-200.4698 945.8621,-188.7171"/>
<polygon fill="#191970" stroke="#191970" points="946.6652,-192.1238 955.6156,-186.4545 945.0833,-185.3049 946.6652,-192.1238"/>
</g>
<!-- Node22 -->
<g id="node22" class="node">
<title>Node22</title>
<g id="a_node22"><a xlink:title=" ">
<polygon fill="#ffffff" stroke="#bfbfbf" points="1380,-112.5 1380,-131.5 1429,-131.5 1429,-112.5 1380,-112.5"/>
<text text-anchor="middle" x="1404.5" y="-119.5" font-family="Helvetica,sans-Serif" font-size="10.00" fill="#000000">QLabel</text>
</a>
</g>
</g>
<!-- Node19&#45;&gt;Node22 -->
<g id="edge28" class="edge">
<title>Node19&#45;&gt;Node22</title>
<path fill="none" stroke="#191970" d="M606.2959,-504.3965C590.8392,-496.6535 570.8592,-484.3606 558.5,-468 474.7449,-357.1283 374.3184,-268.2823 470.5,-168 503.6774,-133.408 1284.7628,-136.3019 1332.5,-132 1344.7489,-130.8962 1358.106,-129.1836 1369.9524,-127.4857"/>
<polygon fill="#191970" stroke="#191970" points="1370.528,-130.9388 1379.9082,-126.0131 1369.5036,-124.0141 1370.528,-130.9388"/>
</g>
<!-- Node26 -->
<g id="node26" class="node">
<title>Node26</title>
<g id="a_node26"><a xlink:href="client_8h.html" target="_top" xlink:title=" ">
<polygon fill="#ffffff" stroke="#000000" points="912,-336.5 912,-355.5 959,-355.5 959,-336.5 912,-336.5"/>
<text text-anchor="middle" x="935.5" y="-343.5" font-family="Helvetica,sans-Serif" font-size="10.00" fill="#000000">client.h</text>
</a>
</g>
</g>
<!-- Node19&#45;&gt;Node26 -->
<g id="edge29" class="edge">
<title>Node19&#45;&gt;Node26</title>
<path fill="none" stroke="#191970" d="M651.5694,-512.9754C689.9654,-510.3539 768.308,-501.0408 824.5,-468 847.8652,-454.2613 897.375,-394.1249 921.5839,-363.7263"/>
<polygon fill="#191970" stroke="#191970" points="924.5014,-365.6798 927.9639,-355.6667 919.0129,-361.3351 924.5014,-365.6798"/>
</g>
<!-- Node52 -->
<g id="node52" class="node">
<title>Node52</title>
<g id="a_node52"><a xlink:href="menubar_8h.html" target="_top" xlink:title=" ">
<polygon fill="#ffffff" stroke="#000000" points="753,-448.5 753,-467.5 816,-467.5 816,-448.5 753,-448.5"/>
<text text-anchor="middle" x="784.5" y="-455.5" font-family="Helvetica,sans-Serif" font-size="10.00" fill="#000000">menubar.h</text>
</a>
</g>
</g>
<!-- Node19&#45;&gt;Node52 -->
<g id="edge80" class="edge">
<title>Node19&#45;&gt;Node52</title>
<path fill="none" stroke="#191970" d="M651.5183,-505.737C677.0273,-496.5799 718.499,-481.6927 748.3513,-470.9765"/>
<polygon fill="#191970" stroke="#191970" points="749.7604,-474.1894 757.9898,-467.5165 747.3953,-467.601 749.7604,-474.1894"/>
</g>
<!-- Node19&#45;&gt;Node59 -->
<g id="edge103" class="edge">
<title>Node19&#45;&gt;Node59</title>
<path fill="none" stroke="#191970" d="M651.6655,-510.7568C797.4517,-490.3468 1588.2243,-379.6386 1784.4278,-352.1701"/>
<polygon fill="#191970" stroke="#191970" points="1784.9633,-355.6294 1794.3814,-350.7766 1783.9927,-348.697 1784.9633,-355.6294"/>
</g>
<!-- Node20&#45;&gt;Node9 -->
<g id="edge23" class="edge">
<title>Node20&#45;&gt;Node9</title>
<path fill="none" stroke="#191970" d="M1029.0716,-169.5486C1032.2501,-168.9664 1035.4254,-168.4381 1038.5,-168 1268.2871,-135.2606 1328.3155,-152.6811 1559.5,-132 1576.7713,-130.455 1595.8494,-128.4106 1612.0574,-126.5731"/>
<polygon fill="#191970" stroke="#191970" points="1612.7108,-130.0211 1622.246,-125.4028 1611.9119,-123.0668 1612.7108,-130.0211"/>
</g>
<!-- Node20&#45;&gt;Node16 -->
<g id="edge24" class="edge">
<title>Node20&#45;&gt;Node16</title>
<path fill="none" stroke="#191970" d="M955.9317,-169.5248C952.7525,-168.9478 949.5761,-168.4271 946.5,-168 690.2412,-132.4174 623.5797,-150.1549 365.5,-132 340.1318,-130.2154 311.9309,-128.0166 288.5598,-126.1356"/>
<polygon fill="#191970" stroke="#191970" points="288.7762,-122.6417 278.5265,-125.3237 288.2116,-129.6189 288.7762,-122.6417"/>
</g>
<!-- Node21 -->
<g id="node21" class="node">
<title>Node21</title>
<g id="a_node21"><a xlink:title=" ">
<polygon fill="#ffffff" stroke="#bfbfbf" points="851,-56.5 851,-75.5 892,-75.5 892,-56.5 851,-56.5"/>
<text text-anchor="middle" x="871.5" y="-63.5" font-family="Helvetica,sans-Serif" font-size="10.00" fill="#000000">string</text>
</a>
</g>
</g>
<!-- Node20&#45;&gt;Node21 -->
<g id="edge21" class="edge">
<title>Node20&#45;&gt;Node21</title>
<path fill="none" stroke="#191970" d="M955.8787,-169.5654C922.5692,-161.0641 877.0446,-147.075 866.5,-132 857.0526,-118.4936 859.7617,-99.4025 863.9705,-85.2252"/>
<polygon fill="#191970" stroke="#191970" points="867.3672,-86.1101 867.305,-75.5155 860.7467,-83.8365 867.3672,-86.1101"/>
</g>
<!-- Node20&#45;&gt;Node22 -->
<g id="edge22" class="edge">
<title>Node20&#45;&gt;Node22</title>
<path fill="none" stroke="#191970" d="M1029.0991,-169.725C1032.2716,-169.1045 1035.4381,-168.5191 1038.5,-168 1168.2903,-145.9942 1201.9669,-149.0555 1332.5,-132 1344.6949,-130.4066 1358.039,-128.5772 1369.8902,-126.9224"/>
<polygon fill="#191970" stroke="#191970" points="1370.4379,-130.3799 1379.8541,-125.5234 1369.4646,-123.4479 1370.4379,-130.3799"/>
</g>
<!-- Node23 -->
<g id="node23" class="node">
<title>Node23</title>
<g id="a_node23"><a xlink:href="player_8h.html" target="_top" xlink:title=" ">
<polygon fill="#ffffff" stroke="#000000" points="374.5,-112.5 374.5,-131.5 426.5,-131.5 426.5,-112.5 374.5,-112.5"/>
<text text-anchor="middle" x="400.5" y="-119.5" font-family="Helvetica,sans-Serif" font-size="10.00" fill="#000000">player.h</text>
</a>
</g>
</g>
<!-- Node20&#45;&gt;Node23 -->
<g id="edge25" class="edge">
<title>Node20&#45;&gt;Node23</title>
<path fill="none" stroke="#191970" d="M955.921,-169.5989C952.7441,-169.0058 949.5712,-168.4612 946.5,-168 755.7284,-139.3519 524.5778,-127.2258 436.7322,-123.4227"/>
<polygon fill="#191970" stroke="#191970" points="436.6406,-119.9158 426.5015,-122.9897 436.3445,-126.9096 436.6406,-119.9158"/>
</g>
<!-- Node24 -->
<g id="node24" class="node">
<title>Node24</title>
<g id="a_node24"><a xlink:href="highlighter_8h.html" target="_top" xlink:title=" ">
<polygon fill="#ffffff" stroke="#000000" points="336.5,-56.5 336.5,-75.5 406.5,-75.5 406.5,-56.5 336.5,-56.5"/>
<text text-anchor="middle" x="371.5" y="-63.5" font-family="Helvetica,sans-Serif" font-size="10.00" fill="#000000">highlighter.h</text>
</a>
</g>
</g>
<!-- Node23&#45;&gt;Node24 -->
<g id="edge26" class="edge">
<title>Node23&#45;&gt;Node24</title>
<path fill="none" stroke="#191970" d="M395.4486,-112.2455C391.4981,-104.617 385.8903,-93.7881 381.0942,-84.5267"/>
<polygon fill="#191970" stroke="#191970" points="384.2001,-82.9131 376.4935,-75.6427 377.9841,-86.1321 384.2001,-82.9131"/>
</g>
<!-- Node25 -->
<g id="node25" class="node">
<title>Node25</title>
<g id="a_node25"><a xlink:title=" ">
<polygon fill="#ffffff" stroke="#bfbfbf" points="287.5,-.5 287.5,-19.5 391.5,-19.5 391.5,-.5 287.5,-.5"/>
<text text-anchor="middle" x="339.5" y="-7.5" font-family="Helvetica,sans-Serif" font-size="10.00" fill="#000000">QGraphicsRectItem</text>
</a>
</g>
</g>
<!-- Node24&#45;&gt;Node25 -->
<g id="edge27" class="edge">
<title>Node24&#45;&gt;Node25</title>
<path fill="none" stroke="#191970" d="M365.926,-56.2455C361.5669,-48.617 355.3789,-37.7881 350.0867,-28.5267"/>
<polygon fill="#191970" stroke="#191970" points="353.0104,-26.5886 345.0101,-19.6427 346.9327,-30.0616 353.0104,-26.5886"/>
</g>
<!-- Node26&#45;&gt;Node20 -->
<g id="edge55" class="edge">
<title>Node26&#45;&gt;Node20</title>
<path fill="none" stroke="#191970" d="M911.8848,-342.3814C873.1958,-335.3211 802.5872,-317.0486 823.5,-280 850.0345,-232.9923 907.8956,-205.2161 948.4884,-190.8018"/>
<polygon fill="#191970" stroke="#191970" points="949.8158,-194.0471 958.15,-187.5055 947.5554,-187.422 949.8158,-194.0471"/>
</g>
<!-- Node27 -->
<g id="node27" class="node">
<title>Node27</title>
<g id="a_node27"><a xlink:title=" ">
<polygon fill="#ffffff" stroke="#bfbfbf" points="832.5,-280.5 832.5,-299.5 906.5,-299.5 906.5,-280.5 832.5,-280.5"/>
<text text-anchor="middle" x="869.5" y="-287.5" font-family="Helvetica,sans-Serif" font-size="10.00" fill="#000000">QTcpSocket</text>
</a>
</g>
</g>
<!-- Node26&#45;&gt;Node27 -->
<g id="edge30" class="edge">
<title>Node26&#45;&gt;Node27</title>
<path fill="none" stroke="#191970" d="M924.0037,-336.2455C914.2558,-327.9746 900.0741,-315.9416 888.6202,-306.2232"/>
<polygon fill="#191970" stroke="#191970" points="890.7541,-303.4437 880.8646,-299.6427 886.2253,-308.7813 890.7541,-303.4437"/>
</g>
<!-- Node28 -->
<g id="node28" class="node">
<title>Node28</title>
<g id="a_node28"><a xlink:title=" ">
<polygon fill="#ffffff" stroke="#bfbfbf" points="925,-280.5 925,-299.5 978,-299.5 978,-280.5 925,-280.5"/>
<text text-anchor="middle" x="951.5" y="-287.5" font-family="Helvetica,sans-Serif" font-size="10.00" fill="#000000">QObject</text>
</a>
</g>
</g>
<!-- Node26&#45;&gt;Node28 -->
<g id="edge31" class="edge">
<title>Node26&#45;&gt;Node28</title>
<path fill="none" stroke="#191970" d="M938.287,-336.2455C940.3977,-328.8579 943.366,-318.4689 945.9547,-309.4087"/>
<polygon fill="#191970" stroke="#191970" points="949.363,-310.2195 948.745,-299.6427 942.6323,-308.2964 949.363,-310.2195"/>
</g>
<!-- Node29 -->
<g id="node29" class="node">
<title>Node29</title>
<g id="a_node29"><a xlink:title=" ">
<polygon fill="#ffffff" stroke="#bfbfbf" points="1193.5,-280.5 1193.5,-299.5 1251.5,-299.5 1251.5,-280.5 1193.5,-280.5"/>
<text text-anchor="middle" x="1222.5" y="-287.5" font-family="Helvetica,sans-Serif" font-size="10.00" fill="#000000">QThread</text>
</a>
</g>
</g>
<!-- Node26&#45;&gt;Node29 -->
<g id="edge32" class="edge">
<title>Node26&#45;&gt;Node29</title>
<path fill="none" stroke="#191970" d="M959.1421,-339.4488C963.8797,-338.2292 968.8348,-337.0196 973.5,-336 1064.2999,-316.1557 1088.4235,-318.5336 1179.5,-300 1180.7674,-299.7421 1182.0546,-299.4747 1183.3534,-299.2003"/>
<polygon fill="#191970" stroke="#191970" points="1184.3851,-302.5573 1193.4036,-296.9969 1182.886,-295.7197 1184.3851,-302.5573"/>
</g>
<!-- Node30 -->
<g id="node30" class="node">
<title>Node30</title>
<g id="a_node30"><a xlink:title=" ">
<polygon fill="#ffffff" stroke="#bfbfbf" points="996,-280.5 996,-299.5 1061,-299.5 1061,-280.5 996,-280.5"/>
<text text-anchor="middle" x="1028.5" y="-287.5" font-family="Helvetica,sans-Serif" font-size="10.00" fill="#000000">QStringList</text>
</a>
</g>
</g>
<!-- Node26&#45;&gt;Node30 -->
<g id="edge33" class="edge">
<title>Node26&#45;&gt;Node30</title>
<path fill="none" stroke="#191970" d="M951.6994,-336.2455C966.1018,-327.5731 987.3732,-314.7645 1003.8799,-304.825"/>
<polygon fill="#191970" stroke="#191970" points="1005.725,-307.7996 1012.4863,-299.6427 1002.114,-301.8028 1005.725,-307.7996"/>
</g>
<!-- Node31 -->
<g id="node31" class="node">
<title>Node31</title>
<g id="a_node31"><a xlink:title=" ">
<polygon fill="#ffffff" stroke="#bfbfbf" points="1068.5,-112.5 1068.5,-131.5 1118.5,-131.5 1118.5,-112.5 1068.5,-112.5"/>
<text text-anchor="middle" x="1093.5" y="-119.5" font-family="Helvetica,sans-Serif" font-size="10.00" fill="#000000">QString</text>
</a>
</g>
</g>
<!-- Node26&#45;&gt;Node31 -->
<g id="edge34" class="edge">
<title>Node26&#45;&gt;Node31</title>
<path fill="none" stroke="#191970" d="M959.3055,-340.2562C1000.0361,-330.2243 1079.592,-309.6601 1088.5,-300 1128.9228,-256.1645 1124.1037,-226.4885 1112.5,-168 1110.6352,-158.6003 1106.8201,-148.7115 1103.0946,-140.5215"/>
<polygon fill="#191970" stroke="#191970" points="1106.2433,-138.993 1098.7318,-131.5212 1099.9443,-142.0464 1106.2433,-138.993"/>
</g>
<!-- Node26&#45;&gt;Node32 -->
<g id="edge35" class="edge">
<title>Node26&#45;&gt;Node32</title>
<path fill="none" stroke="#191970" d="M911.9739,-339.3293C845.6123,-320.5129 656.595,-266.9181 576.776,-244.2858"/>
<polygon fill="#191970" stroke="#191970" points="577.2817,-240.7913 566.7062,-241.4306 575.3721,-247.5258 577.2817,-240.7913"/>
</g>
<!-- Node37 -->
<g id="node37" class="node">
<title>Node37</title>
<g id="a_node37"><a xlink:href="maptile_8h.html" target="_top" xlink:title=" ">
<polygon fill="#ffffff" stroke="#000000" points="1047.5,-168.5 1047.5,-187.5 1103.5,-187.5 1103.5,-168.5 1047.5,-168.5"/>
<text text-anchor="middle" x="1075.5" y="-175.5" font-family="Helvetica,sans-Serif" font-size="10.00" fill="#000000">maptile.h</text>
</a>
</g>
</g>
<!-- Node26&#45;&gt;Node37 -->
<g id="edge54" class="edge">
<title>Node26&#45;&gt;Node37</title>
<path fill="none" stroke="#191970" d="M959.127,-339.446C995.7292,-329.0664 1062.6642,-309.093 1069.5,-300 1091.9114,-270.1882 1086.3609,-223.7563 1080.691,-197.6115"/>
<polygon fill="#191970" stroke="#191970" points="1084.0642,-196.6683 1078.3349,-187.7562 1077.2561,-198.296 1084.0642,-196.6683"/>
</g>
<!-- Node26&#45;&gt;Node43 -->
<g id="edge56" class="edge">
<title>Node26&#45;&gt;Node43</title>
<path fill="none" stroke="#191970" d="M959.3779,-342.8485C1024.6193,-334.2077 1204.2059,-310.2148 1259.7653,-299.6573"/>
<polygon fill="#191970" stroke="#191970" points="1260.814,-303.0145 1269.8979,-297.5617 1259.3962,-296.1596 1260.814,-303.0145"/>
</g>
<!-- Node26&#45;&gt;Node47 -->
<g id="edge65" class="edge">
<title>Node26&#45;&gt;Node47</title>
<path fill="none" stroke="#191970" d="M959.1223,-340.8679C1011.3677,-329.4978 1132.8041,-302.9545 1141.5,-300 1161.4567,-293.2195 1164.7627,-287.3951 1184.5,-280 1220.6795,-266.4444 1262.7131,-254.4394 1294.4724,-246.0952"/>
<polygon fill="#191970" stroke="#191970" points="1295.6028,-249.4179 1304.4024,-243.5174 1293.8438,-242.6425 1295.6028,-249.4179"/>
</g>
<!-- Node32&#45;&gt;Node20 -->
<g id="edge53" class="edge">
<title>Node32&#45;&gt;Node20</title>
<path fill="none" stroke="#191970" d="M566.6326,-226.8819C571.229,-225.7978 575.986,-224.7819 580.5,-224 738.2506,-196.6754 783.2017,-212.7131 945.5594,-187.9633"/>
<polygon fill="#191970" stroke="#191970" points="946.5699,-191.3484 955.9138,-186.3544 945.495,-184.4314 946.5699,-191.3484"/>
</g>
<!-- Node32&#45;&gt;Node23 -->
<g id="edge51" class="edge">
<title>Node32&#45;&gt;Node23</title>
<path fill="none" stroke="#191970" d="M514.09,-225.2247C494.0028,-217.625 466.5027,-205.1444 446.5,-188 430.9908,-174.707 418.189,-155.0618 410.0629,-140.6607"/>
<polygon fill="#191970" stroke="#191970" points="413.0397,-138.807 405.2084,-131.6711 406.8804,-142.1332 413.0397,-138.807"/>
</g>
<!-- Node32&#45;&gt;Node24 -->
<g id="edge52" class="edge">
<title>Node32&#45;&gt;Node24</title>
<path fill="none" stroke="#191970" d="M514.2496,-228.7475C472.1375,-218.6518 391.5686,-191.9895 365.5,-132 359.1318,-117.3455 361.4386,-99.1677 364.8824,-85.6019"/>
<polygon fill="#191970" stroke="#191970" points="368.2818,-86.4478 367.744,-75.8666 361.5659,-84.4736 368.2818,-86.4478"/>
</g>
<!-- Node32&#45;&gt;Node25 -->
<g id="edge39" class="edge">
<title>Node32&#45;&gt;Node25</title>
<path fill="none" stroke="#191970" d="M514.3107,-232.0906C481.5811,-228.4661 425.3921,-218.015 388.5,-188 344.5318,-152.228 341.4882,-130.9288 327.5,-76 323.554,-60.5047 327.2922,-42.6463 331.6073,-29.4164"/>
<polygon fill="#191970" stroke="#191970" points="334.9279,-30.5264 335.0558,-19.9323 328.3493,-28.1343 334.9279,-30.5264"/>
</g>
<!-- Node33 -->
<g id="node33" class="node">
<title>Node33</title>
<g id="a_node33"><a xlink:title=" ">
<polygon fill="#ffffff" stroke="#bfbfbf" points="620.5,-168.5 620.5,-187.5 714.5,-187.5 714.5,-168.5 620.5,-168.5"/>
<text text-anchor="middle" x="667.5" y="-175.5" font-family="Helvetica,sans-Serif" font-size="10.00" fill="#000000">QGraphicsScene</text>
</a>
</g>
</g>
<!-- Node32&#45;&gt;Node33 -->
<g id="edge36" class="edge">
<title>Node32&#45;&gt;Node33</title>
<path fill="none" stroke="#191970" d="M562.3321,-224.3733C582.8103,-215.3435 613.6399,-201.7494 636.6319,-191.6111"/>
<polygon fill="#191970" stroke="#191970" points="638.215,-194.7383 645.9528,-187.5011 635.3907,-188.3333 638.215,-194.7383"/>
</g>
<!-- Node34 -->
<g id="node34" class="node">
<title>Node34</title>
<g id="a_node34"><a xlink:title=" ">
<polygon fill="#ffffff" stroke="#bfbfbf" points="732.5,-168.5 732.5,-187.5 836.5,-187.5 836.5,-168.5 732.5,-168.5"/>
<text text-anchor="middle" x="784.5" y="-175.5" font-family="Helvetica,sans-Serif" font-size="10.00" fill="#000000">QGraphicsTextItem</text>
</a>
</g>
</g>
<!-- Node32&#45;&gt;Node34 -->
<g id="edge37" class="edge">
<title>Node32&#45;&gt;Node34</title>
<path fill="none" stroke="#191970" d="M566.7288,-227.3504C571.3145,-226.2142 576.043,-225.0595 580.5,-224 631.4046,-211.8994 689.6469,-198.8447 730.8325,-189.745"/>
<polygon fill="#191970" stroke="#191970" points="731.6472,-193.1495 740.6585,-187.5776 730.1393,-186.3139 731.6472,-193.1495"/>
</g>
<!-- Node35 -->
<g id="node35" class="node">
<title>Node35</title>
<g id="a_node35"><a xlink:title=" ">
<polygon fill="#ffffff" stroke="#bfbfbf" points="855,-168.5 855,-187.5 938,-187.5 938,-168.5 855,-168.5"/>
<text text-anchor="middle" x="896.5" y="-175.5" font-family="Helvetica,sans-Serif" font-size="10.00" fill="#000000">QGraphicsItem</text>
</a>
</g>
</g>
<!-- Node32&#45;&gt;Node35 -->
<g id="edge38" class="edge">
<title>Node32&#45;&gt;Node35</title>
<path fill="none" stroke="#191970" d="M566.6583,-227.0225C571.2518,-225.9228 576.0012,-224.8652 580.5,-224 694.029,-202.166 726.481,-207.1425 844.6174,-188.0536"/>
<polygon fill="#191970" stroke="#191970" points="845.4859,-191.458 854.7876,-186.3855 844.3529,-184.5503 845.4859,-191.458"/>
</g>
<!-- Node36 -->
<g id="node36" class="node">
<title>Node36</title>
<g id="a_node36"><a xlink:title=" ">
<polygon fill="#ffffff" stroke="#bfbfbf" points="489,-168.5 489,-187.5 602,-187.5 602,-168.5 489,-168.5"/>
<text text-anchor="middle" x="545.5" y="-175.5" font-family="Helvetica,sans-Serif" font-size="10.00" fill="#000000">QGraphicsEllipseItem</text>
</a>
</g>
</g>
<!-- Node32&#45;&gt;Node36 -->
<g id="edge40" class="edge">
<title>Node32&#45;&gt;Node36</title>
<path fill="none" stroke="#191970" d="M541.3709,-224.2455C542.0234,-216.9382 542.938,-206.6944 543.7407,-197.7046"/>
<polygon fill="#191970" stroke="#191970" points="547.2358,-197.9143 544.639,-187.6427 540.2635,-197.2918 547.2358,-197.9143"/>
</g>
<!-- Node32&#45;&gt;Node37 -->
<g id="edge41" class="edge">
<title>Node32&#45;&gt;Node37</title>
<path fill="none" stroke="#191970" d="M566.5711,-233.1029C640.7536,-230.2255 859.1542,-219.4978 1037.5,-188 1037.6008,-187.9822 1037.7017,-187.9643 1037.8027,-187.9462"/>
<polygon fill="#191970" stroke="#191970" points="1038.3165,-191.4144 1047.393,-185.9493 1036.8895,-184.5614 1038.3165,-191.4144"/>
</g>
<!-- Node32&#45;&gt;Node41 -->
<g id="edge50" class="edge">
<title>Node32&#45;&gt;Node41</title>
<path fill="none" stroke="#191970" d="M520.771,-224.4869C496.4257,-211.557 460.4499,-187.7787 479.5,-168 515.1132,-131.0248 1322.1099,-136.8786 1436.759,-131.691"/>
<polygon fill="#191970" stroke="#191970" points="1437.0924,-135.1768 1446.8458,-131.0389 1436.6408,-128.1914 1437.0924,-135.1768"/>
</g>
<!-- Node38 -->
<g id="node38" class="node">
<title>Node38</title>
<g id="a_node38"><a xlink:title=" ">
<polygon fill="#ffffff" stroke="#bfbfbf" points="933,-112.5 933,-131.5 1050,-131.5 1050,-112.5 933,-112.5"/>
<text text-anchor="middle" x="991.5" y="-119.5" font-family="Helvetica,sans-Serif" font-size="10.00" fill="#000000">QGraphicsPixmapItem</text>
</a>
</g>
</g>
<!-- Node37&#45;&gt;Node38 -->
<g id="edge42" class="edge">
<title>Node37&#45;&gt;Node38</title>
<path fill="none" stroke="#191970" d="M1060.8683,-168.2455C1048.1006,-159.7337 1029.3562,-147.2375 1014.5701,-137.3801"/>
<polygon fill="#191970" stroke="#191970" points="1016.226,-134.2775 1005.964,-131.6427 1012.3431,-140.1019 1016.226,-134.2775"/>
</g>
<!-- Node39 -->
<g id="node39" class="node">
<title>Node39</title>
<g id="a_node39"><a xlink:href="city_8h.html" target="_top" xlink:title=" ">
<polygon fill="#ffffff" stroke="#000000" points="876,-112.5 876,-131.5 915,-131.5 915,-112.5 876,-112.5"/>
<text text-anchor="middle" x="895.5" y="-119.5" font-family="Helvetica,sans-Serif" font-size="10.00" fill="#000000">city.h</text>
</a>
</g>
</g>
<!-- Node37&#45;&gt;Node39 -->
<g id="edge43" class="edge">
<title>Node37&#45;&gt;Node39</title>
<path fill="none" stroke="#191970" d="M1047.3554,-169.9324C1018.6591,-161.6085 972.6538,-147.9954 924.6605,-132.2856"/>
<polygon fill="#191970" stroke="#191970" points="925.6329,-128.921 915.0399,-129.1166 923.4429,-135.5696 925.6329,-128.921"/>
</g>
<!-- Node37&#45;&gt;Node41 -->
<g id="edge46" class="edge">
<title>Node37&#45;&gt;Node41</title>
<path fill="none" stroke="#191970" d="M1103.6468,-174.2553C1117.9713,-172.36 1135.6604,-170.0355 1151.5,-168 1275.7692,-152.0307 1309.5924,-150.6338 1436.684,-132.225"/>
<polygon fill="#191970" stroke="#191970" points="1437.4186,-135.655 1446.8101,-130.751 1436.4102,-128.728 1437.4186,-135.655"/>
</g>
<!-- Node39&#45;&gt;Node21 -->
<g id="edge44" class="edge">
<title>Node39&#45;&gt;Node21</title>
<path fill="none" stroke="#191970" d="M891.3195,-112.2455C888.119,-104.7776 883.604,-94.2427 879.6916,-85.1137"/>
<polygon fill="#191970" stroke="#191970" points="882.7888,-83.4554 875.6326,-75.6427 876.3548,-86.2129 882.7888,-83.4554"/>
</g>
<!-- Node40 -->
<g id="node40" class="node">
<title>Node40</title>
<g id="a_node40"><a xlink:title=" ">
<polygon fill="#ffffff" stroke="#bfbfbf" points="910.5,-56.5 910.5,-75.5 954.5,-75.5 954.5,-56.5 910.5,-56.5"/>
<text text-anchor="middle" x="932.5" y="-63.5" font-family="Helvetica,sans-Serif" font-size="10.00" fill="#000000">vector</text>
</a>
</g>
</g>
<!-- Node39&#45;&gt;Node40 -->
<g id="edge45" class="edge">
<title>Node39&#45;&gt;Node40</title>
<path fill="none" stroke="#191970" d="M901.9449,-112.2455C907.0382,-104.5367 914.2908,-93.5598 920.452,-84.2348"/>
<polygon fill="#191970" stroke="#191970" points="923.5365,-85.9155 926.1289,-75.6427 917.6962,-82.0566 923.5365,-85.9155"/>
</g>
<!-- Node41&#45;&gt;Node15 -->
<g id="edge48" class="edge">
<title>Node41&#45;&gt;Node15</title>
<path fill="none" stroke="#191970" d="M1504.9449,-112.2455C1510.0382,-104.5367 1517.2908,-93.5598 1523.452,-84.2348"/>
<polygon fill="#191970" stroke="#191970" points="1526.5365,-85.9155 1529.1289,-75.6427 1520.6962,-82.0566 1526.5365,-85.9155"/>
</g>
<!-- Node41&#45;&gt;Node21 -->
<g id="edge49" class="edge">
<title>Node41&#45;&gt;Node21</title>
<path fill="none" stroke="#191970" d="M1446.8351,-113.0583C1444.0194,-112.6744 1441.2272,-112.3179 1438.5,-112 1204.1547,-84.683 1138.0009,-121.1718 902.2021,-75.6282"/>
<polygon fill="#191970" stroke="#191970" points="902.7845,-72.1758 892.2979,-73.6866 901.4378,-79.0451 902.7845,-72.1758"/>
</g>
<!-- Node42 -->
<g id="node42" class="node">
<title>Node42</title>
<g id="a_node42"><a xlink:title=" ">
<polygon fill="#ffffff" stroke="#bfbfbf" points="1432.5,-56.5 1432.5,-75.5 1490.5,-75.5 1490.5,-56.5 1432.5,-56.5"/>
<text text-anchor="middle" x="1461.5" y="-63.5" font-family="Helvetica,sans-Serif" font-size="10.00" fill="#000000">QPixmap</text>
</a>
</g>
</g>
<!-- Node41&#45;&gt;Node42 -->
<g id="edge47" class="edge">
<title>Node41&#45;&gt;Node42</title>
<path fill="none" stroke="#191970" d="M1492.0551,-112.2455C1486.9618,-104.5367 1479.7092,-93.5598 1473.548,-84.2348"/>
<polygon fill="#191970" stroke="#191970" points="1476.3038,-82.0566 1467.8711,-75.6427 1470.4635,-85.9155 1476.3038,-82.0566"/>
</g>
<!-- Node43&#45;&gt;Node20 -->
<g id="edge59" class="edge">
<title>Node43&#45;&gt;Node20</title>
<path fill="none" stroke="#191970" d="M1269.7261,-282.7937C1232.3463,-270.9478 1160.9641,-248.2445 1149.5,-244 1104.964,-227.5111 1054.5106,-205.7323 1023.0964,-191.7922"/>
<polygon fill="#191970" stroke="#191970" points="1024.1563,-188.4328 1013.5976,-187.5583 1021.3064,-194.8264 1024.1563,-188.4328"/>
</g>
<!-- Node43&#45;&gt;Node32 -->
<g id="edge58" class="edge">
<title>Node43&#45;&gt;Node32</title>
<path fill="none" stroke="#191970" d="M1269.9432,-282.2175C1266.8009,-281.3493 1263.5904,-280.573 1260.5,-280 1127.2201,-255.2865 704.6335,-239.4802 577.2157,-235.1854"/>
<polygon fill="#191970" stroke="#191970" points="576.9526,-231.6747 566.8414,-234.8392 576.7191,-238.6708 576.9526,-231.6747"/>
</g>
<!-- Node44 -->
<g id="node44" class="node">
<title>Node44</title>
<g id="a_node44"><a xlink:title=" ">
<polygon fill="#ffffff" stroke="#bfbfbf" points="1159,-224.5 1159,-243.5 1246,-243.5 1246,-224.5 1159,-224.5"/>
<text text-anchor="middle" x="1202.5" y="-231.5" font-family="Helvetica,sans-Serif" font-size="10.00" fill="#000000">QGraphicsView</text>
</a>
</g>
</g>
<!-- Node43&#45;&gt;Node44 -->
<g id="edge57" class="edge">
<title>Node43&#45;&gt;Node44</title>
<path fill="none" stroke="#191970" d="M1276.8232,-280.2455C1263.0144,-271.6534 1242.6807,-259.0014 1226.7708,-249.1018"/>
<polygon fill="#191970" stroke="#191970" points="1228.3368,-245.954 1217.9972,-243.6427 1224.6387,-251.8974 1228.3368,-245.954"/>
</g>
<!-- Node43&#45;&gt;Node45 -->
<g id="edge60" class="edge">
<title>Node43&#45;&gt;Node45</title>
<path fill="none" stroke="#191970" d="M1315.012,-287.7757C1374.2111,-281.823 1539.0827,-264.5746 1675.5,-244 1677.9771,-243.6264 1680.5139,-243.2265 1683.0731,-242.8093"/>
<polygon fill="#191970" stroke="#191970" points="1683.7001,-246.2531 1692.9763,-241.1343 1682.5326,-239.3511 1683.7001,-246.2531"/>
</g>
<!-- Node45&#45;&gt;Node9 -->
<g id="edge61" class="edge">
<title>Node45&#45;&gt;Node9</title>
<path fill="none" stroke="#191970" d="M1720.4909,-224.3147C1711.5302,-215.3604 1698.3275,-201.4451 1688.5,-188 1677.5573,-173.0293 1667.1992,-154.6527 1660.0695,-141.0954"/>
<polygon fill="#191970" stroke="#191970" points="1662.9768,-139.0955 1655.2904,-131.8037 1656.7519,-142.2972 1662.9768,-139.0955"/>
</g>
<!-- Node45&#45;&gt;Node10 -->
<g id="edge64" class="edge">
<title>Node45&#45;&gt;Node10</title>
<path fill="none" stroke="#191970" d="M1768.0903,-225.3727C1810.9325,-215.5401 1881.014,-199.4558 1927.4481,-188.7988"/>
<polygon fill="#191970" stroke="#191970" points="1928.3038,-192.1935 1937.2674,-186.5452 1926.7379,-185.3709 1928.3038,-192.1935"/>
</g>
<!-- Node45&#45;&gt;Node22 -->
<g id="edge62" class="edge">
<title>Node45&#45;&gt;Node22</title>
<path fill="none" stroke="#191970" d="M1745.6603,-224.2754C1764.7115,-210.8965 1793.029,-186.3829 1776.5,-168 1727.9191,-113.97 1528.6078,-144.1911 1439.3255,-131.5512"/>
<polygon fill="#191970" stroke="#191970" points="1439.699,-128.0646 1429.2541,-129.8403 1438.5266,-134.9657 1439.699,-128.0646"/>
</g>
<!-- Node46 -->
<g id="node46" class="node">
<title>Node46</title>
<g id="a_node46"><a xlink:title=" ">
<polygon fill="#ffffff" stroke="#bfbfbf" points="1697.5,-168.5 1697.5,-187.5 1767.5,-187.5 1767.5,-168.5 1697.5,-168.5"/>
<text text-anchor="middle" x="1732.5" y="-175.5" font-family="Helvetica,sans-Serif" font-size="10.00" fill="#000000">QGroupBox</text>
</a>
</g>
</g>
<!-- Node45&#45;&gt;Node46 -->
<g id="edge63" class="edge">
<title>Node45&#45;&gt;Node46</title>
<path fill="none" stroke="#191970" d="M1730.8484,-224.2455C1731.1093,-216.9382 1731.4752,-206.6944 1731.7963,-197.7046"/>
<polygon fill="#191970" stroke="#191970" points="1735.2964,-197.7613 1732.1556,-187.6427 1728.3008,-197.5113 1735.2964,-197.7613"/>
</g>
<!-- Node47&#45;&gt;Node9 -->
<g id="edge66" class="edge">
<title>Node47&#45;&gt;Node9</title>
<path fill="none" stroke="#191970" d="M1367.0209,-224.4701C1399.7095,-211.3171 1460.8041,-187.0643 1513.5,-168 1546.805,-155.9509 1585.0369,-143.203 1612.6351,-134.1907"/>
<polygon fill="#191970" stroke="#191970" points="1613.867,-137.4706 1622.2929,-131.0477 1611.7007,-130.8142 1613.867,-137.4706"/>
</g>
<!-- Node47&#45;&gt;Node20 -->
<g id="edge69" class="edge">
<title>Node47&#45;&gt;Node20</title>
<path fill="none" stroke="#191970" d="M1302.3831,-226.3535C1297.705,-225.5342 1293.0021,-224.7332 1288.5,-224 1180.8402,-206.4674 1150.6659,-207.8399 1039.0797,-187.9948"/>
<polygon fill="#191970" stroke="#191970" points="1039.5727,-184.5275 1029.1115,-186.2046 1038.3353,-191.4172 1039.5727,-184.5275"/>
</g>
<!-- Node47&#45;&gt;Node37 -->
<g id="edge70" class="edge">
<title>Node47&#45;&gt;Node37</title>
<path fill="none" stroke="#191970" d="M1302.2123,-225.3727C1250.808,-214.6315 1163.7008,-196.43 1113.7515,-185.9928"/>
<polygon fill="#191970" stroke="#191970" points="1114.1875,-182.5084 1103.683,-183.889 1112.7557,-189.3605 1114.1875,-182.5084"/>
</g>
<!-- Node47&#45;&gt;Node41 -->
<g id="edge68" class="edge">
<title>Node47&#45;&gt;Node41</title>
<path fill="none" stroke="#191970" d="M1350.3217,-224.416C1360.5815,-210.539 1381.1751,-184.6899 1403.5,-168 1421.4974,-154.5453 1444.0504,-143.4258 1462.6653,-135.4915"/>
<polygon fill="#191970" stroke="#191970" points="1464.0896,-138.6901 1471.9957,-131.6373 1461.417,-132.2204 1464.0896,-138.6901"/>
</g>
<!-- Node48 -->
<g id="node48" class="node">
<title>Node48</title>
<g id="a_node48"><a xlink:title=" ">
<polygon fill="#ffffff" stroke="#bfbfbf" points="1284,-112.5 1284,-131.5 1323,-131.5 1323,-112.5 1284,-112.5"/>
<text text-anchor="middle" x="1303.5" y="-119.5" font-family="Helvetica,sans-Serif" font-size="10.00" fill="#000000">QList</text>
</a>
</g>
</g>
<!-- Node47&#45;&gt;Node48 -->
<g id="edge67" class="edge">
<title>Node47&#45;&gt;Node48</title>
<path fill="none" stroke="#191970" d="M1340.0896,-224.4509C1333.5067,-206.0186 1318.9376,-165.2254 1310.3011,-141.043"/>
<polygon fill="#191970" stroke="#191970" points="1313.5613,-139.7651 1306.9017,-131.5249 1306.9691,-142.1195 1313.5613,-139.7651"/>
</g>
<!-- Node49 -->
<g id="node49" class="node">
<title>Node49</title>
<g id="a_node49"><a xlink:href="point_8h.html" target="_top" xlink:title=" ">
<polygon fill="#ffffff" stroke="#000000" points="1264,-56.5 1264,-75.5 1309,-75.5 1309,-56.5 1264,-56.5"/>
<text text-anchor="middle" x="1286.5" y="-63.5" font-family="Helvetica,sans-Serif" font-size="10.00" fill="#000000">point.h</text>
</a>
</g>
</g>
<!-- Node47&#45;&gt;Node49 -->
<g id="edge71" class="edge">
<title>Node47&#45;&gt;Node49</title>
<path fill="none" stroke="#191970" d="M1344.7744,-224.2496C1347.1341,-202.7896 1350.4362,-150.3314 1332.5,-112 1327.0761,-100.4086 1317.4415,-90.0663 1308.3863,-82.1383"/>
<polygon fill="#191970" stroke="#191970" points="1310.3238,-79.2009 1300.3707,-75.5696 1305.8869,-84.6152 1310.3238,-79.2009"/>
</g>
<!-- Node50 -->
<g id="node50" class="node">
<title>Node50</title>
<g id="a_node50"><a xlink:href="animationmovement_8h.html" target="_top" xlink:title=" ">
<polygon fill="#ffffff" stroke="#000000" points="1160,-168.5 1160,-187.5 1275,-187.5 1275,-168.5 1160,-168.5"/>
<text text-anchor="middle" x="1217.5" y="-175.5" font-family="Helvetica,sans-Serif" font-size="10.00" fill="#000000">animationmovement.h</text>
</a>
</g>
</g>
<!-- Node47&#45;&gt;Node50 -->
<g id="edge72" class="edge">
<title>Node47&#45;&gt;Node50</title>
<path fill="none" stroke="#191970" d="M1321.8398,-224.3733C1301.5228,-215.3435 1270.936,-201.7494 1248.125,-191.6111"/>
<polygon fill="#191970" stroke="#191970" points="1249.4372,-188.3642 1238.8775,-187.5011 1246.5941,-194.7609 1249.4372,-188.3642"/>
</g>
<!-- Node50&#45;&gt;Node31 -->
<g id="edge78" class="edge">
<title>Node50&#45;&gt;Node31</title>
<path fill="none" stroke="#191970" d="M1196.1836,-168.3733C1176.2784,-159.3838 1146.3564,-145.8706 1123.94,-135.7471"/>
<polygon fill="#191970" stroke="#191970" points="1125.0925,-132.4272 1114.5382,-131.5011 1122.2113,-138.8068 1125.0925,-132.4272"/>
</g>
<!-- Node50&#45;&gt;Node38 -->
<g id="edge79" class="edge">
<title>Node50&#45;&gt;Node38</title>
<path fill="none" stroke="#191970" d="M1178.906,-168.4369C1140.4716,-158.9133 1081.364,-144.2672 1039.829,-133.9753"/>
<polygon fill="#191970" stroke="#191970" points="1040.4831,-130.5316 1029.9348,-131.5237 1038.7994,-137.3261 1040.4831,-130.5316"/>
</g>
<!-- Node50&#45;&gt;Node48 -->
<g id="edge77" class="edge">
<title>Node50&#45;&gt;Node48</title>
<path fill="none" stroke="#191970" d="M1232.4801,-168.2455C1245.6751,-159.6534 1265.1051,-147.0014 1280.3079,-137.1018"/>
<polygon fill="#191970" stroke="#191970" points="1282.2215,-140.0325 1288.6916,-131.6427 1278.4017,-134.1665 1282.2215,-140.0325"/>
</g>
<!-- Node50&#45;&gt;Node49 -->
<g id="edge73" class="edge">
<title>Node50&#45;&gt;Node49</title>
<path fill="none" stroke="#191970" d="M1200.4767,-168.4547C1180.2911,-155.8762 1151.0896,-132.8949 1165.5,-112 1175.8618,-96.9755 1221.7827,-82.499 1253.9699,-73.9232"/>
<polygon fill="#191970" stroke="#191970" points="1255.0749,-77.2524 1263.8752,-71.3529 1253.3167,-70.4768 1255.0749,-77.2524"/>
</g>
<!-- Node51 -->
<g id="node51" class="node">
<title>Node51</title>
<g id="a_node51"><a xlink:href="animationentity_8h.html" target="_top" xlink:title=" ">
<polygon fill="#ffffff" stroke="#000000" points="1175,-112.5 1175,-131.5 1266,-131.5 1266,-112.5 1175,-112.5"/>
<text text-anchor="middle" x="1220.5" y="-119.5" font-family="Helvetica,sans-Serif" font-size="10.00" fill="#000000">animationentity.h</text>
</a>
</g>
</g>
<!-- Node50&#45;&gt;Node51 -->
<g id="edge74" class="edge">
<title>Node50&#45;&gt;Node51</title>
<path fill="none" stroke="#191970" d="M1218.0226,-168.2455C1218.414,-160.9382 1218.9628,-150.6944 1219.4444,-141.7046"/>
<polygon fill="#191970" stroke="#191970" points="1222.9434,-141.8156 1219.9834,-131.6427 1215.9534,-141.4411 1222.9434,-141.8156"/>
</g>
<!-- Node51&#45;&gt;Node15 -->
<g id="edge75" class="edge">
<title>Node51&#45;&gt;Node15</title>
<path fill="none" stroke="#191970" d="M1266.1058,-113.6337C1269.2837,-113.0736 1272.4389,-112.5242 1275.5,-112 1371.7805,-95.5122 1399.2885,-97.3871 1498.9698,-75.9131"/>
<polygon fill="#191970" stroke="#191970" points="1499.8211,-79.3098 1508.8465,-73.7607 1498.3305,-72.4703 1499.8211,-79.3098"/>
</g>
<!-- Node51&#45;&gt;Node49 -->
<g id="edge76" class="edge">
<title>Node51&#45;&gt;Node49</title>
<path fill="none" stroke="#191970" d="M1231.9963,-112.2455C1241.7442,-103.9746 1255.9259,-91.9416 1267.3798,-82.2232"/>
<polygon fill="#191970" stroke="#191970" points="1269.7747,-84.7813 1275.1354,-75.6427 1265.2459,-79.4437 1269.7747,-84.7813"/>
</g>
<!-- Node52&#45;&gt;Node11 -->
<g id="edge82" class="edge">
<title>Node52&#45;&gt;Node11</title>
<path fill="none" stroke="#191970" d="M753.0412,-448.3733C722.4793,-439.021 675.9174,-424.7725 642.4739,-414.5385"/>
<polygon fill="#191970" stroke="#191970" points="643.1348,-411.0806 632.5483,-411.5011 641.0864,-417.7742 643.1348,-411.0806"/>
</g>
<!-- Node52&#45;&gt;Node12 -->
<g id="edge81" class="edge">
<title>Node52&#45;&gt;Node12</title>
<path fill="none" stroke="#191970" d="M767.6039,-448.2455C752.582,-439.5731 730.3957,-426.7645 713.179,-416.825"/>
<polygon fill="#191970" stroke="#191970" points="714.6128,-413.6114 704.2025,-411.6427 711.1129,-419.6737 714.6128,-413.6114"/>
</g>
<!-- Node52&#45;&gt;Node20 -->
<g id="edge84" class="edge">
<title>Node52&#45;&gt;Node20</title>
<path fill="none" stroke="#191970" d="M782.8045,-448.2234C777.201,-412.3725 763.1052,-286.9402 827.5,-224 836.1254,-215.5695 900.0814,-199.3508 945.7767,-188.6005"/>
<polygon fill="#191970" stroke="#191970" points="946.8568,-191.9425 955.7993,-186.2609 945.2655,-185.1258 946.8568,-191.9425"/>
</g>
<!-- Node52&#45;&gt;Node32 -->
<g id="edge83" class="edge">
<title>Node52&#45;&gt;Node32</title>
<path fill="none" stroke="#191970" d="M778.2703,-448.198C768.836,-434.0496 749.6576,-407.8656 727.5,-392 692.8075,-367.159 673.0163,-381.0853 638.5,-356 612.2153,-336.8972 611.8825,-325.3053 591.5,-300 578.6582,-284.0566 564.4463,-265.5942 554.294,-252.2573"/>
<polygon fill="#191970" stroke="#191970" points="556.8136,-249.7877 547.9808,-243.9369 551.2372,-254.0189 556.8136,-249.7877"/>
</g>
<!-- Node52&#45;&gt;Node43 -->
<g id="edge85" class="edge">
<title>Node52&#45;&gt;Node43</title>
<path fill="none" stroke="#191970" d="M816.2689,-455.3012C857.9858,-450.7944 932.7043,-439.361 990.5,-412 1040.001,-388.5658 1037.8301,-359.0739 1087.5,-336 1155.9435,-304.2049 1182.4026,-318.498 1260.1157,-299.8236"/>
<polygon fill="#191970" stroke="#191970" points="1261.0073,-303.2085 1269.8532,-297.3775 1259.3018,-296.4194 1261.0073,-303.2085"/>
</g>
<!-- Node52&#45;&gt;Node47 -->
<g id="edge97" class="edge">
<title>Node52&#45;&gt;Node47</title>
<path fill="none" stroke="#191970" d="M787.8152,-448.215C790.87,-438.9606 795.388,-424.6452 798.5,-412 812.769,-354.0204 779.1408,-319.9687 823.5,-280 859.2836,-247.7582 1207.5654,-248.7198 1255.5,-244 1267.4548,-242.8229 1280.3086,-241.4329 1292.3993,-240.0696"/>
<polygon fill="#191970" stroke="#191970" points="1292.8006,-243.5466 1302.3395,-238.936 1292.0073,-236.5917 1292.8006,-243.5466"/>
</g>
<!-- Node52&#45;&gt;Node53 -->
<g id="edge86" class="edge">
<title>Node52&#45;&gt;Node53</title>
<path fill="none" stroke="#191970" d="M816.1588,-454.5948C883.8233,-447.2651 1047.5259,-429.2557 1184.5,-412 1190.9133,-411.1921 1197.6389,-410.3135 1204.3038,-409.4236"/>
<polygon fill="#191970" stroke="#191970" points="1205.2314,-412.8302 1214.6735,-408.0244 1204.2953,-405.8931 1205.2314,-412.8302"/>
</g>
<!-- Node52&#45;&gt;Node58 -->
<g id="edge98" class="edge">
<title>Node52&#45;&gt;Node58</title>
<path fill="none" stroke="#191970" d="M816.2742,-452.7819C873.0433,-443.4592 992.7359,-423.8029 1065.4283,-411.8651"/>
<polygon fill="#191970" stroke="#191970" points="1066.0615,-415.3081 1075.3621,-410.2338 1064.9271,-408.4007 1066.0615,-415.3081"/>
</g>
<!-- Node53&#45;&gt;Node8 -->
<g id="edge87" class="edge">
<title>Node53&#45;&gt;Node8</title>
<path fill="none" stroke="#191970" d="M1273.8736,-392.2455C1288.4308,-383.5731 1309.931,-370.7645 1326.6152,-360.825"/>
<polygon fill="#191970" stroke="#191970" points="1328.5144,-363.7676 1335.3141,-355.6427 1324.9317,-357.7539 1328.5144,-363.7676"/>
</g>
<!-- Node53&#45;&gt;Node26 -->
<g id="edge96" class="edge">
<title>Node53&#45;&gt;Node26</title>
<path fill="none" stroke="#191970" d="M1214.7409,-394.5636C1149.8641,-383.2807 1027.8984,-362.0693 969.0059,-351.8271"/>
<polygon fill="#191970" stroke="#191970" points="969.5579,-348.3707 959.106,-350.1054 968.3584,-355.2671 969.5579,-348.3707"/>
</g>
<!-- Node53&#45;&gt;Node41 -->
<g id="edge93" class="edge">
<title>Node53&#45;&gt;Node41</title>
<path fill="none" stroke="#191970" d="M1300.1132,-396.5214C1330.7477,-390.7574 1371.5828,-379.1346 1400.5,-356 1469.6172,-300.7043 1490.611,-188.0174 1496.4429,-142.125"/>
<polygon fill="#191970" stroke="#191970" points="1499.945,-142.3085 1497.619,-131.9721 1492.9915,-141.5029 1499.945,-142.3085"/>
</g>
<!-- Node54 -->
<g id="node54" class="node">
<title>Node54</title>
<g id="a_node54"><a xlink:title=" ">
<polygon fill="#ffffff" stroke="#bfbfbf" points="1222,-336.5 1222,-355.5 1293,-355.5 1293,-336.5 1222,-336.5"/>
<text text-anchor="middle" x="1257.5" y="-343.5" font-family="Helvetica,sans-Serif" font-size="10.00" fill="#000000">QListWidget</text>
</a>
</g>
</g>
<!-- Node53&#45;&gt;Node54 -->
<g id="edge88" class="edge">
<title>Node53&#45;&gt;Node54</title>
<path fill="none" stroke="#191970" d="M1257.5,-392.2455C1257.5,-384.9382 1257.5,-374.6944 1257.5,-365.7046"/>
<polygon fill="#191970" stroke="#191970" points="1261.0001,-365.6426 1257.5,-355.6427 1254.0001,-365.6427 1261.0001,-365.6426"/>
</g>
<!-- Node55 -->
<g id="node55" class="node">
<title>Node55</title>
<g id="a_node55"><a xlink:title=" ">
<polygon fill="#ffffff" stroke="#bfbfbf" points="1129.5,-336.5 1129.5,-355.5 1203.5,-355.5 1203.5,-336.5 1129.5,-336.5"/>
<text text-anchor="middle" x="1166.5" y="-343.5" font-family="Helvetica,sans-Serif" font-size="10.00" fill="#000000">QPushButton</text>
</a>
</g>
</g>
<!-- Node53&#45;&gt;Node55 -->
<g id="edge89" class="edge">
<title>Node53&#45;&gt;Node55</title>
<path fill="none" stroke="#191970" d="M1241.649,-392.2455C1227.6868,-383.6534 1207.1272,-371.0014 1191.0404,-361.1018"/>
<polygon fill="#191970" stroke="#191970" points="1192.5203,-357.9029 1182.1693,-355.6427 1188.8516,-363.8645 1192.5203,-357.9029"/>
</g>
<!-- Node56 -->
<g id="node56" class="node">
<title>Node56</title>
<g id="a_node56"><a xlink:href="trainrenderer_8h.html" target="_top" xlink:title=" ">
<polygon fill="#ffffff" stroke="#000000" points="1522,-168.5 1522,-187.5 1603,-187.5 1603,-168.5 1522,-168.5"/>
<text text-anchor="middle" x="1562.5" y="-175.5" font-family="Helvetica,sans-Serif" font-size="10.00" fill="#000000">trainrenderer.h</text>
</a>
</g>
</g>
<!-- Node53&#45;&gt;Node56 -->
<g id="edge90" class="edge">
<title>Node53&#45;&gt;Node56</title>
<path fill="none" stroke="#191970" d="M1300.2671,-396.6596C1368.0509,-387.8332 1494.1033,-369.8059 1509.5,-356 1555.6216,-314.6437 1562.3671,-235.1068 1562.8619,-197.9907"/>
<polygon fill="#191970" stroke="#191970" points="1566.3619,-197.9194 1562.8515,-187.9231 1559.3619,-197.9268 1566.3619,-197.9194"/>
</g>
<!-- Node57 -->
<g id="node57" class="node">
<title>Node57</title>
<g id="a_node57"><a xlink:href="goodselector_8h.html" target="_top" xlink:title=" ">
<polygon fill="#ffffff" stroke="#000000" points="1582.5,-224.5 1582.5,-243.5 1666.5,-243.5 1666.5,-224.5 1582.5,-224.5"/>
<text text-anchor="middle" x="1624.5" y="-231.5" font-family="Helvetica,sans-Serif" font-size="10.00" fill="#000000">goodselector.h</text>
</a>
</g>
</g>
<!-- Node53&#45;&gt;Node57 -->
<g id="edge94" class="edge">
<title>Node53&#45;&gt;Node57</title>
<path fill="none" stroke="#191970" d="M1300.0253,-397.6885C1378.411,-389.4303 1539.6205,-370.8798 1560.5,-356 1595.4233,-331.1118 1612.8215,-281.2412 1620.112,-253.591"/>
<polygon fill="#191970" stroke="#191970" points="1623.5916,-254.0964 1622.5692,-243.551 1616.7922,-252.4323 1623.5916,-254.0964"/>
</g>
<!-- Node56&#45;&gt;Node9 -->
<g id="edge91" class="edge">
<title>Node56&#45;&gt;Node9</title>
<path fill="none" stroke="#191970" d="M1577.8284,-168.2455C1591.3303,-159.6534 1611.2122,-147.0014 1626.7686,-137.1018"/>
<polygon fill="#191970" stroke="#191970" points="1628.7897,-139.9643 1635.3472,-131.6427 1625.0315,-134.0587 1628.7897,-139.9643"/>
</g>
<!-- Node56&#45;&gt;Node41 -->
<g id="edge92" class="edge">
<title>Node56&#45;&gt;Node41</title>
<path fill="none" stroke="#191970" d="M1551.3521,-168.2455C1541.9913,-160.0549 1528.4142,-148.1749 1517.3651,-138.5069"/>
<polygon fill="#191970" stroke="#191970" points="1519.3508,-135.5937 1509.5202,-131.6427 1514.7412,-140.8618 1519.3508,-135.5937"/>
</g>
<!-- Node57&#45;&gt;Node9 -->
<g id="edge95" class="edge">
<title>Node57&#45;&gt;Node9</title>
<path fill="none" stroke="#191970" d="M1626.7167,-224.4509C1630.9765,-206.1013 1640.3807,-165.5908 1646.0035,-141.3693"/>
<polygon fill="#191970" stroke="#191970" points="1649.4368,-142.0573 1648.2889,-131.5249 1642.6182,-140.4744 1649.4368,-142.0573"/>
</g>
<!-- Node58&#45;&gt;Node8 -->
<g id="edge99" class="edge">
<title>Node58&#45;&gt;Node8</title>
<path fill="none" stroke="#191970" d="M1164.094,-392.4369C1202.5284,-382.9133 1261.636,-368.2672 1303.171,-357.9753"/>
<polygon fill="#191970" stroke="#191970" points="1304.2006,-361.3261 1313.0652,-355.5237 1302.5169,-354.5316 1304.2006,-361.3261"/>
</g>
<!-- Node58&#45;&gt;Node41 -->
<g id="edge102" class="edge">
<title>Node58&#45;&gt;Node41</title>
<path fill="none" stroke="#191970" d="M1120.8925,-392.1658C1115.0065,-377.9771 1107.0846,-351.7436 1120.5,-336 1185.8987,-259.2516 1256.2856,-348.8419 1344.5,-300 1373.4328,-283.9807 1371.8242,-268.9778 1393.5,-244 1425.7985,-206.7812 1463.4228,-162.9487 1483.7098,-139.2745"/>
<polygon fill="#191970" stroke="#191970" points="1486.51,-141.3857 1490.3576,-131.5141 1481.1938,-136.8317 1486.51,-141.3857"/>
</g>
<!-- Node58&#45;&gt;Node54 -->
<g id="edge100" class="edge">
<title>Node58&#45;&gt;Node54</title>
<path fill="none" stroke="#191970" d="M1148.1916,-392.3733C1169.5711,-383.3032 1201.8057,-369.6279 1225.7362,-359.4755"/>
<polygon fill="#191970" stroke="#191970" points="1227.2656,-362.6287 1235.1045,-355.5011 1224.5317,-356.1846 1227.2656,-362.6287"/>
</g>
<!-- Node58&#45;&gt;Node55 -->
<g id="edge101" class="edge">
<title>Node58&#45;&gt;Node55</title>
<path fill="none" stroke="#191970" d="M1132.6417,-392.2455C1138.3444,-384.4564 1146.49,-373.3308 1153.3625,-363.9439"/>
<polygon fill="#191970" stroke="#191970" points="1156.3568,-365.7789 1159.4402,-355.6427 1150.7087,-361.6437 1156.3568,-365.7789"/>
</g>
<!-- Node59&#45;&gt;Node9 -->
<g id="edge104" class="edge">
<title>Node59&#45;&gt;Node9</title>
<path fill="none" stroke="#191970" d="M1840.9212,-336.18C1850.5016,-327.7529 1863.0135,-314.6707 1868.5,-300 1887.6676,-248.7463 1855.8312,-203.2723 1813.5,-168 1794.5614,-152.2195 1730.5049,-137.3769 1688.5577,-129.0134"/>
<polygon fill="#191970" stroke="#191970" points="1689.1562,-125.5642 1678.6703,-127.0799 1687.8127,-132.4341 1689.1562,-125.5642"/>
</g>
<!-- Node59&#45;&gt;Node10 -->
<g id="edge105" class="edge">
<title>Node59&#45;&gt;Node10</title>
<path fill="none" stroke="#191970" d="M1858.8249,-336.3457C1877.9744,-328.9573 1902.106,-317.1003 1918.5,-300 1946.8655,-270.4123 1962.6873,-223.8966 1969.8127,-197.6773"/>
<polygon fill="#191970" stroke="#191970" points="1973.254,-198.3475 1972.3452,-187.7917 1966.4729,-196.6103 1973.254,-198.3475"/>
</g>
<!-- Node59&#45;&gt;Node20 -->
<g id="edge107" class="edge">
<title>Node59&#45;&gt;Node20</title>
<path fill="none" stroke="#191970" d="M1794.4172,-343.0272C1708.3351,-334.7723 1476.0243,-307.8345 1293.5,-244 1275.4847,-237.6995 1273.5896,-230.084 1255.5,-224 1165.8239,-193.8398 1136.4096,-205.5623 1039.0786,-187.9892"/>
<polygon fill="#191970" stroke="#191970" points="1039.5968,-184.5255 1029.1247,-186.1335 1038.3139,-191.407 1039.5968,-184.5255"/>
</g>
<!-- Node59&#45;&gt;Node22 -->
<g id="edge106" class="edge">
<title>Node59&#45;&gt;Node22</title>
<path fill="none" stroke="#191970" d="M1862.6077,-337.223C1885.981,-329.9943 1916.7505,-317.9777 1939.5,-300 1993.5044,-257.3233 2067.6449,-218.1512 2020.5,-168 1977.8132,-122.5912 1537.781,-141.6046 1439.278,-131.334"/>
<polygon fill="#191970" stroke="#191970" points="1439.6095,-127.847 1429.2297,-129.9705 1438.6682,-134.7834 1439.6095,-127.847"/>
</g>
<!-- Node60 -->
<g id="node60" class="node">
<title>Node60</title>
<g id="a_node60"><a xlink:href="minimap_8h.html" target="_top" xlink:title=" ">
<polygon fill="#ffffff" stroke="#000000" points="1797.5,-280.5 1797.5,-299.5 1859.5,-299.5 1859.5,-280.5 1797.5,-280.5"/>
<text text-anchor="middle" x="1828.5" y="-287.5" font-family="Helvetica,sans-Serif" font-size="10.00" fill="#000000">minimap.h</text>
</a>
</g>
</g>
<!-- Node59&#45;&gt;Node60 -->
<g id="edge108" class="edge">
<title>Node59&#45;&gt;Node60</title>
<path fill="none" stroke="#191970" d="M1828.5,-336.2455C1828.5,-328.9382 1828.5,-318.6944 1828.5,-309.7046"/>
<polygon fill="#191970" stroke="#191970" points="1832.0001,-309.6426 1828.5,-299.6427 1825.0001,-309.6427 1832.0001,-309.6426"/>
</g>
<!-- Node60&#45;&gt;Node9 -->
<g id="edge109" class="edge">
<title>Node60&#45;&gt;Node9</title>
<path fill="none" stroke="#191970" d="M1828.525,-280.2706C1828.0451,-257.4409 1823.6249,-199.9556 1792.5,-168 1777.956,-153.0678 1725.6143,-138.7371 1688.724,-130.1488"/>
<polygon fill="#191970" stroke="#191970" points="1689.3005,-126.6906 1678.773,-127.883 1687.7464,-133.5159 1689.3005,-126.6906"/>
</g>
<!-- Node60&#45;&gt;Node47 -->
<g id="edge110" class="edge">
<title>Node60&#45;&gt;Node47</title>
<path fill="none" stroke="#191970" d="M1797.4233,-286.4118C1715.9463,-277.0041 1495.5219,-251.553 1394.8731,-239.9317"/>
<polygon fill="#191970" stroke="#191970" points="1394.9844,-236.4214 1384.649,-238.7512 1394.1815,-243.3752 1394.9844,-236.4214"/>
</g>
<!-- Node60&#45;&gt;Node49 -->
<g id="edge111" class="edge">
<title>Node60&#45;&gt;Node49</title>
<path fill="none" stroke="#191970" d="M1830.7107,-280.1936C1832.6798,-270.9241 1835.4126,-256.5985 1836.5,-244 1839.5346,-208.84 1838.096,-193.3075 1813.5,-168 1770.7895,-124.0538 1746.623,-128.1224 1687.5,-112 1618.1182,-93.0801 1402.2159,-74.9286 1319.3457,-68.4757"/>
<polygon fill="#191970" stroke="#191970" points="1319.4785,-64.9756 1309.2388,-67.6955 1318.9397,-71.9549 1319.4785,-64.9756"/>
</g>
<!-- Node61&#45;&gt;Node20 -->
<g id="edge121" class="edge">
<title>Node61&#45;&gt;Node20</title>
<path fill="none" stroke="#191970" d="M920.1214,-392.452C877.6755,-375.2997 800.501,-335.7852 816.5,-280 824.5913,-251.7872 828.3817,-242.0825 851.5,-224 866.4061,-212.3409 910.6799,-198.9052 945.6825,-189.5769"/>
<polygon fill="#191970" stroke="#191970" points="946.9544,-192.8618 955.7399,-186.9402 945.1791,-186.0907 946.9544,-192.8618"/>
</g>
<!-- Node61&#45;&gt;Node26 -->
<g id="edge122" class="edge">
<title>Node61&#45;&gt;Node26</title>
<path fill="none" stroke="#191970" d="M944.5839,-392.2455C943.1486,-384.9382 941.1364,-374.6944 939.3705,-365.7046"/>
<polygon fill="#191970" stroke="#191970" points="942.756,-364.7805 937.3941,-355.6427 935.8873,-366.1298 942.756,-364.7805"/>
</g>
<!-- Node61&#45;&gt;Node29 -->
<g id="edge118" class="edge">
<title>Node61&#45;&gt;Node29</title>
<path fill="none" stroke="#191970" d="M953.2221,-392.1748C963.8136,-377.5017 985.8424,-350.0856 1011.5,-336 1078.4381,-299.2521 1104.9754,-316.6491 1179.5,-300 1180.7623,-299.718 1182.045,-299.4297 1183.3399,-299.1372"/>
<polygon fill="#191970" stroke="#191970" points="1184.4017,-302.485 1193.3714,-296.8463 1182.8431,-295.6606 1184.4017,-302.485"/>
</g>
<!-- Node61&#45;&gt;Node32 -->
<g id="edge120" class="edge">
<title>Node61&#45;&gt;Node32</title>
<path fill="none" stroke="#191970" d="M911.3669,-399.5748C864.7326,-395.3551 780.5842,-384.2221 714.5,-356 651.5425,-329.1132 588.437,-277.1078 558.4739,-250.5223"/>
<polygon fill="#191970" stroke="#191970" points="560.706,-247.8225 550.9293,-243.74 556.0262,-253.0283 560.706,-247.8225"/>
</g>
<!-- Node61&#45;&gt;Node47 -->
<g id="edge119" class="edge">
<title>Node61&#45;&gt;Node47</title>
<path fill="none" stroke="#191970" d="M962.8099,-392.4601C988.4528,-377.9077 1040.1645,-350.3458 1087.5,-336 1189.4618,-305.0987 1244.4451,-370.3017 1324.5,-300 1337.4939,-288.5891 1341.8631,-268.9244 1343.2095,-254.0203"/>
<polygon fill="#191970" stroke="#191970" points="1346.7185,-253.9349 1343.7425,-243.7666 1339.728,-253.5714 1346.7185,-253.9349"/>
</g>
</g>
</svg>
