<?xml version="1.0" encoding="UTF-8" standalone="no"?>
<!DOCTYPE svg PUBLIC "-//W3C//DTD SVG 1.1//EN"
 "http://www.w3.org/Graphics/SVG/1.1/DTD/svg11.dtd">
<!-- Generated by graphviz version 2.40.1 (20161225.0304)
 -->
<!-- Title: src/application_server/main.cpp Pages: 1 -->
<svg width="3420pt" height="599pt"
 viewBox="0.00 0.00 3420.00 599.00" xmlns="http://www.w3.org/2000/svg" xmlns:xlink="http://www.w3.org/1999/xlink">
<g id="graph0" class="graph" transform="scale(1 1) rotate(0) translate(4 595)">
<title>src/application_server/main.cpp</title>
<polygon fill="#ffffff" stroke="transparent" points="-4,4 -4,-595 3416,-595 3416,4 -4,4"/>
<!-- Node1 -->
<g id="node1" class="node">
<title>Node1</title>
<g id="a_node1"><a xlink:title=" ">
<polygon fill="#bfbfbf" stroke="#000000" points="1176,-560.5 1176,-590.5 1291,-590.5 1291,-560.5 1176,-560.5"/>
<text text-anchor="start" x="1184" y="-578.5" font-family="Helvetica,sans-Serif" font-size="10.00" fill="#000000">src/application_server</text>
<text text-anchor="middle" x="1233.5" y="-567.5" font-family="Helvetica,sans-Serif" font-size="10.00" fill="#000000">/main.cpp</text>
</a>
</g>
</g>
<!-- Node2 -->
<g id="node2" class="node">
<title>Node2</title>
<g id="a_node2"><a xlink:title=" ">
<polygon fill="#ffffff" stroke="#bfbfbf" points="0,-504.5 0,-523.5 73,-523.5 73,-504.5 0,-504.5"/>
<text text-anchor="middle" x="36.5" y="-511.5" font-family="Helvetica,sans-Serif" font-size="10.00" fill="#000000">QApplication</text>
</a>
</g>
</g>
<!-- Node1&#45;&gt;Node2 -->
<g id="edge1" class="edge">
<title>Node1&#45;&gt;Node2</title>
<path fill="none" stroke="#191970" d="M1175.7316,-574.2482C976.2506,-569.7209 316.3117,-552.9862 83.3478,-524.012"/>
<polygon fill="#191970" stroke="#191970" points="83.6089,-520.5168 73.2439,-522.7117 82.7153,-527.4596 83.6089,-520.5168"/>
</g>
<!-- Node3 -->
<g id="node3" class="node">
<title>Node3</title>
<g id="a_node3"><a xlink:title=" ">
<polygon fill="#ffffff" stroke="#bfbfbf" points="91,-504.5 91,-523.5 156,-523.5 156,-504.5 91,-504.5"/>
<text text-anchor="middle" x="123.5" y="-511.5" font-family="Helvetica,sans-Serif" font-size="10.00" fill="#000000">QMenuBar</text>
</a>
</g>
</g>
<!-- Node1&#45;&gt;Node3 -->
<g id="edge2" class="edge">
<title>Node1&#45;&gt;Node3</title>
<path fill="none" stroke="#191970" d="M1175.9677,-574.1344C986.5333,-569.4204 382.5824,-552.6063 166.4024,-523.8239"/>
<polygon fill="#191970" stroke="#191970" points="166.789,-520.3441 156.4044,-522.4442 165.8321,-527.2784 166.789,-520.3441"/>
</g>
<!-- Node4 -->
<g id="node4" class="node">
<title>Node4</title>
<g id="a_node4"><a xlink:title=" ">
<polygon fill="#ffffff" stroke="#bfbfbf" points="174.5,-504.5 174.5,-523.5 228.5,-523.5 228.5,-504.5 174.5,-504.5"/>
<text text-anchor="middle" x="201.5" y="-511.5" font-family="Helvetica,sans-Serif" font-size="10.00" fill="#000000">QDebug</text>
</a>
</g>
</g>
<!-- Node1&#45;&gt;Node4 -->
<g id="edge3" class="edge">
<title>Node1&#45;&gt;Node4</title>
<path fill="none" stroke="#191970" d="M1175.9928,-574.1833C995.3014,-569.7901 439.5871,-554.2635 239.0155,-523.871"/>
<polygon fill="#191970" stroke="#191970" points="239.3026,-520.3731 228.8794,-522.2722 238.2119,-527.2877 239.3026,-520.3731"/>
</g>
<!-- Node5 -->
<g id="node5" class="node">
<title>Node5</title>
<g id="a_node5"><a xlink:title=" ">
<polygon fill="#ffffff" stroke="#bfbfbf" points="246.5,-504.5 246.5,-523.5 298.5,-523.5 298.5,-504.5 246.5,-504.5"/>
<text text-anchor="middle" x="272.5" y="-511.5" font-family="Helvetica,sans-Serif" font-size="10.00" fill="#000000">QAction</text>
</a>
</g>
</g>
<!-- Node1&#45;&gt;Node5 -->
<g id="edge4" class="edge">
<title>Node1&#45;&gt;Node5</title>
<path fill="none" stroke="#191970" d="M1175.7536,-573.9721C1003.5639,-569.155 494.6418,-552.958 308.6624,-523.7952"/>
<polygon fill="#191970" stroke="#191970" points="309.1626,-520.3306 298.729,-522.1723 308.0338,-527.239 309.1626,-520.3306"/>
</g>
<!-- Node6 -->
<g id="node6" class="node">
<title>Node6</title>
<g id="a_node6"><a xlink:title=" ">
<polygon fill="#ffffff" stroke="#bfbfbf" points="316.5,-504.5 316.5,-523.5 380.5,-523.5 380.5,-504.5 316.5,-504.5"/>
<text text-anchor="middle" x="348.5" y="-511.5" font-family="Helvetica,sans-Serif" font-size="10.00" fill="#000000">QTextItem</text>
</a>
</g>
</g>
<!-- Node1&#45;&gt;Node6 -->
<g id="edge5" class="edge">
<title>Node1&#45;&gt;Node6</title>
<path fill="none" stroke="#191970" d="M1175.7163,-573.3187C1014.3861,-567.0191 560.3968,-547.8105 390.6625,-523.8804"/>
<polygon fill="#191970" stroke="#191970" points="391.0231,-520.3959 380.621,-522.408 390.0074,-527.3218 391.0231,-520.3959"/>
</g>
<!-- Node7 -->
<g id="node7" class="node">
<title>Node7</title>
<g id="a_node7"><a xlink:title=" ">
<polygon fill="#ffffff" stroke="#bfbfbf" points="399,-504.5 399,-523.5 450,-523.5 450,-504.5 399,-504.5"/>
<text text-anchor="middle" x="424.5" y="-511.5" font-family="Helvetica,sans-Serif" font-size="10.00" fill="#000000">QTimer</text>
</a>
</g>
</g>
<!-- Node1&#45;&gt;Node7 -->
<g id="edge6" class="edge">
<title>Node1&#45;&gt;Node7</title>
<path fill="none" stroke="#191970" d="M1175.9212,-572.9764C1021.6855,-566.0034 601.6396,-545.5584 464.5,-524 463.0415,-523.7707 461.5584,-523.5135 460.0642,-523.2343"/>
<polygon fill="#191970" stroke="#191970" points="460.6912,-519.7895 450.1823,-521.1363 459.2374,-526.6369 460.6912,-519.7895"/>
</g>
<!-- Node8 -->
<g id="node8" class="node">
<title>Node8</title>
<g id="a_node8"><a xlink:title=" ">
<polygon fill="#ffffff" stroke="#bfbfbf" points="836.5,-224.5 836.5,-243.5 916.5,-243.5 916.5,-224.5 836.5,-224.5"/>
<text text-anchor="middle" x="876.5" y="-231.5" font-family="Helvetica,sans-Serif" font-size="10.00" fill="#000000">QDockWidget</text>
</a>
</g>
</g>
<!-- Node1&#45;&gt;Node8 -->
<g id="edge7" class="edge">
<title>Node1&#45;&gt;Node8</title>
<path fill="none" stroke="#191970" d="M1175.7281,-569.519C1070.5376,-557.0153 858.5,-523.6668 858.5,-458 858.5,-458 858.5,-458 858.5,-346 858.5,-313.1472 866.1431,-275.5528 871.4684,-253.3462"/>
<polygon fill="#191970" stroke="#191970" points="874.8987,-254.0551 873.921,-243.5055 868.1065,-252.3622 874.8987,-254.0551"/>
</g>
<!-- Node9 -->
<g id="node9" class="node">
<title>Node9</title>
<g id="a_node9"><a xlink:title=" ">
<polygon fill="#ffffff" stroke="#bfbfbf" points="2407.5,-56.5 2407.5,-75.5 2463.5,-75.5 2463.5,-56.5 2407.5,-56.5"/>
<text text-anchor="middle" x="2435.5" y="-63.5" font-family="Helvetica,sans-Serif" font-size="10.00" fill="#000000">QWidget</text>
</a>
</g>
</g>
<!-- Node1&#45;&gt;Node9 -->
<g id="edge8" class="edge">
<title>Node1&#45;&gt;Node9</title>
<path fill="none" stroke="#191970" d="M1291.0572,-575.157C1572.8126,-573.2943 2799.7753,-562.9899 2965.5,-524 3033.6379,-507.9693 3108.5,-527.9982 3108.5,-458 3108.5,-458 3108.5,-458 3108.5,-402 3108.5,-241.5531 3044.2393,-166.9624 2893.5,-112 2816.6111,-83.9649 2569.5752,-71.3445 2473.8758,-67.4189"/>
<polygon fill="#191970" stroke="#191970" points="2473.9004,-63.9172 2463.7682,-67.0137 2473.6199,-70.9115 2473.9004,-63.9172"/>
</g>
<!-- Node10 -->
<g id="node10" class="node">
<title>Node10</title>
<g id="a_node10"><a xlink:title=" ">
<polygon fill="#ffffff" stroke="#bfbfbf" points="2852.5,-168.5 2852.5,-187.5 2926.5,-187.5 2926.5,-168.5 2852.5,-168.5"/>
<text text-anchor="middle" x="2889.5" y="-175.5" font-family="Helvetica,sans-Serif" font-size="10.00" fill="#000000">QGridLayout</text>
</a>
</g>
</g>
<!-- Node1&#45;&gt;Node10 -->
<g id="edge9" class="edge">
<title>Node1&#45;&gt;Node10</title>
<path fill="none" stroke="#191970" d="M1291.0105,-574.594C1555.3526,-570.2963 2647.2671,-551.0422 2797.5,-524 2888.3781,-507.6418 2994.5,-550.3386 2994.5,-458 2994.5,-458 2994.5,-458 2994.5,-290 2994.5,-245.1218 2949.0761,-210.8269 2917.9816,-192.6081"/>
<polygon fill="#191970" stroke="#191970" points="2919.68,-189.5478 2909.2497,-187.688 2916.2438,-195.6463 2919.68,-189.5478"/>
</g>
<!-- Node11 -->
<g id="node11" class="node">
<title>Node11</title>
<g id="a_node11"><a xlink:title=" ">
<polygon fill="#ffffff" stroke="#bfbfbf" points="1153.5,-392.5 1153.5,-411.5 1227.5,-411.5 1227.5,-392.5 1153.5,-392.5"/>
<text text-anchor="middle" x="1190.5" y="-399.5" font-family="Helvetica,sans-Serif" font-size="10.00" fill="#000000">QInputDialog</text>
</a>
</g>
</g>
<!-- Node1&#45;&gt;Node11 -->
<g id="edge10" class="edge">
<title>Node1&#45;&gt;Node11</title>
<path fill="none" stroke="#191970" d="M1229.7593,-560.4065C1221.9786,-529.0126 1204.0558,-456.6961 1195.3806,-421.6925"/>
<polygon fill="#191970" stroke="#191970" points="1198.7164,-420.6024 1192.9135,-411.738 1191.9219,-422.2863 1198.7164,-420.6024"/>
</g>
<!-- Node12 -->
<g id="node12" class="node">
<title>Node12</title>
<g id="a_node12"><a xlink:title=" ">
<polygon fill="#ffffff" stroke="#bfbfbf" points="1245.5,-392.5 1245.5,-411.5 1307.5,-411.5 1307.5,-392.5 1245.5,-392.5"/>
<text text-anchor="middle" x="1276.5" y="-399.5" font-family="Helvetica,sans-Serif" font-size="10.00" fill="#000000">QToolBar</text>
</a>
</g>
</g>
<!-- Node1&#45;&gt;Node12 -->
<g id="edge11" class="edge">
<title>Node1&#45;&gt;Node12</title>
<path fill="none" stroke="#191970" d="M1237.2407,-560.4065C1245.0214,-529.0126 1262.9442,-456.6961 1271.6194,-421.6925"/>
<polygon fill="#191970" stroke="#191970" points="1275.0781,-422.2863 1274.0865,-411.738 1268.2836,-420.6024 1275.0781,-422.2863"/>
</g>
<!-- Node13 -->
<g id="node13" class="node">
<title>Node13</title>
<g id="a_node13"><a xlink:title=" ">
<polygon fill="#ffffff" stroke="#bfbfbf" points="3176.5,-504.5 3176.5,-523.5 3250.5,-523.5 3250.5,-504.5 3176.5,-504.5"/>
<text text-anchor="middle" x="3213.5" y="-511.5" font-family="Helvetica,sans-Serif" font-size="10.00" fill="#000000">QToolButton</text>
</a>
</g>
</g>
<!-- Node1&#45;&gt;Node13 -->
<g id="edge12" class="edge">
<title>Node1&#45;&gt;Node13</title>
<path fill="none" stroke="#191970" d="M1291.2616,-575.2586C1570.9297,-573.891 2786.2274,-565.6174 3162.5,-524 3163.7611,-523.8605 3165.0376,-523.7062 3166.3239,-523.539"/>
<polygon fill="#191970" stroke="#191970" points="3166.9186,-526.9891 3176.2871,-522.0412 3165.8778,-520.0669 3166.9186,-526.9891"/>
</g>
<!-- Node14 -->
<g id="node14" class="node">
<title>Node14</title>
<g id="a_node14"><a xlink:title=" ">
<polygon fill="#ffffff" stroke="#bfbfbf" points="3268.5,-504.5 3268.5,-523.5 3356.5,-523.5 3356.5,-504.5 3268.5,-504.5"/>
<text text-anchor="middle" x="3312.5" y="-511.5" font-family="Helvetica,sans-Serif" font-size="10.00" fill="#000000">QFontDatabase</text>
</a>
</g>
</g>
<!-- Node1&#45;&gt;Node14 -->
<g id="edge13" class="edge">
<title>Node1&#45;&gt;Node14</title>
<path fill="none" stroke="#191970" d="M1291.2678,-575.2888C1577.0564,-574.0539 2842.2113,-566.3118 3258.3615,-523.9239"/>
<polygon fill="#191970" stroke="#191970" points="3258.7495,-527.4025 3268.3325,-522.8842 3258.0234,-520.4403 3258.7495,-527.4025"/>
</g>
<!-- Node15 -->
<g id="node15" class="node">
<title>Node15</title>
<g id="a_node15"><a xlink:title=" ">
<polygon fill="#ffffff" stroke="#bfbfbf" points="1030,-56.5 1030,-75.5 1083,-75.5 1083,-56.5 1030,-56.5"/>
<text text-anchor="middle" x="1056.5" y="-63.5" font-family="Helvetica,sans-Serif" font-size="10.00" fill="#000000">QImage</text>
</a>
</g>
</g>
<!-- Node1&#45;&gt;Node15 -->
<g id="edge14" class="edge">
<title>Node1&#45;&gt;Node15</title>
<path fill="none" stroke="#191970" d="M1175.9333,-574.4957C1040.645,-571.5465 705.9463,-560.6598 600.5,-524 519.3324,-495.781 450.5,-487.9331 450.5,-402 450.5,-402 450.5,-402 450.5,-178 450.5,-119.7955 888.3629,-79.6167 1019.6981,-68.8743"/>
<polygon fill="#191970" stroke="#191970" points="1019.994,-72.3619 1029.679,-68.0665 1019.4292,-65.3847 1019.994,-72.3619"/>
</g>
<!-- Node16 -->
<g id="node16" class="node">
<title>Node16</title>
<g id="a_node16"><a xlink:title=" ">
<polygon fill="#ffffff" stroke="#bfbfbf" points="2482.5,-112.5 2482.5,-131.5 2564.5,-131.5 2564.5,-112.5 2482.5,-112.5"/>
<text text-anchor="middle" x="2523.5" y="-119.5" font-family="Helvetica,sans-Serif" font-size="10.00" fill="#000000">QMediaPlayer</text>
</a>
</g>
</g>
<!-- Node1&#45;&gt;Node16 -->
<g id="edge15" class="edge">
<title>Node1&#45;&gt;Node16</title>
<path fill="none" stroke="#191970" d="M1291.2459,-575.286C1533.3245,-574.1194 2459.5355,-566.869 2582.5,-524 2629.3381,-507.6709 2672.5,-507.6029 2672.5,-458 2672.5,-458 2672.5,-458 2672.5,-234 2672.5,-181.35 2612.3194,-150.3847 2568.4512,-134.8068"/>
<polygon fill="#191970" stroke="#191970" points="2569.4053,-131.4346 2558.8109,-131.5337 2567.1547,-138.0629 2569.4053,-131.4346"/>
</g>
<!-- Node17 -->
<g id="node17" class="node">
<title>Node17</title>
<g id="a_node17"><a xlink:title=" ">
<polygon fill="#ffffff" stroke="#bfbfbf" points="593,-168.5 593,-187.5 678,-187.5 678,-168.5 593,-168.5"/>
<text text-anchor="middle" x="635.5" y="-175.5" font-family="Helvetica,sans-Serif" font-size="10.00" fill="#000000">QMediaPlaylist</text>
</a>
</g>
</g>
<!-- Node1&#45;&gt;Node17 -->
<g id="edge16" class="edge">
<title>Node1&#45;&gt;Node17</title>
<path fill="none" stroke="#191970" d="M1175.8824,-571.4352C1013.6073,-559.2222 564.5,-519.8362 564.5,-458 564.5,-458 564.5,-458 564.5,-290 564.5,-251.2128 595.2509,-214.9698 616.2776,-194.7214"/>
<polygon fill="#191970" stroke="#191970" points="618.8204,-197.1368 623.7758,-187.7722 614.0622,-192.0026 618.8204,-197.1368"/>
</g>
<!-- Node18 -->
<g id="node18" class="node">
<title>Node18</title>
<g id="a_node18"><a xlink:title=" ">
<polygon fill="#ffffff" stroke="#bfbfbf" points="3375,-504.5 3375,-523.5 3412,-523.5 3412,-504.5 3375,-504.5"/>
<text text-anchor="middle" x="3393.5" y="-511.5" font-family="Helvetica,sans-Serif" font-size="10.00" fill="#000000">QDir</text>
</a>
</g>
</g>
<!-- Node1&#45;&gt;Node18 -->
<g id="edge17" class="edge">
<title>Node1&#45;&gt;Node18</title>
<path fill="none" stroke="#191970" d="M1291.1135,-575.2024C1605.9681,-573.4324 3113.2098,-563.0593 3364.6959,-523.3448"/>
<polygon fill="#191970" stroke="#191970" points="3365.4865,-526.7603 3374.7481,-521.6153 3364.2994,-519.8617 3365.4865,-526.7603"/>
</g>
<!-- Node19 -->
<g id="node19" class="node">
<title>Node19</title>
<g id="a_node19"><a xlink:title=" ">
<polygon fill="#ffffff" stroke="#bfbfbf" points="924,-112.5 924,-131.5 1007,-131.5 1007,-112.5 924,-112.5"/>
<text text-anchor="middle" x="965.5" y="-119.5" font-family="Helvetica,sans-Serif" font-size="10.00" fill="#000000">QVideoWidget</text>
</a>
</g>
</g>
<!-- Node1&#45;&gt;Node19 -->
<g id="edge18" class="edge">
<title>Node1&#45;&gt;Node19</title>
<path fill="none" stroke="#191970" d="M1175.741,-571.4138C1077.3273,-563.9454 881.4774,-546.7431 816.5,-524 673.7598,-474.0386 526.5,-497.2313 526.5,-346 526.5,-346 526.5,-346 526.5,-234 526.5,-195.2415 549.1822,-186.0142 583.5,-168 646.453,-134.9545 826.5193,-142.4519 913.6511,-131.8618"/>
<polygon fill="#191970" stroke="#191970" points="914.3671,-135.2966 923.8021,-130.4767 913.4207,-128.3609 914.3671,-135.2966"/>
</g>
<!-- Node20 -->
<g id="node20" class="node">
<title>Node20</title>
<g id="a_node20"><a xlink:href="mainwindow_8h.html" target="_top" xlink:title=" ">
<polygon fill="#ffffff" stroke="#000000" points="3134.5,-112.5 3134.5,-131.5 3214.5,-131.5 3214.5,-112.5 3134.5,-112.5"/>
<text text-anchor="middle" x="3174.5" y="-119.5" font-family="Helvetica,sans-Serif" font-size="10.00" fill="#000000">mainwindow.h</text>
</a>
</g>
</g>
<!-- Node1&#45;&gt;Node20 -->
<g id="edge19" class="edge">
<title>Node1&#45;&gt;Node20</title>
<path fill="none" stroke="#191970" d="M1291.199,-574.9501C1604.4088,-571.8404 3087.6673,-555.4689 3122.5,-524 3235.0478,-422.321 3194.9424,-206.9043 3179.45,-141.3386"/>
<polygon fill="#191970" stroke="#191970" points="3182.8223,-140.3946 3177.0427,-131.515 3176.0235,-142.0607 3182.8223,-140.3946"/>
</g>
<!-- Node23 -->
<g id="node23" class="node">
<title>Node23</title>
<g id="a_node23"><a xlink:href="main_8h.html" target="_top" xlink:title=" ">
<polygon fill="#ffffff" stroke="#000000" points="2527.5,-504.5 2527.5,-523.5 2573.5,-523.5 2573.5,-504.5 2527.5,-504.5"/>
<text text-anchor="middle" x="2550.5" y="-511.5" font-family="Helvetica,sans-Serif" font-size="10.00" fill="#000000">main.h</text>
</a>
</g>
</g>
<!-- Node1&#45;&gt;Node23 -->
<g id="edge22" class="edge">
<title>Node1&#45;&gt;Node23</title>
<path fill="none" stroke="#191970" d="M1291.14,-574.0466C1504.8025,-568.5173 2251.4649,-547.8937 2488.5,-524 2497.8793,-523.0545 2507.9953,-521.6071 2517.2804,-520.1045"/>
<polygon fill="#191970" stroke="#191970" points="2518.0492,-523.5243 2527.3271,-518.4085 2516.884,-516.622 2518.0492,-523.5243"/>
</g>
<!-- Node30 -->
<g id="node30" class="node">
<title>Node30</title>
<g id="a_node30"><a xlink:href="infowidget_8h.html" target="_top" xlink:title=" ">
<polygon fill="#ffffff" stroke="#000000" points="2814.5,-112.5 2814.5,-131.5 2884.5,-131.5 2884.5,-112.5 2814.5,-112.5"/>
<text text-anchor="middle" x="2849.5" y="-119.5" font-family="Helvetica,sans-Serif" font-size="10.00" fill="#000000">infowidget.h</text>
</a>
</g>
</g>
<!-- Node1&#45;&gt;Node30 -->
<g id="edge159" class="edge">
<title>Node1&#45;&gt;Node30</title>
<path fill="none" stroke="#191970" d="M1291.1529,-575.1771C1566.5244,-573.4387 2741.0919,-563.7351 2899.5,-524 2963.5062,-507.9447 3032.5,-523.9891 3032.5,-458 3032.5,-458 3032.5,-458 3032.5,-290 3032.5,-224.6682 3000.3337,-210.2474 2950.5,-168 2933.2752,-153.3974 2910.6532,-142.5241 2891.186,-135.026"/>
<polygon fill="#191970" stroke="#191970" points="2892.2239,-131.6786 2881.6304,-131.513 2889.8084,-138.2487 2892.2239,-131.6786"/>
</g>
<!-- Node37 -->
<g id="node37" class="node">
<title>Node37</title>
<g id="a_node37"><a xlink:href="scene_8h.html" target="_top" xlink:title=" ">
<polygon fill="#ffffff" stroke="#000000" points="1948.5,-224.5 1948.5,-243.5 2000.5,-243.5 2000.5,-224.5 1948.5,-224.5"/>
<text text-anchor="middle" x="1974.5" y="-231.5" font-family="Helvetica,sans-Serif" font-size="10.00" fill="#000000">scene.h</text>
</a>
</g>
</g>
<!-- Node1&#45;&gt;Node37 -->
<g id="edge136" class="edge">
<title>Node1&#45;&gt;Node37</title>
<path fill="none" stroke="#191970" d="M1291.0284,-572.4336C1465.1296,-562.3941 1974.5,-527.1156 1974.5,-458 1974.5,-458 1974.5,-458 1974.5,-346 1974.5,-313.7116 1974.5,-276.1872 1974.5,-253.8048"/>
<polygon fill="#191970" stroke="#191970" points="1978.0001,-253.5883 1974.5,-243.5884 1971.0001,-253.5884 1978.0001,-253.5883"/>
</g>
<!-- Node46 -->
<g id="node46" class="node">
<title>Node46</title>
<g id="a_node46"><a xlink:href="graphicsmanager_8h.html" target="_top" xlink:title=" ">
<polygon fill="#ffffff" stroke="#000000" points="746,-112.5 746,-131.5 849,-131.5 849,-112.5 746,-112.5"/>
<text text-anchor="middle" x="797.5" y="-119.5" font-family="Helvetica,sans-Serif" font-size="10.00" fill="#000000">graphicsmanager.h</text>
</a>
</g>
</g>
<!-- Node1&#45;&gt;Node46 -->
<g id="edge137" class="edge">
<title>Node1&#45;&gt;Node46</title>
<path fill="none" stroke="#191970" d="M1175.7769,-573.4581C1049.8027,-568.4959 753.8841,-553.9491 658.5,-524 554.1291,-491.2292 488.5,-455.3947 488.5,-346 488.5,-346 488.5,-346 488.5,-234 488.5,-195.2415 511.8549,-187.2414 545.5,-168 577.1981,-149.8721 671.9218,-136.0731 735.7708,-128.5085"/>
<polygon fill="#191970" stroke="#191970" points="736.2105,-131.9811 745.7387,-127.3483 735.4011,-125.028 736.2105,-131.9811"/>
</g>
<!-- Node48 -->
<g id="node48" class="node">
<title>Node48</title>
<g id="a_node48"><a xlink:href="view_8h.html" target="_top" xlink:title=" ">
<polygon fill="#ffffff" stroke="#000000" points="2381,-280.5 2381,-299.5 2426,-299.5 2426,-280.5 2381,-280.5"/>
<text text-anchor="middle" x="2403.5" y="-287.5" font-family="Helvetica,sans-Serif" font-size="10.00" fill="#000000">view.h</text>
</a>
</g>
</g>
<!-- Node1&#45;&gt;Node48 -->
<g id="edge135" class="edge">
<title>Node1&#45;&gt;Node48</title>
<path fill="none" stroke="#191970" d="M1291.2786,-573.1002C1535.9882,-562.5629 2474.5,-518.2242 2474.5,-458 2474.5,-458 2474.5,-458 2474.5,-402 2474.5,-363.2128 2443.7491,-326.9698 2422.7224,-306.7214"/>
<polygon fill="#191970" stroke="#191970" points="2424.9378,-304.0026 2415.2242,-299.7722 2420.1796,-309.1368 2424.9378,-304.0026"/>
</g>
<!-- Node50 -->
<g id="node50" class="node">
<title>Node50</title>
<g id="a_node50"><a xlink:href="tooltipmenu_8h.html" target="_top" xlink:title=" ">
<polygon fill="#ffffff" stroke="#000000" points="2739,-224.5 2739,-243.5 2814,-243.5 2814,-224.5 2739,-224.5"/>
<text text-anchor="middle" x="2776.5" y="-231.5" font-family="Helvetica,sans-Serif" font-size="10.00" fill="#000000">tooltipmenu.h</text>
</a>
</g>
</g>
<!-- Node1&#45;&gt;Node50 -->
<g id="edge139" class="edge">
<title>Node1&#45;&gt;Node50</title>
<path fill="none" stroke="#191970" d="M1291.1807,-574.6214C1546.5536,-570.5781 2568.9781,-552.7213 2709.5,-524 2789.3143,-507.6868 2880.5,-539.4644 2880.5,-458 2880.5,-458 2880.5,-458 2880.5,-346 2880.5,-301.5129 2835.894,-267.2585 2805.1076,-248.9145"/>
<polygon fill="#191970" stroke="#191970" points="2806.4795,-245.667 2796.0616,-243.7386 2803.0031,-251.7428 2806.4795,-245.667"/>
</g>
<!-- Node52 -->
<g id="node52" class="node">
<title>Node52</title>
<g id="a_node52"><a xlink:href="maprenderer_8h.html" target="_top" xlink:title=" ">
<polygon fill="#ffffff" stroke="#000000" points="1268.5,-224.5 1268.5,-243.5 1350.5,-243.5 1350.5,-224.5 1268.5,-224.5"/>
<text text-anchor="middle" x="1309.5" y="-231.5" font-family="Helvetica,sans-Serif" font-size="10.00" fill="#000000">maprenderer.h</text>
</a>
</g>
</g>
<!-- Node1&#45;&gt;Node52 -->
<g id="edge148" class="edge">
<title>Node1&#45;&gt;Node52</title>
<path fill="none" stroke="#191970" d="M1176.2541,-560.3574C1128.5981,-543.8815 1068.5,-512.333 1068.5,-458 1068.5,-458 1068.5,-458 1068.5,-402 1068.5,-310.2445 1187.5175,-264.4836 1258.2749,-245.3858"/>
<polygon fill="#191970" stroke="#191970" points="1259.5516,-248.67 1268.3445,-242.7593 1257.7848,-241.8966 1259.5516,-248.67"/>
</g>
<!-- Node58 -->
<g id="node58" class="node">
<title>Node58</title>
<g id="a_node58"><a xlink:href="routelistinterface_8h.html" target="_top" xlink:title=" ">
<polygon fill="#ffffff" stroke="#000000" points="963,-280.5 963,-299.5 1060,-299.5 1060,-280.5 963,-280.5"/>
<text text-anchor="middle" x="1011.5" y="-287.5" font-family="Helvetica,sans-Serif" font-size="10.00" fill="#000000">routelistinterface.h</text>
</a>
</g>
</g>
<!-- Node1&#45;&gt;Node58 -->
<g id="edge147" class="edge">
<title>Node1&#45;&gt;Node58</title>
<path fill="none" stroke="#191970" d="M1175.691,-563.4015C1093.9702,-544.6075 954.5,-505.5648 954.5,-458 954.5,-458 954.5,-458 954.5,-402 954.5,-365.1826 979.2675,-328.2377 996.1501,-307.3313"/>
<polygon fill="#191970" stroke="#191970" points="998.8511,-309.5574 1002.5938,-299.6456 993.4869,-305.06 998.8511,-309.5574"/>
</g>
<!-- Node62 -->
<g id="node62" class="node">
<title>Node62</title>
<g id="a_node62"><a xlink:href="routeinterface_8h.html" target="_top" xlink:title=" ">
<polygon fill="#ffffff" stroke="#000000" points="1364,-392.5 1364,-411.5 1449,-411.5 1449,-392.5 1364,-392.5"/>
<text text-anchor="middle" x="1406.5" y="-399.5" font-family="Helvetica,sans-Serif" font-size="10.00" fill="#000000">routeinterface.h</text>
</a>
</g>
</g>
<!-- Node1&#45;&gt;Node62 -->
<g id="edge146" class="edge">
<title>Node1&#45;&gt;Node62</title>
<path fill="none" stroke="#191970" d="M1248.55,-560.4065C1280.6665,-528.1972 1355.735,-452.9117 1389.5073,-419.0418"/>
<polygon fill="#191970" stroke="#191970" points="1392.2076,-421.2906 1396.7901,-411.738 1387.2507,-416.348 1392.2076,-421.2906"/>
</g>
<!-- Node65 -->
<g id="node65" class="node">
<title>Node65</title>
<g id="a_node65"><a xlink:href="sidepanel_8h.html" target="_top" xlink:title=" ">
<polygon fill="#ffffff" stroke="#000000" points="2700.5,-336.5 2700.5,-355.5 2768.5,-355.5 2768.5,-336.5 2700.5,-336.5"/>
<text text-anchor="middle" x="2734.5" y="-343.5" font-family="Helvetica,sans-Serif" font-size="10.00" fill="#000000">sidepanel.h</text>
</a>
</g>
</g>
<!-- Node1&#45;&gt;Node65 -->
<g id="edge138" class="edge">
<title>Node1&#45;&gt;Node65</title>
<path fill="none" stroke="#191970" d="M1291.1247,-575.3557C1554.2288,-574.4572 2631.0101,-568.0899 2686.5,-524 2734.8724,-485.5653 2737.5873,-403.8888 2735.9963,-366.034"/>
<polygon fill="#191970" stroke="#191970" points="2739.4757,-365.5729 2735.41,-355.7893 2732.4871,-365.9729 2739.4757,-365.5729"/>
</g>
<!-- Node67 -->
<g id="node67" class="node">
<title>Node67</title>
<g id="a_node67"><a xlink:href="gameloop_8h.html" target="_top" xlink:title=" ">
<polygon fill="#ffffff" stroke="#000000" points="1532.5,-392.5 1532.5,-411.5 1602.5,-411.5 1602.5,-392.5 1532.5,-392.5"/>
<text text-anchor="middle" x="1567.5" y="-399.5" font-family="Helvetica,sans-Serif" font-size="10.00" fill="#000000">gameloop.h</text>
</a>
</g>
</g>
<!-- Node1&#45;&gt;Node67 -->
<g id="edge140" class="edge">
<title>Node1&#45;&gt;Node67</title>
<path fill="none" stroke="#191970" d="M1262.556,-560.4065C1326.2817,-527.3035 1477.5976,-448.7008 1539.9329,-416.32"/>
<polygon fill="#191970" stroke="#191970" points="1541.8856,-419.2498 1549.1463,-411.534 1538.6587,-413.0379 1541.8856,-419.2498"/>
</g>
<!-- Node68 -->
<g id="node68" class="node">
<title>Node68</title>
<g id="a_node68"><a xlink:href="renderthread_8h.html" target="_top" xlink:title=" ">
<polygon fill="#ffffff" stroke="#000000" points="748.5,-280.5 748.5,-299.5 830.5,-299.5 830.5,-280.5 748.5,-280.5"/>
<text text-anchor="middle" x="789.5" y="-287.5" font-family="Helvetica,sans-Serif" font-size="10.00" fill="#000000">renderthread.h</text>
</a>
</g>
</g>
<!-- Node1&#45;&gt;Node68 -->
<g id="edge149" class="edge">
<title>Node1&#45;&gt;Node68</title>
<path fill="none" stroke="#191970" d="M1175.9552,-573.9008C1081.2977,-570.292 897.8931,-558.8884 844.5,-524 815.7864,-505.2378 804.5,-492.3001 804.5,-458 804.5,-458 804.5,-458 804.5,-402 804.5,-369.2739 798.1307,-331.641 793.693,-309.3923"/>
<polygon fill="#191970" stroke="#191970" points="797.1058,-308.6123 791.6491,-299.5307 790.2515,-310.0329 797.1058,-308.6123"/>
</g>
<!-- Node69 -->
<g id="node69" class="node">
<title>Node69</title>
<g id="a_node69"><a xlink:href="videowidget_8h.html" target="_top" xlink:title=" ">
<polygon fill="#ffffff" stroke="#000000" points="1382.5,-280.5 1382.5,-299.5 1462.5,-299.5 1462.5,-280.5 1382.5,-280.5"/>
<text text-anchor="middle" x="1422.5" y="-287.5" font-family="Helvetica,sans-Serif" font-size="10.00" fill="#000000">videowidget.h</text>
</a>
</g>
</g>
<!-- Node1&#45;&gt;Node69 -->
<g id="edge152" class="edge">
<title>Node1&#45;&gt;Node69</title>
<path fill="none" stroke="#191970" d="M1215.6841,-560.3619C1179.5534,-527.8161 1104.3634,-449.4794 1144.5,-392 1171.2404,-353.7053 1300.0741,-318.3859 1372.6021,-301.1106"/>
<polygon fill="#191970" stroke="#191970" points="1373.5135,-304.4918 1382.4459,-298.7943 1371.9101,-297.6779 1373.5135,-304.4918"/>
</g>
<!-- Node21 -->
<g id="node21" class="node">
<title>Node21</title>
<g id="a_node21"><a xlink:title=" ">
<polygon fill="#ffffff" stroke="#bfbfbf" points="3086,-56.5 3086,-75.5 3169,-75.5 3169,-56.5 3086,-56.5"/>
<text text-anchor="middle" x="3127.5" y="-63.5" font-family="Helvetica,sans-Serif" font-size="10.00" fill="#000000">QMainWindow</text>
</a>
</g>
</g>
<!-- Node20&#45;&gt;Node21 -->
<g id="edge20" class="edge">
<title>Node20&#45;&gt;Node21</title>
<path fill="none" stroke="#191970" d="M3166.3132,-112.2455C3159.6411,-104.2958 3150.0521,-92.8706 3142.0747,-83.3656"/>
<polygon fill="#191970" stroke="#191970" points="3144.7026,-81.0524 3135.593,-75.6427 3139.3408,-85.5525 3144.7026,-81.0524"/>
</g>
<!-- Node22 -->
<g id="node22" class="node">
<title>Node22</title>
<g id="a_node22"><a xlink:title=" ">
<polygon fill="#ffffff" stroke="#bfbfbf" points="3187,-56.5 3187,-75.5 3254,-75.5 3254,-56.5 3187,-56.5"/>
<text text-anchor="middle" x="3220.5" y="-63.5" font-family="Helvetica,sans-Serif" font-size="10.00" fill="#000000">QKeyEvent</text>
</a>
</g>
</g>
<!-- Node20&#45;&gt;Node22 -->
<g id="edge21" class="edge">
<title>Node20&#45;&gt;Node22</title>
<path fill="none" stroke="#191970" d="M3182.5126,-112.2455C3188.9768,-104.3761 3198.2385,-93.101 3205.9983,-83.6542"/>
<polygon fill="#191970" stroke="#191970" points="3208.9364,-85.5916 3212.5792,-75.6427 3203.5273,-81.1484 3208.9364,-85.5916"/>
</g>
<!-- Node23&#45;&gt;Node20 -->
<g id="edge23" class="edge">
<title>Node23&#45;&gt;Node20</title>
<path fill="none" stroke="#191970" d="M2573.7341,-511.9453C2616.0578,-507.6425 2708.0367,-495.6915 2780.5,-468 2963.3603,-398.1209 2993.3011,-336.8 3120.5,-188 3134.3887,-171.7527 3149.787,-152.8395 3160.5747,-139.4349"/>
<polygon fill="#191970" stroke="#191970" points="3163.4087,-141.4955 3166.9358,-131.505 3157.9484,-137.1154 3163.4087,-141.4955"/>
</g>
<!-- Node24 -->
<g id="node24" class="node">
<title>Node24</title>
<g id="a_node24"><a xlink:href="datamodel_8h.html" target="_top" xlink:title=" ">
<polygon fill="#ffffff" stroke="#000000" points="2445,-168.5 2445,-187.5 2518,-187.5 2518,-168.5 2445,-168.5"/>
<text text-anchor="middle" x="2481.5" y="-175.5" font-family="Helvetica,sans-Serif" font-size="10.00" fill="#000000">datamodel.h</text>
</a>
</g>
</g>
<!-- Node23&#45;&gt;Node24 -->
<g id="edge24" class="edge">
<title>Node23&#45;&gt;Node24</title>
<path fill="none" stroke="#191970" d="M2548.8407,-504.4425C2542.4493,-467.8957 2518.53,-333.5469 2493.5,-224 2491.5059,-215.2726 2489.0473,-205.6826 2486.8758,-197.5279"/>
<polygon fill="#191970" stroke="#191970" points="2490.2414,-196.5657 2484.2498,-187.8277 2483.4846,-198.3949 2490.2414,-196.5657"/>
</g>
<!-- Node25 -->
<g id="node25" class="node">
<title>Node25</title>
<g id="a_node25"><a xlink:title=" ">
<polygon fill="#ffffff" stroke="#bfbfbf" points="2888,-56.5 2888,-75.5 2937,-75.5 2937,-56.5 2888,-56.5"/>
<text text-anchor="middle" x="2912.5" y="-63.5" font-family="Helvetica,sans-Serif" font-size="10.00" fill="#000000">QLabel</text>
</a>
</g>
</g>
<!-- Node23&#45;&gt;Node25 -->
<g id="edge38" class="edge">
<title>Node23&#45;&gt;Node25</title>
<path fill="none" stroke="#191970" d="M2572.6557,-504.3147C2630.4353,-478.2195 2788.2398,-401.5036 2889.5,-300 2929.6831,-259.7203 2940.4836,-243.8191 2951.5,-188 2954.4807,-172.8971 2957.3552,-130.5407 2950.5,-112 2946.4586,-101.0697 2938.6307,-90.8627 2931.1248,-82.854"/>
<polygon fill="#191970" stroke="#191970" points="2933.4323,-80.2123 2923.8783,-75.6328 2928.4912,-85.1708 2933.4323,-80.2123"/>
</g>
<!-- Node32 -->
<g id="node32" class="node">
<title>Node32</title>
<g id="a_node32"><a xlink:href="client_8h.html" target="_top" xlink:title=" ">
<polygon fill="#ffffff" stroke="#000000" points="1570,-336.5 1570,-355.5 1617,-355.5 1617,-336.5 1570,-336.5"/>
<text text-anchor="middle" x="1593.5" y="-343.5" font-family="Helvetica,sans-Serif" font-size="10.00" fill="#000000">client.h</text>
</a>
</g>
</g>
<!-- Node23&#45;&gt;Node32 -->
<g id="edge39" class="edge">
<title>Node23&#45;&gt;Node32</title>
<path fill="none" stroke="#191970" d="M2527.3179,-509.9304C2399.368,-487.469 1779.7239,-378.6913 1627.3832,-351.9482"/>
<polygon fill="#191970" stroke="#191970" points="1627.69,-348.4486 1617.2355,-350.1667 1626.4797,-355.3431 1627.69,-348.4486"/>
</g>
<!-- Node61 -->
<g id="node61" class="node">
<title>Node61</title>
<g id="a_node61"><a xlink:href="menubar_8h.html" target="_top" xlink:title=" ">
<polygon fill="#ffffff" stroke="#000000" points="2033,-448.5 2033,-467.5 2096,-467.5 2096,-448.5 2033,-448.5"/>
<text text-anchor="middle" x="2064.5" y="-455.5" font-family="Helvetica,sans-Serif" font-size="10.00" fill="#000000">menubar.h</text>
</a>
</g>
</g>
<!-- Node23&#45;&gt;Node61 -->
<g id="edge105" class="edge">
<title>Node23&#45;&gt;Node61</title>
<path fill="none" stroke="#191970" d="M2527.48,-512.4897C2461.9659,-507.9988 2268.9952,-493.4338 2110.5,-468 2109.0374,-467.7653 2107.5514,-467.5137 2106.0525,-467.2488"/>
<polygon fill="#191970" stroke="#191970" points="2106.5662,-463.7837 2096.087,-465.3448 2105.2525,-470.6593 2106.5662,-463.7837"/>
</g>
<!-- Node23&#45;&gt;Node65 -->
<g id="edge126" class="edge">
<title>Node23&#45;&gt;Node65</title>
<path fill="none" stroke="#191970" d="M2560.9198,-504.4862C2590.8874,-477.1246 2677.5993,-397.9528 2715.9179,-362.9663"/>
<polygon fill="#191970" stroke="#191970" points="2718.7112,-365.1553 2723.7361,-355.8279 2713.9913,-359.9859 2718.7112,-365.1553"/>
</g>
<!-- Node24&#45;&gt;Node9 -->
<g id="edge26" class="edge">
<title>Node24&#45;&gt;Node9</title>
<path fill="none" stroke="#191970" d="M2477.5781,-168.4509C2470.0077,-150.0186 2453.2533,-109.2254 2443.3212,-85.043"/>
<polygon fill="#191970" stroke="#191970" points="2446.4488,-83.4454 2439.412,-75.5249 2439.9737,-86.1048 2446.4488,-83.4454"/>
</g>
<!-- Node24&#45;&gt;Node16 -->
<g id="edge28" class="edge">
<title>Node24&#45;&gt;Node16</title>
<path fill="none" stroke="#191970" d="M2488.8158,-168.2455C2494.7179,-160.3761 2503.1742,-149.101 2510.2594,-139.6542"/>
<polygon fill="#191970" stroke="#191970" points="2513.068,-141.7427 2516.268,-131.6427 2507.4679,-137.5427 2513.068,-141.7427"/>
</g>
<!-- Node24&#45;&gt;Node19 -->
<g id="edge29" class="edge">
<title>Node24&#45;&gt;Node19</title>
<path fill="none" stroke="#191970" d="M2444.7707,-172.8815C2430.0971,-171.0319 2413.0268,-169.1242 2397.5,-168 1788.4059,-123.9003 1628.5,-198.4969 1017.1053,-131.8511"/>
<polygon fill="#191970" stroke="#191970" points="1017.4833,-128.3716 1007.1609,-130.759 1016.7191,-135.3298 1017.4833,-128.3716"/>
</g>
<!-- Node24&#45;&gt;Node20 -->
<g id="edge30" class="edge">
<title>Node24&#45;&gt;Node20</title>
<path fill="none" stroke="#191970" d="M2518.0726,-169.5552C2521.2508,-168.9716 2524.4259,-168.4411 2527.5,-168 2748.329,-136.3128 3014.8412,-126.1209 3124.0842,-123.1319"/>
<polygon fill="#191970" stroke="#191970" points="3124.2547,-126.6287 3134.1583,-122.8646 3124.069,-119.6311 3124.2547,-126.6287"/>
</g>
<!-- Node24&#45;&gt;Node25 -->
<g id="edge25" class="edge">
<title>Node24&#45;&gt;Node25</title>
<path fill="none" stroke="#191970" d="M2518.2468,-168.4509C2600.3647,-147.1117 2797.8138,-95.8024 2877.8889,-74.9941"/>
<polygon fill="#191970" stroke="#191970" points="2879.1454,-78.2839 2887.9437,-72.3812 2877.3848,-71.5089 2879.1454,-78.2839"/>
</g>
<!-- Node26 -->
<g id="node26" class="node">
<title>Node26</title>
<g id="a_node26"><a xlink:title=" ">
<polygon fill="#ffffff" stroke="#bfbfbf" points="1669.5,-112.5 1669.5,-131.5 1719.5,-131.5 1719.5,-112.5 1669.5,-112.5"/>
<text text-anchor="middle" x="1694.5" y="-119.5" font-family="Helvetica,sans-Serif" font-size="10.00" fill="#000000">QString</text>
</a>
</g>
</g>
<!-- Node24&#45;&gt;Node26 -->
<g id="edge27" class="edge">
<title>Node24&#45;&gt;Node26</title>
<path fill="none" stroke="#191970" d="M2444.7448,-173.1953C2430.0678,-171.3889 2413.0018,-169.4289 2397.5,-168 2141.9478,-144.4445 1833.0434,-128.6002 1729.9216,-123.6508"/>
<polygon fill="#191970" stroke="#191970" points="1729.9133,-120.1465 1719.758,-123.1664 1729.58,-127.1386 1729.9133,-120.1465"/>
</g>
<!-- Node27 -->
<g id="node27" class="node">
<title>Node27</title>
<g id="a_node27"><a xlink:href="player_8h.html" target="_top" xlink:title=" ">
<polygon fill="#ffffff" stroke="#000000" points="1977.5,-112.5 1977.5,-131.5 2029.5,-131.5 2029.5,-112.5 1977.5,-112.5"/>
<text text-anchor="middle" x="2003.5" y="-119.5" font-family="Helvetica,sans-Serif" font-size="10.00" fill="#000000">player.h</text>
</a>
</g>
</g>
<!-- Node24&#45;&gt;Node27 -->
<g id="edge31" class="edge">
<title>Node24&#45;&gt;Node27</title>
<path fill="none" stroke="#191970" d="M2444.7022,-173.601C2430.0193,-171.8505 2412.9604,-169.8228 2397.5,-168 2265.7653,-152.4686 2109.222,-134.2683 2039.7758,-126.2074"/>
<polygon fill="#191970" stroke="#191970" points="2040.1214,-122.7241 2029.7845,-125.0479 2039.3144,-129.6775 2040.1214,-122.7241"/>
</g>
<!-- Node24&#45;&gt;Node30 -->
<g id="edge34" class="edge">
<title>Node24&#45;&gt;Node30</title>
<path fill="none" stroke="#191970" d="M2518.1045,-169.7558C2521.2758,-169.1287 2524.4405,-168.5333 2527.5,-168 2648.0656,-146.983 2679.8029,-152.2484 2800.5,-132 2801.7764,-131.7859 2803.0702,-131.5628 2804.3752,-131.3325"/>
<polygon fill="#191970" stroke="#191970" points="2805.2982,-134.721 2814.4919,-129.4554 2804.0212,-127.8385 2805.2982,-134.721"/>
</g>
<!-- Node31 -->
<g id="node31" class="node">
<title>Node31</title>
<g id="a_node31"><a xlink:href="point_8h.html" target="_top" xlink:title=" ">
<polygon fill="#ffffff" stroke="#000000" points="1423,-56.5 1423,-75.5 1468,-75.5 1468,-56.5 1423,-56.5"/>
<text text-anchor="middle" x="1445.5" y="-63.5" font-family="Helvetica,sans-Serif" font-size="10.00" fill="#000000">point.h</text>
</a>
</g>
</g>
<!-- Node24&#45;&gt;Node31 -->
<g id="edge37" class="edge">
<title>Node24&#45;&gt;Node31</title>
<path fill="none" stroke="#191970" d="M2444.7306,-173.342C2430.0516,-171.5558 2412.988,-169.5713 2397.5,-168 2207.1403,-148.6878 2158.7788,-152.094 1968.5,-132 1898.5473,-124.6128 1881.2852,-120.8303 1811.5,-112 1688.6765,-96.4584 1542.6437,-78.158 1478.493,-70.1278"/>
<polygon fill="#191970" stroke="#191970" points="1478.5592,-66.6089 1468.2019,-68.8398 1477.6898,-73.5547 1478.5592,-66.6089"/>
</g>
<!-- Node28 -->
<g id="node28" class="node">
<title>Node28</title>
<g id="a_node28"><a xlink:href="highlighter_8h.html" target="_top" xlink:title=" ">
<polygon fill="#ffffff" stroke="#000000" points="1863.5,-56.5 1863.5,-75.5 1933.5,-75.5 1933.5,-56.5 1863.5,-56.5"/>
<text text-anchor="middle" x="1898.5" y="-63.5" font-family="Helvetica,sans-Serif" font-size="10.00" fill="#000000">highlighter.h</text>
</a>
</g>
</g>
<!-- Node27&#45;&gt;Node28 -->
<g id="edge32" class="edge">
<title>Node27&#45;&gt;Node28</title>
<path fill="none" stroke="#191970" d="M1985.2104,-112.2455C1968.7238,-103.4527 1944.2648,-90.4079 1925.5235,-80.4125"/>
<polygon fill="#191970" stroke="#191970" points="1927.0506,-77.2604 1916.58,-75.6427 1923.7565,-83.4368 1927.0506,-77.2604"/>
</g>
<!-- Node29 -->
<g id="node29" class="node">
<title>Node29</title>
<g id="a_node29"><a xlink:title=" ">
<polygon fill="#ffffff" stroke="#bfbfbf" points="1814.5,-.5 1814.5,-19.5 1918.5,-19.5 1918.5,-.5 1814.5,-.5"/>
<text text-anchor="middle" x="1866.5" y="-7.5" font-family="Helvetica,sans-Serif" font-size="10.00" fill="#000000">QGraphicsRectItem</text>
</a>
</g>
</g>
<!-- Node28&#45;&gt;Node29 -->
<g id="edge33" class="edge">
<title>Node28&#45;&gt;Node29</title>
<path fill="none" stroke="#191970" d="M1892.926,-56.2455C1888.5669,-48.617 1882.3789,-37.7881 1877.0867,-28.5267"/>
<polygon fill="#191970" stroke="#191970" points="1880.0104,-26.5886 1872.0101,-19.6427 1873.9327,-30.0616 1880.0104,-26.5886"/>
</g>
<!-- Node30&#45;&gt;Node9 -->
<g id="edge36" class="edge">
<title>Node30&#45;&gt;Node9</title>
<path fill="none" stroke="#191970" d="M2814.2026,-117.2255C2737.008,-106.7837 2553.7115,-81.99 2473.825,-71.1841"/>
<polygon fill="#191970" stroke="#191970" points="2474.088,-67.6878 2463.7091,-69.8157 2473.1497,-74.6247 2474.088,-67.6878"/>
</g>
<!-- Node30&#45;&gt;Node25 -->
<g id="edge35" class="edge">
<title>Node30&#45;&gt;Node25</title>
<path fill="none" stroke="#191970" d="M2860.4738,-112.2455C2869.6882,-104.0549 2883.0532,-92.1749 2893.9297,-82.5069"/>
<polygon fill="#191970" stroke="#191970" points="2896.5032,-84.9023 2901.652,-75.6427 2891.8526,-79.6704 2896.5032,-84.9023"/>
</g>
<!-- Node32&#45;&gt;Node24 -->
<g id="edge64" class="edge">
<title>Node32&#45;&gt;Node24</title>
<path fill="none" stroke="#191970" d="M1617.1064,-343.1623C1692.1434,-334.1198 1922.2207,-306.2119 1955.5,-300 2093.6767,-274.208 2125.4753,-255.341 2262.5,-224 2321.8792,-210.4185 2390.6705,-196.2186 2435.0723,-187.2522"/>
<polygon fill="#191970" stroke="#191970" points="2435.8764,-190.6606 2444.9884,-185.2549 2434.4941,-183.7984 2435.8764,-190.6606"/>
</g>
<!-- Node32&#45;&gt;Node26 -->
<g id="edge44" class="edge">
<title>Node32&#45;&gt;Node26</title>
<path fill="none" stroke="#191970" d="M1617.2157,-341.0244C1651.1857,-333.3616 1710.9932,-317.6921 1723.5,-300 1758.2092,-250.9003 1724.5231,-175.2968 1705.525,-140.5851"/>
<polygon fill="#191970" stroke="#191970" points="1708.3869,-138.5366 1700.4082,-131.5658 1702.2985,-141.9907 1708.3869,-138.5366"/>
</g>
<!-- Node32&#45;&gt;Node30 -->
<g id="edge104" class="edge">
<title>Node32&#45;&gt;Node30</title>
<path fill="none" stroke="#191970" d="M1617.0268,-343.2891C1634.7484,-341.2562 1659.6457,-338.4195 1681.5,-336 1829.8976,-319.571 1868.0687,-323.5749 2015.5,-300 2175.6872,-274.3854 2212.8529,-252.7897 2372.5,-224 2479.9457,-204.6239 2508.7425,-210.8655 2615.5,-188 2685.0989,-173.0932 2764.5373,-149.1882 2810.6548,-134.6071"/>
<polygon fill="#191970" stroke="#191970" points="2811.7822,-137.9213 2820.2512,-131.5552 2809.6607,-131.2505 2811.7822,-137.9213"/>
</g>
<!-- Node33 -->
<g id="node33" class="node">
<title>Node33</title>
<g id="a_node33"><a xlink:title=" ">
<polygon fill="#ffffff" stroke="#bfbfbf" points="1556.5,-280.5 1556.5,-299.5 1630.5,-299.5 1630.5,-280.5 1556.5,-280.5"/>
<text text-anchor="middle" x="1593.5" y="-287.5" font-family="Helvetica,sans-Serif" font-size="10.00" fill="#000000">QTcpSocket</text>
</a>
</g>
</g>
<!-- Node32&#45;&gt;Node33 -->
<g id="edge40" class="edge">
<title>Node32&#45;&gt;Node33</title>
<path fill="none" stroke="#191970" d="M1593.5,-336.2455C1593.5,-328.9382 1593.5,-318.6944 1593.5,-309.7046"/>
<polygon fill="#191970" stroke="#191970" points="1597.0001,-309.6426 1593.5,-299.6427 1590.0001,-309.6427 1597.0001,-309.6426"/>
</g>
<!-- Node34 -->
<g id="node34" class="node">
<title>Node34</title>
<g id="a_node34"><a xlink:title=" ">
<polygon fill="#ffffff" stroke="#bfbfbf" points="1598,-112.5 1598,-131.5 1651,-131.5 1651,-112.5 1598,-112.5"/>
<text text-anchor="middle" x="1624.5" y="-119.5" font-family="Helvetica,sans-Serif" font-size="10.00" fill="#000000">QObject</text>
</a>
</g>
</g>
<!-- Node32&#45;&gt;Node34 -->
<g id="edge41" class="edge">
<title>Node32&#45;&gt;Node34</title>
<path fill="none" stroke="#191970" d="M1578.631,-336.3011C1561.955,-324.1007 1538.3603,-302.0652 1547.5,-280 1556.1591,-259.095 1571.5804,-263.2334 1583.5,-244 1603.9147,-211.059 1615.4866,-166.7552 1620.8273,-141.6048"/>
<polygon fill="#191970" stroke="#191970" points="1624.3177,-141.9995 1622.852,-131.5065 1617.4543,-140.6233 1624.3177,-141.9995"/>
</g>
<!-- Node35 -->
<g id="node35" class="node">
<title>Node35</title>
<g id="a_node35"><a xlink:title=" ">
<polygon fill="#ffffff" stroke="#bfbfbf" points="734.5,-168.5 734.5,-187.5 792.5,-187.5 792.5,-168.5 734.5,-168.5"/>
<text text-anchor="middle" x="763.5" y="-175.5" font-family="Helvetica,sans-Serif" font-size="10.00" fill="#000000">QThread</text>
</a>
</g>
</g>
<!-- Node32&#45;&gt;Node35 -->
<g id="edge42" class="edge">
<title>Node32&#45;&gt;Node35</title>
<path fill="none" stroke="#191970" d="M1569.6579,-344.9528C1517.6216,-342.1182 1390.4475,-332.1928 1289.5,-300 1236.8561,-283.2115 1226.8305,-270.7843 1178.5,-244 1163.4995,-235.6869 1161.7407,-229.5101 1145.5,-224 1006.6222,-176.8818 962.5884,-209.3665 817.5,-188 812.6834,-187.2907 807.6399,-186.4665 802.6516,-185.6014"/>
<polygon fill="#191970" stroke="#191970" points="803.0417,-182.1156 792.5804,-183.7922 801.8039,-189.0053 803.0417,-182.1156"/>
</g>
<!-- Node36 -->
<g id="node36" class="node">
<title>Node36</title>
<g id="a_node36"><a xlink:title=" ">
<polygon fill="#ffffff" stroke="#bfbfbf" points="1649,-280.5 1649,-299.5 1714,-299.5 1714,-280.5 1649,-280.5"/>
<text text-anchor="middle" x="1681.5" y="-287.5" font-family="Helvetica,sans-Serif" font-size="10.00" fill="#000000">QStringList</text>
</a>
</g>
</g>
<!-- Node32&#45;&gt;Node36 -->
<g id="edge43" class="edge">
<title>Node32&#45;&gt;Node36</title>
<path fill="none" stroke="#191970" d="M1608.8284,-336.2455C1622.3303,-327.6534 1642.2122,-315.0014 1657.7686,-305.1018"/>
<polygon fill="#191970" stroke="#191970" points="1659.7897,-307.9643 1666.3472,-299.6427 1656.0315,-302.0587 1659.7897,-307.9643"/>
</g>
<!-- Node32&#45;&gt;Node37 -->
<g id="edge45" class="edge">
<title>Node32&#45;&gt;Node37</title>
<path fill="none" stroke="#191970" d="M1617.0238,-339.5119C1648.7449,-330.7285 1706.9708,-314.4849 1756.5,-300 1820.8008,-281.1951 1895.4708,-258.3743 1938.624,-245.0888"/>
<polygon fill="#191970" stroke="#191970" points="1939.8476,-248.3742 1948.3734,-242.0844 1937.7861,-241.6847 1939.8476,-248.3742"/>
</g>
<!-- Node42 -->
<g id="node42" class="node">
<title>Node42</title>
<g id="a_node42"><a xlink:href="maptile_8h.html" target="_top" xlink:title=" ">
<polygon fill="#ffffff" stroke="#000000" points="886.5,-168.5 886.5,-187.5 942.5,-187.5 942.5,-168.5 886.5,-168.5"/>
<text text-anchor="middle" x="914.5" y="-175.5" font-family="Helvetica,sans-Serif" font-size="10.00" fill="#000000">maptile.h</text>
</a>
</g>
</g>
<!-- Node32&#45;&gt;Node42 -->
<g id="edge63" class="edge">
<title>Node32&#45;&gt;Node42</title>
<path fill="none" stroke="#191970" d="M1569.8339,-343.6794C1524.7456,-338.8197 1423.7786,-325.8213 1342.5,-300 1265.9357,-275.6764 1255.3662,-247.3521 1178.5,-224 1083.0017,-194.9874 1052.0394,-209.2296 952.5432,-188.495"/>
<polygon fill="#191970" stroke="#191970" points="953.2085,-185.0581 942.6961,-186.3766 951.7363,-191.9015 953.2085,-185.0581"/>
</g>
<!-- Node32&#45;&gt;Node48 -->
<g id="edge65" class="edge">
<title>Node32&#45;&gt;Node48</title>
<path fill="none" stroke="#191970" d="M1617.3653,-342.8917C1635.045,-340.6856 1659.7408,-337.8064 1681.5,-336 1985.3194,-310.7773 2065.4441,-348.0392 2366.5,-300 2367.9785,-299.7641 2369.4829,-299.4924 2370.9972,-299.193"/>
<polygon fill="#191970" stroke="#191970" points="2372.0043,-302.5529 2380.9662,-296.9019 2370.4363,-295.7308 2372.0043,-302.5529"/>
</g>
<!-- Node32&#45;&gt;Node52 -->
<g id="edge74" class="edge">
<title>Node32&#45;&gt;Node52</title>
<path fill="none" stroke="#191970" d="M1569.9495,-342.8563C1520.4377,-335.9624 1407.3371,-318.6372 1373.5,-300 1352.23,-288.2846 1333.6372,-267.1835 1322.0519,-251.9902"/>
<polygon fill="#191970" stroke="#191970" points="1324.8112,-249.8344 1316.0731,-243.843 1319.1677,-253.9759 1324.8112,-249.8344"/>
</g>
<!-- Node32&#45;&gt;Node58 -->
<g id="edge99" class="edge">
<title>Node32&#45;&gt;Node58</title>
<path fill="none" stroke="#191970" d="M1569.9641,-343.7354C1485.4671,-335.6051 1195.7911,-307.7325 1070.2751,-295.6553"/>
<polygon fill="#191970" stroke="#191970" points="1070.3761,-292.149 1060.0869,-294.675 1069.7056,-299.1168 1070.3761,-292.149"/>
</g>
<!-- Node37&#45;&gt;Node24 -->
<g id="edge62" class="edge">
<title>Node37&#45;&gt;Node24</title>
<path fill="none" stroke="#191970" d="M2000.7459,-231.2396C2067.1829,-224.2319 2247.4053,-205.0949 2397.5,-188 2409.584,-186.6237 2422.64,-185.0914 2434.7747,-183.648"/>
<polygon fill="#191970" stroke="#191970" points="2435.195,-187.1228 2444.7095,-182.4619 2434.3651,-180.1722 2435.195,-187.1228"/>
</g>
<!-- Node37&#45;&gt;Node27 -->
<g id="edge60" class="edge">
<title>Node37&#45;&gt;Node27</title>
<path fill="none" stroke="#191970" d="M1960.2853,-224.4807C1943.4102,-211.9303 1918.9227,-188.9795 1930.5,-168 1938.6339,-153.2605 1953.6946,-142.5972 1968.033,-135.2717"/>
<polygon fill="#191970" stroke="#191970" points="1969.709,-138.3513 1977.2709,-130.9306 1966.7318,-132.016 1969.709,-138.3513"/>
</g>
<!-- Node37&#45;&gt;Node28 -->
<g id="edge61" class="edge">
<title>Node37&#45;&gt;Node28</title>
<path fill="none" stroke="#191970" d="M1959.1305,-224.1899C1947.5153,-215.9484 1932.1426,-203.1117 1923.5,-188 1904.8838,-155.4491 1900.0173,-111.0069 1898.8147,-85.7265"/>
<polygon fill="#191970" stroke="#191970" points="1902.3077,-85.4517 1898.4837,-75.5711 1895.3114,-85.6798 1902.3077,-85.4517"/>
</g>
<!-- Node37&#45;&gt;Node29 -->
<g id="edge49" class="edge">
<title>Node37&#45;&gt;Node29</title>
<path fill="none" stroke="#191970" d="M1956.3516,-224.4963C1942.1562,-216.3398 1922.6804,-203.4685 1909.5,-188 1873.533,-145.7894 1867.0476,-130.0177 1854.5,-76 1850.8821,-60.4248 1854.5965,-42.5722 1858.819,-29.3649"/>
<polygon fill="#191970" stroke="#191970" points="1862.1314,-30.4958 1862.1838,-19.9011 1855.5359,-28.1507 1862.1314,-30.4958"/>
</g>
<!-- Node38 -->
<g id="node38" class="node">
<title>Node38</title>
<g id="a_node38"><a xlink:title=" ">
<polygon fill="#ffffff" stroke="#bfbfbf" points="2294.5,-168.5 2294.5,-187.5 2388.5,-187.5 2388.5,-168.5 2294.5,-168.5"/>
<text text-anchor="middle" x="2341.5" y="-175.5" font-family="Helvetica,sans-Serif" font-size="10.00" fill="#000000">QGraphicsScene</text>
</a>
</g>
</g>
<!-- Node37&#45;&gt;Node38 -->
<g id="edge46" class="edge">
<title>Node37&#45;&gt;Node38</title>
<path fill="none" stroke="#191970" d="M2000.7538,-230.3867C2052.7801,-223.1684 2172.8771,-206.2192 2284.3923,-188.1438"/>
<polygon fill="#191970" stroke="#191970" points="2285.156,-191.5657 2294.4637,-186.5044 2284.0312,-184.6566 2285.156,-191.5657"/>
</g>
<!-- Node39 -->
<g id="node39" class="node">
<title>Node39</title>
<g id="a_node39"><a xlink:title=" ">
<polygon fill="#ffffff" stroke="#bfbfbf" points="1939.5,-168.5 1939.5,-187.5 2043.5,-187.5 2043.5,-168.5 1939.5,-168.5"/>
<text text-anchor="middle" x="1991.5" y="-175.5" font-family="Helvetica,sans-Serif" font-size="10.00" fill="#000000">QGraphicsTextItem</text>
</a>
</g>
</g>
<!-- Node37&#45;&gt;Node39 -->
<g id="edge47" class="edge">
<title>Node37&#45;&gt;Node39</title>
<path fill="none" stroke="#191970" d="M1977.4612,-224.2455C1979.7038,-216.8579 1982.8577,-206.4689 1985.6081,-197.4087"/>
<polygon fill="#191970" stroke="#191970" points="1989.017,-198.2282 1988.5728,-187.6427 1982.3188,-196.1948 1989.017,-198.2282"/>
</g>
<!-- Node40 -->
<g id="node40" class="node">
<title>Node40</title>
<g id="a_node40"><a xlink:title=" ">
<polygon fill="#ffffff" stroke="#bfbfbf" points="2062,-168.5 2062,-187.5 2145,-187.5 2145,-168.5 2062,-168.5"/>
<text text-anchor="middle" x="2103.5" y="-175.5" font-family="Helvetica,sans-Serif" font-size="10.00" fill="#000000">QGraphicsItem</text>
</a>
</g>
</g>
<!-- Node37&#45;&gt;Node40 -->
<g id="edge48" class="edge">
<title>Node37&#45;&gt;Node40</title>
<path fill="none" stroke="#191970" d="M1996.6759,-224.3733C2017.4766,-215.3435 2048.7917,-201.7494 2072.1458,-191.6111"/>
<polygon fill="#191970" stroke="#191970" points="2073.8343,-194.6938 2081.6135,-187.5011 2071.0468,-188.2727 2073.8343,-194.6938"/>
</g>
<!-- Node41 -->
<g id="node41" class="node">
<title>Node41</title>
<g id="a_node41"><a xlink:title=" ">
<polygon fill="#ffffff" stroke="#bfbfbf" points="2163,-168.5 2163,-187.5 2276,-187.5 2276,-168.5 2163,-168.5"/>
<text text-anchor="middle" x="2219.5" y="-175.5" font-family="Helvetica,sans-Serif" font-size="10.00" fill="#000000">QGraphicsEllipseItem</text>
</a>
</g>
</g>
<!-- Node37&#45;&gt;Node41 -->
<g id="edge50" class="edge">
<title>Node37&#45;&gt;Node41</title>
<path fill="none" stroke="#191970" d="M2000.7193,-228.007C2040.4142,-218.9339 2116.5461,-201.5323 2167.6886,-189.8426"/>
<polygon fill="#191970" stroke="#191970" points="2168.5971,-193.2253 2177.5658,-187.585 2167.0373,-186.4013 2168.5971,-193.2253"/>
</g>
<!-- Node37&#45;&gt;Node42 -->
<g id="edge51" class="edge">
<title>Node37&#45;&gt;Node42</title>
<path fill="none" stroke="#191970" d="M1948.2563,-233.4849C1809.1102,-230.6522 1156.4459,-216.0645 956.5,-188 955.2474,-187.8242 953.9775,-187.6281 952.6979,-187.4152"/>
<polygon fill="#191970" stroke="#191970" points="953.3103,-183.9688 942.8282,-185.5102 951.9836,-190.842 953.3103,-183.9688"/>
</g>
<!-- Node37&#45;&gt;Node46 -->
<g id="edge59" class="edge">
<title>Node37&#45;&gt;Node46</title>
<path fill="none" stroke="#191970" d="M1948.3328,-233.5451C1815.1841,-231.1064 1212.0215,-218.5343 1027.5,-188 1008.8162,-184.9082 900.0542,-152.7346 839.0188,-134.4777"/>
<polygon fill="#191970" stroke="#191970" points="839.8765,-131.081 829.2928,-131.5654 837.8685,-137.7869 839.8765,-131.081"/>
</g>
<!-- Node43 -->
<g id="node43" class="node">
<title>Node43</title>
<g id="a_node43"><a xlink:title=" ">
<polygon fill="#ffffff" stroke="#bfbfbf" points="1025,-112.5 1025,-131.5 1142,-131.5 1142,-112.5 1025,-112.5"/>
<text text-anchor="middle" x="1083.5" y="-119.5" font-family="Helvetica,sans-Serif" font-size="10.00" fill="#000000">QGraphicsPixmapItem</text>
</a>
</g>
</g>
<!-- Node42&#45;&gt;Node43 -->
<g id="edge52" class="edge">
<title>Node42&#45;&gt;Node43</title>
<path fill="none" stroke="#191970" d="M942.7868,-168.6269C970.7671,-159.3553 1013.797,-145.0969 1044.9069,-134.7883"/>
<polygon fill="#191970" stroke="#191970" points="1046.1629,-138.0593 1054.5544,-131.5914 1043.9611,-131.4146 1046.1629,-138.0593"/>
</g>
<!-- Node44 -->
<g id="node44" class="node">
<title>Node44</title>
<g id="a_node44"><a xlink:href="city_8h.html" target="_top" xlink:title=" ">
<polygon fill="#ffffff" stroke="#000000" points="867,-112.5 867,-131.5 906,-131.5 906,-112.5 867,-112.5"/>
<text text-anchor="middle" x="886.5" y="-119.5" font-family="Helvetica,sans-Serif" font-size="10.00" fill="#000000">city.h</text>
</a>
</g>
</g>
<!-- Node42&#45;&gt;Node44 -->
<g id="edge53" class="edge">
<title>Node42&#45;&gt;Node44</title>
<path fill="none" stroke="#191970" d="M909.6228,-168.2455C905.8487,-160.6973 900.5079,-150.0158 895.9099,-140.8197"/>
<polygon fill="#191970" stroke="#191970" points="898.924,-139.0217 891.3213,-131.6427 892.663,-142.1522 898.924,-139.0217"/>
</g>
<!-- Node42&#45;&gt;Node46 -->
<g id="edge55" class="edge">
<title>Node42&#45;&gt;Node46</title>
<path fill="none" stroke="#191970" d="M894.387,-168.3733C875.6897,-159.4241 847.6256,-145.9917 826.5066,-135.8835"/>
<polygon fill="#191970" stroke="#191970" points="827.8817,-132.6614 817.3506,-131.5011 824.8595,-138.9755 827.8817,-132.6614"/>
</g>
<!-- Node45 -->
<g id="node45" class="node">
<title>Node45</title>
<g id="a_node45"><a xlink:title=" ">
<polygon fill="#ffffff" stroke="#bfbfbf" points="856,-56.5 856,-75.5 897,-75.5 897,-56.5 856,-56.5"/>
<text text-anchor="middle" x="876.5" y="-63.5" font-family="Helvetica,sans-Serif" font-size="10.00" fill="#000000">string</text>
</a>
</g>
</g>
<!-- Node44&#45;&gt;Node45 -->
<g id="edge54" class="edge">
<title>Node44&#45;&gt;Node45</title>
<path fill="none" stroke="#191970" d="M884.7581,-112.2455C883.4533,-104.9382 881.624,-94.6944 880.0187,-85.7046"/>
<polygon fill="#191970" stroke="#191970" points="883.4254,-84.8717 878.2219,-75.6427 876.5344,-86.1022 883.4254,-84.8717"/>
</g>
<!-- Node46&#45;&gt;Node15 -->
<g id="edge57" class="edge">
<title>Node46&#45;&gt;Node15</title>
<path fill="none" stroke="#191970" d="M841.7294,-112.4369C891.9654,-101.5751 973.0195,-84.0498 1019.866,-73.9209"/>
<polygon fill="#191970" stroke="#191970" points="1020.8454,-77.2901 1029.8798,-71.7557 1019.366,-70.4482 1020.8454,-77.2901"/>
</g>
<!-- Node46&#45;&gt;Node45 -->
<g id="edge58" class="edge">
<title>Node46&#45;&gt;Node45</title>
<path fill="none" stroke="#191970" d="M811.2607,-112.2455C823.1552,-103.814 840.565,-91.4729 854.4085,-81.6598"/>
<polygon fill="#191970" stroke="#191970" points="856.7628,-84.2811 862.8969,-75.6427 852.7146,-78.5704 856.7628,-84.2811"/>
</g>
<!-- Node47 -->
<g id="node47" class="node">
<title>Node47</title>
<g id="a_node47"><a xlink:title=" ">
<polygon fill="#ffffff" stroke="#bfbfbf" points="768.5,-56.5 768.5,-75.5 826.5,-75.5 826.5,-56.5 768.5,-56.5"/>
<text text-anchor="middle" x="797.5" y="-63.5" font-family="Helvetica,sans-Serif" font-size="10.00" fill="#000000">QPixmap</text>
</a>
</g>
</g>
<!-- Node46&#45;&gt;Node47 -->
<g id="edge56" class="edge">
<title>Node46&#45;&gt;Node47</title>
<path fill="none" stroke="#191970" d="M797.5,-112.2455C797.5,-104.9382 797.5,-94.6944 797.5,-85.7046"/>
<polygon fill="#191970" stroke="#191970" points="801.0001,-85.6426 797.5,-75.6427 794.0001,-85.6427 801.0001,-85.6426"/>
</g>
<!-- Node48&#45;&gt;Node24 -->
<g id="edge68" class="edge">
<title>Node48&#45;&gt;Node24</title>
<path fill="none" stroke="#191970" d="M2392.7016,-280.1318C2379.4544,-266.7994 2360.1833,-242.5665 2372.5,-224 2380.3625,-212.1479 2411.6185,-199.6568 2438.6558,-190.6868"/>
<polygon fill="#191970" stroke="#191970" points="2439.9339,-193.9522 2448.3749,-187.5491 2437.7833,-187.2907 2439.9339,-193.9522"/>
</g>
<!-- Node48&#45;&gt;Node37 -->
<g id="edge67" class="edge">
<title>Node48&#45;&gt;Node37</title>
<path fill="none" stroke="#191970" d="M2380.738,-287.0287C2310.4816,-277.8577 2096.6148,-249.9404 2010.7476,-238.7316"/>
<polygon fill="#191970" stroke="#191970" points="2011.06,-235.2428 2000.691,-237.4189 2010.1538,-242.1839 2011.06,-235.2428"/>
</g>
<!-- Node49 -->
<g id="node49" class="node">
<title>Node49</title>
<g id="a_node49"><a xlink:title=" ">
<polygon fill="#ffffff" stroke="#bfbfbf" points="2381,-224.5 2381,-243.5 2468,-243.5 2468,-224.5 2381,-224.5"/>
<text text-anchor="middle" x="2424.5" y="-231.5" font-family="Helvetica,sans-Serif" font-size="10.00" fill="#000000">QGraphicsView</text>
</a>
</g>
</g>
<!-- Node48&#45;&gt;Node49 -->
<g id="edge66" class="edge">
<title>Node48&#45;&gt;Node49</title>
<path fill="none" stroke="#191970" d="M2407.1579,-280.2455C2409.9584,-272.7776 2413.909,-262.2427 2417.3324,-253.1137"/>
<polygon fill="#191970" stroke="#191970" points="2420.6499,-254.2349 2420.884,-243.6427 2414.0955,-251.777 2420.6499,-254.2349"/>
</g>
<!-- Node48&#45;&gt;Node50 -->
<g id="edge69" class="edge">
<title>Node48&#45;&gt;Node50</title>
<path fill="none" stroke="#191970" d="M2426.2713,-286.5812C2485.959,-277.6201 2647.9131,-253.3053 2728.963,-241.1369"/>
<polygon fill="#191970" stroke="#191970" points="2729.5347,-244.5904 2738.9042,-239.6444 2728.4954,-237.668 2729.5347,-244.5904"/>
</g>
<!-- Node50&#45;&gt;Node9 -->
<g id="edge70" class="edge">
<title>Node50&#45;&gt;Node9</title>
<path fill="none" stroke="#191970" d="M2775.4737,-224.1762C2772.4522,-200.6229 2761.3414,-140.7623 2724.5,-112 2686.1234,-82.0392 2543.2209,-71.1565 2473.8154,-67.5788"/>
<polygon fill="#191970" stroke="#191970" points="2473.8913,-64.0784 2463.7318,-67.084 2473.5482,-71.07 2473.8913,-64.0784"/>
</g>
<!-- Node50&#45;&gt;Node10 -->
<g id="edge73" class="edge">
<title>Node50&#45;&gt;Node10</title>
<path fill="none" stroke="#191970" d="M2795.9254,-224.3733C2813.9021,-215.4644 2840.8441,-202.1127 2861.209,-192.0203"/>
<polygon fill="#191970" stroke="#191970" points="2862.9222,-195.0776 2870.3281,-187.5011 2859.8139,-188.8055 2862.9222,-195.0776"/>
</g>
<!-- Node50&#45;&gt;Node25 -->
<g id="edge71" class="edge">
<title>Node50&#45;&gt;Node25</title>
<path fill="none" stroke="#191970" d="M2785.6055,-224.1222C2798.1061,-210.7789 2821.5385,-186.5337 2843.5,-168 2864.4269,-150.3395 2877.7339,-154.3888 2893.5,-132 2903.1424,-118.3072 2907.9235,-99.7726 2910.2751,-85.8308"/>
<polygon fill="#191970" stroke="#191970" points="2913.7568,-86.2052 2911.6866,-75.8146 2906.8253,-85.2283 2913.7568,-86.2052"/>
</g>
<!-- Node51 -->
<g id="node51" class="node">
<title>Node51</title>
<g id="a_node51"><a xlink:title=" ">
<polygon fill="#ffffff" stroke="#bfbfbf" points="2536.5,-168.5 2536.5,-187.5 2606.5,-187.5 2606.5,-168.5 2536.5,-168.5"/>
<text text-anchor="middle" x="2571.5" y="-175.5" font-family="Helvetica,sans-Serif" font-size="10.00" fill="#000000">QGroupBox</text>
</a>
</g>
</g>
<!-- Node50&#45;&gt;Node51 -->
<g id="edge72" class="edge">
<title>Node50&#45;&gt;Node51</title>
<path fill="none" stroke="#191970" d="M2741.2592,-224.3733C2706.5806,-214.9001 2653.5117,-200.4032 2615.9538,-190.1435"/>
<polygon fill="#191970" stroke="#191970" points="2616.8498,-186.7601 2606.2809,-187.5011 2615.0051,-193.5126 2616.8498,-186.7601"/>
</g>
<!-- Node52&#45;&gt;Node9 -->
<g id="edge75" class="edge">
<title>Node52&#45;&gt;Node9</title>
<path fill="none" stroke="#191970" d="M1350.9584,-226.4634C1406.4942,-216.0863 1499.5957,-197.5953 1512.5,-188 1543.6434,-164.8426 1522.4968,-132.4196 1555.5,-112 1591.7416,-89.5767 2231.7753,-71.3337 2396.8919,-66.9859"/>
<polygon fill="#191970" stroke="#191970" points="2397.1646,-70.48 2407.0696,-66.7197 2396.9815,-63.4824 2397.1646,-70.48"/>
</g>
<!-- Node52&#45;&gt;Node16 -->
<g id="edge79" class="edge">
<title>Node52&#45;&gt;Node16</title>
<path fill="none" stroke="#191970" d="M1350.5494,-225.686C1422.5124,-211.4494 1576.2757,-182.5361 1707.5,-168 1995.2197,-136.1284 2342.5956,-125.8412 2471.8127,-122.9774"/>
<polygon fill="#191970" stroke="#191970" points="2472.2652,-126.4686 2482.1872,-122.7532 2472.1138,-119.4702 2472.2652,-126.4686"/>
</g>
<!-- Node52&#45;&gt;Node17 -->
<g id="edge80" class="edge">
<title>Node52&#45;&gt;Node17</title>
<path fill="none" stroke="#191970" d="M1268.3947,-231.2173C1172.9636,-224.6574 929.0083,-207.3159 725.5,-188 713.3951,-186.8511 700.3894,-185.4836 688.1322,-184.1345"/>
<polygon fill="#191970" stroke="#191970" points="688.3746,-180.6399 678.0484,-183.0108 687.5992,-187.5968 688.3746,-180.6399"/>
</g>
<!-- Node52&#45;&gt;Node19 -->
<g id="edge78" class="edge">
<title>Node52&#45;&gt;Node19</title>
<path fill="none" stroke="#191970" d="M1268.3724,-226.4176C1263.6962,-225.5866 1258.9968,-224.7653 1254.5,-224 1153.7981,-206.8624 1117.7758,-235.8 1027.5,-188 1006.3294,-176.7904 988.3955,-155.5425 977.3456,-140.1776"/>
<polygon fill="#191970" stroke="#191970" points="979.9378,-137.77 971.3877,-131.5133 974.1698,-141.7363 979.9378,-137.77"/>
</g>
<!-- Node52&#45;&gt;Node24 -->
<g id="edge82" class="edge">
<title>Node52&#45;&gt;Node24</title>
<path fill="none" stroke="#191970" d="M1350.6719,-226.9198C1358.5609,-225.7749 1366.7703,-224.7281 1374.5,-224 1827.4433,-181.3374 1943.8941,-222.9207 2397.5,-188 2409.6262,-187.0665 2422.6972,-185.6905 2434.8327,-184.256"/>
<polygon fill="#191970" stroke="#191970" points="2435.262,-187.7296 2444.7652,-183.0456 2434.4153,-180.781 2435.262,-187.7296"/>
</g>
<!-- Node52&#45;&gt;Node31 -->
<g id="edge84" class="edge">
<title>Node52&#45;&gt;Node31</title>
<path fill="none" stroke="#191970" d="M1297.5876,-224.4075C1283.4412,-211.778 1262.8971,-188.7417 1272.5,-168 1288.6623,-133.0904 1305.801,-132.2652 1338.5,-112 1362.1982,-97.313 1391.4086,-85.1026 1413.3188,-76.9616"/>
<polygon fill="#191970" stroke="#191970" points="1414.6186,-80.2134 1422.8258,-73.5132 1412.2317,-73.6329 1414.6186,-80.2134"/>
</g>
<!-- Node52&#45;&gt;Node35 -->
<g id="edge77" class="edge">
<title>Node52&#45;&gt;Node35</title>
<path fill="none" stroke="#191970" d="M1268.4112,-230.2724C1187.3038,-222.8398 1000.9154,-205.3894 844.5,-188 830.9434,-186.4929 816.1286,-184.7052 802.9189,-183.061"/>
<polygon fill="#191970" stroke="#191970" points="803.0818,-179.5541 792.7238,-181.7813 802.21,-186.4996 803.0818,-179.5541"/>
</g>
<!-- Node52&#45;&gt;Node42 -->
<g id="edge83" class="edge">
<title>Node52&#45;&gt;Node42</title>
<path fill="none" stroke="#191970" d="M1268.3992,-226.2508C1263.7181,-225.4504 1259.0102,-224.6818 1254.5,-224 1122.5914,-204.0588 1087.8235,-211.4878 956.5,-188 955.2549,-187.7773 953.9914,-187.5405 952.7175,-187.2925"/>
<polygon fill="#191970" stroke="#191970" points="953.3819,-183.8557 942.8749,-185.2171 951.9376,-190.7051 953.3819,-183.8557"/>
</g>
<!-- Node52&#45;&gt;Node46 -->
<g id="edge81" class="edge">
<title>Node52&#45;&gt;Node46</title>
<path fill="none" stroke="#191970" d="M1268.2977,-229.5579C1252.146,-227.8196 1233.4543,-225.8118 1216.5,-224 1065.8439,-207.9008 1017.183,-246.695 877.5,-188 851.4907,-177.0709 827.3505,-154.7955 812.5349,-139.1573"/>
<polygon fill="#191970" stroke="#191970" points="815.0155,-136.6838 805.6768,-131.6798 809.8567,-141.4153 815.0155,-136.6838"/>
</g>
<!-- Node53 -->
<g id="node53" class="node">
<title>Node53</title>
<g id="a_node53"><a xlink:title=" ">
<polygon fill="#ffffff" stroke="#bfbfbf" points="1347,-112.5 1347,-131.5 1386,-131.5 1386,-112.5 1347,-112.5"/>
<text text-anchor="middle" x="1366.5" y="-119.5" font-family="Helvetica,sans-Serif" font-size="10.00" fill="#000000">QList</text>
</a>
</g>
</g>
<!-- Node52&#45;&gt;Node53 -->
<g id="edge76" class="edge">
<title>Node52&#45;&gt;Node53</title>
<path fill="none" stroke="#191970" d="M1299.457,-224.2281C1287.131,-211.0049 1269.1783,-186.8953 1280.5,-168 1286.9817,-157.1824 1315.0371,-143.3795 1337.3658,-133.7279"/>
<polygon fill="#191970" stroke="#191970" points="1338.9626,-136.8529 1346.8138,-129.7389 1336.2399,-130.4041 1338.9626,-136.8529"/>
</g>
<!-- Node54 -->
<g id="node54" class="node">
<title>Node54</title>
<g id="a_node54"><a xlink:href="animationmovement_8h.html" target="_top" xlink:title=" ">
<polygon fill="#ffffff" stroke="#000000" points="1388,-168.5 1388,-187.5 1503,-187.5 1503,-168.5 1388,-168.5"/>
<text text-anchor="middle" x="1445.5" y="-175.5" font-family="Helvetica,sans-Serif" font-size="10.00" fill="#000000">animationmovement.h</text>
</a>
</g>
</g>
<!-- Node52&#45;&gt;Node54 -->
<g id="edge85" class="edge">
<title>Node52&#45;&gt;Node54</title>
<path fill="none" stroke="#191970" d="M1332.8792,-224.3733C1355.0045,-215.2629 1388.4134,-201.5062 1413.1019,-191.3404"/>
<polygon fill="#191970" stroke="#191970" points="1414.5117,-194.5451 1422.4258,-187.5011 1411.8464,-188.0723 1414.5117,-194.5451"/>
</g>
<!-- Node56 -->
<g id="node56" class="node">
<title>Node56</title>
<g id="a_node56"><a xlink:href="sprite_8h.html" target="_top" xlink:title=" ">
<polygon fill="#ffffff" stroke="#000000" points="1146.5,-168.5 1146.5,-187.5 1194.5,-187.5 1194.5,-168.5 1146.5,-168.5"/>
<text text-anchor="middle" x="1170.5" y="-175.5" font-family="Helvetica,sans-Serif" font-size="10.00" fill="#000000">sprite.h</text>
</a>
</g>
</g>
<!-- Node52&#45;&gt;Node56 -->
<g id="edge94" class="edge">
<title>Node52&#45;&gt;Node56</title>
<path fill="none" stroke="#191970" d="M1285.605,-224.3733C1262.9918,-215.2629 1228.8458,-201.5062 1203.6127,-191.3404"/>
<polygon fill="#191970" stroke="#191970" points="1204.6666,-187.9917 1194.0831,-187.5011 1202.0507,-194.4845 1204.6666,-187.9917"/>
</g>
<!-- Node57 -->
<g id="node57" class="node">
<title>Node57</title>
<g id="a_node57"><a xlink:href="scaleanimation_8h.html" target="_top" xlink:title=" ">
<polygon fill="#ffffff" stroke="#000000" points="1036.5,-168.5 1036.5,-187.5 1128.5,-187.5 1128.5,-168.5 1036.5,-168.5"/>
<text text-anchor="middle" x="1082.5" y="-175.5" font-family="Helvetica,sans-Serif" font-size="10.00" fill="#000000">scaleanimation.h</text>
</a>
</g>
</g>
<!-- Node52&#45;&gt;Node57 -->
<g id="edge97" class="edge">
<title>Node52&#45;&gt;Node57</title>
<path fill="none" stroke="#191970" d="M1270.7352,-224.4369C1232.1308,-214.9133 1172.7616,-200.2672 1131.0428,-189.9753"/>
<polygon fill="#191970" stroke="#191970" points="1131.6521,-186.5208 1121.1049,-187.5237 1129.9755,-193.317 1131.6521,-186.5208"/>
</g>
<!-- Node54&#45;&gt;Node26 -->
<g id="edge91" class="edge">
<title>Node54&#45;&gt;Node26</title>
<path fill="none" stroke="#191970" d="M1495.275,-168.4559C1536.7889,-160.2465 1597.6893,-147.628 1659.399,-132.1479"/>
<polygon fill="#191970" stroke="#191970" points="1660.4722,-135.4867 1669.3072,-129.6391 1658.7539,-128.7008 1660.4722,-135.4867"/>
</g>
<!-- Node54&#45;&gt;Node31 -->
<g id="edge86" class="edge">
<title>Node54&#45;&gt;Node31</title>
<path fill="none" stroke="#191970" d="M1445.5,-168.4509C1445.5,-150.184 1445.5,-109.9553 1445.5,-85.6976"/>
<polygon fill="#191970" stroke="#191970" points="1449.0001,-85.5249 1445.5,-75.5249 1442.0001,-85.5249 1449.0001,-85.5249"/>
</g>
<!-- Node54&#45;&gt;Node34 -->
<g id="edge92" class="edge">
<title>Node54&#45;&gt;Node34</title>
<path fill="none" stroke="#191970" d="M1476.2712,-168.3733C1507.3427,-158.6526 1555.3219,-143.6423 1588.2262,-133.3482"/>
<polygon fill="#191970" stroke="#191970" points="1589.4197,-136.6422 1597.9185,-130.316 1587.3296,-129.9615 1589.4197,-136.6422"/>
</g>
<!-- Node54&#45;&gt;Node43 -->
<g id="edge93" class="edge">
<title>Node54&#45;&gt;Node43</title>
<path fill="none" stroke="#191970" d="M1387.7397,-169.0647C1323.7544,-159.1664 1220.6382,-143.2148 1152.4675,-132.669"/>
<polygon fill="#191970" stroke="#191970" points="1152.6727,-129.1592 1142.2552,-131.0892 1151.6025,-136.0769 1152.6727,-129.1592"/>
</g>
<!-- Node54&#45;&gt;Node53 -->
<g id="edge90" class="edge">
<title>Node54&#45;&gt;Node53</title>
<path fill="none" stroke="#191970" d="M1431.7393,-168.2455C1419.8448,-159.814 1402.435,-147.4729 1388.5915,-137.6598"/>
<polygon fill="#191970" stroke="#191970" points="1390.2854,-134.5704 1380.1031,-131.6427 1386.2372,-140.2811 1390.2854,-134.5704"/>
</g>
<!-- Node55 -->
<g id="node55" class="node">
<title>Node55</title>
<g id="a_node55"><a xlink:href="animationentity_8h.html" target="_top" xlink:title=" ">
<polygon fill="#ffffff" stroke="#000000" points="1199,-112.5 1199,-131.5 1290,-131.5 1290,-112.5 1199,-112.5"/>
<text text-anchor="middle" x="1244.5" y="-119.5" font-family="Helvetica,sans-Serif" font-size="10.00" fill="#000000">animationentity.h</text>
</a>
</g>
</g>
<!-- Node54&#45;&gt;Node55 -->
<g id="edge87" class="edge">
<title>Node54&#45;&gt;Node55</title>
<path fill="none" stroke="#191970" d="M1410.9469,-168.3733C1377.0896,-158.9404 1325.354,-144.5265 1288.5574,-134.2747"/>
<polygon fill="#191970" stroke="#191970" points="1289.1747,-130.8135 1278.6022,-131.5011 1287.296,-137.5566 1289.1747,-130.8135"/>
</g>
<!-- Node55&#45;&gt;Node15 -->
<g id="edge88" class="edge">
<title>Node55&#45;&gt;Node15</title>
<path fill="none" stroke="#191970" d="M1212.1816,-112.3733C1179.0251,-102.4968 1127.537,-87.16 1092.9488,-76.8571"/>
<polygon fill="#191970" stroke="#191970" points="1093.8169,-73.4638 1083.2338,-73.9633 1091.8185,-80.1725 1093.8169,-73.4638"/>
</g>
<!-- Node55&#45;&gt;Node31 -->
<g id="edge89" class="edge">
<title>Node55&#45;&gt;Node31</title>
<path fill="none" stroke="#191970" d="M1279.0531,-112.3733C1316.7066,-101.8827 1376.472,-85.2317 1413.21,-74.9962"/>
<polygon fill="#191970" stroke="#191970" points="1414.2301,-78.3454 1422.9239,-72.2899 1412.3514,-71.6022 1414.2301,-78.3454"/>
</g>
<!-- Node56&#45;&gt;Node15 -->
<g id="edge95" class="edge">
<title>Node56&#45;&gt;Node15</title>
<path fill="none" stroke="#191970" d="M1170.1267,-168.3431C1169.1036,-154.3755 1165.3279,-128.4144 1151.5,-112 1136.4511,-94.1362 1112.8364,-82.6575 1092.9167,-75.6342"/>
<polygon fill="#191970" stroke="#191970" points="1093.7887,-72.2368 1083.1959,-72.4466 1091.6075,-78.8883 1093.7887,-72.2368"/>
</g>
<!-- Node56&#45;&gt;Node53 -->
<g id="edge96" class="edge">
<title>Node56&#45;&gt;Node53</title>
<path fill="none" stroke="#191970" d="M1194.5334,-171.1333C1230.5667,-160.8381 1298.496,-141.4297 1337.3222,-130.3365"/>
<polygon fill="#191970" stroke="#191970" points="1338.3365,-133.6868 1346.9902,-127.5742 1336.4134,-126.9562 1338.3365,-133.6868"/>
</g>
<!-- Node57&#45;&gt;Node55 -->
<g id="edge98" class="edge">
<title>Node57&#45;&gt;Node55</title>
<path fill="none" stroke="#191970" d="M1110.3488,-168.3733C1137.1703,-159.1016 1177.9127,-145.0178 1207.4598,-134.804"/>
<polygon fill="#191970" stroke="#191970" points="1208.7069,-138.0762 1217.0146,-131.5011 1206.4198,-131.4603 1208.7069,-138.0762"/>
</g>
<!-- Node58&#45;&gt;Node8 -->
<g id="edge100" class="edge">
<title>Node58&#45;&gt;Node8</title>
<path fill="none" stroke="#191970" d="M988.2927,-280.3733C966.3301,-271.2629 933.1668,-257.5062 908.6599,-247.3404"/>
<polygon fill="#191970" stroke="#191970" points="909.9824,-244.0999 899.4045,-243.5011 907.3003,-250.5657 909.9824,-244.0999"/>
</g>
<!-- Node58&#45;&gt;Node46 -->
<g id="edge103" class="edge">
<title>Node58&#45;&gt;Node46</title>
<path fill="none" stroke="#191970" d="M1001.9495,-280.1163C987.0784,-265.3669 956.8275,-237.8524 925.5,-224 842.8976,-187.4749 783.4317,-257.2904 725.5,-188 708.9352,-168.1873 737.5615,-148.5896 763.4724,-135.9631"/>
<polygon fill="#191970" stroke="#191970" points="765.2042,-139.0182 772.8068,-131.6392 762.2619,-132.6666 765.2042,-139.0182"/>
</g>
<!-- Node59 -->
<g id="node59" class="node">
<title>Node59</title>
<g id="a_node59"><a xlink:title=" ">
<polygon fill="#ffffff" stroke="#bfbfbf" points="973,-224.5 973,-243.5 1044,-243.5 1044,-224.5 973,-224.5"/>
<text text-anchor="middle" x="1008.5" y="-231.5" font-family="Helvetica,sans-Serif" font-size="10.00" fill="#000000">QListWidget</text>
</a>
</g>
</g>
<!-- Node58&#45;&gt;Node59 -->
<g id="edge101" class="edge">
<title>Node58&#45;&gt;Node59</title>
<path fill="none" stroke="#191970" d="M1010.9774,-280.2455C1010.586,-272.9382 1010.0372,-262.6944 1009.5556,-253.7046"/>
<polygon fill="#191970" stroke="#191970" points="1013.0466,-253.4411 1009.0166,-243.6427 1006.0566,-253.8156 1013.0466,-253.4411"/>
</g>
<!-- Node60 -->
<g id="node60" class="node">
<title>Node60</title>
<g id="a_node60"><a xlink:title=" ">
<polygon fill="#ffffff" stroke="#bfbfbf" points="1062.5,-224.5 1062.5,-243.5 1136.5,-243.5 1136.5,-224.5 1062.5,-224.5"/>
<text text-anchor="middle" x="1099.5" y="-231.5" font-family="Helvetica,sans-Serif" font-size="10.00" fill="#000000">QPushButton</text>
</a>
</g>
</g>
<!-- Node58&#45;&gt;Node60 -->
<g id="edge102" class="edge">
<title>Node58&#45;&gt;Node60</title>
<path fill="none" stroke="#191970" d="M1026.8284,-280.2455C1040.3303,-271.6534 1060.2122,-259.0014 1075.7686,-249.1018"/>
<polygon fill="#191970" stroke="#191970" points="1077.7897,-251.9643 1084.3472,-243.6427 1074.0315,-246.0587 1077.7897,-251.9643"/>
</g>
<!-- Node61&#45;&gt;Node11 -->
<g id="edge107" class="edge">
<title>Node61&#45;&gt;Node11</title>
<path fill="none" stroke="#191970" d="M2032.9438,-456.9177C1903.7401,-452.3846 1414.0091,-434.1855 1237.4886,-411.8895"/>
<polygon fill="#191970" stroke="#191970" points="1237.9381,-408.4185 1227.5674,-410.5864 1237.0264,-415.3589 1237.9381,-408.4185"/>
</g>
<!-- Node61&#45;&gt;Node12 -->
<g id="edge106" class="edge">
<title>Node61&#45;&gt;Node12</title>
<path fill="none" stroke="#191970" d="M2032.9043,-456.7058C1909.8154,-451.5615 1462.2681,-431.8733 1321.5,-412 1320.2519,-411.8238 1318.987,-411.6314 1317.7122,-411.4255"/>
<polygon fill="#191970" stroke="#191970" points="1318.3224,-407.9792 1307.8564,-409.6266 1317.0654,-414.8654 1318.3224,-407.9792"/>
</g>
<!-- Node61&#45;&gt;Node16 -->
<g id="edge108" class="edge">
<title>Node61&#45;&gt;Node16</title>
<path fill="none" stroke="#191970" d="M2096.1018,-454.9322C2197.1563,-443.1563 2511.862,-390.7494 2615.5,-188 2628.1602,-163.2325 2598.7156,-145.6803 2569.845,-134.9342"/>
<polygon fill="#191970" stroke="#191970" points="2570.7325,-131.5371 2560.1377,-131.5502 2568.4282,-138.147 2570.7325,-131.5371"/>
</g>
<!-- Node61&#45;&gt;Node24 -->
<g id="edge110" class="edge">
<title>Node61&#45;&gt;Node24</title>
<path fill="none" stroke="#191970" d="M2096.0829,-451.1296C2164.4805,-434.9508 2328.7303,-388.9464 2435.5,-300 2459.4033,-280.0869 2466.7732,-273.2034 2477.5,-244 2482.9422,-229.1838 2483.6923,-211.2433 2483.2205,-197.809"/>
<polygon fill="#191970" stroke="#191970" points="2486.7097,-197.5223 2482.6131,-187.7515 2479.7224,-197.9444 2486.7097,-197.5223"/>
</g>
<!-- Node61&#45;&gt;Node30 -->
<g id="edge125" class="edge">
<title>Node61&#45;&gt;Node30</title>
<path fill="none" stroke="#191970" d="M2096.0061,-456.2533C2217.5978,-449.0946 2655.5746,-419.333 2777.5,-356 2868.4607,-308.7514 2897.7314,-283.288 2935.5,-188 2938.7753,-179.7365 2940.0687,-175.6249 2935.5,-168 2926.2608,-152.5802 2909.8944,-142.0387 2893.9012,-134.9812"/>
<polygon fill="#191970" stroke="#191970" points="2895.1675,-131.718 2884.5845,-131.2179 2892.5458,-138.2085 2895.1675,-131.718"/>
</g>
<!-- Node61&#45;&gt;Node37 -->
<g id="edge109" class="edge">
<title>Node61&#45;&gt;Node37</title>
<path fill="none" stroke="#191970" d="M2060.6328,-448.375C2046.9298,-414.2697 2000.5261,-298.7761 1982.1165,-252.9567"/>
<polygon fill="#191970" stroke="#191970" points="1985.3287,-251.5633 1978.3528,-243.5891 1978.8334,-254.1731 1985.3287,-251.5633"/>
</g>
<!-- Node61&#45;&gt;Node48 -->
<g id="edge111" class="edge">
<title>Node61&#45;&gt;Node48</title>
<path fill="none" stroke="#191970" d="M2089.7328,-448.4982C2112.6463,-439.6674 2147.2314,-425.8303 2176.5,-412 2251.3698,-376.6218 2336.6339,-328.6296 2378.128,-304.755"/>
<polygon fill="#191970" stroke="#191970" points="2380.0914,-307.6629 2387.0022,-299.6322 2376.5918,-301.6005 2380.0914,-307.6629"/>
</g>
<!-- Node61&#45;&gt;Node52 -->
<g id="edge123" class="edge">
<title>Node61&#45;&gt;Node52</title>
<path fill="none" stroke="#191970" d="M2032.8051,-456.5767C1932.2529,-451.862 1621.2955,-435.6955 1523.5,-412 1491.7351,-404.3035 1415.283,-373.2148 1387.5,-356 1355.3715,-336.0927 1342.6233,-332.6013 1323.5,-300 1315.2585,-285.95 1311.8397,-267.689 1310.4359,-253.9378"/>
<polygon fill="#191970" stroke="#191970" points="1313.902,-253.3514 1309.6691,-243.6389 1306.9214,-253.8712 1313.902,-253.3514"/>
</g>
<!-- Node61&#45;&gt;Node58 -->
<g id="edge124" class="edge">
<title>Node61&#45;&gt;Node58</title>
<path fill="none" stroke="#191970" d="M2032.9204,-457.6526C1912.9743,-456.0709 1485.847,-447.9792 1355.5,-412 1336.7226,-406.8169 1334.6936,-398.9607 1316.5,-392 1257.7005,-369.5039 1239.3457,-375.5436 1179.5,-356 1130.9692,-340.1514 1076.1678,-317.7447 1042.732,-303.5457"/>
<polygon fill="#191970" stroke="#191970" points="1044.0527,-300.3039 1033.4816,-299.595 1041.3033,-306.7414 1044.0527,-300.3039"/>
</g>
<!-- Node61&#45;&gt;Node62 -->
<g id="edge112" class="edge">
<title>Node61&#45;&gt;Node62</title>
<path fill="none" stroke="#191970" d="M2032.7871,-456.6614C1943.1286,-452.6425 1680.2422,-439.2415 1463.5,-412 1462.0359,-411.816 1460.5521,-411.6202 1459.0558,-411.4145"/>
<polygon fill="#191970" stroke="#191970" points="1459.4784,-407.939 1449.0733,-409.9351 1458.4521,-414.8633 1459.4784,-407.939"/>
</g>
<!-- Node62&#45;&gt;Node8 -->
<g id="edge113" class="edge">
<title>Node62&#45;&gt;Node8</title>
<path fill="none" stroke="#191970" d="M1363.9401,-395.1811C1265.8436,-379.0212 1026.7361,-336.9752 954.5,-300 930.2516,-287.5881 907.0279,-266.3185 892.3247,-251.2839"/>
<polygon fill="#191970" stroke="#191970" points="894.5088,-248.5016 885.0805,-243.6686 889.437,-253.3263 894.5088,-248.5016"/>
</g>
<!-- Node62&#45;&gt;Node32 -->
<g id="edge122" class="edge">
<title>Node62&#45;&gt;Node32</title>
<path fill="none" stroke="#191970" d="M1438.6464,-392.3733C1472.5771,-382.2122 1525.8078,-366.2715 1560.1768,-355.9791"/>
<polygon fill="#191970" stroke="#191970" points="1561.1911,-359.329 1569.7667,-353.1073 1559.1829,-352.6233 1561.1911,-359.329"/>
</g>
<!-- Node62&#45;&gt;Node46 -->
<g id="edge119" class="edge">
<title>Node62&#45;&gt;Node46</title>
<path fill="none" stroke="#191970" d="M1363.9149,-396.8148C1298.9984,-388.7918 1171.4357,-372.5594 1063.5,-356 840.0913,-321.7249 686.6804,-389.0971 583.5,-188 579.4422,-180.0914 577.914,-174.9144 583.5,-168 602.3567,-144.6593 679.3842,-132.6105 735.6381,-126.8043"/>
<polygon fill="#191970" stroke="#191970" points="736.2745,-130.2585 745.8815,-125.7914 735.5856,-123.2925 736.2745,-130.2585"/>
</g>
<!-- Node62&#45;&gt;Node59 -->
<g id="edge114" class="edge">
<title>Node62&#45;&gt;Node59</title>
<path fill="none" stroke="#191970" d="M1363.8223,-394.1459C1327.1503,-386.6545 1273.2651,-373.8595 1228.5,-356 1152.6404,-325.735 1070.2131,-274.5844 1031.2945,-249.2123"/>
<polygon fill="#191970" stroke="#191970" points="1033.0785,-246.1966 1022.799,-243.6312 1029.2351,-252.0471 1033.0785,-246.1966"/>
</g>
<!-- Node62&#45;&gt;Node60 -->
<g id="edge115" class="edge">
<title>Node62&#45;&gt;Node60</title>
<path fill="none" stroke="#191970" d="M1365.3369,-392.4282C1336.2196,-384.7691 1296.7773,-372.5647 1264.5,-356 1227.1716,-336.8431 1222.2397,-324.9405 1188.5,-300 1165.2362,-282.8033 1138.5906,-263.034 1120.5652,-249.6495"/>
<polygon fill="#191970" stroke="#191970" points="1122.5764,-246.7835 1112.4614,-243.6311 1118.4028,-252.4033 1122.5764,-246.7835"/>
</g>
<!-- Node63 -->
<g id="node63" class="node">
<title>Node63</title>
<g id="a_node63"><a xlink:href="trainrenderer_8h.html" target="_top" xlink:title=" ">
<polygon fill="#ffffff" stroke="#000000" points="1289,-168.5 1289,-187.5 1370,-187.5 1370,-168.5 1289,-168.5"/>
<text text-anchor="middle" x="1329.5" y="-175.5" font-family="Helvetica,sans-Serif" font-size="10.00" fill="#000000">trainrenderer.h</text>
</a>
</g>
</g>
<!-- Node62&#45;&gt;Node63 -->
<g id="edge116" class="edge">
<title>Node62&#45;&gt;Node63</title>
<path fill="none" stroke="#191970" d="M1415.9777,-392.236C1442.3632,-363.8585 1512.1332,-279.8749 1471.5,-224 1465.6164,-215.9094 1415.1672,-200.843 1376.0552,-190.1597"/>
<polygon fill="#191970" stroke="#191970" points="1376.9568,-186.7778 1366.3898,-187.5449 1375.1288,-193.5349 1376.9568,-186.7778"/>
</g>
<!-- Node64 -->
<g id="node64" class="node">
<title>Node64</title>
<g id="a_node64"><a xlink:href="goodselector_8h.html" target="_top" xlink:title=" ">
<polygon fill="#ffffff" stroke="#000000" points="1690.5,-336.5 1690.5,-355.5 1774.5,-355.5 1774.5,-336.5 1690.5,-336.5"/>
<text text-anchor="middle" x="1732.5" y="-343.5" font-family="Helvetica,sans-Serif" font-size="10.00" fill="#000000">goodselector.h</text>
</a>
</g>
</g>
<!-- Node62&#45;&gt;Node64 -->
<g id="edge120" class="edge">
<title>Node62&#45;&gt;Node64</title>
<path fill="none" stroke="#191970" d="M1449.1188,-394.679C1508.5876,-384.4635 1616.358,-365.9508 1680.4843,-354.9352"/>
<polygon fill="#191970" stroke="#191970" points="1681.1243,-358.3766 1690.3873,-353.2341 1679.9391,-351.4777 1681.1243,-358.3766"/>
</g>
<!-- Node63&#45;&gt;Node9 -->
<g id="edge117" class="edge">
<title>Node63&#45;&gt;Node9</title>
<path fill="none" stroke="#191970" d="M1350.3706,-168.4306C1384.4881,-153.3052 1454.7038,-124.3275 1517.5,-112 1690.1042,-78.1161 2246.2241,-68.4776 2397.3119,-66.4544"/>
<polygon fill="#191970" stroke="#191970" points="2397.526,-69.952 2407.4794,-66.3217 2397.4345,-62.9526 2397.526,-69.952"/>
</g>
<!-- Node63&#45;&gt;Node46 -->
<g id="edge118" class="edge">
<title>Node63&#45;&gt;Node46</title>
<path fill="none" stroke="#191970" d="M1288.9315,-174.4043C1193.8016,-165.9168 957.5541,-144.5008 859.0998,-132.1214"/>
<polygon fill="#191970" stroke="#191970" points="859.5427,-128.6496 849.1772,-130.842 858.6475,-135.5921 859.5427,-128.6496"/>
</g>
<!-- Node64&#45;&gt;Node9 -->
<g id="edge121" class="edge">
<title>Node64&#45;&gt;Node9</title>
<path fill="none" stroke="#191970" d="M1738.5354,-336.3733C1762.3195,-299.4019 1853.8967,-165.9059 1968.5,-112 2044.3412,-76.3266 2299.9397,-68.2816 2397.3544,-66.4978"/>
<polygon fill="#191970" stroke="#191970" points="2397.418,-69.9974 2407.3566,-66.3267 2397.2982,-62.9984 2397.418,-69.9974"/>
</g>
<!-- Node65&#45;&gt;Node9 -->
<g id="edge127" class="edge">
<title>Node65&#45;&gt;Node9</title>
<path fill="none" stroke="#191970" d="M2730.9587,-336.2625C2724.2827,-317.0058 2710.5,-272.5786 2710.5,-234 2710.5,-234 2710.5,-234 2710.5,-178 2710.5,-127.4725 2549.2511,-88.6547 2473.7031,-73.2407"/>
<polygon fill="#191970" stroke="#191970" points="2474.1305,-69.7568 2463.6375,-71.2222 2472.7541,-76.6201 2474.1305,-69.7568"/>
</g>
<!-- Node65&#45;&gt;Node10 -->
<g id="edge128" class="edge">
<title>Node65&#45;&gt;Node10</title>
<path fill="none" stroke="#191970" d="M2743.2776,-336.4862C2768.4159,-309.2396 2840.9544,-230.6172 2873.4376,-195.4096"/>
<polygon fill="#191970" stroke="#191970" points="2876.224,-197.551 2880.4326,-187.8279 2871.0792,-192.8043 2876.224,-197.551"/>
</g>
<!-- Node65&#45;&gt;Node24 -->
<g id="edge130" class="edge">
<title>Node65&#45;&gt;Node24</title>
<path fill="none" stroke="#191970" d="M2720.9168,-336.2285C2691.5026,-315.1597 2619.5584,-264.1183 2557.5,-224 2540.7673,-213.1829 2521.5683,-201.5689 2506.6534,-192.717"/>
<polygon fill="#191970" stroke="#191970" points="2508.3709,-189.6665 2497.9808,-187.5941 2504.8108,-195.6936 2508.3709,-189.6665"/>
</g>
<!-- Node65&#45;&gt;Node25 -->
<g id="edge129" class="edge">
<title>Node65&#45;&gt;Node25</title>
<path fill="none" stroke="#191970" d="M2757.6915,-336.3895C2802.2688,-316.4562 2898.7496,-265.8735 2935.5,-188 2951.5889,-153.9078 2934.9576,-109.453 2922.8059,-84.7088"/>
<polygon fill="#191970" stroke="#191970" points="2925.8395,-82.9555 2918.1355,-75.6824 2919.6224,-86.1723 2925.8395,-82.9555"/>
</g>
<!-- Node66 -->
<g id="node66" class="node">
<title>Node66</title>
<g id="a_node66"><a xlink:href="minimap_8h.html" target="_top" xlink:title=" ">
<polygon fill="#ffffff" stroke="#000000" points="1884.5,-280.5 1884.5,-299.5 1946.5,-299.5 1946.5,-280.5 1884.5,-280.5"/>
<text text-anchor="middle" x="1915.5" y="-287.5" font-family="Helvetica,sans-Serif" font-size="10.00" fill="#000000">minimap.h</text>
</a>
</g>
</g>
<!-- Node65&#45;&gt;Node66 -->
<g id="edge131" class="edge">
<title>Node65&#45;&gt;Node66</title>
<path fill="none" stroke="#191970" d="M2700.3513,-343.665C2569.3648,-334.7087 2099.2748,-302.5658 1956.7506,-292.8206"/>
<polygon fill="#191970" stroke="#191970" points="1956.892,-289.3221 1946.6765,-292.1317 1956.4144,-296.3058 1956.892,-289.3221"/>
</g>
<!-- Node66&#45;&gt;Node9 -->
<g id="edge132" class="edge">
<title>Node66&#45;&gt;Node9</title>
<path fill="none" stroke="#191970" d="M1946.5109,-281.3242C1948.1973,-280.8717 1949.8686,-280.4277 1951.5,-280 2052.0164,-253.6469 2076.7076,-244.8884 2178.5,-224 2275.1262,-204.1717 2323.0752,-252.7358 2397.5,-188 2427.2313,-162.1392 2433.9988,-113.4315 2435.3558,-86.0315"/>
<polygon fill="#191970" stroke="#191970" points="2438.8634,-85.82 2435.6573,-75.7219 2431.8664,-85.6153 2438.8634,-85.82"/>
</g>
<!-- Node66&#45;&gt;Node31 -->
<g id="edge134" class="edge">
<title>Node66&#45;&gt;Node31</title>
<path fill="none" stroke="#191970" d="M1908.6819,-280.2153C1886.6804,-249.4904 1814.0063,-154.4641 1728.5,-112 1685.0023,-90.3981 1543.3858,-75.0011 1478.5066,-68.9009"/>
<polygon fill="#191970" stroke="#191970" points="1478.6942,-65.4034 1468.4147,-67.9691 1478.0505,-72.3738 1478.6942,-65.4034"/>
</g>
<!-- Node66&#45;&gt;Node52 -->
<g id="edge133" class="edge">
<title>Node66&#45;&gt;Node52</title>
<path fill="none" stroke="#191970" d="M1884.3208,-288.0918C1801.2576,-282.8478 1567.7816,-267.058 1374.5,-244 1370.0431,-243.4683 1365.4222,-242.8641 1360.7928,-242.2222"/>
<polygon fill="#191970" stroke="#191970" points="1361.1016,-238.7306 1350.705,-240.7701 1360.1043,-245.6592 1361.1016,-238.7306"/>
</g>
<!-- Node67&#45;&gt;Node24 -->
<g id="edge144" class="edge">
<title>Node67&#45;&gt;Node24</title>
<path fill="none" stroke="#191970" d="M1602.5558,-396.2428C1650.261,-388.2205 1738.1988,-372.7653 1812.5,-356 2051.5764,-302.0549 2334.2669,-221.1067 2439.3886,-190.4045"/>
<polygon fill="#191970" stroke="#191970" points="2440.3849,-193.7598 2448.9999,-187.5928 2438.4194,-187.0414 2440.3849,-193.7598"/>
</g>
<!-- Node67&#45;&gt;Node32 -->
<g id="edge145" class="edge">
<title>Node67&#45;&gt;Node32</title>
<path fill="none" stroke="#191970" d="M1572.0289,-392.2455C1575.5334,-384.6973 1580.4927,-374.0158 1584.7623,-364.8197"/>
<polygon fill="#191970" stroke="#191970" points="1587.9864,-366.1867 1589.023,-355.6427 1581.6373,-363.2389 1587.9864,-366.1867"/>
</g>
<!-- Node67&#45;&gt;Node35 -->
<g id="edge141" class="edge">
<title>Node67&#45;&gt;Node35</title>
<path fill="none" stroke="#191970" d="M1532.3467,-397.3308C1419.1549,-382.1115 1065.1156,-333.0201 954.5,-300 895.3893,-282.3547 878.1318,-279.24 827.5,-244 807.9725,-230.4088 789.4869,-210.2683 777.4506,-195.8135"/>
<polygon fill="#191970" stroke="#191970" points="779.8545,-193.221 770.838,-187.6575 774.4171,-197.6295 779.8545,-193.221"/>
</g>
<!-- Node67&#45;&gt;Node37 -->
<g id="edge143" class="edge">
<title>Node67&#45;&gt;Node37</title>
<path fill="none" stroke="#191970" d="M1602.8272,-399.6599C1647.0278,-395.5946 1724.1227,-384.6926 1783.5,-356 1831.2531,-332.9245 1830.6412,-308.2936 1875.5,-280 1895.7956,-267.199 1920.2312,-255.8085 1939.7476,-247.5643"/>
<polygon fill="#191970" stroke="#191970" points="1941.2726,-250.7212 1949.1745,-243.6636 1938.5961,-244.2531 1941.2726,-250.7212"/>
</g>
<!-- Node67&#45;&gt;Node52 -->
<g id="edge142" class="edge">
<title>Node67&#45;&gt;Node52</title>
<path fill="none" stroke="#191970" d="M1532.4764,-394.0026C1484.3031,-381.4159 1397.3442,-352.7974 1342.5,-300 1329.2619,-287.2559 1320.4985,-268.073 1315.3514,-253.6674"/>
<polygon fill="#191970" stroke="#191970" points="1318.5472,-252.1804 1312.106,-243.7684 1311.8956,-254.3611 1318.5472,-252.1804"/>
</g>
<!-- Node68&#45;&gt;Node35 -->
<g id="edge150" class="edge">
<title>Node68&#45;&gt;Node35</title>
<path fill="none" stroke="#191970" d="M787.2833,-280.4509C783.0235,-262.1013 773.6193,-221.5908 767.9965,-197.3693"/>
<polygon fill="#191970" stroke="#191970" points="771.3818,-196.4744 765.7111,-187.5249 764.5632,-198.0573 771.3818,-196.4744"/>
</g>
<!-- Node68&#45;&gt;Node52 -->
<g id="edge151" class="edge">
<title>Node68&#45;&gt;Node52</title>
<path fill="none" stroke="#191970" d="M830.7382,-285.559C924.7958,-275.4297 1154.9933,-250.6392 1258.0953,-239.5359"/>
<polygon fill="#191970" stroke="#191970" points="1258.6898,-242.9922 1268.2576,-238.4415 1257.9403,-236.0324 1258.6898,-242.9922"/>
</g>
<!-- Node69&#45;&gt;Node8 -->
<g id="edge156" class="edge">
<title>Node69&#45;&gt;Node8</title>
<path fill="none" stroke="#191970" d="M1382.3541,-286.1456C1302.6609,-278.4549 1118.8512,-260.5205 964.5,-244 952.3168,-242.696 939.1915,-241.2349 926.8913,-239.8408"/>
<polygon fill="#191970" stroke="#191970" points="927.1238,-236.3447 916.7919,-238.6904 926.3315,-243.2997 927.1238,-236.3447"/>
</g>
<!-- Node69&#45;&gt;Node9 -->
<g id="edge153" class="edge">
<title>Node69&#45;&gt;Node9</title>
<path fill="none" stroke="#191970" d="M1434.5413,-280.2623C1455.7066,-262.8667 1500.4649,-224.8157 1533.5,-188 1561.5213,-156.7718 1552.58,-131.9326 1589.5,-112 1625.4413,-92.5958 2236.0456,-72.2298 2396.9136,-67.1826"/>
<polygon fill="#191970" stroke="#191970" points="2397.3917,-70.6695 2407.2776,-66.8591 2397.1733,-63.6729 2397.3917,-70.6695"/>
</g>
<!-- Node69&#45;&gt;Node16 -->
<g id="edge157" class="edge">
<title>Node69&#45;&gt;Node16</title>
<path fill="none" stroke="#191970" d="M1454.5344,-280.4289C1534.1896,-257.0435 1747.9545,-196.8142 1930.5,-168 2129.2015,-136.6356 2368.8854,-126.3684 2472.1139,-123.2521"/>
<polygon fill="#191970" stroke="#191970" points="2472.366,-126.7464 2482.2595,-122.9558 2472.1616,-119.7494 2472.366,-126.7464"/>
</g>
<!-- Node69&#45;&gt;Node46 -->
<g id="edge158" class="edge">
<title>Node69&#45;&gt;Node46</title>
<path fill="none" stroke="#191970" d="M1388.2568,-280.4158C1326.1014,-263.067 1199.2029,-227.884 1178.5,-224 1104.6936,-210.1533 906.9259,-226.58 842.5,-188 824.7124,-177.3483 812.3534,-156.6289 805.1489,-141.2333"/>
<polygon fill="#191970" stroke="#191970" points="808.1685,-139.3987 800.9813,-131.6144 801.7455,-142.1817 808.1685,-139.3987"/>
</g>
<!-- Node69&#45;&gt;Node51 -->
<g id="edge154" class="edge">
<title>Node69&#45;&gt;Node51</title>
<path fill="none" stroke="#191970" d="M1462.7489,-286.7589C1487.2479,-284.7913 1519.1774,-282.2364 1547.5,-280 1980.3125,-245.8247 2094.293,-259.8899 2526.0938,-188.0902"/>
<polygon fill="#191970" stroke="#191970" points="2526.7408,-191.5307 2536.0284,-186.4325 2525.5887,-184.6261 2526.7408,-191.5307"/>
</g>
<!-- Node70 -->
<g id="node70" class="node">
<title>Node70</title>
<g id="a_node70"><a xlink:title=" ">
<polygon fill="#ffffff" stroke="#bfbfbf" points="1383,-224.5 1383,-243.5 1462,-243.5 1462,-224.5 1383,-224.5"/>
<text text-anchor="middle" x="1422.5" y="-231.5" font-family="Helvetica,sans-Serif" font-size="10.00" fill="#000000">QHBoxLayout</text>
</a>
</g>
</g>
<!-- Node69&#45;&gt;Node70 -->
<g id="edge155" class="edge">
<title>Node69&#45;&gt;Node70</title>
<path fill="none" stroke="#191970" d="M1422.5,-280.2455C1422.5,-272.9382 1422.5,-262.6944 1422.5,-253.7046"/>
<polygon fill="#191970" stroke="#191970" points="1426.0001,-253.6426 1422.5,-243.6427 1419.0001,-253.6427 1426.0001,-253.6426"/>
</g>
</g>
</svg>
