<?xml version="1.0" encoding="UTF-8" standalone="no"?>
<!DOCTYPE svg PUBLIC "-//W3C//DTD SVG 1.1//EN"
 "http://www.w3.org/Graphics/SVG/1.1/DTD/svg11.dtd">
<!-- Generated by graphviz version 2.40.1 (20161225.0304)
 -->
<!-- Title: src/application_server/main.h Pages: 1 -->
<!--zoomable 431 -->
<svg id="main" version="1.1" xmlns="http://www.w3.org/2000/svg" xmlns:xlink="http://www.w3.org/1999/xlink" xml:space="preserve" onload="init(evt)">
<style type="text/css"><![CDATA[
.edge:hover path { stroke: red; }
.edge:hover polygon { stroke: red; fill: red; }
]]></style>
<script type="text/javascript"><![CDATA[
var edges = document.getElementsByTagName('g');
if (edges && edges.length) {
  for (var i=0;i<edges.length;i++) {
    if (edges[i].id.substr(0,4)=='edge') {
      edges[i].setAttribute('class','edge');
    }
  }
}
]]></script>
        <defs>
                <circle id="rim" cx="0" cy="0" r="7"/>
                <circle id="rim2" cx="0" cy="0" r="3.5"/>
                <g id="zoomPlus">
                        <use xlink:href="#rim" fill="#404040">
                                <set attributeName="fill" to="#808080" begin="zoomplus.mouseover" end="zoomplus.mouseout"/>
                        </use>
                        <path d="M-4,0h8M0,-4v8" fill="none" stroke="white" stroke-width="1.5" pointer-events="none"/>
                </g>
                <g id="zoomMin">
                        <use xlink:href="#rim" fill="#404040">
                                <set attributeName="fill" to="#808080" begin="zoomminus.mouseover" end="zoomminus.mouseout"/>
                        </use>
                        <path d="M-4,0h8" fill="none" stroke="white" stroke-width="1.5" pointer-events="none"/>
                </g>
                <g id="dirArrow">
                        <path fill="none" stroke="white" stroke-width="1.5" d="M0,-3.0v7 M-2.5,-0.5L0,-3.0L2.5,-0.5"/>
                </g>
               <g id="resetDef">
                       <use xlink:href="#rim2" fill="#404040">
                               <set attributeName="fill" to="#808080" begin="reset.mouseover" end="reset.mouseout"/>
                       </use>
               </g>
        </defs>

<script type="text/javascript">
var viewWidth = 1741;
var viewHeight = 431;
var sectionId = 'dynsection-0';
</script>
<script xlink:href="svgpan.js"/>
<svg id="graph" class="graph">
<g id="viewport">
<title>src/application_server/main.h</title>
<polygon fill="#ffffff" stroke="transparent" points="-4,4 -4,-427 1736.8345,-427 1736.8345,4 -4,4"/>
<!-- Node1 -->
<g id="node1" class="node">
<title>Node1</title>
<g id="a_node1"><a xlink:title=" ">
<polygon fill="#bfbfbf" stroke="#000000" points="180,-392.5 180,-422.5 295,-422.5 295,-392.5 180,-392.5"/>
<text text-anchor="start" x="188" y="-410.5" font-family="Helvetica,sans-Serif" font-size="10.00" fill="#000000">src/application_server</text>
<text text-anchor="middle" x="237.5" y="-399.5" font-family="Helvetica,sans-Serif" font-size="10.00" fill="#000000">/main.h</text>
</a>
</g>
</g>
<!-- Node2 -->
<g id="node2" class="node">
<title>Node2</title>
<g id="a_node2"><a xlink:href="mainwindow_8h.html" target="_top" xlink:title=" ">
<polygon fill="#ffffff" stroke="#000000" points="91.5,-336.5 91.5,-355.5 171.5,-355.5 171.5,-336.5 91.5,-336.5"/>
<text text-anchor="middle" x="131.5" y="-343.5" font-family="Helvetica,sans-Serif" font-size="10.00" fill="#000000">mainwindow.h</text>
</a>
</g>
</g>
<!-- Node1&#45;&gt;Node2 -->
<g id="edge1" class="edge">
<title>Node1&#45;&gt;Node2</title>
<path fill="none" stroke="#191970" d="M211.5695,-392.4554C194.9691,-382.8241 173.5256,-370.3828 157.0083,-360.7996"/>
<polygon fill="#191970" stroke="#191970" points="158.3323,-357.5214 147.9262,-355.5303 154.8194,-363.5761 158.3323,-357.5214"/>
</g>
<!-- Node5 -->
<g id="node5" class="node">
<title>Node5</title>
<g id="a_node5"><a xlink:href="datamodel_8h.html" target="_top" xlink:title=" ">
<polygon fill="#ffffff" stroke="#000000" points="562,-168.5 562,-187.5 635,-187.5 635,-168.5 562,-168.5"/>
<text text-anchor="middle" x="598.5" y="-175.5" font-family="Helvetica,sans-Serif" font-size="10.00" fill="#000000">datamodel.h</text>
</a>
</g>
</g>
<!-- Node1&#45;&gt;Node5 -->
<g id="edge4" class="edge">
<title>Node1&#45;&gt;Node5</title>
<path fill="none" stroke="#191970" d="M240.1966,-392.2005C245.6703,-365.6171 260.5679,-310.8004 294.5,-280 368.059,-213.2299 486.7856,-189.9841 551.9645,-182.0277"/>
<polygon fill="#191970" stroke="#191970" points="552.4166,-185.4989 561.9505,-180.8777 551.6157,-178.5448 552.4166,-185.4989"/>
</g>
<!-- Node7 -->
<g id="node7" class="node">
<title>Node7</title>
<g id="a_node7"><a xlink:title=" ">
<polygon fill="#ffffff" stroke="#bfbfbf" points="370,-112.5 370,-131.5 419,-131.5 419,-112.5 370,-112.5"/>
<text text-anchor="middle" x="394.5" y="-119.5" font-family="Helvetica,sans-Serif" font-size="10.00" fill="#000000">QLabel</text>
</a>
</g>
</g>
<!-- Node1&#45;&gt;Node7 -->
<g id="edge19" class="edge">
<title>Node1&#45;&gt;Node7</title>
<path fill="none" stroke="#191970" d="M237.925,-392.4048C238.6797,-377.7191 240.7635,-354.917 246.5,-336 271.864,-252.3582 343.4327,-172.9032 376.8725,-139.0869"/>
<polygon fill="#191970" stroke="#191970" points="379.519,-141.3909 384.1364,-131.8552 374.5803,-136.4302 379.519,-141.3909"/>
</g>
<!-- Node18 -->
<g id="node18" class="node">
<title>Node18</title>
<g id="a_node18"><a xlink:href="client_8h.html" target="_top" xlink:title=" ">
<polygon fill="#ffffff" stroke="#000000" points="520,-336.5 520,-355.5 567,-355.5 567,-336.5 520,-336.5"/>
<text text-anchor="middle" x="543.5" y="-343.5" font-family="Helvetica,sans-Serif" font-size="10.00" fill="#000000">client.h</text>
</a>
</g>
</g>
<!-- Node1&#45;&gt;Node18 -->
<g id="edge20" class="edge">
<title>Node1&#45;&gt;Node18</title>
<path fill="none" stroke="#191970" d="M295.0563,-395.9323C358.3857,-383.2043 458.0392,-363.1759 509.7874,-352.7756"/>
<polygon fill="#191970" stroke="#191970" points="510.6588,-356.1705 519.7731,-350.7686 509.2795,-349.3077 510.6588,-356.1705"/>
</g>
<!-- Node39 -->
<g id="node39" class="node">
<title>Node39</title>
<g id="a_node39"><a xlink:href="menubar_8h.html" target="_top" xlink:title=" ">
<polygon fill="#ffffff" stroke="#000000" points="834,-336.5 834,-355.5 897,-355.5 897,-336.5 834,-336.5"/>
<text text-anchor="middle" x="865.5" y="-343.5" font-family="Helvetica,sans-Serif" font-size="10.00" fill="#000000">menubar.h</text>
</a>
</g>
</g>
<!-- Node1&#45;&gt;Node39 -->
<g id="edge56" class="edge">
<title>Node1&#45;&gt;Node39</title>
<path fill="none" stroke="#191970" d="M295.1751,-401.8519C420.4568,-389.583 714.9415,-360.7442 823.9588,-350.0681"/>
<polygon fill="#191970" stroke="#191970" points="824.3067,-353.5509 833.9179,-349.0928 823.6244,-346.5842 824.3067,-353.5509"/>
</g>
<!-- Node3 -->
<g id="node3" class="node">
<title>Node3</title>
<g id="a_node3"><a xlink:title=" ">
<polygon fill="#ffffff" stroke="#bfbfbf" points="0,-280.5 0,-299.5 83,-299.5 83,-280.5 0,-280.5"/>
<text text-anchor="middle" x="41.5" y="-287.5" font-family="Helvetica,sans-Serif" font-size="10.00" fill="#000000">QMainWindow</text>
</a>
</g>
</g>
<!-- Node2&#45;&gt;Node3 -->
<g id="edge2" class="edge">
<title>Node2&#45;&gt;Node3</title>
<path fill="none" stroke="#191970" d="M115.8232,-336.2455C102.0144,-327.6534 81.6807,-315.0014 65.7708,-305.1018"/>
<polygon fill="#191970" stroke="#191970" points="67.3368,-301.954 56.9972,-299.6427 63.6387,-307.8974 67.3368,-301.954"/>
</g>
<!-- Node4 -->
<g id="node4" class="node">
<title>Node4</title>
<g id="a_node4"><a xlink:title=" ">
<polygon fill="#ffffff" stroke="#bfbfbf" points="101,-280.5 101,-299.5 168,-299.5 168,-280.5 101,-280.5"/>
<text text-anchor="middle" x="134.5" y="-287.5" font-family="Helvetica,sans-Serif" font-size="10.00" fill="#000000">QKeyEvent</text>
</a>
</g>
</g>
<!-- Node2&#45;&gt;Node4 -->
<g id="edge3" class="edge">
<title>Node2&#45;&gt;Node4</title>
<path fill="none" stroke="#191970" d="M132.0226,-336.2455C132.414,-328.9382 132.9628,-318.6944 133.4444,-309.7046"/>
<polygon fill="#191970" stroke="#191970" points="136.9434,-309.8156 133.9834,-299.6427 129.9534,-309.4411 136.9434,-309.8156"/>
</g>
<!-- Node6 -->
<g id="node6" class="node">
<title>Node6</title>
<g id="a_node6"><a xlink:title=" ">
<polygon fill="#ffffff" stroke="#bfbfbf" points="539,-56.5 539,-75.5 580,-75.5 580,-56.5 539,-56.5"/>
<text text-anchor="middle" x="559.5" y="-63.5" font-family="Helvetica,sans-Serif" font-size="10.00" fill="#000000">string</text>
</a>
</g>
</g>
<!-- Node5&#45;&gt;Node6 -->
<g id="edge5" class="edge">
<title>Node5&#45;&gt;Node6</title>
<path fill="none" stroke="#191970" d="M595.1749,-168.4509C588.7565,-150.0186 574.5517,-109.2254 566.131,-85.043"/>
<polygon fill="#191970" stroke="#191970" points="569.4106,-83.8177 562.8167,-75.5249 562.7999,-86.1197 569.4106,-83.8177"/>
</g>
<!-- Node5&#45;&gt;Node7 -->
<g id="edge6" class="edge">
<title>Node5&#45;&gt;Node7</title>
<path fill="none" stroke="#191970" d="M562.2894,-168.4466C529.8488,-159.8334 480.7294,-146.6585 429.042,-132.1122"/>
<polygon fill="#191970" stroke="#191970" points="429.9391,-128.7287 419.3643,-129.3809 428.0377,-135.4656 429.9391,-128.7287"/>
</g>
<!-- Node8 -->
<g id="node8" class="node">
<title>Node8</title>
<g id="a_node8"><a xlink:title=" ">
<polygon fill="#ffffff" stroke="#bfbfbf" points="1019.5,-112.5 1019.5,-131.5 1075.5,-131.5 1075.5,-112.5 1019.5,-112.5"/>
<text text-anchor="middle" x="1047.5" y="-119.5" font-family="Helvetica,sans-Serif" font-size="10.00" fill="#000000">QWidget</text>
</a>
</g>
</g>
<!-- Node5&#45;&gt;Node8 -->
<g id="edge7" class="edge">
<title>Node5&#45;&gt;Node8</title>
<path fill="none" stroke="#191970" d="M635.126,-170.0109C638.9578,-169.2825 642.8023,-168.596 646.5,-168 778.7655,-146.6816 937.1273,-131.5492 1008.8374,-125.2532"/>
<polygon fill="#191970" stroke="#191970" points="1009.5216,-128.7071 1019.1808,-124.3539 1008.9152,-121.7334 1009.5216,-128.7071"/>
</g>
<!-- Node9 -->
<g id="node9" class="node">
<title>Node9</title>
<g id="a_node9"><a xlink:href="player_8h.html" target="_top" xlink:title=" ">
<polygon fill="#ffffff" stroke="#000000" points="697.5,-112.5 697.5,-131.5 749.5,-131.5 749.5,-112.5 697.5,-112.5"/>
<text text-anchor="middle" x="723.5" y="-119.5" font-family="Helvetica,sans-Serif" font-size="10.00" fill="#000000">player.h</text>
</a>
</g>
</g>
<!-- Node5&#45;&gt;Node9 -->
<g id="edge8" class="edge">
<title>Node5&#45;&gt;Node9</title>
<path fill="none" stroke="#191970" d="M619.9883,-168.3733C640.144,-159.3435 670.488,-145.7494 693.118,-135.6111"/>
<polygon fill="#191970" stroke="#191970" points="694.5971,-138.7838 702.2921,-131.5011 691.7351,-132.3955 694.5971,-138.7838"/>
</g>
<!-- Node12 -->
<g id="node12" class="node">
<title>Node12</title>
<g id="a_node12"><a xlink:href="animationmanager_8h.html" target="_top" xlink:title=" ">
<polygon fill="#ffffff" stroke="#000000" points="437.5,-112.5 437.5,-131.5 545.5,-131.5 545.5,-112.5 437.5,-112.5"/>
<text text-anchor="middle" x="491.5" y="-119.5" font-family="Helvetica,sans-Serif" font-size="10.00" fill="#000000">animationmanager.h</text>
</a>
</g>
</g>
<!-- Node5&#45;&gt;Node12 -->
<g id="edge11" class="edge">
<title>Node5&#45;&gt;Node12</title>
<path fill="none" stroke="#191970" d="M579.862,-168.2455C563.0614,-159.4527 538.1366,-146.4079 519.0382,-136.4125"/>
<polygon fill="#191970" stroke="#191970" points="520.4073,-133.1787 509.9244,-131.6427 517.1614,-139.3807 520.4073,-133.1787"/>
</g>
<!-- Node10 -->
<g id="node10" class="node">
<title>Node10</title>
<g id="a_node10"><a xlink:href="highlighter_8h.html" target="_top" xlink:title=" ">
<polygon fill="#ffffff" stroke="#000000" points="717.5,-56.5 717.5,-75.5 787.5,-75.5 787.5,-56.5 717.5,-56.5"/>
<text text-anchor="middle" x="752.5" y="-63.5" font-family="Helvetica,sans-Serif" font-size="10.00" fill="#000000">highlighter.h</text>
</a>
</g>
</g>
<!-- Node9&#45;&gt;Node10 -->
<g id="edge9" class="edge">
<title>Node9&#45;&gt;Node10</title>
<path fill="none" stroke="#191970" d="M728.5514,-112.2455C732.5019,-104.617 738.1097,-93.7881 742.9058,-84.5267"/>
<polygon fill="#191970" stroke="#191970" points="746.0159,-86.1321 747.5065,-75.6427 739.7999,-82.9131 746.0159,-86.1321"/>
</g>
<!-- Node11 -->
<g id="node11" class="node">
<title>Node11</title>
<g id="a_node11"><a xlink:title=" ">
<polygon fill="#ffffff" stroke="#bfbfbf" points="731.5,-.5 731.5,-19.5 835.5,-19.5 835.5,-.5 731.5,-.5"/>
<text text-anchor="middle" x="783.5" y="-7.5" font-family="Helvetica,sans-Serif" font-size="10.00" fill="#000000">QGraphicsRectItem</text>
</a>
</g>
</g>
<!-- Node10&#45;&gt;Node11 -->
<g id="edge10" class="edge">
<title>Node10&#45;&gt;Node11</title>
<path fill="none" stroke="#191970" d="M757.8998,-56.2455C762.1227,-48.617 768.1173,-37.7881 773.2441,-28.5267"/>
<polygon fill="#191970" stroke="#191970" points="776.381,-30.0867 778.1621,-19.6427 770.2568,-26.6965 776.381,-30.0867"/>
</g>
<!-- Node13 -->
<g id="node13" class="node">
<title>Node13</title>
<g id="a_node13"><a xlink:href="animationmovement_8h.html" target="_top" xlink:title=" ">
<polygon fill="#ffffff" stroke="#000000" points="329,-56.5 329,-75.5 444,-75.5 444,-56.5 329,-56.5"/>
<text text-anchor="middle" x="386.5" y="-63.5" font-family="Helvetica,sans-Serif" font-size="10.00" fill="#000000">animationmovement.h</text>
</a>
</g>
</g>
<!-- Node12&#45;&gt;Node13 -->
<g id="edge12" class="edge">
<title>Node12&#45;&gt;Node13</title>
<path fill="none" stroke="#191970" d="M473.2104,-112.2455C456.7238,-103.4527 432.2648,-90.4079 413.5235,-80.4125"/>
<polygon fill="#191970" stroke="#191970" points="415.0506,-77.2604 404.58,-75.6427 411.7565,-83.4368 415.0506,-77.2604"/>
</g>
<!-- Node15 -->
<g id="node15" class="node">
<title>Node15</title>
<g id="a_node15"><a xlink:title=" ">
<polygon fill="#ffffff" stroke="#bfbfbf" points="411,-.5 411,-19.5 450,-19.5 450,-.5 411,-.5"/>
<text text-anchor="middle" x="430.5" y="-7.5" font-family="Helvetica,sans-Serif" font-size="10.00" fill="#000000">QList</text>
</a>
</g>
</g>
<!-- Node12&#45;&gt;Node15 -->
<g id="edge17" class="edge">
<title>Node12&#45;&gt;Node15</title>
<path fill="none" stroke="#191970" d="M486.2992,-112.4509C476.1701,-93.8533 453.6429,-52.4919 440.5195,-28.3964"/>
<polygon fill="#191970" stroke="#191970" points="443.5444,-26.6328 435.6877,-19.5249 437.3971,-29.9809 443.5444,-26.6328"/>
</g>
<!-- Node17 -->
<g id="node17" class="node">
<title>Node17</title>
<g id="a_node17"><a xlink:title=" ">
<polygon fill="#ffffff" stroke="#bfbfbf" points="468,-.5 468,-19.5 585,-19.5 585,-.5 468,-.5"/>
<text text-anchor="middle" x="526.5" y="-7.5" font-family="Helvetica,sans-Serif" font-size="10.00" fill="#000000">QGraphicsPixmapItem</text>
</a>
</g>
</g>
<!-- Node12&#45;&gt;Node17 -->
<g id="edge18" class="edge">
<title>Node12&#45;&gt;Node17</title>
<path fill="none" stroke="#191970" d="M494.4841,-112.4509C500.2183,-94.1013 512.8779,-53.5908 520.4471,-29.3693"/>
<polygon fill="#191970" stroke="#191970" points="523.8813,-30.1137 523.5235,-19.5249 517.2,-28.0257 523.8813,-30.1137"/>
</g>
<!-- Node14 -->
<g id="node14" class="node">
<title>Node14</title>
<g id="a_node14"><a xlink:href="point_8h.html" target="_top" xlink:title=" ">
<polygon fill="#ffffff" stroke="#000000" points="348,-.5 348,-19.5 393,-19.5 393,-.5 348,-.5"/>
<text text-anchor="middle" x="370.5" y="-7.5" font-family="Helvetica,sans-Serif" font-size="10.00" fill="#000000">point.h</text>
</a>
</g>
</g>
<!-- Node13&#45;&gt;Node14 -->
<g id="edge13" class="edge">
<title>Node13&#45;&gt;Node14</title>
<path fill="none" stroke="#191970" d="M383.713,-56.2455C381.6023,-48.8579 378.634,-38.4689 376.0453,-29.4087"/>
<polygon fill="#191970" stroke="#191970" points="379.3677,-28.2964 373.255,-19.6427 372.637,-30.2195 379.3677,-28.2964"/>
</g>
<!-- Node13&#45;&gt;Node15 -->
<g id="edge14" class="edge">
<title>Node13&#45;&gt;Node15</title>
<path fill="none" stroke="#191970" d="M394.1642,-56.2455C400.3473,-48.3761 409.2063,-37.101 416.6289,-27.6542"/>
<polygon fill="#191970" stroke="#191970" points="419.4975,-29.6683 422.9236,-19.6427 413.9932,-25.3435 419.4975,-29.6683"/>
</g>
<!-- Node16 -->
<g id="node16" class="node">
<title>Node16</title>
<g id="a_node16"><a xlink:title=" ">
<polygon fill="#ffffff" stroke="#bfbfbf" points="215.5,-.5 215.5,-19.5 265.5,-19.5 265.5,-.5 215.5,-.5"/>
<text text-anchor="middle" x="240.5" y="-7.5" font-family="Helvetica,sans-Serif" font-size="10.00" fill="#000000">QString</text>
</a>
</g>
</g>
<!-- Node13&#45;&gt;Node16 -->
<g id="edge15" class="edge">
<title>Node13&#45;&gt;Node16</title>
<path fill="none" stroke="#191970" d="M361.4017,-56.3733C337.5445,-47.2226 301.4665,-33.3844 274.929,-23.2057"/>
<polygon fill="#191970" stroke="#191970" points="275.861,-19.8145 265.2708,-19.5011 273.3541,-26.3503 275.861,-19.8145"/>
</g>
<!-- Node13&#45;&gt;Node17 -->
<g id="edge16" class="edge">
<title>Node13&#45;&gt;Node17</title>
<path fill="none" stroke="#191970" d="M410.5669,-56.3733C433.3428,-47.2629 467.7344,-33.5062 493.149,-23.3404"/>
<polygon fill="#191970" stroke="#191970" points="494.7623,-26.4648 502.7472,-19.5011 492.1625,-19.9654 494.7623,-26.4648"/>
</g>
<!-- Node18&#45;&gt;Node5 -->
<g id="edge46" class="edge">
<title>Node18&#45;&gt;Node5</title>
<path fill="none" stroke="#191970" d="M567.1084,-338.5983C584.7445,-331.6851 607.6069,-319.4598 618.5,-300 622.8418,-292.2436 619.4699,-288.8358 618.5,-280 616.7115,-263.7076 613.7444,-260.066 610.5,-244 607.3976,-228.6369 604.2407,-211.1869 601.9441,-198.0899"/>
<polygon fill="#191970" stroke="#191970" points="605.3278,-197.1175 600.1702,-187.8628 598.4307,-198.3139 605.3278,-197.1175"/>
</g>
<!-- Node18&#45;&gt;Node16 -->
<g id="edge25" class="edge">
<title>Node18&#45;&gt;Node16</title>
<path fill="none" stroke="#191970" d="M519.8386,-343.3201C465.6427,-336.9128 334.1375,-319.7611 294.5,-300 222.7133,-264.2111 161.5,-258.2133 161.5,-178 161.5,-178 161.5,-178 161.5,-122 161.5,-81.9466 195.6555,-46.143 219.0498,-26.3174"/>
<polygon fill="#191970" stroke="#191970" points="221.558,-28.7885 227.0987,-19.7579 217.1358,-23.3622 221.558,-28.7885"/>
</g>
<!-- Node19 -->
<g id="node19" class="node">
<title>Node19</title>
<g id="a_node19"><a xlink:title=" ">
<polygon fill="#ffffff" stroke="#bfbfbf" points="387.5,-280.5 387.5,-299.5 461.5,-299.5 461.5,-280.5 387.5,-280.5"/>
<text text-anchor="middle" x="424.5" y="-287.5" font-family="Helvetica,sans-Serif" font-size="10.00" fill="#000000">QTcpSocket</text>
</a>
</g>
</g>
<!-- Node18&#45;&gt;Node19 -->
<g id="edge21" class="edge">
<title>Node18&#45;&gt;Node19</title>
<path fill="none" stroke="#191970" d="M523.0432,-336.3733C504.0262,-327.4241 475.4825,-313.9917 454.0024,-303.8835"/>
<polygon fill="#191970" stroke="#191970" points="455.2284,-300.5923 444.6899,-299.5011 452.2478,-306.926 455.2284,-300.5923"/>
</g>
<!-- Node20 -->
<g id="node20" class="node">
<title>Node20</title>
<g id="a_node20"><a xlink:title=" ">
<polygon fill="#ffffff" stroke="#bfbfbf" points="480,-280.5 480,-299.5 533,-299.5 533,-280.5 480,-280.5"/>
<text text-anchor="middle" x="506.5" y="-287.5" font-family="Helvetica,sans-Serif" font-size="10.00" fill="#000000">QObject</text>
</a>
</g>
</g>
<!-- Node18&#45;&gt;Node20 -->
<g id="edge22" class="edge">
<title>Node18&#45;&gt;Node20</title>
<path fill="none" stroke="#191970" d="M537.0551,-336.2455C531.9618,-328.5367 524.7092,-317.5598 518.548,-308.2348"/>
<polygon fill="#191970" stroke="#191970" points="521.3038,-306.0566 512.8711,-299.6427 515.4635,-309.9155 521.3038,-306.0566"/>
</g>
<!-- Node21 -->
<g id="node21" class="node">
<title>Node21</title>
<g id="a_node21"><a xlink:title=" ">
<polygon fill="#ffffff" stroke="#bfbfbf" points="551.5,-280.5 551.5,-299.5 609.5,-299.5 609.5,-280.5 551.5,-280.5"/>
<text text-anchor="middle" x="580.5" y="-287.5" font-family="Helvetica,sans-Serif" font-size="10.00" fill="#000000">QThread</text>
</a>
</g>
</g>
<!-- Node18&#45;&gt;Node21 -->
<g id="edge23" class="edge">
<title>Node18&#45;&gt;Node21</title>
<path fill="none" stroke="#191970" d="M549.9449,-336.2455C555.0382,-328.5367 562.2908,-317.5598 568.452,-308.2348"/>
<polygon fill="#191970" stroke="#191970" points="571.5365,-309.9155 574.1289,-299.6427 565.6962,-306.0566 571.5365,-309.9155"/>
</g>
<!-- Node22 -->
<g id="node22" class="node">
<title>Node22</title>
<g id="a_node22"><a xlink:title=" ">
<polygon fill="#ffffff" stroke="#bfbfbf" points="304,-280.5 304,-299.5 369,-299.5 369,-280.5 304,-280.5"/>
<text text-anchor="middle" x="336.5" y="-287.5" font-family="Helvetica,sans-Serif" font-size="10.00" fill="#000000">QStringList</text>
</a>
</g>
</g>
<!-- Node18&#45;&gt;Node22 -->
<g id="edge24" class="edge">
<title>Node18&#45;&gt;Node22</title>
<path fill="none" stroke="#191970" d="M519.7545,-339.5761C485.4429,-330.2937 421.4596,-312.9842 378.917,-301.4751"/>
<polygon fill="#191970" stroke="#191970" points="379.6919,-298.059 369.1249,-298.8261 377.8639,-304.8161 379.6919,-298.059"/>
</g>
<!-- Node23 -->
<g id="node23" class="node">
<title>Node23</title>
<g id="a_node23"><a xlink:href="scene_8h.html" target="_top" xlink:title=" ">
<polygon fill="#ffffff" stroke="#000000" points="817.5,-224.5 817.5,-243.5 869.5,-243.5 869.5,-224.5 817.5,-224.5"/>
<text text-anchor="middle" x="843.5" y="-231.5" font-family="Helvetica,sans-Serif" font-size="10.00" fill="#000000">scene.h</text>
</a>
</g>
</g>
<!-- Node18&#45;&gt;Node23 -->
<g id="edge26" class="edge">
<title>Node18&#45;&gt;Node23</title>
<path fill="none" stroke="#191970" d="M567.3819,-344.2821C624.1175,-339.8111 765.1129,-326.2914 803.5,-300 819.8465,-288.8042 830.6549,-268.5208 836.869,-253.3841"/>
<polygon fill="#191970" stroke="#191970" points="840.1911,-254.4937 840.4486,-243.902 833.6422,-252.0213 840.1911,-254.4937"/>
</g>
<!-- Node28 -->
<g id="node28" class="node">
<title>Node28</title>
<g id="a_node28"><a xlink:href="maptile_8h.html" target="_top" xlink:title=" ">
<polygon fill="#ffffff" stroke="#000000" points="655.5,-168.5 655.5,-187.5 711.5,-187.5 711.5,-168.5 655.5,-168.5"/>
<text text-anchor="middle" x="683.5" y="-175.5" font-family="Helvetica,sans-Serif" font-size="10.00" fill="#000000">maptile.h</text>
</a>
</g>
</g>
<!-- Node18&#45;&gt;Node28 -->
<g id="edge45" class="edge">
<title>Node18&#45;&gt;Node28</title>
<path fill="none" stroke="#191970" d="M567.0708,-342.9208C610.0221,-336.8304 698.5443,-321.9107 719.5,-300 743.1358,-275.287 744.9216,-255.4522 731.5,-224 726.3844,-212.0122 716.4425,-201.6498 706.9273,-193.8114"/>
<polygon fill="#191970" stroke="#191970" points="708.8754,-190.8949 698.8074,-187.5954 704.6203,-196.4532 708.8754,-190.8949"/>
</g>
<!-- Node34 -->
<g id="node34" class="node">
<title>Node34</title>
<g id="a_node34"><a xlink:href="view_8h.html" target="_top" xlink:title=" ">
<polygon fill="#ffffff" stroke="#000000" points="666,-280.5 666,-299.5 711,-299.5 711,-280.5 666,-280.5"/>
<text text-anchor="middle" x="688.5" y="-287.5" font-family="Helvetica,sans-Serif" font-size="10.00" fill="#000000">view.h</text>
</a>
</g>
</g>
<!-- Node18&#45;&gt;Node34 -->
<g id="edge47" class="edge">
<title>Node18&#45;&gt;Node34</title>
<path fill="none" stroke="#191970" d="M567.1195,-336.878C591.4199,-327.493 629.434,-312.8117 656.4404,-302.3817"/>
<polygon fill="#191970" stroke="#191970" points="657.7787,-305.6168 665.8462,-298.749 655.2568,-299.0869 657.7787,-305.6168"/>
</g>
<!-- Node23&#45;&gt;Node5 -->
<g id="edge44" class="edge">
<title>Node23&#45;&gt;Node5</title>
<path fill="none" stroke="#191970" d="M817.2807,-228.007C776.197,-218.6165 696.0823,-200.3045 645.038,-188.6373"/>
<polygon fill="#191970" stroke="#191970" points="645.7654,-185.2133 635.2369,-186.397 644.2056,-192.0373 645.7654,-185.2133"/>
</g>
<!-- Node23&#45;&gt;Node9 -->
<g id="edge42" class="edge">
<title>Node23&#45;&gt;Node9</title>
<path fill="none" stroke="#191970" d="M820.0767,-224.384C802.9275,-216.4892 779.8855,-204.0124 763.5,-188 749.6202,-174.4362 738.6417,-155.0929 731.7246,-140.8521"/>
<polygon fill="#191970" stroke="#191970" points="734.7938,-139.1501 727.4223,-131.5401 728.4392,-142.086 734.7938,-139.1501"/>
</g>
<!-- Node23&#45;&gt;Node10 -->
<g id="edge43" class="edge">
<title>Node23&#45;&gt;Node10</title>
<path fill="none" stroke="#191970" d="M832.6666,-224.2842C823.4116,-215.5256 810.2446,-201.9185 801.5,-188 780.451,-154.4968 765.4408,-110.4271 757.9426,-85.4627"/>
<polygon fill="#191970" stroke="#191970" points="761.2657,-84.3557 755.112,-75.7312 754.5443,-86.3108 761.2657,-84.3557"/>
</g>
<!-- Node23&#45;&gt;Node11 -->
<g id="edge30" class="edge">
<title>Node23&#45;&gt;Node11</title>
<path fill="none" stroke="#191970" d="M841.0111,-224.3368C834.0999,-197.5561 814.0267,-120.1288 796.5,-56 794.0964,-47.2054 791.3617,-37.4877 789.0227,-29.2587"/>
<polygon fill="#191970" stroke="#191970" points="792.3479,-28.1563 786.2369,-19.5014 785.6168,-30.0781 792.3479,-28.1563"/>
</g>
<!-- Node24 -->
<g id="node24" class="node">
<title>Node24</title>
<g id="a_node24"><a xlink:title=" ">
<polygon fill="#ffffff" stroke="#bfbfbf" points="843.5,-168.5 843.5,-187.5 937.5,-187.5 937.5,-168.5 843.5,-168.5"/>
<text text-anchor="middle" x="890.5" y="-175.5" font-family="Helvetica,sans-Serif" font-size="10.00" fill="#000000">QGraphicsScene</text>
</a>
</g>
</g>
<!-- Node23&#45;&gt;Node24 -->
<g id="edge27" class="edge">
<title>Node23&#45;&gt;Node24</title>
<path fill="none" stroke="#191970" d="M851.6868,-224.2455C858.3589,-216.2958 867.9479,-204.8706 875.9253,-195.3656"/>
<polygon fill="#191970" stroke="#191970" points="878.6592,-197.5525 882.407,-187.6427 873.2974,-193.0524 878.6592,-197.5525"/>
</g>
<!-- Node25 -->
<g id="node25" class="node">
<title>Node25</title>
<g id="a_node25"><a xlink:title=" ">
<polygon fill="#ffffff" stroke="#bfbfbf" points="955.5,-168.5 955.5,-187.5 1059.5,-187.5 1059.5,-168.5 955.5,-168.5"/>
<text text-anchor="middle" x="1007.5" y="-175.5" font-family="Helvetica,sans-Serif" font-size="10.00" fill="#000000">QGraphicsTextItem</text>
</a>
</g>
</g>
<!-- Node23&#45;&gt;Node25 -->
<g id="edge28" class="edge">
<title>Node23&#45;&gt;Node25</title>
<path fill="none" stroke="#191970" d="M869.8494,-225.0026C896.9747,-215.7403 939.483,-201.2253 970.0861,-190.7755"/>
<polygon fill="#191970" stroke="#191970" points="971.2368,-194.081 979.5693,-187.5373 968.9748,-187.4566 971.2368,-194.081"/>
</g>
<!-- Node26 -->
<g id="node26" class="node">
<title>Node26</title>
<g id="a_node26"><a xlink:title=" ">
<polygon fill="#ffffff" stroke="#bfbfbf" points="1078,-168.5 1078,-187.5 1161,-187.5 1161,-168.5 1078,-168.5"/>
<text text-anchor="middle" x="1119.5" y="-175.5" font-family="Helvetica,sans-Serif" font-size="10.00" fill="#000000">QGraphicsItem</text>
</a>
</g>
</g>
<!-- Node23&#45;&gt;Node26 -->
<g id="edge29" class="edge">
<title>Node23&#45;&gt;Node26</title>
<path fill="none" stroke="#191970" d="M869.964,-228.6305C915.4974,-219.3918 1009.4184,-200.3354 1068.1568,-188.4175"/>
<polygon fill="#191970" stroke="#191970" points="1068.8773,-191.8427 1077.9817,-186.424 1067.4854,-184.9825 1068.8773,-191.8427"/>
</g>
<!-- Node27 -->
<g id="node27" class="node">
<title>Node27</title>
<g id="a_node27"><a xlink:title=" ">
<polygon fill="#ffffff" stroke="#bfbfbf" points="1179,-168.5 1179,-187.5 1292,-187.5 1292,-168.5 1179,-168.5"/>
<text text-anchor="middle" x="1235.5" y="-175.5" font-family="Helvetica,sans-Serif" font-size="10.00" fill="#000000">QGraphicsEllipseItem</text>
</a>
</g>
</g>
<!-- Node23&#45;&gt;Node27 -->
<g id="edge31" class="edge">
<title>Node23&#45;&gt;Node27</title>
<path fill="none" stroke="#191970" d="M869.796,-230.418C923.7815,-223.0392 1051.2712,-205.4852 1168.559,-188.2731"/>
<polygon fill="#191970" stroke="#191970" points="1169.4018,-191.6869 1178.7862,-186.7692 1168.3834,-184.7613 1169.4018,-191.6869"/>
</g>
<!-- Node23&#45;&gt;Node28 -->
<g id="edge32" class="edge">
<title>Node23&#45;&gt;Node28</title>
<path fill="none" stroke="#191970" d="M817.4371,-224.878C791.1037,-215.6613 750.1757,-201.3365 720.4907,-190.9468"/>
<polygon fill="#191970" stroke="#191970" points="721.4869,-187.5873 710.892,-187.5872 719.1744,-194.1943 721.4869,-187.5873"/>
</g>
<!-- Node31 -->
<g id="node31" class="node">
<title>Node31</title>
<g id="a_node31"><a xlink:href="graphicsmanager_8h.html" target="_top" xlink:title=" ">
<polygon fill="#ffffff" stroke="#000000" points="1269,-112.5 1269,-131.5 1372,-131.5 1372,-112.5 1269,-112.5"/>
<text text-anchor="middle" x="1320.5" y="-119.5" font-family="Helvetica,sans-Serif" font-size="10.00" fill="#000000">graphicsmanager.h</text>
</a>
</g>
</g>
<!-- Node23&#45;&gt;Node31 -->
<g id="edge41" class="edge">
<title>Node23&#45;&gt;Node31</title>
<path fill="none" stroke="#191970" d="M869.5135,-233.0684C961.5692,-229.5456 1268.1723,-215.8048 1301.5,-188 1314.7787,-176.9218 1319.11,-157.2128 1320.37,-142.2079"/>
<polygon fill="#191970" stroke="#191970" points="1323.8819,-142.0176 1320.8321,-131.8712 1316.8889,-141.7049 1323.8819,-142.0176"/>
</g>
<!-- Node28&#45;&gt;Node17 -->
<g id="edge33" class="edge">
<title>Node28&#45;&gt;Node17</title>
<path fill="none" stroke="#191970" d="M683.7988,-168.3757C683.9697,-145.773 681.2383,-88.743 651.5,-56 636.6693,-39.6709 615.5349,-29.124 594.8539,-22.3174"/>
<polygon fill="#191970" stroke="#191970" points="595.6743,-18.9089 585.089,-19.3568 593.6433,-25.6077 595.6743,-18.9089"/>
</g>
<!-- Node29 -->
<g id="node29" class="node">
<title>Node29</title>
<g id="a_node29"><a xlink:href="city_8h.html" target="_top" xlink:title=" ">
<polygon fill="#ffffff" stroke="#000000" points="602,-112.5 602,-131.5 641,-131.5 641,-112.5 602,-112.5"/>
<text text-anchor="middle" x="621.5" y="-119.5" font-family="Helvetica,sans-Serif" font-size="10.00" fill="#000000">city.h</text>
</a>
</g>
</g>
<!-- Node28&#45;&gt;Node29 -->
<g id="edge34" class="edge">
<title>Node28&#45;&gt;Node29</title>
<path fill="none" stroke="#191970" d="M672.7004,-168.2455C663.6322,-160.0549 650.4794,-148.1749 639.7755,-138.5069"/>
<polygon fill="#191970" stroke="#191970" points="641.9429,-135.7482 632.1758,-131.6427 637.2509,-140.9429 641.9429,-135.7482"/>
</g>
<!-- Node28&#45;&gt;Node31 -->
<g id="edge37" class="edge">
<title>Node28&#45;&gt;Node31</title>
<path fill="none" stroke="#191970" d="M711.693,-175.5215C807.7884,-167.0735 1123.9924,-139.2754 1258.7678,-127.427"/>
<polygon fill="#191970" stroke="#191970" points="1259.2698,-130.8965 1268.9249,-126.5341 1258.6567,-123.9234 1259.2698,-130.8965"/>
</g>
<!-- Node29&#45;&gt;Node6 -->
<g id="edge35" class="edge">
<title>Node29&#45;&gt;Node6</title>
<path fill="none" stroke="#191970" d="M610.7004,-112.2455C601.6322,-104.0549 588.4794,-92.1749 577.7755,-82.5069"/>
<polygon fill="#191970" stroke="#191970" points="579.9429,-79.7482 570.1758,-75.6427 575.2509,-84.9429 579.9429,-79.7482"/>
</g>
<!-- Node30 -->
<g id="node30" class="node">
<title>Node30</title>
<g id="a_node30"><a xlink:title=" ">
<polygon fill="#ffffff" stroke="#bfbfbf" points="598.5,-56.5 598.5,-75.5 642.5,-75.5 642.5,-56.5 598.5,-56.5"/>
<text text-anchor="middle" x="620.5" y="-63.5" font-family="Helvetica,sans-Serif" font-size="10.00" fill="#000000">vector</text>
</a>
</g>
</g>
<!-- Node29&#45;&gt;Node30 -->
<g id="edge36" class="edge">
<title>Node29&#45;&gt;Node30</title>
<path fill="none" stroke="#191970" d="M621.3258,-112.2455C621.1953,-104.9382 621.0124,-94.6944 620.8519,-85.7046"/>
<polygon fill="#191970" stroke="#191970" points="624.3503,-85.5786 620.6722,-75.6427 617.3514,-85.7036 624.3503,-85.5786"/>
</g>
<!-- Node31&#45;&gt;Node6 -->
<g id="edge40" class="edge">
<title>Node31&#45;&gt;Node6</title>
<path fill="none" stroke="#191970" d="M1268.727,-119.5186C1118.7919,-112.2277 689.1461,-90.5638 590.2243,-75.4187"/>
<polygon fill="#191970" stroke="#191970" points="590.7466,-71.9572 580.2957,-73.6979 589.5511,-78.8543 590.7466,-71.9572"/>
</g>
<!-- Node32 -->
<g id="node32" class="node">
<title>Node32</title>
<g id="a_node32"><a xlink:title=" ">
<polygon fill="#ffffff" stroke="#bfbfbf" points="1328.5,-56.5 1328.5,-75.5 1386.5,-75.5 1386.5,-56.5 1328.5,-56.5"/>
<text text-anchor="middle" x="1357.5" y="-63.5" font-family="Helvetica,sans-Serif" font-size="10.00" fill="#000000">QPixmap</text>
</a>
</g>
</g>
<!-- Node31&#45;&gt;Node32 -->
<g id="edge38" class="edge">
<title>Node31&#45;&gt;Node32</title>
<path fill="none" stroke="#191970" d="M1326.9449,-112.2455C1332.0382,-104.5367 1339.2908,-93.5598 1345.452,-84.2348"/>
<polygon fill="#191970" stroke="#191970" points="1348.5365,-85.9155 1351.1289,-75.6427 1342.6962,-82.0566 1348.5365,-85.9155"/>
</g>
<!-- Node33 -->
<g id="node33" class="node">
<title>Node33</title>
<g id="a_node33"><a xlink:title=" ">
<polygon fill="#ffffff" stroke="#bfbfbf" points="1257,-56.5 1257,-75.5 1310,-75.5 1310,-56.5 1257,-56.5"/>
<text text-anchor="middle" x="1283.5" y="-63.5" font-family="Helvetica,sans-Serif" font-size="10.00" fill="#000000">QImage</text>
</a>
</g>
</g>
<!-- Node31&#45;&gt;Node33 -->
<g id="edge39" class="edge">
<title>Node31&#45;&gt;Node33</title>
<path fill="none" stroke="#191970" d="M1314.0551,-112.2455C1308.9618,-104.5367 1301.7092,-93.5598 1295.548,-84.2348"/>
<polygon fill="#191970" stroke="#191970" points="1298.3038,-82.0566 1289.8711,-75.6427 1292.4635,-85.9155 1298.3038,-82.0566"/>
</g>
<!-- Node34&#45;&gt;Node5 -->
<g id="edge50" class="edge">
<title>Node34&#45;&gt;Node5</title>
<path fill="none" stroke="#191970" d="M670.6999,-280.3364C657.0672,-272.1757 638.6033,-259.3762 626.5,-244 615.5801,-230.1271 608.1651,-211.3655 603.7234,-197.3915"/>
<polygon fill="#191970" stroke="#191970" points="607.0808,-196.4025 600.8976,-187.7991 600.3661,-198.3805 607.0808,-196.4025"/>
</g>
<!-- Node34&#45;&gt;Node23 -->
<g id="edge49" class="edge">
<title>Node34&#45;&gt;Node23</title>
<path fill="none" stroke="#191970" d="M711.0383,-281.8571C736.3846,-272.6998 777.8899,-257.7043 807.6885,-246.9384"/>
<polygon fill="#191970" stroke="#191970" points="809.0893,-250.1538 817.305,-243.464 806.7107,-243.5702 809.0893,-250.1538"/>
</g>
<!-- Node35 -->
<g id="node35" class="node">
<title>Node35</title>
<g id="a_node35"><a xlink:title=" ">
<polygon fill="#ffffff" stroke="#bfbfbf" points="636,-224.5 636,-243.5 723,-243.5 723,-224.5 636,-224.5"/>
<text text-anchor="middle" x="679.5" y="-231.5" font-family="Helvetica,sans-Serif" font-size="10.00" fill="#000000">QGraphicsView</text>
</a>
</g>
</g>
<!-- Node34&#45;&gt;Node35 -->
<g id="edge48" class="edge">
<title>Node34&#45;&gt;Node35</title>
<path fill="none" stroke="#191970" d="M686.9323,-280.2455C685.7579,-272.9382 684.1116,-262.6944 682.6668,-253.7046"/>
<polygon fill="#191970" stroke="#191970" points="686.0922,-252.9606 681.0497,-243.6427 679.1809,-254.0714 686.0922,-252.9606"/>
</g>
<!-- Node36 -->
<g id="node36" class="node">
<title>Node36</title>
<g id="a_node36"><a xlink:href="tooltipmenu_8h.html" target="_top" xlink:title=" ">
<polygon fill="#ffffff" stroke="#000000" points="195,-168.5 195,-187.5 270,-187.5 270,-168.5 195,-168.5"/>
<text text-anchor="middle" x="232.5" y="-175.5" font-family="Helvetica,sans-Serif" font-size="10.00" fill="#000000">tooltipmenu.h</text>
</a>
</g>
</g>
<!-- Node34&#45;&gt;Node36 -->
<g id="edge51" class="edge">
<title>Node34&#45;&gt;Node36</title>
<path fill="none" stroke="#191970" d="M665.8869,-284.4459C595.1582,-267.0739 377.0823,-213.5114 279.9823,-189.6623"/>
<polygon fill="#191970" stroke="#191970" points="280.6861,-186.2312 270.1398,-187.2449 279.0163,-193.0292 280.6861,-186.2312"/>
</g>
<!-- Node36&#45;&gt;Node7 -->
<g id="edge53" class="edge">
<title>Node36&#45;&gt;Node7</title>
<path fill="none" stroke="#191970" d="M260.3488,-168.3733C288.0644,-158.7926 330.6444,-144.0736 360.3762,-133.7959"/>
<polygon fill="#191970" stroke="#191970" points="361.6189,-137.0696 369.9266,-130.4945 359.3319,-130.4537 361.6189,-137.0696"/>
</g>
<!-- Node36&#45;&gt;Node8 -->
<g id="edge52" class="edge">
<title>Node36&#45;&gt;Node8</title>
<path fill="none" stroke="#191970" d="M270.1746,-175.4113C406.4059,-166.0506 872.586,-134.0186 1009.4391,-124.6152"/>
<polygon fill="#191970" stroke="#191970" points="1009.7163,-128.1045 1019.4528,-123.9272 1009.2363,-121.121 1009.7163,-128.1045"/>
</g>
<!-- Node37 -->
<g id="node37" class="node">
<title>Node37</title>
<g id="a_node37"><a xlink:title=" ">
<polygon fill="#ffffff" stroke="#bfbfbf" points="281.5,-112.5 281.5,-131.5 351.5,-131.5 351.5,-112.5 281.5,-112.5"/>
<text text-anchor="middle" x="316.5" y="-119.5" font-family="Helvetica,sans-Serif" font-size="10.00" fill="#000000">QGroupBox</text>
</a>
</g>
</g>
<!-- Node36&#45;&gt;Node37 -->
<g id="edge54" class="edge">
<title>Node36&#45;&gt;Node37</title>
<path fill="none" stroke="#191970" d="M247.1317,-168.2455C259.8994,-159.7337 278.6438,-147.2375 293.4299,-137.3801"/>
<polygon fill="#191970" stroke="#191970" points="295.6569,-140.1019 302.036,-131.6427 291.774,-134.2775 295.6569,-140.1019"/>
</g>
<!-- Node38 -->
<g id="node38" class="node">
<title>Node38</title>
<g id="a_node38"><a xlink:title=" ">
<polygon fill="#ffffff" stroke="#bfbfbf" points="189.5,-112.5 189.5,-131.5 263.5,-131.5 263.5,-112.5 189.5,-112.5"/>
<text text-anchor="middle" x="226.5" y="-119.5" font-family="Helvetica,sans-Serif" font-size="10.00" fill="#000000">QGridLayout</text>
</a>
</g>
</g>
<!-- Node36&#45;&gt;Node38 -->
<g id="edge55" class="edge">
<title>Node36&#45;&gt;Node38</title>
<path fill="none" stroke="#191970" d="M231.4549,-168.2455C230.672,-160.9382 229.5744,-150.6944 228.6112,-141.7046"/>
<polygon fill="#191970" stroke="#191970" points="232.0786,-141.2129 227.5331,-131.6427 225.1185,-141.9587 232.0786,-141.2129"/>
</g>
<!-- Node39&#45;&gt;Node5 -->
<g id="edge60" class="edge">
<title>Node39&#45;&gt;Node5</title>
<path fill="none" stroke="#191970" d="M857.423,-336.3358C837.9852,-313.6468 786.1469,-256.4437 731.5,-224 704.6745,-208.0738 671.5211,-196.591 645.026,-189.0812"/>
<polygon fill="#191970" stroke="#191970" points="645.794,-185.6626 635.2246,-186.3965 643.9447,-192.414 645.794,-185.6626"/>
</g>
<!-- Node39&#45;&gt;Node23 -->
<g id="edge59" class="edge">
<title>Node39&#45;&gt;Node23</title>
<path fill="none" stroke="#191970" d="M863.6243,-336.4509C860.0199,-318.1013 852.0625,-277.5908 847.3047,-253.3693"/>
<polygon fill="#191970" stroke="#191970" points="850.7329,-252.6627 845.371,-243.5249 843.8641,-254.012 850.7329,-252.6627"/>
</g>
<!-- Node39&#45;&gt;Node34 -->
<g id="edge61" class="edge">
<title>Node39&#45;&gt;Node34</title>
<path fill="none" stroke="#191970" d="M835.0726,-336.3733C803.3213,-326.3276 753.7147,-310.6329 721.1568,-300.3321"/>
<polygon fill="#191970" stroke="#191970" points="721.8193,-296.8708 711.2293,-297.1912 719.7078,-303.5447 721.8193,-296.8708"/>
</g>
<!-- Node40 -->
<g id="node40" class="node">
<title>Node40</title>
<g id="a_node40"><a xlink:title=" ">
<polygon fill="#ffffff" stroke="#bfbfbf" points="931.5,-280.5 931.5,-299.5 993.5,-299.5 993.5,-280.5 931.5,-280.5"/>
<text text-anchor="middle" x="962.5" y="-287.5" font-family="Helvetica,sans-Serif" font-size="10.00" fill="#000000">QToolBar</text>
</a>
</g>
</g>
<!-- Node39&#45;&gt;Node40 -->
<g id="edge57" class="edge">
<title>Node39&#45;&gt;Node40</title>
<path fill="none" stroke="#191970" d="M882.3961,-336.2455C897.418,-327.5731 919.6043,-314.7645 936.821,-304.825"/>
<polygon fill="#191970" stroke="#191970" points="938.8871,-307.6737 945.7975,-299.6427 935.3872,-301.6114 938.8871,-307.6737"/>
</g>
<!-- Node41 -->
<g id="node41" class="node">
<title>Node41</title>
<g id="a_node41"><a xlink:title=" ">
<polygon fill="#ffffff" stroke="#bfbfbf" points="1011.5,-280.5 1011.5,-299.5 1085.5,-299.5 1085.5,-280.5 1011.5,-280.5"/>
<text text-anchor="middle" x="1048.5" y="-287.5" font-family="Helvetica,sans-Serif" font-size="10.00" fill="#000000">QInputDialog</text>
</a>
</g>
</g>
<!-- Node39&#45;&gt;Node41 -->
<g id="edge58" class="edge">
<title>Node39&#45;&gt;Node41</title>
<path fill="none" stroke="#191970" d="M896.9588,-336.3733C927.5207,-327.021 974.0826,-312.7725 1007.5261,-302.5385"/>
<polygon fill="#191970" stroke="#191970" points="1008.9136,-305.7742 1017.4517,-299.5011 1006.8652,-299.0806 1008.9136,-305.7742"/>
</g>
<!-- Node42 -->
<g id="node42" class="node">
<title>Node42</title>
<g id="a_node42"><a xlink:href="routeinterface_8h.html" target="_top" xlink:title=" ">
<polygon fill="#ffffff" stroke="#000000" points="1497,-224.5 1497,-243.5 1582,-243.5 1582,-224.5 1497,-224.5"/>
<text text-anchor="middle" x="1539.5" y="-231.5" font-family="Helvetica,sans-Serif" font-size="10.00" fill="#000000">routeinterface.h</text>
</a>
</g>
</g>
<!-- Node39&#45;&gt;Node42 -->
<g id="edge62" class="edge">
<title>Node39&#45;&gt;Node42</title>
<path fill="none" stroke="#191970" d="M870.5856,-336.2474C879.0576,-321.1425 897.6181,-292.5276 922.5,-280 972.283,-254.9353 1346.9203,-240.2761 1486.9264,-235.6256"/>
<polygon fill="#191970" stroke="#191970" points="1487.108,-239.1216 1496.9878,-235.2953 1486.8783,-232.1254 1487.108,-239.1216"/>
</g>
<!-- Node42&#45;&gt;Node31 -->
<g id="edge68" class="edge">
<title>Node42&#45;&gt;Node31</title>
<path fill="none" stroke="#191970" d="M1582.2719,-229.6625C1632.3246,-223.6005 1710.6599,-210.7029 1728.5,-188 1733.9921,-181.0108 1734.4228,-174.6281 1728.5,-168 1705.8676,-142.6726 1490.7675,-129.5601 1382.3444,-124.5135"/>
<polygon fill="#191970" stroke="#191970" points="1382.3442,-121.01 1372.1949,-124.0502 1382.0249,-128.0027 1382.3442,-121.01"/>
</g>
<!-- Node43 -->
<g id="node43" class="node">
<title>Node43</title>
<g id="a_node43"><a xlink:title=" ">
<polygon fill="#ffffff" stroke="#bfbfbf" points="1450.5,-168.5 1450.5,-187.5 1530.5,-187.5 1530.5,-168.5 1450.5,-168.5"/>
<text text-anchor="middle" x="1490.5" y="-175.5" font-family="Helvetica,sans-Serif" font-size="10.00" fill="#000000">QDockWidget</text>
</a>
</g>
</g>
<!-- Node42&#45;&gt;Node43 -->
<g id="edge63" class="edge">
<title>Node42&#45;&gt;Node43</title>
<path fill="none" stroke="#191970" d="M1530.9649,-224.2455C1524.0088,-216.2958 1514.0117,-204.8706 1505.6949,-195.3656"/>
<polygon fill="#191970" stroke="#191970" points="1508.1564,-192.8637 1498.9373,-187.6427 1502.8884,-197.4732 1508.1564,-192.8637"/>
</g>
<!-- Node44 -->
<g id="node44" class="node">
<title>Node44</title>
<g id="a_node44"><a xlink:title=" ">
<polygon fill="#ffffff" stroke="#bfbfbf" points="1648,-168.5 1648,-187.5 1719,-187.5 1719,-168.5 1648,-168.5"/>
<text text-anchor="middle" x="1683.5" y="-175.5" font-family="Helvetica,sans-Serif" font-size="10.00" fill="#000000">QListWidget</text>
</a>
</g>
</g>
<!-- Node42&#45;&gt;Node44 -->
<g id="edge64" class="edge">
<title>Node42&#45;&gt;Node44</title>
<path fill="none" stroke="#191970" d="M1564.2545,-224.3733C1587.7849,-215.2226 1623.3687,-201.3844 1649.5426,-191.2057"/>
<polygon fill="#191970" stroke="#191970" points="1651.0171,-194.3877 1659.0685,-187.5011 1648.4799,-187.8636 1651.0171,-194.3877"/>
</g>
<!-- Node45 -->
<g id="node45" class="node">
<title>Node45</title>
<g id="a_node45"><a xlink:href="trainrenderer_8h.html" target="_top" xlink:title=" ">
<polygon fill="#ffffff" stroke="#000000" points="1549,-168.5 1549,-187.5 1630,-187.5 1630,-168.5 1549,-168.5"/>
<text text-anchor="middle" x="1589.5" y="-175.5" font-family="Helvetica,sans-Serif" font-size="10.00" fill="#000000">trainrenderer.h</text>
</a>
</g>
</g>
<!-- Node42&#45;&gt;Node45 -->
<g id="edge65" class="edge">
<title>Node42&#45;&gt;Node45</title>
<path fill="none" stroke="#191970" d="M1548.2093,-224.2455C1555.3073,-216.2958 1565.5084,-204.8706 1573.995,-195.3656"/>
<polygon fill="#191970" stroke="#191970" points="1576.8411,-197.4331 1580.8905,-187.6427 1571.6195,-192.771 1576.8411,-197.4331"/>
</g>
<!-- Node46 -->
<g id="node46" class="node">
<title>Node46</title>
<g id="a_node46"><a xlink:href="goodselector_8h.html" target="_top" xlink:title=" ">
<polygon fill="#ffffff" stroke="#000000" points="1348.5,-168.5 1348.5,-187.5 1432.5,-187.5 1432.5,-168.5 1348.5,-168.5"/>
<text text-anchor="middle" x="1390.5" y="-175.5" font-family="Helvetica,sans-Serif" font-size="10.00" fill="#000000">goodselector.h</text>
</a>
</g>
</g>
<!-- Node42&#45;&gt;Node46 -->
<g id="edge69" class="edge">
<title>Node42&#45;&gt;Node46</title>
<path fill="none" stroke="#191970" d="M1513.886,-224.3733C1489.4313,-215.1822 1452.3946,-201.2624 1425.2791,-191.0713"/>
<polygon fill="#191970" stroke="#191970" points="1426.3719,-187.7431 1415.7798,-187.5011 1423.9091,-194.2956 1426.3719,-187.7431"/>
</g>
<!-- Node45&#45;&gt;Node8 -->
<g id="edge66" class="edge">
<title>Node45&#45;&gt;Node8</title>
<path fill="none" stroke="#191970" d="M1548.9024,-169.5127C1545.7277,-168.9615 1542.5657,-168.4486 1539.5,-168 1371.3698,-143.3955 1168.8858,-129.3278 1085.8529,-124.2208"/>
<polygon fill="#191970" stroke="#191970" points="1085.8294,-120.7131 1075.6357,-123.6008 1085.4053,-127.7002 1085.8294,-120.7131"/>
</g>
<!-- Node45&#45;&gt;Node31 -->
<g id="edge67" class="edge">
<title>Node45&#45;&gt;Node31</title>
<path fill="none" stroke="#191970" d="M1548.9367,-169.5556C1502.9785,-159.9881 1427.7938,-144.3363 1376.3201,-133.6205"/>
<polygon fill="#191970" stroke="#191970" points="1376.8607,-130.1581 1366.3572,-131.5465 1375.434,-137.0112 1376.8607,-130.1581"/>
</g>
<!-- Node46&#45;&gt;Node8 -->
<g id="edge70" class="edge">
<title>Node46&#45;&gt;Node8</title>
<path fill="none" stroke="#191970" d="M1348.4415,-171.1333C1281.3373,-160.1775 1151.0225,-138.9016 1086.1397,-128.3085"/>
<polygon fill="#191970" stroke="#191970" points="1086.3674,-124.7994 1075.9341,-126.6423 1085.2394,-131.708 1086.3674,-124.7994"/>
</g>
</g>
</svg>
        <g id="navigator" transform="translate(0 0)" fill="#404254">
                <rect fill="#f2f5e9" fill-opacity="0.5" stroke="#606060" stroke-width=".5" x="0" y="0" width="60" height="60"/>
                <use id="zoomplus" xlink:href="#zoomPlus" x="17" y="9" onmousedown="handleZoom(evt,'in')"/>
                <use id="zoomminus" xlink:href="#zoomMin" x="42" y="9" onmousedown="handleZoom(evt,'out')"/>
                <use id="reset" xlink:href="#resetDef" x="30" y="36" onmousedown="handleReset()"/>
                <g id="arrowUp" xlink:href="#dirArrow" transform="translate(30 24)" onmousedown="handlePan(0,-1)">
                  <use xlink:href="#rim" fill="#404040">
                        <set attributeName="fill" to="#808080" begin="arrowUp.mouseover" end="arrowUp.mouseout"/>
                  </use>
                  <path fill="none" stroke="white" stroke-width="1.5" d="M0,-3.0v7 M-2.5,-0.5L0,-3.0L2.5,-0.5"/>
                </g>
                <g id="arrowRight" xlink:href="#dirArrow" transform="rotate(90) translate(36 -43)" onmousedown="handlePan(1,0)">
                  <use xlink:href="#rim" fill="#404040">
                        <set attributeName="fill" to="#808080" begin="arrowRight.mouseover" end="arrowRight.mouseout"/>
                  </use>
                  <path fill="none" stroke="white" stroke-width="1.5" d="M0,-3.0v7 M-2.5,-0.5L0,-3.0L2.5,-0.5"/>
                </g>
                <g id="arrowDown" xlink:href="#dirArrow" transform="rotate(180) translate(-30 -48)" onmousedown="handlePan(0,1)">
                  <use xlink:href="#rim" fill="#404040">
                        <set attributeName="fill" to="#808080" begin="arrowDown.mouseover" end="arrowDown.mouseout"/>
                  </use>
                  <path fill="none" stroke="white" stroke-width="1.5" d="M0,-3.0v7 M-2.5,-0.5L0,-3.0L2.5,-0.5"/>
                </g>
                <g id="arrowLeft" xlink:href="#dirArrow" transform="rotate(270) translate(-36 17)" onmousedown="handlePan(-1,0)">
                  <use xlink:href="#rim" fill="#404040">
                        <set attributeName="fill" to="#808080" begin="arrowLeft.mouseover" end="arrowLeft.mouseout"/>
                  </use>
                  <path fill="none" stroke="white" stroke-width="1.5" d="M0,-3.0v7 M-2.5,-0.5L0,-3.0L2.5,-0.5"/>
                </g>
        </g>
        <svg viewBox="0 0 15 15" width="100%" height="30px" preserveAspectRatio="xMaxYMin meet">
         <g id="arrow_out" transform="scale(0.3 0.3)">
          <a xlink:href="main_8h__incl_org.svg" target="_base">
           <rect id="button" ry="5" rx="5" y="6" x="6" height="38" width="38"
                fill="#f2f5e9" fill-opacity="0.5" stroke="#606060" stroke-width="1.0"/>
           <path id="arrow"
             d="M 11.500037,31.436501 C 11.940474,20.09759 22.043105,11.32322 32.158766,21.979434 L 37.068811,17.246167 C 37.068811,17.246167 37.088388,32 37.088388,32 L 22.160133,31.978069 C 22.160133,31.978069 26.997745,27.140456 26.997745,27.140456 C 18.528582,18.264221 13.291696,25.230495 11.500037,31.436501 z"
             style="fill:#404040;"/>
          </a>
         </g>
        </svg>
</svg>
