<?xml version="1.0" encoding="UTF-8" standalone="no"?>
<!DOCTYPE svg PUBLIC "-//W3C//DTD SVG 1.1//EN"
 "http://www.w3.org/Graphics/SVG/1.1/DTD/svg11.dtd">
<!-- Generated by graphviz version 2.40.1 (20161225.0304)
 -->
<!-- Title: src/application_server/main.cpp Pages: 1 -->
<svg width="3391pt" height="599pt"
 viewBox="0.00 0.00 3390.50 599.00" xmlns="http://www.w3.org/2000/svg" xmlns:xlink="http://www.w3.org/1999/xlink">
<g id="graph0" class="graph" transform="scale(1 1) rotate(0) translate(4 595)">
<title>src/application_server/main.cpp</title>
<polygon fill="#ffffff" stroke="transparent" points="-4,4 -4,-595 3386.5,-595 3386.5,4 -4,4"/>
<!-- Node1 -->
<g id="node1" class="node">
<title>Node1</title>
<g id="a_node1"><a xlink:title=" ">
<polygon fill="#bfbfbf" stroke="#000000" points="1405,-560.5 1405,-590.5 1520,-590.5 1520,-560.5 1405,-560.5"/>
<text text-anchor="start" x="1413" y="-578.5" font-family="Helvetica,sans-Serif" font-size="10.00" fill="#000000">src/application_server</text>
<text text-anchor="middle" x="1462.5" y="-567.5" font-family="Helvetica,sans-Serif" font-size="10.00" fill="#000000">/main.cpp</text>
</a>
</g>
</g>
<!-- Node2 -->
<g id="node2" class="node">
<title>Node2</title>
<g id="a_node2"><a xlink:title=" ">
<polygon fill="#ffffff" stroke="#bfbfbf" points="0,-504.5 0,-523.5 73,-523.5 73,-504.5 0,-504.5"/>
<text text-anchor="middle" x="36.5" y="-511.5" font-family="Helvetica,sans-Serif" font-size="10.00" fill="#000000">QApplication</text>
</a>
</g>
</g>
<!-- Node1&#45;&gt;Node2 -->
<g id="edge1" class="edge">
<title>Node1&#45;&gt;Node2</title>
<path fill="none" stroke="#191970" d="M1404.9451,-574.7457C1180.6322,-571.5931 363.9787,-558.0748 83.3955,-524.0067"/>
<polygon fill="#191970" stroke="#191970" points="83.5986,-520.5049 73.241,-522.7342 82.7281,-527.4505 83.5986,-520.5049"/>
</g>
<!-- Node3 -->
<g id="node3" class="node">
<title>Node3</title>
<g id="a_node3"><a xlink:title=" ">
<polygon fill="#ffffff" stroke="#bfbfbf" points="91,-504.5 91,-523.5 156,-523.5 156,-504.5 91,-504.5"/>
<text text-anchor="middle" x="123.5" y="-511.5" font-family="Helvetica,sans-Serif" font-size="10.00" fill="#000000">QMenuBar</text>
</a>
</g>
</g>
<!-- Node1&#45;&gt;Node3 -->
<g id="edge2" class="edge">
<title>Node1&#45;&gt;Node3</title>
<path fill="none" stroke="#191970" d="M1404.7456,-574.6967C1189.0021,-571.4677 429.713,-557.9979 166.3133,-523.8006"/>
<polygon fill="#191970" stroke="#191970" points="166.7772,-520.3316 156.4006,-522.4712 165.8466,-527.2695 166.7772,-520.3316"/>
</g>
<!-- Node4 -->
<g id="node4" class="node">
<title>Node4</title>
<g id="a_node4"><a xlink:title=" ">
<polygon fill="#ffffff" stroke="#bfbfbf" points="174.5,-504.5 174.5,-523.5 228.5,-523.5 228.5,-504.5 174.5,-504.5"/>
<text text-anchor="middle" x="201.5" y="-511.5" font-family="Helvetica,sans-Serif" font-size="10.00" fill="#000000">QDebug</text>
</a>
</g>
</g>
<!-- Node1&#45;&gt;Node4 -->
<g id="edge3" class="edge">
<title>Node1&#45;&gt;Node4</title>
<path fill="none" stroke="#191970" d="M1404.6885,-574.8228C1196.7409,-572.1178 486.4713,-560.4829 238.9006,-523.8385"/>
<polygon fill="#191970" stroke="#191970" points="239.2901,-520.3574 228.8749,-522.3002 238.2284,-527.2764 239.2901,-520.3574"/>
</g>
<!-- Node5 -->
<g id="node5" class="node">
<title>Node5</title>
<g id="a_node5"><a xlink:title=" ">
<polygon fill="#ffffff" stroke="#bfbfbf" points="246.5,-504.5 246.5,-523.5 298.5,-523.5 298.5,-504.5 246.5,-504.5"/>
<text text-anchor="middle" x="272.5" y="-511.5" font-family="Helvetica,sans-Serif" font-size="10.00" fill="#000000">QAction</text>
</a>
</g>
</g>
<!-- Node1&#45;&gt;Node5 -->
<g id="edge4" class="edge">
<title>Node1&#45;&gt;Node5</title>
<path fill="none" stroke="#191970" d="M1404.8655,-574.7103C1205.0708,-571.6992 542.1389,-559.3528 308.8408,-523.805"/>
<polygon fill="#191970" stroke="#191970" points="309.1479,-520.3101 298.7238,-522.2042 308.0539,-527.2241 309.1479,-520.3101"/>
</g>
<!-- Node6 -->
<g id="node6" class="node">
<title>Node6</title>
<g id="a_node6"><a xlink:title=" ">
<polygon fill="#ffffff" stroke="#bfbfbf" points="316.5,-504.5 316.5,-523.5 380.5,-523.5 380.5,-504.5 316.5,-504.5"/>
<text text-anchor="middle" x="348.5" y="-511.5" font-family="Helvetica,sans-Serif" font-size="10.00" fill="#000000">QTextItem</text>
</a>
</g>
</g>
<!-- Node1&#45;&gt;Node6 -->
<g id="edge5" class="edge">
<title>Node1&#45;&gt;Node6</title>
<path fill="none" stroke="#191970" d="M1404.6925,-574.1841C1214.3528,-569.6262 607.5233,-553.2465 390.6447,-523.8575"/>
<polygon fill="#191970" stroke="#191970" points="391.0049,-520.3738 380.6151,-522.4482 390.0308,-527.3057 391.0049,-520.3738"/>
</g>
<!-- Node7 -->
<g id="node7" class="node">
<title>Node7</title>
<g id="a_node7"><a xlink:title=" ">
<polygon fill="#ffffff" stroke="#bfbfbf" points="399,-504.5 399,-523.5 450,-523.5 450,-504.5 399,-504.5"/>
<text text-anchor="middle" x="424.5" y="-511.5" font-family="Helvetica,sans-Serif" font-size="10.00" fill="#000000">QTimer</text>
</a>
</g>
</g>
<!-- Node1&#45;&gt;Node7 -->
<g id="edge6" class="edge">
<title>Node1&#45;&gt;Node7</title>
<path fill="none" stroke="#191970" d="M1404.9077,-573.993C1220.7977,-568.9451 647.8878,-551.3916 464.5,-524 463.0398,-523.7819 461.5553,-523.534 460.0598,-523.2626"/>
<polygon fill="#191970" stroke="#191970" points="460.678,-519.8163 450.1733,-521.1954 459.2452,-526.6681 460.678,-519.8163"/>
</g>
<!-- Node8 -->
<g id="node8" class="node">
<title>Node8</title>
<g id="a_node8"><a xlink:title=" ">
<polygon fill="#ffffff" stroke="#bfbfbf" points="1131.5,-224.5 1131.5,-243.5 1211.5,-243.5 1211.5,-224.5 1131.5,-224.5"/>
<text text-anchor="middle" x="1171.5" y="-231.5" font-family="Helvetica,sans-Serif" font-size="10.00" fill="#000000">QDockWidget</text>
</a>
</g>
</g>
<!-- Node1&#45;&gt;Node8 -->
<g id="edge7" class="edge">
<title>Node1&#45;&gt;Node8</title>
<path fill="none" stroke="#191970" d="M1404.8321,-572.8188C1281.5542,-565.5121 1003.5,-539.9486 1003.5,-458 1003.5,-458 1003.5,-458 1003.5,-346 1003.5,-288.7734 1071.8205,-258.9873 1121.3247,-244.9161"/>
<polygon fill="#191970" stroke="#191970" points="1122.5212,-248.2183 1131.2598,-242.2278 1120.6927,-241.4613 1122.5212,-248.2183"/>
</g>
<!-- Node9 -->
<g id="node9" class="node">
<title>Node9</title>
<g id="a_node9"><a xlink:title=" ">
<polygon fill="#ffffff" stroke="#bfbfbf" points="2541.5,-112.5 2541.5,-131.5 2597.5,-131.5 2597.5,-112.5 2541.5,-112.5"/>
<text text-anchor="middle" x="2569.5" y="-119.5" font-family="Helvetica,sans-Serif" font-size="10.00" fill="#000000">QWidget</text>
</a>
</g>
</g>
<!-- Node1&#45;&gt;Node9 -->
<g id="edge8" class="edge">
<title>Node1&#45;&gt;Node9</title>
<path fill="none" stroke="#191970" d="M1520.2889,-574.8762C1741.9451,-572.2191 2527.3234,-560.2687 2565.5,-524 2674.2861,-420.6504 2591.1579,-337.8721 2598.5,-188 2598.9349,-179.1218 2600.9672,-176.5396 2598.5,-168 2595.6062,-157.9836 2589.8122,-148.0485 2584.1587,-139.9887"/>
<polygon fill="#191970" stroke="#191970" points="2586.8003,-137.6776 2577.9977,-131.7814 2581.2021,-141.88 2586.8003,-137.6776"/>
</g>
<!-- Node10 -->
<g id="node10" class="node">
<title>Node10</title>
<g id="a_node10"><a xlink:title=" ">
<polygon fill="#ffffff" stroke="#bfbfbf" points="2870.5,-168.5 2870.5,-187.5 2944.5,-187.5 2944.5,-168.5 2870.5,-168.5"/>
<text text-anchor="middle" x="2907.5" y="-175.5" font-family="Helvetica,sans-Serif" font-size="10.00" fill="#000000">QGridLayout</text>
</a>
</g>
</g>
<!-- Node1&#45;&gt;Node10 -->
<g id="edge9" class="edge">
<title>Node1&#45;&gt;Node10</title>
<path fill="none" stroke="#191970" d="M1520.1397,-574.4455C1733.794,-570.3323 2480.3624,-554.0891 2716.5,-524 2854.5116,-506.4143 3022.5,-597.1274 3022.5,-458 3022.5,-458 3022.5,-458 3022.5,-290 3022.5,-243.2547 2973.1324,-209.6844 2939.0883,-192.0917"/>
<polygon fill="#191970" stroke="#191970" points="2940.4598,-188.8651 2929.9462,-187.5557 2937.3485,-195.1357 2940.4598,-188.8651"/>
</g>
<!-- Node11 -->
<g id="node11" class="node">
<title>Node11</title>
<g id="a_node11"><a xlink:title=" ">
<polygon fill="#ffffff" stroke="#bfbfbf" points="1515.5,-392.5 1515.5,-411.5 1589.5,-411.5 1589.5,-392.5 1515.5,-392.5"/>
<text text-anchor="middle" x="1552.5" y="-399.5" font-family="Helvetica,sans-Serif" font-size="10.00" fill="#000000">QInputDialog</text>
</a>
</g>
</g>
<!-- Node1&#45;&gt;Node11 -->
<g id="edge10" class="edge">
<title>Node1&#45;&gt;Node11</title>
<path fill="none" stroke="#191970" d="M1469.7518,-560.4596C1481.377,-536.4868 1505.0592,-488.2136 1526.5,-448 1531.3392,-438.9237 1536.9271,-428.9737 1541.6795,-420.6564"/>
<polygon fill="#191970" stroke="#191970" points="1544.8258,-422.206 1546.7796,-411.7929 1538.7586,-418.7148 1544.8258,-422.206"/>
</g>
<!-- Node12 -->
<g id="node12" class="node">
<title>Node12</title>
<g id="a_node12"><a xlink:title=" ">
<polygon fill="#ffffff" stroke="#bfbfbf" points="1825.5,-392.5 1825.5,-411.5 1887.5,-411.5 1887.5,-392.5 1825.5,-392.5"/>
<text text-anchor="middle" x="1856.5" y="-399.5" font-family="Helvetica,sans-Serif" font-size="10.00" fill="#000000">QToolBar</text>
</a>
</g>
</g>
<!-- Node1&#45;&gt;Node12 -->
<g id="edge11" class="edge">
<title>Node1&#45;&gt;Node12</title>
<path fill="none" stroke="#191970" d="M1520.3759,-562.8404C1556.5211,-554.0103 1603.6061,-540.8049 1643.5,-524 1716.6342,-493.193 1796.0761,-442.6506 1833.9512,-417.3855"/>
<polygon fill="#191970" stroke="#191970" points="1836.3091,-420.0178 1842.6557,-411.5342 1832.4039,-414.2084 1836.3091,-420.0178"/>
</g>
<!-- Node13 -->
<g id="node13" class="node">
<title>Node13</title>
<g id="a_node13"><a xlink:title=" ">
<polygon fill="#ffffff" stroke="#bfbfbf" points="3202.5,-504.5 3202.5,-523.5 3276.5,-523.5 3276.5,-504.5 3202.5,-504.5"/>
<text text-anchor="middle" x="3239.5" y="-511.5" font-family="Helvetica,sans-Serif" font-size="10.00" fill="#000000">QToolButton</text>
</a>
</g>
</g>
<!-- Node1&#45;&gt;Node13 -->
<g id="edge12" class="edge">
<title>Node1&#45;&gt;Node13</title>
<path fill="none" stroke="#191970" d="M1520.1472,-575.0494C1781.2225,-572.8137 2854.4605,-561.4768 3188.5,-524 3189.7609,-523.8585 3191.0372,-523.7024 3192.3233,-523.5337"/>
<polygon fill="#191970" stroke="#191970" points="3192.9212,-526.9832 3202.2855,-522.0275 3191.8747,-520.0619 3192.9212,-526.9832"/>
</g>
<!-- Node14 -->
<g id="node14" class="node">
<title>Node14</title>
<g id="a_node14"><a xlink:title=" ">
<polygon fill="#ffffff" stroke="#bfbfbf" points="3294.5,-504.5 3294.5,-523.5 3382.5,-523.5 3382.5,-504.5 3294.5,-504.5"/>
<text text-anchor="middle" x="3338.5" y="-511.5" font-family="Helvetica,sans-Serif" font-size="10.00" fill="#000000">QFontDatabase</text>
</a>
</g>
</g>
<!-- Node1&#45;&gt;Node14 -->
<g id="edge13" class="edge">
<title>Node1&#45;&gt;Node14</title>
<path fill="none" stroke="#191970" d="M1520.1917,-575.0999C1787.8001,-573.0574 2910.6163,-562.386 3284.3005,-523.9332"/>
<polygon fill="#191970" stroke="#191970" points="3284.754,-527.4049 3294.3315,-522.8748 3284.0194,-520.4436 3284.754,-527.4049"/>
</g>
<!-- Node15 -->
<g id="node15" class="node">
<title>Node15</title>
<g id="a_node15"><a xlink:title=" ">
<polygon fill="#ffffff" stroke="#bfbfbf" points="978,-56.5 978,-75.5 1031,-75.5 1031,-56.5 978,-56.5"/>
<text text-anchor="middle" x="1004.5" y="-63.5" font-family="Helvetica,sans-Serif" font-size="10.00" fill="#000000">QImage</text>
</a>
</g>
</g>
<!-- Node1&#45;&gt;Node15 -->
<g id="edge14" class="edge">
<title>Node1&#45;&gt;Node15</title>
<path fill="none" stroke="#191970" d="M1404.6967,-574.6718C1215.3925,-571.6278 621.6773,-559.3352 543.5,-524 505.9837,-507.0431 478.5,-499.1705 478.5,-458 478.5,-458 478.5,-458 478.5,-178 478.5,-127.9262 847.8714,-83.1257 967.5552,-69.9237"/>
<polygon fill="#191970" stroke="#191970" points="968.1321,-73.3815 977.6924,-68.8154 967.3713,-66.423 968.1321,-73.3815"/>
</g>
<!-- Node16 -->
<g id="node16" class="node">
<title>Node16</title>
<g id="a_node16"><a xlink:title=" ">
<polygon fill="#ffffff" stroke="#bfbfbf" points="726.5,-112.5 726.5,-131.5 808.5,-131.5 808.5,-112.5 726.5,-112.5"/>
<text text-anchor="middle" x="767.5" y="-119.5" font-family="Helvetica,sans-Serif" font-size="10.00" fill="#000000">QMediaPlayer</text>
</a>
</g>
</g>
<!-- Node1&#45;&gt;Node16 -->
<g id="edge15" class="edge">
<title>Node1&#45;&gt;Node16</title>
<path fill="none" stroke="#191970" d="M1404.8254,-573.4986C1228.1942,-567.152 702.191,-546.5604 628.5,-524 573.2533,-507.0863 516.5,-515.7778 516.5,-458 516.5,-458 516.5,-458 516.5,-234 516.5,-194.9495 541.0443,-188.1409 574.5,-168 618.028,-141.7954 675.4678,-130.5167 716.338,-125.6634"/>
<polygon fill="#191970" stroke="#191970" points="716.7954,-129.1343 726.3532,-124.5628 716.0307,-122.1762 716.7954,-129.1343"/>
</g>
<!-- Node17 -->
<g id="node17" class="node">
<title>Node17</title>
<g id="a_node17"><a xlink:title=" ">
<polygon fill="#ffffff" stroke="#bfbfbf" points="621,-168.5 621,-187.5 706,-187.5 706,-168.5 621,-168.5"/>
<text text-anchor="middle" x="663.5" y="-175.5" font-family="Helvetica,sans-Serif" font-size="10.00" fill="#000000">QMediaPlaylist</text>
</a>
</g>
</g>
<!-- Node1&#45;&gt;Node17 -->
<g id="edge16" class="edge">
<title>Node1&#45;&gt;Node17</title>
<path fill="none" stroke="#191970" d="M1404.7335,-572.8493C1224.6619,-563.8255 685.5,-530.734 685.5,-458 685.5,-458 685.5,-458 685.5,-290 685.5,-257.1132 676.254,-219.7958 669.7501,-197.6138"/>
<polygon fill="#191970" stroke="#191970" points="673.0104,-196.3059 666.7462,-187.7614 666.3147,-198.3474 673.0104,-196.3059"/>
</g>
<!-- Node18 -->
<g id="node18" class="node">
<title>Node18</title>
<g id="a_node18"><a xlink:title=" ">
<polygon fill="#ffffff" stroke="#bfbfbf" points="827,-112.5 827,-131.5 910,-131.5 910,-112.5 827,-112.5"/>
<text text-anchor="middle" x="868.5" y="-119.5" font-family="Helvetica,sans-Serif" font-size="10.00" fill="#000000">QVideoWidget</text>
</a>
</g>
</g>
<!-- Node1&#45;&gt;Node18 -->
<g id="edge17" class="edge">
<title>Node1&#45;&gt;Node18</title>
<path fill="none" stroke="#191970" d="M1404.6659,-574.1254C1204.6642,-568.6153 554.5,-544.0831 554.5,-458 554.5,-458 554.5,-458 554.5,-234 554.5,-195.2415 577.7826,-187.1143 611.5,-168 689.5909,-123.7304 723.7514,-147.1969 816.6741,-132.0175"/>
<polygon fill="#191970" stroke="#191970" points="817.5157,-135.4236 826.7648,-130.2561 816.3119,-128.5279 817.5157,-135.4236"/>
</g>
<!-- Node19 -->
<g id="node19" class="node">
<title>Node19</title>
<g id="a_node19"><a xlink:href="mainwindow_8h.html" target="_top" xlink:title=" ">
<polygon fill="#ffffff" stroke="#000000" points="3096.5,-112.5 3096.5,-131.5 3176.5,-131.5 3176.5,-112.5 3096.5,-112.5"/>
<text text-anchor="middle" x="3136.5" y="-119.5" font-family="Helvetica,sans-Serif" font-size="10.00" fill="#000000">mainwindow.h</text>
</a>
</g>
</g>
<!-- Node1&#45;&gt;Node19 -->
<g id="edge18" class="edge">
<title>Node1&#45;&gt;Node19</title>
<path fill="none" stroke="#191970" d="M1520.0772,-574.6306C1781.0025,-570.546 2846.1211,-552.2681 2992.5,-524 3076.9824,-507.6851 3174.5,-544.0433 3174.5,-458 3174.5,-458 3174.5,-458 3174.5,-234 3174.5,-199.6118 3158.2366,-162.2832 3146.989,-140.5791"/>
<polygon fill="#191970" stroke="#191970" points="3149.931,-138.6605 3142.107,-131.5166 3143.7683,-141.9804 3149.931,-138.6605"/>
</g>
<!-- Node22 -->
<g id="node22" class="node">
<title>Node22</title>
<g id="a_node22"><a xlink:href="main_8h.html" target="_top" xlink:title=" ">
<polygon fill="#ffffff" stroke="#000000" points="2510.5,-504.5 2510.5,-523.5 2556.5,-523.5 2556.5,-504.5 2510.5,-504.5"/>
<text text-anchor="middle" x="2533.5" y="-511.5" font-family="Helvetica,sans-Serif" font-size="10.00" fill="#000000">main.h</text>
</a>
</g>
</g>
<!-- Node1&#45;&gt;Node22 -->
<g id="edge21" class="edge">
<title>Node1&#45;&gt;Node22</title>
<path fill="none" stroke="#191970" d="M1520.198,-574.2528C1708.8378,-569.9198 2306.0995,-554.1145 2496.5,-524 2497.757,-523.8012 2499.0326,-523.5763 2500.3172,-523.3303"/>
<polygon fill="#191970" stroke="#191970" points="2501.1867,-526.7222 2510.1758,-521.1145 2499.6516,-519.8926 2501.1867,-526.7222"/>
</g>
<!-- Node35 -->
<g id="node35" class="node">
<title>Node35</title>
<g id="a_node35"><a xlink:href="scene_8h.html" target="_top" xlink:title=" ">
<polygon fill="#ffffff" stroke="#000000" points="2097.5,-224.5 2097.5,-243.5 2149.5,-243.5 2149.5,-224.5 2097.5,-224.5"/>
<text text-anchor="middle" x="2123.5" y="-231.5" font-family="Helvetica,sans-Serif" font-size="10.00" fill="#000000">scene.h</text>
</a>
</g>
</g>
<!-- Node1&#45;&gt;Node35 -->
<g id="edge128" class="edge">
<title>Node1&#45;&gt;Node35</title>
<path fill="none" stroke="#191970" d="M1520.1422,-571.7444C1685.9767,-560.1757 2152.5,-521.9479 2152.5,-458 2152.5,-458 2152.5,-458 2152.5,-346 2152.5,-312.5134 2140.2005,-275.1413 2131.6215,-253.1469"/>
<polygon fill="#191970" stroke="#191970" points="2134.7799,-251.6216 2127.779,-243.6693 2128.2928,-254.2517 2134.7799,-251.6216"/>
</g>
<!-- Node43 -->
<g id="node43" class="node">
<title>Node43</title>
<g id="a_node43"><a xlink:href="graphicsmanager_8h.html" target="_top" xlink:title=" ">
<polygon fill="#ffffff" stroke="#000000" points="1510,-112.5 1510,-131.5 1613,-131.5 1613,-112.5 1510,-112.5"/>
<text text-anchor="middle" x="1561.5" y="-119.5" font-family="Helvetica,sans-Serif" font-size="10.00" fill="#000000">graphicsmanager.h</text>
</a>
</g>
</g>
<!-- Node1&#45;&gt;Node43 -->
<g id="edge129" class="edge">
<title>Node1&#45;&gt;Node43</title>
<path fill="none" stroke="#191970" d="M1447.6563,-560.2253C1428.75,-539.0891 1398.5,-498.8831 1398.5,-458 1398.5,-458 1398.5,-458 1398.5,-346 1398.5,-260.662 1412.7331,-230.8136 1470.5,-168 1483.9473,-153.3779 1503.0913,-142.7361 1520.3537,-135.3946"/>
<polygon fill="#191970" stroke="#191970" points="1521.7198,-138.6178 1529.7022,-131.6512 1519.1177,-132.1194 1521.7198,-138.6178"/>
</g>
<!-- Node45 -->
<g id="node45" class="node">
<title>Node45</title>
<g id="a_node45"><a xlink:href="view_8h.html" target="_top" xlink:title=" ">
<polygon fill="#ffffff" stroke="#000000" points="2318,-280.5 2318,-299.5 2363,-299.5 2363,-280.5 2318,-280.5"/>
<text text-anchor="middle" x="2340.5" y="-287.5" font-family="Helvetica,sans-Serif" font-size="10.00" fill="#000000">view.h</text>
</a>
</g>
</g>
<!-- Node1&#45;&gt;Node45 -->
<g id="edge127" class="edge">
<title>Node1&#45;&gt;Node45</title>
<path fill="none" stroke="#191970" d="M1520.2621,-574.9621C1736.0367,-572.2005 2482.5,-555.5943 2482.5,-458 2482.5,-458 2482.5,-458 2482.5,-402 2482.5,-346.3351 2414.3976,-314.0546 2372.5183,-299.4663"/>
<polygon fill="#191970" stroke="#191970" points="2373.5939,-296.1356 2363.0003,-296.296 2371.3818,-302.7769 2373.5939,-296.1356"/>
</g>
<!-- Node47 -->
<g id="node47" class="node">
<title>Node47</title>
<g id="a_node47"><a xlink:href="tooltipmenu_8h.html" target="_top" xlink:title=" ">
<polygon fill="#ffffff" stroke="#000000" points="2741,-224.5 2741,-243.5 2816,-243.5 2816,-224.5 2741,-224.5"/>
<text text-anchor="middle" x="2778.5" y="-231.5" font-family="Helvetica,sans-Serif" font-size="10.00" fill="#000000">tooltipmenu.h</text>
</a>
</g>
</g>
<!-- Node1&#45;&gt;Node47 -->
<g id="edge131" class="edge">
<title>Node1&#45;&gt;Node47</title>
<path fill="none" stroke="#191970" d="M1520.1056,-575.1256C1746.2981,-573.3738 2566.5821,-564.2774 2675.5,-524 2720.0314,-507.5325 2759.5,-505.4787 2759.5,-458 2759.5,-458 2759.5,-458 2759.5,-346 2759.5,-313.2688 2767.4852,-275.9052 2773.1022,-253.6716"/>
<polygon fill="#191970" stroke="#191970" points="2776.5415,-254.3545 2775.6965,-243.7934 2769.7711,-252.5763 2776.5415,-254.3545"/>
</g>
<!-- Node49 -->
<g id="node49" class="node">
<title>Node49</title>
<g id="a_node49"><a xlink:href="maprenderer_8h.html" target="_top" xlink:title=" ">
<polygon fill="#ffffff" stroke="#000000" points="1031.5,-224.5 1031.5,-243.5 1113.5,-243.5 1113.5,-224.5 1031.5,-224.5"/>
<text text-anchor="middle" x="1072.5" y="-231.5" font-family="Helvetica,sans-Serif" font-size="10.00" fill="#000000">maprenderer.h</text>
</a>
</g>
</g>
<!-- Node1&#45;&gt;Node49 -->
<g id="edge140" class="edge">
<title>Node1&#45;&gt;Node49</title>
<path fill="none" stroke="#191970" d="M1404.6283,-572.7274C1304.4628,-567.226 1103.3677,-552.8851 1039.5,-524 999.3461,-505.8398 965.5,-502.0695 965.5,-458 965.5,-458 965.5,-458 965.5,-346 965.5,-300.7199 1011.7892,-266.5518 1043.4759,-248.4668"/>
<polygon fill="#191970" stroke="#191970" points="1045.2896,-251.464 1052.3741,-243.5861 1041.9232,-245.3266 1045.2896,-251.464"/>
</g>
<!-- Node56 -->
<g id="node56" class="node">
<title>Node56</title>
<g id="a_node56"><a xlink:href="routeListInterface_8h.html" target="_top" xlink:title=" ">
<polygon fill="#ffffff" stroke="#000000" points="1792.5,-280.5 1792.5,-299.5 1892.5,-299.5 1892.5,-280.5 1792.5,-280.5"/>
<text text-anchor="middle" x="1842.5" y="-287.5" font-family="Helvetica,sans-Serif" font-size="10.00" fill="#000000">routeListInterface.h</text>
</a>
</g>
</g>
<!-- Node1&#45;&gt;Node56 -->
<g id="edge139" class="edge">
<title>Node1&#45;&gt;Node56</title>
<path fill="none" stroke="#191970" d="M1497.9639,-560.4062C1571.0689,-528.7828 1735.3014,-454.9552 1778.5,-412 1808.4621,-382.2067 1827.5492,-335.4354 1836.5022,-309.3062"/>
<polygon fill="#191970" stroke="#191970" points="1839.8358,-310.3729 1839.6276,-299.7801 1833.1846,-308.1907 1839.8358,-310.3729"/>
</g>
<!-- Node60 -->
<g id="node60" class="node">
<title>Node60</title>
<g id="a_node60"><a xlink:href="routeinterface_8h.html" target="_top" xlink:title=" ">
<polygon fill="#ffffff" stroke="#000000" points="1684,-392.5 1684,-411.5 1769,-411.5 1769,-392.5 1684,-392.5"/>
<text text-anchor="middle" x="1726.5" y="-399.5" font-family="Helvetica,sans-Serif" font-size="10.00" fill="#000000">routeinterface.h</text>
</a>
</g>
</g>
<!-- Node1&#45;&gt;Node60 -->
<g id="edge138" class="edge">
<title>Node1&#45;&gt;Node60</title>
<path fill="none" stroke="#191970" d="M1477.376,-560.4102C1503.4342,-534.629 1559.873,-481.6328 1615.5,-448 1637.9462,-434.4288 1665.1218,-423.0915 1686.9655,-415.0678"/>
<polygon fill="#191970" stroke="#191970" points="1688.3576,-418.287 1696.5904,-411.6183 1685.9959,-411.6974 1688.3576,-418.287"/>
</g>
<!-- Node63 -->
<g id="node63" class="node">
<title>Node63</title>
<g id="a_node63"><a xlink:href="sidepanel_8h.html" target="_top" xlink:title=" ">
<polygon fill="#ffffff" stroke="#000000" points="2644.5,-336.5 2644.5,-355.5 2712.5,-355.5 2712.5,-336.5 2644.5,-336.5"/>
<text text-anchor="middle" x="2678.5" y="-343.5" font-family="Helvetica,sans-Serif" font-size="10.00" fill="#000000">sidepanel.h</text>
</a>
</g>
</g>
<!-- Node1&#45;&gt;Node63 -->
<g id="edge130" class="edge">
<title>Node1&#45;&gt;Node63</title>
<path fill="none" stroke="#191970" d="M1520.0898,-575.046C1752.6605,-572.954 2612.1948,-562.6265 2654.5,-524 2698.9507,-483.4145 2690.0127,-402.8308 2682.9263,-365.6437"/>
<polygon fill="#191970" stroke="#191970" points="2686.2996,-364.6728 2680.8476,-355.5884 2679.4446,-366.0899 2686.2996,-364.6728"/>
</g>
<!-- Node65 -->
<g id="node65" class="node">
<title>Node65</title>
<g id="a_node65"><a xlink:href="gameloop_8h.html" target="_top" xlink:title=" ">
<polygon fill="#ffffff" stroke="#000000" points="1427.5,-392.5 1427.5,-411.5 1497.5,-411.5 1497.5,-392.5 1427.5,-392.5"/>
<text text-anchor="middle" x="1462.5" y="-399.5" font-family="Helvetica,sans-Serif" font-size="10.00" fill="#000000">gameloop.h</text>
</a>
</g>
</g>
<!-- Node1&#45;&gt;Node65 -->
<g id="edge132" class="edge">
<title>Node1&#45;&gt;Node65</title>
<path fill="none" stroke="#191970" d="M1462.5,-560.4065C1462.5,-529.1485 1462.5,-457.3214 1462.5,-422.1492"/>
<polygon fill="#191970" stroke="#191970" points="1466.0001,-421.738 1462.5,-411.738 1459.0001,-421.738 1466.0001,-421.738"/>
</g>
<!-- Node66 -->
<g id="node66" class="node">
<title>Node66</title>
<g id="a_node66"><a xlink:href="renderthread_8h.html" target="_top" xlink:title=" ">
<polygon fill="#ffffff" stroke="#000000" points="817.5,-280.5 817.5,-299.5 899.5,-299.5 899.5,-280.5 817.5,-280.5"/>
<text text-anchor="middle" x="858.5" y="-287.5" font-family="Helvetica,sans-Serif" font-size="10.00" fill="#000000">renderthread.h</text>
</a>
</g>
</g>
<!-- Node1&#45;&gt;Node66 -->
<g id="edge141" class="edge">
<title>Node1&#45;&gt;Node66</title>
<path fill="none" stroke="#191970" d="M1404.5934,-572.0544C1279.2875,-564.2559 991.0449,-544.3436 951.5,-524 916.7751,-506.1361 893.5,-497.0505 893.5,-458 893.5,-458 893.5,-458 893.5,-402 893.5,-367.8821 878.5205,-330.4701 868.1609,-308.676"/>
<polygon fill="#191970" stroke="#191970" points="871.2308,-306.9879 863.6644,-299.5717 864.9545,-310.0877 871.2308,-306.9879"/>
</g>
<!-- Node67 -->
<g id="node67" class="node">
<title>Node67</title>
<g id="a_node67"><a xlink:href="videowidget_8h.html" target="_top" xlink:title=" ">
<polygon fill="#ffffff" stroke="#000000" points="1252.5,-280.5 1252.5,-299.5 1332.5,-299.5 1332.5,-280.5 1252.5,-280.5"/>
<text text-anchor="middle" x="1292.5" y="-287.5" font-family="Helvetica,sans-Serif" font-size="10.00" fill="#000000">videowidget.h</text>
</a>
</g>
</g>
<!-- Node1&#45;&gt;Node67 -->
<g id="edge144" class="edge">
<title>Node1&#45;&gt;Node67</title>
<path fill="none" stroke="#191970" d="M1430.6158,-560.3675C1414.9617,-551.5957 1396.8603,-539.2561 1384.5,-524 1329.7613,-456.4369 1304.5058,-352.3376 1295.9933,-309.469"/>
<polygon fill="#191970" stroke="#191970" points="1299.407,-308.6849 1294.1032,-299.5132 1292.5298,-309.9906 1299.407,-308.6849"/>
</g>
<!-- Node69 -->
<g id="node69" class="node">
<title>Node69</title>
<g id="a_node69"><a xlink:href="infowidget_8h.html" target="_top" xlink:title=" ">
<polygon fill="#ffffff" stroke="#000000" points="2962.5,-168.5 2962.5,-187.5 3032.5,-187.5 3032.5,-168.5 2962.5,-168.5"/>
<text text-anchor="middle" x="2997.5" y="-175.5" font-family="Helvetica,sans-Serif" font-size="10.00" fill="#000000">infowidget.h</text>
</a>
</g>
</g>
<!-- Node1&#45;&gt;Node69 -->
<g id="edge151" class="edge">
<title>Node1&#45;&gt;Node69</title>
<path fill="none" stroke="#191970" d="M1520.3267,-575.3376C1751.4109,-574.3881 2608.9454,-567.9167 2876.5,-524 2978.0755,-507.3273 3098.5,-560.9347 3098.5,-458 3098.5,-458 3098.5,-458 3098.5,-290 3098.5,-245.8652 3054.7112,-211.2933 3024.7988,-192.8258"/>
<polygon fill="#191970" stroke="#191970" points="3026.4108,-189.7126 3016.025,-187.6188 3022.8383,-195.7323 3026.4108,-189.7126"/>
</g>
<!-- Node20 -->
<g id="node20" class="node">
<title>Node20</title>
<g id="a_node20"><a xlink:title=" ">
<polygon fill="#ffffff" stroke="#bfbfbf" points="3048,-56.5 3048,-75.5 3131,-75.5 3131,-56.5 3048,-56.5"/>
<text text-anchor="middle" x="3089.5" y="-63.5" font-family="Helvetica,sans-Serif" font-size="10.00" fill="#000000">QMainWindow</text>
</a>
</g>
</g>
<!-- Node19&#45;&gt;Node20 -->
<g id="edge19" class="edge">
<title>Node19&#45;&gt;Node20</title>
<path fill="none" stroke="#191970" d="M3128.3132,-112.2455C3121.6411,-104.2958 3112.0521,-92.8706 3104.0747,-83.3656"/>
<polygon fill="#191970" stroke="#191970" points="3106.7026,-81.0524 3097.593,-75.6427 3101.3408,-85.5525 3106.7026,-81.0524"/>
</g>
<!-- Node21 -->
<g id="node21" class="node">
<title>Node21</title>
<g id="a_node21"><a xlink:title=" ">
<polygon fill="#ffffff" stroke="#bfbfbf" points="3149,-56.5 3149,-75.5 3216,-75.5 3216,-56.5 3149,-56.5"/>
<text text-anchor="middle" x="3182.5" y="-63.5" font-family="Helvetica,sans-Serif" font-size="10.00" fill="#000000">QKeyEvent</text>
</a>
</g>
</g>
<!-- Node19&#45;&gt;Node21 -->
<g id="edge20" class="edge">
<title>Node19&#45;&gt;Node21</title>
<path fill="none" stroke="#191970" d="M3144.5126,-112.2455C3150.9768,-104.3761 3160.2385,-93.101 3167.9983,-83.6542"/>
<polygon fill="#191970" stroke="#191970" points="3170.9364,-85.5916 3174.5792,-75.6427 3165.5273,-81.1484 3170.9364,-85.5916"/>
</g>
<!-- Node22&#45;&gt;Node19 -->
<g id="edge22" class="edge">
<title>Node22&#45;&gt;Node19</title>
<path fill="none" stroke="#191970" d="M2556.7284,-509.7985C2592.2244,-503.0289 2661.8157,-488.3744 2718.5,-468 2851.8579,-420.0662 2889.5648,-400.4736 2989.5,-300 3043.4946,-245.7146 3098.7645,-173.3245 3123.3377,-140.0814"/>
<polygon fill="#191970" stroke="#191970" points="3126.3283,-141.9222 3129.428,-131.7909 3120.6869,-137.7779 3126.3283,-141.9222"/>
</g>
<!-- Node23 -->
<g id="node23" class="node">
<title>Node23</title>
<g id="a_node23"><a xlink:href="datamodel_8h.html" target="_top" xlink:title=" ">
<polygon fill="#ffffff" stroke="#000000" points="2501,-168.5 2501,-187.5 2574,-187.5 2574,-168.5 2501,-168.5"/>
<text text-anchor="middle" x="2537.5" y="-175.5" font-family="Helvetica,sans-Serif" font-size="10.00" fill="#000000">datamodel.h</text>
</a>
</g>
</g>
<!-- Node22&#45;&gt;Node23 -->
<g id="edge23" class="edge">
<title>Node22&#45;&gt;Node23</title>
<path fill="none" stroke="#191970" d="M2532.4971,-504.4242C2530.5615,-485.0891 2526.5,-439.9907 2526.5,-402 2526.5,-402 2526.5,-402 2526.5,-290 2526.5,-257.5562 2531.1282,-220.078 2534.3805,-197.7472"/>
<polygon fill="#191970" stroke="#191970" points="2537.8868,-197.9687 2535.924,-187.5573 2530.9657,-196.9203 2537.8868,-197.9687"/>
</g>
<!-- Node25 -->
<g id="node25" class="node">
<title>Node25</title>
<g id="a_node25"><a xlink:title=" ">
<polygon fill="#ffffff" stroke="#bfbfbf" points="2973,-112.5 2973,-131.5 3022,-131.5 3022,-112.5 2973,-112.5"/>
<text text-anchor="middle" x="2997.5" y="-119.5" font-family="Helvetica,sans-Serif" font-size="10.00" fill="#000000">QLabel</text>
</a>
</g>
</g>
<!-- Node22&#45;&gt;Node25 -->
<g id="edge33" class="edge">
<title>Node22&#45;&gt;Node25</title>
<path fill="none" stroke="#191970" d="M2556.576,-508.222C2642.2622,-485.3721 2943.0472,-392.4066 3056.5,-188 3067.5452,-168.1001 3046.0695,-149.1381 3026.0012,-136.6878"/>
<polygon fill="#191970" stroke="#191970" points="3027.6954,-133.624 3017.2944,-131.6063 3024.167,-139.6698 3027.6954,-133.624"/>
</g>
<!-- Node29 -->
<g id="node29" class="node">
<title>Node29</title>
<g id="a_node29"><a xlink:href="client_8h.html" target="_top" xlink:title=" ">
<polygon fill="#ffffff" stroke="#000000" points="1545,-336.5 1545,-355.5 1592,-355.5 1592,-336.5 1545,-336.5"/>
<text text-anchor="middle" x="1568.5" y="-343.5" font-family="Helvetica,sans-Serif" font-size="10.00" fill="#000000">client.h</text>
</a>
</g>
</g>
<!-- Node22&#45;&gt;Node29 -->
<g id="edge34" class="edge">
<title>Node22&#45;&gt;Node29</title>
<path fill="none" stroke="#191970" d="M2510.491,-513.231C2406.2965,-509.6307 1978.0775,-493.5326 1846.5,-468 1767.9929,-452.7657 1748.0377,-445.671 1675.5,-412 1644.3195,-397.5265 1611.0047,-375.8803 1589.984,-361.3656"/>
<polygon fill="#191970" stroke="#191970" points="1591.9712,-358.4843 1581.7699,-355.6233 1587.9605,-364.2215 1591.9712,-358.4843"/>
</g>
<!-- Node59 -->
<g id="node59" class="node">
<title>Node59</title>
<g id="a_node59"><a xlink:href="menubar_8h.html" target="_top" xlink:title=" ">
<polygon fill="#ffffff" stroke="#000000" points="1855,-448.5 1855,-467.5 1918,-467.5 1918,-448.5 1855,-448.5"/>
<text text-anchor="middle" x="1886.5" y="-455.5" font-family="Helvetica,sans-Serif" font-size="10.00" fill="#000000">menubar.h</text>
</a>
</g>
</g>
<!-- Node22&#45;&gt;Node59 -->
<g id="edge98" class="edge">
<title>Node22&#45;&gt;Node59</title>
<path fill="none" stroke="#191970" d="M2510.4729,-512.0069C2415.4328,-503.7809 2052.8536,-472.3985 1928.5843,-461.6425"/>
<polygon fill="#191970" stroke="#191970" points="1928.6029,-458.1311 1918.3383,-460.7557 1927.9992,-465.1051 1928.6029,-458.1311"/>
</g>
<!-- Node22&#45;&gt;Node63 -->
<g id="edge118" class="edge">
<title>Node22&#45;&gt;Node63</title>
<path fill="none" stroke="#191970" d="M2535.5659,-504.209C2540.7569,-481.7413 2556.2969,-425.8197 2588.5,-392 2602.2833,-377.5247 2621.6189,-366.824 2638.8371,-359.4045"/>
<polygon fill="#191970" stroke="#191970" points="2640.1951,-362.6307 2648.1362,-355.6171 2637.5546,-356.1478 2640.1951,-362.6307"/>
</g>
<!-- Node23&#45;&gt;Node9 -->
<g id="edge26" class="edge">
<title>Node23&#45;&gt;Node9</title>
<path fill="none" stroke="#191970" d="M2543.074,-168.2455C2547.4331,-160.617 2553.6211,-149.7881 2558.9133,-140.5267"/>
<polygon fill="#191970" stroke="#191970" points="2562.0673,-142.0616 2563.9899,-131.6427 2555.9896,-138.5886 2562.0673,-142.0616"/>
</g>
<!-- Node23&#45;&gt;Node16 -->
<g id="edge27" class="edge">
<title>Node23&#45;&gt;Node16</title>
<path fill="none" stroke="#191970" d="M2500.7174,-176.2351C2454.2974,-174.0553 2371.9964,-170.3485 2301.5,-168 1975.0277,-157.1242 1161.4455,-168.2617 818.6169,-131.8986"/>
<polygon fill="#191970" stroke="#191970" points="818.9326,-128.4124 808.6124,-130.8088 818.1745,-135.3712 818.9326,-128.4124"/>
</g>
<!-- Node23&#45;&gt;Node18 -->
<g id="edge28" class="edge">
<title>Node23&#45;&gt;Node18</title>
<path fill="none" stroke="#191970" d="M2500.7164,-176.2639C2454.2954,-174.1137 2371.9933,-170.4375 2301.5,-168 1704.3093,-147.3508 1553.6119,-173.3976 957.5,-132 945.3818,-131.1584 932.3712,-129.8992 920.1415,-128.5556"/>
<polygon fill="#191970" stroke="#191970" points="920.4199,-125.0648 910.0889,-127.4144 919.6303,-132.0201 920.4199,-125.0648"/>
</g>
<!-- Node23&#45;&gt;Node19 -->
<g id="edge29" class="edge">
<title>Node23&#45;&gt;Node19</title>
<path fill="none" stroke="#191970" d="M2574.0664,-174.6215C2655.9753,-167.048 2860.4179,-148.1121 3031.5,-132 3049.1641,-130.3364 3068.4981,-128.4997 3085.7076,-126.8591"/>
<polygon fill="#191970" stroke="#191970" points="3086.4921,-130.3002 3096.1145,-125.8662 3085.8273,-123.3319 3086.4921,-130.3002"/>
</g>
<!-- Node24 -->
<g id="node24" class="node">
<title>Node24</title>
<g id="a_node24"><a xlink:title=" ">
<polygon fill="#ffffff" stroke="#bfbfbf" points="1843,-56.5 1843,-75.5 1884,-75.5 1884,-56.5 1843,-56.5"/>
<text text-anchor="middle" x="1863.5" y="-63.5" font-family="Helvetica,sans-Serif" font-size="10.00" fill="#000000">string</text>
</a>
</g>
</g>
<!-- Node23&#45;&gt;Node24 -->
<g id="edge24" class="edge">
<title>Node23&#45;&gt;Node24</title>
<path fill="none" stroke="#191970" d="M2500.7842,-171.8989C2381.2838,-152.0412 2004.8027,-89.4806 1894.2868,-71.1159"/>
<polygon fill="#191970" stroke="#191970" points="1894.5889,-67.6182 1884.1504,-69.4315 1893.4414,-74.5235 1894.5889,-67.6182"/>
</g>
<!-- Node23&#45;&gt;Node25 -->
<g id="edge25" class="edge">
<title>Node23&#45;&gt;Node25</title>
<path fill="none" stroke="#191970" d="M2574.3661,-173.5119C2661.258,-162.9338 2877.9384,-136.5553 2962.7152,-126.2347"/>
<polygon fill="#191970" stroke="#191970" points="2963.3448,-129.684 2972.8485,-125.0011 2962.4988,-122.7353 2963.3448,-129.684"/>
</g>
<!-- Node26 -->
<g id="node26" class="node">
<title>Node26</title>
<g id="a_node26"><a xlink:href="player_8h.html" target="_top" xlink:title=" ">
<polygon fill="#ffffff" stroke="#000000" points="2386.5,-112.5 2386.5,-131.5 2438.5,-131.5 2438.5,-112.5 2386.5,-112.5"/>
<text text-anchor="middle" x="2412.5" y="-119.5" font-family="Helvetica,sans-Serif" font-size="10.00" fill="#000000">player.h</text>
</a>
</g>
</g>
<!-- Node23&#45;&gt;Node26 -->
<g id="edge30" class="edge">
<title>Node23&#45;&gt;Node26</title>
<path fill="none" stroke="#191970" d="M2516.0117,-168.3733C2495.856,-159.3435 2465.512,-145.7494 2442.882,-135.6111"/>
<polygon fill="#191970" stroke="#191970" points="2444.2649,-132.3955 2433.7079,-131.5011 2441.4029,-138.7838 2444.2649,-132.3955"/>
</g>
<!-- Node27 -->
<g id="node27" class="node">
<title>Node27</title>
<g id="a_node27"><a xlink:href="highlighter_8h.html" target="_top" xlink:title=" ">
<polygon fill="#ffffff" stroke="#000000" points="2348.5,-56.5 2348.5,-75.5 2418.5,-75.5 2418.5,-56.5 2348.5,-56.5"/>
<text text-anchor="middle" x="2383.5" y="-63.5" font-family="Helvetica,sans-Serif" font-size="10.00" fill="#000000">highlighter.h</text>
</a>
</g>
</g>
<!-- Node26&#45;&gt;Node27 -->
<g id="edge31" class="edge">
<title>Node26&#45;&gt;Node27</title>
<path fill="none" stroke="#191970" d="M2407.4486,-112.2455C2403.4981,-104.617 2397.8903,-93.7881 2393.0942,-84.5267"/>
<polygon fill="#191970" stroke="#191970" points="2396.2001,-82.9131 2388.4935,-75.6427 2389.9841,-86.1321 2396.2001,-82.9131"/>
</g>
<!-- Node28 -->
<g id="node28" class="node">
<title>Node28</title>
<g id="a_node28"><a xlink:title=" ">
<polygon fill="#ffffff" stroke="#bfbfbf" points="2299.5,-.5 2299.5,-19.5 2403.5,-19.5 2403.5,-.5 2299.5,-.5"/>
<text text-anchor="middle" x="2351.5" y="-7.5" font-family="Helvetica,sans-Serif" font-size="10.00" fill="#000000">QGraphicsRectItem</text>
</a>
</g>
</g>
<!-- Node27&#45;&gt;Node28 -->
<g id="edge32" class="edge">
<title>Node27&#45;&gt;Node28</title>
<path fill="none" stroke="#191970" d="M2377.926,-56.2455C2373.5669,-48.617 2367.3789,-37.7881 2362.0867,-28.5267"/>
<polygon fill="#191970" stroke="#191970" points="2365.0104,-26.5886 2357.0101,-19.6427 2358.9327,-30.0616 2365.0104,-26.5886"/>
</g>
<!-- Node29&#45;&gt;Node23 -->
<g id="edge59" class="edge">
<title>Node29&#45;&gt;Node23</title>
<path fill="none" stroke="#191970" d="M1592.2818,-344.5892C1692.8822,-338.5503 2080.719,-314.5256 2133.5,-300 2170.4871,-289.821 2252.0766,-236.0411 2288.5,-224 2293.305,-222.4115 2420.0972,-199.2957 2490.8501,-186.4526"/>
<polygon fill="#191970" stroke="#191970" points="2491.6468,-189.8653 2500.8613,-184.6361 2490.397,-182.9778 2491.6468,-189.8653"/>
</g>
<!-- Node30 -->
<g id="node30" class="node">
<title>Node30</title>
<g id="a_node30"><a xlink:title=" ">
<polygon fill="#ffffff" stroke="#bfbfbf" points="1502.5,-280.5 1502.5,-299.5 1576.5,-299.5 1576.5,-280.5 1502.5,-280.5"/>
<text text-anchor="middle" x="1539.5" y="-287.5" font-family="Helvetica,sans-Serif" font-size="10.00" fill="#000000">QTcpSocket</text>
</a>
</g>
</g>
<!-- Node29&#45;&gt;Node30 -->
<g id="edge35" class="edge">
<title>Node29&#45;&gt;Node30</title>
<path fill="none" stroke="#191970" d="M1563.4486,-336.2455C1559.4981,-328.617 1553.8903,-317.7881 1549.0942,-308.5267"/>
<polygon fill="#191970" stroke="#191970" points="1552.2001,-306.9131 1544.4935,-299.6427 1545.9841,-310.1321 1552.2001,-306.9131"/>
</g>
<!-- Node31 -->
<g id="node31" class="node">
<title>Node31</title>
<g id="a_node31"><a xlink:title=" ">
<polygon fill="#ffffff" stroke="#bfbfbf" points="1294,-112.5 1294,-131.5 1347,-131.5 1347,-112.5 1294,-112.5"/>
<text text-anchor="middle" x="1320.5" y="-119.5" font-family="Helvetica,sans-Serif" font-size="10.00" fill="#000000">QObject</text>
</a>
</g>
</g>
<!-- Node29&#45;&gt;Node31 -->
<g id="edge36" class="edge">
<title>Node29&#45;&gt;Node31</title>
<path fill="none" stroke="#191970" d="M1544.7678,-336.8905C1526.3864,-329.0355 1501.0185,-316.3766 1482.5,-300 1428.7409,-252.4587 1440.8951,-218.0876 1389.5,-168 1377.0177,-155.8352 1360.9103,-144.8887 1347.398,-136.7287"/>
<polygon fill="#191970" stroke="#191970" points="1348.9333,-133.572 1338.5344,-131.5439 1345.3989,-139.6142 1348.9333,-133.572"/>
</g>
<!-- Node32 -->
<g id="node32" class="node">
<title>Node32</title>
<g id="a_node32"><a xlink:title=" ">
<polygon fill="#ffffff" stroke="#bfbfbf" points="724.5,-168.5 724.5,-187.5 782.5,-187.5 782.5,-168.5 724.5,-168.5"/>
<text text-anchor="middle" x="753.5" y="-175.5" font-family="Helvetica,sans-Serif" font-size="10.00" fill="#000000">QThread</text>
</a>
</g>
</g>
<!-- Node29&#45;&gt;Node32 -->
<g id="edge37" class="edge">
<title>Node29&#45;&gt;Node32</title>
<path fill="none" stroke="#191970" d="M1544.901,-345.1761C1463.5828,-341.666 1188.5472,-324.1989 979.5,-244 961.681,-237.1639 959.3468,-230.7629 941.5,-224 914.4953,-213.7668 838.999,-196.5374 792.3037,-186.3203"/>
<polygon fill="#191970" stroke="#191970" points="793.0363,-182.8979 782.5205,-184.19 791.5469,-189.7376 793.0363,-182.8979"/>
</g>
<!-- Node33 -->
<g id="node33" class="node">
<title>Node33</title>
<g id="a_node33"><a xlink:title=" ">
<polygon fill="#ffffff" stroke="#bfbfbf" points="1595,-280.5 1595,-299.5 1660,-299.5 1660,-280.5 1595,-280.5"/>
<text text-anchor="middle" x="1627.5" y="-287.5" font-family="Helvetica,sans-Serif" font-size="10.00" fill="#000000">QStringList</text>
</a>
</g>
</g>
<!-- Node29&#45;&gt;Node33 -->
<g id="edge38" class="edge">
<title>Node29&#45;&gt;Node33</title>
<path fill="none" stroke="#191970" d="M1578.777,-336.2455C1587.3218,-328.1352 1599.6778,-316.4075 1609.8085,-306.7919"/>
<polygon fill="#191970" stroke="#191970" points="1612.4972,-309.0655 1617.3408,-299.6427 1607.6782,-303.9884 1612.4972,-309.0655"/>
</g>
<!-- Node34 -->
<g id="node34" class="node">
<title>Node34</title>
<g id="a_node34"><a xlink:title=" ">
<polygon fill="#ffffff" stroke="#bfbfbf" points="1223.5,-112.5 1223.5,-131.5 1273.5,-131.5 1273.5,-112.5 1223.5,-112.5"/>
<text text-anchor="middle" x="1248.5" y="-119.5" font-family="Helvetica,sans-Serif" font-size="10.00" fill="#000000">QString</text>
</a>
</g>
</g>
<!-- Node29&#45;&gt;Node34 -->
<g id="edge39" class="edge">
<title>Node29&#45;&gt;Node34</title>
<path fill="none" stroke="#191970" d="M1544.9722,-338.396C1522.202,-330.5105 1487.1659,-316.9642 1459.5,-300 1379.6909,-251.0626 1298.8253,-173.1695 1264.9836,-139.0031"/>
<polygon fill="#191970" stroke="#191970" points="1267.2807,-136.3471 1257.7758,-131.6665 1262.2872,-141.2528 1267.2807,-136.3471"/>
</g>
<!-- Node29&#45;&gt;Node35 -->
<g id="edge40" class="edge">
<title>Node29&#45;&gt;Node35</title>
<path fill="none" stroke="#191970" d="M1592.1308,-343.9783C1646.9506,-339.019 1786.8474,-324.8118 1901.5,-300 1968.2203,-285.5611 2044.0836,-261.2458 2087.6183,-246.5043"/>
<polygon fill="#191970" stroke="#191970" points="2088.8482,-249.7828 2097.1837,-243.2429 2086.5892,-243.1574 2088.8482,-249.7828"/>
</g>
<!-- Node40 -->
<g id="node40" class="node">
<title>Node40</title>
<g id="a_node40"><a xlink:href="maptile_8h.html" target="_top" xlink:title=" ">
<polygon fill="#ffffff" stroke="#000000" points="1479.5,-168.5 1479.5,-187.5 1535.5,-187.5 1535.5,-168.5 1479.5,-168.5"/>
<text text-anchor="middle" x="1507.5" y="-175.5" font-family="Helvetica,sans-Serif" font-size="10.00" fill="#000000">maptile.h</text>
</a>
</g>
</g>
<!-- Node29&#45;&gt;Node40 -->
<g id="edge58" class="edge">
<title>Node29&#45;&gt;Node40</title>
<path fill="none" stroke="#191970" d="M1544.8916,-338.5983C1527.2555,-331.6851 1504.3931,-319.4598 1493.5,-300 1475.2762,-267.4443 1488.51,-222.3877 1498.7089,-197.1346"/>
<polygon fill="#191970" stroke="#191970" points="1502.0654,-198.1882 1502.7935,-187.6184 1495.6329,-195.4272 1502.0654,-198.1882"/>
</g>
<!-- Node29&#45;&gt;Node45 -->
<g id="edge60" class="edge">
<title>Node29&#45;&gt;Node45</title>
<path fill="none" stroke="#191970" d="M1592.341,-344.8065C1700.3141,-339.3486 2144.1845,-316.3323 2282.5,-300 2290.7766,-299.0227 2299.6667,-297.6531 2307.9393,-296.2403"/>
<polygon fill="#191970" stroke="#191970" points="2308.7614,-299.6491 2317.9951,-294.454 2307.537,-292.757 2308.7614,-299.6491"/>
</g>
<!-- Node29&#45;&gt;Node49 -->
<g id="edge69" class="edge">
<title>Node29&#45;&gt;Node49</title>
<path fill="none" stroke="#191970" d="M1544.9684,-343.5793C1480.2216,-336.7747 1300.4615,-316.8727 1243.5,-300 1223.2908,-294.0138 1219.993,-288.0168 1200.5,-280 1170.8093,-267.7893 1136.554,-255.5746 1110.9561,-246.8038"/>
<polygon fill="#191970" stroke="#191970" points="1111.8452,-243.4094 1101.2507,-243.5012 1109.5901,-250.0362 1111.8452,-243.4094"/>
</g>
<!-- Node29&#45;&gt;Node56 -->
<g id="edge93" class="edge">
<title>Node29&#45;&gt;Node56</title>
<path fill="none" stroke="#191970" d="M1592.3364,-341.1283C1635.1682,-332.3744 1726.2343,-313.7623 1785.8697,-301.5741"/>
<polygon fill="#191970" stroke="#191970" points="1786.7921,-304.958 1795.8887,-299.5264 1785.3904,-298.0998 1786.7921,-304.958"/>
</g>
<!-- Node35&#45;&gt;Node23 -->
<g id="edge57" class="edge">
<title>Node35&#45;&gt;Node23</title>
<path fill="none" stroke="#191970" d="M2149.7116,-230.4545C2218.2033,-221.1899 2403.2514,-196.1592 2490.6179,-184.3415"/>
<polygon fill="#191970" stroke="#191970" points="2491.3332,-187.7767 2500.7738,-182.9678 2490.3948,-180.8399 2491.3332,-187.7767"/>
</g>
<!-- Node35&#45;&gt;Node26 -->
<g id="edge55" class="edge">
<title>Node35&#45;&gt;Node26</title>
<path fill="none" stroke="#191970" d="M2149.5364,-229.261C2213.1415,-217.6749 2371.3441,-188.7981 2372.5,-188 2388.804,-176.7424 2399.619,-156.4686 2405.8462,-141.351"/>
<polygon fill="#191970" stroke="#191970" points="2409.1634,-142.4743 2409.4355,-131.8829 2402.618,-139.9929 2409.1634,-142.4743"/>
</g>
<!-- Node35&#45;&gt;Node27 -->
<g id="edge56" class="edge">
<title>Node35&#45;&gt;Node27</title>
<path fill="none" stroke="#191970" d="M2149.5773,-228.9894C2204.4488,-218.3544 2327.3954,-194.0056 2334.5,-188 2365.4629,-161.8268 2377.0485,-113.2402 2381.2403,-85.9436"/>
<polygon fill="#191970" stroke="#191970" points="2384.757,-86.0529 2382.6191,-75.676 2377.8193,-85.1212 2384.757,-86.0529"/>
</g>
<!-- Node35&#45;&gt;Node28 -->
<g id="edge44" class="edge">
<title>Node35&#45;&gt;Node28</title>
<path fill="none" stroke="#191970" d="M2149.5063,-225.4611C2151.1923,-224.9539 2152.8677,-224.4625 2154.5,-224 2219.2163,-205.663 2253.1432,-234.7554 2301.5,-188 2304.4246,-185.1722 2334.0879,-75.1401 2346.2949,-29.5133"/>
<polygon fill="#191970" stroke="#191970" points="2349.7338,-30.2015 2348.9336,-19.6369 2342.971,-28.3946 2349.7338,-30.2015"/>
</g>
<!-- Node36 -->
<g id="node36" class="node">
<title>Node36</title>
<g id="a_node36"><a xlink:title=" ">
<polygon fill="#ffffff" stroke="#bfbfbf" points="2076.5,-168.5 2076.5,-187.5 2170.5,-187.5 2170.5,-168.5 2076.5,-168.5"/>
<text text-anchor="middle" x="2123.5" y="-175.5" font-family="Helvetica,sans-Serif" font-size="10.00" fill="#000000">QGraphicsScene</text>
</a>
</g>
</g>
<!-- Node35&#45;&gt;Node36 -->
<g id="edge41" class="edge">
<title>Node35&#45;&gt;Node36</title>
<path fill="none" stroke="#191970" d="M2123.5,-224.2455C2123.5,-216.9382 2123.5,-206.6944 2123.5,-197.7046"/>
<polygon fill="#191970" stroke="#191970" points="2127.0001,-197.6426 2123.5,-187.6427 2120.0001,-197.6427 2127.0001,-197.6426"/>
</g>
<!-- Node37 -->
<g id="node37" class="node">
<title>Node37</title>
<g id="a_node37"><a xlink:title=" ">
<polygon fill="#ffffff" stroke="#bfbfbf" points="2188.5,-168.5 2188.5,-187.5 2292.5,-187.5 2292.5,-168.5 2188.5,-168.5"/>
<text text-anchor="middle" x="2240.5" y="-175.5" font-family="Helvetica,sans-Serif" font-size="10.00" fill="#000000">QGraphicsTextItem</text>
</a>
</g>
</g>
<!-- Node35&#45;&gt;Node37 -->
<g id="edge42" class="edge">
<title>Node35&#45;&gt;Node37</title>
<path fill="none" stroke="#191970" d="M2143.613,-224.3733C2162.3103,-215.4241 2190.3744,-201.9917 2211.4934,-191.8835"/>
<polygon fill="#191970" stroke="#191970" points="2213.1405,-194.9755 2220.6494,-187.5011 2210.1183,-188.6614 2213.1405,-194.9755"/>
</g>
<!-- Node38 -->
<g id="node38" class="node">
<title>Node38</title>
<g id="a_node38"><a xlink:title=" ">
<polygon fill="#ffffff" stroke="#bfbfbf" points="1844,-168.5 1844,-187.5 1927,-187.5 1927,-168.5 1844,-168.5"/>
<text text-anchor="middle" x="1885.5" y="-175.5" font-family="Helvetica,sans-Serif" font-size="10.00" fill="#000000">QGraphicsItem</text>
</a>
</g>
</g>
<!-- Node35&#45;&gt;Node38 -->
<g id="edge43" class="edge">
<title>Node35&#45;&gt;Node38</title>
<path fill="none" stroke="#191970" d="M2097.1205,-227.7931C2058.2836,-218.655 1985.0022,-201.4123 1935.7074,-189.8135"/>
<polygon fill="#191970" stroke="#191970" points="1936.4156,-186.3846 1925.8798,-187.5011 1934.8123,-193.1986 1936.4156,-186.3846"/>
</g>
<!-- Node39 -->
<g id="node39" class="node">
<title>Node39</title>
<g id="a_node39"><a xlink:title=" ">
<polygon fill="#ffffff" stroke="#bfbfbf" points="1945,-168.5 1945,-187.5 2058,-187.5 2058,-168.5 1945,-168.5"/>
<text text-anchor="middle" x="2001.5" y="-175.5" font-family="Helvetica,sans-Serif" font-size="10.00" fill="#000000">QGraphicsEllipseItem</text>
</a>
</g>
</g>
<!-- Node35&#45;&gt;Node39 -->
<g id="edge45" class="edge">
<title>Node35&#45;&gt;Node39</title>
<path fill="none" stroke="#191970" d="M2102.5275,-224.3733C2082.9433,-215.3838 2053.5039,-201.8706 2031.449,-191.7471"/>
<polygon fill="#191970" stroke="#191970" points="2032.7473,-188.4919 2022.1989,-187.5011 2029.8271,-194.8538 2032.7473,-188.4919"/>
</g>
<!-- Node35&#45;&gt;Node40 -->
<g id="edge46" class="edge">
<title>Node35&#45;&gt;Node40</title>
<path fill="none" stroke="#191970" d="M2097.4247,-231.6295C2000.4936,-222.8176 1660.6312,-191.921 1545.7652,-181.4787"/>
<polygon fill="#191970" stroke="#191970" points="1545.9553,-177.9816 1535.6795,-180.5618 1545.3215,-184.9528 1545.9553,-177.9816"/>
</g>
<!-- Node35&#45;&gt;Node43 -->
<g id="edge54" class="edge">
<title>Node35&#45;&gt;Node43</title>
<path fill="none" stroke="#191970" d="M2097.1692,-230.4953C2046.3561,-223.5773 1931.3258,-207.1635 1835.5,-188 1754.5905,-171.8195 1661.3829,-148.3178 1607.1865,-134.1609"/>
<polygon fill="#191970" stroke="#191970" points="1607.7684,-130.6952 1597.2077,-131.5446 1605.9931,-137.4664 1607.7684,-130.6952"/>
</g>
<!-- Node41 -->
<g id="node41" class="node">
<title>Node41</title>
<g id="a_node41"><a xlink:title=" ">
<polygon fill="#ffffff" stroke="#bfbfbf" points="1372,-112.5 1372,-131.5 1489,-131.5 1489,-112.5 1372,-112.5"/>
<text text-anchor="middle" x="1430.5" y="-119.5" font-family="Helvetica,sans-Serif" font-size="10.00" fill="#000000">QGraphicsPixmapItem</text>
</a>
</g>
</g>
<!-- Node40&#45;&gt;Node41 -->
<g id="edge47" class="edge">
<title>Node40&#45;&gt;Node41</title>
<path fill="none" stroke="#191970" d="M1494.0876,-168.2455C1482.4943,-159.814 1465.5252,-147.4729 1452.0322,-137.6598"/>
<polygon fill="#191970" stroke="#191970" points="1453.9047,-134.6938 1443.7587,-131.6427 1449.7874,-140.355 1453.9047,-134.6938"/>
</g>
<!-- Node42 -->
<g id="node42" class="node">
<title>Node42</title>
<g id="a_node42"><a xlink:href="city_8h.html" target="_top" xlink:title=" ">
<polygon fill="#ffffff" stroke="#000000" points="1844,-112.5 1844,-131.5 1883,-131.5 1883,-112.5 1844,-112.5"/>
<text text-anchor="middle" x="1863.5" y="-119.5" font-family="Helvetica,sans-Serif" font-size="10.00" fill="#000000">city.h</text>
</a>
</g>
</g>
<!-- Node40&#45;&gt;Node42 -->
<g id="edge48" class="edge">
<title>Node40&#45;&gt;Node42</title>
<path fill="none" stroke="#191970" d="M1535.7323,-173.559C1601.9208,-163.1473 1766.582,-137.2455 1834.0043,-126.6398"/>
<polygon fill="#191970" stroke="#191970" points="1834.6256,-130.0852 1843.9603,-125.0737 1833.5378,-123.1702 1834.6256,-130.0852"/>
</g>
<!-- Node40&#45;&gt;Node43 -->
<g id="edge50" class="edge">
<title>Node40&#45;&gt;Node43</title>
<path fill="none" stroke="#191970" d="M1516.9061,-168.2455C1524.6493,-160.2155 1535.812,-148.6394 1545.0318,-139.0781"/>
<polygon fill="#191970" stroke="#191970" points="1547.7798,-141.2706 1552.2017,-131.6427 1542.7409,-136.4117 1547.7798,-141.2706"/>
</g>
<!-- Node42&#45;&gt;Node24 -->
<g id="edge49" class="edge">
<title>Node42&#45;&gt;Node24</title>
<path fill="none" stroke="#191970" d="M1863.5,-112.2455C1863.5,-104.9382 1863.5,-94.6944 1863.5,-85.7046"/>
<polygon fill="#191970" stroke="#191970" points="1867.0001,-85.6426 1863.5,-75.6427 1860.0001,-85.6427 1867.0001,-85.6426"/>
</g>
<!-- Node43&#45;&gt;Node15 -->
<g id="edge52" class="edge">
<title>Node43&#45;&gt;Node15</title>
<path fill="none" stroke="#191970" d="M1509.8419,-113.6472C1505.6706,-113.0585 1501.5174,-112.5008 1497.5,-112 1408.9215,-100.9581 1139.5988,-77.5573 1041.0905,-69.1174"/>
<polygon fill="#191970" stroke="#191970" points="1041.2817,-65.621 1031.0197,-68.2557 1040.6849,-72.5955 1041.2817,-65.621"/>
</g>
<!-- Node43&#45;&gt;Node24 -->
<g id="edge53" class="edge">
<title>Node43&#45;&gt;Node24</title>
<path fill="none" stroke="#191970" d="M1613.0725,-112.4369C1676.2734,-100.7175 1781.3071,-81.2411 1832.9384,-71.6671"/>
<polygon fill="#191970" stroke="#191970" points="1833.6238,-75.0997 1842.818,-69.8351 1832.3475,-68.217 1833.6238,-75.0997"/>
</g>
<!-- Node44 -->
<g id="node44" class="node">
<title>Node44</title>
<g id="a_node44"><a xlink:title=" ">
<polygon fill="#ffffff" stroke="#bfbfbf" points="1532.5,-56.5 1532.5,-75.5 1590.5,-75.5 1590.5,-56.5 1532.5,-56.5"/>
<text text-anchor="middle" x="1561.5" y="-63.5" font-family="Helvetica,sans-Serif" font-size="10.00" fill="#000000">QPixmap</text>
</a>
</g>
</g>
<!-- Node43&#45;&gt;Node44 -->
<g id="edge51" class="edge">
<title>Node43&#45;&gt;Node44</title>
<path fill="none" stroke="#191970" d="M1561.5,-112.2455C1561.5,-104.9382 1561.5,-94.6944 1561.5,-85.7046"/>
<polygon fill="#191970" stroke="#191970" points="1565.0001,-85.6426 1561.5,-75.6427 1558.0001,-85.6427 1565.0001,-85.6426"/>
</g>
<!-- Node45&#45;&gt;Node23 -->
<g id="edge63" class="edge">
<title>Node45&#45;&gt;Node23</title>
<path fill="none" stroke="#191970" d="M2353.0787,-280.2894C2370.9933,-266.7105 2405.1652,-241.7266 2436.5,-224 2458.2619,-211.6889 2483.9131,-200.0393 2503.9191,-191.5438"/>
<polygon fill="#191970" stroke="#191970" points="2505.3735,-194.7293 2513.2449,-187.6376 2502.6691,-188.2728 2505.3735,-194.7293"/>
</g>
<!-- Node45&#45;&gt;Node35 -->
<g id="edge62" class="edge">
<title>Node45&#45;&gt;Node35</title>
<path fill="none" stroke="#191970" d="M2317.6873,-284.1129C2280.032,-274.3954 2204.5723,-254.9219 2159.6107,-243.3189"/>
<polygon fill="#191970" stroke="#191970" points="2160.2487,-239.8689 2149.6913,-240.759 2158.4995,-246.6469 2160.2487,-239.8689"/>
</g>
<!-- Node46 -->
<g id="node46" class="node">
<title>Node46</title>
<g id="a_node46"><a xlink:title=" ">
<polygon fill="#ffffff" stroke="#bfbfbf" points="2297,-224.5 2297,-243.5 2384,-243.5 2384,-224.5 2297,-224.5"/>
<text text-anchor="middle" x="2340.5" y="-231.5" font-family="Helvetica,sans-Serif" font-size="10.00" fill="#000000">QGraphicsView</text>
</a>
</g>
</g>
<!-- Node45&#45;&gt;Node46 -->
<g id="edge61" class="edge">
<title>Node45&#45;&gt;Node46</title>
<path fill="none" stroke="#191970" d="M2340.5,-280.2455C2340.5,-272.9382 2340.5,-262.6944 2340.5,-253.7046"/>
<polygon fill="#191970" stroke="#191970" points="2344.0001,-253.6426 2340.5,-243.6427 2337.0001,-253.6427 2344.0001,-253.6426"/>
</g>
<!-- Node45&#45;&gt;Node47 -->
<g id="edge64" class="edge">
<title>Node45&#45;&gt;Node47</title>
<path fill="none" stroke="#191970" d="M2363.1265,-287.1071C2431.5093,-278.3641 2637.0763,-252.0816 2730.8884,-240.0873"/>
<polygon fill="#191970" stroke="#191970" points="2731.4791,-243.5404 2740.9544,-238.8003 2730.5913,-236.5969 2731.4791,-243.5404"/>
</g>
<!-- Node47&#45;&gt;Node9 -->
<g id="edge65" class="edge">
<title>Node47&#45;&gt;Node9</title>
<path fill="none" stroke="#191970" d="M2783.4348,-224.2656C2789.7874,-210.2013 2798.5494,-184.1211 2785.5,-168 2763.5742,-140.9131 2663.8726,-129.0999 2607.9073,-124.5271"/>
<polygon fill="#191970" stroke="#191970" points="2607.9052,-121.0164 2597.6641,-123.731 2607.3628,-127.9954 2607.9052,-121.0164"/>
</g>
<!-- Node47&#45;&gt;Node10 -->
<g id="edge68" class="edge">
<title>Node47&#45;&gt;Node10</title>
<path fill="none" stroke="#191970" d="M2800.6759,-224.3733C2821.4766,-215.3435 2852.7917,-201.7494 2876.1458,-191.6111"/>
<polygon fill="#191970" stroke="#191970" points="2877.8343,-194.6938 2885.6135,-187.5011 2875.0468,-188.2727 2877.8343,-194.6938"/>
</g>
<!-- Node47&#45;&gt;Node25 -->
<g id="edge66" class="edge">
<title>Node47&#45;&gt;Node25</title>
<path fill="none" stroke="#191970" d="M2788.4086,-224.1959C2803.1892,-210.0448 2832.4022,-183.8575 2861.5,-168 2894.0521,-150.26 2934.6864,-137.6061 2963.0234,-130.1167"/>
<polygon fill="#191970" stroke="#191970" points="2964.0524,-133.4661 2972.8692,-127.5912 2962.3131,-126.6856 2964.0524,-133.4661"/>
</g>
<!-- Node48 -->
<g id="node48" class="node">
<title>Node48</title>
<g id="a_node48"><a xlink:title=" ">
<polygon fill="#ffffff" stroke="#bfbfbf" points="2706.5,-168.5 2706.5,-187.5 2776.5,-187.5 2776.5,-168.5 2706.5,-168.5"/>
<text text-anchor="middle" x="2741.5" y="-175.5" font-family="Helvetica,sans-Serif" font-size="10.00" fill="#000000">QGroupBox</text>
</a>
</g>
</g>
<!-- Node47&#45;&gt;Node48 -->
<g id="edge67" class="edge">
<title>Node47&#45;&gt;Node48</title>
<path fill="none" stroke="#191970" d="M2772.0551,-224.2455C2766.9618,-216.5367 2759.7092,-205.5598 2753.548,-196.2348"/>
<polygon fill="#191970" stroke="#191970" points="2756.3038,-194.0566 2747.8711,-187.6427 2750.4635,-197.9155 2756.3038,-194.0566"/>
</g>
<!-- Node49&#45;&gt;Node9 -->
<g id="edge70" class="edge">
<title>Node49&#45;&gt;Node9</title>
<path fill="none" stroke="#191970" d="M1113.6266,-225.3096C1116.6218,-224.8197 1119.6029,-224.3751 1122.5,-224 1386.5548,-189.8107 1456.0354,-218.859 1720.5,-188 1772.0287,-181.9874 1783.9672,-173.9773 1835.5,-168 2106.1556,-136.6068 2175.7023,-151.1308 2447.5,-132 2475.569,-130.0243 2507.2387,-127.4173 2531.2759,-125.3604"/>
<polygon fill="#191970" stroke="#191970" points="2531.7466,-128.8329 2541.4092,-124.4873 2531.1456,-121.8588 2531.7466,-128.8329"/>
</g>
<!-- Node49&#45;&gt;Node16 -->
<g id="edge74" class="edge">
<title>Node49&#45;&gt;Node16</title>
<path fill="none" stroke="#191970" d="M1031.2671,-225.2925C984.3765,-215.1477 910.9017,-198.4469 884.5,-188 850.0022,-174.3496 813.1991,-152.178 790.2772,-137.3468"/>
<polygon fill="#191970" stroke="#191970" points="791.9166,-134.2363 781.6357,-131.6761 788.0761,-140.0887 791.9166,-134.2363"/>
</g>
<!-- Node49&#45;&gt;Node17 -->
<g id="edge75" class="edge">
<title>Node49&#45;&gt;Node17</title>
<path fill="none" stroke="#191970" d="M1031.4224,-229.5434C966.7072,-222.3398 836.8484,-207.1479 716.1825,-188.0229"/>
<polygon fill="#191970" stroke="#191970" points="716.4563,-184.5223 706.0293,-186.4007 715.3518,-191.4347 716.4563,-184.5223"/>
</g>
<!-- Node49&#45;&gt;Node18 -->
<g id="edge73" class="edge">
<title>Node49&#45;&gt;Node18</title>
<path fill="none" stroke="#191970" d="M1031.2115,-226.4157C988.3768,-217.8948 924.9748,-203.2496 905.5,-188 890.353,-176.1393 880.4274,-156.2488 874.7063,-141.3977"/>
<polygon fill="#191970" stroke="#191970" points="877.8984,-139.9258 871.269,-131.6613 871.2977,-142.2561 877.8984,-139.9258"/>
</g>
<!-- Node49&#45;&gt;Node23 -->
<g id="edge77" class="edge">
<title>Node49&#45;&gt;Node23</title>
<path fill="none" stroke="#191970" d="M1113.6147,-225.2119C1116.6127,-224.7449 1119.5976,-224.3322 1122.5,-224 1643.3437,-164.3862 1777.6037,-207.0972 2301.5,-188 2367.1701,-185.6062 2443.0951,-182.2911 2490.7069,-180.146"/>
<polygon fill="#191970" stroke="#191970" points="2490.8832,-183.6417 2500.7149,-179.6935 2490.567,-176.6488 2490.8832,-183.6417"/>
</g>
<!-- Node49&#45;&gt;Node32 -->
<g id="edge72" class="edge">
<title>Node49&#45;&gt;Node32</title>
<path fill="none" stroke="#191970" d="M1031.4494,-226.7936C969.5702,-215.9308 853.2005,-195.5023 792.5315,-184.8519"/>
<polygon fill="#191970" stroke="#191970" points="793.0374,-181.3873 782.5828,-183.1054 791.827,-188.2819 793.0374,-181.3873"/>
</g>
<!-- Node49&#45;&gt;Node40 -->
<g id="edge78" class="edge">
<title>Node49&#45;&gt;Node40</title>
<path fill="none" stroke="#191970" d="M1113.6546,-225.503C1116.6432,-224.9677 1119.6151,-224.4601 1122.5,-224 1248.9593,-203.8312 1400.0718,-188.2361 1469.3667,-181.5545"/>
<polygon fill="#191970" stroke="#191970" points="1469.7561,-185.0333 1479.3772,-180.5966 1469.0892,-178.0651 1469.7561,-185.0333"/>
</g>
<!-- Node49&#45;&gt;Node43 -->
<g id="edge76" class="edge">
<title>Node49&#45;&gt;Node43</title>
<path fill="none" stroke="#191970" d="M1113.6432,-225.3373C1169.4273,-213.5182 1263.9194,-193.2091 1279.5,-188 1299.8725,-181.1888 1303.0349,-174.5279 1323.5,-168 1355.6213,-157.754 1440.7699,-142.3134 1499.9826,-132.1947"/>
<polygon fill="#191970" stroke="#191970" points="1500.7119,-135.621 1509.9836,-130.494 1499.5383,-128.7201 1500.7119,-135.621"/>
</g>
<!-- Node50 -->
<g id="node50" class="node">
<title>Node50</title>
<g id="a_node50"><a xlink:title=" ">
<polygon fill="#ffffff" stroke="#bfbfbf" points="967,-112.5 967,-131.5 1006,-131.5 1006,-112.5 967,-112.5"/>
<text text-anchor="middle" x="986.5" y="-119.5" font-family="Helvetica,sans-Serif" font-size="10.00" fill="#000000">QList</text>
</a>
</g>
</g>
<!-- Node49&#45;&gt;Node50 -->
<g id="edge71" class="edge">
<title>Node49&#45;&gt;Node50</title>
<path fill="none" stroke="#191970" d="M1056.3938,-224.4271C1043.6074,-216.1434 1026.0225,-203.1335 1014.5,-188 1003.9097,-174.0908 996.5117,-155.5773 991.9909,-141.6986"/>
<polygon fill="#191970" stroke="#191970" points="995.2231,-140.2955 988.9762,-131.7382 988.5233,-142.3234 995.2231,-140.2955"/>
</g>
<!-- Node51 -->
<g id="node51" class="node">
<title>Node51</title>
<g id="a_node51"><a xlink:href="point_8h.html" target="_top" xlink:title=" ">
<polygon fill="#ffffff" stroke="#000000" points="1140,-56.5 1140,-75.5 1185,-75.5 1185,-56.5 1140,-56.5"/>
<text text-anchor="middle" x="1162.5" y="-63.5" font-family="Helvetica,sans-Serif" font-size="10.00" fill="#000000">point.h</text>
</a>
</g>
</g>
<!-- Node49&#45;&gt;Node51 -->
<g id="edge79" class="edge">
<title>Node49&#45;&gt;Node51</title>
<path fill="none" stroke="#191970" d="M1063.7035,-224.4852C1052.4794,-211.1389 1035.8371,-186.4297 1047.5,-168 1067.4866,-136.4172 1095.8925,-157.1945 1123.5,-132 1137.7395,-119.0051 1148.3505,-99.5869 1154.8807,-85.1739"/>
<polygon fill="#191970" stroke="#191970" points="1158.2059,-86.2986 1158.9079,-75.727 1151.7666,-83.5535 1158.2059,-86.2986"/>
</g>
<!-- Node52 -->
<g id="node52" class="node">
<title>Node52</title>
<g id="a_node52"><a xlink:href="animationmovement_8h.html" target="_top" xlink:title=" ">
<polygon fill="#ffffff" stroke="#000000" points="1057,-168.5 1057,-187.5 1172,-187.5 1172,-168.5 1057,-168.5"/>
<text text-anchor="middle" x="1114.5" y="-175.5" font-family="Helvetica,sans-Serif" font-size="10.00" fill="#000000">animationmovement.h</text>
</a>
</g>
</g>
<!-- Node49&#45;&gt;Node52 -->
<g id="edge80" class="edge">
<title>Node49&#45;&gt;Node52</title>
<path fill="none" stroke="#191970" d="M1079.8158,-224.2455C1085.7179,-216.3761 1094.1742,-205.101 1101.2594,-195.6542"/>
<polygon fill="#191970" stroke="#191970" points="1104.068,-197.7427 1107.268,-187.6427 1098.4679,-193.5427 1104.068,-197.7427"/>
</g>
<!-- Node54 -->
<g id="node54" class="node">
<title>Node54</title>
<g id="a_node54"><a xlink:href="sprite_8h.html" target="_top" xlink:title=" ">
<polygon fill="#ffffff" stroke="#000000" points="914.5,-168.5 914.5,-187.5 962.5,-187.5 962.5,-168.5 914.5,-168.5"/>
<text text-anchor="middle" x="938.5" y="-175.5" font-family="Helvetica,sans-Serif" font-size="10.00" fill="#000000">sprite.h</text>
</a>
</g>
</g>
<!-- Node49&#45;&gt;Node54 -->
<g id="edge89" class="edge">
<title>Node49&#45;&gt;Node54</title>
<path fill="none" stroke="#191970" d="M1049.4646,-224.3733C1027.7612,-215.3032 995.0382,-201.6279 970.745,-191.4755"/>
<polygon fill="#191970" stroke="#191970" points="971.8111,-188.1278 961.2348,-187.5011 969.1119,-194.5865 971.8111,-188.1278"/>
</g>
<!-- Node55 -->
<g id="node55" class="node">
<title>Node55</title>
<g id="a_node55"><a xlink:href="mousedecor_8h.html" target="_top" xlink:title=" ">
<polygon fill="#ffffff" stroke="#000000" points="1190,-168.5 1190,-187.5 1271,-187.5 1271,-168.5 1190,-168.5"/>
<text text-anchor="middle" x="1230.5" y="-175.5" font-family="Helvetica,sans-Serif" font-size="10.00" fill="#000000">mousedecor.h</text>
</a>
</g>
</g>
<!-- Node49&#45;&gt;Node55 -->
<g id="edge92" class="edge">
<title>Node49&#45;&gt;Node55</title>
<path fill="none" stroke="#191970" d="M1099.6612,-224.3733C1125.7067,-215.1419 1165.2116,-201.1402 1193.9979,-190.9375"/>
<polygon fill="#191970" stroke="#191970" points="1195.437,-194.1408 1203.6933,-187.5011 1193.0985,-187.5429 1195.437,-194.1408"/>
</g>
<!-- Node52&#45;&gt;Node31 -->
<g id="edge87" class="edge">
<title>Node52&#45;&gt;Node31</title>
<path fill="none" stroke="#191970" d="M1149.9127,-168.3733C1187.241,-158.2258 1245.7735,-142.314 1283.6393,-132.0204"/>
<polygon fill="#191970" stroke="#191970" points="1285.005,-135.2762 1293.7366,-129.2755 1283.1687,-128.5214 1285.005,-135.2762"/>
</g>
<!-- Node52&#45;&gt;Node34 -->
<g id="edge86" class="edge">
<title>Node52&#45;&gt;Node34</title>
<path fill="none" stroke="#191970" d="M1137.5354,-168.3733C1159.2388,-159.3032 1191.9618,-145.6279 1216.255,-135.4755"/>
<polygon fill="#191970" stroke="#191970" points="1217.8881,-138.5865 1225.7652,-131.5011 1215.1889,-132.1278 1217.8881,-138.5865"/>
</g>
<!-- Node52&#45;&gt;Node41 -->
<g id="edge88" class="edge">
<title>Node52&#45;&gt;Node41</title>
<path fill="none" stroke="#191970" d="M1168.4633,-168.4369C1223.3395,-158.712 1308.357,-143.6456 1366.575,-133.3285"/>
<polygon fill="#191970" stroke="#191970" points="1367.5235,-136.715 1376.7593,-131.5237 1366.3019,-129.8224 1367.5235,-136.715"/>
</g>
<!-- Node52&#45;&gt;Node50 -->
<g id="edge85" class="edge">
<title>Node52&#45;&gt;Node50</title>
<path fill="none" stroke="#191970" d="M1092.496,-168.3733C1071.2311,-159.0699 1038.8915,-144.9213 1015.5267,-134.6992"/>
<polygon fill="#191970" stroke="#191970" points="1016.6857,-131.386 1006.1212,-130.5843 1013.8799,-137.7991 1016.6857,-131.386"/>
</g>
<!-- Node52&#45;&gt;Node51 -->
<g id="edge81" class="edge">
<title>Node52&#45;&gt;Node51</title>
<path fill="none" stroke="#191970" d="M1127.5295,-168.2569C1137.6409,-159.8744 1150.9965,-146.8147 1157.5,-132 1163.8511,-117.5323 1164.8222,-99.566 1164.3603,-86.033"/>
<polygon fill="#191970" stroke="#191970" points="1167.8428,-85.6428 1163.722,-75.8822 1160.8566,-86.0822 1167.8428,-85.6428"/>
</g>
<!-- Node53 -->
<g id="node53" class="node">
<title>Node53</title>
<g id="a_node53"><a xlink:href="animationentity_8h.html" target="_top" xlink:title=" ">
<polygon fill="#ffffff" stroke="#000000" points="1024,-112.5 1024,-131.5 1115,-131.5 1115,-112.5 1024,-112.5"/>
<text text-anchor="middle" x="1069.5" y="-119.5" font-family="Helvetica,sans-Serif" font-size="10.00" fill="#000000">animationentity.h</text>
</a>
</g>
</g>
<!-- Node52&#45;&gt;Node53 -->
<g id="edge82" class="edge">
<title>Node52&#45;&gt;Node53</title>
<path fill="none" stroke="#191970" d="M1106.6616,-168.2455C1100.338,-160.3761 1091.2776,-149.101 1083.6864,-139.6542"/>
<polygon fill="#191970" stroke="#191970" points="1086.2408,-137.2454 1077.2486,-131.6427 1080.7842,-141.6302 1086.2408,-137.2454"/>
</g>
<!-- Node53&#45;&gt;Node15 -->
<g id="edge83" class="edge">
<title>Node53&#45;&gt;Node15</title>
<path fill="none" stroke="#191970" d="M1058.1779,-112.2455C1048.5777,-103.9746 1034.6108,-91.9416 1023.3305,-82.2232"/>
<polygon fill="#191970" stroke="#191970" points="1025.553,-79.5182 1015.6924,-75.6427 1020.984,-84.8214 1025.553,-79.5182"/>
</g>
<!-- Node53&#45;&gt;Node51 -->
<g id="edge84" class="edge">
<title>Node53&#45;&gt;Node51</title>
<path fill="none" stroke="#191970" d="M1085.6994,-112.2455C1100.1018,-103.5731 1121.3732,-90.7645 1137.8799,-80.825"/>
<polygon fill="#191970" stroke="#191970" points="1139.725,-83.7996 1146.4863,-75.6427 1136.114,-77.8028 1139.725,-83.7996"/>
</g>
<!-- Node54&#45;&gt;Node15 -->
<g id="edge90" class="edge">
<title>Node54&#45;&gt;Node15</title>
<path fill="none" stroke="#191970" d="M939.6867,-168.4278C941.6844,-155.0133 946.6202,-130.2235 957.5,-112 964.2901,-100.6267 974.5786,-90.1144 983.8001,-82.0187"/>
<polygon fill="#191970" stroke="#191970" points="986.09,-84.6662 991.5144,-75.5653 981.5986,-79.2972 986.09,-84.6662"/>
</g>
<!-- Node54&#45;&gt;Node50 -->
<g id="edge91" class="edge">
<title>Node54&#45;&gt;Node50</title>
<path fill="none" stroke="#191970" d="M946.861,-168.2455C953.675,-160.2958 963.4681,-148.8706 971.6152,-139.3656"/>
<polygon fill="#191970" stroke="#191970" points="974.3843,-141.513 978.2349,-131.6427 969.0695,-136.9575 974.3843,-141.513"/>
</g>
<!-- Node56&#45;&gt;Node8 -->
<g id="edge94" class="edge">
<title>Node56&#45;&gt;Node8</title>
<path fill="none" stroke="#191970" d="M1792.3021,-287.1173C1668.273,-279.865 1348.8231,-260.3636 1221.7887,-243.9785"/>
<polygon fill="#191970" stroke="#191970" points="1221.9162,-240.4644 1211.5398,-242.6044 1220.9859,-247.4023 1221.9162,-240.4644"/>
</g>
<!-- Node56&#45;&gt;Node43 -->
<g id="edge97" class="edge">
<title>Node56&#45;&gt;Node43</title>
<path fill="none" stroke="#191970" d="M1836.0381,-280.2075C1825.8422,-265.5772 1804.581,-238.2161 1779.5,-224 1716.466,-188.2719 1682.9416,-224.7536 1620.5,-188 1600.5371,-176.2497 1583.6297,-155.4583 1573.0995,-140.3445"/>
<polygon fill="#191970" stroke="#191970" points="1575.8591,-138.1743 1567.3968,-131.7993 1570.0366,-142.06 1575.8591,-138.1743"/>
</g>
<!-- Node57 -->
<g id="node57" class="node">
<title>Node57</title>
<g id="a_node57"><a xlink:title=" ">
<polygon fill="#ffffff" stroke="#bfbfbf" points="1699,-224.5 1699,-243.5 1770,-243.5 1770,-224.5 1699,-224.5"/>
<text text-anchor="middle" x="1734.5" y="-231.5" font-family="Helvetica,sans-Serif" font-size="10.00" fill="#000000">QListWidget</text>
</a>
</g>
</g>
<!-- Node56&#45;&gt;Node57 -->
<g id="edge95" class="edge">
<title>Node56&#45;&gt;Node57</title>
<path fill="none" stroke="#191970" d="M1823.6878,-280.2455C1806.6527,-271.4125 1781.3425,-258.2887 1762.0319,-248.2758"/>
<polygon fill="#191970" stroke="#191970" points="1763.5853,-245.1388 1753.0966,-243.6427 1760.363,-251.353 1763.5853,-245.1388"/>
</g>
<!-- Node58 -->
<g id="node58" class="node">
<title>Node58</title>
<g id="a_node58"><a xlink:title=" ">
<polygon fill="#ffffff" stroke="#bfbfbf" points="1826.5,-224.5 1826.5,-243.5 1900.5,-243.5 1900.5,-224.5 1826.5,-224.5"/>
<text text-anchor="middle" x="1863.5" y="-231.5" font-family="Helvetica,sans-Serif" font-size="10.00" fill="#000000">QPushButton</text>
</a>
</g>
</g>
<!-- Node56&#45;&gt;Node58 -->
<g id="edge96" class="edge">
<title>Node56&#45;&gt;Node58</title>
<path fill="none" stroke="#191970" d="M1846.1579,-280.2455C1848.9584,-272.7776 1852.909,-262.2427 1856.3324,-253.1137"/>
<polygon fill="#191970" stroke="#191970" points="1859.6499,-254.2349 1859.884,-243.6427 1853.0955,-251.777 1859.6499,-254.2349"/>
</g>
<!-- Node59&#45;&gt;Node11 -->
<g id="edge100" class="edge">
<title>Node59&#45;&gt;Node11</title>
<path fill="none" stroke="#191970" d="M1854.777,-452.6812C1795.7658,-442.7871 1668.8541,-421.5085 1599.7266,-409.9182"/>
<polygon fill="#191970" stroke="#191970" points="1599.9956,-406.4146 1589.5545,-408.2127 1598.8381,-413.3182 1599.9956,-406.4146"/>
</g>
<!-- Node59&#45;&gt;Node12 -->
<g id="edge99" class="edge">
<title>Node59&#45;&gt;Node12</title>
<path fill="none" stroke="#191970" d="M1881.2744,-448.2455C1877.1877,-440.617 1871.3865,-429.7881 1866.425,-420.5267"/>
<polygon fill="#191970" stroke="#191970" points="1869.4732,-418.8047 1861.6657,-411.6427 1863.3028,-422.1103 1869.4732,-418.8047"/>
</g>
<!-- Node59&#45;&gt;Node16 -->
<g id="edge101" class="edge">
<title>Node59&#45;&gt;Node16</title>
<path fill="none" stroke="#191970" d="M1854.902,-455.7554C1779.2933,-450.1969 1582.0676,-434.5887 1418.5,-412 1049.7723,-361.0786 798.6831,-509.7383 611.5,-188 586.6318,-145.2554 661.7479,-130.1885 716.2228,-124.8814"/>
<polygon fill="#191970" stroke="#191970" points="716.8146,-128.3427 726.4659,-123.9721 716.1955,-121.3702 716.8146,-128.3427"/>
</g>
<!-- Node59&#45;&gt;Node23 -->
<g id="edge103" class="edge">
<title>Node59&#45;&gt;Node23</title>
<path fill="none" stroke="#191970" d="M1918.3075,-453.7819C2012.7164,-440.8741 2289.649,-400.0993 2368.5,-356 2441.2191,-315.3301 2501.4431,-232.9481 2525.8377,-196.2967"/>
<polygon fill="#191970" stroke="#191970" points="2528.9615,-197.9146 2531.5025,-187.629 2523.1019,-194.085 2528.9615,-197.9146"/>
</g>
<!-- Node59&#45;&gt;Node35 -->
<g id="edge102" class="edge">
<title>Node59&#45;&gt;Node35</title>
<path fill="none" stroke="#191970" d="M1894.1421,-448.3722C1916.6506,-420.3636 1985.4011,-337.2804 2053.5,-280 2067.2438,-268.4396 2084.0182,-257.3275 2097.7004,-248.9217"/>
<polygon fill="#191970" stroke="#191970" points="2099.8411,-251.7184 2106.6035,-243.5624 2096.2309,-245.7211 2099.8411,-251.7184"/>
</g>
<!-- Node59&#45;&gt;Node45 -->
<g id="edge104" class="edge">
<title>Node59&#45;&gt;Node45</title>
<path fill="none" stroke="#191970" d="M1918.2057,-450.1913C1951.1187,-441.8081 2003.9262,-427.5779 2048.5,-412 2146.1933,-377.8577 2258.2063,-327.9101 2310.5779,-303.8996"/>
<polygon fill="#191970" stroke="#191970" points="2312.3192,-306.9512 2319.9408,-299.5916 2309.3933,-300.592 2312.3192,-306.9512"/>
</g>
<!-- Node59&#45;&gt;Node49 -->
<g id="edge116" class="edge">
<title>Node59&#45;&gt;Node49</title>
<path fill="none" stroke="#191970" d="M1854.9536,-451.5282C1813.6263,-442.957 1738.9529,-427.1511 1675.5,-412 1641.109,-403.7882 1632.8125,-400.5337 1598.5,-392 1426.9331,-349.3305 1378.27,-358.6828 1211.5,-300 1170.6994,-285.6431 1125.9073,-263.0461 1098.4933,-248.3749"/>
<polygon fill="#191970" stroke="#191970" points="1100.0176,-245.2203 1089.5564,-243.5426 1096.6881,-251.3778 1100.0176,-245.2203"/>
</g>
<!-- Node59&#45;&gt;Node56 -->
<g id="edge117" class="edge">
<title>Node59&#45;&gt;Node56</title>
<path fill="none" stroke="#191970" d="M1889.9852,-448.2024C1897.0344,-426.6483 1910.8243,-374.0142 1892.5,-336 1886.658,-323.8805 1876.0958,-313.4289 1866.1795,-305.5649"/>
<polygon fill="#191970" stroke="#191970" points="1868.2367,-302.7331 1858.1194,-299.5879 1864.0671,-308.3558 1868.2367,-302.7331"/>
</g>
<!-- Node59&#45;&gt;Node60 -->
<g id="edge105" class="edge">
<title>Node59&#45;&gt;Node60</title>
<path fill="none" stroke="#191970" d="M1858.995,-448.3733C1832.6198,-439.1419 1792.6149,-425.1402 1763.4642,-414.9375"/>
<polygon fill="#191970" stroke="#191970" points="1764.2409,-411.5012 1753.6461,-411.5011 1761.9284,-418.1082 1764.2409,-411.5012"/>
</g>
<!-- Node60&#45;&gt;Node8 -->
<g id="edge106" class="edge">
<title>Node60&#45;&gt;Node8</title>
<path fill="none" stroke="#191970" d="M1686.9821,-392.4811C1613.4921,-374.7888 1462.1557,-338.4047 1450.5,-336 1359.0451,-317.1318 1327.2954,-341.2109 1243.5,-300 1220.1332,-288.5081 1198.8924,-267.0547 1185.6349,-251.7258"/>
<polygon fill="#191970" stroke="#191970" points="1188.2272,-249.3696 1179.1282,-243.9419 1182.8565,-253.8591 1188.2272,-249.3696"/>
</g>
<!-- Node60&#45;&gt;Node29 -->
<g id="edge115" class="edge">
<title>Node60&#45;&gt;Node29</title>
<path fill="none" stroke="#191970" d="M1699.3388,-392.3733C1672.3462,-382.8062 1630.8975,-368.1156 1601.9055,-357.8399"/>
<polygon fill="#191970" stroke="#191970" points="1602.809,-354.4469 1592.2143,-354.4051 1600.4705,-361.0447 1602.809,-354.4469"/>
</g>
<!-- Node60&#45;&gt;Node43 -->
<g id="edge112" class="edge">
<title>Node60&#45;&gt;Node43</title>
<path fill="none" stroke="#191970" d="M1722.9971,-392.3852C1715.0698,-371.1957 1694.4865,-319.2433 1669.5,-280 1640.8626,-235.0227 1621.1832,-232.9481 1592.5,-188 1582.949,-173.0331 1574.5587,-154.6561 1568.9239,-141.0977"/>
<polygon fill="#191970" stroke="#191970" points="1572.1631,-139.7717 1565.1785,-131.8051 1565.6706,-142.3885 1572.1631,-139.7717"/>
</g>
<!-- Node60&#45;&gt;Node57 -->
<g id="edge107" class="edge">
<title>Node60&#45;&gt;Node57</title>
<path fill="none" stroke="#191970" d="M1730.3624,-392.3228C1733.8038,-383.1446 1738.5833,-368.8807 1740.5,-356 1745.8351,-320.1472 1741.3709,-277.7823 1737.8148,-253.5852"/>
<polygon fill="#191970" stroke="#191970" points="1741.2482,-252.8882 1736.2361,-243.554 1734.3333,-253.9765 1741.2482,-252.8882"/>
</g>
<!-- Node60&#45;&gt;Node58 -->
<g id="edge108" class="edge">
<title>Node60&#45;&gt;Node58</title>
<path fill="none" stroke="#191970" d="M1763.5109,-392.4037C1805.5037,-379.3106 1871.9784,-351.377 1901.5,-300 1911.2266,-283.0726 1897.0912,-263.7153 1883.3843,-250.3626"/>
<polygon fill="#191970" stroke="#191970" points="1885.7201,-247.7559 1875.9677,-243.6157 1881.0096,-252.9339 1885.7201,-247.7559"/>
</g>
<!-- Node61 -->
<g id="node61" class="node">
<title>Node61</title>
<g id="a_node61"><a xlink:href="trainrenderer_8h.html" target="_top" xlink:title=" ">
<polygon fill="#ffffff" stroke="#000000" points="1630,-168.5 1630,-187.5 1711,-187.5 1711,-168.5 1630,-168.5"/>
<text text-anchor="middle" x="1670.5" y="-175.5" font-family="Helvetica,sans-Serif" font-size="10.00" fill="#000000">trainrenderer.h</text>
</a>
</g>
</g>
<!-- Node60&#45;&gt;Node61 -->
<g id="edge109" class="edge">
<title>Node60&#45;&gt;Node61</title>
<path fill="none" stroke="#191970" d="M1725.0417,-392.4146C1721.7983,-371.7072 1713.4051,-321.3267 1702.5,-280 1698.1969,-263.6927 1695.6127,-260.0719 1690.5,-244 1685.5661,-228.4902 1680.2327,-210.8422 1676.3153,-197.7"/>
<polygon fill="#191970" stroke="#191970" points="1679.5975,-196.4575 1673.3976,-187.8662 1672.8867,-198.4487 1679.5975,-196.4575"/>
</g>
<!-- Node62 -->
<g id="node62" class="node">
<title>Node62</title>
<g id="a_node62"><a xlink:href="goodselector_8h.html" target="_top" xlink:title=" ">
<polygon fill="#ffffff" stroke="#000000" points="2275.5,-336.5 2275.5,-355.5 2359.5,-355.5 2359.5,-336.5 2275.5,-336.5"/>
<text text-anchor="middle" x="2317.5" y="-343.5" font-family="Helvetica,sans-Serif" font-size="10.00" fill="#000000">goodselector.h</text>
</a>
</g>
</g>
<!-- Node60&#45;&gt;Node62 -->
<g id="edge113" class="edge">
<title>Node60&#45;&gt;Node62</title>
<path fill="none" stroke="#191970" d="M1769.0595,-397.1024C1784.0477,-395.4224 1801.0155,-393.571 1816.5,-392 1980.083,-375.4038 2173.9879,-358.3422 2265.1697,-350.4735"/>
<polygon fill="#191970" stroke="#191970" points="2265.5841,-353.9508 2275.2467,-349.6052 2264.9831,-346.9767 2265.5841,-353.9508"/>
</g>
<!-- Node61&#45;&gt;Node9 -->
<g id="edge110" class="edge">
<title>Node61&#45;&gt;Node9</title>
<path fill="none" stroke="#191970" d="M1711.2591,-169.98C1716.0462,-169.219 1720.8722,-168.5338 1725.5,-168 2044.6714,-131.1854 2126.9078,-153.1262 2447.5,-132 2475.5775,-130.1498 2507.247,-127.5384 2531.2818,-125.4481"/>
<polygon fill="#191970" stroke="#191970" points="2531.7585,-128.9198 2541.4141,-124.5586 2531.1462,-121.9467 2531.7585,-128.9198"/>
</g>
<!-- Node61&#45;&gt;Node43 -->
<g id="edge111" class="edge">
<title>Node61&#45;&gt;Node43</title>
<path fill="none" stroke="#191970" d="M1651.5136,-168.2455C1634.3208,-159.4125 1608.7762,-146.2887 1589.2868,-136.2758"/>
<polygon fill="#191970" stroke="#191970" points="1590.763,-133.0993 1580.2688,-131.6427 1587.5641,-139.3257 1590.763,-133.0993"/>
</g>
<!-- Node62&#45;&gt;Node9 -->
<g id="edge114" class="edge">
<title>Node62&#45;&gt;Node9</title>
<path fill="none" stroke="#191970" d="M2356.7127,-336.4984C2418.5781,-319.1094 2536.612,-275.6111 2583.5,-188 2591.4166,-173.2078 2586.0916,-154.307 2579.8644,-140.5259"/>
<polygon fill="#191970" stroke="#191970" points="2582.9618,-138.8945 2575.347,-131.5279 2576.7059,-142.0353 2582.9618,-138.8945"/>
</g>
<!-- Node63&#45;&gt;Node9 -->
<g id="edge119" class="edge">
<title>Node63&#45;&gt;Node9</title>
<path fill="none" stroke="#191970" d="M2680.0018,-336.4521C2683.9485,-307.9553 2691.8885,-222.1393 2654.5,-168 2643.3411,-151.8417 2624.6208,-140.8435 2607.5846,-133.6644"/>
<polygon fill="#191970" stroke="#191970" points="2608.4071,-130.2291 2597.8184,-129.8687 2605.8712,-136.7537 2608.4071,-130.2291"/>
</g>
<!-- Node63&#45;&gt;Node10 -->
<g id="edge120" class="edge">
<title>Node63&#45;&gt;Node10</title>
<path fill="none" stroke="#191970" d="M2692.9291,-336.4844C2719.5445,-318.8236 2777.9882,-279.5341 2825.5,-244 2847.4333,-227.5961 2871.7905,-207.7779 2888.2158,-194.1657"/>
<polygon fill="#191970" stroke="#191970" points="2890.5803,-196.7515 2896.0273,-187.6641 2886.1022,-191.3712 2890.5803,-196.7515"/>
</g>
<!-- Node63&#45;&gt;Node23 -->
<g id="edge122" class="edge">
<title>Node63&#45;&gt;Node23</title>
<path fill="none" stroke="#191970" d="M2670.5152,-336.4862C2647.744,-309.3545 2582.2169,-231.2798 2552.4876,-195.8576"/>
<polygon fill="#191970" stroke="#191970" points="2554.8581,-193.2376 2545.7484,-187.8279 2549.4962,-197.7377 2554.8581,-193.2376"/>
</g>
<!-- Node63&#45;&gt;Node25 -->
<g id="edge121" class="edge">
<title>Node63&#45;&gt;Node25</title>
<path fill="none" stroke="#191970" d="M2701.3954,-336.4316C2780.3042,-303.4042 3036.4022,-195.7787 3041.5,-188 3052.749,-170.8353 3035.9913,-151.2893 3020.0216,-137.951"/>
<polygon fill="#191970" stroke="#191970" points="3021.926,-134.9969 3011.8948,-131.5873 3017.6103,-140.5082 3021.926,-134.9969"/>
</g>
<!-- Node64 -->
<g id="node64" class="node">
<title>Node64</title>
<g id="a_node64"><a xlink:href="minimap_8h.html" target="_top" xlink:title=" ">
<polygon fill="#ffffff" stroke="#000000" points="2062.5,-280.5 2062.5,-299.5 2124.5,-299.5 2124.5,-280.5 2062.5,-280.5"/>
<text text-anchor="middle" x="2093.5" y="-287.5" font-family="Helvetica,sans-Serif" font-size="10.00" fill="#000000">minimap.h</text>
</a>
</g>
</g>
<!-- Node63&#45;&gt;Node64 -->
<g id="edge123" class="edge">
<title>Node63&#45;&gt;Node64</title>
<path fill="none" stroke="#191970" d="M2644.0896,-342.706C2542.5403,-332.9851 2244.3868,-304.4439 2134.651,-293.9392"/>
<polygon fill="#191970" stroke="#191970" points="2134.9205,-290.4491 2124.6325,-292.9802 2134.2534,-297.4173 2134.9205,-290.4491"/>
</g>
<!-- Node64&#45;&gt;Node9 -->
<g id="edge124" class="edge">
<title>Node64&#45;&gt;Node9</title>
<path fill="none" stroke="#191970" d="M2117.3318,-280.3646C2140.2169,-271.0963 2175.7513,-256.6643 2206.5,-244 2227.8696,-235.1986 2232.3482,-230.5895 2254.5,-224 2338.5541,-198.9963 2365.8673,-217.3617 2448.5,-188 2467.7267,-181.1682 2515.0362,-154.148 2544.4791,-136.8698"/>
<polygon fill="#191970" stroke="#191970" points="2546.5145,-139.7329 2553.3525,-131.6402 2542.9603,-133.7023 2546.5145,-139.7329"/>
</g>
<!-- Node64&#45;&gt;Node49 -->
<g id="edge125" class="edge">
<title>Node64&#45;&gt;Node49</title>
<path fill="none" stroke="#191970" d="M2062.2423,-288.3157C2024.2465,-286.2813 1958.1751,-282.7855 1901.5,-280 1558.6222,-263.1483 1468.2389,-285.6698 1123.6299,-243.9573"/>
<polygon fill="#191970" stroke="#191970" points="1123.9711,-240.473 1113.6208,-242.7364 1123.1235,-247.4215 1123.9711,-240.473"/>
</g>
<!-- Node64&#45;&gt;Node51 -->
<g id="edge126" class="edge">
<title>Node64&#45;&gt;Node51</title>
<path fill="none" stroke="#191970" d="M2069.3898,-280.4849C1979.7041,-245.1489 1668.1301,-122.9307 1621.5,-112 1540.0276,-92.9018 1285.7074,-74.331 1195.0252,-68.1529"/>
<polygon fill="#191970" stroke="#191970" points="1195.2576,-64.6607 1185.0443,-67.4781 1194.7854,-71.6448 1195.2576,-64.6607"/>
</g>
<!-- Node65&#45;&gt;Node23 -->
<g id="edge136" class="edge">
<title>Node65&#45;&gt;Node23</title>
<path fill="none" stroke="#191970" d="M1497.9707,-393.5618C1500.8483,-392.9923 1503.718,-392.4623 1506.5,-392 1697.4098,-360.278 2192.2868,-370.541 2372.5,-300 2425.1443,-279.3934 2429.0038,-257.5581 2474.5,-224 2488.1813,-213.9086 2503.5935,-202.6533 2515.7494,-193.802"/>
<polygon fill="#191970" stroke="#191970" points="2517.9268,-196.5462 2523.954,-187.8328 2513.8085,-190.8858 2517.9268,-196.5462"/>
</g>
<!-- Node65&#45;&gt;Node29 -->
<g id="edge137" class="edge">
<title>Node65&#45;&gt;Node29</title>
<path fill="none" stroke="#191970" d="M1480.9638,-392.2455C1497.6074,-383.4527 1522.2993,-370.4079 1541.2192,-360.4125"/>
<polygon fill="#191970" stroke="#191970" points="1543.0408,-363.4086 1550.2478,-355.6427 1539.7709,-357.2193 1543.0408,-363.4086"/>
</g>
<!-- Node65&#45;&gt;Node32 -->
<g id="edge133" class="edge">
<title>Node65&#45;&gt;Node32</title>
<path fill="none" stroke="#191970" d="M1427.2482,-399.4183C1371.1355,-394.6674 1258.4493,-382.4956 1166.5,-356 1014.8571,-312.3035 845.2148,-226.6454 780.5277,-192.5268"/>
<polygon fill="#191970" stroke="#191970" points="781.8864,-189.2856 771.412,-187.6925 778.6067,-195.4698 781.8864,-189.2856"/>
</g>
<!-- Node65&#45;&gt;Node35 -->
<g id="edge135" class="edge">
<title>Node65&#45;&gt;Node35</title>
<path fill="none" stroke="#191970" d="M1497.5504,-393.9674C1500.5757,-393.2943 1503.5908,-392.6306 1506.5,-392 1555.9506,-381.2815 1903.9548,-314.2693 1952.5,-300 2002.6564,-285.2571 2058.86,-262.2561 2092.6941,-247.6674"/>
<polygon fill="#191970" stroke="#191970" points="2094.256,-250.8049 2102.0323,-243.6091 2091.466,-244.3849 2094.256,-250.8049"/>
</g>
<!-- Node65&#45;&gt;Node49 -->
<g id="edge134" class="edge">
<title>Node65&#45;&gt;Node49</title>
<path fill="none" stroke="#191970" d="M1427.3449,-396.3919C1345.4974,-382.6944 1145.4478,-345.3177 1096.5,-300 1083.5245,-287.9868 1077.5481,-268.4022 1074.8049,-253.6808"/>
<polygon fill="#191970" stroke="#191970" points="1078.2328,-252.9404 1073.2751,-243.5771 1071.3117,-253.9884 1078.2328,-252.9404"/>
</g>
<!-- Node66&#45;&gt;Node32 -->
<g id="edge142" class="edge">
<title>Node66&#45;&gt;Node32</title>
<path fill="none" stroke="#191970" d="M849.5478,-280.4509C831.8025,-261.5227 791.9507,-219.014 769.5574,-195.1279"/>
<polygon fill="#191970" stroke="#191970" points="771.8224,-192.4265 762.4296,-187.5249 766.7156,-197.2141 771.8224,-192.4265"/>
</g>
<!-- Node66&#45;&gt;Node49 -->
<g id="edge143" class="edge">
<title>Node66&#45;&gt;Node49</title>
<path fill="none" stroke="#191970" d="M895.2879,-280.3733C931.5661,-270.8799 987.1236,-256.3415 1026.3446,-246.0781"/>
<polygon fill="#191970" stroke="#191970" points="1027.404,-249.4188 1036.1921,-243.5011 1025.6318,-242.6468 1027.404,-249.4188"/>
</g>
<!-- Node67&#45;&gt;Node8 -->
<g id="edge148" class="edge">
<title>Node67&#45;&gt;Node8</title>
<path fill="none" stroke="#191970" d="M1271.6994,-280.3733C1252.2757,-271.3838 1223.0776,-257.8706 1201.2036,-247.7471"/>
<polygon fill="#191970" stroke="#191970" points="1202.5745,-244.5249 1192.0292,-243.5011 1199.6344,-250.8776 1202.5745,-244.5249"/>
</g>
<!-- Node67&#45;&gt;Node9 -->
<g id="edge145" class="edge">
<title>Node67&#45;&gt;Node9</title>
<path fill="none" stroke="#191970" d="M1332.5831,-287.9624C1501.6475,-279.3571 2148.2928,-246.3247 2158.5,-244 2181.0341,-238.8679 2184.3639,-230.642 2206.5,-224 2288.4027,-199.4248 2313.2117,-211.2515 2395.5,-188 2397.2716,-187.4994 2484.7972,-154.2273 2535.0162,-135.1226"/>
<polygon fill="#191970" stroke="#191970" points="2536.4243,-138.3317 2544.5261,-131.5045 2533.9351,-131.7892 2536.4243,-138.3317"/>
</g>
<!-- Node67&#45;&gt;Node16 -->
<g id="edge149" class="edge">
<title>Node67&#45;&gt;Node16</title>
<path fill="none" stroke="#191970" d="M1252.4479,-284.5136C1188.1201,-275.4773 1064.7199,-257.1551 1022.5,-244 1002.377,-237.73 999.3396,-231.1161 979.5,-224 919.4311,-202.4543 896.6788,-218.2727 840.5,-188 817.403,-175.5539 795.7485,-154.2911 782.1167,-139.2674"/>
<polygon fill="#191970" stroke="#191970" points="784.6484,-136.8465 775.4107,-131.6584 779.3969,-141.4748 784.6484,-136.8465"/>
</g>
<!-- Node67&#45;&gt;Node43 -->
<g id="edge150" class="edge">
<title>Node67&#45;&gt;Node43</title>
<path fill="none" stroke="#191970" d="M1301.4678,-280.4692C1322.9931,-258.0685 1380.0729,-201.4433 1437.5,-168 1462.1764,-153.6294 1492.1416,-142.3652 1516.4332,-134.5807"/>
<polygon fill="#191970" stroke="#191970" points="1517.6156,-137.8783 1526.1219,-131.5622 1515.5334,-131.1951 1517.6156,-137.8783"/>
</g>
<!-- Node67&#45;&gt;Node48 -->
<g id="edge146" class="edge">
<title>Node67&#45;&gt;Node48</title>
<path fill="none" stroke="#191970" d="M1332.6713,-281.6399C1404.2297,-267.1291 1558.6409,-237.5381 1690.5,-224 2085.6341,-183.4311 2186.8205,-208.5462 2583.5,-188 2621.4778,-186.0329 2664.5565,-183.2711 2696.129,-181.1482"/>
<polygon fill="#191970" stroke="#191970" points="2696.6304,-184.6223 2706.3711,-180.4548 2696.1575,-177.6383 2696.6304,-184.6223"/>
</g>
<!-- Node68 -->
<g id="node68" class="node">
<title>Node68</title>
<g id="a_node68"><a xlink:title=" ">
<polygon fill="#ffffff" stroke="#bfbfbf" points="1230,-224.5 1230,-243.5 1309,-243.5 1309,-224.5 1230,-224.5"/>
<text text-anchor="middle" x="1269.5" y="-231.5" font-family="Helvetica,sans-Serif" font-size="10.00" fill="#000000">QHBoxLayout</text>
</a>
</g>
</g>
<!-- Node67&#45;&gt;Node68 -->
<g id="edge147" class="edge">
<title>Node67&#45;&gt;Node68</title>
<path fill="none" stroke="#191970" d="M1288.4937,-280.2455C1285.4265,-272.7776 1281.0997,-262.2427 1277.3503,-253.1137"/>
<polygon fill="#191970" stroke="#191970" points="1280.4972,-251.5631 1273.4604,-243.6427 1274.0221,-254.2226 1280.4972,-251.5631"/>
</g>
<!-- Node69&#45;&gt;Node9 -->
<g id="edge153" class="edge">
<title>Node69&#45;&gt;Node9</title>
<path fill="none" stroke="#191970" d="M2962.0223,-169.603C2959.1462,-169.0242 2956.2788,-168.4809 2953.5,-168 2827.6409,-146.2205 2676.7888,-131.4085 2607.588,-125.2356"/>
<polygon fill="#191970" stroke="#191970" points="2607.8597,-121.746 2597.5908,-124.3534 2607.2444,-128.719 2607.8597,-121.746"/>
</g>
<!-- Node69&#45;&gt;Node25 -->
<g id="edge152" class="edge">
<title>Node69&#45;&gt;Node25</title>
<path fill="none" stroke="#191970" d="M2997.5,-168.2455C2997.5,-160.9382 2997.5,-150.6944 2997.5,-141.7046"/>
<polygon fill="#191970" stroke="#191970" points="3001.0001,-141.6426 2997.5,-131.6427 2994.0001,-141.6427 3001.0001,-141.6426"/>
</g>
</g>
</svg>
