<?xml version="1.0" encoding="UTF-8" standalone="no"?>
<!DOCTYPE svg PUBLIC "-//W3C//DTD SVG 1.1//EN"
 "http://www.w3.org/Graphics/SVG/1.1/DTD/svg11.dtd">
<!-- Generated by graphviz version 2.40.1 (20161225.0304)
 -->
<!-- Title: src/application_server/maprenderer.cpp Pages: 1 -->
<!--zoomable 319 -->
<svg id="main" version="1.1" xmlns="http://www.w3.org/2000/svg" xmlns:xlink="http://www.w3.org/1999/xlink" xml:space="preserve" onload="init(evt)">
<style type="text/css"><![CDATA[
.edge:hover path { stroke: red; }
.edge:hover polygon { stroke: red; fill: red; }
]]></style>
<script type="text/javascript"><![CDATA[
var edges = document.getElementsByTagName('g');
if (edges && edges.length) {
  for (var i=0;i<edges.length;i++) {
    if (edges[i].id.substr(0,4)=='edge') {
      edges[i].setAttribute('class','edge');
    }
  }
}
]]></script>
        <defs>
                <circle id="rim" cx="0" cy="0" r="7"/>
                <circle id="rim2" cx="0" cy="0" r="3.5"/>
                <g id="zoomPlus">
                        <use xlink:href="#rim" fill="#404040">
                                <set attributeName="fill" to="#808080" begin="zoomplus.mouseover" end="zoomplus.mouseout"/>
                        </use>
                        <path d="M-4,0h8M0,-4v8" fill="none" stroke="white" stroke-width="1.5" pointer-events="none"/>
                </g>
                <g id="zoomMin">
                        <use xlink:href="#rim" fill="#404040">
                                <set attributeName="fill" to="#808080" begin="zoomminus.mouseover" end="zoomminus.mouseout"/>
                        </use>
                        <path d="M-4,0h8" fill="none" stroke="white" stroke-width="1.5" pointer-events="none"/>
                </g>
                <g id="dirArrow">
                        <path fill="none" stroke="white" stroke-width="1.5" d="M0,-3.0v7 M-2.5,-0.5L0,-3.0L2.5,-0.5"/>
                </g>
               <g id="resetDef">
                       <use xlink:href="#rim2" fill="#404040">
                               <set attributeName="fill" to="#808080" begin="reset.mouseover" end="reset.mouseout"/>
                       </use>
               </g>
        </defs>

<script type="text/javascript">
var viewWidth = 949;
var viewHeight = 319;
var sectionId = 'dynsection-0';
</script>
<script xlink:href="svgpan.js"/>
<svg id="graph" class="graph">
<g id="viewport">
<title>src/application_server/maprenderer.cpp</title>
<polygon fill="#ffffff" stroke="transparent" points="-4,4 -4,-315 945,-315 945,4 -4,4"/>
<!-- Node1 -->
<g id="node1" class="node">
<title>Node1</title>
<g id="a_node1"><a xlink:title=" ">
<polygon fill="#bfbfbf" stroke="#000000" points="628,-280.5 628,-310.5 743,-310.5 743,-280.5 628,-280.5"/>
<text text-anchor="start" x="636" y="-298.5" font-family="Helvetica,sans-Serif" font-size="10.00" fill="#000000">src/application_server</text>
<text text-anchor="middle" x="685.5" y="-287.5" font-family="Helvetica,sans-Serif" font-size="10.00" fill="#000000">/maprenderer.cpp</text>
</a>
</g>
</g>
<!-- Node2 -->
<g id="node2" class="node">
<title>Node2</title>
<g id="a_node2"><a xlink:href="maprenderer_8h.html" target="_top" xlink:title=" ">
<polygon fill="#ffffff" stroke="#000000" points="484.5,-224.5 484.5,-243.5 566.5,-243.5 566.5,-224.5 484.5,-224.5"/>
<text text-anchor="middle" x="525.5" y="-231.5" font-family="Helvetica,sans-Serif" font-size="10.00" fill="#000000">maprenderer.h</text>
</a>
</g>
</g>
<!-- Node1&#45;&gt;Node2 -->
<g id="edge1" class="edge">
<title>Node1&#45;&gt;Node2</title>
<path fill="none" stroke="#191970" d="M646.3596,-280.4554C619.8974,-270.284 585.2819,-256.9787 559.8817,-247.2155"/>
<polygon fill="#191970" stroke="#191970" points="560.8843,-243.8512 550.2943,-243.5303 558.3728,-250.3852 560.8843,-243.8512"/>
</g>
<!-- Node25 -->
<g id="node25" class="node">
<title>Node25</title>
<g id="a_node25"><a xlink:title=" ">
<polygon fill="#ffffff" stroke="#bfbfbf" points="584.5,-224.5 584.5,-243.5 640.5,-243.5 640.5,-224.5 584.5,-224.5"/>
<text text-anchor="middle" x="612.5" y="-231.5" font-family="Helvetica,sans-Serif" font-size="10.00" fill="#000000">QPainter</text>
</a>
</g>
</g>
<!-- Node1&#45;&gt;Node25 -->
<g id="edge33" class="edge">
<title>Node1&#45;&gt;Node25</title>
<path fill="none" stroke="#191970" d="M667.4551,-280.2977C656.6886,-271.2274 643.0149,-259.7077 632.0005,-250.4285"/>
<polygon fill="#191970" stroke="#191970" points="634.0911,-247.6132 624.1882,-243.8469 629.5809,-252.9667 634.0911,-247.6132"/>
</g>
<!-- Node26 -->
<g id="node26" class="node">
<title>Node26</title>
<g id="a_node26"><a xlink:title=" ">
<polygon fill="#ffffff" stroke="#bfbfbf" points="658.5,-224.5 658.5,-243.5 712.5,-243.5 712.5,-224.5 658.5,-224.5"/>
<text text-anchor="middle" x="685.5" y="-231.5" font-family="Helvetica,sans-Serif" font-size="10.00" fill="#000000">QDebug</text>
</a>
</g>
</g>
<!-- Node1&#45;&gt;Node26 -->
<g id="edge34" class="edge">
<title>Node1&#45;&gt;Node26</title>
<path fill="none" stroke="#191970" d="M685.5,-280.2977C685.5,-272.3834 685.5,-262.6043 685.5,-254.0759"/>
<polygon fill="#191970" stroke="#191970" points="689.0001,-253.8469 685.5,-243.8469 682.0001,-253.847 689.0001,-253.8469"/>
</g>
<!-- Node27 -->
<g id="node27" class="node">
<title>Node27</title>
<g id="a_node27"><a xlink:title=" ">
<polygon fill="#ffffff" stroke="#bfbfbf" points="731,-224.5 731,-243.5 772,-243.5 772,-224.5 731,-224.5"/>
<text text-anchor="middle" x="751.5" y="-231.5" font-family="Helvetica,sans-Serif" font-size="10.00" fill="#000000">ctime</text>
</a>
</g>
</g>
<!-- Node1&#45;&gt;Node27 -->
<g id="edge35" class="edge">
<title>Node1&#45;&gt;Node27</title>
<path fill="none" stroke="#191970" d="M701.8146,-280.2977C711.4533,-271.3163 723.6691,-259.9334 733.5759,-250.702"/>
<polygon fill="#191970" stroke="#191970" points="736.0025,-253.2249 740.9326,-243.8469 731.2304,-248.1036 736.0025,-253.2249"/>
</g>
<!-- Node28 -->
<g id="node28" class="node">
<title>Node28</title>
<g id="a_node28"><a xlink:title=" ">
<polygon fill="#ffffff" stroke="#bfbfbf" points="790,-224.5 790,-243.5 869,-243.5 869,-224.5 790,-224.5"/>
<text text-anchor="middle" x="829.5" y="-231.5" font-family="Helvetica,sans-Serif" font-size="10.00" fill="#000000">QHBoxLayout</text>
</a>
</g>
</g>
<!-- Node1&#45;&gt;Node28 -->
<g id="edge36" class="edge">
<title>Node1&#45;&gt;Node28</title>
<path fill="none" stroke="#191970" d="M720.7264,-280.4554C744.3316,-270.374 775.1454,-257.2139 797.9476,-247.4755"/>
<polygon fill="#191970" stroke="#191970" points="799.3634,-250.6767 807.1851,-243.5303 796.614,-244.2393 799.3634,-250.6767"/>
</g>
<!-- Node3 -->
<g id="node3" class="node">
<title>Node3</title>
<g id="a_node3"><a xlink:title=" ">
<polygon fill="#ffffff" stroke="#bfbfbf" points="12.5,-112.5 12.5,-131.5 68.5,-131.5 68.5,-112.5 12.5,-112.5"/>
<text text-anchor="middle" x="40.5" y="-119.5" font-family="Helvetica,sans-Serif" font-size="10.00" fill="#000000">QWidget</text>
</a>
</g>
</g>
<!-- Node2&#45;&gt;Node3 -->
<g id="edge2" class="edge">
<title>Node2&#45;&gt;Node3</title>
<path fill="none" stroke="#191970" d="M484.3019,-231.4861C421.9474,-226.9425 300.2941,-215.181 200.5,-188 152.4184,-174.904 99.4851,-151.077 68.1652,-135.9188"/>
<polygon fill="#191970" stroke="#191970" points="69.6888,-132.7678 59.1684,-131.5143 66.6109,-139.0549 69.6888,-132.7678"/>
</g>
<!-- Node4 -->
<g id="node4" class="node">
<title>Node4</title>
<g id="a_node4"><a xlink:title=" ">
<polygon fill="#ffffff" stroke="#bfbfbf" points="674,-112.5 674,-131.5 713,-131.5 713,-112.5 674,-112.5"/>
<text text-anchor="middle" x="693.5" y="-119.5" font-family="Helvetica,sans-Serif" font-size="10.00" fill="#000000">QList</text>
</a>
</g>
</g>
<!-- Node2&#45;&gt;Node4 -->
<g id="edge3" class="edge">
<title>Node2&#45;&gt;Node4</title>
<path fill="none" stroke="#191970" d="M539.8236,-224.4509C568.9598,-205.0268 635.3445,-160.7703 670.5658,-137.2895"/>
<polygon fill="#191970" stroke="#191970" points="672.8336,-139.9841 679.2127,-131.5249 668.9507,-134.1598 672.8336,-139.9841"/>
</g>
<!-- Node5 -->
<g id="node5" class="node">
<title>Node5</title>
<g id="a_node5"><a xlink:href="graphicsmanager_8h.html" target="_top" xlink:title=" ">
<polygon fill="#ffffff" stroke="#000000" points="418,-112.5 418,-131.5 521,-131.5 521,-112.5 418,-112.5"/>
<text text-anchor="middle" x="469.5" y="-119.5" font-family="Helvetica,sans-Serif" font-size="10.00" fill="#000000">graphicsmanager.h</text>
</a>
</g>
</g>
<!-- Node2&#45;&gt;Node5 -->
<g id="edge4" class="edge">
<title>Node2&#45;&gt;Node5</title>
<path fill="none" stroke="#191970" d="M515.696,-224.2386C507.3759,-215.4506 495.6778,-201.8263 488.5,-188 480.9459,-173.4489 476.0253,-155.4888 473.0885,-141.9794"/>
<polygon fill="#191970" stroke="#191970" points="476.4576,-140.976 471.074,-131.851 469.5921,-142.3416 476.4576,-140.976"/>
</g>
<!-- Node9 -->
<g id="node9" class="node">
<title>Node9</title>
<g id="a_node9"><a xlink:href="datamodel_8h.html" target="_top" xlink:title=" ">
<polygon fill="#ffffff" stroke="#000000" points="209,-168.5 209,-187.5 282,-187.5 282,-168.5 209,-168.5"/>
<text text-anchor="middle" x="245.5" y="-175.5" font-family="Helvetica,sans-Serif" font-size="10.00" fill="#000000">datamodel.h</text>
</a>
</g>
</g>
<!-- Node2&#45;&gt;Node9 -->
<g id="edge8" class="edge">
<title>Node2&#45;&gt;Node9</title>
<path fill="none" stroke="#191970" d="M484.4857,-225.7971C433.2554,-215.5511 345.8196,-198.0639 292.106,-187.3212"/>
<polygon fill="#191970" stroke="#191970" points="292.6518,-183.8611 282.1596,-185.3319 291.279,-190.7252 292.6518,-183.8611"/>
</g>
<!-- Node17 -->
<g id="node17" class="node">
<title>Node17</title>
<g id="a_node17"><a xlink:href="maptile_8h.html" target="_top" xlink:title=" ">
<polygon fill="#ffffff" stroke="#000000" points="497.5,-168.5 497.5,-187.5 553.5,-187.5 553.5,-168.5 497.5,-168.5"/>
<text text-anchor="middle" x="525.5" y="-175.5" font-family="Helvetica,sans-Serif" font-size="10.00" fill="#000000">maptile.h</text>
</a>
</g>
</g>
<!-- Node2&#45;&gt;Node17 -->
<g id="edge18" class="edge">
<title>Node2&#45;&gt;Node17</title>
<path fill="none" stroke="#191970" d="M525.5,-224.2455C525.5,-216.9382 525.5,-206.6944 525.5,-197.7046"/>
<polygon fill="#191970" stroke="#191970" points="529.0001,-197.6426 525.5,-187.6427 522.0001,-197.6427 529.0001,-197.6426"/>
</g>
<!-- Node21 -->
<g id="node21" class="node">
<title>Node21</title>
<g id="a_node21"><a xlink:href="point_8h.html" target="_top" xlink:title=" ">
<polygon fill="#ffffff" stroke="#000000" points="896,-56.5 896,-75.5 941,-75.5 941,-56.5 896,-56.5"/>
<text text-anchor="middle" x="918.5" y="-63.5" font-family="Helvetica,sans-Serif" font-size="10.00" fill="#000000">point.h</text>
</a>
</g>
</g>
<!-- Node2&#45;&gt;Node21 -->
<g id="edge24" class="edge">
<title>Node2&#45;&gt;Node21</title>
<path fill="none" stroke="#191970" d="M566.6763,-225.6311C569.6598,-225.0657 572.6247,-224.5163 575.5,-224 675.6095,-206.0229 704.3979,-218.27 801.5,-188 856.5372,-170.8431 887.7703,-180.7765 918.5,-132 927.0786,-118.3834 926.244,-99.8414 923.7429,-85.8774"/>
<polygon fill="#191970" stroke="#191970" points="927.101,-84.8521 921.5279,-75.8415 920.2655,-86.3609 927.101,-84.8521"/>
</g>
<!-- Node22 -->
<g id="node22" class="node">
<title>Node22</title>
<g id="a_node22"><a xlink:href="animationmovement_8h.html" target="_top" xlink:title=" ">
<polygon fill="#ffffff" stroke="#000000" points="677,-168.5 677,-187.5 792,-187.5 792,-168.5 677,-168.5"/>
<text text-anchor="middle" x="734.5" y="-175.5" font-family="Helvetica,sans-Serif" font-size="10.00" fill="#000000">animationmovement.h</text>
</a>
</g>
</g>
<!-- Node2&#45;&gt;Node22 -->
<g id="edge25" class="edge">
<title>Node2&#45;&gt;Node22</title>
<path fill="none" stroke="#191970" d="M561.4284,-224.3733C596.7837,-214.9001 650.888,-200.4032 689.1788,-190.1435"/>
<polygon fill="#191970" stroke="#191970" points="690.287,-193.4701 699.0405,-187.5011 688.4753,-186.7086 690.287,-193.4701"/>
</g>
<!-- Node6 -->
<g id="node6" class="node">
<title>Node6</title>
<g id="a_node6"><a xlink:title=" ">
<polygon fill="#ffffff" stroke="#bfbfbf" points="440.5,-56.5 440.5,-75.5 498.5,-75.5 498.5,-56.5 440.5,-56.5"/>
<text text-anchor="middle" x="469.5" y="-63.5" font-family="Helvetica,sans-Serif" font-size="10.00" fill="#000000">QPixmap</text>
</a>
</g>
</g>
<!-- Node5&#45;&gt;Node6 -->
<g id="edge5" class="edge">
<title>Node5&#45;&gt;Node6</title>
<path fill="none" stroke="#191970" d="M469.5,-112.2455C469.5,-104.9382 469.5,-94.6944 469.5,-85.7046"/>
<polygon fill="#191970" stroke="#191970" points="473.0001,-85.6426 469.5,-75.6427 466.0001,-85.6427 473.0001,-85.6426"/>
</g>
<!-- Node7 -->
<g id="node7" class="node">
<title>Node7</title>
<g id="a_node7"><a xlink:title=" ">
<polygon fill="#ffffff" stroke="#bfbfbf" points="634,-56.5 634,-75.5 687,-75.5 687,-56.5 634,-56.5"/>
<text text-anchor="middle" x="660.5" y="-63.5" font-family="Helvetica,sans-Serif" font-size="10.00" fill="#000000">QImage</text>
</a>
</g>
</g>
<!-- Node5&#45;&gt;Node7 -->
<g id="edge6" class="edge">
<title>Node5&#45;&gt;Node7</title>
<path fill="none" stroke="#191970" d="M502.3341,-112.3733C536.2139,-102.4399 588.933,-86.983 624.0755,-76.6794"/>
<polygon fill="#191970" stroke="#191970" points="625.3223,-79.9613 633.9336,-73.7891 623.3528,-73.244 625.3223,-79.9613"/>
</g>
<!-- Node8 -->
<g id="node8" class="node">
<title>Node8</title>
<g id="a_node8"><a xlink:title=" ">
<polygon fill="#ffffff" stroke="#bfbfbf" points="371,-56.5 371,-75.5 412,-75.5 412,-56.5 371,-56.5"/>
<text text-anchor="middle" x="391.5" y="-63.5" font-family="Helvetica,sans-Serif" font-size="10.00" fill="#000000">string</text>
</a>
</g>
</g>
<!-- Node5&#45;&gt;Node8 -->
<g id="edge7" class="edge">
<title>Node5&#45;&gt;Node8</title>
<path fill="none" stroke="#191970" d="M455.9134,-112.2455C444.1695,-103.814 426.9801,-91.4729 413.3118,-81.6598"/>
<polygon fill="#191970" stroke="#191970" points="415.0954,-78.6316 404.9309,-75.6427 411.0129,-84.3179 415.0954,-78.6316"/>
</g>
<!-- Node9&#45;&gt;Node3 -->
<g id="edge11" class="edge">
<title>Node9&#45;&gt;Node3</title>
<path fill="none" stroke="#191970" d="M210.2592,-168.3733C173.6354,-158.3687 116.5003,-142.7611 78.786,-132.4586"/>
<polygon fill="#191970" stroke="#191970" points="79.2657,-128.9615 68.6969,-129.7026 77.4211,-135.7141 79.2657,-128.9615"/>
</g>
<!-- Node9&#45;&gt;Node8 -->
<g id="edge9" class="edge">
<title>Node9&#45;&gt;Node8</title>
<path fill="none" stroke="#191970" d="M260.6798,-168.4004C274.6786,-159.3922 295.8928,-145.3437 313.5,-132 334.4945,-116.0893 357.3783,-96.4291 372.8952,-82.7232"/>
<polygon fill="#191970" stroke="#191970" points="375.5524,-85.044 380.6989,-75.7831 370.9005,-79.8132 375.5524,-85.044"/>
</g>
<!-- Node10 -->
<g id="node10" class="node">
<title>Node10</title>
<g id="a_node10"><a xlink:title=" ">
<polygon fill="#ffffff" stroke="#bfbfbf" points="255,-112.5 255,-131.5 304,-131.5 304,-112.5 255,-112.5"/>
<text text-anchor="middle" x="279.5" y="-119.5" font-family="Helvetica,sans-Serif" font-size="10.00" fill="#000000">QLabel</text>
</a>
</g>
</g>
<!-- Node9&#45;&gt;Node10 -->
<g id="edge10" class="edge">
<title>Node9&#45;&gt;Node10</title>
<path fill="none" stroke="#191970" d="M251.4223,-168.2455C256.1027,-160.5367 262.7673,-149.5598 268.4289,-140.2348"/>
<polygon fill="#191970" stroke="#191970" points="271.4475,-142.007 273.6455,-131.6427 265.4639,-138.3741 271.4475,-142.007"/>
</g>
<!-- Node11 -->
<g id="node11" class="node">
<title>Node11</title>
<g id="a_node11"><a xlink:href="mainwindow_8h.html" target="_top" xlink:title=" ">
<polygon fill="#ffffff" stroke="#000000" points="86.5,-112.5 86.5,-131.5 166.5,-131.5 166.5,-112.5 86.5,-112.5"/>
<text text-anchor="middle" x="126.5" y="-119.5" font-family="Helvetica,sans-Serif" font-size="10.00" fill="#000000">mainwindow.h</text>
</a>
</g>
</g>
<!-- Node9&#45;&gt;Node11 -->
<g id="edge12" class="edge">
<title>Node9&#45;&gt;Node11</title>
<path fill="none" stroke="#191970" d="M225.0432,-168.3733C206.0262,-159.4241 177.4825,-145.9917 156.0024,-135.8835"/>
<polygon fill="#191970" stroke="#191970" points="157.2284,-132.5923 146.6899,-131.5011 154.2478,-138.926 157.2284,-132.5923"/>
</g>
<!-- Node14 -->
<g id="node14" class="node">
<title>Node14</title>
<g id="a_node14"><a xlink:href="player_8h.html" target="_top" xlink:title=" ">
<polygon fill="#ffffff" stroke="#000000" points="184.5,-112.5 184.5,-131.5 236.5,-131.5 236.5,-112.5 184.5,-112.5"/>
<text text-anchor="middle" x="210.5" y="-119.5" font-family="Helvetica,sans-Serif" font-size="10.00" fill="#000000">player.h</text>
</a>
</g>
</g>
<!-- Node9&#45;&gt;Node14 -->
<g id="edge15" class="edge">
<title>Node9&#45;&gt;Node14</title>
<path fill="none" stroke="#191970" d="M239.4035,-168.2455C234.5855,-160.5367 227.7249,-149.5598 221.8968,-140.2348"/>
<polygon fill="#191970" stroke="#191970" points="224.7947,-138.2677 216.5267,-131.6427 218.8587,-141.9777 224.7947,-138.2677"/>
</g>
<!-- Node12 -->
<g id="node12" class="node">
<title>Node12</title>
<g id="a_node12"><a xlink:title=" ">
<polygon fill="#ffffff" stroke="#bfbfbf" points="85,-56.5 85,-75.5 168,-75.5 168,-56.5 85,-56.5"/>
<text text-anchor="middle" x="126.5" y="-63.5" font-family="Helvetica,sans-Serif" font-size="10.00" fill="#000000">QMainWindow</text>
</a>
</g>
</g>
<!-- Node11&#45;&gt;Node12 -->
<g id="edge13" class="edge">
<title>Node11&#45;&gt;Node12</title>
<path fill="none" stroke="#191970" d="M126.5,-112.2455C126.5,-104.9382 126.5,-94.6944 126.5,-85.7046"/>
<polygon fill="#191970" stroke="#191970" points="130.0001,-85.6426 126.5,-75.6427 123.0001,-85.6427 130.0001,-85.6426"/>
</g>
<!-- Node13 -->
<g id="node13" class="node">
<title>Node13</title>
<g id="a_node13"><a xlink:title=" ">
<polygon fill="#ffffff" stroke="#bfbfbf" points="0,-56.5 0,-75.5 67,-75.5 67,-56.5 0,-56.5"/>
<text text-anchor="middle" x="33.5" y="-63.5" font-family="Helvetica,sans-Serif" font-size="10.00" fill="#000000">QKeyEvent</text>
</a>
</g>
</g>
<!-- Node11&#45;&gt;Node13 -->
<g id="edge14" class="edge">
<title>Node11&#45;&gt;Node13</title>
<path fill="none" stroke="#191970" d="M110.3006,-112.2455C95.8982,-103.5731 74.6268,-90.7645 58.1201,-80.825"/>
<polygon fill="#191970" stroke="#191970" points="59.886,-77.8028 49.5137,-75.6427 56.275,-83.7996 59.886,-77.8028"/>
</g>
<!-- Node15 -->
<g id="node15" class="node">
<title>Node15</title>
<g id="a_node15"><a xlink:href="highlighter_8h.html" target="_top" xlink:title=" ">
<polygon fill="#ffffff" stroke="#000000" points="186.5,-56.5 186.5,-75.5 256.5,-75.5 256.5,-56.5 186.5,-56.5"/>
<text text-anchor="middle" x="221.5" y="-63.5" font-family="Helvetica,sans-Serif" font-size="10.00" fill="#000000">highlighter.h</text>
</a>
</g>
</g>
<!-- Node14&#45;&gt;Node15 -->
<g id="edge16" class="edge">
<title>Node14&#45;&gt;Node15</title>
<path fill="none" stroke="#191970" d="M212.4161,-112.2455C213.8514,-104.9382 215.8636,-94.6944 217.6295,-85.7046"/>
<polygon fill="#191970" stroke="#191970" points="221.1127,-86.1298 219.6059,-75.6427 214.244,-84.7805 221.1127,-86.1298"/>
</g>
<!-- Node16 -->
<g id="node16" class="node">
<title>Node16</title>
<g id="a_node16"><a xlink:title=" ">
<polygon fill="#ffffff" stroke="#bfbfbf" points="169.5,-.5 169.5,-19.5 273.5,-19.5 273.5,-.5 169.5,-.5"/>
<text text-anchor="middle" x="221.5" y="-7.5" font-family="Helvetica,sans-Serif" font-size="10.00" fill="#000000">QGraphicsRectItem</text>
</a>
</g>
</g>
<!-- Node15&#45;&gt;Node16 -->
<g id="edge17" class="edge">
<title>Node15&#45;&gt;Node16</title>
<path fill="none" stroke="#191970" d="M221.5,-56.2455C221.5,-48.9382 221.5,-38.6944 221.5,-29.7046"/>
<polygon fill="#191970" stroke="#191970" points="225.0001,-29.6426 221.5,-19.6427 218.0001,-29.6427 225.0001,-29.6426"/>
</g>
<!-- Node17&#45;&gt;Node5 -->
<g id="edge23" class="edge">
<title>Node17&#45;&gt;Node5</title>
<path fill="none" stroke="#191970" d="M515.7455,-168.2455C507.6352,-160.1352 495.9075,-148.4075 486.2919,-138.7919"/>
<polygon fill="#191970" stroke="#191970" points="488.6887,-136.2389 479.1427,-131.6427 483.7389,-141.1887 488.6887,-136.2389"/>
</g>
<!-- Node18 -->
<g id="node18" class="node">
<title>Node18</title>
<g id="a_node18"><a xlink:title=" ">
<polygon fill="#ffffff" stroke="#bfbfbf" points="539,-112.5 539,-131.5 656,-131.5 656,-112.5 539,-112.5"/>
<text text-anchor="middle" x="597.5" y="-119.5" font-family="Helvetica,sans-Serif" font-size="10.00" fill="#000000">QGraphicsPixmapItem</text>
</a>
</g>
</g>
<!-- Node17&#45;&gt;Node18 -->
<g id="edge19" class="edge">
<title>Node17&#45;&gt;Node18</title>
<path fill="none" stroke="#191970" d="M538.0414,-168.2455C548.7787,-159.8943 564.4473,-147.7076 577.0047,-137.9408"/>
<polygon fill="#191970" stroke="#191970" points="579.3575,-140.5449 585.1023,-131.6427 575.0599,-135.0194 579.3575,-140.5449"/>
</g>
<!-- Node19 -->
<g id="node19" class="node">
<title>Node19</title>
<g id="a_node19"><a xlink:href="city_8h.html" target="_top" xlink:title=" ">
<polygon fill="#ffffff" stroke="#000000" points="361,-112.5 361,-131.5 400,-131.5 400,-112.5 361,-112.5"/>
<text text-anchor="middle" x="380.5" y="-119.5" font-family="Helvetica,sans-Serif" font-size="10.00" fill="#000000">city.h</text>
</a>
</g>
</g>
<!-- Node17&#45;&gt;Node19 -->
<g id="edge20" class="edge">
<title>Node17&#45;&gt;Node19</title>
<path fill="none" stroke="#191970" d="M500.5736,-168.3733C475.4438,-158.668 436.6612,-143.6898 410.0105,-133.3972"/>
<polygon fill="#191970" stroke="#191970" points="411.0336,-130.0404 400.4441,-129.7026 408.5116,-136.5703 411.0336,-130.0404"/>
</g>
<!-- Node19&#45;&gt;Node8 -->
<g id="edge21" class="edge">
<title>Node19&#45;&gt;Node8</title>
<path fill="none" stroke="#191970" d="M382.4161,-112.2455C383.8514,-104.9382 385.8636,-94.6944 387.6295,-85.7046"/>
<polygon fill="#191970" stroke="#191970" points="391.1127,-86.1298 389.6059,-75.6427 384.244,-84.7805 391.1127,-86.1298"/>
</g>
<!-- Node20 -->
<g id="node20" class="node">
<title>Node20</title>
<g id="a_node20"><a xlink:title=" ">
<polygon fill="#ffffff" stroke="#bfbfbf" points="308.5,-56.5 308.5,-75.5 352.5,-75.5 352.5,-56.5 308.5,-56.5"/>
<text text-anchor="middle" x="330.5" y="-63.5" font-family="Helvetica,sans-Serif" font-size="10.00" fill="#000000">vector</text>
</a>
</g>
</g>
<!-- Node19&#45;&gt;Node20 -->
<g id="edge22" class="edge">
<title>Node19&#45;&gt;Node20</title>
<path fill="none" stroke="#191970" d="M371.7907,-112.2455C364.6927,-104.2958 354.4916,-92.8706 346.005,-83.3656"/>
<polygon fill="#191970" stroke="#191970" points="348.3805,-80.771 339.1095,-75.6427 343.1589,-85.4331 348.3805,-80.771"/>
</g>
<!-- Node22&#45;&gt;Node4 -->
<g id="edge30" class="edge">
<title>Node22&#45;&gt;Node4</title>
<path fill="none" stroke="#191970" d="M727.3583,-168.2455C721.6556,-160.4564 713.51,-149.3308 706.6375,-139.9439"/>
<polygon fill="#191970" stroke="#191970" points="709.2913,-137.6437 700.5598,-131.6427 703.6432,-141.7789 709.2913,-137.6437"/>
</g>
<!-- Node22&#45;&gt;Node18 -->
<g id="edge32" class="edge">
<title>Node22&#45;&gt;Node18</title>
<path fill="none" stroke="#191970" d="M710.9489,-168.3733C688.6609,-159.2629 655.0063,-145.5062 630.1363,-135.3404"/>
<polygon fill="#191970" stroke="#191970" points="631.3247,-132.0451 620.7438,-131.5011 628.6761,-138.5247 631.3247,-132.0451"/>
</g>
<!-- Node22&#45;&gt;Node21 -->
<g id="edge26" class="edge">
<title>Node22&#45;&gt;Node21</title>
<path fill="none" stroke="#191970" d="M790.3246,-168.4539C831.8783,-160.2734 883.9795,-147.3905 899.5,-132 911.7794,-119.8235 916.2437,-100.2607 917.8067,-85.5888"/>
<polygon fill="#191970" stroke="#191970" points="921.3041,-85.7476 918.5178,-75.5258 914.3215,-85.2541 921.3041,-85.7476"/>
</g>
<!-- Node23 -->
<g id="node23" class="node">
<title>Node23</title>
<g id="a_node23"><a xlink:href="animationentity_8h.html" target="_top" xlink:title=" ">
<polygon fill="#ffffff" stroke="#000000" points="731,-112.5 731,-131.5 822,-131.5 822,-112.5 731,-112.5"/>
<text text-anchor="middle" x="776.5" y="-119.5" font-family="Helvetica,sans-Serif" font-size="10.00" fill="#000000">animationentity.h</text>
</a>
</g>
</g>
<!-- Node22&#45;&gt;Node23 -->
<g id="edge27" class="edge">
<title>Node22&#45;&gt;Node23</title>
<path fill="none" stroke="#191970" d="M741.8158,-168.2455C747.7179,-160.3761 756.1742,-149.101 763.2594,-139.6542"/>
<polygon fill="#191970" stroke="#191970" points="766.068,-141.7427 769.268,-131.6427 760.4679,-137.5427 766.068,-141.7427"/>
</g>
<!-- Node24 -->
<g id="node24" class="node">
<title>Node24</title>
<g id="a_node24"><a xlink:title=" ">
<polygon fill="#ffffff" stroke="#bfbfbf" points="840.5,-112.5 840.5,-131.5 890.5,-131.5 890.5,-112.5 840.5,-112.5"/>
<text text-anchor="middle" x="865.5" y="-119.5" font-family="Helvetica,sans-Serif" font-size="10.00" fill="#000000">QString</text>
</a>
</g>
</g>
<!-- Node22&#45;&gt;Node24 -->
<g id="edge31" class="edge">
<title>Node22&#45;&gt;Node24</title>
<path fill="none" stroke="#191970" d="M757.0197,-168.3733C778.2372,-159.3032 810.2276,-145.6279 833.9769,-135.4755"/>
<polygon fill="#191970" stroke="#191970" points="835.4548,-138.6502 843.2742,-131.5011 832.7033,-132.2136 835.4548,-138.6502"/>
</g>
<!-- Node23&#45;&gt;Node7 -->
<g id="edge28" class="edge">
<title>Node23&#45;&gt;Node7</title>
<path fill="none" stroke="#191970" d="M756.5589,-112.3733C738.0214,-103.4241 710.1972,-89.9917 689.2587,-79.8835"/>
<polygon fill="#191970" stroke="#191970" points="690.7081,-76.6967 680.1809,-75.5011 687.6648,-83.0006 690.7081,-76.6967"/>
</g>
<!-- Node23&#45;&gt;Node21 -->
<g id="edge29" class="edge">
<title>Node23&#45;&gt;Node21</title>
<path fill="none" stroke="#191970" d="M800.9107,-112.3733C824.5361,-103.0562 860.4837,-88.8797 886.4127,-78.6541"/>
<polygon fill="#191970" stroke="#191970" points="887.7945,-81.8716 895.8132,-74.9469 885.2264,-75.3597 887.7945,-81.8716"/>
</g>
</g>
</svg>
        <g id="navigator" transform="translate(0 0)" fill="#404254">
                <rect fill="#f2f5e9" fill-opacity="0.5" stroke="#606060" stroke-width=".5" x="0" y="0" width="60" height="60"/>
                <use id="zoomplus" xlink:href="#zoomPlus" x="17" y="9" onmousedown="handleZoom(evt,'in')"/>
                <use id="zoomminus" xlink:href="#zoomMin" x="42" y="9" onmousedown="handleZoom(evt,'out')"/>
                <use id="reset" xlink:href="#resetDef" x="30" y="36" onmousedown="handleReset()"/>
                <g id="arrowUp" xlink:href="#dirArrow" transform="translate(30 24)" onmousedown="handlePan(0,-1)">
                  <use xlink:href="#rim" fill="#404040">
                        <set attributeName="fill" to="#808080" begin="arrowUp.mouseover" end="arrowUp.mouseout"/>
                  </use>
                  <path fill="none" stroke="white" stroke-width="1.5" d="M0,-3.0v7 M-2.5,-0.5L0,-3.0L2.5,-0.5"/>
                </g>
                <g id="arrowRight" xlink:href="#dirArrow" transform="rotate(90) translate(36 -43)" onmousedown="handlePan(1,0)">
                  <use xlink:href="#rim" fill="#404040">
                        <set attributeName="fill" to="#808080" begin="arrowRight.mouseover" end="arrowRight.mouseout"/>
                  </use>
                  <path fill="none" stroke="white" stroke-width="1.5" d="M0,-3.0v7 M-2.5,-0.5L0,-3.0L2.5,-0.5"/>
                </g>
                <g id="arrowDown" xlink:href="#dirArrow" transform="rotate(180) translate(-30 -48)" onmousedown="handlePan(0,1)">
                  <use xlink:href="#rim" fill="#404040">
                        <set attributeName="fill" to="#808080" begin="arrowDown.mouseover" end="arrowDown.mouseout"/>
                  </use>
                  <path fill="none" stroke="white" stroke-width="1.5" d="M0,-3.0v7 M-2.5,-0.5L0,-3.0L2.5,-0.5"/>
                </g>
                <g id="arrowLeft" xlink:href="#dirArrow" transform="rotate(270) translate(-36 17)" onmousedown="handlePan(-1,0)">
                  <use xlink:href="#rim" fill="#404040">
                        <set attributeName="fill" to="#808080" begin="arrowLeft.mouseover" end="arrowLeft.mouseout"/>
                  </use>
                  <path fill="none" stroke="white" stroke-width="1.5" d="M0,-3.0v7 M-2.5,-0.5L0,-3.0L2.5,-0.5"/>
                </g>
        </g>
        <svg viewBox="0 0 15 15" width="100%" height="30px" preserveAspectRatio="xMaxYMin meet">
         <g id="arrow_out" transform="scale(0.3 0.3)">
          <a xlink:href="maprenderer_8cpp__incl_org.svg" target="_base">
           <rect id="button" ry="5" rx="5" y="6" x="6" height="38" width="38"
                fill="#f2f5e9" fill-opacity="0.5" stroke="#606060" stroke-width="1.0"/>
           <path id="arrow"
             d="M 11.500037,31.436501 C 11.940474,20.09759 22.043105,11.32322 32.158766,21.979434 L 37.068811,17.246167 C 37.068811,17.246167 37.088388,32 37.088388,32 L 22.160133,31.978069 C 22.160133,31.978069 26.997745,27.140456 26.997745,27.140456 C 18.528582,18.264221 13.291696,25.230495 11.500037,31.436501 z"
             style="fill:#404040;"/>
          </a>
         </g>
        </svg>
</svg>
