<?xml version="1.0" encoding="UTF-8" standalone="no"?>
<!DOCTYPE svg PUBLIC "-//W3C//DTD SVG 1.1//EN"
 "http://www.w3.org/Graphics/SVG/1.1/DTD/svg11.dtd">
<!-- Generated by graphviz version 2.40.1 (20161225.0304)
 -->
<!-- Title: src/application_server/maprenderer.h Pages: 1 -->
<svg width="1028pt" height="263pt"
 viewBox="0.00 0.00 1028.00 263.00" xmlns="http://www.w3.org/2000/svg" xmlns:xlink="http://www.w3.org/1999/xlink">
<g id="graph0" class="graph" transform="scale(1 1) rotate(0) translate(4 259)">
<title>src/application_server/maprenderer.h</title>
<polygon fill="#ffffff" stroke="transparent" points="-4,4 -4,-259 1024,-259 1024,4 -4,4"/>
<!-- Node1 -->
<g id="node1" class="node">
<title>Node1</title>
<g id="a_node1"><a xlink:title=" ">
<polygon fill="#bfbfbf" stroke="#000000" points="428,-224.5 428,-254.5 543,-254.5 543,-224.5 428,-224.5"/>
<text text-anchor="start" x="436" y="-242.5" font-family="Helvetica,sans-Serif" font-size="10.00" fill="#000000">src/application_server</text>
<text text-anchor="middle" x="485.5" y="-231.5" font-family="Helvetica,sans-Serif" font-size="10.00" fill="#000000">/maprenderer.h</text>
</a>
</g>
</g>
<!-- Node2 -->
<g id="node2" class="node">
<title>Node2</title>
<g id="a_node2"><a xlink:title=" ">
<polygon fill="#ffffff" stroke="#bfbfbf" points="663.5,-112.5 663.5,-131.5 719.5,-131.5 719.5,-112.5 663.5,-112.5"/>
<text text-anchor="middle" x="691.5" y="-119.5" font-family="Helvetica,sans-Serif" font-size="10.00" fill="#000000">QWidget</text>
</a>
</g>
</g>
<!-- Node1&#45;&gt;Node2 -->
<g id="edge1" class="edge">
<title>Node1&#45;&gt;Node2</title>
<path fill="none" stroke="#191970" d="M543.2042,-231.51C576.9031,-224.519 618.7133,-211.6074 649.5,-188 665.4376,-175.7789 676.9768,-155.6547 683.8812,-140.8354"/>
<polygon fill="#191970" stroke="#191970" points="687.1258,-142.1509 687.9177,-131.5857 680.7101,-139.351 687.1258,-142.1509"/>
</g>
<!-- Node3 -->
<g id="node3" class="node">
<title>Node3</title>
<g id="a_node3"><a xlink:title=" ">
<polygon fill="#ffffff" stroke="#bfbfbf" points="352,-112.5 352,-131.5 391,-131.5 391,-112.5 352,-112.5"/>
<text text-anchor="middle" x="371.5" y="-119.5" font-family="Helvetica,sans-Serif" font-size="10.00" fill="#000000">QList</text>
</a>
</g>
</g>
<!-- Node1&#45;&gt;Node3 -->
<g id="edge2" class="edge">
<title>Node1&#45;&gt;Node3</title>
<path fill="none" stroke="#191970" d="M462.4056,-224.3319C448.8085,-214.7963 431.7378,-201.7303 418.5,-188 404.3796,-173.3543 391.2132,-154.192 382.4294,-140.2907"/>
<polygon fill="#191970" stroke="#191970" points="385.3167,-138.3045 377.0907,-131.6274 379.3574,-141.9769 385.3167,-138.3045"/>
</g>
<!-- Node4 -->
<g id="node4" class="node">
<title>Node4</title>
<g id="a_node4"><a xlink:title=" ">
<polygon fill="#ffffff" stroke="#bfbfbf" points="802.5,-168.5 802.5,-187.5 860.5,-187.5 860.5,-168.5 802.5,-168.5"/>
<text text-anchor="middle" x="831.5" y="-175.5" font-family="Helvetica,sans-Serif" font-size="10.00" fill="#000000">QThread</text>
</a>
</g>
</g>
<!-- Node1&#45;&gt;Node4 -->
<g id="edge3" class="edge">
<title>Node1&#45;&gt;Node4</title>
<path fill="none" stroke="#191970" d="M543.2047,-231.3131C602.9975,-222.4942 699.3233,-207.3508 792.3167,-187.8859"/>
<polygon fill="#191970" stroke="#191970" points="793.1147,-191.2946 802.1753,-185.8032 791.6678,-184.4458 793.1147,-191.2946"/>
</g>
<!-- Node5 -->
<g id="node5" class="node">
<title>Node5</title>
<g id="a_node5"><a xlink:href="graphicsmanager_8h.html" target="_top" xlink:title=" ">
<polygon fill="#ffffff" stroke="#000000" points="0,-112.5 0,-131.5 103,-131.5 103,-112.5 0,-112.5"/>
<text text-anchor="middle" x="51.5" y="-119.5" font-family="Helvetica,sans-Serif" font-size="10.00" fill="#000000">graphicsmanager.h</text>
</a>
</g>
</g>
<!-- Node1&#45;&gt;Node5 -->
<g id="edge4" class="edge">
<title>Node1&#45;&gt;Node5</title>
<path fill="none" stroke="#191970" d="M427.9833,-236.3473C363.099,-231.3949 255.1904,-218.913 167.5,-188 132.3527,-175.6097 95.5807,-152.736 73.0995,-137.4428"/>
<polygon fill="#191970" stroke="#191970" points="74.8765,-134.4161 64.6627,-131.6005 70.8914,-140.1711 74.8765,-134.4161"/>
</g>
<!-- Node9 -->
<g id="node9" class="node">
<title>Node9</title>
<g id="a_node9"><a xlink:href="datamodel_8h.html" target="_top" xlink:title=" ">
<polygon fill="#ffffff" stroke="#000000" points="711,-168.5 711,-187.5 784,-187.5 784,-168.5 711,-168.5"/>
<text text-anchor="middle" x="747.5" y="-175.5" font-family="Helvetica,sans-Serif" font-size="10.00" fill="#000000">datamodel.h</text>
</a>
</g>
</g>
<!-- Node1&#45;&gt;Node9 -->
<g id="edge8" class="edge">
<title>Node1&#45;&gt;Node9</title>
<path fill="none" stroke="#191970" d="M543.3214,-225.9274C590.7155,-214.8025 656.9249,-199.2609 700.9521,-188.9263"/>
<polygon fill="#191970" stroke="#191970" points="701.8818,-192.3033 710.8174,-186.6106 700.2821,-185.4885 701.8818,-192.3033"/>
</g>
<!-- Node17 -->
<g id="node17" class="node">
<title>Node17</title>
<g id="a_node17"><a xlink:href="maptile_8h.html" target="_top" xlink:title=" ">
<polygon fill="#ffffff" stroke="#000000" points="176.5,-168.5 176.5,-187.5 232.5,-187.5 232.5,-168.5 176.5,-168.5"/>
<text text-anchor="middle" x="204.5" y="-175.5" font-family="Helvetica,sans-Serif" font-size="10.00" fill="#000000">maptile.h</text>
</a>
</g>
</g>
<!-- Node1&#45;&gt;Node17 -->
<g id="edge18" class="edge">
<title>Node1&#45;&gt;Node17</title>
<path fill="none" stroke="#191970" d="M427.9574,-226.9062C372.6088,-214.7925 290.5005,-196.8222 242.7527,-186.372"/>
<polygon fill="#191970" stroke="#191970" points="243.3384,-182.9174 232.8213,-184.1984 241.8418,-189.7556 243.3384,-182.9174"/>
</g>
<!-- Node20 -->
<g id="node20" class="node">
<title>Node20</title>
<g id="a_node20"><a xlink:href="point_8h.html" target="_top" xlink:title=" ">
<polygon fill="#ffffff" stroke="#000000" points="575,-56.5 575,-75.5 620,-75.5 620,-56.5 575,-56.5"/>
<text text-anchor="middle" x="597.5" y="-63.5" font-family="Helvetica,sans-Serif" font-size="10.00" fill="#000000">point.h</text>
</a>
</g>
</g>
<!-- Node1&#45;&gt;Node20 -->
<g id="edge23" class="edge">
<title>Node1&#45;&gt;Node20</title>
<path fill="none" stroke="#191970" d="M511.9572,-224.4394C540.0592,-206.6202 582.4635,-173.9945 597.5,-132 602.8111,-117.167 602.4169,-99.2277 600.914,-85.7982"/>
<polygon fill="#191970" stroke="#191970" points="604.3581,-85.1563 599.4917,-75.7452 597.4271,-86.137 604.3581,-85.1563"/>
</g>
<!-- Node21 -->
<g id="node21" class="node">
<title>Node21</title>
<g id="a_node21"><a xlink:href="animationmovement_8h.html" target="_top" xlink:title=" ">
<polygon fill="#ffffff" stroke="#000000" points="428,-168.5 428,-187.5 543,-187.5 543,-168.5 428,-168.5"/>
<text text-anchor="middle" x="485.5" y="-175.5" font-family="Helvetica,sans-Serif" font-size="10.00" fill="#000000">animationmovement.h</text>
</a>
</g>
</g>
<!-- Node1&#45;&gt;Node21 -->
<g id="edge24" class="edge">
<title>Node1&#45;&gt;Node21</title>
<path fill="none" stroke="#191970" d="M485.5,-224.2977C485.5,-216.3834 485.5,-206.6043 485.5,-198.0759"/>
<polygon fill="#191970" stroke="#191970" points="489.0001,-197.8469 485.5,-187.8469 482.0001,-197.847 489.0001,-197.8469"/>
</g>
<!-- Node24 -->
<g id="node24" class="node">
<title>Node24</title>
<g id="a_node24"><a xlink:href="sprite_8h.html" target="_top" xlink:title=" ">
<polygon fill="#ffffff" stroke="#000000" points="323.5,-168.5 323.5,-187.5 371.5,-187.5 371.5,-168.5 323.5,-168.5"/>
<text text-anchor="middle" x="347.5" y="-175.5" font-family="Helvetica,sans-Serif" font-size="10.00" fill="#000000">sprite.h</text>
</a>
</g>
</g>
<!-- Node1&#45;&gt;Node24 -->
<g id="edge32" class="edge">
<title>Node1&#45;&gt;Node24</title>
<path fill="none" stroke="#191970" d="M451.7414,-224.4554C429.2207,-214.419 399.8533,-201.3314 378.0308,-191.6061"/>
<polygon fill="#191970" stroke="#191970" points="379.4439,-188.4041 368.8851,-187.5303 376.5944,-194.7979 379.4439,-188.4041"/>
</g>
<!-- Node6 -->
<g id="node6" class="node">
<title>Node6</title>
<g id="a_node6"><a xlink:title=" ">
<polygon fill="#ffffff" stroke="#bfbfbf" points="22.5,-56.5 22.5,-75.5 80.5,-75.5 80.5,-56.5 22.5,-56.5"/>
<text text-anchor="middle" x="51.5" y="-63.5" font-family="Helvetica,sans-Serif" font-size="10.00" fill="#000000">QPixmap</text>
</a>
</g>
</g>
<!-- Node5&#45;&gt;Node6 -->
<g id="edge5" class="edge">
<title>Node5&#45;&gt;Node6</title>
<path fill="none" stroke="#191970" d="M51.5,-112.2455C51.5,-104.9382 51.5,-94.6944 51.5,-85.7046"/>
<polygon fill="#191970" stroke="#191970" points="55.0001,-85.6426 51.5,-75.6427 48.0001,-85.6427 55.0001,-85.6426"/>
</g>
<!-- Node7 -->
<g id="node7" class="node">
<title>Node7</title>
<g id="a_node7"><a xlink:title=" ">
<polygon fill="#ffffff" stroke="#bfbfbf" points="297,-56.5 297,-75.5 350,-75.5 350,-56.5 297,-56.5"/>
<text text-anchor="middle" x="323.5" y="-63.5" font-family="Helvetica,sans-Serif" font-size="10.00" fill="#000000">QImage</text>
</a>
</g>
</g>
<!-- Node5&#45;&gt;Node7 -->
<g id="edge6" class="edge">
<title>Node5&#45;&gt;Node7</title>
<path fill="none" stroke="#191970" d="M97.9494,-112.4369C151.3535,-101.4419 237.9209,-83.6192 286.8199,-73.5518"/>
<polygon fill="#191970" stroke="#191970" points="287.5684,-76.9712 296.6572,-71.5265 286.1568,-70.115 287.5684,-76.9712"/>
</g>
<!-- Node8 -->
<g id="node8" class="node">
<title>Node8</title>
<g id="a_node8"><a xlink:title=" ">
<polygon fill="#ffffff" stroke="#bfbfbf" points="120,-56.5 120,-75.5 161,-75.5 161,-56.5 120,-56.5"/>
<text text-anchor="middle" x="140.5" y="-63.5" font-family="Helvetica,sans-Serif" font-size="10.00" fill="#000000">string</text>
</a>
</g>
</g>
<!-- Node5&#45;&gt;Node8 -->
<g id="edge7" class="edge">
<title>Node5&#45;&gt;Node8</title>
<path fill="none" stroke="#191970" d="M67.0026,-112.2455C80.658,-103.6534 100.7657,-91.0014 116.4989,-81.1018"/>
<polygon fill="#191970" stroke="#191970" points="118.5751,-83.9307 125.175,-75.6427 114.8471,-78.006 118.5751,-83.9307"/>
</g>
<!-- Node9&#45;&gt;Node2 -->
<g id="edge11" class="edge">
<title>Node9&#45;&gt;Node2</title>
<path fill="none" stroke="#191970" d="M737.7455,-168.2455C729.6352,-160.1352 717.9075,-148.4075 708.2919,-138.7919"/>
<polygon fill="#191970" stroke="#191970" points="710.6887,-136.2389 701.1427,-131.6427 705.7389,-141.1887 710.6887,-136.2389"/>
</g>
<!-- Node9&#45;&gt;Node8 -->
<g id="edge9" class="edge">
<title>Node9&#45;&gt;Node8</title>
<path fill="none" stroke="#191970" d="M747.8702,-168.0825C747.8247,-153.2891 745.3156,-125.7177 728.5,-112 723.0365,-107.543 291.3441,-76.6784 171.2157,-68.1685"/>
<polygon fill="#191970" stroke="#191970" points="171.4327,-64.6752 161.2105,-67.4604 170.9385,-71.6577 171.4327,-64.6752"/>
</g>
<!-- Node10 -->
<g id="node10" class="node">
<title>Node10</title>
<g id="a_node10"><a xlink:title=" ">
<polygon fill="#ffffff" stroke="#bfbfbf" points="944,-112.5 944,-131.5 993,-131.5 993,-112.5 944,-112.5"/>
<text text-anchor="middle" x="968.5" y="-119.5" font-family="Helvetica,sans-Serif" font-size="10.00" fill="#000000">QLabel</text>
</a>
</g>
</g>
<!-- Node9&#45;&gt;Node10 -->
<g id="edge10" class="edge">
<title>Node9&#45;&gt;Node10</title>
<path fill="none" stroke="#191970" d="M784.1734,-169.4922C819.9744,-161.073 876.208,-147.5482 933.9923,-132.053"/>
<polygon fill="#191970" stroke="#191970" points="934.9103,-135.4305 943.654,-129.4473 933.0876,-128.672 934.9103,-135.4305"/>
</g>
<!-- Node11 -->
<g id="node11" class="node">
<title>Node11</title>
<g id="a_node11"><a xlink:href="mainwindow_8h.html" target="_top" xlink:title=" ">
<polygon fill="#ffffff" stroke="#000000" points="845.5,-112.5 845.5,-131.5 925.5,-131.5 925.5,-112.5 845.5,-112.5"/>
<text text-anchor="middle" x="885.5" y="-119.5" font-family="Helvetica,sans-Serif" font-size="10.00" fill="#000000">mainwindow.h</text>
</a>
</g>
</g>
<!-- Node9&#45;&gt;Node11 -->
<g id="edge12" class="edge">
<title>Node9&#45;&gt;Node11</title>
<path fill="none" stroke="#191970" d="M771.223,-168.3733C793.6737,-159.2629 827.5739,-145.5062 852.6255,-135.3404"/>
<polygon fill="#191970" stroke="#191970" points="854.1365,-138.5045 862.0865,-131.5011 851.5043,-132.0182 854.1365,-138.5045"/>
</g>
<!-- Node14 -->
<g id="node14" class="node">
<title>Node14</title>
<g id="a_node14"><a xlink:href="player_8h.html" target="_top" xlink:title=" ">
<polygon fill="#ffffff" stroke="#000000" points="775.5,-112.5 775.5,-131.5 827.5,-131.5 827.5,-112.5 775.5,-112.5"/>
<text text-anchor="middle" x="801.5" y="-119.5" font-family="Helvetica,sans-Serif" font-size="10.00" fill="#000000">player.h</text>
</a>
</g>
</g>
<!-- Node9&#45;&gt;Node14 -->
<g id="edge15" class="edge">
<title>Node9&#45;&gt;Node14</title>
<path fill="none" stroke="#191970" d="M756.9061,-168.2455C764.6493,-160.2155 775.812,-148.6394 785.0318,-139.0781"/>
<polygon fill="#191970" stroke="#191970" points="787.7798,-141.2706 792.2017,-131.6427 782.7409,-136.4117 787.7798,-141.2706"/>
</g>
<!-- Node12 -->
<g id="node12" class="node">
<title>Node12</title>
<g id="a_node12"><a xlink:title=" ">
<polygon fill="#ffffff" stroke="#bfbfbf" points="937,-56.5 937,-75.5 1020,-75.5 1020,-56.5 937,-56.5"/>
<text text-anchor="middle" x="978.5" y="-63.5" font-family="Helvetica,sans-Serif" font-size="10.00" fill="#000000">QMainWindow</text>
</a>
</g>
</g>
<!-- Node11&#45;&gt;Node12 -->
<g id="edge13" class="edge">
<title>Node11&#45;&gt;Node12</title>
<path fill="none" stroke="#191970" d="M901.6994,-112.2455C916.1018,-103.5731 937.3732,-90.7645 953.8799,-80.825"/>
<polygon fill="#191970" stroke="#191970" points="955.725,-83.7996 962.4863,-75.6427 952.114,-77.8028 955.725,-83.7996"/>
</g>
<!-- Node13 -->
<g id="node13" class="node">
<title>Node13</title>
<g id="a_node13"><a xlink:title=" ">
<polygon fill="#ffffff" stroke="#bfbfbf" points="852,-56.5 852,-75.5 919,-75.5 919,-56.5 852,-56.5"/>
<text text-anchor="middle" x="885.5" y="-63.5" font-family="Helvetica,sans-Serif" font-size="10.00" fill="#000000">QKeyEvent</text>
</a>
</g>
</g>
<!-- Node11&#45;&gt;Node13 -->
<g id="edge14" class="edge">
<title>Node11&#45;&gt;Node13</title>
<path fill="none" stroke="#191970" d="M885.5,-112.2455C885.5,-104.9382 885.5,-94.6944 885.5,-85.7046"/>
<polygon fill="#191970" stroke="#191970" points="889.0001,-85.6426 885.5,-75.6427 882.0001,-85.6427 889.0001,-85.6426"/>
</g>
<!-- Node15 -->
<g id="node15" class="node">
<title>Node15</title>
<g id="a_node15"><a xlink:href="highlighter_8h.html" target="_top" xlink:title=" ">
<polygon fill="#ffffff" stroke="#000000" points="763.5,-56.5 763.5,-75.5 833.5,-75.5 833.5,-56.5 763.5,-56.5"/>
<text text-anchor="middle" x="798.5" y="-63.5" font-family="Helvetica,sans-Serif" font-size="10.00" fill="#000000">highlighter.h</text>
</a>
</g>
</g>
<!-- Node14&#45;&gt;Node15 -->
<g id="edge16" class="edge">
<title>Node14&#45;&gt;Node15</title>
<path fill="none" stroke="#191970" d="M800.9774,-112.2455C800.586,-104.9382 800.0372,-94.6944 799.5556,-85.7046"/>
<polygon fill="#191970" stroke="#191970" points="803.0466,-85.4411 799.0166,-75.6427 796.0566,-85.8156 803.0466,-85.4411"/>
</g>
<!-- Node16 -->
<g id="node16" class="node">
<title>Node16</title>
<g id="a_node16"><a xlink:title=" ">
<polygon fill="#ffffff" stroke="#bfbfbf" points="746.5,-.5 746.5,-19.5 850.5,-19.5 850.5,-.5 746.5,-.5"/>
<text text-anchor="middle" x="798.5" y="-7.5" font-family="Helvetica,sans-Serif" font-size="10.00" fill="#000000">QGraphicsRectItem</text>
</a>
</g>
</g>
<!-- Node15&#45;&gt;Node16 -->
<g id="edge17" class="edge">
<title>Node15&#45;&gt;Node16</title>
<path fill="none" stroke="#191970" d="M798.5,-56.2455C798.5,-48.9382 798.5,-38.6944 798.5,-29.7046"/>
<polygon fill="#191970" stroke="#191970" points="802.0001,-29.6426 798.5,-19.6427 795.0001,-29.6427 802.0001,-29.6426"/>
</g>
<!-- Node17&#45;&gt;Node5 -->
<g id="edge22" class="edge">
<title>Node17&#45;&gt;Node5</title>
<path fill="none" stroke="#191970" d="M178.1984,-168.3733C153.0872,-159.1822 115.0562,-145.2624 87.2128,-135.0713"/>
<polygon fill="#191970" stroke="#191970" points="88.0522,-131.6516 77.4584,-131.5011 85.6462,-138.2251 88.0522,-131.6516"/>
</g>
<!-- Node18 -->
<g id="node18" class="node">
<title>Node18</title>
<g id="a_node18"><a xlink:title=" ">
<polygon fill="#ffffff" stroke="#bfbfbf" points="178,-112.5 178,-131.5 295,-131.5 295,-112.5 178,-112.5"/>
<text text-anchor="middle" x="236.5" y="-119.5" font-family="Helvetica,sans-Serif" font-size="10.00" fill="#000000">QGraphicsPixmapItem</text>
</a>
</g>
</g>
<!-- Node17&#45;&gt;Node18 -->
<g id="edge19" class="edge">
<title>Node17&#45;&gt;Node18</title>
<path fill="none" stroke="#191970" d="M210.074,-168.2455C214.4331,-160.617 220.6211,-149.7881 225.9133,-140.5267"/>
<polygon fill="#191970" stroke="#191970" points="229.0673,-142.0616 230.9899,-131.6427 222.9896,-138.5886 229.0673,-142.0616"/>
</g>
<!-- Node19 -->
<g id="node19" class="node">
<title>Node19</title>
<g id="a_node19"><a xlink:href="city_8h.html" target="_top" xlink:title=" ">
<polygon fill="#ffffff" stroke="#000000" points="121,-112.5 121,-131.5 160,-131.5 160,-112.5 121,-112.5"/>
<text text-anchor="middle" x="140.5" y="-119.5" font-family="Helvetica,sans-Serif" font-size="10.00" fill="#000000">city.h</text>
</a>
</g>
</g>
<!-- Node17&#45;&gt;Node19 -->
<g id="edge20" class="edge">
<title>Node17&#45;&gt;Node19</title>
<path fill="none" stroke="#191970" d="M193.3521,-168.2455C183.9913,-160.0549 170.4142,-148.1749 159.3651,-138.5069"/>
<polygon fill="#191970" stroke="#191970" points="161.3508,-135.5937 151.5202,-131.6427 156.7412,-140.8618 161.3508,-135.5937"/>
</g>
<!-- Node19&#45;&gt;Node8 -->
<g id="edge21" class="edge">
<title>Node19&#45;&gt;Node8</title>
<path fill="none" stroke="#191970" d="M140.5,-112.2455C140.5,-104.9382 140.5,-94.6944 140.5,-85.7046"/>
<polygon fill="#191970" stroke="#191970" points="144.0001,-85.6426 140.5,-75.6427 137.0001,-85.6427 144.0001,-85.6426"/>
</g>
<!-- Node21&#45;&gt;Node3 -->
<g id="edge29" class="edge">
<title>Node21&#45;&gt;Node3</title>
<path fill="none" stroke="#191970" d="M465.9027,-168.3733C447.7669,-159.4644 420.5865,-146.1127 400.0413,-136.0203"/>
<polygon fill="#191970" stroke="#191970" points="401.3603,-132.7688 390.8416,-131.5011 398.2739,-139.0517 401.3603,-132.7688"/>
</g>
<!-- Node21&#45;&gt;Node18 -->
<g id="edge31" class="edge">
<title>Node21&#45;&gt;Node18</title>
<path fill="none" stroke="#191970" d="M442.9783,-168.4369C400.3639,-158.8529 334.6824,-144.0812 288.879,-133.78"/>
<polygon fill="#191970" stroke="#191970" points="289.3706,-130.3032 278.8463,-131.5237 287.8346,-137.1326 289.3706,-130.3032"/>
</g>
<!-- Node21&#45;&gt;Node20 -->
<g id="edge25" class="edge">
<title>Node21&#45;&gt;Node20</title>
<path fill="none" stroke="#191970" d="M519.5443,-168.4353C539.0419,-161.3302 562.5324,-149.7453 577.5,-132 588.4641,-119.0013 593.4185,-100.1105 595.6568,-85.8668"/>
<polygon fill="#191970" stroke="#191970" points="599.1675,-85.9976 596.9324,-75.6412 592.2213,-85.131 599.1675,-85.9976"/>
</g>
<!-- Node22 -->
<g id="node22" class="node">
<title>Node22</title>
<g id="a_node22"><a xlink:href="animationentity_8h.html" target="_top" xlink:title=" ">
<polygon fill="#ffffff" stroke="#000000" points="478,-112.5 478,-131.5 569,-131.5 569,-112.5 478,-112.5"/>
<text text-anchor="middle" x="523.5" y="-119.5" font-family="Helvetica,sans-Serif" font-size="10.00" fill="#000000">animationentity.h</text>
</a>
</g>
</g>
<!-- Node21&#45;&gt;Node22 -->
<g id="edge26" class="edge">
<title>Node21&#45;&gt;Node22</title>
<path fill="none" stroke="#191970" d="M492.1191,-168.2455C497.4046,-160.4564 504.9541,-149.3308 511.3238,-139.9439"/>
<polygon fill="#191970" stroke="#191970" points="514.2379,-141.8827 516.9568,-131.6427 508.4455,-137.9522 514.2379,-141.8827"/>
</g>
<!-- Node23 -->
<g id="node23" class="node">
<title>Node23</title>
<g id="a_node23"><a xlink:title=" ">
<polygon fill="#ffffff" stroke="#bfbfbf" points="409.5,-112.5 409.5,-131.5 459.5,-131.5 459.5,-112.5 409.5,-112.5"/>
<text text-anchor="middle" x="434.5" y="-119.5" font-family="Helvetica,sans-Serif" font-size="10.00" fill="#000000">QString</text>
</a>
</g>
</g>
<!-- Node21&#45;&gt;Node23 -->
<g id="edge30" class="edge">
<title>Node21&#45;&gt;Node23</title>
<path fill="none" stroke="#191970" d="M476.6165,-168.2455C469.3034,-160.2155 458.7609,-148.6394 450.0533,-139.0781"/>
<polygon fill="#191970" stroke="#191970" points="452.6028,-136.6795 443.2817,-131.6427 447.4273,-141.3928 452.6028,-136.6795"/>
</g>
<!-- Node22&#45;&gt;Node7 -->
<g id="edge27" class="edge">
<title>Node22&#45;&gt;Node7</title>
<path fill="none" stroke="#191970" d="M489.1188,-112.3733C453.0819,-102.2829 396.6896,-86.4931 359.9103,-76.1949"/>
<polygon fill="#191970" stroke="#191970" points="360.6633,-72.7712 350.0899,-73.4452 358.7759,-79.5119 360.6633,-72.7712"/>
</g>
<!-- Node22&#45;&gt;Node20 -->
<g id="edge28" class="edge">
<title>Node22&#45;&gt;Node20</title>
<path fill="none" stroke="#191970" d="M536.3898,-112.2455C547.4254,-103.8943 563.5292,-91.7076 576.4353,-81.9408"/>
<polygon fill="#191970" stroke="#191970" points="578.8959,-84.4681 584.7579,-75.6427 574.6717,-78.8862 578.8959,-84.4681"/>
</g>
<!-- Node24&#45;&gt;Node3 -->
<g id="edge34" class="edge">
<title>Node24&#45;&gt;Node3</title>
<path fill="none" stroke="#191970" d="M351.6805,-168.2455C354.881,-160.7776 359.396,-150.2427 363.3084,-141.1137"/>
<polygon fill="#191970" stroke="#191970" points="366.6452,-142.2129 367.3674,-131.6427 360.2112,-139.4554 366.6452,-142.2129"/>
</g>
<!-- Node24&#45;&gt;Node7 -->
<g id="edge33" class="edge">
<title>Node24&#45;&gt;Node7</title>
<path fill="none" stroke="#191970" d="M345.4538,-168.4509C341.5217,-150.1013 332.8409,-109.5908 327.6506,-85.3693"/>
<polygon fill="#191970" stroke="#191970" points="331.0587,-84.5695 325.541,-75.5249 324.2141,-86.0363 331.0587,-84.5695"/>
</g>
</g>
</svg>
