<?xml version="1.0" encoding="UTF-8" standalone="no"?>
<!DOCTYPE svg PUBLIC "-//W3C//DTD SVG 1.1//EN"
 "http://www.w3.org/Graphics/SVG/1.1/DTD/svg11.dtd">
<!-- Generated by graphviz version 2.40.1 (20161225.0304)
 -->
<!-- Title: src/application_server/maprenderer.cpp Pages: 1 -->
<!--zoomable 319 -->
<svg id="main" version="1.1" xmlns="http://www.w3.org/2000/svg" xmlns:xlink="http://www.w3.org/1999/xlink" xml:space="preserve" onload="init(evt)">
<style type="text/css"><![CDATA[
.edge:hover path { stroke: red; }
.edge:hover polygon { stroke: red; fill: red; }
]]></style>
<script type="text/javascript"><![CDATA[
var edges = document.getElementsByTagName('g');
if (edges && edges.length) {
  for (var i=0;i<edges.length;i++) {
    if (edges[i].id.substr(0,4)=='edge') {
      edges[i].setAttribute('class','edge');
    }
  }
}
]]></script>
        <defs>
                <circle id="rim" cx="0" cy="0" r="7"/>
                <circle id="rim2" cx="0" cy="0" r="3.5"/>
                <g id="zoomPlus">
                        <use xlink:href="#rim" fill="#404040">
                                <set attributeName="fill" to="#808080" begin="zoomplus.mouseover" end="zoomplus.mouseout"/>
                        </use>
                        <path d="M-4,0h8M0,-4v8" fill="none" stroke="white" stroke-width="1.5" pointer-events="none"/>
                </g>
                <g id="zoomMin">
                        <use xlink:href="#rim" fill="#404040">
                                <set attributeName="fill" to="#808080" begin="zoomminus.mouseover" end="zoomminus.mouseout"/>
                        </use>
                        <path d="M-4,0h8" fill="none" stroke="white" stroke-width="1.5" pointer-events="none"/>
                </g>
                <g id="dirArrow">
                        <path fill="none" stroke="white" stroke-width="1.5" d="M0,-3.0v7 M-2.5,-0.5L0,-3.0L2.5,-0.5"/>
                </g>
               <g id="resetDef">
                       <use xlink:href="#rim2" fill="#404040">
                               <set attributeName="fill" to="#808080" begin="reset.mouseover" end="reset.mouseout"/>
                       </use>
               </g>
        </defs>

<script type="text/javascript">
var viewWidth = 1442;
var viewHeight = 319;
var sectionId = 'dynsection-0';
</script>
<script xlink:href="svgpan.js"/>
<svg id="graph" class="graph">
<g id="viewport">
<title>src/application_server/maprenderer.cpp</title>
<polygon fill="#ffffff" stroke="transparent" points="-4,4 -4,-315 1438.0306,-315 1438.0306,4 -4,4"/>
<!-- Node1 -->
<g id="node1" class="node">
<title>Node1</title>
<g id="a_node1"><a xlink:title=" ">
<polygon fill="#bfbfbf" stroke="#000000" points="1156.0306,-280.5 1156.0306,-310.5 1271.0306,-310.5 1271.0306,-280.5 1156.0306,-280.5"/>
<text text-anchor="start" x="1164.0306" y="-298.5" font-family="Helvetica,sans-Serif" font-size="10.00" fill="#000000">src/application_server</text>
<text text-anchor="middle" x="1213.5306" y="-287.5" font-family="Helvetica,sans-Serif" font-size="10.00" fill="#000000">/maprenderer.cpp</text>
</a>
</g>
</g>
<!-- Node2 -->
<g id="node2" class="node">
<title>Node2</title>
<g id="a_node2"><a xlink:href="maprenderer_8h.html" target="_top" xlink:title=" ">
<polygon fill="#ffffff" stroke="#000000" points="802.5306,-224.5 802.5306,-243.5 884.5306,-243.5 884.5306,-224.5 802.5306,-224.5"/>
<text text-anchor="middle" x="843.5306" y="-231.5" font-family="Helvetica,sans-Serif" font-size="10.00" fill="#000000">maprenderer.h</text>
</a>
</g>
</g>
<!-- Node1&#45;&gt;Node2 -->
<g id="edge1" class="edge">
<title>Node1&#45;&gt;Node2</title>
<path fill="none" stroke="#191970" d="M1155.7181,-285.8906C1084.092,-273.9852 963.1656,-253.8853 894.7389,-242.5117"/>
<polygon fill="#191970" stroke="#191970" points="895.0683,-239.0185 884.6298,-240.8314 893.9205,-245.9237 895.0683,-239.0185"/>
</g>
<!-- Node30 -->
<g id="node30" class="node">
<title>Node30</title>
<g id="a_node30"><a xlink:href="sprite_8h.html" target="_top" xlink:title=" ">
<polygon fill="#ffffff" stroke="#000000" points="1268.5306,-168.5 1268.5306,-187.5 1316.5306,-187.5 1316.5306,-168.5 1268.5306,-168.5"/>
<text text-anchor="middle" x="1292.5306" y="-175.5" font-family="Helvetica,sans-Serif" font-size="10.00" fill="#000000">sprite.h</text>
</a>
</g>
</g>
<!-- Node1&#45;&gt;Node30 -->
<g id="edge52" class="edge">
<title>Node1&#45;&gt;Node30</title>
<path fill="none" stroke="#191970" d="M1179.2188,-280.4073C1153.2082,-266.799 1124.4595,-245.6523 1140.5306,-224 1171.6624,-182.0568 1203.0169,-201.5512 1258.5036,-188.0182"/>
<polygon fill="#191970" stroke="#191970" points="1259.6565,-191.3316 1268.3804,-185.3196 1257.8115,-184.5791 1259.6565,-191.3316"/>
</g>
<!-- Node32 -->
<g id="node32" class="node">
<title>Node32</title>
<g id="a_node32"><a xlink:title=" ">
<polygon fill="#ffffff" stroke="#bfbfbf" points="1149.5306,-224.5 1149.5306,-243.5 1205.5306,-243.5 1205.5306,-224.5 1149.5306,-224.5"/>
<text text-anchor="middle" x="1177.5306" y="-231.5" font-family="Helvetica,sans-Serif" font-size="10.00" fill="#000000">QPainter</text>
</a>
</g>
</g>
<!-- Node1&#45;&gt;Node32 -->
<g id="edge48" class="edge">
<title>Node1&#45;&gt;Node32</title>
<path fill="none" stroke="#191970" d="M1204.6317,-280.2977C1199.7386,-271.9388 1193.628,-261.4997 1188.4482,-252.6509"/>
<polygon fill="#191970" stroke="#191970" points="1191.367,-250.7089 1183.2946,-243.8469 1185.3259,-254.2452 1191.367,-250.7089"/>
</g>
<!-- Node33 -->
<g id="node33" class="node">
<title>Node33</title>
<g id="a_node33"><a xlink:title=" ">
<polygon fill="#ffffff" stroke="#bfbfbf" points="1223.5306,-224.5 1223.5306,-243.5 1277.5306,-243.5 1277.5306,-224.5 1223.5306,-224.5"/>
<text text-anchor="middle" x="1250.5306" y="-231.5" font-family="Helvetica,sans-Serif" font-size="10.00" fill="#000000">QDebug</text>
</a>
</g>
</g>
<!-- Node1&#45;&gt;Node33 -->
<g id="edge49" class="edge">
<title>Node1&#45;&gt;Node33</title>
<path fill="none" stroke="#191970" d="M1222.6767,-280.2977C1227.7056,-271.9388 1233.9861,-261.4997 1239.3097,-252.6509"/>
<polygon fill="#191970" stroke="#191970" points="1242.4503,-254.2201 1244.6064,-243.8469 1236.4521,-250.6114 1242.4503,-254.2201"/>
</g>
<!-- Node34 -->
<g id="node34" class="node">
<title>Node34</title>
<g id="a_node34"><a xlink:title=" ">
<polygon fill="#ffffff" stroke="#bfbfbf" points="1296.0306,-224.5 1296.0306,-243.5 1337.0306,-243.5 1337.0306,-224.5 1296.0306,-224.5"/>
<text text-anchor="middle" x="1316.5306" y="-231.5" font-family="Helvetica,sans-Serif" font-size="10.00" fill="#000000">ctime</text>
</a>
</g>
</g>
<!-- Node1&#45;&gt;Node34 -->
<g id="edge50" class="edge">
<title>Node1&#45;&gt;Node34</title>
<path fill="none" stroke="#191970" d="M1238.7272,-280.4554C1254.8578,-270.8241 1275.6944,-258.3828 1291.7442,-248.7996"/>
<polygon fill="#191970" stroke="#191970" points="1293.7776,-251.662 1300.5692,-243.5303 1290.189,-245.6518 1293.7776,-251.662"/>
</g>
<!-- Node35 -->
<g id="node35" class="node">
<title>Node35</title>
<g id="a_node35"><a xlink:title=" ">
<polygon fill="#ffffff" stroke="#bfbfbf" points="1355.0306,-224.5 1355.0306,-243.5 1434.0306,-243.5 1434.0306,-224.5 1355.0306,-224.5"/>
<text text-anchor="middle" x="1394.5306" y="-231.5" font-family="Helvetica,sans-Serif" font-size="10.00" fill="#000000">QHBoxLayout</text>
</a>
</g>
</g>
<!-- Node1&#45;&gt;Node35 -->
<g id="edge51" class="edge">
<title>Node1&#45;&gt;Node35</title>
<path fill="none" stroke="#191970" d="M1257.8082,-280.4554C1288.1409,-270.149 1327.9435,-256.6249 1356.775,-246.8286"/>
<polygon fill="#191970" stroke="#191970" points="1358.1397,-250.0615 1366.482,-243.5303 1355.8876,-243.4336 1358.1397,-250.0615"/>
</g>
<!-- Node3 -->
<g id="node3" class="node">
<title>Node3</title>
<g id="a_node3"><a xlink:title=" ">
<polygon fill="#ffffff" stroke="#bfbfbf" points="92.5306,-56.5 92.5306,-75.5 148.5306,-75.5 148.5306,-56.5 92.5306,-56.5"/>
<text text-anchor="middle" x="120.5306" y="-63.5" font-family="Helvetica,sans-Serif" font-size="10.00" fill="#000000">QWidget</text>
</a>
</g>
</g>
<!-- Node2&#45;&gt;Node3 -->
<g id="edge2" class="edge">
<title>Node2&#45;&gt;Node3</title>
<path fill="none" stroke="#191970" d="M802.4042,-232.4837C676.6147,-227.6373 298.2731,-211.454 177.5306,-188 98.6116,-172.6702 52.7656,-197.0543 5.5306,-132 -17.4599,-100.3364 40.7843,-81.6229 82.5198,-72.6221"/>
<polygon fill="#191970" stroke="#191970" points="83.3554,-76.0238 92.4518,-70.592 81.9535,-69.1656 83.3554,-76.0238"/>
</g>
<!-- Node4 -->
<g id="node4" class="node">
<title>Node4</title>
<g id="a_node4"><a xlink:title=" ">
<polygon fill="#ffffff" stroke="#bfbfbf" points="1225.0306,-112.5 1225.0306,-131.5 1264.0306,-131.5 1264.0306,-112.5 1225.0306,-112.5"/>
<text text-anchor="middle" x="1244.5306" y="-119.5" font-family="Helvetica,sans-Serif" font-size="10.00" fill="#000000">QList</text>
</a>
</g>
</g>
<!-- Node2&#45;&gt;Node4 -->
<g id="edge3" class="edge">
<title>Node2&#45;&gt;Node4</title>
<path fill="none" stroke="#191970" d="M884.5929,-229.9752C955.7064,-222.636 1098.6726,-206.1518 1145.5306,-188 1161.7423,-181.7199 1199.437,-155.1636 1223.3542,-137.7107"/>
<polygon fill="#191970" stroke="#191970" points="1225.4876,-140.4864 1231.4771,-131.747 1221.3449,-134.8439 1225.4876,-140.4864"/>
</g>
<!-- Node5 -->
<g id="node5" class="node">
<title>Node5</title>
<g id="a_node5"><a xlink:title=" ">
<polygon fill="#ffffff" stroke="#bfbfbf" points="1192.5306,-168.5 1192.5306,-187.5 1250.5306,-187.5 1250.5306,-168.5 1192.5306,-168.5"/>
<text text-anchor="middle" x="1221.5306" y="-175.5" font-family="Helvetica,sans-Serif" font-size="10.00" fill="#000000">QThread</text>
</a>
</g>
</g>
<!-- Node2&#45;&gt;Node5 -->
<g id="edge4" class="edge">
<title>Node2&#45;&gt;Node5</title>
<path fill="none" stroke="#191970" d="M884.7235,-229.5806C948.1238,-222.5004 1073.3163,-207.4153 1178.5306,-188 1179.8025,-187.7653 1181.0936,-187.5181 1182.3957,-187.261"/>
<polygon fill="#191970" stroke="#191970" points="1183.3977,-190.6269 1192.4623,-185.142 1181.9558,-183.777 1183.3977,-190.6269"/>
</g>
<!-- Node6 -->
<g id="node6" class="node">
<title>Node6</title>
<g id="a_node6"><a xlink:title=" ">
<polygon fill="#ffffff" stroke="#bfbfbf" points="485.0306,-112.5 485.0306,-131.5 568.0306,-131.5 568.0306,-112.5 485.0306,-112.5"/>
<text text-anchor="middle" x="526.5306" y="-119.5" font-family="Helvetica,sans-Serif" font-size="10.00" fill="#000000">QVideoWidget</text>
</a>
</g>
</g>
<!-- Node2&#45;&gt;Node6 -->
<g id="edge5" class="edge">
<title>Node2&#45;&gt;Node6</title>
<path fill="none" stroke="#191970" d="M809.3865,-224.473C778.6102,-215.679 732.2297,-201.9121 692.5306,-188 645.3167,-171.4544 591.6923,-149.5545 558.4831,-135.6177"/>
<polygon fill="#191970" stroke="#191970" points="559.4362,-132.2213 548.8619,-131.5628 556.7176,-138.6718 559.4362,-132.2213"/>
</g>
<!-- Node7 -->
<g id="node7" class="node">
<title>Node7</title>
<g id="a_node7"><a xlink:title=" ">
<polygon fill="#ffffff" stroke="#bfbfbf" points="14.5306,-112.5 14.5306,-131.5 96.5306,-131.5 96.5306,-112.5 14.5306,-112.5"/>
<text text-anchor="middle" x="55.5306" y="-119.5" font-family="Helvetica,sans-Serif" font-size="10.00" fill="#000000">QMediaPlayer</text>
</a>
</g>
</g>
<!-- Node2&#45;&gt;Node7 -->
<g id="edge6" class="edge">
<title>Node2&#45;&gt;Node7</title>
<path fill="none" stroke="#191970" d="M802.2296,-232.0924C686.1976,-226.5246 358.8858,-209.3324 253.5306,-188 193.5457,-175.8542 126.5217,-151.0045 87.8601,-135.502"/>
<polygon fill="#191970" stroke="#191970" points="88.7826,-132.0993 78.2002,-131.5856 86.1526,-138.5865 88.7826,-132.0993"/>
</g>
<!-- Node8 -->
<g id="node8" class="node">
<title>Node8</title>
<g id="a_node8"><a xlink:title=" ">
<polygon fill="#ffffff" stroke="#bfbfbf" points="263.0306,-168.5 263.0306,-187.5 348.0306,-187.5 348.0306,-168.5 263.0306,-168.5"/>
<text text-anchor="middle" x="305.5306" y="-175.5" font-family="Helvetica,sans-Serif" font-size="10.00" fill="#000000">QMediaPlaylist</text>
</a>
</g>
</g>
<!-- Node2&#45;&gt;Node8 -->
<g id="edge7" class="edge">
<title>Node2&#45;&gt;Node8</title>
<path fill="none" stroke="#191970" d="M802.3193,-231.4961C719.8524,-226.1862 528.5093,-212.3631 358.2047,-188.1269"/>
<polygon fill="#191970" stroke="#191970" points="358.4498,-184.6262 348.0532,-186.6661 357.4527,-191.5548 358.4498,-184.6262"/>
</g>
<!-- Node9 -->
<g id="node9" class="node">
<title>Node9</title>
<g id="a_node9"><a xlink:href="graphicsmanager_8h.html" target="_top" xlink:title=" ">
<polygon fill="#ffffff" stroke="#000000" points="586.0306,-112.5 586.0306,-131.5 689.0306,-131.5 689.0306,-112.5 586.0306,-112.5"/>
<text text-anchor="middle" x="637.5306" y="-119.5" font-family="Helvetica,sans-Serif" font-size="10.00" fill="#000000">graphicsmanager.h</text>
</a>
</g>
</g>
<!-- Node2&#45;&gt;Node9 -->
<g id="edge8" class="edge">
<title>Node2&#45;&gt;Node9</title>
<path fill="none" stroke="#191970" d="M813.7933,-224.3858C790.02,-216.1668 756.21,-203.2653 728.5306,-188 702.095,-173.4206 674.3812,-152.3627 656.5859,-137.9787"/>
<polygon fill="#191970" stroke="#191970" points="658.6485,-135.1439 648.6959,-131.5113 654.2109,-140.5576 658.6485,-135.1439"/>
</g>
<!-- Node13 -->
<g id="node13" class="node">
<title>Node13</title>
<g id="a_node13"><a xlink:href="datamodel_8h.html" target="_top" xlink:title=" ">
<polygon fill="#ffffff" stroke="#000000" points="366.0306,-168.5 366.0306,-187.5 439.0306,-187.5 439.0306,-168.5 366.0306,-168.5"/>
<text text-anchor="middle" x="402.5306" y="-175.5" font-family="Helvetica,sans-Serif" font-size="10.00" fill="#000000">datamodel.h</text>
</a>
</g>
</g>
<!-- Node2&#45;&gt;Node13 -->
<g id="edge12" class="edge">
<title>Node2&#45;&gt;Node13</title>
<path fill="none" stroke="#191970" d="M802.4384,-228.7819C720.2495,-218.3453 536.0766,-194.9582 449.3667,-183.9474"/>
<polygon fill="#191970" stroke="#191970" points="449.6502,-180.4554 439.2889,-182.6677 448.7683,-187.3997 449.6502,-180.4554"/>
</g>
<!-- Node23 -->
<g id="node23" class="node">
<title>Node23</title>
<g id="a_node23"><a xlink:href="point_8h.html" target="_top" xlink:title=" ">
<polygon fill="#ffffff" stroke="#000000" points="975.0306,-56.5 975.0306,-75.5 1020.0306,-75.5 1020.0306,-56.5 975.0306,-56.5"/>
<text text-anchor="middle" x="997.5306" y="-63.5" font-family="Helvetica,sans-Serif" font-size="10.00" fill="#000000">point.h</text>
</a>
</g>
</g>
<!-- Node2&#45;&gt;Node23 -->
<g id="edge33" class="edge">
<title>Node2&#45;&gt;Node23</title>
<path fill="none" stroke="#191970" d="M850.8086,-224.2744C861.281,-210.6776 881.6477,-185.6727 902.5306,-168 925.4025,-148.644 938.7814,-153.6159 959.5306,-132 972.6452,-118.3376 982.9802,-99.3023 989.5406,-85.1835"/>
<polygon fill="#191970" stroke="#191970" points="992.794,-86.4803 993.6361,-75.9189 986.3917,-83.65 992.794,-86.4803"/>
</g>
<!-- Node24 -->
<g id="node24" class="node">
<title>Node24</title>
<g id="a_node24"><a xlink:href="maptile_8h.html" target="_top" xlink:title=" ">
<polygon fill="#ffffff" stroke="#000000" points="737.5306,-168.5 737.5306,-187.5 793.5306,-187.5 793.5306,-168.5 737.5306,-168.5"/>
<text text-anchor="middle" x="765.5306" y="-175.5" font-family="Helvetica,sans-Serif" font-size="10.00" fill="#000000">maptile.h</text>
</a>
</g>
</g>
<!-- Node2&#45;&gt;Node24 -->
<g id="edge28" class="edge">
<title>Node2&#45;&gt;Node24</title>
<path fill="none" stroke="#191970" d="M829.944,-224.2455C818.2001,-215.814 801.0107,-203.4729 787.3424,-193.6598"/>
<polygon fill="#191970" stroke="#191970" points="789.126,-190.6316 778.9615,-187.6427 785.0435,-196.3179 789.126,-190.6316"/>
</g>
<!-- Node27 -->
<g id="node27" class="node">
<title>Node27</title>
<g id="a_node27"><a xlink:href="animationmovement_8h.html" target="_top" xlink:title=" ">
<polygon fill="#ffffff" stroke="#000000" points="911.0306,-168.5 911.0306,-187.5 1026.0306,-187.5 1026.0306,-168.5 911.0306,-168.5"/>
<text text-anchor="middle" x="968.5306" y="-175.5" font-family="Helvetica,sans-Serif" font-size="10.00" fill="#000000">animationmovement.h</text>
</a>
</g>
</g>
<!-- Node2&#45;&gt;Node27 -->
<g id="edge34" class="edge">
<title>Node2&#45;&gt;Node27</title>
<path fill="none" stroke="#191970" d="M865.0189,-224.3733C885.1746,-215.3435 915.5186,-201.7494 938.1486,-191.6111"/>
<polygon fill="#191970" stroke="#191970" points="939.6277,-194.7838 947.3227,-187.5011 936.7657,-188.3955 939.6277,-194.7838"/>
</g>
<!-- Node2&#45;&gt;Node30 -->
<g id="edge43" class="edge">
<title>Node2&#45;&gt;Node30</title>
<path fill="none" stroke="#191970" d="M884.6628,-231.9659C958.0217,-227.7962 1116.2828,-216.3498 1258.3146,-187.9139"/>
<polygon fill="#191970" stroke="#191970" points="1259.4112,-191.2625 1268.5115,-185.837 1258.0141,-184.4033 1259.4112,-191.2625"/>
</g>
<!-- Node31 -->
<g id="node31" class="node">
<title>Node31</title>
<g id="a_node31"><a xlink:href="scaleanimation_8h.html" target="_top" xlink:title=" ">
<polygon fill="#ffffff" stroke="#000000" points="1044.5306,-168.5 1044.5306,-187.5 1136.5306,-187.5 1136.5306,-168.5 1044.5306,-168.5"/>
<text text-anchor="middle" x="1090.5306" y="-175.5" font-family="Helvetica,sans-Serif" font-size="10.00" fill="#000000">scaleanimation.h</text>
</a>
</g>
</g>
<!-- Node2&#45;&gt;Node31 -->
<g id="edge46" class="edge">
<title>Node2&#45;&gt;Node31</title>
<path fill="none" stroke="#191970" d="M884.5949,-224.6899C926.8084,-215.1192 992.6701,-200.187 1038.5045,-189.7954"/>
<polygon fill="#191970" stroke="#191970" points="1039.5628,-193.1444 1048.5413,-187.5198 1038.0149,-186.3176 1039.5628,-193.1444"/>
</g>
<!-- Node10 -->
<g id="node10" class="node">
<title>Node10</title>
<g id="a_node10"><a xlink:title=" ">
<polygon fill="#ffffff" stroke="#bfbfbf" points="608.5306,-56.5 608.5306,-75.5 666.5306,-75.5 666.5306,-56.5 608.5306,-56.5"/>
<text text-anchor="middle" x="637.5306" y="-63.5" font-family="Helvetica,sans-Serif" font-size="10.00" fill="#000000">QPixmap</text>
</a>
</g>
</g>
<!-- Node9&#45;&gt;Node10 -->
<g id="edge9" class="edge">
<title>Node9&#45;&gt;Node10</title>
<path fill="none" stroke="#191970" d="M637.5306,-112.2455C637.5306,-104.9382 637.5306,-94.6944 637.5306,-85.7046"/>
<polygon fill="#191970" stroke="#191970" points="641.0307,-85.6426 637.5306,-75.6427 634.0307,-85.6427 641.0307,-85.6426"/>
</g>
<!-- Node11 -->
<g id="node11" class="node">
<title>Node11</title>
<g id="a_node11"><a xlink:title=" ">
<polygon fill="#ffffff" stroke="#bfbfbf" points="1135.0306,-56.5 1135.0306,-75.5 1188.0306,-75.5 1188.0306,-56.5 1135.0306,-56.5"/>
<text text-anchor="middle" x="1161.5306" y="-63.5" font-family="Helvetica,sans-Serif" font-size="10.00" fill="#000000">QImage</text>
</a>
</g>
</g>
<!-- Node9&#45;&gt;Node11 -->
<g id="edge10" class="edge">
<title>Node9&#45;&gt;Node11</title>
<path fill="none" stroke="#191970" d="M689.0812,-113.3131C692.2757,-112.848 695.445,-112.4058 698.5306,-112 856.4833,-91.2279 1045.8624,-75.1596 1124.4971,-68.8761"/>
<polygon fill="#191970" stroke="#191970" points="1125.1513,-72.3353 1134.843,-68.055 1124.5974,-65.3572 1125.1513,-72.3353"/>
</g>
<!-- Node12 -->
<g id="node12" class="node">
<title>Node12</title>
<g id="a_node12"><a xlink:title=" ">
<polygon fill="#ffffff" stroke="#bfbfbf" points="696.0306,-56.5 696.0306,-75.5 737.0306,-75.5 737.0306,-56.5 696.0306,-56.5"/>
<text text-anchor="middle" x="716.5306" y="-63.5" font-family="Helvetica,sans-Serif" font-size="10.00" fill="#000000">string</text>
</a>
</g>
</g>
<!-- Node9&#45;&gt;Node12 -->
<g id="edge11" class="edge">
<title>Node9&#45;&gt;Node12</title>
<path fill="none" stroke="#191970" d="M651.2913,-112.2455C663.1858,-103.814 680.5956,-91.4729 694.4391,-81.6598"/>
<polygon fill="#191970" stroke="#191970" points="696.7934,-84.2811 702.9275,-75.6427 692.7452,-78.5704 696.7934,-84.2811"/>
</g>
<!-- Node13&#45;&gt;Node3 -->
<g id="edge14" class="edge">
<title>Node13&#45;&gt;Node3</title>
<path fill="none" stroke="#191970" d="M365.904,-169.8765C362.7374,-169.2231 359.5799,-168.5888 356.5306,-168 262.2626,-149.7974 216.8726,-193.9574 143.5306,-132 130.0871,-120.6433 124.4939,-100.9714 122.1709,-86.0509"/>
<polygon fill="#191970" stroke="#191970" points="125.6069,-85.3031 120.9561,-75.7836 118.6554,-86.1256 125.6069,-85.3031"/>
</g>
<!-- Node13&#45;&gt;Node6 -->
<g id="edge17" class="edge">
<title>Node13&#45;&gt;Node6</title>
<path fill="none" stroke="#191970" d="M423.847,-168.3733C443.7522,-159.3838 473.6742,-145.8706 496.0906,-135.7471"/>
<polygon fill="#191970" stroke="#191970" points="497.8193,-138.8068 505.4924,-131.5011 494.9381,-132.4272 497.8193,-138.8068"/>
</g>
<!-- Node13&#45;&gt;Node7 -->
<g id="edge16" class="edge">
<title>Node13&#45;&gt;Node7</title>
<path fill="none" stroke="#191970" d="M365.9177,-169.8031C362.7482,-169.1656 359.5862,-168.555 356.5306,-168 247.8117,-148.2518 219.5713,-149.8859 110.5306,-132 109.2646,-131.7923 107.9827,-131.5795 106.69,-131.3625"/>
<polygon fill="#191970" stroke="#191970" points="107.0976,-127.8813 96.6492,-129.6362 105.9115,-134.7801 107.0976,-127.8813"/>
</g>
<!-- Node14 -->
<g id="node14" class="node">
<title>Node14</title>
<g id="a_node14"><a xlink:title=" ">
<polygon fill="#ffffff" stroke="#bfbfbf" points="167.0306,-56.5 167.0306,-75.5 216.0306,-75.5 216.0306,-56.5 167.0306,-56.5"/>
<text text-anchor="middle" x="191.5306" y="-63.5" font-family="Helvetica,sans-Serif" font-size="10.00" fill="#000000">QLabel</text>
</a>
</g>
</g>
<!-- Node13&#45;&gt;Node14 -->
<g id="edge13" class="edge">
<title>Node13&#45;&gt;Node14</title>
<path fill="none" stroke="#191970" d="M365.9903,-169.2865C338.3645,-161.7874 300.1042,-149.4088 269.5306,-132 246.1189,-118.6692 223.0329,-97.9264 208.1261,-83.258"/>
<polygon fill="#191970" stroke="#191970" points="210.2669,-80.4468 200.7359,-75.8195 205.301,-85.3804 210.2669,-80.4468"/>
</g>
<!-- Node15 -->
<g id="node15" class="node">
<title>Node15</title>
<g id="a_node15"><a xlink:title=" ">
<polygon fill="#ffffff" stroke="#bfbfbf" points="764.5306,-112.5 764.5306,-131.5 814.5306,-131.5 814.5306,-112.5 764.5306,-112.5"/>
<text text-anchor="middle" x="789.5306" y="-119.5" font-family="Helvetica,sans-Serif" font-size="10.00" fill="#000000">QString</text>
</a>
</g>
</g>
<!-- Node13&#45;&gt;Node15 -->
<g id="edge15" class="edge">
<title>Node13&#45;&gt;Node15</title>
<path fill="none" stroke="#191970" d="M439.1817,-175.1274C501.9005,-169.8014 633.9106,-156.8051 754.2701,-131.9912"/>
<polygon fill="#191970" stroke="#191970" points="755.3218,-135.3469 764.3914,-129.8704 753.8862,-128.4957 755.3218,-135.3469"/>
</g>
<!-- Node16 -->
<g id="node16" class="node">
<title>Node16</title>
<g id="a_node16"><a xlink:href="mainwindow_8h.html" target="_top" xlink:title=" ">
<polygon fill="#ffffff" stroke="#000000" points="278.5306,-112.5 278.5306,-131.5 358.5306,-131.5 358.5306,-112.5 278.5306,-112.5"/>
<text text-anchor="middle" x="318.5306" y="-119.5" font-family="Helvetica,sans-Serif" font-size="10.00" fill="#000000">mainwindow.h</text>
</a>
</g>
</g>
<!-- Node13&#45;&gt;Node16 -->
<g id="edge18" class="edge">
<title>Node13&#45;&gt;Node16</title>
<path fill="none" stroke="#191970" d="M387.8989,-168.2455C375.1312,-159.7337 356.3868,-147.2375 341.6007,-137.3801"/>
<polygon fill="#191970" stroke="#191970" points="343.2566,-134.2775 332.9946,-131.6427 339.3737,-140.1019 343.2566,-134.2775"/>
</g>
<!-- Node19 -->
<g id="node19" class="node">
<title>Node19</title>
<g id="a_node19"><a xlink:href="player_8h.html" target="_top" xlink:title=" ">
<polygon fill="#ffffff" stroke="#000000" points="376.5306,-112.5 376.5306,-131.5 428.5306,-131.5 428.5306,-112.5 376.5306,-112.5"/>
<text text-anchor="middle" x="402.5306" y="-119.5" font-family="Helvetica,sans-Serif" font-size="10.00" fill="#000000">player.h</text>
</a>
</g>
</g>
<!-- Node13&#45;&gt;Node19 -->
<g id="edge21" class="edge">
<title>Node13&#45;&gt;Node19</title>
<path fill="none" stroke="#191970" d="M402.5306,-168.2455C402.5306,-160.9382 402.5306,-150.6944 402.5306,-141.7046"/>
<polygon fill="#191970" stroke="#191970" points="406.0307,-141.6426 402.5306,-131.6427 399.0307,-141.6427 406.0307,-141.6426"/>
</g>
<!-- Node22 -->
<g id="node22" class="node">
<title>Node22</title>
<g id="a_node22"><a xlink:href="infowidget_8h.html" target="_top" xlink:title=" ">
<polygon fill="#ffffff" stroke="#000000" points="152.5306,-112.5 152.5306,-131.5 222.5306,-131.5 222.5306,-112.5 152.5306,-112.5"/>
<text text-anchor="middle" x="187.5306" y="-119.5" font-family="Helvetica,sans-Serif" font-size="10.00" fill="#000000">infowidget.h</text>
</a>
</g>
</g>
<!-- Node13&#45;&gt;Node22 -->
<g id="edge24" class="edge">
<title>Node13&#45;&gt;Node22</title>
<path fill="none" stroke="#191970" d="M365.5708,-168.3733C328.6813,-158.7648 271.95,-143.9883 232.4761,-133.7067"/>
<polygon fill="#191970" stroke="#191970" points="233.1438,-130.2639 222.5844,-131.1303 231.3793,-137.0379 233.1438,-130.2639"/>
</g>
<!-- Node13&#45;&gt;Node23 -->
<g id="edge27" class="edge">
<title>Node13&#45;&gt;Node23</title>
<path fill="none" stroke="#191970" d="M409.8995,-168.2583C421.9487,-153.1682 447.458,-124.5734 476.5306,-112 521.2501,-92.6596 857.1978,-73.4154 964.6122,-67.7005"/>
<polygon fill="#191970" stroke="#191970" points="965.0478,-71.1824 974.8494,-67.1601 964.6788,-64.1922 965.0478,-71.1824"/>
</g>
<!-- Node17 -->
<g id="node17" class="node">
<title>Node17</title>
<g id="a_node17"><a xlink:title=" ">
<polygon fill="#ffffff" stroke="#bfbfbf" points="234.0306,-56.5 234.0306,-75.5 317.0306,-75.5 317.0306,-56.5 234.0306,-56.5"/>
<text text-anchor="middle" x="275.5306" y="-63.5" font-family="Helvetica,sans-Serif" font-size="10.00" fill="#000000">QMainWindow</text>
</a>
</g>
</g>
<!-- Node16&#45;&gt;Node17 -->
<g id="edge19" class="edge">
<title>Node16&#45;&gt;Node17</title>
<path fill="none" stroke="#191970" d="M311.0406,-112.2455C304.998,-104.3761 296.3403,-93.101 289.0865,-83.6542"/>
<polygon fill="#191970" stroke="#191970" points="291.8011,-81.4426 282.9348,-75.6427 286.2491,-85.7058 291.8011,-81.4426"/>
</g>
<!-- Node18 -->
<g id="node18" class="node">
<title>Node18</title>
<g id="a_node18"><a xlink:title=" ">
<polygon fill="#ffffff" stroke="#bfbfbf" points="335.0306,-56.5 335.0306,-75.5 402.0306,-75.5 402.0306,-56.5 335.0306,-56.5"/>
<text text-anchor="middle" x="368.5306" y="-63.5" font-family="Helvetica,sans-Serif" font-size="10.00" fill="#000000">QKeyEvent</text>
</a>
</g>
</g>
<!-- Node16&#45;&gt;Node18 -->
<g id="edge20" class="edge">
<title>Node16&#45;&gt;Node18</title>
<path fill="none" stroke="#191970" d="M327.2399,-112.2455C334.3379,-104.2958 344.539,-92.8706 353.0256,-83.3656"/>
<polygon fill="#191970" stroke="#191970" points="355.8717,-85.4331 359.9211,-75.6427 350.6501,-80.771 355.8717,-85.4331"/>
</g>
<!-- Node20 -->
<g id="node20" class="node">
<title>Node20</title>
<g id="a_node20"><a xlink:href="highlighter_8h.html" target="_top" xlink:title=" ">
<polygon fill="#ffffff" stroke="#000000" points="420.5306,-56.5 420.5306,-75.5 490.5306,-75.5 490.5306,-56.5 420.5306,-56.5"/>
<text text-anchor="middle" x="455.5306" y="-63.5" font-family="Helvetica,sans-Serif" font-size="10.00" fill="#000000">highlighter.h</text>
</a>
</g>
</g>
<!-- Node19&#45;&gt;Node20 -->
<g id="edge22" class="edge">
<title>Node19&#45;&gt;Node20</title>
<path fill="none" stroke="#191970" d="M411.7625,-112.2455C419.3623,-104.2155 430.3183,-92.6394 439.3673,-83.0781"/>
<polygon fill="#191970" stroke="#191970" points="442.0726,-85.3115 446.4045,-75.6427 436.9886,-80.4998 442.0726,-85.3115"/>
</g>
<!-- Node21 -->
<g id="node21" class="node">
<title>Node21</title>
<g id="a_node21"><a xlink:title=" ">
<polygon fill="#ffffff" stroke="#bfbfbf" points="403.5306,-.5 403.5306,-19.5 507.5306,-19.5 507.5306,-.5 403.5306,-.5"/>
<text text-anchor="middle" x="455.5306" y="-7.5" font-family="Helvetica,sans-Serif" font-size="10.00" fill="#000000">QGraphicsRectItem</text>
</a>
</g>
</g>
<!-- Node20&#45;&gt;Node21 -->
<g id="edge23" class="edge">
<title>Node20&#45;&gt;Node21</title>
<path fill="none" stroke="#191970" d="M455.5306,-56.2455C455.5306,-48.9382 455.5306,-38.6944 455.5306,-29.7046"/>
<polygon fill="#191970" stroke="#191970" points="459.0307,-29.6426 455.5306,-19.6427 452.0307,-29.6427 459.0307,-29.6426"/>
</g>
<!-- Node22&#45;&gt;Node3 -->
<g id="edge26" class="edge">
<title>Node22&#45;&gt;Node3</title>
<path fill="none" stroke="#191970" d="M175.8601,-112.2455C165.9645,-103.9746 151.5679,-91.9416 139.9405,-82.2232"/>
<polygon fill="#191970" stroke="#191970" points="141.9848,-79.3703 132.0674,-75.6427 137.4956,-84.7413 141.9848,-79.3703"/>
</g>
<!-- Node22&#45;&gt;Node14 -->
<g id="edge25" class="edge">
<title>Node22&#45;&gt;Node14</title>
<path fill="none" stroke="#191970" d="M188.2273,-112.2455C188.7493,-104.9382 189.481,-94.6944 190.1231,-85.7046"/>
<polygon fill="#191970" stroke="#191970" points="193.6204,-85.8667 190.8418,-75.6427 186.6382,-85.3679 193.6204,-85.8667"/>
</g>
<!-- Node24&#45;&gt;Node9 -->
<g id="edge32" class="edge">
<title>Node24&#45;&gt;Node9</title>
<path fill="none" stroke="#191970" d="M743.5266,-168.3733C722.8871,-159.3435 691.8148,-145.7494 668.6417,-135.6111"/>
<polygon fill="#191970" stroke="#191970" points="669.8119,-132.3028 659.2474,-131.5011 667.0061,-138.7159 669.8119,-132.3028"/>
</g>
<!-- Node25 -->
<g id="node25" class="node">
<title>Node25</title>
<g id="a_node25"><a xlink:title=" ">
<polygon fill="#ffffff" stroke="#bfbfbf" points="833.0306,-112.5 833.0306,-131.5 950.0306,-131.5 950.0306,-112.5 833.0306,-112.5"/>
<text text-anchor="middle" x="891.5306" y="-119.5" font-family="Helvetica,sans-Serif" font-size="10.00" fill="#000000">QGraphicsPixmapItem</text>
</a>
</g>
</g>
<!-- Node24&#45;&gt;Node25 -->
<g id="edge29" class="edge">
<title>Node24&#45;&gt;Node25</title>
<path fill="none" stroke="#191970" d="M787.1908,-168.3733C807.5077,-159.3435 838.0945,-145.7494 860.9056,-135.6111"/>
<polygon fill="#191970" stroke="#191970" points="862.4364,-138.7609 870.1531,-131.5011 859.5934,-132.3642 862.4364,-138.7609"/>
</g>
<!-- Node26 -->
<g id="node26" class="node">
<title>Node26</title>
<g id="a_node26"><a xlink:href="city_8h.html" target="_top" xlink:title=" ">
<polygon fill="#ffffff" stroke="#000000" points="707.0306,-112.5 707.0306,-131.5 746.0306,-131.5 746.0306,-112.5 707.0306,-112.5"/>
<text text-anchor="middle" x="726.5306" y="-119.5" font-family="Helvetica,sans-Serif" font-size="10.00" fill="#000000">city.h</text>
</a>
</g>
</g>
<!-- Node24&#45;&gt;Node26 -->
<g id="edge30" class="edge">
<title>Node24&#45;&gt;Node26</title>
<path fill="none" stroke="#191970" d="M758.7373,-168.2455C753.3127,-160.4564 745.5645,-149.3308 739.0273,-139.9439"/>
<polygon fill="#191970" stroke="#191970" points="741.8331,-137.8485 733.246,-131.6427 736.0889,-141.849 741.8331,-137.8485"/>
</g>
<!-- Node26&#45;&gt;Node12 -->
<g id="edge31" class="edge">
<title>Node26&#45;&gt;Node12</title>
<path fill="none" stroke="#191970" d="M724.7887,-112.2455C723.4838,-104.9382 721.6546,-94.6944 720.0493,-85.7046"/>
<polygon fill="#191970" stroke="#191970" points="723.456,-84.8717 718.2525,-75.6427 716.565,-86.1022 723.456,-84.8717"/>
</g>
<!-- Node27&#45;&gt;Node4 -->
<g id="edge39" class="edge">
<title>Node27&#45;&gt;Node4</title>
<path fill="none" stroke="#191970" d="M1025.6433,-168.4949C1082.9606,-158.7757 1168.313,-143.7707 1214.8949,-132.0882"/>
<polygon fill="#191970" stroke="#191970" points="1215.9848,-135.4208 1224.7697,-129.4982 1214.2089,-128.6498 1215.9848,-135.4208"/>
</g>
<!-- Node27&#45;&gt;Node15 -->
<g id="edge40" class="edge">
<title>Node27&#45;&gt;Node15</title>
<path fill="none" stroke="#191970" d="M937.7594,-168.3733C906.235,-158.5109 857.3063,-143.2036 824.3751,-132.9011"/>
<polygon fill="#191970" stroke="#191970" points="825.2946,-129.5215 814.7056,-129.876 823.2045,-136.2022 825.2946,-129.5215"/>
</g>
<!-- Node27&#45;&gt;Node23 -->
<g id="edge35" class="edge">
<title>Node27&#45;&gt;Node23</title>
<path fill="none" stroke="#191970" d="M975.11,-168.2639C980.8092,-159.2754 988.7203,-145.3383 992.5306,-132 996.8271,-116.9593 997.9681,-99.2528 998.0946,-85.9682"/>
<polygon fill="#191970" stroke="#191970" points="1001.5912,-85.5774 997.9984,-75.6104 994.5915,-85.6425 1001.5912,-85.5774"/>
</g>
<!-- Node27&#45;&gt;Node25 -->
<g id="edge42" class="edge">
<title>Node27&#45;&gt;Node25</title>
<path fill="none" stroke="#191970" d="M955.1182,-168.2455C943.5249,-159.814 926.5558,-147.4729 913.0628,-137.6598"/>
<polygon fill="#191970" stroke="#191970" points="914.9353,-134.6938 904.7893,-131.6427 910.818,-140.355 914.9353,-134.6938"/>
</g>
<!-- Node28 -->
<g id="node28" class="node">
<title>Node28</title>
<g id="a_node28"><a xlink:href="animationentity_8h.html" target="_top" xlink:title=" ">
<polygon fill="#ffffff" stroke="#000000" points="1116.0306,-112.5 1116.0306,-131.5 1207.0306,-131.5 1207.0306,-112.5 1116.0306,-112.5"/>
<text text-anchor="middle" x="1161.5306" y="-119.5" font-family="Helvetica,sans-Serif" font-size="10.00" fill="#000000">animationentity.h</text>
</a>
</g>
</g>
<!-- Node27&#45;&gt;Node28 -->
<g id="edge36" class="edge">
<title>Node27&#45;&gt;Node28</title>
<path fill="none" stroke="#191970" d="M1001.7085,-168.3733C1034.0793,-158.9807 1083.4704,-144.6496 1118.773,-134.4064"/>
<polygon fill="#191970" stroke="#191970" points="1120.1571,-137.6492 1128.7857,-131.5011 1118.2064,-130.9264 1120.1571,-137.6492"/>
</g>
<!-- Node29 -->
<g id="node29" class="node">
<title>Node29</title>
<g id="a_node29"><a xlink:title=" ">
<polygon fill="#ffffff" stroke="#bfbfbf" points="1045.0306,-112.5 1045.0306,-131.5 1098.0306,-131.5 1098.0306,-112.5 1045.0306,-112.5"/>
<text text-anchor="middle" x="1071.5306" y="-119.5" font-family="Helvetica,sans-Serif" font-size="10.00" fill="#000000">QObject</text>
</a>
</g>
</g>
<!-- Node27&#45;&gt;Node29 -->
<g id="edge41" class="edge">
<title>Node27&#45;&gt;Node29</title>
<path fill="none" stroke="#191970" d="M986.4718,-168.2455C1002.5706,-159.4928 1026.4185,-146.527 1044.7697,-136.5496"/>
<polygon fill="#191970" stroke="#191970" points="1046.6813,-139.4942 1053.795,-131.6427 1043.3377,-133.3444 1046.6813,-139.4942"/>
</g>
<!-- Node28&#45;&gt;Node11 -->
<g id="edge37" class="edge">
<title>Node28&#45;&gt;Node11</title>
<path fill="none" stroke="#191970" d="M1161.5306,-112.2455C1161.5306,-104.9382 1161.5306,-94.6944 1161.5306,-85.7046"/>
<polygon fill="#191970" stroke="#191970" points="1165.0307,-85.6426 1161.5306,-75.6427 1158.0307,-85.6427 1165.0307,-85.6426"/>
</g>
<!-- Node28&#45;&gt;Node23 -->
<g id="edge38" class="edge">
<title>Node28&#45;&gt;Node23</title>
<path fill="none" stroke="#191970" d="M1133.338,-112.3733C1104.5397,-102.5397 1059.8887,-87.293 1029.7201,-76.9916"/>
<polygon fill="#191970" stroke="#191970" points="1030.6826,-73.6218 1020.0881,-73.7026 1028.4205,-80.2463 1030.6826,-73.6218"/>
</g>
<!-- Node30&#45;&gt;Node4 -->
<g id="edge45" class="edge">
<title>Node30&#45;&gt;Node4</title>
<path fill="none" stroke="#191970" d="M1284.1696,-168.2455C1277.3556,-160.2958 1267.5625,-148.8706 1259.4154,-139.3656"/>
<polygon fill="#191970" stroke="#191970" points="1261.9611,-136.9575 1252.7957,-131.6427 1256.6463,-141.513 1261.9611,-136.9575"/>
</g>
<!-- Node30&#45;&gt;Node11 -->
<g id="edge44" class="edge">
<title>Node30&#45;&gt;Node11</title>
<path fill="none" stroke="#191970" d="M1292.2885,-168.2292C1291.4287,-154.1196 1287.8545,-127.9835 1273.5306,-112 1254.1357,-90.358 1223.0249,-78.6755 1198.5086,-72.5072"/>
<polygon fill="#191970" stroke="#191970" points="1198.9897,-69.0263 1188.4588,-70.1883 1197.4158,-75.8471 1198.9897,-69.0263"/>
</g>
<!-- Node31&#45;&gt;Node28 -->
<g id="edge47" class="edge">
<title>Node31&#45;&gt;Node28</title>
<path fill="none" stroke="#191970" d="M1102.8978,-168.2455C1113.486,-159.8943 1128.937,-147.7076 1141.3199,-137.9408"/>
<polygon fill="#191970" stroke="#191970" points="1143.6209,-140.5837 1149.3051,-131.6427 1139.2859,-135.0875 1143.6209,-140.5837"/>
</g>
</g>
</svg>
        <g id="navigator" transform="translate(0 0)" fill="#404254">
                <rect fill="#f2f5e9" fill-opacity="0.5" stroke="#606060" stroke-width=".5" x="0" y="0" width="60" height="60"/>
                <use id="zoomplus" xlink:href="#zoomPlus" x="17" y="9" onmousedown="handleZoom(evt,'in')"/>
                <use id="zoomminus" xlink:href="#zoomMin" x="42" y="9" onmousedown="handleZoom(evt,'out')"/>
                <use id="reset" xlink:href="#resetDef" x="30" y="36" onmousedown="handleReset()"/>
                <g id="arrowUp" xlink:href="#dirArrow" transform="translate(30 24)" onmousedown="handlePan(0,-1)">
                  <use xlink:href="#rim" fill="#404040">
                        <set attributeName="fill" to="#808080" begin="arrowUp.mouseover" end="arrowUp.mouseout"/>
                  </use>
                  <path fill="none" stroke="white" stroke-width="1.5" d="M0,-3.0v7 M-2.5,-0.5L0,-3.0L2.5,-0.5"/>
                </g>
                <g id="arrowRight" xlink:href="#dirArrow" transform="rotate(90) translate(36 -43)" onmousedown="handlePan(1,0)">
                  <use xlink:href="#rim" fill="#404040">
                        <set attributeName="fill" to="#808080" begin="arrowRight.mouseover" end="arrowRight.mouseout"/>
                  </use>
                  <path fill="none" stroke="white" stroke-width="1.5" d="M0,-3.0v7 M-2.5,-0.5L0,-3.0L2.5,-0.5"/>
                </g>
                <g id="arrowDown" xlink:href="#dirArrow" transform="rotate(180) translate(-30 -48)" onmousedown="handlePan(0,1)">
                  <use xlink:href="#rim" fill="#404040">
                        <set attributeName="fill" to="#808080" begin="arrowDown.mouseover" end="arrowDown.mouseout"/>
                  </use>
                  <path fill="none" stroke="white" stroke-width="1.5" d="M0,-3.0v7 M-2.5,-0.5L0,-3.0L2.5,-0.5"/>
                </g>
                <g id="arrowLeft" xlink:href="#dirArrow" transform="rotate(270) translate(-36 17)" onmousedown="handlePan(-1,0)">
                  <use xlink:href="#rim" fill="#404040">
                        <set attributeName="fill" to="#808080" begin="arrowLeft.mouseover" end="arrowLeft.mouseout"/>
                  </use>
                  <path fill="none" stroke="white" stroke-width="1.5" d="M0,-3.0v7 M-2.5,-0.5L0,-3.0L2.5,-0.5"/>
                </g>
        </g>
        <svg viewBox="0 0 15 15" width="100%" height="30px" preserveAspectRatio="xMaxYMin meet">
         <g id="arrow_out" transform="scale(0.3 0.3)">
          <a xlink:href="maprenderer_8cpp__incl_org.svg" target="_base">
           <rect id="button" ry="5" rx="5" y="6" x="6" height="38" width="38"
                fill="#f2f5e9" fill-opacity="0.5" stroke="#606060" stroke-width="1.0"/>
           <path id="arrow"
             d="M 11.500037,31.436501 C 11.940474,20.09759 22.043105,11.32322 32.158766,21.979434 L 37.068811,17.246167 C 37.068811,17.246167 37.088388,32 37.088388,32 L 22.160133,31.978069 C 22.160133,31.978069 26.997745,27.140456 26.997745,27.140456 C 18.528582,18.264221 13.291696,25.230495 11.500037,31.436501 z"
             style="fill:#404040;"/>
          </a>
         </g>
        </svg>
</svg>
