<?xml version="1.0" encoding="UTF-8" standalone="no"?>
<!DOCTYPE svg PUBLIC "-//W3C//DTD SVG 1.1//EN"
 "http://www.w3.org/Graphics/SVG/1.1/DTD/svg11.dtd">
<!-- Generated by graphviz version 2.40.1 (20161225.0304)
 -->
<!-- Title: src/application_server/maprenderer.cpp Pages: 1 -->
<!--zoomable 319 -->
<svg id="main" version="1.1" xmlns="http://www.w3.org/2000/svg" xmlns:xlink="http://www.w3.org/1999/xlink" xml:space="preserve" onload="init(evt)">
<style type="text/css"><![CDATA[
.edge:hover path { stroke: red; }
.edge:hover polygon { stroke: red; fill: red; }
]]></style>
<script type="text/javascript"><![CDATA[
var edges = document.getElementsByTagName('g');
if (edges && edges.length) {
  for (var i=0;i<edges.length;i++) {
    if (edges[i].id.substr(0,4)=='edge') {
      edges[i].setAttribute('class','edge');
    }
  }
}
]]></script>
        <defs>
                <circle id="rim" cx="0" cy="0" r="7"/>
                <circle id="rim2" cx="0" cy="0" r="3.5"/>
                <g id="zoomPlus">
                        <use xlink:href="#rim" fill="#404040">
                                <set attributeName="fill" to="#808080" begin="zoomplus.mouseover" end="zoomplus.mouseout"/>
                        </use>
                        <path d="M-4,0h8M0,-4v8" fill="none" stroke="white" stroke-width="1.5" pointer-events="none"/>
                </g>
                <g id="zoomMin">
                        <use xlink:href="#rim" fill="#404040">
                                <set attributeName="fill" to="#808080" begin="zoomminus.mouseover" end="zoomminus.mouseout"/>
                        </use>
                        <path d="M-4,0h8" fill="none" stroke="white" stroke-width="1.5" pointer-events="none"/>
                </g>
                <g id="dirArrow">
                        <path fill="none" stroke="white" stroke-width="1.5" d="M0,-3.0v7 M-2.5,-0.5L0,-3.0L2.5,-0.5"/>
                </g>
               <g id="resetDef">
                       <use xlink:href="#rim2" fill="#404040">
                               <set attributeName="fill" to="#808080" begin="reset.mouseover" end="reset.mouseout"/>
                       </use>
               </g>
        </defs>

<script type="text/javascript">
var viewWidth = 1378;
var viewHeight = 319;
var sectionId = 'dynsection-0';
</script>
<script xlink:href="svgpan.js"/>
<svg id="graph" class="graph">
<g id="viewport">
<title>src/application_server/maprenderer.cpp</title>
<polygon fill="#ffffff" stroke="transparent" points="-4,4 -4,-315 1374,-315 1374,4 -4,4"/>
<!-- Node1 -->
<g id="node1" class="node">
<title>Node1</title>
<g id="a_node1"><a xlink:title=" ">
<polygon fill="#bfbfbf" stroke="#000000" points="1092,-280.5 1092,-310.5 1207,-310.5 1207,-280.5 1092,-280.5"/>
<text text-anchor="start" x="1100" y="-298.5" font-family="Helvetica,sans-Serif" font-size="10.00" fill="#000000">src/application_server</text>
<text text-anchor="middle" x="1149.5" y="-287.5" font-family="Helvetica,sans-Serif" font-size="10.00" fill="#000000">/maprenderer.cpp</text>
</a>
</g>
</g>
<!-- Node2 -->
<g id="node2" class="node">
<title>Node2</title>
<g id="a_node2"><a xlink:href="maprenderer_8h.html" target="_top" xlink:title=" ">
<polygon fill="#ffffff" stroke="#000000" points="795.5,-224.5 795.5,-243.5 877.5,-243.5 877.5,-224.5 795.5,-224.5"/>
<text text-anchor="middle" x="836.5" y="-231.5" font-family="Helvetica,sans-Serif" font-size="10.00" fill="#000000">maprenderer.h</text>
</a>
</g>
</g>
<!-- Node1&#45;&gt;Node2 -->
<g id="edge1" class="edge">
<title>Node1&#45;&gt;Node2</title>
<path fill="none" stroke="#191970" d="M1091.7262,-284.1483C1033.3585,-272.6799 944.0243,-255.127 888.0046,-244.1199"/>
<polygon fill="#191970" stroke="#191970" points="888.4344,-240.6375 877.9472,-242.1438 887.0848,-247.5062 888.4344,-240.6375"/>
</g>
<!-- Node29 -->
<g id="node29" class="node">
<title>Node29</title>
<g id="a_node29"><a xlink:href="sprite_8h.html" target="_top" xlink:title=" ">
<polygon fill="#ffffff" stroke="#000000" points="1186.5,-168.5 1186.5,-187.5 1234.5,-187.5 1234.5,-168.5 1186.5,-168.5"/>
<text text-anchor="middle" x="1210.5" y="-175.5" font-family="Helvetica,sans-Serif" font-size="10.00" fill="#000000">sprite.h</text>
</a>
</g>
</g>
<!-- Node1&#45;&gt;Node29 -->
<g id="edge47" class="edge">
<title>Node1&#45;&gt;Node29</title>
<path fill="none" stroke="#191970" d="M1115.1319,-280.4187C1089.3163,-266.8982 1060.8828,-245.873 1076.5,-224 1079.5422,-219.7392 1137.8255,-200.794 1176.5145,-188.5848"/>
<polygon fill="#191970" stroke="#191970" points="1177.8737,-191.8265 1186.3637,-185.4884 1175.7743,-185.1487 1177.8737,-191.8265"/>
</g>
<!-- Node31 -->
<g id="node31" class="node">
<title>Node31</title>
<g id="a_node31"><a xlink:title=" ">
<polygon fill="#ffffff" stroke="#bfbfbf" points="1085.5,-224.5 1085.5,-243.5 1141.5,-243.5 1141.5,-224.5 1085.5,-224.5"/>
<text text-anchor="middle" x="1113.5" y="-231.5" font-family="Helvetica,sans-Serif" font-size="10.00" fill="#000000">QPainter</text>
</a>
</g>
</g>
<!-- Node1&#45;&gt;Node31 -->
<g id="edge43" class="edge">
<title>Node1&#45;&gt;Node31</title>
<path fill="none" stroke="#191970" d="M1140.6011,-280.2977C1135.7081,-271.9388 1129.5974,-261.4997 1124.4176,-252.6509"/>
<polygon fill="#191970" stroke="#191970" points="1127.3365,-250.7089 1119.2641,-243.8469 1121.2953,-254.2452 1127.3365,-250.7089"/>
</g>
<!-- Node32 -->
<g id="node32" class="node">
<title>Node32</title>
<g id="a_node32"><a xlink:title=" ">
<polygon fill="#ffffff" stroke="#bfbfbf" points="1159.5,-224.5 1159.5,-243.5 1213.5,-243.5 1213.5,-224.5 1159.5,-224.5"/>
<text text-anchor="middle" x="1186.5" y="-231.5" font-family="Helvetica,sans-Serif" font-size="10.00" fill="#000000">QDebug</text>
</a>
</g>
</g>
<!-- Node1&#45;&gt;Node32 -->
<g id="edge44" class="edge">
<title>Node1&#45;&gt;Node32</title>
<path fill="none" stroke="#191970" d="M1158.6461,-280.2977C1163.6751,-271.9388 1169.9555,-261.4997 1175.2791,-252.6509"/>
<polygon fill="#191970" stroke="#191970" points="1178.4197,-254.2201 1180.5758,-243.8469 1172.4215,-250.6114 1178.4197,-254.2201"/>
</g>
<!-- Node33 -->
<g id="node33" class="node">
<title>Node33</title>
<g id="a_node33"><a xlink:title=" ">
<polygon fill="#ffffff" stroke="#bfbfbf" points="1232,-224.5 1232,-243.5 1273,-243.5 1273,-224.5 1232,-224.5"/>
<text text-anchor="middle" x="1252.5" y="-231.5" font-family="Helvetica,sans-Serif" font-size="10.00" fill="#000000">ctime</text>
</a>
</g>
</g>
<!-- Node1&#45;&gt;Node33 -->
<g id="edge45" class="edge">
<title>Node1&#45;&gt;Node33</title>
<path fill="none" stroke="#191970" d="M1174.6966,-280.4554C1190.8272,-270.8241 1211.6638,-258.3828 1227.7136,-248.7996"/>
<polygon fill="#191970" stroke="#191970" points="1229.747,-251.662 1236.5387,-243.5303 1226.1584,-245.6518 1229.747,-251.662"/>
</g>
<!-- Node34 -->
<g id="node34" class="node">
<title>Node34</title>
<g id="a_node34"><a xlink:title=" ">
<polygon fill="#ffffff" stroke="#bfbfbf" points="1291,-224.5 1291,-243.5 1370,-243.5 1370,-224.5 1291,-224.5"/>
<text text-anchor="middle" x="1330.5" y="-231.5" font-family="Helvetica,sans-Serif" font-size="10.00" fill="#000000">QHBoxLayout</text>
</a>
</g>
</g>
<!-- Node1&#45;&gt;Node34 -->
<g id="edge46" class="edge">
<title>Node1&#45;&gt;Node34</title>
<path fill="none" stroke="#191970" d="M1193.7776,-280.4554C1224.1104,-270.149 1263.9129,-256.6249 1292.7444,-246.8286"/>
<polygon fill="#191970" stroke="#191970" points="1294.1091,-250.0615 1302.4514,-243.5303 1291.857,-243.4336 1294.1091,-250.0615"/>
</g>
<!-- Node3 -->
<g id="node3" class="node">
<title>Node3</title>
<g id="a_node3"><a xlink:title=" ">
<polygon fill="#ffffff" stroke="#bfbfbf" points="475.5,-112.5 475.5,-131.5 531.5,-131.5 531.5,-112.5 475.5,-112.5"/>
<text text-anchor="middle" x="503.5" y="-119.5" font-family="Helvetica,sans-Serif" font-size="10.00" fill="#000000">QWidget</text>
</a>
</g>
</g>
<!-- Node2&#45;&gt;Node3 -->
<g id="edge2" class="edge">
<title>Node2&#45;&gt;Node3</title>
<path fill="none" stroke="#191970" d="M795.437,-226.97C755.4634,-219.5102 693.3321,-206.2699 641.5,-188 600.9464,-173.7056 556.4889,-151.092 529.2874,-136.4002"/>
<polygon fill="#191970" stroke="#191970" points="530.8748,-133.2793 520.4203,-131.5606 527.5212,-139.4237 530.8748,-133.2793"/>
</g>
<!-- Node4 -->
<g id="node4" class="node">
<title>Node4</title>
<g id="a_node4"><a xlink:title=" ">
<polygon fill="#ffffff" stroke="#bfbfbf" points="1150,-112.5 1150,-131.5 1189,-131.5 1189,-112.5 1150,-112.5"/>
<text text-anchor="middle" x="1169.5" y="-119.5" font-family="Helvetica,sans-Serif" font-size="10.00" fill="#000000">QList</text>
</a>
</g>
</g>
<!-- Node2&#45;&gt;Node4 -->
<g id="edge3" class="edge">
<title>Node2&#45;&gt;Node4</title>
<path fill="none" stroke="#191970" d="M842.3714,-224.4557C852.052,-209.6363 872.8668,-181.4055 898.5,-168 992.4128,-118.886 1033.1711,-156.1589 1139.9144,-131.9535"/>
<polygon fill="#191970" stroke="#191970" points="1140.8559,-135.327 1149.7629,-129.5898 1139.2221,-128.5203 1140.8559,-135.327"/>
</g>
<!-- Node5 -->
<g id="node5" class="node">
<title>Node5</title>
<g id="a_node5"><a xlink:title=" ">
<polygon fill="#ffffff" stroke="#bfbfbf" points="907.5,-168.5 907.5,-187.5 965.5,-187.5 965.5,-168.5 907.5,-168.5"/>
<text text-anchor="middle" x="936.5" y="-175.5" font-family="Helvetica,sans-Serif" font-size="10.00" fill="#000000">QThread</text>
</a>
</g>
</g>
<!-- Node2&#45;&gt;Node5 -->
<g id="edge4" class="edge">
<title>Node2&#45;&gt;Node5</title>
<path fill="none" stroke="#191970" d="M853.9187,-224.2455C869.5485,-215.4928 892.7019,-202.527 910.5185,-192.5496"/>
<polygon fill="#191970" stroke="#191970" points="912.266,-195.5825 919.2809,-187.6427 908.8457,-189.475 912.266,-195.5825"/>
</g>
<!-- Node6 -->
<g id="node6" class="node">
<title>Node6</title>
<g id="a_node6"><a xlink:title=" ">
<polygon fill="#ffffff" stroke="#bfbfbf" points="0,-112.5 0,-131.5 83,-131.5 83,-112.5 0,-112.5"/>
<text text-anchor="middle" x="41.5" y="-119.5" font-family="Helvetica,sans-Serif" font-size="10.00" fill="#000000">QVideoWidget</text>
</a>
</g>
</g>
<!-- Node2&#45;&gt;Node6 -->
<g id="edge5" class="edge">
<title>Node2&#45;&gt;Node6</title>
<path fill="none" stroke="#191970" d="M795.424,-232.0076C680.0219,-226.2152 354.4697,-208.4853 249.5,-188 186.2931,-175.6649 115.3184,-150.6116 74.7593,-135.1684"/>
<polygon fill="#191970" stroke="#191970" points="75.9584,-131.8797 65.3685,-131.5569 73.4457,-138.4132 75.9584,-131.8797"/>
</g>
<!-- Node7 -->
<g id="node7" class="node">
<title>Node7</title>
<g id="a_node7"><a xlink:title=" ">
<polygon fill="#ffffff" stroke="#bfbfbf" points="101.5,-112.5 101.5,-131.5 183.5,-131.5 183.5,-112.5 101.5,-112.5"/>
<text text-anchor="middle" x="142.5" y="-119.5" font-family="Helvetica,sans-Serif" font-size="10.00" fill="#000000">QMediaPlayer</text>
</a>
</g>
</g>
<!-- Node2&#45;&gt;Node7 -->
<g id="edge6" class="edge">
<title>Node2&#45;&gt;Node7</title>
<path fill="none" stroke="#191970" d="M795.1521,-231.8087C688.7537,-225.9353 407.4882,-208.8621 316.5,-188 263.7619,-175.908 205.5613,-151.3922 171.6141,-135.882"/>
<polygon fill="#191970" stroke="#191970" points="172.844,-132.5947 162.2986,-131.5727 169.905,-138.9478 172.844,-132.5947"/>
</g>
<!-- Node8 -->
<g id="node8" class="node">
<title>Node8</title>
<g id="a_node8"><a xlink:title=" ">
<polygon fill="#ffffff" stroke="#bfbfbf" points="984,-168.5 984,-187.5 1069,-187.5 1069,-168.5 984,-168.5"/>
<text text-anchor="middle" x="1026.5" y="-175.5" font-family="Helvetica,sans-Serif" font-size="10.00" fill="#000000">QMediaPlaylist</text>
</a>
</g>
</g>
<!-- Node2&#45;&gt;Node8 -->
<g id="edge7" class="edge">
<title>Node2&#45;&gt;Node8</title>
<path fill="none" stroke="#191970" d="M869.1622,-224.3733C901.0298,-214.9807 949.6531,-200.6496 984.407,-190.4064"/>
<polygon fill="#191970" stroke="#191970" points="985.6615,-193.6855 994.264,-187.5011 983.6825,-186.9711 985.6615,-193.6855"/>
</g>
<!-- Node9 -->
<g id="node9" class="node">
<title>Node9</title>
<g id="a_node9"><a xlink:href="graphicsmanager_8h.html" target="_top" xlink:title=" ">
<polygon fill="#ffffff" stroke="#000000" points="607,-112.5 607,-131.5 710,-131.5 710,-112.5 607,-112.5"/>
<text text-anchor="middle" x="658.5" y="-119.5" font-family="Helvetica,sans-Serif" font-size="10.00" fill="#000000">graphicsmanager.h</text>
</a>
</g>
</g>
<!-- Node2&#45;&gt;Node9 -->
<g id="edge8" class="edge">
<title>Node2&#45;&gt;Node9</title>
<path fill="none" stroke="#191970" d="M795.2725,-229.5475C746.5495,-223.3366 669.8764,-210.2553 652.5,-188 642.2441,-174.8645 645.5144,-155.4647 650.288,-141.0943"/>
<polygon fill="#191970" stroke="#191970" points="653.5845,-142.2721 653.8577,-131.6808 647.0393,-139.7901 653.5845,-142.2721"/>
</g>
<!-- Node13 -->
<g id="node13" class="node">
<title>Node13</title>
<g id="a_node13"><a xlink:href="datamodel_8h.html" target="_top" xlink:title=" ">
<polygon fill="#ffffff" stroke="#000000" points="326,-168.5 326,-187.5 399,-187.5 399,-168.5 326,-168.5"/>
<text text-anchor="middle" x="362.5" y="-175.5" font-family="Helvetica,sans-Serif" font-size="10.00" fill="#000000">datamodel.h</text>
</a>
</g>
</g>
<!-- Node2&#45;&gt;Node13 -->
<g id="edge12" class="edge">
<title>Node2&#45;&gt;Node13</title>
<path fill="none" stroke="#191970" d="M795.2648,-229.1283C707.3206,-218.7383 501.8298,-194.4609 409.2199,-183.5197"/>
<polygon fill="#191970" stroke="#191970" points="409.3703,-180.0132 399.0287,-182.3156 408.5489,-186.9648 409.3703,-180.0132"/>
</g>
<!-- Node21 -->
<g id="node21" class="node">
<title>Node21</title>
<g id="a_node21"><a xlink:href="maptile_8h.html" target="_top" xlink:title=" ">
<polygon fill="#ffffff" stroke="#000000" points="661.5,-168.5 661.5,-187.5 717.5,-187.5 717.5,-168.5 661.5,-168.5"/>
<text text-anchor="middle" x="689.5" y="-175.5" font-family="Helvetica,sans-Serif" font-size="10.00" fill="#000000">maptile.h</text>
</a>
</g>
</g>
<!-- Node2&#45;&gt;Node21 -->
<g id="edge24" class="edge">
<title>Node2&#45;&gt;Node21</title>
<path fill="none" stroke="#191970" d="M811.2298,-224.3733C787.1034,-215.1822 750.5638,-201.2624 723.8123,-191.0713"/>
<polygon fill="#191970" stroke="#191970" points="725.0313,-187.7904 714.4404,-187.5011 722.5393,-194.3318 725.0313,-187.7904"/>
</g>
<!-- Node24 -->
<g id="node24" class="node">
<title>Node24</title>
<g id="a_node24"><a xlink:href="point_8h.html" target="_top" xlink:title=" ">
<polygon fill="#ffffff" stroke="#000000" points="1097,-56.5 1097,-75.5 1142,-75.5 1142,-56.5 1097,-56.5"/>
<text text-anchor="middle" x="1119.5" y="-63.5" font-family="Helvetica,sans-Serif" font-size="10.00" fill="#000000">point.h</text>
</a>
</g>
</g>
<!-- Node2&#45;&gt;Node24 -->
<g id="edge29" class="edge">
<title>Node2&#45;&gt;Node24</title>
<path fill="none" stroke="#191970" d="M877.79,-232.3936C976.4309,-228.1331 1219.3982,-214.9793 1243.5,-188 1262.6399,-166.575 1236.1351,-131.509 1216.5,-112 1198.5478,-94.1631 1172.3512,-82.3067 1151.706,-75.1047"/>
<polygon fill="#191970" stroke="#191970" points="1152.6705,-71.7375 1142.0775,-71.9372 1150.4829,-78.3869 1152.6705,-71.7375"/>
</g>
<!-- Node25 -->
<g id="node25" class="node">
<title>Node25</title>
<g id="a_node25"><a xlink:href="animationmovement_8h.html" target="_top" xlink:title=" ">
<polygon fill="#ffffff" stroke="#000000" points="736,-168.5 736,-187.5 851,-187.5 851,-168.5 736,-168.5"/>
<text text-anchor="middle" x="793.5" y="-175.5" font-family="Helvetica,sans-Serif" font-size="10.00" fill="#000000">animationmovement.h</text>
</a>
</g>
</g>
<!-- Node2&#45;&gt;Node25 -->
<g id="edge30" class="edge">
<title>Node2&#45;&gt;Node25</title>
<path fill="none" stroke="#191970" d="M829.01,-224.2455C822.9674,-216.3761 814.3097,-205.101 807.0559,-195.6542"/>
<polygon fill="#191970" stroke="#191970" points="809.7705,-193.4426 800.9042,-187.6427 804.2185,-197.7058 809.7705,-193.4426"/>
</g>
<!-- Node2&#45;&gt;Node29 -->
<g id="edge39" class="edge">
<title>Node2&#45;&gt;Node29</title>
<path fill="none" stroke="#191970" d="M877.5481,-230.6033C940.151,-224.9579 1063.3016,-212.0253 1176.5879,-187.9064"/>
<polygon fill="#191970" stroke="#191970" points="1177.4329,-191.3046 1186.4665,-185.7689 1175.9525,-184.4629 1177.4329,-191.3046"/>
</g>
<!-- Node30 -->
<g id="node30" class="node">
<title>Node30</title>
<g id="a_node30"><a xlink:href="mousedecor_8h.html" target="_top" xlink:title=" ">
<polygon fill="#ffffff" stroke="#000000" points="1087,-168.5 1087,-187.5 1168,-187.5 1168,-168.5 1087,-168.5"/>
<text text-anchor="middle" x="1127.5" y="-175.5" font-family="Helvetica,sans-Serif" font-size="10.00" fill="#000000">mousedecor.h</text>
</a>
</g>
</g>
<!-- Node2&#45;&gt;Node30 -->
<g id="edge42" class="edge">
<title>Node2&#45;&gt;Node30</title>
<path fill="none" stroke="#191970" d="M877.6389,-226.3549C923.7464,-217.7477 1001.0081,-203.2094 1076.6858,-188.3406"/>
<polygon fill="#191970" stroke="#191970" points="1077.7309,-191.7022 1086.8665,-186.3364 1076.3788,-184.834 1077.7309,-191.7022"/>
</g>
<!-- Node10 -->
<g id="node10" class="node">
<title>Node10</title>
<g id="a_node10"><a xlink:title=" ">
<polygon fill="#ffffff" stroke="#bfbfbf" points="629.5,-56.5 629.5,-75.5 687.5,-75.5 687.5,-56.5 629.5,-56.5"/>
<text text-anchor="middle" x="658.5" y="-63.5" font-family="Helvetica,sans-Serif" font-size="10.00" fill="#000000">QPixmap</text>
</a>
</g>
</g>
<!-- Node9&#45;&gt;Node10 -->
<g id="edge9" class="edge">
<title>Node9&#45;&gt;Node10</title>
<path fill="none" stroke="#191970" d="M658.5,-112.2455C658.5,-104.9382 658.5,-94.6944 658.5,-85.7046"/>
<polygon fill="#191970" stroke="#191970" points="662.0001,-85.6426 658.5,-75.6427 655.0001,-85.6427 662.0001,-85.6426"/>
</g>
<!-- Node11 -->
<g id="node11" class="node">
<title>Node11</title>
<g id="a_node11"><a xlink:title=" ">
<polygon fill="#ffffff" stroke="#bfbfbf" points="1026,-56.5 1026,-75.5 1079,-75.5 1079,-56.5 1026,-56.5"/>
<text text-anchor="middle" x="1052.5" y="-63.5" font-family="Helvetica,sans-Serif" font-size="10.00" fill="#000000">QImage</text>
</a>
</g>
</g>
<!-- Node9&#45;&gt;Node11 -->
<g id="edge10" class="edge">
<title>Node9&#45;&gt;Node11</title>
<path fill="none" stroke="#191970" d="M710.0702,-113.4521C713.2598,-112.9525 716.4227,-112.4647 719.5,-112 826.9661,-95.7714 954.2972,-78.8114 1015.7229,-70.772"/>
<polygon fill="#191970" stroke="#191970" points="1016.2428,-74.2339 1025.7053,-69.4682 1015.3362,-67.2929 1016.2428,-74.2339"/>
</g>
<!-- Node12 -->
<g id="node12" class="node">
<title>Node12</title>
<g id="a_node12"><a xlink:title=" ">
<polygon fill="#ffffff" stroke="#bfbfbf" points="549,-56.5 549,-75.5 590,-75.5 590,-56.5 549,-56.5"/>
<text text-anchor="middle" x="569.5" y="-63.5" font-family="Helvetica,sans-Serif" font-size="10.00" fill="#000000">string</text>
</a>
</g>
</g>
<!-- Node9&#45;&gt;Node12 -->
<g id="edge11" class="edge">
<title>Node9&#45;&gt;Node12</title>
<path fill="none" stroke="#191970" d="M642.9974,-112.2455C629.342,-103.6534 609.2343,-91.0014 593.5011,-81.1018"/>
<polygon fill="#191970" stroke="#191970" points="595.1529,-78.006 584.825,-75.6427 591.4249,-83.9307 595.1529,-78.006"/>
</g>
<!-- Node13&#45;&gt;Node3 -->
<g id="edge15" class="edge">
<title>Node13&#45;&gt;Node3</title>
<path fill="none" stroke="#191970" d="M386.7388,-168.3733C409.7789,-159.2226 444.6214,-145.3844 470.2501,-135.2057"/>
<polygon fill="#191970" stroke="#191970" points="471.5756,-138.4452 479.5775,-131.5011 468.9918,-131.9395 471.5756,-138.4452"/>
</g>
<!-- Node13&#45;&gt;Node6 -->
<g id="edge17" class="edge">
<title>Node13&#45;&gt;Node6</title>
<path fill="none" stroke="#191970" d="M325.7648,-172.0388C275.646,-163.8405 182.7772,-148.4182 93.2808,-132.1082"/>
<polygon fill="#191970" stroke="#191970" points="93.699,-128.6267 83.2325,-130.2705 92.4397,-135.5125 93.699,-128.6267"/>
</g>
<!-- Node13&#45;&gt;Node7 -->
<g id="edge16" class="edge">
<title>Node13&#45;&gt;Node7</title>
<path fill="none" stroke="#191970" d="M325.6769,-168.6269C288.3856,-159.1345 230.5592,-144.4151 189.8737,-134.0588"/>
<polygon fill="#191970" stroke="#191970" points="190.735,-130.6665 180.1806,-131.5914 189.0082,-137.4501 190.735,-130.6665"/>
</g>
<!-- Node13&#45;&gt;Node12 -->
<g id="edge13" class="edge">
<title>Node13&#45;&gt;Node12</title>
<path fill="none" stroke="#191970" d="M376.2411,-168.3673C395.7842,-154.8811 432.964,-130.0065 466.5,-112 490.4815,-99.1236 518.7836,-86.6698 539.6459,-77.9752"/>
<polygon fill="#191970" stroke="#191970" points="541.0393,-81.1866 548.9514,-74.1404 538.3721,-74.7146 541.0393,-81.1866"/>
</g>
<!-- Node14 -->
<g id="node14" class="node">
<title>Node14</title>
<g id="a_node14"><a xlink:title=" ">
<polygon fill="#ffffff" stroke="#bfbfbf" points="300,-112.5 300,-131.5 349,-131.5 349,-112.5 300,-112.5"/>
<text text-anchor="middle" x="324.5" y="-119.5" font-family="Helvetica,sans-Serif" font-size="10.00" fill="#000000">QLabel</text>
</a>
</g>
</g>
<!-- Node13&#45;&gt;Node14 -->
<g id="edge14" class="edge">
<title>Node13&#45;&gt;Node14</title>
<path fill="none" stroke="#191970" d="M355.8809,-168.2455C350.5954,-160.4564 343.0459,-149.3308 336.6762,-139.9439"/>
<polygon fill="#191970" stroke="#191970" points="339.5545,-137.9522 331.0432,-131.6427 333.7621,-141.8827 339.5545,-137.9522"/>
</g>
<!-- Node15 -->
<g id="node15" class="node">
<title>Node15</title>
<g id="a_node15"><a xlink:href="mainwindow_8h.html" target="_top" xlink:title=" ">
<polygon fill="#ffffff" stroke="#000000" points="201.5,-112.5 201.5,-131.5 281.5,-131.5 281.5,-112.5 201.5,-112.5"/>
<text text-anchor="middle" x="241.5" y="-119.5" font-family="Helvetica,sans-Serif" font-size="10.00" fill="#000000">mainwindow.h</text>
</a>
</g>
</g>
<!-- Node13&#45;&gt;Node15 -->
<g id="edge18" class="edge">
<title>Node13&#45;&gt;Node15</title>
<path fill="none" stroke="#191970" d="M341.6994,-168.3733C322.2757,-159.3838 293.0776,-145.8706 271.2036,-135.7471"/>
<polygon fill="#191970" stroke="#191970" points="272.5745,-132.5249 262.0292,-131.5011 269.6344,-138.8776 272.5745,-132.5249"/>
</g>
<!-- Node18 -->
<g id="node18" class="node">
<title>Node18</title>
<g id="a_node18"><a xlink:href="player_8h.html" target="_top" xlink:title=" ">
<polygon fill="#ffffff" stroke="#000000" points="367.5,-112.5 367.5,-131.5 419.5,-131.5 419.5,-112.5 367.5,-112.5"/>
<text text-anchor="middle" x="393.5" y="-119.5" font-family="Helvetica,sans-Serif" font-size="10.00" fill="#000000">player.h</text>
</a>
</g>
</g>
<!-- Node13&#45;&gt;Node18 -->
<g id="edge21" class="edge">
<title>Node13&#45;&gt;Node18</title>
<path fill="none" stroke="#191970" d="M367.8998,-168.2455C372.1227,-160.617 378.1173,-149.7881 383.2441,-140.5267"/>
<polygon fill="#191970" stroke="#191970" points="386.381,-142.0867 388.1621,-131.6427 380.2568,-138.6965 386.381,-142.0867"/>
</g>
<!-- Node16 -->
<g id="node16" class="node">
<title>Node16</title>
<g id="a_node16"><a xlink:title=" ">
<polygon fill="#ffffff" stroke="#bfbfbf" points="229,-56.5 229,-75.5 312,-75.5 312,-56.5 229,-56.5"/>
<text text-anchor="middle" x="270.5" y="-63.5" font-family="Helvetica,sans-Serif" font-size="10.00" fill="#000000">QMainWindow</text>
</a>
</g>
</g>
<!-- Node15&#45;&gt;Node16 -->
<g id="edge19" class="edge">
<title>Node15&#45;&gt;Node16</title>
<path fill="none" stroke="#191970" d="M246.5514,-112.2455C250.5019,-104.617 256.1097,-93.7881 260.9058,-84.5267"/>
<polygon fill="#191970" stroke="#191970" points="264.0159,-86.1321 265.5065,-75.6427 257.7999,-82.9131 264.0159,-86.1321"/>
</g>
<!-- Node17 -->
<g id="node17" class="node">
<title>Node17</title>
<g id="a_node17"><a xlink:title=" ">
<polygon fill="#ffffff" stroke="#bfbfbf" points="144,-56.5 144,-75.5 211,-75.5 211,-56.5 144,-56.5"/>
<text text-anchor="middle" x="177.5" y="-63.5" font-family="Helvetica,sans-Serif" font-size="10.00" fill="#000000">QKeyEvent</text>
</a>
</g>
</g>
<!-- Node15&#45;&gt;Node17 -->
<g id="edge20" class="edge">
<title>Node15&#45;&gt;Node17</title>
<path fill="none" stroke="#191970" d="M230.3521,-112.2455C220.9913,-104.0549 207.4142,-92.1749 196.3651,-82.5069"/>
<polygon fill="#191970" stroke="#191970" points="198.3508,-79.5937 188.5202,-75.6427 193.7412,-84.8618 198.3508,-79.5937"/>
</g>
<!-- Node19 -->
<g id="node19" class="node">
<title>Node19</title>
<g id="a_node19"><a xlink:href="highlighter_8h.html" target="_top" xlink:title=" ">
<polygon fill="#ffffff" stroke="#000000" points="358.5,-56.5 358.5,-75.5 428.5,-75.5 428.5,-56.5 358.5,-56.5"/>
<text text-anchor="middle" x="393.5" y="-63.5" font-family="Helvetica,sans-Serif" font-size="10.00" fill="#000000">highlighter.h</text>
</a>
</g>
</g>
<!-- Node18&#45;&gt;Node19 -->
<g id="edge22" class="edge">
<title>Node18&#45;&gt;Node19</title>
<path fill="none" stroke="#191970" d="M393.5,-112.2455C393.5,-104.9382 393.5,-94.6944 393.5,-85.7046"/>
<polygon fill="#191970" stroke="#191970" points="397.0001,-85.6426 393.5,-75.6427 390.0001,-85.6427 397.0001,-85.6426"/>
</g>
<!-- Node20 -->
<g id="node20" class="node">
<title>Node20</title>
<g id="a_node20"><a xlink:title=" ">
<polygon fill="#ffffff" stroke="#bfbfbf" points="341.5,-.5 341.5,-19.5 445.5,-19.5 445.5,-.5 341.5,-.5"/>
<text text-anchor="middle" x="393.5" y="-7.5" font-family="Helvetica,sans-Serif" font-size="10.00" fill="#000000">QGraphicsRectItem</text>
</a>
</g>
</g>
<!-- Node19&#45;&gt;Node20 -->
<g id="edge23" class="edge">
<title>Node19&#45;&gt;Node20</title>
<path fill="none" stroke="#191970" d="M393.5,-56.2455C393.5,-48.9382 393.5,-38.6944 393.5,-29.7046"/>
<polygon fill="#191970" stroke="#191970" points="397.0001,-29.6426 393.5,-19.6427 390.0001,-29.6427 397.0001,-29.6426"/>
</g>
<!-- Node21&#45;&gt;Node9 -->
<g id="edge28" class="edge">
<title>Node21&#45;&gt;Node9</title>
<path fill="none" stroke="#191970" d="M684.1002,-168.2455C679.8773,-160.617 673.8827,-149.7881 668.7559,-140.5267"/>
<polygon fill="#191970" stroke="#191970" points="671.7432,-138.6965 663.8379,-131.6427 665.619,-142.0867 671.7432,-138.6965"/>
</g>
<!-- Node22 -->
<g id="node22" class="node">
<title>Node22</title>
<g id="a_node22"><a xlink:title=" ">
<polygon fill="#ffffff" stroke="#bfbfbf" points="728,-112.5 728,-131.5 845,-131.5 845,-112.5 728,-112.5"/>
<text text-anchor="middle" x="786.5" y="-119.5" font-family="Helvetica,sans-Serif" font-size="10.00" fill="#000000">QGraphicsPixmapItem</text>
</a>
</g>
</g>
<!-- Node21&#45;&gt;Node22 -->
<g id="edge25" class="edge">
<title>Node21&#45;&gt;Node22</title>
<path fill="none" stroke="#191970" d="M706.3961,-168.2455C721.418,-159.5731 743.6043,-146.7645 760.821,-136.825"/>
<polygon fill="#191970" stroke="#191970" points="762.8871,-139.6737 769.7975,-131.6427 759.3872,-133.6114 762.8871,-139.6737"/>
</g>
<!-- Node23 -->
<g id="node23" class="node">
<title>Node23</title>
<g id="a_node23"><a xlink:href="city_8h.html" target="_top" xlink:title=" ">
<polygon fill="#ffffff" stroke="#000000" points="550,-112.5 550,-131.5 589,-131.5 589,-112.5 550,-112.5"/>
<text text-anchor="middle" x="569.5" y="-119.5" font-family="Helvetica,sans-Serif" font-size="10.00" fill="#000000">city.h</text>
</a>
</g>
</g>
<!-- Node21&#45;&gt;Node23 -->
<g id="edge26" class="edge">
<title>Node21&#45;&gt;Node23</title>
<path fill="none" stroke="#191970" d="M668.8713,-168.3733C649.3746,-159.2748 619.948,-145.5424 598.1725,-135.3805"/>
<polygon fill="#191970" stroke="#191970" points="599.6069,-132.1876 589.0649,-131.1303 596.6467,-138.5309 599.6069,-132.1876"/>
</g>
<!-- Node23&#45;&gt;Node12 -->
<g id="edge27" class="edge">
<title>Node23&#45;&gt;Node12</title>
<path fill="none" stroke="#191970" d="M569.5,-112.2455C569.5,-104.9382 569.5,-94.6944 569.5,-85.7046"/>
<polygon fill="#191970" stroke="#191970" points="573.0001,-85.6426 569.5,-75.6427 566.0001,-85.6427 573.0001,-85.6426"/>
</g>
<!-- Node25&#45;&gt;Node4 -->
<g id="edge35" class="edge">
<title>Node25&#45;&gt;Node4</title>
<path fill="none" stroke="#191970" d="M851.2628,-169.9344C856.0784,-169.2751 860.8724,-168.6232 865.5,-168 984.8666,-151.9262 1019.4242,-160.4863 1139.8015,-132.0284"/>
<polygon fill="#191970" stroke="#191970" points="1140.8674,-135.372 1149.7736,-129.6337 1139.2328,-128.5655 1140.8674,-135.372"/>
</g>
<!-- Node25&#45;&gt;Node22 -->
<g id="edge38" class="edge">
<title>Node25&#45;&gt;Node22</title>
<path fill="none" stroke="#191970" d="M792.2807,-168.2455C791.3673,-160.9382 790.0868,-150.6944 788.9631,-141.7046"/>
<polygon fill="#191970" stroke="#191970" points="792.4187,-141.1313 787.7053,-131.6427 785.4728,-141.9996 792.4187,-141.1313"/>
</g>
<!-- Node25&#45;&gt;Node24 -->
<g id="edge31" class="edge">
<title>Node25&#45;&gt;Node24</title>
<path fill="none" stroke="#191970" d="M806.5761,-168.3098C829.0686,-151.8097 874.407,-119.328 892.5,-112 971.6246,-79.953 1000.5205,-96.3443 1086.9443,-76.0983"/>
<polygon fill="#191970" stroke="#191970" points="1088.0286,-79.4364 1096.9119,-73.6625 1086.3668,-72.6365 1088.0286,-79.4364"/>
</g>
<!-- Node26 -->
<g id="node26" class="node">
<title>Node26</title>
<g id="a_node26"><a xlink:href="animationentity_8h.html" target="_top" xlink:title=" ">
<polygon fill="#ffffff" stroke="#000000" points="1041,-112.5 1041,-131.5 1132,-131.5 1132,-112.5 1041,-112.5"/>
<text text-anchor="middle" x="1086.5" y="-119.5" font-family="Helvetica,sans-Serif" font-size="10.00" fill="#000000">animationentity.h</text>
</a>
</g>
</g>
<!-- Node25&#45;&gt;Node26 -->
<g id="edge32" class="edge">
<title>Node25&#45;&gt;Node26</title>
<path fill="none" stroke="#191970" d="M843.5356,-168.4369C895.4354,-158.5175 976.4117,-143.0408 1030.4365,-132.7152"/>
<polygon fill="#191970" stroke="#191970" points="1031.3661,-136.101 1040.5313,-130.7858 1030.052,-129.2254 1031.3661,-136.101"/>
</g>
<!-- Node27 -->
<g id="node27" class="node">
<title>Node27</title>
<g id="a_node27"><a xlink:title=" ">
<polygon fill="#ffffff" stroke="#bfbfbf" points="901.5,-112.5 901.5,-131.5 951.5,-131.5 951.5,-112.5 901.5,-112.5"/>
<text text-anchor="middle" x="926.5" y="-119.5" font-family="Helvetica,sans-Serif" font-size="10.00" fill="#000000">QString</text>
</a>
</g>
</g>
<!-- Node25&#45;&gt;Node27 -->
<g id="edge36" class="edge">
<title>Node25&#45;&gt;Node27</title>
<path fill="none" stroke="#191970" d="M816.3635,-168.3733C837.905,-159.3032 870.3838,-145.6279 894.4956,-135.4755"/>
<polygon fill="#191970" stroke="#191970" points="896.0767,-138.6075 903.9348,-131.5011 893.3603,-132.156 896.0767,-138.6075"/>
</g>
<!-- Node28 -->
<g id="node28" class="node">
<title>Node28</title>
<g id="a_node28"><a xlink:title=" ">
<polygon fill="#ffffff" stroke="#bfbfbf" points="970,-112.5 970,-131.5 1023,-131.5 1023,-112.5 970,-112.5"/>
<text text-anchor="middle" x="996.5" y="-119.5" font-family="Helvetica,sans-Serif" font-size="10.00" fill="#000000">QObject</text>
</a>
</g>
</g>
<!-- Node25&#45;&gt;Node28 -->
<g id="edge37" class="edge">
<title>Node25&#45;&gt;Node28</title>
<path fill="none" stroke="#191970" d="M828.37,-168.4187C860.113,-159.6913 908.5383,-146.3644 959.8187,-132.1845"/>
<polygon fill="#191970" stroke="#191970" points="961.0604,-135.4725 969.7655,-129.4332 959.1943,-128.7258 961.0604,-135.4725"/>
</g>
<!-- Node26&#45;&gt;Node11 -->
<g id="edge33" class="edge">
<title>Node26&#45;&gt;Node11</title>
<path fill="none" stroke="#191970" d="M1080.5777,-112.2455C1075.8973,-104.5367 1069.2327,-93.5598 1063.5711,-84.2348"/>
<polygon fill="#191970" stroke="#191970" points="1066.5361,-82.3741 1058.3545,-75.6427 1060.5525,-86.007 1066.5361,-82.3741"/>
</g>
<!-- Node26&#45;&gt;Node24 -->
<g id="edge34" class="edge">
<title>Node26&#45;&gt;Node24</title>
<path fill="none" stroke="#191970" d="M1092.2482,-112.2455C1096.7435,-104.617 1103.1248,-93.7881 1108.5825,-84.5267"/>
<polygon fill="#191970" stroke="#191970" points="1111.7561,-86.035 1113.8177,-75.6427 1105.7253,-82.4811 1111.7561,-86.035"/>
</g>
<!-- Node29&#45;&gt;Node4 -->
<g id="edge41" class="edge">
<title>Node29&#45;&gt;Node4</title>
<path fill="none" stroke="#191970" d="M1203.3583,-168.2455C1197.6556,-160.4564 1189.51,-149.3308 1182.6375,-139.9439"/>
<polygon fill="#191970" stroke="#191970" points="1185.2913,-137.6437 1176.5598,-131.6427 1179.6432,-141.7789 1185.2913,-137.6437"/>
</g>
<!-- Node29&#45;&gt;Node11 -->
<g id="edge40" class="edge">
<title>Node29&#45;&gt;Node11</title>
<path fill="none" stroke="#191970" d="M1211.6212,-168.1602C1212.6652,-153.9647 1212.3655,-127.7226 1198.5,-112 1194.7369,-107.7328 1130.6608,-88.5862 1088.6575,-76.3794"/>
<polygon fill="#191970" stroke="#191970" points="1089.6025,-73.0093 1079.0235,-73.5886 1087.6548,-79.7329 1089.6025,-73.0093"/>
</g>
</g>
</svg>
        <g id="navigator" transform="translate(0 0)" fill="#404254">
                <rect fill="#f2f5e9" fill-opacity="0.5" stroke="#606060" stroke-width=".5" x="0" y="0" width="60" height="60"/>
                <use id="zoomplus" xlink:href="#zoomPlus" x="17" y="9" onmousedown="handleZoom(evt,'in')"/>
                <use id="zoomminus" xlink:href="#zoomMin" x="42" y="9" onmousedown="handleZoom(evt,'out')"/>
                <use id="reset" xlink:href="#resetDef" x="30" y="36" onmousedown="handleReset()"/>
                <g id="arrowUp" xlink:href="#dirArrow" transform="translate(30 24)" onmousedown="handlePan(0,-1)">
                  <use xlink:href="#rim" fill="#404040">
                        <set attributeName="fill" to="#808080" begin="arrowUp.mouseover" end="arrowUp.mouseout"/>
                  </use>
                  <path fill="none" stroke="white" stroke-width="1.5" d="M0,-3.0v7 M-2.5,-0.5L0,-3.0L2.5,-0.5"/>
                </g>
                <g id="arrowRight" xlink:href="#dirArrow" transform="rotate(90) translate(36 -43)" onmousedown="handlePan(1,0)">
                  <use xlink:href="#rim" fill="#404040">
                        <set attributeName="fill" to="#808080" begin="arrowRight.mouseover" end="arrowRight.mouseout"/>
                  </use>
                  <path fill="none" stroke="white" stroke-width="1.5" d="M0,-3.0v7 M-2.5,-0.5L0,-3.0L2.5,-0.5"/>
                </g>
                <g id="arrowDown" xlink:href="#dirArrow" transform="rotate(180) translate(-30 -48)" onmousedown="handlePan(0,1)">
                  <use xlink:href="#rim" fill="#404040">
                        <set attributeName="fill" to="#808080" begin="arrowDown.mouseover" end="arrowDown.mouseout"/>
                  </use>
                  <path fill="none" stroke="white" stroke-width="1.5" d="M0,-3.0v7 M-2.5,-0.5L0,-3.0L2.5,-0.5"/>
                </g>
                <g id="arrowLeft" xlink:href="#dirArrow" transform="rotate(270) translate(-36 17)" onmousedown="handlePan(-1,0)">
                  <use xlink:href="#rim" fill="#404040">
                        <set attributeName="fill" to="#808080" begin="arrowLeft.mouseover" end="arrowLeft.mouseout"/>
                  </use>
                  <path fill="none" stroke="white" stroke-width="1.5" d="M0,-3.0v7 M-2.5,-0.5L0,-3.0L2.5,-0.5"/>
                </g>
        </g>
        <svg viewBox="0 0 15 15" width="100%" height="30px" preserveAspectRatio="xMaxYMin meet">
         <g id="arrow_out" transform="scale(0.3 0.3)">
          <a xlink:href="maprenderer_8cpp__incl_org.svg" target="_base">
           <rect id="button" ry="5" rx="5" y="6" x="6" height="38" width="38"
                fill="#f2f5e9" fill-opacity="0.5" stroke="#606060" stroke-width="1.0"/>
           <path id="arrow"
             d="M 11.500037,31.436501 C 11.940474,20.09759 22.043105,11.32322 32.158766,21.979434 L 37.068811,17.246167 C 37.068811,17.246167 37.088388,32 37.088388,32 L 22.160133,31.978069 C 22.160133,31.978069 26.997745,27.140456 26.997745,27.140456 C 18.528582,18.264221 13.291696,25.230495 11.500037,31.436501 z"
             style="fill:#404040;"/>
          </a>
         </g>
        </svg>
</svg>
