<?xml version="1.0" encoding="UTF-8" standalone="no"?>
<!DOCTYPE svg PUBLIC "-//W3C//DTD SVG 1.1//EN"
 "http://www.w3.org/Graphics/SVG/1.1/DTD/svg11.dtd">
<!-- Generated by graphviz version 2.40.1 (20161225.0304)
 -->
<!-- Title: src/application_server/maprenderer.cpp Pages: 1 -->
<svg width="1290pt" height="319pt"
 viewBox="0.00 0.00 1290.36 319.00" xmlns="http://www.w3.org/2000/svg" xmlns:xlink="http://www.w3.org/1999/xlink">
<g id="graph0" class="graph" transform="scale(1 1) rotate(0) translate(4 315)">
<title>src/application_server/maprenderer.cpp</title>
<polygon fill="#ffffff" stroke="transparent" points="-4,4 -4,-315 1286.3639,-315 1286.3639,4 -4,4"/>
<!-- Node1 -->
<g id="node1" class="node">
<title>Node1</title>
<g id="a_node1"><a xlink:title=" ">
<polygon fill="#bfbfbf" stroke="#000000" points="1004.3639,-280.5 1004.3639,-310.5 1119.3639,-310.5 1119.3639,-280.5 1004.3639,-280.5"/>
<text text-anchor="start" x="1012.3639" y="-298.5" font-family="Helvetica,sans-Serif" font-size="10.00" fill="#000000">src/application_server</text>
<text text-anchor="middle" x="1061.8639" y="-287.5" font-family="Helvetica,sans-Serif" font-size="10.00" fill="#000000">/maprenderer.cpp</text>
</a>
</g>
</g>
<!-- Node2 -->
<g id="node2" class="node">
<title>Node2</title>
<g id="a_node2"><a xlink:href="maprenderer_8h.html" target="_top" xlink:title=" ">
<polygon fill="#ffffff" stroke="#000000" points="685.8639,-224.5 685.8639,-243.5 767.8639,-243.5 767.8639,-224.5 685.8639,-224.5"/>
<text text-anchor="middle" x="726.8639" y="-231.5" font-family="Helvetica,sans-Serif" font-size="10.00" fill="#000000">maprenderer.h</text>
</a>
</g>
</g>
<!-- Node1&#45;&gt;Node2 -->
<g id="edge1" class="edge">
<title>Node1&#45;&gt;Node2</title>
<path fill="none" stroke="#191970" d="M1004.2754,-284.9278C940.612,-273.2403 839.0217,-254.5902 778.0482,-243.3965"/>
<polygon fill="#191970" stroke="#191970" points="778.3567,-239.8947 767.8891,-241.5315 777.0927,-246.7797 778.3567,-239.8947"/>
</g>
<!-- Node30 -->
<g id="node30" class="node">
<title>Node30</title>
<g id="a_node30"><a xlink:href="sprite_8h.html" target="_top" xlink:title=" ">
<polygon fill="#ffffff" stroke="#000000" points="1207.8639,-168.5 1207.8639,-187.5 1255.8639,-187.5 1255.8639,-168.5 1207.8639,-168.5"/>
<text text-anchor="middle" x="1231.8639" y="-175.5" font-family="Helvetica,sans-Serif" font-size="10.00" fill="#000000">sprite.h</text>
</a>
</g>
</g>
<!-- Node1&#45;&gt;Node30 -->
<g id="edge50" class="edge">
<title>Node1&#45;&gt;Node30</title>
<path fill="none" stroke="#191970" d="M1027.7718,-280.3768C1001.1982,-266.4985 971.4915,-244.9695 988.8639,-224 992.2034,-219.969 1131.5393,-195.3734 1197.6822,-183.8929"/>
<polygon fill="#191970" stroke="#191970" points="1198.3815,-187.324 1207.6372,-182.1681 1197.1865,-180.4267 1198.3815,-187.324"/>
</g>
<!-- Node31 -->
<g id="node31" class="node">
<title>Node31</title>
<g id="a_node31"><a xlink:title=" ">
<polygon fill="#ffffff" stroke="#bfbfbf" points="997.8639,-224.5 997.8639,-243.5 1053.8639,-243.5 1053.8639,-224.5 997.8639,-224.5"/>
<text text-anchor="middle" x="1025.8639" y="-231.5" font-family="Helvetica,sans-Serif" font-size="10.00" fill="#000000">QPainter</text>
</a>
</g>
</g>
<!-- Node1&#45;&gt;Node31 -->
<g id="edge46" class="edge">
<title>Node1&#45;&gt;Node31</title>
<path fill="none" stroke="#191970" d="M1052.965,-280.2977C1048.072,-271.9388 1041.9613,-261.4997 1036.7815,-252.6509"/>
<polygon fill="#191970" stroke="#191970" points="1039.7004,-250.7089 1031.628,-243.8469 1033.6593,-254.2452 1039.7004,-250.7089"/>
</g>
<!-- Node32 -->
<g id="node32" class="node">
<title>Node32</title>
<g id="a_node32"><a xlink:title=" ">
<polygon fill="#ffffff" stroke="#bfbfbf" points="1071.8639,-224.5 1071.8639,-243.5 1125.8639,-243.5 1125.8639,-224.5 1071.8639,-224.5"/>
<text text-anchor="middle" x="1098.8639" y="-231.5" font-family="Helvetica,sans-Serif" font-size="10.00" fill="#000000">QDebug</text>
</a>
</g>
</g>
<!-- Node1&#45;&gt;Node32 -->
<g id="edge47" class="edge">
<title>Node1&#45;&gt;Node32</title>
<path fill="none" stroke="#191970" d="M1071.01,-280.2977C1076.039,-271.9388 1082.3194,-261.4997 1087.643,-252.6509"/>
<polygon fill="#191970" stroke="#191970" points="1090.7836,-254.2201 1092.9397,-243.8469 1084.7854,-250.6114 1090.7836,-254.2201"/>
</g>
<!-- Node33 -->
<g id="node33" class="node">
<title>Node33</title>
<g id="a_node33"><a xlink:title=" ">
<polygon fill="#ffffff" stroke="#bfbfbf" points="1144.3639,-224.5 1144.3639,-243.5 1185.3639,-243.5 1185.3639,-224.5 1144.3639,-224.5"/>
<text text-anchor="middle" x="1164.8639" y="-231.5" font-family="Helvetica,sans-Serif" font-size="10.00" fill="#000000">ctime</text>
</a>
</g>
</g>
<!-- Node1&#45;&gt;Node33 -->
<g id="edge48" class="edge">
<title>Node1&#45;&gt;Node33</title>
<path fill="none" stroke="#191970" d="M1087.0605,-280.4554C1103.1911,-270.8241 1124.0277,-258.3828 1140.0775,-248.7996"/>
<polygon fill="#191970" stroke="#191970" points="1142.1109,-251.662 1148.9026,-243.5303 1138.5223,-245.6518 1142.1109,-251.662"/>
</g>
<!-- Node34 -->
<g id="node34" class="node">
<title>Node34</title>
<g id="a_node34"><a xlink:title=" ">
<polygon fill="#ffffff" stroke="#bfbfbf" points="1203.3639,-224.5 1203.3639,-243.5 1282.3639,-243.5 1282.3639,-224.5 1203.3639,-224.5"/>
<text text-anchor="middle" x="1242.8639" y="-231.5" font-family="Helvetica,sans-Serif" font-size="10.00" fill="#000000">QHBoxLayout</text>
</a>
</g>
</g>
<!-- Node1&#45;&gt;Node34 -->
<g id="edge49" class="edge">
<title>Node1&#45;&gt;Node34</title>
<path fill="none" stroke="#191970" d="M1106.1415,-280.4554C1136.4743,-270.149 1176.2768,-256.6249 1205.1083,-246.8286"/>
<polygon fill="#191970" stroke="#191970" points="1206.473,-250.0615 1214.8153,-243.5303 1204.2209,-243.4336 1206.473,-250.0615"/>
</g>
<!-- Node3 -->
<g id="node3" class="node">
<title>Node3</title>
<g id="a_node3"><a xlink:title=" ">
<polygon fill="#ffffff" stroke="#bfbfbf" points="92.8639,-56.5 92.8639,-75.5 148.8639,-75.5 148.8639,-56.5 92.8639,-56.5"/>
<text text-anchor="middle" x="120.8639" y="-63.5" font-family="Helvetica,sans-Serif" font-size="10.00" fill="#000000">QWidget</text>
</a>
</g>
</g>
<!-- Node2&#45;&gt;Node3 -->
<g id="edge2" class="edge">
<title>Node2&#45;&gt;Node3</title>
<path fill="none" stroke="#191970" d="M685.7306,-232.7058C598.3847,-229.4328 388.1933,-218.7709 214.8639,-188 120.1789,-171.1907 64.406,-208.293 5.8639,-132 -17.9569,-100.9563 40.5596,-82.0394 82.5719,-72.8321"/>
<polygon fill="#191970" stroke="#191970" points="83.4946,-76.2151 92.5719,-70.7512 82.0685,-69.3619 83.4946,-76.2151"/>
</g>
<!-- Node4 -->
<g id="node4" class="node">
<title>Node4</title>
<g id="a_node4"><a xlink:title=" ">
<polygon fill="#ffffff" stroke="#bfbfbf" points="1225.3639,-112.5 1225.3639,-131.5 1264.3639,-131.5 1264.3639,-112.5 1225.3639,-112.5"/>
<text text-anchor="middle" x="1244.8639" y="-119.5" font-family="Helvetica,sans-Serif" font-size="10.00" fill="#000000">QList</text>
</a>
</g>
</g>
<!-- Node2&#45;&gt;Node4 -->
<g id="edge3" class="edge">
<title>Node2&#45;&gt;Node4</title>
<path fill="none" stroke="#191970" d="M767.9222,-232.2847C835.3335,-228.6847 973.2342,-218.0156 1085.8639,-188 1133.553,-175.291 1185.8749,-151.5169 1217.0111,-136.2402"/>
<polygon fill="#191970" stroke="#191970" points="1218.9448,-139.1877 1226.343,-131.6037 1215.8301,-132.9188 1218.9448,-139.1877"/>
</g>
<!-- Node5 -->
<g id="node5" class="node">
<title>Node5</title>
<g id="a_node5"><a xlink:title=" ">
<polygon fill="#ffffff" stroke="#bfbfbf" points="1018.8639,-168.5 1018.8639,-187.5 1076.8639,-187.5 1076.8639,-168.5 1018.8639,-168.5"/>
<text text-anchor="middle" x="1047.8639" y="-175.5" font-family="Helvetica,sans-Serif" font-size="10.00" fill="#000000">QThread</text>
</a>
</g>
</g>
<!-- Node2&#45;&gt;Node5 -->
<g id="edge4" class="edge">
<title>Node2&#45;&gt;Node5</title>
<path fill="none" stroke="#191970" d="M767.8659,-228.5976C821.1767,-221.2963 917.3457,-207.1824 1008.5272,-188.1349"/>
<polygon fill="#191970" stroke="#191970" points="1009.412,-191.5253 1018.4723,-186.0332 1007.9646,-184.6766 1009.412,-191.5253"/>
</g>
<!-- Node6 -->
<g id="node6" class="node">
<title>Node6</title>
<g id="a_node6"><a xlink:title=" ">
<polygon fill="#ffffff" stroke="#bfbfbf" points="485.3639,-112.5 485.3639,-131.5 568.3639,-131.5 568.3639,-112.5 485.3639,-112.5"/>
<text text-anchor="middle" x="526.8639" y="-119.5" font-family="Helvetica,sans-Serif" font-size="10.00" fill="#000000">QVideoWidget</text>
</a>
</g>
</g>
<!-- Node2&#45;&gt;Node6 -->
<g id="edge5" class="edge">
<title>Node2&#45;&gt;Node6</title>
<path fill="none" stroke="#191970" d="M709.812,-224.4509C674.757,-204.8201 594.4102,-159.8259 552.8411,-136.5472"/>
<polygon fill="#191970" stroke="#191970" points="554.3078,-133.3572 543.8726,-131.5249 550.8876,-139.4647 554.3078,-133.3572"/>
</g>
<!-- Node7 -->
<g id="node7" class="node">
<title>Node7</title>
<g id="a_node7"><a xlink:title=" ">
<polygon fill="#ffffff" stroke="#bfbfbf" points="14.8639,-112.5 14.8639,-131.5 96.8639,-131.5 96.8639,-112.5 14.8639,-112.5"/>
<text text-anchor="middle" x="55.8639" y="-119.5" font-family="Helvetica,sans-Serif" font-size="10.00" fill="#000000">QMediaPlayer</text>
</a>
</g>
</g>
<!-- Node2&#45;&gt;Node7 -->
<g id="edge6" class="edge">
<title>Node2&#45;&gt;Node7</title>
<path fill="none" stroke="#191970" d="M685.7258,-230.7076C602.6408,-223.7604 417.567,-206.6959 356.8639,-188 338.2472,-182.2663 336.3311,-174.1984 317.8639,-168 279.6823,-155.1847 171.9077,-138.4788 107.0949,-129.1328"/>
<polygon fill="#191970" stroke="#191970" points="107.4743,-125.6514 97.079,-127.6977 106.4815,-132.5807 107.4743,-125.6514"/>
</g>
<!-- Node8 -->
<g id="node8" class="node">
<title>Node8</title>
<g id="a_node8"><a xlink:title=" ">
<polygon fill="#ffffff" stroke="#bfbfbf" points="224.3639,-168.5 224.3639,-187.5 309.3639,-187.5 309.3639,-168.5 224.3639,-168.5"/>
<text text-anchor="middle" x="266.8639" y="-175.5" font-family="Helvetica,sans-Serif" font-size="10.00" fill="#000000">QMediaPlaylist</text>
</a>
</g>
</g>
<!-- Node2&#45;&gt;Node8 -->
<g id="edge7" class="edge">
<title>Node2&#45;&gt;Node8</title>
<path fill="none" stroke="#191970" d="M685.8576,-230.1403C612.8861,-223.0889 455.7601,-207.0799 323.8639,-188 322.4035,-187.7887 320.923,-187.5688 319.4295,-187.3419"/>
<polygon fill="#191970" stroke="#191970" points="319.8856,-183.8705 309.4607,-185.7608 318.789,-190.7841 319.8856,-183.8705"/>
</g>
<!-- Node9 -->
<g id="node9" class="node">
<title>Node9</title>
<g id="a_node9"><a xlink:href="graphicsmanager_8h.html" target="_top" xlink:title=" ">
<polygon fill="#ffffff" stroke="#000000" points="586.3639,-112.5 586.3639,-131.5 689.3639,-131.5 689.3639,-112.5 586.3639,-112.5"/>
<text text-anchor="middle" x="637.8639" y="-119.5" font-family="Helvetica,sans-Serif" font-size="10.00" fill="#000000">graphicsmanager.h</text>
</a>
</g>
</g>
<!-- Node2&#45;&gt;Node9 -->
<g id="edge8" class="edge">
<title>Node2&#45;&gt;Node9</title>
<path fill="none" stroke="#191970" d="M718.8958,-224.1525C711.383,-214.854 699.8218,-200.5087 689.8639,-188 676.8959,-171.7102 662.2235,-153.068 651.7786,-139.7606"/>
<polygon fill="#191970" stroke="#191970" points="654.5111,-137.5731 645.5858,-131.8644 649.0031,-141.893 654.5111,-137.5731"/>
</g>
<!-- Node13 -->
<g id="node13" class="node">
<title>Node13</title>
<g id="a_node13"><a xlink:href="datamodel_8h.html" target="_top" xlink:title=" ">
<polygon fill="#ffffff" stroke="#000000" points="366.3639,-168.5 366.3639,-187.5 439.3639,-187.5 439.3639,-168.5 366.3639,-168.5"/>
<text text-anchor="middle" x="402.8639" y="-175.5" font-family="Helvetica,sans-Serif" font-size="10.00" fill="#000000">datamodel.h</text>
</a>
</g>
</g>
<!-- Node2&#45;&gt;Node13 -->
<g id="edge12" class="edge">
<title>Node2&#45;&gt;Node13</title>
<path fill="none" stroke="#191970" d="M685.8291,-226.9076C625.5024,-216.4807 513.1801,-197.067 449.7027,-186.0956"/>
<polygon fill="#191970" stroke="#191970" points="450.0228,-182.5991 439.5728,-184.3447 448.8306,-189.4968 450.0228,-182.5991"/>
</g>
<!-- Node23 -->
<g id="node23" class="node">
<title>Node23</title>
<g id="a_node23"><a xlink:href="point_8h.html" target="_top" xlink:title=" ">
<polygon fill="#ffffff" stroke="#000000" points="907.3639,-56.5 907.3639,-75.5 952.3639,-75.5 952.3639,-56.5 907.3639,-56.5"/>
<text text-anchor="middle" x="929.8639" y="-63.5" font-family="Helvetica,sans-Serif" font-size="10.00" fill="#000000">point.h</text>
</a>
</g>
</g>
<!-- Node2&#45;&gt;Node23 -->
<g id="edge33" class="edge">
<title>Node2&#45;&gt;Node23</title>
<path fill="none" stroke="#191970" d="M736.7092,-224.3519C758.5897,-203.0962 813.2483,-151.0199 862.8639,-112 876.8312,-101.0155 893.2709,-89.7061 906.3701,-81.0498"/>
<polygon fill="#191970" stroke="#191970" points="908.3783,-83.9186 914.8337,-75.5175 904.5483,-78.0593 908.3783,-83.9186"/>
</g>
<!-- Node24 -->
<g id="node24" class="node">
<title>Node24</title>
<g id="a_node24"><a xlink:href="maptile_8h.html" target="_top" xlink:title=" ">
<polygon fill="#ffffff" stroke="#000000" points="698.8639,-168.5 698.8639,-187.5 754.8639,-187.5 754.8639,-168.5 698.8639,-168.5"/>
<text text-anchor="middle" x="726.8639" y="-175.5" font-family="Helvetica,sans-Serif" font-size="10.00" fill="#000000">maptile.h</text>
</a>
</g>
</g>
<!-- Node2&#45;&gt;Node24 -->
<g id="edge28" class="edge">
<title>Node2&#45;&gt;Node24</title>
<path fill="none" stroke="#191970" d="M726.8639,-224.2455C726.8639,-216.9382 726.8639,-206.6944 726.8639,-197.7046"/>
<polygon fill="#191970" stroke="#191970" points="730.364,-197.6426 726.8639,-187.6427 723.364,-197.6427 730.364,-197.6426"/>
</g>
<!-- Node27 -->
<g id="node27" class="node">
<title>Node27</title>
<g id="a_node27"><a xlink:href="animationmovement_8h.html" target="_top" xlink:title=" ">
<polygon fill="#ffffff" stroke="#000000" points="885.3639,-168.5 885.3639,-187.5 1000.3639,-187.5 1000.3639,-168.5 885.3639,-168.5"/>
<text text-anchor="middle" x="942.8639" y="-175.5" font-family="Helvetica,sans-Serif" font-size="10.00" fill="#000000">animationmovement.h</text>
</a>
</g>
</g>
<!-- Node2&#45;&gt;Node27 -->
<g id="edge34" class="edge">
<title>Node2&#45;&gt;Node27</title>
<path fill="none" stroke="#191970" d="M763.9956,-224.3733C800.6906,-214.8598 856.9278,-200.2797 896.5291,-190.0127"/>
<polygon fill="#191970" stroke="#191970" points="897.4151,-193.3988 906.2167,-187.5011 895.6584,-186.6228 897.4151,-193.3988"/>
</g>
<!-- Node2&#45;&gt;Node30 -->
<g id="edge43" class="edge">
<title>Node2&#45;&gt;Node30</title>
<path fill="none" stroke="#191970" d="M768.0828,-230.4553C846.3484,-223.5595 1021.8043,-207.3096 1168.8639,-188 1178.1979,-186.7744 1188.2797,-185.2601 1197.5834,-183.784"/>
<polygon fill="#191970" stroke="#191970" points="1198.3631,-187.2034 1207.6757,-182.151 1197.245,-180.2933 1198.3631,-187.2034"/>
</g>
<!-- Node10 -->
<g id="node10" class="node">
<title>Node10</title>
<g id="a_node10"><a xlink:title=" ">
<polygon fill="#ffffff" stroke="#bfbfbf" points="608.8639,-56.5 608.8639,-75.5 666.8639,-75.5 666.8639,-56.5 608.8639,-56.5"/>
<text text-anchor="middle" x="637.8639" y="-63.5" font-family="Helvetica,sans-Serif" font-size="10.00" fill="#000000">QPixmap</text>
</a>
</g>
</g>
<!-- Node9&#45;&gt;Node10 -->
<g id="edge9" class="edge">
<title>Node9&#45;&gt;Node10</title>
<path fill="none" stroke="#191970" d="M637.8639,-112.2455C637.8639,-104.9382 637.8639,-94.6944 637.8639,-85.7046"/>
<polygon fill="#191970" stroke="#191970" points="641.364,-85.6426 637.8639,-75.6427 634.364,-85.6427 641.364,-85.6426"/>
</g>
<!-- Node11 -->
<g id="node11" class="node">
<title>Node11</title>
<g id="a_node11"><a xlink:title=" ">
<polygon fill="#ffffff" stroke="#bfbfbf" points="1135.3639,-56.5 1135.3639,-75.5 1188.3639,-75.5 1188.3639,-56.5 1135.3639,-56.5"/>
<text text-anchor="middle" x="1161.8639" y="-63.5" font-family="Helvetica,sans-Serif" font-size="10.00" fill="#000000">QImage</text>
</a>
</g>
</g>
<!-- Node9&#45;&gt;Node11 -->
<g id="edge10" class="edge">
<title>Node9&#45;&gt;Node11</title>
<path fill="none" stroke="#191970" d="M689.4145,-113.3131C692.609,-112.848 695.7783,-112.4058 698.8639,-112 856.8166,-91.2279 1046.1957,-75.1596 1124.8304,-68.8761"/>
<polygon fill="#191970" stroke="#191970" points="1125.4846,-72.3353 1135.1763,-68.055 1124.9307,-65.3572 1125.4846,-72.3353"/>
</g>
<!-- Node12 -->
<g id="node12" class="node">
<title>Node12</title>
<g id="a_node12"><a xlink:title=" ">
<polygon fill="#ffffff" stroke="#bfbfbf" points="696.3639,-56.5 696.3639,-75.5 737.3639,-75.5 737.3639,-56.5 696.3639,-56.5"/>
<text text-anchor="middle" x="716.8639" y="-63.5" font-family="Helvetica,sans-Serif" font-size="10.00" fill="#000000">string</text>
</a>
</g>
</g>
<!-- Node9&#45;&gt;Node12 -->
<g id="edge11" class="edge">
<title>Node9&#45;&gt;Node12</title>
<path fill="none" stroke="#191970" d="M651.6247,-112.2455C663.5191,-103.814 680.9289,-91.4729 694.7725,-81.6598"/>
<polygon fill="#191970" stroke="#191970" points="697.1267,-84.2811 703.2609,-75.6427 693.0785,-78.5704 697.1267,-84.2811"/>
</g>
<!-- Node13&#45;&gt;Node3 -->
<g id="edge14" class="edge">
<title>Node13&#45;&gt;Node3</title>
<path fill="none" stroke="#191970" d="M366.1115,-170.6923C361.3216,-169.7697 356.4778,-168.8515 351.8639,-168 259.6031,-150.9729 215.4131,-192.6852 143.8639,-132 130.4429,-120.6168 124.8467,-100.9484 122.5169,-86.0359"/>
<polygon fill="#191970" stroke="#191970" points="125.9532,-85.2919 121.2965,-75.7753 119.0021,-86.1187 125.9532,-85.2919"/>
</g>
<!-- Node13&#45;&gt;Node6 -->
<g id="edge17" class="edge">
<title>Node13&#45;&gt;Node6</title>
<path fill="none" stroke="#191970" d="M424.1803,-168.3733C444.0855,-159.3838 474.0075,-145.8706 496.4239,-135.7471"/>
<polygon fill="#191970" stroke="#191970" points="498.1526,-138.8068 505.8257,-131.5011 495.2714,-132.4272 498.1526,-138.8068"/>
</g>
<!-- Node13&#45;&gt;Node7 -->
<g id="edge16" class="edge">
<title>Node13&#45;&gt;Node7</title>
<path fill="none" stroke="#191970" d="M366.1296,-170.5907C361.3368,-169.6847 356.4874,-168.7982 351.8639,-168 245.143,-149.5761 217.7091,-149.6888 110.8639,-132 109.5982,-131.7905 108.3166,-131.5759 107.0241,-131.3574"/>
<polygon fill="#191970" stroke="#191970" points="107.4346,-127.8765 96.9847,-129.6228 106.2428,-134.7743 107.4346,-127.8765"/>
</g>
<!-- Node14 -->
<g id="node14" class="node">
<title>Node14</title>
<g id="a_node14"><a xlink:title=" ">
<polygon fill="#ffffff" stroke="#bfbfbf" points="167.3639,-56.5 167.3639,-75.5 216.3639,-75.5 216.3639,-56.5 167.3639,-56.5"/>
<text text-anchor="middle" x="191.8639" y="-63.5" font-family="Helvetica,sans-Serif" font-size="10.00" fill="#000000">QLabel</text>
</a>
</g>
</g>
<!-- Node13&#45;&gt;Node14 -->
<g id="edge13" class="edge">
<title>Node13&#45;&gt;Node14</title>
<path fill="none" stroke="#191970" d="M366.3237,-169.2865C338.6978,-161.7874 300.4375,-149.4088 269.8639,-132 246.4522,-118.6692 223.3662,-97.9264 208.4594,-83.258"/>
<polygon fill="#191970" stroke="#191970" points="210.6002,-80.4468 201.0692,-75.8195 205.6343,-85.3804 210.6002,-80.4468"/>
</g>
<!-- Node15 -->
<g id="node15" class="node">
<title>Node15</title>
<g id="a_node15"><a xlink:title=" ">
<polygon fill="#ffffff" stroke="#bfbfbf" points="764.8639,-112.5 764.8639,-131.5 814.8639,-131.5 814.8639,-112.5 764.8639,-112.5"/>
<text text-anchor="middle" x="789.8639" y="-119.5" font-family="Helvetica,sans-Serif" font-size="10.00" fill="#000000">QString</text>
</a>
</g>
</g>
<!-- Node13&#45;&gt;Node15 -->
<g id="edge15" class="edge">
<title>Node13&#45;&gt;Node15</title>
<path fill="none" stroke="#191970" d="M439.5151,-175.1274C502.2339,-169.8014 634.2439,-156.8051 754.6034,-131.9912"/>
<polygon fill="#191970" stroke="#191970" points="755.6552,-135.3469 764.7248,-129.8704 754.2195,-128.4957 755.6552,-135.3469"/>
</g>
<!-- Node16 -->
<g id="node16" class="node">
<title>Node16</title>
<g id="a_node16"><a xlink:href="mainwindow_8h.html" target="_top" xlink:title=" ">
<polygon fill="#ffffff" stroke="#000000" points="278.8639,-112.5 278.8639,-131.5 358.8639,-131.5 358.8639,-112.5 278.8639,-112.5"/>
<text text-anchor="middle" x="318.8639" y="-119.5" font-family="Helvetica,sans-Serif" font-size="10.00" fill="#000000">mainwindow.h</text>
</a>
</g>
</g>
<!-- Node13&#45;&gt;Node16 -->
<g id="edge18" class="edge">
<title>Node13&#45;&gt;Node16</title>
<path fill="none" stroke="#191970" d="M388.2322,-168.2455C375.4645,-159.7337 356.7201,-147.2375 341.934,-137.3801"/>
<polygon fill="#191970" stroke="#191970" points="343.5899,-134.2775 333.3279,-131.6427 339.707,-140.1019 343.5899,-134.2775"/>
</g>
<!-- Node19 -->
<g id="node19" class="node">
<title>Node19</title>
<g id="a_node19"><a xlink:href="player_8h.html" target="_top" xlink:title=" ">
<polygon fill="#ffffff" stroke="#000000" points="376.8639,-112.5 376.8639,-131.5 428.8639,-131.5 428.8639,-112.5 376.8639,-112.5"/>
<text text-anchor="middle" x="402.8639" y="-119.5" font-family="Helvetica,sans-Serif" font-size="10.00" fill="#000000">player.h</text>
</a>
</g>
</g>
<!-- Node13&#45;&gt;Node19 -->
<g id="edge21" class="edge">
<title>Node13&#45;&gt;Node19</title>
<path fill="none" stroke="#191970" d="M402.8639,-168.2455C402.8639,-160.9382 402.8639,-150.6944 402.8639,-141.7046"/>
<polygon fill="#191970" stroke="#191970" points="406.364,-141.6426 402.8639,-131.6427 399.364,-141.6427 406.364,-141.6426"/>
</g>
<!-- Node22 -->
<g id="node22" class="node">
<title>Node22</title>
<g id="a_node22"><a xlink:href="infowidget_8h.html" target="_top" xlink:title=" ">
<polygon fill="#ffffff" stroke="#000000" points="152.8639,-112.5 152.8639,-131.5 222.8639,-131.5 222.8639,-112.5 152.8639,-112.5"/>
<text text-anchor="middle" x="187.8639" y="-119.5" font-family="Helvetica,sans-Serif" font-size="10.00" fill="#000000">infowidget.h</text>
</a>
</g>
</g>
<!-- Node13&#45;&gt;Node22 -->
<g id="edge24" class="edge">
<title>Node13&#45;&gt;Node22</title>
<path fill="none" stroke="#191970" d="M365.9041,-168.3733C329.0146,-158.7648 272.2833,-143.9883 232.8094,-133.7067"/>
<polygon fill="#191970" stroke="#191970" points="233.4771,-130.2639 222.9177,-131.1303 231.7127,-137.0379 233.4771,-130.2639"/>
</g>
<!-- Node13&#45;&gt;Node23 -->
<g id="edge27" class="edge">
<title>Node13&#45;&gt;Node23</title>
<path fill="none" stroke="#191970" d="M410.2525,-168.3035C422.3289,-153.2755 447.8745,-124.764 476.8639,-112 515.1303,-95.1513 799.5479,-74.7333 897.1218,-68.1534"/>
<polygon fill="#191970" stroke="#191970" points="897.5409,-71.6332 907.2846,-67.4726 897.073,-64.6489 897.5409,-71.6332"/>
</g>
<!-- Node17 -->
<g id="node17" class="node">
<title>Node17</title>
<g id="a_node17"><a xlink:title=" ">
<polygon fill="#ffffff" stroke="#bfbfbf" points="319.3639,-56.5 319.3639,-75.5 402.3639,-75.5 402.3639,-56.5 319.3639,-56.5"/>
<text text-anchor="middle" x="360.8639" y="-63.5" font-family="Helvetica,sans-Serif" font-size="10.00" fill="#000000">QMainWindow</text>
</a>
</g>
</g>
<!-- Node16&#45;&gt;Node17 -->
<g id="edge19" class="edge">
<title>Node16&#45;&gt;Node17</title>
<path fill="none" stroke="#191970" d="M326.1798,-112.2455C332.0818,-104.3761 340.5382,-93.101 347.6233,-83.6542"/>
<polygon fill="#191970" stroke="#191970" points="350.4319,-85.7427 353.6319,-75.6427 344.8319,-81.5427 350.4319,-85.7427"/>
</g>
<!-- Node18 -->
<g id="node18" class="node">
<title>Node18</title>
<g id="a_node18"><a xlink:title=" ">
<polygon fill="#ffffff" stroke="#bfbfbf" points="234.3639,-56.5 234.3639,-75.5 301.3639,-75.5 301.3639,-56.5 234.3639,-56.5"/>
<text text-anchor="middle" x="267.8639" y="-63.5" font-family="Helvetica,sans-Serif" font-size="10.00" fill="#000000">QKeyEvent</text>
</a>
</g>
</g>
<!-- Node16&#45;&gt;Node18 -->
<g id="edge20" class="edge">
<title>Node16&#45;&gt;Node18</title>
<path fill="none" stroke="#191970" d="M309.9804,-112.2455C302.6673,-104.2155 292.1248,-92.6394 283.4172,-83.0781"/>
<polygon fill="#191970" stroke="#191970" points="285.9667,-80.6795 276.6456,-75.6427 280.7913,-85.3928 285.9667,-80.6795"/>
</g>
<!-- Node20 -->
<g id="node20" class="node">
<title>Node20</title>
<g id="a_node20"><a xlink:href="highlighter_8h.html" target="_top" xlink:title=" ">
<polygon fill="#ffffff" stroke="#000000" points="420.8639,-56.5 420.8639,-75.5 490.8639,-75.5 490.8639,-56.5 420.8639,-56.5"/>
<text text-anchor="middle" x="455.8639" y="-63.5" font-family="Helvetica,sans-Serif" font-size="10.00" fill="#000000">highlighter.h</text>
</a>
</g>
</g>
<!-- Node19&#45;&gt;Node20 -->
<g id="edge22" class="edge">
<title>Node19&#45;&gt;Node20</title>
<path fill="none" stroke="#191970" d="M412.0958,-112.2455C419.6956,-104.2155 430.6516,-92.6394 439.7007,-83.0781"/>
<polygon fill="#191970" stroke="#191970" points="442.406,-85.3115 446.7378,-75.6427 437.3219,-80.4998 442.406,-85.3115"/>
</g>
<!-- Node21 -->
<g id="node21" class="node">
<title>Node21</title>
<g id="a_node21"><a xlink:title=" ">
<polygon fill="#ffffff" stroke="#bfbfbf" points="403.8639,-.5 403.8639,-19.5 507.8639,-19.5 507.8639,-.5 403.8639,-.5"/>
<text text-anchor="middle" x="455.8639" y="-7.5" font-family="Helvetica,sans-Serif" font-size="10.00" fill="#000000">QGraphicsRectItem</text>
</a>
</g>
</g>
<!-- Node20&#45;&gt;Node21 -->
<g id="edge23" class="edge">
<title>Node20&#45;&gt;Node21</title>
<path fill="none" stroke="#191970" d="M455.8639,-56.2455C455.8639,-48.9382 455.8639,-38.6944 455.8639,-29.7046"/>
<polygon fill="#191970" stroke="#191970" points="459.364,-29.6426 455.8639,-19.6427 452.364,-29.6427 459.364,-29.6426"/>
</g>
<!-- Node22&#45;&gt;Node3 -->
<g id="edge26" class="edge">
<title>Node22&#45;&gt;Node3</title>
<path fill="none" stroke="#191970" d="M176.1934,-112.2455C166.2978,-103.9746 151.9012,-91.9416 140.2738,-82.2232"/>
<polygon fill="#191970" stroke="#191970" points="142.3181,-79.3703 132.4007,-75.6427 137.8289,-84.7413 142.3181,-79.3703"/>
</g>
<!-- Node22&#45;&gt;Node14 -->
<g id="edge25" class="edge">
<title>Node22&#45;&gt;Node14</title>
<path fill="none" stroke="#191970" d="M188.5607,-112.2455C189.0826,-104.9382 189.8143,-94.6944 190.4564,-85.7046"/>
<polygon fill="#191970" stroke="#191970" points="193.9537,-85.8667 191.1752,-75.6427 186.9715,-85.3679 193.9537,-85.8667"/>
</g>
<!-- Node24&#45;&gt;Node9 -->
<g id="edge32" class="edge">
<title>Node24&#45;&gt;Node9</title>
<path fill="none" stroke="#191970" d="M711.3613,-168.2455C697.706,-159.6534 677.5982,-147.0014 661.865,-137.1018"/>
<polygon fill="#191970" stroke="#191970" points="663.5168,-134.006 653.1889,-131.6427 659.7888,-139.9307 663.5168,-134.006"/>
</g>
<!-- Node25 -->
<g id="node25" class="node">
<title>Node25</title>
<g id="a_node25"><a xlink:title=" ">
<polygon fill="#ffffff" stroke="#bfbfbf" points="871.3639,-112.5 871.3639,-131.5 988.3639,-131.5 988.3639,-112.5 871.3639,-112.5"/>
<text text-anchor="middle" x="929.8639" y="-119.5" font-family="Helvetica,sans-Serif" font-size="10.00" fill="#000000">QGraphicsPixmapItem</text>
</a>
</g>
</g>
<!-- Node24&#45;&gt;Node25 -->
<g id="edge29" class="edge">
<title>Node24&#45;&gt;Node25</title>
<path fill="none" stroke="#191970" d="M755.0902,-170.2134C788.8353,-160.9044 845.7176,-145.2128 885.3912,-134.2683"/>
<polygon fill="#191970" stroke="#191970" points="886.3732,-137.6282 895.0824,-131.5949 884.5117,-130.8803 886.3732,-137.6282"/>
</g>
<!-- Node26 -->
<g id="node26" class="node">
<title>Node26</title>
<g id="a_node26"><a xlink:href="city_8h.html" target="_top" xlink:title=" ">
<polygon fill="#ffffff" stroke="#000000" points="707.3639,-112.5 707.3639,-131.5 746.3639,-131.5 746.3639,-112.5 707.3639,-112.5"/>
<text text-anchor="middle" x="726.8639" y="-119.5" font-family="Helvetica,sans-Serif" font-size="10.00" fill="#000000">city.h</text>
</a>
</g>
</g>
<!-- Node24&#45;&gt;Node26 -->
<g id="edge30" class="edge">
<title>Node24&#45;&gt;Node26</title>
<path fill="none" stroke="#191970" d="M726.8639,-168.2455C726.8639,-160.9382 726.8639,-150.6944 726.8639,-141.7046"/>
<polygon fill="#191970" stroke="#191970" points="730.364,-141.6426 726.8639,-131.6427 723.364,-141.6427 730.364,-141.6426"/>
</g>
<!-- Node26&#45;&gt;Node12 -->
<g id="edge31" class="edge">
<title>Node26&#45;&gt;Node12</title>
<path fill="none" stroke="#191970" d="M725.122,-112.2455C723.8172,-104.9382 721.9879,-94.6944 720.3826,-85.7046"/>
<polygon fill="#191970" stroke="#191970" points="723.7893,-84.8717 718.5858,-75.6427 716.8983,-86.1022 723.7893,-84.8717"/>
</g>
<!-- Node27&#45;&gt;Node4 -->
<g id="edge39" class="edge">
<title>Node27&#45;&gt;Node4</title>
<path fill="none" stroke="#191970" d="M1000.3965,-168.8975C1067.8598,-158.1454 1174.8229,-140.8295 1215.2043,-131.9196"/>
<polygon fill="#191970" stroke="#191970" points="1216.2073,-135.2784 1225.1144,-129.5412 1214.5737,-128.4716 1216.2073,-135.2784"/>
</g>
<!-- Node27&#45;&gt;Node15 -->
<g id="edge40" class="edge">
<title>Node27&#45;&gt;Node15</title>
<path fill="none" stroke="#191970" d="M916.5623,-168.3733C891.1117,-159.058 852.3896,-144.8852 824.4533,-134.6602"/>
<polygon fill="#191970" stroke="#191970" points="825.6549,-131.3729 815.0611,-131.2225 823.2488,-137.9465 825.6549,-131.3729"/>
</g>
<!-- Node27&#45;&gt;Node23 -->
<g id="edge35" class="edge">
<title>Node27&#45;&gt;Node23</title>
<path fill="none" stroke="#191970" d="M960.983,-168.4541C981.2653,-156.408 1009.8228,-134.5279 997.8639,-112 990.1535,-97.4752 975.5811,-86.6993 961.8981,-79.2433"/>
<polygon fill="#191970" stroke="#191970" points="963.1698,-75.9655 952.6625,-74.6066 960.0291,-82.2214 963.1698,-75.9655"/>
</g>
<!-- Node27&#45;&gt;Node25 -->
<g id="edge42" class="edge">
<title>Node27&#45;&gt;Node25</title>
<path fill="none" stroke="#191970" d="M940.5995,-168.2455C938.8845,-160.8579 936.4728,-150.4689 934.3695,-141.4087"/>
<polygon fill="#191970" stroke="#191970" points="937.7731,-140.5922 932.1024,-131.6427 930.9544,-142.1751 937.7731,-140.5922"/>
</g>
<!-- Node28 -->
<g id="node28" class="node">
<title>Node28</title>
<g id="a_node28"><a xlink:href="animationentity_8h.html" target="_top" xlink:title=" ">
<polygon fill="#ffffff" stroke="#000000" points="1116.3639,-112.5 1116.3639,-131.5 1207.3639,-131.5 1207.3639,-112.5 1116.3639,-112.5"/>
<text text-anchor="middle" x="1161.8639" y="-119.5" font-family="Helvetica,sans-Serif" font-size="10.00" fill="#000000">animationentity.h</text>
</a>
</g>
</g>
<!-- Node27&#45;&gt;Node28 -->
<g id="edge36" class="edge">
<title>Node27&#45;&gt;Node28</title>
<path fill="none" stroke="#191970" d="M980.5114,-168.3733C1017.716,-158.8598 1074.7342,-144.2797 1114.8855,-134.0127"/>
<polygon fill="#191970" stroke="#191970" points="1115.8866,-137.3695 1124.7077,-131.5011 1114.1524,-130.5877 1115.8866,-137.3695"/>
</g>
<!-- Node29 -->
<g id="node29" class="node">
<title>Node29</title>
<g id="a_node29"><a xlink:title=" ">
<polygon fill="#ffffff" stroke="#bfbfbf" points="1045.3639,-112.5 1045.3639,-131.5 1098.3639,-131.5 1098.3639,-112.5 1045.3639,-112.5"/>
<text text-anchor="middle" x="1071.8639" y="-119.5" font-family="Helvetica,sans-Serif" font-size="10.00" fill="#000000">QObject</text>
</a>
</g>
</g>
<!-- Node27&#45;&gt;Node29 -->
<g id="edge41" class="edge">
<title>Node27&#45;&gt;Node29</title>
<path fill="none" stroke="#191970" d="M965.0398,-168.3733C985.8405,-159.3435 1017.1556,-145.7494 1040.5097,-135.6111"/>
<polygon fill="#191970" stroke="#191970" points="1042.1982,-138.6938 1049.9774,-131.5011 1039.4107,-132.2727 1042.1982,-138.6938"/>
</g>
<!-- Node28&#45;&gt;Node11 -->
<g id="edge37" class="edge">
<title>Node28&#45;&gt;Node11</title>
<path fill="none" stroke="#191970" d="M1161.8639,-112.2455C1161.8639,-104.9382 1161.8639,-94.6944 1161.8639,-85.7046"/>
<polygon fill="#191970" stroke="#191970" points="1165.364,-85.6426 1161.8639,-75.6427 1158.364,-85.6427 1165.364,-85.6426"/>
</g>
<!-- Node28&#45;&gt;Node23 -->
<g id="edge38" class="edge">
<title>Node28&#45;&gt;Node23</title>
<path fill="none" stroke="#191970" d="M1122.2453,-112.4369C1077.1472,-101.5511 1004.3219,-83.9726 962.4022,-73.8541"/>
<polygon fill="#191970" stroke="#191970" points="962.9883,-70.3951 952.4462,-71.4509 961.3458,-77.1997 962.9883,-70.3951"/>
</g>
<!-- Node30&#45;&gt;Node4 -->
<g id="edge45" class="edge">
<title>Node30&#45;&gt;Node4</title>
<path fill="none" stroke="#191970" d="M1234.1283,-168.2455C1235.8433,-160.8579 1238.2551,-150.4689 1240.3583,-141.4087"/>
<polygon fill="#191970" stroke="#191970" points="1243.7734,-142.1751 1242.6254,-131.6427 1236.9547,-140.5922 1243.7734,-142.1751"/>
</g>
<!-- Node30&#45;&gt;Node11 -->
<g id="edge44" class="edge">
<title>Node30&#45;&gt;Node11</title>
<path fill="none" stroke="#191970" d="M1245.7921,-168.2884C1262.6121,-155.3352 1287.0982,-131.7425 1273.8639,-112 1257.1246,-87.0288 1224.1336,-75.6018 1198.2734,-70.3793"/>
<polygon fill="#191970" stroke="#191970" points="1198.8674,-66.9301 1188.4067,-68.6104 1197.6321,-73.8202 1198.8674,-66.9301"/>
</g>
</g>
</svg>
