<?xml version="1.0" encoding="UTF-8" standalone="no"?>
<!DOCTYPE svg PUBLIC "-//W3C//DTD SVG 1.1//EN"
 "http://www.w3.org/Graphics/SVG/1.1/DTD/svg11.dtd">
<!-- Generated by graphviz version 2.40.1 (20161225.0304)
 -->
<!-- Title: src/application_server/maprenderer.h Pages: 1 -->
<svg width="817pt" height="374pt"
 viewBox="0.00 0.00 816.75 374.00" xmlns="http://www.w3.org/2000/svg" xmlns:xlink="http://www.w3.org/1999/xlink">
<g id="graph0" class="graph" transform="scale(1 1) rotate(0) translate(4 370)">
<title>src/application_server/maprenderer.h</title>
<polygon fill="#ffffff" stroke="transparent" points="-4,4 -4,-370 812.7479,-370 812.7479,4 -4,4"/>
<!-- Node1 -->
<g id="node1" class="node">
<title>Node1</title>
<g id="a_node1"><a xlink:title=" ">
<polygon fill="#bfbfbf" stroke="#000000" points="448.7479,-335.5 448.7479,-365.5 563.7479,-365.5 563.7479,-335.5 448.7479,-335.5"/>
<text text-anchor="start" x="456.7479" y="-353.5" font-family="Helvetica,sans-Serif" font-size="10.00" fill="#000000">src/application_server</text>
<text text-anchor="middle" x="506.2479" y="-342.5" font-family="Helvetica,sans-Serif" font-size="10.00" fill="#000000">/maprenderer.h</text>
</a>
</g>
</g>
<!-- Node2 -->
<g id="node2" class="node">
<title>Node2</title>
<g id="a_node2"><a xlink:href="client_8h.html" target="_top" xlink:title=" ">
<polygon fill="#ffffff" stroke="#000000" points="231.7479,-268.5 231.7479,-298.5 346.7479,-298.5 346.7479,-268.5 231.7479,-268.5"/>
<text text-anchor="start" x="239.7479" y="-286.5" font-family="Helvetica,sans-Serif" font-size="10.00" fill="#000000">src/application_server</text>
<text text-anchor="middle" x="289.2479" y="-275.5" font-family="Helvetica,sans-Serif" font-size="10.00" fill="#000000">/client.h</text>
</a>
</g>
</g>
<!-- Node1&#45;&gt;Node2 -->
<g id="edge1" class="edge">
<title>Node1&#45;&gt;Node2</title>
<path fill="none" stroke="#191970" d="M447.6653,-332.4123C413.3907,-321.8298 370.618,-308.6235 338.1593,-298.6017"/>
<polygon fill="#191970" stroke="#191970" points="446.9613,-335.8579 457.5488,-335.4639 449.0265,-329.1695 446.9613,-335.8579"/>
</g>
<!-- Node4 -->
<g id="node4" class="node">
<title>Node4</title>
<g id="a_node4"><a xlink:href="gameloop_8h.html" target="_top" xlink:title=" ">
<polygon fill="#ffffff" stroke="#000000" points="379.7479,-201.5 379.7479,-231.5 494.7479,-231.5 494.7479,-201.5 379.7479,-201.5"/>
<text text-anchor="start" x="387.7479" y="-219.5" font-family="Helvetica,sans-Serif" font-size="10.00" fill="#000000">src/application_server</text>
<text text-anchor="middle" x="437.2479" y="-208.5" font-family="Helvetica,sans-Serif" font-size="10.00" fill="#000000">/gameloop.h</text>
</a>
</g>
</g>
<!-- Node1&#45;&gt;Node4 -->
<g id="edge15" class="edge">
<title>Node1&#45;&gt;Node4</title>
<path fill="none" stroke="#191970" d="M493.8533,-326.4294C479.711,-298.9647 457.0077,-254.8742 445.1063,-231.7614"/>
<polygon fill="#191970" stroke="#191970" points="490.7771,-328.1007 498.4668,-335.389 497.0005,-324.8961 490.7771,-328.1007"/>
</g>
<!-- Node6 -->
<g id="node6" class="node">
<title>Node6</title>
<g id="a_node6"><a xlink:href="main_8cpp.html" target="_top" xlink:title=" ">
<polygon fill="#ffffff" stroke="#000000" points="360.7479,-.5 360.7479,-30.5 475.7479,-30.5 475.7479,-.5 360.7479,-.5"/>
<text text-anchor="start" x="368.7479" y="-18.5" font-family="Helvetica,sans-Serif" font-size="10.00" fill="#000000">src/application_server</text>
<text text-anchor="middle" x="418.2479" y="-7.5" font-family="Helvetica,sans-Serif" font-size="10.00" fill="#000000">/main.cpp</text>
</a>
</g>
</g>
<!-- Node1&#45;&gt;Node6 -->
<g id="edge22" class="edge">
<title>Node1&#45;&gt;Node6</title>
<path fill="none" stroke="#191970" d="M514.6664,-325.6951C527.2524,-284.4247 546.9913,-199.7046 522.2479,-134 505.559,-89.684 463.9315,-51.1472 438.6929,-30.8169"/>
<polygon fill="#191970" stroke="#191970" points="511.2616,-324.8536 511.5763,-335.4438 517.9344,-326.9688 511.2616,-324.8536"/>
</g>
<!-- Node9 -->
<g id="node9" class="node">
<title>Node9</title>
<g id="a_node9"><a xlink:href="menubar_8h.html" target="_top" xlink:title=" ">
<polygon fill="#ffffff" stroke="#000000" points="17.7479,-134.5 17.7479,-164.5 132.7479,-164.5 132.7479,-134.5 17.7479,-134.5"/>
<text text-anchor="start" x="25.7479" y="-152.5" font-family="Helvetica,sans-Serif" font-size="10.00" fill="#000000">src/application_server</text>
<text text-anchor="middle" x="75.2479" y="-141.5" font-family="Helvetica,sans-Serif" font-size="10.00" fill="#000000">/menubar.h</text>
</a>
</g>
</g>
<!-- Node1&#45;&gt;Node9 -->
<g id="edge16" class="edge">
<title>Node1&#45;&gt;Node9</title>
<path fill="none" stroke="#191970" d="M438.2868,-343.6956C321.416,-330.3663 90.6025,-296.3449 46.2479,-232 31.772,-211.0001 48.785,-182.0328 62.1919,-164.5992"/>
<polygon fill="#191970" stroke="#191970" points="438.2213,-347.2101 448.549,-344.8462 439.0013,-340.2537 438.2213,-347.2101"/>
</g>
<!-- Node12 -->
<g id="node12" class="node">
<title>Node12</title>
<g id="a_node12"><a xlink:href="minimap_8h.html" target="_top" xlink:title=" ">
<polygon fill="#ffffff" stroke="#000000" points="560.7479,-268.5 560.7479,-298.5 675.7479,-298.5 675.7479,-268.5 560.7479,-268.5"/>
<text text-anchor="start" x="568.7479" y="-286.5" font-family="Helvetica,sans-Serif" font-size="10.00" fill="#000000">src/application_server</text>
<text text-anchor="middle" x="618.2479" y="-275.5" font-family="Helvetica,sans-Serif" font-size="10.00" fill="#000000">/minimap.h</text>
</a>
</g>
</g>
<!-- Node1&#45;&gt;Node12 -->
<g id="edge17" class="edge">
<title>Node1&#45;&gt;Node12</title>
<path fill="none" stroke="#191970" d="M540.3893,-330.0761C557.2706,-319.9774 577.2954,-307.9983 592.8093,-298.7177"/>
<polygon fill="#191970" stroke="#191970" points="538.1677,-327.3266 531.3828,-335.4639 541.7613,-333.3338 538.1677,-327.3266"/>
</g>
<!-- Node16 -->
<g id="node16" class="node">
<title>Node16</title>
<g id="a_node16"><a xlink:href="maprenderer_8cpp.html" target="_top" xlink:title=" ">
<polygon fill="#ffffff" stroke="#000000" points="693.7479,-268.5 693.7479,-298.5 808.7479,-298.5 808.7479,-268.5 693.7479,-268.5"/>
<text text-anchor="start" x="701.7479" y="-286.5" font-family="Helvetica,sans-Serif" font-size="10.00" fill="#000000">src/application_server</text>
<text text-anchor="middle" x="751.2479" y="-275.5" font-family="Helvetica,sans-Serif" font-size="10.00" fill="#000000">/maprenderer.cpp</text>
</a>
</g>
</g>
<!-- Node1&#45;&gt;Node16 -->
<g id="edge23" class="edge">
<title>Node1&#45;&gt;Node16</title>
<path fill="none" stroke="#191970" d="M570.8995,-332.8198C609.8411,-322.1704 658.9065,-308.7525 696.0253,-298.6017"/>
<polygon fill="#191970" stroke="#191970" points="569.9532,-329.4499 561.2306,-335.4639 571.7997,-336.202 569.9532,-329.4499"/>
</g>
<!-- Node3 -->
<g id="node3" class="node">
<title>Node3</title>
<g id="a_node3"><a xlink:href="client_8cpp.html" target="_top" xlink:title=" ">
<polygon fill="#ffffff" stroke="#000000" points="55.7479,-201.5 55.7479,-231.5 170.7479,-231.5 170.7479,-201.5 55.7479,-201.5"/>
<text text-anchor="start" x="63.7479" y="-219.5" font-family="Helvetica,sans-Serif" font-size="10.00" fill="#000000">src/application_server</text>
<text text-anchor="middle" x="113.2479" y="-208.5" font-family="Helvetica,sans-Serif" font-size="10.00" fill="#000000">/client.cpp</text>
</a>
</g>
</g>
<!-- Node2&#45;&gt;Node3 -->
<g id="edge2" class="edge">
<title>Node2&#45;&gt;Node3</title>
<path fill="none" stroke="#191970" d="M240.2962,-264.865C212.7465,-254.3773 178.792,-241.4515 152.918,-231.6017"/>
<polygon fill="#191970" stroke="#191970" points="239.1591,-268.1771 249.75,-268.4639 241.6495,-261.6351 239.1591,-268.1771"/>
</g>
<!-- Node2&#45;&gt;Node4 -->
<g id="edge3" class="edge">
<title>Node2&#45;&gt;Node4</title>
<path fill="none" stroke="#191970" d="M331.6306,-264.3132C354.5739,-253.9267 382.5113,-241.2794 403.8889,-231.6017"/>
<polygon fill="#191970" stroke="#191970" points="330.1285,-261.1512 322.4619,-268.4639 333.0154,-267.5282 330.1285,-261.1512"/>
</g>
<!-- Node7 -->
<g id="node7" class="node">
<title>Node7</title>
<g id="a_node7"><a xlink:href="main_8h.html" target="_top" xlink:title=" ">
<polygon fill="#ffffff" stroke="#000000" points="17.7479,-67.5 17.7479,-97.5 132.7479,-97.5 132.7479,-67.5 17.7479,-67.5"/>
<text text-anchor="start" x="25.7479" y="-85.5" font-family="Helvetica,sans-Serif" font-size="10.00" fill="#000000">src/application_server</text>
<text text-anchor="middle" x="75.2479" y="-74.5" font-family="Helvetica,sans-Serif" font-size="10.00" fill="#000000">/main.h</text>
</a>
</g>
</g>
<!-- Node2&#45;&gt;Node7 -->
<g id="edge6" class="edge">
<title>Node2&#45;&gt;Node7</title>
<path fill="none" stroke="#191970" d="M221.4369,-275.4384C159.5539,-266.9707 73.69,-252.0866 46.2479,-232 8.5518,-204.4079 -12.3963,-175.9063 8.2479,-134 15.9631,-118.3386 30.9829,-106.1093 44.8492,-97.5054"/>
<polygon fill="#191970" stroke="#191970" points="221.1583,-278.9323 231.5348,-276.7927 222.0888,-271.9944 221.1583,-278.9323"/>
</g>
<!-- Node8 -->
<g id="node8" class="node">
<title>Node8</title>
<g id="a_node8"><a xlink:href="routeinterface_8h.html" target="_top" xlink:title=" ">
<polygon fill="#ffffff" stroke="#000000" points="188.7479,-201.5 188.7479,-231.5 303.7479,-231.5 303.7479,-201.5 188.7479,-201.5"/>
<text text-anchor="start" x="196.7479" y="-219.5" font-family="Helvetica,sans-Serif" font-size="10.00" fill="#000000">src/application_server</text>
<text text-anchor="middle" x="246.2479" y="-208.5" font-family="Helvetica,sans-Serif" font-size="10.00" fill="#000000">/routeinterface.h</text>
</a>
</g>
</g>
<!-- Node2&#45;&gt;Node8 -->
<g id="edge8" class="edge">
<title>Node2&#45;&gt;Node8</title>
<path fill="none" stroke="#191970" d="M274.0204,-259.7735C268.0144,-250.4154 261.2928,-239.9421 255.9666,-231.6432"/>
<polygon fill="#191970" stroke="#191970" points="271.1437,-261.7712 279.4905,-268.2967 277.0348,-257.9903 271.1437,-261.7712"/>
</g>
<!-- Node10 -->
<g id="node10" class="node">
<title>Node10</title>
<g id="a_node10"><a xlink:href="menubar_8cpp.html" target="_top" xlink:title=" ">
<polygon fill="#ffffff" stroke="#000000" points="274.7479,-67.5 274.7479,-97.5 389.7479,-97.5 389.7479,-67.5 274.7479,-67.5"/>
<text text-anchor="start" x="282.7479" y="-85.5" font-family="Helvetica,sans-Serif" font-size="10.00" fill="#000000">src/application_server</text>
<text text-anchor="middle" x="332.2479" y="-74.5" font-family="Helvetica,sans-Serif" font-size="10.00" fill="#000000">/menubar.cpp</text>
</a>
</g>
</g>
<!-- Node2&#45;&gt;Node10 -->
<g id="edge14" class="edge">
<title>Node2&#45;&gt;Node10</title>
<path fill="none" stroke="#191970" d="M301.9256,-258.9741C305.7804,-250.6083 309.6732,-241.0728 312.2479,-232 325.8304,-184.1363 330.2682,-124.9694 331.6537,-97.6428"/>
<polygon fill="#191970" stroke="#191970" points="298.6873,-257.6317 297.4992,-268.1597 304.9934,-260.6705 298.6873,-257.6317"/>
</g>
<!-- Node5 -->
<g id="node5" class="node">
<title>Node5</title>
<g id="a_node5"><a xlink:href="gameloop_8cpp.html" target="_top" xlink:title=" ">
<polygon fill="#ffffff" stroke="#000000" points="398.7479,-134.5 398.7479,-164.5 513.7479,-164.5 513.7479,-134.5 398.7479,-134.5"/>
<text text-anchor="start" x="406.7479" y="-152.5" font-family="Helvetica,sans-Serif" font-size="10.00" fill="#000000">src/application_server</text>
<text text-anchor="middle" x="456.2479" y="-141.5" font-family="Helvetica,sans-Serif" font-size="10.00" fill="#000000">/gameloop.cpp</text>
</a>
</g>
</g>
<!-- Node4&#45;&gt;Node5 -->
<g id="edge4" class="edge">
<title>Node4&#45;&gt;Node5</title>
<path fill="none" stroke="#191970" d="M444.3061,-191.6103C446.874,-182.5553 449.6972,-172.5998 451.9535,-164.6432"/>
<polygon fill="#191970" stroke="#191970" points="440.9203,-190.7211 441.5592,-201.2967 447.6548,-192.6309 440.9203,-190.7211"/>
</g>
<!-- Node4&#45;&gt;Node6 -->
<g id="edge5" class="edge">
<title>Node4&#45;&gt;Node6</title>
<path fill="none" stroke="#191970" d="M409.5919,-194.2089C401.448,-185.9865 393.5678,-175.9709 389.2479,-165 384.1999,-152.1803 387.5644,-147.6745 389.2479,-134 391.263,-117.6311 394.305,-114.0142 398.2479,-98 404.0262,-74.5309 410.609,-47.2736 414.5942,-30.7134"/>
<polygon fill="#191970" stroke="#191970" points="407.3706,-196.9248 417.0504,-201.232 412.1693,-191.8285 407.3706,-196.9248"/>
</g>
<!-- Node7&#45;&gt;Node6 -->
<g id="edge7" class="edge">
<title>Node7&#45;&gt;Node6</title>
<path fill="none" stroke="#191970" d="M142.9683,-69.2718C206.486,-56.8646 300.4418,-38.5117 360.5,-26.7802"/>
<polygon fill="#191970" stroke="#191970" points="142.1888,-65.8578 133.0453,-71.2101 143.5308,-72.728 142.1888,-65.8578"/>
</g>
<!-- Node8&#45;&gt;Node6 -->
<g id="edge12" class="edge">
<title>Node8&#45;&gt;Node6</title>
<path fill="none" stroke="#191970" d="M262.581,-192.3666C267.3097,-184.0592 271.8426,-174.4594 274.2479,-165 281.6518,-135.8813 268.9189,-127.8201 265.2479,-98 263.5644,-84.3255 257.2083,-78.1889 265.2479,-67 276.7776,-50.9537 322.0207,-36.9604 360.3421,-27.6263"/>
<polygon fill="#191970" stroke="#191970" points="259.4636,-190.7569 257.2618,-201.1204 265.4458,-194.392 259.4636,-190.7569"/>
</g>
<!-- Node8&#45;&gt;Node9 -->
<g id="edge9" class="edge">
<title>Node8&#45;&gt;Node9</title>
<path fill="none" stroke="#191970" d="M198.3359,-197.7275C171.6319,-187.2645 138.8201,-174.4084 113.791,-164.6017"/>
<polygon fill="#191970" stroke="#191970" points="197.2844,-201.0745 207.8721,-201.4639 199.8381,-194.5569 197.2844,-201.0745"/>
</g>
<!-- Node11 -->
<g id="node11" class="node">
<title>Node11</title>
<g id="a_node11"><a xlink:href="routeinterface_8cpp.html" target="_top" xlink:title=" ">
<polygon fill="#ffffff" stroke="#000000" points="150.7479,-134.5 150.7479,-164.5 265.7479,-164.5 265.7479,-134.5 150.7479,-134.5"/>
<text text-anchor="start" x="158.7479" y="-152.5" font-family="Helvetica,sans-Serif" font-size="10.00" fill="#000000">src/application_server</text>
<text text-anchor="middle" x="208.2479" y="-141.5" font-family="Helvetica,sans-Serif" font-size="10.00" fill="#000000">/routeinterface.cpp</text>
</a>
</g>
</g>
<!-- Node8&#45;&gt;Node11 -->
<g id="edge13" class="edge">
<title>Node8&#45;&gt;Node11</title>
<path fill="none" stroke="#191970" d="M232.6267,-192.4837C227.3611,-183.1996 221.4948,-172.8565 216.8365,-164.6432"/>
<polygon fill="#191970" stroke="#191970" points="229.6472,-194.325 237.6251,-201.2967 235.736,-190.8716 229.6472,-194.325"/>
</g>
<!-- Node9&#45;&gt;Node7 -->
<g id="edge10" class="edge">
<title>Node9&#45;&gt;Node7</title>
<path fill="none" stroke="#191970" d="M75.2479,-124.0249C75.2479,-115.128 75.2479,-105.4287 75.2479,-97.6432"/>
<polygon fill="#191970" stroke="#191970" points="71.748,-124.2966 75.2479,-134.2967 78.748,-124.2967 71.748,-124.2966"/>
</g>
<!-- Node9&#45;&gt;Node10 -->
<g id="edge11" class="edge">
<title>Node9&#45;&gt;Node10</title>
<path fill="none" stroke="#191970" d="M142.8066,-131.8874C183.6969,-121.2273 235.3012,-107.774 274.3205,-97.6017"/>
<polygon fill="#191970" stroke="#191970" points="141.7173,-128.5543 132.9237,-134.4639 143.4832,-135.3279 141.7173,-128.5543"/>
</g>
<!-- Node13 -->
<g id="node13" class="node">
<title>Node13</title>
<g id="a_node13"><a xlink:href="sidepanel_8h.html" target="_top" xlink:title=" ">
<polygon fill="#ffffff" stroke="#000000" points="693.7479,-201.5 693.7479,-231.5 808.7479,-231.5 808.7479,-201.5 693.7479,-201.5"/>
<text text-anchor="start" x="701.7479" y="-219.5" font-family="Helvetica,sans-Serif" font-size="10.00" fill="#000000">src/application_server</text>
<text text-anchor="middle" x="751.2479" y="-208.5" font-family="Helvetica,sans-Serif" font-size="10.00" fill="#000000">/sidepanel.h</text>
</a>
</g>
</g>
<!-- Node12&#45;&gt;Node13 -->
<g id="edge18" class="edge">
<title>Node12&#45;&gt;Node13</title>
<path fill="none" stroke="#191970" d="M657.1291,-263.9132C677.5122,-253.645 702.1051,-241.2561 721.0395,-231.7177"/>
<polygon fill="#191970" stroke="#191970" points="655.4518,-260.8391 648.0957,-268.4639 658.6011,-267.0906 655.4518,-260.8391"/>
</g>
<!-- Node15 -->
<g id="node15" class="node">
<title>Node15</title>
<g id="a_node15"><a xlink:href="minimap_8cpp.html" target="_top" xlink:title=" ">
<polygon fill="#ffffff" stroke="#000000" points="560.7479,-201.5 560.7479,-231.5 675.7479,-231.5 675.7479,-201.5 560.7479,-201.5"/>
<text text-anchor="start" x="568.7479" y="-219.5" font-family="Helvetica,sans-Serif" font-size="10.00" fill="#000000">src/application_server</text>
<text text-anchor="middle" x="618.2479" y="-208.5" font-family="Helvetica,sans-Serif" font-size="10.00" fill="#000000">/minimap.cpp</text>
</a>
</g>
</g>
<!-- Node12&#45;&gt;Node15 -->
<g id="edge21" class="edge">
<title>Node12&#45;&gt;Node15</title>
<path fill="none" stroke="#191970" d="M618.2479,-258.0249C618.2479,-249.128 618.2479,-239.4287 618.2479,-231.6432"/>
<polygon fill="#191970" stroke="#191970" points="614.748,-258.2966 618.2479,-268.2967 621.748,-258.2967 614.748,-258.2966"/>
</g>
<!-- Node13&#45;&gt;Node6 -->
<g id="edge19" class="edge">
<title>Node13&#45;&gt;Node6</title>
<path fill="none" stroke="#191970" d="M723.841,-195.1462C672.3019,-155.038 565.2849,-72.0032 556.2479,-67 528.8417,-51.8269 496.0652,-39.3826 469.3334,-30.5298"/>
<polygon fill="#191970" stroke="#191970" points="721.8654,-198.0437 731.9063,-201.4247 726.1653,-192.5201 721.8654,-198.0437"/>
</g>
<!-- Node14 -->
<g id="node14" class="node">
<title>Node14</title>
<g id="a_node14"><a xlink:href="sidepanel_8cpp.html" target="_top" xlink:title=" ">
<polygon fill="#ffffff" stroke="#000000" points="693.7479,-134.5 693.7479,-164.5 808.7479,-164.5 808.7479,-134.5 693.7479,-134.5"/>
<text text-anchor="start" x="701.7479" y="-152.5" font-family="Helvetica,sans-Serif" font-size="10.00" fill="#000000">src/application_server</text>
<text text-anchor="middle" x="751.2479" y="-141.5" font-family="Helvetica,sans-Serif" font-size="10.00" fill="#000000">/sidepanel.cpp</text>
</a>
</g>
</g>
<!-- Node13&#45;&gt;Node14 -->
<g id="edge20" class="edge">
<title>Node13&#45;&gt;Node14</title>
<path fill="none" stroke="#191970" d="M751.2479,-191.0249C751.2479,-182.128 751.2479,-172.4287 751.2479,-164.6432"/>
<polygon fill="#191970" stroke="#191970" points="747.748,-191.2966 751.2479,-201.2967 754.748,-191.2967 747.748,-191.2966"/>
</g>
</g>
</svg>
