<?xml version="1.0" encoding="UTF-8" standalone="no"?>
<!DOCTYPE svg PUBLIC "-//W3C//DTD SVG 1.1//EN"
 "http://www.w3.org/Graphics/SVG/1.1/DTD/svg11.dtd">
<!-- Generated by graphviz version 2.40.1 (20161225.0304)
 -->
<!-- Title: src/application_server/maptile.h Pages: 1 -->
<svg width="346pt" height="151pt"
 viewBox="0.00 0.00 346.00 151.00" xmlns="http://www.w3.org/2000/svg" xmlns:xlink="http://www.w3.org/1999/xlink">
<g id="graph0" class="graph" transform="scale(1 1) rotate(0) translate(4 147)">
<title>src/application_server/maptile.h</title>
<polygon fill="#ffffff" stroke="transparent" points="-4,4 -4,-147 342,-147 342,4 -4,4"/>
<!-- Node1 -->
<g id="node1" class="node">
<title>Node1</title>
<g id="a_node1"><a xlink:title=" ">
<polygon fill="#bfbfbf" stroke="#000000" points="97,-112.5 97,-142.5 212,-142.5 212,-112.5 97,-112.5"/>
<text text-anchor="start" x="105" y="-130.5" font-family="Helvetica,sans-Serif" font-size="10.00" fill="#000000">src/application_server</text>
<text text-anchor="middle" x="154.5" y="-119.5" font-family="Helvetica,sans-Serif" font-size="10.00" fill="#000000">/maptile.h</text>
</a>
</g>
</g>
<!-- Node2 -->
<g id="node2" class="node">
<title>Node2</title>
<g id="a_node2"><a xlink:title=" ">
<polygon fill="#ffffff" stroke="#bfbfbf" points="0,-56.5 0,-75.5 117,-75.5 117,-56.5 0,-56.5"/>
<text text-anchor="middle" x="58.5" y="-63.5" font-family="Helvetica,sans-Serif" font-size="10.00" fill="#000000">QGraphicsPixmapItem</text>
</a>
</g>
</g>
<!-- Node1&#45;&gt;Node2 -->
<g id="edge1" class="edge">
<title>Node1&#45;&gt;Node2</title>
<path fill="none" stroke="#191970" d="M130.7697,-112.2977C115.9638,-102.8127 96.9772,-90.6495 82.1807,-81.1705"/>
<polygon fill="#191970" stroke="#191970" points="83.8925,-78.1105 73.5841,-75.6633 80.1165,-84.0047 83.8925,-78.1105"/>
</g>
<!-- Node3 -->
<g id="node3" class="node">
<title>Node3</title>
<g id="a_node3"><a xlink:href="city_8h.html" target="_top" xlink:title=" ">
<polygon fill="#ffffff" stroke="#000000" points="135,-56.5 135,-75.5 174,-75.5 174,-56.5 135,-56.5"/>
<text text-anchor="middle" x="154.5" y="-63.5" font-family="Helvetica,sans-Serif" font-size="10.00" fill="#000000">city.h</text>
</a>
</g>
</g>
<!-- Node1&#45;&gt;Node3 -->
<g id="edge2" class="edge">
<title>Node1&#45;&gt;Node3</title>
<path fill="none" stroke="#191970" d="M154.5,-112.2977C154.5,-104.3834 154.5,-94.6043 154.5,-86.0759"/>
<polygon fill="#191970" stroke="#191970" points="158.0001,-85.8469 154.5,-75.8469 151.0001,-85.847 158.0001,-85.8469"/>
</g>
<!-- Node5 -->
<g id="node5" class="node">
<title>Node5</title>
<g id="a_node5"><a xlink:href="graphicsmanager_8h.html" target="_top" xlink:title=" ">
<polygon fill="#ffffff" stroke="#000000" points="192,-56.5 192,-75.5 295,-75.5 295,-56.5 192,-56.5"/>
<text text-anchor="middle" x="243.5" y="-63.5" font-family="Helvetica,sans-Serif" font-size="10.00" fill="#000000">graphicsmanager.h</text>
</a>
</g>
</g>
<!-- Node1&#45;&gt;Node5 -->
<g id="edge4" class="edge">
<title>Node1&#45;&gt;Node5</title>
<path fill="none" stroke="#191970" d="M176.5,-112.2977C190.0968,-102.9022 207.4966,-90.8787 221.1567,-81.4395"/>
<polygon fill="#191970" stroke="#191970" points="223.2785,-84.2276 229.5158,-75.6633 219.2991,-78.4688 223.2785,-84.2276"/>
</g>
<!-- Node4 -->
<g id="node4" class="node">
<title>Node4</title>
<g id="a_node4"><a xlink:title=" ">
<polygon fill="#ffffff" stroke="#bfbfbf" points="144,-.5 144,-19.5 185,-19.5 185,-.5 144,-.5"/>
<text text-anchor="middle" x="164.5" y="-7.5" font-family="Helvetica,sans-Serif" font-size="10.00" fill="#000000">string</text>
</a>
</g>
</g>
<!-- Node3&#45;&gt;Node4 -->
<g id="edge3" class="edge">
<title>Node3&#45;&gt;Node4</title>
<path fill="none" stroke="#191970" d="M156.2419,-56.2455C157.5467,-48.9382 159.376,-38.6944 160.9813,-29.7046"/>
<polygon fill="#191970" stroke="#191970" points="164.4656,-30.1022 162.7781,-19.6427 157.5746,-28.8717 164.4656,-30.1022"/>
</g>
<!-- Node5&#45;&gt;Node4 -->
<g id="edge7" class="edge">
<title>Node5&#45;&gt;Node4</title>
<path fill="none" stroke="#191970" d="M229.7393,-56.2455C217.8448,-47.814 200.435,-35.4729 186.5915,-25.6598"/>
<polygon fill="#191970" stroke="#191970" points="188.2854,-22.5704 178.1031,-19.6427 184.2372,-28.2811 188.2854,-22.5704"/>
</g>
<!-- Node6 -->
<g id="node6" class="node">
<title>Node6</title>
<g id="a_node6"><a xlink:title=" ">
<polygon fill="#ffffff" stroke="#bfbfbf" points="208.5,-.5 208.5,-19.5 266.5,-19.5 266.5,-.5 208.5,-.5"/>
<text text-anchor="middle" x="237.5" y="-7.5" font-family="Helvetica,sans-Serif" font-size="10.00" fill="#000000">QPixmap</text>
</a>
</g>
</g>
<!-- Node5&#45;&gt;Node6 -->
<g id="edge5" class="edge">
<title>Node5&#45;&gt;Node6</title>
<path fill="none" stroke="#191970" d="M242.4549,-56.2455C241.672,-48.9382 240.5744,-38.6944 239.6112,-29.7046"/>
<polygon fill="#191970" stroke="#191970" points="243.0786,-29.2129 238.5331,-19.6427 236.1185,-29.9587 243.0786,-29.2129"/>
</g>
<!-- Node7 -->
<g id="node7" class="node">
<title>Node7</title>
<g id="a_node7"><a xlink:title=" ">
<polygon fill="#ffffff" stroke="#bfbfbf" points="285,-.5 285,-19.5 338,-19.5 338,-.5 285,-.5"/>
<text text-anchor="middle" x="311.5" y="-7.5" font-family="Helvetica,sans-Serif" font-size="10.00" fill="#000000">QImage</text>
</a>
</g>
</g>
<!-- Node5&#45;&gt;Node7 -->
<g id="edge6" class="edge">
<title>Node5&#45;&gt;Node7</title>
<path fill="none" stroke="#191970" d="M255.3447,-56.2455C265.388,-47.9746 279.9995,-35.9416 291.8004,-26.2232"/>
<polygon fill="#191970" stroke="#191970" points="294.2967,-28.7015 299.791,-19.6427 289.8467,-23.298 294.2967,-28.7015"/>
</g>
</g>
</svg>
