<?xml version="1.0" encoding="UTF-8" standalone="no"?>
<!DOCTYPE svg PUBLIC "-//W3C//DTD SVG 1.1//EN"
 "http://www.w3.org/Graphics/SVG/1.1/DTD/svg11.dtd">
<!-- Generated by graphviz version 2.40.1 (20161225.0304)
 -->
<!-- Title: src/application_server/menubar.h Pages: 1 -->
<!--zoomable 375 -->
<svg id="main" version="1.1" xmlns="http://www.w3.org/2000/svg" xmlns:xlink="http://www.w3.org/1999/xlink" xml:space="preserve" onload="init(evt)">
<style type="text/css"><![CDATA[
.edge:hover path { stroke: red; }
.edge:hover polygon { stroke: red; fill: red; }
]]></style>
<script type="text/javascript"><![CDATA[
var edges = document.getElementsByTagName('g');
if (edges && edges.length) {
  for (var i=0;i<edges.length;i++) {
    if (edges[i].id.substr(0,4)=='edge') {
      edges[i].setAttribute('class','edge');
    }
  }
}
]]></script>
        <defs>
                <circle id="rim" cx="0" cy="0" r="7"/>
                <circle id="rim2" cx="0" cy="0" r="3.5"/>
                <g id="zoomPlus">
                        <use xlink:href="#rim" fill="#404040">
                                <set attributeName="fill" to="#808080" begin="zoomplus.mouseover" end="zoomplus.mouseout"/>
                        </use>
                        <path d="M-4,0h8M0,-4v8" fill="none" stroke="white" stroke-width="1.5" pointer-events="none"/>
                </g>
                <g id="zoomMin">
                        <use xlink:href="#rim" fill="#404040">
                                <set attributeName="fill" to="#808080" begin="zoomminus.mouseover" end="zoomminus.mouseout"/>
                        </use>
                        <path d="M-4,0h8" fill="none" stroke="white" stroke-width="1.5" pointer-events="none"/>
                </g>
                <g id="dirArrow">
                        <path fill="none" stroke="white" stroke-width="1.5" d="M0,-3.0v7 M-2.5,-0.5L0,-3.0L2.5,-0.5"/>
                </g>
               <g id="resetDef">
                       <use xlink:href="#rim2" fill="#404040">
                               <set attributeName="fill" to="#808080" begin="reset.mouseover" end="reset.mouseout"/>
                       </use>
               </g>
        </defs>

<script type="text/javascript">
var viewWidth = 1017;
var viewHeight = 375;
var sectionId = 'dynsection-0';
</script>
<script xlink:href="svgpan.js"/>
<svg id="graph" class="graph">
<g id="viewport">
<title>src/application_server/menubar.h</title>
<polygon fill="#ffffff" stroke="transparent" points="-4,4 -4,-371 1012.5,-371 1012.5,4 -4,4"/>
<!-- Node1 -->
<g id="node1" class="node">
<title>Node1</title>
<g id="a_node1"><a xlink:title=" ">
<polygon fill="#bfbfbf" stroke="#000000" points="491,-336.5 491,-366.5 606,-366.5 606,-336.5 491,-336.5"/>
<text text-anchor="start" x="499" y="-354.5" font-family="Helvetica,sans-Serif" font-size="10.00" fill="#000000">src/application_server</text>
<text text-anchor="middle" x="548.5" y="-343.5" font-family="Helvetica,sans-Serif" font-size="10.00" fill="#000000">/menubar.h</text>
</a>
</g>
</g>
<!-- Node2 -->
<g id="node2" class="node">
<title>Node2</title>
<g id="a_node2"><a xlink:title=" ">
<polygon fill="#ffffff" stroke="#bfbfbf" points="366.5,-280.5 366.5,-299.5 428.5,-299.5 428.5,-280.5 366.5,-280.5"/>
<text text-anchor="middle" x="397.5" y="-287.5" font-family="Helvetica,sans-Serif" font-size="10.00" fill="#000000">QToolBar</text>
</a>
</g>
</g>
<!-- Node1&#45;&gt;Node2 -->
<g id="edge1" class="edge">
<title>Node1&#45;&gt;Node2</title>
<path fill="none" stroke="#191970" d="M511.5612,-336.4554C486.698,-326.329 454.2082,-313.0964 430.2664,-303.3453"/>
<polygon fill="#191970" stroke="#191970" points="431.4812,-300.0609 420.8996,-299.5303 428.8407,-306.5438 431.4812,-300.0609"/>
</g>
<!-- Node3 -->
<g id="node3" class="node">
<title>Node3</title>
<g id="a_node3"><a xlink:title=" ">
<polygon fill="#ffffff" stroke="#bfbfbf" points="446.5,-280.5 446.5,-299.5 520.5,-299.5 520.5,-280.5 446.5,-280.5"/>
<text text-anchor="middle" x="483.5" y="-287.5" font-family="Helvetica,sans-Serif" font-size="10.00" fill="#000000">QInputDialog</text>
</a>
</g>
</g>
<!-- Node1&#45;&gt;Node3 -->
<g id="edge2" class="edge">
<title>Node1&#45;&gt;Node3</title>
<path fill="none" stroke="#191970" d="M532.4326,-336.2977C523.034,-327.4052 511.1473,-316.1586 501.443,-306.9769"/>
<polygon fill="#191970" stroke="#191970" points="503.5768,-304.1774 493.9073,-299.8469 498.7658,-309.2621 503.5768,-304.1774"/>
</g>
<!-- Node4 -->
<g id="node4" class="node">
<title>Node4</title>
<g id="a_node4"><a xlink:href="scene_8h.html" target="_top" xlink:title=" ">
<polygon fill="#ffffff" stroke="#000000" points="386.5,-224.5 386.5,-243.5 438.5,-243.5 438.5,-224.5 386.5,-224.5"/>
<text text-anchor="middle" x="412.5" y="-231.5" font-family="Helvetica,sans-Serif" font-size="10.00" fill="#000000">scene.h</text>
</a>
</g>
</g>
<!-- Node1&#45;&gt;Node4 -->
<g id="edge3" class="edge">
<title>Node1&#45;&gt;Node4</title>
<path fill="none" stroke="#191970" d="M548.3144,-336.2355C547.3235,-320.3424 543.4296,-295.6291 529.5,-280 508.7313,-256.6973 474.6525,-245.0746 448.617,-239.3543"/>
<polygon fill="#191970" stroke="#191970" points="449.2163,-235.9049 438.724,-237.3748 447.8429,-242.7689 449.2163,-235.9049"/>
</g>
<!-- Node20 -->
<g id="node20" class="node">
<title>Node20</title>
<g id="a_node20"><a xlink:href="datamodel_8h.html" target="_top" xlink:title=" ">
<polygon fill="#ffffff" stroke="#000000" points="694,-168.5 694,-187.5 767,-187.5 767,-168.5 694,-168.5"/>
<text text-anchor="middle" x="730.5" y="-175.5" font-family="Helvetica,sans-Serif" font-size="10.00" fill="#000000">datamodel.h</text>
</a>
</g>
</g>
<!-- Node1&#45;&gt;Node20 -->
<g id="edge36" class="edge">
<title>Node1&#45;&gt;Node20</title>
<path fill="none" stroke="#191970" d="M551.4255,-336.3061C557.2764,-309.8859 572.8567,-255.3139 606.5,-224 618.5192,-212.813 655.8117,-199.7683 686.3867,-190.4333"/>
<polygon fill="#191970" stroke="#191970" points="687.4636,-193.7644 696.0371,-187.5399 685.4532,-187.0593 687.4636,-193.7644"/>
</g>
<!-- Node28 -->
<g id="node28" class="node">
<title>Node28</title>
<g id="a_node28"><a xlink:href="view_8h.html" target="_top" xlink:title=" ">
<polygon fill="#ffffff" stroke="#000000" points="636,-280.5 636,-299.5 681,-299.5 681,-280.5 636,-280.5"/>
<text text-anchor="middle" x="658.5" y="-287.5" font-family="Helvetica,sans-Serif" font-size="10.00" fill="#000000">view.h</text>
</a>
</g>
</g>
<!-- Node1&#45;&gt;Node28 -->
<g id="edge37" class="edge">
<title>Node1&#45;&gt;Node28</title>
<path fill="none" stroke="#191970" d="M575.409,-336.4554C592.7968,-326.734 615.3049,-314.15 632.5084,-304.5317"/>
<polygon fill="#191970" stroke="#191970" points="634.4335,-307.4653 641.4539,-299.5303 631.0174,-301.3554 634.4335,-307.4653"/>
</g>
<!-- Node5 -->
<g id="node5" class="node">
<title>Node5</title>
<g id="a_node5"><a xlink:title=" ">
<polygon fill="#ffffff" stroke="#bfbfbf" points="459.5,-168.5 459.5,-187.5 553.5,-187.5 553.5,-168.5 459.5,-168.5"/>
<text text-anchor="middle" x="506.5" y="-175.5" font-family="Helvetica,sans-Serif" font-size="10.00" fill="#000000">QGraphicsScene</text>
</a>
</g>
</g>
<!-- Node4&#45;&gt;Node5 -->
<g id="edge4" class="edge">
<title>Node4&#45;&gt;Node5</title>
<path fill="none" stroke="#191970" d="M428.8736,-224.2455C443.4308,-215.5731 464.931,-202.7645 481.6152,-192.825"/>
<polygon fill="#191970" stroke="#191970" points="483.5144,-195.7676 490.3141,-187.6427 479.9317,-189.7539 483.5144,-195.7676"/>
</g>
<!-- Node6 -->
<g id="node6" class="node">
<title>Node6</title>
<g id="a_node6"><a xlink:title=" ">
<polygon fill="#ffffff" stroke="#bfbfbf" points="571.5,-168.5 571.5,-187.5 675.5,-187.5 675.5,-168.5 571.5,-168.5"/>
<text text-anchor="middle" x="623.5" y="-175.5" font-family="Helvetica,sans-Serif" font-size="10.00" fill="#000000">QGraphicsTextItem</text>
</a>
</g>
</g>
<!-- Node4&#45;&gt;Node6 -->
<g id="edge5" class="edge">
<title>Node4&#45;&gt;Node6</title>
<path fill="none" stroke="#191970" d="M438.7967,-227.0208C473.5698,-217.7919 535.3962,-201.383 577.8699,-190.1104"/>
<polygon fill="#191970" stroke="#191970" points="578.9205,-193.4528 587.6881,-187.5046 577.1248,-186.687 578.9205,-193.4528"/>
</g>
<!-- Node7 -->
<g id="node7" class="node">
<title>Node7</title>
<g id="a_node7"><a xlink:title=" ">
<polygon fill="#ffffff" stroke="#bfbfbf" points="0,-168.5 0,-187.5 83,-187.5 83,-168.5 0,-168.5"/>
<text text-anchor="middle" x="41.5" y="-175.5" font-family="Helvetica,sans-Serif" font-size="10.00" fill="#000000">QGraphicsItem</text>
</a>
</g>
</g>
<!-- Node4&#45;&gt;Node7 -->
<g id="edge6" class="edge">
<title>Node4&#45;&gt;Node7</title>
<path fill="none" stroke="#191970" d="M386.3215,-230.4631C332.2687,-223.0971 204.4259,-205.3498 97.5,-188 96.0377,-187.7627 94.5545,-187.5189 93.0579,-187.2702"/>
<polygon fill="#191970" stroke="#191970" points="93.5097,-183.7969 83.0648,-185.5735 92.3378,-190.6981 93.5097,-183.7969"/>
</g>
<!-- Node8 -->
<g id="node8" class="node">
<title>Node8</title>
<g id="a_node8"><a xlink:title=" ">
<polygon fill="#ffffff" stroke="#bfbfbf" points="184.5,-.5 184.5,-19.5 288.5,-19.5 288.5,-.5 184.5,-.5"/>
<text text-anchor="middle" x="236.5" y="-7.5" font-family="Helvetica,sans-Serif" font-size="10.00" fill="#000000">QGraphicsRectItem</text>
</a>
</g>
</g>
<!-- Node4&#45;&gt;Node8 -->
<g id="edge7" class="edge">
<title>Node4&#45;&gt;Node8</title>
<path fill="none" stroke="#191970" d="M386.3234,-231.6487C319.5646,-225.3892 147.0464,-207.4642 130.5,-188 107.1675,-160.5531 59.0403,-187.3004 156.5,-56 167.0963,-41.7243 183.538,-31.1816 198.7665,-23.8179"/>
<polygon fill="#191970" stroke="#191970" points="200.3529,-26.9419 208.0285,-19.6388 197.4739,-20.5614 200.3529,-26.9419"/>
</g>
<!-- Node9 -->
<g id="node9" class="node">
<title>Node9</title>
<g id="a_node9"><a xlink:title=" ">
<polygon fill="#ffffff" stroke="#bfbfbf" points="140,-168.5 140,-187.5 253,-187.5 253,-168.5 140,-168.5"/>
<text text-anchor="middle" x="196.5" y="-175.5" font-family="Helvetica,sans-Serif" font-size="10.00" fill="#000000">QGraphicsEllipseItem</text>
</a>
</g>
</g>
<!-- Node4&#45;&gt;Node9 -->
<g id="edge8" class="edge">
<title>Node4&#45;&gt;Node9</title>
<path fill="none" stroke="#191970" d="M386.4454,-227.2451C351.0523,-218.0691 287.1756,-201.5085 243.3446,-190.1449"/>
<polygon fill="#191970" stroke="#191970" points="244.0481,-186.7116 233.4898,-187.5899 242.2913,-193.4876 244.0481,-186.7116"/>
</g>
<!-- Node10 -->
<g id="node10" class="node">
<title>Node10</title>
<g id="a_node10"><a xlink:href="maptile_8h.html" target="_top" xlink:title=" ">
<polygon fill="#ffffff" stroke="#000000" points="271.5,-168.5 271.5,-187.5 327.5,-187.5 327.5,-168.5 271.5,-168.5"/>
<text text-anchor="middle" x="299.5" y="-175.5" font-family="Helvetica,sans-Serif" font-size="10.00" fill="#000000">maptile.h</text>
</a>
</g>
</g>
<!-- Node4&#45;&gt;Node10 -->
<g id="edge9" class="edge">
<title>Node4&#45;&gt;Node10</title>
<path fill="none" stroke="#191970" d="M393.0746,-224.3733C375.0979,-215.4644 348.1559,-202.1127 327.791,-192.0203"/>
<polygon fill="#191970" stroke="#191970" points="329.1861,-188.8055 318.6719,-187.5011 326.0778,-195.0776 329.1861,-188.8055"/>
</g>
<!-- Node15 -->
<g id="node15" class="node">
<title>Node15</title>
<g id="a_node15"><a xlink:href="graphicsmanager_8h.html" target="_top" xlink:title=" ">
<polygon fill="#ffffff" stroke="#000000" points="262,-112.5 262,-131.5 365,-131.5 365,-112.5 262,-112.5"/>
<text text-anchor="middle" x="313.5" y="-119.5" font-family="Helvetica,sans-Serif" font-size="10.00" fill="#000000">graphicsmanager.h</text>
</a>
</g>
</g>
<!-- Node4&#45;&gt;Node15 -->
<g id="edge18" class="edge">
<title>Node4&#45;&gt;Node15</title>
<path fill="none" stroke="#191970" d="M404.0593,-224.4509C387.3281,-205.5227 349.7535,-163.014 328.6398,-139.1279"/>
<polygon fill="#191970" stroke="#191970" points="331.1646,-136.6994 321.9193,-131.5249 325.9198,-141.3354 331.1646,-136.6994"/>
</g>
<!-- Node18 -->
<g id="node18" class="node">
<title>Node18</title>
<g id="a_node18"><a xlink:href="player_8h.html" target="_top" xlink:title=" ">
<polygon fill="#ffffff" stroke="#000000" points="456.5,-112.5 456.5,-131.5 508.5,-131.5 508.5,-112.5 456.5,-112.5"/>
<text text-anchor="middle" x="482.5" y="-119.5" font-family="Helvetica,sans-Serif" font-size="10.00" fill="#000000">player.h</text>
</a>
</g>
</g>
<!-- Node4&#45;&gt;Node18 -->
<g id="edge19" class="edge">
<title>Node4&#45;&gt;Node18</title>
<path fill="none" stroke="#191970" d="M417.6627,-224.45C424.7507,-211.4782 438.0386,-187.6526 450.5,-168 456.4682,-158.5876 463.5033,-148.3873 469.4551,-139.9892"/>
<polygon fill="#191970" stroke="#191970" points="472.4099,-141.8745 475.3865,-131.7064 466.7186,-137.7989 472.4099,-141.8745"/>
</g>
<!-- Node19 -->
<g id="node19" class="node">
<title>Node19</title>
<g id="a_node19"><a xlink:href="highlighter_8h.html" target="_top" xlink:title=" ">
<polygon fill="#ffffff" stroke="#000000" points="447.5,-56.5 447.5,-75.5 517.5,-75.5 517.5,-56.5 447.5,-56.5"/>
<text text-anchor="middle" x="482.5" y="-63.5" font-family="Helvetica,sans-Serif" font-size="10.00" fill="#000000">highlighter.h</text>
</a>
</g>
</g>
<!-- Node4&#45;&gt;Node19 -->
<g id="edge22" class="edge">
<title>Node4&#45;&gt;Node19</title>
<path fill="none" stroke="#191970" d="M414.0089,-224.3781C417.5963,-203.1744 427.8407,-151.1956 447.5,-112 452.6422,-101.7477 460.1696,-91.4806 466.9272,-83.2556"/>
<polygon fill="#191970" stroke="#191970" points="469.7138,-85.3824 473.5584,-75.5097 464.3963,-80.83 469.7138,-85.3824"/>
</g>
<!-- Node4&#45;&gt;Node20 -->
<g id="edge23" class="edge">
<title>Node4&#45;&gt;Node20</title>
<path fill="none" stroke="#191970" d="M438.8308,-229.9644C485.865,-222.6661 587.6303,-206.4704 683.9691,-188.0307"/>
<polygon fill="#191970" stroke="#191970" points="684.7157,-191.4513 693.8733,-186.1232 683.3918,-184.5776 684.7157,-191.4513"/>
</g>
<!-- Node11 -->
<g id="node11" class="node">
<title>Node11</title>
<g id="a_node11"><a xlink:title=" ">
<polygon fill="#ffffff" stroke="#bfbfbf" points="431,-.5 431,-19.5 548,-19.5 548,-.5 431,-.5"/>
<text text-anchor="middle" x="489.5" y="-7.5" font-family="Helvetica,sans-Serif" font-size="10.00" fill="#000000">QGraphicsPixmapItem</text>
</a>
</g>
</g>
<!-- Node10&#45;&gt;Node11 -->
<g id="edge10" class="edge">
<title>Node10&#45;&gt;Node11</title>
<path fill="none" stroke="#191970" d="M272.3468,-168.4805C245.5265,-158.6489 206.9105,-143.2043 195.5,-132 170.0274,-106.9877 146.1213,-82.9797 169.5,-56 185.7138,-37.2888 331.6006,-22.5178 420.7017,-15.1446"/>
<polygon fill="#191970" stroke="#191970" points="421.0576,-18.6273 430.7397,-14.3253 420.4881,-11.6505 421.0576,-18.6273"/>
</g>
<!-- Node12 -->
<g id="node12" class="node">
<title>Node12</title>
<g id="a_node12"><a xlink:href="city_8h.html" target="_top" xlink:title=" ">
<polygon fill="#ffffff" stroke="#000000" points="205,-112.5 205,-131.5 244,-131.5 244,-112.5 205,-112.5"/>
<text text-anchor="middle" x="224.5" y="-119.5" font-family="Helvetica,sans-Serif" font-size="10.00" fill="#000000">city.h</text>
</a>
</g>
</g>
<!-- Node10&#45;&gt;Node12 -->
<g id="edge11" class="edge">
<title>Node10&#45;&gt;Node12</title>
<path fill="none" stroke="#191970" d="M286.436,-168.2455C275.1438,-159.814 258.6155,-147.4729 245.4729,-137.6598"/>
<polygon fill="#191970" stroke="#191970" points="247.5211,-134.8211 237.4143,-131.6427 243.3331,-140.4301 247.5211,-134.8211"/>
</g>
<!-- Node10&#45;&gt;Node15 -->
<g id="edge14" class="edge">
<title>Node10&#45;&gt;Node15</title>
<path fill="none" stroke="#191970" d="M301.9386,-168.2455C303.7855,-160.8579 306.3828,-150.4689 308.6478,-141.4087"/>
<polygon fill="#191970" stroke="#191970" points="312.0594,-142.193 311.0893,-131.6427 305.2684,-140.4952 312.0594,-142.193"/>
</g>
<!-- Node13 -->
<g id="node13" class="node">
<title>Node13</title>
<g id="a_node13"><a xlink:title=" ">
<polygon fill="#ffffff" stroke="#bfbfbf" points="312,-56.5 312,-75.5 353,-75.5 353,-56.5 312,-56.5"/>
<text text-anchor="middle" x="332.5" y="-63.5" font-family="Helvetica,sans-Serif" font-size="10.00" fill="#000000">string</text>
</a>
</g>
</g>
<!-- Node12&#45;&gt;Node13 -->
<g id="edge12" class="edge">
<title>Node12&#45;&gt;Node13</title>
<path fill="none" stroke="#191970" d="M243.3122,-112.2455C260.3473,-103.4125 285.6575,-90.2887 304.9681,-80.2758"/>
<polygon fill="#191970" stroke="#191970" points="306.637,-83.353 313.9034,-75.6427 303.4147,-77.1388 306.637,-83.353"/>
</g>
<!-- Node14 -->
<g id="node14" class="node">
<title>Node14</title>
<g id="a_node14"><a xlink:title=" ">
<polygon fill="#ffffff" stroke="#bfbfbf" points="178.5,-56.5 178.5,-75.5 222.5,-75.5 222.5,-56.5 178.5,-56.5"/>
<text text-anchor="middle" x="200.5" y="-63.5" font-family="Helvetica,sans-Serif" font-size="10.00" fill="#000000">vector</text>
</a>
</g>
</g>
<!-- Node12&#45;&gt;Node14 -->
<g id="edge13" class="edge">
<title>Node12&#45;&gt;Node14</title>
<path fill="none" stroke="#191970" d="M220.3195,-112.2455C217.119,-104.7776 212.604,-94.2427 208.6916,-85.1137"/>
<polygon fill="#191970" stroke="#191970" points="211.7888,-83.4554 204.6326,-75.6427 205.3548,-86.2129 211.7888,-83.4554"/>
</g>
<!-- Node15&#45;&gt;Node13 -->
<g id="edge17" class="edge">
<title>Node15&#45;&gt;Node13</title>
<path fill="none" stroke="#191970" d="M316.8095,-112.2455C319.3433,-104.7776 322.9177,-94.2427 326.015,-85.1137"/>
<polygon fill="#191970" stroke="#191970" points="329.3298,-86.237 329.2284,-75.6427 322.7009,-83.9879 329.3298,-86.237"/>
</g>
<!-- Node16 -->
<g id="node16" class="node">
<title>Node16</title>
<g id="a_node16"><a xlink:title=" ">
<polygon fill="#ffffff" stroke="#bfbfbf" points="371.5,-56.5 371.5,-75.5 429.5,-75.5 429.5,-56.5 371.5,-56.5"/>
<text text-anchor="middle" x="400.5" y="-63.5" font-family="Helvetica,sans-Serif" font-size="10.00" fill="#000000">QPixmap</text>
</a>
</g>
</g>
<!-- Node15&#45;&gt;Node16 -->
<g id="edge15" class="edge">
<title>Node15&#45;&gt;Node16</title>
<path fill="none" stroke="#191970" d="M328.6542,-112.2455C342.0027,-103.6534 361.6586,-91.0014 377.0383,-81.1018"/>
<polygon fill="#191970" stroke="#191970" points="379.0051,-83.9982 385.5194,-75.6427 375.2164,-78.1121 379.0051,-83.9982"/>
</g>
<!-- Node17 -->
<g id="node17" class="node">
<title>Node17</title>
<g id="a_node17"><a xlink:title=" ">
<polygon fill="#ffffff" stroke="#bfbfbf" points="241,-56.5 241,-75.5 294,-75.5 294,-56.5 241,-56.5"/>
<text text-anchor="middle" x="267.5" y="-63.5" font-family="Helvetica,sans-Serif" font-size="10.00" fill="#000000">QImage</text>
</a>
</g>
</g>
<!-- Node15&#45;&gt;Node17 -->
<g id="edge16" class="edge">
<title>Node15&#45;&gt;Node17</title>
<path fill="none" stroke="#191970" d="M305.4874,-112.2455C299.0232,-104.3761 289.7615,-93.101 282.0017,-83.6542"/>
<polygon fill="#191970" stroke="#191970" points="284.4727,-81.1484 275.4208,-75.6427 279.0636,-85.5916 284.4727,-81.1484"/>
</g>
<!-- Node18&#45;&gt;Node19 -->
<g id="edge20" class="edge">
<title>Node18&#45;&gt;Node19</title>
<path fill="none" stroke="#191970" d="M482.5,-112.2455C482.5,-104.9382 482.5,-94.6944 482.5,-85.7046"/>
<polygon fill="#191970" stroke="#191970" points="486.0001,-85.6426 482.5,-75.6427 479.0001,-85.6427 486.0001,-85.6426"/>
</g>
<!-- Node19&#45;&gt;Node8 -->
<g id="edge21" class="edge">
<title>Node19&#45;&gt;Node8</title>
<path fill="none" stroke="#191970" d="M447.2542,-57.9766C405.5796,-48.4897 335.8607,-32.6187 288.1046,-21.7474"/>
<polygon fill="#191970" stroke="#191970" points="288.7928,-18.3146 278.2654,-19.5076 287.239,-25.14 288.7928,-18.3146"/>
</g>
<!-- Node20&#45;&gt;Node13 -->
<g id="edge24" class="edge">
<title>Node20&#45;&gt;Node13</title>
<path fill="none" stroke="#191970" d="M693.8374,-168.6781C660.7984,-160.0205 611.0264,-146.3385 568.5,-132 545.4288,-124.2211 540.7529,-119.2177 517.5,-112 452.8587,-91.9354 432.3208,-94.8914 362.7535,-75.8438"/>
<polygon fill="#191970" stroke="#191970" points="363.6512,-72.4606 353.0782,-73.141 361.7678,-79.2025 363.6512,-72.4606"/>
</g>
<!-- Node20&#45;&gt;Node18 -->
<g id="edge27" class="edge">
<title>Node20&#45;&gt;Node18</title>
<path fill="none" stroke="#191970" d="M693.9067,-169.737C646.8077,-159.1017 565.4778,-140.7369 518.6129,-130.1545"/>
<polygon fill="#191970" stroke="#191970" points="519.1262,-126.6824 508.6008,-127.8937 517.5843,-133.5105 519.1262,-126.6824"/>
</g>
<!-- Node21 -->
<g id="node21" class="node">
<title>Node21</title>
<g id="a_node21"><a xlink:title=" ">
<polygon fill="#ffffff" stroke="#bfbfbf" points="705,-112.5 705,-131.5 754,-131.5 754,-112.5 705,-112.5"/>
<text text-anchor="middle" x="729.5" y="-119.5" font-family="Helvetica,sans-Serif" font-size="10.00" fill="#000000">QLabel</text>
</a>
</g>
</g>
<!-- Node20&#45;&gt;Node21 -->
<g id="edge25" class="edge">
<title>Node20&#45;&gt;Node21</title>
<path fill="none" stroke="#191970" d="M730.3258,-168.2455C730.1953,-160.9382 730.0124,-150.6944 729.8519,-141.7046"/>
<polygon fill="#191970" stroke="#191970" points="733.3503,-141.5786 729.6722,-131.6427 726.3514,-141.7036 733.3503,-141.5786"/>
</g>
<!-- Node22 -->
<g id="node22" class="node">
<title>Node22</title>
<g id="a_node22"><a xlink:title=" ">
<polygon fill="#ffffff" stroke="#bfbfbf" points="772.5,-112.5 772.5,-131.5 828.5,-131.5 828.5,-112.5 772.5,-112.5"/>
<text text-anchor="middle" x="800.5" y="-119.5" font-family="Helvetica,sans-Serif" font-size="10.00" fill="#000000">QWidget</text>
</a>
</g>
</g>
<!-- Node20&#45;&gt;Node22 -->
<g id="edge26" class="edge">
<title>Node20&#45;&gt;Node22</title>
<path fill="none" stroke="#191970" d="M742.6931,-168.2455C753.1321,-159.8943 768.3655,-147.7076 780.574,-137.9408"/>
<polygon fill="#191970" stroke="#191970" points="782.8244,-140.6227 788.4467,-131.6427 778.4515,-135.1566 782.8244,-140.6227"/>
</g>
<!-- Node23 -->
<g id="node23" class="node">
<title>Node23</title>
<g id="a_node23"><a xlink:href="animationmanager_8h.html" target="_top" xlink:title=" ">
<polygon fill="#ffffff" stroke="#000000" points="577.5,-112.5 577.5,-131.5 685.5,-131.5 685.5,-112.5 577.5,-112.5"/>
<text text-anchor="middle" x="631.5" y="-119.5" font-family="Helvetica,sans-Serif" font-size="10.00" fill="#000000">animationmanager.h</text>
</a>
</g>
</g>
<!-- Node20&#45;&gt;Node23 -->
<g id="edge28" class="edge">
<title>Node20&#45;&gt;Node23</title>
<path fill="none" stroke="#191970" d="M713.2555,-168.2455C697.9239,-159.5731 675.2801,-146.7645 657.7084,-136.825"/>
<polygon fill="#191970" stroke="#191970" points="658.9741,-133.5198 648.5469,-131.6427 655.5276,-139.6126 658.9741,-133.5198"/>
</g>
<!-- Node23&#45;&gt;Node11 -->
<g id="edge35" class="edge">
<title>Node23&#45;&gt;Node11</title>
<path fill="none" stroke="#191970" d="M616.7609,-112.3826C603.17,-103.362 582.577,-89.3054 565.5,-76 545.0291,-60.0504 522.7344,-40.3964 507.62,-26.7026"/>
<polygon fill="#191970" stroke="#191970" points="509.7659,-23.9227 500.019,-19.7696 505.0486,-29.0945 509.7659,-23.9227"/>
</g>
<!-- Node24 -->
<g id="node24" class="node">
<title>Node24</title>
<g id="a_node24"><a xlink:href="animationmovement_8h.html" target="_top" xlink:title=" ">
<polygon fill="#ffffff" stroke="#000000" points="574,-56.5 574,-75.5 689,-75.5 689,-56.5 574,-56.5"/>
<text text-anchor="middle" x="631.5" y="-63.5" font-family="Helvetica,sans-Serif" font-size="10.00" fill="#000000">animationmovement.h</text>
</a>
</g>
</g>
<!-- Node23&#45;&gt;Node24 -->
<g id="edge29" class="edge">
<title>Node23&#45;&gt;Node24</title>
<path fill="none" stroke="#191970" d="M631.5,-112.2455C631.5,-104.9382 631.5,-94.6944 631.5,-85.7046"/>
<polygon fill="#191970" stroke="#191970" points="635.0001,-85.6426 631.5,-75.6427 628.0001,-85.6427 635.0001,-85.6426"/>
</g>
<!-- Node26 -->
<g id="node26" class="node">
<title>Node26</title>
<g id="a_node26"><a xlink:title=" ">
<polygon fill="#ffffff" stroke="#bfbfbf" points="698,-.5 698,-19.5 737,-19.5 737,-.5 698,-.5"/>
<text text-anchor="middle" x="717.5" y="-7.5" font-family="Helvetica,sans-Serif" font-size="10.00" fill="#000000">QList</text>
</a>
</g>
</g>
<!-- Node23&#45;&gt;Node26 -->
<g id="edge34" class="edge">
<title>Node23&#45;&gt;Node26</title>
<path fill="none" stroke="#191970" d="M652.5545,-112.4265C667.449,-104.6271 686.7818,-92.2514 698.5,-76 708.2949,-62.4159 713.0612,-43.8708 715.3683,-29.8972"/>
<polygon fill="#191970" stroke="#191970" points="718.8547,-30.2347 716.7405,-19.853 711.9191,-29.2872 718.8547,-30.2347"/>
</g>
<!-- Node24&#45;&gt;Node11 -->
<g id="edge33" class="edge">
<title>Node24&#45;&gt;Node11</title>
<path fill="none" stroke="#191970" d="M607.0893,-56.3733C583.8858,-47.2226 548.7962,-33.3844 522.9858,-23.2057"/>
<polygon fill="#191970" stroke="#191970" points="524.1789,-19.9139 513.5921,-19.5011 521.6108,-26.4258 524.1789,-19.9139"/>
</g>
<!-- Node25 -->
<g id="node25" class="node">
<title>Node25</title>
<g id="a_node25"><a xlink:href="point_8h.html" target="_top" xlink:title=" ">
<polygon fill="#ffffff" stroke="#000000" points="566,-.5 566,-19.5 611,-19.5 611,-.5 566,-.5"/>
<text text-anchor="middle" x="588.5" y="-7.5" font-family="Helvetica,sans-Serif" font-size="10.00" fill="#000000">point.h</text>
</a>
</g>
</g>
<!-- Node24&#45;&gt;Node25 -->
<g id="edge30" class="edge">
<title>Node24&#45;&gt;Node25</title>
<path fill="none" stroke="#191970" d="M624.01,-56.2455C617.9674,-48.3761 609.3097,-37.101 602.0559,-27.6542"/>
<polygon fill="#191970" stroke="#191970" points="604.7705,-25.4426 595.9042,-19.6427 599.2185,-29.7058 604.7705,-25.4426"/>
</g>
<!-- Node24&#45;&gt;Node26 -->
<g id="edge31" class="edge">
<title>Node24&#45;&gt;Node26</title>
<path fill="none" stroke="#191970" d="M646.4801,-56.2455C659.6751,-47.6534 679.1051,-35.0014 694.3079,-25.1018"/>
<polygon fill="#191970" stroke="#191970" points="696.2215,-28.0325 702.6916,-19.6427 692.4017,-22.1665 696.2215,-28.0325"/>
</g>
<!-- Node27 -->
<g id="node27" class="node">
<title>Node27</title>
<g id="a_node27"><a xlink:title=" ">
<polygon fill="#ffffff" stroke="#bfbfbf" points="629.5,-.5 629.5,-19.5 679.5,-19.5 679.5,-.5 629.5,-.5"/>
<text text-anchor="middle" x="654.5" y="-7.5" font-family="Helvetica,sans-Serif" font-size="10.00" fill="#000000">QString</text>
</a>
</g>
</g>
<!-- Node24&#45;&gt;Node27 -->
<g id="edge32" class="edge">
<title>Node24&#45;&gt;Node27</title>
<path fill="none" stroke="#191970" d="M635.5063,-56.2455C638.5735,-48.7776 642.9003,-38.2427 646.6497,-29.1137"/>
<polygon fill="#191970" stroke="#191970" points="649.9779,-30.2226 650.5396,-19.6427 643.5028,-27.5631 649.9779,-30.2226"/>
</g>
<!-- Node28&#45;&gt;Node4 -->
<g id="edge39" class="edge">
<title>Node28&#45;&gt;Node4</title>
<path fill="none" stroke="#191970" d="M635.7979,-284.832C593.0672,-275.1047 500.3658,-254.002 448.856,-242.2762"/>
<polygon fill="#191970" stroke="#191970" points="449.3538,-238.8 438.8263,-239.993 447.8,-245.6254 449.3538,-238.8"/>
</g>
<!-- Node28&#45;&gt;Node20 -->
<g id="edge40" class="edge">
<title>Node28&#45;&gt;Node20</title>
<path fill="none" stroke="#191970" d="M673.6591,-280.4621C685.5995,-272.1988 701.7976,-259.1991 711.5,-244 720.5111,-229.8838 725.3537,-211.3904 727.8893,-197.572"/>
<polygon fill="#191970" stroke="#191970" points="731.3507,-198.0906 729.4638,-187.6651 724.4375,-196.9918 731.3507,-198.0906"/>
</g>
<!-- Node29 -->
<g id="node29" class="node">
<title>Node29</title>
<g id="a_node29"><a xlink:title=" ">
<polygon fill="#ffffff" stroke="#bfbfbf" points="615,-224.5 615,-243.5 702,-243.5 702,-224.5 615,-224.5"/>
<text text-anchor="middle" x="658.5" y="-231.5" font-family="Helvetica,sans-Serif" font-size="10.00" fill="#000000">QGraphicsView</text>
</a>
</g>
</g>
<!-- Node28&#45;&gt;Node29 -->
<g id="edge38" class="edge">
<title>Node28&#45;&gt;Node29</title>
<path fill="none" stroke="#191970" d="M658.5,-280.2455C658.5,-272.9382 658.5,-262.6944 658.5,-253.7046"/>
<polygon fill="#191970" stroke="#191970" points="662.0001,-253.6426 658.5,-243.6427 655.0001,-253.6427 662.0001,-253.6426"/>
</g>
<!-- Node30 -->
<g id="node30" class="node">
<title>Node30</title>
<g id="a_node30"><a xlink:href="tooltipmenu_8h.html" target="_top" xlink:title=" ">
<polygon fill="#ffffff" stroke="#000000" points="785,-168.5 785,-187.5 860,-187.5 860,-168.5 785,-168.5"/>
<text text-anchor="middle" x="822.5" y="-175.5" font-family="Helvetica,sans-Serif" font-size="10.00" fill="#000000">tooltipmenu.h</text>
</a>
</g>
</g>
<!-- Node28&#45;&gt;Node30 -->
<g id="edge41" class="edge">
<title>Node28&#45;&gt;Node30</title>
<path fill="none" stroke="#191970" d="M673.5803,-280.4904C688.0365,-271.3131 710.4171,-256.9447 729.5,-244 754.3943,-227.1132 782.4979,-207.0228 801.2324,-193.4799"/>
<polygon fill="#191970" stroke="#191970" points="803.3348,-196.2788 809.3785,-187.5768 799.2272,-190.6106 803.3348,-196.2788"/>
</g>
<!-- Node30&#45;&gt;Node21 -->
<g id="edge43" class="edge">
<title>Node30&#45;&gt;Node21</title>
<path fill="none" stroke="#191970" d="M806.3006,-168.2455C791.8982,-159.5731 770.6268,-146.7645 754.1201,-136.825"/>
<polygon fill="#191970" stroke="#191970" points="755.886,-133.8028 745.5137,-131.6427 752.275,-139.7996 755.886,-133.8028"/>
</g>
<!-- Node30&#45;&gt;Node22 -->
<g id="edge42" class="edge">
<title>Node30&#45;&gt;Node22</title>
<path fill="none" stroke="#191970" d="M818.6679,-168.2455C815.7341,-160.7776 811.5953,-150.2427 808.009,-141.1137"/>
<polygon fill="#191970" stroke="#191970" points="811.2024,-139.6704 804.2882,-131.6427 804.6871,-142.23 811.2024,-139.6704"/>
</g>
<!-- Node31 -->
<g id="node31" class="node">
<title>Node31</title>
<g id="a_node31"><a xlink:title=" ">
<polygon fill="#ffffff" stroke="#bfbfbf" points="846.5,-112.5 846.5,-131.5 916.5,-131.5 916.5,-112.5 846.5,-112.5"/>
<text text-anchor="middle" x="881.5" y="-119.5" font-family="Helvetica,sans-Serif" font-size="10.00" fill="#000000">QGroupBox</text>
</a>
</g>
</g>
<!-- Node30&#45;&gt;Node31 -->
<g id="edge44" class="edge">
<title>Node30&#45;&gt;Node31</title>
<path fill="none" stroke="#191970" d="M832.777,-168.2455C841.3218,-160.1352 853.6778,-148.4075 863.8085,-138.7919"/>
<polygon fill="#191970" stroke="#191970" points="866.4972,-141.0655 871.3408,-131.6427 861.6782,-135.9884 866.4972,-141.0655"/>
</g>
<!-- Node32 -->
<g id="node32" class="node">
<title>Node32</title>
<g id="a_node32"><a xlink:title=" ">
<polygon fill="#ffffff" stroke="#bfbfbf" points="934.5,-112.5 934.5,-131.5 1008.5,-131.5 1008.5,-112.5 934.5,-112.5"/>
<text text-anchor="middle" x="971.5" y="-119.5" font-family="Helvetica,sans-Serif" font-size="10.00" fill="#000000">QGridLayout</text>
</a>
</g>
</g>
<!-- Node30&#45;&gt;Node32 -->
<g id="edge45" class="edge">
<title>Node30&#45;&gt;Node32</title>
<path fill="none" stroke="#191970" d="M848.114,-168.3733C872.5687,-159.1822 909.6054,-145.2624 936.7209,-135.0713"/>
<polygon fill="#191970" stroke="#191970" points="938.0909,-138.2956 946.2202,-131.5011 935.6281,-131.7431 938.0909,-138.2956"/>
</g>
</g>
</svg>
        <g id="navigator" transform="translate(0 0)" fill="#404254">
                <rect fill="#f2f5e9" fill-opacity="0.5" stroke="#606060" stroke-width=".5" x="0" y="0" width="60" height="60"/>
                <use id="zoomplus" xlink:href="#zoomPlus" x="17" y="9" onmousedown="handleZoom(evt,'in')"/>
                <use id="zoomminus" xlink:href="#zoomMin" x="42" y="9" onmousedown="handleZoom(evt,'out')"/>
                <use id="reset" xlink:href="#resetDef" x="30" y="36" onmousedown="handleReset()"/>
                <g id="arrowUp" xlink:href="#dirArrow" transform="translate(30 24)" onmousedown="handlePan(0,-1)">
                  <use xlink:href="#rim" fill="#404040">
                        <set attributeName="fill" to="#808080" begin="arrowUp.mouseover" end="arrowUp.mouseout"/>
                  </use>
                  <path fill="none" stroke="white" stroke-width="1.5" d="M0,-3.0v7 M-2.5,-0.5L0,-3.0L2.5,-0.5"/>
                </g>
                <g id="arrowRight" xlink:href="#dirArrow" transform="rotate(90) translate(36 -43)" onmousedown="handlePan(1,0)">
                  <use xlink:href="#rim" fill="#404040">
                        <set attributeName="fill" to="#808080" begin="arrowRight.mouseover" end="arrowRight.mouseout"/>
                  </use>
                  <path fill="none" stroke="white" stroke-width="1.5" d="M0,-3.0v7 M-2.5,-0.5L0,-3.0L2.5,-0.5"/>
                </g>
                <g id="arrowDown" xlink:href="#dirArrow" transform="rotate(180) translate(-30 -48)" onmousedown="handlePan(0,1)">
                  <use xlink:href="#rim" fill="#404040">
                        <set attributeName="fill" to="#808080" begin="arrowDown.mouseover" end="arrowDown.mouseout"/>
                  </use>
                  <path fill="none" stroke="white" stroke-width="1.5" d="M0,-3.0v7 M-2.5,-0.5L0,-3.0L2.5,-0.5"/>
                </g>
                <g id="arrowLeft" xlink:href="#dirArrow" transform="rotate(270) translate(-36 17)" onmousedown="handlePan(-1,0)">
                  <use xlink:href="#rim" fill="#404040">
                        <set attributeName="fill" to="#808080" begin="arrowLeft.mouseover" end="arrowLeft.mouseout"/>
                  </use>
                  <path fill="none" stroke="white" stroke-width="1.5" d="M0,-3.0v7 M-2.5,-0.5L0,-3.0L2.5,-0.5"/>
                </g>
        </g>
        <svg viewBox="0 0 15 15" width="100%" height="30px" preserveAspectRatio="xMaxYMin meet">
         <g id="arrow_out" transform="scale(0.3 0.3)">
          <a xlink:href="menubar_8h__incl_org.svg" target="_base">
           <rect id="button" ry="5" rx="5" y="6" x="6" height="38" width="38"
                fill="#f2f5e9" fill-opacity="0.5" stroke="#606060" stroke-width="1.0"/>
           <path id="arrow"
             d="M 11.500037,31.436501 C 11.940474,20.09759 22.043105,11.32322 32.158766,21.979434 L 37.068811,17.246167 C 37.068811,17.246167 37.088388,32 37.088388,32 L 22.160133,31.978069 C 22.160133,31.978069 26.997745,27.140456 26.997745,27.140456 C 18.528582,18.264221 13.291696,25.230495 11.500037,31.436501 z"
             style="fill:#404040;"/>
          </a>
         </g>
        </svg>
</svg>
