<?xml version="1.0" encoding="UTF-8" standalone="no"?>
<!DOCTYPE svg PUBLIC "-//W3C//DTD SVG 1.1//EN"
 "http://www.w3.org/Graphics/SVG/1.1/DTD/svg11.dtd">
<!-- Generated by graphviz version 2.40.1 (20161225.0304)
 -->
<!-- Title: src/application_server/menubar.h Pages: 1 -->
<svg width="1441pt" height="487pt"
 viewBox="0.00 0.00 1440.75 487.00" xmlns="http://www.w3.org/2000/svg" xmlns:xlink="http://www.w3.org/1999/xlink">
<g id="graph0" class="graph" transform="scale(1 1) rotate(0) translate(4 483)">
<title>src/application_server/menubar.h</title>
<polygon fill="#ffffff" stroke="transparent" points="-4,4 -4,-483 1436.7507,-483 1436.7507,4 -4,4"/>
<!-- Node1 -->
<g id="node1" class="node">
<title>Node1</title>
<g id="a_node1"><a xlink:title=" ">
<polygon fill="#bfbfbf" stroke="#000000" points="512.2507,-448.5 512.2507,-478.5 627.2507,-478.5 627.2507,-448.5 512.2507,-448.5"/>
<text text-anchor="start" x="520.2507" y="-466.5" font-family="Helvetica,sans-Serif" font-size="10.00" fill="#000000">src/application_server</text>
<text text-anchor="middle" x="569.7507" y="-455.5" font-family="Helvetica,sans-Serif" font-size="10.00" fill="#000000">/menubar.h</text>
</a>
</g>
</g>
<!-- Node2 -->
<g id="node2" class="node">
<title>Node2</title>
<g id="a_node2"><a xlink:title=" ">
<polygon fill="#ffffff" stroke="#bfbfbf" points="349.7507,-392.5 349.7507,-411.5 411.7507,-411.5 411.7507,-392.5 349.7507,-392.5"/>
<text text-anchor="middle" x="380.7507" y="-399.5" font-family="Helvetica,sans-Serif" font-size="10.00" fill="#000000">QToolBar</text>
</a>
</g>
</g>
<!-- Node1&#45;&gt;Node2 -->
<g id="edge1" class="edge">
<title>Node1&#45;&gt;Node2</title>
<path fill="none" stroke="#191970" d="M523.5161,-448.4554C491.7044,-438.104 449.9177,-424.5067 419.7813,-414.7004"/>
<polygon fill="#191970" stroke="#191970" points="420.6313,-411.2964 410.039,-411.5303 418.4652,-417.9529 420.6313,-411.2964"/>
</g>
<!-- Node3 -->
<g id="node3" class="node">
<title>Node3</title>
<g id="a_node3"><a xlink:title=" ">
<polygon fill="#ffffff" stroke="#bfbfbf" points="429.7507,-392.5 429.7507,-411.5 503.7507,-411.5 503.7507,-392.5 429.7507,-392.5"/>
<text text-anchor="middle" x="466.7507" y="-399.5" font-family="Helvetica,sans-Serif" font-size="10.00" fill="#000000">QInputDialog</text>
</a>
</g>
</g>
<!-- Node1&#45;&gt;Node3 -->
<g id="edge2" class="edge">
<title>Node1&#45;&gt;Node3</title>
<path fill="none" stroke="#191970" d="M544.5541,-448.4554C528.4235,-438.8241 507.587,-426.3828 491.5371,-416.7996"/>
<polygon fill="#191970" stroke="#191970" points="493.0923,-413.6518 482.7121,-411.5303 489.5037,-419.662 493.0923,-413.6518"/>
</g>
<!-- Node4 -->
<g id="node4" class="node">
<title>Node4</title>
<g id="a_node4"><a xlink:href="scene_8h.html" target="_top" xlink:title=" ">
<polygon fill="#ffffff" stroke="#000000" points="429.7507,-224.5 429.7507,-243.5 481.7507,-243.5 481.7507,-224.5 429.7507,-224.5"/>
<text text-anchor="middle" x="455.7507" y="-231.5" font-family="Helvetica,sans-Serif" font-size="10.00" fill="#000000">scene.h</text>
</a>
</g>
</g>
<!-- Node1&#45;&gt;Node4 -->
<g id="edge3" class="edge">
<title>Node1&#45;&gt;Node4</title>
<path fill="none" stroke="#191970" d="M562.2709,-448.4419C542.2343,-408.1052 487.3732,-297.6611 465.2176,-253.0583"/>
<polygon fill="#191970" stroke="#191970" points="468.2508,-251.297 460.6674,-243.8981 461.9816,-254.4112 468.2508,-251.297"/>
</g>
<!-- Node20 -->
<g id="node20" class="node">
<title>Node20</title>
<g id="a_node20"><a xlink:href="datamodel_8h.html" target="_top" xlink:title=" ">
<polygon fill="#ffffff" stroke="#000000" points="538.2507,-168.5 538.2507,-187.5 611.2507,-187.5 611.2507,-168.5 538.2507,-168.5"/>
<text text-anchor="middle" x="574.7507" y="-175.5" font-family="Helvetica,sans-Serif" font-size="10.00" fill="#000000">datamodel.h</text>
</a>
</g>
</g>
<!-- Node1&#45;&gt;Node20 -->
<g id="edge31" class="edge">
<title>Node1&#45;&gt;Node20</title>
<path fill="none" stroke="#191970" d="M561.5053,-448.42C550.3292,-426.5326 531.7507,-384.3768 531.7507,-346 531.7507,-346 531.7507,-346 531.7507,-290 531.7507,-255.1403 550.13,-217.9899 562.8567,-196.444"/>
<polygon fill="#191970" stroke="#191970" points="565.9713,-198.0603 568.2199,-187.7069 560.0056,-194.3983 565.9713,-198.0603"/>
</g>
<!-- Node26 -->
<g id="node26" class="node">
<title>Node26</title>
<g id="a_node26"><a xlink:href="view_8h.html" target="_top" xlink:title=" ">
<polygon fill="#ffffff" stroke="#000000" points="602.2507,-280.5 602.2507,-299.5 647.2507,-299.5 647.2507,-280.5 602.2507,-280.5"/>
<text text-anchor="middle" x="624.7507" y="-287.5" font-family="Helvetica,sans-Serif" font-size="10.00" fill="#000000">view.h</text>
</a>
</g>
</g>
<!-- Node1&#45;&gt;Node26 -->
<g id="edge32" class="edge">
<title>Node1&#45;&gt;Node26</title>
<path fill="none" stroke="#191970" d="M574.5354,-448.4065C584.4873,-417.0126 607.4119,-344.6961 618.5081,-309.6925"/>
<polygon fill="#191970" stroke="#191970" points="621.9782,-310.3282 621.6637,-299.738 615.3055,-308.2128 621.9782,-310.3282"/>
</g>
<!-- Node31 -->
<g id="node31" class="node">
<title>Node31</title>
<g id="a_node31"><a xlink:href="routeinterface_8h.html" target="_top" xlink:title=" ">
<polygon fill="#ffffff" stroke="#000000" points="883.2507,-392.5 883.2507,-411.5 968.2507,-411.5 968.2507,-392.5 883.2507,-392.5"/>
<text text-anchor="middle" x="925.7507" y="-399.5" font-family="Helvetica,sans-Serif" font-size="10.00" fill="#000000">routeinterface.h</text>
</a>
</g>
</g>
<!-- Node1&#45;&gt;Node31 -->
<g id="edge41" class="edge">
<title>Node1&#45;&gt;Node31</title>
<path fill="none" stroke="#191970" d="M627.3439,-453.5506C695.244,-441.8207 807.1494,-422.4887 872.912,-411.128"/>
<polygon fill="#191970" stroke="#191970" points="873.7983,-414.5269 883.0565,-409.3755 872.6066,-407.629 873.7983,-414.5269"/>
</g>
<!-- Node43 -->
<g id="node43" class="node">
<title>Node43</title>
<g id="a_node43"><a xlink:href="maprenderer_8h.html" target="_top" xlink:title=" ">
<polygon fill="#ffffff" stroke="#000000" points="1179.7507,-224.5 1179.7507,-243.5 1261.7507,-243.5 1261.7507,-224.5 1179.7507,-224.5"/>
<text text-anchor="middle" x="1220.7507" y="-231.5" font-family="Helvetica,sans-Serif" font-size="10.00" fill="#000000">maprenderer.h</text>
</a>
</g>
</g>
<!-- Node1&#45;&gt;Node43 -->
<g id="edge76" class="edge">
<title>Node1&#45;&gt;Node43</title>
<path fill="none" stroke="#191970" d="M627.5072,-461.6272C776.2183,-455.7314 1167.6261,-433.0907 1267.7507,-356 1296.1533,-334.1315 1312.1659,-311.3313 1294.7507,-280 1286.7929,-265.6832 1272.3279,-255.2479 1258.2841,-247.972"/>
<polygon fill="#191970" stroke="#191970" points="1259.7219,-244.7801 1249.1888,-243.6379 1256.7106,-251.0993 1259.7219,-244.7801"/>
</g>
<!-- Node5 -->
<g id="node5" class="node">
<title>Node5</title>
<g id="a_node5"><a xlink:title=" ">
<polygon fill="#ffffff" stroke="#bfbfbf" points="202.7507,-168.5 202.7507,-187.5 296.7507,-187.5 296.7507,-168.5 202.7507,-168.5"/>
<text text-anchor="middle" x="249.7507" y="-175.5" font-family="Helvetica,sans-Serif" font-size="10.00" fill="#000000">QGraphicsScene</text>
</a>
</g>
</g>
<!-- Node4&#45;&gt;Node5 -->
<g id="edge4" class="edge">
<title>Node4&#45;&gt;Node5</title>
<path fill="none" stroke="#191970" d="M429.6607,-226.9076C395.7545,-217.6903 336.0147,-201.4504 294.7308,-190.2276"/>
<polygon fill="#191970" stroke="#191970" points="295.4881,-186.8065 284.9202,-187.5606 293.6518,-193.5614 295.4881,-186.8065"/>
</g>
<!-- Node6 -->
<g id="node6" class="node">
<title>Node6</title>
<g id="a_node6"><a xlink:title=" ">
<polygon fill="#ffffff" stroke="#bfbfbf" points="314.7507,-168.5 314.7507,-187.5 418.7507,-187.5 418.7507,-168.5 314.7507,-168.5"/>
<text text-anchor="middle" x="366.7507" y="-175.5" font-family="Helvetica,sans-Serif" font-size="10.00" fill="#000000">QGraphicsTextItem</text>
</a>
</g>
</g>
<!-- Node4&#45;&gt;Node6 -->
<g id="edge5" class="edge">
<title>Node4&#45;&gt;Node6</title>
<path fill="none" stroke="#191970" d="M440.2481,-224.2455C426.5928,-215.6534 406.485,-203.0014 390.7518,-193.1018"/>
<polygon fill="#191970" stroke="#191970" points="392.4036,-190.006 382.0757,-187.6427 388.6756,-195.9307 392.4036,-190.006"/>
</g>
<!-- Node7 -->
<g id="node7" class="node">
<title>Node7</title>
<g id="a_node7"><a xlink:title=" ">
<polygon fill="#ffffff" stroke="#bfbfbf" points="437.2507,-168.5 437.2507,-187.5 520.2507,-187.5 520.2507,-168.5 437.2507,-168.5"/>
<text text-anchor="middle" x="478.7507" y="-175.5" font-family="Helvetica,sans-Serif" font-size="10.00" fill="#000000">QGraphicsItem</text>
</a>
</g>
</g>
<!-- Node4&#45;&gt;Node7 -->
<g id="edge6" class="edge">
<title>Node4&#45;&gt;Node7</title>
<path fill="none" stroke="#191970" d="M459.757,-224.2455C462.8242,-216.7776 467.151,-206.2427 470.9004,-197.1137"/>
<polygon fill="#191970" stroke="#191970" points="474.2287,-198.2226 474.7903,-187.6427 467.7535,-195.5631 474.2287,-198.2226"/>
</g>
<!-- Node8 -->
<g id="node8" class="node">
<title>Node8</title>
<g id="a_node8"><a xlink:title=" ">
<polygon fill="#ffffff" stroke="#bfbfbf" points="18.7507,-.5 18.7507,-19.5 122.7507,-19.5 122.7507,-.5 18.7507,-.5"/>
<text text-anchor="middle" x="70.7507" y="-7.5" font-family="Helvetica,sans-Serif" font-size="10.00" fill="#000000">QGraphicsRectItem</text>
</a>
</g>
</g>
<!-- Node4&#45;&gt;Node8 -->
<g id="edge7" class="edge">
<title>Node4&#45;&gt;Node8</title>
<path fill="none" stroke="#191970" d="M429.5447,-233.2584C339.0314,-230.4309 43.5756,-218.8855 15.7507,-188 -26.3604,-141.2568 27.2763,-62.7812 55.4696,-27.7819"/>
<polygon fill="#191970" stroke="#191970" points="58.3398,-29.8032 62.0154,-19.8663 52.9454,-25.3422 58.3398,-29.8032"/>
</g>
<!-- Node9 -->
<g id="node9" class="node">
<title>Node9</title>
<g id="a_node9"><a xlink:title=" ">
<polygon fill="#ffffff" stroke="#bfbfbf" points="33.2507,-168.5 33.2507,-187.5 146.2507,-187.5 146.2507,-168.5 33.2507,-168.5"/>
<text text-anchor="middle" x="89.7507" y="-175.5" font-family="Helvetica,sans-Serif" font-size="10.00" fill="#000000">QGraphicsEllipseItem</text>
</a>
</g>
</g>
<!-- Node4&#45;&gt;Node9 -->
<g id="edge8" class="edge">
<title>Node4&#45;&gt;Node9</title>
<path fill="none" stroke="#191970" d="M429.7223,-230.0175C373.2838,-221.3821 238.1472,-200.7055 156.2634,-188.1768"/>
<polygon fill="#191970" stroke="#191970" points="156.7193,-184.7059 146.305,-186.6531 155.6605,-191.6254 156.7193,-184.7059"/>
</g>
<!-- Node10 -->
<g id="node10" class="node">
<title>Node10</title>
<g id="a_node10"><a xlink:href="maptile_8h.html" target="_top" xlink:title=" ">
<polygon fill="#ffffff" stroke="#000000" points="985.7507,-168.5 985.7507,-187.5 1041.7507,-187.5 1041.7507,-168.5 985.7507,-168.5"/>
<text text-anchor="middle" x="1013.7507" y="-175.5" font-family="Helvetica,sans-Serif" font-size="10.00" fill="#000000">maptile.h</text>
</a>
</g>
</g>
<!-- Node4&#45;&gt;Node10 -->
<g id="edge9" class="edge">
<title>Node4&#45;&gt;Node10</title>
<path fill="none" stroke="#191970" d="M481.8638,-231.627C553.2872,-225.0995 757.8775,-206.1525 927.7507,-188 943.2654,-186.3421 960.3382,-184.3845 975.1546,-182.6429"/>
<polygon fill="#191970" stroke="#191970" points="975.9703,-186.0709 985.4899,-181.4202 975.1479,-179.1194 975.9703,-186.0709"/>
</g>
<!-- Node15 -->
<g id="node15" class="node">
<title>Node15</title>
<g id="a_node15"><a xlink:href="graphicsmanager_8h.html" target="_top" xlink:title=" ">
<polygon fill="#ffffff" stroke="#000000" points="826.2507,-112.5 826.2507,-131.5 929.2507,-131.5 929.2507,-112.5 826.2507,-112.5"/>
<text text-anchor="middle" x="877.7507" y="-119.5" font-family="Helvetica,sans-Serif" font-size="10.00" fill="#000000">graphicsmanager.h</text>
</a>
</g>
</g>
<!-- Node4&#45;&gt;Node15 -->
<g id="edge18" class="edge">
<title>Node4&#45;&gt;Node15</title>
<path fill="none" stroke="#191970" d="M481.7857,-231.1598C528.7896,-225.6366 630.6597,-211.8504 713.7507,-188 762.2739,-174.072 816.1469,-150.7953 848.4634,-135.9331"/>
<polygon fill="#191970" stroke="#191970" points="850.1754,-138.9971 857.7708,-131.6106 847.2269,-132.6484 850.1754,-138.9971"/>
</g>
<!-- Node18 -->
<g id="node18" class="node">
<title>Node18</title>
<g id="a_node18"><a xlink:href="player_8h.html" target="_top" xlink:title=" ">
<polygon fill="#ffffff" stroke="#000000" points="202.7507,-112.5 202.7507,-131.5 254.7507,-131.5 254.7507,-112.5 202.7507,-112.5"/>
<text text-anchor="middle" x="228.7507" y="-119.5" font-family="Helvetica,sans-Serif" font-size="10.00" fill="#000000">player.h</text>
</a>
</g>
</g>
<!-- Node4&#45;&gt;Node18 -->
<g id="edge19" class="edge">
<title>Node4&#45;&gt;Node18</title>
<path fill="none" stroke="#191970" d="M429.7108,-233.2104C340.4766,-230.24 51.0146,-218.3211 23.7507,-188 17.8074,-181.3902 18.1959,-174.9394 23.7507,-168 44.4792,-142.1048 139.2259,-129.7861 192.356,-124.8234"/>
<polygon fill="#191970" stroke="#191970" points="192.7439,-128.3028 202.3929,-123.9271 192.1212,-121.3305 192.7439,-128.3028"/>
</g>
<!-- Node19 -->
<g id="node19" class="node">
<title>Node19</title>
<g id="a_node19"><a xlink:href="highlighter_8h.html" target="_top" xlink:title=" ">
<polygon fill="#ffffff" stroke="#000000" points="139.7507,-56.5 139.7507,-75.5 209.7507,-75.5 209.7507,-56.5 139.7507,-56.5"/>
<text text-anchor="middle" x="174.7507" y="-63.5" font-family="Helvetica,sans-Serif" font-size="10.00" fill="#000000">highlighter.h</text>
</a>
</g>
</g>
<!-- Node4&#45;&gt;Node19 -->
<g id="edge22" class="edge">
<title>Node4&#45;&gt;Node19</title>
<path fill="none" stroke="#191970" d="M429.6132,-233.1495C369.943,-230.6418 226.332,-221.2164 193.7507,-188 167.0884,-160.818 168.2782,-112.6225 171.5057,-85.66"/>
<polygon fill="#191970" stroke="#191970" points="175.0038,-85.9193 172.9385,-75.5277 168.0728,-84.9392 175.0038,-85.9193"/>
</g>
<!-- Node4&#45;&gt;Node20 -->
<g id="edge23" class="edge">
<title>Node4&#45;&gt;Node20</title>
<path fill="none" stroke="#191970" d="M476.2075,-224.3733C495.2245,-215.4241 523.7683,-201.9917 545.2483,-191.8835"/>
<polygon fill="#191970" stroke="#191970" points="547.0029,-194.926 554.5608,-187.5011 544.0223,-188.5923 547.0029,-194.926"/>
</g>
<!-- Node11 -->
<g id="node11" class="node">
<title>Node11</title>
<g id="a_node11"><a xlink:title=" ">
<polygon fill="#ffffff" stroke="#bfbfbf" points="1004.2507,-112.5 1004.2507,-131.5 1121.2507,-131.5 1121.2507,-112.5 1004.2507,-112.5"/>
<text text-anchor="middle" x="1062.7507" y="-119.5" font-family="Helvetica,sans-Serif" font-size="10.00" fill="#000000">QGraphicsPixmapItem</text>
</a>
</g>
</g>
<!-- Node10&#45;&gt;Node11 -->
<g id="edge10" class="edge">
<title>Node10&#45;&gt;Node11</title>
<path fill="none" stroke="#191970" d="M1022.2859,-168.2455C1029.2419,-160.2958 1039.239,-148.8706 1047.5558,-139.3656"/>
<polygon fill="#191970" stroke="#191970" points="1050.3623,-141.4732 1054.3134,-131.6427 1045.0943,-136.8637 1050.3623,-141.4732"/>
</g>
<!-- Node12 -->
<g id="node12" class="node">
<title>Node12</title>
<g id="a_node12"><a xlink:href="city_8h.html" target="_top" xlink:title=" ">
<polygon fill="#ffffff" stroke="#000000" points="947.2507,-112.5 947.2507,-131.5 986.2507,-131.5 986.2507,-112.5 947.2507,-112.5"/>
<text text-anchor="middle" x="966.7507" y="-119.5" font-family="Helvetica,sans-Serif" font-size="10.00" fill="#000000">city.h</text>
</a>
</g>
</g>
<!-- Node10&#45;&gt;Node12 -->
<g id="edge11" class="edge">
<title>Node10&#45;&gt;Node12</title>
<path fill="none" stroke="#191970" d="M1005.5639,-168.2455C998.8919,-160.2958 989.3028,-148.8706 981.3254,-139.3656"/>
<polygon fill="#191970" stroke="#191970" points="983.9533,-137.0524 974.8437,-131.6427 978.5915,-141.5525 983.9533,-137.0524"/>
</g>
<!-- Node10&#45;&gt;Node15 -->
<g id="edge14" class="edge">
<title>Node10&#45;&gt;Node15</title>
<path fill="none" stroke="#191970" d="M990.3715,-168.3733C968.2462,-159.2629 934.8373,-145.5062 910.1488,-135.3404"/>
<polygon fill="#191970" stroke="#191970" points="911.4043,-132.0723 900.8249,-131.5011 908.739,-138.5451 911.4043,-132.0723"/>
</g>
<!-- Node13 -->
<g id="node13" class="node">
<title>Node13</title>
<g id="a_node13"><a xlink:title=" ">
<polygon fill="#ffffff" stroke="#bfbfbf" points="799.2507,-56.5 799.2507,-75.5 840.2507,-75.5 840.2507,-56.5 799.2507,-56.5"/>
<text text-anchor="middle" x="819.7507" y="-63.5" font-family="Helvetica,sans-Serif" font-size="10.00" fill="#000000">string</text>
</a>
</g>
</g>
<!-- Node12&#45;&gt;Node13 -->
<g id="edge12" class="edge">
<title>Node12&#45;&gt;Node13</title>
<path fill="none" stroke="#191970" d="M947.2303,-114.5636C922.3593,-105.089 879.1103,-88.6132 849.9663,-77.5107"/>
<polygon fill="#191970" stroke="#191970" points="850.8901,-74.1173 840.2992,-73.828 848.3981,-80.6587 850.8901,-74.1173"/>
</g>
<!-- Node14 -->
<g id="node14" class="node">
<title>Node14</title>
<g id="a_node14"><a xlink:title=" ">
<polygon fill="#ffffff" stroke="#bfbfbf" points="944.7507,-56.5 944.7507,-75.5 988.7507,-75.5 988.7507,-56.5 944.7507,-56.5"/>
<text text-anchor="middle" x="966.7507" y="-63.5" font-family="Helvetica,sans-Serif" font-size="10.00" fill="#000000">vector</text>
</a>
</g>
</g>
<!-- Node12&#45;&gt;Node14 -->
<g id="edge13" class="edge">
<title>Node12&#45;&gt;Node14</title>
<path fill="none" stroke="#191970" d="M966.7507,-112.2455C966.7507,-104.9382 966.7507,-94.6944 966.7507,-85.7046"/>
<polygon fill="#191970" stroke="#191970" points="970.2508,-85.6426 966.7507,-75.6427 963.2508,-85.6427 970.2508,-85.6426"/>
</g>
<!-- Node15&#45;&gt;Node13 -->
<g id="edge17" class="edge">
<title>Node15&#45;&gt;Node13</title>
<path fill="none" stroke="#191970" d="M867.6479,-112.2455C859.2479,-104.1352 847.1014,-92.4075 837.1423,-82.7919"/>
<polygon fill="#191970" stroke="#191970" points="839.3629,-80.0707 829.7378,-75.6427 834.5007,-85.1066 839.3629,-80.0707"/>
</g>
<!-- Node16 -->
<g id="node16" class="node">
<title>Node16</title>
<g id="a_node16"><a xlink:title=" ">
<polygon fill="#ffffff" stroke="#bfbfbf" points="858.7507,-56.5 858.7507,-75.5 916.7507,-75.5 916.7507,-56.5 858.7507,-56.5"/>
<text text-anchor="middle" x="887.7507" y="-63.5" font-family="Helvetica,sans-Serif" font-size="10.00" fill="#000000">QPixmap</text>
</a>
</g>
</g>
<!-- Node15&#45;&gt;Node16 -->
<g id="edge15" class="edge">
<title>Node15&#45;&gt;Node16</title>
<path fill="none" stroke="#191970" d="M879.4926,-112.2455C880.7975,-104.9382 882.6267,-94.6944 884.232,-85.7046"/>
<polygon fill="#191970" stroke="#191970" points="887.7163,-86.1022 886.0288,-75.6427 880.8253,-84.8717 887.7163,-86.1022"/>
</g>
<!-- Node17 -->
<g id="node17" class="node">
<title>Node17</title>
<g id="a_node17"><a xlink:title=" ">
<polygon fill="#ffffff" stroke="#bfbfbf" points="1083.2507,-56.5 1083.2507,-75.5 1136.2507,-75.5 1136.2507,-56.5 1083.2507,-56.5"/>
<text text-anchor="middle" x="1109.7507" y="-63.5" font-family="Helvetica,sans-Serif" font-size="10.00" fill="#000000">QImage</text>
</a>
</g>
</g>
<!-- Node15&#45;&gt;Node17 -->
<g id="edge16" class="edge">
<title>Node15&#45;&gt;Node17</title>
<path fill="none" stroke="#191970" d="M917.3693,-112.4369C961.0087,-101.9032 1030.6105,-85.1028 1073.0496,-74.8589"/>
<polygon fill="#191970" stroke="#191970" points="1074.0639,-78.2147 1082.9635,-72.4659 1072.4214,-71.4101 1074.0639,-78.2147"/>
</g>
<!-- Node18&#45;&gt;Node19 -->
<g id="edge20" class="edge">
<title>Node18&#45;&gt;Node19</title>
<path fill="none" stroke="#191970" d="M219.3446,-112.2455C211.6014,-104.2155 200.4387,-92.6394 191.2189,-83.0781"/>
<polygon fill="#191970" stroke="#191970" points="193.5099,-80.4117 184.049,-75.6427 188.4709,-85.2706 193.5099,-80.4117"/>
</g>
<!-- Node19&#45;&gt;Node8 -->
<g id="edge21" class="edge">
<title>Node19&#45;&gt;Node8</title>
<path fill="none" stroke="#191970" d="M156.6353,-56.2455C140.3057,-47.4527 116.0797,-34.4079 97.5168,-24.4125"/>
<polygon fill="#191970" stroke="#191970" points="99.1226,-21.3021 88.6585,-19.6427 95.8039,-27.4654 99.1226,-21.3021"/>
</g>
<!-- Node20&#45;&gt;Node13 -->
<g id="edge24" class="edge">
<title>Node20&#45;&gt;Node13</title>
<path fill="none" stroke="#191970" d="M546.9367,-168.4837C516.5444,-156.6322 474.6806,-135.1109 494.7507,-112 513.9323,-89.9123 711.4441,-73.6625 788.8617,-68.0962"/>
<polygon fill="#191970" stroke="#191970" points="789.2295,-71.579 798.9576,-67.3822 788.7356,-64.5965 789.2295,-71.579"/>
</g>
<!-- Node20&#45;&gt;Node18 -->
<g id="edge30" class="edge">
<title>Node20&#45;&gt;Node18</title>
<path fill="none" stroke="#191970" d="M538.1337,-169.8258C534.9651,-169.1834 531.8044,-168.5655 528.7507,-168 434.0794,-150.4689 321.7163,-134.5288 265.1481,-126.8399"/>
<polygon fill="#191970" stroke="#191970" points="265.3045,-123.3293 254.9257,-125.4579 264.3666,-130.2662 265.3045,-123.3293"/>
</g>
<!-- Node21 -->
<g id="node21" class="node">
<title>Node21</title>
<g id="a_node21"><a xlink:title=" ">
<polygon fill="#ffffff" stroke="#bfbfbf" points="504.2507,-112.5 504.2507,-131.5 553.2507,-131.5 553.2507,-112.5 504.2507,-112.5"/>
<text text-anchor="middle" x="528.7507" y="-119.5" font-family="Helvetica,sans-Serif" font-size="10.00" fill="#000000">QLabel</text>
</a>
</g>
</g>
<!-- Node20&#45;&gt;Node21 -->
<g id="edge25" class="edge">
<title>Node20&#45;&gt;Node21</title>
<path fill="none" stroke="#191970" d="M566.7381,-168.2455C560.274,-160.3761 551.0123,-149.101 543.2524,-139.6542"/>
<polygon fill="#191970" stroke="#191970" points="545.7235,-137.1484 536.6715,-131.6427 540.3144,-141.5916 545.7235,-137.1484"/>
</g>
<!-- Node22 -->
<g id="node22" class="node">
<title>Node22</title>
<g id="a_node22"><a xlink:title=" ">
<polygon fill="#ffffff" stroke="#bfbfbf" points="751.7507,-112.5 751.7507,-131.5 807.7507,-131.5 807.7507,-112.5 751.7507,-112.5"/>
<text text-anchor="middle" x="779.7507" y="-119.5" font-family="Helvetica,sans-Serif" font-size="10.00" fill="#000000">QWidget</text>
</a>
</g>
</g>
<!-- Node20&#45;&gt;Node22 -->
<g id="edge26" class="edge">
<title>Node20&#45;&gt;Node22</title>
<path fill="none" stroke="#191970" d="M609.9915,-168.3733C646.6154,-158.3687 703.7504,-142.7611 741.4647,-132.4586"/>
<polygon fill="#191970" stroke="#191970" points="742.8296,-135.7141 751.5539,-129.7026 740.985,-128.9615 742.8296,-135.7141"/>
</g>
<!-- Node23 -->
<g id="node23" class="node">
<title>Node23</title>
<g id="a_node23"><a xlink:href="mainwindow_8h.html" target="_top" xlink:title=" ">
<polygon fill="#ffffff" stroke="#000000" points="367.7507,-112.5 367.7507,-131.5 447.7507,-131.5 447.7507,-112.5 367.7507,-112.5"/>
<text text-anchor="middle" x="407.7507" y="-119.5" font-family="Helvetica,sans-Serif" font-size="10.00" fill="#000000">mainwindow.h</text>
</a>
</g>
</g>
<!-- Node20&#45;&gt;Node23 -->
<g id="edge27" class="edge">
<title>Node20&#45;&gt;Node23</title>
<path fill="none" stroke="#191970" d="M546.0424,-168.3733C518.393,-159.1016 476.3932,-145.0178 445.9342,-134.804"/>
<polygon fill="#191970" stroke="#191970" points="446.6783,-131.3621 436.0844,-131.5011 444.4528,-137.9989 446.6783,-131.3621"/>
</g>
<!-- Node24 -->
<g id="node24" class="node">
<title>Node24</title>
<g id="a_node24"><a xlink:title=" ">
<polygon fill="#ffffff" stroke="#bfbfbf" points="413.2507,-56.5 413.2507,-75.5 496.2507,-75.5 496.2507,-56.5 413.2507,-56.5"/>
<text text-anchor="middle" x="454.7507" y="-63.5" font-family="Helvetica,sans-Serif" font-size="10.00" fill="#000000">QMainWindow</text>
</a>
</g>
</g>
<!-- Node23&#45;&gt;Node24 -->
<g id="edge28" class="edge">
<title>Node23&#45;&gt;Node24</title>
<path fill="none" stroke="#191970" d="M415.9375,-112.2455C422.6096,-104.2958 432.1986,-92.8706 440.176,-83.3656"/>
<polygon fill="#191970" stroke="#191970" points="442.9099,-85.5525 446.6578,-75.6427 437.5481,-81.0524 442.9099,-85.5525"/>
</g>
<!-- Node25 -->
<g id="node25" class="node">
<title>Node25</title>
<g id="a_node25"><a xlink:title=" ">
<polygon fill="#ffffff" stroke="#bfbfbf" points="328.2507,-56.5 328.2507,-75.5 395.2507,-75.5 395.2507,-56.5 328.2507,-56.5"/>
<text text-anchor="middle" x="361.7507" y="-63.5" font-family="Helvetica,sans-Serif" font-size="10.00" fill="#000000">QKeyEvent</text>
</a>
</g>
</g>
<!-- Node23&#45;&gt;Node25 -->
<g id="edge29" class="edge">
<title>Node23&#45;&gt;Node25</title>
<path fill="none" stroke="#191970" d="M399.7381,-112.2455C393.274,-104.3761 384.0123,-93.101 376.2524,-83.6542"/>
<polygon fill="#191970" stroke="#191970" points="378.7235,-81.1484 369.6715,-75.6427 373.3144,-85.5916 378.7235,-81.1484"/>
</g>
<!-- Node26&#45;&gt;Node4 -->
<g id="edge34" class="edge">
<title>Node26&#45;&gt;Node4</title>
<path fill="none" stroke="#191970" d="M601.9586,-282.4476C573.6259,-273.0592 524.9418,-256.9272 491.5939,-245.877"/>
<polygon fill="#191970" stroke="#191970" points="492.3699,-242.4471 481.7765,-242.6239 490.168,-249.0918 492.3699,-242.4471"/>
</g>
<!-- Node26&#45;&gt;Node20 -->
<g id="edge35" class="edge">
<title>Node26&#45;&gt;Node20</title>
<path fill="none" stroke="#191970" d="M614.9807,-280.3092C606.7374,-271.5665 595.2679,-257.9688 588.7507,-244 581.9412,-229.4046 578.4078,-211.4477 576.5957,-197.9509"/>
<polygon fill="#191970" stroke="#191970" points="580.0527,-197.3744 575.4442,-187.8343 573.0976,-198.166 580.0527,-197.3744"/>
</g>
<!-- Node27 -->
<g id="node27" class="node">
<title>Node27</title>
<g id="a_node27"><a xlink:title=" ">
<polygon fill="#ffffff" stroke="#bfbfbf" points="598.2507,-224.5 598.2507,-243.5 685.2507,-243.5 685.2507,-224.5 598.2507,-224.5"/>
<text text-anchor="middle" x="641.7507" y="-231.5" font-family="Helvetica,sans-Serif" font-size="10.00" fill="#000000">QGraphicsView</text>
</a>
</g>
</g>
<!-- Node26&#45;&gt;Node27 -->
<g id="edge33" class="edge">
<title>Node26&#45;&gt;Node27</title>
<path fill="none" stroke="#191970" d="M627.7119,-280.2455C629.9546,-272.8579 633.1084,-262.4689 635.8588,-253.4087"/>
<polygon fill="#191970" stroke="#191970" points="639.2677,-254.2282 638.8235,-243.6427 632.5695,-252.1948 639.2677,-254.2282"/>
</g>
<!-- Node28 -->
<g id="node28" class="node">
<title>Node28</title>
<g id="a_node28"><a xlink:href="tooltipmenu_8h.html" target="_top" xlink:title=" ">
<polygon fill="#ffffff" stroke="#000000" points="629.2507,-168.5 629.2507,-187.5 704.2507,-187.5 704.2507,-168.5 629.2507,-168.5"/>
<text text-anchor="middle" x="666.7507" y="-175.5" font-family="Helvetica,sans-Serif" font-size="10.00" fill="#000000">tooltipmenu.h</text>
</a>
</g>
</g>
<!-- Node26&#45;&gt;Node28 -->
<g id="edge36" class="edge">
<title>Node26&#45;&gt;Node28</title>
<path fill="none" stroke="#191970" d="M647.5135,-281.8728C663.9031,-274.6808 684.8087,-262.4298 694.7507,-244 703.2825,-228.1844 693.2854,-209.2159 682.9452,-195.6811"/>
<polygon fill="#191970" stroke="#191970" points="685.3699,-193.122 676.2919,-187.6592 679.9818,-197.5907 685.3699,-193.122"/>
</g>
<!-- Node28&#45;&gt;Node21 -->
<g id="edge38" class="edge">
<title>Node28&#45;&gt;Node21</title>
<path fill="none" stroke="#191970" d="M643.0277,-168.3733C620.5771,-159.2629 586.6768,-145.5062 561.6252,-135.3404"/>
<polygon fill="#191970" stroke="#191970" points="562.7464,-132.0182 552.1642,-131.5011 560.1143,-138.5045 562.7464,-132.0182"/>
</g>
<!-- Node28&#45;&gt;Node22 -->
<g id="edge37" class="edge">
<title>Node28&#45;&gt;Node22</title>
<path fill="none" stroke="#191970" d="M686.1761,-168.3733C704.1529,-159.4644 731.0948,-146.1127 751.4598,-136.0203"/>
<polygon fill="#191970" stroke="#191970" points="753.1729,-139.0776 760.5788,-131.5011 750.0646,-132.8055 753.1729,-139.0776"/>
</g>
<!-- Node29 -->
<g id="node29" class="node">
<title>Node29</title>
<g id="a_node29"><a xlink:title=" ">
<polygon fill="#ffffff" stroke="#bfbfbf" points="663.7507,-112.5 663.7507,-131.5 733.7507,-131.5 733.7507,-112.5 663.7507,-112.5"/>
<text text-anchor="middle" x="698.7507" y="-119.5" font-family="Helvetica,sans-Serif" font-size="10.00" fill="#000000">QGroupBox</text>
</a>
</g>
</g>
<!-- Node28&#45;&gt;Node29 -->
<g id="edge39" class="edge">
<title>Node28&#45;&gt;Node29</title>
<path fill="none" stroke="#191970" d="M672.3247,-168.2455C676.6838,-160.617 682.8718,-149.7881 688.164,-140.5267"/>
<polygon fill="#191970" stroke="#191970" points="691.318,-142.0616 693.2406,-131.6427 685.2403,-138.5886 691.318,-142.0616"/>
</g>
<!-- Node30 -->
<g id="node30" class="node">
<title>Node30</title>
<g id="a_node30"><a xlink:title=" ">
<polygon fill="#ffffff" stroke="#bfbfbf" points="571.7507,-112.5 571.7507,-131.5 645.7507,-131.5 645.7507,-112.5 571.7507,-112.5"/>
<text text-anchor="middle" x="608.7507" y="-119.5" font-family="Helvetica,sans-Serif" font-size="10.00" fill="#000000">QGridLayout</text>
</a>
</g>
</g>
<!-- Node28&#45;&gt;Node30 -->
<g id="edge40" class="edge">
<title>Node28&#45;&gt;Node30</title>
<path fill="none" stroke="#191970" d="M656.6479,-168.2455C648.2479,-160.1352 636.1014,-148.4075 626.1423,-138.7919"/>
<polygon fill="#191970" stroke="#191970" points="628.3629,-136.0707 618.7378,-131.6427 623.5007,-141.1066 628.3629,-136.0707"/>
</g>
<!-- Node31&#45;&gt;Node15 -->
<g id="edge48" class="edge">
<title>Node31&#45;&gt;Node15</title>
<path fill="none" stroke="#191970" d="M924.7509,-392.4522C922.9179,-374.4142 919.0851,-334.0783 917.7507,-300 915.7954,-250.0625 925.0466,-237.9026 927.7507,-188 928.2317,-179.1241 931.3226,-176.1397 927.7507,-168 922.4185,-155.8487 912.1168,-145.4938 902.2431,-137.7031"/>
<polygon fill="#191970" stroke="#191970" points="904.3016,-134.8723 894.1684,-131.7788 900.1607,-140.5162 904.3016,-134.8723"/>
</g>
<!-- Node32 -->
<g id="node32" class="node">
<title>Node32</title>
<g id="a_node32"><a xlink:title=" ">
<polygon fill="#ffffff" stroke="#bfbfbf" points="996.7507,-336.5 996.7507,-355.5 1076.7507,-355.5 1076.7507,-336.5 996.7507,-336.5"/>
<text text-anchor="middle" x="1036.7507" y="-343.5" font-family="Helvetica,sans-Serif" font-size="10.00" fill="#000000">QDockWidget</text>
</a>
</g>
</g>
<!-- Node31&#45;&gt;Node32 -->
<g id="edge42" class="edge">
<title>Node31&#45;&gt;Node32</title>
<path fill="none" stroke="#191970" d="M944.8323,-392.3733C962.4909,-383.4644 988.956,-370.1127 1008.9605,-360.0203"/>
<polygon fill="#191970" stroke="#191970" points="1010.5665,-363.1303 1017.9181,-355.5011 1007.4135,-356.8806 1010.5665,-363.1303"/>
</g>
<!-- Node33 -->
<g id="node33" class="node">
<title>Node33</title>
<g id="a_node33"><a xlink:title=" ">
<polygon fill="#ffffff" stroke="#bfbfbf" points="1095.2507,-336.5 1095.2507,-355.5 1166.2507,-355.5 1166.2507,-336.5 1095.2507,-336.5"/>
<text text-anchor="middle" x="1130.7507" y="-343.5" font-family="Helvetica,sans-Serif" font-size="10.00" fill="#000000">QListWidget</text>
</a>
</g>
</g>
<!-- Node31&#45;&gt;Node33 -->
<g id="edge43" class="edge">
<title>Node31&#45;&gt;Node33</title>
<path fill="none" stroke="#191970" d="M960.9915,-392.3733C995.6701,-382.9001 1048.739,-368.4032 1086.2969,-358.1435"/>
<polygon fill="#191970" stroke="#191970" points="1087.2456,-361.5126 1095.9698,-355.5011 1085.4009,-354.7601 1087.2456,-361.5126"/>
</g>
<!-- Node34 -->
<g id="node34" class="node">
<title>Node34</title>
<g id="a_node34"><a xlink:title=" ">
<polygon fill="#ffffff" stroke="#bfbfbf" points="1184.7507,-336.5 1184.7507,-355.5 1258.7507,-355.5 1258.7507,-336.5 1184.7507,-336.5"/>
<text text-anchor="middle" x="1221.7507" y="-343.5" font-family="Helvetica,sans-Serif" font-size="10.00" fill="#000000">QPushButton</text>
</a>
</g>
</g>
<!-- Node31&#45;&gt;Node34 -->
<g id="edge44" class="edge">
<title>Node31&#45;&gt;Node34</title>
<path fill="none" stroke="#191970" d="M968.2956,-394.6006C1016.0658,-386.1972 1096.1493,-371.8253 1174.5653,-356.1924"/>
<polygon fill="#191970" stroke="#191970" points="1175.497,-359.5754 1184.6151,-354.18 1174.1225,-352.7117 1175.497,-359.5754"/>
</g>
<!-- Node35 -->
<g id="node35" class="node">
<title>Node35</title>
<g id="a_node35"><a xlink:href="trainrenderer_8h.html" target="_top" xlink:title=" ">
<polygon fill="#ffffff" stroke="#000000" points="837.2507,-168.5 837.2507,-187.5 918.2507,-187.5 918.2507,-168.5 837.2507,-168.5"/>
<text text-anchor="middle" x="877.7507" y="-175.5" font-family="Helvetica,sans-Serif" font-size="10.00" fill="#000000">trainrenderer.h</text>
</a>
</g>
</g>
<!-- Node31&#45;&gt;Node35 -->
<g id="edge45" class="edge">
<title>Node31&#45;&gt;Node35</title>
<path fill="none" stroke="#191970" d="M912.8565,-392.2609C902.8829,-383.8809 889.7887,-370.8223 883.7507,-356 861.847,-302.23 868.8475,-231.5742 874.1348,-197.7324"/>
<polygon fill="#191970" stroke="#191970" points="877.6074,-198.1871 875.8179,-187.7445 870.7047,-197.0238 877.6074,-198.1871"/>
</g>
<!-- Node36 -->
<g id="node36" class="node">
<title>Node36</title>
<g id="a_node36"><a xlink:href="goodselector_8h.html" target="_top" xlink:title=" ">
<polygon fill="#ffffff" stroke="#000000" points="741.7507,-224.5 741.7507,-243.5 825.7507,-243.5 825.7507,-224.5 741.7507,-224.5"/>
<text text-anchor="middle" x="783.7507" y="-231.5" font-family="Helvetica,sans-Serif" font-size="10.00" fill="#000000">goodselector.h</text>
</a>
</g>
</g>
<!-- Node31&#45;&gt;Node36 -->
<g id="edge49" class="edge">
<title>Node31&#45;&gt;Node36</title>
<path fill="none" stroke="#191970" d="M883.2014,-395.8805C857.632,-389.9693 826.5153,-378.4295 807.7507,-356 783.3779,-326.8669 781.1716,-280.1445 782.1744,-253.7765"/>
<polygon fill="#191970" stroke="#191970" points="785.6837,-253.7167 782.769,-243.5307 778.6954,-253.3111 785.6837,-253.7167"/>
</g>
<!-- Node37 -->
<g id="node37" class="node">
<title>Node37</title>
<g id="a_node37"><a xlink:href="client_8h.html" target="_top" xlink:title=" ">
<polygon fill="#ffffff" stroke="#000000" points="931.2507,-336.5 931.2507,-355.5 978.2507,-355.5 978.2507,-336.5 931.2507,-336.5"/>
<text text-anchor="middle" x="954.7507" y="-343.5" font-family="Helvetica,sans-Serif" font-size="10.00" fill="#000000">client.h</text>
</a>
</g>
</g>
<!-- Node31&#45;&gt;Node37 -->
<g id="edge51" class="edge">
<title>Node31&#45;&gt;Node37</title>
<path fill="none" stroke="#191970" d="M930.8021,-392.2455C934.7526,-384.617 940.3604,-373.7881 945.1565,-364.5267"/>
<polygon fill="#191970" stroke="#191970" points="948.2666,-366.1321 949.7572,-355.6427 942.0506,-362.9131 948.2666,-366.1321"/>
</g>
<!-- Node35&#45;&gt;Node15 -->
<g id="edge47" class="edge">
<title>Node35&#45;&gt;Node15</title>
<path fill="none" stroke="#191970" d="M877.7507,-168.2455C877.7507,-160.9382 877.7507,-150.6944 877.7507,-141.7046"/>
<polygon fill="#191970" stroke="#191970" points="881.2508,-141.6426 877.7507,-131.6427 874.2508,-141.6427 881.2508,-141.6426"/>
</g>
<!-- Node35&#45;&gt;Node22 -->
<g id="edge46" class="edge">
<title>Node35&#45;&gt;Node22</title>
<path fill="none" stroke="#191970" d="M860.6804,-168.2455C845.5037,-159.5731 823.0886,-146.7645 805.6944,-136.825"/>
<polygon fill="#191970" stroke="#191970" points="807.0443,-133.5653 796.6254,-131.6427 803.5713,-139.643 807.0443,-133.5653"/>
</g>
<!-- Node36&#45;&gt;Node22 -->
<g id="edge50" class="edge">
<title>Node36&#45;&gt;Node22</title>
<path fill="none" stroke="#191970" d="M783.4097,-224.4509C782.7573,-206.184 781.3205,-165.9553 780.4542,-141.6976"/>
<polygon fill="#191970" stroke="#191970" points="783.9457,-141.3936 780.0909,-131.5249 776.9501,-141.6435 783.9457,-141.3936"/>
</g>
<!-- Node37&#45;&gt;Node4 -->
<g id="edge57" class="edge">
<title>Node37&#45;&gt;Node4</title>
<path fill="none" stroke="#191970" d="M931.0677,-343.9934C861.2024,-337.9161 656.8412,-318.9628 592.7507,-300 551.3086,-287.7383 506.848,-264.1709 480.1748,-248.7705"/>
<polygon fill="#191970" stroke="#191970" points="481.9133,-245.7326 471.5161,-243.6957 478.3737,-251.7718 481.9133,-245.7326"/>
</g>
<!-- Node37&#45;&gt;Node10 -->
<g id="edge58" class="edge">
<title>Node37&#45;&gt;Node10</title>
<path fill="none" stroke="#191970" d="M968.5559,-336.3994C979.2954,-328.0997 993.5438,-315.0817 1000.7507,-300 1016.5994,-266.8339 1016.9882,-222.9439 1015.5583,-197.8593"/>
<polygon fill="#191970" stroke="#191970" points="1019.0402,-197.4823 1014.8224,-187.7632 1012.0588,-197.9912 1019.0402,-197.4823"/>
</g>
<!-- Node37&#45;&gt;Node20 -->
<g id="edge59" class="edge">
<title>Node37&#45;&gt;Node20</title>
<path fill="none" stroke="#191970" d="M946.5667,-336.2465C924.2459,-309.8912 862.1545,-238.2724 834.7507,-224 751.9662,-180.8843 717.6853,-204.596 621.2242,-187.9293"/>
<polygon fill="#191970" stroke="#191970" points="621.8438,-184.4846 611.3768,-186.126 620.5828,-191.3701 621.8438,-184.4846"/>
</g>
<!-- Node37&#45;&gt;Node26 -->
<g id="edge60" class="edge">
<title>Node37&#45;&gt;Node26</title>
<path fill="none" stroke="#191970" d="M931.0179,-341.9726C872.9418,-332.1173 723.5925,-306.7731 657.2932,-295.5224"/>
<polygon fill="#191970" stroke="#191970" points="657.837,-292.0647 647.3923,-293.8422 656.6658,-298.966 657.837,-292.0647"/>
</g>
<!-- Node38 -->
<g id="node38" class="node">
<title>Node38</title>
<g id="a_node38"><a xlink:title=" ">
<polygon fill="#ffffff" stroke="#bfbfbf" points="1047.7507,-280.5 1047.7507,-299.5 1121.7507,-299.5 1121.7507,-280.5 1047.7507,-280.5"/>
<text text-anchor="middle" x="1084.7507" y="-287.5" font-family="Helvetica,sans-Serif" font-size="10.00" fill="#000000">QTcpSocket</text>
</a>
</g>
</g>
<!-- Node37&#45;&gt;Node38 -->
<g id="edge52" class="edge">
<title>Node37&#45;&gt;Node38</title>
<path fill="none" stroke="#191970" d="M977.0985,-336.3733C998.1541,-327.3032 1029.9003,-313.6279 1053.4682,-303.4755"/>
<polygon fill="#191970" stroke="#191970" points="1054.8951,-306.6719 1062.6945,-299.5011 1052.1257,-300.243 1054.8951,-306.6719"/>
</g>
<!-- Node39 -->
<g id="node39" class="node">
<title>Node39</title>
<g id="a_node39"><a xlink:title=" ">
<polygon fill="#ffffff" stroke="#bfbfbf" points="1140.2507,-280.5 1140.2507,-299.5 1193.2507,-299.5 1193.2507,-280.5 1140.2507,-280.5"/>
<text text-anchor="middle" x="1166.7507" y="-287.5" font-family="Helvetica,sans-Serif" font-size="10.00" fill="#000000">QObject</text>
</a>
</g>
</g>
<!-- Node37&#45;&gt;Node39 -->
<g id="edge53" class="edge">
<title>Node37&#45;&gt;Node39</title>
<path fill="none" stroke="#191970" d="M978.5044,-338.6544C981.6082,-337.738 984.7509,-336.8316 987.7507,-336 1047.9469,-319.3124 1065.7462,-316.9677 1130.1786,-300.0971"/>
<polygon fill="#191970" stroke="#191970" points="1131.2565,-303.4326 1140.034,-297.4991 1129.4722,-296.6638 1131.2565,-303.4326"/>
</g>
<!-- Node40 -->
<g id="node40" class="node">
<title>Node40</title>
<g id="a_node40"><a xlink:title=" ">
<polygon fill="#ffffff" stroke="#bfbfbf" points="1211.7507,-280.5 1211.7507,-299.5 1269.7507,-299.5 1269.7507,-280.5 1211.7507,-280.5"/>
<text text-anchor="middle" x="1240.7507" y="-287.5" font-family="Helvetica,sans-Serif" font-size="10.00" fill="#000000">QThread</text>
</a>
</g>
</g>
<!-- Node37&#45;&gt;Node40 -->
<g id="edge54" class="edge">
<title>Node37&#45;&gt;Node40</title>
<path fill="none" stroke="#191970" d="M978.4451,-338.4225C981.5586,-337.544 984.7198,-336.7099 987.7507,-336 1078.9515,-314.6393 1106.228,-319.9532 1201.314,-300.1505"/>
<polygon fill="#191970" stroke="#191970" points="1202.3006,-303.5191 1211.3561,-298.0192 1200.8473,-296.6717 1202.3006,-303.5191"/>
</g>
<!-- Node41 -->
<g id="node41" class="node">
<title>Node41</title>
<g id="a_node41"><a xlink:title=" ">
<polygon fill="#ffffff" stroke="#bfbfbf" points="926.2507,-280.5 926.2507,-299.5 991.2507,-299.5 991.2507,-280.5 926.2507,-280.5"/>
<text text-anchor="middle" x="958.7507" y="-287.5" font-family="Helvetica,sans-Serif" font-size="10.00" fill="#000000">QStringList</text>
</a>
</g>
</g>
<!-- Node37&#45;&gt;Node41 -->
<g id="edge55" class="edge">
<title>Node37&#45;&gt;Node41</title>
<path fill="none" stroke="#191970" d="M955.4475,-336.2455C955.9694,-328.9382 956.7011,-318.6944 957.3432,-309.7046"/>
<polygon fill="#191970" stroke="#191970" points="960.8405,-309.8667 958.062,-299.6427 953.8583,-309.3679 960.8405,-309.8667"/>
</g>
<!-- Node42 -->
<g id="node42" class="node">
<title>Node42</title>
<g id="a_node42"><a xlink:title=" ">
<polygon fill="#ffffff" stroke="#bfbfbf" points="1382.7507,-112.5 1382.7507,-131.5 1432.7507,-131.5 1432.7507,-112.5 1382.7507,-112.5"/>
<text text-anchor="middle" x="1407.7507" y="-119.5" font-family="Helvetica,sans-Serif" font-size="10.00" fill="#000000">QString</text>
</a>
</g>
</g>
<!-- Node37&#45;&gt;Node42 -->
<g id="edge56" class="edge">
<title>Node37&#45;&gt;Node42</title>
<path fill="none" stroke="#191970" d="M978.4136,-338.2802C981.5323,-337.4249 984.7033,-336.6352 987.7507,-336 1054.9953,-321.9846 1236.5875,-336.542 1294.7507,-300 1354.8377,-262.2494 1388.7217,-179.5965 1401.6305,-141.6972"/>
<polygon fill="#191970" stroke="#191970" points="1405.0631,-142.4609 1404.8452,-131.8683 1398.4099,-140.2848 1405.0631,-142.4609"/>
</g>
<!-- Node37&#45;&gt;Node43 -->
<g id="edge61" class="edge">
<title>Node37&#45;&gt;Node43</title>
<path fill="none" stroke="#191970" d="M978.4175,-338.2986C981.5355,-337.4403 984.7053,-336.6448 987.7507,-336 1051.497,-322.5022 1235.5969,-348.8214 1278.7507,-300 1294.2891,-282.4208 1270.2194,-262.1407 1248.5268,-248.7509"/>
<polygon fill="#191970" stroke="#191970" points="1250.2019,-245.6758 1239.8057,-243.6339 1246.6595,-251.7133 1250.2019,-245.6758"/>
</g>
<!-- Node43&#45;&gt;Node10 -->
<g id="edge66" class="edge">
<title>Node43&#45;&gt;Node10</title>
<path fill="none" stroke="#191970" d="M1185.1661,-224.3733C1147.9208,-214.2972 1089.6673,-198.5378 1051.5972,-188.2387"/>
<polygon fill="#191970" stroke="#191970" points="1052.4712,-184.8494 1041.9042,-185.6164 1050.6431,-191.6065 1052.4712,-184.8494"/>
</g>
<!-- Node43&#45;&gt;Node15 -->
<g id="edge64" class="edge">
<title>Node43&#45;&gt;Node15</title>
<path fill="none" stroke="#191970" d="M1198.4871,-224.4458C1166.2779,-210.8333 1104.6321,-185.5634 1050.7507,-168 1010.1416,-154.7629 963.2745,-142.4809 928.5725,-133.9436"/>
<polygon fill="#191970" stroke="#191970" points="929.214,-130.4975 918.6693,-131.5275 927.5548,-137.298 929.214,-130.4975"/>
</g>
<!-- Node43&#45;&gt;Node20 -->
<g id="edge65" class="edge">
<title>Node43&#45;&gt;Node20</title>
<path fill="none" stroke="#191970" d="M1179.4337,-232.7894C1083.2667,-229.5527 836.9111,-218.8462 621.2474,-187.869"/>
<polygon fill="#191970" stroke="#191970" points="621.7256,-184.4018 611.326,-186.4263 620.7182,-191.3289 621.7256,-184.4018"/>
</g>
<!-- Node43&#45;&gt;Node22 -->
<g id="edge62" class="edge">
<title>Node43&#45;&gt;Node22</title>
<path fill="none" stroke="#191970" d="M1179.5487,-233.2435C1091.3895,-230.9779 887.6918,-222.0995 828.7507,-188 810.1058,-177.2133 796.4132,-156.2028 788.3147,-140.7742"/>
<polygon fill="#191970" stroke="#191970" points="791.359,-139.0336 783.8047,-131.605 785.0777,-142.1231 791.359,-139.0336"/>
</g>
<!-- Node44 -->
<g id="node44" class="node">
<title>Node44</title>
<g id="a_node44"><a xlink:title=" ">
<polygon fill="#ffffff" stroke="#bfbfbf" points="1287.2507,-112.5 1287.2507,-131.5 1326.2507,-131.5 1326.2507,-112.5 1287.2507,-112.5"/>
<text text-anchor="middle" x="1306.7507" y="-119.5" font-family="Helvetica,sans-Serif" font-size="10.00" fill="#000000">QList</text>
</a>
</g>
</g>
<!-- Node43&#45;&gt;Node44 -->
<g id="edge63" class="edge">
<title>Node43&#45;&gt;Node44</title>
<path fill="none" stroke="#191970" d="M1241.8052,-224.4265C1256.6997,-216.6271 1276.0325,-204.2514 1287.7507,-188 1297.5457,-174.4159 1302.3119,-155.8708 1304.619,-141.8972"/>
<polygon fill="#191970" stroke="#191970" points="1308.1054,-142.2347 1305.9912,-131.853 1301.1698,-141.2872 1308.1054,-142.2347"/>
</g>
<!-- Node45 -->
<g id="node45" class="node">
<title>Node45</title>
<g id="a_node45"><a xlink:href="point_8h.html" target="_top" xlink:title=" ">
<polygon fill="#ffffff" stroke="#000000" points="1236.2507,-56.5 1236.2507,-75.5 1281.2507,-75.5 1281.2507,-56.5 1236.2507,-56.5"/>
<text text-anchor="middle" x="1258.7507" y="-63.5" font-family="Helvetica,sans-Serif" font-size="10.00" fill="#000000">point.h</text>
</a>
</g>
</g>
<!-- Node43&#45;&gt;Node45 -->
<g id="edge67" class="edge">
<title>Node43&#45;&gt;Node45</title>
<path fill="none" stroke="#191970" d="M1247.8625,-224.4554C1266.2863,-216.8747 1290.2197,-204.7529 1306.7507,-188 1326.4371,-168.0494 1329.1179,-159.2321 1335.7507,-132 1337.8543,-123.3636 1340.1377,-119.7309 1335.7507,-112 1326.1142,-95.018 1307.4446,-83.6359 1290.9028,-76.4421"/>
<polygon fill="#191970" stroke="#191970" points="1292.0782,-73.1427 1281.4934,-72.6799 1289.4793,-79.6424 1292.0782,-73.1427"/>
</g>
<!-- Node46 -->
<g id="node46" class="node">
<title>Node46</title>
<g id="a_node46"><a xlink:href="animationmovement_8h.html" target="_top" xlink:title=" ">
<polygon fill="#ffffff" stroke="#000000" points="1163.2507,-168.5 1163.2507,-187.5 1278.2507,-187.5 1278.2507,-168.5 1163.2507,-168.5"/>
<text text-anchor="middle" x="1220.7507" y="-175.5" font-family="Helvetica,sans-Serif" font-size="10.00" fill="#000000">animationmovement.h</text>
</a>
</g>
</g>
<!-- Node43&#45;&gt;Node46 -->
<g id="edge68" class="edge">
<title>Node43&#45;&gt;Node46</title>
<path fill="none" stroke="#191970" d="M1220.7507,-224.2455C1220.7507,-216.9382 1220.7507,-206.6944 1220.7507,-197.7046"/>
<polygon fill="#191970" stroke="#191970" points="1224.2508,-197.6426 1220.7507,-187.6427 1217.2508,-197.6427 1224.2508,-197.6426"/>
</g>
<!-- Node46&#45;&gt;Node11 -->
<g id="edge75" class="edge">
<title>Node46&#45;&gt;Node11</title>
<path fill="none" stroke="#191970" d="M1193.5895,-168.3733C1167.544,-159.1419 1128.0391,-145.1402 1099.2529,-134.9375"/>
<polygon fill="#191970" stroke="#191970" points="1100.1522,-131.5429 1089.5575,-131.5011 1097.8137,-138.1408 1100.1522,-131.5429"/>
</g>
<!-- Node46&#45;&gt;Node42 -->
<g id="edge74" class="edge">
<title>Node46&#45;&gt;Node42</title>
<path fill="none" stroke="#191970" d="M1252.8972,-168.3733C1286.3526,-158.3545 1338.5713,-142.7168 1372.9725,-132.4149"/>
<polygon fill="#191970" stroke="#191970" points="1374.0283,-135.7523 1382.6039,-129.5306 1372.0201,-129.0466 1374.0283,-135.7523"/>
</g>
<!-- Node46&#45;&gt;Node44 -->
<g id="edge73" class="edge">
<title>Node46&#45;&gt;Node44</title>
<path fill="none" stroke="#191970" d="M1235.7308,-168.2455C1248.9258,-159.6534 1268.3558,-147.0014 1283.5587,-137.1018"/>
<polygon fill="#191970" stroke="#191970" points="1285.4722,-140.0325 1291.9423,-131.6427 1281.6525,-134.1665 1285.4722,-140.0325"/>
</g>
<!-- Node46&#45;&gt;Node45 -->
<g id="edge69" class="edge">
<title>Node46&#45;&gt;Node45</title>
<path fill="none" stroke="#191970" d="M1225.1488,-168.2518C1229.2232,-159.0233 1235.3064,-144.7255 1239.7507,-132 1245.1564,-116.5217 1250.2364,-98.6304 1253.7812,-85.3834"/>
<polygon fill="#191970" stroke="#191970" points="1257.221,-86.064 1256.3711,-75.5033 1250.4497,-84.2889 1257.221,-86.064"/>
</g>
<!-- Node47 -->
<g id="node47" class="node">
<title>Node47</title>
<g id="a_node47"><a xlink:href="animationentity_8h.html" target="_top" xlink:title=" ">
<polygon fill="#ffffff" stroke="#000000" points="1139.2507,-112.5 1139.2507,-131.5 1230.2507,-131.5 1230.2507,-112.5 1139.2507,-112.5"/>
<text text-anchor="middle" x="1184.7507" y="-119.5" font-family="Helvetica,sans-Serif" font-size="10.00" fill="#000000">animationentity.h</text>
</a>
</g>
</g>
<!-- Node46&#45;&gt;Node47 -->
<g id="edge70" class="edge">
<title>Node46&#45;&gt;Node47</title>
<path fill="none" stroke="#191970" d="M1214.48,-168.2455C1209.5243,-160.5367 1202.4677,-149.5598 1196.4731,-140.2348"/>
<polygon fill="#191970" stroke="#191970" points="1199.3013,-138.1618 1190.9496,-131.6427 1193.4131,-141.9471 1199.3013,-138.1618"/>
</g>
<!-- Node47&#45;&gt;Node17 -->
<g id="edge71" class="edge">
<title>Node47&#45;&gt;Node17</title>
<path fill="none" stroke="#191970" d="M1171.6867,-112.2455C1160.3945,-103.814 1143.8662,-91.4729 1130.7236,-81.6598"/>
<polygon fill="#191970" stroke="#191970" points="1132.7719,-78.8211 1122.665,-75.6427 1128.5838,-84.4301 1132.7719,-78.8211"/>
</g>
<!-- Node47&#45;&gt;Node45 -->
<g id="edge72" class="edge">
<title>Node47&#45;&gt;Node45</title>
<path fill="none" stroke="#191970" d="M1197.6405,-112.2455C1208.6761,-103.8943 1224.7799,-91.7076 1237.6861,-81.9408"/>
<polygon fill="#191970" stroke="#191970" points="1240.1466,-84.4681 1246.0086,-75.6427 1235.9225,-78.8862 1240.1466,-84.4681"/>
</g>
</g>
</svg>
