<?xml version="1.0" encoding="UTF-8" standalone="no"?>
<!DOCTYPE svg PUBLIC "-//W3C//DTD SVG 1.1//EN"
 "http://www.w3.org/Graphics/SVG/1.1/DTD/svg11.dtd">
<!-- Generated by graphviz version 2.40.1 (20161225.0304)
 -->
<!-- Title: src/application_server/menubar.h Pages: 1 -->
<!--zoomable 375 -->
<svg id="main" version="1.1" xmlns="http://www.w3.org/2000/svg" xmlns:xlink="http://www.w3.org/1999/xlink" xml:space="preserve" onload="init(evt)">
<style type="text/css"><![CDATA[
.edge:hover path { stroke: red; }
.edge:hover polygon { stroke: red; fill: red; }
]]></style>
<script type="text/javascript"><![CDATA[
var edges = document.getElementsByTagName('g');
if (edges && edges.length) {
  for (var i=0;i<edges.length;i++) {
    if (edges[i].id.substr(0,4)=='edge') {
      edges[i].setAttribute('class','edge');
    }
  }
}
]]></script>
        <defs>
                <circle id="rim" cx="0" cy="0" r="7"/>
                <circle id="rim2" cx="0" cy="0" r="3.5"/>
                <g id="zoomPlus">
                        <use xlink:href="#rim" fill="#404040">
                                <set attributeName="fill" to="#808080" begin="zoomplus.mouseover" end="zoomplus.mouseout"/>
                        </use>
                        <path d="M-4,0h8M0,-4v8" fill="none" stroke="white" stroke-width="1.5" pointer-events="none"/>
                </g>
                <g id="zoomMin">
                        <use xlink:href="#rim" fill="#404040">
                                <set attributeName="fill" to="#808080" begin="zoomminus.mouseover" end="zoomminus.mouseout"/>
                        </use>
                        <path d="M-4,0h8" fill="none" stroke="white" stroke-width="1.5" pointer-events="none"/>
                </g>
                <g id="dirArrow">
                        <path fill="none" stroke="white" stroke-width="1.5" d="M0,-3.0v7 M-2.5,-0.5L0,-3.0L2.5,-0.5"/>
                </g>
               <g id="resetDef">
                       <use xlink:href="#rim2" fill="#404040">
                               <set attributeName="fill" to="#808080" begin="reset.mouseover" end="reset.mouseout"/>
                       </use>
               </g>
        </defs>

<script type="text/javascript">
var viewWidth = 1204;
var viewHeight = 375;
var sectionId = 'dynsection-0';
</script>
<script xlink:href="svgpan.js"/>
<svg id="graph" class="graph">
<g id="viewport">
<title>src/application_server/menubar.h</title>
<polygon fill="#ffffff" stroke="transparent" points="-4,4 -4,-371 1200,-371 1200,4 -4,4"/>
<!-- Node1 -->
<g id="node1" class="node">
<title>Node1</title>
<g id="a_node1"><a xlink:title=" ">
<polygon fill="#bfbfbf" stroke="#000000" points="580.5,-336.5 580.5,-366.5 695.5,-366.5 695.5,-336.5 580.5,-336.5"/>
<text text-anchor="start" x="588.5" y="-354.5" font-family="Helvetica,sans-Serif" font-size="10.00" fill="#000000">src/application_server</text>
<text text-anchor="middle" x="638" y="-343.5" font-family="Helvetica,sans-Serif" font-size="10.00" fill="#000000">/menubar.h</text>
</a>
</g>
</g>
<!-- Node2 -->
<g id="node2" class="node">
<title>Node2</title>
<g id="a_node2"><a xlink:title=" ">
<polygon fill="#ffffff" stroke="#bfbfbf" points="437,-280.5 437,-299.5 499,-299.5 499,-280.5 437,-280.5"/>
<text text-anchor="middle" x="468" y="-287.5" font-family="Helvetica,sans-Serif" font-size="10.00" fill="#000000">QToolBar</text>
</a>
</g>
</g>
<!-- Node1&#45;&gt;Node2 -->
<g id="edge1" class="edge">
<title>Node1&#45;&gt;Node2</title>
<path fill="none" stroke="#191970" d="M596.4133,-336.4554C568.0484,-326.194 530.8667,-312.7429 503.8164,-302.9571"/>
<polygon fill="#191970" stroke="#191970" points="504.9382,-299.641 494.344,-299.5303 502.5569,-306.2235 504.9382,-299.641"/>
</g>
<!-- Node3 -->
<g id="node3" class="node">
<title>Node3</title>
<g id="a_node3"><a xlink:title=" ">
<polygon fill="#ffffff" stroke="#bfbfbf" points="517,-280.5 517,-299.5 591,-299.5 591,-280.5 517,-280.5"/>
<text text-anchor="middle" x="554" y="-287.5" font-family="Helvetica,sans-Serif" font-size="10.00" fill="#000000">QInputDialog</text>
</a>
</g>
</g>
<!-- Node1&#45;&gt;Node3 -->
<g id="edge2" class="edge">
<title>Node1&#45;&gt;Node3</title>
<path fill="none" stroke="#191970" d="M617.2359,-336.2977C604.6042,-327.0495 588.4947,-315.2551 575.6969,-305.8853"/>
<polygon fill="#191970" stroke="#191970" points="577.5857,-302.9303 567.4495,-299.8469 573.4505,-308.5784 577.5857,-302.9303"/>
</g>
<!-- Node4 -->
<g id="node4" class="node">
<title>Node4</title>
<g id="a_node4"><a xlink:href="scene_8h.html" target="_top" xlink:title=" ">
<polygon fill="#ffffff" stroke="#000000" points="368,-224.5 368,-243.5 420,-243.5 420,-224.5 368,-224.5"/>
<text text-anchor="middle" x="394" y="-231.5" font-family="Helvetica,sans-Serif" font-size="10.00" fill="#000000">scene.h</text>
</a>
</g>
</g>
<!-- Node1&#45;&gt;Node4 -->
<g id="edge3" class="edge">
<title>Node1&#45;&gt;Node4</title>
<path fill="none" stroke="#191970" d="M634.0952,-336.4454C629.0299,-320.0063 618.5628,-294.1407 600,-280 573.6831,-259.9525 482.0111,-245.301 430.2675,-238.4068"/>
<polygon fill="#191970" stroke="#191970" points="430.5443,-234.9134 420.1761,-237.0931 429.6406,-241.8548 430.5443,-234.9134"/>
</g>
<!-- Node20 -->
<g id="node20" class="node">
<title>Node20</title>
<g id="a_node20"><a xlink:href="datamodel_8h.html" target="_top" xlink:title=" ">
<polygon fill="#ffffff" stroke="#000000" points="694.5,-168.5 694.5,-187.5 767.5,-187.5 767.5,-168.5 694.5,-168.5"/>
<text text-anchor="middle" x="731" y="-175.5" font-family="Helvetica,sans-Serif" font-size="10.00" fill="#000000">datamodel.h</text>
</a>
</g>
</g>
<!-- Node1&#45;&gt;Node20 -->
<g id="edge36" class="edge">
<title>Node1&#45;&gt;Node20</title>
<path fill="none" stroke="#191970" d="M646.0905,-336.4065C663.064,-304.7408 702.3545,-231.4408 720.9272,-196.7918"/>
<polygon fill="#191970" stroke="#191970" points="724.1406,-198.2052 725.7802,-187.738 717.971,-194.8981 724.1406,-198.2052"/>
</g>
<!-- Node28 -->
<g id="node28" class="node">
<title>Node28</title>
<g id="a_node28"><a xlink:href="view_8h.html" target="_top" xlink:title=" ">
<polygon fill="#ffffff" stroke="#000000" points="685.5,-280.5 685.5,-299.5 730.5,-299.5 730.5,-280.5 685.5,-280.5"/>
<text text-anchor="middle" x="708" y="-287.5" font-family="Helvetica,sans-Serif" font-size="10.00" fill="#000000">view.h</text>
</a>
</g>
</g>
<!-- Node1&#45;&gt;Node28 -->
<g id="edge37" class="edge">
<title>Node1&#45;&gt;Node28</title>
<path fill="none" stroke="#191970" d="M655.3034,-336.2977C665.5262,-327.3163 678.4823,-315.9334 688.9896,-306.702"/>
<polygon fill="#191970" stroke="#191970" points="691.5897,-309.0766 696.7921,-299.8469 686.9695,-303.8178 691.5897,-309.0766"/>
</g>
<!-- Node31 -->
<g id="node31" class="node">
<title>Node31</title>
<g id="a_node31"><a xlink:href="routeinterface_8h.html" target="_top" xlink:title=" ">
<polygon fill="#ffffff" stroke="#000000" points="921.5,-224.5 921.5,-243.5 1006.5,-243.5 1006.5,-224.5 921.5,-224.5"/>
<text text-anchor="middle" x="964" y="-231.5" font-family="Helvetica,sans-Serif" font-size="10.00" fill="#000000">routeinterface.h</text>
</a>
</g>
</g>
<!-- Node1&#45;&gt;Node31 -->
<g id="edge42" class="edge">
<title>Node1&#45;&gt;Node31</title>
<path fill="none" stroke="#191970" d="M679.6193,-336.4992C744.0087,-313.2914 866.6973,-269.0708 927.6964,-247.0849"/>
<polygon fill="#191970" stroke="#191970" points="929.0688,-250.3107 937.2896,-243.6272 926.6952,-243.7254 929.0688,-250.3107"/>
</g>
<!-- Node5 -->
<g id="node5" class="node">
<title>Node5</title>
<g id="a_node5"><a xlink:title=" ">
<polygon fill="#ffffff" stroke="#bfbfbf" points="582,-168.5 582,-187.5 676,-187.5 676,-168.5 582,-168.5"/>
<text text-anchor="middle" x="629" y="-175.5" font-family="Helvetica,sans-Serif" font-size="10.00" fill="#000000">QGraphicsScene</text>
</a>
</g>
</g>
<!-- Node4&#45;&gt;Node5 -->
<g id="edge4" class="edge">
<title>Node4&#45;&gt;Node5</title>
<path fill="none" stroke="#191970" d="M420.047,-227.7931C458.3143,-218.674 530.4501,-201.4842 579.1203,-189.8862"/>
<polygon fill="#191970" stroke="#191970" points="580.2129,-193.2239 589.1292,-187.5011 578.5902,-186.4146 580.2129,-193.2239"/>
</g>
<!-- Node6 -->
<g id="node6" class="node">
<title>Node6</title>
<g id="a_node6"><a xlink:title=" ">
<polygon fill="#ffffff" stroke="#bfbfbf" points="0,-168.5 0,-187.5 104,-187.5 104,-168.5 0,-168.5"/>
<text text-anchor="middle" x="52" y="-175.5" font-family="Helvetica,sans-Serif" font-size="10.00" fill="#000000">QGraphicsTextItem</text>
</a>
</g>
</g>
<!-- Node4&#45;&gt;Node6 -->
<g id="edge5" class="edge">
<title>Node4&#45;&gt;Node6</title>
<path fill="none" stroke="#191970" d="M367.6559,-229.6895C319.4986,-221.8094 213.7702,-204.5068 114.1705,-188.1915"/>
<polygon fill="#191970" stroke="#191970" points="114.6776,-184.728 104.2433,-186.5653 113.5459,-191.6359 114.6776,-184.728"/>
</g>
<!-- Node7 -->
<g id="node7" class="node">
<title>Node7</title>
<g id="a_node7"><a xlink:title=" ">
<polygon fill="#ffffff" stroke="#bfbfbf" points="122.5,-168.5 122.5,-187.5 205.5,-187.5 205.5,-168.5 122.5,-168.5"/>
<text text-anchor="middle" x="164" y="-175.5" font-family="Helvetica,sans-Serif" font-size="10.00" fill="#000000">QGraphicsItem</text>
</a>
</g>
</g>
<!-- Node4&#45;&gt;Node7 -->
<g id="edge6" class="edge">
<title>Node4&#45;&gt;Node7</title>
<path fill="none" stroke="#191970" d="M367.6161,-227.5761C329.9415,-218.4031 260.071,-201.3912 212.8114,-189.8845"/>
<polygon fill="#191970" stroke="#191970" points="213.6338,-186.4826 203.0896,-187.5175 211.9778,-193.2839 213.6338,-186.4826"/>
</g>
<!-- Node8 -->
<g id="node8" class="node">
<title>Node8</title>
<g id="a_node8"><a xlink:title=" ">
<polygon fill="#ffffff" stroke="#bfbfbf" points="214,-.5 214,-19.5 318,-19.5 318,-.5 214,-.5"/>
<text text-anchor="middle" x="266" y="-7.5" font-family="Helvetica,sans-Serif" font-size="10.00" fill="#000000">QGraphicsRectItem</text>
</a>
</g>
</g>
<!-- Node4&#45;&gt;Node8 -->
<g id="edge7" class="edge">
<title>Node4&#45;&gt;Node8</title>
<path fill="none" stroke="#191970" d="M367.7807,-226.7879C346.9904,-219.8742 318.4568,-207.5552 300,-188 262.9467,-148.7416 263.654,-128.9213 253,-76 249.8355,-60.2812 253.8046,-42.439 258.1658,-29.2723"/>
<polygon fill="#191970" stroke="#191970" points="261.4658,-30.4388 261.6187,-19.8451 254.8929,-28.0313 261.4658,-30.4388"/>
</g>
<!-- Node9 -->
<g id="node9" class="node">
<title>Node9</title>
<g id="a_node9"><a xlink:title=" ">
<polygon fill="#ffffff" stroke="#bfbfbf" points="450.5,-168.5 450.5,-187.5 563.5,-187.5 563.5,-168.5 450.5,-168.5"/>
<text text-anchor="middle" x="507" y="-175.5" font-family="Helvetica,sans-Serif" font-size="10.00" fill="#000000">QGraphicsEllipseItem</text>
</a>
</g>
</g>
<!-- Node4&#45;&gt;Node9 -->
<g id="edge8" class="edge">
<title>Node4&#45;&gt;Node9</title>
<path fill="none" stroke="#191970" d="M413.4254,-224.3733C431.4021,-215.4644 458.3441,-202.1127 478.709,-192.0203"/>
<polygon fill="#191970" stroke="#191970" points="480.4222,-195.0776 487.8281,-187.5011 477.3139,-188.8055 480.4222,-195.0776"/>
</g>
<!-- Node10 -->
<g id="node10" class="node">
<title>Node10</title>
<g id="a_node10"><a xlink:href="maptile_8h.html" target="_top" xlink:title=" ">
<polygon fill="#ffffff" stroke="#000000" points="338,-168.5 338,-187.5 394,-187.5 394,-168.5 338,-168.5"/>
<text text-anchor="middle" x="366" y="-175.5" font-family="Helvetica,sans-Serif" font-size="10.00" fill="#000000">maptile.h</text>
</a>
</g>
</g>
<!-- Node4&#45;&gt;Node10 -->
<g id="edge9" class="edge">
<title>Node4&#45;&gt;Node10</title>
<path fill="none" stroke="#191970" d="M389.1228,-224.2455C385.3487,-216.6973 380.0079,-206.0158 375.4099,-196.8197"/>
<polygon fill="#191970" stroke="#191970" points="378.424,-195.0217 370.8213,-187.6427 372.163,-198.1522 378.424,-195.0217"/>
</g>
<!-- Node15 -->
<g id="node15" class="node">
<title>Node15</title>
<g id="a_node15"><a xlink:href="graphicsmanager_8h.html" target="_top" xlink:title=" ">
<polygon fill="#ffffff" stroke="#000000" points="519.5,-112.5 519.5,-131.5 622.5,-131.5 622.5,-112.5 519.5,-112.5"/>
<text text-anchor="middle" x="571" y="-119.5" font-family="Helvetica,sans-Serif" font-size="10.00" fill="#000000">graphicsmanager.h</text>
</a>
</g>
</g>
<!-- Node4&#45;&gt;Node15 -->
<g id="edge18" class="edge">
<title>Node4&#45;&gt;Node15</title>
<path fill="none" stroke="#191970" d="M398.6219,-224.0335C405.7597,-209.6802 420.7825,-183.2435 441,-168 462.0855,-152.1021 489.1352,-141.3642 513.0949,-134.2911"/>
<polygon fill="#191970" stroke="#191970" points="514.1137,-137.6406 522.7986,-131.5724 512.2252,-130.9001 514.1137,-137.6406"/>
</g>
<!-- Node18 -->
<g id="node18" class="node">
<title>Node18</title>
<g id="a_node18"><a xlink:href="player_8h.html" target="_top" xlink:title=" ">
<polygon fill="#ffffff" stroke="#000000" points="300,-112.5 300,-131.5 352,-131.5 352,-112.5 300,-112.5"/>
<text text-anchor="middle" x="326" y="-119.5" font-family="Helvetica,sans-Serif" font-size="10.00" fill="#000000">player.h</text>
</a>
</g>
</g>
<!-- Node4&#45;&gt;Node18 -->
<g id="edge19" class="edge">
<title>Node4&#45;&gt;Node18</title>
<path fill="none" stroke="#191970" d="M371.1326,-224.3604C356.3229,-216.8002 338.1495,-204.741 329,-188 321.3504,-174.0033 321.1263,-155.7377 322.5176,-141.9711"/>
<polygon fill="#191970" stroke="#191970" points="326.0409,-142.0421 323.9388,-131.6579 319.1064,-141.0865 326.0409,-142.0421"/>
</g>
<!-- Node19 -->
<g id="node19" class="node">
<title>Node19</title>
<g id="a_node19"><a xlink:href="highlighter_8h.html" target="_top" xlink:title=" ">
<polygon fill="#ffffff" stroke="#000000" points="262,-56.5 262,-75.5 332,-75.5 332,-56.5 262,-56.5"/>
<text text-anchor="middle" x="297" y="-63.5" font-family="Helvetica,sans-Serif" font-size="10.00" fill="#000000">highlighter.h</text>
</a>
</g>
</g>
<!-- Node4&#45;&gt;Node19 -->
<g id="edge22" class="edge">
<title>Node4&#45;&gt;Node19</title>
<path fill="none" stroke="#191970" d="M371.6908,-224.4345C355.4349,-216.5655 333.7629,-204.0988 319,-188 294.6707,-161.4691 288.6672,-147.9216 291,-112 291.5598,-103.3805 292.7036,-93.9095 293.8439,-85.8133"/>
<polygon fill="#191970" stroke="#191970" points="297.3185,-86.243 295.3414,-75.8343 290.396,-85.2041 297.3185,-86.243"/>
</g>
<!-- Node4&#45;&gt;Node20 -->
<g id="edge23" class="edge">
<title>Node4&#45;&gt;Node20</title>
<path fill="none" stroke="#191970" d="M420.1715,-230.376C469.6511,-223.4148 580.5088,-207.2958 684.3547,-188.0326"/>
<polygon fill="#191970" stroke="#191970" points="685.1934,-191.4366 694.3801,-186.1588 683.9073,-184.5557 685.1934,-191.4366"/>
</g>
<!-- Node11 -->
<g id="node11" class="node">
<title>Node11</title>
<g id="a_node11"><a xlink:title=" ">
<polygon fill="#ffffff" stroke="#bfbfbf" points="572.5,-.5 572.5,-19.5 689.5,-19.5 689.5,-.5 572.5,-.5"/>
<text text-anchor="middle" x="631" y="-7.5" font-family="Helvetica,sans-Serif" font-size="10.00" fill="#000000">QGraphicsPixmapItem</text>
</a>
</g>
</g>
<!-- Node10&#45;&gt;Node11 -->
<g id="edge10" class="edge">
<title>Node10&#45;&gt;Node11</title>
<path fill="none" stroke="#191970" d="M365.4716,-168.3867C364.7699,-145.301 366.4452,-86.3998 399,-56 422.299,-34.2432 502.679,-21.9565 562.3284,-15.6558"/>
<polygon fill="#191970" stroke="#191970" points="562.8648,-19.1194 572.4576,-14.6218 562.1538,-12.1556 562.8648,-19.1194"/>
</g>
<!-- Node12 -->
<g id="node12" class="node">
<title>Node12</title>
<g id="a_node12"><a xlink:href="city_8h.html" target="_top" xlink:title=" ">
<polygon fill="#ffffff" stroke="#000000" points="410.5,-112.5 410.5,-131.5 449.5,-131.5 449.5,-112.5 410.5,-112.5"/>
<text text-anchor="middle" x="430" y="-119.5" font-family="Helvetica,sans-Serif" font-size="10.00" fill="#000000">city.h</text>
</a>
</g>
</g>
<!-- Node10&#45;&gt;Node12 -->
<g id="edge11" class="edge">
<title>Node10&#45;&gt;Node12</title>
<path fill="none" stroke="#191970" d="M377.1479,-168.2455C386.5087,-160.0549 400.0858,-148.1749 411.1349,-138.5069"/>
<polygon fill="#191970" stroke="#191970" points="413.7588,-140.8618 418.9798,-131.6427 409.1492,-135.5937 413.7588,-140.8618"/>
</g>
<!-- Node10&#45;&gt;Node15 -->
<g id="edge14" class="edge">
<title>Node10&#45;&gt;Node15</title>
<path fill="none" stroke="#191970" d="M394.0745,-170.3309C428.1419,-161.0247 486.0074,-145.2175 526.2474,-134.2251"/>
<polygon fill="#191970" stroke="#191970" points="527.3488,-137.5526 536.073,-131.541 525.5041,-130.8 527.3488,-137.5526"/>
</g>
<!-- Node13 -->
<g id="node13" class="node">
<title>Node13</title>
<g id="a_node13"><a xlink:title=" ">
<polygon fill="#ffffff" stroke="#bfbfbf" points="470.5,-56.5 470.5,-75.5 511.5,-75.5 511.5,-56.5 470.5,-56.5"/>
<text text-anchor="middle" x="491" y="-63.5" font-family="Helvetica,sans-Serif" font-size="10.00" fill="#000000">string</text>
</a>
</g>
</g>
<!-- Node12&#45;&gt;Node13 -->
<g id="edge12" class="edge">
<title>Node12&#45;&gt;Node13</title>
<path fill="none" stroke="#191970" d="M440.6254,-112.2455C449.5473,-104.0549 462.488,-92.1749 473.0192,-82.5069"/>
<polygon fill="#191970" stroke="#191970" points="475.4968,-84.9837 480.4964,-75.6427 470.7629,-79.8271 475.4968,-84.9837"/>
</g>
<!-- Node14 -->
<g id="node14" class="node">
<title>Node14</title>
<g id="a_node14"><a xlink:title=" ">
<polygon fill="#ffffff" stroke="#bfbfbf" points="408,-56.5 408,-75.5 452,-75.5 452,-56.5 408,-56.5"/>
<text text-anchor="middle" x="430" y="-63.5" font-family="Helvetica,sans-Serif" font-size="10.00" fill="#000000">vector</text>
</a>
</g>
</g>
<!-- Node12&#45;&gt;Node14 -->
<g id="edge13" class="edge">
<title>Node12&#45;&gt;Node14</title>
<path fill="none" stroke="#191970" d="M430,-112.2455C430,-104.9382 430,-94.6944 430,-85.7046"/>
<polygon fill="#191970" stroke="#191970" points="433.5001,-85.6426 430,-75.6427 426.5001,-85.6427 433.5001,-85.6426"/>
</g>
<!-- Node15&#45;&gt;Node13 -->
<g id="edge17" class="edge">
<title>Node15&#45;&gt;Node13</title>
<path fill="none" stroke="#191970" d="M557.0651,-112.2455C544.9053,-103.7337 527.0536,-91.2375 512.9715,-81.3801"/>
<polygon fill="#191970" stroke="#191970" points="514.9747,-78.51 504.7752,-75.6427 510.9605,-84.2447 514.9747,-78.51"/>
</g>
<!-- Node16 -->
<g id="node16" class="node">
<title>Node16</title>
<g id="a_node16"><a xlink:title=" ">
<polygon fill="#ffffff" stroke="#bfbfbf" points="601,-56.5 601,-75.5 659,-75.5 659,-56.5 601,-56.5"/>
<text text-anchor="middle" x="630" y="-63.5" font-family="Helvetica,sans-Serif" font-size="10.00" fill="#000000">QPixmap</text>
</a>
</g>
</g>
<!-- Node15&#45;&gt;Node16 -->
<g id="edge15" class="edge">
<title>Node15&#45;&gt;Node16</title>
<path fill="none" stroke="#191970" d="M581.277,-112.2455C589.8218,-104.1352 602.1778,-92.4075 612.3085,-82.7919"/>
<polygon fill="#191970" stroke="#191970" points="614.9972,-85.0655 619.8408,-75.6427 610.1782,-79.9884 614.9972,-85.0655"/>
</g>
<!-- Node17 -->
<g id="node17" class="node">
<title>Node17</title>
<g id="a_node17"><a xlink:title=" ">
<polygon fill="#ffffff" stroke="#bfbfbf" points="529.5,-56.5 529.5,-75.5 582.5,-75.5 582.5,-56.5 529.5,-56.5"/>
<text text-anchor="middle" x="556" y="-63.5" font-family="Helvetica,sans-Serif" font-size="10.00" fill="#000000">QImage</text>
</a>
</g>
</g>
<!-- Node15&#45;&gt;Node17 -->
<g id="edge16" class="edge">
<title>Node15&#45;&gt;Node17</title>
<path fill="none" stroke="#191970" d="M568.3872,-112.2455C566.4084,-104.8579 563.6256,-94.4689 561.1988,-85.4087"/>
<polygon fill="#191970" stroke="#191970" points="564.5511,-84.3966 558.5829,-75.6427 557.7895,-86.2078 564.5511,-84.3966"/>
</g>
<!-- Node18&#45;&gt;Node19 -->
<g id="edge20" class="edge">
<title>Node18&#45;&gt;Node19</title>
<path fill="none" stroke="#191970" d="M320.9486,-112.2455C316.9981,-104.617 311.3903,-93.7881 306.5942,-84.5267"/>
<polygon fill="#191970" stroke="#191970" points="309.7001,-82.9131 301.9935,-75.6427 303.4841,-86.1321 309.7001,-82.9131"/>
</g>
<!-- Node19&#45;&gt;Node8 -->
<g id="edge21" class="edge">
<title>Node19&#45;&gt;Node8</title>
<path fill="none" stroke="#191970" d="M291.6002,-56.2455C287.3773,-48.617 281.3827,-37.7881 276.2559,-28.5267"/>
<polygon fill="#191970" stroke="#191970" points="279.2432,-26.6965 271.3379,-19.6427 273.119,-30.0867 279.2432,-26.6965"/>
</g>
<!-- Node20&#45;&gt;Node13 -->
<g id="edge24" class="edge">
<title>Node20&#45;&gt;Node13</title>
<path fill="none" stroke="#191970" d="M694.3496,-169.9939C691.1883,-169.315 688.0384,-168.6428 685,-168 607.3128,-151.5656 568.2796,-185.9339 510,-132 497.3079,-120.2543 492.8985,-100.6342 491.4607,-85.8316"/>
<polygon fill="#191970" stroke="#191970" points="494.9433,-85.4344 490.8524,-75.6613 487.9558,-85.8524 494.9433,-85.4344"/>
</g>
<!-- Node20&#45;&gt;Node18 -->
<g id="edge27" class="edge">
<title>Node20&#45;&gt;Node18</title>
<path fill="none" stroke="#191970" d="M694.3984,-169.7391C691.2265,-169.1156 688.0608,-168.5256 685,-168 559.6034,-146.4652 527.1699,-148.4078 401,-132 388.2789,-130.3457 374.3493,-128.4983 361.9844,-126.8459"/>
<polygon fill="#191970" stroke="#191970" points="362.4029,-123.3708 352.0267,-125.5123 361.4736,-130.3089 362.4029,-123.3708"/>
</g>
<!-- Node21 -->
<g id="node21" class="node">
<title>Node21</title>
<g id="a_node21"><a xlink:title=" ">
<polygon fill="#ffffff" stroke="#bfbfbf" points="647.5,-112.5 647.5,-131.5 696.5,-131.5 696.5,-112.5 647.5,-112.5"/>
<text text-anchor="middle" x="672" y="-119.5" font-family="Helvetica,sans-Serif" font-size="10.00" fill="#000000">QLabel</text>
</a>
</g>
</g>
<!-- Node20&#45;&gt;Node21 -->
<g id="edge25" class="edge">
<title>Node20&#45;&gt;Node21</title>
<path fill="none" stroke="#191970" d="M720.723,-168.2455C712.1782,-160.1352 699.8222,-148.4075 689.6915,-138.7919"/>
<polygon fill="#191970" stroke="#191970" points="691.8218,-135.9884 682.1592,-131.6427 687.0028,-141.0655 691.8218,-135.9884"/>
</g>
<!-- Node22 -->
<g id="node22" class="node">
<title>Node22</title>
<g id="a_node22"><a xlink:title=" ">
<polygon fill="#ffffff" stroke="#bfbfbf" points="841,-112.5 841,-131.5 897,-131.5 897,-112.5 841,-112.5"/>
<text text-anchor="middle" x="869" y="-119.5" font-family="Helvetica,sans-Serif" font-size="10.00" fill="#000000">QWidget</text>
</a>
</g>
</g>
<!-- Node20&#45;&gt;Node22 -->
<g id="edge26" class="edge">
<title>Node20&#45;&gt;Node22</title>
<path fill="none" stroke="#191970" d="M754.723,-168.3733C777.1737,-159.2629 811.0739,-145.5062 836.1255,-135.3404"/>
<polygon fill="#191970" stroke="#191970" points="837.6365,-138.5045 845.5865,-131.5011 835.0043,-132.0182 837.6365,-138.5045"/>
</g>
<!-- Node23 -->
<g id="node23" class="node">
<title>Node23</title>
<g id="a_node23"><a xlink:href="animationmanager_8h.html" target="_top" xlink:title=" ">
<polygon fill="#ffffff" stroke="#000000" points="715,-112.5 715,-131.5 823,-131.5 823,-112.5 715,-112.5"/>
<text text-anchor="middle" x="769" y="-119.5" font-family="Helvetica,sans-Serif" font-size="10.00" fill="#000000">animationmanager.h</text>
</a>
</g>
</g>
<!-- Node20&#45;&gt;Node23 -->
<g id="edge28" class="edge">
<title>Node20&#45;&gt;Node23</title>
<path fill="none" stroke="#191970" d="M737.6191,-168.2455C742.9046,-160.4564 750.4541,-149.3308 756.8238,-139.9439"/>
<polygon fill="#191970" stroke="#191970" points="759.7379,-141.8827 762.4568,-131.6427 753.9455,-137.9522 759.7379,-141.8827"/>
</g>
<!-- Node23&#45;&gt;Node11 -->
<g id="edge35" class="edge">
<title>Node23&#45;&gt;Node11</title>
<path fill="none" stroke="#191970" d="M755.4717,-112.4203C742.7583,-103.3109 723.3012,-89.0936 707,-76 686.7677,-59.7488 664.4347,-40.1432 649.2462,-26.5431"/>
<polygon fill="#191970" stroke="#191970" points="651.3767,-23.7518 641.6018,-19.6649 646.6945,-28.9555 651.3767,-23.7518"/>
</g>
<!-- Node24 -->
<g id="node24" class="node">
<title>Node24</title>
<g id="a_node24"><a xlink:href="animationmovement_8h.html" target="_top" xlink:title=" ">
<polygon fill="#ffffff" stroke="#000000" points="715.5,-56.5 715.5,-75.5 830.5,-75.5 830.5,-56.5 715.5,-56.5"/>
<text text-anchor="middle" x="773" y="-63.5" font-family="Helvetica,sans-Serif" font-size="10.00" fill="#000000">animationmovement.h</text>
</a>
</g>
</g>
<!-- Node23&#45;&gt;Node24 -->
<g id="edge29" class="edge">
<title>Node23&#45;&gt;Node24</title>
<path fill="none" stroke="#191970" d="M769.6967,-112.2455C770.2187,-104.9382 770.9504,-94.6944 771.5925,-85.7046"/>
<polygon fill="#191970" stroke="#191970" points="775.0898,-85.8667 772.3112,-75.6427 768.1076,-85.3679 775.0898,-85.8667"/>
</g>
<!-- Node26 -->
<g id="node26" class="node">
<title>Node26</title>
<g id="a_node26"><a xlink:title=" ">
<polygon fill="#ffffff" stroke="#bfbfbf" points="839.5,-.5 839.5,-19.5 878.5,-19.5 878.5,-.5 839.5,-.5"/>
<text text-anchor="middle" x="859" y="-7.5" font-family="Helvetica,sans-Serif" font-size="10.00" fill="#000000">QList</text>
</a>
</g>
</g>
<!-- Node23&#45;&gt;Node26 -->
<g id="edge34" class="edge">
<title>Node23&#45;&gt;Node26</title>
<path fill="none" stroke="#191970" d="M791.9778,-112.3983C807.6658,-104.7251 827.7516,-92.5162 840,-76 849.9759,-62.5482 854.7245,-43.9902 856.9789,-29.9781"/>
<polygon fill="#191970" stroke="#191970" points="860.4705,-30.2707 858.3043,-19.8997 853.5302,-29.3579 860.4705,-30.2707"/>
</g>
<!-- Node24&#45;&gt;Node11 -->
<g id="edge33" class="edge">
<title>Node24&#45;&gt;Node11</title>
<path fill="none" stroke="#191970" d="M748.5893,-56.3733C725.3858,-47.2226 690.2962,-33.3844 664.4858,-23.2057"/>
<polygon fill="#191970" stroke="#191970" points="665.6789,-19.9139 655.0921,-19.5011 663.1108,-26.4258 665.6789,-19.9139"/>
</g>
<!-- Node25 -->
<g id="node25" class="node">
<title>Node25</title>
<g id="a_node25"><a xlink:href="point_8h.html" target="_top" xlink:title=" ">
<polygon fill="#ffffff" stroke="#000000" points="776.5,-.5 776.5,-19.5 821.5,-19.5 821.5,-.5 776.5,-.5"/>
<text text-anchor="middle" x="799" y="-7.5" font-family="Helvetica,sans-Serif" font-size="10.00" fill="#000000">point.h</text>
</a>
</g>
</g>
<!-- Node24&#45;&gt;Node25 -->
<g id="edge30" class="edge">
<title>Node24&#45;&gt;Node25</title>
<path fill="none" stroke="#191970" d="M777.5289,-56.2455C781.0334,-48.6973 785.9927,-38.0158 790.2623,-28.8197"/>
<polygon fill="#191970" stroke="#191970" points="793.4864,-30.1867 794.523,-19.6427 787.1373,-27.2389 793.4864,-30.1867"/>
</g>
<!-- Node24&#45;&gt;Node26 -->
<g id="edge31" class="edge">
<title>Node24&#45;&gt;Node26</title>
<path fill="none" stroke="#191970" d="M787.9801,-56.2455C801.1751,-47.6534 820.6051,-35.0014 835.8079,-25.1018"/>
<polygon fill="#191970" stroke="#191970" points="837.7215,-28.0325 844.1916,-19.6427 833.9017,-22.1665 837.7215,-28.0325"/>
</g>
<!-- Node27 -->
<g id="node27" class="node">
<title>Node27</title>
<g id="a_node27"><a xlink:title=" ">
<polygon fill="#ffffff" stroke="#bfbfbf" points="708,-.5 708,-19.5 758,-19.5 758,-.5 708,-.5"/>
<text text-anchor="middle" x="733" y="-7.5" font-family="Helvetica,sans-Serif" font-size="10.00" fill="#000000">QString</text>
</a>
</g>
</g>
<!-- Node24&#45;&gt;Node27 -->
<g id="edge32" class="edge">
<title>Node24&#45;&gt;Node27</title>
<path fill="none" stroke="#191970" d="M766.0325,-56.2455C760.4689,-48.4564 752.522,-37.3308 745.8171,-27.9439"/>
<polygon fill="#191970" stroke="#191970" points="748.5481,-25.7457 739.8876,-19.6427 742.852,-29.8144 748.5481,-25.7457"/>
</g>
<!-- Node28&#45;&gt;Node4 -->
<g id="edge39" class="edge">
<title>Node28&#45;&gt;Node4</title>
<path fill="none" stroke="#191970" d="M685.4179,-285.9726C631.6259,-276.3791 495.5398,-252.109 430.1574,-240.4485"/>
<polygon fill="#191970" stroke="#191970" points="430.7536,-236.9996 420.2944,-238.6895 429.5246,-243.8909 430.7536,-236.9996"/>
</g>
<!-- Node28&#45;&gt;Node20 -->
<g id="edge40" class="edge">
<title>Node28&#45;&gt;Node20</title>
<path fill="none" stroke="#191970" d="M708.3258,-280.4903C708.9229,-267.5641 710.5704,-243.7901 715,-224 717.0258,-214.9494 720.253,-205.2097 723.2801,-197.033"/>
<polygon fill="#191970" stroke="#191970" points="726.5542,-198.2703 726.902,-187.6812 720.0266,-195.7422 726.5542,-198.2703"/>
</g>
<!-- Node29 -->
<g id="node29" class="node">
<title>Node29</title>
<g id="a_node29"><a xlink:title=" ">
<polygon fill="#ffffff" stroke="#bfbfbf" points="723.5,-224.5 723.5,-243.5 810.5,-243.5 810.5,-224.5 723.5,-224.5"/>
<text text-anchor="middle" x="767" y="-231.5" font-family="Helvetica,sans-Serif" font-size="10.00" fill="#000000">QGraphicsView</text>
</a>
</g>
</g>
<!-- Node28&#45;&gt;Node29 -->
<g id="edge38" class="edge">
<title>Node28&#45;&gt;Node29</title>
<path fill="none" stroke="#191970" d="M718.277,-280.2455C726.8218,-272.1352 739.1778,-260.4075 749.3085,-250.7919"/>
<polygon fill="#191970" stroke="#191970" points="751.9972,-253.0655 756.8408,-243.6427 747.1782,-247.9884 751.9972,-253.0655"/>
</g>
<!-- Node30 -->
<g id="node30" class="node">
<title>Node30</title>
<g id="a_node30"><a xlink:title=" ">
<polygon fill="#ffffff" stroke="#bfbfbf" points="828.5,-224.5 828.5,-243.5 903.5,-243.5 903.5,-224.5 828.5,-224.5"/>
<text text-anchor="middle" x="866" y="-231.5" font-family="Helvetica,sans-Serif" font-size="10.00" fill="#000000">tooltipmenu.h</text>
</a>
</g>
</g>
<!-- Node28&#45;&gt;Node30 -->
<g id="edge41" class="edge">
<title>Node28&#45;&gt;Node30</title>
<path fill="none" stroke="#191970" d="M730.6375,-281.9766C756.5082,-272.8072 799.2054,-257.674 829.7292,-246.8555"/>
<polygon fill="#191970" stroke="#191970" points="830.9189,-250.1472 839.1751,-243.5076 828.5803,-243.5494 830.9189,-250.1472"/>
</g>
<!-- Node31&#45;&gt;Node15 -->
<g id="edge48" class="edge">
<title>Node31&#45;&gt;Node15</title>
<path fill="none" stroke="#191970" d="M927.1946,-224.4673C896.8688,-216.1621 852.9928,-203.1023 816,-188 797.9654,-180.6374 795.3201,-174.6205 777,-168 729.8794,-150.9717 674.3304,-139.0111 632.7971,-131.5624"/>
<polygon fill="#191970" stroke="#191970" points="633.2765,-128.0931 622.822,-129.8116 632.0664,-134.9877 633.2765,-128.0931"/>
</g>
<!-- Node32 -->
<g id="node32" class="node">
<title>Node32</title>
<g id="a_node32"><a xlink:title=" ">
<polygon fill="#ffffff" stroke="#bfbfbf" points="924,-168.5 924,-187.5 1004,-187.5 1004,-168.5 924,-168.5"/>
<text text-anchor="middle" x="964" y="-175.5" font-family="Helvetica,sans-Serif" font-size="10.00" fill="#000000">QDockWidget</text>
</a>
</g>
</g>
<!-- Node31&#45;&gt;Node32 -->
<g id="edge43" class="edge">
<title>Node31&#45;&gt;Node32</title>
<path fill="none" stroke="#191970" d="M964,-224.2455C964,-216.9382 964,-206.6944 964,-197.7046"/>
<polygon fill="#191970" stroke="#191970" points="967.5001,-197.6426 964,-187.6427 960.5001,-197.6427 967.5001,-197.6426"/>
</g>
<!-- Node33 -->
<g id="node33" class="node">
<title>Node33</title>
<g id="a_node33"><a xlink:title=" ">
<polygon fill="#ffffff" stroke="#bfbfbf" points="1022.5,-168.5 1022.5,-187.5 1093.5,-187.5 1093.5,-168.5 1022.5,-168.5"/>
<text text-anchor="middle" x="1058" y="-175.5" font-family="Helvetica,sans-Serif" font-size="10.00" fill="#000000">QListWidget</text>
</a>
</g>
</g>
<!-- Node31&#45;&gt;Node33 -->
<g id="edge44" class="edge">
<title>Node31&#45;&gt;Node33</title>
<path fill="none" stroke="#191970" d="M980.3736,-224.2455C994.9308,-215.5731 1016.431,-202.7645 1033.1152,-192.825"/>
<polygon fill="#191970" stroke="#191970" points="1035.0144,-195.7676 1041.8141,-187.6427 1031.4317,-189.7539 1035.0144,-195.7676"/>
</g>
<!-- Node34 -->
<g id="node34" class="node">
<title>Node34</title>
<g id="a_node34"><a xlink:href="trainrenderer_8h.html" target="_top" xlink:title=" ">
<polygon fill="#ffffff" stroke="#000000" points="824.5,-168.5 824.5,-187.5 905.5,-187.5 905.5,-168.5 824.5,-168.5"/>
<text text-anchor="middle" x="865" y="-175.5" font-family="Helvetica,sans-Serif" font-size="10.00" fill="#000000">trainrenderer.h</text>
</a>
</g>
</g>
<!-- Node31&#45;&gt;Node34 -->
<g id="edge45" class="edge">
<title>Node31&#45;&gt;Node34</title>
<path fill="none" stroke="#191970" d="M946.7555,-224.2455C931.4239,-215.5731 908.7801,-202.7645 891.2084,-192.825"/>
<polygon fill="#191970" stroke="#191970" points="892.4741,-189.5198 882.0469,-187.6427 889.0276,-195.6126 892.4741,-189.5198"/>
</g>
<!-- Node35 -->
<g id="node35" class="node">
<title>Node35</title>
<g id="a_node35"><a xlink:href="goodselector_8h.html" target="_top" xlink:title=" ">
<polygon fill="#ffffff" stroke="#000000" points="1112,-168.5 1112,-187.5 1196,-187.5 1196,-168.5 1112,-168.5"/>
<text text-anchor="middle" x="1154" y="-175.5" font-family="Helvetica,sans-Serif" font-size="10.00" fill="#000000">goodselector.h</text>
</a>
</g>
</g>
<!-- Node31&#45;&gt;Node35 -->
<g id="edge49" class="edge">
<title>Node31&#45;&gt;Node35</title>
<path fill="none" stroke="#191970" d="M996.6622,-224.3733C1028.5298,-214.9807 1077.1531,-200.6496 1111.907,-190.4064"/>
<polygon fill="#191970" stroke="#191970" points="1113.1615,-193.6855 1121.764,-187.5011 1111.1825,-186.9711 1113.1615,-193.6855"/>
</g>
<!-- Node34&#45;&gt;Node15 -->
<g id="edge47" class="edge">
<title>Node34&#45;&gt;Node15</title>
<path fill="none" stroke="#191970" d="M824.4292,-170.2722C774.3507,-160.7335 688.7537,-144.4293 631.0542,-133.4389"/>
<polygon fill="#191970" stroke="#191970" points="631.4548,-129.9523 620.9765,-131.5193 630.145,-136.8287 631.4548,-129.9523"/>
</g>
<!-- Node34&#45;&gt;Node22 -->
<g id="edge46" class="edge">
<title>Node34&#45;&gt;Node22</title>
<path fill="none" stroke="#191970" d="M865.6967,-168.2455C866.2187,-160.9382 866.9504,-150.6944 867.5925,-141.7046"/>
<polygon fill="#191970" stroke="#191970" points="871.0898,-141.8667 868.3112,-131.6427 864.1076,-141.3679 871.0898,-141.8667"/>
</g>
<!-- Node35&#45;&gt;Node22 -->
<g id="edge50" class="edge">
<title>Node35&#45;&gt;Node22</title>
<path fill="none" stroke="#191970" d="M1111.9473,-169.737C1056.7859,-158.8983 960.767,-140.0314 907.4537,-129.5558"/>
<polygon fill="#191970" stroke="#191970" points="907.8725,-126.0712 897.3852,-127.5774 906.5228,-132.9399 907.8725,-126.0712"/>
</g>
</g>
</svg>
        <g id="navigator" transform="translate(0 0)" fill="#404254">
                <rect fill="#f2f5e9" fill-opacity="0.5" stroke="#606060" stroke-width=".5" x="0" y="0" width="60" height="60"/>
                <use id="zoomplus" xlink:href="#zoomPlus" x="17" y="9" onmousedown="handleZoom(evt,'in')"/>
                <use id="zoomminus" xlink:href="#zoomMin" x="42" y="9" onmousedown="handleZoom(evt,'out')"/>
                <use id="reset" xlink:href="#resetDef" x="30" y="36" onmousedown="handleReset()"/>
                <g id="arrowUp" xlink:href="#dirArrow" transform="translate(30 24)" onmousedown="handlePan(0,-1)">
                  <use xlink:href="#rim" fill="#404040">
                        <set attributeName="fill" to="#808080" begin="arrowUp.mouseover" end="arrowUp.mouseout"/>
                  </use>
                  <path fill="none" stroke="white" stroke-width="1.5" d="M0,-3.0v7 M-2.5,-0.5L0,-3.0L2.5,-0.5"/>
                </g>
                <g id="arrowRight" xlink:href="#dirArrow" transform="rotate(90) translate(36 -43)" onmousedown="handlePan(1,0)">
                  <use xlink:href="#rim" fill="#404040">
                        <set attributeName="fill" to="#808080" begin="arrowRight.mouseover" end="arrowRight.mouseout"/>
                  </use>
                  <path fill="none" stroke="white" stroke-width="1.5" d="M0,-3.0v7 M-2.5,-0.5L0,-3.0L2.5,-0.5"/>
                </g>
                <g id="arrowDown" xlink:href="#dirArrow" transform="rotate(180) translate(-30 -48)" onmousedown="handlePan(0,1)">
                  <use xlink:href="#rim" fill="#404040">
                        <set attributeName="fill" to="#808080" begin="arrowDown.mouseover" end="arrowDown.mouseout"/>
                  </use>
                  <path fill="none" stroke="white" stroke-width="1.5" d="M0,-3.0v7 M-2.5,-0.5L0,-3.0L2.5,-0.5"/>
                </g>
                <g id="arrowLeft" xlink:href="#dirArrow" transform="rotate(270) translate(-36 17)" onmousedown="handlePan(-1,0)">
                  <use xlink:href="#rim" fill="#404040">
                        <set attributeName="fill" to="#808080" begin="arrowLeft.mouseover" end="arrowLeft.mouseout"/>
                  </use>
                  <path fill="none" stroke="white" stroke-width="1.5" d="M0,-3.0v7 M-2.5,-0.5L0,-3.0L2.5,-0.5"/>
                </g>
        </g>
        <svg viewBox="0 0 15 15" width="100%" height="30px" preserveAspectRatio="xMaxYMin meet">
         <g id="arrow_out" transform="scale(0.3 0.3)">
          <a xlink:href="menubar_8h__incl_org.svg" target="_base">
           <rect id="button" ry="5" rx="5" y="6" x="6" height="38" width="38"
                fill="#f2f5e9" fill-opacity="0.5" stroke="#606060" stroke-width="1.0"/>
           <path id="arrow"
             d="M 11.500037,31.436501 C 11.940474,20.09759 22.043105,11.32322 32.158766,21.979434 L 37.068811,17.246167 C 37.068811,17.246167 37.088388,32 37.088388,32 L 22.160133,31.978069 C 22.160133,31.978069 26.997745,27.140456 26.997745,27.140456 C 18.528582,18.264221 13.291696,25.230495 11.500037,31.436501 z"
             style="fill:#404040;"/>
          </a>
         </g>
        </svg>
</svg>
