<?xml version="1.0" encoding="UTF-8" standalone="no"?>
<!DOCTYPE svg PUBLIC "-//W3C//DTD SVG 1.1//EN"
 "http://www.w3.org/Graphics/SVG/1.1/DTD/svg11.dtd">
<!-- Generated by graphviz version 2.40.1 (20161225.0304)
 -->
<!-- Title: src/application_server/minimap.cpp Pages: 1 -->
<!--zoomable 319 -->
<svg id="main" version="1.1" xmlns="http://www.w3.org/2000/svg" xmlns:xlink="http://www.w3.org/1999/xlink" xml:space="preserve" onload="init(evt)">
<style type="text/css"><![CDATA[
.edge:hover path { stroke: red; }
.edge:hover polygon { stroke: red; fill: red; }
]]></style>
<script type="text/javascript"><![CDATA[
var edges = document.getElementsByTagName('g');
if (edges && edges.length) {
  for (var i=0;i<edges.length;i++) {
    if (edges[i].id.substr(0,4)=='edge') {
      edges[i].setAttribute('class','edge');
    }
  }
}
]]></script>
        <defs>
                <circle id="rim" cx="0" cy="0" r="7"/>
                <circle id="rim2" cx="0" cy="0" r="3.5"/>
                <g id="zoomPlus">
                        <use xlink:href="#rim" fill="#404040">
                                <set attributeName="fill" to="#808080" begin="zoomplus.mouseover" end="zoomplus.mouseout"/>
                        </use>
                        <path d="M-4,0h8M0,-4v8" fill="none" stroke="white" stroke-width="1.5" pointer-events="none"/>
                </g>
                <g id="zoomMin">
                        <use xlink:href="#rim" fill="#404040">
                                <set attributeName="fill" to="#808080" begin="zoomminus.mouseover" end="zoomminus.mouseout"/>
                        </use>
                        <path d="M-4,0h8" fill="none" stroke="white" stroke-width="1.5" pointer-events="none"/>
                </g>
                <g id="dirArrow">
                        <path fill="none" stroke="white" stroke-width="1.5" d="M0,-3.0v7 M-2.5,-0.5L0,-3.0L2.5,-0.5"/>
                </g>
               <g id="resetDef">
                       <use xlink:href="#rim2" fill="#404040">
                               <set attributeName="fill" to="#808080" begin="reset.mouseover" end="reset.mouseout"/>
                       </use>
               </g>
        </defs>

<script type="text/javascript">
var viewWidth = 979;
var viewHeight = 319;
var sectionId = 'dynsection-0';
</script>
<script xlink:href="svgpan.js"/>
<svg id="graph" class="graph">
<g id="viewport">
<title>src/application_server/minimap.cpp</title>
<polygon fill="#ffffff" stroke="transparent" points="-4,4 -4,-315 975,-315 975,4 -4,4"/>
<!-- Node1 -->
<g id="node1" class="node">
<title>Node1</title>
<g id="a_node1"><a xlink:title=" ">
<polygon fill="#bfbfbf" stroke="#000000" points="745.5,-280.5 745.5,-310.5 860.5,-310.5 860.5,-280.5 745.5,-280.5"/>
<text text-anchor="start" x="753.5" y="-298.5" font-family="Helvetica,sans-Serif" font-size="10.00" fill="#000000">src/application_server</text>
<text text-anchor="middle" x="803" y="-287.5" font-family="Helvetica,sans-Serif" font-size="10.00" fill="#000000">/minimap.cpp</text>
</a>
</g>
</g>
<!-- Node2 -->
<g id="node2" class="node">
<title>Node2</title>
<g id="a_node2"><a xlink:href="minimap_8h.html" target="_top" xlink:title=" ">
<polygon fill="#ffffff" stroke="#000000" points="605,-224.5 605,-243.5 667,-243.5 667,-224.5 605,-224.5"/>
<text text-anchor="middle" x="636" y="-231.5" font-family="Helvetica,sans-Serif" font-size="10.00" fill="#000000">minimap.h</text>
</a>
</g>
</g>
<!-- Node1&#45;&gt;Node2 -->
<g id="edge1" class="edge">
<title>Node1&#45;&gt;Node2</title>
<path fill="none" stroke="#191970" d="M762.1472,-280.4554C734.405,-270.239 698.0775,-256.8609 671.5345,-247.0861"/>
<polygon fill="#191970" stroke="#191970" points="672.4725,-243.7018 661.8791,-243.5303 670.0535,-250.2705 672.4725,-243.7018"/>
</g>
<!-- Node22 -->
<g id="node22" class="node">
<title>Node22</title>
<g id="a_node22"><a xlink:title=" ">
<polygon fill="#ffffff" stroke="#bfbfbf" points="685.5,-224.5 685.5,-243.5 756.5,-243.5 756.5,-224.5 685.5,-224.5"/>
<text text-anchor="middle" x="721" y="-231.5" font-family="Helvetica,sans-Serif" font-size="10.00" fill="#000000">QPaintEvent</text>
</a>
</g>
</g>
<!-- Node1&#45;&gt;Node22 -->
<g id="edge27" class="edge">
<title>Node1&#45;&gt;Node22</title>
<path fill="none" stroke="#191970" d="M782.7303,-280.2977C770.3994,-271.0495 754.6734,-259.2551 742.1803,-249.8853"/>
<polygon fill="#191970" stroke="#191970" points="744.2293,-247.047 734.1292,-243.8469 740.0292,-252.647 744.2293,-247.047"/>
</g>
<!-- Node23 -->
<g id="node23" class="node">
<title>Node23</title>
<g id="a_node23"><a xlink:title=" ">
<polygon fill="#ffffff" stroke="#bfbfbf" points="775,-224.5 775,-243.5 831,-243.5 831,-224.5 775,-224.5"/>
<text text-anchor="middle" x="803" y="-231.5" font-family="Helvetica,sans-Serif" font-size="10.00" fill="#000000">QPainter</text>
</a>
</g>
</g>
<!-- Node1&#45;&gt;Node23 -->
<g id="edge28" class="edge">
<title>Node1&#45;&gt;Node23</title>
<path fill="none" stroke="#191970" d="M803,-280.2977C803,-272.3834 803,-262.6043 803,-254.0759"/>
<polygon fill="#191970" stroke="#191970" points="806.5001,-253.8469 803,-243.8469 799.5001,-253.847 806.5001,-253.8469"/>
</g>
<!-- Node24 -->
<g id="node24" class="node">
<title>Node24</title>
<g id="a_node24"><a xlink:title=" ">
<polygon fill="#ffffff" stroke="#bfbfbf" points="849,-224.5 849,-243.5 903,-243.5 903,-224.5 849,-224.5"/>
<text text-anchor="middle" x="876" y="-231.5" font-family="Helvetica,sans-Serif" font-size="10.00" fill="#000000">QDebug</text>
</a>
</g>
</g>
<!-- Node1&#45;&gt;Node24 -->
<g id="edge29" class="edge">
<title>Node1&#45;&gt;Node24</title>
<path fill="none" stroke="#191970" d="M821.0449,-280.2977C831.8114,-271.2274 845.4851,-259.7077 856.4995,-250.4285"/>
<polygon fill="#191970" stroke="#191970" points="858.9191,-252.9667 864.3118,-243.8469 854.4089,-247.6132 858.9191,-252.9667"/>
</g>
<!-- Node25 -->
<g id="node25" class="node">
<title>Node25</title>
<g id="a_node25"><a xlink:title=" ">
<polygon fill="#ffffff" stroke="#bfbfbf" points="921,-224.5 921,-243.5 971,-243.5 971,-224.5 921,-224.5"/>
<text text-anchor="middle" x="946" y="-231.5" font-family="Helvetica,sans-Serif" font-size="10.00" fill="#000000">QRectF</text>
</a>
</g>
</g>
<!-- Node1&#45;&gt;Node25 -->
<g id="edge30" class="edge">
<title>Node1&#45;&gt;Node25</title>
<path fill="none" stroke="#191970" d="M837.9817,-280.4554C861.3184,-270.419 891.7498,-257.3314 914.363,-247.6061"/>
<polygon fill="#191970" stroke="#191970" points="916.0364,-250.6965 923.8401,-243.5303 913.2708,-244.2659 916.0364,-250.6965"/>
</g>
<!-- Node3 -->
<g id="node3" class="node">
<title>Node3</title>
<g id="a_node3"><a xlink:title=" ">
<polygon fill="#ffffff" stroke="#bfbfbf" points="742,-56.5 742,-75.5 798,-75.5 798,-56.5 742,-56.5"/>
<text text-anchor="middle" x="770" y="-63.5" font-family="Helvetica,sans-Serif" font-size="10.00" fill="#000000">QWidget</text>
</a>
</g>
</g>
<!-- Node2&#45;&gt;Node3 -->
<g id="edge2" class="edge">
<title>Node2&#45;&gt;Node3</title>
<path fill="none" stroke="#191970" d="M667.1399,-224.3697C723.1148,-206.3601 836.9717,-166.299 859,-132 875.1337,-106.8792 838.9926,-87.9594 808.0312,-76.955"/>
<polygon fill="#191970" stroke="#191970" points="808.8276,-73.5304 798.2336,-73.6625 806.5977,-80.1657 808.8276,-73.5304"/>
</g>
<!-- Node4 -->
<g id="node4" class="node">
<title>Node4</title>
<g id="a_node4"><a xlink:href="scene_8h.html" target="_top" xlink:title=" ">
<polygon fill="#ffffff" stroke="#000000" points="368,-168.5 368,-187.5 420,-187.5 420,-168.5 368,-168.5"/>
<text text-anchor="middle" x="394" y="-175.5" font-family="Helvetica,sans-Serif" font-size="10.00" fill="#000000">scene.h</text>
</a>
</g>
</g>
<!-- Node2&#45;&gt;Node4 -->
<g id="edge3" class="edge">
<title>Node2&#45;&gt;Node4</title>
<path fill="none" stroke="#191970" d="M604.8582,-226.7936C560.0214,-216.4182 477.473,-197.3161 430.0524,-186.3427"/>
<polygon fill="#191970" stroke="#191970" points="430.7417,-182.9098 420.2101,-184.0651 429.1636,-189.7296 430.7417,-182.9098"/>
</g>
<!-- Node5 -->
<g id="node5" class="node">
<title>Node5</title>
<g id="a_node5"><a xlink:title=" ">
<polygon fill="#ffffff" stroke="#bfbfbf" points="532,-112.5 532,-131.5 626,-131.5 626,-112.5 532,-112.5"/>
<text text-anchor="middle" x="579" y="-119.5" font-family="Helvetica,sans-Serif" font-size="10.00" fill="#000000">QGraphicsScene</text>
</a>
</g>
</g>
<!-- Node4&#45;&gt;Node5 -->
<g id="edge4" class="edge">
<title>Node4&#45;&gt;Node5</title>
<path fill="none" stroke="#191970" d="M420.1136,-170.0953C450.7034,-160.8357 501.7655,-145.3791 537.7323,-134.4918"/>
<polygon fill="#191970" stroke="#191970" points="538.8899,-137.7984 547.4469,-131.5512 536.8618,-131.0986 538.8899,-137.7984"/>
</g>
<!-- Node6 -->
<g id="node6" class="node">
<title>Node6</title>
<g id="a_node6"><a xlink:title=" ">
<polygon fill="#ffffff" stroke="#bfbfbf" points="644,-112.5 644,-131.5 748,-131.5 748,-112.5 644,-112.5"/>
<text text-anchor="middle" x="696" y="-119.5" font-family="Helvetica,sans-Serif" font-size="10.00" fill="#000000">QGraphicsTextItem</text>
</a>
</g>
</g>
<!-- Node4&#45;&gt;Node6 -->
<g id="edge5" class="edge">
<title>Node4&#45;&gt;Node6</title>
<path fill="none" stroke="#191970" d="M420.0097,-173.177C467.3686,-164.3952 568.8458,-145.5783 634.6723,-133.372"/>
<polygon fill="#191970" stroke="#191970" points="635.3216,-136.8114 644.5158,-131.5467 634.0453,-129.9287 635.3216,-136.8114"/>
</g>
<!-- Node7 -->
<g id="node7" class="node">
<title>Node7</title>
<g id="a_node7"><a xlink:title=" ">
<polygon fill="#ffffff" stroke="#bfbfbf" points="766.5,-112.5 766.5,-131.5 849.5,-131.5 849.5,-112.5 766.5,-112.5"/>
<text text-anchor="middle" x="808" y="-119.5" font-family="Helvetica,sans-Serif" font-size="10.00" fill="#000000">QGraphicsItem</text>
</a>
</g>
</g>
<!-- Node4&#45;&gt;Node7 -->
<g id="edge6" class="edge">
<title>Node4&#45;&gt;Node7</title>
<path fill="none" stroke="#191970" d="M420.0561,-175.3096C478.3526,-169.1601 623.9161,-153.0822 756.3744,-132.0077"/>
<polygon fill="#191970" stroke="#191970" points="756.9734,-135.4564 766.2926,-130.4162 755.8643,-128.5448 756.9734,-135.4564"/>
</g>
<!-- Node8 -->
<g id="node8" class="node">
<title>Node8</title>
<g id="a_node8"><a xlink:title=" ">
<polygon fill="#ffffff" stroke="#bfbfbf" points="92,-56.5 92,-75.5 196,-75.5 196,-56.5 92,-56.5"/>
<text text-anchor="middle" x="144" y="-63.5" font-family="Helvetica,sans-Serif" font-size="10.00" fill="#000000">QGraphicsRectItem</text>
</a>
</g>
</g>
<!-- Node4&#45;&gt;Node8 -->
<g id="edge7" class="edge">
<title>Node4&#45;&gt;Node8</title>
<path fill="none" stroke="#191970" d="M367.8514,-171.8468C338.2298,-164.3924 288.8927,-150.4979 249,-132 218.3721,-117.7981 185.8728,-96.2339 165.2843,-81.6537"/>
<polygon fill="#191970" stroke="#191970" points="167.136,-78.6745 156.9713,-75.6862 163.0539,-84.361 167.136,-78.6745"/>
</g>
<!-- Node9 -->
<g id="node9" class="node">
<title>Node9</title>
<g id="a_node9"><a xlink:title=" ">
<polygon fill="#ffffff" stroke="#bfbfbf" points="88.5,-112.5 88.5,-131.5 201.5,-131.5 201.5,-112.5 88.5,-112.5"/>
<text text-anchor="middle" x="145" y="-119.5" font-family="Helvetica,sans-Serif" font-size="10.00" fill="#000000">QGraphicsEllipseItem</text>
</a>
</g>
</g>
<!-- Node4&#45;&gt;Node9 -->
<g id="edge8" class="edge">
<title>Node4&#45;&gt;Node9</title>
<path fill="none" stroke="#191970" d="M367.8233,-172.1129C327.555,-163.0565 249.6096,-145.5267 197.428,-133.791"/>
<polygon fill="#191970" stroke="#191970" points="197.8783,-130.305 187.354,-131.5254 196.3424,-137.1344 197.8783,-130.305"/>
</g>
<!-- Node10 -->
<g id="node10" class="node">
<title>Node10</title>
<g id="a_node10"><a xlink:href="maptile_8h.html" target="_top" xlink:title=" ">
<polygon fill="#ffffff" stroke="#000000" points="366,-112.5 366,-131.5 422,-131.5 422,-112.5 366,-112.5"/>
<text text-anchor="middle" x="394" y="-119.5" font-family="Helvetica,sans-Serif" font-size="10.00" fill="#000000">maptile.h</text>
</a>
</g>
</g>
<!-- Node4&#45;&gt;Node10 -->
<g id="edge9" class="edge">
<title>Node4&#45;&gt;Node10</title>
<path fill="none" stroke="#191970" d="M394,-168.2455C394,-160.9382 394,-150.6944 394,-141.7046"/>
<polygon fill="#191970" stroke="#191970" points="397.5001,-141.6426 394,-131.6427 390.5001,-141.6427 397.5001,-141.6426"/>
</g>
<!-- Node15 -->
<g id="node15" class="node">
<title>Node15</title>
<g id="a_node15"><a xlink:href="graphicsmanager_8h.html" target="_top" xlink:title=" ">
<polygon fill="#ffffff" stroke="#000000" points="214.5,-56.5 214.5,-75.5 317.5,-75.5 317.5,-56.5 214.5,-56.5"/>
<text text-anchor="middle" x="266" y="-63.5" font-family="Helvetica,sans-Serif" font-size="10.00" fill="#000000">graphicsmanager.h</text>
</a>
</g>
</g>
<!-- Node4&#45;&gt;Node15 -->
<g id="edge18" class="edge">
<title>Node4&#45;&gt;Node15</title>
<path fill="none" stroke="#191970" d="M383.0903,-168.3579C368.5104,-155.4816 341.855,-131.974 319,-112 307.8192,-102.2286 295.2719,-91.3353 285.1933,-82.6029"/>
<polygon fill="#191970" stroke="#191970" points="287.2431,-79.748 277.3921,-75.8481 282.6609,-85.0399 287.2431,-79.748"/>
</g>
<!-- Node18 -->
<g id="node18" class="node">
<title>Node18</title>
<g id="a_node18"><a xlink:href="player_8h.html" target="_top" xlink:title=" ">
<polygon fill="#ffffff" stroke="#000000" points="258,-112.5 258,-131.5 310,-131.5 310,-112.5 258,-112.5"/>
<text text-anchor="middle" x="284" y="-119.5" font-family="Helvetica,sans-Serif" font-size="10.00" fill="#000000">player.h</text>
</a>
</g>
</g>
<!-- Node4&#45;&gt;Node18 -->
<g id="edge19" class="edge">
<title>Node4&#45;&gt;Node18</title>
<path fill="none" stroke="#191970" d="M374.8395,-168.2455C357.4889,-159.4125 331.7099,-146.2887 312.0417,-136.2758"/>
<polygon fill="#191970" stroke="#191970" points="313.4405,-133.0605 302.941,-131.6427 310.2647,-139.2986 313.4405,-133.0605"/>
</g>
<!-- Node19 -->
<g id="node19" class="node">
<title>Node19</title>
<g id="a_node19"><a xlink:href="highlighter_8h.html" target="_top" xlink:title=" ">
<polygon fill="#ffffff" stroke="#000000" points="0,-112.5 0,-131.5 70,-131.5 70,-112.5 0,-112.5"/>
<text text-anchor="middle" x="35" y="-119.5" font-family="Helvetica,sans-Serif" font-size="10.00" fill="#000000">highlighter.h</text>
</a>
</g>
</g>
<!-- Node4&#45;&gt;Node19 -->
<g id="edge21" class="edge">
<title>Node4&#45;&gt;Node19</title>
<path fill="none" stroke="#191970" d="M367.7498,-174.8743C315.0994,-168.4539 192.686,-152.7674 79.8525,-132.0428"/>
<polygon fill="#191970" stroke="#191970" points="80.4836,-128.6003 70.013,-130.218 79.2071,-135.4829 80.4836,-128.6003"/>
</g>
<!-- Node20 -->
<g id="node20" class="node">
<title>Node20</title>
<g id="a_node20"><a xlink:href="datamodel_8h.html" target="_top" xlink:title=" ">
<polygon fill="#ffffff" stroke="#000000" points="440.5,-112.5 440.5,-131.5 513.5,-131.5 513.5,-112.5 440.5,-112.5"/>
<text text-anchor="middle" x="477" y="-119.5" font-family="Helvetica,sans-Serif" font-size="10.00" fill="#000000">datamodel.h</text>
</a>
</g>
</g>
<!-- Node4&#45;&gt;Node20 -->
<g id="edge23" class="edge">
<title>Node4&#45;&gt;Node20</title>
<path fill="none" stroke="#191970" d="M408.4575,-168.2455C421.0732,-159.7337 439.5944,-147.2375 454.2045,-137.3801"/>
<polygon fill="#191970" stroke="#191970" points="456.3761,-140.1371 462.7082,-131.6427 452.4609,-134.3343 456.3761,-140.1371"/>
</g>
<!-- Node11 -->
<g id="node11" class="node">
<title>Node11</title>
<g id="a_node11"><a xlink:title=" ">
<polygon fill="#ffffff" stroke="#bfbfbf" points="335.5,-56.5 335.5,-75.5 452.5,-75.5 452.5,-56.5 335.5,-56.5"/>
<text text-anchor="middle" x="394" y="-63.5" font-family="Helvetica,sans-Serif" font-size="10.00" fill="#000000">QGraphicsPixmapItem</text>
</a>
</g>
</g>
<!-- Node10&#45;&gt;Node11 -->
<g id="edge10" class="edge">
<title>Node10&#45;&gt;Node11</title>
<path fill="none" stroke="#191970" d="M394,-112.2455C394,-104.9382 394,-94.6944 394,-85.7046"/>
<polygon fill="#191970" stroke="#191970" points="397.5001,-85.6426 394,-75.6427 390.5001,-85.6427 397.5001,-85.6426"/>
</g>
<!-- Node12 -->
<g id="node12" class="node">
<title>Node12</title>
<g id="a_node12"><a xlink:href="city_8h.html" target="_top" xlink:title=" ">
<polygon fill="#ffffff" stroke="#000000" points="470.5,-56.5 470.5,-75.5 509.5,-75.5 509.5,-56.5 470.5,-56.5"/>
<text text-anchor="middle" x="490" y="-63.5" font-family="Helvetica,sans-Serif" font-size="10.00" fill="#000000">city.h</text>
</a>
</g>
</g>
<!-- Node10&#45;&gt;Node12 -->
<g id="edge11" class="edge">
<title>Node10&#45;&gt;Node12</title>
<path fill="none" stroke="#191970" d="M410.7219,-112.2455C425.5889,-103.5731 447.5466,-90.7645 464.5858,-80.825"/>
<polygon fill="#191970" stroke="#191970" points="466.5955,-83.7047 473.4697,-75.6427 463.0683,-77.6582 466.5955,-83.7047"/>
</g>
<!-- Node10&#45;&gt;Node15 -->
<g id="edge14" class="edge">
<title>Node10&#45;&gt;Node15</title>
<path fill="none" stroke="#191970" d="M371.996,-112.3733C351.3565,-103.3435 320.2842,-89.7494 297.1111,-79.6111"/>
<polygon fill="#191970" stroke="#191970" points="298.2813,-76.3028 287.7169,-75.5011 295.4755,-82.7159 298.2813,-76.3028"/>
</g>
<!-- Node13 -->
<g id="node13" class="node">
<title>Node13</title>
<g id="a_node13"><a xlink:title=" ">
<polygon fill="#ffffff" stroke="#bfbfbf" points="493.5,-.5 493.5,-19.5 534.5,-19.5 534.5,-.5 493.5,-.5"/>
<text text-anchor="middle" x="514" y="-7.5" font-family="Helvetica,sans-Serif" font-size="10.00" fill="#000000">string</text>
</a>
</g>
</g>
<!-- Node12&#45;&gt;Node13 -->
<g id="edge12" class="edge">
<title>Node12&#45;&gt;Node13</title>
<path fill="none" stroke="#191970" d="M494.1805,-56.2455C497.381,-48.7776 501.896,-38.2427 505.8084,-29.1137"/>
<polygon fill="#191970" stroke="#191970" points="509.1452,-30.2129 509.8674,-19.6427 502.7112,-27.4554 509.1452,-30.2129"/>
</g>
<!-- Node14 -->
<g id="node14" class="node">
<title>Node14</title>
<g id="a_node14"><a xlink:title=" ">
<polygon fill="#ffffff" stroke="#bfbfbf" points="431,-.5 431,-19.5 475,-19.5 475,-.5 431,-.5"/>
<text text-anchor="middle" x="453" y="-7.5" font-family="Helvetica,sans-Serif" font-size="10.00" fill="#000000">vector</text>
</a>
</g>
</g>
<!-- Node12&#45;&gt;Node14 -->
<g id="edge13" class="edge">
<title>Node12&#45;&gt;Node14</title>
<path fill="none" stroke="#191970" d="M483.5551,-56.2455C478.4618,-48.5367 471.2092,-37.5598 465.048,-28.2348"/>
<polygon fill="#191970" stroke="#191970" points="467.8038,-26.0566 459.3711,-19.6427 461.9635,-29.9155 467.8038,-26.0566"/>
</g>
<!-- Node15&#45;&gt;Node13 -->
<g id="edge17" class="edge">
<title>Node15&#45;&gt;Node13</title>
<path fill="none" stroke="#191970" d="M317.9297,-56.7661C360.092,-48.8802 421.2208,-36.5687 483.4441,-19.9081"/>
<polygon fill="#191970" stroke="#191970" points="484.7026,-23.1932 493.4372,-17.1968 482.8696,-16.4374 484.7026,-23.1932"/>
</g>
<!-- Node16 -->
<g id="node16" class="node">
<title>Node16</title>
<g id="a_node16"><a xlink:title=" ">
<polygon fill="#ffffff" stroke="#bfbfbf" points="274,-.5 274,-19.5 332,-19.5 332,-.5 274,-.5"/>
<text text-anchor="middle" x="303" y="-7.5" font-family="Helvetica,sans-Serif" font-size="10.00" fill="#000000">QPixmap</text>
</a>
</g>
</g>
<!-- Node15&#45;&gt;Node16 -->
<g id="edge15" class="edge">
<title>Node15&#45;&gt;Node16</title>
<path fill="none" stroke="#191970" d="M272.4449,-56.2455C277.5382,-48.5367 284.7908,-37.5598 290.952,-28.2348"/>
<polygon fill="#191970" stroke="#191970" points="294.0365,-29.9155 296.6289,-19.6427 288.1962,-26.0566 294.0365,-29.9155"/>
</g>
<!-- Node17 -->
<g id="node17" class="node">
<title>Node17</title>
<g id="a_node17"><a xlink:title=" ">
<polygon fill="#ffffff" stroke="#bfbfbf" points="202.5,-.5 202.5,-19.5 255.5,-19.5 255.5,-.5 202.5,-.5"/>
<text text-anchor="middle" x="229" y="-7.5" font-family="Helvetica,sans-Serif" font-size="10.00" fill="#000000">QImage</text>
</a>
</g>
</g>
<!-- Node15&#45;&gt;Node17 -->
<g id="edge16" class="edge">
<title>Node15&#45;&gt;Node17</title>
<path fill="none" stroke="#191970" d="M259.5551,-56.2455C254.4618,-48.5367 247.2092,-37.5598 241.048,-28.2348"/>
<polygon fill="#191970" stroke="#191970" points="243.8038,-26.0566 235.3711,-19.6427 237.9635,-29.9155 243.8038,-26.0566"/>
</g>
<!-- Node18&#45;&gt;Node8 -->
<g id="edge20" class="edge">
<title>Node18&#45;&gt;Node8</title>
<path fill="none" stroke="#191970" d="M259.9331,-112.3733C237.1572,-103.2629 202.7656,-89.5062 177.351,-79.3404"/>
<polygon fill="#191970" stroke="#191970" points="178.3375,-75.9654 167.7528,-75.5011 175.7377,-82.4648 178.3375,-75.9654"/>
</g>
<!-- Node19&#45;&gt;Node8 -->
<g id="edge22" class="edge">
<title>Node19&#45;&gt;Node8</title>
<path fill="none" stroke="#191970" d="M53.9864,-112.2455C71.1792,-103.4125 96.7238,-90.2887 116.2132,-80.2758"/>
<polygon fill="#191970" stroke="#191970" points="117.9359,-83.3257 125.2312,-75.6427 114.737,-77.0993 117.9359,-83.3257"/>
</g>
<!-- Node20&#45;&gt;Node3 -->
<g id="edge26" class="edge">
<title>Node20&#45;&gt;Node3</title>
<path fill="none" stroke="#191970" d="M513.6375,-113.9318C516.8017,-113.2664 519.9557,-112.6142 523,-112 596.6942,-97.131 683.1169,-81.4327 731.7253,-72.7615"/>
<polygon fill="#191970" stroke="#191970" points="732.5626,-76.1676 741.7946,-70.9693 731.336,-69.2759 732.5626,-76.1676"/>
</g>
<!-- Node20&#45;&gt;Node13 -->
<g id="edge24" class="edge">
<title>Node20&#45;&gt;Node13</title>
<path fill="none" stroke="#191970" d="M490.028,-112.3141C500.0792,-103.9649 513.2125,-90.922 519,-76 524.7135,-61.2688 522.847,-43.322 519.8948,-29.8637"/>
<polygon fill="#191970" stroke="#191970" points="523.1829,-28.5964 517.3022,-19.7834 516.4035,-30.3401 523.1829,-28.5964"/>
</g>
<!-- Node21 -->
<g id="node21" class="node">
<title>Node21</title>
<g id="a_node21"><a xlink:title=" ">
<polygon fill="#ffffff" stroke="#bfbfbf" points="566.5,-56.5 566.5,-75.5 615.5,-75.5 615.5,-56.5 566.5,-56.5"/>
<text text-anchor="middle" x="591" y="-63.5" font-family="Helvetica,sans-Serif" font-size="10.00" fill="#000000">QLabel</text>
</a>
</g>
</g>
<!-- Node20&#45;&gt;Node21 -->
<g id="edge25" class="edge">
<title>Node20&#45;&gt;Node21</title>
<path fill="none" stroke="#191970" d="M496.5973,-112.3733C514.7331,-103.4644 541.9135,-90.1127 562.4587,-80.0203"/>
<polygon fill="#191970" stroke="#191970" points="564.2261,-83.0517 571.6584,-75.5011 561.1397,-76.7688 564.2261,-83.0517"/>
</g>
</g>
</svg>
        <g id="navigator" transform="translate(0 0)" fill="#404254">
                <rect fill="#f2f5e9" fill-opacity="0.5" stroke="#606060" stroke-width=".5" x="0" y="0" width="60" height="60"/>
                <use id="zoomplus" xlink:href="#zoomPlus" x="17" y="9" onmousedown="handleZoom(evt,'in')"/>
                <use id="zoomminus" xlink:href="#zoomMin" x="42" y="9" onmousedown="handleZoom(evt,'out')"/>
                <use id="reset" xlink:href="#resetDef" x="30" y="36" onmousedown="handleReset()"/>
                <g id="arrowUp" xlink:href="#dirArrow" transform="translate(30 24)" onmousedown="handlePan(0,-1)">
                  <use xlink:href="#rim" fill="#404040">
                        <set attributeName="fill" to="#808080" begin="arrowUp.mouseover" end="arrowUp.mouseout"/>
                  </use>
                  <path fill="none" stroke="white" stroke-width="1.5" d="M0,-3.0v7 M-2.5,-0.5L0,-3.0L2.5,-0.5"/>
                </g>
                <g id="arrowRight" xlink:href="#dirArrow" transform="rotate(90) translate(36 -43)" onmousedown="handlePan(1,0)">
                  <use xlink:href="#rim" fill="#404040">
                        <set attributeName="fill" to="#808080" begin="arrowRight.mouseover" end="arrowRight.mouseout"/>
                  </use>
                  <path fill="none" stroke="white" stroke-width="1.5" d="M0,-3.0v7 M-2.5,-0.5L0,-3.0L2.5,-0.5"/>
                </g>
                <g id="arrowDown" xlink:href="#dirArrow" transform="rotate(180) translate(-30 -48)" onmousedown="handlePan(0,1)">
                  <use xlink:href="#rim" fill="#404040">
                        <set attributeName="fill" to="#808080" begin="arrowDown.mouseover" end="arrowDown.mouseout"/>
                  </use>
                  <path fill="none" stroke="white" stroke-width="1.5" d="M0,-3.0v7 M-2.5,-0.5L0,-3.0L2.5,-0.5"/>
                </g>
                <g id="arrowLeft" xlink:href="#dirArrow" transform="rotate(270) translate(-36 17)" onmousedown="handlePan(-1,0)">
                  <use xlink:href="#rim" fill="#404040">
                        <set attributeName="fill" to="#808080" begin="arrowLeft.mouseover" end="arrowLeft.mouseout"/>
                  </use>
                  <path fill="none" stroke="white" stroke-width="1.5" d="M0,-3.0v7 M-2.5,-0.5L0,-3.0L2.5,-0.5"/>
                </g>
        </g>
        <svg viewBox="0 0 15 15" width="100%" height="30px" preserveAspectRatio="xMaxYMin meet">
         <g id="arrow_out" transform="scale(0.3 0.3)">
          <a xlink:href="minimap_8cpp__incl_org.svg" target="_base">
           <rect id="button" ry="5" rx="5" y="6" x="6" height="38" width="38"
                fill="#f2f5e9" fill-opacity="0.5" stroke="#606060" stroke-width="1.0"/>
           <path id="arrow"
             d="M 11.500037,31.436501 C 11.940474,20.09759 22.043105,11.32322 32.158766,21.979434 L 37.068811,17.246167 C 37.068811,17.246167 37.088388,32 37.088388,32 L 22.160133,31.978069 C 22.160133,31.978069 26.997745,27.140456 26.997745,27.140456 C 18.528582,18.264221 13.291696,25.230495 11.500037,31.436501 z"
             style="fill:#404040;"/>
          </a>
         </g>
        </svg>
</svg>
