<?xml version="1.0" encoding="UTF-8" standalone="no"?>
<!DOCTYPE svg PUBLIC "-//W3C//DTD SVG 1.1//EN"
 "http://www.w3.org/Graphics/SVG/1.1/DTD/svg11.dtd">
<!-- Generated by graphviz version 2.40.1 (20161225.0304)
 -->
<!-- Title: src/application_server/minimap.h Pages: 1 -->
<!--zoomable 319 -->
<svg id="main" version="1.1" xmlns="http://www.w3.org/2000/svg" xmlns:xlink="http://www.w3.org/1999/xlink" xml:space="preserve" onload="init(evt)">
<style type="text/css"><![CDATA[
.edge:hover path { stroke: red; }
.edge:hover polygon { stroke: red; fill: red; }
]]></style>
<script type="text/javascript"><![CDATA[
var edges = document.getElementsByTagName('g');
if (edges && edges.length) {
  for (var i=0;i<edges.length;i++) {
    if (edges[i].id.substr(0,4)=='edge') {
      edges[i].setAttribute('class','edge');
    }
  }
}
]]></script>
        <defs>
                <circle id="rim" cx="0" cy="0" r="7"/>
                <circle id="rim2" cx="0" cy="0" r="3.5"/>
                <g id="zoomPlus">
                        <use xlink:href="#rim" fill="#404040">
                                <set attributeName="fill" to="#808080" begin="zoomplus.mouseover" end="zoomplus.mouseout"/>
                        </use>
                        <path d="M-4,0h8M0,-4v8" fill="none" stroke="white" stroke-width="1.5" pointer-events="none"/>
                </g>
                <g id="zoomMin">
                        <use xlink:href="#rim" fill="#404040">
                                <set attributeName="fill" to="#808080" begin="zoomminus.mouseover" end="zoomminus.mouseout"/>
                        </use>
                        <path d="M-4,0h8" fill="none" stroke="white" stroke-width="1.5" pointer-events="none"/>
                </g>
                <g id="dirArrow">
                        <path fill="none" stroke="white" stroke-width="1.5" d="M0,-3.0v7 M-2.5,-0.5L0,-3.0L2.5,-0.5"/>
                </g>
               <g id="resetDef">
                       <use xlink:href="#rim2" fill="#404040">
                               <set attributeName="fill" to="#808080" begin="reset.mouseover" end="reset.mouseout"/>
                       </use>
               </g>
        </defs>

<script type="text/javascript">
var viewWidth = 990;
var viewHeight = 319;
var sectionId = 'dynsection-0';
</script>
<script xlink:href="svgpan.js"/>
<svg id="graph" class="graph">
<g id="viewport">
<title>src/application_server/minimap.h</title>
<polygon fill="#ffffff" stroke="transparent" points="-4,4 -4,-315 986.1553,-315 986.1553,4 -4,4"/>
<!-- Node1 -->
<g id="node1" class="node">
<title>Node1</title>
<g id="a_node1"><a xlink:title=" ">
<polygon fill="#bfbfbf" stroke="#000000" points="296.6553,-280.5 296.6553,-310.5 411.6553,-310.5 411.6553,-280.5 296.6553,-280.5"/>
<text text-anchor="start" x="304.6553" y="-298.5" font-family="Helvetica,sans-Serif" font-size="10.00" fill="#000000">src/application_server</text>
<text text-anchor="middle" x="354.1553" y="-287.5" font-family="Helvetica,sans-Serif" font-size="10.00" fill="#000000">/minimap.h</text>
</a>
</g>
</g>
<!-- Node2 -->
<g id="node2" class="node">
<title>Node2</title>
<g id="a_node2"><a xlink:title=" ">
<polygon fill="#ffffff" stroke="#bfbfbf" points="626.1553,-112.5 626.1553,-131.5 682.1553,-131.5 682.1553,-112.5 626.1553,-112.5"/>
<text text-anchor="middle" x="654.1553" y="-119.5" font-family="Helvetica,sans-Serif" font-size="10.00" fill="#000000">QWidget</text>
</a>
</g>
</g>
<!-- Node1&#45;&gt;Node2 -->
<g id="edge1" class="edge">
<title>Node1&#45;&gt;Node2</title>
<path fill="none" stroke="#191970" d="M380.2535,-280.4065C437.2566,-247.4398 572.2873,-169.347 628.6991,-136.7221"/>
<polygon fill="#191970" stroke="#191970" points="630.7656,-139.5703 637.6699,-131.534 627.2611,-133.5107 630.7656,-139.5703"/>
</g>
<!-- Node3 -->
<g id="node3" class="node">
<title>Node3</title>
<g id="a_node3"><a xlink:href="maprenderer_8h.html" target="_top" xlink:title=" ">
<polygon fill="#ffffff" stroke="#000000" points="313.1553,-224.5 313.1553,-243.5 395.1553,-243.5 395.1553,-224.5 313.1553,-224.5"/>
<text text-anchor="middle" x="354.1553" y="-231.5" font-family="Helvetica,sans-Serif" font-size="10.00" fill="#000000">maprenderer.h</text>
</a>
</g>
</g>
<!-- Node1&#45;&gt;Node3 -->
<g id="edge2" class="edge">
<title>Node1&#45;&gt;Node3</title>
<path fill="none" stroke="#191970" d="M354.1553,-280.2977C354.1553,-272.3834 354.1553,-262.6043 354.1553,-254.0759"/>
<polygon fill="#191970" stroke="#191970" points="357.6554,-253.8469 354.1553,-243.8469 350.6554,-253.847 357.6554,-253.8469"/>
</g>
<!-- Node21 -->
<g id="node21" class="node">
<title>Node21</title>
<g id="a_node21"><a xlink:href="point_8h.html" target="_top" xlink:title=" ">
<polygon fill="#ffffff" stroke="#000000" points="17.6553,-56.5 17.6553,-75.5 62.6553,-75.5 62.6553,-56.5 17.6553,-56.5"/>
<text text-anchor="middle" x="40.1553" y="-63.5" font-family="Helvetica,sans-Serif" font-size="10.00" fill="#000000">point.h</text>
</a>
</g>
</g>
<!-- Node1&#45;&gt;Node21 -->
<g id="edge37" class="edge">
<title>Node1&#45;&gt;Node21</title>
<path fill="none" stroke="#191970" d="M296.3513,-285.6552C208.1209,-269.3296 46.4448,-233.8577 12.1553,-188 -8.0739,-160.9461 1.7793,-144.4534 11.1553,-112 14.0491,-101.9836 19.8431,-92.0485 25.4966,-83.9887"/>
<polygon fill="#191970" stroke="#191970" points="28.4532,-85.88 31.6576,-75.7814 22.855,-81.6776 28.4532,-85.88"/>
</g>
<!-- Node3&#45;&gt;Node2 -->
<g id="edge3" class="edge">
<title>Node3&#45;&gt;Node2</title>
<path fill="none" stroke="#191970" d="M385.0102,-224.4664C413.3198,-215.5593 456.3223,-201.6256 493.1553,-188 538.7306,-171.1404 590.5988,-149.4095 622.8569,-135.5859"/>
<polygon fill="#191970" stroke="#191970" points="624.4059,-138.7298 632.2098,-131.5639 621.6405,-132.2992 624.4059,-138.7298"/>
</g>
<!-- Node4 -->
<g id="node4" class="node">
<title>Node4</title>
<g id="a_node4"><a xlink:title=" ">
<polygon fill="#ffffff" stroke="#bfbfbf" points="39.6553,-112.5 39.6553,-131.5 78.6553,-131.5 78.6553,-112.5 39.6553,-112.5"/>
<text text-anchor="middle" x="59.1553" y="-119.5" font-family="Helvetica,sans-Serif" font-size="10.00" fill="#000000">QList</text>
</a>
</g>
</g>
<!-- Node3&#45;&gt;Node4 -->
<g id="edge4" class="edge">
<title>Node3&#45;&gt;Node4</title>
<path fill="none" stroke="#191970" d="M312.9954,-227.3899C274.7547,-220.4118 216.7147,-207.6643 169.1553,-188 136.5599,-174.5228 102.1946,-152.4608 80.7245,-137.5941"/>
<polygon fill="#191970" stroke="#191970" points="82.5487,-134.5982 72.3553,-131.7092 78.5223,-140.3243 82.5487,-134.5982"/>
</g>
<!-- Node5 -->
<g id="node5" class="node">
<title>Node5</title>
<g id="a_node5"><a xlink:title=" ">
<polygon fill="#ffffff" stroke="#bfbfbf" points="325.1553,-168.5 325.1553,-187.5 383.1553,-187.5 383.1553,-168.5 325.1553,-168.5"/>
<text text-anchor="middle" x="354.1553" y="-175.5" font-family="Helvetica,sans-Serif" font-size="10.00" fill="#000000">QThread</text>
</a>
</g>
</g>
<!-- Node3&#45;&gt;Node5 -->
<g id="edge5" class="edge">
<title>Node3&#45;&gt;Node5</title>
<path fill="none" stroke="#191970" d="M354.1553,-224.2455C354.1553,-216.9382 354.1553,-206.6944 354.1553,-197.7046"/>
<polygon fill="#191970" stroke="#191970" points="357.6554,-197.6426 354.1553,-187.6427 350.6554,-197.6427 357.6554,-197.6426"/>
</g>
<!-- Node6 -->
<g id="node6" class="node">
<title>Node6</title>
<g id="a_node6"><a xlink:href="graphicsmanager_8h.html" target="_top" xlink:title=" ">
<polygon fill="#ffffff" stroke="#000000" points="447.6553,-112.5 447.6553,-131.5 550.6553,-131.5 550.6553,-112.5 447.6553,-112.5"/>
<text text-anchor="middle" x="499.1553" y="-119.5" font-family="Helvetica,sans-Serif" font-size="10.00" fill="#000000">graphicsmanager.h</text>
</a>
</g>
</g>
<!-- Node3&#45;&gt;Node6 -->
<g id="edge6" class="edge">
<title>Node3&#45;&gt;Node6</title>
<path fill="none" stroke="#191970" d="M395.4138,-226.7984C420.7192,-220.4558 452.1795,-208.8418 473.1553,-188 485.6862,-175.5491 492.3373,-156.3308 495.7636,-141.8375"/>
<polygon fill="#191970" stroke="#191970" points="499.2283,-142.3637 497.7991,-131.8657 492.3698,-140.9636 499.2283,-142.3637"/>
</g>
<!-- Node10 -->
<g id="node10" class="node">
<title>Node10</title>
<g id="a_node10"><a xlink:href="datamodel_8h.html" target="_top" xlink:title=" ">
<polygon fill="#ffffff" stroke="#000000" points="707.6553,-168.5 707.6553,-187.5 780.6553,-187.5 780.6553,-168.5 707.6553,-168.5"/>
<text text-anchor="middle" x="744.1553" y="-175.5" font-family="Helvetica,sans-Serif" font-size="10.00" fill="#000000">datamodel.h</text>
</a>
</g>
</g>
<!-- Node3&#45;&gt;Node10 -->
<g id="edge10" class="edge">
<title>Node3&#45;&gt;Node10</title>
<path fill="none" stroke="#191970" d="M395.5229,-228.06C468.6367,-217.5616 620.2231,-195.7954 697.1627,-184.7477"/>
<polygon fill="#191970" stroke="#191970" points="698.1069,-188.1481 707.5079,-183.2622 697.1119,-181.2191 698.1069,-188.1481"/>
</g>
<!-- Node18 -->
<g id="node18" class="node">
<title>Node18</title>
<g id="a_node18"><a xlink:href="maptile_8h.html" target="_top" xlink:title=" ">
<polygon fill="#ffffff" stroke="#000000" points="408.1553,-168.5 408.1553,-187.5 464.1553,-187.5 464.1553,-168.5 408.1553,-168.5"/>
<text text-anchor="middle" x="436.1553" y="-175.5" font-family="Helvetica,sans-Serif" font-size="10.00" fill="#000000">maptile.h</text>
</a>
</g>
</g>
<!-- Node3&#45;&gt;Node18 -->
<g id="edge20" class="edge">
<title>Node3&#45;&gt;Node18</title>
<path fill="none" stroke="#191970" d="M368.4386,-224.2455C380.9023,-215.7337 399.2004,-203.2375 413.6345,-193.3801"/>
<polygon fill="#191970" stroke="#191970" points="415.7515,-196.1726 422.0357,-187.6427 411.8038,-190.392 415.7515,-196.1726"/>
</g>
<!-- Node3&#45;&gt;Node21 -->
<g id="edge25" class="edge">
<title>Node3&#45;&gt;Node21</title>
<path fill="none" stroke="#191970" d="M313.0003,-231.0938C229.3008,-224.779 45.4877,-208.6944 26.1553,-188 .0869,-160.0951 17.3511,-111.5142 30.0719,-84.8512"/>
<polygon fill="#191970" stroke="#191970" points="33.2605,-86.3008 34.6251,-75.7942 27.0063,-83.1567 33.2605,-86.3008"/>
</g>
<!-- Node22 -->
<g id="node22" class="node">
<title>Node22</title>
<g id="a_node22"><a xlink:href="animationmovement_8h.html" target="_top" xlink:title=" ">
<polygon fill="#ffffff" stroke="#000000" points="178.6553,-168.5 178.6553,-187.5 293.6553,-187.5 293.6553,-168.5 178.6553,-168.5"/>
<text text-anchor="middle" x="236.1553" y="-175.5" font-family="Helvetica,sans-Serif" font-size="10.00" fill="#000000">animationmovement.h</text>
</a>
</g>
</g>
<!-- Node3&#45;&gt;Node22 -->
<g id="edge26" class="edge">
<title>Node3&#45;&gt;Node22</title>
<path fill="none" stroke="#191970" d="M333.8704,-224.3733C315.0132,-215.4241 286.7093,-201.9917 265.4098,-191.8835"/>
<polygon fill="#191970" stroke="#191970" points="266.7104,-188.6266 256.1755,-187.5011 263.7092,-194.9506 266.7104,-188.6266"/>
</g>
<!-- Node25 -->
<g id="node25" class="node">
<title>Node25</title>
<g id="a_node25"><a xlink:href="sprite_8h.html" target="_top" xlink:title=" ">
<polygon fill="#ffffff" stroke="#000000" points="35.1553,-168.5 35.1553,-187.5 83.1553,-187.5 83.1553,-168.5 35.1553,-168.5"/>
<text text-anchor="middle" x="59.1553" y="-175.5" font-family="Helvetica,sans-Serif" font-size="10.00" fill="#000000">sprite.h</text>
</a>
</g>
</g>
<!-- Node3&#45;&gt;Node25 -->
<g id="edge34" class="edge">
<title>Node3&#45;&gt;Node25</title>
<path fill="none" stroke="#191970" d="M313.1368,-226.2134C254.5369,-215.0894 147.9243,-194.8511 93.3462,-184.4905"/>
<polygon fill="#191970" stroke="#191970" points="93.9461,-181.0419 83.4688,-182.6154 92.6406,-187.9191 93.9461,-181.0419"/>
</g>
<!-- Node7 -->
<g id="node7" class="node">
<title>Node7</title>
<g id="a_node7"><a xlink:title=" ">
<polygon fill="#ffffff" stroke="#bfbfbf" points="470.1553,-56.5 470.1553,-75.5 528.1553,-75.5 528.1553,-56.5 470.1553,-56.5"/>
<text text-anchor="middle" x="499.1553" y="-63.5" font-family="Helvetica,sans-Serif" font-size="10.00" fill="#000000">QPixmap</text>
</a>
</g>
</g>
<!-- Node6&#45;&gt;Node7 -->
<g id="edge7" class="edge">
<title>Node6&#45;&gt;Node7</title>
<path fill="none" stroke="#191970" d="M499.1553,-112.2455C499.1553,-104.9382 499.1553,-94.6944 499.1553,-85.7046"/>
<polygon fill="#191970" stroke="#191970" points="502.6554,-85.6426 499.1553,-75.6427 495.6554,-85.6427 502.6554,-85.6426"/>
</g>
<!-- Node8 -->
<g id="node8" class="node">
<title>Node8</title>
<g id="a_node8"><a xlink:title=" ">
<polygon fill="#ffffff" stroke="#bfbfbf" points="222.6553,-56.5 222.6553,-75.5 275.6553,-75.5 275.6553,-56.5 222.6553,-56.5"/>
<text text-anchor="middle" x="249.1553" y="-63.5" font-family="Helvetica,sans-Serif" font-size="10.00" fill="#000000">QImage</text>
</a>
</g>
</g>
<!-- Node6&#45;&gt;Node8 -->
<g id="edge8" class="edge">
<title>Node6&#45;&gt;Node8</title>
<path fill="none" stroke="#191970" d="M456.4628,-112.4369C408.4625,-101.6848 331.3131,-84.4033 285.8972,-74.2302"/>
<polygon fill="#191970" stroke="#191970" points="286.4139,-70.7593 275.8907,-71.9887 284.8838,-77.59 286.4139,-70.7593"/>
</g>
<!-- Node9 -->
<g id="node9" class="node">
<title>Node9</title>
<g id="a_node9"><a xlink:title=" ">
<polygon fill="#ffffff" stroke="#bfbfbf" points="567.6553,-56.5 567.6553,-75.5 608.6553,-75.5 608.6553,-56.5 567.6553,-56.5"/>
<text text-anchor="middle" x="588.1553" y="-63.5" font-family="Helvetica,sans-Serif" font-size="10.00" fill="#000000">string</text>
</a>
</g>
</g>
<!-- Node6&#45;&gt;Node9 -->
<g id="edge9" class="edge">
<title>Node6&#45;&gt;Node9</title>
<path fill="none" stroke="#191970" d="M514.6579,-112.2455C528.3132,-103.6534 548.421,-91.0014 564.1542,-81.1018"/>
<polygon fill="#191970" stroke="#191970" points="566.2304,-83.9307 572.8303,-75.6427 562.5024,-78.006 566.2304,-83.9307"/>
</g>
<!-- Node10&#45;&gt;Node2 -->
<g id="edge13" class="edge">
<title>Node10&#45;&gt;Node2</title>
<path fill="none" stroke="#191970" d="M728.4785,-168.2455C714.6697,-159.6534 694.336,-147.0014 678.4261,-137.1018"/>
<polygon fill="#191970" stroke="#191970" points="679.9921,-133.954 669.6524,-131.6427 676.294,-139.8974 679.9921,-133.954"/>
</g>
<!-- Node10&#45;&gt;Node9 -->
<g id="edge11" class="edge">
<title>Node10&#45;&gt;Node9</title>
<path fill="none" stroke="#191970" d="M738.4529,-168.2753C729.7929,-154.2231 712.0988,-128.1578 691.1553,-112 669.3361,-95.1666 640.3837,-82.9406 618.7322,-75.3428"/>
<polygon fill="#191970" stroke="#191970" points="619.6461,-71.9575 609.0519,-72.0814 617.411,-78.5911 619.6461,-71.9575"/>
</g>
<!-- Node11 -->
<g id="node11" class="node">
<title>Node11</title>
<g id="a_node11"><a xlink:title=" ">
<polygon fill="#ffffff" stroke="#bfbfbf" points="836.6553,-112.5 836.6553,-131.5 885.6553,-131.5 885.6553,-112.5 836.6553,-112.5"/>
<text text-anchor="middle" x="861.1553" y="-119.5" font-family="Helvetica,sans-Serif" font-size="10.00" fill="#000000">QLabel</text>
</a>
</g>
</g>
<!-- Node10&#45;&gt;Node11 -->
<g id="edge12" class="edge">
<title>Node10&#45;&gt;Node11</title>
<path fill="none" stroke="#191970" d="M764.2683,-168.3733C782.9656,-159.4241 811.0297,-145.9917 832.1487,-135.8835"/>
<polygon fill="#191970" stroke="#191970" points="833.7958,-138.9755 841.3047,-131.5011 830.7736,-132.6614 833.7958,-138.9755"/>
</g>
<!-- Node12 -->
<g id="node12" class="node">
<title>Node12</title>
<g id="a_node12"><a xlink:href="mainwindow_8h.html" target="_top" xlink:title=" ">
<polygon fill="#ffffff" stroke="#000000" points="738.1553,-112.5 738.1553,-131.5 818.1553,-131.5 818.1553,-112.5 738.1553,-112.5"/>
<text text-anchor="middle" x="778.1553" y="-119.5" font-family="Helvetica,sans-Serif" font-size="10.00" fill="#000000">mainwindow.h</text>
</a>
</g>
</g>
<!-- Node10&#45;&gt;Node12 -->
<g id="edge14" class="edge">
<title>Node10&#45;&gt;Node12</title>
<path fill="none" stroke="#191970" d="M750.0776,-168.2455C754.758,-160.5367 761.4226,-149.5598 767.0842,-140.2348"/>
<polygon fill="#191970" stroke="#191970" points="770.1027,-142.007 772.3008,-131.6427 764.1192,-138.3741 770.1027,-142.007"/>
</g>
<!-- Node15 -->
<g id="node15" class="node">
<title>Node15</title>
<g id="a_node15"><a xlink:href="player_8h.html" target="_top" xlink:title=" ">
<polygon fill="#ffffff" stroke="#000000" points="904.1553,-112.5 904.1553,-131.5 956.1553,-131.5 956.1553,-112.5 904.1553,-112.5"/>
<text text-anchor="middle" x="930.1553" y="-119.5" font-family="Helvetica,sans-Serif" font-size="10.00" fill="#000000">player.h</text>
</a>
</g>
</g>
<!-- Node10&#45;&gt;Node15 -->
<g id="edge17" class="edge">
<title>Node10&#45;&gt;Node15</title>
<path fill="none" stroke="#191970" d="M776.1298,-168.3733C809.0282,-158.4684 860.1678,-143.0715 894.3897,-132.7681"/>
<polygon fill="#191970" stroke="#191970" points="895.4294,-136.1104 903.9957,-129.876 893.4113,-129.4076 895.4294,-136.1104"/>
</g>
<!-- Node13 -->
<g id="node13" class="node">
<title>Node13</title>
<g id="a_node13"><a xlink:title=" ">
<polygon fill="#ffffff" stroke="#bfbfbf" points="675.6553,-56.5 675.6553,-75.5 758.6553,-75.5 758.6553,-56.5 675.6553,-56.5"/>
<text text-anchor="middle" x="717.1553" y="-63.5" font-family="Helvetica,sans-Serif" font-size="10.00" fill="#000000">QMainWindow</text>
</a>
</g>
</g>
<!-- Node12&#45;&gt;Node13 -->
<g id="edge15" class="edge">
<title>Node12&#45;&gt;Node13</title>
<path fill="none" stroke="#191970" d="M767.5299,-112.2455C758.608,-104.0549 745.6673,-92.1749 735.1361,-82.5069"/>
<polygon fill="#191970" stroke="#191970" points="737.3924,-79.8271 727.6589,-75.6427 732.6585,-84.9837 737.3924,-79.8271"/>
</g>
<!-- Node14 -->
<g id="node14" class="node">
<title>Node14</title>
<g id="a_node14"><a xlink:title=" ">
<polygon fill="#ffffff" stroke="#bfbfbf" points="776.6553,-56.5 776.6553,-75.5 843.6553,-75.5 843.6553,-56.5 776.6553,-56.5"/>
<text text-anchor="middle" x="810.1553" y="-63.5" font-family="Helvetica,sans-Serif" font-size="10.00" fill="#000000">QKeyEvent</text>
</a>
</g>
</g>
<!-- Node12&#45;&gt;Node14 -->
<g id="edge16" class="edge">
<title>Node12&#45;&gt;Node14</title>
<path fill="none" stroke="#191970" d="M783.7293,-112.2455C788.0884,-104.617 794.2764,-93.7881 799.5686,-84.5267"/>
<polygon fill="#191970" stroke="#191970" points="802.7226,-86.0616 804.6452,-75.6427 796.6449,-82.5886 802.7226,-86.0616"/>
</g>
<!-- Node16 -->
<g id="node16" class="node">
<title>Node16</title>
<g id="a_node16"><a xlink:href="highlighter_8h.html" target="_top" xlink:title=" ">
<polygon fill="#ffffff" stroke="#000000" points="895.1553,-56.5 895.1553,-75.5 965.1553,-75.5 965.1553,-56.5 895.1553,-56.5"/>
<text text-anchor="middle" x="930.1553" y="-63.5" font-family="Helvetica,sans-Serif" font-size="10.00" fill="#000000">highlighter.h</text>
</a>
</g>
</g>
<!-- Node15&#45;&gt;Node16 -->
<g id="edge18" class="edge">
<title>Node15&#45;&gt;Node16</title>
<path fill="none" stroke="#191970" d="M930.1553,-112.2455C930.1553,-104.9382 930.1553,-94.6944 930.1553,-85.7046"/>
<polygon fill="#191970" stroke="#191970" points="933.6554,-85.6426 930.1553,-75.6427 926.6554,-85.6427 933.6554,-85.6426"/>
</g>
<!-- Node17 -->
<g id="node17" class="node">
<title>Node17</title>
<g id="a_node17"><a xlink:title=" ">
<polygon fill="#ffffff" stroke="#bfbfbf" points="878.1553,-.5 878.1553,-19.5 982.1553,-19.5 982.1553,-.5 878.1553,-.5"/>
<text text-anchor="middle" x="930.1553" y="-7.5" font-family="Helvetica,sans-Serif" font-size="10.00" fill="#000000">QGraphicsRectItem</text>
</a>
</g>
</g>
<!-- Node16&#45;&gt;Node17 -->
<g id="edge19" class="edge">
<title>Node16&#45;&gt;Node17</title>
<path fill="none" stroke="#191970" d="M930.1553,-56.2455C930.1553,-48.9382 930.1553,-38.6944 930.1553,-29.7046"/>
<polygon fill="#191970" stroke="#191970" points="933.6554,-29.6426 930.1553,-19.6427 926.6554,-29.6427 933.6554,-29.6426"/>
</g>
<!-- Node18&#45;&gt;Node6 -->
<g id="edge24" class="edge">
<title>Node18&#45;&gt;Node6</title>
<path fill="none" stroke="#191970" d="M447.1291,-168.2455C456.3435,-160.0549 469.7085,-148.1749 480.585,-138.5069"/>
<polygon fill="#191970" stroke="#191970" points="483.1585,-140.9023 488.3073,-131.6427 478.5079,-135.6704 483.1585,-140.9023"/>
</g>
<!-- Node19 -->
<g id="node19" class="node">
<title>Node19</title>
<g id="a_node19"><a xlink:title=" ">
<polygon fill="#ffffff" stroke="#bfbfbf" points="312.6553,-112.5 312.6553,-131.5 429.6553,-131.5 429.6553,-112.5 312.6553,-112.5"/>
<text text-anchor="middle" x="371.1553" y="-119.5" font-family="Helvetica,sans-Serif" font-size="10.00" fill="#000000">QGraphicsPixmapItem</text>
</a>
</g>
</g>
<!-- Node18&#45;&gt;Node19 -->
<g id="edge21" class="edge">
<title>Node18&#45;&gt;Node19</title>
<path fill="none" stroke="#191970" d="M424.8332,-168.2455C415.233,-159.9746 401.2661,-147.9416 389.9858,-138.2232"/>
<polygon fill="#191970" stroke="#191970" points="392.2083,-135.5182 382.3477,-131.6427 387.6393,-140.8214 392.2083,-135.5182"/>
</g>
<!-- Node20 -->
<g id="node20" class="node">
<title>Node20</title>
<g id="a_node20"><a xlink:href="city_8h.html" target="_top" xlink:title=" ">
<polygon fill="#ffffff" stroke="#000000" points="568.6553,-112.5 568.6553,-131.5 607.6553,-131.5 607.6553,-112.5 568.6553,-112.5"/>
<text text-anchor="middle" x="588.1553" y="-119.5" font-family="Helvetica,sans-Serif" font-size="10.00" fill="#000000">city.h</text>
</a>
</g>
</g>
<!-- Node18&#45;&gt;Node20 -->
<g id="edge22" class="edge">
<title>Node18&#45;&gt;Node20</title>
<path fill="none" stroke="#191970" d="M462.285,-168.3733C489.1976,-158.4581 531.0478,-143.0396 559.0144,-132.7361"/>
<polygon fill="#191970" stroke="#191970" points="560.4629,-135.9325 568.6363,-129.1912 558.0429,-129.3641 560.4629,-135.9325"/>
</g>
<!-- Node20&#45;&gt;Node9 -->
<g id="edge23" class="edge">
<title>Node20&#45;&gt;Node9</title>
<path fill="none" stroke="#191970" d="M588.1553,-112.2455C588.1553,-104.9382 588.1553,-94.6944 588.1553,-85.7046"/>
<polygon fill="#191970" stroke="#191970" points="591.6554,-85.6426 588.1553,-75.6427 584.6554,-85.6427 591.6554,-85.6426"/>
</g>
<!-- Node22&#45;&gt;Node4 -->
<g id="edge31" class="edge">
<title>Node22&#45;&gt;Node4</title>
<path fill="none" stroke="#191970" d="M205.7279,-168.3733C172.9063,-157.989 121.0055,-141.5684 88.5792,-131.3092"/>
<polygon fill="#191970" stroke="#191970" points="89.3743,-127.8899 78.7843,-128.2103 87.2627,-134.5638 89.3743,-127.8899"/>
</g>
<!-- Node22&#45;&gt;Node19 -->
<g id="edge33" class="edge">
<title>Node22&#45;&gt;Node19</title>
<path fill="none" stroke="#191970" d="M259.3626,-168.3733C281.3252,-159.2629 314.4885,-145.5062 338.9954,-135.3404"/>
<polygon fill="#191970" stroke="#191970" points="340.355,-138.5657 348.2508,-131.5011 337.6729,-132.0999 340.355,-138.5657"/>
</g>
<!-- Node22&#45;&gt;Node21 -->
<g id="edge27" class="edge">
<title>Node22&#45;&gt;Node21</title>
<path fill="none" stroke="#191970" d="M207.6292,-168.3828C184.8433,-160.1622 152.481,-147.2599 126.1553,-132 101.1968,-117.5326 75.2947,-96.7286 58.5268,-82.3628"/>
<polygon fill="#191970" stroke="#191970" points="60.486,-79.4281 50.6442,-75.5049 55.8913,-84.7092 60.486,-79.4281"/>
</g>
<!-- Node23 -->
<g id="node23" class="node">
<title>Node23</title>
<g id="a_node23"><a xlink:href="animationentity_8h.html" target="_top" xlink:title=" ">
<polygon fill="#ffffff" stroke="#000000" points="203.6553,-112.5 203.6553,-131.5 294.6553,-131.5 294.6553,-112.5 203.6553,-112.5"/>
<text text-anchor="middle" x="249.1553" y="-119.5" font-family="Helvetica,sans-Serif" font-size="10.00" fill="#000000">animationentity.h</text>
</a>
</g>
</g>
<!-- Node22&#45;&gt;Node23 -->
<g id="edge28" class="edge">
<title>Node22&#45;&gt;Node23</title>
<path fill="none" stroke="#191970" d="M238.4197,-168.2455C240.1347,-160.8579 242.5464,-150.4689 244.6497,-141.4087"/>
<polygon fill="#191970" stroke="#191970" points="248.0648,-142.1751 246.9168,-131.6427 241.2461,-140.5922 248.0648,-142.1751"/>
</g>
<!-- Node24 -->
<g id="node24" class="node">
<title>Node24</title>
<g id="a_node24"><a xlink:title=" ">
<polygon fill="#ffffff" stroke="#bfbfbf" points="135.1553,-112.5 135.1553,-131.5 185.1553,-131.5 185.1553,-112.5 135.1553,-112.5"/>
<text text-anchor="middle" x="160.1553" y="-119.5" font-family="Helvetica,sans-Serif" font-size="10.00" fill="#000000">QString</text>
</a>
</g>
</g>
<!-- Node22&#45;&gt;Node24 -->
<g id="edge32" class="edge">
<title>Node22&#45;&gt;Node24</title>
<path fill="none" stroke="#191970" d="M222.9171,-168.2455C211.4743,-159.814 194.7257,-147.4729 181.4078,-137.6598"/>
<polygon fill="#191970" stroke="#191970" points="183.3686,-134.757 173.2418,-131.6427 179.2161,-140.3924 183.3686,-134.757"/>
</g>
<!-- Node23&#45;&gt;Node8 -->
<g id="edge29" class="edge">
<title>Node23&#45;&gt;Node8</title>
<path fill="none" stroke="#191970" d="M249.1553,-112.2455C249.1553,-104.9382 249.1553,-94.6944 249.1553,-85.7046"/>
<polygon fill="#191970" stroke="#191970" points="252.6554,-85.6426 249.1553,-75.6427 245.6554,-85.6427 252.6554,-85.6426"/>
</g>
<!-- Node23&#45;&gt;Node21 -->
<g id="edge30" class="edge">
<title>Node23&#45;&gt;Node21</title>
<path fill="none" stroke="#191970" d="M213.2269,-112.3733C173.7548,-101.797 110.9131,-84.959 72.7985,-74.7465"/>
<polygon fill="#191970" stroke="#191970" points="73.309,-71.2599 62.7438,-72.0524 71.4973,-78.0214 73.309,-71.2599"/>
</g>
<!-- Node25&#45;&gt;Node4 -->
<g id="edge36" class="edge">
<title>Node25&#45;&gt;Node4</title>
<path fill="none" stroke="#191970" d="M59.1553,-168.2455C59.1553,-160.9382 59.1553,-150.6944 59.1553,-141.7046"/>
<polygon fill="#191970" stroke="#191970" points="62.6554,-141.6426 59.1553,-131.6427 55.6554,-141.6427 62.6554,-141.6426"/>
</g>
<!-- Node25&#45;&gt;Node8 -->
<g id="edge35" class="edge">
<title>Node25&#45;&gt;Node8</title>
<path fill="none" stroke="#191970" d="M48.8089,-168.1695C35.6196,-154.4483 16.1146,-129.2963 30.1553,-112 52.6409,-84.3008 155.5844,-72.6695 211.9658,-68.308"/>
<polygon fill="#191970" stroke="#191970" points="212.5358,-71.7756 222.2528,-67.5529 212.0234,-64.7944 212.5358,-71.7756"/>
</g>
</g>
</svg>
        <g id="navigator" transform="translate(0 0)" fill="#404254">
                <rect fill="#f2f5e9" fill-opacity="0.5" stroke="#606060" stroke-width=".5" x="0" y="0" width="60" height="60"/>
                <use id="zoomplus" xlink:href="#zoomPlus" x="17" y="9" onmousedown="handleZoom(evt,'in')"/>
                <use id="zoomminus" xlink:href="#zoomMin" x="42" y="9" onmousedown="handleZoom(evt,'out')"/>
                <use id="reset" xlink:href="#resetDef" x="30" y="36" onmousedown="handleReset()"/>
                <g id="arrowUp" xlink:href="#dirArrow" transform="translate(30 24)" onmousedown="handlePan(0,-1)">
                  <use xlink:href="#rim" fill="#404040">
                        <set attributeName="fill" to="#808080" begin="arrowUp.mouseover" end="arrowUp.mouseout"/>
                  </use>
                  <path fill="none" stroke="white" stroke-width="1.5" d="M0,-3.0v7 M-2.5,-0.5L0,-3.0L2.5,-0.5"/>
                </g>
                <g id="arrowRight" xlink:href="#dirArrow" transform="rotate(90) translate(36 -43)" onmousedown="handlePan(1,0)">
                  <use xlink:href="#rim" fill="#404040">
                        <set attributeName="fill" to="#808080" begin="arrowRight.mouseover" end="arrowRight.mouseout"/>
                  </use>
                  <path fill="none" stroke="white" stroke-width="1.5" d="M0,-3.0v7 M-2.5,-0.5L0,-3.0L2.5,-0.5"/>
                </g>
                <g id="arrowDown" xlink:href="#dirArrow" transform="rotate(180) translate(-30 -48)" onmousedown="handlePan(0,1)">
                  <use xlink:href="#rim" fill="#404040">
                        <set attributeName="fill" to="#808080" begin="arrowDown.mouseover" end="arrowDown.mouseout"/>
                  </use>
                  <path fill="none" stroke="white" stroke-width="1.5" d="M0,-3.0v7 M-2.5,-0.5L0,-3.0L2.5,-0.5"/>
                </g>
                <g id="arrowLeft" xlink:href="#dirArrow" transform="rotate(270) translate(-36 17)" onmousedown="handlePan(-1,0)">
                  <use xlink:href="#rim" fill="#404040">
                        <set attributeName="fill" to="#808080" begin="arrowLeft.mouseover" end="arrowLeft.mouseout"/>
                  </use>
                  <path fill="none" stroke="white" stroke-width="1.5" d="M0,-3.0v7 M-2.5,-0.5L0,-3.0L2.5,-0.5"/>
                </g>
        </g>
        <svg viewBox="0 0 15 15" width="100%" height="30px" preserveAspectRatio="xMaxYMin meet">
         <g id="arrow_out" transform="scale(0.3 0.3)">
          <a xlink:href="minimap_8h__incl_org.svg" target="_base">
           <rect id="button" ry="5" rx="5" y="6" x="6" height="38" width="38"
                fill="#f2f5e9" fill-opacity="0.5" stroke="#606060" stroke-width="1.0"/>
           <path id="arrow"
             d="M 11.500037,31.436501 C 11.940474,20.09759 22.043105,11.32322 32.158766,21.979434 L 37.068811,17.246167 C 37.068811,17.246167 37.088388,32 37.088388,32 L 22.160133,31.978069 C 22.160133,31.978069 26.997745,27.140456 26.997745,27.140456 C 18.528582,18.264221 13.291696,25.230495 11.500037,31.436501 z"
             style="fill:#404040;"/>
          </a>
         </g>
        </svg>
</svg>
