<?xml version="1.0" encoding="UTF-8" standalone="no"?>
<!DOCTYPE svg PUBLIC "-//W3C//DTD SVG 1.1//EN"
 "http://www.w3.org/Graphics/SVG/1.1/DTD/svg11.dtd">
<!-- Generated by graphviz version 2.40.1 (20161225.0304)
 -->
<!-- Title: src/application_server/minimap.cpp Pages: 1 -->
<svg width="870pt" height="375pt"
 viewBox="0.00 0.00 870.34 375.00" xmlns="http://www.w3.org/2000/svg" xmlns:xlink="http://www.w3.org/1999/xlink">
<g id="graph0" class="graph" transform="scale(1 1) rotate(0) translate(4 371)">
<title>src/application_server/minimap.cpp</title>
<polygon fill="#ffffff" stroke="transparent" points="-4,4 -4,-371 866.3401,-371 866.3401,4 -4,4"/>
<!-- Node1 -->
<g id="node1" class="node">
<title>Node1</title>
<g id="a_node1"><a xlink:title=" ">
<polygon fill="#bfbfbf" stroke="#000000" points="636.8401,-336.5 636.8401,-366.5 751.8401,-366.5 751.8401,-336.5 636.8401,-336.5"/>
<text text-anchor="start" x="644.8401" y="-354.5" font-family="Helvetica,sans-Serif" font-size="10.00" fill="#000000">src/application_server</text>
<text text-anchor="middle" x="694.3401" y="-343.5" font-family="Helvetica,sans-Serif" font-size="10.00" fill="#000000">/minimap.cpp</text>
</a>
</g>
</g>
<!-- Node2 -->
<g id="node2" class="node">
<title>Node2</title>
<g id="a_node2"><a xlink:href="minimap_8h.html" target="_top" xlink:title=" ">
<polygon fill="#ffffff" stroke="#000000" points="496.3401,-280.5 496.3401,-299.5 558.3401,-299.5 558.3401,-280.5 496.3401,-280.5"/>
<text text-anchor="middle" x="527.3401" y="-287.5" font-family="Helvetica,sans-Serif" font-size="10.00" fill="#000000">minimap.h</text>
</a>
</g>
</g>
<!-- Node1&#45;&gt;Node2 -->
<g id="edge1" class="edge">
<title>Node1&#45;&gt;Node2</title>
<path fill="none" stroke="#191970" d="M653.4873,-336.4554C625.7451,-326.239 589.4176,-312.8609 562.8746,-303.0861"/>
<polygon fill="#191970" stroke="#191970" points="563.8126,-299.7018 553.2191,-299.5303 561.3935,-306.2705 563.8126,-299.7018"/>
</g>
<!-- Node23 -->
<g id="node23" class="node">
<title>Node23</title>
<g id="a_node23"><a xlink:title=" ">
<polygon fill="#ffffff" stroke="#bfbfbf" points="576.8401,-280.5 576.8401,-299.5 647.8401,-299.5 647.8401,-280.5 576.8401,-280.5"/>
<text text-anchor="middle" x="612.3401" y="-287.5" font-family="Helvetica,sans-Serif" font-size="10.00" fill="#000000">QPaintEvent</text>
</a>
</g>
</g>
<!-- Node1&#45;&gt;Node23 -->
<g id="edge32" class="edge">
<title>Node1&#45;&gt;Node23</title>
<path fill="none" stroke="#191970" d="M674.0704,-336.2977C661.7394,-327.0495 646.0135,-315.2551 633.5204,-305.8853"/>
<polygon fill="#191970" stroke="#191970" points="635.5693,-303.047 625.4693,-299.8469 631.3693,-308.647 635.5693,-303.047"/>
</g>
<!-- Node24 -->
<g id="node24" class="node">
<title>Node24</title>
<g id="a_node24"><a xlink:title=" ">
<polygon fill="#ffffff" stroke="#bfbfbf" points="666.3401,-280.5 666.3401,-299.5 722.3401,-299.5 722.3401,-280.5 666.3401,-280.5"/>
<text text-anchor="middle" x="694.3401" y="-287.5" font-family="Helvetica,sans-Serif" font-size="10.00" fill="#000000">QPainter</text>
</a>
</g>
</g>
<!-- Node1&#45;&gt;Node24 -->
<g id="edge33" class="edge">
<title>Node1&#45;&gt;Node24</title>
<path fill="none" stroke="#191970" d="M694.3401,-336.2977C694.3401,-328.3834 694.3401,-318.6043 694.3401,-310.0759"/>
<polygon fill="#191970" stroke="#191970" points="697.8402,-309.8469 694.3401,-299.8469 690.8402,-309.847 697.8402,-309.8469"/>
</g>
<!-- Node25 -->
<g id="node25" class="node">
<title>Node25</title>
<g id="a_node25"><a xlink:title=" ">
<polygon fill="#ffffff" stroke="#bfbfbf" points="740.3401,-280.5 740.3401,-299.5 794.3401,-299.5 794.3401,-280.5 740.3401,-280.5"/>
<text text-anchor="middle" x="767.3401" y="-287.5" font-family="Helvetica,sans-Serif" font-size="10.00" fill="#000000">QDebug</text>
</a>
</g>
</g>
<!-- Node1&#45;&gt;Node25 -->
<g id="edge34" class="edge">
<title>Node1&#45;&gt;Node25</title>
<path fill="none" stroke="#191970" d="M712.385,-336.2977C723.1515,-327.2274 736.8252,-315.7077 747.8396,-306.4285"/>
<polygon fill="#191970" stroke="#191970" points="750.2591,-308.9667 755.6518,-299.8469 745.749,-303.6132 750.2591,-308.9667"/>
</g>
<!-- Node26 -->
<g id="node26" class="node">
<title>Node26</title>
<g id="a_node26"><a xlink:title=" ">
<polygon fill="#ffffff" stroke="#bfbfbf" points="812.3401,-280.5 812.3401,-299.5 862.3401,-299.5 862.3401,-280.5 812.3401,-280.5"/>
<text text-anchor="middle" x="837.3401" y="-287.5" font-family="Helvetica,sans-Serif" font-size="10.00" fill="#000000">QRectF</text>
</a>
</g>
</g>
<!-- Node1&#45;&gt;Node26 -->
<g id="edge35" class="edge">
<title>Node1&#45;&gt;Node26</title>
<path fill="none" stroke="#191970" d="M729.3218,-336.4554C752.6585,-326.419 783.0899,-313.3314 805.7031,-303.6061"/>
<polygon fill="#191970" stroke="#191970" points="807.3765,-306.6965 815.1801,-299.5303 804.6109,-300.2659 807.3765,-306.6965"/>
</g>
<!-- Node3 -->
<g id="node3" class="node">
<title>Node3</title>
<g id="a_node3"><a xlink:title=" ">
<polygon fill="#ffffff" stroke="#bfbfbf" points="600.3401,-112.5 600.3401,-131.5 656.3401,-131.5 656.3401,-112.5 600.3401,-112.5"/>
<text text-anchor="middle" x="628.3401" y="-119.5" font-family="Helvetica,sans-Serif" font-size="10.00" fill="#000000">QWidget</text>
</a>
</g>
</g>
<!-- Node2&#45;&gt;Node3 -->
<g id="edge2" class="edge">
<title>Node2&#45;&gt;Node3</title>
<path fill="none" stroke="#191970" d="M533.0596,-280.4862C549.2327,-253.5845 595.5154,-176.5994 617.0573,-140.7673"/>
<polygon fill="#191970" stroke="#191970" points="620.2788,-142.2017 622.4316,-131.8279 614.2795,-138.5949 620.2788,-142.2017"/>
</g>
<!-- Node4 -->
<g id="node4" class="node">
<title>Node4</title>
<g id="a_node4"><a xlink:href="maprenderer_8h.html" target="_top" xlink:title=" ">
<polygon fill="#ffffff" stroke="#000000" points="413.3401,-224.5 413.3401,-243.5 495.3401,-243.5 495.3401,-224.5 413.3401,-224.5"/>
<text text-anchor="middle" x="454.3401" y="-231.5" font-family="Helvetica,sans-Serif" font-size="10.00" fill="#000000">maprenderer.h</text>
</a>
</g>
</g>
<!-- Node2&#45;&gt;Node4 -->
<g id="edge3" class="edge">
<title>Node2&#45;&gt;Node4</title>
<path fill="none" stroke="#191970" d="M514.6244,-280.2455C503.738,-271.8943 487.8518,-259.7076 475.1201,-249.9408"/>
<polygon fill="#191970" stroke="#191970" points="476.9746,-246.9523 466.91,-243.6427 472.714,-252.5063 476.9746,-246.9523"/>
</g>
<!-- Node4&#45;&gt;Node3 -->
<g id="edge4" class="edge">
<title>Node4&#45;&gt;Node3</title>
<path fill="none" stroke="#191970" d="M469.1752,-224.4509C499.4804,-204.9441 568.6934,-160.3932 605.0507,-136.9909"/>
<polygon fill="#191970" stroke="#191970" points="607.0282,-139.8804 613.5425,-131.5249 603.2394,-133.9944 607.0282,-139.8804"/>
</g>
<!-- Node5 -->
<g id="node5" class="node">
<title>Node5</title>
<g id="a_node5"><a xlink:title=" ">
<polygon fill="#ffffff" stroke="#bfbfbf" points="13.8401,-112.5 13.8401,-131.5 52.8401,-131.5 52.8401,-112.5 13.8401,-112.5"/>
<text text-anchor="middle" x="33.3401" y="-119.5" font-family="Helvetica,sans-Serif" font-size="10.00" fill="#000000">QList</text>
</a>
</g>
</g>
<!-- Node4&#45;&gt;Node5 -->
<g id="edge5" class="edge">
<title>Node4&#45;&gt;Node5</title>
<path fill="none" stroke="#191970" d="M413.2523,-230.5034C338.0228,-223.7173 181.2055,-207.6847 130.3401,-188 100.0296,-176.27 69.82,-153.522 51.3608,-138.0478"/>
<polygon fill="#191970" stroke="#191970" points="53.6165,-135.3715 43.7482,-131.5156 49.0581,-140.6838 53.6165,-135.3715"/>
</g>
<!-- Node6 -->
<g id="node6" class="node">
<title>Node6</title>
<g id="a_node6"><a xlink:href="graphicsmanager_8h.html" target="_top" xlink:title=" ">
<polygon fill="#ffffff" stroke="#000000" points="421.8401,-112.5 421.8401,-131.5 524.8401,-131.5 524.8401,-112.5 421.8401,-112.5"/>
<text text-anchor="middle" x="473.3401" y="-119.5" font-family="Helvetica,sans-Serif" font-size="10.00" fill="#000000">graphicsmanager.h</text>
</a>
</g>
</g>
<!-- Node4&#45;&gt;Node6 -->
<g id="edge6" class="edge">
<title>Node4&#45;&gt;Node6</title>
<path fill="none" stroke="#191970" d="M456.3937,-224.1521C458.3026,-214.8532 461.17,-200.5077 463.3401,-188 466.0062,-172.6332 468.6328,-155.1834 470.5245,-142.0874"/>
<polygon fill="#191970" stroke="#191970" points="474.0359,-142.2548 471.9804,-131.8613 467.1058,-141.2682 474.0359,-142.2548"/>
</g>
<!-- Node10 -->
<g id="node10" class="node">
<title>Node10</title>
<g id="a_node10"><a xlink:href="datamodel_8h.html" target="_top" xlink:title=" ">
<polygon fill="#ffffff" stroke="#000000" points="647.8401,-168.5 647.8401,-187.5 720.8401,-187.5 720.8401,-168.5 647.8401,-168.5"/>
<text text-anchor="middle" x="684.3401" y="-175.5" font-family="Helvetica,sans-Serif" font-size="10.00" fill="#000000">datamodel.h</text>
</a>
</g>
</g>
<!-- Node4&#45;&gt;Node10 -->
<g id="edge10" class="edge">
<title>Node4&#45;&gt;Node10</title>
<path fill="none" stroke="#191970" d="M493.6171,-224.4369C533.5271,-214.7197 595.3407,-199.6694 637.7118,-189.353"/>
<polygon fill="#191970" stroke="#191970" points="638.618,-192.7347 647.5062,-186.9682 636.962,-185.9333 638.618,-192.7347"/>
</g>
<!-- Node15 -->
<g id="node15" class="node">
<title>Node15</title>
<g id="a_node15"><a xlink:href="maptile_8h.html" target="_top" xlink:title=" ">
<polygon fill="#ffffff" stroke="#000000" points="398.3401,-168.5 398.3401,-187.5 454.3401,-187.5 454.3401,-168.5 398.3401,-168.5"/>
<text text-anchor="middle" x="426.3401" y="-175.5" font-family="Helvetica,sans-Serif" font-size="10.00" fill="#000000">maptile.h</text>
</a>
</g>
</g>
<!-- Node4&#45;&gt;Node15 -->
<g id="edge17" class="edge">
<title>Node4&#45;&gt;Node15</title>
<path fill="none" stroke="#191970" d="M449.4628,-224.2455C445.6887,-216.6973 440.3479,-206.0158 435.7499,-196.8197"/>
<polygon fill="#191970" stroke="#191970" points="438.7641,-195.0217 431.1614,-187.6427 432.5031,-198.1522 438.7641,-195.0217"/>
</g>
<!-- Node19 -->
<g id="node19" class="node">
<title>Node19</title>
<g id="a_node19"><a xlink:href="point_8h.html" target="_top" xlink:title=" ">
<polygon fill="#ffffff" stroke="#000000" points="126.8401,-56.5 126.8401,-75.5 171.8401,-75.5 171.8401,-56.5 126.8401,-56.5"/>
<text text-anchor="middle" x="149.3401" y="-63.5" font-family="Helvetica,sans-Serif" font-size="10.00" fill="#000000">point.h</text>
</a>
</g>
</g>
<!-- Node4&#45;&gt;Node19 -->
<g id="edge23" class="edge">
<title>Node4&#45;&gt;Node19</title>
<path fill="none" stroke="#191970" d="M413.2638,-231.1792C330.8175,-225.134 148.0518,-209.6953 89.3401,-188 46.905,-172.3193 25.7953,-171.8283 4.3401,-132 -19.9689,-86.8744 66.9012,-72.4956 116.7239,-67.9956"/>
<polygon fill="#191970" stroke="#191970" points="117.0579,-71.48 126.7399,-67.1778 116.4882,-64.5033 117.0579,-71.48"/>
</g>
<!-- Node20 -->
<g id="node20" class="node">
<title>Node20</title>
<g id="a_node20"><a xlink:href="animationmovement_8h.html" target="_top" xlink:title=" ">
<polygon fill="#ffffff" stroke="#000000" points="139.8401,-168.5 139.8401,-187.5 254.8401,-187.5 254.8401,-168.5 139.8401,-168.5"/>
<text text-anchor="middle" x="197.3401" y="-175.5" font-family="Helvetica,sans-Serif" font-size="10.00" fill="#000000">animationmovement.h</text>
</a>
</g>
</g>
<!-- Node4&#45;&gt;Node20 -->
<g id="edge24" class="edge">
<title>Node4&#45;&gt;Node20</title>
<path fill="none" stroke="#191970" d="M413.3335,-225.0647C369.4084,-215.4935 299.5082,-200.2623 251.1801,-189.7317"/>
<polygon fill="#191970" stroke="#191970" points="251.7279,-186.269 241.212,-187.5596 250.2375,-193.1085 251.7279,-186.269"/>
</g>
<!-- Node7 -->
<g id="node7" class="node">
<title>Node7</title>
<g id="a_node7"><a xlink:title=" ">
<polygon fill="#ffffff" stroke="#bfbfbf" points="444.3401,-56.5 444.3401,-75.5 502.3401,-75.5 502.3401,-56.5 444.3401,-56.5"/>
<text text-anchor="middle" x="473.3401" y="-63.5" font-family="Helvetica,sans-Serif" font-size="10.00" fill="#000000">QPixmap</text>
</a>
</g>
</g>
<!-- Node6&#45;&gt;Node7 -->
<g id="edge7" class="edge">
<title>Node6&#45;&gt;Node7</title>
<path fill="none" stroke="#191970" d="M473.3401,-112.2455C473.3401,-104.9382 473.3401,-94.6944 473.3401,-85.7046"/>
<polygon fill="#191970" stroke="#191970" points="476.8402,-85.6426 473.3401,-75.6427 469.8402,-85.6427 476.8402,-85.6426"/>
</g>
<!-- Node8 -->
<g id="node8" class="node">
<title>Node8</title>
<g id="a_node8"><a xlink:title=" ">
<polygon fill="#ffffff" stroke="#bfbfbf" points="284.8401,-56.5 284.8401,-75.5 337.8401,-75.5 337.8401,-56.5 284.8401,-56.5"/>
<text text-anchor="middle" x="311.3401" y="-63.5" font-family="Helvetica,sans-Serif" font-size="10.00" fill="#000000">QImage</text>
</a>
</g>
</g>
<!-- Node6&#45;&gt;Node8 -->
<g id="edge8" class="edge">
<title>Node6&#45;&gt;Node8</title>
<path fill="none" stroke="#191970" d="M445.4913,-112.3733C418.4259,-103.0173 377.1854,-88.7614 347.5772,-78.5264"/>
<polygon fill="#191970" stroke="#191970" points="348.6142,-75.1817 338.0194,-75.2225 346.3272,-81.7976 348.6142,-75.1817"/>
</g>
<!-- Node9 -->
<g id="node9" class="node">
<title>Node9</title>
<g id="a_node9"><a xlink:title=" ">
<polygon fill="#ffffff" stroke="#bfbfbf" points="531.8401,-56.5 531.8401,-75.5 572.8401,-75.5 572.8401,-56.5 531.8401,-56.5"/>
<text text-anchor="middle" x="552.3401" y="-63.5" font-family="Helvetica,sans-Serif" font-size="10.00" fill="#000000">string</text>
</a>
</g>
</g>
<!-- Node6&#45;&gt;Node9 -->
<g id="edge9" class="edge">
<title>Node6&#45;&gt;Node9</title>
<path fill="none" stroke="#191970" d="M487.1008,-112.2455C498.9953,-103.814 516.4051,-91.4729 530.2486,-81.6598"/>
<polygon fill="#191970" stroke="#191970" points="532.6028,-84.2811 538.737,-75.6427 528.5547,-78.5704 532.6028,-84.2811"/>
</g>
<!-- Node10&#45;&gt;Node3 -->
<g id="edge13" class="edge">
<title>Node10&#45;&gt;Node3</title>
<path fill="none" stroke="#191970" d="M674.5856,-168.2455C666.4753,-160.1352 654.7476,-148.4075 645.132,-138.7919"/>
<polygon fill="#191970" stroke="#191970" points="647.5287,-136.2389 637.9827,-131.6427 642.5789,-141.1887 647.5287,-136.2389"/>
</g>
<!-- Node10&#45;&gt;Node9 -->
<g id="edge11" class="edge">
<title>Node10&#45;&gt;Node9</title>
<path fill="none" stroke="#191970" d="M684.1045,-168.2233C683.2529,-154.1063 679.6888,-127.9611 665.3401,-112 659.4942,-105.4973 614.174,-88.2443 582.7364,-76.8152"/>
<polygon fill="#191970" stroke="#191970" points="583.6792,-73.4345 573.0848,-73.3302 581.3017,-80.0184 583.6792,-73.4345"/>
</g>
<!-- Node11 -->
<g id="node11" class="node">
<title>Node11</title>
<g id="a_node11"><a xlink:title=" ">
<polygon fill="#ffffff" stroke="#bfbfbf" points="712.8401,-112.5 712.8401,-131.5 761.8401,-131.5 761.8401,-112.5 712.8401,-112.5"/>
<text text-anchor="middle" x="737.3401" y="-119.5" font-family="Helvetica,sans-Serif" font-size="10.00" fill="#000000">QLabel</text>
</a>
</g>
</g>
<!-- Node10&#45;&gt;Node11 -->
<g id="edge12" class="edge">
<title>Node10&#45;&gt;Node11</title>
<path fill="none" stroke="#191970" d="M693.572,-168.2455C701.1718,-160.2155 712.1278,-148.6394 721.1768,-139.0781"/>
<polygon fill="#191970" stroke="#191970" points="723.8821,-141.3115 728.214,-131.6427 718.798,-136.4998 723.8821,-141.3115"/>
</g>
<!-- Node12 -->
<g id="node12" class="node">
<title>Node12</title>
<g id="a_node12"><a xlink:href="player_8h.html" target="_top" xlink:title=" ">
<polygon fill="#ffffff" stroke="#000000" points="780.3401,-112.5 780.3401,-131.5 832.3401,-131.5 832.3401,-112.5 780.3401,-112.5"/>
<text text-anchor="middle" x="806.3401" y="-119.5" font-family="Helvetica,sans-Serif" font-size="10.00" fill="#000000">player.h</text>
</a>
</g>
</g>
<!-- Node10&#45;&gt;Node12 -->
<g id="edge14" class="edge">
<title>Node10&#45;&gt;Node12</title>
<path fill="none" stroke="#191970" d="M705.3126,-168.3733C724.8968,-159.3838 754.3362,-145.8706 776.391,-135.7471"/>
<polygon fill="#191970" stroke="#191970" points="778.013,-138.8538 785.6412,-131.5011 775.0928,-132.4919 778.013,-138.8538"/>
</g>
<!-- Node13 -->
<g id="node13" class="node">
<title>Node13</title>
<g id="a_node13"><a xlink:href="highlighter_8h.html" target="_top" xlink:title=" ">
<polygon fill="#ffffff" stroke="#000000" points="771.3401,-56.5 771.3401,-75.5 841.3401,-75.5 841.3401,-56.5 771.3401,-56.5"/>
<text text-anchor="middle" x="806.3401" y="-63.5" font-family="Helvetica,sans-Serif" font-size="10.00" fill="#000000">highlighter.h</text>
</a>
</g>
</g>
<!-- Node12&#45;&gt;Node13 -->
<g id="edge15" class="edge">
<title>Node12&#45;&gt;Node13</title>
<path fill="none" stroke="#191970" d="M806.3401,-112.2455C806.3401,-104.9382 806.3401,-94.6944 806.3401,-85.7046"/>
<polygon fill="#191970" stroke="#191970" points="809.8402,-85.6426 806.3401,-75.6427 802.8402,-85.6427 809.8402,-85.6426"/>
</g>
<!-- Node14 -->
<g id="node14" class="node">
<title>Node14</title>
<g id="a_node14"><a xlink:title=" ">
<polygon fill="#ffffff" stroke="#bfbfbf" points="754.3401,-.5 754.3401,-19.5 858.3401,-19.5 858.3401,-.5 754.3401,-.5"/>
<text text-anchor="middle" x="806.3401" y="-7.5" font-family="Helvetica,sans-Serif" font-size="10.00" fill="#000000">QGraphicsRectItem</text>
</a>
</g>
</g>
<!-- Node13&#45;&gt;Node14 -->
<g id="edge16" class="edge">
<title>Node13&#45;&gt;Node14</title>
<path fill="none" stroke="#191970" d="M806.3401,-56.2455C806.3401,-48.9382 806.3401,-38.6944 806.3401,-29.7046"/>
<polygon fill="#191970" stroke="#191970" points="809.8402,-29.6426 806.3401,-19.6427 802.8402,-29.6427 809.8402,-29.6426"/>
</g>
<!-- Node15&#45;&gt;Node6 -->
<g id="edge22" class="edge">
<title>Node15&#45;&gt;Node6</title>
<path fill="none" stroke="#191970" d="M434.5268,-168.2455C441.1989,-160.2958 450.788,-148.8706 458.7654,-139.3656"/>
<polygon fill="#191970" stroke="#191970" points="461.4993,-141.5525 465.2471,-131.6427 456.1374,-137.0524 461.4993,-141.5525"/>
</g>
<!-- Node16 -->
<g id="node16" class="node">
<title>Node16</title>
<g id="a_node16"><a xlink:title=" ">
<polygon fill="#ffffff" stroke="#bfbfbf" points="286.8401,-112.5 286.8401,-131.5 403.8401,-131.5 403.8401,-112.5 286.8401,-112.5"/>
<text text-anchor="middle" x="345.3401" y="-119.5" font-family="Helvetica,sans-Serif" font-size="10.00" fill="#000000">QGraphicsPixmapItem</text>
</a>
</g>
</g>
<!-- Node15&#45;&gt;Node16 -->
<g id="edge18" class="edge">
<title>Node15&#45;&gt;Node16</title>
<path fill="none" stroke="#191970" d="M412.2309,-168.2455C399.9192,-159.7337 381.8443,-147.2375 367.5862,-137.3801"/>
<polygon fill="#191970" stroke="#191970" points="369.5035,-134.4506 359.2875,-131.6427 365.5227,-140.2085 369.5035,-134.4506"/>
</g>
<!-- Node17 -->
<g id="node17" class="node">
<title>Node17</title>
<g id="a_node17"><a xlink:href="city_8h.html" target="_top" xlink:title=" ">
<polygon fill="#ffffff" stroke="#000000" points="542.8401,-112.5 542.8401,-131.5 581.8401,-131.5 581.8401,-112.5 542.8401,-112.5"/>
<text text-anchor="middle" x="562.3401" y="-119.5" font-family="Helvetica,sans-Serif" font-size="10.00" fill="#000000">city.h</text>
</a>
</g>
</g>
<!-- Node15&#45;&gt;Node17 -->
<g id="edge19" class="edge">
<title>Node15&#45;&gt;Node17</title>
<path fill="none" stroke="#191970" d="M449.7193,-168.3733C472.9173,-158.8211 508.5197,-144.1613 533.4692,-133.888"/>
<polygon fill="#191970" stroke="#191970" points="534.8737,-137.0948 542.7879,-130.0509 532.2084,-130.6221 534.8737,-137.0948"/>
</g>
<!-- Node17&#45;&gt;Node9 -->
<g id="edge20" class="edge">
<title>Node17&#45;&gt;Node9</title>
<path fill="none" stroke="#191970" d="M560.5982,-112.2455C559.2933,-104.9382 557.4641,-94.6944 555.8587,-85.7046"/>
<polygon fill="#191970" stroke="#191970" points="559.2654,-84.8717 554.062,-75.6427 552.3745,-86.1022 559.2654,-84.8717"/>
</g>
<!-- Node18 -->
<g id="node18" class="node">
<title>Node18</title>
<g id="a_node18"><a xlink:title=" ">
<polygon fill="#ffffff" stroke="#bfbfbf" points="591.3401,-56.5 591.3401,-75.5 635.3401,-75.5 635.3401,-56.5 591.3401,-56.5"/>
<text text-anchor="middle" x="613.3401" y="-63.5" font-family="Helvetica,sans-Serif" font-size="10.00" fill="#000000">vector</text>
</a>
</g>
</g>
<!-- Node17&#45;&gt;Node18 -->
<g id="edge21" class="edge">
<title>Node17&#45;&gt;Node18</title>
<path fill="none" stroke="#191970" d="M571.2236,-112.2455C578.5366,-104.2155 589.0792,-92.6394 597.7867,-83.0781"/>
<polygon fill="#191970" stroke="#191970" points="600.4127,-85.3928 604.5583,-75.6427 595.2373,-80.6795 600.4127,-85.3928"/>
</g>
<!-- Node20&#45;&gt;Node5 -->
<g id="edge29" class="edge">
<title>Node20&#45;&gt;Node5</title>
<path fill="none" stroke="#191970" d="M169.1464,-168.4267C143.749,-159.7956 105.1457,-146.6585 62.6876,-132.111"/>
<polygon fill="#191970" stroke="#191970" points="63.5867,-128.7193 52.9921,-128.7874 61.3168,-135.3411 63.5867,-128.7193"/>
</g>
<!-- Node20&#45;&gt;Node16 -->
<g id="edge31" class="edge">
<title>Node20&#45;&gt;Node16</title>
<path fill="none" stroke="#191970" d="M222.7822,-168.3733C247.0727,-159.1822 283.8609,-145.2624 310.7944,-135.0713"/>
<polygon fill="#191970" stroke="#191970" points="312.1157,-138.3136 320.2299,-131.5011 309.6384,-131.7666 312.1157,-138.3136"/>
</g>
<!-- Node20&#45;&gt;Node19 -->
<g id="edge25" class="edge">
<title>Node20&#45;&gt;Node19</title>
<path fill="none" stroke="#191970" d="M190.0295,-168.2298C183.5734,-159.2183 174.2869,-145.2668 168.3401,-132 161.6339,-117.0392 156.6503,-99.1095 153.4736,-85.7161"/>
<polygon fill="#191970" stroke="#191970" points="156.8311,-84.6918 151.232,-75.6973 150,-86.2203 156.8311,-84.6918"/>
</g>
<!-- Node21 -->
<g id="node21" class="node">
<title>Node21</title>
<g id="a_node21"><a xlink:href="animationentity_8h.html" target="_top" xlink:title=" ">
<polygon fill="#ffffff" stroke="#000000" points="177.8401,-112.5 177.8401,-131.5 268.8401,-131.5 268.8401,-112.5 177.8401,-112.5"/>
<text text-anchor="middle" x="223.3401" y="-119.5" font-family="Helvetica,sans-Serif" font-size="10.00" fill="#000000">animationentity.h</text>
</a>
</g>
</g>
<!-- Node20&#45;&gt;Node21 -->
<g id="edge26" class="edge">
<title>Node20&#45;&gt;Node21</title>
<path fill="none" stroke="#191970" d="M201.8689,-168.2455C205.3734,-160.6973 210.3327,-150.0158 214.6023,-140.8197"/>
<polygon fill="#191970" stroke="#191970" points="217.8265,-142.1867 218.8631,-131.6427 211.4774,-139.2389 217.8265,-142.1867"/>
</g>
<!-- Node22 -->
<g id="node22" class="node">
<title>Node22</title>
<g id="a_node22"><a xlink:title=" ">
<polygon fill="#ffffff" stroke="#bfbfbf" points="71.3401,-112.5 71.3401,-131.5 121.3401,-131.5 121.3401,-112.5 71.3401,-112.5"/>
<text text-anchor="middle" x="96.3401" y="-119.5" font-family="Helvetica,sans-Serif" font-size="10.00" fill="#000000">QString</text>
</a>
</g>
</g>
<!-- Node20&#45;&gt;Node22 -->
<g id="edge30" class="edge">
<title>Node20&#45;&gt;Node22</title>
<path fill="none" stroke="#191970" d="M179.7472,-168.2455C163.961,-159.4928 140.5762,-146.527 122.5813,-136.5496"/>
<polygon fill="#191970" stroke="#191970" points="124.1742,-133.4308 113.7313,-131.6427 120.7798,-139.5528 124.1742,-133.4308"/>
</g>
<!-- Node21&#45;&gt;Node8 -->
<g id="edge27" class="edge">
<title>Node21&#45;&gt;Node8</title>
<path fill="none" stroke="#191970" d="M238.6685,-112.2455C252.1704,-103.6534 272.0522,-91.0014 287.6086,-81.1018"/>
<polygon fill="#191970" stroke="#191970" points="289.6297,-83.9643 296.1873,-75.6427 285.8716,-78.0587 289.6297,-83.9643"/>
</g>
<!-- Node21&#45;&gt;Node19 -->
<g id="edge28" class="edge">
<title>Node21&#45;&gt;Node19</title>
<path fill="none" stroke="#191970" d="M210.4502,-112.2455C199.4147,-103.8943 183.3108,-91.7076 170.4047,-81.9408"/>
<polygon fill="#191970" stroke="#191970" points="172.1683,-78.8862 162.0822,-75.6427 167.9442,-84.4681 172.1683,-78.8862"/>
</g>
</g>
</svg>
