<?xml version="1.0" encoding="UTF-8" standalone="no"?>
<!DOCTYPE svg PUBLIC "-//W3C//DTD SVG 1.1//EN"
 "http://www.w3.org/Graphics/SVG/1.1/DTD/svg11.dtd">
<!-- Generated by graphviz version 2.40.1 (20161225.0304)
 -->
<!-- Title: src/application_server/minimap.cpp Pages: 1 -->
<svg width="1303pt" height="375pt"
 viewBox="0.00 0.00 1303.42 375.00" xmlns="http://www.w3.org/2000/svg" xmlns:xlink="http://www.w3.org/1999/xlink">
<g id="graph0" class="graph" transform="scale(1 1) rotate(0) translate(4 371)">
<title>src/application_server/minimap.cpp</title>
<polygon fill="#ffffff" stroke="transparent" points="-4,4 -4,-371 1299.421,-371 1299.421,4 -4,4"/>
<!-- Node1 -->
<g id="node1" class="node">
<title>Node1</title>
<g id="a_node1"><a xlink:title=" ">
<polygon fill="#bfbfbf" stroke="#000000" points="721.1405,-336.5 721.1405,-366.5 836.1405,-366.5 836.1405,-336.5 721.1405,-336.5"/>
<text text-anchor="start" x="729.1405" y="-354.5" font-family="Helvetica,sans-Serif" font-size="10.00" fill="#000000">src/application_server</text>
<text text-anchor="middle" x="778.6405" y="-343.5" font-family="Helvetica,sans-Serif" font-size="10.00" fill="#000000">/minimap.cpp</text>
</a>
</g>
</g>
<!-- Node2 -->
<g id="node2" class="node">
<title>Node2</title>
<g id="a_node2"><a xlink:href="minimap_8h.html" target="_top" xlink:title=" ">
<polygon fill="#ffffff" stroke="#000000" points="580.6405,-280.5 580.6405,-299.5 642.6405,-299.5 642.6405,-280.5 580.6405,-280.5"/>
<text text-anchor="middle" x="611.6405" y="-287.5" font-family="Helvetica,sans-Serif" font-size="10.00" fill="#000000">minimap.h</text>
</a>
</g>
</g>
<!-- Node1&#45;&gt;Node2 -->
<g id="edge1" class="edge">
<title>Node1&#45;&gt;Node2</title>
<path fill="none" stroke="#191970" d="M737.7877,-336.4554C710.0455,-326.239 673.718,-312.8609 647.175,-303.0861"/>
<polygon fill="#191970" stroke="#191970" points="648.113,-299.7018 637.5196,-299.5303 645.6939,-306.2705 648.113,-299.7018"/>
</g>
<!-- Node33 -->
<g id="node33" class="node">
<title>Node33</title>
<g id="a_node33"><a xlink:title=" ">
<polygon fill="#ffffff" stroke="#bfbfbf" points="661.1405,-280.5 661.1405,-299.5 732.1405,-299.5 732.1405,-280.5 661.1405,-280.5"/>
<text text-anchor="middle" x="696.6405" y="-287.5" font-family="Helvetica,sans-Serif" font-size="10.00" fill="#000000">QPaintEvent</text>
</a>
</g>
</g>
<!-- Node1&#45;&gt;Node33 -->
<g id="edge50" class="edge">
<title>Node1&#45;&gt;Node33</title>
<path fill="none" stroke="#191970" d="M758.3708,-336.2977C746.0398,-327.0495 730.3139,-315.2551 717.8208,-305.8853"/>
<polygon fill="#191970" stroke="#191970" points="719.8698,-303.047 709.7697,-299.8469 715.6697,-308.647 719.8698,-303.047"/>
</g>
<!-- Node34 -->
<g id="node34" class="node">
<title>Node34</title>
<g id="a_node34"><a xlink:title=" ">
<polygon fill="#ffffff" stroke="#bfbfbf" points="750.6405,-280.5 750.6405,-299.5 806.6405,-299.5 806.6405,-280.5 750.6405,-280.5"/>
<text text-anchor="middle" x="778.6405" y="-287.5" font-family="Helvetica,sans-Serif" font-size="10.00" fill="#000000">QPainter</text>
</a>
</g>
</g>
<!-- Node1&#45;&gt;Node34 -->
<g id="edge51" class="edge">
<title>Node1&#45;&gt;Node34</title>
<path fill="none" stroke="#191970" d="M778.6405,-336.2977C778.6405,-328.3834 778.6405,-318.6043 778.6405,-310.0759"/>
<polygon fill="#191970" stroke="#191970" points="782.1406,-309.8469 778.6405,-299.8469 775.1406,-309.847 782.1406,-309.8469"/>
</g>
<!-- Node35 -->
<g id="node35" class="node">
<title>Node35</title>
<g id="a_node35"><a xlink:title=" ">
<polygon fill="#ffffff" stroke="#bfbfbf" points="824.6405,-280.5 824.6405,-299.5 878.6405,-299.5 878.6405,-280.5 824.6405,-280.5"/>
<text text-anchor="middle" x="851.6405" y="-287.5" font-family="Helvetica,sans-Serif" font-size="10.00" fill="#000000">QDebug</text>
</a>
</g>
</g>
<!-- Node1&#45;&gt;Node35 -->
<g id="edge52" class="edge">
<title>Node1&#45;&gt;Node35</title>
<path fill="none" stroke="#191970" d="M796.6854,-336.2977C807.4519,-327.2274 821.1256,-315.7077 832.14,-306.4285"/>
<polygon fill="#191970" stroke="#191970" points="834.5595,-308.9667 839.9523,-299.8469 830.0494,-303.6132 834.5595,-308.9667"/>
</g>
<!-- Node36 -->
<g id="node36" class="node">
<title>Node36</title>
<g id="a_node36"><a xlink:title=" ">
<polygon fill="#ffffff" stroke="#bfbfbf" points="896.6405,-280.5 896.6405,-299.5 946.6405,-299.5 946.6405,-280.5 896.6405,-280.5"/>
<text text-anchor="middle" x="921.6405" y="-287.5" font-family="Helvetica,sans-Serif" font-size="10.00" fill="#000000">QRectF</text>
</a>
</g>
</g>
<!-- Node1&#45;&gt;Node36 -->
<g id="edge53" class="edge">
<title>Node1&#45;&gt;Node36</title>
<path fill="none" stroke="#191970" d="M813.6222,-336.4554C836.9589,-326.419 867.3903,-313.3314 890.0035,-303.6061"/>
<polygon fill="#191970" stroke="#191970" points="891.6769,-306.6965 899.4806,-299.5303 888.9113,-300.2659 891.6769,-306.6965"/>
</g>
<!-- Node3 -->
<g id="node3" class="node">
<title>Node3</title>
<g id="a_node3"><a xlink:title=" ">
<polygon fill="#ffffff" stroke="#bfbfbf" points="83.6405,-56.5 83.6405,-75.5 139.6405,-75.5 139.6405,-56.5 83.6405,-56.5"/>
<text text-anchor="middle" x="111.6405" y="-63.5" font-family="Helvetica,sans-Serif" font-size="10.00" fill="#000000">QWidget</text>
</a>
</g>
</g>
<!-- Node2&#45;&gt;Node3 -->
<g id="edge2" class="edge">
<title>Node2&#45;&gt;Node3</title>
<path fill="none" stroke="#191970" d="M580.4325,-287.777C474.6166,-279.7336 131.0778,-249.3329 41.6405,-188 11.1231,-167.0723 -12.5511,-143.0094 7.6405,-112 22.0922,-89.8056 49.9558,-78.2404 73.2068,-72.259"/>
<polygon fill="#191970" stroke="#191970" points="74.2141,-75.6185 83.1676,-69.9541 72.636,-68.7987 74.2141,-75.6185"/>
</g>
<!-- Node4 -->
<g id="node4" class="node">
<title>Node4</title>
<g id="a_node4"><a xlink:href="maprenderer_8h.html" target="_top" xlink:title=" ">
<polygon fill="#ffffff" stroke="#000000" points="570.6405,-224.5 570.6405,-243.5 652.6405,-243.5 652.6405,-224.5 570.6405,-224.5"/>
<text text-anchor="middle" x="611.6405" y="-231.5" font-family="Helvetica,sans-Serif" font-size="10.00" fill="#000000">maprenderer.h</text>
</a>
</g>
</g>
<!-- Node2&#45;&gt;Node4 -->
<g id="edge3" class="edge">
<title>Node2&#45;&gt;Node4</title>
<path fill="none" stroke="#191970" d="M611.6405,-280.2455C611.6405,-272.9382 611.6405,-262.6944 611.6405,-253.7046"/>
<polygon fill="#191970" stroke="#191970" points="615.1406,-253.6426 611.6405,-243.6427 608.1406,-253.6427 615.1406,-253.6426"/>
</g>
<!-- Node24 -->
<g id="node24" class="node">
<title>Node24</title>
<g id="a_node24"><a xlink:href="point_8h.html" target="_top" xlink:title=" ">
<polygon fill="#ffffff" stroke="#000000" points="1147.1405,-56.5 1147.1405,-75.5 1192.1405,-75.5 1192.1405,-56.5 1147.1405,-56.5"/>
<text text-anchor="middle" x="1169.6405" y="-63.5" font-family="Helvetica,sans-Serif" font-size="10.00" fill="#000000">point.h</text>
</a>
</g>
</g>
<!-- Node2&#45;&gt;Node24 -->
<g id="edge49" class="edge">
<title>Node2&#45;&gt;Node24</title>
<path fill="none" stroke="#191970" d="M643.0176,-281.8458C645.9245,-281.1841 648.8319,-280.557 651.6405,-280 788.9124,-252.7739 1175.9174,-287.1897 1274.6405,-188 1298.6003,-163.927 1301.5962,-140.1826 1282.6405,-112 1264.8992,-85.6229 1229.1234,-74.3633 1202.5557,-69.5614"/>
<polygon fill="#191970" stroke="#191970" points="1202.951,-66.0804 1192.5261,-67.9702 1201.8541,-72.9939 1202.951,-66.0804"/>
</g>
<!-- Node4&#45;&gt;Node3 -->
<g id="edge4" class="edge">
<title>Node4&#45;&gt;Node3</title>
<path fill="none" stroke="#191970" d="M570.593,-230.6866C501.3321,-224.7122 357.0289,-210.611 236.6405,-188 211.85,-183.3439 32.1211,-151.9148 16.6405,-132 -3.1592,-106.5291 39.2982,-87.0359 73.6753,-76.048"/>
<polygon fill="#191970" stroke="#191970" points="75.0023,-79.3028 83.5517,-73.0451 72.966,-72.6055 75.0023,-79.3028"/>
</g>
<!-- Node5 -->
<g id="node5" class="node">
<title>Node5</title>
<g id="a_node5"><a xlink:title=" ">
<polygon fill="#ffffff" stroke="#bfbfbf" points="1200.1405,-112.5 1200.1405,-131.5 1239.1405,-131.5 1239.1405,-112.5 1200.1405,-112.5"/>
<text text-anchor="middle" x="1219.6405" y="-119.5" font-family="Helvetica,sans-Serif" font-size="10.00" fill="#000000">QList</text>
</a>
</g>
</g>
<!-- Node4&#45;&gt;Node5 -->
<g id="edge5" class="edge">
<title>Node4&#45;&gt;Node5</title>
<path fill="none" stroke="#191970" d="M652.9655,-231.9751C753.2459,-226.7474 1007.218,-211.5384 1088.6405,-188 1128.732,-176.41 1171.1759,-152.6132 1196.5321,-136.987"/>
<polygon fill="#191970" stroke="#191970" points="1198.4513,-139.9147 1205.0646,-131.6373 1194.7329,-133.9839 1198.4513,-139.9147"/>
</g>
<!-- Node6 -->
<g id="node6" class="node">
<title>Node6</title>
<g id="a_node6"><a xlink:title=" ">
<polygon fill="#ffffff" stroke="#bfbfbf" points="60.6405,-168.5 60.6405,-187.5 118.6405,-187.5 118.6405,-168.5 60.6405,-168.5"/>
<text text-anchor="middle" x="89.6405" y="-175.5" font-family="Helvetica,sans-Serif" font-size="10.00" fill="#000000">QThread</text>
</a>
</g>
</g>
<!-- Node4&#45;&gt;Node6 -->
<g id="edge6" class="edge">
<title>Node4&#45;&gt;Node6</title>
<path fill="none" stroke="#191970" d="M570.3963,-231.8882C487.1813,-227.221 293.4119,-214.2947 132.6405,-188 131.3641,-187.7912 130.0691,-187.5665 128.7635,-187.3289"/>
<polygon fill="#191970" stroke="#191970" points="129.1739,-183.8415 118.6806,-185.3042 127.7958,-190.7045 129.1739,-183.8415"/>
</g>
<!-- Node7 -->
<g id="node7" class="node">
<title>Node7</title>
<g id="a_node7"><a xlink:title=" ">
<polygon fill="#ffffff" stroke="#bfbfbf" points="26.1405,-112.5 26.1405,-131.5 109.1405,-131.5 109.1405,-112.5 26.1405,-112.5"/>
<text text-anchor="middle" x="67.6405" y="-119.5" font-family="Helvetica,sans-Serif" font-size="10.00" fill="#000000">QVideoWidget</text>
</a>
</g>
</g>
<!-- Node4&#45;&gt;Node7 -->
<g id="edge7" class="edge">
<title>Node4&#45;&gt;Node7</title>
<path fill="none" stroke="#191970" d="M570.3663,-233.7563C446.8739,-232.602 86.6291,-225.9805 51.6405,-188 39.8451,-175.196 46.9793,-155.2055 55.1307,-140.5782"/>
<polygon fill="#191970" stroke="#191970" points="58.2234,-142.2291 60.4454,-131.8699 52.2483,-138.5824 58.2234,-142.2291"/>
</g>
<!-- Node8 -->
<g id="node8" class="node">
<title>Node8</title>
<g id="a_node8"><a xlink:title=" ">
<polygon fill="#ffffff" stroke="#bfbfbf" points="127.6405,-112.5 127.6405,-131.5 209.6405,-131.5 209.6405,-112.5 127.6405,-112.5"/>
<text text-anchor="middle" x="168.6405" y="-119.5" font-family="Helvetica,sans-Serif" font-size="10.00" fill="#000000">QMediaPlayer</text>
</a>
</g>
</g>
<!-- Node4&#45;&gt;Node8 -->
<g id="edge8" class="edge">
<title>Node4&#45;&gt;Node8</title>
<path fill="none" stroke="#191970" d="M570.3462,-230.2232C494.2899,-222.9381 335.0545,-206.0619 282.6405,-188 247.8645,-176.0162 211.7867,-153.0382 189.7703,-137.6113"/>
<polygon fill="#191970" stroke="#191970" points="191.6831,-134.6765 181.5111,-131.7133 187.6151,-140.3731 191.6831,-134.6765"/>
</g>
<!-- Node9 -->
<g id="node9" class="node">
<title>Node9</title>
<g id="a_node9"><a xlink:title=" ">
<polygon fill="#ffffff" stroke="#bfbfbf" points="292.1405,-168.5 292.1405,-187.5 377.1405,-187.5 377.1405,-168.5 292.1405,-168.5"/>
<text text-anchor="middle" x="334.6405" y="-175.5" font-family="Helvetica,sans-Serif" font-size="10.00" fill="#000000">QMediaPlaylist</text>
</a>
</g>
</g>
<!-- Node4&#45;&gt;Node9 -->
<g id="edge9" class="edge">
<title>Node4&#45;&gt;Node9</title>
<path fill="none" stroke="#191970" d="M570.4699,-225.6767C521.7646,-215.8301 440.5883,-199.419 387.3365,-188.6534"/>
<polygon fill="#191970" stroke="#191970" points="387.8999,-185.1965 377.4046,-186.6455 386.5127,-192.0577 387.8999,-185.1965"/>
</g>
<!-- Node10 -->
<g id="node10" class="node">
<title>Node10</title>
<g id="a_node10"><a xlink:href="graphicsmanager_8h.html" target="_top" xlink:title=" ">
<polygon fill="#ffffff" stroke="#000000" points="560.1405,-112.5 560.1405,-131.5 663.1405,-131.5 663.1405,-112.5 560.1405,-112.5"/>
<text text-anchor="middle" x="611.6405" y="-119.5" font-family="Helvetica,sans-Serif" font-size="10.00" fill="#000000">graphicsmanager.h</text>
</a>
</g>
</g>
<!-- Node4&#45;&gt;Node10 -->
<g id="edge10" class="edge">
<title>Node4&#45;&gt;Node10</title>
<path fill="none" stroke="#191970" d="M611.6405,-224.4509C611.6405,-206.184 611.6405,-165.9553 611.6405,-141.6976"/>
<polygon fill="#191970" stroke="#191970" points="615.1406,-141.5249 611.6405,-131.5249 608.1406,-141.5249 615.1406,-141.5249"/>
</g>
<!-- Node14 -->
<g id="node14" class="node">
<title>Node14</title>
<g id="a_node14"><a xlink:href="datamodel_8h.html" target="_top" xlink:title=" ">
<polygon fill="#ffffff" stroke="#000000" points="395.1405,-168.5 395.1405,-187.5 468.1405,-187.5 468.1405,-168.5 395.1405,-168.5"/>
<text text-anchor="middle" x="431.6405" y="-175.5" font-family="Helvetica,sans-Serif" font-size="10.00" fill="#000000">datamodel.h</text>
</a>
</g>
</g>
<!-- Node4&#45;&gt;Node14 -->
<g id="edge14" class="edge">
<title>Node4&#45;&gt;Node14</title>
<path fill="none" stroke="#191970" d="M580.6974,-224.3733C550.6366,-215.021 504.8379,-200.7725 471.9427,-190.5385"/>
<polygon fill="#191970" stroke="#191970" points="472.7681,-187.1299 462.1798,-187.5011 470.6886,-193.8139 472.7681,-187.1299"/>
</g>
<!-- Node4&#45;&gt;Node24 -->
<g id="edge35" class="edge">
<title>Node4&#45;&gt;Node24</title>
<path fill="none" stroke="#191970" d="M652.9907,-232.391C791.2375,-226.836 1229.9598,-207.7194 1252.6405,-188 1278.4468,-165.563 1282.803,-140.9742 1264.6405,-112 1251.029,-90.286 1223.9377,-78.5683 1202.1566,-72.4054"/>
<polygon fill="#191970" stroke="#191970" points="1202.838,-68.967 1192.2823,-69.8776 1201.1019,-75.7483 1202.838,-68.967"/>
</g>
<!-- Node25 -->
<g id="node25" class="node">
<title>Node25</title>
<g id="a_node25"><a xlink:href="maptile_8h.html" target="_top" xlink:title=" ">
<polygon fill="#ffffff" stroke="#000000" points="675.6405,-168.5 675.6405,-187.5 731.6405,-187.5 731.6405,-168.5 675.6405,-168.5"/>
<text text-anchor="middle" x="703.6405" y="-175.5" font-family="Helvetica,sans-Serif" font-size="10.00" fill="#000000">maptile.h</text>
</a>
</g>
</g>
<!-- Node4&#45;&gt;Node25 -->
<g id="edge30" class="edge">
<title>Node4&#45;&gt;Node25</title>
<path fill="none" stroke="#191970" d="M627.6657,-224.2455C641.7813,-215.6534 662.5668,-203.0014 678.8304,-193.1018"/>
<polygon fill="#191970" stroke="#191970" points="681.0768,-195.8319 687.799,-187.6427 677.4371,-189.8525 681.0768,-195.8319"/>
</g>
<!-- Node28 -->
<g id="node28" class="node">
<title>Node28</title>
<g id="a_node28"><a xlink:href="animationmovement_8h.html" target="_top" xlink:title=" ">
<polygon fill="#ffffff" stroke="#000000" points="866.1405,-168.5 866.1405,-187.5 981.1405,-187.5 981.1405,-168.5 866.1405,-168.5"/>
<text text-anchor="middle" x="923.6405" y="-175.5" font-family="Helvetica,sans-Serif" font-size="10.00" fill="#000000">animationmovement.h</text>
</a>
</g>
</g>
<!-- Node4&#45;&gt;Node28 -->
<g id="edge36" class="edge">
<title>Node4&#45;&gt;Node28</title>
<path fill="none" stroke="#191970" d="M652.7499,-226.6214C705.8083,-217.0981 798.6557,-200.4332 860.6447,-189.3069"/>
<polygon fill="#191970" stroke="#191970" points="861.4741,-192.7141 870.6984,-187.5024 860.2374,-185.8242 861.4741,-192.7141"/>
</g>
<!-- Node31 -->
<g id="node31" class="node">
<title>Node31</title>
<g id="a_node31"><a xlink:href="sprite_8h.html" target="_top" xlink:title=" ">
<polygon fill="#ffffff" stroke="#000000" points="1195.6405,-168.5 1195.6405,-187.5 1243.6405,-187.5 1243.6405,-168.5 1195.6405,-168.5"/>
<text text-anchor="middle" x="1219.6405" y="-175.5" font-family="Helvetica,sans-Serif" font-size="10.00" fill="#000000">sprite.h</text>
</a>
</g>
</g>
<!-- Node4&#45;&gt;Node31 -->
<g id="edge45" class="edge">
<title>Node4&#45;&gt;Node31</title>
<path fill="none" stroke="#191970" d="M652.6714,-231.0461C741.9052,-224.4902 960.2588,-207.7336 1142.6405,-188 1156.5996,-186.4896 1171.9461,-184.5529 1185.2404,-182.7868"/>
<polygon fill="#191970" stroke="#191970" points="1185.9533,-186.2225 1195.3964,-181.4184 1185.0185,-179.2852 1185.9533,-186.2225"/>
</g>
<!-- Node32 -->
<g id="node32" class="node">
<title>Node32</title>
<g id="a_node32"><a xlink:href="mousedecor_8h.html" target="_top" xlink:title=" ">
<polygon fill="#ffffff" stroke="#000000" points="999.1405,-168.5 999.1405,-187.5 1080.1405,-187.5 1080.1405,-168.5 999.1405,-168.5"/>
<text text-anchor="middle" x="1039.6405" y="-175.5" font-family="Helvetica,sans-Serif" font-size="10.00" fill="#000000">mousedecor.h</text>
</a>
</g>
</g>
<!-- Node4&#45;&gt;Node32 -->
<g id="edge48" class="edge">
<title>Node4&#45;&gt;Node32</title>
<path fill="none" stroke="#191970" d="M652.8967,-230.0207C720.7682,-223.2474 860.4187,-208.3587 989.0026,-187.9946"/>
<polygon fill="#191970" stroke="#191970" points="989.7062,-191.4266 999.0283,-186.3919 988.6012,-184.5144 989.7062,-191.4266"/>
</g>
<!-- Node11 -->
<g id="node11" class="node">
<title>Node11</title>
<g id="a_node11"><a xlink:title=" ">
<polygon fill="#ffffff" stroke="#bfbfbf" points="597.6405,-56.5 597.6405,-75.5 655.6405,-75.5 655.6405,-56.5 597.6405,-56.5"/>
<text text-anchor="middle" x="626.6405" y="-63.5" font-family="Helvetica,sans-Serif" font-size="10.00" fill="#000000">QPixmap</text>
</a>
</g>
</g>
<!-- Node10&#45;&gt;Node11 -->
<g id="edge11" class="edge">
<title>Node10&#45;&gt;Node11</title>
<path fill="none" stroke="#191970" d="M614.2533,-112.2455C616.2321,-104.8579 619.0149,-94.4689 621.4417,-85.4087"/>
<polygon fill="#191970" stroke="#191970" points="624.851,-86.2078 624.0576,-75.6427 618.0894,-84.3966 624.851,-86.2078"/>
</g>
<!-- Node12 -->
<g id="node12" class="node">
<title>Node12</title>
<g id="a_node12"><a xlink:title=" ">
<polygon fill="#ffffff" stroke="#bfbfbf" points="1076.1405,-56.5 1076.1405,-75.5 1129.1405,-75.5 1129.1405,-56.5 1076.1405,-56.5"/>
<text text-anchor="middle" x="1102.6405" y="-63.5" font-family="Helvetica,sans-Serif" font-size="10.00" fill="#000000">QImage</text>
</a>
</g>
</g>
<!-- Node10&#45;&gt;Node12 -->
<g id="edge12" class="edge">
<title>Node10&#45;&gt;Node12</title>
<path fill="none" stroke="#191970" d="M663.4919,-113.9307C668.2716,-113.2512 673.0434,-112.5968 677.6405,-112 820.7428,-93.4231 991.6375,-76.5292 1065.555,-69.4782"/>
<polygon fill="#191970" stroke="#191970" points="1066.1182,-72.9405 1075.7423,-68.5103 1065.456,-65.9719 1066.1182,-72.9405"/>
</g>
<!-- Node13 -->
<g id="node13" class="node">
<title>Node13</title>
<g id="a_node13"><a xlink:title=" ">
<polygon fill="#ffffff" stroke="#bfbfbf" points="689.1405,-56.5 689.1405,-75.5 730.1405,-75.5 730.1405,-56.5 689.1405,-56.5"/>
<text text-anchor="middle" x="709.6405" y="-63.5" font-family="Helvetica,sans-Serif" font-size="10.00" fill="#000000">string</text>
</a>
</g>
</g>
<!-- Node10&#45;&gt;Node13 -->
<g id="edge13" class="edge">
<title>Node10&#45;&gt;Node13</title>
<path fill="none" stroke="#191970" d="M628.7108,-112.2455C643.8875,-103.5731 666.3026,-90.7645 683.6968,-80.825"/>
<polygon fill="#191970" stroke="#191970" points="685.8199,-83.643 692.7658,-75.6427 682.3469,-77.5653 685.8199,-83.643"/>
</g>
<!-- Node14&#45;&gt;Node3 -->
<g id="edge16" class="edge">
<title>Node14&#45;&gt;Node3</title>
<path fill="none" stroke="#191970" d="M394.8532,-169.3724C351.3465,-158.9868 281.6745,-141.7317 256.6405,-132 238.852,-125.085 235.865,-120.2197 218.6405,-112 194.1114,-100.2945 165.8425,-88.1997 144.5233,-79.3513"/>
<polygon fill="#191970" stroke="#191970" points="145.8344,-76.1061 135.2554,-75.5274 143.1645,-82.577 145.8344,-76.1061"/>
</g>
<!-- Node14&#45;&gt;Node7 -->
<g id="edge19" class="edge">
<title>Node14&#45;&gt;Node7</title>
<path fill="none" stroke="#191970" d="M395.0343,-169.7655C391.8634,-169.1362 388.6992,-168.5378 385.6405,-168 270.8185,-147.8119 238.4694,-151.3211 119.234,-132.0091"/>
<polygon fill="#191970" stroke="#191970" points="119.7869,-128.5531 109.3524,-130.3889 118.6543,-135.4608 119.7869,-128.5531"/>
</g>
<!-- Node14&#45;&gt;Node8 -->
<g id="edge18" class="edge">
<title>Node14&#45;&gt;Node8</title>
<path fill="none" stroke="#191970" d="M394.9859,-170.0137C391.8254,-169.3306 388.6769,-168.6519 385.6405,-168 328.8763,-155.8136 263.7135,-142.0276 219.7295,-132.7521"/>
<polygon fill="#191970" stroke="#191970" points="220.3576,-129.3077 209.8507,-130.6696 218.9136,-136.1571 220.3576,-129.3077"/>
</g>
<!-- Node15 -->
<g id="node15" class="node">
<title>Node15</title>
<g id="a_node15"><a xlink:title=" ">
<polygon fill="#ffffff" stroke="#bfbfbf" points="256.1405,-56.5 256.1405,-75.5 305.1405,-75.5 305.1405,-56.5 256.1405,-56.5"/>
<text text-anchor="middle" x="280.6405" y="-63.5" font-family="Helvetica,sans-Serif" font-size="10.00" fill="#000000">QLabel</text>
</a>
</g>
</g>
<!-- Node14&#45;&gt;Node15 -->
<g id="edge15" class="edge">
<title>Node14&#45;&gt;Node15</title>
<path fill="none" stroke="#191970" d="M419.3259,-168.4996C402.5374,-155.5841 371.4817,-131.8221 344.6405,-112 330.823,-101.7959 315.1678,-90.5384 302.7995,-81.7142"/>
<polygon fill="#191970" stroke="#191970" points="304.624,-78.7168 294.4476,-75.7687 300.5644,-84.4194 304.624,-78.7168"/>
</g>
<!-- Node16 -->
<g id="node16" class="node">
<title>Node16</title>
<g id="a_node16"><a xlink:title=" ">
<polygon fill="#ffffff" stroke="#bfbfbf" points="777.6405,-112.5 777.6405,-131.5 827.6405,-131.5 827.6405,-112.5 777.6405,-112.5"/>
<text text-anchor="middle" x="802.6405" y="-119.5" font-family="Helvetica,sans-Serif" font-size="10.00" fill="#000000">QString</text>
</a>
</g>
</g>
<!-- Node14&#45;&gt;Node16 -->
<g id="edge17" class="edge">
<title>Node14&#45;&gt;Node16</title>
<path fill="none" stroke="#191970" d="M468.2282,-174.712C530.2741,-168.7535 659.8941,-154.6478 767.6405,-132 767.741,-131.9789 767.8416,-131.9576 767.9424,-131.9362"/>
<polygon fill="#191970" stroke="#191970" points="768.6039,-135.3769 777.5125,-129.6421 766.972,-128.5697 768.6039,-135.3769"/>
</g>
<!-- Node17 -->
<g id="node17" class="node">
<title>Node17</title>
<g id="a_node17"><a xlink:href="mainwindow_8h.html" target="_top" xlink:title=" ">
<polygon fill="#ffffff" stroke="#000000" points="391.6405,-112.5 391.6405,-131.5 471.6405,-131.5 471.6405,-112.5 391.6405,-112.5"/>
<text text-anchor="middle" x="431.6405" y="-119.5" font-family="Helvetica,sans-Serif" font-size="10.00" fill="#000000">mainwindow.h</text>
</a>
</g>
</g>
<!-- Node14&#45;&gt;Node17 -->
<g id="edge20" class="edge">
<title>Node14&#45;&gt;Node17</title>
<path fill="none" stroke="#191970" d="M431.6405,-168.2455C431.6405,-160.9382 431.6405,-150.6944 431.6405,-141.7046"/>
<polygon fill="#191970" stroke="#191970" points="435.1406,-141.6426 431.6405,-131.6427 428.1406,-141.6427 435.1406,-141.6426"/>
</g>
<!-- Node20 -->
<g id="node20" class="node">
<title>Node20</title>
<g id="a_node20"><a xlink:href="player_8h.html" target="_top" xlink:title=" ">
<polygon fill="#ffffff" stroke="#000000" points="489.6405,-112.5 489.6405,-131.5 541.6405,-131.5 541.6405,-112.5 489.6405,-112.5"/>
<text text-anchor="middle" x="515.6405" y="-119.5" font-family="Helvetica,sans-Serif" font-size="10.00" fill="#000000">player.h</text>
</a>
</g>
</g>
<!-- Node14&#45;&gt;Node20 -->
<g id="edge23" class="edge">
<title>Node14&#45;&gt;Node20</title>
<path fill="none" stroke="#191970" d="M446.2722,-168.2455C459.0399,-159.7337 477.7843,-147.2375 492.5704,-137.3801"/>
<polygon fill="#191970" stroke="#191970" points="494.7974,-140.1019 501.1765,-131.6427 490.9145,-134.2775 494.7974,-140.1019"/>
</g>
<!-- Node23 -->
<g id="node23" class="node">
<title>Node23</title>
<g id="a_node23"><a xlink:href="infowidget_8h.html" target="_top" xlink:title=" ">
<polygon fill="#ffffff" stroke="#000000" points="265.6405,-112.5 265.6405,-131.5 335.6405,-131.5 335.6405,-112.5 265.6405,-112.5"/>
<text text-anchor="middle" x="300.6405" y="-119.5" font-family="Helvetica,sans-Serif" font-size="10.00" fill="#000000">infowidget.h</text>
</a>
</g>
</g>
<!-- Node14&#45;&gt;Node23 -->
<g id="edge26" class="edge">
<title>Node14&#45;&gt;Node23</title>
<path fill="none" stroke="#191970" d="M409.1208,-168.3733C387.9033,-159.3032 355.9129,-145.6279 332.1636,-135.4755"/>
<polygon fill="#191970" stroke="#191970" points="333.4372,-132.2136 322.8663,-131.5011 330.6856,-138.6502 333.4372,-132.2136"/>
</g>
<!-- Node14&#45;&gt;Node24 -->
<g id="edge29" class="edge">
<title>Node14&#45;&gt;Node24</title>
<path fill="none" stroke="#191970" d="M468.254,-174.2621C516.0522,-168.6471 601.8426,-156.0332 671.6405,-132 690.0589,-125.6581 691.914,-117.3642 710.6405,-112 890.5991,-60.4506 948.7581,-110.8393 1137.1276,-75.6387"/>
<polygon fill="#191970" stroke="#191970" points="1137.9146,-79.0515 1147.0726,-73.724 1136.5912,-72.1777 1137.9146,-79.0515"/>
</g>
<!-- Node18 -->
<g id="node18" class="node">
<title>Node18</title>
<g id="a_node18"><a xlink:title=" ">
<polygon fill="#ffffff" stroke="#bfbfbf" points="408.1405,-56.5 408.1405,-75.5 491.1405,-75.5 491.1405,-56.5 408.1405,-56.5"/>
<text text-anchor="middle" x="449.6405" y="-63.5" font-family="Helvetica,sans-Serif" font-size="10.00" fill="#000000">QMainWindow</text>
</a>
</g>
</g>
<!-- Node17&#45;&gt;Node18 -->
<g id="edge21" class="edge">
<title>Node17&#45;&gt;Node18</title>
<path fill="none" stroke="#191970" d="M434.7759,-112.2455C437.1504,-104.8579 440.4898,-94.4689 443.402,-85.4087"/>
<polygon fill="#191970" stroke="#191970" points="446.813,-86.234 446.5411,-75.6427 440.1488,-84.0919 446.813,-86.234"/>
</g>
<!-- Node19 -->
<g id="node19" class="node">
<title>Node19</title>
<g id="a_node19"><a xlink:title=" ">
<polygon fill="#ffffff" stroke="#bfbfbf" points="323.1405,-56.5 323.1405,-75.5 390.1405,-75.5 390.1405,-56.5 323.1405,-56.5"/>
<text text-anchor="middle" x="356.6405" y="-63.5" font-family="Helvetica,sans-Serif" font-size="10.00" fill="#000000">QKeyEvent</text>
</a>
</g>
</g>
<!-- Node17&#45;&gt;Node19 -->
<g id="edge22" class="edge">
<title>Node17&#45;&gt;Node19</title>
<path fill="none" stroke="#191970" d="M418.5765,-112.2455C407.2843,-103.814 390.756,-91.4729 377.6134,-81.6598"/>
<polygon fill="#191970" stroke="#191970" points="379.6616,-78.8211 369.5548,-75.6427 375.4736,-84.4301 379.6616,-78.8211"/>
</g>
<!-- Node21 -->
<g id="node21" class="node">
<title>Node21</title>
<g id="a_node21"><a xlink:href="highlighter_8h.html" target="_top" xlink:title=" ">
<polygon fill="#ffffff" stroke="#000000" points="509.6405,-56.5 509.6405,-75.5 579.6405,-75.5 579.6405,-56.5 509.6405,-56.5"/>
<text text-anchor="middle" x="544.6405" y="-63.5" font-family="Helvetica,sans-Serif" font-size="10.00" fill="#000000">highlighter.h</text>
</a>
</g>
</g>
<!-- Node20&#45;&gt;Node21 -->
<g id="edge24" class="edge">
<title>Node20&#45;&gt;Node21</title>
<path fill="none" stroke="#191970" d="M520.6919,-112.2455C524.6424,-104.617 530.2502,-93.7881 535.0463,-84.5267"/>
<polygon fill="#191970" stroke="#191970" points="538.1564,-86.1321 539.647,-75.6427 531.9404,-82.9131 538.1564,-86.1321"/>
</g>
<!-- Node22 -->
<g id="node22" class="node">
<title>Node22</title>
<g id="a_node22"><a xlink:title=" ">
<polygon fill="#ffffff" stroke="#bfbfbf" points="492.6405,-.5 492.6405,-19.5 596.6405,-19.5 596.6405,-.5 492.6405,-.5"/>
<text text-anchor="middle" x="544.6405" y="-7.5" font-family="Helvetica,sans-Serif" font-size="10.00" fill="#000000">QGraphicsRectItem</text>
</a>
</g>
</g>
<!-- Node21&#45;&gt;Node22 -->
<g id="edge25" class="edge">
<title>Node21&#45;&gt;Node22</title>
<path fill="none" stroke="#191970" d="M544.6405,-56.2455C544.6405,-48.9382 544.6405,-38.6944 544.6405,-29.7046"/>
<polygon fill="#191970" stroke="#191970" points="548.1406,-29.6426 544.6405,-19.6427 541.1406,-29.6427 548.1406,-29.6426"/>
</g>
<!-- Node23&#45;&gt;Node3 -->
<g id="edge28" class="edge">
<title>Node23&#45;&gt;Node3</title>
<path fill="none" stroke="#191970" d="M268.1502,-112.3733C235.2015,-102.6107 184.2463,-87.5128 149.4924,-77.2154"/>
<polygon fill="#191970" stroke="#191970" points="150.2893,-73.8011 139.7069,-74.316 148.3006,-80.5127 150.2893,-73.8011"/>
</g>
<!-- Node23&#45;&gt;Node15 -->
<g id="edge27" class="edge">
<title>Node23&#45;&gt;Node15</title>
<path fill="none" stroke="#191970" d="M297.1568,-112.2455C294.4896,-104.7776 290.7272,-94.2427 287.4668,-85.1137"/>
<polygon fill="#191970" stroke="#191970" points="290.7438,-83.8829 284.0843,-75.6427 284.1516,-86.2373 290.7438,-83.8829"/>
</g>
<!-- Node25&#45;&gt;Node10 -->
<g id="edge34" class="edge">
<title>Node25&#45;&gt;Node10</title>
<path fill="none" stroke="#191970" d="M687.6153,-168.2455C673.4997,-159.6534 652.7141,-147.0014 636.4506,-137.1018"/>
<polygon fill="#191970" stroke="#191970" points="637.8439,-133.8525 627.482,-131.6427 634.2042,-139.8319 637.8439,-133.8525"/>
</g>
<!-- Node26 -->
<g id="node26" class="node">
<title>Node26</title>
<g id="a_node26"><a xlink:title=" ">
<polygon fill="#ffffff" stroke="#bfbfbf" points="846.1405,-112.5 846.1405,-131.5 963.1405,-131.5 963.1405,-112.5 846.1405,-112.5"/>
<text text-anchor="middle" x="904.6405" y="-119.5" font-family="Helvetica,sans-Serif" font-size="10.00" fill="#000000">QGraphicsPixmapItem</text>
</a>
</g>
</g>
<!-- Node25&#45;&gt;Node26 -->
<g id="edge31" class="edge">
<title>Node25&#45;&gt;Node26</title>
<path fill="none" stroke="#191970" d="M732.0126,-170.0953C765.461,-160.7764 821.4385,-145.1807 860.5532,-134.283"/>
<polygon fill="#191970" stroke="#191970" points="861.6648,-137.6067 870.3585,-131.5512 859.786,-130.8635 861.6648,-137.6067"/>
</g>
<!-- Node27 -->
<g id="node27" class="node">
<title>Node27</title>
<g id="a_node27"><a xlink:href="city_8h.html" target="_top" xlink:title=" ">
<polygon fill="#ffffff" stroke="#000000" points="720.1405,-112.5 720.1405,-131.5 759.1405,-131.5 759.1405,-112.5 720.1405,-112.5"/>
<text text-anchor="middle" x="739.6405" y="-119.5" font-family="Helvetica,sans-Serif" font-size="10.00" fill="#000000">city.h</text>
</a>
</g>
</g>
<!-- Node25&#45;&gt;Node27 -->
<g id="edge32" class="edge">
<title>Node25&#45;&gt;Node27</title>
<path fill="none" stroke="#191970" d="M709.9112,-168.2455C714.8669,-160.5367 721.9235,-149.5598 727.9181,-140.2348"/>
<polygon fill="#191970" stroke="#191970" points="730.9781,-141.9471 733.4416,-131.6427 725.0899,-138.1618 730.9781,-141.9471"/>
</g>
<!-- Node27&#45;&gt;Node13 -->
<g id="edge33" class="edge">
<title>Node27&#45;&gt;Node13</title>
<path fill="none" stroke="#191970" d="M734.4149,-112.2455C730.3282,-104.617 724.527,-93.7881 719.5655,-84.5267"/>
<polygon fill="#191970" stroke="#191970" points="722.6137,-82.8047 714.8062,-75.6427 716.4433,-86.1103 722.6137,-82.8047"/>
</g>
<!-- Node28&#45;&gt;Node5 -->
<g id="edge41" class="edge">
<title>Node28&#45;&gt;Node5</title>
<path fill="none" stroke="#191970" d="M981.2658,-169.1893C1043.2289,-159.531 1138.7134,-144.0717 1190.1395,-131.7182"/>
<polygon fill="#191970" stroke="#191970" points="1191.2696,-135.0431 1200.1155,-129.2121 1189.5641,-128.254 1191.2696,-135.0431"/>
</g>
<!-- Node28&#45;&gt;Node16 -->
<g id="edge42" class="edge">
<title>Node28&#45;&gt;Node16</title>
<path fill="none" stroke="#191970" d="M902.8399,-168.3733C883.4162,-159.3838 854.2181,-145.8706 832.3441,-135.7471"/>
<polygon fill="#191970" stroke="#191970" points="833.715,-132.5249 823.1697,-131.5011 830.7749,-138.8776 833.715,-132.5249"/>
</g>
<!-- Node28&#45;&gt;Node24 -->
<g id="edge37" class="edge">
<title>Node28&#45;&gt;Node24</title>
<path fill="none" stroke="#191970" d="M933.7598,-168.2681C949.1566,-153.9661 979.9322,-127.3142 1010.6405,-112 1060.4762,-87.1469 1079.4704,-92.1323 1137.3105,-75.9614"/>
<polygon fill="#191970" stroke="#191970" points="1138.3041,-79.3176 1146.9377,-73.1766 1136.359,-72.5932 1138.3041,-79.3176"/>
</g>
<!-- Node28&#45;&gt;Node26 -->
<g id="edge44" class="edge">
<title>Node28&#45;&gt;Node26</title>
<path fill="none" stroke="#191970" d="M920.3309,-168.2455C917.7972,-160.7776 914.2228,-150.2427 911.1255,-141.1137"/>
<polygon fill="#191970" stroke="#191970" points="914.4396,-139.9879 907.9121,-131.6427 907.8107,-142.237 914.4396,-139.9879"/>
</g>
<!-- Node29 -->
<g id="node29" class="node">
<title>Node29</title>
<g id="a_node29"><a xlink:href="animationentity_8h.html" target="_top" xlink:title=" ">
<polygon fill="#ffffff" stroke="#000000" points="1091.1405,-112.5 1091.1405,-131.5 1182.1405,-131.5 1182.1405,-112.5 1091.1405,-112.5"/>
<text text-anchor="middle" x="1136.6405" y="-119.5" font-family="Helvetica,sans-Serif" font-size="10.00" fill="#000000">animationentity.h</text>
</a>
</g>
</g>
<!-- Node28&#45;&gt;Node29 -->
<g id="edge38" class="edge">
<title>Node28&#45;&gt;Node29</title>
<path fill="none" stroke="#191970" d="M960.2565,-168.3733C996.2885,-158.9001 1051.4283,-144.4032 1090.4519,-134.1435"/>
<polygon fill="#191970" stroke="#191970" points="1091.7209,-137.4289 1100.5023,-131.5011 1089.941,-130.6589 1091.7209,-137.4289"/>
</g>
<!-- Node30 -->
<g id="node30" class="node">
<title>Node30</title>
<g id="a_node30"><a xlink:title=" ">
<polygon fill="#ffffff" stroke="#bfbfbf" points="1020.1405,-112.5 1020.1405,-131.5 1073.1405,-131.5 1073.1405,-112.5 1020.1405,-112.5"/>
<text text-anchor="middle" x="1046.6405" y="-119.5" font-family="Helvetica,sans-Serif" font-size="10.00" fill="#000000">QObject</text>
</a>
</g>
</g>
<!-- Node28&#45;&gt;Node30 -->
<g id="edge43" class="edge">
<title>Node28&#45;&gt;Node30</title>
<path fill="none" stroke="#191970" d="M944.7849,-168.3733C964.5296,-159.3838 994.2103,-145.8706 1016.446,-135.7471"/>
<polygon fill="#191970" stroke="#191970" points="1018.1211,-138.8302 1025.772,-131.5011 1015.2205,-132.4594 1018.1211,-138.8302"/>
</g>
<!-- Node29&#45;&gt;Node12 -->
<g id="edge39" class="edge">
<title>Node29&#45;&gt;Node12</title>
<path fill="none" stroke="#191970" d="M1130.7181,-112.2455C1126.0378,-104.5367 1119.3732,-93.5598 1113.7116,-84.2348"/>
<polygon fill="#191970" stroke="#191970" points="1116.6766,-82.3741 1108.495,-75.6427 1110.693,-86.007 1116.6766,-82.3741"/>
</g>
<!-- Node29&#45;&gt;Node24 -->
<g id="edge40" class="edge">
<title>Node29&#45;&gt;Node24</title>
<path fill="none" stroke="#191970" d="M1142.3887,-112.2455C1146.884,-104.617 1153.2653,-93.7881 1158.7229,-84.5267"/>
<polygon fill="#191970" stroke="#191970" points="1161.8966,-86.035 1163.9582,-75.6427 1155.8658,-82.4811 1161.8966,-86.035"/>
</g>
<!-- Node31&#45;&gt;Node5 -->
<g id="edge47" class="edge">
<title>Node31&#45;&gt;Node5</title>
<path fill="none" stroke="#191970" d="M1219.6405,-168.2455C1219.6405,-160.9382 1219.6405,-150.6944 1219.6405,-141.7046"/>
<polygon fill="#191970" stroke="#191970" points="1223.1406,-141.6426 1219.6405,-131.6427 1216.1406,-141.6427 1223.1406,-141.6426"/>
</g>
<!-- Node31&#45;&gt;Node12 -->
<g id="edge46" class="edge">
<title>Node31&#45;&gt;Node12</title>
<path fill="none" stroke="#191970" d="M1229.7458,-168.3556C1242.6487,-154.8554 1261.8155,-129.9645 1248.6405,-112 1246.9536,-109.6999 1181.8281,-89.7851 1139.1361,-76.9237"/>
<polygon fill="#191970" stroke="#191970" points="1139.9296,-73.5075 1129.3452,-73.9792 1137.9135,-80.2109 1139.9296,-73.5075"/>
</g>
</g>
</svg>
