<?xml version="1.0" encoding="UTF-8" standalone="no"?>
<!DOCTYPE svg PUBLIC "-//W3C//DTD SVG 1.1//EN"
 "http://www.w3.org/Graphics/SVG/1.1/DTD/svg11.dtd">
<!-- Generated by graphviz version 2.40.1 (20161225.0304)
 -->
<!-- Title: src/application_server/minimap.h Pages: 1 -->
<svg width="883pt" height="319pt"
 viewBox="0.00 0.00 882.70 319.00" xmlns="http://www.w3.org/2000/svg" xmlns:xlink="http://www.w3.org/1999/xlink">
<g id="graph0" class="graph" transform="scale(1 1) rotate(0) translate(4 315)">
<title>src/application_server/minimap.h</title>
<polygon fill="#ffffff" stroke="transparent" points="-4,4 -4,-315 878.7038,-315 878.7038,4 -4,4"/>
<!-- Node1 -->
<g id="node1" class="node">
<title>Node1</title>
<g id="a_node1"><a xlink:title=" ">
<polygon fill="#bfbfbf" stroke="#000000" points="402.2038,-280.5 402.2038,-310.5 517.2038,-310.5 517.2038,-280.5 402.2038,-280.5"/>
<text text-anchor="start" x="410.2038" y="-298.5" font-family="Helvetica,sans-Serif" font-size="10.00" fill="#000000">src/application_server</text>
<text text-anchor="middle" x="459.7038" y="-287.5" font-family="Helvetica,sans-Serif" font-size="10.00" fill="#000000">/minimap.h</text>
</a>
</g>
</g>
<!-- Node2 -->
<g id="node2" class="node">
<title>Node2</title>
<g id="a_node2"><a xlink:title=" ">
<polygon fill="#ffffff" stroke="#bfbfbf" points="818.7038,-112.5 818.7038,-131.5 874.7038,-131.5 874.7038,-112.5 818.7038,-112.5"/>
<text text-anchor="middle" x="846.7038" y="-119.5" font-family="Helvetica,sans-Serif" font-size="10.00" fill="#000000">QWidget</text>
</a>
</g>
</g>
<!-- Node1&#45;&gt;Node2 -->
<g id="edge1" class="edge">
<title>Node1&#45;&gt;Node2</title>
<path fill="none" stroke="#191970" d="M517.211,-285.258C584.988,-271.2699 699.0847,-241.5845 783.7038,-188 803.6528,-175.3675 821.73,-155.0692 833.3516,-140.3154"/>
<polygon fill="#191970" stroke="#191970" points="836.4378,-142.0397 839.7125,-131.9636 830.869,-137.7983 836.4378,-142.0397"/>
</g>
<!-- Node3 -->
<g id="node3" class="node">
<title>Node3</title>
<g id="a_node3"><a xlink:href="maprenderer_8h.html" target="_top" xlink:title=" ">
<polygon fill="#ffffff" stroke="#000000" points="418.7038,-224.5 418.7038,-243.5 500.7038,-243.5 500.7038,-224.5 418.7038,-224.5"/>
<text text-anchor="middle" x="459.7038" y="-231.5" font-family="Helvetica,sans-Serif" font-size="10.00" fill="#000000">maprenderer.h</text>
</a>
</g>
</g>
<!-- Node1&#45;&gt;Node3 -->
<g id="edge2" class="edge">
<title>Node1&#45;&gt;Node3</title>
<path fill="none" stroke="#191970" d="M459.7038,-280.2977C459.7038,-272.3834 459.7038,-262.6043 459.7038,-254.0759"/>
<polygon fill="#191970" stroke="#191970" points="463.2039,-253.8469 459.7038,-243.8469 456.2039,-253.847 463.2039,-253.8469"/>
</g>
<!-- Node18 -->
<g id="node18" class="node">
<title>Node18</title>
<g id="a_node18"><a xlink:href="point_8h.html" target="_top" xlink:title=" ">
<polygon fill="#ffffff" stroke="#000000" points="150.2038,-56.5 150.2038,-75.5 195.2038,-75.5 195.2038,-56.5 150.2038,-56.5"/>
<text text-anchor="middle" x="172.7038" y="-63.5" font-family="Helvetica,sans-Serif" font-size="10.00" fill="#000000">point.h</text>
</a>
</g>
</g>
<!-- Node1&#45;&gt;Node18 -->
<g id="edge31" class="edge">
<title>Node1&#45;&gt;Node18</title>
<path fill="none" stroke="#191970" d="M402.0312,-286.5325C300.7685,-269.8594 96.358,-231.7787 39.7038,-188 10.8382,-165.6944 -13.3344,-141.0703 8.7038,-112 24.5063,-91.1554 96.7896,-77.1524 139.9429,-70.4899"/>
<polygon fill="#191970" stroke="#191970" points="140.6017,-73.9304 149.9751,-68.9919 139.5679,-67.0072 140.6017,-73.9304"/>
</g>
<!-- Node3&#45;&gt;Node2 -->
<g id="edge3" class="edge">
<title>Node3&#45;&gt;Node2</title>
<path fill="none" stroke="#191970" d="M500.8139,-229.8208C570.0799,-222.3984 706.8759,-205.9942 751.7038,-188 781.0139,-176.2348 810.1643,-154.0172 828.29,-138.6294"/>
<polygon fill="#191970" stroke="#191970" points="831.0078,-140.9041 836.2548,-131.6998 826.4132,-135.6231 831.0078,-140.9041"/>
</g>
<!-- Node4 -->
<g id="node4" class="node">
<title>Node4</title>
<g id="a_node4"><a xlink:title=" ">
<polygon fill="#ffffff" stroke="#bfbfbf" points="18.2038,-112.5 18.2038,-131.5 57.2038,-131.5 57.2038,-112.5 18.2038,-112.5"/>
<text text-anchor="middle" x="37.7038" y="-119.5" font-family="Helvetica,sans-Serif" font-size="10.00" fill="#000000">QList</text>
</a>
</g>
</g>
<!-- Node3&#45;&gt;Node4 -->
<g id="edge4" class="edge">
<title>Node3&#45;&gt;Node4</title>
<path fill="none" stroke="#191970" d="M418.5446,-231.8692C321.4082,-226.4812 83.9899,-211.0797 56.7038,-188 43.5005,-176.8321 39.1592,-157.1351 37.8764,-142.1573"/>
<polygon fill="#191970" stroke="#191970" points="41.3575,-141.6691 37.3954,-131.843 34.3651,-141.9952 41.3575,-141.6691"/>
</g>
<!-- Node5 -->
<g id="node5" class="node">
<title>Node5</title>
<g id="a_node5"><a xlink:href="graphicsmanager_8h.html" target="_top" xlink:title=" ">
<polygon fill="#ffffff" stroke="#000000" points="464.2038,-112.5 464.2038,-131.5 567.2038,-131.5 567.2038,-112.5 464.2038,-112.5"/>
<text text-anchor="middle" x="515.7038" y="-119.5" font-family="Helvetica,sans-Serif" font-size="10.00" fill="#000000">graphicsmanager.h</text>
</a>
</g>
</g>
<!-- Node3&#45;&gt;Node5 -->
<g id="edge5" class="edge">
<title>Node3&#45;&gt;Node5</title>
<path fill="none" stroke="#191970" d="M469.5079,-224.2386C477.828,-215.4506 489.5261,-201.8263 496.7038,-188 504.2579,-173.4489 509.1785,-155.4888 512.1153,-141.9794"/>
<polygon fill="#191970" stroke="#191970" points="515.6118,-142.3416 514.1299,-131.851 508.7462,-140.976 515.6118,-142.3416"/>
</g>
<!-- Node9 -->
<g id="node9" class="node">
<title>Node9</title>
<g id="a_node9"><a xlink:href="datamodel_8h.html" target="_top" xlink:title=" ">
<polygon fill="#ffffff" stroke="#000000" points="669.2038,-168.5 669.2038,-187.5 742.2038,-187.5 742.2038,-168.5 669.2038,-168.5"/>
<text text-anchor="middle" x="705.7038" y="-175.5" font-family="Helvetica,sans-Serif" font-size="10.00" fill="#000000">datamodel.h</text>
</a>
</g>
</g>
<!-- Node3&#45;&gt;Node9 -->
<g id="edge9" class="edge">
<title>Node3&#45;&gt;Node9</title>
<path fill="none" stroke="#191970" d="M500.8787,-224.6269C544.4948,-214.698 613.2332,-199.0502 658.882,-188.6586"/>
<polygon fill="#191970" stroke="#191970" points="659.8485,-192.0282 668.8222,-186.3958 658.2947,-185.2029 659.8485,-192.0282"/>
</g>
<!-- Node14 -->
<g id="node14" class="node">
<title>Node14</title>
<g id="a_node14"><a xlink:href="maptile_8h.html" target="_top" xlink:title=" ">
<polygon fill="#ffffff" stroke="#000000" points="431.7038,-168.5 431.7038,-187.5 487.7038,-187.5 487.7038,-168.5 431.7038,-168.5"/>
<text text-anchor="middle" x="459.7038" y="-175.5" font-family="Helvetica,sans-Serif" font-size="10.00" fill="#000000">maptile.h</text>
</a>
</g>
</g>
<!-- Node3&#45;&gt;Node14 -->
<g id="edge16" class="edge">
<title>Node3&#45;&gt;Node14</title>
<path fill="none" stroke="#191970" d="M459.7038,-224.2455C459.7038,-216.9382 459.7038,-206.6944 459.7038,-197.7046"/>
<polygon fill="#191970" stroke="#191970" points="463.2039,-197.6426 459.7038,-187.6427 456.2039,-197.6427 463.2039,-197.6426"/>
</g>
<!-- Node3&#45;&gt;Node18 -->
<g id="edge22" class="edge">
<title>Node3&#45;&gt;Node18</title>
<path fill="none" stroke="#191970" d="M418.261,-225.7796C364.933,-213.4026 271.89,-185.512 210.7038,-132 196.2882,-119.3924 186.0205,-99.9232 179.8217,-85.393"/>
<polygon fill="#191970" stroke="#191970" points="182.9753,-83.8516 176.026,-75.8543 176.4713,-86.4398 182.9753,-83.8516"/>
</g>
<!-- Node19 -->
<g id="node19" class="node">
<title>Node19</title>
<g id="a_node19"><a xlink:href="animationmovement_8h.html" target="_top" xlink:title=" ">
<polygon fill="#ffffff" stroke="#000000" points="66.2038,-168.5 66.2038,-187.5 181.2038,-187.5 181.2038,-168.5 66.2038,-168.5"/>
<text text-anchor="middle" x="123.7038" y="-175.5" font-family="Helvetica,sans-Serif" font-size="10.00" fill="#000000">animationmovement.h</text>
</a>
</g>
</g>
<!-- Node3&#45;&gt;Node19 -->
<g id="edge23" class="edge">
<title>Node3&#45;&gt;Node19</title>
<path fill="none" stroke="#191970" d="M418.5037,-227.1333C361.8321,-217.688 259.1372,-200.5722 191.1691,-189.2442"/>
<polygon fill="#191970" stroke="#191970" points="191.4266,-185.7389 180.9872,-187.5472 190.2757,-192.6437 191.4266,-185.7389"/>
</g>
<!-- Node6 -->
<g id="node6" class="node">
<title>Node6</title>
<g id="a_node6"><a xlink:title=" ">
<polygon fill="#ffffff" stroke="#bfbfbf" points="486.7038,-56.5 486.7038,-75.5 544.7038,-75.5 544.7038,-56.5 486.7038,-56.5"/>
<text text-anchor="middle" x="515.7038" y="-63.5" font-family="Helvetica,sans-Serif" font-size="10.00" fill="#000000">QPixmap</text>
</a>
</g>
</g>
<!-- Node5&#45;&gt;Node6 -->
<g id="edge6" class="edge">
<title>Node5&#45;&gt;Node6</title>
<path fill="none" stroke="#191970" d="M515.7038,-112.2455C515.7038,-104.9382 515.7038,-94.6944 515.7038,-85.7046"/>
<polygon fill="#191970" stroke="#191970" points="519.2039,-85.6426 515.7038,-75.6427 512.2039,-85.6427 519.2039,-85.6426"/>
</g>
<!-- Node7 -->
<g id="node7" class="node">
<title>Node7</title>
<g id="a_node7"><a xlink:title=" ">
<polygon fill="#ffffff" stroke="#bfbfbf" points="327.2038,-56.5 327.2038,-75.5 380.2038,-75.5 380.2038,-56.5 327.2038,-56.5"/>
<text text-anchor="middle" x="353.7038" y="-63.5" font-family="Helvetica,sans-Serif" font-size="10.00" fill="#000000">QImage</text>
</a>
</g>
</g>
<!-- Node5&#45;&gt;Node7 -->
<g id="edge7" class="edge">
<title>Node5&#45;&gt;Node7</title>
<path fill="none" stroke="#191970" d="M487.8551,-112.3733C460.7897,-103.0173 419.5492,-88.7614 389.941,-78.5264"/>
<polygon fill="#191970" stroke="#191970" points="390.978,-75.1817 380.3832,-75.2225 388.691,-81.7976 390.978,-75.1817"/>
</g>
<!-- Node8 -->
<g id="node8" class="node">
<title>Node8</title>
<g id="a_node8"><a xlink:title=" ">
<polygon fill="#ffffff" stroke="#bfbfbf" points="574.2038,-56.5 574.2038,-75.5 615.2038,-75.5 615.2038,-56.5 574.2038,-56.5"/>
<text text-anchor="middle" x="594.7038" y="-63.5" font-family="Helvetica,sans-Serif" font-size="10.00" fill="#000000">string</text>
</a>
</g>
</g>
<!-- Node5&#45;&gt;Node8 -->
<g id="edge8" class="edge">
<title>Node5&#45;&gt;Node8</title>
<path fill="none" stroke="#191970" d="M529.4646,-112.2455C541.3591,-103.814 558.7689,-91.4729 572.6124,-81.6598"/>
<polygon fill="#191970" stroke="#191970" points="574.9666,-84.2811 581.1008,-75.6427 570.9185,-78.5704 574.9666,-84.2811"/>
</g>
<!-- Node9&#45;&gt;Node2 -->
<g id="edge12" class="edge">
<title>Node9&#45;&gt;Node2</title>
<path fill="none" stroke="#191970" d="M729.9426,-168.3733C752.9828,-159.2226 787.8253,-145.3844 813.4539,-135.2057"/>
<polygon fill="#191970" stroke="#191970" points="814.7795,-138.4452 822.7814,-131.5011 812.1956,-131.9395 814.7795,-138.4452"/>
</g>
<!-- Node9&#45;&gt;Node8 -->
<g id="edge10" class="edge">
<title>Node9&#45;&gt;Node8</title>
<path fill="none" stroke="#191970" d="M696.2401,-168.4509C677.3989,-149.4401 634.9833,-106.6423 611.3698,-82.816"/>
<polygon fill="#191970" stroke="#191970" points="613.669,-80.1639 604.1437,-75.5249 608.6971,-85.0914 613.669,-80.1639"/>
</g>
<!-- Node10 -->
<g id="node10" class="node">
<title>Node10</title>
<g id="a_node10"><a xlink:title=" ">
<polygon fill="#ffffff" stroke="#bfbfbf" points="681.2038,-112.5 681.2038,-131.5 730.2038,-131.5 730.2038,-112.5 681.2038,-112.5"/>
<text text-anchor="middle" x="705.7038" y="-119.5" font-family="Helvetica,sans-Serif" font-size="10.00" fill="#000000">QLabel</text>
</a>
</g>
</g>
<!-- Node9&#45;&gt;Node10 -->
<g id="edge11" class="edge">
<title>Node9&#45;&gt;Node10</title>
<path fill="none" stroke="#191970" d="M705.7038,-168.2455C705.7038,-160.9382 705.7038,-150.6944 705.7038,-141.7046"/>
<polygon fill="#191970" stroke="#191970" points="709.2039,-141.6426 705.7038,-131.6427 702.2039,-141.6427 709.2039,-141.6426"/>
</g>
<!-- Node11 -->
<g id="node11" class="node">
<title>Node11</title>
<g id="a_node11"><a xlink:href="player_8h.html" target="_top" xlink:title=" ">
<polygon fill="#ffffff" stroke="#000000" points="748.7038,-112.5 748.7038,-131.5 800.7038,-131.5 800.7038,-112.5 748.7038,-112.5"/>
<text text-anchor="middle" x="774.7038" y="-119.5" font-family="Helvetica,sans-Serif" font-size="10.00" fill="#000000">player.h</text>
</a>
</g>
</g>
<!-- Node9&#45;&gt;Node11 -->
<g id="edge13" class="edge">
<title>Node9&#45;&gt;Node11</title>
<path fill="none" stroke="#191970" d="M717.7227,-168.2455C727.9137,-159.9746 742.7401,-147.9416 754.7145,-138.2232"/>
<polygon fill="#191970" stroke="#191970" points="757.2637,-140.662 762.8227,-131.6427 752.8525,-135.2268 757.2637,-140.662"/>
</g>
<!-- Node12 -->
<g id="node12" class="node">
<title>Node12</title>
<g id="a_node12"><a xlink:href="highlighter_8h.html" target="_top" xlink:title=" ">
<polygon fill="#ffffff" stroke="#000000" points="739.7038,-56.5 739.7038,-75.5 809.7038,-75.5 809.7038,-56.5 739.7038,-56.5"/>
<text text-anchor="middle" x="774.7038" y="-63.5" font-family="Helvetica,sans-Serif" font-size="10.00" fill="#000000">highlighter.h</text>
</a>
</g>
</g>
<!-- Node11&#45;&gt;Node12 -->
<g id="edge14" class="edge">
<title>Node11&#45;&gt;Node12</title>
<path fill="none" stroke="#191970" d="M774.7038,-112.2455C774.7038,-104.9382 774.7038,-94.6944 774.7038,-85.7046"/>
<polygon fill="#191970" stroke="#191970" points="778.2039,-85.6426 774.7038,-75.6427 771.2039,-85.6427 778.2039,-85.6426"/>
</g>
<!-- Node13 -->
<g id="node13" class="node">
<title>Node13</title>
<g id="a_node13"><a xlink:title=" ">
<polygon fill="#ffffff" stroke="#bfbfbf" points="722.7038,-.5 722.7038,-19.5 826.7038,-19.5 826.7038,-.5 722.7038,-.5"/>
<text text-anchor="middle" x="774.7038" y="-7.5" font-family="Helvetica,sans-Serif" font-size="10.00" fill="#000000">QGraphicsRectItem</text>
</a>
</g>
</g>
<!-- Node12&#45;&gt;Node13 -->
<g id="edge15" class="edge">
<title>Node12&#45;&gt;Node13</title>
<path fill="none" stroke="#191970" d="M774.7038,-56.2455C774.7038,-48.9382 774.7038,-38.6944 774.7038,-29.7046"/>
<polygon fill="#191970" stroke="#191970" points="778.2039,-29.6426 774.7038,-19.6427 771.2039,-29.6427 778.2039,-29.6426"/>
</g>
<!-- Node14&#45;&gt;Node5 -->
<g id="edge21" class="edge">
<title>Node14&#45;&gt;Node5</title>
<path fill="none" stroke="#191970" d="M469.4583,-168.2455C477.5686,-160.1352 489.2963,-148.4075 498.9119,-138.7919"/>
<polygon fill="#191970" stroke="#191970" points="501.465,-141.1887 506.0612,-131.6427 496.5152,-136.2389 501.465,-141.1887"/>
</g>
<!-- Node15 -->
<g id="node15" class="node">
<title>Node15</title>
<g id="a_node15"><a xlink:title=" ">
<polygon fill="#ffffff" stroke="#bfbfbf" points="329.2038,-112.5 329.2038,-131.5 446.2038,-131.5 446.2038,-112.5 329.2038,-112.5"/>
<text text-anchor="middle" x="387.7038" y="-119.5" font-family="Helvetica,sans-Serif" font-size="10.00" fill="#000000">QGraphicsPixmapItem</text>
</a>
</g>
</g>
<!-- Node14&#45;&gt;Node15 -->
<g id="edge17" class="edge">
<title>Node14&#45;&gt;Node15</title>
<path fill="none" stroke="#191970" d="M447.1624,-168.2455C436.4251,-159.8943 420.7565,-147.7076 408.1992,-137.9408"/>
<polygon fill="#191970" stroke="#191970" points="410.1439,-135.0194 400.1016,-131.6427 405.8463,-140.5449 410.1439,-135.0194"/>
</g>
<!-- Node16 -->
<g id="node16" class="node">
<title>Node16</title>
<g id="a_node16"><a xlink:href="city_8h.html" target="_top" xlink:title=" ">
<polygon fill="#ffffff" stroke="#000000" points="585.2038,-112.5 585.2038,-131.5 624.2038,-131.5 624.2038,-112.5 585.2038,-112.5"/>
<text text-anchor="middle" x="604.7038" y="-119.5" font-family="Helvetica,sans-Serif" font-size="10.00" fill="#000000">city.h</text>
</a>
</g>
</g>
<!-- Node14&#45;&gt;Node16 -->
<g id="edge18" class="edge">
<title>Node14&#45;&gt;Node16</title>
<path fill="none" stroke="#191970" d="M484.6302,-168.3733C509.76,-158.668 548.5427,-143.6898 575.1934,-133.3972"/>
<polygon fill="#191970" stroke="#191970" points="576.6922,-136.5703 584.7597,-129.7026 574.1703,-130.0404 576.6922,-136.5703"/>
</g>
<!-- Node16&#45;&gt;Node8 -->
<g id="edge19" class="edge">
<title>Node16&#45;&gt;Node8</title>
<path fill="none" stroke="#191970" d="M602.962,-112.2455C601.6571,-104.9382 599.8278,-94.6944 598.2225,-85.7046"/>
<polygon fill="#191970" stroke="#191970" points="601.6292,-84.8717 596.4258,-75.6427 594.7382,-86.1022 601.6292,-84.8717"/>
</g>
<!-- Node17 -->
<g id="node17" class="node">
<title>Node17</title>
<g id="a_node17"><a xlink:title=" ">
<polygon fill="#ffffff" stroke="#bfbfbf" points="633.7038,-56.5 633.7038,-75.5 677.7038,-75.5 677.7038,-56.5 633.7038,-56.5"/>
<text text-anchor="middle" x="655.7038" y="-63.5" font-family="Helvetica,sans-Serif" font-size="10.00" fill="#000000">vector</text>
</a>
</g>
</g>
<!-- Node16&#45;&gt;Node17 -->
<g id="edge20" class="edge">
<title>Node16&#45;&gt;Node17</title>
<path fill="none" stroke="#191970" d="M613.5874,-112.2455C620.9004,-104.2155 631.443,-92.6394 640.1505,-83.0781"/>
<polygon fill="#191970" stroke="#191970" points="642.7765,-85.3928 646.9221,-75.6427 637.6011,-80.6795 642.7765,-85.3928"/>
</g>
<!-- Node19&#45;&gt;Node4 -->
<g id="edge28" class="edge">
<title>Node19&#45;&gt;Node4</title>
<path fill="none" stroke="#191970" d="M108.7238,-168.2455C95.5287,-159.6534 76.0988,-147.0014 60.8959,-137.1018"/>
<polygon fill="#191970" stroke="#191970" points="62.8021,-134.1665 52.5122,-131.6427 58.9824,-140.0325 62.8021,-134.1665"/>
</g>
<!-- Node19&#45;&gt;Node15 -->
<g id="edge30" class="edge">
<title>Node19&#45;&gt;Node15</title>
<path fill="none" stroke="#191970" d="M168.7871,-168.4369C214.1585,-158.8127 284.1924,-143.957 332.7805,-133.6504"/>
<polygon fill="#191970" stroke="#191970" points="333.7505,-137.0226 342.8065,-131.5237 332.2979,-130.175 333.7505,-137.0226"/>
</g>
<!-- Node19&#45;&gt;Node18 -->
<g id="edge24" class="edge">
<title>Node19&#45;&gt;Node18</title>
<path fill="none" stroke="#191970" d="M127.8816,-168.4509C135.9819,-149.936 153.953,-108.8591 164.5144,-84.7187"/>
<polygon fill="#191970" stroke="#191970" points="167.735,-86.0894 168.5367,-75.5249 161.3219,-83.2836 167.735,-86.0894"/>
</g>
<!-- Node20 -->
<g id="node20" class="node">
<title>Node20</title>
<g id="a_node20"><a xlink:href="animationentity_8h.html" target="_top" xlink:title=" ">
<polygon fill="#ffffff" stroke="#000000" points="220.2038,-112.5 220.2038,-131.5 311.2038,-131.5 311.2038,-112.5 220.2038,-112.5"/>
<text text-anchor="middle" x="265.7038" y="-119.5" font-family="Helvetica,sans-Serif" font-size="10.00" fill="#000000">animationentity.h</text>
</a>
</g>
</g>
<!-- Node19&#45;&gt;Node20 -->
<g id="edge25" class="edge">
<title>Node19&#45;&gt;Node20</title>
<path fill="none" stroke="#191970" d="M148.1145,-168.3733C171.3181,-159.2226 206.4077,-145.3844 232.2181,-135.2057"/>
<polygon fill="#191970" stroke="#191970" points="233.593,-138.4258 241.6117,-131.5011 231.0249,-131.9139 233.593,-138.4258"/>
</g>
<!-- Node21 -->
<g id="node21" class="node">
<title>Node21</title>
<g id="a_node21"><a xlink:title=" ">
<polygon fill="#ffffff" stroke="#bfbfbf" points="75.7038,-112.5 75.7038,-131.5 125.7038,-131.5 125.7038,-112.5 75.7038,-112.5"/>
<text text-anchor="middle" x="100.7038" y="-119.5" font-family="Helvetica,sans-Serif" font-size="10.00" fill="#000000">QString</text>
</a>
</g>
</g>
<!-- Node19&#45;&gt;Node21 -->
<g id="edge29" class="edge">
<title>Node19&#45;&gt;Node21</title>
<path fill="none" stroke="#191970" d="M119.6976,-168.2455C116.6304,-160.7776 112.3035,-150.2427 108.5541,-141.1137"/>
<polygon fill="#191970" stroke="#191970" points="111.7011,-139.5631 104.6642,-131.6427 105.2259,-142.2226 111.7011,-139.5631"/>
</g>
<!-- Node20&#45;&gt;Node7 -->
<g id="edge26" class="edge">
<title>Node20&#45;&gt;Node7</title>
<path fill="none" stroke="#191970" d="M281.0323,-112.2455C294.5342,-103.6534 314.416,-91.0014 329.9724,-81.1018"/>
<polygon fill="#191970" stroke="#191970" points="331.9935,-83.9643 338.5511,-75.6427 328.2354,-78.0587 331.9935,-83.9643"/>
</g>
<!-- Node20&#45;&gt;Node18 -->
<g id="edge27" class="edge">
<title>Node20&#45;&gt;Node18</title>
<path fill="none" stroke="#191970" d="M249.5045,-112.2455C235.1021,-103.5731 213.8306,-90.7645 197.3239,-80.825"/>
<polygon fill="#191970" stroke="#191970" points="199.0899,-77.8028 188.7176,-75.6427 195.4789,-83.7996 199.0899,-77.8028"/>
</g>
</g>
</svg>
