<?xml version="1.0" encoding="UTF-8" standalone="no"?>
<!DOCTYPE svg PUBLIC "-//W3C//DTD SVG 1.1//EN"
 "http://www.w3.org/Graphics/SVG/1.1/DTD/svg11.dtd">
<!-- Generated by graphviz version 2.40.1 (20161225.0304)
 -->
<!-- Title: src/application_server/minimap.h Pages: 1 -->
<!--zoomable 319 -->
<svg id="main" version="1.1" xmlns="http://www.w3.org/2000/svg" xmlns:xlink="http://www.w3.org/1999/xlink" xml:space="preserve" onload="init(evt)">
<style type="text/css"><![CDATA[
.edge:hover path { stroke: red; }
.edge:hover polygon { stroke: red; fill: red; }
]]></style>
<script type="text/javascript"><![CDATA[
var edges = document.getElementsByTagName('g');
if (edges && edges.length) {
  for (var i=0;i<edges.length;i++) {
    if (edges[i].id.substr(0,4)=='edge') {
      edges[i].setAttribute('class','edge');
    }
  }
}
]]></script>
        <defs>
                <circle id="rim" cx="0" cy="0" r="7"/>
                <circle id="rim2" cx="0" cy="0" r="3.5"/>
                <g id="zoomPlus">
                        <use xlink:href="#rim" fill="#404040">
                                <set attributeName="fill" to="#808080" begin="zoomplus.mouseover" end="zoomplus.mouseout"/>
                        </use>
                        <path d="M-4,0h8M0,-4v8" fill="none" stroke="white" stroke-width="1.5" pointer-events="none"/>
                </g>
                <g id="zoomMin">
                        <use xlink:href="#rim" fill="#404040">
                                <set attributeName="fill" to="#808080" begin="zoomminus.mouseover" end="zoomminus.mouseout"/>
                        </use>
                        <path d="M-4,0h8" fill="none" stroke="white" stroke-width="1.5" pointer-events="none"/>
                </g>
                <g id="dirArrow">
                        <path fill="none" stroke="white" stroke-width="1.5" d="M0,-3.0v7 M-2.5,-0.5L0,-3.0L2.5,-0.5"/>
                </g>
               <g id="resetDef">
                       <use xlink:href="#rim2" fill="#404040">
                               <set attributeName="fill" to="#808080" begin="reset.mouseover" end="reset.mouseout"/>
                       </use>
               </g>
        </defs>

<script type="text/javascript">
var viewWidth = 876;
var viewHeight = 319;
var sectionId = 'dynsection-0';
</script>
<script xlink:href="svgpan.js"/>
<svg id="graph" class="graph">
<g id="viewport">
<title>src/application_server/minimap.h</title>
<polygon fill="#ffffff" stroke="transparent" points="-4,4 -4,-315 872.117,-315 872.117,4 -4,4"/>
<!-- Node1 -->
<g id="node1" class="node">
<title>Node1</title>
<g id="a_node1"><a xlink:title=" ">
<polygon fill="#bfbfbf" stroke="#000000" points="203.5,-280.5 203.5,-310.5 318.5,-310.5 318.5,-280.5 203.5,-280.5"/>
<text text-anchor="start" x="211.5" y="-298.5" font-family="Helvetica,sans-Serif" font-size="10.00" fill="#000000">src/application_server</text>
<text text-anchor="middle" x="261" y="-287.5" font-family="Helvetica,sans-Serif" font-size="10.00" fill="#000000">/minimap.h</text>
</a>
</g>
</g>
<!-- Node2 -->
<g id="node2" class="node">
<title>Node2</title>
<g id="a_node2"><a xlink:title=" ">
<polygon fill="#ffffff" stroke="#bfbfbf" points="0,-112.5 0,-131.5 56,-131.5 56,-112.5 0,-112.5"/>
<text text-anchor="middle" x="28" y="-119.5" font-family="Helvetica,sans-Serif" font-size="10.00" fill="#000000">QWidget</text>
</a>
</g>
</g>
<!-- Node1&#45;&gt;Node2 -->
<g id="edge1" class="edge">
<title>Node1&#45;&gt;Node2</title>
<path fill="none" stroke="#191970" d="M203.2464,-280.6146C154.7921,-265.2186 87.2303,-236.468 47,-188 36.1836,-174.9688 31.5208,-156.0816 29.5129,-141.8475"/>
<polygon fill="#191970" stroke="#191970" points="32.9628,-141.1947 28.405,-131.6303 26.0036,-141.9494 32.9628,-141.1947"/>
</g>
<!-- Node3 -->
<g id="node3" class="node">
<title>Node3</title>
<g id="a_node3"><a xlink:href="scene_8h.html" target="_top" xlink:title=" ">
<polygon fill="#ffffff" stroke="#000000" points="468,-224.5 468,-243.5 520,-243.5 520,-224.5 468,-224.5"/>
<text text-anchor="middle" x="494" y="-231.5" font-family="Helvetica,sans-Serif" font-size="10.00" fill="#000000">scene.h</text>
</a>
</g>
</g>
<!-- Node1&#45;&gt;Node3 -->
<g id="edge2" class="edge">
<title>Node1&#45;&gt;Node3</title>
<path fill="none" stroke="#191970" d="M317.9982,-280.4554C361.7155,-268.9163 420.7135,-253.3438 458.0634,-243.4854"/>
<polygon fill="#191970" stroke="#191970" points="459.2176,-246.8007 467.9932,-240.8645 457.4311,-240.0325 459.2176,-246.8007"/>
</g>
<!-- Node4 -->
<g id="node4" class="node">
<title>Node4</title>
<g id="a_node4"><a xlink:title=" ">
<polygon fill="#ffffff" stroke="#bfbfbf" points="148,-168.5 148,-187.5 242,-187.5 242,-168.5 148,-168.5"/>
<text text-anchor="middle" x="195" y="-175.5" font-family="Helvetica,sans-Serif" font-size="10.00" fill="#000000">QGraphicsScene</text>
</a>
</g>
</g>
<!-- Node3&#45;&gt;Node4 -->
<g id="edge3" class="edge">
<title>Node3&#45;&gt;Node4</title>
<path fill="none" stroke="#191970" d="M467.9888,-229.1283C420.1118,-220.1614 317.0071,-200.8508 252.1094,-188.6961"/>
<polygon fill="#191970" stroke="#191970" points="252.5095,-185.2102 242.0361,-186.8094 251.2208,-192.0906 252.5095,-185.2102"/>
</g>
<!-- Node5 -->
<g id="node5" class="node">
<title>Node5</title>
<g id="a_node5"><a xlink:title=" ">
<polygon fill="#ffffff" stroke="#bfbfbf" points="260,-168.5 260,-187.5 364,-187.5 364,-168.5 260,-168.5"/>
<text text-anchor="middle" x="312" y="-175.5" font-family="Helvetica,sans-Serif" font-size="10.00" fill="#000000">QGraphicsTextItem</text>
</a>
</g>
</g>
<!-- Node3&#45;&gt;Node5 -->
<g id="edge4" class="edge">
<title>Node3&#45;&gt;Node5</title>
<path fill="none" stroke="#191970" d="M467.9238,-225.9766C437.8654,-216.7278 388.0875,-201.4115 352.8702,-190.5754"/>
<polygon fill="#191970" stroke="#191970" points="353.4867,-187.1033 342.8996,-187.5076 351.428,-193.7937 353.4867,-187.1033"/>
</g>
<!-- Node6 -->
<g id="node6" class="node">
<title>Node6</title>
<g id="a_node6"><a xlink:title=" ">
<polygon fill="#ffffff" stroke="#bfbfbf" points="382.5,-168.5 382.5,-187.5 465.5,-187.5 465.5,-168.5 382.5,-168.5"/>
<text text-anchor="middle" x="424" y="-175.5" font-family="Helvetica,sans-Serif" font-size="10.00" fill="#000000">QGraphicsItem</text>
</a>
</g>
</g>
<!-- Node3&#45;&gt;Node6 -->
<g id="edge5" class="edge">
<title>Node3&#45;&gt;Node6</title>
<path fill="none" stroke="#191970" d="M481.8069,-224.2455C471.3679,-215.8943 456.1345,-203.7076 443.926,-193.9408"/>
<polygon fill="#191970" stroke="#191970" points="446.0485,-191.1566 436.0533,-187.6427 441.6756,-196.6227 446.0485,-191.1566"/>
</g>
<!-- Node7 -->
<g id="node7" class="node">
<title>Node7</title>
<g id="a_node7"><a xlink:title=" ">
<polygon fill="#ffffff" stroke="#bfbfbf" points="636,-.5 636,-19.5 740,-19.5 740,-.5 636,-.5"/>
<text text-anchor="middle" x="688" y="-7.5" font-family="Helvetica,sans-Serif" font-size="10.00" fill="#000000">QGraphicsRectItem</text>
</a>
</g>
</g>
<!-- Node3&#45;&gt;Node7 -->
<g id="edge6" class="edge">
<title>Node3&#45;&gt;Node7</title>
<path fill="none" stroke="#191970" d="M520.1385,-231.2723C581.5608,-224.6289 733.4806,-206.7727 781,-188 822.3874,-171.6498 843.1111,-171.2925 864,-132 874.0665,-113.0646 862.9637,-67.6697 852,-56 837.8606,-40.95 790.3363,-28.6301 750.0627,-20.5408"/>
<polygon fill="#191970" stroke="#191970" points="750.4901,-17.0582 740.0045,-18.5763 749.1481,-23.9284 750.4901,-17.0582"/>
</g>
<!-- Node8 -->
<g id="node8" class="node">
<title>Node8</title>
<g id="a_node8"><a xlink:title=" ">
<polygon fill="#ffffff" stroke="#bfbfbf" points="634.5,-168.5 634.5,-187.5 747.5,-187.5 747.5,-168.5 634.5,-168.5"/>
<text text-anchor="middle" x="691" y="-175.5" font-family="Helvetica,sans-Serif" font-size="10.00" fill="#000000">QGraphicsEllipseItem</text>
</a>
</g>
</g>
<!-- Node3&#45;&gt;Node8 -->
<g id="edge7" class="edge">
<title>Node3&#45;&gt;Node8</title>
<path fill="none" stroke="#191970" d="M520.1601,-226.5636C552.6345,-217.3323 608.4889,-201.4549 647.4607,-190.3767"/>
<polygon fill="#191970" stroke="#191970" points="648.8134,-193.6309 657.4753,-187.5299 646.8993,-186.8976 648.8134,-193.6309"/>
</g>
<!-- Node9 -->
<g id="node9" class="node">
<title>Node9</title>
<g id="a_node9"><a xlink:href="maptile_8h.html" target="_top" xlink:title=" ">
<polygon fill="#ffffff" stroke="#000000" points="560,-168.5 560,-187.5 616,-187.5 616,-168.5 560,-168.5"/>
<text text-anchor="middle" x="588" y="-175.5" font-family="Helvetica,sans-Serif" font-size="10.00" fill="#000000">maptile.h</text>
</a>
</g>
</g>
<!-- Node3&#45;&gt;Node9 -->
<g id="edge8" class="edge">
<title>Node3&#45;&gt;Node9</title>
<path fill="none" stroke="#191970" d="M510.3736,-224.2455C524.9308,-215.5731 546.431,-202.7645 563.1152,-192.825"/>
<polygon fill="#191970" stroke="#191970" points="565.0144,-195.7676 571.8141,-187.6427 561.4317,-189.7539 565.0144,-195.7676"/>
</g>
<!-- Node14 -->
<g id="node14" class="node">
<title>Node14</title>
<g id="a_node14"><a xlink:href="graphicsmanager_8h.html" target="_top" xlink:title=" ">
<polygon fill="#ffffff" stroke="#000000" points="751.5,-112.5 751.5,-131.5 854.5,-131.5 854.5,-112.5 751.5,-112.5"/>
<text text-anchor="middle" x="803" y="-119.5" font-family="Helvetica,sans-Serif" font-size="10.00" fill="#000000">graphicsmanager.h</text>
</a>
</g>
</g>
<!-- Node3&#45;&gt;Node14 -->
<g id="edge17" class="edge">
<title>Node3&#45;&gt;Node14</title>
<path fill="none" stroke="#191970" d="M520.1993,-231.974C578.6851,-227.0493 717.8186,-212.9832 757,-188 774.4145,-176.896 787.059,-156.5983 794.6336,-141.4332"/>
<polygon fill="#191970" stroke="#191970" points="798.0107,-142.4727 799.0639,-131.9303 791.6662,-139.5148 798.0107,-142.4727"/>
</g>
<!-- Node17 -->
<g id="node17" class="node">
<title>Node17</title>
<g id="a_node17"><a xlink:href="player_8h.html" target="_top" xlink:title=" ">
<polygon fill="#ffffff" stroke="#000000" points="413,-112.5 413,-131.5 465,-131.5 465,-112.5 413,-112.5"/>
<text text-anchor="middle" x="439" y="-119.5" font-family="Helvetica,sans-Serif" font-size="10.00" fill="#000000">player.h</text>
</a>
</g>
</g>
<!-- Node3&#45;&gt;Node17 -->
<g id="edge18" class="edge">
<title>Node3&#45;&gt;Node17</title>
<path fill="none" stroke="#191970" d="M492.3896,-224.1678C489.9459,-210.8762 484.5448,-186.6895 475,-168 469.7967,-157.8114 462.1883,-147.6696 455.3051,-139.5119"/>
<polygon fill="#191970" stroke="#191970" points="457.7602,-137.0039 448.5257,-131.8102 452.5058,-141.629 457.7602,-137.0039"/>
</g>
<!-- Node18 -->
<g id="node18" class="node">
<title>Node18</title>
<g id="a_node18"><a xlink:href="highlighter_8h.html" target="_top" xlink:title=" ">
<polygon fill="#ffffff" stroke="#000000" points="458,-56.5 458,-75.5 528,-75.5 528,-56.5 458,-56.5"/>
<text text-anchor="middle" x="493" y="-63.5" font-family="Helvetica,sans-Serif" font-size="10.00" fill="#000000">highlighter.h</text>
</a>
</g>
</g>
<!-- Node3&#45;&gt;Node18 -->
<g id="edge21" class="edge">
<title>Node3&#45;&gt;Node18</title>
<path fill="none" stroke="#191970" d="M493.9434,-224.4862C493.7853,-197.9293 493.3367,-122.5651 493.12,-86.1655"/>
<polygon fill="#191970" stroke="#191970" points="496.6181,-85.8068 493.0585,-75.8279 489.6182,-85.8486 496.6181,-85.8068"/>
</g>
<!-- Node19 -->
<g id="node19" class="node">
<title>Node19</title>
<g id="a_node19"><a xlink:href="datamodel_8h.html" target="_top" xlink:title=" ">
<polygon fill="#ffffff" stroke="#000000" points="56.5,-168.5 56.5,-187.5 129.5,-187.5 129.5,-168.5 56.5,-168.5"/>
<text text-anchor="middle" x="93" y="-175.5" font-family="Helvetica,sans-Serif" font-size="10.00" fill="#000000">datamodel.h</text>
</a>
</g>
</g>
<!-- Node3&#45;&gt;Node19 -->
<g id="edge22" class="edge">
<title>Node3&#45;&gt;Node19</title>
<path fill="none" stroke="#191970" d="M467.6088,-231.3583C410.0178,-225.4281 268.5915,-209.9663 139.6533,-187.983"/>
<polygon fill="#191970" stroke="#191970" points="140.0522,-184.5003 129.6032,-186.2517 138.8638,-191.3986 140.0522,-184.5003"/>
</g>
<!-- Node10 -->
<g id="node10" class="node">
<title>Node10</title>
<g id="a_node10"><a xlink:title=" ">
<polygon fill="#ffffff" stroke="#bfbfbf" points="616.5,-112.5 616.5,-131.5 733.5,-131.5 733.5,-112.5 616.5,-112.5"/>
<text text-anchor="middle" x="675" y="-119.5" font-family="Helvetica,sans-Serif" font-size="10.00" fill="#000000">QGraphicsPixmapItem</text>
</a>
</g>
</g>
<!-- Node9&#45;&gt;Node10 -->
<g id="edge9" class="edge">
<title>Node9&#45;&gt;Node10</title>
<path fill="none" stroke="#191970" d="M603.1542,-168.2455C616.5027,-159.6534 636.1586,-147.0014 651.5383,-137.1018"/>
<polygon fill="#191970" stroke="#191970" points="653.5051,-139.9982 660.0194,-131.6427 649.7164,-134.1121 653.5051,-139.9982"/>
</g>
<!-- Node11 -->
<g id="node11" class="node">
<title>Node11</title>
<g id="a_node11"><a xlink:href="city_8h.html" target="_top" xlink:title=" ">
<polygon fill="#ffffff" stroke="#000000" points="559.5,-112.5 559.5,-131.5 598.5,-131.5 598.5,-112.5 559.5,-112.5"/>
<text text-anchor="middle" x="579" y="-119.5" font-family="Helvetica,sans-Serif" font-size="10.00" fill="#000000">city.h</text>
</a>
</g>
</g>
<!-- Node9&#45;&gt;Node11 -->
<g id="edge10" class="edge">
<title>Node9&#45;&gt;Node11</title>
<path fill="none" stroke="#191970" d="M586.4323,-168.2455C585.2579,-160.9382 583.6116,-150.6944 582.1668,-141.7046"/>
<polygon fill="#191970" stroke="#191970" points="585.5922,-140.9606 580.5497,-131.6427 578.6809,-142.0714 585.5922,-140.9606"/>
</g>
<!-- Node9&#45;&gt;Node14 -->
<g id="edge13" class="edge">
<title>Node9&#45;&gt;Node14</title>
<path fill="none" stroke="#191970" d="M616.2192,-170.5636C619.5162,-169.6979 622.8321,-168.8285 626,-168 670.0326,-156.4845 720.2514,-143.4419 755.9217,-134.1932"/>
<polygon fill="#191970" stroke="#191970" points="757.2381,-137.4677 766.0398,-131.5703 755.4815,-130.6917 757.2381,-137.4677"/>
</g>
<!-- Node12 -->
<g id="node12" class="node">
<title>Node12</title>
<g id="a_node12"><a xlink:title=" ">
<polygon fill="#ffffff" stroke="#bfbfbf" points="552.5,-56.5 552.5,-75.5 593.5,-75.5 593.5,-56.5 552.5,-56.5"/>
<text text-anchor="middle" x="573" y="-63.5" font-family="Helvetica,sans-Serif" font-size="10.00" fill="#000000">string</text>
</a>
</g>
</g>
<!-- Node11&#45;&gt;Node12 -->
<g id="edge11" class="edge">
<title>Node11&#45;&gt;Node12</title>
<path fill="none" stroke="#191970" d="M577.9549,-112.2455C577.172,-104.9382 576.0744,-94.6944 575.1112,-85.7046"/>
<polygon fill="#191970" stroke="#191970" points="578.5786,-85.2129 574.0331,-75.6427 571.6185,-85.9587 578.5786,-85.2129"/>
</g>
<!-- Node13 -->
<g id="node13" class="node">
<title>Node13</title>
<g id="a_node13"><a xlink:title=" ">
<polygon fill="#ffffff" stroke="#bfbfbf" points="612,-56.5 612,-75.5 656,-75.5 656,-56.5 612,-56.5"/>
<text text-anchor="middle" x="634" y="-63.5" font-family="Helvetica,sans-Serif" font-size="10.00" fill="#000000">vector</text>
</a>
</g>
</g>
<!-- Node11&#45;&gt;Node13 -->
<g id="edge12" class="edge">
<title>Node11&#45;&gt;Node13</title>
<path fill="none" stroke="#191970" d="M588.5803,-112.2455C596.5458,-104.1352 608.0641,-92.4075 617.5079,-82.7919"/>
<polygon fill="#191970" stroke="#191970" points="620.0195,-85.2297 624.5295,-75.6427 615.0253,-80.3247 620.0195,-85.2297"/>
</g>
<!-- Node14&#45;&gt;Node12 -->
<g id="edge16" class="edge">
<title>Node14&#45;&gt;Node12</title>
<path fill="none" stroke="#191970" d="M755.8026,-112.477C717.2183,-104.3919 661.0968,-91.9513 603.2508,-75.8669"/>
<polygon fill="#191970" stroke="#191970" points="604.1507,-72.4843 593.5766,-73.1469 602.2559,-79.223 604.1507,-72.4843"/>
</g>
<!-- Node15 -->
<g id="node15" class="node">
<title>Node15</title>
<g id="a_node15"><a xlink:title=" ">
<polygon fill="#ffffff" stroke="#bfbfbf" points="785,-56.5 785,-75.5 843,-75.5 843,-56.5 785,-56.5"/>
<text text-anchor="middle" x="814" y="-63.5" font-family="Helvetica,sans-Serif" font-size="10.00" fill="#000000">QPixmap</text>
</a>
</g>
</g>
<!-- Node14&#45;&gt;Node15 -->
<g id="edge14" class="edge">
<title>Node14&#45;&gt;Node15</title>
<path fill="none" stroke="#191970" d="M804.9161,-112.2455C806.3514,-104.9382 808.3636,-94.6944 810.1295,-85.7046"/>
<polygon fill="#191970" stroke="#191970" points="813.6127,-86.1298 812.1059,-75.6427 806.744,-84.7805 813.6127,-86.1298"/>
</g>
<!-- Node16 -->
<g id="node16" class="node">
<title>Node16</title>
<g id="a_node16"><a xlink:title=" ">
<polygon fill="#ffffff" stroke="#bfbfbf" points="713.5,-56.5 713.5,-75.5 766.5,-75.5 766.5,-56.5 713.5,-56.5"/>
<text text-anchor="middle" x="740" y="-63.5" font-family="Helvetica,sans-Serif" font-size="10.00" fill="#000000">QImage</text>
</a>
</g>
</g>
<!-- Node14&#45;&gt;Node16 -->
<g id="edge15" class="edge">
<title>Node14&#45;&gt;Node16</title>
<path fill="none" stroke="#191970" d="M792.0262,-112.2455C782.8118,-104.0549 769.4468,-92.1749 758.5703,-82.5069"/>
<polygon fill="#191970" stroke="#191970" points="760.6474,-79.6704 750.848,-75.6427 755.9968,-84.9023 760.6474,-79.6704"/>
</g>
<!-- Node17&#45;&gt;Node18 -->
<g id="edge19" class="edge">
<title>Node17&#45;&gt;Node18</title>
<path fill="none" stroke="#191970" d="M448.4061,-112.2455C456.1493,-104.2155 467.312,-92.6394 476.5318,-83.0781"/>
<polygon fill="#191970" stroke="#191970" points="479.2798,-85.2706 483.7017,-75.6427 474.2409,-80.4117 479.2798,-85.2706"/>
</g>
<!-- Node18&#45;&gt;Node7 -->
<g id="edge20" class="edge">
<title>Node18&#45;&gt;Node7</title>
<path fill="none" stroke="#191970" d="M526.5217,-56.3733C559.3683,-46.9404 609.5595,-32.5265 645.2578,-22.2747"/>
<polygon fill="#191970" stroke="#191970" points="646.2703,-25.6255 654.9157,-19.5011 644.3381,-18.8974 646.2703,-25.6255"/>
</g>
<!-- Node19&#45;&gt;Node2 -->
<g id="edge25" class="edge">
<title>Node19&#45;&gt;Node2</title>
<path fill="none" stroke="#191970" d="M81.6779,-168.2455C72.0777,-159.9746 58.1108,-147.9416 46.8305,-138.2232"/>
<polygon fill="#191970" stroke="#191970" points="49.053,-135.5182 39.1924,-131.6427 44.484,-140.8214 49.053,-135.5182"/>
</g>
<!-- Node19&#45;&gt;Node12 -->
<g id="edge23" class="edge">
<title>Node19&#45;&gt;Node12</title>
<path fill="none" stroke="#191970" d="M129.591,-169.6757C132.7652,-169.0659 135.9343,-168.4965 139,-168 286.8202,-144.0605 333.206,-182.9996 474,-132 504.9901,-120.7745 535.8091,-97.9021 554.631,-82.2626"/>
<polygon fill="#191970" stroke="#191970" points="557.0477,-84.8017 562.3922,-75.6536 552.5094,-79.4722 557.0477,-84.8017"/>
</g>
<!-- Node19&#45;&gt;Node17 -->
<g id="edge26" class="edge">
<title>Node19&#45;&gt;Node17</title>
<path fill="none" stroke="#191970" d="M129.617,-169.8258C132.7856,-169.1834 135.9463,-168.5655 139,-168 233.6713,-150.4689 346.0344,-134.5288 402.6026,-126.8399"/>
<polygon fill="#191970" stroke="#191970" points="403.3841,-130.2662 412.825,-125.4579 402.4462,-123.3293 403.3841,-130.2662"/>
</g>
<!-- Node20 -->
<g id="node20" class="node">
<title>Node20</title>
<g id="a_node20"><a xlink:title=" ">
<polygon fill="#ffffff" stroke="#bfbfbf" points="74.5,-112.5 74.5,-131.5 123.5,-131.5 123.5,-112.5 74.5,-112.5"/>
<text text-anchor="middle" x="99" y="-119.5" font-family="Helvetica,sans-Serif" font-size="10.00" fill="#000000">QLabel</text>
</a>
</g>
</g>
<!-- Node19&#45;&gt;Node20 -->
<g id="edge24" class="edge">
<title>Node19&#45;&gt;Node20</title>
<path fill="none" stroke="#191970" d="M94.0451,-168.2455C94.828,-160.9382 95.9256,-150.6944 96.8888,-141.7046"/>
<polygon fill="#191970" stroke="#191970" points="100.3815,-141.9587 97.9669,-131.6427 93.4214,-141.2129 100.3815,-141.9587"/>
</g>
</g>
</svg>
        <g id="navigator" transform="translate(0 0)" fill="#404254">
                <rect fill="#f2f5e9" fill-opacity="0.5" stroke="#606060" stroke-width=".5" x="0" y="0" width="60" height="60"/>
                <use id="zoomplus" xlink:href="#zoomPlus" x="17" y="9" onmousedown="handleZoom(evt,'in')"/>
                <use id="zoomminus" xlink:href="#zoomMin" x="42" y="9" onmousedown="handleZoom(evt,'out')"/>
                <use id="reset" xlink:href="#resetDef" x="30" y="36" onmousedown="handleReset()"/>
                <g id="arrowUp" xlink:href="#dirArrow" transform="translate(30 24)" onmousedown="handlePan(0,-1)">
                  <use xlink:href="#rim" fill="#404040">
                        <set attributeName="fill" to="#808080" begin="arrowUp.mouseover" end="arrowUp.mouseout"/>
                  </use>
                  <path fill="none" stroke="white" stroke-width="1.5" d="M0,-3.0v7 M-2.5,-0.5L0,-3.0L2.5,-0.5"/>
                </g>
                <g id="arrowRight" xlink:href="#dirArrow" transform="rotate(90) translate(36 -43)" onmousedown="handlePan(1,0)">
                  <use xlink:href="#rim" fill="#404040">
                        <set attributeName="fill" to="#808080" begin="arrowRight.mouseover" end="arrowRight.mouseout"/>
                  </use>
                  <path fill="none" stroke="white" stroke-width="1.5" d="M0,-3.0v7 M-2.5,-0.5L0,-3.0L2.5,-0.5"/>
                </g>
                <g id="arrowDown" xlink:href="#dirArrow" transform="rotate(180) translate(-30 -48)" onmousedown="handlePan(0,1)">
                  <use xlink:href="#rim" fill="#404040">
                        <set attributeName="fill" to="#808080" begin="arrowDown.mouseover" end="arrowDown.mouseout"/>
                  </use>
                  <path fill="none" stroke="white" stroke-width="1.5" d="M0,-3.0v7 M-2.5,-0.5L0,-3.0L2.5,-0.5"/>
                </g>
                <g id="arrowLeft" xlink:href="#dirArrow" transform="rotate(270) translate(-36 17)" onmousedown="handlePan(-1,0)">
                  <use xlink:href="#rim" fill="#404040">
                        <set attributeName="fill" to="#808080" begin="arrowLeft.mouseover" end="arrowLeft.mouseout"/>
                  </use>
                  <path fill="none" stroke="white" stroke-width="1.5" d="M0,-3.0v7 M-2.5,-0.5L0,-3.0L2.5,-0.5"/>
                </g>
        </g>
        <svg viewBox="0 0 15 15" width="100%" height="30px" preserveAspectRatio="xMaxYMin meet">
         <g id="arrow_out" transform="scale(0.3 0.3)">
          <a xlink:href="minimap_8h__incl_org.svg" target="_base">
           <rect id="button" ry="5" rx="5" y="6" x="6" height="38" width="38"
                fill="#f2f5e9" fill-opacity="0.5" stroke="#606060" stroke-width="1.0"/>
           <path id="arrow"
             d="M 11.500037,31.436501 C 11.940474,20.09759 22.043105,11.32322 32.158766,21.979434 L 37.068811,17.246167 C 37.068811,17.246167 37.088388,32 37.088388,32 L 22.160133,31.978069 C 22.160133,31.978069 26.997745,27.140456 26.997745,27.140456 C 18.528582,18.264221 13.291696,25.230495 11.500037,31.436501 z"
             style="fill:#404040;"/>
          </a>
         </g>
        </svg>
</svg>
