<?xml version="1.0" encoding="UTF-8" standalone="no"?>
<!DOCTYPE svg PUBLIC "-//W3C//DTD SVG 1.1//EN"
 "http://www.w3.org/Graphics/SVG/1.1/DTD/svg11.dtd">
<!-- Generated by graphviz version 2.40.1 (20161225.0304)
 -->
<!-- Title: src/application_server/player.h Pages: 1 -->
<!--zoomable 575 -->
<svg id="main" version="1.1" xmlns="http://www.w3.org/2000/svg" xmlns:xlink="http://www.w3.org/1999/xlink" xml:space="preserve" onload="init(evt)">
<style type="text/css"><![CDATA[
.edge:hover path { stroke: red; }
.edge:hover polygon { stroke: red; fill: red; }
]]></style>
<script type="text/javascript"><![CDATA[
var edges = document.getElementsByTagName('g');
if (edges && edges.length) {
  for (var i=0;i<edges.length;i++) {
    if (edges[i].id.substr(0,4)=='edge') {
      edges[i].setAttribute('class','edge');
    }
  }
}
]]></script>
        <defs>
                <circle id="rim" cx="0" cy="0" r="7"/>
                <circle id="rim2" cx="0" cy="0" r="3.5"/>
                <g id="zoomPlus">
                        <use xlink:href="#rim" fill="#404040">
                                <set attributeName="fill" to="#808080" begin="zoomplus.mouseover" end="zoomplus.mouseout"/>
                        </use>
                        <path d="M-4,0h8M0,-4v8" fill="none" stroke="white" stroke-width="1.5" pointer-events="none"/>
                </g>
                <g id="zoomMin">
                        <use xlink:href="#rim" fill="#404040">
                                <set attributeName="fill" to="#808080" begin="zoomminus.mouseover" end="zoomminus.mouseout"/>
                        </use>
                        <path d="M-4,0h8" fill="none" stroke="white" stroke-width="1.5" pointer-events="none"/>
                </g>
                <g id="dirArrow">
                        <path fill="none" stroke="white" stroke-width="1.5" d="M0,-3.0v7 M-2.5,-0.5L0,-3.0L2.5,-0.5"/>
                </g>
               <g id="resetDef">
                       <use xlink:href="#rim2" fill="#404040">
                               <set attributeName="fill" to="#808080" begin="reset.mouseover" end="reset.mouseout"/>
                       </use>
               </g>
        </defs>

<script type="text/javascript">
var viewWidth = 1249;
var viewHeight = 575;
var sectionId = 'dynsection-1';
</script>
<script xlink:href="svgpan.js"/>
<svg id="graph" class="graph">
<g id="viewport">
<title>src/application_server/player.h</title>
<polygon fill="#ffffff" stroke="transparent" points="-4,4 -4,-571 1244.5,-571 1244.5,4 -4,4"/>
<!-- Node1 -->
<g id="node1" class="node">
<title>Node1</title>
<g id="a_node1"><a xlink:title=" ">
<polygon fill="#bfbfbf" stroke="#000000" points="458.5,-536.5 458.5,-566.5 573.5,-566.5 573.5,-536.5 458.5,-536.5"/>
<text text-anchor="start" x="466.5" y="-554.5" font-family="Helvetica,sans-Serif" font-size="10.00" fill="#000000">src/application_server</text>
<text text-anchor="middle" x="516" y="-543.5" font-family="Helvetica,sans-Serif" font-size="10.00" fill="#000000">/player.h</text>
</a>
</g>
</g>
<!-- Node2 -->
<g id="node2" class="node">
<title>Node2</title>
<g id="a_node2"><a xlink:href="scene_8h.html" target="_top" xlink:title=" ">
<polygon fill="#ffffff" stroke="#000000" points="276.5,-402.5 276.5,-432.5 391.5,-432.5 391.5,-402.5 276.5,-402.5"/>
<text text-anchor="start" x="284.5" y="-420.5" font-family="Helvetica,sans-Serif" font-size="10.00" fill="#000000">src/application_server</text>
<text text-anchor="middle" x="334" y="-409.5" font-family="Helvetica,sans-Serif" font-size="10.00" fill="#000000">/scene.h</text>
</a>
</g>
</g>
<!-- Node1&#45;&gt;Node2 -->
<g id="edge1" class="edge">
<title>Node1&#45;&gt;Node2</title>
<path fill="none" stroke="#191970" d="M487.1081,-530.2279C450.0902,-502.973 386.8477,-456.4098 354.4489,-432.5558"/>
<polygon fill="#191970" stroke="#191970" points="485.3481,-533.2784 495.4761,-536.389 489.4984,-527.6415 485.3481,-533.2784"/>
</g>
<!-- Node16 -->
<g id="node16" class="node">
<title>Node16</title>
<g id="a_node16"><a xlink:href="datamodel_8h.html" target="_top" xlink:title=" ">
<polygon fill="#ffffff" stroke="#000000" points="458.5,-469.5 458.5,-499.5 573.5,-499.5 573.5,-469.5 458.5,-469.5"/>
<text text-anchor="start" x="466.5" y="-487.5" font-family="Helvetica,sans-Serif" font-size="10.00" fill="#000000">src/application_server</text>
<text text-anchor="middle" x="516" y="-476.5" font-family="Helvetica,sans-Serif" font-size="10.00" fill="#000000">/datamodel.h</text>
</a>
</g>
</g>
<!-- Node1&#45;&gt;Node16 -->
<g id="edge26" class="edge">
<title>Node1&#45;&gt;Node16</title>
<path fill="none" stroke="#191970" d="M516,-526.0249C516,-517.128 516,-507.4287 516,-499.6432"/>
<polygon fill="#191970" stroke="#191970" points="512.5001,-526.2966 516,-536.2967 519.5001,-526.2967 512.5001,-526.2966"/>
</g>
<!-- Node24 -->
<g id="node24" class="node">
<title>Node24</title>
<g id="a_node24"><a xlink:href="player_8cpp.html" target="_top" xlink:title=" ">
<polygon fill="#ffffff" stroke="#000000" points="591.5,-469.5 591.5,-499.5 706.5,-499.5 706.5,-469.5 591.5,-469.5"/>
<text text-anchor="start" x="599.5" y="-487.5" font-family="Helvetica,sans-Serif" font-size="10.00" fill="#000000">src/application_server</text>
<text text-anchor="middle" x="649" y="-476.5" font-family="Helvetica,sans-Serif" font-size="10.00" fill="#000000">/player.cpp</text>
</a>
</g>
</g>
<!-- Node1&#45;&gt;Node24 -->
<g id="edge48" class="edge">
<title>Node1&#45;&gt;Node24</title>
<path fill="none" stroke="#191970" d="M554.8813,-531.9132C575.2643,-521.645 599.8572,-509.2561 618.7917,-499.7177"/>
<polygon fill="#191970" stroke="#191970" points="553.2039,-528.8391 545.8478,-536.4639 556.3533,-535.0906 553.2039,-528.8391"/>
</g>
<!-- Node3 -->
<g id="node3" class="node">
<title>Node3</title>
<g id="a_node3"><a xlink:href="client_8h.html" target="_top" xlink:title=" ">
<polygon fill="#ffffff" stroke="#000000" points="486.5,-268.5 486.5,-298.5 601.5,-298.5 601.5,-268.5 486.5,-268.5"/>
<text text-anchor="start" x="494.5" y="-286.5" font-family="Helvetica,sans-Serif" font-size="10.00" fill="#000000">src/application_server</text>
<text text-anchor="middle" x="544" y="-275.5" font-family="Helvetica,sans-Serif" font-size="10.00" fill="#000000">/client.h</text>
</a>
</g>
</g>
<!-- Node2&#45;&gt;Node3 -->
<g id="edge2" class="edge">
<title>Node2&#45;&gt;Node3</title>
<path fill="none" stroke="#191970" d="M366.262,-396.9138C408.8156,-369.7605 482.7064,-322.6111 520.4051,-298.5558"/>
<polygon fill="#191970" stroke="#191970" points="364.2288,-394.0593 357.6815,-402.389 367.9942,-399.9603 364.2288,-394.0593"/>
</g>
<!-- Node6 -->
<g id="node6" class="node">
<title>Node6</title>
<g id="a_node6"><a xlink:href="main_8cpp.html" target="_top" xlink:title=" ">
<polygon fill="#ffffff" stroke="#000000" points="572.5,-.5 572.5,-30.5 687.5,-30.5 687.5,-.5 572.5,-.5"/>
<text text-anchor="start" x="580.5" y="-18.5" font-family="Helvetica,sans-Serif" font-size="10.00" fill="#000000">src/application_server</text>
<text text-anchor="middle" x="630" y="-7.5" font-family="Helvetica,sans-Serif" font-size="10.00" fill="#000000">/main.cpp</text>
</a>
</g>
</g>
<!-- Node2&#45;&gt;Node6 -->
<g id="edge24" class="edge">
<title>Node2&#45;&gt;Node6</title>
<path fill="none" stroke="#191970" d="M279.7897,-398.4745C232.701,-378.0796 172,-340.6964 172,-283.5 172,-283.5 172,-283.5 172,-149.5 172,-92.9048 217.3988,-90.245 269,-67 321.9598,-43.143 484.4777,-27.0267 572.2813,-19.8117"/>
<polygon fill="#191970" stroke="#191970" points="278.7276,-401.8238 289.304,-402.4487 281.4257,-395.3647 278.7276,-401.8238"/>
</g>
<!-- Node8 -->
<g id="node8" class="node">
<title>Node8</title>
<g id="a_node8"><a xlink:href="menubar_8h.html" target="_top" xlink:title=" ">
<polygon fill="#ffffff" stroke="#000000" points="353.5,-134.5 353.5,-164.5 468.5,-164.5 468.5,-134.5 353.5,-134.5"/>
<text text-anchor="start" x="361.5" y="-152.5" font-family="Helvetica,sans-Serif" font-size="10.00" fill="#000000">src/application_server</text>
<text text-anchor="middle" x="411" y="-141.5" font-family="Helvetica,sans-Serif" font-size="10.00" fill="#000000">/menubar.h</text>
</a>
</g>
</g>
<!-- Node2&#45;&gt;Node8 -->
<g id="edge22" class="edge">
<title>Node2&#45;&gt;Node8</title>
<path fill="none" stroke="#191970" d="M295.6477,-396.6919C284.6683,-388.6618 274.0455,-378.3855 268,-366 261.9564,-353.6185 265.3771,-348.5258 268,-335 280.2235,-271.9647 279.9201,-249.4989 322,-201 335.6881,-185.2239 355.4545,-173.1109 372.8842,-164.608"/>
<polygon fill="#191970" stroke="#191970" points="293.8042,-399.6707 304.0434,-402.3925 297.7364,-393.8795 293.8042,-399.6707"/>
</g>
<!-- Node11 -->
<g id="node11" class="node">
<title>Node11</title>
<g id="a_node11"><a xlink:href="gameloop_8h.html" target="_top" xlink:title=" ">
<polygon fill="#ffffff" stroke="#000000" points="658.5,-201.5 658.5,-231.5 773.5,-231.5 773.5,-201.5 658.5,-201.5"/>
<text text-anchor="start" x="666.5" y="-219.5" font-family="Helvetica,sans-Serif" font-size="10.00" fill="#000000">src/application_server</text>
<text text-anchor="middle" x="716" y="-208.5" font-family="Helvetica,sans-Serif" font-size="10.00" fill="#000000">/gameloop.h</text>
</a>
</g>
</g>
<!-- Node2&#45;&gt;Node11 -->
<g id="edge23" class="edge">
<title>Node2&#45;&gt;Node11</title>
<path fill="none" stroke="#191970" d="M388.5014,-399.0053C445.8741,-378.449 537.8418,-342.3677 611,-299 644.7025,-279.0214 679.6668,-249.4668 699.5392,-231.6863"/>
<polygon fill="#191970" stroke="#191970" points="387.1533,-395.7699 378.9018,-402.4155 389.4965,-402.366 387.1533,-395.7699"/>
</g>
<!-- Node13 -->
<g id="node13" class="node">
<title>Node13</title>
<g id="a_node13"><a xlink:href="view_8h.html" target="_top" xlink:title=" ">
<polygon fill="#ffffff" stroke="#000000" points="276.5,-335.5 276.5,-365.5 391.5,-365.5 391.5,-335.5 276.5,-335.5"/>
<text text-anchor="start" x="284.5" y="-353.5" font-family="Helvetica,sans-Serif" font-size="10.00" fill="#000000">src/application_server</text>
<text text-anchor="middle" x="334" y="-342.5" font-family="Helvetica,sans-Serif" font-size="10.00" fill="#000000">/view.h</text>
</a>
</g>
</g>
<!-- Node2&#45;&gt;Node13 -->
<g id="edge17" class="edge">
<title>Node2&#45;&gt;Node13</title>
<path fill="none" stroke="#191970" d="M334,-392.0249C334,-383.128 334,-373.4287 334,-365.6432"/>
<polygon fill="#191970" stroke="#191970" points="330.5001,-392.2966 334,-402.2967 337.5001,-392.2967 330.5001,-392.2966"/>
</g>
<!-- Node15 -->
<g id="node15" class="node">
<title>Node15</title>
<g id="a_node15"><a xlink:href="scene_8cpp.html" target="_top" xlink:title=" ">
<polygon fill="#ffffff" stroke="#000000" points="28.5,-335.5 28.5,-365.5 143.5,-365.5 143.5,-335.5 28.5,-335.5"/>
<text text-anchor="start" x="36.5" y="-353.5" font-family="Helvetica,sans-Serif" font-size="10.00" fill="#000000">src/application_server</text>
<text text-anchor="middle" x="86" y="-342.5" font-family="Helvetica,sans-Serif" font-size="10.00" fill="#000000">/scene.cpp</text>
</a>
</g>
</g>
<!-- Node2&#45;&gt;Node15 -->
<g id="edge25" class="edge">
<title>Node2&#45;&gt;Node15</title>
<path fill="none" stroke="#191970" d="M268.5567,-399.8198C229.1383,-389.1704 179.4721,-375.7525 141.8988,-365.6017"/>
<polygon fill="#191970" stroke="#191970" points="267.7772,-403.2346 278.344,-402.4639 269.6029,-396.4768 267.7772,-403.2346"/>
</g>
<!-- Node4 -->
<g id="node4" class="node">
<title>Node4</title>
<g id="a_node4"><a xlink:href="client_8cpp.html" target="_top" xlink:title=" ">
<polygon fill="#ffffff" stroke="#000000" points="282.5,-.5 282.5,-30.5 397.5,-30.5 397.5,-.5 282.5,-.5"/>
<text text-anchor="start" x="290.5" y="-18.5" font-family="Helvetica,sans-Serif" font-size="10.00" fill="#000000">src/application_server</text>
<text text-anchor="middle" x="340" y="-7.5" font-family="Helvetica,sans-Serif" font-size="10.00" fill="#000000">/client.cpp</text>
</a>
</g>
</g>
<!-- Node3&#45;&gt;Node4 -->
<g id="edge3" class="edge">
<title>Node3&#45;&gt;Node4</title>
<path fill="none" stroke="#191970" d="M476.2917,-276.2145C441.6051,-269.5178 400.567,-256.6655 371,-232 312.6319,-183.3077 315.9417,-142.3433 326,-67 327.6674,-54.5098 331.5144,-40.7558 334.7545,-30.6058"/>
<polygon fill="#191970" stroke="#191970" points="475.8996,-279.7 486.3608,-278.0232 477.1372,-272.8103 475.8996,-279.7"/>
</g>
<!-- Node5 -->
<g id="node5" class="node">
<title>Node5</title>
<g id="a_node5"><a xlink:href="main_8h.html" target="_top" xlink:title=" ">
<polygon fill="#ffffff" stroke="#000000" points="334.5,-67.5 334.5,-97.5 449.5,-97.5 449.5,-67.5 334.5,-67.5"/>
<text text-anchor="start" x="342.5" y="-85.5" font-family="Helvetica,sans-Serif" font-size="10.00" fill="#000000">src/application_server</text>
<text text-anchor="middle" x="392" y="-74.5" font-family="Helvetica,sans-Serif" font-size="10.00" fill="#000000">/main.h</text>
</a>
</g>
</g>
<!-- Node3&#45;&gt;Node5 -->
<g id="edge4" class="edge">
<title>Node3&#45;&gt;Node5</title>
<path fill="none" stroke="#191970" d="M481.3657,-264.9158C434.6109,-247.3804 373.9989,-216.0192 345,-165 331.6412,-141.4972 354.6872,-114.2494 372.9768,-97.7003"/>
<polygon fill="#191970" stroke="#191970" points="480.2227,-268.2243 490.8169,-268.345 482.6103,-261.644 480.2227,-268.2243"/>
</g>
<!-- Node7 -->
<g id="node7" class="node">
<title>Node7</title>
<g id="a_node7"><a xlink:href="routeinterface_8h.html" target="_top" xlink:title=" ">
<polygon fill="#ffffff" stroke="#000000" points="486.5,-201.5 486.5,-231.5 601.5,-231.5 601.5,-201.5 486.5,-201.5"/>
<text text-anchor="start" x="494.5" y="-219.5" font-family="Helvetica,sans-Serif" font-size="10.00" fill="#000000">src/application_server</text>
<text text-anchor="middle" x="544" y="-208.5" font-family="Helvetica,sans-Serif" font-size="10.00" fill="#000000">/routeinterface.h</text>
</a>
</g>
</g>
<!-- Node3&#45;&gt;Node7 -->
<g id="edge7" class="edge">
<title>Node3&#45;&gt;Node7</title>
<path fill="none" stroke="#191970" d="M544,-258.0249C544,-249.128 544,-239.4287 544,-231.6432"/>
<polygon fill="#191970" stroke="#191970" points="540.5001,-258.2966 544,-268.2967 547.5001,-258.2967 540.5001,-258.2966"/>
</g>
<!-- Node9 -->
<g id="node9" class="node">
<title>Node9</title>
<g id="a_node9"><a xlink:href="menubar_8cpp.html" target="_top" xlink:title=" ">
<polygon fill="#ffffff" stroke="#000000" points="658.5,-67.5 658.5,-97.5 773.5,-97.5 773.5,-67.5 658.5,-67.5"/>
<text text-anchor="start" x="666.5" y="-85.5" font-family="Helvetica,sans-Serif" font-size="10.00" fill="#000000">src/application_server</text>
<text text-anchor="middle" x="716" y="-74.5" font-family="Helvetica,sans-Serif" font-size="10.00" fill="#000000">/menubar.cpp</text>
</a>
</g>
</g>
<!-- Node3&#45;&gt;Node9 -->
<g id="edge16" class="edge">
<title>Node3&#45;&gt;Node9</title>
<path fill="none" stroke="#191970" d="M575.4424,-262.3983C587.2562,-253.708 600.3838,-243.0833 611,-232 653.1237,-188.0232 691.1243,-125.9179 707.4919,-97.6137"/>
<polygon fill="#191970" stroke="#191970" points="573.2125,-259.6904 567.127,-268.3632 577.2927,-265.3784 573.2125,-259.6904"/>
</g>
<!-- Node3&#45;&gt;Node11 -->
<g id="edge13" class="edge">
<title>Node3&#45;&gt;Node11</title>
<path fill="none" stroke="#191970" d="M592.1922,-264.7275C619.0523,-254.2645 652.0559,-241.4084 677.2315,-231.6017"/>
<polygon fill="#191970" stroke="#191970" points="590.6478,-261.5728 582.6002,-268.4639 593.1886,-268.0954 590.6478,-261.5728"/>
</g>
<!-- Node5&#45;&gt;Node4 -->
<g id="edge5" class="edge">
<title>Node5&#45;&gt;Node4</title>
<path fill="none" stroke="#191970" d="M374.0335,-59.3509C366.6583,-49.8482 358.3266,-39.1132 351.7529,-30.6432"/>
<polygon fill="#191970" stroke="#191970" points="371.3042,-61.5427 380.2004,-67.2967 376.8341,-57.2508 371.3042,-61.5427"/>
</g>
<!-- Node5&#45;&gt;Node6 -->
<g id="edge6" class="edge">
<title>Node5&#45;&gt;Node6</title>
<path fill="none" stroke="#191970" d="M455.2858,-64.6842C493.0371,-54.0568 540.4498,-40.7095 576.3552,-30.6017"/>
<polygon fill="#191970" stroke="#191970" points="454.0892,-61.385 445.4118,-67.4639 455.9862,-68.1231 454.0892,-61.385"/>
</g>
<!-- Node7&#45;&gt;Node6 -->
<g id="edge11" class="edge">
<title>Node7&#45;&gt;Node6</title>
<path fill="none" stroke="#191970" d="M581.4383,-195.7173C592.7177,-187.6027 603.9595,-177.2698 611,-165 636.0012,-121.4292 634.1881,-59.1209 631.719,-30.6899"/>
<polygon fill="#191970" stroke="#191970" points="579.2132,-192.996 572.8744,-201.4854 583.1238,-198.8019 579.2132,-192.996"/>
</g>
<!-- Node7&#45;&gt;Node8 -->
<g id="edge8" class="edge">
<title>Node7&#45;&gt;Node8</title>
<path fill="none" stroke="#191970" d="M505.1187,-196.9132C484.7357,-186.645 460.1428,-174.2561 441.2083,-164.7177"/>
<polygon fill="#191970" stroke="#191970" points="503.6467,-200.0906 514.1522,-201.4639 506.7961,-193.8391 503.6467,-200.0906"/>
</g>
<!-- Node10 -->
<g id="node10" class="node">
<title>Node10</title>
<g id="a_node10"><a xlink:href="routeinterface_8cpp.html" target="_top" xlink:title=" ">
<polygon fill="#ffffff" stroke="#000000" points="486.5,-134.5 486.5,-164.5 601.5,-164.5 601.5,-134.5 486.5,-134.5"/>
<text text-anchor="start" x="494.5" y="-152.5" font-family="Helvetica,sans-Serif" font-size="10.00" fill="#000000">src/application_server</text>
<text text-anchor="middle" x="544" y="-141.5" font-family="Helvetica,sans-Serif" font-size="10.00" fill="#000000">/routeinterface.cpp</text>
</a>
</g>
</g>
<!-- Node7&#45;&gt;Node10 -->
<g id="edge12" class="edge">
<title>Node7&#45;&gt;Node10</title>
<path fill="none" stroke="#191970" d="M544,-191.0249C544,-182.128 544,-172.4287 544,-164.6432"/>
<polygon fill="#191970" stroke="#191970" points="540.5001,-191.2966 544,-201.2967 547.5001,-191.2967 540.5001,-191.2966"/>
</g>
<!-- Node8&#45;&gt;Node5 -->
<g id="edge9" class="edge">
<title>Node8&#45;&gt;Node5</title>
<path fill="none" stroke="#191970" d="M403.9417,-124.6103C401.3739,-115.5553 398.5507,-105.5998 396.2943,-97.6432"/>
<polygon fill="#191970" stroke="#191970" points="400.5931,-125.6309 406.6886,-134.2967 407.3275,-123.7211 400.5931,-125.6309"/>
</g>
<!-- Node8&#45;&gt;Node9 -->
<g id="edge10" class="edge">
<title>Node8&#45;&gt;Node9</title>
<path fill="none" stroke="#191970" d="M478.6756,-133.8652C546.0337,-118.8267 612.2704,-104.5687 658.2382,-94.7583"/>
<polygon fill="#191970" stroke="#191970" points="477.7266,-130.4909 468.7316,-136.0892 479.2545,-137.3221 477.7266,-130.4909"/>
</g>
<!-- Node11&#45;&gt;Node6 -->
<g id="edge15" class="edge">
<title>Node11&#45;&gt;Node6</title>
<path fill="none" stroke="#191970" d="M783.1596,-197.1584C798.1193,-189.5911 812.1502,-179.1976 821,-165 828.2882,-153.3077 824.5149,-147.3219 821,-134 812.2666,-100.899 809.4075,-88.7853 783,-67 755.8674,-44.6166 718.5671,-31.8024 687.5888,-24.5546"/>
<polygon fill="#191970" stroke="#191970" points="781.364,-194.1329 773.763,-201.5137 784.3077,-200.4839 781.364,-194.1329"/>
</g>
<!-- Node12 -->
<g id="node12" class="node">
<title>Node12</title>
<g id="a_node12"><a xlink:href="gameloop_8cpp.html" target="_top" xlink:title=" ">
<polygon fill="#ffffff" stroke="#000000" points="696.5,-134.5 696.5,-164.5 811.5,-164.5 811.5,-134.5 696.5,-134.5"/>
<text text-anchor="start" x="704.5" y="-152.5" font-family="Helvetica,sans-Serif" font-size="10.00" fill="#000000">src/application_server</text>
<text text-anchor="middle" x="754" y="-141.5" font-family="Helvetica,sans-Serif" font-size="10.00" fill="#000000">/gameloop.cpp</text>
</a>
</g>
</g>
<!-- Node11&#45;&gt;Node12 -->
<g id="edge14" class="edge">
<title>Node11&#45;&gt;Node12</title>
<path fill="none" stroke="#191970" d="M729.6212,-192.4837C734.8868,-183.1996 740.753,-172.8565 745.4113,-164.6432"/>
<polygon fill="#191970" stroke="#191970" points="726.5118,-190.8716 724.6228,-201.2967 732.6007,-194.325 726.5118,-190.8716"/>
</g>
<!-- Node13&#45;&gt;Node3 -->
<g id="edge18" class="edge">
<title>Node13&#45;&gt;Node3</title>
<path fill="none" stroke="#191970" d="M390.6928,-332.4123C423.8618,-321.8298 465.2547,-308.6235 496.6664,-298.6017"/>
<polygon fill="#191970" stroke="#191970" points="389.5911,-329.0899 381.1281,-335.4639 391.7188,-335.7587 389.5911,-329.0899"/>
</g>
<!-- Node13&#45;&gt;Node6 -->
<g id="edge20" class="edge">
<title>Node13&#45;&gt;Node6</title>
<path fill="none" stroke="#191970" d="M308.2554,-328.1914C282.9188,-303.6269 248,-261.5925 248,-216.5 248,-216.5 248,-216.5 248,-149.5 248,-99.0399 281.4922,-90.7755 326,-67 367.6676,-44.7417 496.3845,-28.6952 572.3114,-20.8754"/>
<polygon fill="#191970" stroke="#191970" points="306.0753,-330.9454 315.7616,-335.2381 310.8664,-325.8419 306.0753,-330.9454"/>
</g>
<!-- Node13&#45;&gt;Node8 -->
<g id="edge19" class="edge">
<title>Node13&#45;&gt;Node8</title>
<path fill="none" stroke="#191970" d="M317.1737,-326.9507C307.4675,-310.3618 298.5321,-287.6886 306,-268 322.8644,-223.538 364.8869,-185.0526 390.3632,-164.7709"/>
<polygon fill="#191970" stroke="#191970" points="314.2561,-328.8857 322.5461,-335.4831 320.1797,-325.156 314.2561,-328.8857"/>
</g>
<!-- Node14 -->
<g id="node14" class="node">
<title>Node14</title>
<g id="a_node14"><a xlink:href="view_8cpp.html" target="_top" xlink:title=" ">
<polygon fill="#ffffff" stroke="#000000" points="314.5,-268.5 314.5,-298.5 429.5,-298.5 429.5,-268.5 314.5,-268.5"/>
<text text-anchor="start" x="322.5" y="-286.5" font-family="Helvetica,sans-Serif" font-size="10.00" fill="#000000">src/application_server</text>
<text text-anchor="middle" x="372" y="-275.5" font-family="Helvetica,sans-Serif" font-size="10.00" fill="#000000">/view.cpp</text>
</a>
</g>
</g>
<!-- Node13&#45;&gt;Node14 -->
<g id="edge21" class="edge">
<title>Node13&#45;&gt;Node14</title>
<path fill="none" stroke="#191970" d="M347.6212,-326.4837C352.8868,-317.1996 358.753,-306.8565 363.4113,-298.6432"/>
<polygon fill="#191970" stroke="#191970" points="344.5118,-324.8716 342.6228,-335.2967 350.6007,-328.325 344.5118,-324.8716"/>
</g>
<!-- Node16&#45;&gt;Node2 -->
<g id="edge27" class="edge">
<title>Node16&#45;&gt;Node2</title>
<path fill="none" stroke="#191970" d="M465.7524,-466.0023C437.1975,-455.4903 401.8954,-442.4945 375.0225,-432.6017"/>
<polygon fill="#191970" stroke="#191970" points="464.5622,-469.2937 475.1556,-469.4639 466.9805,-462.7247 464.5622,-469.2937"/>
</g>
<!-- Node16&#45;&gt;Node3 -->
<g id="edge28" class="edge">
<title>Node16&#45;&gt;Node3</title>
<path fill="none" stroke="#191970" d="M519.5038,-459.348C525.4021,-417.0061 537.1374,-332.7637 541.9092,-298.5088"/>
<polygon fill="#191970" stroke="#191970" points="516.0178,-459.005 518.1046,-469.3923 522.9509,-459.9709 516.0178,-459.005"/>
</g>
<!-- Node16&#45;&gt;Node5 -->
<g id="edge42" class="edge">
<title>Node16&#45;&gt;Node5</title>
<path fill="none" stroke="#191970" d="M448.1178,-481.0649C308.051,-472.1183 0,-442.0367 0,-350.5 0,-350.5 0,-350.5 0,-216.5 0,-146.7357 225.1177,-105.7544 334.159,-89.9961"/>
<polygon fill="#191970" stroke="#191970" points="448.1126,-484.5712 458.3102,-481.6975 448.5463,-477.5847 448.1126,-484.5712"/>
</g>
<!-- Node16&#45;&gt;Node8 -->
<g id="edge43" class="edge">
<title>Node16&#45;&gt;Node8</title>
<path fill="none" stroke="#191970" d="M498.8176,-460.9861C481.716,-435.2157 458,-391.9971 458,-350.5 458,-350.5 458,-350.5 458,-283.5 458,-238.1378 433.7197,-188.7591 420.0621,-164.5719"/>
<polygon fill="#191970" stroke="#191970" points="496.0025,-463.0699 504.5411,-469.3423 501.7777,-459.1142 496.0025,-463.0699"/>
</g>
<!-- Node16&#45;&gt;Node9 -->
<g id="edge47" class="edge">
<title>Node16&#45;&gt;Node9</title>
<path fill="none" stroke="#191970" d="M583.6208,-467.6623C629.8405,-455.6738 684.2614,-440.4231 693,-433 748.0853,-386.2072 859.233,-195.3367 821,-134 810.3134,-116.8557 792.0721,-105.2585 773.763,-97.4863"/>
<polygon fill="#191970" stroke="#191970" points="582.712,-464.282 573.9019,-470.167 584.459,-471.0606 582.712,-464.282"/>
</g>
<!-- Node16&#45;&gt;Node11 -->
<g id="edge46" class="edge">
<title>Node16&#45;&gt;Node11</title>
<path fill="none" stroke="#191970" d="M583.5551,-468.7683C618.8077,-459.2358 657.0419,-446.3638 669,-433 721.7059,-374.0982 720.0801,-270.2526 717.3877,-231.5743"/>
<polygon fill="#191970" stroke="#191970" points="582.4907,-465.4293 573.7154,-471.3661 584.2776,-472.1974 582.4907,-465.4293"/>
</g>
<!-- Node16&#45;&gt;Node13 -->
<g id="edge29" class="edge">
<title>Node16&#45;&gt;Node13</title>
<path fill="none" stroke="#191970" d="M486.3128,-463.4928C473.2818,-454.2133 457.8317,-443.1317 444,-433 412.2246,-409.7247 375.7134,-382.1805 353.7713,-365.5393"/>
<polygon fill="#191970" stroke="#191970" points="484.307,-466.3612 494.4854,-469.3024 488.3628,-460.6558 484.307,-466.3612"/>
</g>
<!-- Node17 -->
<g id="node17" class="node">
<title>Node17</title>
<g id="a_node17"><a xlink:href="maprenderer_8h.html" target="_top" xlink:title=" ">
<polygon fill="#ffffff" stroke="#000000" points="792.5,-335.5 792.5,-365.5 907.5,-365.5 907.5,-335.5 792.5,-335.5"/>
<text text-anchor="start" x="800.5" y="-353.5" font-family="Helvetica,sans-Serif" font-size="10.00" fill="#000000">src/application_server</text>
<text text-anchor="middle" x="850" y="-342.5" font-family="Helvetica,sans-Serif" font-size="10.00" fill="#000000">/maprenderer.h</text>
</a>
</g>
</g>
<!-- Node16&#45;&gt;Node17 -->
<g id="edge30" class="edge">
<title>Node16&#45;&gt;Node17</title>
<path fill="none" stroke="#191970" d="M583.5575,-469.0404C671.6015,-452.7757 704.1186,-475.0966 778,-433 806.575,-416.7184 829.4101,-384.7662 841.2135,-365.7588"/>
<polygon fill="#191970" stroke="#191970" points="582.8443,-465.6136 573.7074,-470.977 584.1948,-472.4821 582.8443,-465.6136"/>
</g>
<!-- Node19 -->
<g id="node19" class="node">
<title>Node19</title>
<g id="a_node19"><a xlink:href="sidepanel_8h.html" target="_top" xlink:title=" ">
<polygon fill="#ffffff" stroke="#000000" points="1125.5,-201.5 1125.5,-231.5 1240.5,-231.5 1240.5,-201.5 1125.5,-201.5"/>
<text text-anchor="start" x="1133.5" y="-219.5" font-family="Helvetica,sans-Serif" font-size="10.00" fill="#000000">src/application_server</text>
<text text-anchor="middle" x="1183" y="-208.5" font-family="Helvetica,sans-Serif" font-size="10.00" fill="#000000">/sidepanel.h</text>
</a>
</g>
</g>
<!-- Node16&#45;&gt;Node19 -->
<g id="edge44" class="edge">
<title>Node16&#45;&gt;Node19</title>
<path fill="none" stroke="#191970" d="M583.8088,-468.9405C834.2801,-421.5818 933.7662,-457.5722 1127,-299 1149.883,-280.2217 1167.182,-249.72 1176.1468,-231.5352"/>
<polygon fill="#191970" stroke="#191970" points="582.8491,-465.5607 573.6887,-470.8839 584.1693,-472.4351 582.8491,-465.5607"/>
</g>
<!-- Node23 -->
<g id="node23" class="node">
<title>Node23</title>
<g id="a_node23"><a xlink:href="datamodel_8cpp.html" target="_top" xlink:title=" ">
<polygon fill="#ffffff" stroke="#000000" points="544.5,-402.5 544.5,-432.5 659.5,-432.5 659.5,-402.5 544.5,-402.5"/>
<text text-anchor="start" x="552.5" y="-420.5" font-family="Helvetica,sans-Serif" font-size="10.00" fill="#000000">src/application_server</text>
<text text-anchor="middle" x="602" y="-409.5" font-family="Helvetica,sans-Serif" font-size="10.00" fill="#000000">/datamodel.cpp</text>
</a>
</g>
</g>
<!-- Node16&#45;&gt;Node23 -->
<g id="edge45" class="edge">
<title>Node16&#45;&gt;Node23</title>
<path fill="none" stroke="#191970" d="M543.5145,-463.0643C556.2304,-453.1577 571.0316,-441.6265 582.5625,-432.6432"/>
<polygon fill="#191970" stroke="#191970" points="541.2523,-460.3899 535.5147,-469.2967 545.5544,-465.9119 541.2523,-460.3899"/>
</g>
<!-- Node17&#45;&gt;Node3 -->
<g id="edge31" class="edge">
<title>Node17&#45;&gt;Node3</title>
<path fill="none" stroke="#191970" d="M782.5749,-335.737C728.3476,-323.8637 652.979,-307.3614 601.5577,-296.1025"/>
<polygon fill="#191970" stroke="#191970" points="781.9265,-339.1779 792.4437,-337.8978 783.4238,-332.3399 781.9265,-339.1779"/>
</g>
<!-- Node17&#45;&gt;Node6 -->
<g id="edge40" class="edge">
<title>Node17&#45;&gt;Node6</title>
<path fill="none" stroke="#191970" d="M917.1596,-331.1584C932.1193,-323.5911 946.1502,-313.1976 955,-299 962.2882,-287.3077 959.2354,-281.1106 955,-268 921.1381,-163.1816 900.1432,-130.3067 810,-67 773.8246,-41.5943 725.2848,-28.6475 687.7274,-22.0922"/>
<polygon fill="#191970" stroke="#191970" points="915.364,-328.1329 907.763,-335.5137 918.3077,-334.4839 915.364,-328.1329"/>
</g>
<!-- Node17&#45;&gt;Node8 -->
<g id="edge32" class="edge">
<title>Node17&#45;&gt;Node8</title>
<path fill="none" stroke="#191970" d="M836.2739,-326.6686C831.5241,-318.064 826.3143,-308.2032 822,-299 802.1022,-256.5546 820.1829,-229.5475 783,-201 728.8663,-159.4384 545.2364,-176.7089 478,-165 474.9418,-164.4674 471.8138,-163.8832 468.6615,-163.2632"/>
<polygon fill="#191970" stroke="#191970" points="833.2388,-328.4121 841.1834,-335.4218 839.3441,-324.9878 833.2388,-328.4121"/>
</g>
<!-- Node17&#45;&gt;Node11 -->
<g id="edge39" class="edge">
<title>Node17&#45;&gt;Node11</title>
<path fill="none" stroke="#191970" d="M822.2618,-329.0426C811.2532,-320.126 798.6935,-309.4358 788,-299 765.4151,-276.9594 741.8461,-248.8138 728.0655,-231.7481"/>
<polygon fill="#191970" stroke="#191970" points="820.3238,-331.9742 830.3212,-335.482 824.6934,-326.5054 820.3238,-331.9742"/>
</g>
<!-- Node18 -->
<g id="node18" class="node">
<title>Node18</title>
<g id="a_node18"><a xlink:href="minimap_8h.html" target="_top" xlink:title=" ">
<polygon fill="#ffffff" stroke="#000000" points="1002.5,-268.5 1002.5,-298.5 1117.5,-298.5 1117.5,-268.5 1002.5,-268.5"/>
<text text-anchor="start" x="1010.5" y="-286.5" font-family="Helvetica,sans-Serif" font-size="10.00" fill="#000000">src/application_server</text>
<text text-anchor="middle" x="1060" y="-275.5" font-family="Helvetica,sans-Serif" font-size="10.00" fill="#000000">/minimap.h</text>
</a>
</g>
</g>
<!-- Node17&#45;&gt;Node18 -->
<g id="edge33" class="edge">
<title>Node17&#45;&gt;Node18</title>
<path fill="none" stroke="#191970" d="M906.6928,-332.4123C939.8618,-321.8298 981.2547,-308.6235 1012.6664,-298.6017"/>
<polygon fill="#191970" stroke="#191970" points="905.5911,-329.0899 897.1281,-335.4639 907.7188,-335.7587 905.5911,-329.0899"/>
</g>
<!-- Node22 -->
<g id="node22" class="node">
<title>Node22</title>
<g id="a_node22"><a xlink:href="maprenderer_8cpp.html" target="_top" xlink:title=" ">
<polygon fill="#ffffff" stroke="#000000" points="830.5,-268.5 830.5,-298.5 945.5,-298.5 945.5,-268.5 830.5,-268.5"/>
<text text-anchor="start" x="838.5" y="-286.5" font-family="Helvetica,sans-Serif" font-size="10.00" fill="#000000">src/application_server</text>
<text text-anchor="middle" x="888" y="-275.5" font-family="Helvetica,sans-Serif" font-size="10.00" fill="#000000">/maprenderer.cpp</text>
</a>
</g>
</g>
<!-- Node17&#45;&gt;Node22 -->
<g id="edge41" class="edge">
<title>Node17&#45;&gt;Node22</title>
<path fill="none" stroke="#191970" d="M863.6212,-326.4837C868.8868,-317.1996 874.753,-306.8565 879.4113,-298.6432"/>
<polygon fill="#191970" stroke="#191970" points="860.5118,-324.8716 858.6228,-335.2967 866.6007,-328.325 860.5118,-324.8716"/>
</g>
<!-- Node18&#45;&gt;Node19 -->
<g id="edge34" class="edge">
<title>Node18&#45;&gt;Node19</title>
<path fill="none" stroke="#191970" d="M1096.4683,-263.6352C1115.2177,-253.422 1137.7099,-241.1702 1155.063,-231.7177"/>
<polygon fill="#191970" stroke="#191970" points="1094.711,-260.6067 1087.6036,-268.4639 1098.0595,-266.7539 1094.711,-260.6067"/>
</g>
<!-- Node21 -->
<g id="node21" class="node">
<title>Node21</title>
<g id="a_node21"><a xlink:href="minimap_8cpp.html" target="_top" xlink:title=" ">
<polygon fill="#ffffff" stroke="#000000" points="992.5,-201.5 992.5,-231.5 1107.5,-231.5 1107.5,-201.5 992.5,-201.5"/>
<text text-anchor="start" x="1000.5" y="-219.5" font-family="Helvetica,sans-Serif" font-size="10.00" fill="#000000">src/application_server</text>
<text text-anchor="middle" x="1050" y="-208.5" font-family="Helvetica,sans-Serif" font-size="10.00" fill="#000000">/minimap.cpp</text>
</a>
</g>
</g>
<!-- Node18&#45;&gt;Node21 -->
<g id="edge38" class="edge">
<title>Node18&#45;&gt;Node21</title>
<path fill="none" stroke="#191970" d="M1056.2415,-258.3179C1054.9017,-249.3414 1053.435,-239.5143 1052.2602,-231.6432"/>
<polygon fill="#191970" stroke="#191970" points="1052.7929,-258.9229 1057.7308,-268.2967 1059.7162,-257.8895 1052.7929,-258.9229"/>
</g>
<!-- Node19&#45;&gt;Node5 -->
<g id="edge35" class="edge">
<title>Node19&#45;&gt;Node5</title>
<path fill="none" stroke="#191970" d="M1115.3611,-200.6173C983.9599,-170.0157 950.6704,-156.3974 821,-134 688.8691,-111.1777 532.1014,-95.1179 449.5211,-87.5038"/>
<polygon fill="#191970" stroke="#191970" points="1114.8814,-204.0988 1125.4135,-202.947 1116.4619,-197.2796 1114.8814,-204.0988"/>
</g>
<!-- Node19&#45;&gt;Node6 -->
<g id="edge36" class="edge">
<title>Node19&#45;&gt;Node6</title>
<path fill="none" stroke="#191970" d="M1155.2541,-195.1153C1103.9426,-155.7408 997.6461,-75.0415 978,-67 926.5641,-45.9465 772.3732,-28.7987 687.5295,-20.6443"/>
<polygon fill="#191970" stroke="#191970" points="1153.2256,-197.9706 1163.2879,-201.2874 1157.4902,-192.4196 1153.2256,-197.9706"/>
</g>
<!-- Node20 -->
<g id="node20" class="node">
<title>Node20</title>
<g id="a_node20"><a xlink:href="sidepanel_8cpp.html" target="_top" xlink:title=" ">
<polygon fill="#ffffff" stroke="#000000" points="1125.5,-134.5 1125.5,-164.5 1240.5,-164.5 1240.5,-134.5 1125.5,-134.5"/>
<text text-anchor="start" x="1133.5" y="-152.5" font-family="Helvetica,sans-Serif" font-size="10.00" fill="#000000">src/application_server</text>
<text text-anchor="middle" x="1183" y="-141.5" font-family="Helvetica,sans-Serif" font-size="10.00" fill="#000000">/sidepanel.cpp</text>
</a>
</g>
</g>
<!-- Node19&#45;&gt;Node20 -->
<g id="edge37" class="edge">
<title>Node19&#45;&gt;Node20</title>
<path fill="none" stroke="#191970" d="M1183,-191.0249C1183,-182.128 1183,-172.4287 1183,-164.6432"/>
<polygon fill="#191970" stroke="#191970" points="1179.5001,-191.2966 1183,-201.2967 1186.5001,-191.2967 1179.5001,-191.2966"/>
</g>
</g>
</svg>
        <g id="navigator" transform="translate(0 0)" fill="#404254">
                <rect fill="#f2f5e9" fill-opacity="0.5" stroke="#606060" stroke-width=".5" x="0" y="0" width="60" height="60"/>
                <use id="zoomplus" xlink:href="#zoomPlus" x="17" y="9" onmousedown="handleZoom(evt,'in')"/>
                <use id="zoomminus" xlink:href="#zoomMin" x="42" y="9" onmousedown="handleZoom(evt,'out')"/>
                <use id="reset" xlink:href="#resetDef" x="30" y="36" onmousedown="handleReset()"/>
                <g id="arrowUp" xlink:href="#dirArrow" transform="translate(30 24)" onmousedown="handlePan(0,-1)">
                  <use xlink:href="#rim" fill="#404040">
                        <set attributeName="fill" to="#808080" begin="arrowUp.mouseover" end="arrowUp.mouseout"/>
                  </use>
                  <path fill="none" stroke="white" stroke-width="1.5" d="M0,-3.0v7 M-2.5,-0.5L0,-3.0L2.5,-0.5"/>
                </g>
                <g id="arrowRight" xlink:href="#dirArrow" transform="rotate(90) translate(36 -43)" onmousedown="handlePan(1,0)">
                  <use xlink:href="#rim" fill="#404040">
                        <set attributeName="fill" to="#808080" begin="arrowRight.mouseover" end="arrowRight.mouseout"/>
                  </use>
                  <path fill="none" stroke="white" stroke-width="1.5" d="M0,-3.0v7 M-2.5,-0.5L0,-3.0L2.5,-0.5"/>
                </g>
                <g id="arrowDown" xlink:href="#dirArrow" transform="rotate(180) translate(-30 -48)" onmousedown="handlePan(0,1)">
                  <use xlink:href="#rim" fill="#404040">
                        <set attributeName="fill" to="#808080" begin="arrowDown.mouseover" end="arrowDown.mouseout"/>
                  </use>
                  <path fill="none" stroke="white" stroke-width="1.5" d="M0,-3.0v7 M-2.5,-0.5L0,-3.0L2.5,-0.5"/>
                </g>
                <g id="arrowLeft" xlink:href="#dirArrow" transform="rotate(270) translate(-36 17)" onmousedown="handlePan(-1,0)">
                  <use xlink:href="#rim" fill="#404040">
                        <set attributeName="fill" to="#808080" begin="arrowLeft.mouseover" end="arrowLeft.mouseout"/>
                  </use>
                  <path fill="none" stroke="white" stroke-width="1.5" d="M0,-3.0v7 M-2.5,-0.5L0,-3.0L2.5,-0.5"/>
                </g>
        </g>
        <svg viewBox="0 0 15 15" width="100%" height="30px" preserveAspectRatio="xMaxYMin meet">
         <g id="arrow_out" transform="scale(0.3 0.3)">
          <a xlink:href="player_8h__dep__incl_org.svg" target="_base">
           <rect id="button" ry="5" rx="5" y="6" x="6" height="38" width="38"
                fill="#f2f5e9" fill-opacity="0.5" stroke="#606060" stroke-width="1.0"/>
           <path id="arrow"
             d="M 11.500037,31.436501 C 11.940474,20.09759 22.043105,11.32322 32.158766,21.979434 L 37.068811,17.246167 C 37.068811,17.246167 37.088388,32 37.088388,32 L 22.160133,31.978069 C 22.160133,31.978069 26.997745,27.140456 26.997745,27.140456 C 18.528582,18.264221 13.291696,25.230495 11.500037,31.436501 z"
             style="fill:#404040;"/>
          </a>
         </g>
        </svg>
</svg>
