<?xml version="1.0" encoding="UTF-8" standalone="no"?>
<!DOCTYPE svg PUBLIC "-//W3C//DTD SVG 1.1//EN"
 "http://www.w3.org/Graphics/SVG/1.1/DTD/svg11.dtd">
<!-- Generated by graphviz version 2.40.1 (20161225.0304)
 -->
<!-- Title: src/application_server/player.h Pages: 1 -->
<!--zoomable 374 -->
<svg id="main" version="1.1" xmlns="http://www.w3.org/2000/svg" xmlns:xlink="http://www.w3.org/1999/xlink" xml:space="preserve" onload="init(evt)">
<style type="text/css"><![CDATA[
.edge:hover path { stroke: red; }
.edge:hover polygon { stroke: red; fill: red; }
]]></style>
<script type="text/javascript"><![CDATA[
var edges = document.getElementsByTagName('g');
if (edges && edges.length) {
  for (var i=0;i<edges.length;i++) {
    if (edges[i].id.substr(0,4)=='edge') {
      edges[i].setAttribute('class','edge');
    }
  }
}
]]></script>
        <defs>
                <circle id="rim" cx="0" cy="0" r="7"/>
                <circle id="rim2" cx="0" cy="0" r="3.5"/>
                <g id="zoomPlus">
                        <use xlink:href="#rim" fill="#404040">
                                <set attributeName="fill" to="#808080" begin="zoomplus.mouseover" end="zoomplus.mouseout"/>
                        </use>
                        <path d="M-4,0h8M0,-4v8" fill="none" stroke="white" stroke-width="1.5" pointer-events="none"/>
                </g>
                <g id="zoomMin">
                        <use xlink:href="#rim" fill="#404040">
                                <set attributeName="fill" to="#808080" begin="zoomminus.mouseover" end="zoomminus.mouseout"/>
                        </use>
                        <path d="M-4,0h8" fill="none" stroke="white" stroke-width="1.5" pointer-events="none"/>
                </g>
                <g id="dirArrow">
                        <path fill="none" stroke="white" stroke-width="1.5" d="M0,-3.0v7 M-2.5,-0.5L0,-3.0L2.5,-0.5"/>
                </g>
               <g id="resetDef">
                       <use xlink:href="#rim2" fill="#404040">
                               <set attributeName="fill" to="#808080" begin="reset.mouseover" end="reset.mouseout"/>
                       </use>
               </g>
        </defs>

<script type="text/javascript">
var viewWidth = 866;
var viewHeight = 374;
var sectionId = 'dynsection-1';
</script>
<script xlink:href="svgpan.js"/>
<svg id="graph" class="graph">
<g id="viewport">
<title>src/application_server/player.h</title>
<polygon fill="#ffffff" stroke="transparent" points="-4,4 -4,-370 862,-370 862,4 -4,4"/>
<!-- Node1 -->
<g id="node1" class="node">
<title>Node1</title>
<g id="a_node1"><a xlink:title=" ">
<polygon fill="#bfbfbf" stroke="#000000" points="504,-335.5 504,-365.5 619,-365.5 619,-335.5 504,-335.5"/>
<text text-anchor="start" x="512" y="-353.5" font-family="Helvetica,sans-Serif" font-size="10.00" fill="#000000">src/application_server</text>
<text text-anchor="middle" x="561.5" y="-342.5" font-family="Helvetica,sans-Serif" font-size="10.00" fill="#000000">/player.h</text>
</a>
</g>
</g>
<!-- Node2 -->
<g id="node2" class="node">
<title>Node2</title>
<g id="a_node2"><a xlink:href="scene_8h.html" target="_top" xlink:title=" ">
<polygon fill="#ffffff" stroke="#000000" points="438,-268.5 438,-298.5 553,-298.5 553,-268.5 438,-268.5"/>
<text text-anchor="start" x="446" y="-286.5" font-family="Helvetica,sans-Serif" font-size="10.00" fill="#000000">src/application_server</text>
<text text-anchor="middle" x="495.5" y="-275.5" font-family="Helvetica,sans-Serif" font-size="10.00" fill="#000000">/scene.h</text>
</a>
</g>
</g>
<!-- Node1&#45;&gt;Node2 -->
<g id="edge1" class="edge">
<title>Node1&#45;&gt;Node2</title>
<path fill="none" stroke="#191970" d="M539.2622,-327.9253C529.7637,-318.2828 518.9293,-307.2843 510.4172,-298.6432"/>
<polygon fill="#191970" stroke="#191970" points="537.0124,-330.6288 546.5236,-335.2967 541.9993,-325.7164 537.0124,-330.6288"/>
</g>
<!-- Node18 -->
<g id="node18" class="node">
<title>Node18</title>
<g id="a_node18"><a xlink:href="player_8cpp.html" target="_top" xlink:title=" ">
<polygon fill="#ffffff" stroke="#000000" points="571,-268.5 571,-298.5 686,-298.5 686,-268.5 571,-268.5"/>
<text text-anchor="start" x="579" y="-286.5" font-family="Helvetica,sans-Serif" font-size="10.00" fill="#000000">src/application_server</text>
<text text-anchor="middle" x="628.5" y="-275.5" font-family="Helvetica,sans-Serif" font-size="10.00" fill="#000000">/player.cpp</text>
</a>
</g>
</g>
<!-- Node1&#45;&gt;Node18 -->
<g id="edge27" class="edge">
<title>Node1&#45;&gt;Node18</title>
<path fill="none" stroke="#191970" d="M583.7887,-328.2113C593.4991,-318.5009 604.6302,-307.3698 613.3568,-298.6432"/>
<polygon fill="#191970" stroke="#191970" points="581.2996,-325.7507 576.7033,-335.2967 586.2493,-330.7004 581.2996,-325.7507"/>
</g>
<!-- Node3 -->
<g id="node3" class="node">
<title>Node3</title>
<g id="a_node3"><a xlink:href="client_8h.html" target="_top" xlink:title=" ">
<polygon fill="#ffffff" stroke="#000000" points="305,-134.5 305,-164.5 420,-164.5 420,-134.5 305,-134.5"/>
<text text-anchor="start" x="313" y="-152.5" font-family="Helvetica,sans-Serif" font-size="10.00" fill="#000000">src/application_server</text>
<text text-anchor="middle" x="362.5" y="-141.5" font-family="Helvetica,sans-Serif" font-size="10.00" fill="#000000">/client.h</text>
</a>
</g>
</g>
<!-- Node2&#45;&gt;Node3 -->
<g id="edge2" class="edge">
<title>Node2&#45;&gt;Node3</title>
<path fill="none" stroke="#191970" d="M473.3706,-261.2042C446.2702,-233.9001 401.0887,-188.3788 377.6475,-164.7614"/>
<polygon fill="#191970" stroke="#191970" points="470.973,-263.757 480.5017,-268.389 475.9413,-258.8258 470.973,-263.757"/>
</g>
<!-- Node5 -->
<g id="node5" class="node">
<title>Node5</title>
<g id="a_node5"><a xlink:href="gameloop_8h.html" target="_top" xlink:title=" ">
<polygon fill="#ffffff" stroke="#000000" points="0,-67.5 0,-97.5 115,-97.5 115,-67.5 0,-67.5"/>
<text text-anchor="start" x="8" y="-85.5" font-family="Helvetica,sans-Serif" font-size="10.00" fill="#000000">src/application_server</text>
<text text-anchor="middle" x="57.5" y="-74.5" font-family="Helvetica,sans-Serif" font-size="10.00" fill="#000000">/gameloop.h</text>
</a>
</g>
</g>
<!-- Node2&#45;&gt;Node5 -->
<g id="edge18" class="edge">
<title>Node2&#45;&gt;Node5</title>
<path fill="none" stroke="#191970" d="M427.8778,-277.8898C368.8279,-271.4618 281.5406,-258.2245 209.5,-232 153.1922,-211.5026 132.2807,-209.8131 92.5,-165 75.0443,-145.3361 65.3823,-115.6807 60.8313,-97.7953"/>
<polygon fill="#191970" stroke="#191970" points="427.5226,-281.3717 437.8342,-278.9383 428.2558,-274.4102 427.5226,-281.3717"/>
</g>
<!-- Node7 -->
<g id="node7" class="node">
<title>Node7</title>
<g id="a_node7"><a xlink:href="main_8cpp.html" target="_top" xlink:title=" ">
<polygon fill="#ffffff" stroke="#000000" points="438,-.5 438,-30.5 553,-30.5 553,-.5 438,-.5"/>
<text text-anchor="start" x="446" y="-18.5" font-family="Helvetica,sans-Serif" font-size="10.00" fill="#000000">src/application_server</text>
<text text-anchor="middle" x="495.5" y="-7.5" font-family="Helvetica,sans-Serif" font-size="10.00" fill="#000000">/main.cpp</text>
</a>
</g>
</g>
<!-- Node2&#45;&gt;Node7 -->
<g id="edge20" class="edge">
<title>Node2&#45;&gt;Node7</title>
<path fill="none" stroke="#191970" d="M513.8073,-259.8159C530.2154,-236.9785 553.1027,-200.7137 562.5,-165 573.5834,-122.8782 581.7478,-106.0718 562.5,-67 554.7848,-51.3386 539.765,-39.1093 525.8986,-30.5054"/>
<polygon fill="#191970" stroke="#191970" points="510.7694,-258.039 507.6623,-268.168 516.4077,-262.1874 510.7694,-258.039"/>
</g>
<!-- Node10 -->
<g id="node10" class="node">
<title>Node10</title>
<g id="a_node10"><a xlink:href="view_8h.html" target="_top" xlink:title=" ">
<polygon fill="#ffffff" stroke="#000000" points="219,-201.5 219,-231.5 334,-231.5 334,-201.5 219,-201.5"/>
<text text-anchor="start" x="227" y="-219.5" font-family="Helvetica,sans-Serif" font-size="10.00" fill="#000000">src/application_server</text>
<text text-anchor="middle" x="276.5" y="-208.5" font-family="Helvetica,sans-Serif" font-size="10.00" fill="#000000">/view.h</text>
</a>
</g>
</g>
<!-- Node2&#45;&gt;Node10 -->
<g id="edge10" class="edge">
<title>Node2&#45;&gt;Node10</title>
<path fill="none" stroke="#191970" d="M436.3776,-265.4123C401.787,-254.8298 358.6201,-241.6235 325.8622,-231.6017"/>
<polygon fill="#191970" stroke="#191970" points="435.7657,-268.8852 446.3521,-268.4639 437.8136,-262.1914 435.7657,-268.8852"/>
</g>
<!-- Node11 -->
<g id="node11" class="node">
<title>Node11</title>
<g id="a_node11"><a xlink:href="menubar_8h.html" target="_top" xlink:title=" ">
<polygon fill="#ffffff" stroke="#000000" points="438,-134.5 438,-164.5 553,-164.5 553,-134.5 438,-134.5"/>
<text text-anchor="start" x="446" y="-152.5" font-family="Helvetica,sans-Serif" font-size="10.00" fill="#000000">src/application_server</text>
<text text-anchor="middle" x="495.5" y="-141.5" font-family="Helvetica,sans-Serif" font-size="10.00" fill="#000000">/menubar.h</text>
</a>
</g>
</g>
<!-- Node2&#45;&gt;Node11 -->
<g id="edge19" class="edge">
<title>Node2&#45;&gt;Node11</title>
<path fill="none" stroke="#191970" d="M495.5,-258.3415C495.5,-230.8131 495.5,-187.5714 495.5,-164.7614"/>
<polygon fill="#191970" stroke="#191970" points="492.0001,-258.3889 495.5,-268.389 499.0001,-258.389 492.0001,-258.3889"/>
</g>
<!-- Node13 -->
<g id="node13" class="node">
<title>Node13</title>
<g id="a_node13"><a xlink:href="minimap_8h.html" target="_top" xlink:title=" ">
<polygon fill="#ffffff" stroke="#000000" points="610,-201.5 610,-231.5 725,-231.5 725,-201.5 610,-201.5"/>
<text text-anchor="start" x="618" y="-219.5" font-family="Helvetica,sans-Serif" font-size="10.00" fill="#000000">src/application_server</text>
<text text-anchor="middle" x="667.5" y="-208.5" font-family="Helvetica,sans-Serif" font-size="10.00" fill="#000000">/minimap.h</text>
</a>
</g>
</g>
<!-- Node2&#45;&gt;Node13 -->
<g id="edge21" class="edge">
<title>Node2&#45;&gt;Node13</title>
<path fill="none" stroke="#191970" d="M543.6922,-264.7275C570.5523,-254.2645 603.5559,-241.4084 628.7315,-231.6017"/>
<polygon fill="#191970" stroke="#191970" points="542.1478,-261.5728 534.1002,-268.4639 544.6886,-268.0954 542.1478,-261.5728"/>
</g>
<!-- Node17 -->
<g id="node17" class="node">
<title>Node17</title>
<g id="a_node17"><a xlink:href="scene_8cpp.html" target="_top" xlink:title=" ">
<polygon fill="#ffffff" stroke="#000000" points="743,-201.5 743,-231.5 858,-231.5 858,-201.5 743,-201.5"/>
<text text-anchor="start" x="751" y="-219.5" font-family="Helvetica,sans-Serif" font-size="10.00" fill="#000000">src/application_server</text>
<text text-anchor="middle" x="800.5" y="-208.5" font-family="Helvetica,sans-Serif" font-size="10.00" fill="#000000">/scene.cpp</text>
</a>
</g>
</g>
<!-- Node2&#45;&gt;Node17 -->
<g id="edge26" class="edge">
<title>Node2&#45;&gt;Node17</title>
<path fill="none" stroke="#191970" d="M563.4273,-267.8245C640.4658,-250.9867 661.3832,-248.2349 734.5,-232 737.2577,-231.3877 740.0783,-230.754 742.926,-230.1082"/>
<polygon fill="#191970" stroke="#191970" points="562.2428,-264.5011 553.2261,-270.0644 563.7441,-271.3382 562.2428,-264.5011"/>
</g>
<!-- Node4 -->
<g id="node4" class="node">
<title>Node4</title>
<g id="a_node4"><a xlink:href="client_8cpp.html" target="_top" xlink:title=" ">
<polygon fill="#ffffff" stroke="#000000" points="172,-67.5 172,-97.5 287,-97.5 287,-67.5 172,-67.5"/>
<text text-anchor="start" x="180" y="-85.5" font-family="Helvetica,sans-Serif" font-size="10.00" fill="#000000">src/application_server</text>
<text text-anchor="middle" x="229.5" y="-74.5" font-family="Helvetica,sans-Serif" font-size="10.00" fill="#000000">/client.cpp</text>
</a>
</g>
</g>
<!-- Node3&#45;&gt;Node4 -->
<g id="edge3" class="edge">
<title>Node3&#45;&gt;Node4</title>
<path fill="none" stroke="#191970" d="M323.6187,-129.9132C303.2357,-119.645 278.6428,-107.2561 259.7083,-97.7177"/>
<polygon fill="#191970" stroke="#191970" points="322.1467,-133.0906 332.6522,-134.4639 325.2961,-126.8391 322.1467,-133.0906"/>
</g>
<!-- Node3&#45;&gt;Node5 -->
<g id="edge4" class="edge">
<title>Node3&#45;&gt;Node5</title>
<path fill="none" stroke="#191970" d="M294.8244,-133.8652C227.4663,-118.8267 161.2296,-104.5687 115.2618,-94.7583"/>
<polygon fill="#191970" stroke="#191970" points="294.2455,-137.3221 304.7684,-136.0892 295.7734,-130.4909 294.2455,-137.3221"/>
</g>
<!-- Node8 -->
<g id="node8" class="node">
<title>Node8</title>
<g id="a_node8"><a xlink:href="main_8h.html" target="_top" xlink:title=" ">
<polygon fill="#ffffff" stroke="#000000" points="438,-67.5 438,-97.5 553,-97.5 553,-67.5 438,-67.5"/>
<text text-anchor="start" x="446" y="-85.5" font-family="Helvetica,sans-Serif" font-size="10.00" fill="#000000">src/application_server</text>
<text text-anchor="middle" x="495.5" y="-74.5" font-family="Helvetica,sans-Serif" font-size="10.00" fill="#000000">/main.h</text>
</a>
</g>
</g>
<!-- Node3&#45;&gt;Node8 -->
<g id="edge7" class="edge">
<title>Node3&#45;&gt;Node8</title>
<path fill="none" stroke="#191970" d="M401.3813,-129.9132C421.7643,-119.645 446.3572,-107.2561 465.2917,-97.7177"/>
<polygon fill="#191970" stroke="#191970" points="399.7039,-126.8391 392.3478,-134.4639 402.8533,-133.0906 399.7039,-126.8391"/>
</g>
<!-- Node9 -->
<g id="node9" class="node">
<title>Node9</title>
<g id="a_node9"><a xlink:href="menubar_8cpp.html" target="_top" xlink:title=" ">
<polygon fill="#ffffff" stroke="#000000" points="305,-67.5 305,-97.5 420,-97.5 420,-67.5 305,-67.5"/>
<text text-anchor="start" x="313" y="-85.5" font-family="Helvetica,sans-Serif" font-size="10.00" fill="#000000">src/application_server</text>
<text text-anchor="middle" x="362.5" y="-74.5" font-family="Helvetica,sans-Serif" font-size="10.00" fill="#000000">/menubar.cpp</text>
</a>
</g>
</g>
<!-- Node3&#45;&gt;Node9 -->
<g id="edge9" class="edge">
<title>Node3&#45;&gt;Node9</title>
<path fill="none" stroke="#191970" d="M362.5,-124.0249C362.5,-115.128 362.5,-105.4287 362.5,-97.6432"/>
<polygon fill="#191970" stroke="#191970" points="359.0001,-124.2966 362.5,-134.2967 366.0001,-124.2967 359.0001,-124.2966"/>
</g>
<!-- Node6 -->
<g id="node6" class="node">
<title>Node6</title>
<g id="a_node6"><a xlink:href="gameloop_8cpp.html" target="_top" xlink:title=" ">
<polygon fill="#ffffff" stroke="#000000" points="0,-.5 0,-30.5 115,-30.5 115,-.5 0,-.5"/>
<text text-anchor="start" x="8" y="-18.5" font-family="Helvetica,sans-Serif" font-size="10.00" fill="#000000">src/application_server</text>
<text text-anchor="middle" x="57.5" y="-7.5" font-family="Helvetica,sans-Serif" font-size="10.00" fill="#000000">/gameloop.cpp</text>
</a>
</g>
</g>
<!-- Node5&#45;&gt;Node6 -->
<g id="edge5" class="edge">
<title>Node5&#45;&gt;Node6</title>
<path fill="none" stroke="#191970" d="M57.5,-57.0249C57.5,-48.128 57.5,-38.4287 57.5,-30.6432"/>
<polygon fill="#191970" stroke="#191970" points="54.0001,-57.2966 57.5,-67.2967 61.0001,-57.2967 54.0001,-57.2966"/>
</g>
<!-- Node5&#45;&gt;Node7 -->
<g id="edge6" class="edge">
<title>Node5&#45;&gt;Node7</title>
<path fill="none" stroke="#191970" d="M125.0914,-67.7997C126.5734,-67.5257 128.0444,-67.2587 129.5,-67 238.007,-47.7124 365.658,-31.1244 437.9261,-22.2952"/>
<polygon fill="#191970" stroke="#191970" points="124.359,-64.3763 115.1963,-69.6956 125.6762,-71.2512 124.359,-64.3763"/>
</g>
<!-- Node8&#45;&gt;Node7 -->
<g id="edge8" class="edge">
<title>Node8&#45;&gt;Node7</title>
<path fill="none" stroke="#191970" d="M495.5,-57.0249C495.5,-48.128 495.5,-38.4287 495.5,-30.6432"/>
<polygon fill="#191970" stroke="#191970" points="492.0001,-57.2966 495.5,-67.2967 499.0001,-57.2967 492.0001,-57.2966"/>
</g>
<!-- Node10&#45;&gt;Node3 -->
<g id="edge11" class="edge">
<title>Node10&#45;&gt;Node3</title>
<path fill="none" stroke="#191970" d="M304.0145,-195.0643C316.7304,-185.1577 331.5316,-173.6265 343.0625,-164.6432"/>
<polygon fill="#191970" stroke="#191970" points="301.7523,-192.3899 296.0147,-201.2967 306.0544,-197.9119 301.7523,-192.3899"/>
</g>
<!-- Node10&#45;&gt;Node5 -->
<g id="edge12" class="edge">
<title>Node10&#45;&gt;Node5</title>
<path fill="none" stroke="#191970" d="M208.9858,-200.8202C182.7434,-192.7496 153.3273,-181.1309 129.5,-165 102.5808,-146.776 79.4989,-116.0881 67.1387,-97.7185"/>
<polygon fill="#191970" stroke="#191970" points="208.2878,-204.2635 218.8698,-203.7416 210.272,-197.5506 208.2878,-204.2635"/>
</g>
<!-- Node10&#45;&gt;Node7 -->
<g id="edge16" class="edge">
<title>Node10&#45;&gt;Node7</title>
<path fill="none" stroke="#191970" d="M209.1559,-200.7256C190.9309,-193.0455 173.2826,-181.7029 162.5,-165 138.8773,-128.4069 134.1527,-100.0684 162.5,-67 180.1566,-46.4028 347.0695,-28.6149 437.6629,-20.3798"/>
<polygon fill="#191970" stroke="#191970" points="208.1164,-204.0761 218.7057,-204.417 210.6402,-197.5469 208.1164,-204.0761"/>
</g>
<!-- Node10&#45;&gt;Node11 -->
<g id="edge13" class="edge">
<title>Node10&#45;&gt;Node11</title>
<path fill="none" stroke="#191970" d="M335.6224,-198.4123C370.213,-187.8298 413.3799,-174.6235 446.1378,-164.6017"/>
<polygon fill="#191970" stroke="#191970" points="334.1864,-195.1914 325.6479,-201.4639 336.2343,-201.8852 334.1864,-195.1914"/>
</g>
<!-- Node12 -->
<g id="node12" class="node">
<title>Node12</title>
<g id="a_node12"><a xlink:href="view_8cpp.html" target="_top" xlink:title=" ">
<polygon fill="#ffffff" stroke="#000000" points="172,-134.5 172,-164.5 287,-164.5 287,-134.5 172,-134.5"/>
<text text-anchor="start" x="180" y="-152.5" font-family="Helvetica,sans-Serif" font-size="10.00" fill="#000000">src/application_server</text>
<text text-anchor="middle" x="229.5" y="-141.5" font-family="Helvetica,sans-Serif" font-size="10.00" fill="#000000">/view.cpp</text>
</a>
</g>
</g>
<!-- Node10&#45;&gt;Node12 -->
<g id="edge17" class="edge">
<title>Node10&#45;&gt;Node12</title>
<path fill="none" stroke="#191970" d="M260.0588,-193.0626C253.443,-183.6315 246.0045,-173.0276 240.1228,-164.6432"/>
<polygon fill="#191970" stroke="#191970" points="257.2268,-195.1201 265.835,-201.2967 262.9574,-191.1001 257.2268,-195.1201"/>
</g>
<!-- Node11&#45;&gt;Node8 -->
<g id="edge14" class="edge">
<title>Node11&#45;&gt;Node8</title>
<path fill="none" stroke="#191970" d="M495.5,-124.0249C495.5,-115.128 495.5,-105.4287 495.5,-97.6432"/>
<polygon fill="#191970" stroke="#191970" points="492.0001,-124.2966 495.5,-134.2967 499.0001,-124.2967 492.0001,-124.2966"/>
</g>
<!-- Node11&#45;&gt;Node9 -->
<g id="edge15" class="edge">
<title>Node11&#45;&gt;Node9</title>
<path fill="none" stroke="#191970" d="M456.6187,-129.9132C436.2357,-119.645 411.6428,-107.2561 392.7083,-97.7177"/>
<polygon fill="#191970" stroke="#191970" points="455.1467,-133.0906 465.6522,-134.4639 458.2961,-126.8391 455.1467,-133.0906"/>
</g>
<!-- Node14 -->
<g id="node14" class="node">
<title>Node14</title>
<g id="a_node14"><a xlink:href="sidepanel_8h.html" target="_top" xlink:title=" ">
<polygon fill="#ffffff" stroke="#000000" points="743,-134.5 743,-164.5 858,-164.5 858,-134.5 743,-134.5"/>
<text text-anchor="start" x="751" y="-152.5" font-family="Helvetica,sans-Serif" font-size="10.00" fill="#000000">src/application_server</text>
<text text-anchor="middle" x="800.5" y="-141.5" font-family="Helvetica,sans-Serif" font-size="10.00" fill="#000000">/sidepanel.h</text>
</a>
</g>
</g>
<!-- Node13&#45;&gt;Node14 -->
<g id="edge22" class="edge">
<title>Node13&#45;&gt;Node14</title>
<path fill="none" stroke="#191970" d="M706.3813,-196.9132C726.7643,-186.645 751.3572,-174.2561 770.2917,-164.7177"/>
<polygon fill="#191970" stroke="#191970" points="704.7039,-193.8391 697.3478,-201.4639 707.8533,-200.0906 704.7039,-193.8391"/>
</g>
<!-- Node16 -->
<g id="node16" class="node">
<title>Node16</title>
<g id="a_node16"><a xlink:href="minimap_8cpp.html" target="_top" xlink:title=" ">
<polygon fill="#ffffff" stroke="#000000" points="610,-134.5 610,-164.5 725,-164.5 725,-134.5 610,-134.5"/>
<text text-anchor="start" x="618" y="-152.5" font-family="Helvetica,sans-Serif" font-size="10.00" fill="#000000">src/application_server</text>
<text text-anchor="middle" x="667.5" y="-141.5" font-family="Helvetica,sans-Serif" font-size="10.00" fill="#000000">/minimap.cpp</text>
</a>
</g>
</g>
<!-- Node13&#45;&gt;Node16 -->
<g id="edge25" class="edge">
<title>Node13&#45;&gt;Node16</title>
<path fill="none" stroke="#191970" d="M667.5,-191.0249C667.5,-182.128 667.5,-172.4287 667.5,-164.6432"/>
<polygon fill="#191970" stroke="#191970" points="664.0001,-191.2966 667.5,-201.2967 671.0001,-191.2967 664.0001,-191.2966"/>
</g>
<!-- Node14&#45;&gt;Node7 -->
<g id="edge23" class="edge">
<title>Node14&#45;&gt;Node7</title>
<path fill="none" stroke="#191970" d="M756.7077,-130.2601C695.4462,-103.3452 585.438,-55.0137 529.7688,-30.5558"/>
<polygon fill="#191970" stroke="#191970" points="755.5423,-133.5709 766.1055,-134.389 758.358,-127.1622 755.5423,-133.5709"/>
</g>
<!-- Node15 -->
<g id="node15" class="node">
<title>Node15</title>
<g id="a_node15"><a xlink:href="sidepanel_8cpp.html" target="_top" xlink:title=" ">
<polygon fill="#ffffff" stroke="#000000" points="743,-67.5 743,-97.5 858,-97.5 858,-67.5 743,-67.5"/>
<text text-anchor="start" x="751" y="-85.5" font-family="Helvetica,sans-Serif" font-size="10.00" fill="#000000">src/application_server</text>
<text text-anchor="middle" x="800.5" y="-74.5" font-family="Helvetica,sans-Serif" font-size="10.00" fill="#000000">/sidepanel.cpp</text>
</a>
</g>
</g>
<!-- Node14&#45;&gt;Node15 -->
<g id="edge24" class="edge">
<title>Node14&#45;&gt;Node15</title>
<path fill="none" stroke="#191970" d="M800.5,-124.0249C800.5,-115.128 800.5,-105.4287 800.5,-97.6432"/>
<polygon fill="#191970" stroke="#191970" points="797.0001,-124.2966 800.5,-134.2967 804.0001,-124.2967 797.0001,-124.2966"/>
</g>
</g>
</svg>
        <g id="navigator" transform="translate(0 0)" fill="#404254">
                <rect fill="#f2f5e9" fill-opacity="0.5" stroke="#606060" stroke-width=".5" x="0" y="0" width="60" height="60"/>
                <use id="zoomplus" xlink:href="#zoomPlus" x="17" y="9" onmousedown="handleZoom(evt,'in')"/>
                <use id="zoomminus" xlink:href="#zoomMin" x="42" y="9" onmousedown="handleZoom(evt,'out')"/>
                <use id="reset" xlink:href="#resetDef" x="30" y="36" onmousedown="handleReset()"/>
                <g id="arrowUp" xlink:href="#dirArrow" transform="translate(30 24)" onmousedown="handlePan(0,-1)">
                  <use xlink:href="#rim" fill="#404040">
                        <set attributeName="fill" to="#808080" begin="arrowUp.mouseover" end="arrowUp.mouseout"/>
                  </use>
                  <path fill="none" stroke="white" stroke-width="1.5" d="M0,-3.0v7 M-2.5,-0.5L0,-3.0L2.5,-0.5"/>
                </g>
                <g id="arrowRight" xlink:href="#dirArrow" transform="rotate(90) translate(36 -43)" onmousedown="handlePan(1,0)">
                  <use xlink:href="#rim" fill="#404040">
                        <set attributeName="fill" to="#808080" begin="arrowRight.mouseover" end="arrowRight.mouseout"/>
                  </use>
                  <path fill="none" stroke="white" stroke-width="1.5" d="M0,-3.0v7 M-2.5,-0.5L0,-3.0L2.5,-0.5"/>
                </g>
                <g id="arrowDown" xlink:href="#dirArrow" transform="rotate(180) translate(-30 -48)" onmousedown="handlePan(0,1)">
                  <use xlink:href="#rim" fill="#404040">
                        <set attributeName="fill" to="#808080" begin="arrowDown.mouseover" end="arrowDown.mouseout"/>
                  </use>
                  <path fill="none" stroke="white" stroke-width="1.5" d="M0,-3.0v7 M-2.5,-0.5L0,-3.0L2.5,-0.5"/>
                </g>
                <g id="arrowLeft" xlink:href="#dirArrow" transform="rotate(270) translate(-36 17)" onmousedown="handlePan(-1,0)">
                  <use xlink:href="#rim" fill="#404040">
                        <set attributeName="fill" to="#808080" begin="arrowLeft.mouseover" end="arrowLeft.mouseout"/>
                  </use>
                  <path fill="none" stroke="white" stroke-width="1.5" d="M0,-3.0v7 M-2.5,-0.5L0,-3.0L2.5,-0.5"/>
                </g>
        </g>
        <svg viewBox="0 0 15 15" width="100%" height="30px" preserveAspectRatio="xMaxYMin meet">
         <g id="arrow_out" transform="scale(0.3 0.3)">
          <a xlink:href="player_8h__dep__incl_org.svg" target="_base">
           <rect id="button" ry="5" rx="5" y="6" x="6" height="38" width="38"
                fill="#f2f5e9" fill-opacity="0.5" stroke="#606060" stroke-width="1.0"/>
           <path id="arrow"
             d="M 11.500037,31.436501 C 11.940474,20.09759 22.043105,11.32322 32.158766,21.979434 L 37.068811,17.246167 C 37.068811,17.246167 37.088388,32 37.088388,32 L 22.160133,31.978069 C 22.160133,31.978069 26.997745,27.140456 26.997745,27.140456 C 18.528582,18.264221 13.291696,25.230495 11.500037,31.436501 z"
             style="fill:#404040;"/>
          </a>
         </g>
        </svg>
</svg>
