<?xml version="1.0" encoding="UTF-8" standalone="no"?>
<!DOCTYPE svg PUBLIC "-//W3C//DTD SVG 1.1//EN"
 "http://www.w3.org/Graphics/SVG/1.1/DTD/svg11.dtd">
<!-- Generated by graphviz version 2.40.1 (20161225.0304)
 -->
<!-- Title: src/application_server/point.h Pages: 1 -->
<svg width="1101pt" height="575pt"
 viewBox="0.00 0.00 1101.00 575.00" xmlns="http://www.w3.org/2000/svg" xmlns:xlink="http://www.w3.org/1999/xlink">
<g id="graph0" class="graph" transform="scale(1 1) rotate(0) translate(4 571)">
<title>src/application_server/point.h</title>
<polygon fill="#ffffff" stroke="transparent" points="-4,4 -4,-571 1097,-571 1097,4 -4,4"/>
<!-- Node1 -->
<g id="node1" class="node">
<title>Node1</title>
<g id="a_node1"><a xlink:title=" ">
<polygon fill="#bfbfbf" stroke="#000000" points="523,-536.5 523,-566.5 638,-566.5 638,-536.5 523,-536.5"/>
<text text-anchor="start" x="531" y="-554.5" font-family="Helvetica,sans-Serif" font-size="10.00" fill="#000000">src/application_server</text>
<text text-anchor="middle" x="580.5" y="-543.5" font-family="Helvetica,sans-Serif" font-size="10.00" fill="#000000">/point.h</text>
</a>
</g>
</g>
<!-- Node2 -->
<g id="node2" class="node">
<title>Node2</title>
<g id="a_node2"><a xlink:href="animationentity_8h.html" target="_top" xlink:title=" ">
<polygon fill="#ffffff" stroke="#000000" points="437,-469.5 437,-499.5 552,-499.5 552,-469.5 437,-469.5"/>
<text text-anchor="start" x="445" y="-487.5" font-family="Helvetica,sans-Serif" font-size="10.00" fill="#000000">src/application_server</text>
<text text-anchor="middle" x="494.5" y="-476.5" font-family="Helvetica,sans-Serif" font-size="10.00" fill="#000000">/animationentity.h</text>
</a>
</g>
</g>
<!-- Node1&#45;&gt;Node2 -->
<g id="edge1" class="edge">
<title>Node1&#45;&gt;Node2</title>
<path fill="none" stroke="#191970" d="M552.9855,-530.0643C540.2696,-520.1577 525.4684,-508.6265 513.9375,-499.6432"/>
<polygon fill="#191970" stroke="#191970" points="550.9456,-532.9119 560.9853,-536.2967 555.2477,-527.3899 550.9456,-532.9119"/>
</g>
<!-- Node4 -->
<g id="node4" class="node">
<title>Node4</title>
<g id="a_node4"><a xlink:href="animationmovement_8h.html" target="_top" xlink:title=" ">
<polygon fill="#ffffff" stroke="#000000" points="497.5,-402.5 497.5,-432.5 615.5,-432.5 615.5,-402.5 497.5,-402.5"/>
<text text-anchor="start" x="505.5" y="-420.5" font-family="Helvetica,sans-Serif" font-size="10.00" fill="#000000">src/application_server</text>
<text text-anchor="middle" x="556.5" y="-409.5" font-family="Helvetica,sans-Serif" font-size="10.00" fill="#000000">/animationmovement.h</text>
</a>
</g>
</g>
<!-- Node1&#45;&gt;Node4 -->
<g id="edge34" class="edge">
<title>Node1&#45;&gt;Node4</title>
<path fill="none" stroke="#191970" d="M575.994,-526.3415C571.0635,-498.8131 563.3188,-455.5714 559.2334,-432.7614"/>
<polygon fill="#191970" stroke="#191970" points="572.5853,-527.1627 577.7935,-536.389 579.4757,-525.9285 572.5853,-527.1627"/>
</g>
<!-- Node6 -->
<g id="node6" class="node">
<title>Node6</title>
<g id="a_node6"><a xlink:href="maprenderer_8h.html" target="_top" xlink:title=" ">
<polygon fill="#ffffff" stroke="#000000" points="599,-335.5 599,-365.5 714,-365.5 714,-335.5 599,-335.5"/>
<text text-anchor="start" x="607" y="-353.5" font-family="Helvetica,sans-Serif" font-size="10.00" fill="#000000">src/application_server</text>
<text text-anchor="middle" x="656.5" y="-342.5" font-family="Helvetica,sans-Serif" font-size="10.00" fill="#000000">/maprenderer.h</text>
</a>
</g>
</g>
<!-- Node1&#45;&gt;Node6 -->
<g id="edge35" class="edge">
<title>Node1&#45;&gt;Node6</title>
<path fill="none" stroke="#191970" d="M589.8071,-526.8851C605.7492,-484.7224 637.8179,-399.9092 650.825,-365.5088"/>
<polygon fill="#191970" stroke="#191970" points="586.4753,-525.8008 586.2124,-536.3923 593.0229,-528.2765 586.4753,-525.8008"/>
</g>
<!-- Node17 -->
<g id="node17" class="node">
<title>Node17</title>
<g id="a_node17"><a xlink:href="minimap_8h.html" target="_top" xlink:title=" ">
<polygon fill="#ffffff" stroke="#000000" points="239,-268.5 239,-298.5 354,-298.5 354,-268.5 239,-268.5"/>
<text text-anchor="start" x="247" y="-286.5" font-family="Helvetica,sans-Serif" font-size="10.00" fill="#000000">src/application_server</text>
<text text-anchor="middle" x="296.5" y="-275.5" font-family="Helvetica,sans-Serif" font-size="10.00" fill="#000000">/minimap.h</text>
</a>
</g>
</g>
<!-- Node1&#45;&gt;Node17 -->
<g id="edge36" class="edge">
<title>Node1&#45;&gt;Node17</title>
<path fill="none" stroke="#191970" d="M513.2104,-535.46C485.5206,-527.2106 453.834,-515.5582 427.5,-500 389.5846,-477.5995 379.3351,-469.3672 354.5,-433 324.3558,-388.8585 306.8029,-326.8355 299.9105,-298.5829"/>
<polygon fill="#191970" stroke="#191970" points="512.2441,-538.8239 522.8226,-538.2368 514.1869,-532.0988 512.2441,-538.8239"/>
</g>
<!-- Node24 -->
<g id="node24" class="node">
<title>Node24</title>
<g id="a_node24"><a xlink:href="point_8cpp.html" target="_top" xlink:title=" ">
<polygon fill="#ffffff" stroke="#000000" points="672,-469.5 672,-499.5 787,-499.5 787,-469.5 672,-469.5"/>
<text text-anchor="start" x="680" y="-487.5" font-family="Helvetica,sans-Serif" font-size="10.00" fill="#000000">src/application_server</text>
<text text-anchor="middle" x="729.5" y="-476.5" font-family="Helvetica,sans-Serif" font-size="10.00" fill="#000000">/point.cpp</text>
</a>
</g>
</g>
<!-- Node1&#45;&gt;Node24 -->
<g id="edge37" class="edge">
<title>Node1&#45;&gt;Node24</title>
<path fill="none" stroke="#191970" d="M623.1691,-532.3132C646.2675,-521.9267 674.3936,-509.2794 695.9156,-499.6017"/>
<polygon fill="#191970" stroke="#191970" points="621.6235,-529.1706 613.9385,-536.4639 624.4943,-535.5549 621.6235,-529.1706"/>
</g>
<!-- Node3 -->
<g id="node3" class="node">
<title>Node3</title>
<g id="a_node3"><a xlink:href="animationentity_8cpp.html" target="_top" xlink:title=" ">
<polygon fill="#ffffff" stroke="#000000" points="364,-402.5 364,-432.5 479,-432.5 479,-402.5 364,-402.5"/>
<text text-anchor="start" x="372" y="-420.5" font-family="Helvetica,sans-Serif" font-size="10.00" fill="#000000">src/application_server</text>
<text text-anchor="middle" x="421.5" y="-409.5" font-family="Helvetica,sans-Serif" font-size="10.00" fill="#000000">/animationentity.cpp</text>
</a>
</g>
</g>
<!-- Node2&#45;&gt;Node3 -->
<g id="edge2" class="edge">
<title>Node2&#45;&gt;Node3</title>
<path fill="none" stroke="#191970" d="M470.526,-462.4965C459.8733,-452.7193 447.6007,-441.4554 437.9993,-432.6432"/>
<polygon fill="#191970" stroke="#191970" points="468.2011,-465.1134 477.9352,-469.2967 472.9344,-459.9562 468.2011,-465.1134"/>
</g>
<!-- Node2&#45;&gt;Node4 -->
<g id="edge3" class="edge">
<title>Node2&#45;&gt;Node4</title>
<path fill="none" stroke="#191970" d="M515.39,-461.9253C524.3129,-452.2828 534.4907,-441.2843 542.4869,-432.6432"/>
<polygon fill="#191970" stroke="#191970" points="512.7918,-459.5798 508.5688,-469.2967 517.9296,-464.3342 512.7918,-459.5798"/>
</g>
<!-- Node5 -->
<g id="node5" class="node">
<title>Node5</title>
<g id="a_node5"><a xlink:href="animationmovement_8cpp.html" target="_top" xlink:title=" ">
<polygon fill="#ffffff" stroke="#000000" points="452.5,-335.5 452.5,-365.5 580.5,-365.5 580.5,-335.5 452.5,-335.5"/>
<text text-anchor="start" x="460.5" y="-353.5" font-family="Helvetica,sans-Serif" font-size="10.00" fill="#000000">src/application_server</text>
<text text-anchor="middle" x="516.5" y="-342.5" font-family="Helvetica,sans-Serif" font-size="10.00" fill="#000000">/animationmovement.cpp</text>
</a>
</g>
</g>
<!-- Node4&#45;&gt;Node5 -->
<g id="edge4" class="edge">
<title>Node4&#45;&gt;Node5</title>
<path fill="none" stroke="#191970" d="M542.1619,-393.4837C536.6192,-384.1996 530.4442,-373.8565 525.5407,-365.6432"/>
<polygon fill="#191970" stroke="#191970" points="539.2921,-395.5046 547.4234,-402.2967 545.3024,-391.9163 539.2921,-395.5046"/>
</g>
<!-- Node4&#45;&gt;Node6 -->
<g id="edge5" class="edge">
<title>Node4&#45;&gt;Node6</title>
<path fill="none" stroke="#191970" d="M587.6513,-396.6286C602.6225,-386.5979 620.2349,-374.7976 633.8983,-365.6432"/>
<polygon fill="#191970" stroke="#191970" points="585.5511,-393.8228 579.1915,-402.2967 589.4474,-399.6382 585.5511,-393.8228"/>
</g>
<!-- Node7 -->
<g id="node7" class="node">
<title>Node7</title>
<g id="a_node7"><a xlink:href="client_8h.html" target="_top" xlink:title=" ">
<polygon fill="#ffffff" stroke="#000000" points="485,-268.5 485,-298.5 600,-298.5 600,-268.5 485,-268.5"/>
<text text-anchor="start" x="493" y="-286.5" font-family="Helvetica,sans-Serif" font-size="10.00" fill="#000000">src/application_server</text>
<text text-anchor="middle" x="542.5" y="-275.5" font-family="Helvetica,sans-Serif" font-size="10.00" fill="#000000">/client.h</text>
</a>
</g>
</g>
<!-- Node6&#45;&gt;Node7 -->
<g id="edge6" class="edge">
<title>Node6&#45;&gt;Node7</title>
<path fill="none" stroke="#191970" d="M622.2253,-330.3561C604.9439,-320.1995 584.33,-308.0843 568.3929,-298.7177"/>
<polygon fill="#191970" stroke="#191970" points="620.5214,-333.4144 630.9162,-335.4639 624.0683,-327.3795 620.5214,-333.4144"/>
</g>
<!-- Node10 -->
<g id="node10" class="node">
<title>Node10</title>
<g id="a_node10"><a xlink:href="main_8cpp.html" target="_top" xlink:title=" ">
<polygon fill="#ffffff" stroke="#000000" points="688,-.5 688,-30.5 803,-30.5 803,-.5 688,-.5"/>
<text text-anchor="start" x="696" y="-18.5" font-family="Helvetica,sans-Serif" font-size="10.00" fill="#000000">src/application_server</text>
<text text-anchor="middle" x="745.5" y="-7.5" font-family="Helvetica,sans-Serif" font-size="10.00" fill="#000000">/main.cpp</text>
</a>
</g>
</g>
<!-- Node6&#45;&gt;Node10 -->
<g id="edge29" class="edge">
<title>Node6&#45;&gt;Node10</title>
<path fill="none" stroke="#191970" d="M690.4108,-329.8286C735.0296,-300.0708 810.0748,-240.3579 829.5,-165 840.4824,-122.395 839.2887,-104.0121 815.5,-67 805.6294,-51.6427 789.4514,-39.2976 775.1335,-30.548"/>
<polygon fill="#191970" stroke="#191970" points="688.3759,-326.9772 681.9182,-335.3765 692.2043,-332.8376 688.3759,-326.9772"/>
</g>
<!-- Node12 -->
<g id="node12" class="node">
<title>Node12</title>
<g id="a_node12"><a xlink:href="menubar_8h.html" target="_top" xlink:title=" ">
<polygon fill="#ffffff" stroke="#000000" points="344,-134.5 344,-164.5 459,-164.5 459,-134.5 344,-134.5"/>
<text text-anchor="start" x="352" y="-152.5" font-family="Helvetica,sans-Serif" font-size="10.00" fill="#000000">src/application_server</text>
<text text-anchor="middle" x="401.5" y="-141.5" font-family="Helvetica,sans-Serif" font-size="10.00" fill="#000000">/menubar.h</text>
</a>
</g>
</g>
<!-- Node6&#45;&gt;Node12 -->
<g id="edge21" class="edge">
<title>Node6&#45;&gt;Node12</title>
<path fill="none" stroke="#191970" d="M588.7685,-334.0502C541.2316,-322.0299 484.584,-306.5615 475.5,-299 432.0965,-262.8709 411.8796,-195.04 404.7093,-164.7657"/>
<polygon fill="#191970" stroke="#191970" points="588.2022,-337.5166 598.7537,-336.5587 589.9079,-330.7276 588.2022,-337.5166"/>
</g>
<!-- Node15 -->
<g id="node15" class="node">
<title>Node15</title>
<g id="a_node15"><a xlink:href="gameloop_8h.html" target="_top" xlink:title=" ">
<polygon fill="#ffffff" stroke="#000000" points="668,-201.5 668,-231.5 783,-231.5 783,-201.5 668,-201.5"/>
<text text-anchor="start" x="676" y="-219.5" font-family="Helvetica,sans-Serif" font-size="10.00" fill="#000000">src/application_server</text>
<text text-anchor="middle" x="725.5" y="-208.5" font-family="Helvetica,sans-Serif" font-size="10.00" fill="#000000">/gameloop.h</text>
</a>
</g>
</g>
<!-- Node6&#45;&gt;Node15 -->
<g id="edge28" class="edge">
<title>Node6&#45;&gt;Node15</title>
<path fill="none" stroke="#191970" d="M668.8946,-326.4294C683.0368,-298.9647 705.7402,-254.8742 717.6415,-231.7614"/>
<polygon fill="#191970" stroke="#191970" points="665.7474,-324.8961 664.2811,-335.389 671.9708,-328.1007 665.7474,-324.8961"/>
</g>
<!-- Node6&#45;&gt;Node17 -->
<g id="edge22" class="edge">
<title>Node6&#45;&gt;Node17</title>
<path fill="none" stroke="#191970" d="M588.958,-334.9504C501.3439,-317.2983 411.29,-302.0299 354.2131,-292.7103"/>
<polygon fill="#191970" stroke="#191970" points="588.303,-338.3888 598.7991,-336.9455 589.6939,-331.5283 588.303,-338.3888"/>
</g>
<!-- Node21 -->
<g id="node21" class="node">
<title>Node21</title>
<g id="a_node21"><a xlink:href="renderthread_8h.html" target="_top" xlink:title=" ">
<polygon fill="#ffffff" stroke="#000000" points="978,-268.5 978,-298.5 1093,-298.5 1093,-268.5 978,-268.5"/>
<text text-anchor="start" x="986" y="-286.5" font-family="Helvetica,sans-Serif" font-size="10.00" fill="#000000">src/application_server</text>
<text text-anchor="middle" x="1035.5" y="-275.5" font-family="Helvetica,sans-Serif" font-size="10.00" fill="#000000">/renderthread.h</text>
</a>
</g>
</g>
<!-- Node6&#45;&gt;Node21 -->
<g id="edge30" class="edge">
<title>Node6&#45;&gt;Node21</title>
<path fill="none" stroke="#191970" d="M724.0114,-340.7403C787.5639,-331.2343 885.2979,-315.7946 969.5,-299 972.2703,-298.4475 975.1012,-297.8623 977.957,-297.2555"/>
<polygon fill="#191970" stroke="#191970" points="723.4879,-337.2795 714.1125,-342.2143 724.5189,-344.2032 723.4879,-337.2795"/>
</g>
<!-- Node23 -->
<g id="node23" class="node">
<title>Node23</title>
<g id="a_node23"><a xlink:href="maprenderer_8cpp.html" target="_top" xlink:title=" ">
<polygon fill="#ffffff" stroke="#000000" points="845,-268.5 845,-298.5 960,-298.5 960,-268.5 845,-268.5"/>
<text text-anchor="start" x="853" y="-286.5" font-family="Helvetica,sans-Serif" font-size="10.00" fill="#000000">src/application_server</text>
<text text-anchor="middle" x="902.5" y="-275.5" font-family="Helvetica,sans-Serif" font-size="10.00" fill="#000000">/maprenderer.cpp</text>
</a>
</g>
</g>
<!-- Node6&#45;&gt;Node23 -->
<g id="edge33" class="edge">
<title>Node6&#45;&gt;Node23</title>
<path fill="none" stroke="#191970" d="M721.4155,-332.8198C760.516,-322.1704 809.7817,-308.7525 847.052,-298.6017"/>
<polygon fill="#191970" stroke="#191970" points="720.436,-329.459 711.7072,-335.4639 722.2755,-336.213 720.436,-329.459"/>
</g>
<!-- Node8 -->
<g id="node8" class="node">
<title>Node8</title>
<g id="a_node8"><a xlink:href="client_8cpp.html" target="_top" xlink:title=" ">
<polygon fill="#ffffff" stroke="#000000" points="215,-.5 215,-30.5 330,-30.5 330,-.5 215,-.5"/>
<text text-anchor="start" x="223" y="-18.5" font-family="Helvetica,sans-Serif" font-size="10.00" fill="#000000">src/application_server</text>
<text text-anchor="middle" x="272.5" y="-7.5" font-family="Helvetica,sans-Serif" font-size="10.00" fill="#000000">/client.cpp</text>
</a>
</g>
</g>
<!-- Node7&#45;&gt;Node8 -->
<g id="edge7" class="edge">
<title>Node7&#45;&gt;Node8</title>
<path fill="none" stroke="#191970" d="M474.8082,-272.3147C375.7989,-254.403 199.2318,-216.0432 162.5,-165 137.0591,-129.6468 139.1259,-103.7524 162.5,-67 174.3254,-48.4063 194.8257,-36.4112 214.9483,-28.7258"/>
<polygon fill="#191970" stroke="#191970" points="474.266,-275.7732 484.7259,-274.0875 475.4978,-268.8824 474.266,-275.7732"/>
</g>
<!-- Node9 -->
<g id="node9" class="node">
<title>Node9</title>
<g id="a_node9"><a xlink:href="main_8h.html" target="_top" xlink:title=" ">
<polygon fill="#ffffff" stroke="#000000" points="344,-67.5 344,-97.5 459,-97.5 459,-67.5 344,-67.5"/>
<text text-anchor="start" x="352" y="-85.5" font-family="Helvetica,sans-Serif" font-size="10.00" fill="#000000">src/application_server</text>
<text text-anchor="middle" x="401.5" y="-74.5" font-family="Helvetica,sans-Serif" font-size="10.00" fill="#000000">/main.h</text>
</a>
</g>
</g>
<!-- Node7&#45;&gt;Node9 -->
<g id="edge8" class="edge">
<title>Node7&#45;&gt;Node9</title>
<path fill="none" stroke="#191970" d="M475.5454,-265.1475C426.9491,-247.9304 364.6506,-216.8774 334.5,-165 327.5768,-153.0879 328.4114,-146.3595 334.5,-134 342.2152,-118.3386 357.235,-106.1093 371.1014,-97.5054"/>
<polygon fill="#191970" stroke="#191970" points="474.4738,-268.4801 485.0684,-268.4086 476.7416,-261.8576 474.4738,-268.4801"/>
</g>
<!-- Node11 -->
<g id="node11" class="node">
<title>Node11</title>
<g id="a_node11"><a xlink:href="routeinterface_8h.html" target="_top" xlink:title=" ">
<polygon fill="#ffffff" stroke="#000000" points="516,-201.5 516,-231.5 631,-231.5 631,-201.5 516,-201.5"/>
<text text-anchor="start" x="524" y="-219.5" font-family="Helvetica,sans-Serif" font-size="10.00" fill="#000000">src/application_server</text>
<text text-anchor="middle" x="573.5" y="-208.5" font-family="Helvetica,sans-Serif" font-size="10.00" fill="#000000">/routeinterface.h</text>
</a>
</g>
</g>
<!-- Node7&#45;&gt;Node11 -->
<g id="edge11" class="edge">
<title>Node7&#45;&gt;Node11</title>
<path fill="none" stroke="#191970" d="M553.7464,-259.1932C558.0072,-249.9844 562.7328,-239.771 566.4935,-231.6432"/>
<polygon fill="#191970" stroke="#191970" points="550.5571,-257.7513 549.5344,-268.2967 556.9101,-260.6908 550.5571,-257.7513"/>
</g>
<!-- Node13 -->
<g id="node13" class="node">
<title>Node13</title>
<g id="a_node13"><a xlink:href="menubar_8cpp.html" target="_top" xlink:title=" ">
<polygon fill="#ffffff" stroke="#000000" points="477,-67.5 477,-97.5 592,-97.5 592,-67.5 477,-67.5"/>
<text text-anchor="start" x="485" y="-85.5" font-family="Helvetica,sans-Serif" font-size="10.00" fill="#000000">src/application_server</text>
<text text-anchor="middle" x="534.5" y="-74.5" font-family="Helvetica,sans-Serif" font-size="10.00" fill="#000000">/menubar.cpp</text>
</a>
</g>
</g>
<!-- Node7&#45;&gt;Node13 -->
<g id="edge20" class="edge">
<title>Node7&#45;&gt;Node13</title>
<path fill="none" stroke="#191970" d="M521.6685,-260.126C515.5531,-251.8268 509.6611,-242.0395 506.5,-232 493.419,-190.4552 495.7667,-176.2124 506.5,-134 509.8104,-120.9806 517.1513,-107.6952 523.4861,-97.8796"/>
<polygon fill="#191970" stroke="#191970" points="519.0792,-262.4951 528.0171,-268.184 524.5777,-258.163 519.0792,-262.4951"/>
</g>
<!-- Node7&#45;&gt;Node15 -->
<g id="edge17" class="edge">
<title>Node7&#45;&gt;Node15</title>
<path fill="none" stroke="#191970" d="M593.0237,-265.0023C621.7355,-254.4903 657.2315,-241.4945 684.2521,-231.6017"/>
<polygon fill="#191970" stroke="#191970" points="591.7559,-261.7392 583.5688,-268.4639 594.1625,-268.3125 591.7559,-261.7392"/>
</g>
<!-- Node9&#45;&gt;Node8 -->
<g id="edge9" class="edge">
<title>Node9&#45;&gt;Node8</title>
<path fill="none" stroke="#191970" d="M363.5207,-62.7743C343.8033,-52.5335 320.0821,-40.2132 301.7998,-30.7177"/>
<polygon fill="#191970" stroke="#191970" points="362.0622,-65.9607 372.5499,-67.4639 365.2887,-59.7486 362.0622,-65.9607"/>
</g>
<!-- Node9&#45;&gt;Node10 -->
<g id="edge10" class="edge">
<title>Node9&#45;&gt;Node10</title>
<path fill="none" stroke="#191970" d="M468.9561,-66.7422C550.2349,-49.835 633.7074,-34.7998 687.8408,-25.3581"/>
<polygon fill="#191970" stroke="#191970" points="468.1284,-63.3395 459.057,-68.8131 469.5618,-70.1911 468.1284,-63.3395"/>
</g>
<!-- Node11&#45;&gt;Node10 -->
<g id="edge15" class="edge">
<title>Node11&#45;&gt;Node10</title>
<path fill="none" stroke="#191970" d="M604.4273,-195.305C616.0589,-186.6029 628.9986,-175.9944 639.5,-165 681.6945,-120.825 720.2222,-58.8187 736.849,-30.5766"/>
<polygon fill="#191970" stroke="#191970" points="602.2536,-192.5585 596.2423,-201.2829 606.3822,-198.2113 602.2536,-192.5585"/>
</g>
<!-- Node11&#45;&gt;Node12 -->
<g id="edge12" class="edge">
<title>Node11&#45;&gt;Node12</title>
<path fill="none" stroke="#191970" d="M525.3078,-197.7275C498.4477,-187.2645 465.4441,-174.4084 440.2685,-164.6017"/>
<polygon fill="#191970" stroke="#191970" points="524.3114,-201.0954 534.8998,-201.4639 526.8522,-194.5728 524.3114,-201.0954"/>
</g>
<!-- Node14 -->
<g id="node14" class="node">
<title>Node14</title>
<g id="a_node14"><a xlink:href="routeinterface_8cpp.html" target="_top" xlink:title=" ">
<polygon fill="#ffffff" stroke="#000000" points="516,-134.5 516,-164.5 631,-164.5 631,-134.5 516,-134.5"/>
<text text-anchor="start" x="524" y="-152.5" font-family="Helvetica,sans-Serif" font-size="10.00" fill="#000000">src/application_server</text>
<text text-anchor="middle" x="573.5" y="-141.5" font-family="Helvetica,sans-Serif" font-size="10.00" fill="#000000">/routeinterface.cpp</text>
</a>
</g>
</g>
<!-- Node11&#45;&gt;Node14 -->
<g id="edge16" class="edge">
<title>Node11&#45;&gt;Node14</title>
<path fill="none" stroke="#191970" d="M573.5,-191.0249C573.5,-182.128 573.5,-172.4287 573.5,-164.6432"/>
<polygon fill="#191970" stroke="#191970" points="570.0001,-191.2966 573.5,-201.2967 577.0001,-191.2967 570.0001,-191.2966"/>
</g>
<!-- Node12&#45;&gt;Node9 -->
<g id="edge13" class="edge">
<title>Node12&#45;&gt;Node9</title>
<path fill="none" stroke="#191970" d="M401.5,-124.0249C401.5,-115.128 401.5,-105.4287 401.5,-97.6432"/>
<polygon fill="#191970" stroke="#191970" points="398.0001,-124.2966 401.5,-134.2967 405.0001,-124.2967 398.0001,-124.2966"/>
</g>
<!-- Node12&#45;&gt;Node13 -->
<g id="edge14" class="edge">
<title>Node12&#45;&gt;Node13</title>
<path fill="none" stroke="#191970" d="M440.3813,-129.9132C460.7643,-119.645 485.3572,-107.2561 504.2917,-97.7177"/>
<polygon fill="#191970" stroke="#191970" points="438.7039,-126.8391 431.3478,-134.4639 441.8533,-133.0906 438.7039,-126.8391"/>
</g>
<!-- Node15&#45;&gt;Node10 -->
<g id="edge19" class="edge">
<title>Node15&#45;&gt;Node10</title>
<path fill="none" stroke="#191970" d="M778.1997,-196.7788C791.7706,-189.0265 804.727,-178.634 812.5,-165 839.265,-118.0535 789.3943,-58.4423 761.9007,-30.8257"/>
<polygon fill="#191970" stroke="#191970" points="776.4566,-193.7411 769.2413,-201.4993 779.7199,-199.9339 776.4566,-193.7411"/>
</g>
<!-- Node16 -->
<g id="node16" class="node">
<title>Node16</title>
<g id="a_node16"><a xlink:href="gameloop_8cpp.html" target="_top" xlink:title=" ">
<polygon fill="#ffffff" stroke="#000000" points="688,-134.5 688,-164.5 803,-164.5 803,-134.5 688,-134.5"/>
<text text-anchor="start" x="696" y="-152.5" font-family="Helvetica,sans-Serif" font-size="10.00" fill="#000000">src/application_server</text>
<text text-anchor="middle" x="745.5" y="-141.5" font-family="Helvetica,sans-Serif" font-size="10.00" fill="#000000">/gameloop.cpp</text>
</a>
</g>
</g>
<!-- Node15&#45;&gt;Node16 -->
<g id="edge18" class="edge">
<title>Node15&#45;&gt;Node16</title>
<path fill="none" stroke="#191970" d="M732.9298,-191.6103C735.6328,-182.5553 738.6045,-172.5998 740.9797,-164.6432"/>
<polygon fill="#191970" stroke="#191970" points="729.545,-190.7133 730.0383,-201.2967 736.2525,-192.7156 729.545,-190.7133"/>
</g>
<!-- Node18 -->
<g id="node18" class="node">
<title>Node18</title>
<g id="a_node18"><a xlink:href="sidepanel_8h.html" target="_top" xlink:title=" ">
<polygon fill="#ffffff" stroke="#000000" points="172,-134.5 172,-164.5 287,-164.5 287,-134.5 172,-134.5"/>
<text text-anchor="start" x="180" y="-152.5" font-family="Helvetica,sans-Serif" font-size="10.00" fill="#000000">src/application_server</text>
<text text-anchor="middle" x="229.5" y="-141.5" font-family="Helvetica,sans-Serif" font-size="10.00" fill="#000000">/sidepanel.h</text>
</a>
</g>
</g>
<!-- Node17&#45;&gt;Node18 -->
<g id="edge23" class="edge">
<title>Node17&#45;&gt;Node18</title>
<path fill="none" stroke="#191970" d="M284.4647,-259.4294C270.7324,-231.9647 248.6871,-187.8742 237.1307,-164.7614"/>
<polygon fill="#191970" stroke="#191970" points="281.3418,-261.01 288.9445,-268.389 287.6028,-257.8794 281.3418,-261.01"/>
</g>
<!-- Node20 -->
<g id="node20" class="node">
<title>Node20</title>
<g id="a_node20"><a xlink:href="minimap_8cpp.html" target="_top" xlink:title=" ">
<polygon fill="#ffffff" stroke="#000000" points="0,-201.5 0,-231.5 115,-231.5 115,-201.5 0,-201.5"/>
<text text-anchor="start" x="8" y="-219.5" font-family="Helvetica,sans-Serif" font-size="10.00" fill="#000000">src/application_server</text>
<text text-anchor="middle" x="57.5" y="-208.5" font-family="Helvetica,sans-Serif" font-size="10.00" fill="#000000">/minimap.cpp</text>
</a>
</g>
</g>
<!-- Node17&#45;&gt;Node20 -->
<g id="edge27" class="edge">
<title>Node17&#45;&gt;Node20</title>
<path fill="none" stroke="#191970" d="M232.9482,-265.6842C195.0383,-255.0568 147.4265,-241.7095 111.3702,-231.6017"/>
<polygon fill="#191970" stroke="#191970" points="232.2902,-269.1346 242.8637,-268.4639 234.1797,-262.3945 232.2902,-269.1346"/>
</g>
<!-- Node18&#45;&gt;Node9 -->
<g id="edge24" class="edge">
<title>Node18&#45;&gt;Node9</title>
<path fill="none" stroke="#191970" d="M277.6922,-130.7275C304.5523,-120.2645 337.5559,-107.4084 362.7315,-97.6017"/>
<polygon fill="#191970" stroke="#191970" points="276.1478,-127.5728 268.1002,-134.4639 278.6886,-134.0954 276.1478,-127.5728"/>
</g>
<!-- Node18&#45;&gt;Node10 -->
<g id="edge25" class="edge">
<title>Node18&#45;&gt;Node10</title>
<path fill="none" stroke="#191970" d="M257.0815,-128.067C268.9268,-118.8392 282.9125,-107.9134 295.5,-98 312.8951,-84.3003 314.0897,-75.5844 334.5,-67 396.9762,-40.7231 590.282,-25.2208 687.8771,-18.8726"/>
<polygon fill="#191970" stroke="#191970" points="254.6261,-125.5428 248.8851,-134.4474 258.926,-131.0665 254.6261,-125.5428"/>
</g>
<!-- Node19 -->
<g id="node19" class="node">
<title>Node19</title>
<g id="a_node19"><a xlink:href="sidepanel_8cpp.html" target="_top" xlink:title=" ">
<polygon fill="#ffffff" stroke="#000000" points="172,-67.5 172,-97.5 287,-97.5 287,-67.5 172,-67.5"/>
<text text-anchor="start" x="180" y="-85.5" font-family="Helvetica,sans-Serif" font-size="10.00" fill="#000000">src/application_server</text>
<text text-anchor="middle" x="229.5" y="-74.5" font-family="Helvetica,sans-Serif" font-size="10.00" fill="#000000">/sidepanel.cpp</text>
</a>
</g>
</g>
<!-- Node18&#45;&gt;Node19 -->
<g id="edge26" class="edge">
<title>Node18&#45;&gt;Node19</title>
<path fill="none" stroke="#191970" d="M229.5,-124.0249C229.5,-115.128 229.5,-105.4287 229.5,-97.6432"/>
<polygon fill="#191970" stroke="#191970" points="226.0001,-124.2966 229.5,-134.2967 233.0001,-124.2967 226.0001,-124.2966"/>
</g>
<!-- Node21&#45;&gt;Node10 -->
<g id="edge31" class="edge">
<title>Node21&#45;&gt;Node10</title>
<path fill="none" stroke="#191970" d="M1033.3037,-258.0204C1030.9816,-241.0173 1026.2239,-218.6312 1016.5,-201 975.9766,-127.5232 954.0009,-112.504 883.5,-67 858.6841,-50.9829 828.17,-38.9356 802.1508,-30.5363"/>
<polygon fill="#191970" stroke="#191970" points="1029.8692,-258.786 1034.5056,-268.3125 1036.8219,-257.974 1029.8692,-258.786"/>
</g>
<!-- Node22 -->
<g id="node22" class="node">
<title>Node22</title>
<g id="a_node22"><a xlink:href="renderthread_8cpp.html" target="_top" xlink:title=" ">
<polygon fill="#ffffff" stroke="#000000" points="892,-201.5 892,-231.5 1007,-231.5 1007,-201.5 892,-201.5"/>
<text text-anchor="start" x="900" y="-219.5" font-family="Helvetica,sans-Serif" font-size="10.00" fill="#000000">src/application_server</text>
<text text-anchor="middle" x="949.5" y="-208.5" font-family="Helvetica,sans-Serif" font-size="10.00" fill="#000000">/renderthread.cpp</text>
</a>
</g>
</g>
<!-- Node21&#45;&gt;Node22 -->
<g id="edge32" class="edge">
<title>Node21&#45;&gt;Node22</title>
<path fill="none" stroke="#191970" d="M1007.9855,-262.0643C995.2696,-252.1577 980.4684,-240.6265 968.9375,-231.6432"/>
<polygon fill="#191970" stroke="#191970" points="1005.9456,-264.9119 1015.9853,-268.2967 1010.2477,-259.3899 1005.9456,-264.9119"/>
</g>
</g>
</svg>
