<?xml version="1.0" encoding="UTF-8" standalone="no"?>
<!DOCTYPE svg PUBLIC "-//W3C//DTD SVG 1.1//EN"
 "http://www.w3.org/Graphics/SVG/1.1/DTD/svg11.dtd">
<!-- Generated by graphviz version 2.40.1 (20161225.0304)
 -->
<!-- Title: src/application_server/renderthread.cpp Pages: 1 -->
<svg width="1387pt" height="375pt"
 viewBox="0.00 0.00 1386.78 375.00" xmlns="http://www.w3.org/2000/svg" xmlns:xlink="http://www.w3.org/1999/xlink">
<g id="graph0" class="graph" transform="scale(1 1) rotate(0) translate(4 371)">
<title>src/application_server/renderthread.cpp</title>
<polygon fill="#ffffff" stroke="transparent" points="-4,4 -4,-371 1382.7825,-371 1382.7825,4 -4,4"/>
<!-- Node1 -->
<g id="node1" class="node">
<title>Node1</title>
<g id="a_node1"><a xlink:title=" ">
<polygon fill="#bfbfbf" stroke="#000000" points="372.5,-336.5 372.5,-366.5 487.5,-366.5 487.5,-336.5 372.5,-336.5"/>
<text text-anchor="start" x="380.5" y="-354.5" font-family="Helvetica,sans-Serif" font-size="10.00" fill="#000000">src/application_server</text>
<text text-anchor="middle" x="430" y="-343.5" font-family="Helvetica,sans-Serif" font-size="10.00" fill="#000000">/renderthread.cpp</text>
</a>
</g>
</g>
<!-- Node2 -->
<g id="node2" class="node">
<title>Node2</title>
<g id="a_node2"><a xlink:href="renderthread_8h.html" target="_top" xlink:title=" ">
<polygon fill="#ffffff" stroke="#000000" points="346,-280.5 346,-299.5 428,-299.5 428,-280.5 346,-280.5"/>
<text text-anchor="middle" x="387" y="-287.5" font-family="Helvetica,sans-Serif" font-size="10.00" fill="#000000">renderthread.h</text>
</a>
</g>
</g>
<!-- Node1&#45;&gt;Node2 -->
<g id="edge1" class="edge">
<title>Node1&#45;&gt;Node2</title>
<path fill="none" stroke="#191970" d="M419.3708,-336.2977C413.4019,-327.7609 405.9162,-317.0545 399.6471,-308.0883"/>
<polygon fill="#191970" stroke="#191970" points="402.4835,-306.0368 393.8848,-299.8469 396.7466,-310.048 402.4835,-306.0368"/>
</g>
<!-- Node33 -->
<g id="node33" class="node">
<title>Node33</title>
<g id="a_node33"><a xlink:title=" ">
<polygon fill="#ffffff" stroke="#bfbfbf" points="446,-280.5 446,-299.5 500,-299.5 500,-280.5 446,-280.5"/>
<text text-anchor="middle" x="473" y="-287.5" font-family="Helvetica,sans-Serif" font-size="10.00" fill="#000000">QDebug</text>
</a>
</g>
</g>
<!-- Node1&#45;&gt;Node33 -->
<g id="edge49" class="edge">
<title>Node1&#45;&gt;Node33</title>
<path fill="none" stroke="#191970" d="M440.6292,-336.2977C446.5981,-327.7609 454.0838,-317.0545 460.3529,-308.0883"/>
<polygon fill="#191970" stroke="#191970" points="463.2534,-310.048 466.1152,-299.8469 457.5165,-306.0368 463.2534,-310.048"/>
</g>
<!-- Node3 -->
<g id="node3" class="node">
<title>Node3</title>
<g id="a_node3"><a xlink:title=" ">
<polygon fill="#ffffff" stroke="#bfbfbf" points="0,-168.5 0,-187.5 58,-187.5 58,-168.5 0,-168.5"/>
<text text-anchor="middle" x="29" y="-175.5" font-family="Helvetica,sans-Serif" font-size="10.00" fill="#000000">QThread</text>
</a>
</g>
</g>
<!-- Node2&#45;&gt;Node3 -->
<g id="edge2" class="edge">
<title>Node2&#45;&gt;Node3</title>
<path fill="none" stroke="#191970" d="M356.4771,-280.4509C291.5562,-260.1405 139.8521,-212.68 68.0267,-190.2095"/>
<polygon fill="#191970" stroke="#191970" points="69.0282,-186.8556 58.4392,-187.21 66.9381,-193.5362 69.0282,-186.8556"/>
</g>
<!-- Node4 -->
<g id="node4" class="node">
<title>Node4</title>
<g id="a_node4"><a xlink:href="maprenderer_8h.html" target="_top" xlink:title=" ">
<polygon fill="#ffffff" stroke="#000000" points="645,-224.5 645,-243.5 727,-243.5 727,-224.5 645,-224.5"/>
<text text-anchor="middle" x="686" y="-231.5" font-family="Helvetica,sans-Serif" font-size="10.00" fill="#000000">maprenderer.h</text>
</a>
</g>
</g>
<!-- Node2&#45;&gt;Node4 -->
<g id="edge3" class="edge">
<title>Node2&#45;&gt;Node4</title>
<path fill="none" stroke="#191970" d="M428.1913,-281.7118C431.1713,-281.1275 434.1313,-280.5518 437,-280 505.4557,-266.832 584.6448,-252.3272 635.0037,-243.1944"/>
<polygon fill="#191970" stroke="#191970" points="635.7725,-246.6121 644.9884,-241.3855 634.5246,-239.7243 635.7725,-246.6121"/>
</g>
<!-- Node4&#45;&gt;Node3 -->
<g id="edge6" class="edge">
<title>Node4&#45;&gt;Node3</title>
<path fill="none" stroke="#191970" d="M644.7964,-233.0969C545.6204,-230.4494 285.9804,-220.6985 72,-188 70.7215,-187.8046 69.4246,-187.5916 68.1175,-187.364"/>
<polygon fill="#191970" stroke="#191970" points="68.5131,-183.875 58.0268,-185.3879 67.1678,-190.7446 68.5131,-183.875"/>
</g>
<!-- Node5 -->
<g id="node5" class="node">
<title>Node5</title>
<g id="a_node5"><a xlink:title=" ">
<polygon fill="#ffffff" stroke="#bfbfbf" points="263,-56.5 263,-75.5 319,-75.5 319,-56.5 263,-56.5"/>
<text text-anchor="middle" x="291" y="-63.5" font-family="Helvetica,sans-Serif" font-size="10.00" fill="#000000">QWidget</text>
</a>
</g>
</g>
<!-- Node4&#45;&gt;Node5 -->
<g id="edge4" class="edge">
<title>Node4&#45;&gt;Node5</title>
<path fill="none" stroke="#191970" d="M644.9716,-231.9115C571.6396,-227.6055 413.5349,-215.7171 283,-188 201.8748,-170.7743 154.0606,-198.8661 105,-132 46.445,-52.1937 13.0285,-136.7553 253,-76 253.0992,-75.9749 253.1985,-75.9497 253.298,-75.9245"/>
<polygon fill="#191970" stroke="#191970" points="253.9787,-79.3634 262.7935,-73.4855 252.2371,-72.5835 253.9787,-79.3634"/>
</g>
<!-- Node6 -->
<g id="node6" class="node">
<title>Node6</title>
<g id="a_node6"><a xlink:title=" ">
<polygon fill="#ffffff" stroke="#bfbfbf" points="1325.5,-112.5 1325.5,-131.5 1364.5,-131.5 1364.5,-112.5 1325.5,-112.5"/>
<text text-anchor="middle" x="1345" y="-119.5" font-family="Helvetica,sans-Serif" font-size="10.00" fill="#000000">QList</text>
</a>
</g>
</g>
<!-- Node4&#45;&gt;Node6 -->
<g id="edge5" class="edge">
<title>Node4&#45;&gt;Node6</title>
<path fill="none" stroke="#191970" d="M727.0291,-232.454C834.7051,-228.0752 1123.3675,-214.1768 1215,-188 1254.8837,-176.6063 1296.9761,-152.7545 1322.1062,-137.0632"/>
<polygon fill="#191970" stroke="#191970" points="1323.999,-140.0073 1330.5616,-131.6897 1320.2444,-134.0994 1323.999,-140.0073"/>
</g>
<!-- Node7 -->
<g id="node7" class="node">
<title>Node7</title>
<g id="a_node7"><a xlink:title=" ">
<polygon fill="#ffffff" stroke="#bfbfbf" points="584.5,-112.5 584.5,-131.5 667.5,-131.5 667.5,-112.5 584.5,-112.5"/>
<text text-anchor="middle" x="626" y="-119.5" font-family="Helvetica,sans-Serif" font-size="10.00" fill="#000000">QVideoWidget</text>
</a>
</g>
</g>
<!-- Node4&#45;&gt;Node7 -->
<g id="edge7" class="edge">
<title>Node4&#45;&gt;Node7</title>
<path fill="none" stroke="#191970" d="M680.8844,-224.4509C670.9214,-205.8533 648.7635,-164.4919 635.8552,-140.3964"/>
<polygon fill="#191970" stroke="#191970" points="638.9101,-138.6869 631.1026,-131.5249 632.7397,-141.9925 638.9101,-138.6869"/>
</g>
<!-- Node8 -->
<g id="node8" class="node">
<title>Node8</title>
<g id="a_node8"><a xlink:title=" ">
<polygon fill="#ffffff" stroke="#bfbfbf" points="114,-112.5 114,-131.5 196,-131.5 196,-112.5 114,-112.5"/>
<text text-anchor="middle" x="155" y="-119.5" font-family="Helvetica,sans-Serif" font-size="10.00" fill="#000000">QMediaPlayer</text>
</a>
</g>
</g>
<!-- Node4&#45;&gt;Node8 -->
<g id="edge8" class="edge">
<title>Node4&#45;&gt;Node8</title>
<path fill="none" stroke="#191970" d="M644.8011,-230.7713C581.4485,-225.2559 456.5747,-212.1978 353,-188 294.0504,-174.2278 227.7137,-150.3215 188.739,-135.3742"/>
<polygon fill="#191970" stroke="#191970" points="189.56,-131.9391 178.9708,-131.5953 187.0344,-138.4676 189.56,-131.9391"/>
</g>
<!-- Node9 -->
<g id="node9" class="node">
<title>Node9</title>
<g id="a_node9"><a xlink:title=" ">
<polygon fill="#ffffff" stroke="#bfbfbf" points="362.5,-168.5 362.5,-187.5 447.5,-187.5 447.5,-168.5 362.5,-168.5"/>
<text text-anchor="middle" x="405" y="-175.5" font-family="Helvetica,sans-Serif" font-size="10.00" fill="#000000">QMediaPlaylist</text>
</a>
</g>
</g>
<!-- Node4&#45;&gt;Node9 -->
<g id="edge9" class="edge">
<title>Node4&#45;&gt;Node9</title>
<path fill="none" stroke="#191970" d="M644.8393,-225.7971C595.2878,-215.9221 511.9853,-199.3209 457.7583,-188.5141"/>
<polygon fill="#191970" stroke="#191970" points="458.144,-185.0222 447.6528,-186.5002 456.7759,-191.8872 458.144,-185.0222"/>
</g>
<!-- Node10 -->
<g id="node10" class="node">
<title>Node10</title>
<g id="a_node10"><a xlink:href="graphicsmanager_8h.html" target="_top" xlink:title=" ">
<polygon fill="#ffffff" stroke="#000000" points="754.5,-112.5 754.5,-131.5 857.5,-131.5 857.5,-112.5 754.5,-112.5"/>
<text text-anchor="middle" x="806" y="-119.5" font-family="Helvetica,sans-Serif" font-size="10.00" fill="#000000">graphicsmanager.h</text>
</a>
</g>
</g>
<!-- Node4&#45;&gt;Node10 -->
<g id="edge10" class="edge">
<title>Node4&#45;&gt;Node10</title>
<path fill="none" stroke="#191970" d="M696.2311,-224.4509C716.6885,-205.3574 762.8538,-162.2697 788.3146,-138.5063"/>
<polygon fill="#191970" stroke="#191970" points="790.8723,-140.9068 795.7948,-131.5249 786.0961,-135.7894 790.8723,-140.9068"/>
</g>
<!-- Node14 -->
<g id="node14" class="node">
<title>Node14</title>
<g id="a_node14"><a xlink:href="datamodel_8h.html" target="_top" xlink:title=" ">
<polygon fill="#ffffff" stroke="#000000" points="465.5,-168.5 465.5,-187.5 538.5,-187.5 538.5,-168.5 465.5,-168.5"/>
<text text-anchor="middle" x="502" y="-175.5" font-family="Helvetica,sans-Serif" font-size="10.00" fill="#000000">datamodel.h</text>
</a>
</g>
</g>
<!-- Node4&#45;&gt;Node14 -->
<g id="edge14" class="edge">
<title>Node4&#45;&gt;Node14</title>
<path fill="none" stroke="#191970" d="M654.3693,-224.3733C623.6404,-215.021 576.824,-200.7725 543.1978,-190.5385"/>
<polygon fill="#191970" stroke="#191970" points="543.8038,-187.0644 533.218,-187.5011 541.7656,-193.7612 543.8038,-187.0644"/>
</g>
<!-- Node24 -->
<g id="node24" class="node">
<title>Node24</title>
<g id="a_node24"><a xlink:href="point_8h.html" target="_top" xlink:title=" ">
<polygon fill="#ffffff" stroke="#000000" points="928.5,-56.5 928.5,-75.5 973.5,-75.5 973.5,-56.5 928.5,-56.5"/>
<text text-anchor="middle" x="951" y="-63.5" font-family="Helvetica,sans-Serif" font-size="10.00" fill="#000000">point.h</text>
</a>
</g>
</g>
<!-- Node4&#45;&gt;Node24 -->
<g id="edge35" class="edge">
<title>Node4&#45;&gt;Node24</title>
<path fill="none" stroke="#191970" d="M727.138,-227.8425C777.0686,-219.7833 857.7301,-204.7048 883,-188 919.4297,-163.918 938.2566,-113.3412 946.2185,-85.4654"/>
<polygon fill="#191970" stroke="#191970" points="949.6332,-86.244 948.8306,-75.6796 942.87,-84.4387 949.6332,-86.244"/>
</g>
<!-- Node25 -->
<g id="node25" class="node">
<title>Node25</title>
<g id="a_node25"><a xlink:href="maptile_8h.html" target="_top" xlink:title=" ">
<polygon fill="#ffffff" stroke="#000000" points="818,-168.5 818,-187.5 874,-187.5 874,-168.5 818,-168.5"/>
<text text-anchor="middle" x="846" y="-175.5" font-family="Helvetica,sans-Serif" font-size="10.00" fill="#000000">maptile.h</text>
</a>
</g>
</g>
<!-- Node4&#45;&gt;Node25 -->
<g id="edge30" class="edge">
<title>Node4&#45;&gt;Node25</title>
<path fill="none" stroke="#191970" d="M713.505,-224.3733C739.8802,-215.1419 779.8851,-201.1402 809.0358,-190.9375"/>
<polygon fill="#191970" stroke="#191970" points="810.5716,-194.1082 818.8539,-187.5011 808.2591,-187.5012 810.5716,-194.1082"/>
</g>
<!-- Node28 -->
<g id="node28" class="node">
<title>Node28</title>
<g id="a_node28"><a xlink:href="animationmovement_8h.html" target="_top" xlink:title=" ">
<polygon fill="#ffffff" stroke="#000000" points="991.5,-168.5 991.5,-187.5 1106.5,-187.5 1106.5,-168.5 991.5,-168.5"/>
<text text-anchor="middle" x="1049" y="-175.5" font-family="Helvetica,sans-Serif" font-size="10.00" fill="#000000">animationmovement.h</text>
</a>
</g>
</g>
<!-- Node4&#45;&gt;Node28 -->
<g id="edge36" class="edge">
<title>Node4&#45;&gt;Node28</title>
<path fill="none" stroke="#191970" d="M727.2873,-227.6306C789.1379,-218.0889 906.5321,-199.9785 981.1146,-188.4727"/>
<polygon fill="#191970" stroke="#191970" points="981.9947,-191.8784 991.3441,-186.8946 980.9274,-184.9602 981.9947,-191.8784"/>
</g>
<!-- Node31 -->
<g id="node31" class="node">
<title>Node31</title>
<g id="a_node31"><a xlink:href="sprite_8h.html" target="_top" xlink:title=" ">
<polygon fill="#ffffff" stroke="#000000" points="1321,-168.5 1321,-187.5 1369,-187.5 1369,-168.5 1321,-168.5"/>
<text text-anchor="middle" x="1345" y="-175.5" font-family="Helvetica,sans-Serif" font-size="10.00" fill="#000000">sprite.h</text>
</a>
</g>
</g>
<!-- Node4&#45;&gt;Node31 -->
<g id="edge45" class="edge">
<title>Node4&#45;&gt;Node31</title>
<path fill="none" stroke="#191970" d="M727.3459,-231.449C822.7533,-225.4057 1065.6259,-209.1253 1268,-188 1281.9647,-186.5423 1297.3123,-184.6154 1310.6058,-182.8424"/>
<polygon fill="#191970" stroke="#191970" points="1311.3219,-186.2774 1320.7609,-181.4654 1310.3812,-179.3409 1311.3219,-186.2774"/>
</g>
<!-- Node32 -->
<g id="node32" class="node">
<title>Node32</title>
<g id="a_node32"><a xlink:href="mousedecor_8h.html" target="_top" xlink:title=" ">
<polygon fill="#ffffff" stroke="#000000" points="1124.5,-168.5 1124.5,-187.5 1205.5,-187.5 1205.5,-168.5 1124.5,-168.5"/>
<text text-anchor="middle" x="1165" y="-175.5" font-family="Helvetica,sans-Serif" font-size="10.00" fill="#000000">mousedecor.h</text>
</a>
</g>
</g>
<!-- Node4&#45;&gt;Node32 -->
<g id="edge48" class="edge">
<title>Node4&#45;&gt;Node32</title>
<path fill="none" stroke="#191970" d="M727.0778,-230.9097C802.0674,-224.9857 966.3289,-210.7067 1114.2428,-188.1591"/>
<polygon fill="#191970" stroke="#191970" points="1115.0614,-191.5744 1124.4115,-186.5918 1113.995,-184.6561 1115.0614,-191.5744"/>
</g>
<!-- Node11 -->
<g id="node11" class="node">
<title>Node11</title>
<g id="a_node11"><a xlink:title=" ">
<polygon fill="#ffffff" stroke="#bfbfbf" points="777,-56.5 777,-75.5 835,-75.5 835,-56.5 777,-56.5"/>
<text text-anchor="middle" x="806" y="-63.5" font-family="Helvetica,sans-Serif" font-size="10.00" fill="#000000">QPixmap</text>
</a>
</g>
</g>
<!-- Node10&#45;&gt;Node11 -->
<g id="edge11" class="edge">
<title>Node10&#45;&gt;Node11</title>
<path fill="none" stroke="#191970" d="M806,-112.2455C806,-104.9382 806,-94.6944 806,-85.7046"/>
<polygon fill="#191970" stroke="#191970" points="809.5001,-85.6426 806,-75.6427 802.5001,-85.6427 809.5001,-85.6426"/>
</g>
<!-- Node12 -->
<g id="node12" class="node">
<title>Node12</title>
<g id="a_node12"><a xlink:title=" ">
<polygon fill="#ffffff" stroke="#bfbfbf" points="1164.5,-56.5 1164.5,-75.5 1217.5,-75.5 1217.5,-56.5 1164.5,-56.5"/>
<text text-anchor="middle" x="1191" y="-63.5" font-family="Helvetica,sans-Serif" font-size="10.00" fill="#000000">QImage</text>
</a>
</g>
</g>
<!-- Node10&#45;&gt;Node12 -->
<g id="edge12" class="edge">
<title>Node10&#45;&gt;Node12</title>
<path fill="none" stroke="#191970" d="M857.5723,-113.4657C860.7614,-112.9627 863.9236,-112.4705 867,-112 970.841,-96.1189 1093.6991,-79.182 1153.9342,-70.999"/>
<polygon fill="#191970" stroke="#191970" points="1154.6502,-74.434 1164.0891,-69.6218 1153.7094,-67.4975 1154.6502,-74.434"/>
</g>
<!-- Node13 -->
<g id="node13" class="node">
<title>Node13</title>
<g id="a_node13"><a xlink:title=" ">
<polygon fill="#ffffff" stroke="#bfbfbf" points="865.5,-56.5 865.5,-75.5 906.5,-75.5 906.5,-56.5 865.5,-56.5"/>
<text text-anchor="middle" x="886" y="-63.5" font-family="Helvetica,sans-Serif" font-size="10.00" fill="#000000">string</text>
</a>
</g>
</g>
<!-- Node10&#45;&gt;Node13 -->
<g id="edge13" class="edge">
<title>Node10&#45;&gt;Node13</title>
<path fill="none" stroke="#191970" d="M819.9349,-112.2455C832.0947,-103.7337 849.9464,-91.2375 864.0285,-81.3801"/>
<polygon fill="#191970" stroke="#191970" points="866.0395,-84.2447 872.2248,-75.6427 862.0253,-78.51 866.0395,-84.2447"/>
</g>
<!-- Node14&#45;&gt;Node5 -->
<g id="edge16" class="edge">
<title>Node14&#45;&gt;Node5</title>
<path fill="none" stroke="#191970" d="M465.4597,-169.2865C437.8339,-161.7874 399.5736,-149.4088 369,-132 345.5883,-118.6692 322.5023,-97.9264 307.5955,-83.258"/>
<polygon fill="#191970" stroke="#191970" points="309.7363,-80.4468 300.2053,-75.8195 304.7704,-85.3804 309.7363,-80.4468"/>
</g>
<!-- Node14&#45;&gt;Node7 -->
<g id="edge19" class="edge">
<title>Node14&#45;&gt;Node7</title>
<path fill="none" stroke="#191970" d="M523.3164,-168.3733C543.2216,-159.3838 573.1436,-145.8706 595.56,-135.7471"/>
<polygon fill="#191970" stroke="#191970" points="597.2887,-138.8068 604.9618,-131.5011 594.4075,-132.4272 597.2887,-138.8068"/>
</g>
<!-- Node14&#45;&gt;Node8 -->
<g id="edge18" class="edge">
<title>Node14&#45;&gt;Node8</title>
<path fill="none" stroke="#191970" d="M465.3871,-169.8031C462.2176,-169.1656 459.0556,-168.555 456,-168 347.2812,-148.2518 319.0407,-149.8859 210,-132 208.734,-131.7923 207.4521,-131.5795 206.1594,-131.3625"/>
<polygon fill="#191970" stroke="#191970" points="206.567,-127.8813 196.1186,-129.6362 205.3809,-134.7801 206.567,-127.8813"/>
</g>
<!-- Node15 -->
<g id="node15" class="node">
<title>Node15</title>
<g id="a_node15"><a xlink:title=" ">
<polygon fill="#ffffff" stroke="#bfbfbf" points="195.5,-56.5 195.5,-75.5 244.5,-75.5 244.5,-56.5 195.5,-56.5"/>
<text text-anchor="middle" x="220" y="-63.5" font-family="Helvetica,sans-Serif" font-size="10.00" fill="#000000">QLabel</text>
</a>
</g>
</g>
<!-- Node14&#45;&gt;Node15 -->
<g id="edge15" class="edge">
<title>Node14&#45;&gt;Node15</title>
<path fill="none" stroke="#191970" d="M465.3734,-169.8765C462.2068,-169.2231 459.0493,-168.5888 456,-168 361.7321,-149.7974 316.3421,-193.9574 243,-132 229.5565,-120.6433 223.9633,-100.9714 221.6403,-86.0509"/>
<polygon fill="#191970" stroke="#191970" points="225.0764,-85.3031 220.4255,-75.7836 218.1248,-86.1256 225.0764,-85.3031"/>
</g>
<!-- Node16 -->
<g id="node16" class="node">
<title>Node16</title>
<g id="a_node16"><a xlink:title=" ">
<polygon fill="#ffffff" stroke="#bfbfbf" points="686,-112.5 686,-131.5 736,-131.5 736,-112.5 686,-112.5"/>
<text text-anchor="middle" x="711" y="-119.5" font-family="Helvetica,sans-Serif" font-size="10.00" fill="#000000">QString</text>
</a>
</g>
</g>
<!-- Node14&#45;&gt;Node16 -->
<g id="edge17" class="edge">
<title>Node14&#45;&gt;Node16</title>
<path fill="none" stroke="#191970" d="M538.6173,-168.7044C572.0032,-160.156 622.9287,-146.9347 675.8678,-132.2638"/>
<polygon fill="#191970" stroke="#191970" points="677.0763,-135.5606 685.7724,-129.5083 675.2001,-128.8167 677.0763,-135.5606"/>
</g>
<!-- Node17 -->
<g id="node17" class="node">
<title>Node17</title>
<g id="a_node17"><a xlink:href="mainwindow_8h.html" target="_top" xlink:title=" ">
<polygon fill="#ffffff" stroke="#000000" points="378,-112.5 378,-131.5 458,-131.5 458,-112.5 378,-112.5"/>
<text text-anchor="middle" x="418" y="-119.5" font-family="Helvetica,sans-Serif" font-size="10.00" fill="#000000">mainwindow.h</text>
</a>
</g>
</g>
<!-- Node14&#45;&gt;Node17 -->
<g id="edge20" class="edge">
<title>Node14&#45;&gt;Node17</title>
<path fill="none" stroke="#191970" d="M487.3683,-168.2455C474.6006,-159.7337 455.8562,-147.2375 441.0701,-137.3801"/>
<polygon fill="#191970" stroke="#191970" points="442.726,-134.2775 432.464,-131.6427 438.8431,-140.1019 442.726,-134.2775"/>
</g>
<!-- Node20 -->
<g id="node20" class="node">
<title>Node20</title>
<g id="a_node20"><a xlink:href="player_8h.html" target="_top" xlink:title=" ">
<polygon fill="#ffffff" stroke="#000000" points="476,-112.5 476,-131.5 528,-131.5 528,-112.5 476,-112.5"/>
<text text-anchor="middle" x="502" y="-119.5" font-family="Helvetica,sans-Serif" font-size="10.00" fill="#000000">player.h</text>
</a>
</g>
</g>
<!-- Node14&#45;&gt;Node20 -->
<g id="edge23" class="edge">
<title>Node14&#45;&gt;Node20</title>
<path fill="none" stroke="#191970" d="M502,-168.2455C502,-160.9382 502,-150.6944 502,-141.7046"/>
<polygon fill="#191970" stroke="#191970" points="505.5001,-141.6426 502,-131.6427 498.5001,-141.6427 505.5001,-141.6426"/>
</g>
<!-- Node23 -->
<g id="node23" class="node">
<title>Node23</title>
<g id="a_node23"><a xlink:href="infowidget_8h.html" target="_top" xlink:title=" ">
<polygon fill="#ffffff" stroke="#000000" points="252,-112.5 252,-131.5 322,-131.5 322,-112.5 252,-112.5"/>
<text text-anchor="middle" x="287" y="-119.5" font-family="Helvetica,sans-Serif" font-size="10.00" fill="#000000">infowidget.h</text>
</a>
</g>
</g>
<!-- Node14&#45;&gt;Node23 -->
<g id="edge26" class="edge">
<title>Node14&#45;&gt;Node23</title>
<path fill="none" stroke="#191970" d="M465.0402,-168.3733C428.1507,-158.7648 371.4194,-143.9883 331.9455,-133.7067"/>
<polygon fill="#191970" stroke="#191970" points="332.6132,-130.2639 322.0538,-131.1303 330.8487,-137.0379 332.6132,-130.2639"/>
</g>
<!-- Node14&#45;&gt;Node24 -->
<g id="edge29" class="edge">
<title>Node14&#45;&gt;Node24</title>
<path fill="none" stroke="#191970" d="M509.3951,-168.3182C521.4804,-153.3104 547.0381,-124.8262 576,-112 714.9404,-50.4684 766.8334,-104.9809 916,-76 916.7444,-75.8554 917.496,-75.7023 918.2523,-75.542"/>
<polygon fill="#191970" stroke="#191970" points="919.2759,-78.8952 928.1686,-73.1358 917.6252,-72.0926 919.2759,-78.8952"/>
</g>
<!-- Node18 -->
<g id="node18" class="node">
<title>Node18</title>
<g id="a_node18"><a xlink:title=" ">
<polygon fill="#ffffff" stroke="#bfbfbf" points="337.5,-56.5 337.5,-75.5 420.5,-75.5 420.5,-56.5 337.5,-56.5"/>
<text text-anchor="middle" x="379" y="-63.5" font-family="Helvetica,sans-Serif" font-size="10.00" fill="#000000">QMainWindow</text>
</a>
</g>
</g>
<!-- Node17&#45;&gt;Node18 -->
<g id="edge21" class="edge">
<title>Node17&#45;&gt;Node18</title>
<path fill="none" stroke="#191970" d="M411.2067,-112.2455C405.7822,-104.4564 398.0339,-93.3308 391.4967,-83.9439"/>
<polygon fill="#191970" stroke="#191970" points="394.3025,-81.8485 385.7154,-75.6427 388.5583,-85.849 394.3025,-81.8485"/>
</g>
<!-- Node19 -->
<g id="node19" class="node">
<title>Node19</title>
<g id="a_node19"><a xlink:title=" ">
<polygon fill="#ffffff" stroke="#bfbfbf" points="438.5,-56.5 438.5,-75.5 505.5,-75.5 505.5,-56.5 438.5,-56.5"/>
<text text-anchor="middle" x="472" y="-63.5" font-family="Helvetica,sans-Serif" font-size="10.00" fill="#000000">QKeyEvent</text>
</a>
</g>
</g>
<!-- Node17&#45;&gt;Node19 -->
<g id="edge22" class="edge">
<title>Node17&#45;&gt;Node19</title>
<path fill="none" stroke="#191970" d="M427.4061,-112.2455C435.1493,-104.2155 446.312,-92.6394 455.5318,-83.0781"/>
<polygon fill="#191970" stroke="#191970" points="458.2798,-85.2706 462.7017,-75.6427 453.2409,-80.4117 458.2798,-85.2706"/>
</g>
<!-- Node21 -->
<g id="node21" class="node">
<title>Node21</title>
<g id="a_node21"><a xlink:href="highlighter_8h.html" target="_top" xlink:title=" ">
<polygon fill="#ffffff" stroke="#000000" points="524,-56.5 524,-75.5 594,-75.5 594,-56.5 524,-56.5"/>
<text text-anchor="middle" x="559" y="-63.5" font-family="Helvetica,sans-Serif" font-size="10.00" fill="#000000">highlighter.h</text>
</a>
</g>
</g>
<!-- Node20&#45;&gt;Node21 -->
<g id="edge24" class="edge">
<title>Node20&#45;&gt;Node21</title>
<path fill="none" stroke="#191970" d="M511.9286,-112.2455C520.1838,-104.1352 532.1209,-92.4075 541.9082,-82.7919"/>
<polygon fill="#191970" stroke="#191970" points="544.5046,-85.1476 549.1851,-75.6427 539.5989,-80.1542 544.5046,-85.1476"/>
</g>
<!-- Node22 -->
<g id="node22" class="node">
<title>Node22</title>
<g id="a_node22"><a xlink:title=" ">
<polygon fill="#ffffff" stroke="#bfbfbf" points="507,-.5 507,-19.5 611,-19.5 611,-.5 507,-.5"/>
<text text-anchor="middle" x="559" y="-7.5" font-family="Helvetica,sans-Serif" font-size="10.00" fill="#000000">QGraphicsRectItem</text>
</a>
</g>
</g>
<!-- Node21&#45;&gt;Node22 -->
<g id="edge25" class="edge">
<title>Node21&#45;&gt;Node22</title>
<path fill="none" stroke="#191970" d="M559,-56.2455C559,-48.9382 559,-38.6944 559,-29.7046"/>
<polygon fill="#191970" stroke="#191970" points="562.5001,-29.6426 559,-19.6427 555.5001,-29.6427 562.5001,-29.6426"/>
</g>
<!-- Node23&#45;&gt;Node5 -->
<g id="edge28" class="edge">
<title>Node23&#45;&gt;Node5</title>
<path fill="none" stroke="#191970" d="M287.6967,-112.2455C288.2187,-104.9382 288.9504,-94.6944 289.5925,-85.7046"/>
<polygon fill="#191970" stroke="#191970" points="293.0898,-85.8667 290.3112,-75.6427 286.1076,-85.3679 293.0898,-85.8667"/>
</g>
<!-- Node23&#45;&gt;Node15 -->
<g id="edge27" class="edge">
<title>Node23&#45;&gt;Node15</title>
<path fill="none" stroke="#191970" d="M275.3295,-112.2455C265.4339,-103.9746 251.0373,-91.9416 239.4099,-82.2232"/>
<polygon fill="#191970" stroke="#191970" points="241.4542,-79.3703 231.5368,-75.6427 236.965,-84.7413 241.4542,-79.3703"/>
</g>
<!-- Node25&#45;&gt;Node10 -->
<g id="edge34" class="edge">
<title>Node25&#45;&gt;Node10</title>
<path fill="none" stroke="#191970" d="M839.0325,-168.2455C833.4689,-160.4564 825.522,-149.3308 818.8171,-139.9439"/>
<polygon fill="#191970" stroke="#191970" points="821.5481,-137.7457 812.8876,-131.6427 815.852,-141.8144 821.5481,-137.7457"/>
</g>
<!-- Node26 -->
<g id="node26" class="node">
<title>Node26</title>
<g id="a_node26"><a xlink:title=" ">
<polygon fill="#ffffff" stroke="#bfbfbf" points="971.5,-112.5 971.5,-131.5 1088.5,-131.5 1088.5,-112.5 971.5,-112.5"/>
<text text-anchor="middle" x="1030" y="-119.5" font-family="Helvetica,sans-Serif" font-size="10.00" fill="#000000">QGraphicsPixmapItem</text>
</a>
</g>
</g>
<!-- Node25&#45;&gt;Node26 -->
<g id="edge31" class="edge">
<title>Node25&#45;&gt;Node26</title>
<path fill="none" stroke="#191970" d="M874.3468,-169.3727C904.8997,-160.074 953.8235,-145.1841 988.6626,-134.581"/>
<polygon fill="#191970" stroke="#191970" points="989.9891,-137.8358 998.5367,-131.5758 987.9509,-131.1391 989.9891,-137.8358"/>
</g>
<!-- Node27 -->
<g id="node27" class="node">
<title>Node27</title>
<g id="a_node27"><a xlink:href="city_8h.html" target="_top" xlink:title=" ">
<polygon fill="#ffffff" stroke="#000000" points="875.5,-112.5 875.5,-131.5 914.5,-131.5 914.5,-112.5 875.5,-112.5"/>
<text text-anchor="middle" x="895" y="-119.5" font-family="Helvetica,sans-Serif" font-size="10.00" fill="#000000">city.h</text>
</a>
</g>
</g>
<!-- Node25&#45;&gt;Node27 -->
<g id="edge32" class="edge">
<title>Node25&#45;&gt;Node27</title>
<path fill="none" stroke="#191970" d="M854.5351,-168.2455C861.4912,-160.2958 871.4883,-148.8706 879.8051,-139.3656"/>
<polygon fill="#191970" stroke="#191970" points="882.6116,-141.4732 886.5627,-131.6427 877.3436,-136.8637 882.6116,-141.4732"/>
</g>
<!-- Node27&#45;&gt;Node13 -->
<g id="edge33" class="edge">
<title>Node27&#45;&gt;Node13</title>
<path fill="none" stroke="#191970" d="M893.4323,-112.2455C892.2579,-104.9382 890.6116,-94.6944 889.1668,-85.7046"/>
<polygon fill="#191970" stroke="#191970" points="892.5922,-84.9606 887.5497,-75.6427 885.6809,-86.0714 892.5922,-84.9606"/>
</g>
<!-- Node28&#45;&gt;Node6 -->
<g id="edge41" class="edge">
<title>Node28&#45;&gt;Node6</title>
<path fill="none" stroke="#191970" d="M1106.5664,-169.3155C1168.7644,-159.7351 1264.8437,-144.3174 1315.46,-132.0251"/>
<polygon fill="#191970" stroke="#191970" points="1316.4214,-135.3921 1325.2481,-129.532 1314.6935,-128.6086 1316.4214,-135.3921"/>
</g>
<!-- Node28&#45;&gt;Node16 -->
<g id="edge42" class="edge">
<title>Node28&#45;&gt;Node16</title>
<path fill="none" stroke="#191970" d="M991.3583,-171.4725C930.1027,-164.0189 830.6101,-150.4309 746,-132 745.8997,-131.9781 745.7992,-131.9562 745.6986,-131.9341"/>
<polygon fill="#191970" stroke="#191970" points="746.6827,-128.5716 736.1376,-129.5974 745.0207,-135.3715 746.6827,-128.5716"/>
</g>
<!-- Node28&#45;&gt;Node24 -->
<g id="edge37" class="edge">
<title>Node28&#45;&gt;Node24</title>
<path fill="none" stroke="#191970" d="M1065.0541,-168.4031C1084.4611,-155.5768 1112.7893,-132.1244 1098,-112 1084.3719,-93.4557 1022.6192,-79.0537 983.6145,-71.6066"/>
<polygon fill="#191970" stroke="#191970" points="984.2239,-68.1601 973.7535,-69.7788 982.9481,-75.0428 984.2239,-68.1601"/>
</g>
<!-- Node28&#45;&gt;Node26 -->
<g id="edge44" class="edge">
<title>Node28&#45;&gt;Node26</title>
<path fill="none" stroke="#191970" d="M1045.6905,-168.2455C1043.1567,-160.7776 1039.5823,-150.2427 1036.485,-141.1137"/>
<polygon fill="#191970" stroke="#191970" points="1039.7991,-139.9879 1033.2716,-131.6427 1033.1702,-142.237 1039.7991,-139.9879"/>
</g>
<!-- Node29 -->
<g id="node29" class="node">
<title>Node29</title>
<g id="a_node29"><a xlink:href="animationentity_8h.html" target="_top" xlink:title=" ">
<polygon fill="#ffffff" stroke="#000000" points="1145.5,-112.5 1145.5,-131.5 1236.5,-131.5 1236.5,-112.5 1145.5,-112.5"/>
<text text-anchor="middle" x="1191" y="-119.5" font-family="Helvetica,sans-Serif" font-size="10.00" fill="#000000">animationentity.h</text>
</a>
</g>
</g>
<!-- Node28&#45;&gt;Node29 -->
<g id="edge38" class="edge">
<title>Node28&#45;&gt;Node29</title>
<path fill="none" stroke="#191970" d="M1073.4107,-168.3733C1096.6142,-159.2226 1131.7038,-145.3844 1157.5142,-135.2057"/>
<polygon fill="#191970" stroke="#191970" points="1158.8892,-138.4258 1166.9079,-131.5011 1156.3211,-131.9139 1158.8892,-138.4258"/>
</g>
<!-- Node30 -->
<g id="node30" class="node">
<title>Node30</title>
<g id="a_node30"><a xlink:title=" ">
<polygon fill="#ffffff" stroke="#bfbfbf" points="1254.5,-112.5 1254.5,-131.5 1307.5,-131.5 1307.5,-112.5 1254.5,-112.5"/>
<text text-anchor="middle" x="1281" y="-119.5" font-family="Helvetica,sans-Serif" font-size="10.00" fill="#000000">QObject</text>
</a>
</g>
</g>
<!-- Node28&#45;&gt;Node30 -->
<g id="edge43" class="edge">
<title>Node28&#45;&gt;Node30</title>
<path fill="none" stroke="#191970" d="M1092.578,-168.467C1130.4083,-160.0474 1186.88,-147.1358 1244.3103,-132.3611"/>
<polygon fill="#191970" stroke="#191970" points="1245.4804,-135.6736 1254.2838,-129.7787 1243.7257,-128.8971 1245.4804,-135.6736"/>
</g>
<!-- Node29&#45;&gt;Node12 -->
<g id="edge39" class="edge">
<title>Node29&#45;&gt;Node12</title>
<path fill="none" stroke="#191970" d="M1191,-112.2455C1191,-104.9382 1191,-94.6944 1191,-85.7046"/>
<polygon fill="#191970" stroke="#191970" points="1194.5001,-85.6426 1191,-75.6427 1187.5001,-85.6427 1194.5001,-85.6426"/>
</g>
<!-- Node29&#45;&gt;Node24 -->
<g id="edge40" class="edge">
<title>Node29&#45;&gt;Node24</title>
<path fill="none" stroke="#191970" d="M1150.0152,-112.4369C1103.0158,-101.4704 1026.9058,-83.7114 983.7002,-73.63"/>
<polygon fill="#191970" stroke="#191970" points="984.2526,-70.165 973.7188,-71.3011 982.6619,-76.9819 984.2526,-70.165"/>
</g>
<!-- Node31&#45;&gt;Node6 -->
<g id="edge47" class="edge">
<title>Node31&#45;&gt;Node6</title>
<path fill="none" stroke="#191970" d="M1345,-168.2455C1345,-160.9382 1345,-150.6944 1345,-141.7046"/>
<polygon fill="#191970" stroke="#191970" points="1348.5001,-141.6426 1345,-131.6427 1341.5001,-141.6427 1348.5001,-141.6426"/>
</g>
<!-- Node31&#45;&gt;Node12 -->
<g id="edge46" class="edge">
<title>Node31&#45;&gt;Node12</title>
<path fill="none" stroke="#191970" d="M1355.2512,-168.2453C1368.3274,-154.614 1387.6988,-129.5684 1374,-112 1356.2185,-89.1956 1275.9289,-75.9673 1227.8032,-69.9526"/>
<polygon fill="#191970" stroke="#191970" points="1228.1131,-66.4648 1217.7664,-68.7442 1227.2763,-73.4146 1228.1131,-66.4648"/>
</g>
</g>
</svg>
