<?xml version="1.0" encoding="UTF-8" standalone="no"?>
<!DOCTYPE svg PUBLIC "-//W3C//DTD SVG 1.1//EN"
 "http://www.w3.org/Graphics/SVG/1.1/DTD/svg11.dtd">
<!-- Generated by graphviz version 2.40.1 (20161225.0304)
 -->
<!-- Title: src/application_server/routeinterface.cpp Pages: 1 -->
<!--zoomable 263 -->
<svg id="main" version="1.1" xmlns="http://www.w3.org/2000/svg" xmlns:xlink="http://www.w3.org/1999/xlink" xml:space="preserve" onload="init(evt)">
<style type="text/css"><![CDATA[
.edge:hover path { stroke: red; }
.edge:hover polygon { stroke: red; fill: red; }
]]></style>
<script type="text/javascript"><![CDATA[
var edges = document.getElementsByTagName('g');
if (edges && edges.length) {
  for (var i=0;i<edges.length;i++) {
    if (edges[i].id.substr(0,4)=='edge') {
      edges[i].setAttribute('class','edge');
    }
  }
}
]]></script>
        <defs>
                <circle id="rim" cx="0" cy="0" r="7"/>
                <circle id="rim2" cx="0" cy="0" r="3.5"/>
                <g id="zoomPlus">
                        <use xlink:href="#rim" fill="#404040">
                                <set attributeName="fill" to="#808080" begin="zoomplus.mouseover" end="zoomplus.mouseout"/>
                        </use>
                        <path d="M-4,0h8M0,-4v8" fill="none" stroke="white" stroke-width="1.5" pointer-events="none"/>
                </g>
                <g id="zoomMin">
                        <use xlink:href="#rim" fill="#404040">
                                <set attributeName="fill" to="#808080" begin="zoomminus.mouseover" end="zoomminus.mouseout"/>
                        </use>
                        <path d="M-4,0h8" fill="none" stroke="white" stroke-width="1.5" pointer-events="none"/>
                </g>
                <g id="dirArrow">
                        <path fill="none" stroke="white" stroke-width="1.5" d="M0,-3.0v7 M-2.5,-0.5L0,-3.0L2.5,-0.5"/>
                </g>
               <g id="resetDef">
                       <use xlink:href="#rim2" fill="#404040">
                               <set attributeName="fill" to="#808080" begin="reset.mouseover" end="reset.mouseout"/>
                       </use>
               </g>
        </defs>

<script type="text/javascript">
var viewWidth = 712;
var viewHeight = 263;
var sectionId = 'dynsection-0';
</script>
<script xlink:href="svgpan.js"/>
<svg id="graph" class="graph">
<g id="viewport">
<title>src/application_server/routeinterface.cpp</title>
<polygon fill="#ffffff" stroke="transparent" points="-4,4 -4,-259 708,-259 708,4 -4,4"/>
<!-- Node1 -->
<g id="node1" class="node">
<title>Node1</title>
<g id="a_node1"><a xlink:title=" ">
<polygon fill="#bfbfbf" stroke="#000000" points="374.5,-224.5 374.5,-254.5 489.5,-254.5 489.5,-224.5 374.5,-224.5"/>
<text text-anchor="start" x="382.5" y="-242.5" font-family="Helvetica,sans-Serif" font-size="10.00" fill="#000000">src/application_server</text>
<text text-anchor="middle" x="432" y="-231.5" font-family="Helvetica,sans-Serif" font-size="10.00" fill="#000000">/routeinterface.cpp</text>
</a>
</g>
</g>
<!-- Node2 -->
<g id="node2" class="node">
<title>Node2</title>
<g id="a_node2"><a xlink:href="routeinterface_8h.html" target="_top" xlink:title=" ">
<polygon fill="#ffffff" stroke="#000000" points="187.5,-168.5 187.5,-187.5 272.5,-187.5 272.5,-168.5 187.5,-168.5"/>
<text text-anchor="middle" x="230" y="-175.5" font-family="Helvetica,sans-Serif" font-size="10.00" fill="#000000">routeinterface.h</text>
</a>
</g>
</g>
<!-- Node1&#45;&gt;Node2 -->
<g id="edge1" class="edge">
<title>Node1&#45;&gt;Node2</title>
<path fill="none" stroke="#191970" d="M382.5852,-224.4554C348.2897,-214.0139 303.147,-200.27 270.8778,-190.4455"/>
<polygon fill="#191970" stroke="#191970" points="271.8887,-187.0947 261.3028,-187.5303 269.8499,-193.7912 271.8887,-187.0947"/>
</g>
<!-- Node12 -->
<g id="node12" class="node">
<title>Node12</title>
<g id="a_node12"><a xlink:title=" ">
<polygon fill="#ffffff" stroke="#bfbfbf" points="291,-168.5 291,-187.5 345,-187.5 345,-168.5 291,-168.5"/>
<text text-anchor="middle" x="318" y="-175.5" font-family="Helvetica,sans-Serif" font-size="10.00" fill="#000000">QCursor</text>
</a>
</g>
</g>
<!-- Node1&#45;&gt;Node12 -->
<g id="edge13" class="edge">
<title>Node1&#45;&gt;Node12</title>
<path fill="none" stroke="#191970" d="M404.1125,-224.4554C386.0924,-214.734 362.7659,-202.15 344.9368,-192.5317"/>
<polygon fill="#191970" stroke="#191970" points="346.1287,-189.1979 335.666,-187.5303 342.8052,-195.3586 346.1287,-189.1979"/>
</g>
<!-- Node13 -->
<g id="node13" class="node">
<title>Node13</title>
<g id="a_node13"><a xlink:title=" ">
<polygon fill="#ffffff" stroke="#bfbfbf" points="363,-168.5 363,-187.5 417,-187.5 417,-168.5 363,-168.5"/>
<text text-anchor="middle" x="390" y="-175.5" font-family="Helvetica,sans-Serif" font-size="10.00" fill="#000000">QDebug</text>
</a>
</g>
</g>
<!-- Node1&#45;&gt;Node13 -->
<g id="edge14" class="edge">
<title>Node1&#45;&gt;Node13</title>
<path fill="none" stroke="#191970" d="M421.618,-224.2977C415.8487,-215.8498 408.6284,-205.2773 402.5447,-196.369"/>
<polygon fill="#191970" stroke="#191970" points="405.2547,-194.1311 396.7247,-187.8469 399.4741,-198.0788 405.2547,-194.1311"/>
</g>
<!-- Node14 -->
<g id="node14" class="node">
<title>Node14</title>
<g id="a_node14"><a xlink:title=" ">
<polygon fill="#ffffff" stroke="#bfbfbf" points="435.5,-168.5 435.5,-187.5 514.5,-187.5 514.5,-168.5 435.5,-168.5"/>
<text text-anchor="middle" x="475" y="-175.5" font-family="Helvetica,sans-Serif" font-size="10.00" fill="#000000">QHBoxLayout</text>
</a>
</g>
</g>
<!-- Node1&#45;&gt;Node14 -->
<g id="edge15" class="edge">
<title>Node1&#45;&gt;Node14</title>
<path fill="none" stroke="#191970" d="M442.6292,-224.2977C448.5981,-215.7609 456.0838,-205.0545 462.3529,-196.0883"/>
<polygon fill="#191970" stroke="#191970" points="465.2534,-198.048 468.1152,-187.8469 459.5165,-194.0368 465.2534,-198.048"/>
</g>
<!-- Node15 -->
<g id="node15" class="node">
<title>Node15</title>
<g id="a_node15"><a xlink:title=" ">
<polygon fill="#ffffff" stroke="#bfbfbf" points="532.5,-168.5 532.5,-187.5 611.5,-187.5 611.5,-168.5 532.5,-168.5"/>
<text text-anchor="middle" x="572" y="-175.5" font-family="Helvetica,sans-Serif" font-size="10.00" fill="#000000">QVBoxLayout</text>
</a>
</g>
</g>
<!-- Node1&#45;&gt;Node15 -->
<g id="edge16" class="edge">
<title>Node1&#45;&gt;Node15</title>
<path fill="none" stroke="#191970" d="M466.2479,-224.4554C489.0949,-214.419 518.8879,-201.3314 541.0267,-191.6061"/>
<polygon fill="#191970" stroke="#191970" points="542.5571,-194.7567 550.305,-187.5303 539.7417,-188.3478 542.5571,-194.7567"/>
</g>
<!-- Node16 -->
<g id="node16" class="node">
<title>Node16</title>
<g id="a_node16"><a xlink:title=" ">
<polygon fill="#ffffff" stroke="#bfbfbf" points="630,-168.5 630,-187.5 704,-187.5 704,-168.5 630,-168.5"/>
<text text-anchor="middle" x="667" y="-175.5" font-family="Helvetica,sans-Serif" font-size="10.00" fill="#000000">QPushButton</text>
</a>
</g>
</g>
<!-- Node1&#45;&gt;Node16 -->
<g id="edge17" class="edge">
<title>Node1&#45;&gt;Node16</title>
<path fill="none" stroke="#191970" d="M489.4875,-224.4554C529.9017,-213.8789 583.2636,-199.914 620.8929,-190.0663"/>
<polygon fill="#191970" stroke="#191970" points="621.7953,-193.4481 630.5833,-187.5303 620.023,-186.6762 621.7953,-193.4481"/>
</g>
<!-- Node3 -->
<g id="node3" class="node">
<title>Node3</title>
<g id="a_node3"><a xlink:title=" ">
<polygon fill="#ffffff" stroke="#bfbfbf" points="0,-112.5 0,-131.5 80,-131.5 80,-112.5 0,-112.5"/>
<text text-anchor="middle" x="40" y="-119.5" font-family="Helvetica,sans-Serif" font-size="10.00" fill="#000000">QDockWidget</text>
</a>
</g>
</g>
<!-- Node2&#45;&gt;Node3 -->
<g id="edge2" class="edge">
<title>Node2&#45;&gt;Node3</title>
<path fill="none" stroke="#191970" d="M197.3378,-168.3733C165.4702,-158.9807 116.8469,-144.6496 82.093,-134.4064"/>
<polygon fill="#191970" stroke="#191970" points="82.8175,-130.9711 72.236,-131.5011 80.8385,-137.6855 82.8175,-130.9711"/>
</g>
<!-- Node4 -->
<g id="node4" class="node">
<title>Node4</title>
<g id="a_node4"><a xlink:title=" ">
<polygon fill="#ffffff" stroke="#bfbfbf" points="98.5,-112.5 98.5,-131.5 169.5,-131.5 169.5,-112.5 98.5,-112.5"/>
<text text-anchor="middle" x="134" y="-119.5" font-family="Helvetica,sans-Serif" font-size="10.00" fill="#000000">QListWidget</text>
</a>
</g>
</g>
<!-- Node2&#45;&gt;Node4 -->
<g id="edge3" class="edge">
<title>Node2&#45;&gt;Node4</title>
<path fill="none" stroke="#191970" d="M213.2781,-168.2455C198.4111,-159.5731 176.4534,-146.7645 159.4142,-136.825"/>
<polygon fill="#191970" stroke="#191970" points="160.9317,-133.6582 150.5303,-131.6427 157.4045,-139.7047 160.9317,-133.6582"/>
</g>
<!-- Node5 -->
<g id="node5" class="node">
<title>Node5</title>
<g id="a_node5"><a xlink:href="trainrenderer_8h.html" target="_top" xlink:title=" ">
<polygon fill="#ffffff" stroke="#000000" points="290.5,-112.5 290.5,-131.5 371.5,-131.5 371.5,-112.5 290.5,-112.5"/>
<text text-anchor="middle" x="331" y="-119.5" font-family="Helvetica,sans-Serif" font-size="10.00" fill="#000000">trainrenderer.h</text>
</a>
</g>
</g>
<!-- Node2&#45;&gt;Node5 -->
<g id="edge4" class="edge">
<title>Node2&#45;&gt;Node5</title>
<path fill="none" stroke="#191970" d="M247.5929,-168.2455C263.379,-159.4928 286.7639,-146.527 304.7587,-136.5496"/>
<polygon fill="#191970" stroke="#191970" points="306.5603,-139.5528 313.6087,-131.6427 303.1659,-133.4308 306.5603,-139.5528"/>
</g>
<!-- Node7 -->
<g id="node7" class="node">
<title>Node7</title>
<g id="a_node7"><a xlink:href="graphicsmanager_8h.html" target="_top" xlink:title=" ">
<polygon fill="#ffffff" stroke="#000000" points="313.5,-56.5 313.5,-75.5 416.5,-75.5 416.5,-56.5 313.5,-56.5"/>
<text text-anchor="middle" x="365" y="-63.5" font-family="Helvetica,sans-Serif" font-size="10.00" fill="#000000">graphicsmanager.h</text>
</a>
</g>
</g>
<!-- Node2&#45;&gt;Node7 -->
<g id="edge10" class="edge">
<title>Node2&#45;&gt;Node7</title>
<path fill="none" stroke="#191970" d="M269.974,-168.4251C312.3782,-157.8677 374.2101,-141.1664 381,-132 391.1496,-118.298 384.7248,-99.0132 377.2134,-84.8266"/>
<polygon fill="#191970" stroke="#191970" points="380.0953,-82.8211 372.0299,-75.9509 374.0506,-86.3512 380.0953,-82.8211"/>
</g>
<!-- Node11 -->
<g id="node11" class="node">
<title>Node11</title>
<g id="a_node11"><a xlink:href="goodselector_8h.html" target="_top" xlink:title=" ">
<polygon fill="#ffffff" stroke="#000000" points="188,-112.5 188,-131.5 272,-131.5 272,-112.5 188,-112.5"/>
<text text-anchor="middle" x="230" y="-119.5" font-family="Helvetica,sans-Serif" font-size="10.00" fill="#000000">goodselector.h</text>
</a>
</g>
</g>
<!-- Node2&#45;&gt;Node11 -->
<g id="edge11" class="edge">
<title>Node2&#45;&gt;Node11</title>
<path fill="none" stroke="#191970" d="M230,-168.2455C230,-160.9382 230,-150.6944 230,-141.7046"/>
<polygon fill="#191970" stroke="#191970" points="233.5001,-141.6426 230,-131.6427 226.5001,-141.6427 233.5001,-141.6426"/>
</g>
<!-- Node6 -->
<g id="node6" class="node">
<title>Node6</title>
<g id="a_node6"><a xlink:title=" ">
<polygon fill="#ffffff" stroke="#bfbfbf" points="238,-56.5 238,-75.5 294,-75.5 294,-56.5 238,-56.5"/>
<text text-anchor="middle" x="266" y="-63.5" font-family="Helvetica,sans-Serif" font-size="10.00" fill="#000000">QWidget</text>
</a>
</g>
</g>
<!-- Node5&#45;&gt;Node6 -->
<g id="edge5" class="edge">
<title>Node5&#45;&gt;Node6</title>
<path fill="none" stroke="#191970" d="M319.6779,-112.2455C310.0777,-103.9746 296.1108,-91.9416 284.8305,-82.2232"/>
<polygon fill="#191970" stroke="#191970" points="287.053,-79.5182 277.1924,-75.6427 282.484,-84.8214 287.053,-79.5182"/>
</g>
<!-- Node5&#45;&gt;Node7 -->
<g id="edge6" class="edge">
<title>Node5&#45;&gt;Node7</title>
<path fill="none" stroke="#191970" d="M336.9223,-112.2455C341.6027,-104.5367 348.2673,-93.5598 353.9289,-84.2348"/>
<polygon fill="#191970" stroke="#191970" points="356.9475,-86.007 359.1455,-75.6427 350.9639,-82.3741 356.9475,-86.007"/>
</g>
<!-- Node8 -->
<g id="node8" class="node">
<title>Node8</title>
<g id="a_node8"><a xlink:title=" ">
<polygon fill="#ffffff" stroke="#bfbfbf" points="262,-.5 262,-19.5 320,-19.5 320,-.5 262,-.5"/>
<text text-anchor="middle" x="291" y="-7.5" font-family="Helvetica,sans-Serif" font-size="10.00" fill="#000000">QPixmap</text>
</a>
</g>
</g>
<!-- Node7&#45;&gt;Node8 -->
<g id="edge7" class="edge">
<title>Node7&#45;&gt;Node8</title>
<path fill="none" stroke="#191970" d="M352.1102,-56.2455C341.0746,-47.8943 324.9708,-35.7076 312.0647,-25.9408"/>
<polygon fill="#191970" stroke="#191970" points="313.8283,-22.8862 303.7421,-19.6427 309.6041,-28.4681 313.8283,-22.8862"/>
</g>
<!-- Node9 -->
<g id="node9" class="node">
<title>Node9</title>
<g id="a_node9"><a xlink:title=" ">
<polygon fill="#ffffff" stroke="#bfbfbf" points="338.5,-.5 338.5,-19.5 391.5,-19.5 391.5,-.5 338.5,-.5"/>
<text text-anchor="middle" x="365" y="-7.5" font-family="Helvetica,sans-Serif" font-size="10.00" fill="#000000">QImage</text>
</a>
</g>
</g>
<!-- Node7&#45;&gt;Node9 -->
<g id="edge8" class="edge">
<title>Node7&#45;&gt;Node9</title>
<path fill="none" stroke="#191970" d="M365,-56.2455C365,-48.9382 365,-38.6944 365,-29.7046"/>
<polygon fill="#191970" stroke="#191970" points="368.5001,-29.6426 365,-19.6427 361.5001,-29.6427 368.5001,-29.6426"/>
</g>
<!-- Node10 -->
<g id="node10" class="node">
<title>Node10</title>
<g id="a_node10"><a xlink:title=" ">
<polygon fill="#ffffff" stroke="#bfbfbf" points="409.5,-.5 409.5,-19.5 450.5,-19.5 450.5,-.5 409.5,-.5"/>
<text text-anchor="middle" x="430" y="-7.5" font-family="Helvetica,sans-Serif" font-size="10.00" fill="#000000">string</text>
</a>
</g>
</g>
<!-- Node7&#45;&gt;Node10 -->
<g id="edge9" class="edge">
<title>Node7&#45;&gt;Node10</title>
<path fill="none" stroke="#191970" d="M376.3221,-56.2455C385.9223,-47.9746 399.8892,-35.9416 411.1695,-26.2232"/>
<polygon fill="#191970" stroke="#191970" points="413.516,-28.8214 418.8076,-19.6427 408.947,-23.5182 413.516,-28.8214"/>
</g>
<!-- Node11&#45;&gt;Node6 -->
<g id="edge12" class="edge">
<title>Node11&#45;&gt;Node6</title>
<path fill="none" stroke="#191970" d="M236.2707,-112.2455C241.2264,-104.5367 248.283,-93.5598 254.2776,-84.2348"/>
<polygon fill="#191970" stroke="#191970" points="257.3376,-85.9471 259.8011,-75.6427 251.4494,-82.1618 257.3376,-85.9471"/>
</g>
</g>
</svg>
        <g id="navigator" transform="translate(0 0)" fill="#404254">
                <rect fill="#f2f5e9" fill-opacity="0.5" stroke="#606060" stroke-width=".5" x="0" y="0" width="60" height="60"/>
                <use id="zoomplus" xlink:href="#zoomPlus" x="17" y="9" onmousedown="handleZoom(evt,'in')"/>
                <use id="zoomminus" xlink:href="#zoomMin" x="42" y="9" onmousedown="handleZoom(evt,'out')"/>
                <use id="reset" xlink:href="#resetDef" x="30" y="36" onmousedown="handleReset()"/>
                <g id="arrowUp" xlink:href="#dirArrow" transform="translate(30 24)" onmousedown="handlePan(0,-1)">
                  <use xlink:href="#rim" fill="#404040">
                        <set attributeName="fill" to="#808080" begin="arrowUp.mouseover" end="arrowUp.mouseout"/>
                  </use>
                  <path fill="none" stroke="white" stroke-width="1.5" d="M0,-3.0v7 M-2.5,-0.5L0,-3.0L2.5,-0.5"/>
                </g>
                <g id="arrowRight" xlink:href="#dirArrow" transform="rotate(90) translate(36 -43)" onmousedown="handlePan(1,0)">
                  <use xlink:href="#rim" fill="#404040">
                        <set attributeName="fill" to="#808080" begin="arrowRight.mouseover" end="arrowRight.mouseout"/>
                  </use>
                  <path fill="none" stroke="white" stroke-width="1.5" d="M0,-3.0v7 M-2.5,-0.5L0,-3.0L2.5,-0.5"/>
                </g>
                <g id="arrowDown" xlink:href="#dirArrow" transform="rotate(180) translate(-30 -48)" onmousedown="handlePan(0,1)">
                  <use xlink:href="#rim" fill="#404040">
                        <set attributeName="fill" to="#808080" begin="arrowDown.mouseover" end="arrowDown.mouseout"/>
                  </use>
                  <path fill="none" stroke="white" stroke-width="1.5" d="M0,-3.0v7 M-2.5,-0.5L0,-3.0L2.5,-0.5"/>
                </g>
                <g id="arrowLeft" xlink:href="#dirArrow" transform="rotate(270) translate(-36 17)" onmousedown="handlePan(-1,0)">
                  <use xlink:href="#rim" fill="#404040">
                        <set attributeName="fill" to="#808080" begin="arrowLeft.mouseover" end="arrowLeft.mouseout"/>
                  </use>
                  <path fill="none" stroke="white" stroke-width="1.5" d="M0,-3.0v7 M-2.5,-0.5L0,-3.0L2.5,-0.5"/>
                </g>
        </g>
        <svg viewBox="0 0 15 15" width="100%" height="30px" preserveAspectRatio="xMaxYMin meet">
         <g id="arrow_out" transform="scale(0.3 0.3)">
          <a xlink:href="routeinterface_8cpp__incl_org.svg" target="_base">
           <rect id="button" ry="5" rx="5" y="6" x="6" height="38" width="38"
                fill="#f2f5e9" fill-opacity="0.5" stroke="#606060" stroke-width="1.0"/>
           <path id="arrow"
             d="M 11.500037,31.436501 C 11.940474,20.09759 22.043105,11.32322 32.158766,21.979434 L 37.068811,17.246167 C 37.068811,17.246167 37.088388,32 37.088388,32 L 22.160133,31.978069 C 22.160133,31.978069 26.997745,27.140456 26.997745,27.140456 C 18.528582,18.264221 13.291696,25.230495 11.500037,31.436501 z"
             style="fill:#404040;"/>
          </a>
         </g>
        </svg>
</svg>
