<?xml version="1.0" encoding="UTF-8" standalone="no"?>
<!DOCTYPE svg PUBLIC "-//W3C//DTD SVG 1.1//EN"
 "http://www.w3.org/Graphics/SVG/1.1/DTD/svg11.dtd">
<!-- Generated by graphviz version 2.40.1 (20161225.0304)
 -->
<!-- Title: src/application_server/routeinterface.h Pages: 1 -->
<!--zoomable 431 -->
<svg id="main" version="1.1" xmlns="http://www.w3.org/2000/svg" xmlns:xlink="http://www.w3.org/1999/xlink" xml:space="preserve" onload="init(evt)">
<style type="text/css"><![CDATA[
.edge:hover path { stroke: red; }
.edge:hover polygon { stroke: red; fill: red; }
]]></style>
<script type="text/javascript"><![CDATA[
var edges = document.getElementsByTagName('g');
if (edges && edges.length) {
  for (var i=0;i<edges.length;i++) {
    if (edges[i].id.substr(0,4)=='edge') {
      edges[i].setAttribute('class','edge');
    }
  }
}
]]></script>
        <defs>
                <circle id="rim" cx="0" cy="0" r="7"/>
                <circle id="rim2" cx="0" cy="0" r="3.5"/>
                <g id="zoomPlus">
                        <use xlink:href="#rim" fill="#404040">
                                <set attributeName="fill" to="#808080" begin="zoomplus.mouseover" end="zoomplus.mouseout"/>
                        </use>
                        <path d="M-4,0h8M0,-4v8" fill="none" stroke="white" stroke-width="1.5" pointer-events="none"/>
                </g>
                <g id="zoomMin">
                        <use xlink:href="#rim" fill="#404040">
                                <set attributeName="fill" to="#808080" begin="zoomminus.mouseover" end="zoomminus.mouseout"/>
                        </use>
                        <path d="M-4,0h8" fill="none" stroke="white" stroke-width="1.5" pointer-events="none"/>
                </g>
                <g id="dirArrow">
                        <path fill="none" stroke="white" stroke-width="1.5" d="M0,-3.0v7 M-2.5,-0.5L0,-3.0L2.5,-0.5"/>
                </g>
               <g id="resetDef">
                       <use xlink:href="#rim2" fill="#404040">
                               <set attributeName="fill" to="#808080" begin="reset.mouseover" end="reset.mouseout"/>
                       </use>
               </g>
        </defs>

<script type="text/javascript">
var viewWidth = 1412;
var viewHeight = 431;
var sectionId = 'dynsection-0';
</script>
<script xlink:href="svgpan.js"/>
<svg id="graph" class="graph">
<g id="viewport">
<title>src/application_server/routeinterface.h</title>
<polygon fill="#ffffff" stroke="transparent" points="-4,4 -4,-427 1407.6175,-427 1407.6175,4 -4,4"/>
<!-- Node1 -->
<g id="node1" class="node">
<title>Node1</title>
<g id="a_node1"><a xlink:title=" ">
<polygon fill="#bfbfbf" stroke="#000000" points="387.5,-392.5 387.5,-422.5 502.5,-422.5 502.5,-392.5 387.5,-392.5"/>
<text text-anchor="start" x="395.5" y="-410.5" font-family="Helvetica,sans-Serif" font-size="10.00" fill="#000000">src/application_server</text>
<text text-anchor="middle" x="445" y="-399.5" font-family="Helvetica,sans-Serif" font-size="10.00" fill="#000000">/routeinterface.h</text>
</a>
</g>
</g>
<!-- Node2 -->
<g id="node2" class="node">
<title>Node2</title>
<g id="a_node2"><a xlink:title=" ">
<polygon fill="#ffffff" stroke="#bfbfbf" points="155,-336.5 155,-355.5 235,-355.5 235,-336.5 155,-336.5"/>
<text text-anchor="middle" x="195" y="-343.5" font-family="Helvetica,sans-Serif" font-size="10.00" fill="#000000">QDockWidget</text>
</a>
</g>
</g>
<!-- Node1&#45;&gt;Node2 -->
<g id="edge1" class="edge">
<title>Node1&#45;&gt;Node2</title>
<path fill="none" stroke="#191970" d="M387.331,-393.3134C343.769,-382.5972 284.6565,-368.0555 243.509,-357.9332"/>
<polygon fill="#191970" stroke="#191970" points="244.2626,-354.5143 233.716,-355.5241 242.5904,-361.3117 244.2626,-354.5143"/>
</g>
<!-- Node3 -->
<g id="node3" class="node">
<title>Node3</title>
<g id="a_node3"><a xlink:title=" ">
<polygon fill="#ffffff" stroke="#bfbfbf" points="253.5,-336.5 253.5,-355.5 324.5,-355.5 324.5,-336.5 253.5,-336.5"/>
<text text-anchor="middle" x="289" y="-343.5" font-family="Helvetica,sans-Serif" font-size="10.00" fill="#000000">QListWidget</text>
</a>
</g>
</g>
<!-- Node1&#45;&gt;Node3 -->
<g id="edge2" class="edge">
<title>Node1&#45;&gt;Node3</title>
<path fill="none" stroke="#191970" d="M406.8381,-392.4554C381.0374,-382.284 347.2874,-368.9787 322.5222,-359.2155"/>
<polygon fill="#191970" stroke="#191970" points="323.7613,-355.9419 313.1745,-355.5303 321.194,-362.4541 323.7613,-355.9419"/>
</g>
<!-- Node4 -->
<g id="node4" class="node">
<title>Node4</title>
<g id="a_node4"><a xlink:title=" ">
<polygon fill="#ffffff" stroke="#bfbfbf" points="343,-336.5 343,-355.5 417,-355.5 417,-336.5 343,-336.5"/>
<text text-anchor="middle" x="380" y="-343.5" font-family="Helvetica,sans-Serif" font-size="10.00" fill="#000000">QPushButton</text>
</a>
</g>
</g>
<!-- Node1&#45;&gt;Node4 -->
<g id="edge3" class="edge">
<title>Node1&#45;&gt;Node4</title>
<path fill="none" stroke="#191970" d="M428.9326,-392.2977C419.534,-383.4052 407.6473,-372.1586 397.943,-362.9769"/>
<polygon fill="#191970" stroke="#191970" points="400.0768,-360.1774 390.4073,-355.8469 395.2658,-365.2621 400.0768,-360.1774"/>
</g>
<!-- Node5 -->
<g id="node5" class="node">
<title>Node5</title>
<g id="a_node5"><a xlink:href="trainrenderer_8h.html" target="_top" xlink:title=" ">
<polygon fill="#ffffff" stroke="#000000" points="816.5,-168.5 816.5,-187.5 897.5,-187.5 897.5,-168.5 816.5,-168.5"/>
<text text-anchor="middle" x="857" y="-175.5" font-family="Helvetica,sans-Serif" font-size="10.00" fill="#000000">trainrenderer.h</text>
</a>
</g>
</g>
<!-- Node1&#45;&gt;Node5 -->
<g id="edge4" class="edge">
<title>Node1&#45;&gt;Node5</title>
<path fill="none" stroke="#191970" d="M502.6055,-403.8908C616.6691,-395.2915 863.8386,-368.9132 905,-300 925.7766,-265.2154 894.4498,-219.8165 873.4346,-195.3839"/>
<polygon fill="#191970" stroke="#191970" points="875.8089,-192.7885 866.5336,-187.668 870.5913,-197.455 875.8089,-192.7885"/>
</g>
<!-- Node7 -->
<g id="node7" class="node">
<title>Node7</title>
<g id="a_node7"><a xlink:href="graphicsmanager_8h.html" target="_top" xlink:title=" ">
<polygon fill="#ffffff" stroke="#000000" points="878.5,-112.5 878.5,-131.5 981.5,-131.5 981.5,-112.5 878.5,-112.5"/>
<text text-anchor="middle" x="930" y="-119.5" font-family="Helvetica,sans-Serif" font-size="10.00" fill="#000000">graphicsmanager.h</text>
</a>
</g>
</g>
<!-- Node1&#45;&gt;Node7 -->
<g id="edge10" class="edge">
<title>Node1&#45;&gt;Node7</title>
<path fill="none" stroke="#191970" d="M502.5428,-403.2763C653.7377,-390.7922 1055.4479,-348.2077 1126,-244 1165.0595,-186.3078 1060.7119,-150.7146 989.6962,-133.8084"/>
<polygon fill="#191970" stroke="#191970" points="990.4466,-130.3896 979.9151,-131.5465 988.8694,-137.2097 990.4466,-130.3896"/>
</g>
<!-- Node11 -->
<g id="node11" class="node">
<title>Node11</title>
<g id="a_node11"><a xlink:href="goodselector_8h.html" target="_top" xlink:title=" ">
<polygon fill="#ffffff" stroke="#000000" points="527,-224.5 527,-243.5 611,-243.5 611,-224.5 527,-224.5"/>
<text text-anchor="middle" x="569" y="-231.5" font-family="Helvetica,sans-Serif" font-size="10.00" fill="#000000">goodselector.h</text>
</a>
</g>
</g>
<!-- Node1&#45;&gt;Node11 -->
<g id="edge11" class="edge">
<title>Node1&#45;&gt;Node11</title>
<path fill="none" stroke="#191970" d="M448.864,-392.2967C455.9377,-366.8082 472.9719,-314.8312 502,-280 512.6421,-267.2304 527.679,-256.4717 540.8117,-248.5777"/>
<polygon fill="#191970" stroke="#191970" points="542.5897,-251.5928 549.522,-243.5806 539.1064,-245.521 542.5897,-251.5928"/>
</g>
<!-- Node12 -->
<g id="node12" class="node">
<title>Node12</title>
<g id="a_node12"><a xlink:href="client_8h.html" target="_top" xlink:title=" ">
<polygon fill="#ffffff" stroke="#000000" points="744.5,-336.5 744.5,-355.5 791.5,-355.5 791.5,-336.5 744.5,-336.5"/>
<text text-anchor="middle" x="768" y="-343.5" font-family="Helvetica,sans-Serif" font-size="10.00" fill="#000000">client.h</text>
</a>
</g>
</g>
<!-- Node1&#45;&gt;Node12 -->
<g id="edge13" class="edge">
<title>Node1&#45;&gt;Node12</title>
<path fill="none" stroke="#191970" d="M502.7459,-396.505C570.2524,-383.6516 679.7008,-362.8124 734.4997,-352.3785"/>
<polygon fill="#191970" stroke="#191970" points="735.2192,-355.8045 744.3881,-350.4958 733.9099,-348.928 735.2192,-355.8045"/>
</g>
<!-- Node6 -->
<g id="node6" class="node">
<title>Node6</title>
<g id="a_node6"><a xlink:title=" ">
<polygon fill="#ffffff" stroke="#bfbfbf" points="747,-112.5 747,-131.5 803,-131.5 803,-112.5 747,-112.5"/>
<text text-anchor="middle" x="775" y="-119.5" font-family="Helvetica,sans-Serif" font-size="10.00" fill="#000000">QWidget</text>
</a>
</g>
</g>
<!-- Node5&#45;&gt;Node6 -->
<g id="edge5" class="edge">
<title>Node5&#45;&gt;Node6</title>
<path fill="none" stroke="#191970" d="M842.7167,-168.2455C830.253,-159.7337 811.9549,-147.2375 797.5208,-137.3801"/>
<polygon fill="#191970" stroke="#191970" points="799.3515,-134.392 789.1196,-131.6427 795.4038,-140.1726 799.3515,-134.392"/>
</g>
<!-- Node5&#45;&gt;Node7 -->
<g id="edge6" class="edge">
<title>Node5&#45;&gt;Node7</title>
<path fill="none" stroke="#191970" d="M869.7156,-168.2455C880.602,-159.8943 896.4883,-147.7076 909.22,-137.9408"/>
<polygon fill="#191970" stroke="#191970" points="911.6261,-140.5063 917.4301,-131.6427 907.3654,-134.9523 911.6261,-140.5063"/>
</g>
<!-- Node8 -->
<g id="node8" class="node">
<title>Node8</title>
<g id="a_node8"><a xlink:title=" ">
<polygon fill="#ffffff" stroke="#bfbfbf" points="901,-56.5 901,-75.5 959,-75.5 959,-56.5 901,-56.5"/>
<text text-anchor="middle" x="930" y="-63.5" font-family="Helvetica,sans-Serif" font-size="10.00" fill="#000000">QPixmap</text>
</a>
</g>
</g>
<!-- Node7&#45;&gt;Node8 -->
<g id="edge7" class="edge">
<title>Node7&#45;&gt;Node8</title>
<path fill="none" stroke="#191970" d="M930,-112.2455C930,-104.9382 930,-94.6944 930,-85.7046"/>
<polygon fill="#191970" stroke="#191970" points="933.5001,-85.6426 930,-75.6427 926.5001,-85.6427 933.5001,-85.6426"/>
</g>
<!-- Node9 -->
<g id="node9" class="node">
<title>Node9</title>
<g id="a_node9"><a xlink:title=" ">
<polygon fill="#ffffff" stroke="#bfbfbf" points="1065.5,-56.5 1065.5,-75.5 1118.5,-75.5 1118.5,-56.5 1065.5,-56.5"/>
<text text-anchor="middle" x="1092" y="-63.5" font-family="Helvetica,sans-Serif" font-size="10.00" fill="#000000">QImage</text>
</a>
</g>
</g>
<!-- Node7&#45;&gt;Node9 -->
<g id="edge8" class="edge">
<title>Node7&#45;&gt;Node9</title>
<path fill="none" stroke="#191970" d="M957.8488,-112.3733C984.9141,-103.0173 1026.1546,-88.7614 1055.7628,-78.5264"/>
<polygon fill="#191970" stroke="#191970" points="1057.0129,-81.7976 1065.3206,-75.2225 1054.7259,-75.1817 1057.0129,-81.7976"/>
</g>
<!-- Node10 -->
<g id="node10" class="node">
<title>Node10</title>
<g id="a_node10"><a xlink:title=" ">
<polygon fill="#ffffff" stroke="#bfbfbf" points="820.5,-56.5 820.5,-75.5 861.5,-75.5 861.5,-56.5 820.5,-56.5"/>
<text text-anchor="middle" x="841" y="-63.5" font-family="Helvetica,sans-Serif" font-size="10.00" fill="#000000">string</text>
</a>
</g>
</g>
<!-- Node7&#45;&gt;Node10 -->
<g id="edge9" class="edge">
<title>Node7&#45;&gt;Node10</title>
<path fill="none" stroke="#191970" d="M914.4974,-112.2455C900.842,-103.6534 880.7343,-91.0014 865.0011,-81.1018"/>
<polygon fill="#191970" stroke="#191970" points="866.6529,-78.006 856.325,-75.6427 862.9249,-83.9307 866.6529,-78.006"/>
</g>
<!-- Node11&#45;&gt;Node6 -->
<g id="edge12" class="edge">
<title>Node11&#45;&gt;Node6</title>
<path fill="none" stroke="#191970" d="M611.1399,-230.0521C663.5457,-224.21 748.6148,-211.3508 769,-188 779.8534,-175.5676 780.4281,-156.3471 778.8351,-141.8482"/>
<polygon fill="#191970" stroke="#191970" points="782.2826,-141.2372 777.3287,-131.8718 775.361,-142.2823 782.2826,-141.2372"/>
</g>
<!-- Node13 -->
<g id="node13" class="node">
<title>Node13</title>
<g id="a_node13"><a xlink:title=" ">
<polygon fill="#ffffff" stroke="#bfbfbf" points="575,-280.5 575,-299.5 649,-299.5 649,-280.5 575,-280.5"/>
<text text-anchor="middle" x="612" y="-287.5" font-family="Helvetica,sans-Serif" font-size="10.00" fill="#000000">QTcpSocket</text>
</a>
</g>
</g>
<!-- Node12&#45;&gt;Node13 -->
<g id="edge14" class="edge">
<title>Node12&#45;&gt;Node13</title>
<path fill="none" stroke="#191970" d="M744.307,-337.4948C718.7297,-328.3132 677.6859,-313.5796 648.091,-302.9558"/>
<polygon fill="#191970" stroke="#191970" points="649.1268,-299.6089 638.5323,-299.5244 646.7617,-306.1973 649.1268,-299.6089"/>
</g>
<!-- Node14 -->
<g id="node14" class="node">
<title>Node14</title>
<g id="a_node14"><a xlink:title=" ">
<polygon fill="#ffffff" stroke="#bfbfbf" points="667.5,-280.5 667.5,-299.5 720.5,-299.5 720.5,-280.5 667.5,-280.5"/>
<text text-anchor="middle" x="694" y="-287.5" font-family="Helvetica,sans-Serif" font-size="10.00" fill="#000000">QObject</text>
</a>
</g>
</g>
<!-- Node12&#45;&gt;Node14 -->
<g id="edge15" class="edge">
<title>Node12&#45;&gt;Node14</title>
<path fill="none" stroke="#191970" d="M755.1102,-336.2455C744.0746,-327.8943 727.9708,-315.7076 715.0647,-305.9408"/>
<polygon fill="#191970" stroke="#191970" points="716.8283,-302.8862 706.7421,-299.6427 712.6041,-308.4681 716.8283,-302.8862"/>
</g>
<!-- Node15 -->
<g id="node15" class="node">
<title>Node15</title>
<g id="a_node15"><a xlink:title=" ">
<polygon fill="#ffffff" stroke="#bfbfbf" points="739,-280.5 739,-299.5 797,-299.5 797,-280.5 739,-280.5"/>
<text text-anchor="middle" x="768" y="-287.5" font-family="Helvetica,sans-Serif" font-size="10.00" fill="#000000">QThread</text>
</a>
</g>
</g>
<!-- Node12&#45;&gt;Node15 -->
<g id="edge16" class="edge">
<title>Node12&#45;&gt;Node15</title>
<path fill="none" stroke="#191970" d="M768,-336.2455C768,-328.9382 768,-318.6944 768,-309.7046"/>
<polygon fill="#191970" stroke="#191970" points="771.5001,-309.6426 768,-299.6427 764.5001,-309.6427 771.5001,-309.6426"/>
</g>
<!-- Node16 -->
<g id="node16" class="node">
<title>Node16</title>
<g id="a_node16"><a xlink:title=" ">
<polygon fill="#ffffff" stroke="#bfbfbf" points="815.5,-280.5 815.5,-299.5 880.5,-299.5 880.5,-280.5 815.5,-280.5"/>
<text text-anchor="middle" x="848" y="-287.5" font-family="Helvetica,sans-Serif" font-size="10.00" fill="#000000">QStringList</text>
</a>
</g>
</g>
<!-- Node12&#45;&gt;Node16 -->
<g id="edge17" class="edge">
<title>Node12&#45;&gt;Node16</title>
<path fill="none" stroke="#191970" d="M781.9349,-336.2455C794.0947,-327.7337 811.9464,-315.2375 826.0285,-305.3801"/>
<polygon fill="#191970" stroke="#191970" points="828.0395,-308.2447 834.2248,-299.6427 824.0253,-302.51 828.0395,-308.2447"/>
</g>
<!-- Node17 -->
<g id="node17" class="node">
<title>Node17</title>
<g id="a_node17"><a xlink:title=" ">
<polygon fill="#ffffff" stroke="#bfbfbf" points="1340,-112.5 1340,-131.5 1390,-131.5 1390,-112.5 1340,-112.5"/>
<text text-anchor="middle" x="1365" y="-119.5" font-family="Helvetica,sans-Serif" font-size="10.00" fill="#000000">QString</text>
</a>
</g>
</g>
<!-- Node12&#45;&gt;Node17 -->
<g id="edge18" class="edge">
<title>Node12&#45;&gt;Node17</title>
<path fill="none" stroke="#191970" d="M791.6642,-343.9227C870.538,-336.038 1129.2814,-302.3581 1303,-188 1322.5739,-175.1146 1340.3737,-154.858 1351.8291,-140.183"/>
<polygon fill="#191970" stroke="#191970" points="1354.8646,-141.9713 1358.1009,-131.8829 1349.2798,-137.7512 1354.8646,-141.9713"/>
</g>
<!-- Node18 -->
<g id="node18" class="node">
<title>Node18</title>
<g id="a_node18"><a xlink:href="scene_8h.html" target="_top" xlink:title=" ">
<polygon fill="#ffffff" stroke="#000000" points="457,-224.5 457,-243.5 509,-243.5 509,-224.5 457,-224.5"/>
<text text-anchor="middle" x="483" y="-231.5" font-family="Helvetica,sans-Serif" font-size="10.00" fill="#000000">scene.h</text>
</a>
</g>
</g>
<!-- Node12&#45;&gt;Node18 -->
<g id="edge19" class="edge">
<title>Node12&#45;&gt;Node18</title>
<path fill="none" stroke="#191970" d="M744.3682,-345.0478C686.0978,-342.2239 537.6814,-331.9877 502,-300 489.1237,-288.4566 484.7388,-268.8095 483.3568,-253.9456"/>
<polygon fill="#191970" stroke="#191970" points="486.8387,-253.5175 482.7944,-243.7249 479.8492,-253.9021 486.8387,-253.5175"/>
</g>
<!-- Node24 -->
<g id="node24" class="node">
<title>Node24</title>
<g id="a_node24"><a xlink:href="maptile_8h.html" target="_top" xlink:title=" ">
<polygon fill="#ffffff" stroke="#000000" points="992,-168.5 992,-187.5 1048,-187.5 1048,-168.5 992,-168.5"/>
<text text-anchor="middle" x="1020" y="-175.5" font-family="Helvetica,sans-Serif" font-size="10.00" fill="#000000">maptile.h</text>
</a>
</g>
</g>
<!-- Node12&#45;&gt;Node24 -->
<g id="edge43" class="edge">
<title>Node12&#45;&gt;Node24</title>
<path fill="none" stroke="#191970" d="M791.5813,-341.7521C820.1645,-335.8105 868.9722,-323.0639 905,-300 949.2962,-271.643 988.3546,-222.5353 1007.5004,-196.098"/>
<polygon fill="#191970" stroke="#191970" points="1010.4825,-197.9435 1013.418,-187.7635 1004.7749,-193.891 1010.4825,-197.9435"/>
</g>
<!-- Node29 -->
<g id="node29" class="node">
<title>Node29</title>
<g id="a_node29"><a xlink:href="datamodel_8h.html" target="_top" xlink:title=" ">
<polygon fill="#ffffff" stroke="#000000" points="686.5,-168.5 686.5,-187.5 759.5,-187.5 759.5,-168.5 686.5,-168.5"/>
<text text-anchor="middle" x="723" y="-175.5" font-family="Helvetica,sans-Serif" font-size="10.00" fill="#000000">datamodel.h</text>
</a>
</g>
</g>
<!-- Node12&#45;&gt;Node29 -->
<g id="edge44" class="edge">
<title>Node12&#45;&gt;Node29</title>
<path fill="none" stroke="#191970" d="M791.6281,-343.2015C833.1014,-337.1986 912.5627,-320.2192 890,-280 863.7417,-233.1932 806.2975,-205.3129 766.1554,-190.8243"/>
<polygon fill="#191970" stroke="#191970" points="767.2009,-187.4824 756.6061,-187.5105 764.9059,-194.0956 767.2009,-187.4824"/>
</g>
<!-- Node34 -->
<g id="node34" class="node">
<title>Node34</title>
<g id="a_node34"><a xlink:href="view_8h.html" target="_top" xlink:title=" ">
<polygon fill="#ffffff" stroke="#000000" points="511.5,-280.5 511.5,-299.5 556.5,-299.5 556.5,-280.5 511.5,-280.5"/>
<text text-anchor="middle" x="534" y="-287.5" font-family="Helvetica,sans-Serif" font-size="10.00" fill="#000000">view.h</text>
</a>
</g>
</g>
<!-- Node12&#45;&gt;Node34 -->
<g id="edge45" class="edge">
<title>Node12&#45;&gt;Node34</title>
<path fill="none" stroke="#191970" d="M744.2155,-341.2196C707.9992,-333.8046 636.6836,-318.6712 566.546,-299.9843"/>
<polygon fill="#191970" stroke="#191970" points="567.2268,-296.5431 556.6609,-297.3243 565.4079,-303.3026 567.2268,-296.5431"/>
</g>
<!-- Node39 -->
<g id="node39" class="node">
<title>Node39</title>
<g id="a_node39"><a xlink:href="maprenderer_8h.html" target="_top" xlink:title=" ">
<polygon fill="#ffffff" stroke="#000000" points="1035,-224.5 1035,-243.5 1117,-243.5 1117,-224.5 1035,-224.5"/>
<text text-anchor="middle" x="1076" y="-231.5" font-family="Helvetica,sans-Serif" font-size="10.00" fill="#000000">maprenderer.h</text>
</a>
</g>
</g>
<!-- Node12&#45;&gt;Node39 -->
<g id="edge54" class="edge">
<title>Node12&#45;&gt;Node39</title>
<path fill="none" stroke="#191970" d="M791.5328,-342.6273C828.5567,-336.8308 902.2429,-323.298 961,-300 995.0418,-286.502 1031.1833,-264.2934 1053.6696,-249.4124"/>
<polygon fill="#191970" stroke="#191970" points="1055.7945,-252.2014 1062.1451,-243.7207 1051.892,-246.3901 1055.7945,-252.2014"/>
</g>
<!-- Node18&#45;&gt;Node7 -->
<g id="edge30" class="edge">
<title>Node18&#45;&gt;Node7</title>
<path fill="none" stroke="#191970" d="M509.2479,-225.9338C512.1823,-225.2015 515.1428,-224.5356 518,-224 603.3278,-208.0061 838.6246,-241.4925 907,-188 920.9965,-177.05 926.5061,-157.0283 928.6585,-141.898"/>
<polygon fill="#191970" stroke="#191970" points="932.14,-142.2564 929.7057,-131.945 925.1784,-141.5238 932.14,-142.2564"/>
</g>
<!-- Node19 -->
<g id="node19" class="node">
<title>Node19</title>
<g id="a_node19"><a xlink:title=" ">
<polygon fill="#ffffff" stroke="#bfbfbf" points="574,-168.5 574,-187.5 668,-187.5 668,-168.5 574,-168.5"/>
<text text-anchor="middle" x="621" y="-175.5" font-family="Helvetica,sans-Serif" font-size="10.00" fill="#000000">QGraphicsScene</text>
</a>
</g>
</g>
<!-- Node18&#45;&gt;Node19 -->
<g id="edge20" class="edge">
<title>Node18&#45;&gt;Node19</title>
<path fill="none" stroke="#191970" d="M506.723,-224.3733C529.1737,-215.2629 563.0739,-201.5062 588.1255,-191.3404"/>
<polygon fill="#191970" stroke="#191970" points="589.6365,-194.5045 597.5865,-187.5011 587.0043,-188.0182 589.6365,-194.5045"/>
</g>
<!-- Node20 -->
<g id="node20" class="node">
<title>Node20</title>
<g id="a_node20"><a xlink:title=" ">
<polygon fill="#ffffff" stroke="#bfbfbf" points="219,-168.5 219,-187.5 323,-187.5 323,-168.5 219,-168.5"/>
<text text-anchor="middle" x="271" y="-175.5" font-family="Helvetica,sans-Serif" font-size="10.00" fill="#000000">QGraphicsTextItem</text>
</a>
</g>
</g>
<!-- Node18&#45;&gt;Node20 -->
<g id="edge21" class="edge">
<title>Node18&#45;&gt;Node20</title>
<path fill="none" stroke="#191970" d="M456.5787,-227.0208C421.6407,-217.7919 359.5213,-201.383 316.8463,-190.1104"/>
<polygon fill="#191970" stroke="#191970" points="317.5439,-186.6746 306.9817,-187.5046 315.7562,-193.4425 317.5439,-186.6746"/>
</g>
<!-- Node21 -->
<g id="node21" class="node">
<title>Node21</title>
<g id="a_node21"><a xlink:title=" ">
<polygon fill="#ffffff" stroke="#bfbfbf" points="341.5,-168.5 341.5,-187.5 424.5,-187.5 424.5,-168.5 341.5,-168.5"/>
<text text-anchor="middle" x="383" y="-175.5" font-family="Helvetica,sans-Serif" font-size="10.00" fill="#000000">QGraphicsItem</text>
</a>
</g>
</g>
<!-- Node18&#45;&gt;Node21 -->
<g id="edge22" class="edge">
<title>Node18&#45;&gt;Node21</title>
<path fill="none" stroke="#191970" d="M465.5813,-224.2455C449.9515,-215.4928 426.7981,-202.527 408.9815,-192.5496"/>
<polygon fill="#191970" stroke="#191970" points="410.6543,-189.475 400.2191,-187.6427 407.234,-195.5825 410.6543,-189.475"/>
</g>
<!-- Node22 -->
<g id="node22" class="node">
<title>Node22</title>
<g id="a_node22"><a xlink:title=" ">
<polygon fill="#ffffff" stroke="#bfbfbf" points="0,-.5 0,-19.5 104,-19.5 104,-.5 0,-.5"/>
<text text-anchor="middle" x="52" y="-7.5" font-family="Helvetica,sans-Serif" font-size="10.00" fill="#000000">QGraphicsRectItem</text>
</a>
</g>
</g>
<!-- Node18&#45;&gt;Node22 -->
<g id="edge23" class="edge">
<title>Node18&#45;&gt;Node22</title>
<path fill="none" stroke="#191970" d="M456.9843,-232.9083C369.8662,-229.0156 92.2187,-214.6082 63,-188 18.6209,-147.5858 35.1483,-66.3034 45.7859,-29.2264"/>
<polygon fill="#191970" stroke="#191970" points="49.1462,-30.206 48.6997,-19.6206 42.4476,-28.174 49.1462,-30.206"/>
</g>
<!-- Node23 -->
<g id="node23" class="node">
<title>Node23</title>
<g id="a_node23"><a xlink:title=" ">
<polygon fill="#ffffff" stroke="#bfbfbf" points="442.5,-168.5 442.5,-187.5 555.5,-187.5 555.5,-168.5 442.5,-168.5"/>
<text text-anchor="middle" x="499" y="-175.5" font-family="Helvetica,sans-Serif" font-size="10.00" fill="#000000">QGraphicsEllipseItem</text>
</a>
</g>
</g>
<!-- Node18&#45;&gt;Node23 -->
<g id="edge24" class="edge">
<title>Node18&#45;&gt;Node23</title>
<path fill="none" stroke="#191970" d="M485.787,-224.2455C487.8977,-216.8579 490.866,-206.4689 493.4547,-197.4087"/>
<polygon fill="#191970" stroke="#191970" points="496.863,-198.2195 496.245,-187.6427 490.1323,-196.2964 496.863,-198.2195"/>
</g>
<!-- Node18&#45;&gt;Node24 -->
<g id="edge25" class="edge">
<title>Node18&#45;&gt;Node24</title>
<path fill="none" stroke="#191970" d="M509.2441,-225.913C512.1792,-225.1847 515.1409,-224.5253 518,-224 703.138,-189.9851 752.7946,-207.6777 940,-188 953.6201,-186.5683 968.5153,-184.7703 981.7211,-183.095"/>
<polygon fill="#191970" stroke="#191970" points="982.4212,-186.5339 991.8932,-181.7871 981.5285,-179.591 982.4212,-186.5339"/>
</g>
<!-- Node27 -->
<g id="node27" class="node">
<title>Node27</title>
<g id="a_node27"><a xlink:href="player_8h.html" target="_top" xlink:title=" ">
<polygon fill="#ffffff" stroke="#000000" points="335,-112.5 335,-131.5 387,-131.5 387,-112.5 335,-112.5"/>
<text text-anchor="middle" x="361" y="-119.5" font-family="Helvetica,sans-Serif" font-size="10.00" fill="#000000">player.h</text>
</a>
</g>
</g>
<!-- Node18&#45;&gt;Node27 -->
<g id="edge31" class="edge">
<title>Node18&#45;&gt;Node27</title>
<path fill="none" stroke="#191970" d="M456.7062,-231.49C391.3987,-224.9919 225.9053,-206.8095 210,-188 204.2605,-181.2125 204.7091,-175.1427 210,-168 211.7734,-165.6059 280.8551,-145.2266 324.9553,-132.4092"/>
<polygon fill="#191970" stroke="#191970" points="326.1338,-135.7117 334.7624,-129.5637 324.1832,-128.9889 326.1338,-135.7117"/>
</g>
<!-- Node28 -->
<g id="node28" class="node">
<title>Node28</title>
<g id="a_node28"><a xlink:href="highlighter_8h.html" target="_top" xlink:title=" ">
<polygon fill="#ffffff" stroke="#000000" points="49,-56.5 49,-75.5 119,-75.5 119,-56.5 49,-56.5"/>
<text text-anchor="middle" x="84" y="-63.5" font-family="Helvetica,sans-Serif" font-size="10.00" fill="#000000">highlighter.h</text>
</a>
</g>
</g>
<!-- Node18&#45;&gt;Node28 -->
<g id="edge34" class="edge">
<title>Node18&#45;&gt;Node28</title>
<path fill="none" stroke="#191970" d="M456.8136,-233.0093C371.152,-229.503 103.303,-216.3396 78,-188 52.8137,-159.7911 65.6281,-111.6828 75.7226,-85.0869"/>
<polygon fill="#191970" stroke="#191970" points="79.0022,-86.3127 79.5035,-75.7297 72.512,-83.6902 79.0022,-86.3127"/>
</g>
<!-- Node18&#45;&gt;Node29 -->
<g id="edge35" class="edge">
<title>Node18&#45;&gt;Node29</title>
<path fill="none" stroke="#191970" d="M509.3292,-226.3017C512.2484,-225.5006 515.183,-224.7178 518,-224 547.4916,-216.4847 625.6423,-199.2211 676.4834,-188.1115"/>
<polygon fill="#191970" stroke="#191970" points="677.2414,-191.5285 686.2649,-185.9763 675.7485,-184.6895 677.2414,-191.5285"/>
</g>
<!-- Node24&#45;&gt;Node7 -->
<g id="edge29" class="edge">
<title>Node24&#45;&gt;Node7</title>
<path fill="none" stroke="#191970" d="M1004.3232,-168.2455C990.5144,-159.6534 970.1807,-147.0014 954.2708,-137.1018"/>
<polygon fill="#191970" stroke="#191970" points="955.8368,-133.954 945.4972,-131.6427 952.1387,-139.8974 955.8368,-133.954"/>
</g>
<!-- Node25 -->
<g id="node25" class="node">
<title>Node25</title>
<g id="a_node25"><a xlink:title=" ">
<polygon fill="#ffffff" stroke="#bfbfbf" points="999.5,-112.5 999.5,-131.5 1116.5,-131.5 1116.5,-112.5 999.5,-112.5"/>
<text text-anchor="middle" x="1058" y="-119.5" font-family="Helvetica,sans-Serif" font-size="10.00" fill="#000000">QGraphicsPixmapItem</text>
</a>
</g>
</g>
<!-- Node24&#45;&gt;Node25 -->
<g id="edge26" class="edge">
<title>Node24&#45;&gt;Node25</title>
<path fill="none" stroke="#191970" d="M1026.6191,-168.2455C1031.9046,-160.4564 1039.4541,-149.3308 1045.8238,-139.9439"/>
<polygon fill="#191970" stroke="#191970" points="1048.7379,-141.8827 1051.4568,-131.6427 1042.9455,-137.9522 1048.7379,-141.8827"/>
</g>
<!-- Node26 -->
<g id="node26" class="node">
<title>Node26</title>
<g id="a_node26"><a xlink:href="city_8h.html" target="_top" xlink:title=" ">
<polygon fill="#ffffff" stroke="#000000" points="821.5,-112.5 821.5,-131.5 860.5,-131.5 860.5,-112.5 821.5,-112.5"/>
<text text-anchor="middle" x="841" y="-119.5" font-family="Helvetica,sans-Serif" font-size="10.00" fill="#000000">city.h</text>
</a>
</g>
</g>
<!-- Node24&#45;&gt;Node26 -->
<g id="edge27" class="edge">
<title>Node24&#45;&gt;Node26</title>
<path fill="none" stroke="#191970" d="M991.9872,-169.7241C963.6748,-161.2909 918.4515,-147.6339 870.2916,-132.018"/>
<polygon fill="#191970" stroke="#191970" points="871.2169,-128.6384 860.6246,-128.8696 869.0492,-135.2943 871.2169,-128.6384"/>
</g>
<!-- Node26&#45;&gt;Node10 -->
<g id="edge28" class="edge">
<title>Node26&#45;&gt;Node10</title>
<path fill="none" stroke="#191970" d="M841,-112.2455C841,-104.9382 841,-94.6944 841,-85.7046"/>
<polygon fill="#191970" stroke="#191970" points="844.5001,-85.6426 841,-75.6427 837.5001,-85.6427 844.5001,-85.6426"/>
</g>
<!-- Node27&#45;&gt;Node28 -->
<g id="edge32" class="edge">
<title>Node27&#45;&gt;Node28</title>
<path fill="none" stroke="#191970" d="M334.7182,-114.4304C331.4558,-113.5703 328.1581,-112.7387 325,-112 257.2368,-96.1498 177.8076,-81.7951 129.2027,-73.4827"/>
<polygon fill="#191970" stroke="#191970" points="129.7592,-70.0272 119.3141,-71.8023 128.5864,-76.9283 129.7592,-70.0272"/>
</g>
<!-- Node28&#45;&gt;Node22 -->
<g id="edge33" class="edge">
<title>Node28&#45;&gt;Node22</title>
<path fill="none" stroke="#191970" d="M78.426,-56.2455C74.0669,-48.617 67.8789,-37.7881 62.5867,-28.5267"/>
<polygon fill="#191970" stroke="#191970" points="65.5104,-26.5886 57.5101,-19.6427 59.4327,-30.0616 65.5104,-26.5886"/>
</g>
<!-- Node29&#45;&gt;Node6 -->
<g id="edge38" class="edge">
<title>Node29&#45;&gt;Node6</title>
<path fill="none" stroke="#191970" d="M732.0577,-168.2455C739.5142,-160.2155 750.2634,-148.6394 759.1417,-139.0781"/>
<polygon fill="#191970" stroke="#191970" points="761.8063,-141.3522 766.0461,-131.6427 756.6768,-136.589 761.8063,-141.3522"/>
</g>
<!-- Node29&#45;&gt;Node10 -->
<g id="edge36" class="edge">
<title>Node29&#45;&gt;Node10</title>
<path fill="none" stroke="#191970" d="M722.6338,-168.3264C722.6182,-154.3379 724.5836,-128.3512 738,-112 756.1797,-89.8435 787.2337,-77.9864 810.5017,-71.8939"/>
<polygon fill="#191970" stroke="#191970" points="811.3462,-75.2906 820.253,-69.5531 809.7123,-68.484 811.3462,-75.2906"/>
</g>
<!-- Node29&#45;&gt;Node27 -->
<g id="edge42" class="edge">
<title>Node29&#45;&gt;Node27</title>
<path fill="none" stroke="#191970" d="M686.3876,-169.8005C683.218,-169.1637 680.0558,-168.5539 677,-168 576.137,-149.7182 456.1283,-133.8485 397.2464,-126.4434"/>
<polygon fill="#191970" stroke="#191970" points="397.6757,-122.9699 387.3187,-125.2025 396.8074,-129.9159 397.6757,-122.9699"/>
</g>
<!-- Node30 -->
<g id="node30" class="node">
<title>Node30</title>
<g id="a_node30"><a xlink:title=" ">
<polygon fill="#ffffff" stroke="#bfbfbf" points="267.5,-112.5 267.5,-131.5 316.5,-131.5 316.5,-112.5 267.5,-112.5"/>
<text text-anchor="middle" x="292" y="-119.5" font-family="Helvetica,sans-Serif" font-size="10.00" fill="#000000">QLabel</text>
</a>
</g>
</g>
<!-- Node29&#45;&gt;Node30 -->
<g id="edge37" class="edge">
<title>Node29&#45;&gt;Node30</title>
<path fill="none" stroke="#191970" d="M686.4116,-169.6595C683.2368,-169.0533 680.0669,-168.4891 677,-168 525.3141,-143.8114 481.6536,-161.4934 326.6371,-131.7812"/>
<polygon fill="#191970" stroke="#191970" points="327.2371,-128.3323 316.7518,-129.8517 325.8961,-135.2027 327.2371,-128.3323"/>
</g>
<!-- Node31 -->
<g id="node31" class="node">
<title>Node31</title>
<g id="a_node31"><a xlink:href="mainwindow_8h.html" target="_top" xlink:title=" ">
<polygon fill="#ffffff" stroke="#000000" points="611,-112.5 611,-131.5 691,-131.5 691,-112.5 611,-112.5"/>
<text text-anchor="middle" x="651" y="-119.5" font-family="Helvetica,sans-Serif" font-size="10.00" fill="#000000">mainwindow.h</text>
</a>
</g>
</g>
<!-- Node29&#45;&gt;Node31 -->
<g id="edge39" class="edge">
<title>Node29&#45;&gt;Node31</title>
<path fill="none" stroke="#191970" d="M710.4586,-168.2455C699.7213,-159.8943 684.0527,-147.7076 671.4953,-137.9408"/>
<polygon fill="#191970" stroke="#191970" points="673.4401,-135.0194 663.3977,-131.6427 669.1425,-140.5449 673.4401,-135.0194"/>
</g>
<!-- Node32 -->
<g id="node32" class="node">
<title>Node32</title>
<g id="a_node32"><a xlink:title=" ">
<polygon fill="#ffffff" stroke="#bfbfbf" points="563.5,-56.5 563.5,-75.5 646.5,-75.5 646.5,-56.5 563.5,-56.5"/>
<text text-anchor="middle" x="605" y="-63.5" font-family="Helvetica,sans-Serif" font-size="10.00" fill="#000000">QMainWindow</text>
</a>
</g>
</g>
<!-- Node31&#45;&gt;Node32 -->
<g id="edge40" class="edge">
<title>Node31&#45;&gt;Node32</title>
<path fill="none" stroke="#191970" d="M642.9874,-112.2455C636.5232,-104.3761 627.2615,-93.101 619.5017,-83.6542"/>
<polygon fill="#191970" stroke="#191970" points="621.9727,-81.1484 612.9208,-75.6427 616.5636,-85.5916 621.9727,-81.1484"/>
</g>
<!-- Node33 -->
<g id="node33" class="node">
<title>Node33</title>
<g id="a_node33"><a xlink:title=" ">
<polygon fill="#ffffff" stroke="#bfbfbf" points="664.5,-56.5 664.5,-75.5 731.5,-75.5 731.5,-56.5 664.5,-56.5"/>
<text text-anchor="middle" x="698" y="-63.5" font-family="Helvetica,sans-Serif" font-size="10.00" fill="#000000">QKeyEvent</text>
</a>
</g>
</g>
<!-- Node31&#45;&gt;Node33 -->
<g id="edge41" class="edge">
<title>Node31&#45;&gt;Node33</title>
<path fill="none" stroke="#191970" d="M659.1868,-112.2455C665.8589,-104.2958 675.4479,-92.8706 683.4253,-83.3656"/>
<polygon fill="#191970" stroke="#191970" points="686.1592,-85.5525 689.907,-75.6427 680.7974,-81.0524 686.1592,-85.5525"/>
</g>
<!-- Node34&#45;&gt;Node18 -->
<g id="edge47" class="edge">
<title>Node34&#45;&gt;Node18</title>
<path fill="none" stroke="#191970" d="M525.1165,-280.2455C517.8034,-272.2155 507.2609,-260.6394 498.5533,-251.0781"/>
<polygon fill="#191970" stroke="#191970" points="501.1028,-248.6795 491.7817,-243.6427 495.9273,-253.3928 501.1028,-248.6795"/>
</g>
<!-- Node34&#45;&gt;Node29 -->
<g id="edge48" class="edge">
<title>Node34&#45;&gt;Node29</title>
<path fill="none" stroke="#191970" d="M553.0254,-280.3704C570.6107,-271.3415 597.3625,-257.2793 620,-244 648.2447,-227.4315 679.8293,-206.8798 700.4852,-193.153"/>
<polygon fill="#191970" stroke="#191970" points="702.5166,-196.0052 708.891,-187.5425 698.6305,-190.1829 702.5166,-196.0052"/>
</g>
<!-- Node35 -->
<g id="node35" class="node">
<title>Node35</title>
<g id="a_node35"><a xlink:title=" ">
<polygon fill="#ffffff" stroke="#bfbfbf" points="667.5,-224.5 667.5,-243.5 754.5,-243.5 754.5,-224.5 667.5,-224.5"/>
<text text-anchor="middle" x="711" y="-231.5" font-family="Helvetica,sans-Serif" font-size="10.00" fill="#000000">QGraphicsView</text>
</a>
</g>
</g>
<!-- Node34&#45;&gt;Node35 -->
<g id="edge46" class="edge">
<title>Node34&#45;&gt;Node35</title>
<path fill="none" stroke="#191970" d="M556.7773,-282.7936C585.5856,-273.6791 635.6795,-257.8302 670.9427,-246.6735"/>
<polygon fill="#191970" stroke="#191970" points="672.4388,-249.8712 680.9172,-243.5177 670.3272,-243.1973 672.4388,-249.8712"/>
</g>
<!-- Node36 -->
<g id="node36" class="node">
<title>Node36</title>
<g id="a_node36"><a xlink:href="tooltipmenu_8h.html" target="_top" xlink:title=" ">
<polygon fill="#ffffff" stroke="#000000" points="87.5,-168.5 87.5,-187.5 162.5,-187.5 162.5,-168.5 87.5,-168.5"/>
<text text-anchor="middle" x="125" y="-175.5" font-family="Helvetica,sans-Serif" font-size="10.00" fill="#000000">tooltipmenu.h</text>
</a>
</g>
</g>
<!-- Node34&#45;&gt;Node36 -->
<g id="edge49" class="edge">
<title>Node34&#45;&gt;Node36</title>
<path fill="none" stroke="#191970" d="M511.4278,-283.8189C446.2679,-265.9756 256.9734,-214.1394 169.8477,-190.281"/>
<polygon fill="#191970" stroke="#191970" points="170.5627,-186.848 159.9933,-187.5825 168.7138,-193.5995 170.5627,-186.848"/>
</g>
<!-- Node36&#45;&gt;Node6 -->
<g id="edge50" class="edge">
<title>Node36&#45;&gt;Node6</title>
<path fill="none" stroke="#191970" d="M162.6214,-173.2151C177.3789,-171.4322 194.469,-169.4834 210,-168 427.3755,-147.238 482.7913,-154.4398 700,-132 712.0263,-130.7576 725.0995,-129.1159 736.9124,-127.5227"/>
<polygon fill="#191970" stroke="#191970" points="737.4817,-130.9774 746.9109,-126.1463 736.527,-124.0428 737.4817,-130.9774"/>
</g>
<!-- Node36&#45;&gt;Node30 -->
<g id="edge51" class="edge">
<title>Node36&#45;&gt;Node30</title>
<path fill="none" stroke="#191970" d="M153.7083,-168.3733C182.5307,-158.7083 226.947,-143.8142 257.6289,-133.5256"/>
<polygon fill="#191970" stroke="#191970" points="259.0968,-136.725 267.4651,-130.2273 256.8712,-130.0882 259.0968,-136.725"/>
</g>
<!-- Node37 -->
<g id="node37" class="node">
<title>Node37</title>
<g id="a_node37"><a xlink:title=" ">
<polygon fill="#ffffff" stroke="#bfbfbf" points="179,-112.5 179,-131.5 249,-131.5 249,-112.5 179,-112.5"/>
<text text-anchor="middle" x="214" y="-119.5" font-family="Helvetica,sans-Serif" font-size="10.00" fill="#000000">QGroupBox</text>
</a>
</g>
</g>
<!-- Node36&#45;&gt;Node37 -->
<g id="edge52" class="edge">
<title>Node36&#45;&gt;Node37</title>
<path fill="none" stroke="#191970" d="M140.5026,-168.2455C154.158,-159.6534 174.2657,-147.0014 189.9989,-137.1018"/>
<polygon fill="#191970" stroke="#191970" points="192.0751,-139.9307 198.675,-131.6427 188.3471,-134.006 192.0751,-139.9307"/>
</g>
<!-- Node38 -->
<g id="node38" class="node">
<title>Node38</title>
<g id="a_node38"><a xlink:title=" ">
<polygon fill="#ffffff" stroke="#bfbfbf" points="87,-112.5 87,-131.5 161,-131.5 161,-112.5 87,-112.5"/>
<text text-anchor="middle" x="124" y="-119.5" font-family="Helvetica,sans-Serif" font-size="10.00" fill="#000000">QGridLayout</text>
</a>
</g>
</g>
<!-- Node36&#45;&gt;Node38 -->
<g id="edge53" class="edge">
<title>Node36&#45;&gt;Node38</title>
<path fill="none" stroke="#191970" d="M124.8258,-168.2455C124.6953,-160.9382 124.5124,-150.6944 124.3519,-141.7046"/>
<polygon fill="#191970" stroke="#191970" points="127.8503,-141.5786 124.1722,-131.6427 120.8514,-141.7036 127.8503,-141.5786"/>
</g>
<!-- Node39&#45;&gt;Node6 -->
<g id="edge55" class="edge">
<title>Node39&#45;&gt;Node6</title>
<path fill="none" stroke="#191970" d="M1052.3162,-224.4313C1019.7239,-211.3367 959.1508,-187.2627 907,-168 875.4086,-156.3312 839.2794,-143.7963 812.815,-134.763"/>
<polygon fill="#191970" stroke="#191970" points="813.7696,-131.3908 803.1751,-131.4815 811.5137,-138.0173 813.7696,-131.3908"/>
</g>
<!-- Node39&#45;&gt;Node7 -->
<g id="edge57" class="edge">
<title>Node39&#45;&gt;Node7</title>
<path fill="none" stroke="#191970" d="M1075.8462,-224.1483C1075.0965,-209.938 1071.6579,-183.6777 1057,-168 1045.764,-155.9823 1008.692,-143.3193 977.4811,-134.3287"/>
<polygon fill="#191970" stroke="#191970" points="978.1681,-130.8861 967.5938,-131.5442 976.2705,-137.624 978.1681,-130.8861"/>
</g>
<!-- Node39&#45;&gt;Node24 -->
<g id="edge59" class="edge">
<title>Node39&#45;&gt;Node24</title>
<path fill="none" stroke="#191970" d="M1066.2455,-224.2455C1058.1352,-216.1352 1046.4075,-204.4075 1036.7919,-194.7919"/>
<polygon fill="#191970" stroke="#191970" points="1039.1887,-192.2389 1029.6427,-187.6427 1034.2389,-197.1887 1039.1887,-192.2389"/>
</g>
<!-- Node39&#45;&gt;Node29 -->
<g id="edge58" class="edge">
<title>Node39&#45;&gt;Node29</title>
<path fill="none" stroke="#191970" d="M1034.8156,-227.4665C968.7335,-216.9832 839.4062,-196.4667 769.8798,-185.437"/>
<polygon fill="#191970" stroke="#191970" points="770.0868,-181.9262 759.6619,-183.816 768.9899,-188.8397 770.0868,-181.9262"/>
</g>
<!-- Node40 -->
<g id="node40" class="node">
<title>Node40</title>
<g id="a_node40"><a xlink:title=" ">
<polygon fill="#ffffff" stroke="#bfbfbf" points="1282.5,-112.5 1282.5,-131.5 1321.5,-131.5 1321.5,-112.5 1282.5,-112.5"/>
<text text-anchor="middle" x="1302" y="-119.5" font-family="Helvetica,sans-Serif" font-size="10.00" fill="#000000">QList</text>
</a>
</g>
</g>
<!-- Node39&#45;&gt;Node40 -->
<g id="edge56" class="edge">
<title>Node39&#45;&gt;Node40</title>
<path fill="none" stroke="#191970" d="M1117.328,-225.9379C1175.9665,-214.3381 1276.9317,-193.7054 1283,-188 1295.599,-176.1545 1300.0207,-156.5476 1301.4868,-141.7753"/>
<polygon fill="#191970" stroke="#191970" points="1304.9902,-141.828 1302.1183,-131.6299 1298.0038,-141.3931 1304.9902,-141.828"/>
</g>
<!-- Node41 -->
<g id="node41" class="node">
<title>Node41</title>
<g id="a_node41"><a xlink:href="point_8h.html" target="_top" xlink:title=" ">
<polygon fill="#ffffff" stroke="#000000" points="1231.5,-56.5 1231.5,-75.5 1276.5,-75.5 1276.5,-56.5 1231.5,-56.5"/>
<text text-anchor="middle" x="1254" y="-63.5" font-family="Helvetica,sans-Serif" font-size="10.00" fill="#000000">point.h</text>
</a>
</g>
</g>
<!-- Node39&#45;&gt;Node41 -->
<g id="edge60" class="edge">
<title>Node39&#45;&gt;Node41</title>
<path fill="none" stroke="#191970" d="M1117.3135,-229.7528C1163.6947,-224.0509 1240.6237,-211.7643 1303,-188 1349.1589,-170.4143 1374.3981,-174.8328 1399,-132 1424.5289,-87.5532 1337.1126,-72.8704 1286.8952,-68.1508"/>
<polygon fill="#191970" stroke="#191970" points="1287.0597,-64.6522 1276.798,-67.2878 1286.4635,-71.6268 1287.0597,-64.6522"/>
</g>
<!-- Node42 -->
<g id="node42" class="node">
<title>Node42</title>
<g id="a_node42"><a xlink:href="animationmovement_8h.html" target="_top" xlink:title=" ">
<polygon fill="#ffffff" stroke="#000000" points="1158.5,-168.5 1158.5,-187.5 1273.5,-187.5 1273.5,-168.5 1158.5,-168.5"/>
<text text-anchor="middle" x="1216" y="-175.5" font-family="Helvetica,sans-Serif" font-size="10.00" fill="#000000">animationmovement.h</text>
</a>
</g>
</g>
<!-- Node39&#45;&gt;Node42 -->
<g id="edge61" class="edge">
<title>Node39&#45;&gt;Node42</title>
<path fill="none" stroke="#191970" d="M1100.0669,-224.3733C1122.8428,-215.2629 1157.2344,-201.5062 1182.649,-191.3404"/>
<polygon fill="#191970" stroke="#191970" points="1184.2623,-194.4648 1192.2472,-187.5011 1181.6625,-187.9654 1184.2623,-194.4648"/>
</g>
<!-- Node42&#45;&gt;Node17 -->
<g id="edge67" class="edge">
<title>Node42&#45;&gt;Node17</title>
<path fill="none" stroke="#191970" d="M1241.614,-168.3733C1266.0687,-159.1822 1303.1054,-145.2624 1330.2209,-135.0713"/>
<polygon fill="#191970" stroke="#191970" points="1331.5909,-138.2956 1339.7202,-131.5011 1329.1281,-131.7431 1331.5909,-138.2956"/>
</g>
<!-- Node42&#45;&gt;Node25 -->
<g id="edge68" class="edge">
<title>Node42&#45;&gt;Node25</title>
<path fill="none" stroke="#191970" d="M1188.8388,-168.3733C1162.7933,-159.1419 1123.2884,-145.1402 1094.5021,-134.9375"/>
<polygon fill="#191970" stroke="#191970" points="1095.4015,-131.5429 1084.8067,-131.5011 1093.063,-138.1408 1095.4015,-131.5429"/>
</g>
<!-- Node42&#45;&gt;Node40 -->
<g id="edge66" class="edge">
<title>Node42&#45;&gt;Node40</title>
<path fill="none" stroke="#191970" d="M1230.9801,-168.2455C1244.1751,-159.6534 1263.6051,-147.0014 1278.8079,-137.1018"/>
<polygon fill="#191970" stroke="#191970" points="1280.7215,-140.0325 1287.1916,-131.6427 1276.9017,-134.1665 1280.7215,-140.0325"/>
</g>
<!-- Node42&#45;&gt;Node41 -->
<g id="edge62" class="edge">
<title>Node42&#45;&gt;Node41</title>
<path fill="none" stroke="#191970" d="M1220.3981,-168.2518C1224.4725,-159.0233 1230.5557,-144.7255 1235,-132 1240.4057,-116.5217 1245.4857,-98.6304 1249.0305,-85.3834"/>
<polygon fill="#191970" stroke="#191970" points="1252.4703,-86.064 1251.6204,-75.5033 1245.699,-84.2889 1252.4703,-86.064"/>
</g>
<!-- Node43 -->
<g id="node43" class="node">
<title>Node43</title>
<g id="a_node43"><a xlink:href="animationentity_8h.html" target="_top" xlink:title=" ">
<polygon fill="#ffffff" stroke="#000000" points="1134.5,-112.5 1134.5,-131.5 1225.5,-131.5 1225.5,-112.5 1134.5,-112.5"/>
<text text-anchor="middle" x="1180" y="-119.5" font-family="Helvetica,sans-Serif" font-size="10.00" fill="#000000">animationentity.h</text>
</a>
</g>
</g>
<!-- Node42&#45;&gt;Node43 -->
<g id="edge63" class="edge">
<title>Node42&#45;&gt;Node43</title>
<path fill="none" stroke="#191970" d="M1209.7293,-168.2455C1204.7736,-160.5367 1197.717,-149.5598 1191.7224,-140.2348"/>
<polygon fill="#191970" stroke="#191970" points="1194.5506,-138.1618 1186.1989,-131.6427 1188.6624,-141.9471 1194.5506,-138.1618"/>
</g>
<!-- Node43&#45;&gt;Node9 -->
<g id="edge64" class="edge">
<title>Node43&#45;&gt;Node9</title>
<path fill="none" stroke="#191970" d="M1164.6716,-112.2455C1151.1697,-103.6534 1131.2878,-91.0014 1115.7314,-81.1018"/>
<polygon fill="#191970" stroke="#191970" points="1117.4685,-78.0587 1107.1528,-75.6427 1113.7103,-83.9643 1117.4685,-78.0587"/>
</g>
<!-- Node43&#45;&gt;Node41 -->
<g id="edge65" class="edge">
<title>Node43&#45;&gt;Node41</title>
<path fill="none" stroke="#191970" d="M1192.8898,-112.2455C1203.9254,-103.8943 1220.0292,-91.7076 1232.9353,-81.9408"/>
<polygon fill="#191970" stroke="#191970" points="1235.3959,-84.4681 1241.2579,-75.6427 1231.1717,-78.8862 1235.3959,-84.4681"/>
</g>
</g>
</svg>
        <g id="navigator" transform="translate(0 0)" fill="#404254">
                <rect fill="#f2f5e9" fill-opacity="0.5" stroke="#606060" stroke-width=".5" x="0" y="0" width="60" height="60"/>
                <use id="zoomplus" xlink:href="#zoomPlus" x="17" y="9" onmousedown="handleZoom(evt,'in')"/>
                <use id="zoomminus" xlink:href="#zoomMin" x="42" y="9" onmousedown="handleZoom(evt,'out')"/>
                <use id="reset" xlink:href="#resetDef" x="30" y="36" onmousedown="handleReset()"/>
                <g id="arrowUp" xlink:href="#dirArrow" transform="translate(30 24)" onmousedown="handlePan(0,-1)">
                  <use xlink:href="#rim" fill="#404040">
                        <set attributeName="fill" to="#808080" begin="arrowUp.mouseover" end="arrowUp.mouseout"/>
                  </use>
                  <path fill="none" stroke="white" stroke-width="1.5" d="M0,-3.0v7 M-2.5,-0.5L0,-3.0L2.5,-0.5"/>
                </g>
                <g id="arrowRight" xlink:href="#dirArrow" transform="rotate(90) translate(36 -43)" onmousedown="handlePan(1,0)">
                  <use xlink:href="#rim" fill="#404040">
                        <set attributeName="fill" to="#808080" begin="arrowRight.mouseover" end="arrowRight.mouseout"/>
                  </use>
                  <path fill="none" stroke="white" stroke-width="1.5" d="M0,-3.0v7 M-2.5,-0.5L0,-3.0L2.5,-0.5"/>
                </g>
                <g id="arrowDown" xlink:href="#dirArrow" transform="rotate(180) translate(-30 -48)" onmousedown="handlePan(0,1)">
                  <use xlink:href="#rim" fill="#404040">
                        <set attributeName="fill" to="#808080" begin="arrowDown.mouseover" end="arrowDown.mouseout"/>
                  </use>
                  <path fill="none" stroke="white" stroke-width="1.5" d="M0,-3.0v7 M-2.5,-0.5L0,-3.0L2.5,-0.5"/>
                </g>
                <g id="arrowLeft" xlink:href="#dirArrow" transform="rotate(270) translate(-36 17)" onmousedown="handlePan(-1,0)">
                  <use xlink:href="#rim" fill="#404040">
                        <set attributeName="fill" to="#808080" begin="arrowLeft.mouseover" end="arrowLeft.mouseout"/>
                  </use>
                  <path fill="none" stroke="white" stroke-width="1.5" d="M0,-3.0v7 M-2.5,-0.5L0,-3.0L2.5,-0.5"/>
                </g>
        </g>
        <svg viewBox="0 0 15 15" width="100%" height="30px" preserveAspectRatio="xMaxYMin meet">
         <g id="arrow_out" transform="scale(0.3 0.3)">
          <a xlink:href="routeinterface_8h__incl_org.svg" target="_base">
           <rect id="button" ry="5" rx="5" y="6" x="6" height="38" width="38"
                fill="#f2f5e9" fill-opacity="0.5" stroke="#606060" stroke-width="1.0"/>
           <path id="arrow"
             d="M 11.500037,31.436501 C 11.940474,20.09759 22.043105,11.32322 32.158766,21.979434 L 37.068811,17.246167 C 37.068811,17.246167 37.088388,32 37.088388,32 L 22.160133,31.978069 C 22.160133,31.978069 26.997745,27.140456 26.997745,27.140456 C 18.528582,18.264221 13.291696,25.230495 11.500037,31.436501 z"
             style="fill:#404040;"/>
          </a>
         </g>
        </svg>
</svg>
