<?xml version="1.0" encoding="UTF-8" standalone="no"?>
<!DOCTYPE svg PUBLIC "-//W3C//DTD SVG 1.1//EN"
 "http://www.w3.org/Graphics/SVG/1.1/DTD/svg11.dtd">
<!-- Generated by graphviz version 2.40.1 (20161225.0304)
 -->
<!-- Title: src/application_server/routeListInterface.h Pages: 1 -->
<!--zoomable 374 -->
<svg id="main" version="1.1" xmlns="http://www.w3.org/2000/svg" xmlns:xlink="http://www.w3.org/1999/xlink" xml:space="preserve" onload="init(evt)">
<style type="text/css"><![CDATA[
.edge:hover path { stroke: red; }
.edge:hover polygon { stroke: red; fill: red; }
]]></style>
<script type="text/javascript"><![CDATA[
var edges = document.getElementsByTagName('g');
if (edges && edges.length) {
  for (var i=0;i<edges.length;i++) {
    if (edges[i].id.substr(0,4)=='edge') {
      edges[i].setAttribute('class','edge');
    }
  }
}
]]></script>
        <defs>
                <circle id="rim" cx="0" cy="0" r="7"/>
                <circle id="rim2" cx="0" cy="0" r="3.5"/>
                <g id="zoomPlus">
                        <use xlink:href="#rim" fill="#404040">
                                <set attributeName="fill" to="#808080" begin="zoomplus.mouseover" end="zoomplus.mouseout"/>
                        </use>
                        <path d="M-4,0h8M0,-4v8" fill="none" stroke="white" stroke-width="1.5" pointer-events="none"/>
                </g>
                <g id="zoomMin">
                        <use xlink:href="#rim" fill="#404040">
                                <set attributeName="fill" to="#808080" begin="zoomminus.mouseover" end="zoomminus.mouseout"/>
                        </use>
                        <path d="M-4,0h8" fill="none" stroke="white" stroke-width="1.5" pointer-events="none"/>
                </g>
                <g id="dirArrow">
                        <path fill="none" stroke="white" stroke-width="1.5" d="M0,-3.0v7 M-2.5,-0.5L0,-3.0L2.5,-0.5"/>
                </g>
               <g id="resetDef">
                       <use xlink:href="#rim2" fill="#404040">
                               <set attributeName="fill" to="#808080" begin="reset.mouseover" end="reset.mouseout"/>
                       </use>
               </g>
        </defs>

<script type="text/javascript">
var viewWidth = 782;
var viewHeight = 374;
var sectionId = 'dynsection-1';
</script>
<script xlink:href="svgpan.js"/>
<svg id="graph" class="graph">
<g id="viewport">
<title>src/application_server/routeListInterface.h</title>
<polygon fill="#ffffff" stroke="transparent" points="-4,4 -4,-370 777.5,-370 777.5,4 -4,4"/>
<!-- Node1 -->
<g id="node1" class="node">
<title>Node1</title>
<g id="a_node1"><a xlink:title=" ">
<polygon fill="#bfbfbf" stroke="#000000" points="324.5,-335.5 324.5,-365.5 439.5,-365.5 439.5,-335.5 324.5,-335.5"/>
<text text-anchor="start" x="332.5" y="-353.5" font-family="Helvetica,sans-Serif" font-size="10.00" fill="#000000">src/application_server</text>
<text text-anchor="middle" x="382" y="-342.5" font-family="Helvetica,sans-Serif" font-size="10.00" fill="#000000">/routeListInterface.h</text>
</a>
</g>
</g>
<!-- Node2 -->
<g id="node2" class="node">
<title>Node2</title>
<g id="a_node2"><a xlink:href="client_8h.html" target="_top" xlink:title=" ">
<polygon fill="#ffffff" stroke="#000000" points="324.5,-268.5 324.5,-298.5 439.5,-298.5 439.5,-268.5 324.5,-268.5"/>
<text text-anchor="start" x="332.5" y="-286.5" font-family="Helvetica,sans-Serif" font-size="10.00" fill="#000000">src/application_server</text>
<text text-anchor="middle" x="382" y="-275.5" font-family="Helvetica,sans-Serif" font-size="10.00" fill="#000000">/client.h</text>
</a>
</g>
</g>
<!-- Node1&#45;&gt;Node2 -->
<g id="edge1" class="edge">
<title>Node1&#45;&gt;Node2</title>
<path fill="none" stroke="#191970" d="M382,-325.0249C382,-316.128 382,-306.4287 382,-298.6432"/>
<polygon fill="#191970" stroke="#191970" points="378.5001,-325.2966 382,-335.2967 385.5001,-325.2967 378.5001,-325.2966"/>
</g>
<!-- Node3 -->
<g id="node3" class="node">
<title>Node3</title>
<g id="a_node3"><a xlink:href="client_8cpp.html" target="_top" xlink:title=" ">
<polygon fill="#ffffff" stroke="#000000" points="534.5,-.5 534.5,-30.5 649.5,-30.5 649.5,-.5 534.5,-.5"/>
<text text-anchor="start" x="542.5" y="-18.5" font-family="Helvetica,sans-Serif" font-size="10.00" fill="#000000">src/application_server</text>
<text text-anchor="middle" x="592" y="-7.5" font-family="Helvetica,sans-Serif" font-size="10.00" fill="#000000">/client.cpp</text>
</a>
</g>
</g>
<!-- Node1&#45;&gt;Node3 -->
<g id="edge17" class="edge">
<title>Node1&#45;&gt;Node3</title>
<path fill="none" stroke="#191970" d="M449.6442,-343.0497C523.0761,-330.7688 630,-298.7628 630,-216.5 630,-216.5 630,-216.5 630,-149.5 630,-105.0065 610.3691,-55.2478 599.3268,-30.778"/>
<polygon fill="#191970" stroke="#191970" points="448.8481,-339.6321 439.5195,-344.6549 449.9443,-346.5458 448.8481,-339.6321"/>
</g>
<!-- Node5 -->
<g id="node5" class="node">
<title>Node5</title>
<g id="a_node5"><a xlink:href="main_8cpp.html" target="_top" xlink:title=" ">
<polygon fill="#ffffff" stroke="#000000" points="152.5,-.5 152.5,-30.5 267.5,-30.5 267.5,-.5 152.5,-.5"/>
<text text-anchor="start" x="160.5" y="-18.5" font-family="Helvetica,sans-Serif" font-size="10.00" fill="#000000">src/application_server</text>
<text text-anchor="middle" x="210" y="-7.5" font-family="Helvetica,sans-Serif" font-size="10.00" fill="#000000">/main.cpp</text>
</a>
</g>
</g>
<!-- Node1&#45;&gt;Node5 -->
<g id="edge18" class="edge">
<title>Node1&#45;&gt;Node5</title>
<path fill="none" stroke="#191970" d="M314.4093,-340.9766C204.7015,-323.5999 0,-282.3536 0,-216.5 0,-216.5 0,-216.5 0,-149.5 0,-76.9509 90.1705,-41.9434 152.3388,-26.4289"/>
<polygon fill="#191970" stroke="#191970" points="313.9772,-344.4514 324.3971,-342.5343 315.0559,-337.535 313.9772,-344.4514"/>
</g>
<!-- Node7 -->
<g id="node7" class="node">
<title>Node7</title>
<g id="a_node7"><a xlink:href="menubar_8h.html" target="_top" xlink:title=" ">
<polygon fill="#ffffff" stroke="#000000" points="238.5,-134.5 238.5,-164.5 353.5,-164.5 353.5,-134.5 238.5,-134.5"/>
<text text-anchor="start" x="246.5" y="-152.5" font-family="Helvetica,sans-Serif" font-size="10.00" fill="#000000">src/application_server</text>
<text text-anchor="middle" x="296" y="-141.5" font-family="Helvetica,sans-Serif" font-size="10.00" fill="#000000">/menubar.h</text>
</a>
</g>
</g>
<!-- Node1&#45;&gt;Node7 -->
<g id="edge16" class="edge">
<title>Node1&#45;&gt;Node7</title>
<path fill="none" stroke="#191970" d="M344.5617,-329.7173C333.2823,-321.6027 322.0405,-311.2698 315,-299 289.9988,-255.4292 291.8119,-193.1209 294.281,-164.6899"/>
<polygon fill="#191970" stroke="#191970" points="342.8762,-332.8019 353.1256,-335.4854 346.7868,-326.996 342.8762,-332.8019"/>
</g>
<!-- Node12 -->
<g id="node12" class="node">
<title>Node12</title>
<g id="a_node12"><a xlink:href="routelistinterface_8cpp.html" target="_top" xlink:title=" ">
<polygon fill="#ffffff" stroke="#000000" points="658.5,-268.5 658.5,-298.5 773.5,-298.5 773.5,-268.5 658.5,-268.5"/>
<text text-anchor="start" x="666.5" y="-286.5" font-family="Helvetica,sans-Serif" font-size="10.00" fill="#000000">src/application_server</text>
<text text-anchor="middle" x="716" y="-275.5" font-family="Helvetica,sans-Serif" font-size="10.00" fill="#000000">/routelistinterface.cpp</text>
</a>
</g>
</g>
<!-- Node1&#45;&gt;Node12 -->
<g id="edge19" class="edge">
<title>Node1&#45;&gt;Node12</title>
<path fill="none" stroke="#191970" d="M449.5076,-337.5757C502.459,-327.3547 577.9915,-312.5914 644,-299 648.6338,-298.0459 653.4321,-297.0438 658.2506,-296.0275"/>
<polygon fill="#191970" stroke="#191970" points="448.7161,-334.1638 439.5596,-339.4937 450.0414,-341.0372 448.7161,-334.1638"/>
</g>
<!-- Node2&#45;&gt;Node3 -->
<g id="edge2" class="edge">
<title>Node2&#45;&gt;Node3</title>
<path fill="none" stroke="#191970" d="M447.7587,-264.8494C468.1782,-256.9413 489.8139,-246.1919 507,-232 571.2961,-178.9059 587.1714,-70.5977 590.9068,-30.6979"/>
<polygon fill="#191970" stroke="#191970" points="446.3362,-261.6437 438.1712,-268.3953 448.7644,-268.2091 446.3362,-261.6437"/>
</g>
<!-- Node4 -->
<g id="node4" class="node">
<title>Node4</title>
<g id="a_node4"><a xlink:href="main_8h.html" target="_top" xlink:title=" ">
<polygon fill="#ffffff" stroke="#000000" points="429.5,-67.5 429.5,-97.5 544.5,-97.5 544.5,-67.5 429.5,-67.5"/>
<text text-anchor="start" x="437.5" y="-85.5" font-family="Helvetica,sans-Serif" font-size="10.00" fill="#000000">src/application_server</text>
<text text-anchor="middle" x="487" y="-74.5" font-family="Helvetica,sans-Serif" font-size="10.00" fill="#000000">/main.h</text>
</a>
</g>
</g>
<!-- Node2&#45;&gt;Node4 -->
<g id="edge3" class="edge">
<title>Node2&#45;&gt;Node4</title>
<path fill="none" stroke="#191970" d="M425.3594,-263.8141C462.1175,-244.4809 512.3636,-211.1639 535,-165 541.0659,-152.6294 540.0479,-146.8197 535,-134 529.3577,-119.6707 517.6416,-106.971 507.1974,-97.768"/>
<polygon fill="#191970" stroke="#191970" points="423.6425,-260.7608 416.3298,-268.4273 426.8273,-266.9944 423.6425,-260.7608"/>
</g>
<!-- Node6 -->
<g id="node6" class="node">
<title>Node6</title>
<g id="a_node6"><a xlink:href="routeinterface_8h.html" target="_top" xlink:title=" ">
<polygon fill="#ffffff" stroke="#000000" points="324.5,-201.5 324.5,-231.5 439.5,-231.5 439.5,-201.5 324.5,-201.5"/>
<text text-anchor="start" x="332.5" y="-219.5" font-family="Helvetica,sans-Serif" font-size="10.00" fill="#000000">src/application_server</text>
<text text-anchor="middle" x="382" y="-208.5" font-family="Helvetica,sans-Serif" font-size="10.00" fill="#000000">/routeinterface.h</text>
</a>
</g>
</g>
<!-- Node2&#45;&gt;Node6 -->
<g id="edge6" class="edge">
<title>Node2&#45;&gt;Node6</title>
<path fill="none" stroke="#191970" d="M382,-258.0249C382,-249.128 382,-239.4287 382,-231.6432"/>
<polygon fill="#191970" stroke="#191970" points="378.5001,-258.2966 382,-268.2967 385.5001,-258.2967 378.5001,-258.2966"/>
</g>
<!-- Node8 -->
<g id="node8" class="node">
<title>Node8</title>
<g id="a_node8"><a xlink:href="menubar_8cpp.html" target="_top" xlink:title=" ">
<polygon fill="#ffffff" stroke="#000000" points="195.5,-67.5 195.5,-97.5 310.5,-97.5 310.5,-67.5 195.5,-67.5"/>
<text text-anchor="start" x="203.5" y="-85.5" font-family="Helvetica,sans-Serif" font-size="10.00" fill="#000000">src/application_server</text>
<text text-anchor="middle" x="253" y="-74.5" font-family="Helvetica,sans-Serif" font-size="10.00" fill="#000000">/menubar.cpp</text>
</a>
</g>
</g>
<!-- Node2&#45;&gt;Node8 -->
<g id="edge15" class="edge">
<title>Node2&#45;&gt;Node8</title>
<path fill="none" stroke="#191970" d="M338.6087,-263.8297C301.8297,-244.5068 251.5707,-211.1961 229,-165 218.1299,-142.7518 231.4482,-114.6679 242.1562,-97.6711"/>
<polygon fill="#191970" stroke="#191970" points="337.1456,-267.0124 347.6438,-268.4402 340.3274,-260.7773 337.1456,-267.0124"/>
</g>
<!-- Node10 -->
<g id="node10" class="node">
<title>Node10</title>
<g id="a_node10"><a xlink:href="gameloop_8h.html" target="_top" xlink:title=" ">
<polygon fill="#ffffff" stroke="#000000" points="66.5,-201.5 66.5,-231.5 181.5,-231.5 181.5,-201.5 66.5,-201.5"/>
<text text-anchor="start" x="74.5" y="-219.5" font-family="Helvetica,sans-Serif" font-size="10.00" fill="#000000">src/application_server</text>
<text text-anchor="middle" x="124" y="-208.5" font-family="Helvetica,sans-Serif" font-size="10.00" fill="#000000">/gameloop.h</text>
</a>
</g>
</g>
<!-- Node2&#45;&gt;Node10 -->
<g id="edge12" class="edge">
<title>Node2&#45;&gt;Node10</title>
<path fill="none" stroke="#191970" d="M314.7267,-266.0298C273.4851,-255.3198 221.2299,-241.7496 181.8488,-231.5227"/>
<polygon fill="#191970" stroke="#191970" points="313.8622,-269.4213 324.4209,-268.5473 315.6217,-262.646 313.8622,-269.4213"/>
</g>
<!-- Node4&#45;&gt;Node3 -->
<g id="edge4" class="edge">
<title>Node4&#45;&gt;Node3</title>
<path fill="none" stroke="#191970" d="M519.0076,-62.0761C534.8339,-51.9774 553.6071,-39.9983 568.1513,-30.7177"/>
<polygon fill="#191970" stroke="#191970" points="517.1113,-59.1342 510.564,-67.4639 520.8768,-65.0352 517.1113,-59.1342"/>
</g>
<!-- Node4&#45;&gt;Node5 -->
<g id="edge5" class="edge">
<title>Node4&#45;&gt;Node5</title>
<path fill="none" stroke="#191970" d="M419.2868,-66.1217C372.8164,-54.8816 311.8053,-40.1244 267.6568,-29.4459"/>
<polygon fill="#191970" stroke="#191970" points="418.7263,-69.587 429.2689,-68.5362 420.372,-62.7832 418.7263,-69.587"/>
</g>
<!-- Node6&#45;&gt;Node5 -->
<g id="edge10" class="edge">
<title>Node6&#45;&gt;Node5</title>
<path fill="none" stroke="#191970" d="M378.2942,-191.3863C372.0456,-158.0812 356.2324,-99.7081 319,-67 300.8389,-51.0458 276.8778,-39.0046 256.047,-30.5931"/>
<polygon fill="#191970" stroke="#191970" points="374.8479,-191.9979 380.0019,-201.2546 381.7454,-190.8042 374.8479,-191.9979"/>
</g>
<!-- Node6&#45;&gt;Node7 -->
<g id="edge7" class="edge">
<title>Node6&#45;&gt;Node7</title>
<path fill="none" stroke="#191970" d="M354.4855,-195.0643C341.7696,-185.1577 326.9684,-173.6265 315.4375,-164.6432"/>
<polygon fill="#191970" stroke="#191970" points="352.4456,-197.9119 362.4853,-201.2967 356.7477,-192.3899 352.4456,-197.9119"/>
</g>
<!-- Node9 -->
<g id="node9" class="node">
<title>Node9</title>
<g id="a_node9"><a xlink:href="routeinterface_8cpp.html" target="_top" xlink:title=" ">
<polygon fill="#ffffff" stroke="#000000" points="410.5,-134.5 410.5,-164.5 525.5,-164.5 525.5,-134.5 410.5,-134.5"/>
<text text-anchor="start" x="418.5" y="-152.5" font-family="Helvetica,sans-Serif" font-size="10.00" fill="#000000">src/application_server</text>
<text text-anchor="middle" x="468" y="-141.5" font-family="Helvetica,sans-Serif" font-size="10.00" fill="#000000">/routeinterface.cpp</text>
</a>
</g>
</g>
<!-- Node6&#45;&gt;Node9 -->
<g id="edge11" class="edge">
<title>Node6&#45;&gt;Node9</title>
<path fill="none" stroke="#191970" d="M409.5145,-195.0643C422.2304,-185.1577 437.0316,-173.6265 448.5625,-164.6432"/>
<polygon fill="#191970" stroke="#191970" points="407.2523,-192.3899 401.5147,-201.2967 411.5544,-197.9119 407.2523,-192.3899"/>
</g>
<!-- Node7&#45;&gt;Node4 -->
<g id="edge8" class="edge">
<title>Node7&#45;&gt;Node4</title>
<path fill="none" stroke="#191970" d="M348.3419,-131.1392C378.3771,-120.6033 415.6245,-107.5375 443.9489,-97.6017"/>
<polygon fill="#191970" stroke="#191970" points="347.1418,-127.851 338.8641,-134.4639 349.459,-134.4564 347.1418,-127.851"/>
</g>
<!-- Node7&#45;&gt;Node8 -->
<g id="edge9" class="edge">
<title>Node7&#45;&gt;Node8</title>
<path fill="none" stroke="#191970" d="M280.7725,-125.7735C274.7666,-116.4154 268.0449,-105.9421 262.7188,-97.6432"/>
<polygon fill="#191970" stroke="#191970" points="277.8958,-127.7712 286.2426,-134.2967 283.7869,-123.9903 277.8958,-127.7712"/>
</g>
<!-- Node10&#45;&gt;Node5 -->
<g id="edge14" class="edge">
<title>Node10&#45;&gt;Node5</title>
<path fill="none" stroke="#191970" d="M85.0797,-195.8045C73.9346,-187.781 63.1481,-177.4802 57,-165 50.9114,-152.6405 50.9341,-146.3706 57,-134 81.5547,-83.9239 138.5971,-48.9644 175.6702,-30.5727"/>
<polygon fill="#191970" stroke="#191970" points="83.3413,-198.8523 93.6014,-201.4946 87.2285,-193.0307 83.3413,-198.8523"/>
</g>
<!-- Node11 -->
<g id="node11" class="node">
<title>Node11</title>
<g id="a_node11"><a xlink:href="gameloop_8cpp.html" target="_top" xlink:title=" ">
<polygon fill="#ffffff" stroke="#000000" points="66.5,-134.5 66.5,-164.5 181.5,-164.5 181.5,-134.5 66.5,-134.5"/>
<text text-anchor="start" x="74.5" y="-152.5" font-family="Helvetica,sans-Serif" font-size="10.00" fill="#000000">src/application_server</text>
<text text-anchor="middle" x="124" y="-141.5" font-family="Helvetica,sans-Serif" font-size="10.00" fill="#000000">/gameloop.cpp</text>
</a>
</g>
</g>
<!-- Node10&#45;&gt;Node11 -->
<g id="edge13" class="edge">
<title>Node10&#45;&gt;Node11</title>
<path fill="none" stroke="#191970" d="M124,-191.0249C124,-182.128 124,-172.4287 124,-164.6432"/>
<polygon fill="#191970" stroke="#191970" points="120.5001,-191.2966 124,-201.2967 127.5001,-191.2967 120.5001,-191.2966"/>
</g>
</g>
</svg>
        <g id="navigator" transform="translate(0 0)" fill="#404254">
                <rect fill="#f2f5e9" fill-opacity="0.5" stroke="#606060" stroke-width=".5" x="0" y="0" width="60" height="60"/>
                <use id="zoomplus" xlink:href="#zoomPlus" x="17" y="9" onmousedown="handleZoom(evt,'in')"/>
                <use id="zoomminus" xlink:href="#zoomMin" x="42" y="9" onmousedown="handleZoom(evt,'out')"/>
                <use id="reset" xlink:href="#resetDef" x="30" y="36" onmousedown="handleReset()"/>
                <g id="arrowUp" xlink:href="#dirArrow" transform="translate(30 24)" onmousedown="handlePan(0,-1)">
                  <use xlink:href="#rim" fill="#404040">
                        <set attributeName="fill" to="#808080" begin="arrowUp.mouseover" end="arrowUp.mouseout"/>
                  </use>
                  <path fill="none" stroke="white" stroke-width="1.5" d="M0,-3.0v7 M-2.5,-0.5L0,-3.0L2.5,-0.5"/>
                </g>
                <g id="arrowRight" xlink:href="#dirArrow" transform="rotate(90) translate(36 -43)" onmousedown="handlePan(1,0)">
                  <use xlink:href="#rim" fill="#404040">
                        <set attributeName="fill" to="#808080" begin="arrowRight.mouseover" end="arrowRight.mouseout"/>
                  </use>
                  <path fill="none" stroke="white" stroke-width="1.5" d="M0,-3.0v7 M-2.5,-0.5L0,-3.0L2.5,-0.5"/>
                </g>
                <g id="arrowDown" xlink:href="#dirArrow" transform="rotate(180) translate(-30 -48)" onmousedown="handlePan(0,1)">
                  <use xlink:href="#rim" fill="#404040">
                        <set attributeName="fill" to="#808080" begin="arrowDown.mouseover" end="arrowDown.mouseout"/>
                  </use>
                  <path fill="none" stroke="white" stroke-width="1.5" d="M0,-3.0v7 M-2.5,-0.5L0,-3.0L2.5,-0.5"/>
                </g>
                <g id="arrowLeft" xlink:href="#dirArrow" transform="rotate(270) translate(-36 17)" onmousedown="handlePan(-1,0)">
                  <use xlink:href="#rim" fill="#404040">
                        <set attributeName="fill" to="#808080" begin="arrowLeft.mouseover" end="arrowLeft.mouseout"/>
                  </use>
                  <path fill="none" stroke="white" stroke-width="1.5" d="M0,-3.0v7 M-2.5,-0.5L0,-3.0L2.5,-0.5"/>
                </g>
        </g>
        <svg viewBox="0 0 15 15" width="100%" height="30px" preserveAspectRatio="xMaxYMin meet">
         <g id="arrow_out" transform="scale(0.3 0.3)">
          <a xlink:href="routeListInterface_8h__dep__incl_org.svg" target="_base">
           <rect id="button" ry="5" rx="5" y="6" x="6" height="38" width="38"
                fill="#f2f5e9" fill-opacity="0.5" stroke="#606060" stroke-width="1.0"/>
           <path id="arrow"
             d="M 11.500037,31.436501 C 11.940474,20.09759 22.043105,11.32322 32.158766,21.979434 L 37.068811,17.246167 C 37.068811,17.246167 37.088388,32 37.088388,32 L 22.160133,31.978069 C 22.160133,31.978069 26.997745,27.140456 26.997745,27.140456 C 18.528582,18.264221 13.291696,25.230495 11.500037,31.436501 z"
             style="fill:#404040;"/>
          </a>
         </g>
        </svg>
</svg>
