<?xml version="1.0" encoding="UTF-8" standalone="no"?>
<!DOCTYPE svg PUBLIC "-//W3C//DTD SVG 1.1//EN"
 "http://www.w3.org/Graphics/SVG/1.1/DTD/svg11.dtd">
<!-- Generated by graphviz version 2.40.1 (20161225.0304)
 -->
<!-- Title: src/application_server/routeinterface.cpp Pages: 1 -->
<svg width="800pt" height="263pt"
 viewBox="0.00 0.00 800.00 263.00" xmlns="http://www.w3.org/2000/svg" xmlns:xlink="http://www.w3.org/1999/xlink">
<g id="graph0" class="graph" transform="scale(1 1) rotate(0) translate(4 259)">
<title>src/application_server/routeinterface.cpp</title>
<polygon fill="#ffffff" stroke="transparent" points="-4,4 -4,-259 796,-259 796,4 -4,4"/>
<!-- Node1 -->
<g id="node1" class="node">
<title>Node1</title>
<g id="a_node1"><a xlink:title=" ">
<polygon fill="#bfbfbf" stroke="#000000" points="417.5,-224.5 417.5,-254.5 532.5,-254.5 532.5,-224.5 417.5,-224.5"/>
<text text-anchor="start" x="425.5" y="-242.5" font-family="Helvetica,sans-Serif" font-size="10.00" fill="#000000">src/application_server</text>
<text text-anchor="middle" x="475" y="-231.5" font-family="Helvetica,sans-Serif" font-size="10.00" fill="#000000">/routeinterface.cpp</text>
</a>
</g>
</g>
<!-- Node2 -->
<g id="node2" class="node">
<title>Node2</title>
<g id="a_node2"><a xlink:href="routeinterface_8h.html" target="_top" xlink:title=" ">
<polygon fill="#ffffff" stroke="#000000" points="187.5,-168.5 187.5,-187.5 272.5,-187.5 272.5,-168.5 187.5,-168.5"/>
<text text-anchor="middle" x="230" y="-175.5" font-family="Helvetica,sans-Serif" font-size="10.00" fill="#000000">routeinterface.h</text>
</a>
</g>
</g>
<!-- Node1&#45;&gt;Node2 -->
<g id="edge1" class="edge">
<title>Node1&#45;&gt;Node2</title>
<path fill="none" stroke="#191970" d="M417.2487,-225.0032C374.7325,-214.3308 317.6136,-199.9928 277.6833,-189.9695"/>
<polygon fill="#191970" stroke="#191970" points="278.4725,-186.5591 267.9212,-187.519 276.7682,-193.3484 278.4725,-186.5591"/>
</g>
<!-- Node12 -->
<g id="node12" class="node">
<title>Node12</title>
<g id="a_node12"><a xlink:title=" ">
<polygon fill="#ffffff" stroke="#bfbfbf" points="291,-168.5 291,-187.5 345,-187.5 345,-168.5 291,-168.5"/>
<text text-anchor="middle" x="318" y="-175.5" font-family="Helvetica,sans-Serif" font-size="10.00" fill="#000000">QCursor</text>
</a>
</g>
</g>
<!-- Node1&#45;&gt;Node12 -->
<g id="edge13" class="edge">
<title>Node1&#45;&gt;Node12</title>
<path fill="none" stroke="#191970" d="M436.5935,-224.4554C410.6274,-214.284 376.661,-200.9787 351.737,-191.2155"/>
<polygon fill="#191970" stroke="#191970" points="352.9171,-187.9188 342.3294,-187.5303 350.364,-194.4366 352.9171,-187.9188"/>
</g>
<!-- Node13 -->
<g id="node13" class="node">
<title>Node13</title>
<g id="a_node13"><a xlink:title=" ">
<polygon fill="#ffffff" stroke="#bfbfbf" points="363,-168.5 363,-187.5 417,-187.5 417,-168.5 363,-168.5"/>
<text text-anchor="middle" x="390" y="-175.5" font-family="Helvetica,sans-Serif" font-size="10.00" fill="#000000">QDebug</text>
</a>
</g>
</g>
<!-- Node1&#45;&gt;Node13 -->
<g id="edge14" class="edge">
<title>Node1&#45;&gt;Node13</title>
<path fill="none" stroke="#191970" d="M453.9888,-224.2977C441.2066,-215.0495 424.9054,-203.2551 411.9552,-193.8853"/>
<polygon fill="#191970" stroke="#191970" points="413.763,-190.8732 403.6096,-187.8469 409.6597,-196.5445 413.763,-190.8732"/>
</g>
<!-- Node14 -->
<g id="node14" class="node">
<title>Node14</title>
<g id="a_node14"><a xlink:title=" ">
<polygon fill="#ffffff" stroke="#bfbfbf" points="435.5,-168.5 435.5,-187.5 514.5,-187.5 514.5,-168.5 435.5,-168.5"/>
<text text-anchor="middle" x="475" y="-175.5" font-family="Helvetica,sans-Serif" font-size="10.00" fill="#000000">QHBoxLayout</text>
</a>
</g>
</g>
<!-- Node1&#45;&gt;Node14 -->
<g id="edge15" class="edge">
<title>Node1&#45;&gt;Node14</title>
<path fill="none" stroke="#191970" d="M475,-224.2977C475,-216.3834 475,-206.6043 475,-198.0759"/>
<polygon fill="#191970" stroke="#191970" points="478.5001,-197.8469 475,-187.8469 471.5001,-197.847 478.5001,-197.8469"/>
</g>
<!-- Node15 -->
<g id="node15" class="node">
<title>Node15</title>
<g id="a_node15"><a xlink:title=" ">
<polygon fill="#ffffff" stroke="#bfbfbf" points="532.5,-168.5 532.5,-187.5 611.5,-187.5 611.5,-168.5 532.5,-168.5"/>
<text text-anchor="middle" x="572" y="-175.5" font-family="Helvetica,sans-Serif" font-size="10.00" fill="#000000">QVBoxLayout</text>
</a>
</g>
</g>
<!-- Node1&#45;&gt;Node15 -->
<g id="edge16" class="edge">
<title>Node1&#45;&gt;Node15</title>
<path fill="none" stroke="#191970" d="M498.9775,-224.2977C513.9376,-214.8127 533.122,-202.6495 548.0726,-193.1705"/>
<polygon fill="#191970" stroke="#191970" points="550.1873,-195.9739 556.7587,-187.6633 546.439,-190.062 550.1873,-195.9739"/>
</g>
<!-- Node16 -->
<g id="node16" class="node">
<title>Node16</title>
<g id="a_node16"><a xlink:title=" ">
<polygon fill="#ffffff" stroke="#bfbfbf" points="630,-168.5 630,-187.5 704,-187.5 704,-168.5 630,-168.5"/>
<text text-anchor="middle" x="667" y="-175.5" font-family="Helvetica,sans-Serif" font-size="10.00" fill="#000000">QPushButton</text>
</a>
</g>
</g>
<!-- Node1&#45;&gt;Node16 -->
<g id="edge17" class="edge">
<title>Node1&#45;&gt;Node16</title>
<path fill="none" stroke="#191970" d="M521.9685,-224.4554C554.2852,-214.104 596.7351,-200.5067 627.3499,-190.7004"/>
<polygon fill="#191970" stroke="#191970" points="628.7911,-193.914 637.2468,-187.5303 626.6557,-187.2477 628.7911,-193.914"/>
</g>
<!-- Node17 -->
<g id="node17" class="node">
<title>Node17</title>
<g id="a_node17"><a xlink:title=" ">
<polygon fill="#ffffff" stroke="#bfbfbf" points="722,-168.5 722,-187.5 792,-187.5 792,-168.5 722,-168.5"/>
<text text-anchor="middle" x="757" y="-175.5" font-family="Helvetica,sans-Serif" font-size="10.00" fill="#000000">QGroupBox</text>
</a>
</g>
</g>
<!-- Node1&#45;&gt;Node17 -->
<g id="edge18" class="edge">
<title>Node1&#45;&gt;Node17</title>
<path fill="none" stroke="#191970" d="M532.7479,-227.1794C578.7079,-217.3336 644.9403,-203.0563 712.0391,-188.1979"/>
<polygon fill="#191970" stroke="#191970" points="712.9377,-191.5838 721.9429,-186.002 711.4223,-184.7498 712.9377,-191.5838"/>
</g>
<!-- Node3 -->
<g id="node3" class="node">
<title>Node3</title>
<g id="a_node3"><a xlink:title=" ">
<polygon fill="#ffffff" stroke="#bfbfbf" points="0,-112.5 0,-131.5 80,-131.5 80,-112.5 0,-112.5"/>
<text text-anchor="middle" x="40" y="-119.5" font-family="Helvetica,sans-Serif" font-size="10.00" fill="#000000">QDockWidget</text>
</a>
</g>
</g>
<!-- Node2&#45;&gt;Node3 -->
<g id="edge2" class="edge">
<title>Node2&#45;&gt;Node3</title>
<path fill="none" stroke="#191970" d="M197.3378,-168.3733C165.4702,-158.9807 116.8469,-144.6496 82.093,-134.4064"/>
<polygon fill="#191970" stroke="#191970" points="82.8175,-130.9711 72.236,-131.5011 80.8385,-137.6855 82.8175,-130.9711"/>
</g>
<!-- Node4 -->
<g id="node4" class="node">
<title>Node4</title>
<g id="a_node4"><a xlink:title=" ">
<polygon fill="#ffffff" stroke="#bfbfbf" points="98.5,-112.5 98.5,-131.5 169.5,-131.5 169.5,-112.5 98.5,-112.5"/>
<text text-anchor="middle" x="134" y="-119.5" font-family="Helvetica,sans-Serif" font-size="10.00" fill="#000000">QListWidget</text>
</a>
</g>
</g>
<!-- Node2&#45;&gt;Node4 -->
<g id="edge3" class="edge">
<title>Node2&#45;&gt;Node4</title>
<path fill="none" stroke="#191970" d="M213.2781,-168.2455C198.4111,-159.5731 176.4534,-146.7645 159.4142,-136.825"/>
<polygon fill="#191970" stroke="#191970" points="160.9317,-133.6582 150.5303,-131.6427 157.4045,-139.7047 160.9317,-133.6582"/>
</g>
<!-- Node5 -->
<g id="node5" class="node">
<title>Node5</title>
<g id="a_node5"><a xlink:href="trainrenderer_8h.html" target="_top" xlink:title=" ">
<polygon fill="#ffffff" stroke="#000000" points="290.5,-112.5 290.5,-131.5 371.5,-131.5 371.5,-112.5 290.5,-112.5"/>
<text text-anchor="middle" x="331" y="-119.5" font-family="Helvetica,sans-Serif" font-size="10.00" fill="#000000">trainrenderer.h</text>
</a>
</g>
</g>
<!-- Node2&#45;&gt;Node5 -->
<g id="edge4" class="edge">
<title>Node2&#45;&gt;Node5</title>
<path fill="none" stroke="#191970" d="M247.5929,-168.2455C263.379,-159.4928 286.7639,-146.527 304.7587,-136.5496"/>
<polygon fill="#191970" stroke="#191970" points="306.5603,-139.5528 313.6087,-131.6427 303.1659,-133.4308 306.5603,-139.5528"/>
</g>
<!-- Node7 -->
<g id="node7" class="node">
<title>Node7</title>
<g id="a_node7"><a xlink:href="graphicsmanager_8h.html" target="_top" xlink:title=" ">
<polygon fill="#ffffff" stroke="#000000" points="313.5,-56.5 313.5,-75.5 416.5,-75.5 416.5,-56.5 313.5,-56.5"/>
<text text-anchor="middle" x="365" y="-63.5" font-family="Helvetica,sans-Serif" font-size="10.00" fill="#000000">graphicsmanager.h</text>
</a>
</g>
</g>
<!-- Node2&#45;&gt;Node7 -->
<g id="edge10" class="edge">
<title>Node2&#45;&gt;Node7</title>
<path fill="none" stroke="#191970" d="M269.974,-168.4251C312.3782,-157.8677 374.2101,-141.1664 381,-132 391.1496,-118.298 384.7248,-99.0132 377.2134,-84.8266"/>
<polygon fill="#191970" stroke="#191970" points="380.0953,-82.8211 372.0299,-75.9509 374.0506,-86.3512 380.0953,-82.8211"/>
</g>
<!-- Node11 -->
<g id="node11" class="node">
<title>Node11</title>
<g id="a_node11"><a xlink:href="goodselector_8h.html" target="_top" xlink:title=" ">
<polygon fill="#ffffff" stroke="#000000" points="188,-112.5 188,-131.5 272,-131.5 272,-112.5 188,-112.5"/>
<text text-anchor="middle" x="230" y="-119.5" font-family="Helvetica,sans-Serif" font-size="10.00" fill="#000000">goodselector.h</text>
</a>
</g>
</g>
<!-- Node2&#45;&gt;Node11 -->
<g id="edge11" class="edge">
<title>Node2&#45;&gt;Node11</title>
<path fill="none" stroke="#191970" d="M230,-168.2455C230,-160.9382 230,-150.6944 230,-141.7046"/>
<polygon fill="#191970" stroke="#191970" points="233.5001,-141.6426 230,-131.6427 226.5001,-141.6427 233.5001,-141.6426"/>
</g>
<!-- Node6 -->
<g id="node6" class="node">
<title>Node6</title>
<g id="a_node6"><a xlink:title=" ">
<polygon fill="#ffffff" stroke="#bfbfbf" points="238,-56.5 238,-75.5 294,-75.5 294,-56.5 238,-56.5"/>
<text text-anchor="middle" x="266" y="-63.5" font-family="Helvetica,sans-Serif" font-size="10.00" fill="#000000">QWidget</text>
</a>
</g>
</g>
<!-- Node5&#45;&gt;Node6 -->
<g id="edge5" class="edge">
<title>Node5&#45;&gt;Node6</title>
<path fill="none" stroke="#191970" d="M319.6779,-112.2455C310.0777,-103.9746 296.1108,-91.9416 284.8305,-82.2232"/>
<polygon fill="#191970" stroke="#191970" points="287.053,-79.5182 277.1924,-75.6427 282.484,-84.8214 287.053,-79.5182"/>
</g>
<!-- Node5&#45;&gt;Node7 -->
<g id="edge6" class="edge">
<title>Node5&#45;&gt;Node7</title>
<path fill="none" stroke="#191970" d="M336.9223,-112.2455C341.6027,-104.5367 348.2673,-93.5598 353.9289,-84.2348"/>
<polygon fill="#191970" stroke="#191970" points="356.9475,-86.007 359.1455,-75.6427 350.9639,-82.3741 356.9475,-86.007"/>
</g>
<!-- Node8 -->
<g id="node8" class="node">
<title>Node8</title>
<g id="a_node8"><a xlink:title=" ">
<polygon fill="#ffffff" stroke="#bfbfbf" points="262,-.5 262,-19.5 320,-19.5 320,-.5 262,-.5"/>
<text text-anchor="middle" x="291" y="-7.5" font-family="Helvetica,sans-Serif" font-size="10.00" fill="#000000">QPixmap</text>
</a>
</g>
</g>
<!-- Node7&#45;&gt;Node8 -->
<g id="edge7" class="edge">
<title>Node7&#45;&gt;Node8</title>
<path fill="none" stroke="#191970" d="M352.1102,-56.2455C341.0746,-47.8943 324.9708,-35.7076 312.0647,-25.9408"/>
<polygon fill="#191970" stroke="#191970" points="313.8283,-22.8862 303.7421,-19.6427 309.6041,-28.4681 313.8283,-22.8862"/>
</g>
<!-- Node9 -->
<g id="node9" class="node">
<title>Node9</title>
<g id="a_node9"><a xlink:title=" ">
<polygon fill="#ffffff" stroke="#bfbfbf" points="338.5,-.5 338.5,-19.5 391.5,-19.5 391.5,-.5 338.5,-.5"/>
<text text-anchor="middle" x="365" y="-7.5" font-family="Helvetica,sans-Serif" font-size="10.00" fill="#000000">QImage</text>
</a>
</g>
</g>
<!-- Node7&#45;&gt;Node9 -->
<g id="edge8" class="edge">
<title>Node7&#45;&gt;Node9</title>
<path fill="none" stroke="#191970" d="M365,-56.2455C365,-48.9382 365,-38.6944 365,-29.7046"/>
<polygon fill="#191970" stroke="#191970" points="368.5001,-29.6426 365,-19.6427 361.5001,-29.6427 368.5001,-29.6426"/>
</g>
<!-- Node10 -->
<g id="node10" class="node">
<title>Node10</title>
<g id="a_node10"><a xlink:title=" ">
<polygon fill="#ffffff" stroke="#bfbfbf" points="409.5,-.5 409.5,-19.5 450.5,-19.5 450.5,-.5 409.5,-.5"/>
<text text-anchor="middle" x="430" y="-7.5" font-family="Helvetica,sans-Serif" font-size="10.00" fill="#000000">string</text>
</a>
</g>
</g>
<!-- Node7&#45;&gt;Node10 -->
<g id="edge9" class="edge">
<title>Node7&#45;&gt;Node10</title>
<path fill="none" stroke="#191970" d="M376.3221,-56.2455C385.9223,-47.9746 399.8892,-35.9416 411.1695,-26.2232"/>
<polygon fill="#191970" stroke="#191970" points="413.516,-28.8214 418.8076,-19.6427 408.947,-23.5182 413.516,-28.8214"/>
</g>
<!-- Node11&#45;&gt;Node6 -->
<g id="edge12" class="edge">
<title>Node11&#45;&gt;Node6</title>
<path fill="none" stroke="#191970" d="M236.2707,-112.2455C241.2264,-104.5367 248.283,-93.5598 254.2776,-84.2348"/>
<polygon fill="#191970" stroke="#191970" points="257.3376,-85.9471 259.8011,-75.6427 251.4494,-82.1618 257.3376,-85.9471"/>
</g>
</g>
</svg>
