<?xml version="1.0" encoding="UTF-8" standalone="no"?>
<!DOCTYPE svg PUBLIC "-//W3C//DTD SVG 1.1//EN"
 "http://www.w3.org/Graphics/SVG/1.1/DTD/svg11.dtd">
<!-- Generated by graphviz version 2.40.1 (20161225.0304)
 -->
<!-- Title: src/application_server/routeinterface.h Pages: 1 -->
<!--zoomable 431 -->
<svg id="main" version="1.1" xmlns="http://www.w3.org/2000/svg" xmlns:xlink="http://www.w3.org/1999/xlink" xml:space="preserve" onload="init(evt)">
<style type="text/css"><![CDATA[
.edge:hover path { stroke: red; }
.edge:hover polygon { stroke: red; fill: red; }
]]></style>
<script type="text/javascript"><![CDATA[
var edges = document.getElementsByTagName('g');
if (edges && edges.length) {
  for (var i=0;i<edges.length;i++) {
    if (edges[i].id.substr(0,4)=='edge') {
      edges[i].setAttribute('class','edge');
    }
  }
}
]]></script>
        <defs>
                <circle id="rim" cx="0" cy="0" r="7"/>
                <circle id="rim2" cx="0" cy="0" r="3.5"/>
                <g id="zoomPlus">
                        <use xlink:href="#rim" fill="#404040">
                                <set attributeName="fill" to="#808080" begin="zoomplus.mouseover" end="zoomplus.mouseout"/>
                        </use>
                        <path d="M-4,0h8M0,-4v8" fill="none" stroke="white" stroke-width="1.5" pointer-events="none"/>
                </g>
                <g id="zoomMin">
                        <use xlink:href="#rim" fill="#404040">
                                <set attributeName="fill" to="#808080" begin="zoomminus.mouseover" end="zoomminus.mouseout"/>
                        </use>
                        <path d="M-4,0h8" fill="none" stroke="white" stroke-width="1.5" pointer-events="none"/>
                </g>
                <g id="dirArrow">
                        <path fill="none" stroke="white" stroke-width="1.5" d="M0,-3.0v7 M-2.5,-0.5L0,-3.0L2.5,-0.5"/>
                </g>
               <g id="resetDef">
                       <use xlink:href="#rim2" fill="#404040">
                               <set attributeName="fill" to="#808080" begin="reset.mouseover" end="reset.mouseout"/>
                       </use>
               </g>
        </defs>

<script type="text/javascript">
var viewWidth = 1769;
var viewHeight = 431;
var sectionId = 'dynsection-0';
</script>
<script xlink:href="svgpan.js"/>
<svg id="graph" class="graph">
<g id="viewport">
<title>src/application_server/routeinterface.h</title>
<polygon fill="#ffffff" stroke="transparent" points="-4,4 -4,-427 1764.9196,-427 1764.9196,4 -4,4"/>
<!-- Node1 -->
<g id="node1" class="node">
<title>Node1</title>
<g id="a_node1"><a xlink:title=" ">
<polygon fill="#bfbfbf" stroke="#000000" points="232.5,-392.5 232.5,-422.5 347.5,-422.5 347.5,-392.5 232.5,-392.5"/>
<text text-anchor="start" x="240.5" y="-410.5" font-family="Helvetica,sans-Serif" font-size="10.00" fill="#000000">src/application_server</text>
<text text-anchor="middle" x="290" y="-399.5" font-family="Helvetica,sans-Serif" font-size="10.00" fill="#000000">/routeinterface.h</text>
</a>
</g>
</g>
<!-- Node2 -->
<g id="node2" class="node">
<title>Node2</title>
<g id="a_node2"><a xlink:title=" ">
<polygon fill="#ffffff" stroke="#bfbfbf" points="0,-336.5 0,-355.5 80,-355.5 80,-336.5 0,-336.5"/>
<text text-anchor="middle" x="40" y="-343.5" font-family="Helvetica,sans-Serif" font-size="10.00" fill="#000000">QDockWidget</text>
</a>
</g>
</g>
<!-- Node1&#45;&gt;Node2 -->
<g id="edge1" class="edge">
<title>Node1&#45;&gt;Node2</title>
<path fill="none" stroke="#191970" d="M232.331,-393.3134C188.769,-382.5972 129.6565,-368.0555 88.509,-357.9332"/>
<polygon fill="#191970" stroke="#191970" points="89.2626,-354.5143 78.716,-355.5241 87.5904,-361.3117 89.2626,-354.5143"/>
</g>
<!-- Node3 -->
<g id="node3" class="node">
<title>Node3</title>
<g id="a_node3"><a xlink:title=" ">
<polygon fill="#ffffff" stroke="#bfbfbf" points="98.5,-336.5 98.5,-355.5 169.5,-355.5 169.5,-336.5 98.5,-336.5"/>
<text text-anchor="middle" x="134" y="-343.5" font-family="Helvetica,sans-Serif" font-size="10.00" fill="#000000">QListWidget</text>
</a>
</g>
</g>
<!-- Node1&#45;&gt;Node3 -->
<g id="edge2" class="edge">
<title>Node1&#45;&gt;Node3</title>
<path fill="none" stroke="#191970" d="M251.8381,-392.4554C226.0374,-382.284 192.2874,-368.9787 167.5222,-359.2155"/>
<polygon fill="#191970" stroke="#191970" points="168.7613,-355.9419 158.1745,-355.5303 166.194,-362.4541 168.7613,-355.9419"/>
</g>
<!-- Node4 -->
<g id="node4" class="node">
<title>Node4</title>
<g id="a_node4"><a xlink:title=" ">
<polygon fill="#ffffff" stroke="#bfbfbf" points="188,-336.5 188,-355.5 262,-355.5 262,-336.5 188,-336.5"/>
<text text-anchor="middle" x="225" y="-343.5" font-family="Helvetica,sans-Serif" font-size="10.00" fill="#000000">QPushButton</text>
</a>
</g>
</g>
<!-- Node1&#45;&gt;Node4 -->
<g id="edge3" class="edge">
<title>Node1&#45;&gt;Node4</title>
<path fill="none" stroke="#191970" d="M273.9326,-392.2977C264.534,-383.4052 252.6473,-372.1586 242.943,-362.9769"/>
<polygon fill="#191970" stroke="#191970" points="245.0768,-360.1774 235.4073,-355.8469 240.2658,-365.2621 245.0768,-360.1774"/>
</g>
<!-- Node5 -->
<g id="node5" class="node">
<title>Node5</title>
<g id="a_node5"><a xlink:href="trainrenderer_8h.html" target="_top" xlink:title=" ">
<polygon fill="#ffffff" stroke="#000000" points="432.5,-168.5 432.5,-187.5 513.5,-187.5 513.5,-168.5 432.5,-168.5"/>
<text text-anchor="middle" x="473" y="-175.5" font-family="Helvetica,sans-Serif" font-size="10.00" fill="#000000">trainrenderer.h</text>
</a>
</g>
</g>
<!-- Node1&#45;&gt;Node5 -->
<g id="edge4" class="edge">
<title>Node1&#45;&gt;Node5</title>
<path fill="none" stroke="#191970" d="M302.0071,-392.4419C334.4419,-351.7655 423.7247,-239.7961 458.6904,-195.9456"/>
<polygon fill="#191970" stroke="#191970" points="461.6094,-197.8989 465.1074,-187.8981 456.1363,-193.5347 461.6094,-197.8989"/>
</g>
<!-- Node7 -->
<g id="node7" class="node">
<title>Node7</title>
<g id="a_node7"><a xlink:href="graphicsmanager_8h.html" target="_top" xlink:title=" ">
<polygon fill="#ffffff" stroke="#000000" points="815.5,-112.5 815.5,-131.5 918.5,-131.5 918.5,-112.5 815.5,-112.5"/>
<text text-anchor="middle" x="867" y="-119.5" font-family="Helvetica,sans-Serif" font-size="10.00" fill="#000000">graphicsmanager.h</text>
</a>
</g>
</g>
<!-- Node1&#45;&gt;Node7 -->
<g id="edge10" class="edge">
<title>Node1&#45;&gt;Node7</title>
<path fill="none" stroke="#191970" d="M290,-392.2899C290,-369.892 290,-326.7188 290,-290 290,-290 290,-290 290,-234 290,-171.1759 354.8644,-186.1818 415,-168 486.3335,-146.4326 698.6188,-131.6422 804.9147,-125.3746"/>
<polygon fill="#191970" stroke="#191970" points="805.3924,-128.8528 815.1719,-124.7769 804.9852,-121.8646 805.3924,-128.8528"/>
</g>
<!-- Node11 -->
<g id="node11" class="node">
<title>Node11</title>
<g id="a_node11"><a xlink:href="goodselector_8h.html" target="_top" xlink:title=" ">
<polygon fill="#ffffff" stroke="#000000" points="474,-224.5 474,-243.5 558,-243.5 558,-224.5 474,-224.5"/>
<text text-anchor="middle" x="516" y="-231.5" font-family="Helvetica,sans-Serif" font-size="10.00" fill="#000000">goodselector.h</text>
</a>
</g>
</g>
<!-- Node1&#45;&gt;Node11 -->
<g id="edge11" class="edge">
<title>Node1&#45;&gt;Node11</title>
<path fill="none" stroke="#191970" d="M341.4525,-392.403C364.95,-383.9907 392.3092,-371.9499 414,-356 454.0148,-326.5759 488.1628,-278.2558 504.9278,-252.13"/>
<polygon fill="#191970" stroke="#191970" points="507.9401,-253.9144 510.2966,-243.585 502.0129,-250.1904 507.9401,-253.9144"/>
</g>
<!-- Node12 -->
<g id="node12" class="node">
<title>Node12</title>
<g id="a_node12"><a xlink:href="client_8h.html" target="_top" xlink:title=" ">
<polygon fill="#ffffff" stroke="#000000" points="1119.5,-336.5 1119.5,-355.5 1166.5,-355.5 1166.5,-336.5 1119.5,-336.5"/>
<text text-anchor="middle" x="1143" y="-343.5" font-family="Helvetica,sans-Serif" font-size="10.00" fill="#000000">client.h</text>
</a>
</g>
</g>
<!-- Node1&#45;&gt;Node12 -->
<g id="edge13" class="edge">
<title>Node1&#45;&gt;Node12</title>
<path fill="none" stroke="#191970" d="M347.6255,-403.3453C511.9833,-391.4953 979.5425,-357.785 1109.2611,-348.4325"/>
<polygon fill="#191970" stroke="#191970" points="1109.6635,-351.9127 1119.3859,-347.7025 1109.1601,-344.9308 1109.6635,-351.9127"/>
</g>
<!-- Node6 -->
<g id="node6" class="node">
<title>Node6</title>
<g id="a_node6"><a xlink:title=" ">
<polygon fill="#ffffff" stroke="#bfbfbf" points="937,-112.5 937,-131.5 993,-131.5 993,-112.5 937,-112.5"/>
<text text-anchor="middle" x="965" y="-119.5" font-family="Helvetica,sans-Serif" font-size="10.00" fill="#000000">QWidget</text>
</a>
</g>
</g>
<!-- Node5&#45;&gt;Node6 -->
<g id="edge5" class="edge">
<title>Node5&#45;&gt;Node6</title>
<path fill="none" stroke="#191970" d="M513.7821,-170.1628C518.5651,-169.369 523.3838,-168.6261 528,-168 701.6814,-144.4439 750.5327,-162.7181 926.9635,-131.9066"/>
<polygon fill="#191970" stroke="#191970" points="927.5982,-135.3488 936.8329,-130.1555 926.3752,-128.4564 927.5982,-135.3488"/>
</g>
<!-- Node5&#45;&gt;Node7 -->
<g id="edge6" class="edge">
<title>Node5&#45;&gt;Node7</title>
<path fill="none" stroke="#191970" d="M513.5138,-170.4206C518.3894,-169.5716 523.3032,-168.7453 528,-168 624.6656,-152.6617 737.3516,-138.0095 805.378,-129.5157"/>
<polygon fill="#191970" stroke="#191970" points="806.0018,-132.9652 815.493,-128.2571 805.1373,-126.0188 806.0018,-132.9652"/>
</g>
<!-- Node8 -->
<g id="node8" class="node">
<title>Node8</title>
<g id="a_node8"><a xlink:title=" ">
<polygon fill="#ffffff" stroke="#bfbfbf" points="838,-56.5 838,-75.5 896,-75.5 896,-56.5 838,-56.5"/>
<text text-anchor="middle" x="867" y="-63.5" font-family="Helvetica,sans-Serif" font-size="10.00" fill="#000000">QPixmap</text>
</a>
</g>
</g>
<!-- Node7&#45;&gt;Node8 -->
<g id="edge7" class="edge">
<title>Node7&#45;&gt;Node8</title>
<path fill="none" stroke="#191970" d="M867,-112.2455C867,-104.9382 867,-94.6944 867,-85.7046"/>
<polygon fill="#191970" stroke="#191970" points="870.5001,-85.6426 867,-75.6427 863.5001,-85.6427 870.5001,-85.6426"/>
</g>
<!-- Node9 -->
<g id="node9" class="node">
<title>Node9</title>
<g id="a_node9"><a xlink:title=" ">
<polygon fill="#ffffff" stroke="#bfbfbf" points="1467.5,-56.5 1467.5,-75.5 1520.5,-75.5 1520.5,-56.5 1467.5,-56.5"/>
<text text-anchor="middle" x="1494" y="-63.5" font-family="Helvetica,sans-Serif" font-size="10.00" fill="#000000">QImage</text>
</a>
</g>
</g>
<!-- Node7&#45;&gt;Node9 -->
<g id="edge8" class="edge">
<title>Node7&#45;&gt;Node9</title>
<path fill="none" stroke="#191970" d="M918.5423,-113.2478C921.7388,-112.7989 924.9109,-112.3781 928,-112 1031.2273,-99.3653 1348.7233,-76.3136 1457.2127,-68.5958"/>
<polygon fill="#191970" stroke="#191970" points="1457.6128,-72.0763 1467.3398,-67.8768 1457.117,-65.0939 1457.6128,-72.0763"/>
</g>
<!-- Node10 -->
<g id="node10" class="node">
<title>Node10</title>
<g id="a_node10"><a xlink:title=" ">
<polygon fill="#ffffff" stroke="#bfbfbf" points="1000.5,-56.5 1000.5,-75.5 1041.5,-75.5 1041.5,-56.5 1000.5,-56.5"/>
<text text-anchor="middle" x="1021" y="-63.5" font-family="Helvetica,sans-Serif" font-size="10.00" fill="#000000">string</text>
</a>
</g>
</g>
<!-- Node7&#45;&gt;Node10 -->
<g id="edge9" class="edge">
<title>Node7&#45;&gt;Node10</title>
<path fill="none" stroke="#191970" d="M893.4735,-112.3733C920.5521,-102.5265 962.5567,-87.2521 990.8872,-76.9501"/>
<polygon fill="#191970" stroke="#191970" points="992.089,-80.2374 1000.2909,-73.5306 989.6968,-73.6588 992.089,-80.2374"/>
</g>
<!-- Node11&#45;&gt;Node6 -->
<g id="edge12" class="edge">
<title>Node11&#45;&gt;Node6</title>
<path fill="none" stroke="#191970" d="M519.6077,-224.3579C525.7645,-209.4045 539.8278,-180.9933 562,-168 629.9627,-128.1725 832.2538,-145.3445 926.677,-131.7896"/>
<polygon fill="#191970" stroke="#191970" points="927.5237,-135.1977 936.8285,-130.131 926.395,-128.2893 927.5237,-135.1977"/>
</g>
<!-- Node13 -->
<g id="node13" class="node">
<title>Node13</title>
<g id="a_node13"><a xlink:title=" ">
<polygon fill="#ffffff" stroke="#bfbfbf" points="1024,-280.5 1024,-299.5 1098,-299.5 1098,-280.5 1024,-280.5"/>
<text text-anchor="middle" x="1061" y="-287.5" font-family="Helvetica,sans-Serif" font-size="10.00" fill="#000000">QTcpSocket</text>
</a>
</g>
</g>
<!-- Node12&#45;&gt;Node13 -->
<g id="edge14" class="edge">
<title>Node12&#45;&gt;Node13</title>
<path fill="none" stroke="#191970" d="M1128.7167,-336.2455C1116.253,-327.7337 1097.9549,-315.2375 1083.5208,-305.3801"/>
<polygon fill="#191970" stroke="#191970" points="1085.3515,-302.392 1075.1196,-299.6427 1081.4038,-308.1726 1085.3515,-302.392"/>
</g>
<!-- Node14 -->
<g id="node14" class="node">
<title>Node14</title>
<g id="a_node14"><a xlink:title=" ">
<polygon fill="#ffffff" stroke="#bfbfbf" points="1116.5,-280.5 1116.5,-299.5 1169.5,-299.5 1169.5,-280.5 1116.5,-280.5"/>
<text text-anchor="middle" x="1143" y="-287.5" font-family="Helvetica,sans-Serif" font-size="10.00" fill="#000000">QObject</text>
</a>
</g>
</g>
<!-- Node12&#45;&gt;Node14 -->
<g id="edge15" class="edge">
<title>Node12&#45;&gt;Node14</title>
<path fill="none" stroke="#191970" d="M1143,-336.2455C1143,-328.9382 1143,-318.6944 1143,-309.7046"/>
<polygon fill="#191970" stroke="#191970" points="1146.5001,-309.6426 1143,-299.6427 1139.5001,-309.6427 1146.5001,-309.6426"/>
</g>
<!-- Node15 -->
<g id="node15" class="node">
<title>Node15</title>
<g id="a_node15"><a xlink:title=" ">
<polygon fill="#ffffff" stroke="#bfbfbf" points="1188,-280.5 1188,-299.5 1246,-299.5 1246,-280.5 1188,-280.5"/>
<text text-anchor="middle" x="1217" y="-287.5" font-family="Helvetica,sans-Serif" font-size="10.00" fill="#000000">QThread</text>
</a>
</g>
</g>
<!-- Node12&#45;&gt;Node15 -->
<g id="edge16" class="edge">
<title>Node12&#45;&gt;Node15</title>
<path fill="none" stroke="#191970" d="M1155.8898,-336.2455C1166.9254,-327.8943 1183.0292,-315.7076 1195.9353,-305.9408"/>
<polygon fill="#191970" stroke="#191970" points="1198.3959,-308.4681 1204.2579,-299.6427 1194.1717,-302.8862 1198.3959,-308.4681"/>
</g>
<!-- Node16 -->
<g id="node16" class="node">
<title>Node16</title>
<g id="a_node16"><a xlink:title=" ">
<polygon fill="#ffffff" stroke="#bfbfbf" points="1264.5,-280.5 1264.5,-299.5 1329.5,-299.5 1329.5,-280.5 1264.5,-280.5"/>
<text text-anchor="middle" x="1297" y="-287.5" font-family="Helvetica,sans-Serif" font-size="10.00" fill="#000000">QStringList</text>
</a>
</g>
</g>
<!-- Node12&#45;&gt;Node16 -->
<g id="edge17" class="edge">
<title>Node12&#45;&gt;Node16</title>
<path fill="none" stroke="#191970" d="M1166.725,-337.3727C1191.8575,-328.2336 1231.8422,-313.6937 1260.8903,-303.1308"/>
<polygon fill="#191970" stroke="#191970" points="1262.4648,-306.2826 1270.6666,-299.5758 1260.0725,-299.704 1262.4648,-306.2826"/>
</g>
<!-- Node17 -->
<g id="node17" class="node">
<title>Node17</title>
<g id="a_node17"><a xlink:title=" ">
<polygon fill="#ffffff" stroke="#bfbfbf" points="1490,-112.5 1490,-131.5 1540,-131.5 1540,-112.5 1490,-112.5"/>
<text text-anchor="middle" x="1515" y="-119.5" font-family="Helvetica,sans-Serif" font-size="10.00" fill="#000000">QString</text>
</a>
</g>
</g>
<!-- Node12&#45;&gt;Node17 -->
<g id="edge18" class="edge">
<title>Node12&#45;&gt;Node17</title>
<path fill="none" stroke="#191970" d="M1166.7405,-343.4995C1219.1003,-337.6458 1342.6467,-321.8735 1378,-300 1442.5648,-260.0529 1488.1642,-177.9118 1506.3011,-140.8617"/>
<polygon fill="#191970" stroke="#191970" points="1509.5345,-142.2125 1510.6813,-131.6799 1503.2166,-139.1985 1509.5345,-142.2125"/>
</g>
<!-- Node18 -->
<g id="node18" class="node">
<title>Node18</title>
<g id="a_node18"><a xlink:href="scene_8h.html" target="_top" xlink:title=" ">
<polygon fill="#ffffff" stroke="#000000" points="759,-224.5 759,-243.5 811,-243.5 811,-224.5 759,-224.5"/>
<text text-anchor="middle" x="785" y="-231.5" font-family="Helvetica,sans-Serif" font-size="10.00" fill="#000000">scene.h</text>
</a>
</g>
</g>
<!-- Node12&#45;&gt;Node18 -->
<g id="edge19" class="edge">
<title>Node12&#45;&gt;Node18</title>
<path fill="none" stroke="#191970" d="M1119.4753,-343.2313C1077.9391,-337.8971 989.2611,-324.5003 918,-300 878.4872,-286.4151 835.69,-263.5731 809.6089,-248.6432"/>
<polygon fill="#191970" stroke="#191970" points="811.2002,-245.5201 800.7934,-243.5325 807.6893,-251.576 811.2002,-245.5201"/>
</g>
<!-- Node24 -->
<g id="node24" class="node">
<title>Node24</title>
<g id="a_node24"><a xlink:href="maptile_8h.html" target="_top" xlink:title=" ">
<polygon fill="#ffffff" stroke="#000000" points="1299,-168.5 1299,-187.5 1355,-187.5 1355,-168.5 1299,-168.5"/>
<text text-anchor="middle" x="1327" y="-175.5" font-family="Helvetica,sans-Serif" font-size="10.00" fill="#000000">maptile.h</text>
</a>
</g>
</g>
<!-- Node12&#45;&gt;Node24 -->
<g id="edge41" class="edge">
<title>Node12&#45;&gt;Node24</title>
<path fill="none" stroke="#191970" d="M1166.7148,-343.6675C1215.8753,-338.3945 1326.6763,-324.103 1355,-300 1381.7802,-277.2104 1391.1303,-256.2006 1377,-224 1371.6677,-211.8487 1361.3661,-201.4938 1351.4924,-193.7031"/>
<polygon fill="#191970" stroke="#191970" points="1353.5509,-190.8723 1343.4177,-187.7788 1349.41,-196.5162 1353.5509,-190.8723"/>
</g>
<!-- Node30 -->
<g id="node30" class="node">
<title>Node30</title>
<g id="a_node30"><a xlink:href="datamodel_8h.html" target="_top" xlink:title=" ">
<polygon fill="#ffffff" stroke="#000000" points="1037.5,-168.5 1037.5,-187.5 1110.5,-187.5 1110.5,-168.5 1037.5,-168.5"/>
<text text-anchor="middle" x="1074" y="-175.5" font-family="Helvetica,sans-Serif" font-size="10.00" fill="#000000">datamodel.h</text>
</a>
</g>
</g>
<!-- Node12&#45;&gt;Node30 -->
<g id="edge42" class="edge">
<title>Node12&#45;&gt;Node30</title>
<path fill="none" stroke="#191970" d="M1119.4963,-343.8951C1073.1418,-339.2059 972.6315,-326.1902 952,-300 918.0981,-256.964 994.9124,-213.1485 1041.5452,-191.6347"/>
<polygon fill="#191970" stroke="#191970" points="1043.0234,-194.8076 1050.7074,-187.5133 1040.1518,-188.4237 1043.0234,-194.8076"/>
</g>
<!-- Node32 -->
<g id="node32" class="node">
<title>Node32</title>
<g id="a_node32"><a xlink:href="view_8h.html" target="_top" xlink:title=" ">
<polygon fill="#ffffff" stroke="#000000" points="960.5,-280.5 960.5,-299.5 1005.5,-299.5 1005.5,-280.5 960.5,-280.5"/>
<text text-anchor="middle" x="983" y="-287.5" font-family="Helvetica,sans-Serif" font-size="10.00" fill="#000000">view.h</text>
</a>
</g>
</g>
<!-- Node12&#45;&gt;Node32 -->
<g id="edge43" class="edge">
<title>Node12&#45;&gt;Node32</title>
<path fill="none" stroke="#191970" d="M1119.3914,-337.737C1091.7812,-328.0734 1045.9376,-312.0282 1015.109,-301.2381"/>
<polygon fill="#191970" stroke="#191970" points="1016.2642,-297.9344 1005.6694,-297.9343 1013.9517,-304.5414 1016.2642,-297.9344"/>
</g>
<!-- Node37 -->
<g id="node37" class="node">
<title>Node37</title>
<g id="a_node37"><a xlink:href="maprenderer_8h.html" target="_top" xlink:title=" ">
<polygon fill="#ffffff" stroke="#000000" points="1286,-224.5 1286,-243.5 1368,-243.5 1368,-224.5 1286,-224.5"/>
<text text-anchor="middle" x="1327" y="-231.5" font-family="Helvetica,sans-Serif" font-size="10.00" fill="#000000">maprenderer.h</text>
</a>
</g>
</g>
<!-- Node12&#45;&gt;Node37 -->
<g id="edge52" class="edge">
<title>Node12&#45;&gt;Node37</title>
<path fill="none" stroke="#191970" d="M1166.747,-344.0279C1214.136,-339.5482 1317.7255,-326.8456 1339,-300 1349.5788,-286.651 1344.154,-267.0138 1337.5584,-252.6298"/>
<polygon fill="#191970" stroke="#191970" points="1340.644,-250.976 1332.9875,-243.6529 1334.4061,-254.1523 1340.644,-250.976"/>
</g>
<!-- Node18&#45;&gt;Node7 -->
<g id="edge31" class="edge">
<title>Node18&#45;&gt;Node7</title>
<path fill="none" stroke="#191970" d="M758.811,-233.4473C668.2885,-231.0794 376.6356,-219.4161 423,-168 448.1256,-140.1368 689.3128,-128.1056 805.2972,-123.8982"/>
<polygon fill="#191970" stroke="#191970" points="805.5775,-127.3905 815.4472,-123.5384 805.3295,-120.3949 805.5775,-127.3905"/>
</g>
<!-- Node19 -->
<g id="node19" class="node">
<title>Node19</title>
<g id="a_node19"><a xlink:title=" ">
<polygon fill="#ffffff" stroke="#bfbfbf" points="702,-168.5 702,-187.5 796,-187.5 796,-168.5 702,-168.5"/>
<text text-anchor="middle" x="749" y="-175.5" font-family="Helvetica,sans-Serif" font-size="10.00" fill="#000000">QGraphicsScene</text>
</a>
</g>
</g>
<!-- Node18&#45;&gt;Node19 -->
<g id="edge20" class="edge">
<title>Node18&#45;&gt;Node19</title>
<path fill="none" stroke="#191970" d="M778.7293,-224.2455C773.7736,-216.5367 766.717,-205.5598 760.7224,-196.2348"/>
<polygon fill="#191970" stroke="#191970" points="763.5506,-194.1618 755.1989,-187.6427 757.6624,-197.9471 763.5506,-194.1618"/>
</g>
<!-- Node20 -->
<g id="node20" class="node">
<title>Node20</title>
<g id="a_node20"><a xlink:title=" ">
<polygon fill="#ffffff" stroke="#bfbfbf" points="814,-168.5 814,-187.5 918,-187.5 918,-168.5 814,-168.5"/>
<text text-anchor="middle" x="866" y="-175.5" font-family="Helvetica,sans-Serif" font-size="10.00" fill="#000000">QGraphicsTextItem</text>
</a>
</g>
</g>
<!-- Node18&#45;&gt;Node20 -->
<g id="edge21" class="edge">
<title>Node18&#45;&gt;Node20</title>
<path fill="none" stroke="#191970" d="M799.1091,-224.2455C811.4209,-215.7337 829.4958,-203.2375 843.7538,-193.3801"/>
<polygon fill="#191970" stroke="#191970" points="845.8174,-196.2085 852.0526,-187.6427 841.8366,-190.4506 845.8174,-196.2085"/>
</g>
<!-- Node21 -->
<g id="node21" class="node">
<title>Node21</title>
<g id="a_node21"><a xlink:title=" ">
<polygon fill="#ffffff" stroke="#bfbfbf" points="936.5,-168.5 936.5,-187.5 1019.5,-187.5 1019.5,-168.5 936.5,-168.5"/>
<text text-anchor="middle" x="978" y="-175.5" font-family="Helvetica,sans-Serif" font-size="10.00" fill="#000000">QGraphicsItem</text>
</a>
</g>
</g>
<!-- Node18&#45;&gt;Node21 -->
<g id="edge22" class="edge">
<title>Node18&#45;&gt;Node21</title>
<path fill="none" stroke="#191970" d="M811.0288,-226.4476C842.8591,-217.2119 897.1811,-201.45 935.1952,-190.4201"/>
<polygon fill="#191970" stroke="#191970" points="936.3392,-193.7325 944.9678,-187.5845 934.3886,-187.0098 936.3392,-193.7325"/>
</g>
<!-- Node22 -->
<g id="node22" class="node">
<title>Node22</title>
<g id="a_node22"><a xlink:title=" ">
<polygon fill="#ffffff" stroke="#bfbfbf" points="282,-.5 282,-19.5 386,-19.5 386,-.5 282,-.5"/>
<text text-anchor="middle" x="334" y="-7.5" font-family="Helvetica,sans-Serif" font-size="10.00" fill="#000000">QGraphicsRectItem</text>
</a>
</g>
</g>
<!-- Node18&#45;&gt;Node22 -->
<g id="edge23" class="edge">
<title>Node18&#45;&gt;Node22</title>
<path fill="none" stroke="#191970" d="M758.9814,-232.2307C679.3584,-226.6155 442.7111,-208.3628 415,-188 387.692,-167.9334 353.72,-70.9283 340.0816,-29.1761"/>
<polygon fill="#191970" stroke="#191970" points="343.3993,-28.0599 337.0001,-19.6159 336.7368,-30.2075 343.3993,-28.0599"/>
</g>
<!-- Node23 -->
<g id="node23" class="node">
<title>Node23</title>
<g id="a_node23"><a xlink:title=" ">
<polygon fill="#ffffff" stroke="#bfbfbf" points="570.5,-168.5 570.5,-187.5 683.5,-187.5 683.5,-168.5 570.5,-168.5"/>
<text text-anchor="middle" x="627" y="-175.5" font-family="Helvetica,sans-Serif" font-size="10.00" fill="#000000">QGraphicsEllipseItem</text>
</a>
</g>
</g>
<!-- Node18&#45;&gt;Node23 -->
<g id="edge24" class="edge">
<title>Node18&#45;&gt;Node23</title>
<path fill="none" stroke="#191970" d="M758.9095,-224.7527C732.8441,-215.5144 692.5568,-201.2353 663.3619,-190.8878"/>
<polygon fill="#191970" stroke="#191970" points="664.5176,-187.5841 653.9228,-187.5423 662.1791,-194.1819 664.5176,-187.5841"/>
</g>
<!-- Node18&#45;&gt;Node24 -->
<g id="edge25" class="edge">
<title>Node18&#45;&gt;Node24</title>
<path fill="none" stroke="#191970" d="M811.2317,-233.2106C885.0549,-230.6525 1100.9049,-220.8617 1288.7757,-187.9417"/>
<polygon fill="#191970" stroke="#191970" points="1289.6002,-191.3501 1298.8324,-186.1523 1288.3738,-184.4583 1289.6002,-191.3501"/>
</g>
<!-- Node28 -->
<g id="node28" class="node">
<title>Node28</title>
<g id="a_node28"><a xlink:href="player_8h.html" target="_top" xlink:title=" ">
<polygon fill="#ffffff" stroke="#000000" points="286,-112.5 286,-131.5 338,-131.5 338,-112.5 286,-112.5"/>
<text text-anchor="middle" x="312" y="-119.5" font-family="Helvetica,sans-Serif" font-size="10.00" fill="#000000">player.h</text>
</a>
</g>
</g>
<!-- Node18&#45;&gt;Node28 -->
<g id="edge32" class="edge">
<title>Node18&#45;&gt;Node28</title>
<path fill="none" stroke="#191970" d="M758.8068,-232.5675C670.3687,-227.5469 386.4187,-209.862 352,-188 335.0918,-177.2603 324.2903,-156.5557 318.2295,-141.1876"/>
<polygon fill="#191970" stroke="#191970" points="321.4543,-139.8122 314.7741,-131.5887 314.868,-142.1832 321.4543,-139.8122"/>
</g>
<!-- Node29 -->
<g id="node29" class="node">
<title>Node29</title>
<g id="a_node29"><a xlink:href="highlighter_8h.html" target="_top" xlink:title=" ">
<polygon fill="#ffffff" stroke="#000000" points="268,-56.5 268,-75.5 338,-75.5 338,-56.5 268,-56.5"/>
<text text-anchor="middle" x="303" y="-63.5" font-family="Helvetica,sans-Serif" font-size="10.00" fill="#000000">highlighter.h</text>
</a>
</g>
</g>
<!-- Node18&#45;&gt;Node29 -->
<g id="edge35" class="edge">
<title>Node18&#45;&gt;Node29</title>
<path fill="none" stroke="#191970" d="M758.8518,-232.4415C667.7293,-226.8629 367.606,-207.1984 329,-188 298.5884,-172.8766 289.4146,-163.6142 277,-132 270.636,-115.7939 279.2304,-97.3589 288.2026,-84.0993"/>
<polygon fill="#191970" stroke="#191970" points="291.177,-85.963 294.2953,-75.8374 285.5432,-81.8083 291.177,-85.963"/>
</g>
<!-- Node18&#45;&gt;Node30 -->
<g id="edge36" class="edge">
<title>Node18&#45;&gt;Node30</title>
<path fill="none" stroke="#191970" d="M811.0544,-229.3737C854.0356,-221.6804 942.7302,-205.5468 1027.1762,-188.3324"/>
<polygon fill="#191970" stroke="#191970" points="1028.0893,-191.7181 1037.1838,-186.283 1026.6849,-184.8605 1028.0893,-191.7181"/>
</g>
<!-- Node24&#45;&gt;Node7 -->
<g id="edge30" class="edge">
<title>Node24&#45;&gt;Node7</title>
<path fill="none" stroke="#191970" d="M1298.8279,-169.8722C1295.8625,-169.1709 1292.8797,-168.5286 1290,-168 1134.2358,-139.4073 1090.1005,-152.5213 928.8361,-132.0192"/>
<polygon fill="#191970" stroke="#191970" points="928.9175,-128.5006 918.5507,-130.6866 928.018,-135.4426 928.9175,-128.5006"/>
</g>
<!-- Node25 -->
<g id="node25" class="node">
<title>Node25</title>
<g id="a_node25"><a xlink:title=" ">
<polygon fill="#ffffff" stroke="#bfbfbf" points="1354.5,-112.5 1354.5,-131.5 1471.5,-131.5 1471.5,-112.5 1354.5,-112.5"/>
<text text-anchor="middle" x="1413" y="-119.5" font-family="Helvetica,sans-Serif" font-size="10.00" fill="#000000">QGraphicsPixmapItem</text>
</a>
</g>
</g>
<!-- Node24&#45;&gt;Node25 -->
<g id="edge26" class="edge">
<title>Node24&#45;&gt;Node25</title>
<path fill="none" stroke="#191970" d="M1341.9801,-168.2455C1355.1751,-159.6534 1374.6051,-147.0014 1389.8079,-137.1018"/>
<polygon fill="#191970" stroke="#191970" points="1391.7215,-140.0325 1398.1916,-131.6427 1387.9017,-134.1665 1391.7215,-140.0325"/>
</g>
<!-- Node26 -->
<g id="node26" class="node">
<title>Node26</title>
<g id="a_node26"><a xlink:href="city_8h.html" target="_top" xlink:title=" ">
<polygon fill="#ffffff" stroke="#000000" points="1297.5,-112.5 1297.5,-131.5 1336.5,-131.5 1336.5,-112.5 1297.5,-112.5"/>
<text text-anchor="middle" x="1317" y="-119.5" font-family="Helvetica,sans-Serif" font-size="10.00" fill="#000000">city.h</text>
</a>
</g>
</g>
<!-- Node24&#45;&gt;Node26 -->
<g id="edge27" class="edge">
<title>Node24&#45;&gt;Node26</title>
<path fill="none" stroke="#191970" d="M1325.2581,-168.2455C1323.9533,-160.9382 1322.124,-150.6944 1320.5187,-141.7046"/>
<polygon fill="#191970" stroke="#191970" points="1323.9254,-140.8717 1318.7219,-131.6427 1317.0344,-142.1022 1323.9254,-140.8717"/>
</g>
<!-- Node26&#45;&gt;Node10 -->
<g id="edge28" class="edge">
<title>Node26&#45;&gt;Node10</title>
<path fill="none" stroke="#191970" d="M1297.475,-114.7879C1294.3322,-113.7662 1291.095,-112.7947 1288,-112 1203.747,-90.3669 1101.8888,-75.984 1051.8275,-69.6654"/>
<polygon fill="#191970" stroke="#191970" points="1052.0267,-66.1634 1041.6718,-68.4051 1051.1646,-73.1101 1052.0267,-66.1634"/>
</g>
<!-- Node27 -->
<g id="node27" class="node">
<title>Node27</title>
<g id="a_node27"><a xlink:title=" ">
<polygon fill="#ffffff" stroke="#bfbfbf" points="1295,-56.5 1295,-75.5 1339,-75.5 1339,-56.5 1295,-56.5"/>
<text text-anchor="middle" x="1317" y="-63.5" font-family="Helvetica,sans-Serif" font-size="10.00" fill="#000000">vector</text>
</a>
</g>
</g>
<!-- Node26&#45;&gt;Node27 -->
<g id="edge29" class="edge">
<title>Node26&#45;&gt;Node27</title>
<path fill="none" stroke="#191970" d="M1317,-112.2455C1317,-104.9382 1317,-94.6944 1317,-85.7046"/>
<polygon fill="#191970" stroke="#191970" points="1320.5001,-85.6426 1317,-75.6427 1313.5001,-85.6427 1320.5001,-85.6426"/>
</g>
<!-- Node28&#45;&gt;Node29 -->
<g id="edge33" class="edge">
<title>Node28&#45;&gt;Node29</title>
<path fill="none" stroke="#191970" d="M310.4323,-112.2455C309.2579,-104.9382 307.6116,-94.6944 306.1668,-85.7046"/>
<polygon fill="#191970" stroke="#191970" points="309.5922,-84.9606 304.5497,-75.6427 302.6809,-86.0714 309.5922,-84.9606"/>
</g>
<!-- Node29&#45;&gt;Node22 -->
<g id="edge34" class="edge">
<title>Node29&#45;&gt;Node22</title>
<path fill="none" stroke="#191970" d="M308.3998,-56.2455C312.6227,-48.617 318.6173,-37.7881 323.7441,-28.5267"/>
<polygon fill="#191970" stroke="#191970" points="326.881,-30.0867 328.6621,-19.6427 320.7568,-26.6965 326.881,-30.0867"/>
</g>
<!-- Node30&#45;&gt;Node6 -->
<g id="edge39" class="edge">
<title>Node30&#45;&gt;Node6</title>
<path fill="none" stroke="#191970" d="M1055.0136,-168.2455C1037.8208,-159.4125 1012.2762,-146.2887 992.7868,-136.2758"/>
<polygon fill="#191970" stroke="#191970" points="994.263,-133.0993 983.7688,-131.6427 991.0641,-139.3257 994.263,-133.0993"/>
</g>
<!-- Node30&#45;&gt;Node10 -->
<g id="edge37" class="edge">
<title>Node30&#45;&gt;Node10</title>
<path fill="none" stroke="#191970" d="M1065.6473,-168.3763C1058.2779,-159.4634 1047.6961,-145.5743 1041,-132 1033.717,-117.2359 1028.4878,-99.2916 1025.2072,-85.8425"/>
<polygon fill="#191970" stroke="#191970" points="1028.5459,-84.741 1022.9075,-75.7711 1021.7215,-86.2993 1028.5459,-84.741"/>
</g>
<!-- Node30&#45;&gt;Node28 -->
<g id="edge40" class="edge">
<title>Node30&#45;&gt;Node28</title>
<path fill="none" stroke="#191970" d="M1037.248,-169.3473C1034.466,-168.8413 1031.6939,-168.3834 1029,-168 769.9227,-131.1286 453.9426,-123.7967 348.3207,-122.3512"/>
<polygon fill="#191970" stroke="#191970" points="348.2374,-118.85 338.1936,-122.2221 348.1481,-125.8494 348.2374,-118.85"/>
</g>
<!-- Node31 -->
<g id="node31" class="node">
<title>Node31</title>
<g id="a_node31"><a xlink:title=" ">
<polygon fill="#ffffff" stroke="#bfbfbf" points="1049.5,-112.5 1049.5,-131.5 1098.5,-131.5 1098.5,-112.5 1049.5,-112.5"/>
<text text-anchor="middle" x="1074" y="-119.5" font-family="Helvetica,sans-Serif" font-size="10.00" fill="#000000">QLabel</text>
</a>
</g>
</g>
<!-- Node30&#45;&gt;Node31 -->
<g id="edge38" class="edge">
<title>Node30&#45;&gt;Node31</title>
<path fill="none" stroke="#191970" d="M1074,-168.2455C1074,-160.9382 1074,-150.6944 1074,-141.7046"/>
<polygon fill="#191970" stroke="#191970" points="1077.5001,-141.6426 1074,-131.6427 1070.5001,-141.6427 1077.5001,-141.6426"/>
</g>
<!-- Node32&#45;&gt;Node18 -->
<g id="edge45" class="edge">
<title>Node32&#45;&gt;Node18</title>
<path fill="none" stroke="#191970" d="M960.2869,-283.5761C926.2009,-273.9356 861.5012,-255.6367 820.9574,-244.1698"/>
<polygon fill="#191970" stroke="#191970" points="821.7786,-240.7648 811.2034,-241.4111 819.8734,-247.5006 821.7786,-240.7648"/>
</g>
<!-- Node32&#45;&gt;Node30 -->
<g id="edge46" class="edge">
<title>Node32&#45;&gt;Node30</title>
<path fill="none" stroke="#191970" d="M983.87,-280.0952C985.5224,-266.2855 990.1862,-241.0293 1003,-224 1013.0451,-210.6503 1028.1812,-200.0821 1041.9009,-192.4593"/>
<polygon fill="#191970" stroke="#191970" points="1043.8519,-195.3888 1051.0929,-187.6545 1040.6092,-189.1852 1043.8519,-195.3888"/>
</g>
<!-- Node33 -->
<g id="node33" class="node">
<title>Node33</title>
<g id="a_node33"><a xlink:title=" ">
<polygon fill="#ffffff" stroke="#bfbfbf" points="1011.5,-224.5 1011.5,-243.5 1098.5,-243.5 1098.5,-224.5 1011.5,-224.5"/>
<text text-anchor="middle" x="1055" y="-231.5" font-family="Helvetica,sans-Serif" font-size="10.00" fill="#000000">QGraphicsView</text>
</a>
</g>
</g>
<!-- Node32&#45;&gt;Node33 -->
<g id="edge44" class="edge">
<title>Node32&#45;&gt;Node33</title>
<path fill="none" stroke="#191970" d="M995.5414,-280.2455C1006.2787,-271.8943 1021.9473,-259.7076 1034.5047,-249.9408"/>
<polygon fill="#191970" stroke="#191970" points="1036.8575,-252.5449 1042.6023,-243.6427 1032.5599,-247.0194 1036.8575,-252.5449"/>
</g>
<!-- Node34 -->
<g id="node34" class="node">
<title>Node34</title>
<g id="a_node34"><a xlink:href="tooltipmenu_8h.html" target="_top" xlink:title=" ">
<polygon fill="#ffffff" stroke="#000000" points="1205.5,-168.5 1205.5,-187.5 1280.5,-187.5 1280.5,-168.5 1205.5,-168.5"/>
<text text-anchor="middle" x="1243" y="-175.5" font-family="Helvetica,sans-Serif" font-size="10.00" fill="#000000">tooltipmenu.h</text>
</a>
</g>
</g>
<!-- Node32&#45;&gt;Node34 -->
<g id="edge47" class="edge">
<title>Node32&#45;&gt;Node34</title>
<path fill="none" stroke="#191970" d="M1005.8541,-282.3761C1031.1269,-273.7642 1072.9118,-258.9871 1108,-244 1146.0343,-227.7546 1188.7328,-206.3194 1215.7331,-192.3521"/>
<polygon fill="#191970" stroke="#191970" points="1217.6758,-195.2869 1224.9327,-187.5675 1214.4458,-189.0765 1217.6758,-195.2869"/>
</g>
<!-- Node34&#45;&gt;Node6 -->
<g id="edge48" class="edge">
<title>Node34&#45;&gt;Node6</title>
<path fill="none" stroke="#191970" d="M1205.2184,-170.3893C1152.1911,-159.7076 1056.2389,-140.3791 1003.0613,-129.667"/>
<polygon fill="#191970" stroke="#191970" points="1003.5157,-126.1883 993.0215,-127.6446 1002.1334,-133.0505 1003.5157,-126.1883"/>
</g>
<!-- Node34&#45;&gt;Node31 -->
<g id="edge49" class="edge">
<title>Node34&#45;&gt;Node31</title>
<path fill="none" stroke="#191970" d="M1213.9479,-168.3733C1184.5684,-158.638 1139.1779,-143.5974 1108.108,-133.3021"/>
<polygon fill="#191970" stroke="#191970" points="1109.1554,-129.962 1098.562,-130.1389 1106.9536,-136.6067 1109.1554,-129.962"/>
</g>
<!-- Node35 -->
<g id="node35" class="node">
<title>Node35</title>
<g id="a_node35"><a xlink:title=" ">
<polygon fill="#ffffff" stroke="#bfbfbf" points="1117,-112.5 1117,-131.5 1187,-131.5 1187,-112.5 1117,-112.5"/>
<text text-anchor="middle" x="1152" y="-119.5" font-family="Helvetica,sans-Serif" font-size="10.00" fill="#000000">QGroupBox</text>
</a>
</g>
</g>
<!-- Node34&#45;&gt;Node35 -->
<g id="edge50" class="edge">
<title>Node34&#45;&gt;Node35</title>
<path fill="none" stroke="#191970" d="M1227.149,-168.2455C1213.1868,-159.6534 1192.6272,-147.0014 1176.5404,-137.1018"/>
<polygon fill="#191970" stroke="#191970" points="1178.0203,-133.9029 1167.6693,-131.6427 1174.3516,-139.8645 1178.0203,-133.9029"/>
</g>
<!-- Node36 -->
<g id="node36" class="node">
<title>Node36</title>
<g id="a_node36"><a xlink:title=" ">
<polygon fill="#ffffff" stroke="#bfbfbf" points="1205,-112.5 1205,-131.5 1279,-131.5 1279,-112.5 1205,-112.5"/>
<text text-anchor="middle" x="1242" y="-119.5" font-family="Helvetica,sans-Serif" font-size="10.00" fill="#000000">QGridLayout</text>
</a>
</g>
</g>
<!-- Node34&#45;&gt;Node36 -->
<g id="edge51" class="edge">
<title>Node34&#45;&gt;Node36</title>
<path fill="none" stroke="#191970" d="M1242.8258,-168.2455C1242.6953,-160.9382 1242.5124,-150.6944 1242.3519,-141.7046"/>
<polygon fill="#191970" stroke="#191970" points="1245.8503,-141.5786 1242.1722,-131.6427 1238.8514,-141.7036 1245.8503,-141.5786"/>
</g>
<!-- Node37&#45;&gt;Node6 -->
<g id="edge53" class="edge">
<title>Node37&#45;&gt;Node6</title>
<path fill="none" stroke="#191970" d="M1297.8167,-224.4792C1271.2912,-215.6356 1231.1925,-201.7904 1197,-188 1177.0783,-179.9652 1173.2988,-175.0277 1153,-168 1102.3534,-150.4655 1041.836,-136.9237 1003.4093,-129.2062"/>
<polygon fill="#191970" stroke="#191970" points="1003.6722,-125.6905 993.1834,-127.1854 1002.3151,-132.5577 1003.6722,-125.6905"/>
</g>
<!-- Node37&#45;&gt;Node7 -->
<g id="edge55" class="edge">
<title>Node37&#45;&gt;Node7</title>
<path fill="none" stroke="#191970" d="M1285.8257,-226.5861C1249.8596,-219.303 1196.7142,-206.5677 1153,-188 1137.2149,-181.2953 1136.0364,-174.0794 1120,-168 1111.0543,-164.6087 1000.6288,-145.1302 928.6521,-132.6318"/>
<polygon fill="#191970" stroke="#191970" points="929.2167,-129.1775 918.7656,-130.9169 928.0203,-136.0745 929.2167,-129.1775"/>
</g>
<!-- Node37&#45;&gt;Node24 -->
<g id="edge57" class="edge">
<title>Node37&#45;&gt;Node24</title>
<path fill="none" stroke="#191970" d="M1327,-224.2455C1327,-216.9382 1327,-206.6944 1327,-197.7046"/>
<polygon fill="#191970" stroke="#191970" points="1330.5001,-197.6426 1327,-187.6427 1323.5001,-197.6427 1330.5001,-197.6426"/>
</g>
<!-- Node37&#45;&gt;Node30 -->
<g id="edge56" class="edge">
<title>Node37&#45;&gt;Node30</title>
<path fill="none" stroke="#191970" d="M1285.7881,-224.878C1240.5223,-214.8587 1167.9846,-198.8029 1120.6604,-188.328"/>
<polygon fill="#191970" stroke="#191970" points="1121.1912,-184.8608 1110.6711,-186.1169 1119.6784,-191.6954 1121.1912,-184.8608"/>
</g>
<!-- Node38 -->
<g id="node38" class="node">
<title>Node38</title>
<g id="a_node38"><a xlink:title=" ">
<polygon fill="#ffffff" stroke="#bfbfbf" points="1706.5,-112.5 1706.5,-131.5 1745.5,-131.5 1745.5,-112.5 1706.5,-112.5"/>
<text text-anchor="middle" x="1726" y="-119.5" font-family="Helvetica,sans-Serif" font-size="10.00" fill="#000000">QList</text>
</a>
</g>
</g>
<!-- Node37&#45;&gt;Node38 -->
<g id="edge54" class="edge">
<title>Node37&#45;&gt;Node38</title>
<path fill="none" stroke="#191970" d="M1368.3049,-232.1474C1447.8122,-227.9877 1618.7962,-215.9893 1670,-188 1690.0918,-177.0173 1706.1055,-155.7262 1715.7776,-140.2891"/>
<polygon fill="#191970" stroke="#191970" points="1718.8549,-141.9619 1720.9601,-131.5783 1712.8391,-138.3827 1718.8549,-141.9619"/>
</g>
<!-- Node39 -->
<g id="node39" class="node">
<title>Node39</title>
<g id="a_node39"><a xlink:href="point_8h.html" target="_top" xlink:title=" ">
<polygon fill="#ffffff" stroke="#000000" points="1655.5,-56.5 1655.5,-75.5 1700.5,-75.5 1700.5,-56.5 1655.5,-56.5"/>
<text text-anchor="middle" x="1678" y="-63.5" font-family="Helvetica,sans-Serif" font-size="10.00" fill="#000000">point.h</text>
</a>
</g>
</g>
<!-- Node37&#45;&gt;Node39 -->
<g id="edge58" class="edge">
<title>Node37&#45;&gt;Node39</title>
<path fill="none" stroke="#191970" d="M1368.1116,-232.0451C1451.5488,-227.5644 1637.7026,-214.8096 1695,-188 1733.9795,-169.7614 1776.2393,-149.4292 1755,-112 1745.3635,-95.018 1726.6939,-83.6359 1710.1521,-76.4421"/>
<polygon fill="#191970" stroke="#191970" points="1711.3274,-73.1427 1700.7427,-72.6799 1708.7285,-79.6424 1711.3274,-73.1427"/>
</g>
<!-- Node40 -->
<g id="node40" class="node">
<title>Node40</title>
<g id="a_node40"><a xlink:href="animationmovement_8h.html" target="_top" xlink:title=" ">
<polygon fill="#ffffff" stroke="#000000" points="1545.5,-168.5 1545.5,-187.5 1660.5,-187.5 1660.5,-168.5 1545.5,-168.5"/>
<text text-anchor="middle" x="1603" y="-175.5" font-family="Helvetica,sans-Serif" font-size="10.00" fill="#000000">animationmovement.h</text>
</a>
</g>
</g>
<!-- Node37&#45;&gt;Node40 -->
<g id="edge59" class="edge">
<title>Node37&#45;&gt;Node40</title>
<path fill="none" stroke="#191970" d="M1368.022,-225.6767C1415.1407,-216.1164 1492.7595,-200.3676 1545.7979,-189.6062"/>
<polygon fill="#191970" stroke="#191970" points="1546.6273,-193.0093 1555.7316,-187.5907 1545.2353,-186.1491 1546.6273,-193.0093"/>
</g>
<!-- Node40&#45;&gt;Node17 -->
<g id="edge65" class="edge">
<title>Node40&#45;&gt;Node17</title>
<path fill="none" stroke="#191970" d="M1587.6716,-168.2455C1574.1697,-159.6534 1554.2878,-147.0014 1538.7314,-137.1018"/>
<polygon fill="#191970" stroke="#191970" points="1540.4685,-134.0587 1530.1528,-131.6427 1536.7103,-139.9643 1540.4685,-134.0587"/>
</g>
<!-- Node40&#45;&gt;Node25 -->
<g id="edge66" class="edge">
<title>Node40&#45;&gt;Node25</title>
<path fill="none" stroke="#191970" d="M1570.3378,-168.3733C1538.4702,-158.9807 1489.8469,-144.6496 1455.093,-134.4064"/>
<polygon fill="#191970" stroke="#191970" points="1455.8175,-130.9711 1445.236,-131.5011 1453.8385,-137.6855 1455.8175,-130.9711"/>
</g>
<!-- Node40&#45;&gt;Node38 -->
<g id="edge64" class="edge">
<title>Node40&#45;&gt;Node38</title>
<path fill="none" stroke="#191970" d="M1624.1445,-168.3733C1644.2481,-159.2204 1674.6524,-145.3778 1697.0108,-135.1983"/>
<polygon fill="#191970" stroke="#191970" points="1698.6979,-138.276 1706.3487,-130.9469 1695.7973,-131.9052 1698.6979,-138.276"/>
</g>
<!-- Node40&#45;&gt;Node39 -->
<g id="edge60" class="edge">
<title>Node40&#45;&gt;Node39</title>
<path fill="none" stroke="#191970" d="M1619.2845,-168.4879C1631.8815,-160.3267 1648.8378,-147.4531 1659,-132 1668.2018,-118.0073 1673.0258,-99.5019 1675.5058,-85.6475"/>
<polygon fill="#191970" stroke="#191970" points="1678.9736,-86.124 1677.0311,-75.7088 1672.0546,-85.0621 1678.9736,-86.124"/>
</g>
<!-- Node41 -->
<g id="node41" class="node">
<title>Node41</title>
<g id="a_node41"><a xlink:href="animationentity_8h.html" target="_top" xlink:title=" ">
<polygon fill="#ffffff" stroke="#000000" points="1558.5,-112.5 1558.5,-131.5 1649.5,-131.5 1649.5,-112.5 1558.5,-112.5"/>
<text text-anchor="middle" x="1604" y="-119.5" font-family="Helvetica,sans-Serif" font-size="10.00" fill="#000000">animationentity.h</text>
</a>
</g>
</g>
<!-- Node40&#45;&gt;Node41 -->
<g id="edge61" class="edge">
<title>Node40&#45;&gt;Node41</title>
<path fill="none" stroke="#191970" d="M1603.1742,-168.2455C1603.3047,-160.9382 1603.4876,-150.6944 1603.6481,-141.7046"/>
<polygon fill="#191970" stroke="#191970" points="1607.1486,-141.7036 1603.8278,-131.6427 1600.1497,-141.5786 1607.1486,-141.7036"/>
</g>
<!-- Node41&#45;&gt;Node9 -->
<g id="edge62" class="edge">
<title>Node41&#45;&gt;Node9</title>
<path fill="none" stroke="#191970" d="M1584.8395,-112.2455C1567.4889,-103.4125 1541.7099,-90.2887 1522.0417,-80.2758"/>
<polygon fill="#191970" stroke="#191970" points="1523.4405,-77.0605 1512.941,-75.6427 1520.2647,-83.2986 1523.4405,-77.0605"/>
</g>
<!-- Node41&#45;&gt;Node39 -->
<g id="edge63" class="edge">
<title>Node41&#45;&gt;Node39</title>
<path fill="none" stroke="#191970" d="M1616.8898,-112.2455C1627.9254,-103.8943 1644.0292,-91.7076 1656.9353,-81.9408"/>
<polygon fill="#191970" stroke="#191970" points="1659.3959,-84.4681 1665.2579,-75.6427 1655.1717,-78.8862 1659.3959,-84.4681"/>
</g>
</g>
</svg>
        <g id="navigator" transform="translate(0 0)" fill="#404254">
                <rect fill="#f2f5e9" fill-opacity="0.5" stroke="#606060" stroke-width=".5" x="0" y="0" width="60" height="60"/>
                <use id="zoomplus" xlink:href="#zoomPlus" x="17" y="9" onmousedown="handleZoom(evt,'in')"/>
                <use id="zoomminus" xlink:href="#zoomMin" x="42" y="9" onmousedown="handleZoom(evt,'out')"/>
                <use id="reset" xlink:href="#resetDef" x="30" y="36" onmousedown="handleReset()"/>
                <g id="arrowUp" xlink:href="#dirArrow" transform="translate(30 24)" onmousedown="handlePan(0,-1)">
                  <use xlink:href="#rim" fill="#404040">
                        <set attributeName="fill" to="#808080" begin="arrowUp.mouseover" end="arrowUp.mouseout"/>
                  </use>
                  <path fill="none" stroke="white" stroke-width="1.5" d="M0,-3.0v7 M-2.5,-0.5L0,-3.0L2.5,-0.5"/>
                </g>
                <g id="arrowRight" xlink:href="#dirArrow" transform="rotate(90) translate(36 -43)" onmousedown="handlePan(1,0)">
                  <use xlink:href="#rim" fill="#404040">
                        <set attributeName="fill" to="#808080" begin="arrowRight.mouseover" end="arrowRight.mouseout"/>
                  </use>
                  <path fill="none" stroke="white" stroke-width="1.5" d="M0,-3.0v7 M-2.5,-0.5L0,-3.0L2.5,-0.5"/>
                </g>
                <g id="arrowDown" xlink:href="#dirArrow" transform="rotate(180) translate(-30 -48)" onmousedown="handlePan(0,1)">
                  <use xlink:href="#rim" fill="#404040">
                        <set attributeName="fill" to="#808080" begin="arrowDown.mouseover" end="arrowDown.mouseout"/>
                  </use>
                  <path fill="none" stroke="white" stroke-width="1.5" d="M0,-3.0v7 M-2.5,-0.5L0,-3.0L2.5,-0.5"/>
                </g>
                <g id="arrowLeft" xlink:href="#dirArrow" transform="rotate(270) translate(-36 17)" onmousedown="handlePan(-1,0)">
                  <use xlink:href="#rim" fill="#404040">
                        <set attributeName="fill" to="#808080" begin="arrowLeft.mouseover" end="arrowLeft.mouseout"/>
                  </use>
                  <path fill="none" stroke="white" stroke-width="1.5" d="M0,-3.0v7 M-2.5,-0.5L0,-3.0L2.5,-0.5"/>
                </g>
        </g>
        <svg viewBox="0 0 15 15" width="100%" height="30px" preserveAspectRatio="xMaxYMin meet">
         <g id="arrow_out" transform="scale(0.3 0.3)">
          <a xlink:href="routeinterface_8h__incl_org.svg" target="_base">
           <rect id="button" ry="5" rx="5" y="6" x="6" height="38" width="38"
                fill="#f2f5e9" fill-opacity="0.5" stroke="#606060" stroke-width="1.0"/>
           <path id="arrow"
             d="M 11.500037,31.436501 C 11.940474,20.09759 22.043105,11.32322 32.158766,21.979434 L 37.068811,17.246167 C 37.068811,17.246167 37.088388,32 37.088388,32 L 22.160133,31.978069 C 22.160133,31.978069 26.997745,27.140456 26.997745,27.140456 C 18.528582,18.264221 13.291696,25.230495 11.500037,31.436501 z"
             style="fill:#404040;"/>
          </a>
         </g>
        </svg>
</svg>
