<?xml version="1.0" encoding="UTF-8" standalone="no"?>
<!DOCTYPE svg PUBLIC "-//W3C//DTD SVG 1.1//EN"
 "http://www.w3.org/Graphics/SVG/1.1/DTD/svg11.dtd">
<!-- Generated by graphviz version 2.40.1 (20161225.0304)
 -->
<!-- Title: src/application_server/scene.cpp Pages: 1 -->
<!--zoomable 319 -->
<svg id="main" version="1.1" xmlns="http://www.w3.org/2000/svg" xmlns:xlink="http://www.w3.org/1999/xlink" xml:space="preserve" onload="init(evt)">
<style type="text/css"><![CDATA[
.edge:hover path { stroke: red; }
.edge:hover polygon { stroke: red; fill: red; }
]]></style>
<script type="text/javascript"><![CDATA[
var edges = document.getElementsByTagName('g');
if (edges && edges.length) {
  for (var i=0;i<edges.length;i++) {
    if (edges[i].id.substr(0,4)=='edge') {
      edges[i].setAttribute('class','edge');
    }
  }
}
]]></script>
        <defs>
                <circle id="rim" cx="0" cy="0" r="7"/>
                <circle id="rim2" cx="0" cy="0" r="3.5"/>
                <g id="zoomPlus">
                        <use xlink:href="#rim" fill="#404040">
                                <set attributeName="fill" to="#808080" begin="zoomplus.mouseover" end="zoomplus.mouseout"/>
                        </use>
                        <path d="M-4,0h8M0,-4v8" fill="none" stroke="white" stroke-width="1.5" pointer-events="none"/>
                </g>
                <g id="zoomMin">
                        <use xlink:href="#rim" fill="#404040">
                                <set attributeName="fill" to="#808080" begin="zoomminus.mouseover" end="zoomminus.mouseout"/>
                        </use>
                        <path d="M-4,0h8" fill="none" stroke="white" stroke-width="1.5" pointer-events="none"/>
                </g>
                <g id="dirArrow">
                        <path fill="none" stroke="white" stroke-width="1.5" d="M0,-3.0v7 M-2.5,-0.5L0,-3.0L2.5,-0.5"/>
                </g>
               <g id="resetDef">
                       <use xlink:href="#rim2" fill="#404040">
                               <set attributeName="fill" to="#808080" begin="reset.mouseover" end="reset.mouseout"/>
                       </use>
               </g>
        </defs>

<script type="text/javascript">
var viewWidth = 871;
var viewHeight = 319;
var sectionId = 'dynsection-0';
</script>
<script xlink:href="svgpan.js"/>
<svg id="graph" class="graph">
<g id="viewport">
<title>src/application_server/scene.cpp</title>
<polygon fill="#ffffff" stroke="transparent" points="-4,4 -4,-315 867.2279,-315 867.2279,4 -4,4"/>
<!-- Node1 -->
<g id="node1" class="node">
<title>Node1</title>
<g id="a_node1"><a xlink:title=" ">
<polygon fill="#bfbfbf" stroke="#000000" points="576.2279,-280.5 576.2279,-310.5 691.2279,-310.5 691.2279,-280.5 576.2279,-280.5"/>
<text text-anchor="start" x="584.2279" y="-298.5" font-family="Helvetica,sans-Serif" font-size="10.00" fill="#000000">src/application_server</text>
<text text-anchor="middle" x="633.7279" y="-287.5" font-family="Helvetica,sans-Serif" font-size="10.00" fill="#000000">/scene.cpp</text>
</a>
</g>
</g>
<!-- Node2 -->
<g id="node2" class="node">
<title>Node2</title>
<g id="a_node2"><a xlink:href="scene_8h.html" target="_top" xlink:title=" ">
<polygon fill="#ffffff" stroke="#000000" points="353.7279,-224.5 353.7279,-243.5 405.7279,-243.5 405.7279,-224.5 353.7279,-224.5"/>
<text text-anchor="middle" x="379.7279" y="-231.5" font-family="Helvetica,sans-Serif" font-size="10.00" fill="#000000">scene.h</text>
</a>
</g>
</g>
<!-- Node1&#45;&gt;Node2 -->
<g id="edge1" class="edge">
<title>Node1&#45;&gt;Node2</title>
<path fill="none" stroke="#191970" d="M576.0913,-281.5447C526.7363,-269.5946 457.2201,-252.7629 415.5058,-242.6628"/>
<polygon fill="#191970" stroke="#191970" points="416.3242,-239.2599 405.7814,-240.3082 414.6769,-246.0633 416.3242,-239.2599"/>
</g>
<!-- Node8 -->
<g id="node8" class="node">
<title>Node8</title>
<g id="a_node8"><a xlink:href="maptile_8h.html" target="_top" xlink:title=" ">
<polygon fill="#ffffff" stroke="#000000" points="696.7279,-168.5 696.7279,-187.5 752.7279,-187.5 752.7279,-168.5 696.7279,-168.5"/>
<text text-anchor="middle" x="724.7279" y="-175.5" font-family="Helvetica,sans-Serif" font-size="10.00" fill="#000000">maptile.h</text>
</a>
</g>
</g>
<!-- Node1&#45;&gt;Node8 -->
<g id="edge26" class="edge">
<title>Node1&#45;&gt;Node8</title>
<path fill="none" stroke="#191970" d="M616.6739,-280.2755C601.9994,-265.2915 585.0391,-242.0914 597.7279,-224 603.1282,-216.3004 651.6294,-200.1877 687.0941,-189.2291"/>
<polygon fill="#191970" stroke="#191970" points="688.1677,-192.5609 696.7046,-186.2862 686.118,-185.8676 688.1677,-192.5609"/>
</g>
<!-- Node21 -->
<g id="node21" class="node">
<title>Node21</title>
<g id="a_node21"><a xlink:title=" ">
<polygon fill="#ffffff" stroke="#bfbfbf" points="606.7279,-224.5 606.7279,-243.5 660.7279,-243.5 660.7279,-224.5 606.7279,-224.5"/>
<text text-anchor="middle" x="633.7279" y="-231.5" font-family="Helvetica,sans-Serif" font-size="10.00" fill="#000000">QDebug</text>
</a>
</g>
</g>
<!-- Node1&#45;&gt;Node21 -->
<g id="edge27" class="edge">
<title>Node1&#45;&gt;Node21</title>
<path fill="none" stroke="#191970" d="M633.7279,-280.2977C633.7279,-272.3834 633.7279,-262.6043 633.7279,-254.0759"/>
<polygon fill="#191970" stroke="#191970" points="637.228,-253.8469 633.7279,-243.8469 630.228,-253.847 637.228,-253.8469"/>
</g>
<!-- Node22 -->
<g id="node22" class="node">
<title>Node22</title>
<g id="a_node22"><a xlink:title=" ">
<polygon fill="#ffffff" stroke="#bfbfbf" points="678.7279,-224.5 678.7279,-243.5 720.7279,-243.5 720.7279,-224.5 678.7279,-224.5"/>
<text text-anchor="middle" x="699.7279" y="-231.5" font-family="Helvetica,sans-Serif" font-size="10.00" fill="#000000">QPen</text>
</a>
</g>
</g>
<!-- Node1&#45;&gt;Node22 -->
<g id="edge28" class="edge">
<title>Node1&#45;&gt;Node22</title>
<path fill="none" stroke="#191970" d="M650.0425,-280.2977C659.6811,-271.3163 671.8969,-259.9334 681.8037,-250.702"/>
<polygon fill="#191970" stroke="#191970" points="684.2304,-253.2249 689.1604,-243.8469 679.4583,-248.1036 684.2304,-253.2249"/>
</g>
<!-- Node23 -->
<g id="node23" class="node">
<title>Node23</title>
<g id="a_node23"><a xlink:title=" ">
<polygon fill="#ffffff" stroke="#bfbfbf" points="738.7279,-224.5 738.7279,-243.5 794.7279,-243.5 794.7279,-224.5 738.7279,-224.5"/>
<text text-anchor="middle" x="766.7279" y="-231.5" font-family="Helvetica,sans-Serif" font-size="10.00" fill="#000000">QPainter</text>
</a>
</g>
</g>
<!-- Node1&#45;&gt;Node23 -->
<g id="edge29" class="edge">
<title>Node1&#45;&gt;Node23</title>
<path fill="none" stroke="#191970" d="M666.2633,-280.4554C687.8707,-270.464 716.0177,-257.4487 737.0199,-247.7372"/>
<polygon fill="#191970" stroke="#191970" points="738.51,-250.9043 746.1176,-243.5303 735.572,-244.5506 738.51,-250.9043"/>
</g>
<!-- Node3 -->
<g id="node3" class="node">
<title>Node3</title>
<g id="a_node3"><a xlink:title=" ">
<polygon fill="#ffffff" stroke="#bfbfbf" points="154.7279,-168.5 154.7279,-187.5 248.7279,-187.5 248.7279,-168.5 154.7279,-168.5"/>
<text text-anchor="middle" x="201.7279" y="-175.5" font-family="Helvetica,sans-Serif" font-size="10.00" fill="#000000">QGraphicsScene</text>
</a>
</g>
</g>
<!-- Node2&#45;&gt;Node3 -->
<g id="edge2" class="edge">
<title>Node2&#45;&gt;Node3</title>
<path fill="none" stroke="#191970" d="M353.4634,-225.737C323.9773,-216.4605 275.7992,-201.3033 241.6485,-190.5593"/>
<polygon fill="#191970" stroke="#191970" points="242.5662,-187.1789 231.9767,-187.5165 240.4654,-193.8563 242.5662,-187.1789"/>
</g>
<!-- Node4 -->
<g id="node4" class="node">
<title>Node4</title>
<g id="a_node4"><a xlink:title=" ">
<polygon fill="#ffffff" stroke="#bfbfbf" points="472.7279,-168.5 472.7279,-187.5 576.7279,-187.5 576.7279,-168.5 472.7279,-168.5"/>
<text text-anchor="middle" x="524.7279" y="-175.5" font-family="Helvetica,sans-Serif" font-size="10.00" fill="#000000">QGraphicsTextItem</text>
</a>
</g>
</g>
<!-- Node2&#45;&gt;Node4 -->
<g id="edge3" class="edge">
<title>Node2&#45;&gt;Node4</title>
<path fill="none" stroke="#191970" d="M404.6543,-224.3733C428.3481,-215.2226 464.179,-201.3844 490.5347,-191.2057"/>
<polygon fill="#191970" stroke="#191970" points="492.0592,-194.3689 500.1268,-187.5011 489.5373,-187.8389 492.0592,-194.3689"/>
</g>
<!-- Node5 -->
<g id="node5" class="node">
<title>Node5</title>
<g id="a_node5"><a xlink:title=" ">
<polygon fill="#ffffff" stroke="#bfbfbf" points="595.2279,-168.5 595.2279,-187.5 678.2279,-187.5 678.2279,-168.5 595.2279,-168.5"/>
<text text-anchor="middle" x="636.7279" y="-175.5" font-family="Helvetica,sans-Serif" font-size="10.00" fill="#000000">QGraphicsItem</text>
</a>
</g>
</g>
<!-- Node2&#45;&gt;Node5 -->
<g id="edge4" class="edge">
<title>Node2&#45;&gt;Node5</title>
<path fill="none" stroke="#191970" d="M405.7847,-228.3222C447.7114,-219.1865 530.9271,-201.0539 585.1768,-189.2329"/>
<polygon fill="#191970" stroke="#191970" points="585.9273,-192.6516 594.9528,-187.1027 584.4369,-185.8121 585.9273,-192.6516"/>
</g>
<!-- Node6 -->
<g id="node6" class="node">
<title>Node6</title>
<g id="a_node6"><a xlink:title=" ">
<polygon fill="#ffffff" stroke="#bfbfbf" points="75.7279,-.5 75.7279,-19.5 179.7279,-19.5 179.7279,-.5 75.7279,-.5"/>
<text text-anchor="middle" x="127.7279" y="-7.5" font-family="Helvetica,sans-Serif" font-size="10.00" fill="#000000">QGraphicsRectItem</text>
</a>
</g>
</g>
<!-- Node2&#45;&gt;Node6 -->
<g id="edge5" class="edge">
<title>Node2&#45;&gt;Node6</title>
<path fill="none" stroke="#191970" d="M353.5658,-232.6768C273.5617,-228.3659 36.2352,-213.5132 13.7279,-188 -34.0677,-133.8213 59.0731,-57.7001 104.6456,-25.4286"/>
<polygon fill="#191970" stroke="#191970" points="106.8526,-28.1572 113.07,-19.5784 102.8599,-22.4075 106.8526,-28.1572"/>
</g>
<!-- Node7 -->
<g id="node7" class="node">
<title>Node7</title>
<g id="a_node7"><a xlink:title=" ">
<polygon fill="#ffffff" stroke="#bfbfbf" points="23.2279,-168.5 23.2279,-187.5 136.2279,-187.5 136.2279,-168.5 23.2279,-168.5"/>
<text text-anchor="middle" x="79.7279" y="-175.5" font-family="Helvetica,sans-Serif" font-size="10.00" fill="#000000">QGraphicsEllipseItem</text>
</a>
</g>
</g>
<!-- Node2&#45;&gt;Node7 -->
<g id="edge6" class="edge">
<title>Node2&#45;&gt;Node7</title>
<path fill="none" stroke="#191970" d="M353.6296,-229.1283C306.5397,-220.3382 206.2012,-201.6084 140.9242,-189.4233"/>
<polygon fill="#191970" stroke="#191970" points="141.2346,-185.9209 130.7621,-187.5264 139.9501,-192.802 141.2346,-185.9209"/>
</g>
<!-- Node2&#45;&gt;Node8 -->
<g id="edge7" class="edge">
<title>Node2&#45;&gt;Node8</title>
<path fill="none" stroke="#191970" d="M405.7712,-231.0665C458.91,-224.8684 583.53,-209.2447 686.7279,-188 686.8281,-187.9794 686.9285,-187.9586 687.0289,-187.9378"/>
<polygon fill="#191970" stroke="#191970" points="687.6087,-191.3953 696.5865,-185.7695 686.06,-184.5688 687.6087,-191.3953"/>
</g>
<!-- Node13 -->
<g id="node13" class="node">
<title>Node13</title>
<g id="a_node13"><a xlink:href="graphicsmanager_8h.html" target="_top" xlink:title=" ">
<polygon fill="#ffffff" stroke="#000000" points="547.2279,-112.5 547.2279,-131.5 650.2279,-131.5 650.2279,-112.5 547.2279,-112.5"/>
<text text-anchor="middle" x="598.7279" y="-119.5" font-family="Helvetica,sans-Serif" font-size="10.00" fill="#000000">graphicsmanager.h</text>
</a>
</g>
</g>
<!-- Node2&#45;&gt;Node13 -->
<g id="edge16" class="edge">
<title>Node2&#45;&gt;Node13</title>
<path fill="none" stroke="#191970" d="M389.7841,-224.213C404.778,-210.0833 434.3862,-183.9224 463.7279,-168 490.841,-153.287 523.5372,-141.9999 549.9611,-134.2889"/>
<polygon fill="#191970" stroke="#191970" points="551.092,-137.6062 559.7565,-131.509 549.1808,-130.8722 551.092,-137.6062"/>
</g>
<!-- Node16 -->
<g id="node16" class="node">
<title>Node16</title>
<g id="a_node16"><a xlink:href="player_8h.html" target="_top" xlink:title=" ">
<polygon fill="#ffffff" stroke="#000000" points="296.7279,-112.5 296.7279,-131.5 348.7279,-131.5 348.7279,-112.5 296.7279,-112.5"/>
<text text-anchor="middle" x="322.7279" y="-119.5" font-family="Helvetica,sans-Serif" font-size="10.00" fill="#000000">player.h</text>
</a>
</g>
</g>
<!-- Node2&#45;&gt;Node16 -->
<g id="edge17" class="edge">
<title>Node2&#45;&gt;Node16</title>
<path fill="none" stroke="#191970" d="M366.1585,-224.2824C355.5559,-215.9149 341.3765,-202.8626 333.7279,-188 326.3361,-173.6364 323.729,-155.4024 322.8896,-141.7415"/>
<polygon fill="#191970" stroke="#191970" points="326.38,-141.3993 322.5341,-131.5271 319.3842,-141.6429 326.38,-141.3993"/>
</g>
<!-- Node17 -->
<g id="node17" class="node">
<title>Node17</title>
<g id="a_node17"><a xlink:href="highlighter_8h.html" target="_top" xlink:title=" ">
<polygon fill="#ffffff" stroke="#000000" points="233.7279,-56.5 233.7279,-75.5 303.7279,-75.5 303.7279,-56.5 233.7279,-56.5"/>
<text text-anchor="middle" x="268.7279" y="-63.5" font-family="Helvetica,sans-Serif" font-size="10.00" fill="#000000">highlighter.h</text>
</a>
</g>
</g>
<!-- Node2&#45;&gt;Node17 -->
<g id="edge20" class="edge">
<title>Node2&#45;&gt;Node17</title>
<path fill="none" stroke="#191970" d="M365.8054,-224.4663C353.8001,-215.8243 336.4417,-202.2861 323.7279,-188 304.0576,-165.8971 299.9497,-158.9459 287.7279,-132 280.9556,-117.069 275.977,-99.1371 272.819,-85.7352"/>
<polygon fill="#191970" stroke="#191970" points="276.1775,-84.7133 270.595,-75.7085 269.3435,-86.2291 276.1775,-84.7133"/>
</g>
<!-- Node18 -->
<g id="node18" class="node">
<title>Node18</title>
<g id="a_node18"><a xlink:href="datamodel_8h.html" target="_top" xlink:title=" ">
<polygon fill="#ffffff" stroke="#000000" points="343.2279,-168.5 343.2279,-187.5 416.2279,-187.5 416.2279,-168.5 343.2279,-168.5"/>
<text text-anchor="middle" x="379.7279" y="-175.5" font-family="Helvetica,sans-Serif" font-size="10.00" fill="#000000">datamodel.h</text>
</a>
</g>
</g>
<!-- Node2&#45;&gt;Node18 -->
<g id="edge21" class="edge">
<title>Node2&#45;&gt;Node18</title>
<path fill="none" stroke="#191970" d="M379.7279,-224.2455C379.7279,-216.9382 379.7279,-206.6944 379.7279,-197.7046"/>
<polygon fill="#191970" stroke="#191970" points="383.228,-197.6426 379.7279,-187.6427 376.228,-197.6427 383.228,-197.6426"/>
</g>
<!-- Node9 -->
<g id="node9" class="node">
<title>Node9</title>
<g id="a_node9"><a xlink:title=" ">
<polygon fill="#ffffff" stroke="#bfbfbf" points="746.2279,-112.5 746.2279,-131.5 863.2279,-131.5 863.2279,-112.5 746.2279,-112.5"/>
<text text-anchor="middle" x="804.7279" y="-119.5" font-family="Helvetica,sans-Serif" font-size="10.00" fill="#000000">QGraphicsPixmapItem</text>
</a>
</g>
</g>
<!-- Node8&#45;&gt;Node9 -->
<g id="edge8" class="edge">
<title>Node8&#45;&gt;Node9</title>
<path fill="none" stroke="#191970" d="M738.6628,-168.2455C750.8226,-159.7337 768.6743,-147.2375 782.7563,-137.3801"/>
<polygon fill="#191970" stroke="#191970" points="784.7674,-140.2447 790.9526,-131.6427 780.7532,-134.51 784.7674,-140.2447"/>
</g>
<!-- Node10 -->
<g id="node10" class="node">
<title>Node10</title>
<g id="a_node10"><a xlink:href="city_8h.html" target="_top" xlink:title=" ">
<polygon fill="#ffffff" stroke="#000000" points="689.2279,-112.5 689.2279,-131.5 728.2279,-131.5 728.2279,-112.5 689.2279,-112.5"/>
<text text-anchor="middle" x="708.7279" y="-119.5" font-family="Helvetica,sans-Serif" font-size="10.00" fill="#000000">city.h</text>
</a>
</g>
</g>
<!-- Node8&#45;&gt;Node10 -->
<g id="edge9" class="edge">
<title>Node8&#45;&gt;Node10</title>
<path fill="none" stroke="#191970" d="M721.9409,-168.2455C719.8301,-160.8579 716.8618,-150.4689 714.2732,-141.4087"/>
<polygon fill="#191970" stroke="#191970" points="717.5955,-140.2964 711.4829,-131.6427 710.8649,-142.2195 717.5955,-140.2964"/>
</g>
<!-- Node8&#45;&gt;Node13 -->
<g id="edge12" class="edge">
<title>Node8&#45;&gt;Node13</title>
<path fill="none" stroke="#191970" d="M703.0677,-168.3733C682.7507,-159.3435 652.1639,-145.7494 629.3529,-135.6111"/>
<polygon fill="#191970" stroke="#191970" points="630.665,-132.3642 620.1054,-131.5011 627.822,-138.7609 630.665,-132.3642"/>
</g>
<!-- Node11 -->
<g id="node11" class="node">
<title>Node11</title>
<g id="a_node11"><a xlink:title=" ">
<polygon fill="#ffffff" stroke="#bfbfbf" points="567.2279,-56.5 567.2279,-75.5 608.2279,-75.5 608.2279,-56.5 567.2279,-56.5"/>
<text text-anchor="middle" x="587.7279" y="-63.5" font-family="Helvetica,sans-Serif" font-size="10.00" fill="#000000">string</text>
</a>
</g>
</g>
<!-- Node10&#45;&gt;Node11 -->
<g id="edge10" class="edge">
<title>Node10&#45;&gt;Node11</title>
<path fill="none" stroke="#191970" d="M689.0178,-112.878C669.651,-103.9148 639.8457,-90.1207 617.5735,-79.8128"/>
<polygon fill="#191970" stroke="#191970" points="618.7842,-76.5165 608.2389,-75.4927 615.8441,-82.8692 618.7842,-76.5165"/>
</g>
<!-- Node12 -->
<g id="node12" class="node">
<title>Node12</title>
<g id="a_node12"><a xlink:title=" ">
<polygon fill="#ffffff" stroke="#bfbfbf" points="697.7279,-56.5 697.7279,-75.5 741.7279,-75.5 741.7279,-56.5 697.7279,-56.5"/>
<text text-anchor="middle" x="719.7279" y="-63.5" font-family="Helvetica,sans-Serif" font-size="10.00" fill="#000000">vector</text>
</a>
</g>
</g>
<!-- Node10&#45;&gt;Node12 -->
<g id="edge11" class="edge">
<title>Node10&#45;&gt;Node12</title>
<path fill="none" stroke="#191970" d="M710.6439,-112.2455C712.0793,-104.9382 714.0915,-94.6944 715.8573,-85.7046"/>
<polygon fill="#191970" stroke="#191970" points="719.3406,-86.1298 717.8338,-75.6427 712.4719,-84.7805 719.3406,-86.1298"/>
</g>
<!-- Node13&#45;&gt;Node11 -->
<g id="edge15" class="edge">
<title>Node13&#45;&gt;Node11</title>
<path fill="none" stroke="#191970" d="M596.8118,-112.2455C595.3765,-104.9382 593.3643,-94.6944 591.5984,-85.7046"/>
<polygon fill="#191970" stroke="#191970" points="594.9839,-84.7805 589.622,-75.6427 588.1151,-86.1298 594.9839,-84.7805"/>
</g>
<!-- Node14 -->
<g id="node14" class="node">
<title>Node14</title>
<g id="a_node14"><a xlink:title=" ">
<polygon fill="#ffffff" stroke="#bfbfbf" points="490.7279,-56.5 490.7279,-75.5 548.7279,-75.5 548.7279,-56.5 490.7279,-56.5"/>
<text text-anchor="middle" x="519.7279" y="-63.5" font-family="Helvetica,sans-Serif" font-size="10.00" fill="#000000">QPixmap</text>
</a>
</g>
</g>
<!-- Node13&#45;&gt;Node14 -->
<g id="edge13" class="edge">
<title>Node13&#45;&gt;Node14</title>
<path fill="none" stroke="#191970" d="M584.9671,-112.2455C573.0727,-103.814 555.6629,-91.4729 541.8193,-81.6598"/>
<polygon fill="#191970" stroke="#191970" points="543.5132,-78.5704 533.3309,-75.6427 539.4651,-84.2811 543.5132,-78.5704"/>
</g>
<!-- Node15 -->
<g id="node15" class="node">
<title>Node15</title>
<g id="a_node15"><a xlink:title=" ">
<polygon fill="#ffffff" stroke="#bfbfbf" points="626.2279,-56.5 626.2279,-75.5 679.2279,-75.5 679.2279,-56.5 626.2279,-56.5"/>
<text text-anchor="middle" x="652.7279" y="-63.5" font-family="Helvetica,sans-Serif" font-size="10.00" fill="#000000">QImage</text>
</a>
</g>
</g>
<!-- Node13&#45;&gt;Node15 -->
<g id="edge14" class="edge">
<title>Node13&#45;&gt;Node15</title>
<path fill="none" stroke="#191970" d="M608.134,-112.2455C615.8772,-104.2155 627.0399,-92.6394 636.2597,-83.0781"/>
<polygon fill="#191970" stroke="#191970" points="639.0077,-85.2706 643.4296,-75.6427 633.9687,-80.4117 639.0077,-85.2706"/>
</g>
<!-- Node16&#45;&gt;Node17 -->
<g id="edge18" class="edge">
<title>Node16&#45;&gt;Node17</title>
<path fill="none" stroke="#191970" d="M313.3218,-112.2455C305.5786,-104.2155 294.4159,-92.6394 285.1961,-83.0781"/>
<polygon fill="#191970" stroke="#191970" points="287.487,-80.4117 278.0262,-75.6427 282.4481,-85.2706 287.487,-80.4117"/>
</g>
<!-- Node17&#45;&gt;Node6 -->
<g id="edge19" class="edge">
<title>Node17&#45;&gt;Node6</title>
<path fill="none" stroke="#191970" d="M244.4891,-56.3733C221.4489,-47.2226 186.6065,-33.3844 160.9778,-23.2057"/>
<polygon fill="#191970" stroke="#191970" points="162.2361,-19.9395 151.6503,-19.5011 159.6523,-26.4452 162.2361,-19.9395"/>
</g>
<!-- Node18&#45;&gt;Node11 -->
<g id="edge22" class="edge">
<title>Node18&#45;&gt;Node11</title>
<path fill="none" stroke="#191970" d="M411.6178,-168.4626C436.4342,-160.4128 471.3133,-147.6997 499.7279,-132 525.3495,-117.8434 551.8376,-96.978 568.9691,-82.5129"/>
<polygon fill="#191970" stroke="#191970" points="571.7125,-84.7706 577.0207,-75.6014 567.1531,-79.4591 571.7125,-84.7706"/>
</g>
<!-- Node18&#45;&gt;Node16 -->
<g id="edge25" class="edge">
<title>Node18&#45;&gt;Node16</title>
<path fill="none" stroke="#191970" d="M369.7992,-168.2455C361.5441,-160.1352 349.6069,-148.4075 339.8196,-138.7919"/>
<polygon fill="#191970" stroke="#191970" points="342.129,-136.1542 332.5427,-131.6427 337.2232,-141.1476 342.129,-136.1542"/>
</g>
<!-- Node19 -->
<g id="node19" class="node">
<title>Node19</title>
<g id="a_node19"><a xlink:title=" ">
<polygon fill="#ffffff" stroke="#bfbfbf" points="367.2279,-112.5 367.2279,-131.5 416.2279,-131.5 416.2279,-112.5 367.2279,-112.5"/>
<text text-anchor="middle" x="391.7279" y="-119.5" font-family="Helvetica,sans-Serif" font-size="10.00" fill="#000000">QLabel</text>
</a>
</g>
</g>
<!-- Node18&#45;&gt;Node19 -->
<g id="edge23" class="edge">
<title>Node18&#45;&gt;Node19</title>
<path fill="none" stroke="#191970" d="M381.8181,-168.2455C383.384,-160.9382 385.5791,-150.6944 387.5055,-141.7046"/>
<polygon fill="#191970" stroke="#191970" points="390.9885,-142.1541 389.6616,-131.6427 384.1439,-140.6873 390.9885,-142.1541"/>
</g>
<!-- Node20 -->
<g id="node20" class="node">
<title>Node20</title>
<g id="a_node20"><a xlink:title=" ">
<polygon fill="#ffffff" stroke="#bfbfbf" points="434.7279,-112.5 434.7279,-131.5 490.7279,-131.5 490.7279,-112.5 434.7279,-112.5"/>
<text text-anchor="middle" x="462.7279" y="-119.5" font-family="Helvetica,sans-Serif" font-size="10.00" fill="#000000">QWidget</text>
</a>
</g>
</g>
<!-- Node18&#45;&gt;Node20 -->
<g id="edge24" class="edge">
<title>Node18&#45;&gt;Node20</title>
<path fill="none" stroke="#191970" d="M394.1854,-168.2455C406.8011,-159.7337 425.3223,-147.2375 439.9324,-137.3801"/>
<polygon fill="#191970" stroke="#191970" points="442.104,-140.1371 448.4361,-131.6427 438.1888,-134.3343 442.104,-140.1371"/>
</g>
</g>
</svg>
        <g id="navigator" transform="translate(0 0)" fill="#404254">
                <rect fill="#f2f5e9" fill-opacity="0.5" stroke="#606060" stroke-width=".5" x="0" y="0" width="60" height="60"/>
                <use id="zoomplus" xlink:href="#zoomPlus" x="17" y="9" onmousedown="handleZoom(evt,'in')"/>
                <use id="zoomminus" xlink:href="#zoomMin" x="42" y="9" onmousedown="handleZoom(evt,'out')"/>
                <use id="reset" xlink:href="#resetDef" x="30" y="36" onmousedown="handleReset()"/>
                <g id="arrowUp" xlink:href="#dirArrow" transform="translate(30 24)" onmousedown="handlePan(0,-1)">
                  <use xlink:href="#rim" fill="#404040">
                        <set attributeName="fill" to="#808080" begin="arrowUp.mouseover" end="arrowUp.mouseout"/>
                  </use>
                  <path fill="none" stroke="white" stroke-width="1.5" d="M0,-3.0v7 M-2.5,-0.5L0,-3.0L2.5,-0.5"/>
                </g>
                <g id="arrowRight" xlink:href="#dirArrow" transform="rotate(90) translate(36 -43)" onmousedown="handlePan(1,0)">
                  <use xlink:href="#rim" fill="#404040">
                        <set attributeName="fill" to="#808080" begin="arrowRight.mouseover" end="arrowRight.mouseout"/>
                  </use>
                  <path fill="none" stroke="white" stroke-width="1.5" d="M0,-3.0v7 M-2.5,-0.5L0,-3.0L2.5,-0.5"/>
                </g>
                <g id="arrowDown" xlink:href="#dirArrow" transform="rotate(180) translate(-30 -48)" onmousedown="handlePan(0,1)">
                  <use xlink:href="#rim" fill="#404040">
                        <set attributeName="fill" to="#808080" begin="arrowDown.mouseover" end="arrowDown.mouseout"/>
                  </use>
                  <path fill="none" stroke="white" stroke-width="1.5" d="M0,-3.0v7 M-2.5,-0.5L0,-3.0L2.5,-0.5"/>
                </g>
                <g id="arrowLeft" xlink:href="#dirArrow" transform="rotate(270) translate(-36 17)" onmousedown="handlePan(-1,0)">
                  <use xlink:href="#rim" fill="#404040">
                        <set attributeName="fill" to="#808080" begin="arrowLeft.mouseover" end="arrowLeft.mouseout"/>
                  </use>
                  <path fill="none" stroke="white" stroke-width="1.5" d="M0,-3.0v7 M-2.5,-0.5L0,-3.0L2.5,-0.5"/>
                </g>
        </g>
        <svg viewBox="0 0 15 15" width="100%" height="30px" preserveAspectRatio="xMaxYMin meet">
         <g id="arrow_out" transform="scale(0.3 0.3)">
          <a xlink:href="scene_8cpp__incl_org.svg" target="_base">
           <rect id="button" ry="5" rx="5" y="6" x="6" height="38" width="38"
                fill="#f2f5e9" fill-opacity="0.5" stroke="#606060" stroke-width="1.0"/>
           <path id="arrow"
             d="M 11.500037,31.436501 C 11.940474,20.09759 22.043105,11.32322 32.158766,21.979434 L 37.068811,17.246167 C 37.068811,17.246167 37.088388,32 37.088388,32 L 22.160133,31.978069 C 22.160133,31.978069 26.997745,27.140456 26.997745,27.140456 C 18.528582,18.264221 13.291696,25.230495 11.500037,31.436501 z"
             style="fill:#404040;"/>
          </a>
         </g>
        </svg>
</svg>
