<?xml version="1.0" encoding="UTF-8" standalone="no"?>
<!DOCTYPE svg PUBLIC "-//W3C//DTD SVG 1.1//EN"
 "http://www.w3.org/Graphics/SVG/1.1/DTD/svg11.dtd">
<!-- Generated by graphviz version 2.40.1 (20161225.0304)
 -->
<!-- Title: src/application_server/scene.cpp Pages: 1 -->
<svg width="834pt" height="319pt"
 viewBox="0.00 0.00 833.50 319.00" xmlns="http://www.w3.org/2000/svg" xmlns:xlink="http://www.w3.org/1999/xlink">
<g id="graph0" class="graph" transform="scale(1 1) rotate(0) translate(4 315)">
<title>src/application_server/scene.cpp</title>
<polygon fill="#ffffff" stroke="transparent" points="-4,4 -4,-315 829.5,-315 829.5,4 -4,4"/>
<!-- Node1 -->
<g id="node1" class="node">
<title>Node1</title>
<g id="a_node1"><a xlink:title=" ">
<polygon fill="#bfbfbf" stroke="#000000" points="585.5,-280.5 585.5,-310.5 700.5,-310.5 700.5,-280.5 585.5,-280.5"/>
<text text-anchor="start" x="593.5" y="-298.5" font-family="Helvetica,sans-Serif" font-size="10.00" fill="#000000">src/application_server</text>
<text text-anchor="middle" x="643" y="-287.5" font-family="Helvetica,sans-Serif" font-size="10.00" fill="#000000">/scene.cpp</text>
</a>
</g>
</g>
<!-- Node2 -->
<g id="node2" class="node">
<title>Node2</title>
<g id="a_node2"><a xlink:href="scene_8h.html" target="_top" xlink:title=" ">
<polygon fill="#ffffff" stroke="#000000" points="329,-224.5 329,-243.5 381,-243.5 381,-224.5 329,-224.5"/>
<text text-anchor="middle" x="355" y="-231.5" font-family="Helvetica,sans-Serif" font-size="10.00" fill="#000000">scene.h</text>
</a>
</g>
</g>
<!-- Node1&#45;&gt;Node2 -->
<g id="edge1" class="edge">
<title>Node1&#45;&gt;Node2</title>
<path fill="none" stroke="#191970" d="M585.4111,-283.2024C527.4822,-270.8321 439.9469,-252.1397 391.1384,-241.7171"/>
<polygon fill="#191970" stroke="#191970" points="391.846,-238.2893 381.3356,-239.6237 390.3841,-245.135 391.846,-238.2893"/>
</g>
<!-- Node8 -->
<g id="node8" class="node">
<title>Node8</title>
<g id="a_node8"><a xlink:href="maptile_8h.html" target="_top" xlink:title=" ">
<polygon fill="#ffffff" stroke="#000000" points="739,-168.5 739,-187.5 795,-187.5 795,-168.5 739,-168.5"/>
<text text-anchor="middle" x="767" y="-175.5" font-family="Helvetica,sans-Serif" font-size="10.00" fill="#000000">maptile.h</text>
</a>
</g>
</g>
<!-- Node1&#45;&gt;Node8 -->
<g id="edge29" class="edge">
<title>Node1&#45;&gt;Node8</title>
<path fill="none" stroke="#191970" d="M625.9663,-280.371C611.0304,-265.2524 593.6239,-241.7636 607,-224 608.8931,-221.4859 682.3099,-201.0898 729.025,-188.3147"/>
<polygon fill="#191970" stroke="#191970" points="730.1129,-191.6459 738.8381,-185.6358 728.2693,-184.893 730.1129,-191.6459"/>
</g>
<!-- Node24 -->
<g id="node24" class="node">
<title>Node24</title>
<g id="a_node24"><a xlink:title=" ">
<polygon fill="#ffffff" stroke="#bfbfbf" points="616,-224.5 616,-243.5 670,-243.5 670,-224.5 616,-224.5"/>
<text text-anchor="middle" x="643" y="-231.5" font-family="Helvetica,sans-Serif" font-size="10.00" fill="#000000">QDebug</text>
</a>
</g>
</g>
<!-- Node1&#45;&gt;Node24 -->
<g id="edge30" class="edge">
<title>Node1&#45;&gt;Node24</title>
<path fill="none" stroke="#191970" d="M643,-280.2977C643,-272.3834 643,-262.6043 643,-254.0759"/>
<polygon fill="#191970" stroke="#191970" points="646.5001,-253.8469 643,-243.8469 639.5001,-253.847 646.5001,-253.8469"/>
</g>
<!-- Node25 -->
<g id="node25" class="node">
<title>Node25</title>
<g id="a_node25"><a xlink:title=" ">
<polygon fill="#ffffff" stroke="#bfbfbf" points="688,-224.5 688,-243.5 730,-243.5 730,-224.5 688,-224.5"/>
<text text-anchor="middle" x="709" y="-231.5" font-family="Helvetica,sans-Serif" font-size="10.00" fill="#000000">QPen</text>
</a>
</g>
</g>
<!-- Node1&#45;&gt;Node25 -->
<g id="edge31" class="edge">
<title>Node1&#45;&gt;Node25</title>
<path fill="none" stroke="#191970" d="M659.3146,-280.2977C668.9533,-271.3163 681.1691,-259.9334 691.0759,-250.702"/>
<polygon fill="#191970" stroke="#191970" points="693.5025,-253.2249 698.4326,-243.8469 688.7304,-248.1036 693.5025,-253.2249"/>
</g>
<!-- Node26 -->
<g id="node26" class="node">
<title>Node26</title>
<g id="a_node26"><a xlink:title=" ">
<polygon fill="#ffffff" stroke="#bfbfbf" points="748,-224.5 748,-243.5 804,-243.5 804,-224.5 748,-224.5"/>
<text text-anchor="middle" x="776" y="-231.5" font-family="Helvetica,sans-Serif" font-size="10.00" fill="#000000">QPainter</text>
</a>
</g>
</g>
<!-- Node1&#45;&gt;Node26 -->
<g id="edge32" class="edge">
<title>Node1&#45;&gt;Node26</title>
<path fill="none" stroke="#191970" d="M675.5355,-280.4554C697.1429,-270.464 725.2898,-257.4487 746.292,-247.7372"/>
<polygon fill="#191970" stroke="#191970" points="747.7821,-250.9043 755.3897,-243.5303 744.8441,-244.5506 747.7821,-250.9043"/>
</g>
<!-- Node3 -->
<g id="node3" class="node">
<title>Node3</title>
<g id="a_node3"><a xlink:title=" ">
<polygon fill="#ffffff" stroke="#bfbfbf" points="233,-168.5 233,-187.5 327,-187.5 327,-168.5 233,-168.5"/>
<text text-anchor="middle" x="280" y="-175.5" font-family="Helvetica,sans-Serif" font-size="10.00" fill="#000000">QGraphicsScene</text>
</a>
</g>
</g>
<!-- Node2&#45;&gt;Node3 -->
<g id="edge2" class="edge">
<title>Node2&#45;&gt;Node3</title>
<path fill="none" stroke="#191970" d="M341.936,-224.2455C330.6438,-215.814 314.1155,-203.4729 300.9729,-193.6598"/>
<polygon fill="#191970" stroke="#191970" points="303.0211,-190.8211 292.9143,-187.6427 298.8331,-196.4301 303.0211,-190.8211"/>
</g>
<!-- Node4 -->
<g id="node4" class="node">
<title>Node4</title>
<g id="a_node4"><a xlink:title=" ">
<polygon fill="#ffffff" stroke="#bfbfbf" points="515,-168.5 515,-187.5 619,-187.5 619,-168.5 515,-168.5"/>
<text text-anchor="middle" x="567" y="-175.5" font-family="Helvetica,sans-Serif" font-size="10.00" fill="#000000">QGraphicsTextItem</text>
</a>
</g>
</g>
<!-- Node2&#45;&gt;Node4 -->
<g id="edge3" class="edge">
<title>Node2&#45;&gt;Node4</title>
<path fill="none" stroke="#191970" d="M381.4213,-227.0208C416.3593,-217.7919 478.4787,-201.383 521.1537,-190.1104"/>
<polygon fill="#191970" stroke="#191970" points="522.2438,-193.4425 531.0183,-187.5046 520.4561,-186.6746 522.2438,-193.4425"/>
</g>
<!-- Node5 -->
<g id="node5" class="node">
<title>Node5</title>
<g id="a_node5"><a xlink:title=" ">
<polygon fill="#ffffff" stroke="#bfbfbf" points="637.5,-168.5 637.5,-187.5 720.5,-187.5 720.5,-168.5 637.5,-168.5"/>
<text text-anchor="middle" x="679" y="-175.5" font-family="Helvetica,sans-Serif" font-size="10.00" fill="#000000">QGraphicsItem</text>
</a>
</g>
</g>
<!-- Node2&#45;&gt;Node5 -->
<g id="edge4" class="edge">
<title>Node2&#45;&gt;Node5</title>
<path fill="none" stroke="#191970" d="M381.0131,-229.8541C427.9937,-222.3154 530.3531,-205.6582 627.3016,-188.0897"/>
<polygon fill="#191970" stroke="#191970" points="628.0565,-191.5099 637.2686,-186.2767 626.8037,-184.6229 628.0565,-191.5099"/>
</g>
<!-- Node6 -->
<g id="node6" class="node">
<title>Node6</title>
<g id="a_node6"><a xlink:title=" ">
<polygon fill="#ffffff" stroke="#bfbfbf" points="0,-.5 0,-19.5 104,-19.5 104,-.5 0,-.5"/>
<text text-anchor="middle" x="52" y="-7.5" font-family="Helvetica,sans-Serif" font-size="10.00" fill="#000000">QGraphicsRectItem</text>
</a>
</g>
</g>
<!-- Node2&#45;&gt;Node6 -->
<g id="edge5" class="edge">
<title>Node2&#45;&gt;Node6</title>
<path fill="none" stroke="#191970" d="M328.6885,-232.534C269.2772,-228.7431 127.0329,-216.8243 90,-188 46.9819,-154.5172 51.3605,-129.316 40,-76 36.6677,-60.3612 40.3613,-42.5132 44.5032,-29.3239"/>
<polygon fill="#191970" stroke="#191970" points="47.8097,-30.4712 47.7953,-19.8763 41.1996,-28.1677 47.8097,-30.4712"/>
</g>
<!-- Node7 -->
<g id="node7" class="node">
<title>Node7</title>
<g id="a_node7"><a xlink:title=" ">
<polygon fill="#ffffff" stroke="#bfbfbf" points="383.5,-168.5 383.5,-187.5 496.5,-187.5 496.5,-168.5 383.5,-168.5"/>
<text text-anchor="middle" x="440" y="-175.5" font-family="Helvetica,sans-Serif" font-size="10.00" fill="#000000">QGraphicsEllipseItem</text>
</a>
</g>
</g>
<!-- Node2&#45;&gt;Node7 -->
<g id="edge6" class="edge">
<title>Node2&#45;&gt;Node7</title>
<path fill="none" stroke="#191970" d="M369.8059,-224.2455C382.7256,-215.7337 401.6931,-203.2375 416.6552,-193.3801"/>
<polygon fill="#191970" stroke="#191970" points="418.9387,-196.067 425.3638,-187.6427 415.0876,-190.2216 418.9387,-196.067"/>
</g>
<!-- Node2&#45;&gt;Node8 -->
<g id="edge7" class="edge">
<title>Node2&#45;&gt;Node8</title>
<path fill="none" stroke="#191970" d="M381.1143,-232.0802C440.945,-227.4101 592.6363,-214.027 728.636,-188.035"/>
<polygon fill="#191970" stroke="#191970" points="729.6649,-191.4007 738.8151,-186.0599 728.3314,-184.5289 729.6649,-191.4007"/>
</g>
<!-- Node13 -->
<g id="node13" class="node">
<title>Node13</title>
<g id="a_node13"><a xlink:href="graphicsmanager_8h.html" target="_top" xlink:title=" ">
<polygon fill="#ffffff" stroke="#000000" points="459.5,-112.5 459.5,-131.5 562.5,-131.5 562.5,-112.5 459.5,-112.5"/>
<text text-anchor="middle" x="511" y="-119.5" font-family="Helvetica,sans-Serif" font-size="10.00" fill="#000000">graphicsmanager.h</text>
</a>
</g>
</g>
<!-- Node2&#45;&gt;Node13 -->
<g id="edge16" class="edge">
<title>Node2&#45;&gt;Node13</title>
<path fill="none" stroke="#191970" d="M355.2771,-224.0961C356.2097,-209.8208 360.0062,-183.4803 375,-168 394.6054,-147.7586 423.4189,-136.4239 449.4838,-130.0768"/>
<polygon fill="#191970" stroke="#191970" points="450.3179,-133.4768 459.3139,-127.8803 448.7913,-126.6453 450.3179,-133.4768"/>
</g>
<!-- Node16 -->
<g id="node16" class="node">
<title>Node16</title>
<g id="a_node16"><a xlink:href="player_8h.html" target="_top" xlink:title=" ">
<polygon fill="#ffffff" stroke="#000000" points="87,-112.5 87,-131.5 139,-131.5 139,-112.5 87,-112.5"/>
<text text-anchor="middle" x="113" y="-119.5" font-family="Helvetica,sans-Serif" font-size="10.00" fill="#000000">player.h</text>
</a>
</g>
</g>
<!-- Node2&#45;&gt;Node16 -->
<g id="edge17" class="edge">
<title>Node2&#45;&gt;Node16</title>
<path fill="none" stroke="#191970" d="M328.6772,-231.9413C276.043,-227.302 160.4256,-214.3203 132,-188 119.3111,-176.2509 114.9013,-156.6312 113.4625,-141.8297"/>
<polygon fill="#191970" stroke="#191970" points="116.9451,-141.433 112.8534,-131.6602 109.9576,-141.8516 116.9451,-141.433"/>
</g>
<!-- Node17 -->
<g id="node17" class="node">
<title>Node17</title>
<g id="a_node17"><a xlink:href="highlighter_8h.html" target="_top" xlink:title=" ">
<polygon fill="#ffffff" stroke="#000000" points="49,-56.5 49,-75.5 119,-75.5 119,-56.5 49,-56.5"/>
<text text-anchor="middle" x="84" y="-63.5" font-family="Helvetica,sans-Serif" font-size="10.00" fill="#000000">highlighter.h</text>
</a>
</g>
</g>
<!-- Node2&#45;&gt;Node17 -->
<g id="edge20" class="edge">
<title>Node2&#45;&gt;Node17</title>
<path fill="none" stroke="#191970" d="M328.7219,-231.4868C274.1767,-225.8674 150.8483,-210.9497 116,-188 90.8799,-171.4569 86.8341,-160.7515 78,-132 73.3535,-116.8775 75.4293,-98.9598 78.3466,-85.6122"/>
<polygon fill="#191970" stroke="#191970" points="81.8107,-86.1893 80.866,-75.6367 75.0238,-84.4752 81.8107,-86.1893"/>
</g>
<!-- Node18 -->
<g id="node18" class="node">
<title>Node18</title>
<g id="a_node18"><a xlink:href="datamodel_8h.html" target="_top" xlink:title=" ">
<polygon fill="#ffffff" stroke="#000000" points="141.5,-168.5 141.5,-187.5 214.5,-187.5 214.5,-168.5 141.5,-168.5"/>
<text text-anchor="middle" x="178" y="-175.5" font-family="Helvetica,sans-Serif" font-size="10.00" fill="#000000">datamodel.h</text>
</a>
</g>
</g>
<!-- Node2&#45;&gt;Node18 -->
<g id="edge21" class="edge">
<title>Node2&#45;&gt;Node18</title>
<path fill="none" stroke="#191970" d="M328.883,-225.737C299.5627,-216.4605 251.6552,-201.3033 217.6963,-190.5593"/>
<polygon fill="#191970" stroke="#191970" points="218.6689,-187.1961 208.0789,-187.5165 216.5573,-193.87 218.6689,-187.1961"/>
</g>
<!-- Node9 -->
<g id="node9" class="node">
<title>Node9</title>
<g id="a_node9"><a xlink:title=" ">
<polygon fill="#ffffff" stroke="#bfbfbf" points="708.5,-112.5 708.5,-131.5 825.5,-131.5 825.5,-112.5 708.5,-112.5"/>
<text text-anchor="middle" x="767" y="-119.5" font-family="Helvetica,sans-Serif" font-size="10.00" fill="#000000">QGraphicsPixmapItem</text>
</a>
</g>
</g>
<!-- Node8&#45;&gt;Node9 -->
<g id="edge8" class="edge">
<title>Node8&#45;&gt;Node9</title>
<path fill="none" stroke="#191970" d="M767,-168.2455C767,-160.9382 767,-150.6944 767,-141.7046"/>
<polygon fill="#191970" stroke="#191970" points="770.5001,-141.6426 767,-131.6427 763.5001,-141.6427 770.5001,-141.6426"/>
</g>
<!-- Node10 -->
<g id="node10" class="node">
<title>Node10</title>
<g id="a_node10"><a xlink:href="city_8h.html" target="_top" xlink:title=" ">
<polygon fill="#ffffff" stroke="#000000" points="642.5,-112.5 642.5,-131.5 681.5,-131.5 681.5,-112.5 642.5,-112.5"/>
<text text-anchor="middle" x="662" y="-119.5" font-family="Helvetica,sans-Serif" font-size="10.00" fill="#000000">city.h</text>
</a>
</g>
</g>
<!-- Node8&#45;&gt;Node10 -->
<g id="edge9" class="edge">
<title>Node8&#45;&gt;Node10</title>
<path fill="none" stroke="#191970" d="M748.7104,-168.2455C732.2238,-159.4527 707.7648,-146.4079 689.0235,-136.4125"/>
<polygon fill="#191970" stroke="#191970" points="690.5506,-133.2604 680.08,-131.6427 687.2565,-139.4368 690.5506,-133.2604"/>
</g>
<!-- Node8&#45;&gt;Node13 -->
<g id="edge12" class="edge">
<title>Node8&#45;&gt;Node13</title>
<path fill="none" stroke="#191970" d="M738.7606,-170.1902C735.8083,-169.4269 732.847,-168.6831 730,-168 676.2012,-155.0909 614.488,-142.3094 570.3135,-133.5082"/>
<polygon fill="#191970" stroke="#191970" points="570.8119,-130.0389 560.3219,-131.5258 569.4495,-136.9051 570.8119,-130.0389"/>
</g>
<!-- Node11 -->
<g id="node11" class="node">
<title>Node11</title>
<g id="a_node11"><a xlink:title=" ">
<polygon fill="#ffffff" stroke="#bfbfbf" points="425.5,-56.5 425.5,-75.5 466.5,-75.5 466.5,-56.5 425.5,-56.5"/>
<text text-anchor="middle" x="446" y="-63.5" font-family="Helvetica,sans-Serif" font-size="10.00" fill="#000000">string</text>
</a>
</g>
</g>
<!-- Node10&#45;&gt;Node11 -->
<g id="edge10" class="edge">
<title>Node10&#45;&gt;Node11</title>
<path fill="none" stroke="#191970" d="M642.3153,-117.6723C609.819,-110.4134 542.7464,-94.9495 476.3729,-75.9329"/>
<polygon fill="#191970" stroke="#191970" points="477.1682,-72.5195 466.5894,-73.1019 475.2225,-79.2436 477.1682,-72.5195"/>
</g>
<!-- Node12 -->
<g id="node12" class="node">
<title>Node12</title>
<g id="a_node12"><a xlink:title=" ">
<polygon fill="#ffffff" stroke="#bfbfbf" points="640,-56.5 640,-75.5 684,-75.5 684,-56.5 640,-56.5"/>
<text text-anchor="middle" x="662" y="-63.5" font-family="Helvetica,sans-Serif" font-size="10.00" fill="#000000">vector</text>
</a>
</g>
</g>
<!-- Node10&#45;&gt;Node12 -->
<g id="edge11" class="edge">
<title>Node10&#45;&gt;Node12</title>
<path fill="none" stroke="#191970" d="M662,-112.2455C662,-104.9382 662,-94.6944 662,-85.7046"/>
<polygon fill="#191970" stroke="#191970" points="665.5001,-85.6426 662,-75.6427 658.5001,-85.6427 665.5001,-85.6426"/>
</g>
<!-- Node13&#45;&gt;Node11 -->
<g id="edge15" class="edge">
<title>Node13&#45;&gt;Node11</title>
<path fill="none" stroke="#191970" d="M499.6779,-112.2455C490.0777,-103.9746 476.1108,-91.9416 464.8305,-82.2232"/>
<polygon fill="#191970" stroke="#191970" points="467.053,-79.5182 457.1924,-75.6427 462.484,-84.8214 467.053,-79.5182"/>
</g>
<!-- Node14 -->
<g id="node14" class="node">
<title>Node14</title>
<g id="a_node14"><a xlink:title=" ">
<polygon fill="#ffffff" stroke="#bfbfbf" points="556,-56.5 556,-75.5 614,-75.5 614,-56.5 556,-56.5"/>
<text text-anchor="middle" x="585" y="-63.5" font-family="Helvetica,sans-Serif" font-size="10.00" fill="#000000">QPixmap</text>
</a>
</g>
</g>
<!-- Node13&#45;&gt;Node14 -->
<g id="edge13" class="edge">
<title>Node13&#45;&gt;Node14</title>
<path fill="none" stroke="#191970" d="M523.8898,-112.2455C534.9254,-103.8943 551.0292,-91.7076 563.9353,-81.9408"/>
<polygon fill="#191970" stroke="#191970" points="566.3959,-84.4681 572.2579,-75.6427 562.1717,-78.8862 566.3959,-84.4681"/>
</g>
<!-- Node15 -->
<g id="node15" class="node">
<title>Node15</title>
<g id="a_node15"><a xlink:title=" ">
<polygon fill="#ffffff" stroke="#bfbfbf" points="484.5,-56.5 484.5,-75.5 537.5,-75.5 537.5,-56.5 484.5,-56.5"/>
<text text-anchor="middle" x="511" y="-63.5" font-family="Helvetica,sans-Serif" font-size="10.00" fill="#000000">QImage</text>
</a>
</g>
</g>
<!-- Node13&#45;&gt;Node15 -->
<g id="edge14" class="edge">
<title>Node13&#45;&gt;Node15</title>
<path fill="none" stroke="#191970" d="M511,-112.2455C511,-104.9382 511,-94.6944 511,-85.7046"/>
<polygon fill="#191970" stroke="#191970" points="514.5001,-85.6426 511,-75.6427 507.5001,-85.6427 514.5001,-85.6426"/>
</g>
<!-- Node16&#45;&gt;Node17 -->
<g id="edge18" class="edge">
<title>Node16&#45;&gt;Node17</title>
<path fill="none" stroke="#191970" d="M107.9486,-112.2455C103.9981,-104.617 98.3903,-93.7881 93.5942,-84.5267"/>
<polygon fill="#191970" stroke="#191970" points="96.7001,-82.9131 88.9935,-75.6427 90.4841,-86.1321 96.7001,-82.9131"/>
</g>
<!-- Node17&#45;&gt;Node6 -->
<g id="edge19" class="edge">
<title>Node17&#45;&gt;Node6</title>
<path fill="none" stroke="#191970" d="M78.426,-56.2455C74.0669,-48.617 67.8789,-37.7881 62.5867,-28.5267"/>
<polygon fill="#191970" stroke="#191970" points="65.5104,-26.5886 57.5101,-19.6427 59.4327,-30.0616 65.5104,-26.5886"/>
</g>
<!-- Node18&#45;&gt;Node11 -->
<g id="edge22" class="edge">
<title>Node18&#45;&gt;Node11</title>
<path fill="none" stroke="#191970" d="M214.9592,-169.9417C275.0952,-156.8249 387.529,-132.2777 388,-132 407.8048,-120.3232 424.3936,-99.5188 434.6885,-84.3818"/>
<polygon fill="#191970" stroke="#191970" points="437.7381,-86.1124 440.2577,-75.8216 431.8705,-82.2951 437.7381,-86.1124"/>
</g>
<!-- Node18&#45;&gt;Node16 -->
<g id="edge28" class="edge">
<title>Node18&#45;&gt;Node16</title>
<path fill="none" stroke="#191970" d="M166.6779,-168.2455C157.0777,-159.9746 143.1108,-147.9416 131.8305,-138.2232"/>
<polygon fill="#191970" stroke="#191970" points="134.053,-135.5182 124.1924,-131.6427 129.484,-140.8214 134.053,-135.5182"/>
</g>
<!-- Node19 -->
<g id="node19" class="node">
<title>Node19</title>
<g id="a_node19"><a xlink:title=" ">
<polygon fill="#ffffff" stroke="#bfbfbf" points="329.5,-112.5 329.5,-131.5 378.5,-131.5 378.5,-112.5 329.5,-112.5"/>
<text text-anchor="middle" x="354" y="-119.5" font-family="Helvetica,sans-Serif" font-size="10.00" fill="#000000">QLabel</text>
</a>
</g>
</g>
<!-- Node18&#45;&gt;Node19 -->
<g id="edge23" class="edge">
<title>Node18&#45;&gt;Node19</title>
<path fill="none" stroke="#191970" d="M208.2555,-168.3733C239.1179,-158.5534 286.9458,-143.3354 319.3199,-133.0346"/>
<polygon fill="#191970" stroke="#191970" points="320.7788,-136.2433 329.2469,-129.876 318.6564,-129.5729 320.7788,-136.2433"/>
</g>
<!-- Node20 -->
<g id="node20" class="node">
<title>Node20</title>
<g id="a_node20"><a xlink:title=" ">
<polygon fill="#ffffff" stroke="#bfbfbf" points="157,-112.5 157,-131.5 213,-131.5 213,-112.5 157,-112.5"/>
<text text-anchor="middle" x="185" y="-119.5" font-family="Helvetica,sans-Serif" font-size="10.00" fill="#000000">QWidget</text>
</a>
</g>
</g>
<!-- Node18&#45;&gt;Node20 -->
<g id="edge24" class="edge">
<title>Node18&#45;&gt;Node20</title>
<path fill="none" stroke="#191970" d="M179.2193,-168.2455C180.1327,-160.9382 181.4132,-150.6944 182.5369,-141.7046"/>
<polygon fill="#191970" stroke="#191970" points="186.0272,-141.9996 183.7947,-131.6427 179.0813,-141.1313 186.0272,-141.9996"/>
</g>
<!-- Node21 -->
<g id="node21" class="node">
<title>Node21</title>
<g id="a_node21"><a xlink:href="mainwindow_8h.html" target="_top" xlink:title=" ">
<polygon fill="#ffffff" stroke="#000000" points="231,-112.5 231,-131.5 311,-131.5 311,-112.5 231,-112.5"/>
<text text-anchor="middle" x="271" y="-119.5" font-family="Helvetica,sans-Serif" font-size="10.00" fill="#000000">mainwindow.h</text>
</a>
</g>
</g>
<!-- Node18&#45;&gt;Node21 -->
<g id="edge25" class="edge">
<title>Node18&#45;&gt;Node21</title>
<path fill="none" stroke="#191970" d="M194.1994,-168.2455C208.6018,-159.5731 229.8732,-146.7645 246.3799,-136.825"/>
<polygon fill="#191970" stroke="#191970" points="248.225,-139.7996 254.9863,-131.6427 244.614,-133.8028 248.225,-139.7996"/>
</g>
<!-- Node22 -->
<g id="node22" class="node">
<title>Node22</title>
<g id="a_node22"><a xlink:title=" ">
<polygon fill="#ffffff" stroke="#bfbfbf" points="222.5,-56.5 222.5,-75.5 305.5,-75.5 305.5,-56.5 222.5,-56.5"/>
<text text-anchor="middle" x="264" y="-63.5" font-family="Helvetica,sans-Serif" font-size="10.00" fill="#000000">QMainWindow</text>
</a>
</g>
</g>
<!-- Node21&#45;&gt;Node22 -->
<g id="edge26" class="edge">
<title>Node21&#45;&gt;Node22</title>
<path fill="none" stroke="#191970" d="M269.7807,-112.2455C268.8673,-104.9382 267.5868,-94.6944 266.4631,-85.7046"/>
<polygon fill="#191970" stroke="#191970" points="269.9187,-85.1313 265.2053,-75.6427 262.9728,-85.9996 269.9187,-85.1313"/>
</g>
<!-- Node23 -->
<g id="node23" class="node">
<title>Node23</title>
<g id="a_node23"><a xlink:title=" ">
<polygon fill="#ffffff" stroke="#bfbfbf" points="323.5,-56.5 323.5,-75.5 390.5,-75.5 390.5,-56.5 323.5,-56.5"/>
<text text-anchor="middle" x="357" y="-63.5" font-family="Helvetica,sans-Serif" font-size="10.00" fill="#000000">QKeyEvent</text>
</a>
</g>
</g>
<!-- Node21&#45;&gt;Node23 -->
<g id="edge27" class="edge">
<title>Node21&#45;&gt;Node23</title>
<path fill="none" stroke="#191970" d="M285.9801,-112.2455C299.1751,-103.6534 318.6051,-91.0014 333.8079,-81.1018"/>
<polygon fill="#191970" stroke="#191970" points="335.7215,-84.0325 342.1916,-75.6427 331.9017,-78.1665 335.7215,-84.0325"/>
</g>
</g>
</svg>
