<?xml version="1.0" encoding="UTF-8" standalone="no"?>
<!DOCTYPE svg PUBLIC "-//W3C//DTD SVG 1.1//EN"
 "http://www.w3.org/Graphics/SVG/1.1/DTD/svg11.dtd">
<!-- Generated by graphviz version 2.40.1 (20161225.0304)
 -->
<!-- Title: src/application_server/scene.h Pages: 1 -->
<svg width="1424pt" height="263pt"
 viewBox="0.00 0.00 1423.50 263.00" xmlns="http://www.w3.org/2000/svg" xmlns:xlink="http://www.w3.org/1999/xlink">
<g id="graph0" class="graph" transform="scale(1 1) rotate(0) translate(4 259)">
<title>src/application_server/scene.h</title>
<polygon fill="#ffffff" stroke="transparent" points="-4,4 -4,-259 1419.5,-259 1419.5,4 -4,4"/>
<!-- Node1 -->
<g id="node1" class="node">
<title>Node1</title>
<g id="a_node1"><a xlink:title=" ">
<polygon fill="#bfbfbf" stroke="#000000" points="353.5,-224.5 353.5,-254.5 468.5,-254.5 468.5,-224.5 353.5,-224.5"/>
<text text-anchor="start" x="361.5" y="-242.5" font-family="Helvetica,sans-Serif" font-size="10.00" fill="#000000">src/application_server</text>
<text text-anchor="middle" x="411" y="-231.5" font-family="Helvetica,sans-Serif" font-size="10.00" fill="#000000">/scene.h</text>
</a>
</g>
</g>
<!-- Node2 -->
<g id="node2" class="node">
<title>Node2</title>
<g id="a_node2"><a xlink:title=" ">
<polygon fill="#ffffff" stroke="#bfbfbf" points="0,-168.5 0,-187.5 94,-187.5 94,-168.5 0,-168.5"/>
<text text-anchor="middle" x="47" y="-175.5" font-family="Helvetica,sans-Serif" font-size="10.00" fill="#000000">QGraphicsScene</text>
</a>
</g>
</g>
<!-- Node1&#45;&gt;Node2 -->
<g id="edge1" class="edge">
<title>Node1&#45;&gt;Node2</title>
<path fill="none" stroke="#191970" d="M353.3504,-230.0555C293.5601,-220.2162 197.0858,-204.2176 103.9237,-188.1463"/>
<polygon fill="#191970" stroke="#191970" points="104.497,-184.6936 94.0471,-186.4401 103.3053,-191.5914 104.497,-184.6936"/>
</g>
<!-- Node3 -->
<g id="node3" class="node">
<title>Node3</title>
<g id="a_node3"><a xlink:title=" ">
<polygon fill="#ffffff" stroke="#bfbfbf" points="112,-168.5 112,-187.5 216,-187.5 216,-168.5 112,-168.5"/>
<text text-anchor="middle" x="164" y="-175.5" font-family="Helvetica,sans-Serif" font-size="10.00" fill="#000000">QGraphicsTextItem</text>
</a>
</g>
</g>
<!-- Node1&#45;&gt;Node3 -->
<g id="edge2" class="edge">
<title>Node1&#45;&gt;Node3</title>
<path fill="none" stroke="#191970" d="M353.4012,-225.1586C310.5599,-214.4916 252.7559,-200.0991 212.3152,-190.0299"/>
<polygon fill="#191970" stroke="#191970" points="212.9769,-186.5878 202.4275,-187.568 211.2855,-193.3805 212.9769,-186.5878"/>
</g>
<!-- Node4 -->
<g id="node4" class="node">
<title>Node4</title>
<g id="a_node4"><a xlink:title=" ">
<polygon fill="#ffffff" stroke="#bfbfbf" points="234.5,-168.5 234.5,-187.5 317.5,-187.5 317.5,-168.5 234.5,-168.5"/>
<text text-anchor="middle" x="276" y="-175.5" font-family="Helvetica,sans-Serif" font-size="10.00" fill="#000000">QGraphicsItem</text>
</a>
</g>
</g>
<!-- Node1&#45;&gt;Node4 -->
<g id="edge3" class="edge">
<title>Node1&#45;&gt;Node4</title>
<path fill="none" stroke="#191970" d="M377.9753,-224.4554C356.043,-214.464 327.4727,-201.4487 306.1547,-191.7372"/>
<polygon fill="#191970" stroke="#191970" points="307.4714,-188.4909 296.9202,-187.5303 304.5694,-194.8611 307.4714,-188.4909"/>
</g>
<!-- Node5 -->
<g id="node5" class="node">
<title>Node5</title>
<g id="a_node5"><a xlink:title=" ">
<polygon fill="#ffffff" stroke="#bfbfbf" points="325,-.5 325,-19.5 429,-19.5 429,-.5 325,-.5"/>
<text text-anchor="middle" x="377" y="-7.5" font-family="Helvetica,sans-Serif" font-size="10.00" fill="#000000">QGraphicsRectItem</text>
</a>
</g>
</g>
<!-- Node1&#45;&gt;Node5 -->
<g id="edge4" class="edge">
<title>Node1&#45;&gt;Node5</title>
<path fill="none" stroke="#191970" d="M405.2636,-224.469C394.7447,-196.011 372.7393,-132.0844 365,-76 362.8359,-60.3171 366.3537,-42.6798 370.1293,-29.5857"/>
<polygon fill="#191970" stroke="#191970" points="373.5468,-30.3884 373.2425,-19.7979 366.876,-28.2666 373.5468,-30.3884"/>
</g>
<!-- Node6 -->
<g id="node6" class="node">
<title>Node6</title>
<g id="a_node6"><a xlink:title=" ">
<polygon fill="#ffffff" stroke="#bfbfbf" points="672.5,-168.5 672.5,-187.5 785.5,-187.5 785.5,-168.5 672.5,-168.5"/>
<text text-anchor="middle" x="729" y="-175.5" font-family="Helvetica,sans-Serif" font-size="10.00" fill="#000000">QGraphicsEllipseItem</text>
</a>
</g>
</g>
<!-- Node1&#45;&gt;Node6 -->
<g id="edge5" class="edge">
<title>Node1&#45;&gt;Node6</title>
<path fill="none" stroke="#191970" d="M468.5874,-228.3628C525.488,-217.3585 612.1275,-200.6027 669.6371,-189.4806"/>
<polygon fill="#191970" stroke="#191970" points="670.5147,-192.8758 679.6682,-187.5406 669.1855,-186.0031 670.5147,-192.8758"/>
</g>
<!-- Node7 -->
<g id="node7" class="node">
<title>Node7</title>
<g id="a_node7"><a xlink:href="maptile_8h.html" target="_top" xlink:title=" ">
<polygon fill="#ffffff" stroke="#000000" points="1156,-168.5 1156,-187.5 1212,-187.5 1212,-168.5 1156,-168.5"/>
<text text-anchor="middle" x="1184" y="-175.5" font-family="Helvetica,sans-Serif" font-size="10.00" fill="#000000">maptile.h</text>
</a>
</g>
</g>
<!-- Node1&#45;&gt;Node7 -->
<g id="edge6" class="edge">
<title>Node1&#45;&gt;Node7</title>
<path fill="none" stroke="#191970" d="M468.7845,-234.9027C619.1494,-222.9396 1019.6543,-191.0754 1145.559,-181.0584"/>
<polygon fill="#191970" stroke="#191970" points="1146.1641,-184.5214 1155.855,-180.2392 1145.6089,-177.5434 1146.1641,-184.5214"/>
</g>
<!-- Node11 -->
<g id="node11" class="node">
<title>Node11</title>
<g id="a_node11"><a xlink:href="graphicsmanager_8h.html" target="_top" xlink:title=" ">
<polygon fill="#ffffff" stroke="#000000" points="1269.5,-112.5 1269.5,-131.5 1372.5,-131.5 1372.5,-112.5 1269.5,-112.5"/>
<text text-anchor="middle" x="1321" y="-119.5" font-family="Helvetica,sans-Serif" font-size="10.00" fill="#000000">graphicsmanager.h</text>
</a>
</g>
</g>
<!-- Node1&#45;&gt;Node11 -->
<g id="edge14" class="edge">
<title>Node1&#45;&gt;Node11</title>
<path fill="none" stroke="#191970" d="M468.5902,-237.5516C641.7686,-231.4541 1150.2323,-211.7217 1221,-188 1252.6414,-177.3936 1283.8974,-154.1609 1302.8247,-138.2926"/>
<polygon fill="#191970" stroke="#191970" points="1305.3142,-140.7678 1310.6105,-131.5917 1300.748,-135.4622 1305.3142,-140.7678"/>
</g>
<!-- Node14 -->
<g id="node14" class="node">
<title>Node14</title>
<g id="a_node14"><a xlink:href="player_8h.html" target="_top" xlink:title=" ">
<polygon fill="#ffffff" stroke="#000000" points="412,-112.5 412,-131.5 464,-131.5 464,-112.5 412,-112.5"/>
<text text-anchor="middle" x="438" y="-119.5" font-family="Helvetica,sans-Serif" font-size="10.00" fill="#000000">player.h</text>
</a>
</g>
</g>
<!-- Node1&#45;&gt;Node14 -->
<g id="edge15" class="edge">
<title>Node1&#45;&gt;Node14</title>
<path fill="none" stroke="#191970" d="M414.5298,-224.1389C419.3943,-202.9692 428.1611,-164.8174 433.4936,-141.6112"/>
<polygon fill="#191970" stroke="#191970" points="436.9749,-142.0893 435.8034,-131.5595 430.1527,-140.5216 436.9749,-142.0893"/>
</g>
<!-- Node15 -->
<g id="node15" class="node">
<title>Node15</title>
<g id="a_node15"><a xlink:href="highlighter_8h.html" target="_top" xlink:title=" ">
<polygon fill="#ffffff" stroke="#000000" points="374,-56.5 374,-75.5 444,-75.5 444,-56.5 374,-56.5"/>
<text text-anchor="middle" x="409" y="-63.5" font-family="Helvetica,sans-Serif" font-size="10.00" fill="#000000">highlighter.h</text>
</a>
</g>
</g>
<!-- Node1&#45;&gt;Node15 -->
<g id="edge18" class="edge">
<title>Node1&#45;&gt;Node15</title>
<path fill="none" stroke="#191970" d="M408.7778,-224.1903C405.5879,-200.2516 400.3697,-152.5022 403,-112 403.5598,-103.3805 404.7036,-93.9095 405.8439,-85.8133"/>
<polygon fill="#191970" stroke="#191970" points="409.3185,-86.243 407.3414,-75.8343 402.396,-85.2041 409.3185,-86.243"/>
</g>
<!-- Node16 -->
<g id="node16" class="node">
<title>Node16</title>
<g id="a_node16"><a xlink:href="datamodel_8h.html" target="_top" xlink:title=" ">
<polygon fill="#ffffff" stroke="#000000" points="581.5,-168.5 581.5,-187.5 654.5,-187.5 654.5,-168.5 581.5,-168.5"/>
<text text-anchor="middle" x="618" y="-175.5" font-family="Helvetica,sans-Serif" font-size="10.00" fill="#000000">datamodel.h</text>
</a>
</g>
</g>
<!-- Node1&#45;&gt;Node16 -->
<g id="edge19" class="edge">
<title>Node1&#45;&gt;Node16</title>
<path fill="none" stroke="#191970" d="M461.6379,-224.4554C496.7823,-214.0139 543.0424,-200.27 576.1103,-190.4455"/>
<polygon fill="#191970" stroke="#191970" points="577.3333,-193.7334 585.9223,-187.5303 575.3397,-187.0233 577.3333,-193.7334"/>
</g>
<!-- Node8 -->
<g id="node8" class="node">
<title>Node8</title>
<g id="a_node8"><a xlink:title=" ">
<polygon fill="#ffffff" stroke="#bfbfbf" points="1077.5,-112.5 1077.5,-131.5 1194.5,-131.5 1194.5,-112.5 1077.5,-112.5"/>
<text text-anchor="middle" x="1136" y="-119.5" font-family="Helvetica,sans-Serif" font-size="10.00" fill="#000000">QGraphicsPixmapItem</text>
</a>
</g>
</g>
<!-- Node7&#45;&gt;Node8 -->
<g id="edge7" class="edge">
<title>Node7&#45;&gt;Node8</title>
<path fill="none" stroke="#191970" d="M1175.639,-168.2455C1168.825,-160.2958 1159.0319,-148.8706 1150.8848,-139.3656"/>
<polygon fill="#191970" stroke="#191970" points="1153.4305,-136.9575 1144.2651,-131.6427 1148.1157,-141.513 1153.4305,-136.9575"/>
</g>
<!-- Node9 -->
<g id="node9" class="node">
<title>Node9</title>
<g id="a_node9"><a xlink:href="city_8h.html" target="_top" xlink:title=" ">
<polygon fill="#ffffff" stroke="#000000" points="1212.5,-112.5 1212.5,-131.5 1251.5,-131.5 1251.5,-112.5 1212.5,-112.5"/>
<text text-anchor="middle" x="1232" y="-119.5" font-family="Helvetica,sans-Serif" font-size="10.00" fill="#000000">city.h</text>
</a>
</g>
</g>
<!-- Node7&#45;&gt;Node9 -->
<g id="edge8" class="edge">
<title>Node7&#45;&gt;Node9</title>
<path fill="none" stroke="#191970" d="M1192.361,-168.2455C1199.175,-160.2958 1208.9681,-148.8706 1217.1152,-139.3656"/>
<polygon fill="#191970" stroke="#191970" points="1219.8843,-141.513 1223.7349,-131.6427 1214.5695,-136.9575 1219.8843,-141.513"/>
</g>
<!-- Node7&#45;&gt;Node11 -->
<g id="edge10" class="edge">
<title>Node7&#45;&gt;Node11</title>
<path fill="none" stroke="#191970" d="M1207.5511,-168.3733C1229.8391,-159.2629 1263.4937,-145.5062 1288.3637,-135.3404"/>
<polygon fill="#191970" stroke="#191970" points="1289.8239,-138.5247 1297.7562,-131.5011 1287.1753,-132.0451 1289.8239,-138.5247"/>
</g>
<!-- Node10 -->
<g id="node10" class="node">
<title>Node10</title>
<g id="a_node10"><a xlink:title=" ">
<polygon fill="#ffffff" stroke="#bfbfbf" points="1216.5,-56.5 1216.5,-75.5 1257.5,-75.5 1257.5,-56.5 1216.5,-56.5"/>
<text text-anchor="middle" x="1237" y="-63.5" font-family="Helvetica,sans-Serif" font-size="10.00" fill="#000000">string</text>
</a>
</g>
</g>
<!-- Node9&#45;&gt;Node10 -->
<g id="edge9" class="edge">
<title>Node9&#45;&gt;Node10</title>
<path fill="none" stroke="#191970" d="M1232.8709,-112.2455C1233.5234,-104.9382 1234.438,-94.6944 1235.2407,-85.7046"/>
<polygon fill="#191970" stroke="#191970" points="1238.7358,-85.9143 1236.139,-75.6427 1231.7635,-85.2918 1238.7358,-85.9143"/>
</g>
<!-- Node11&#45;&gt;Node10 -->
<g id="edge13" class="edge">
<title>Node11&#45;&gt;Node10</title>
<path fill="none" stroke="#191970" d="M1306.3683,-112.2455C1293.6006,-103.7337 1274.8562,-91.2375 1260.0701,-81.3801"/>
<polygon fill="#191970" stroke="#191970" points="1261.726,-78.2775 1251.464,-75.6427 1257.8431,-84.1019 1261.726,-78.2775"/>
</g>
<!-- Node12 -->
<g id="node12" class="node">
<title>Node12</title>
<g id="a_node12"><a xlink:title=" ">
<polygon fill="#ffffff" stroke="#bfbfbf" points="1286,-56.5 1286,-75.5 1344,-75.5 1344,-56.5 1286,-56.5"/>
<text text-anchor="middle" x="1315" y="-63.5" font-family="Helvetica,sans-Serif" font-size="10.00" fill="#000000">QPixmap</text>
</a>
</g>
</g>
<!-- Node11&#45;&gt;Node12 -->
<g id="edge11" class="edge">
<title>Node11&#45;&gt;Node12</title>
<path fill="none" stroke="#191970" d="M1319.9549,-112.2455C1319.172,-104.9382 1318.0744,-94.6944 1317.1112,-85.7046"/>
<polygon fill="#191970" stroke="#191970" points="1320.5786,-85.2129 1316.0331,-75.6427 1313.6185,-85.9587 1320.5786,-85.2129"/>
</g>
<!-- Node13 -->
<g id="node13" class="node">
<title>Node13</title>
<g id="a_node13"><a xlink:title=" ">
<polygon fill="#ffffff" stroke="#bfbfbf" points="1362.5,-56.5 1362.5,-75.5 1415.5,-75.5 1415.5,-56.5 1362.5,-56.5"/>
<text text-anchor="middle" x="1389" y="-63.5" font-family="Helvetica,sans-Serif" font-size="10.00" fill="#000000">QImage</text>
</a>
</g>
</g>
<!-- Node11&#45;&gt;Node13 -->
<g id="edge12" class="edge">
<title>Node11&#45;&gt;Node13</title>
<path fill="none" stroke="#191970" d="M1332.8447,-112.2455C1342.888,-103.9746 1357.4995,-91.9416 1369.3004,-82.2232"/>
<polygon fill="#191970" stroke="#191970" points="1371.7967,-84.7015 1377.291,-75.6427 1367.3467,-79.298 1371.7967,-84.7015"/>
</g>
<!-- Node14&#45;&gt;Node15 -->
<g id="edge16" class="edge">
<title>Node14&#45;&gt;Node15</title>
<path fill="none" stroke="#191970" d="M432.9486,-112.2455C428.9981,-104.617 423.3903,-93.7881 418.5942,-84.5267"/>
<polygon fill="#191970" stroke="#191970" points="421.7001,-82.9131 413.9935,-75.6427 415.4841,-86.1321 421.7001,-82.9131"/>
</g>
<!-- Node15&#45;&gt;Node5 -->
<g id="edge17" class="edge">
<title>Node15&#45;&gt;Node5</title>
<path fill="none" stroke="#191970" d="M403.426,-56.2455C399.0669,-48.617 392.8789,-37.7881 387.5867,-28.5267"/>
<polygon fill="#191970" stroke="#191970" points="390.5104,-26.5886 382.5101,-19.6427 384.4327,-30.0616 390.5104,-26.5886"/>
</g>
<!-- Node16&#45;&gt;Node14 -->
<g id="edge28" class="edge">
<title>Node16&#45;&gt;Node14</title>
<path fill="none" stroke="#191970" d="M587.0569,-168.3733C555.6297,-158.5959 507.0014,-143.4671 473.8992,-133.1686"/>
<polygon fill="#191970" stroke="#191970" points="474.7491,-129.7676 464.1608,-130.1389 472.6696,-136.4516 474.7491,-129.7676"/>
</g>
<!-- Node17 -->
<g id="node17" class="node">
<title>Node17</title>
<g id="a_node17"><a xlink:title=" ">
<polygon fill="#ffffff" stroke="#bfbfbf" points="481.5,-56.5 481.5,-75.5 530.5,-75.5 530.5,-56.5 481.5,-56.5"/>
<text text-anchor="middle" x="506" y="-63.5" font-family="Helvetica,sans-Serif" font-size="10.00" fill="#000000">QLabel</text>
</a>
</g>
</g>
<!-- Node16&#45;&gt;Node17 -->
<g id="edge20" class="edge">
<title>Node16&#45;&gt;Node17</title>
<path fill="none" stroke="#191970" d="M581.3549,-172.2267C557.2599,-166.3842 527.2764,-154.7896 511,-132 501.5143,-118.7185 501.0151,-99.8587 502.4505,-85.6986"/>
<polygon fill="#191970" stroke="#191970" points="505.9514,-85.9372 503.8818,-75.5464 499.02,-84.9599 505.9514,-85.9372"/>
</g>
<!-- Node18 -->
<g id="node18" class="node">
<title>Node18</title>
<g id="a_node18"><a xlink:title=" ">
<polygon fill="#ffffff" stroke="#bfbfbf" points="563,-56.5 563,-75.5 619,-75.5 619,-56.5 563,-56.5"/>
<text text-anchor="middle" x="591" y="-63.5" font-family="Helvetica,sans-Serif" font-size="10.00" fill="#000000">QWidget</text>
</a>
</g>
</g>
<!-- Node16&#45;&gt;Node18 -->
<g id="edge21" class="edge">
<title>Node16&#45;&gt;Node18</title>
<path fill="none" stroke="#191970" d="M615.698,-168.4509C611.2744,-150.1013 601.5085,-109.5908 595.6694,-85.3693"/>
<polygon fill="#191970" stroke="#191970" points="599.0424,-84.4261 593.2962,-75.5249 592.2373,-86.0667 599.0424,-84.4261"/>
</g>
<!-- Node19 -->
<g id="node19" class="node">
<title>Node19</title>
<g id="a_node19"><a xlink:title=" ">
<polygon fill="#ffffff" stroke="#bfbfbf" points="646,-112.5 646,-131.5 696,-131.5 696,-112.5 646,-112.5"/>
<text text-anchor="middle" x="671" y="-119.5" font-family="Helvetica,sans-Serif" font-size="10.00" fill="#000000">QString</text>
</a>
</g>
</g>
<!-- Node16&#45;&gt;Node19 -->
<g id="edge22" class="edge">
<title>Node16&#45;&gt;Node19</title>
<path fill="none" stroke="#191970" d="M627.2319,-168.2455C634.8317,-160.2155 645.7877,-148.6394 654.8368,-139.0781"/>
<polygon fill="#191970" stroke="#191970" points="657.5421,-141.3115 661.8739,-131.6427 652.458,-136.4998 657.5421,-141.3115"/>
</g>
<!-- Node20 -->
<g id="node20" class="node">
<title>Node20</title>
<g id="a_node20"><a xlink:title=" ">
<polygon fill="#ffffff" stroke="#bfbfbf" points="714,-112.5 714,-131.5 796,-131.5 796,-112.5 714,-112.5"/>
<text text-anchor="middle" x="755" y="-119.5" font-family="Helvetica,sans-Serif" font-size="10.00" fill="#000000">QMediaPlayer</text>
</a>
</g>
</g>
<!-- Node16&#45;&gt;Node20 -->
<g id="edge23" class="edge">
<title>Node16&#45;&gt;Node20</title>
<path fill="none" stroke="#191970" d="M641.5511,-168.3733C663.8391,-159.2629 697.4937,-145.5062 722.3637,-135.3404"/>
<polygon fill="#191970" stroke="#191970" points="723.8239,-138.5247 731.7562,-131.5011 721.1753,-132.0451 723.8239,-138.5247"/>
</g>
<!-- Node21 -->
<g id="node21" class="node">
<title>Node21</title>
<g id="a_node21"><a xlink:title=" ">
<polygon fill="#ffffff" stroke="#bfbfbf" points="814.5,-112.5 814.5,-131.5 897.5,-131.5 897.5,-112.5 814.5,-112.5"/>
<text text-anchor="middle" x="856" y="-119.5" font-family="Helvetica,sans-Serif" font-size="10.00" fill="#000000">QVideoWidget</text>
</a>
</g>
</g>
<!-- Node16&#45;&gt;Node21 -->
<g id="edge24" class="edge">
<title>Node16&#45;&gt;Node21</title>
<path fill="none" stroke="#191970" d="M654.6659,-169.3727C695.0336,-159.8745 760.1943,-144.5425 805.4064,-133.9044"/>
<polygon fill="#191970" stroke="#191970" points="806.3704,-137.2732 815.3029,-131.5758 804.7671,-130.4593 806.3704,-137.2732"/>
</g>
<!-- Node22 -->
<g id="node22" class="node">
<title>Node22</title>
<g id="a_node22"><a xlink:href="mainwindow_8h.html" target="_top" xlink:title=" ">
<polygon fill="#ffffff" stroke="#000000" points="916,-112.5 916,-131.5 996,-131.5 996,-112.5 916,-112.5"/>
<text text-anchor="middle" x="956" y="-119.5" font-family="Helvetica,sans-Serif" font-size="10.00" fill="#000000">mainwindow.h</text>
</a>
</g>
</g>
<!-- Node16&#45;&gt;Node22 -->
<g id="edge25" class="edge">
<title>Node16&#45;&gt;Node22</title>
<path fill="none" stroke="#191970" d="M654.7931,-169.5987C657.5656,-169.0346 660.3243,-168.4948 663,-168 770.3582,-148.1452 798.4367,-150.7118 906,-132 906.1008,-131.9825 906.2018,-131.9649 906.3029,-131.9472"/>
<polygon fill="#191970" stroke="#191970" points="906.7026,-135.432 915.9162,-130.2012 905.4517,-128.5447 906.7026,-135.432"/>
</g>
<!-- Node25 -->
<g id="node25" class="node">
<title>Node25</title>
<g id="a_node25"><a xlink:href="infowidget_8h.html" target="_top" xlink:title=" ">
<polygon fill="#ffffff" stroke="#000000" points="520,-112.5 520,-131.5 590,-131.5 590,-112.5 520,-112.5"/>
<text text-anchor="middle" x="555" y="-119.5" font-family="Helvetica,sans-Serif" font-size="10.00" fill="#000000">infowidget.h</text>
</a>
</g>
</g>
<!-- Node16&#45;&gt;Node25 -->
<g id="edge29" class="edge">
<title>Node16&#45;&gt;Node25</title>
<path fill="none" stroke="#191970" d="M607.0262,-168.2455C597.8118,-160.0549 584.4468,-148.1749 573.5703,-138.5069"/>
<polygon fill="#191970" stroke="#191970" points="575.6474,-135.6704 565.848,-131.6427 570.9968,-140.9023 575.6474,-135.6704"/>
</g>
<!-- Node26 -->
<g id="node26" class="node">
<title>Node26</title>
<g id="a_node26"><a xlink:href="point_8h.html" target="_top" xlink:title=" ">
<polygon fill="#ffffff" stroke="#000000" points="1014.5,-112.5 1014.5,-131.5 1059.5,-131.5 1059.5,-112.5 1014.5,-112.5"/>
<text text-anchor="middle" x="1037" y="-119.5" font-family="Helvetica,sans-Serif" font-size="10.00" fill="#000000">point.h</text>
</a>
</g>
</g>
<!-- Node16&#45;&gt;Node26 -->
<g id="edge32" class="edge">
<title>Node16&#45;&gt;Node26</title>
<path fill="none" stroke="#191970" d="M654.7709,-169.4711C657.5485,-168.9365 660.3145,-168.4383 663,-168 810.6034,-143.9113 853.4929,-162.1255 1004.3265,-131.7371"/>
<polygon fill="#191970" stroke="#191970" points="1005.3286,-135.1044 1014.42,-129.6642 1003.9203,-128.2475 1005.3286,-135.1044"/>
</g>
<!-- Node23 -->
<g id="node23" class="node">
<title>Node23</title>
<g id="a_node23"><a xlink:title=" ">
<polygon fill="#ffffff" stroke="#bfbfbf" points="867.5,-56.5 867.5,-75.5 950.5,-75.5 950.5,-56.5 867.5,-56.5"/>
<text text-anchor="middle" x="909" y="-63.5" font-family="Helvetica,sans-Serif" font-size="10.00" fill="#000000">QMainWindow</text>
</a>
</g>
</g>
<!-- Node22&#45;&gt;Node23 -->
<g id="edge26" class="edge">
<title>Node22&#45;&gt;Node23</title>
<path fill="none" stroke="#191970" d="M947.8132,-112.2455C941.1411,-104.2958 931.5521,-92.8706 923.5747,-83.3656"/>
<polygon fill="#191970" stroke="#191970" points="926.2026,-81.0524 917.093,-75.6427 920.8408,-85.5525 926.2026,-81.0524"/>
</g>
<!-- Node24 -->
<g id="node24" class="node">
<title>Node24</title>
<g id="a_node24"><a xlink:title=" ">
<polygon fill="#ffffff" stroke="#bfbfbf" points="968.5,-56.5 968.5,-75.5 1035.5,-75.5 1035.5,-56.5 968.5,-56.5"/>
<text text-anchor="middle" x="1002" y="-63.5" font-family="Helvetica,sans-Serif" font-size="10.00" fill="#000000">QKeyEvent</text>
</a>
</g>
</g>
<!-- Node22&#45;&gt;Node24 -->
<g id="edge27" class="edge">
<title>Node22&#45;&gt;Node24</title>
<path fill="none" stroke="#191970" d="M964.0126,-112.2455C970.4768,-104.3761 979.7385,-93.101 987.4983,-83.6542"/>
<polygon fill="#191970" stroke="#191970" points="990.4364,-85.5916 994.0792,-75.6427 985.0273,-81.1484 990.4364,-85.5916"/>
</g>
<!-- Node25&#45;&gt;Node17 -->
<g id="edge30" class="edge">
<title>Node25&#45;&gt;Node17</title>
<path fill="none" stroke="#191970" d="M546.4649,-112.2455C539.5088,-104.2958 529.5117,-92.8706 521.1949,-83.3656"/>
<polygon fill="#191970" stroke="#191970" points="523.6564,-80.8637 514.4373,-75.6427 518.3884,-85.4732 523.6564,-80.8637"/>
</g>
<!-- Node25&#45;&gt;Node18 -->
<g id="edge31" class="edge">
<title>Node25&#45;&gt;Node18</title>
<path fill="none" stroke="#191970" d="M561.2707,-112.2455C566.2264,-104.5367 573.283,-93.5598 579.2776,-84.2348"/>
<polygon fill="#191970" stroke="#191970" points="582.3376,-85.9471 584.8011,-75.6427 576.4494,-82.1618 582.3376,-85.9471"/>
</g>
</g>
</svg>
