<?xml version="1.0" encoding="UTF-8" standalone="no"?>
<!DOCTYPE svg PUBLIC "-//W3C//DTD SVG 1.1//EN"
 "http://www.w3.org/Graphics/SVG/1.1/DTD/svg11.dtd">
<!-- Generated by graphviz version 2.40.1 (20161225.0304)
 -->
<!-- Title: src/application_server/scene.h Pages: 1 -->
<svg width="988pt" height="207pt"
 viewBox="0.00 0.00 988.00 207.00" xmlns="http://www.w3.org/2000/svg" xmlns:xlink="http://www.w3.org/1999/xlink">
<g id="graph0" class="graph" transform="scale(1 1) rotate(0) translate(4 203)">
<title>src/application_server/scene.h</title>
<polygon fill="#ffffff" stroke="transparent" points="-4,4 -4,-203 984,-203 984,4 -4,4"/>
<!-- Node1 -->
<g id="node1" class="node">
<title>Node1</title>
<g id="a_node1"><a xlink:title=" ">
<polygon fill="#bfbfbf" stroke="#000000" points="381.5,-168.5 381.5,-198.5 496.5,-198.5 496.5,-168.5 381.5,-168.5"/>
<text text-anchor="start" x="389.5" y="-186.5" font-family="Helvetica,sans-Serif" font-size="10.00" fill="#000000">src/application_server</text>
<text text-anchor="middle" x="439" y="-175.5" font-family="Helvetica,sans-Serif" font-size="10.00" fill="#000000">/scene.h</text>
</a>
</g>
</g>
<!-- Node2 -->
<g id="node2" class="node">
<title>Node2</title>
<g id="a_node2"><a xlink:title=" ">
<polygon fill="#ffffff" stroke="#bfbfbf" points="0,-112.5 0,-131.5 94,-131.5 94,-112.5 0,-112.5"/>
<text text-anchor="middle" x="47" y="-119.5" font-family="Helvetica,sans-Serif" font-size="10.00" fill="#000000">QGraphicsScene</text>
</a>
</g>
</g>
<!-- Node1&#45;&gt;Node2 -->
<g id="edge1" class="edge">
<title>Node1&#45;&gt;Node2</title>
<path fill="none" stroke="#191970" d="M381.2599,-175.0913C316.3602,-165.5408 207.5803,-149.2366 104.0412,-132.143"/>
<polygon fill="#191970" stroke="#191970" points="104.4768,-128.6675 94.0393,-130.4865 103.333,-135.5734 104.4768,-128.6675"/>
</g>
<!-- Node3 -->
<g id="node3" class="node">
<title>Node3</title>
<g id="a_node3"><a xlink:title=" ">
<polygon fill="#ffffff" stroke="#bfbfbf" points="112,-112.5 112,-131.5 216,-131.5 216,-112.5 112,-112.5"/>
<text text-anchor="middle" x="164" y="-119.5" font-family="Helvetica,sans-Serif" font-size="10.00" fill="#000000">QGraphicsTextItem</text>
</a>
</g>
</g>
<!-- Node1&#45;&gt;Node3 -->
<g id="edge2" class="edge">
<title>Node1&#45;&gt;Node3</title>
<path fill="none" stroke="#191970" d="M381.351,-170.6076C332.7829,-159.746 263.874,-144.3355 216.7448,-133.7957"/>
<polygon fill="#191970" stroke="#191970" points="217.2617,-130.3249 206.7388,-131.558 215.7339,-137.1561 217.2617,-130.3249"/>
</g>
<!-- Node4 -->
<g id="node4" class="node">
<title>Node4</title>
<g id="a_node4"><a xlink:title=" ">
<polygon fill="#ffffff" stroke="#bfbfbf" points="234.5,-112.5 234.5,-131.5 317.5,-131.5 317.5,-112.5 234.5,-112.5"/>
<text text-anchor="middle" x="276" y="-119.5" font-family="Helvetica,sans-Serif" font-size="10.00" fill="#000000">QGraphicsItem</text>
</a>
</g>
</g>
<!-- Node1&#45;&gt;Node4 -->
<g id="edge3" class="edge">
<title>Node1&#45;&gt;Node4</title>
<path fill="none" stroke="#191970" d="M399.1257,-168.4554C372.048,-158.239 336.5906,-144.8609 310.6834,-135.0861"/>
<polygon fill="#191970" stroke="#191970" points="311.851,-131.7858 301.2592,-131.5303 309.3799,-138.3352 311.851,-131.7858"/>
</g>
<!-- Node5 -->
<g id="node5" class="node">
<title>Node5</title>
<g id="a_node5"><a xlink:title=" ">
<polygon fill="#ffffff" stroke="#bfbfbf" points="348,-56.5 348,-75.5 452,-75.5 452,-56.5 348,-56.5"/>
<text text-anchor="middle" x="400" y="-63.5" font-family="Helvetica,sans-Serif" font-size="10.00" fill="#000000">QGraphicsRectItem</text>
</a>
</g>
</g>
<!-- Node1&#45;&gt;Node5 -->
<g id="edge4" class="edge">
<title>Node1&#45;&gt;Node5</title>
<path fill="none" stroke="#191970" d="M403.9676,-168.3603C389.1138,-159.9673 373.3344,-147.9543 365,-132 356.2652,-115.279 368.755,-96.2526 381.1707,-82.9384"/>
<polygon fill="#191970" stroke="#191970" points="383.7002,-85.3588 388.3112,-75.8199 378.7581,-80.4014 383.7002,-85.3588"/>
</g>
<!-- Node6 -->
<g id="node6" class="node">
<title>Node6</title>
<g id="a_node6"><a xlink:title=" ">
<polygon fill="#ffffff" stroke="#bfbfbf" points="532.5,-112.5 532.5,-131.5 645.5,-131.5 645.5,-112.5 532.5,-112.5"/>
<text text-anchor="middle" x="589" y="-119.5" font-family="Helvetica,sans-Serif" font-size="10.00" fill="#000000">QGraphicsEllipseItem</text>
</a>
</g>
</g>
<!-- Node1&#45;&gt;Node6 -->
<g id="edge5" class="edge">
<title>Node1&#45;&gt;Node6</title>
<path fill="none" stroke="#191970" d="M475.6941,-168.4554C500.3927,-158.329 532.6674,-145.0964 556.4506,-135.3453"/>
<polygon fill="#191970" stroke="#191970" points="557.8306,-138.5623 565.7553,-131.5303 555.175,-132.0855 557.8306,-138.5623"/>
</g>
<!-- Node7 -->
<g id="node7" class="node">
<title>Node7</title>
<g id="a_node7"><a xlink:href="maptile_8h.html" target="_top" xlink:title=" ">
<polygon fill="#ffffff" stroke="#000000" points="664,-112.5 664,-131.5 720,-131.5 720,-112.5 664,-112.5"/>
<text text-anchor="middle" x="692" y="-119.5" font-family="Helvetica,sans-Serif" font-size="10.00" fill="#000000">maptile.h</text>
</a>
</g>
</g>
<!-- Node1&#45;&gt;Node7 -->
<g id="edge6" class="edge">
<title>Node1&#45;&gt;Node7</title>
<path fill="none" stroke="#191970" d="M496.5753,-170.0752C539.9208,-159.8794 600.7686,-145.3778 654,-132 654.0992,-131.9751 654.1986,-131.9501 654.2981,-131.925"/>
<polygon fill="#191970" stroke="#191970" points="654.975,-135.3647 663.7963,-129.4965 653.2409,-128.5828 654.975,-135.3647"/>
</g>
<!-- Node12 -->
<g id="node12" class="node">
<title>Node12</title>
<g id="a_node12"><a xlink:href="graphicsmanager_8h.html" target="_top" xlink:title=" ">
<polygon fill="#ffffff" stroke="#000000" points="696.5,-56.5 696.5,-75.5 799.5,-75.5 799.5,-56.5 696.5,-56.5"/>
<text text-anchor="middle" x="748" y="-63.5" font-family="Helvetica,sans-Serif" font-size="10.00" fill="#000000">graphicsmanager.h</text>
</a>
</g>
</g>
<!-- Node1&#45;&gt;Node12 -->
<g id="edge15" class="edge">
<title>Node1&#45;&gt;Node12</title>
<path fill="none" stroke="#191970" d="M496.7825,-180.3553C571.3845,-175.1253 695.6095,-162.0702 729,-132 741.8502,-120.4276 746.2386,-100.7844 747.6285,-85.9293"/>
<polygon fill="#191970" stroke="#191970" points="751.1357,-85.895 748.1973,-75.7158 744.1465,-85.5056 751.1357,-85.895"/>
</g>
<!-- Node15 -->
<g id="node15" class="node">
<title>Node15</title>
<g id="a_node15"><a xlink:href="player_8h.html" target="_top" xlink:title=" ">
<polygon fill="#ffffff" stroke="#000000" points="374,-112.5 374,-131.5 426,-131.5 426,-112.5 374,-112.5"/>
<text text-anchor="middle" x="400" y="-119.5" font-family="Helvetica,sans-Serif" font-size="10.00" fill="#000000">player.h</text>
</a>
</g>
</g>
<!-- Node1&#45;&gt;Node15 -->
<g id="edge16" class="edge">
<title>Node1&#45;&gt;Node15</title>
<path fill="none" stroke="#191970" d="M429.3595,-168.2977C424.0023,-159.8498 417.2978,-149.2773 411.6487,-140.369"/>
<polygon fill="#191970" stroke="#191970" points="414.5556,-138.4176 406.2444,-131.8469 408.6441,-142.1664 414.5556,-138.4176"/>
</g>
<!-- Node16 -->
<g id="node16" class="node">
<title>Node16</title>
<g id="a_node16"><a xlink:href="highlighter_8h.html" target="_top" xlink:title=" ">
<polygon fill="#ffffff" stroke="#000000" points="444,-112.5 444,-131.5 514,-131.5 514,-112.5 444,-112.5"/>
<text text-anchor="middle" x="479" y="-119.5" font-family="Helvetica,sans-Serif" font-size="10.00" fill="#000000">highlighter.h</text>
</a>
</g>
</g>
<!-- Node1&#45;&gt;Node16 -->
<g id="edge18" class="edge">
<title>Node1&#45;&gt;Node16</title>
<path fill="none" stroke="#191970" d="M448.8876,-168.2977C454.3822,-159.8498 461.2586,-149.2773 467.0527,-140.369"/>
<polygon fill="#191970" stroke="#191970" points="470.0772,-142.1381 472.5955,-131.8469 464.2092,-138.3215 470.0772,-142.1381"/>
</g>
<!-- Node17 -->
<g id="node17" class="node">
<title>Node17</title>
<g id="a_node17"><a xlink:href="datamodel_8h.html" target="_top" xlink:title=" ">
<polygon fill="#ffffff" stroke="#000000" points="818.5,-112.5 818.5,-131.5 891.5,-131.5 891.5,-112.5 818.5,-112.5"/>
<text text-anchor="middle" x="855" y="-119.5" font-family="Helvetica,sans-Serif" font-size="10.00" fill="#000000">datamodel.h</text>
</a>
</g>
</g>
<!-- Node1&#45;&gt;Node17 -->
<g id="edge20" class="edge">
<title>Node1&#45;&gt;Node17</title>
<path fill="none" stroke="#191970" d="M496.843,-174.9487C579.8937,-162.6708 731.332,-140.2827 807.9388,-128.9574"/>
<polygon fill="#191970" stroke="#191970" points="808.8562,-132.3599 818.2368,-127.4349 807.8324,-125.4351 808.8562,-132.3599"/>
</g>
<!-- Node8 -->
<g id="node8" class="node">
<title>Node8</title>
<g id="a_node8"><a xlink:title=" ">
<polygon fill="#ffffff" stroke="#bfbfbf" points="561.5,-56.5 561.5,-75.5 678.5,-75.5 678.5,-56.5 561.5,-56.5"/>
<text text-anchor="middle" x="620" y="-63.5" font-family="Helvetica,sans-Serif" font-size="10.00" fill="#000000">QGraphicsPixmapItem</text>
</a>
</g>
</g>
<!-- Node7&#45;&gt;Node8 -->
<g id="edge7" class="edge">
<title>Node7&#45;&gt;Node8</title>
<path fill="none" stroke="#191970" d="M679.4586,-112.2455C668.7213,-103.8943 653.0527,-91.7076 640.4953,-81.9408"/>
<polygon fill="#191970" stroke="#191970" points="642.4401,-79.0194 632.3977,-75.6427 638.1425,-84.5449 642.4401,-79.0194"/>
</g>
<!-- Node9 -->
<g id="node9" class="node">
<title>Node9</title>
<g id="a_node9"><a xlink:href="city_8h.html" target="_top" xlink:title=" ">
<polygon fill="#ffffff" stroke="#000000" points="504.5,-56.5 504.5,-75.5 543.5,-75.5 543.5,-56.5 504.5,-56.5"/>
<text text-anchor="middle" x="524" y="-63.5" font-family="Helvetica,sans-Serif" font-size="10.00" fill="#000000">city.h</text>
</a>
</g>
</g>
<!-- Node7&#45;&gt;Node9 -->
<g id="edge8" class="edge">
<title>Node7&#45;&gt;Node9</title>
<path fill="none" stroke="#191970" d="M663.7732,-112.9595C637.3843,-104.4565 596.6556,-91.2029 553.1716,-76.3513"/>
<polygon fill="#191970" stroke="#191970" points="554.1544,-72.9883 543.5598,-73.0575 551.8851,-79.6103 554.1544,-72.9883"/>
</g>
<!-- Node7&#45;&gt;Node12 -->
<g id="edge11" class="edge">
<title>Node7&#45;&gt;Node12</title>
<path fill="none" stroke="#191970" d="M701.7545,-112.2455C709.8648,-104.1352 721.5925,-92.4075 731.2081,-82.7919"/>
<polygon fill="#191970" stroke="#191970" points="733.7611,-85.1887 738.3573,-75.6427 728.8113,-80.2389 733.7611,-85.1887"/>
</g>
<!-- Node10 -->
<g id="node10" class="node">
<title>Node10</title>
<g id="a_node10"><a xlink:title=" ">
<polygon fill="#ffffff" stroke="#bfbfbf" points="659.5,-.5 659.5,-19.5 700.5,-19.5 700.5,-.5 659.5,-.5"/>
<text text-anchor="middle" x="680" y="-7.5" font-family="Helvetica,sans-Serif" font-size="10.00" fill="#000000">string</text>
</a>
</g>
</g>
<!-- Node9&#45;&gt;Node10 -->
<g id="edge9" class="edge">
<title>Node9&#45;&gt;Node10</title>
<path fill="none" stroke="#191970" d="M543.7575,-58.9076C570.5385,-49.2939 618.6018,-32.0404 649.8914,-20.8082"/>
<polygon fill="#191970" stroke="#191970" points="651.1833,-24.0632 659.4127,-17.3903 648.8182,-17.4749 651.1833,-24.0632"/>
</g>
<!-- Node11 -->
<g id="node11" class="node">
<title>Node11</title>
<g id="a_node11"><a xlink:title=" ">
<polygon fill="#ffffff" stroke="#bfbfbf" points="502,-.5 502,-19.5 546,-19.5 546,-.5 502,-.5"/>
<text text-anchor="middle" x="524" y="-7.5" font-family="Helvetica,sans-Serif" font-size="10.00" fill="#000000">vector</text>
</a>
</g>
</g>
<!-- Node9&#45;&gt;Node11 -->
<g id="edge10" class="edge">
<title>Node9&#45;&gt;Node11</title>
<path fill="none" stroke="#191970" d="M524,-56.2455C524,-48.9382 524,-38.6944 524,-29.7046"/>
<polygon fill="#191970" stroke="#191970" points="527.5001,-29.6426 524,-19.6427 520.5001,-29.6427 527.5001,-29.6426"/>
</g>
<!-- Node12&#45;&gt;Node10 -->
<g id="edge14" class="edge">
<title>Node12&#45;&gt;Node10</title>
<path fill="none" stroke="#191970" d="M736.1553,-56.2455C726.112,-47.9746 711.5005,-35.9416 699.6996,-26.2232"/>
<polygon fill="#191970" stroke="#191970" points="701.6533,-23.298 691.709,-19.6427 697.2033,-28.7015 701.6533,-23.298"/>
</g>
<!-- Node13 -->
<g id="node13" class="node">
<title>Node13</title>
<g id="a_node13"><a xlink:title=" ">
<polygon fill="#ffffff" stroke="#bfbfbf" points="719,-.5 719,-19.5 777,-19.5 777,-.5 719,-.5"/>
<text text-anchor="middle" x="748" y="-7.5" font-family="Helvetica,sans-Serif" font-size="10.00" fill="#000000">QPixmap</text>
</a>
</g>
</g>
<!-- Node12&#45;&gt;Node13 -->
<g id="edge12" class="edge">
<title>Node12&#45;&gt;Node13</title>
<path fill="none" stroke="#191970" d="M748,-56.2455C748,-48.9382 748,-38.6944 748,-29.7046"/>
<polygon fill="#191970" stroke="#191970" points="751.5001,-29.6426 748,-19.6427 744.5001,-29.6427 751.5001,-29.6426"/>
</g>
<!-- Node14 -->
<g id="node14" class="node">
<title>Node14</title>
<g id="a_node14"><a xlink:title=" ">
<polygon fill="#ffffff" stroke="#bfbfbf" points="795.5,-.5 795.5,-19.5 848.5,-19.5 848.5,-.5 795.5,-.5"/>
<text text-anchor="middle" x="822" y="-7.5" font-family="Helvetica,sans-Serif" font-size="10.00" fill="#000000">QImage</text>
</a>
</g>
</g>
<!-- Node12&#45;&gt;Node14 -->
<g id="edge13" class="edge">
<title>Node12&#45;&gt;Node14</title>
<path fill="none" stroke="#191970" d="M760.8898,-56.2455C771.9254,-47.8943 788.0292,-35.7076 800.9353,-25.9408"/>
<polygon fill="#191970" stroke="#191970" points="803.3959,-28.4681 809.2579,-19.6427 799.1717,-22.8862 803.3959,-28.4681"/>
</g>
<!-- Node15&#45;&gt;Node5 -->
<g id="edge17" class="edge">
<title>Node15&#45;&gt;Node5</title>
<path fill="none" stroke="#191970" d="M400,-112.2455C400,-104.9382 400,-94.6944 400,-85.7046"/>
<polygon fill="#191970" stroke="#191970" points="403.5001,-85.6426 400,-75.6427 396.5001,-85.6427 403.5001,-85.6426"/>
</g>
<!-- Node16&#45;&gt;Node5 -->
<g id="edge19" class="edge">
<title>Node16&#45;&gt;Node5</title>
<path fill="none" stroke="#191970" d="M465.2393,-112.2455C453.3448,-103.814 435.935,-91.4729 422.0915,-81.6598"/>
<polygon fill="#191970" stroke="#191970" points="423.7854,-78.5704 413.6031,-75.6427 419.7372,-84.2811 423.7854,-78.5704"/>
</g>
<!-- Node17&#45;&gt;Node10 -->
<g id="edge21" class="edge">
<title>Node17&#45;&gt;Node10</title>
<path fill="none" stroke="#191970" d="M850.527,-112.0381C843.6039,-97.6906 828.9784,-71.2609 809,-56 804.9089,-52.8749 747.2958,-32.9193 710.4619,-20.3397"/>
<polygon fill="#191970" stroke="#191970" points="711.2801,-16.9209 700.6856,-17.0073 709.0216,-23.5465 711.2801,-16.9209"/>
</g>
<!-- Node18 -->
<g id="node18" class="node">
<title>Node18</title>
<g id="a_node18"><a xlink:title=" ">
<polygon fill="#ffffff" stroke="#bfbfbf" points="856.5,-56.5 856.5,-75.5 905.5,-75.5 905.5,-56.5 856.5,-56.5"/>
<text text-anchor="middle" x="881" y="-63.5" font-family="Helvetica,sans-Serif" font-size="10.00" fill="#000000">QLabel</text>
</a>
</g>
</g>
<!-- Node17&#45;&gt;Node18 -->
<g id="edge22" class="edge">
<title>Node17&#45;&gt;Node18</title>
<path fill="none" stroke="#191970" d="M859.5289,-112.2455C863.0334,-104.6973 867.9927,-94.0158 872.2623,-84.8197"/>
<polygon fill="#191970" stroke="#191970" points="875.4864,-86.1867 876.523,-75.6427 869.1373,-83.2389 875.4864,-86.1867"/>
</g>
<!-- Node19 -->
<g id="node19" class="node">
<title>Node19</title>
<g id="a_node19"><a xlink:title=" ">
<polygon fill="#ffffff" stroke="#bfbfbf" points="924,-56.5 924,-75.5 980,-75.5 980,-56.5 924,-56.5"/>
<text text-anchor="middle" x="952" y="-63.5" font-family="Helvetica,sans-Serif" font-size="10.00" fill="#000000">QWidget</text>
</a>
</g>
</g>
<!-- Node17&#45;&gt;Node19 -->
<g id="edge23" class="edge">
<title>Node17&#45;&gt;Node19</title>
<path fill="none" stroke="#191970" d="M871.8961,-112.2455C886.918,-103.5731 909.1043,-90.7645 926.321,-80.825"/>
<polygon fill="#191970" stroke="#191970" points="928.3871,-83.6737 935.2975,-75.6427 924.8872,-77.6114 928.3871,-83.6737"/>
</g>
</g>
</svg>
