<?xml version="1.0" encoding="UTF-8" standalone="no"?>
<!DOCTYPE svg PUBLIC "-//W3C//DTD SVG 1.1//EN"
 "http://www.w3.org/Graphics/SVG/1.1/DTD/svg11.dtd">
<!-- Generated by graphviz version 2.40.1 (20161225.0304)
 -->
<!-- Title: src/application_server/sidepanel.cpp Pages: 1 -->
<svg width="1431pt" height="431pt"
 viewBox="0.00 0.00 1431.34 431.00" xmlns="http://www.w3.org/2000/svg" xmlns:xlink="http://www.w3.org/1999/xlink">
<g id="graph0" class="graph" transform="scale(1 1) rotate(0) translate(4 427)">
<title>src/application_server/sidepanel.cpp</title>
<polygon fill="#ffffff" stroke="transparent" points="-4,4 -4,-427 1427.3355,-427 1427.3355,4 -4,4"/>
<!-- Node1 -->
<g id="node1" class="node">
<title>Node1</title>
<g id="a_node1"><a xlink:title=" ">
<polygon fill="#bfbfbf" stroke="#000000" points="332,-392.5 332,-422.5 447,-422.5 447,-392.5 332,-392.5"/>
<text text-anchor="start" x="340" y="-410.5" font-family="Helvetica,sans-Serif" font-size="10.00" fill="#000000">src/application_server</text>
<text text-anchor="middle" x="389.5" y="-399.5" font-family="Helvetica,sans-Serif" font-size="10.00" fill="#000000">/sidepanel.cpp</text>
</a>
</g>
</g>
<!-- Node2 -->
<g id="node2" class="node">
<title>Node2</title>
<g id="a_node2"><a xlink:href="sidepanel_8h.html" target="_top" xlink:title=" ">
<polygon fill="#ffffff" stroke="#000000" points="222.5,-336.5 222.5,-355.5 290.5,-355.5 290.5,-336.5 222.5,-336.5"/>
<text text-anchor="middle" x="256.5" y="-343.5" font-family="Helvetica,sans-Serif" font-size="10.00" fill="#000000">sidepanel.h</text>
</a>
</g>
</g>
<!-- Node1&#45;&gt;Node2 -->
<g id="edge1" class="edge">
<title>Node1&#45;&gt;Node2</title>
<path fill="none" stroke="#191970" d="M356.9645,-392.4554C335.3571,-382.464 307.2102,-369.4487 286.208,-359.7372"/>
<polygon fill="#191970" stroke="#191970" points="287.6559,-356.5506 277.1103,-355.5303 284.7179,-362.9043 287.6559,-356.5506"/>
</g>
<!-- Node34 -->
<g id="node34" class="node">
<title>Node34</title>
<g id="a_node34"><a xlink:title=" ">
<polygon fill="#ffffff" stroke="#bfbfbf" points="308.5,-336.5 308.5,-355.5 378.5,-355.5 378.5,-336.5 308.5,-336.5"/>
<text text-anchor="middle" x="343.5" y="-343.5" font-family="Helvetica,sans-Serif" font-size="10.00" fill="#000000">QGroupBox</text>
</a>
</g>
</g>
<!-- Node1&#45;&gt;Node34 -->
<g id="edge54" class="edge">
<title>Node1&#45;&gt;Node34</title>
<path fill="none" stroke="#191970" d="M378.1292,-392.2977C371.7439,-383.7609 363.7359,-373.0545 357.0295,-364.0883"/>
<polygon fill="#191970" stroke="#191970" points="359.6575,-361.7584 350.8652,-355.8469 354.0521,-365.9511 359.6575,-361.7584"/>
</g>
<!-- Node35 -->
<g id="node35" class="node">
<title>Node35</title>
<g id="a_node35"><a xlink:title=" ">
<polygon fill="#ffffff" stroke="#bfbfbf" points="397,-336.5 397,-355.5 476,-355.5 476,-336.5 397,-336.5"/>
<text text-anchor="middle" x="436.5" y="-343.5" font-family="Helvetica,sans-Serif" font-size="10.00" fill="#000000">QVBoxLayout</text>
</a>
</g>
</g>
<!-- Node1&#45;&gt;Node35 -->
<g id="edge55" class="edge">
<title>Node1&#45;&gt;Node35</title>
<path fill="none" stroke="#191970" d="M401.118,-392.2977C407.71,-383.672 415.9948,-372.8312 422.8901,-363.8087"/>
<polygon fill="#191970" stroke="#191970" points="425.6835,-365.9176 428.9747,-355.8469 420.1217,-361.6671 425.6835,-365.9176"/>
</g>
<!-- Node36 -->
<g id="node36" class="node">
<title>Node36</title>
<g id="a_node36"><a xlink:title=" ">
<polygon fill="#ffffff" stroke="#bfbfbf" points="494.5,-336.5 494.5,-355.5 550.5,-355.5 550.5,-336.5 494.5,-336.5"/>
<text text-anchor="middle" x="522.5" y="-343.5" font-family="Helvetica,sans-Serif" font-size="10.00" fill="#000000">QPalette</text>
</a>
</g>
</g>
<!-- Node1&#45;&gt;Node36 -->
<g id="edge56" class="edge">
<title>Node1&#45;&gt;Node36</title>
<path fill="none" stroke="#191970" d="M422.0355,-392.4554C443.6429,-382.464 471.7898,-369.4487 492.792,-359.7372"/>
<polygon fill="#191970" stroke="#191970" points="494.2821,-362.9043 501.8897,-355.5303 491.3441,-356.5506 494.2821,-362.9043"/>
</g>
<!-- Node3 -->
<g id="node3" class="node">
<title>Node3</title>
<g id="a_node3"><a xlink:title=" ">
<polygon fill="#ffffff" stroke="#bfbfbf" points="354.5,-56.5 354.5,-75.5 410.5,-75.5 410.5,-56.5 354.5,-56.5"/>
<text text-anchor="middle" x="382.5" y="-63.5" font-family="Helvetica,sans-Serif" font-size="10.00" fill="#000000">QWidget</text>
</a>
</g>
</g>
<!-- Node2&#45;&gt;Node3 -->
<g id="edge2" class="edge">
<title>Node2&#45;&gt;Node3</title>
<path fill="none" stroke="#191970" d="M256.5,-336.4116C256.5,-317.0538 256.5,-271.9167 256.5,-234 256.5,-234 256.5,-234 256.5,-178 256.5,-147.4754 255.3143,-134.8974 275.5,-112 293.3212,-91.7847 321.5877,-80.1503 344.5932,-73.6413"/>
<polygon fill="#191970" stroke="#191970" points="345.6191,-76.9909 354.41,-71.0772 343.85,-70.2181 345.6191,-76.9909"/>
</g>
<!-- Node4 -->
<g id="node4" class="node">
<title>Node4</title>
<g id="a_node4"><a xlink:title=" ">
<polygon fill="#ffffff" stroke="#bfbfbf" points="154.5,-280.5 154.5,-299.5 228.5,-299.5 228.5,-280.5 154.5,-280.5"/>
<text text-anchor="middle" x="191.5" y="-287.5" font-family="Helvetica,sans-Serif" font-size="10.00" fill="#000000">QGridLayout</text>
</a>
</g>
</g>
<!-- Node2&#45;&gt;Node4 -->
<g id="edge3" class="edge">
<title>Node2&#45;&gt;Node4</title>
<path fill="none" stroke="#191970" d="M245.1779,-336.2455C235.5777,-327.9746 221.6108,-315.9416 210.3305,-306.2232"/>
<polygon fill="#191970" stroke="#191970" points="212.553,-303.5182 202.6924,-299.6427 207.984,-308.8214 212.553,-303.5182"/>
</g>
<!-- Node5 -->
<g id="node5" class="node">
<title>Node5</title>
<g id="a_node5"><a xlink:title=" ">
<polygon fill="#ffffff" stroke="#bfbfbf" points="0,-56.5 0,-75.5 49,-75.5 49,-56.5 0,-56.5"/>
<text text-anchor="middle" x="24.5" y="-63.5" font-family="Helvetica,sans-Serif" font-size="10.00" fill="#000000">QLabel</text>
</a>
</g>
</g>
<!-- Node2&#45;&gt;Node5 -->
<g id="edge4" class="edge">
<title>Node2&#45;&gt;Node5</title>
<path fill="none" stroke="#191970" d="M222.3159,-337.8897C155.1637,-320.9585 12.5,-279.6201 12.5,-234 12.5,-234 12.5,-234 12.5,-178 12.5,-145.3778 17.5954,-107.7135 21.1456,-85.4301"/>
<polygon fill="#191970" stroke="#191970" points="24.6007,-85.9887 22.7807,-75.5514 17.6947,-84.8456 24.6007,-85.9887"/>
</g>
<!-- Node6 -->
<g id="node6" class="node">
<title>Node6</title>
<g id="a_node6"><a xlink:href="datamodel_8h.html" target="_top" xlink:title=" ">
<polygon fill="#ffffff" stroke="#000000" points="319,-168.5 319,-187.5 392,-187.5 392,-168.5 319,-168.5"/>
<text text-anchor="middle" x="355.5" y="-175.5" font-family="Helvetica,sans-Serif" font-size="10.00" fill="#000000">datamodel.h</text>
</a>
</g>
</g>
<!-- Node2&#45;&gt;Node6 -->
<g id="edge5" class="edge">
<title>Node2&#45;&gt;Node6</title>
<path fill="none" stroke="#191970" d="M262.1063,-336.4862C277.9592,-309.5845 323.3254,-232.5994 344.4407,-196.7673"/>
<polygon fill="#191970" stroke="#191970" points="347.647,-198.2202 349.7086,-187.8279 341.6162,-194.6663 347.647,-198.2202"/>
</g>
<!-- Node18 -->
<g id="node18" class="node">
<title>Node18</title>
<g id="a_node18"><a xlink:href="minimap_8h.html" target="_top" xlink:title=" ">
<polygon fill="#ffffff" stroke="#000000" points="536.5,-280.5 536.5,-299.5 598.5,-299.5 598.5,-280.5 536.5,-280.5"/>
<text text-anchor="middle" x="567.5" y="-287.5" font-family="Helvetica,sans-Serif" font-size="10.00" fill="#000000">minimap.h</text>
</a>
</g>
</g>
<!-- Node2&#45;&gt;Node18 -->
<g id="edge21" class="edge">
<title>Node2&#45;&gt;Node18</title>
<path fill="none" stroke="#191970" d="M290.7282,-337.8497C293.6903,-337.2021 296.6451,-336.5765 299.5,-336 379.54,-319.8383 473.7666,-304.5165 526.4697,-296.2777"/>
<polygon fill="#191970" stroke="#191970" points="527.0972,-299.7223 536.4401,-294.7262 526.0209,-292.8055 527.0972,-299.7223"/>
</g>
<!-- Node6&#45;&gt;Node3 -->
<g id="edge7" class="edge">
<title>Node6&#45;&gt;Node3</title>
<path fill="none" stroke="#191970" d="M357.802,-168.4509C362.2256,-150.1013 371.9915,-109.5908 377.8306,-85.3693"/>
<polygon fill="#191970" stroke="#191970" points="381.2627,-86.0667 380.2038,-75.5249 374.4576,-84.4261 381.2627,-86.0667"/>
</g>
<!-- Node6&#45;&gt;Node5 -->
<g id="edge6" class="edge">
<title>Node6&#45;&gt;Node5</title>
<path fill="none" stroke="#191970" d="M318.981,-175.7041C251.4835,-170.8859 110.3583,-157.9546 69.5,-132 52.1896,-121.0038 39.8626,-100.6894 32.5376,-85.4909"/>
<polygon fill="#191970" stroke="#191970" points="35.5508,-83.6564 28.2658,-75.9636 29.1635,-86.5203 35.5508,-83.6564"/>
</g>
<!-- Node7 -->
<g id="node7" class="node">
<title>Node7</title>
<g id="a_node7"><a xlink:title=" ">
<polygon fill="#ffffff" stroke="#bfbfbf" points="905.5,-112.5 905.5,-131.5 955.5,-131.5 955.5,-112.5 905.5,-112.5"/>
<text text-anchor="middle" x="930.5" y="-119.5" font-family="Helvetica,sans-Serif" font-size="10.00" fill="#000000">QString</text>
</a>
</g>
</g>
<!-- Node6&#45;&gt;Node7 -->
<g id="edge8" class="edge">
<title>Node6&#45;&gt;Node7</title>
<path fill="none" stroke="#191970" d="M392.2173,-174.9307C511.1932,-164.9748 879.1558,-134.0975 891.5,-132 892.7792,-131.7827 894.0779,-131.5442 895.3866,-131.289"/>
<polygon fill="#191970" stroke="#191970" points="896.4426,-134.6404 905.456,-129.0716 894.9372,-127.8041 896.4426,-134.6404"/>
</g>
<!-- Node8 -->
<g id="node8" class="node">
<title>Node8</title>
<g id="a_node8"><a xlink:title=" ">
<polygon fill="#ffffff" stroke="#bfbfbf" points="448.5,-112.5 448.5,-131.5 530.5,-131.5 530.5,-112.5 448.5,-112.5"/>
<text text-anchor="middle" x="489.5" y="-119.5" font-family="Helvetica,sans-Serif" font-size="10.00" fill="#000000">QMediaPlayer</text>
</a>
</g>
</g>
<!-- Node6&#45;&gt;Node8 -->
<g id="edge9" class="edge">
<title>Node6&#45;&gt;Node8</title>
<path fill="none" stroke="#191970" d="M378.5354,-168.3733C400.2388,-159.3032 432.9618,-145.6279 457.255,-135.4755"/>
<polygon fill="#191970" stroke="#191970" points="458.8881,-138.5865 466.7652,-131.5011 456.1889,-132.1278 458.8881,-138.5865"/>
</g>
<!-- Node9 -->
<g id="node9" class="node">
<title>Node9</title>
<g id="a_node9"><a xlink:title=" ">
<polygon fill="#ffffff" stroke="#bfbfbf" points="549,-112.5 549,-131.5 632,-131.5 632,-112.5 549,-112.5"/>
<text text-anchor="middle" x="590.5" y="-119.5" font-family="Helvetica,sans-Serif" font-size="10.00" fill="#000000">QVideoWidget</text>
</a>
</g>
</g>
<!-- Node6&#45;&gt;Node9 -->
<g id="edge10" class="edge">
<title>Node6&#45;&gt;Node9</title>
<path fill="none" stroke="#191970" d="M392.2188,-169.25C432.183,-159.7266 496.312,-144.4448 540.7714,-133.8502"/>
<polygon fill="#191970" stroke="#191970" points="541.5861,-137.2542 550.5023,-131.5314 539.9634,-130.4448 541.5861,-137.2542"/>
</g>
<!-- Node10 -->
<g id="node10" class="node">
<title>Node10</title>
<g id="a_node10"><a xlink:href="mainwindow_8h.html" target="_top" xlink:title=" ">
<polygon fill="#ffffff" stroke="#000000" points="78.5,-112.5 78.5,-131.5 158.5,-131.5 158.5,-112.5 78.5,-112.5"/>
<text text-anchor="middle" x="118.5" y="-119.5" font-family="Helvetica,sans-Serif" font-size="10.00" fill="#000000">mainwindow.h</text>
</a>
</g>
</g>
<!-- Node6&#45;&gt;Node10 -->
<g id="edge11" class="edge">
<title>Node6&#45;&gt;Node10</title>
<path fill="none" stroke="#191970" d="M318.9881,-169.3727C278.6694,-159.8459 213.5132,-144.4504 168.4759,-133.8087"/>
<polygon fill="#191970" stroke="#191970" points="169.159,-130.3737 158.6221,-131.4803 167.5492,-137.1862 169.159,-130.3737"/>
</g>
<!-- Node13 -->
<g id="node13" class="node">
<title>Node13</title>
<g id="a_node13"><a xlink:href="player_8h.html" target="_top" xlink:title=" ">
<polygon fill="#ffffff" stroke="#000000" points="176.5,-112.5 176.5,-131.5 228.5,-131.5 228.5,-112.5 176.5,-112.5"/>
<text text-anchor="middle" x="202.5" y="-119.5" font-family="Helvetica,sans-Serif" font-size="10.00" fill="#000000">player.h</text>
</a>
</g>
</g>
<!-- Node6&#45;&gt;Node13 -->
<g id="edge14" class="edge">
<title>Node6&#45;&gt;Node13</title>
<path fill="none" stroke="#191970" d="M329.1984,-168.3733C304.0872,-159.1822 266.0562,-145.2624 238.2128,-135.0713"/>
<polygon fill="#191970" stroke="#191970" points="239.0522,-131.6516 228.4584,-131.5011 236.6462,-138.2251 239.0522,-131.6516"/>
</g>
<!-- Node16 -->
<g id="node16" class="node">
<title>Node16</title>
<g id="a_node16"><a xlink:href="infowidget_8h.html" target="_top" xlink:title=" ">
<polygon fill="#ffffff" stroke="#000000" points="284.5,-112.5 284.5,-131.5 354.5,-131.5 354.5,-112.5 284.5,-112.5"/>
<text text-anchor="middle" x="319.5" y="-119.5" font-family="Helvetica,sans-Serif" font-size="10.00" fill="#000000">infowidget.h</text>
</a>
</g>
</g>
<!-- Node6&#45;&gt;Node16 -->
<g id="edge17" class="edge">
<title>Node6&#45;&gt;Node16</title>
<path fill="none" stroke="#191970" d="M349.2293,-168.2455C344.2736,-160.5367 337.217,-149.5598 331.2224,-140.2348"/>
<polygon fill="#191970" stroke="#191970" points="334.0506,-138.1618 325.6989,-131.6427 328.1624,-141.9471 334.0506,-138.1618"/>
</g>
<!-- Node17 -->
<g id="node17" class="node">
<title>Node17</title>
<g id="a_node17"><a xlink:href="point_8h.html" target="_top" xlink:title=" ">
<polygon fill="#ffffff" stroke="#000000" points="1277,-56.5 1277,-75.5 1322,-75.5 1322,-56.5 1277,-56.5"/>
<text text-anchor="middle" x="1299.5" y="-63.5" font-family="Helvetica,sans-Serif" font-size="10.00" fill="#000000">point.h</text>
</a>
</g>
</g>
<!-- Node6&#45;&gt;Node17 -->
<g id="edge20" class="edge">
<title>Node6&#45;&gt;Node17</title>
<path fill="none" stroke="#191970" d="M392.3593,-174.823C506.5248,-164.958 847.3064,-135.314 858.5,-132 876.8001,-126.5821 878.2193,-117.483 896.5,-112 1052.6375,-65.1692 1101.061,-104.8335 1261.5,-76 1263.2079,-75.6931 1264.9517,-75.3484 1266.7072,-74.9765"/>
<polygon fill="#191970" stroke="#191970" points="1267.7897,-78.3175 1276.7237,-72.6224 1266.1881,-71.5032 1267.7897,-78.3175"/>
</g>
<!-- Node11 -->
<g id="node11" class="node">
<title>Node11</title>
<g id="a_node11"><a xlink:title=" ">
<polygon fill="#ffffff" stroke="#bfbfbf" points="152,-56.5 152,-75.5 235,-75.5 235,-56.5 152,-56.5"/>
<text text-anchor="middle" x="193.5" y="-63.5" font-family="Helvetica,sans-Serif" font-size="10.00" fill="#000000">QMainWindow</text>
</a>
</g>
</g>
<!-- Node10&#45;&gt;Node11 -->
<g id="edge12" class="edge">
<title>Node10&#45;&gt;Node11</title>
<path fill="none" stroke="#191970" d="M131.564,-112.2455C142.8562,-103.814 159.3845,-91.4729 172.5271,-81.6598"/>
<polygon fill="#191970" stroke="#191970" points="174.6669,-84.4301 180.5857,-75.6427 170.4789,-78.8211 174.6669,-84.4301"/>
</g>
<!-- Node12 -->
<g id="node12" class="node">
<title>Node12</title>
<g id="a_node12"><a xlink:title=" ">
<polygon fill="#ffffff" stroke="#bfbfbf" points="67,-56.5 67,-75.5 134,-75.5 134,-56.5 67,-56.5"/>
<text text-anchor="middle" x="100.5" y="-63.5" font-family="Helvetica,sans-Serif" font-size="10.00" fill="#000000">QKeyEvent</text>
</a>
</g>
</g>
<!-- Node10&#45;&gt;Node12 -->
<g id="edge13" class="edge">
<title>Node10&#45;&gt;Node12</title>
<path fill="none" stroke="#191970" d="M115.3646,-112.2455C112.99,-104.8579 109.6507,-94.4689 106.7385,-85.4087"/>
<polygon fill="#191970" stroke="#191970" points="109.9917,-84.0919 103.5994,-75.6427 103.3275,-86.234 109.9917,-84.0919"/>
</g>
<!-- Node14 -->
<g id="node14" class="node">
<title>Node14</title>
<g id="a_node14"><a xlink:href="highlighter_8h.html" target="_top" xlink:title=" ">
<polygon fill="#ffffff" stroke="#000000" points="253.5,-56.5 253.5,-75.5 323.5,-75.5 323.5,-56.5 253.5,-56.5"/>
<text text-anchor="middle" x="288.5" y="-63.5" font-family="Helvetica,sans-Serif" font-size="10.00" fill="#000000">highlighter.h</text>
</a>
</g>
</g>
<!-- Node13&#45;&gt;Node14 -->
<g id="edge15" class="edge">
<title>Node13&#45;&gt;Node14</title>
<path fill="none" stroke="#191970" d="M217.4801,-112.2455C230.6751,-103.6534 250.1051,-91.0014 265.3079,-81.1018"/>
<polygon fill="#191970" stroke="#191970" points="267.2215,-84.0325 273.6916,-75.6427 263.4017,-78.1665 267.2215,-84.0325"/>
</g>
<!-- Node15 -->
<g id="node15" class="node">
<title>Node15</title>
<g id="a_node15"><a xlink:title=" ">
<polygon fill="#ffffff" stroke="#bfbfbf" points="236.5,-.5 236.5,-19.5 340.5,-19.5 340.5,-.5 236.5,-.5"/>
<text text-anchor="middle" x="288.5" y="-7.5" font-family="Helvetica,sans-Serif" font-size="10.00" fill="#000000">QGraphicsRectItem</text>
</a>
</g>
</g>
<!-- Node14&#45;&gt;Node15 -->
<g id="edge16" class="edge">
<title>Node14&#45;&gt;Node15</title>
<path fill="none" stroke="#191970" d="M288.5,-56.2455C288.5,-48.9382 288.5,-38.6944 288.5,-29.7046"/>
<polygon fill="#191970" stroke="#191970" points="292.0001,-29.6426 288.5,-19.6427 285.0001,-29.6427 292.0001,-29.6426"/>
</g>
<!-- Node16&#45;&gt;Node3 -->
<g id="edge19" class="edge">
<title>Node16&#45;&gt;Node3</title>
<path fill="none" stroke="#191970" d="M330.4738,-112.2455C339.6882,-104.0549 353.0532,-92.1749 363.9297,-82.5069"/>
<polygon fill="#191970" stroke="#191970" points="366.5032,-84.9023 371.652,-75.6427 361.8526,-79.6704 366.5032,-84.9023"/>
</g>
<!-- Node16&#45;&gt;Node5 -->
<g id="edge18" class="edge">
<title>Node16&#45;&gt;Node5</title>
<path fill="none" stroke="#191970" d="M284.4744,-117.2213C235.8409,-110.2883 144.9786,-96.2609 59.1742,-76.2041"/>
<polygon fill="#191970" stroke="#191970" points="59.8165,-72.7594 49.2788,-73.8583 58.2018,-79.5706 59.8165,-72.7594"/>
</g>
<!-- Node18&#45;&gt;Node3 -->
<g id="edge22" class="edge">
<title>Node18&#45;&gt;Node3</title>
<path fill="none" stroke="#191970" d="M556.8444,-280.4282C537.7084,-262.9888 496.7029,-224.4662 466.5,-188 437.683,-153.2071 408.8585,-108.713 393.6078,-84.2179"/>
<polygon fill="#191970" stroke="#191970" points="396.5138,-82.2621 388.2839,-75.5898 390.5566,-85.938 396.5138,-82.2621"/>
</g>
<!-- Node18&#45;&gt;Node17 -->
<g id="edge53" class="edge">
<title>Node18&#45;&gt;Node17</title>
<path fill="none" stroke="#191970" d="M598.6859,-288.4044C743.2718,-280.717 1343.824,-245.4943 1402.5,-188 1426.7595,-164.2291 1429.3672,-140.242 1410.5,-112 1393.2881,-86.2358 1358.6813,-74.8833 1332.6595,-69.8922"/>
<polygon fill="#191970" stroke="#191970" points="1332.9038,-66.384 1322.4607,-68.1704 1331.7385,-73.2863 1332.9038,-66.384"/>
</g>
<!-- Node19 -->
<g id="node19" class="node">
<title>Node19</title>
<g id="a_node19"><a xlink:href="maprenderer_8h.html" target="_top" xlink:title=" ">
<polygon fill="#ffffff" stroke="#000000" points="673.5,-224.5 673.5,-243.5 755.5,-243.5 755.5,-224.5 673.5,-224.5"/>
<text text-anchor="middle" x="714.5" y="-231.5" font-family="Helvetica,sans-Serif" font-size="10.00" fill="#000000">maprenderer.h</text>
</a>
</g>
</g>
<!-- Node18&#45;&gt;Node19 -->
<g id="edge23" class="edge">
<title>Node18&#45;&gt;Node19</title>
<path fill="none" stroke="#191970" d="M592.7702,-280.3733C616.8966,-271.1822 653.4362,-257.2624 680.1877,-247.0713"/>
<polygon fill="#191970" stroke="#191970" points="681.4607,-250.3318 689.5596,-243.5011 678.9687,-243.7904 681.4607,-250.3318"/>
</g>
<!-- Node19&#45;&gt;Node3 -->
<g id="edge24" class="edge">
<title>Node19&#45;&gt;Node3</title>
<path fill="none" stroke="#191970" d="M711.9379,-224.3026C705.0872,-200.4947 683.9158,-139.1347 641.5,-112 605.5881,-89.026 484.3026,-75.0956 421.2689,-69.2371"/>
<polygon fill="#191970" stroke="#191970" points="421.217,-65.7181 410.9418,-68.3012 420.5851,-72.6895 421.217,-65.7181"/>
</g>
<!-- Node19&#45;&gt;Node6 -->
<g id="edge34" class="edge">
<title>Node19&#45;&gt;Node6</title>
<path fill="none" stroke="#191970" d="M673.3181,-227.5761C605.9978,-217.0749 472.8163,-196.3 402.1231,-185.2727"/>
<polygon fill="#191970" stroke="#191970" points="402.5817,-181.802 392.1617,-183.7188 401.5027,-188.7183 402.5817,-181.802"/>
</g>
<!-- Node19&#45;&gt;Node8 -->
<g id="edge28" class="edge">
<title>Node19&#45;&gt;Node8</title>
<path fill="none" stroke="#191970" d="M673.3775,-232.1145C612.22,-228.3517 501.865,-217.5488 477.5,-188 466.6641,-174.8588 472.1256,-155.1919 478.7998,-140.7444"/>
<polygon fill="#191970" stroke="#191970" points="481.9788,-142.2156 483.4289,-131.7205 475.7504,-139.0206 481.9788,-142.2156"/>
</g>
<!-- Node19&#45;&gt;Node9 -->
<g id="edge27" class="edge">
<title>Node19&#45;&gt;Node9</title>
<path fill="none" stroke="#191970" d="M707.4425,-224.3579C697.2941,-210.8604 677.5811,-185.9726 657.5,-168 644.5156,-156.379 628.4662,-145.2648 615.3308,-136.873"/>
<polygon fill="#191970" stroke="#191970" points="617.111,-133.8583 606.7762,-131.5255 613.4006,-139.794 617.111,-133.8583"/>
</g>
<!-- Node19&#45;&gt;Node17 -->
<g id="edge40" class="edge">
<title>Node19&#45;&gt;Node17</title>
<path fill="none" stroke="#191970" d="M755.9729,-232.5018C897.9163,-227.1976 1356.8297,-208.5242 1380.5,-188 1406.3363,-165.5976 1410.5407,-141.0502 1392.5,-112 1379.3518,-90.8279 1353.2502,-79.1046 1332.0377,-72.8011"/>
<polygon fill="#191970" stroke="#191970" points="1332.6613,-69.3444 1322.0952,-70.1243 1330.8415,-76.1037 1332.6613,-69.3444"/>
</g>
<!-- Node20 -->
<g id="node20" class="node">
<title>Node20</title>
<g id="a_node20"><a xlink:title=" ">
<polygon fill="#ffffff" stroke="#bfbfbf" points="1328,-112.5 1328,-131.5 1367,-131.5 1367,-112.5 1328,-112.5"/>
<text text-anchor="middle" x="1347.5" y="-119.5" font-family="Helvetica,sans-Serif" font-size="10.00" fill="#000000">QList</text>
</a>
</g>
</g>
<!-- Node19&#45;&gt;Node20 -->
<g id="edge25" class="edge">
<title>Node19&#45;&gt;Node20</title>
<path fill="none" stroke="#191970" d="M755.5946,-231.8858C857.2671,-226.3731 1118.4247,-210.4168 1202.5,-188 1246.6799,-176.2204 1294.2656,-152.1325 1322.4357,-136.5446"/>
<polygon fill="#191970" stroke="#191970" points="1324.2078,-139.5636 1331.2118,-131.6141 1320.7791,-133.4608 1324.2078,-139.5636"/>
</g>
<!-- Node21 -->
<g id="node21" class="node">
<title>Node21</title>
<g id="a_node21"><a xlink:title=" ">
<polygon fill="#ffffff" stroke="#bfbfbf" points="486.5,-168.5 486.5,-187.5 544.5,-187.5 544.5,-168.5 486.5,-168.5"/>
<text text-anchor="middle" x="515.5" y="-175.5" font-family="Helvetica,sans-Serif" font-size="10.00" fill="#000000">QThread</text>
</a>
</g>
</g>
<!-- Node19&#45;&gt;Node21 -->
<g id="edge26" class="edge">
<title>Node19&#45;&gt;Node21</title>
<path fill="none" stroke="#191970" d="M680.2907,-224.3733C645.3482,-214.5402 591.1717,-199.2945 554.5647,-188.9931"/>
<polygon fill="#191970" stroke="#191970" points="555.3104,-185.5671 544.7362,-186.2273 553.4142,-192.3053 555.3104,-185.5671"/>
</g>
<!-- Node22 -->
<g id="node22" class="node">
<title>Node22</title>
<g id="a_node22"><a xlink:title=" ">
<polygon fill="#ffffff" stroke="#bfbfbf" points="563,-168.5 563,-187.5 648,-187.5 648,-168.5 563,-168.5"/>
<text text-anchor="middle" x="605.5" y="-175.5" font-family="Helvetica,sans-Serif" font-size="10.00" fill="#000000">QMediaPlaylist</text>
</a>
</g>
</g>
<!-- Node19&#45;&gt;Node22 -->
<g id="edge29" class="edge">
<title>Node19&#45;&gt;Node22</title>
<path fill="none" stroke="#191970" d="M695.5136,-224.2455C678.3208,-215.4125 652.7762,-202.2887 633.2868,-192.2758"/>
<polygon fill="#191970" stroke="#191970" points="634.763,-189.0993 624.2688,-187.6427 631.5641,-195.3257 634.763,-189.0993"/>
</g>
<!-- Node23 -->
<g id="node23" class="node">
<title>Node23</title>
<g id="a_node23"><a xlink:href="graphicsmanager_8h.html" target="_top" xlink:title=" ">
<polygon fill="#ffffff" stroke="#000000" points="746,-112.5 746,-131.5 849,-131.5 849,-112.5 746,-112.5"/>
<text text-anchor="middle" x="797.5" y="-119.5" font-family="Helvetica,sans-Serif" font-size="10.00" fill="#000000">graphicsmanager.h</text>
</a>
</g>
</g>
<!-- Node19&#45;&gt;Node23 -->
<g id="edge30" class="edge">
<title>Node19&#45;&gt;Node23</title>
<path fill="none" stroke="#191970" d="M755.6985,-224.3939C774.9492,-217.6178 796.0964,-206.3627 807.5,-188 816.1723,-174.0353 812.1643,-155.2835 806.8654,-141.3367"/>
<polygon fill="#191970" stroke="#191970" points="809.916,-139.5709 802.7502,-131.767 803.4854,-142.3363 809.916,-139.5709"/>
</g>
<!-- Node27 -->
<g id="node27" class="node">
<title>Node27</title>
<g id="a_node27"><a xlink:href="maptile_8h.html" target="_top" xlink:title=" ">
<polygon fill="#ffffff" stroke="#000000" points="742.5,-168.5 742.5,-187.5 798.5,-187.5 798.5,-168.5 742.5,-168.5"/>
<text text-anchor="middle" x="770.5" y="-175.5" font-family="Helvetica,sans-Serif" font-size="10.00" fill="#000000">maptile.h</text>
</a>
</g>
</g>
<!-- Node19&#45;&gt;Node27 -->
<g id="edge35" class="edge">
<title>Node19&#45;&gt;Node27</title>
<path fill="none" stroke="#191970" d="M724.2545,-224.2455C732.3648,-216.1352 744.0925,-204.4075 753.7081,-194.7919"/>
<polygon fill="#191970" stroke="#191970" points="756.2611,-197.1887 760.8573,-187.6427 751.3113,-192.2389 756.2611,-197.1887"/>
</g>
<!-- Node30 -->
<g id="node30" class="node">
<title>Node30</title>
<g id="a_node30"><a xlink:href="animationmovement_8h.html" target="_top" xlink:title=" ">
<polygon fill="#ffffff" stroke="#000000" points="1078,-168.5 1078,-187.5 1193,-187.5 1193,-168.5 1078,-168.5"/>
<text text-anchor="middle" x="1135.5" y="-175.5" font-family="Helvetica,sans-Serif" font-size="10.00" fill="#000000">animationmovement.h</text>
</a>
</g>
</g>
<!-- Node19&#45;&gt;Node30 -->
<g id="edge41" class="edge">
<title>Node19&#45;&gt;Node30</title>
<path fill="none" stroke="#191970" d="M755.6338,-228.5285C828.1778,-218.879 979.5042,-198.75 1067.6931,-187.0195"/>
<polygon fill="#191970" stroke="#191970" points="1068.4114,-190.4548 1077.8625,-185.6667 1067.4883,-183.5159 1068.4114,-190.4548"/>
</g>
<!-- Node33 -->
<g id="node33" class="node">
<title>Node33</title>
<g id="a_node33"><a xlink:href="sprite_8h.html" target="_top" xlink:title=" ">
<polygon fill="#ffffff" stroke="#000000" points="1323.5,-168.5 1323.5,-187.5 1371.5,-187.5 1371.5,-168.5 1323.5,-168.5"/>
<text text-anchor="middle" x="1347.5" y="-175.5" font-family="Helvetica,sans-Serif" font-size="10.00" fill="#000000">sprite.h</text>
</a>
</g>
</g>
<!-- Node19&#45;&gt;Node33 -->
<g id="edge50" class="edge">
<title>Node19&#45;&gt;Node33</title>
<path fill="none" stroke="#191970" d="M755.5208,-231.328C847.9403,-225.1526 1079.4545,-208.8134 1272.5,-188 1285.7644,-186.5699 1300.3086,-184.7006 1313.0294,-182.9656"/>
<polygon fill="#191970" stroke="#191970" points="1313.7936,-186.3932 1323.2179,-181.5525 1312.8318,-179.4596 1313.7936,-186.3932"/>
</g>
<!-- Node24 -->
<g id="node24" class="node">
<title>Node24</title>
<g id="a_node24"><a xlink:title=" ">
<polygon fill="#ffffff" stroke="#bfbfbf" points="768.5,-56.5 768.5,-75.5 826.5,-75.5 826.5,-56.5 768.5,-56.5"/>
<text text-anchor="middle" x="797.5" y="-63.5" font-family="Helvetica,sans-Serif" font-size="10.00" fill="#000000">QPixmap</text>
</a>
</g>
</g>
<!-- Node23&#45;&gt;Node24 -->
<g id="edge31" class="edge">
<title>Node23&#45;&gt;Node24</title>
<path fill="none" stroke="#191970" d="M797.5,-112.2455C797.5,-104.9382 797.5,-94.6944 797.5,-85.7046"/>
<polygon fill="#191970" stroke="#191970" points="801.0001,-85.6426 797.5,-75.6427 794.0001,-85.6427 801.0001,-85.6426"/>
</g>
<!-- Node25 -->
<g id="node25" class="node">
<title>Node25</title>
<g id="a_node25"><a xlink:title=" ">
<polygon fill="#ffffff" stroke="#bfbfbf" points="1199,-56.5 1199,-75.5 1252,-75.5 1252,-56.5 1199,-56.5"/>
<text text-anchor="middle" x="1225.5" y="-63.5" font-family="Helvetica,sans-Serif" font-size="10.00" fill="#000000">QImage</text>
</a>
</g>
</g>
<!-- Node23&#45;&gt;Node25 -->
<g id="edge32" class="edge">
<title>Node23&#45;&gt;Node25</title>
<path fill="none" stroke="#191970" d="M849.0054,-114.0742C853.9023,-113.3574 858.7939,-112.6554 863.5,-112 982.0789,-95.4852 1122.8563,-78.2856 1188.4397,-70.4118"/>
<polygon fill="#191970" stroke="#191970" points="1189.1643,-73.8501 1198.6769,-69.1853 1188.3315,-66.8998 1189.1643,-73.8501"/>
</g>
<!-- Node26 -->
<g id="node26" class="node">
<title>Node26</title>
<g id="a_node26"><a xlink:title=" ">
<polygon fill="#ffffff" stroke="#bfbfbf" points="698,-56.5 698,-75.5 739,-75.5 739,-56.5 698,-56.5"/>
<text text-anchor="middle" x="718.5" y="-63.5" font-family="Helvetica,sans-Serif" font-size="10.00" fill="#000000">string</text>
</a>
</g>
</g>
<!-- Node23&#45;&gt;Node26 -->
<g id="edge33" class="edge">
<title>Node23&#45;&gt;Node26</title>
<path fill="none" stroke="#191970" d="M783.7393,-112.2455C771.8448,-103.814 754.435,-91.4729 740.5915,-81.6598"/>
<polygon fill="#191970" stroke="#191970" points="742.2854,-78.5704 732.1031,-75.6427 738.2372,-84.2811 742.2854,-78.5704"/>
</g>
<!-- Node27&#45;&gt;Node23 -->
<g id="edge39" class="edge">
<title>Node27&#45;&gt;Node23</title>
<path fill="none" stroke="#191970" d="M775.203,-168.2455C778.8424,-160.6973 783.9924,-150.0158 788.4262,-140.8197"/>
<polygon fill="#191970" stroke="#191970" points="791.6605,-142.1704 792.8509,-131.6427 785.3551,-139.1303 791.6605,-142.1704"/>
</g>
<!-- Node28 -->
<g id="node28" class="node">
<title>Node28</title>
<g id="a_node28"><a xlink:title=" ">
<polygon fill="#ffffff" stroke="#bfbfbf" points="974,-112.5 974,-131.5 1091,-131.5 1091,-112.5 974,-112.5"/>
<text text-anchor="middle" x="1032.5" y="-119.5" font-family="Helvetica,sans-Serif" font-size="10.00" fill="#000000">QGraphicsPixmapItem</text>
</a>
</g>
</g>
<!-- Node27&#45;&gt;Node28 -->
<g id="edge36" class="edge">
<title>Node27&#45;&gt;Node28</title>
<path fill="none" stroke="#191970" d="M798.5386,-172.007C841.1648,-162.8961 923.0814,-145.3872 977.7758,-133.6968"/>
<polygon fill="#191970" stroke="#191970" points="978.6085,-137.0979 987.656,-131.585 977.1453,-130.2525 978.6085,-137.0979"/>
</g>
<!-- Node29 -->
<g id="node29" class="node">
<title>Node29</title>
<g id="a_node29"><a xlink:href="city_8h.html" target="_top" xlink:title=" ">
<polygon fill="#ffffff" stroke="#000000" points="689,-112.5 689,-131.5 728,-131.5 728,-112.5 689,-112.5"/>
<text text-anchor="middle" x="708.5" y="-119.5" font-family="Helvetica,sans-Serif" font-size="10.00" fill="#000000">city.h</text>
</a>
</g>
</g>
<!-- Node27&#45;&gt;Node29 -->
<g id="edge37" class="edge">
<title>Node27&#45;&gt;Node29</title>
<path fill="none" stroke="#191970" d="M759.7004,-168.2455C750.6322,-160.0549 737.4794,-148.1749 726.7755,-138.5069"/>
<polygon fill="#191970" stroke="#191970" points="728.9429,-135.7482 719.1758,-131.6427 724.2509,-140.9429 728.9429,-135.7482"/>
</g>
<!-- Node29&#45;&gt;Node26 -->
<g id="edge38" class="edge">
<title>Node29&#45;&gt;Node26</title>
<path fill="none" stroke="#191970" d="M710.2419,-112.2455C711.5467,-104.9382 713.376,-94.6944 714.9813,-85.7046"/>
<polygon fill="#191970" stroke="#191970" points="718.4656,-86.1022 716.7781,-75.6427 711.5746,-84.8717 718.4656,-86.1022"/>
</g>
<!-- Node30&#45;&gt;Node7 -->
<g id="edge47" class="edge">
<title>Node30&#45;&gt;Node7</title>
<path fill="none" stroke="#191970" d="M1099.6417,-168.4538C1065.209,-159.2501 1011.7476,-144.8632 965.5,-132 965.4011,-131.9725 965.302,-131.9449 965.2027,-131.9173"/>
<polygon fill="#191970" stroke="#191970" points="966.2972,-128.5894 955.7231,-129.2523 964.4027,-135.3281 966.2972,-128.5894"/>
</g>
<!-- Node30&#45;&gt;Node17 -->
<g id="edge42" class="edge">
<title>Node30&#45;&gt;Node17</title>
<path fill="none" stroke="#191970" d="M1181.2828,-168.4288C1218.325,-159.8135 1266.5454,-146.3351 1280.5,-132 1292.4299,-119.7448 1296.956,-100.5028 1298.6297,-85.9509"/>
<polygon fill="#191970" stroke="#191970" points="1302.1226,-86.1773 1299.429,-75.9306 1295.1448,-85.6206 1302.1226,-86.1773"/>
</g>
<!-- Node30&#45;&gt;Node20 -->
<g id="edge46" class="edge">
<title>Node30&#45;&gt;Node20</title>
<path fill="none" stroke="#191970" d="M1173.7922,-168.4945C1209.9056,-159.4376 1265.5048,-145.2558 1313.5,-132 1314.9456,-131.6007 1316.4242,-131.1868 1317.9163,-130.7647"/>
<polygon fill="#191970" stroke="#191970" points="1319.1164,-134.0614 1327.7551,-127.9276 1317.1769,-127.3354 1319.1164,-134.0614"/>
</g>
<!-- Node30&#45;&gt;Node28 -->
<g id="edge49" class="edge">
<title>Node30&#45;&gt;Node28</title>
<path fill="none" stroke="#191970" d="M1117.5588,-168.2455C1101.46,-159.4928 1077.6121,-146.527 1059.2609,-136.5496"/>
<polygon fill="#191970" stroke="#191970" points="1060.6929,-133.3444 1050.2356,-131.6427 1057.3493,-139.4942 1060.6929,-133.3444"/>
</g>
<!-- Node31 -->
<g id="node31" class="node">
<title>Node31</title>
<g id="a_node31"><a xlink:href="animationentity_8h.html" target="_top" xlink:title=" ">
<polygon fill="#ffffff" stroke="#000000" points="1180,-112.5 1180,-131.5 1271,-131.5 1271,-112.5 1180,-112.5"/>
<text text-anchor="middle" x="1225.5" y="-119.5" font-family="Helvetica,sans-Serif" font-size="10.00" fill="#000000">animationentity.h</text>
</a>
</g>
</g>
<!-- Node30&#45;&gt;Node31 -->
<g id="edge43" class="edge">
<title>Node30&#45;&gt;Node31</title>
<path fill="none" stroke="#191970" d="M1151.1768,-168.2455C1164.9856,-159.6534 1185.3193,-147.0014 1201.2292,-137.1018"/>
<polygon fill="#191970" stroke="#191970" points="1203.3613,-139.8974 1210.0028,-131.6427 1199.6632,-133.954 1203.3613,-139.8974"/>
</g>
<!-- Node32 -->
<g id="node32" class="node">
<title>Node32</title>
<g id="a_node32"><a xlink:title=" ">
<polygon fill="#ffffff" stroke="#bfbfbf" points="1109,-112.5 1109,-131.5 1162,-131.5 1162,-112.5 1109,-112.5"/>
<text text-anchor="middle" x="1135.5" y="-119.5" font-family="Helvetica,sans-Serif" font-size="10.00" fill="#000000">QObject</text>
</a>
</g>
</g>
<!-- Node30&#45;&gt;Node32 -->
<g id="edge48" class="edge">
<title>Node30&#45;&gt;Node32</title>
<path fill="none" stroke="#191970" d="M1135.5,-168.2455C1135.5,-160.9382 1135.5,-150.6944 1135.5,-141.7046"/>
<polygon fill="#191970" stroke="#191970" points="1139.0001,-141.6426 1135.5,-131.6427 1132.0001,-141.6427 1139.0001,-141.6426"/>
</g>
<!-- Node31&#45;&gt;Node17 -->
<g id="edge45" class="edge">
<title>Node31&#45;&gt;Node17</title>
<path fill="none" stroke="#191970" d="M1238.3898,-112.2455C1249.4254,-103.8943 1265.5292,-91.7076 1278.4353,-81.9408"/>
<polygon fill="#191970" stroke="#191970" points="1280.8959,-84.4681 1286.7579,-75.6427 1276.6717,-78.8862 1280.8959,-84.4681"/>
</g>
<!-- Node31&#45;&gt;Node25 -->
<g id="edge44" class="edge">
<title>Node31&#45;&gt;Node25</title>
<path fill="none" stroke="#191970" d="M1225.5,-112.2455C1225.5,-104.9382 1225.5,-94.6944 1225.5,-85.7046"/>
<polygon fill="#191970" stroke="#191970" points="1229.0001,-85.6426 1225.5,-75.6427 1222.0001,-85.6427 1229.0001,-85.6426"/>
</g>
<!-- Node33&#45;&gt;Node20 -->
<g id="edge52" class="edge">
<title>Node33&#45;&gt;Node20</title>
<path fill="none" stroke="#191970" d="M1347.5,-168.2455C1347.5,-160.9382 1347.5,-150.6944 1347.5,-141.7046"/>
<polygon fill="#191970" stroke="#191970" points="1351.0001,-141.6426 1347.5,-131.6427 1344.0001,-141.6427 1351.0001,-141.6426"/>
</g>
<!-- Node33&#45;&gt;Node25 -->
<g id="edge51" class="edge">
<title>Node33&#45;&gt;Node25</title>
<path fill="none" stroke="#191970" d="M1357.6291,-168.3381C1370.5602,-154.8171 1389.7604,-129.9016 1376.5,-112 1369.5156,-102.5711 1304.2906,-85.1693 1261.8795,-74.683"/>
<polygon fill="#191970" stroke="#191970" points="1262.7067,-71.2822 1252.161,-72.302 1261.0409,-78.0811 1262.7067,-71.2822"/>
</g>
</g>
</svg>
