<?xml version="1.0" encoding="UTF-8" standalone="no"?>
<!DOCTYPE svg PUBLIC "-//W3C//DTD SVG 1.1//EN"
 "http://www.w3.org/Graphics/SVG/1.1/DTD/svg11.dtd">
<!-- Generated by graphviz version 2.40.1 (20161225.0304)
 -->
<!-- Title: src/application_server/sidepanel.h Pages: 1 -->
<!--zoomable 375 -->
<svg id="main" version="1.1" xmlns="http://www.w3.org/2000/svg" xmlns:xlink="http://www.w3.org/1999/xlink" xml:space="preserve" onload="init(evt)">
<style type="text/css"><![CDATA[
.edge:hover path { stroke: red; }
.edge:hover polygon { stroke: red; fill: red; }
]]></style>
<script type="text/javascript"><![CDATA[
var edges = document.getElementsByTagName('g');
if (edges && edges.length) {
  for (var i=0;i<edges.length;i++) {
    if (edges[i].id.substr(0,4)=='edge') {
      edges[i].setAttribute('class','edge');
    }
  }
}
]]></script>
        <defs>
                <circle id="rim" cx="0" cy="0" r="7"/>
                <circle id="rim2" cx="0" cy="0" r="3.5"/>
                <g id="zoomPlus">
                        <use xlink:href="#rim" fill="#404040">
                                <set attributeName="fill" to="#808080" begin="zoomplus.mouseover" end="zoomplus.mouseout"/>
                        </use>
                        <path d="M-4,0h8M0,-4v8" fill="none" stroke="white" stroke-width="1.5" pointer-events="none"/>
                </g>
                <g id="zoomMin">
                        <use xlink:href="#rim" fill="#404040">
                                <set attributeName="fill" to="#808080" begin="zoomminus.mouseover" end="zoomminus.mouseout"/>
                        </use>
                        <path d="M-4,0h8" fill="none" stroke="white" stroke-width="1.5" pointer-events="none"/>
                </g>
                <g id="dirArrow">
                        <path fill="none" stroke="white" stroke-width="1.5" d="M0,-3.0v7 M-2.5,-0.5L0,-3.0L2.5,-0.5"/>
                </g>
               <g id="resetDef">
                       <use xlink:href="#rim2" fill="#404040">
                               <set attributeName="fill" to="#808080" begin="reset.mouseover" end="reset.mouseout"/>
                       </use>
               </g>
        </defs>

<script type="text/javascript">
var viewWidth = 1067;
var viewHeight = 375;
var sectionId = 'dynsection-0';
</script>
<script xlink:href="svgpan.js"/>
<svg id="graph" class="graph">
<g id="viewport">
<title>src/application_server/sidepanel.h</title>
<polygon fill="#ffffff" stroke="transparent" points="-4,4 -4,-371 1062.6995,-371 1062.6995,4 -4,4"/>
<!-- Node1 -->
<g id="node1" class="node">
<title>Node1</title>
<g id="a_node1"><a xlink:title=" ">
<polygon fill="#bfbfbf" stroke="#000000" points="63.6995,-336.5 63.6995,-366.5 178.6995,-366.5 178.6995,-336.5 63.6995,-336.5"/>
<text text-anchor="start" x="71.6995" y="-354.5" font-family="Helvetica,sans-Serif" font-size="10.00" fill="#000000">src/application_server</text>
<text text-anchor="middle" x="121.1995" y="-343.5" font-family="Helvetica,sans-Serif" font-size="10.00" fill="#000000">/sidepanel.h</text>
</a>
</g>
</g>
<!-- Node2 -->
<g id="node2" class="node">
<title>Node2</title>
<g id="a_node2"><a xlink:title=" ">
<polygon fill="#ffffff" stroke="#bfbfbf" points="86.1995,-112.5 86.1995,-131.5 142.1995,-131.5 142.1995,-112.5 86.1995,-112.5"/>
<text text-anchor="middle" x="114.1995" y="-119.5" font-family="Helvetica,sans-Serif" font-size="10.00" fill="#000000">QWidget</text>
</a>
</g>
</g>
<!-- Node1&#45;&gt;Node2 -->
<g id="edge1" class="edge">
<title>Node1&#45;&gt;Node2</title>
<path fill="none" stroke="#191970" d="M63.4299,-338.508C43.0329,-330.8434 22.2027,-318.8013 10.1995,-300 -27.2115,-241.4012 52.0281,-169.247 92.4337,-137.8463"/>
<polygon fill="#191970" stroke="#191970" points="94.7929,-140.4496 100.6394,-131.6139 90.5589,-134.8752 94.7929,-140.4496"/>
</g>
<!-- Node3 -->
<g id="node3" class="node">
<title>Node3</title>
<g id="a_node3"><a xlink:title=" ">
<polygon fill="#ffffff" stroke="#bfbfbf" points="19.1995,-280.5 19.1995,-299.5 93.1995,-299.5 93.1995,-280.5 19.1995,-280.5"/>
<text text-anchor="middle" x="56.1995" y="-287.5" font-family="Helvetica,sans-Serif" font-size="10.00" fill="#000000">QGridLayout</text>
</a>
</g>
</g>
<!-- Node1&#45;&gt;Node3 -->
<g id="edge2" class="edge">
<title>Node1&#45;&gt;Node3</title>
<path fill="none" stroke="#191970" d="M105.1321,-336.2977C95.7335,-327.4052 83.8468,-316.1586 74.1425,-306.9769"/>
<polygon fill="#191970" stroke="#191970" points="76.2763,-304.1774 66.6068,-299.8469 71.4653,-309.2621 76.2763,-304.1774"/>
</g>
<!-- Node4 -->
<g id="node4" class="node">
<title>Node4</title>
<g id="a_node4"><a xlink:title=" ">
<polygon fill="#ffffff" stroke="#bfbfbf" points="160.6995,-112.5 160.6995,-131.5 209.6995,-131.5 209.6995,-112.5 160.6995,-112.5"/>
<text text-anchor="middle" x="185.1995" y="-119.5" font-family="Helvetica,sans-Serif" font-size="10.00" fill="#000000">QLabel</text>
</a>
</g>
</g>
<!-- Node1&#45;&gt;Node4 -->
<g id="edge3" class="edge">
<title>Node1&#45;&gt;Node4</title>
<path fill="none" stroke="#191970" d="M125.3987,-336.4419C136.6,-296.275 167.1875,-186.5899 179.7267,-141.6252"/>
<polygon fill="#191970" stroke="#191970" points="183.1244,-142.4708 182.4393,-131.8981 176.3816,-140.5904 183.1244,-142.4708"/>
</g>
<!-- Node5 -->
<g id="node5" class="node">
<title>Node5</title>
<g id="a_node5"><a xlink:href="datamodel_8h.html" target="_top" xlink:title=" ">
<polygon fill="#ffffff" stroke="#000000" points="206.6995,-168.5 206.6995,-187.5 279.6995,-187.5 279.6995,-168.5 206.6995,-168.5"/>
<text text-anchor="middle" x="243.1995" y="-175.5" font-family="Helvetica,sans-Serif" font-size="10.00" fill="#000000">datamodel.h</text>
</a>
</g>
</g>
<!-- Node1&#45;&gt;Node5 -->
<g id="edge4" class="edge">
<title>Node1&#45;&gt;Node5</title>
<path fill="none" stroke="#191970" d="M131.8128,-336.4065C154.1747,-304.6049 206.0646,-230.8108 230.2979,-196.3478"/>
<polygon fill="#191970" stroke="#191970" points="233.4631,-197.9314 236.3521,-187.738 227.737,-193.9049 233.4631,-197.9314"/>
</g>
<!-- Node10 -->
<g id="node10" class="node">
<title>Node10</title>
<g id="a_node10"><a xlink:href="minimap_8h.html" target="_top" xlink:title=" ">
<polygon fill="#ffffff" stroke="#000000" points="187.1995,-280.5 187.1995,-299.5 249.1995,-299.5 249.1995,-280.5 187.1995,-280.5"/>
<text text-anchor="middle" x="218.1995" y="-287.5" font-family="Helvetica,sans-Serif" font-size="10.00" fill="#000000">minimap.h</text>
</a>
</g>
</g>
<!-- Node1&#45;&gt;Node10 -->
<g id="edge11" class="edge">
<title>Node1&#45;&gt;Node10</title>
<path fill="none" stroke="#191970" d="M145.1771,-336.2977C160.1371,-326.8127 179.3215,-314.6495 194.2721,-305.1705"/>
<polygon fill="#191970" stroke="#191970" points="196.3868,-307.9739 202.9583,-299.6633 192.6385,-302.062 196.3868,-307.9739"/>
</g>
<!-- Node5&#45;&gt;Node2 -->
<g id="edge7" class="edge">
<title>Node5&#45;&gt;Node2</title>
<path fill="none" stroke="#191970" d="M221.0236,-168.3733C200.2229,-159.3435 168.9079,-145.7494 145.5537,-135.6111"/>
<polygon fill="#191970" stroke="#191970" points="146.6528,-132.2727 136.086,-131.5011 143.8653,-138.6938 146.6528,-132.2727"/>
</g>
<!-- Node5&#45;&gt;Node4 -->
<g id="edge6" class="edge">
<title>Node5&#45;&gt;Node4</title>
<path fill="none" stroke="#191970" d="M233.0967,-168.2455C224.6967,-160.1352 212.5502,-148.4075 202.5912,-138.7919"/>
<polygon fill="#191970" stroke="#191970" points="204.8117,-136.0707 195.1866,-131.6427 199.9495,-141.1066 204.8117,-136.0707"/>
</g>
<!-- Node6 -->
<g id="node6" class="node">
<title>Node6</title>
<g id="a_node6"><a xlink:title=" ">
<polygon fill="#ffffff" stroke="#bfbfbf" points="797.6995,-56.5 797.6995,-75.5 838.6995,-75.5 838.6995,-56.5 797.6995,-56.5"/>
<text text-anchor="middle" x="818.1995" y="-63.5" font-family="Helvetica,sans-Serif" font-size="10.00" fill="#000000">string</text>
</a>
</g>
</g>
<!-- Node5&#45;&gt;Node6 -->
<g id="edge5" class="edge">
<title>Node5&#45;&gt;Node6</title>
<path fill="none" stroke="#191970" d="M242.0214,-168.1748C240.8724,-153.5018 241.1976,-126.0856 257.1995,-112 297.1751,-76.8116 675.8504,-68.1964 787.4151,-66.4139"/>
<polygon fill="#191970" stroke="#191970" points="787.704,-69.91 797.6494,-66.2578 787.5972,-62.9108 787.704,-69.91"/>
</g>
<!-- Node7 -->
<g id="node7" class="node">
<title>Node7</title>
<g id="a_node7"><a xlink:href="player_8h.html" target="_top" xlink:title=" ">
<polygon fill="#ffffff" stroke="#000000" points="266.1995,-112.5 266.1995,-131.5 318.1995,-131.5 318.1995,-112.5 266.1995,-112.5"/>
<text text-anchor="middle" x="292.1995" y="-119.5" font-family="Helvetica,sans-Serif" font-size="10.00" fill="#000000">player.h</text>
</a>
</g>
</g>
<!-- Node5&#45;&gt;Node7 -->
<g id="edge8" class="edge">
<title>Node5&#45;&gt;Node7</title>
<path fill="none" stroke="#191970" d="M251.7347,-168.2455C258.6907,-160.2958 268.6878,-148.8706 277.0046,-139.3656"/>
<polygon fill="#191970" stroke="#191970" points="279.8111,-141.4732 283.7622,-131.6427 274.5431,-136.8637 279.8111,-141.4732"/>
</g>
<!-- Node8 -->
<g id="node8" class="node">
<title>Node8</title>
<g id="a_node8"><a xlink:href="highlighter_8h.html" target="_top" xlink:title=" ">
<polygon fill="#ffffff" stroke="#000000" points="286.1995,-56.5 286.1995,-75.5 356.1995,-75.5 356.1995,-56.5 286.1995,-56.5"/>
<text text-anchor="middle" x="321.1995" y="-63.5" font-family="Helvetica,sans-Serif" font-size="10.00" fill="#000000">highlighter.h</text>
</a>
</g>
</g>
<!-- Node7&#45;&gt;Node8 -->
<g id="edge9" class="edge">
<title>Node7&#45;&gt;Node8</title>
<path fill="none" stroke="#191970" d="M297.2509,-112.2455C301.2014,-104.617 306.8092,-93.7881 311.6053,-84.5267"/>
<polygon fill="#191970" stroke="#191970" points="314.7154,-86.1321 316.206,-75.6427 308.4994,-82.9131 314.7154,-86.1321"/>
</g>
<!-- Node9 -->
<g id="node9" class="node">
<title>Node9</title>
<g id="a_node9"><a xlink:title=" ">
<polygon fill="#ffffff" stroke="#bfbfbf" points="300.1995,-.5 300.1995,-19.5 404.1995,-19.5 404.1995,-.5 300.1995,-.5"/>
<text text-anchor="middle" x="352.1995" y="-7.5" font-family="Helvetica,sans-Serif" font-size="10.00" fill="#000000">QGraphicsRectItem</text>
</a>
</g>
</g>
<!-- Node8&#45;&gt;Node9 -->
<g id="edge10" class="edge">
<title>Node8&#45;&gt;Node9</title>
<path fill="none" stroke="#191970" d="M326.5993,-56.2455C330.8222,-48.617 336.8168,-37.7881 341.9436,-28.5267"/>
<polygon fill="#191970" stroke="#191970" points="345.0805,-30.0867 346.8616,-19.6427 338.9563,-26.6965 345.0805,-30.0867"/>
</g>
<!-- Node10&#45;&gt;Node2 -->
<g id="edge12" class="edge">
<title>Node10&#45;&gt;Node2</title>
<path fill="none" stroke="#191970" d="M212.3101,-280.4862C195.6566,-253.5845 147.9992,-176.5994 125.8174,-140.7673"/>
<polygon fill="#191970" stroke="#191970" points="128.523,-138.4883 120.2835,-131.8279 122.5711,-142.1728 128.523,-138.4883"/>
</g>
<!-- Node11 -->
<g id="node11" class="node">
<title>Node11</title>
<g id="a_node11"><a xlink:href="scene_8h.html" target="_top" xlink:title=" ">
<polygon fill="#ffffff" stroke="#000000" points="433.1995,-224.5 433.1995,-243.5 485.1995,-243.5 485.1995,-224.5 433.1995,-224.5"/>
<text text-anchor="middle" x="459.1995" y="-231.5" font-family="Helvetica,sans-Serif" font-size="10.00" fill="#000000">scene.h</text>
</a>
</g>
</g>
<!-- Node10&#45;&gt;Node11 -->
<g id="edge13" class="edge">
<title>Node10&#45;&gt;Node11</title>
<path fill="none" stroke="#191970" d="M249.2127,-282.7936C293.8642,-272.4182 376.0714,-253.3161 423.2961,-242.3427"/>
<polygon fill="#191970" stroke="#191970" points="424.1494,-245.7377 433.0977,-240.0651 422.565,-238.9194 424.1494,-245.7377"/>
</g>
<!-- Node11&#45;&gt;Node5 -->
<g id="edge31" class="edge">
<title>Node11&#45;&gt;Node5</title>
<path fill="none" stroke="#191970" d="M433.1449,-227.2451C397.6477,-218.0421 333.4991,-201.411 289.6579,-190.0448"/>
<polygon fill="#191970" stroke="#191970" points="290.364,-186.6122 279.8056,-187.4905 288.6072,-193.3882 290.364,-186.6122"/>
</g>
<!-- Node11&#45;&gt;Node7 -->
<g id="edge29" class="edge">
<title>Node11&#45;&gt;Node7</title>
<path fill="none" stroke="#191970" d="M433.0525,-229.8441C405.4302,-224.3302 361.85,-212.3085 332.1995,-188 317.1916,-175.696 306.3616,-156.1869 299.7861,-141.5647"/>
<polygon fill="#191970" stroke="#191970" points="302.8494,-139.8195 295.7512,-131.9541 296.3952,-142.5293 302.8494,-139.8195"/>
</g>
<!-- Node11&#45;&gt;Node8 -->
<g id="edge30" class="edge">
<title>Node11&#45;&gt;Node8</title>
<path fill="none" stroke="#191970" d="M433.0813,-226.0801C413.4643,-218.9401 387.1649,-206.661 370.1995,-188 343.1953,-158.2968 330.1683,-111.8243 324.659,-85.6434"/>
<polygon fill="#191970" stroke="#191970" points="328.0842,-84.9212 322.7393,-75.7734 321.213,-86.2577 328.0842,-84.9212"/>
</g>
<!-- Node11&#45;&gt;Node9 -->
<g id="edge17" class="edge">
<title>Node11&#45;&gt;Node9</title>
<path fill="none" stroke="#191970" d="M442.9098,-224.4914C430.3098,-216.3322 413.352,-203.4595 403.1995,-188 402.079,-186.2937 370.6025,-75.1394 357.6684,-29.3686"/>
<polygon fill="#191970" stroke="#191970" points="361.027,-28.3831 354.9403,-19.7112 354.2906,-30.2861 361.027,-28.3831"/>
</g>
<!-- Node12 -->
<g id="node12" class="node">
<title>Node12</title>
<g id="a_node12"><a xlink:title=" ">
<polygon fill="#ffffff" stroke="#bfbfbf" points="412.1995,-168.5 412.1995,-187.5 506.1995,-187.5 506.1995,-168.5 412.1995,-168.5"/>
<text text-anchor="middle" x="459.1995" y="-175.5" font-family="Helvetica,sans-Serif" font-size="10.00" fill="#000000">QGraphicsScene</text>
</a>
</g>
</g>
<!-- Node11&#45;&gt;Node12 -->
<g id="edge14" class="edge">
<title>Node11&#45;&gt;Node12</title>
<path fill="none" stroke="#191970" d="M459.1995,-224.2455C459.1995,-216.9382 459.1995,-206.6944 459.1995,-197.7046"/>
<polygon fill="#191970" stroke="#191970" points="462.6996,-197.6426 459.1995,-187.6427 455.6996,-197.6427 462.6996,-197.6426"/>
</g>
<!-- Node13 -->
<g id="node13" class="node">
<title>Node13</title>
<g id="a_node13"><a xlink:title=" ">
<polygon fill="#ffffff" stroke="#bfbfbf" points="524.1995,-168.5 524.1995,-187.5 628.1995,-187.5 628.1995,-168.5 524.1995,-168.5"/>
<text text-anchor="middle" x="576.1995" y="-175.5" font-family="Helvetica,sans-Serif" font-size="10.00" fill="#000000">QGraphicsTextItem</text>
</a>
</g>
</g>
<!-- Node11&#45;&gt;Node13 -->
<g id="edge15" class="edge">
<title>Node11&#45;&gt;Node13</title>
<path fill="none" stroke="#191970" d="M479.3125,-224.3733C498.0099,-215.4241 526.0739,-201.9917 547.1929,-191.8835"/>
<polygon fill="#191970" stroke="#191970" points="548.84,-194.9755 556.349,-187.5011 545.8179,-188.6614 548.84,-194.9755"/>
</g>
<!-- Node14 -->
<g id="node14" class="node">
<title>Node14</title>
<g id="a_node14"><a xlink:title=" ">
<polygon fill="#ffffff" stroke="#bfbfbf" points="646.6995,-168.5 646.6995,-187.5 729.6995,-187.5 729.6995,-168.5 646.6995,-168.5"/>
<text text-anchor="middle" x="688.1995" y="-175.5" font-family="Helvetica,sans-Serif" font-size="10.00" fill="#000000">QGraphicsItem</text>
</a>
</g>
</g>
<!-- Node11&#45;&gt;Node14 -->
<g id="edge16" class="edge">
<title>Node11&#45;&gt;Node14</title>
<path fill="none" stroke="#191970" d="M485.4687,-227.5761C522.901,-218.4223 592.2553,-201.4623 639.3047,-189.9568"/>
<polygon fill="#191970" stroke="#191970" points="640.3975,-193.2928 649.2799,-187.5175 638.7347,-186.4931 640.3975,-193.2928"/>
</g>
<!-- Node15 -->
<g id="node15" class="node">
<title>Node15</title>
<g id="a_node15"><a xlink:title=" ">
<polygon fill="#ffffff" stroke="#bfbfbf" points="747.6995,-168.5 747.6995,-187.5 860.6995,-187.5 860.6995,-168.5 747.6995,-168.5"/>
<text text-anchor="middle" x="804.1995" y="-175.5" font-family="Helvetica,sans-Serif" font-size="10.00" fill="#000000">QGraphicsEllipseItem</text>
</a>
</g>
</g>
<!-- Node11&#45;&gt;Node15 -->
<g id="edge18" class="edge">
<title>Node11&#45;&gt;Node15</title>
<path fill="none" stroke="#191970" d="M485.4138,-229.7449C538.6123,-221.1098 660.6919,-201.294 737.3975,-188.8432"/>
<polygon fill="#191970" stroke="#191970" points="738.1346,-192.2695 747.4446,-187.2124 737.013,-185.3599 738.1346,-192.2695"/>
</g>
<!-- Node16 -->
<g id="node16" class="node">
<title>Node16</title>
<g id="a_node16"><a xlink:href="maptile_8h.html" target="_top" xlink:title=" ">
<polygon fill="#ffffff" stroke="#000000" points="879.1995,-168.5 879.1995,-187.5 935.1995,-187.5 935.1995,-168.5 879.1995,-168.5"/>
<text text-anchor="middle" x="907.1995" y="-175.5" font-family="Helvetica,sans-Serif" font-size="10.00" fill="#000000">maptile.h</text>
</a>
</g>
</g>
<!-- Node11&#45;&gt;Node16 -->
<g id="edge19" class="edge">
<title>Node11&#45;&gt;Node16</title>
<path fill="none" stroke="#191970" d="M485.3721,-232.4605C549.3471,-228.4036 718.8088,-215.8868 869.1471,-187.9535"/>
<polygon fill="#191970" stroke="#191970" points="869.8426,-191.3841 879.0206,-186.0913 868.5451,-184.5054 869.8426,-191.3841"/>
</g>
<!-- Node20 -->
<g id="node20" class="node">
<title>Node20</title>
<g id="a_node20"><a xlink:href="graphicsmanager_8h.html" target="_top" xlink:title=" ">
<polygon fill="#ffffff" stroke="#000000" points="911.6995,-112.5 911.6995,-131.5 1014.6995,-131.5 1014.6995,-112.5 911.6995,-112.5"/>
<text text-anchor="middle" x="963.1995" y="-119.5" font-family="Helvetica,sans-Serif" font-size="10.00" fill="#000000">graphicsmanager.h</text>
</a>
</g>
</g>
<!-- Node11&#45;&gt;Node20 -->
<g id="edge28" class="edge">
<title>Node11&#45;&gt;Node20</title>
<path fill="none" stroke="#191970" d="M485.4108,-233.2164C581.2156,-230.1238 908.6821,-217.4652 944.1995,-188 957.5088,-176.9586 961.8361,-157.2448 963.0868,-142.2286"/>
<polygon fill="#191970" stroke="#191970" points="966.5989,-142.0268 963.5413,-131.8828 959.6057,-141.7195 966.5989,-142.0268"/>
</g>
<!-- Node17 -->
<g id="node17" class="node">
<title>Node17</title>
<g id="a_node17"><a xlink:title=" ">
<polygon fill="#ffffff" stroke="#bfbfbf" points="719.6995,-112.5 719.6995,-131.5 836.6995,-131.5 836.6995,-112.5 719.6995,-112.5"/>
<text text-anchor="middle" x="778.1995" y="-119.5" font-family="Helvetica,sans-Serif" font-size="10.00" fill="#000000">QGraphicsPixmapItem</text>
</a>
</g>
</g>
<!-- Node16&#45;&gt;Node17 -->
<g id="edge20" class="edge">
<title>Node16&#45;&gt;Node17</title>
<path fill="none" stroke="#191970" d="M885.0236,-168.3733C864.2229,-159.3435 832.9079,-145.7494 809.5537,-135.6111"/>
<polygon fill="#191970" stroke="#191970" points="810.6528,-132.2727 800.086,-131.5011 807.8653,-138.6938 810.6528,-132.2727"/>
</g>
<!-- Node18 -->
<g id="node18" class="node">
<title>Node18</title>
<g id="a_node18"><a xlink:href="city_8h.html" target="_top" xlink:title=" ">
<polygon fill="#ffffff" stroke="#000000" points="854.6995,-112.5 854.6995,-131.5 893.6995,-131.5 893.6995,-112.5 854.6995,-112.5"/>
<text text-anchor="middle" x="874.1995" y="-119.5" font-family="Helvetica,sans-Serif" font-size="10.00" fill="#000000">city.h</text>
</a>
</g>
</g>
<!-- Node16&#45;&gt;Node18 -->
<g id="edge21" class="edge">
<title>Node16&#45;&gt;Node18</title>
<path fill="none" stroke="#191970" d="M901.4514,-168.2455C896.956,-160.617 890.5747,-149.7881 885.1171,-140.5267"/>
<polygon fill="#191970" stroke="#191970" points="887.9742,-138.4811 879.8818,-131.6427 881.9434,-142.035 887.9742,-138.4811"/>
</g>
<!-- Node16&#45;&gt;Node20 -->
<g id="edge24" class="edge">
<title>Node16&#45;&gt;Node20</title>
<path fill="none" stroke="#191970" d="M916.954,-168.2455C925.0643,-160.1352 936.792,-148.4075 946.4076,-138.7919"/>
<polygon fill="#191970" stroke="#191970" points="948.9606,-141.1887 953.5569,-131.6427 944.0109,-136.2389 948.9606,-141.1887"/>
</g>
<!-- Node18&#45;&gt;Node6 -->
<g id="edge22" class="edge">
<title>Node18&#45;&gt;Node6</title>
<path fill="none" stroke="#191970" d="M864.4451,-112.2455C856.3347,-104.1352 844.607,-92.4075 834.9914,-82.7919"/>
<polygon fill="#191970" stroke="#191970" points="837.3882,-80.2389 827.8422,-75.6427 832.4384,-85.1887 837.3882,-80.2389"/>
</g>
<!-- Node19 -->
<g id="node19" class="node">
<title>Node19</title>
<g id="a_node19"><a xlink:title=" ">
<polygon fill="#ffffff" stroke="#bfbfbf" points="857.1995,-56.5 857.1995,-75.5 901.1995,-75.5 901.1995,-56.5 857.1995,-56.5"/>
<text text-anchor="middle" x="879.1995" y="-63.5" font-family="Helvetica,sans-Serif" font-size="10.00" fill="#000000">vector</text>
</a>
</g>
</g>
<!-- Node18&#45;&gt;Node19 -->
<g id="edge23" class="edge">
<title>Node18&#45;&gt;Node19</title>
<path fill="none" stroke="#191970" d="M875.0705,-112.2455C875.7229,-104.9382 876.6375,-94.6944 877.4402,-85.7046"/>
<polygon fill="#191970" stroke="#191970" points="880.9353,-85.9143 878.3386,-75.6427 873.963,-85.2918 880.9353,-85.9143"/>
</g>
<!-- Node20&#45;&gt;Node6 -->
<g id="edge27" class="edge">
<title>Node20&#45;&gt;Node6</title>
<path fill="none" stroke="#191970" d="M938.2731,-112.3733C913.4306,-102.7789 875.2454,-88.0315 848.6285,-77.7519"/>
<polygon fill="#191970" stroke="#191970" points="849.6351,-74.3887 839.0456,-74.0509 847.1131,-80.9187 849.6351,-74.3887"/>
</g>
<!-- Node21 -->
<g id="node21" class="node">
<title>Node21</title>
<g id="a_node21"><a xlink:title=" ">
<polygon fill="#ffffff" stroke="#bfbfbf" points="929.1995,-56.5 929.1995,-75.5 987.1995,-75.5 987.1995,-56.5 929.1995,-56.5"/>
<text text-anchor="middle" x="958.1995" y="-63.5" font-family="Helvetica,sans-Serif" font-size="10.00" fill="#000000">QPixmap</text>
</a>
</g>
</g>
<!-- Node20&#45;&gt;Node21 -->
<g id="edge25" class="edge">
<title>Node20&#45;&gt;Node21</title>
<path fill="none" stroke="#191970" d="M962.3286,-112.2455C961.6762,-104.9382 960.7615,-94.6944 959.9589,-85.7046"/>
<polygon fill="#191970" stroke="#191970" points="963.436,-85.2918 959.0605,-75.6427 956.4638,-85.9143 963.436,-85.2918"/>
</g>
<!-- Node22 -->
<g id="node22" class="node">
<title>Node22</title>
<g id="a_node22"><a xlink:title=" ">
<polygon fill="#ffffff" stroke="#bfbfbf" points="1005.6995,-56.5 1005.6995,-75.5 1058.6995,-75.5 1058.6995,-56.5 1005.6995,-56.5"/>
<text text-anchor="middle" x="1032.1995" y="-63.5" font-family="Helvetica,sans-Serif" font-size="10.00" fill="#000000">QImage</text>
</a>
</g>
</g>
<!-- Node20&#45;&gt;Node22 -->
<g id="edge26" class="edge">
<title>Node20&#45;&gt;Node22</title>
<path fill="none" stroke="#191970" d="M975.2184,-112.2455C985.4094,-103.9746 1000.2357,-91.9416 1012.2102,-82.2232"/>
<polygon fill="#191970" stroke="#191970" points="1014.7594,-84.662 1020.3184,-75.6427 1010.3482,-79.2268 1014.7594,-84.662"/>
</g>
</g>
</svg>
        <g id="navigator" transform="translate(0 0)" fill="#404254">
                <rect fill="#f2f5e9" fill-opacity="0.5" stroke="#606060" stroke-width=".5" x="0" y="0" width="60" height="60"/>
                <use id="zoomplus" xlink:href="#zoomPlus" x="17" y="9" onmousedown="handleZoom(evt,'in')"/>
                <use id="zoomminus" xlink:href="#zoomMin" x="42" y="9" onmousedown="handleZoom(evt,'out')"/>
                <use id="reset" xlink:href="#resetDef" x="30" y="36" onmousedown="handleReset()"/>
                <g id="arrowUp" xlink:href="#dirArrow" transform="translate(30 24)" onmousedown="handlePan(0,-1)">
                  <use xlink:href="#rim" fill="#404040">
                        <set attributeName="fill" to="#808080" begin="arrowUp.mouseover" end="arrowUp.mouseout"/>
                  </use>
                  <path fill="none" stroke="white" stroke-width="1.5" d="M0,-3.0v7 M-2.5,-0.5L0,-3.0L2.5,-0.5"/>
                </g>
                <g id="arrowRight" xlink:href="#dirArrow" transform="rotate(90) translate(36 -43)" onmousedown="handlePan(1,0)">
                  <use xlink:href="#rim" fill="#404040">
                        <set attributeName="fill" to="#808080" begin="arrowRight.mouseover" end="arrowRight.mouseout"/>
                  </use>
                  <path fill="none" stroke="white" stroke-width="1.5" d="M0,-3.0v7 M-2.5,-0.5L0,-3.0L2.5,-0.5"/>
                </g>
                <g id="arrowDown" xlink:href="#dirArrow" transform="rotate(180) translate(-30 -48)" onmousedown="handlePan(0,1)">
                  <use xlink:href="#rim" fill="#404040">
                        <set attributeName="fill" to="#808080" begin="arrowDown.mouseover" end="arrowDown.mouseout"/>
                  </use>
                  <path fill="none" stroke="white" stroke-width="1.5" d="M0,-3.0v7 M-2.5,-0.5L0,-3.0L2.5,-0.5"/>
                </g>
                <g id="arrowLeft" xlink:href="#dirArrow" transform="rotate(270) translate(-36 17)" onmousedown="handlePan(-1,0)">
                  <use xlink:href="#rim" fill="#404040">
                        <set attributeName="fill" to="#808080" begin="arrowLeft.mouseover" end="arrowLeft.mouseout"/>
                  </use>
                  <path fill="none" stroke="white" stroke-width="1.5" d="M0,-3.0v7 M-2.5,-0.5L0,-3.0L2.5,-0.5"/>
                </g>
        </g>
        <svg viewBox="0 0 15 15" width="100%" height="30px" preserveAspectRatio="xMaxYMin meet">
         <g id="arrow_out" transform="scale(0.3 0.3)">
          <a xlink:href="sidepanel_8h__incl_org.svg" target="_base">
           <rect id="button" ry="5" rx="5" y="6" x="6" height="38" width="38"
                fill="#f2f5e9" fill-opacity="0.5" stroke="#606060" stroke-width="1.0"/>
           <path id="arrow"
             d="M 11.500037,31.436501 C 11.940474,20.09759 22.043105,11.32322 32.158766,21.979434 L 37.068811,17.246167 C 37.068811,17.246167 37.088388,32 37.088388,32 L 22.160133,31.978069 C 22.160133,31.978069 26.997745,27.140456 26.997745,27.140456 C 18.528582,18.264221 13.291696,25.230495 11.500037,31.436501 z"
             style="fill:#404040;"/>
          </a>
         </g>
        </svg>
</svg>
