<?xml version="1.0" encoding="UTF-8" standalone="no"?>
<!DOCTYPE svg PUBLIC "-//W3C//DTD SVG 1.1//EN"
 "http://www.w3.org/Graphics/SVG/1.1/DTD/svg11.dtd">
<!-- Generated by graphviz version 2.40.1 (20161225.0304)
 -->
<!-- Title: src/application_server/sidepanel.cpp Pages: 1 -->
<svg width="1451pt" height="487pt"
 viewBox="0.00 0.00 1451.00 487.00" xmlns="http://www.w3.org/2000/svg" xmlns:xlink="http://www.w3.org/1999/xlink">
<g id="graph0" class="graph" transform="scale(1 1) rotate(0) translate(4 483)">
<title>src/application_server/sidepanel.cpp</title>
<polygon fill="#ffffff" stroke="transparent" points="-4,4 -4,-483 1447,-483 1447,4 -4,4"/>
<!-- Node1 -->
<g id="node1" class="node">
<title>Node1</title>
<g id="a_node1"><a xlink:title=" ">
<polygon fill="#bfbfbf" stroke="#000000" points="1237.5,-448.5 1237.5,-478.5 1352.5,-478.5 1352.5,-448.5 1237.5,-448.5"/>
<text text-anchor="start" x="1245.5" y="-466.5" font-family="Helvetica,sans-Serif" font-size="10.00" fill="#000000">src/application_server</text>
<text text-anchor="middle" x="1295" y="-455.5" font-family="Helvetica,sans-Serif" font-size="10.00" fill="#000000">/sidepanel.cpp</text>
</a>
</g>
</g>
<!-- Node2 -->
<g id="node2" class="node">
<title>Node2</title>
<g id="a_node2"><a xlink:href="sidepanel_8h.html" target="_top" xlink:title=" ">
<polygon fill="#ffffff" stroke="#000000" points="906,-392.5 906,-411.5 974,-411.5 974,-392.5 906,-392.5"/>
<text text-anchor="middle" x="940" y="-399.5" font-family="Helvetica,sans-Serif" font-size="10.00" fill="#000000">sidepanel.h</text>
</a>
</g>
</g>
<!-- Node1&#45;&gt;Node2 -->
<g id="edge1" class="edge">
<title>Node1&#45;&gt;Node2</title>
<path fill="none" stroke="#191970" d="M1237.173,-453.4821C1166.4509,-441.2302 1048.2851,-420.7592 984.3423,-409.6818"/>
<polygon fill="#191970" stroke="#191970" points="984.6356,-406.1806 974.1849,-407.9222 983.4407,-413.0779 984.6356,-406.1806"/>
</g>
<!-- Node27 -->
<g id="node27" class="node">
<title>Node27</title>
<g id="a_node27"><a xlink:title=" ">
<polygon fill="#ffffff" stroke="#bfbfbf" points="1086,-168.5 1086,-187.5 1156,-187.5 1156,-168.5 1086,-168.5"/>
<text text-anchor="middle" x="1121" y="-175.5" font-family="Helvetica,sans-Serif" font-size="10.00" fill="#000000">QGroupBox</text>
</a>
</g>
</g>
<!-- Node1&#45;&gt;Node27 -->
<g id="edge42" class="edge">
<title>Node1&#45;&gt;Node27</title>
<path fill="none" stroke="#191970" d="M1287.6225,-448.3212C1277.6228,-426.3136 1261,-384.0127 1261,-346 1261,-346 1261,-346 1261,-290 1261,-238.8513 1203.3152,-207.2194 1162.0012,-191.1236"/>
<polygon fill="#191970" stroke="#191970" points="1163.0114,-187.7649 1152.4187,-187.55 1160.5654,-194.3237 1163.0114,-187.7649"/>
</g>
<!-- Node28 -->
<g id="node28" class="node">
<title>Node28</title>
<g id="a_node28"><a xlink:title=" ">
<polygon fill="#ffffff" stroke="#bfbfbf" points="1289.5,-392.5 1289.5,-411.5 1368.5,-411.5 1368.5,-392.5 1289.5,-392.5"/>
<text text-anchor="middle" x="1329" y="-399.5" font-family="Helvetica,sans-Serif" font-size="10.00" fill="#000000">QVBoxLayout</text>
</a>
</g>
</g>
<!-- Node1&#45;&gt;Node28 -->
<g id="edge43" class="edge">
<title>Node1&#45;&gt;Node28</title>
<path fill="none" stroke="#191970" d="M1303.4045,-448.2977C1308.0257,-439.9388 1313.7969,-429.4997 1318.6889,-420.6509"/>
<polygon fill="#191970" stroke="#191970" points="1321.7809,-422.292 1323.5562,-411.8469 1315.6548,-418.9051 1321.7809,-422.292"/>
</g>
<!-- Node29 -->
<g id="node29" class="node">
<title>Node29</title>
<g id="a_node29"><a xlink:title=" ">
<polygon fill="#ffffff" stroke="#bfbfbf" points="1387,-392.5 1387,-411.5 1443,-411.5 1443,-392.5 1387,-392.5"/>
<text text-anchor="middle" x="1415" y="-399.5" font-family="Helvetica,sans-Serif" font-size="10.00" fill="#000000">QPalette</text>
</a>
</g>
</g>
<!-- Node1&#45;&gt;Node29 -->
<g id="edge44" class="edge">
<title>Node1&#45;&gt;Node29</title>
<path fill="none" stroke="#191970" d="M1324.3553,-448.4554C1343.5873,-438.599 1368.5612,-425.7999 1387.4241,-416.1327"/>
<polygon fill="#191970" stroke="#191970" points="1389.1013,-419.206 1396.4043,-411.5303 1385.9086,-412.9765 1389.1013,-419.206"/>
</g>
<!-- Node3 -->
<g id="node3" class="node">
<title>Node3</title>
<g id="a_node3"><a xlink:title=" ">
<polygon fill="#ffffff" stroke="#bfbfbf" points="1092,-112.5 1092,-131.5 1148,-131.5 1148,-112.5 1092,-112.5"/>
<text text-anchor="middle" x="1120" y="-119.5" font-family="Helvetica,sans-Serif" font-size="10.00" fill="#000000">QWidget</text>
</a>
</g>
</g>
<!-- Node2&#45;&gt;Node3 -->
<g id="edge2" class="edge">
<title>Node2&#45;&gt;Node3</title>
<path fill="none" stroke="#191970" d="M974.1364,-395.9593C1049.4058,-381.6698 1223,-342.9718 1223,-290 1223,-290 1223,-290 1223,-234 1223,-189.4711 1178.3441,-155.0241 1147.8393,-136.6879"/>
<polygon fill="#191970" stroke="#191970" points="1149.3019,-133.4909 1138.8918,-131.5213 1145.8015,-139.5529 1149.3019,-133.4909"/>
</g>
<!-- Node4 -->
<g id="node4" class="node">
<title>Node4</title>
<g id="a_node4"><a xlink:title=" ">
<polygon fill="#ffffff" stroke="#bfbfbf" points="913,-168.5 913,-187.5 987,-187.5 987,-168.5 913,-168.5"/>
<text text-anchor="middle" x="950" y="-175.5" font-family="Helvetica,sans-Serif" font-size="10.00" fill="#000000">QGridLayout</text>
</a>
</g>
</g>
<!-- Node2&#45;&gt;Node4 -->
<g id="edge3" class="edge">
<title>Node2&#45;&gt;Node4</title>
<path fill="none" stroke="#191970" d="M940.4297,-392.375C941.9426,-358.4851 947.0432,-244.2317 949.1146,-197.8332"/>
<polygon fill="#191970" stroke="#191970" points="952.6224,-197.7353 949.5719,-187.5891 945.6293,-197.4231 952.6224,-197.7353"/>
</g>
<!-- Node5 -->
<g id="node5" class="node">
<title>Node5</title>
<g id="a_node5"><a xlink:title=" ">
<polygon fill="#ffffff" stroke="#bfbfbf" points="860.5,-112.5 860.5,-131.5 909.5,-131.5 909.5,-112.5 860.5,-112.5"/>
<text text-anchor="middle" x="885" y="-119.5" font-family="Helvetica,sans-Serif" font-size="10.00" fill="#000000">QLabel</text>
</a>
</g>
</g>
<!-- Node2&#45;&gt;Node5 -->
<g id="edge4" class="edge">
<title>Node2&#45;&gt;Node5</title>
<path fill="none" stroke="#191970" d="M938.1068,-392.3618C930.1899,-352.0577 899.6471,-196.5671 888.8269,-141.4825"/>
<polygon fill="#191970" stroke="#191970" points="892.2472,-140.7355 886.8853,-131.5977 885.3784,-142.0848 892.2472,-140.7355"/>
</g>
<!-- Node6 -->
<g id="node6" class="node">
<title>Node6</title>
<g id="a_node6"><a xlink:href="datamodel_8h.html" target="_top" xlink:title=" ">
<polygon fill="#ffffff" stroke="#000000" points="783.5,-168.5 783.5,-187.5 856.5,-187.5 856.5,-168.5 783.5,-168.5"/>
<text text-anchor="middle" x="820" y="-175.5" font-family="Helvetica,sans-Serif" font-size="10.00" fill="#000000">datamodel.h</text>
</a>
</g>
</g>
<!-- Node2&#45;&gt;Node6 -->
<g id="edge5" class="edge">
<title>Node2&#45;&gt;Node6</title>
<path fill="none" stroke="#191970" d="M910.319,-392.4518C892.5066,-385.2118 870.8768,-373.4786 858,-356 822.4698,-307.7722 818.723,-233.3637 819.171,-197.9945"/>
<polygon fill="#191970" stroke="#191970" points="822.6803,-197.6789 819.4438,-187.5905 815.6828,-197.4953 822.6803,-197.6789"/>
</g>
<!-- Node11 -->
<g id="node11" class="node">
<title>Node11</title>
<g id="a_node11"><a xlink:href="minimap_8h.html" target="_top" xlink:title=" ">
<polygon fill="#ffffff" stroke="#000000" points="953,-336.5 953,-355.5 1015,-355.5 1015,-336.5 953,-336.5"/>
<text text-anchor="middle" x="984" y="-343.5" font-family="Helvetica,sans-Serif" font-size="10.00" fill="#000000">minimap.h</text>
</a>
</g>
</g>
<!-- Node2&#45;&gt;Node11 -->
<g id="edge12" class="edge">
<title>Node2&#45;&gt;Node11</title>
<path fill="none" stroke="#191970" d="M947.6642,-392.2455C953.8473,-384.3761 962.7063,-373.101 970.1289,-363.6542"/>
<polygon fill="#191970" stroke="#191970" points="972.9975,-365.6683 976.4236,-355.6427 967.4932,-361.3435 972.9975,-365.6683"/>
</g>
<!-- Node6&#45;&gt;Node3 -->
<g id="edge8" class="edge">
<title>Node6&#45;&gt;Node3</title>
<path fill="none" stroke="#191970" d="M856.7859,-171.1333C914.0547,-160.4431 1023.9618,-139.9271 1081.9779,-129.0975"/>
<polygon fill="#191970" stroke="#191970" points="1082.6562,-132.5314 1091.8442,-127.2558 1081.3717,-125.6502 1082.6562,-132.5314"/>
</g>
<!-- Node6&#45;&gt;Node5 -->
<g id="edge7" class="edge">
<title>Node6&#45;&gt;Node5</title>
<path fill="none" stroke="#191970" d="M831.3221,-168.2455C840.9223,-159.9746 854.8892,-147.9416 866.1695,-138.2232"/>
<polygon fill="#191970" stroke="#191970" points="868.516,-140.8214 873.8076,-131.6427 863.947,-135.5182 868.516,-140.8214"/>
</g>
<!-- Node7 -->
<g id="node7" class="node">
<title>Node7</title>
<g id="a_node7"><a xlink:title=" ">
<polygon fill="#ffffff" stroke="#bfbfbf" points="290.5,-56.5 290.5,-75.5 331.5,-75.5 331.5,-56.5 290.5,-56.5"/>
<text text-anchor="middle" x="311" y="-63.5" font-family="Helvetica,sans-Serif" font-size="10.00" fill="#000000">string</text>
</a>
</g>
</g>
<!-- Node6&#45;&gt;Node7 -->
<g id="edge6" class="edge">
<title>Node6&#45;&gt;Node7</title>
<path fill="none" stroke="#191970" d="M799.5891,-168.3881C767.8798,-153.8678 704.5414,-126.4993 648,-112 537.6131,-83.6928 402.1399,-71.9229 342.137,-67.8438"/>
<polygon fill="#191970" stroke="#191970" points="342.0417,-64.3302 331.8344,-67.1694 341.5844,-71.3152 342.0417,-64.3302"/>
</g>
<!-- Node8 -->
<g id="node8" class="node">
<title>Node8</title>
<g id="a_node8"><a xlink:href="player_8h.html" target="_top" xlink:title=" ">
<polygon fill="#ffffff" stroke="#000000" points="587,-112.5 587,-131.5 639,-131.5 639,-112.5 587,-112.5"/>
<text text-anchor="middle" x="613" y="-119.5" font-family="Helvetica,sans-Serif" font-size="10.00" fill="#000000">player.h</text>
</a>
</g>
</g>
<!-- Node6&#45;&gt;Node8 -->
<g id="edge9" class="edge">
<title>Node6&#45;&gt;Node8</title>
<path fill="none" stroke="#191970" d="M784.4154,-168.3733C746.6946,-158.1686 687.4258,-142.1345 649.3985,-131.8469"/>
<polygon fill="#191970" stroke="#191970" points="649.8387,-128.3403 639.2717,-129.1073 648.0106,-135.0974 649.8387,-128.3403"/>
</g>
<!-- Node9 -->
<g id="node9" class="node">
<title>Node9</title>
<g id="a_node9"><a xlink:href="highlighter_8h.html" target="_top" xlink:title=" ">
<polygon fill="#ffffff" stroke="#000000" points="569,-56.5 569,-75.5 639,-75.5 639,-56.5 569,-56.5"/>
<text text-anchor="middle" x="604" y="-63.5" font-family="Helvetica,sans-Serif" font-size="10.00" fill="#000000">highlighter.h</text>
</a>
</g>
</g>
<!-- Node8&#45;&gt;Node9 -->
<g id="edge10" class="edge">
<title>Node8&#45;&gt;Node9</title>
<path fill="none" stroke="#191970" d="M611.4323,-112.2455C610.2579,-104.9382 608.6116,-94.6944 607.1668,-85.7046"/>
<polygon fill="#191970" stroke="#191970" points="610.5922,-84.9606 605.5497,-75.6427 603.6809,-86.0714 610.5922,-84.9606"/>
</g>
<!-- Node10 -->
<g id="node10" class="node">
<title>Node10</title>
<g id="a_node10"><a xlink:title=" ">
<polygon fill="#ffffff" stroke="#bfbfbf" points="583,-.5 583,-19.5 687,-19.5 687,-.5 583,-.5"/>
<text text-anchor="middle" x="635" y="-7.5" font-family="Helvetica,sans-Serif" font-size="10.00" fill="#000000">QGraphicsRectItem</text>
</a>
</g>
</g>
<!-- Node9&#45;&gt;Node10 -->
<g id="edge11" class="edge">
<title>Node9&#45;&gt;Node10</title>
<path fill="none" stroke="#191970" d="M609.3998,-56.2455C613.6227,-48.617 619.6173,-37.7881 624.7441,-28.5267"/>
<polygon fill="#191970" stroke="#191970" points="627.881,-30.0867 629.6621,-19.6427 621.7568,-26.6965 627.881,-30.0867"/>
</g>
<!-- Node11&#45;&gt;Node3 -->
<g id="edge13" class="edge">
<title>Node11&#45;&gt;Node3</title>
<path fill="none" stroke="#191970" d="M1015.3145,-338.8557C1058.1491,-327.2116 1133.4072,-299.6287 1166,-244 1171.6122,-234.4212 1179.2247,-202.0106 1165,-168 1160.1154,-156.3211 1150.7386,-145.9687 1141.8033,-138.0567"/>
<polygon fill="#191970" stroke="#191970" points="1143.8048,-135.1707 1133.863,-131.5085 1139.3512,-140.5712 1143.8048,-135.1707"/>
</g>
<!-- Node12 -->
<g id="node12" class="node">
<title>Node12</title>
<g id="a_node12"><a xlink:href="scene_8h.html" target="_top" xlink:title=" ">
<polygon fill="#ffffff" stroke="#000000" points="560,-224.5 560,-243.5 612,-243.5 612,-224.5 560,-224.5"/>
<text text-anchor="middle" x="586" y="-231.5" font-family="Helvetica,sans-Serif" font-size="10.00" fill="#000000">scene.h</text>
</a>
</g>
</g>
<!-- Node11&#45;&gt;Node12 -->
<g id="edge14" class="edge">
<title>Node11&#45;&gt;Node12</title>
<path fill="none" stroke="#191970" d="M952.7696,-337.2115C879.9003,-316.7056 698.9875,-265.7955 621.8099,-244.0772"/>
<polygon fill="#191970" stroke="#191970" points="622.6353,-240.6736 612.0611,-241.3338 620.7391,-247.4118 622.6353,-240.6736"/>
</g>
<!-- Node24 -->
<g id="node24" class="node">
<title>Node24</title>
<g id="a_node24"><a xlink:href="view_8h.html" target="_top" xlink:title=" ">
<polygon fill="#ffffff" stroke="#000000" points="976.5,-280.5 976.5,-299.5 1021.5,-299.5 1021.5,-280.5 976.5,-280.5"/>
<text text-anchor="middle" x="999" y="-287.5" font-family="Helvetica,sans-Serif" font-size="10.00" fill="#000000">view.h</text>
</a>
</g>
</g>
<!-- Node11&#45;&gt;Node24 -->
<g id="edge33" class="edge">
<title>Node11&#45;&gt;Node24</title>
<path fill="none" stroke="#191970" d="M986.6128,-336.2455C988.5916,-328.8579 991.3744,-318.4689 993.8012,-309.4087"/>
<polygon fill="#191970" stroke="#191970" points="997.2105,-310.2078 996.4171,-299.6427 990.4489,-308.3966 997.2105,-310.2078"/>
</g>
<!-- Node12&#45;&gt;Node6 -->
<g id="edge32" class="edge">
<title>Node12&#45;&gt;Node6</title>
<path fill="none" stroke="#191970" d="M612.3879,-227.6849C651.4437,-218.3383 725.2087,-200.6851 773.4729,-189.1347"/>
<polygon fill="#191970" stroke="#191970" points="774.4524,-192.4992 783.3632,-186.7678 772.8231,-185.6914 774.4524,-192.4992"/>
</g>
<!-- Node12&#45;&gt;Node8 -->
<g id="edge30" class="edge">
<title>Node12&#45;&gt;Node8</title>
<path fill="none" stroke="#191970" d="M588.302,-224.4509C592.7256,-206.1013 602.4915,-165.5908 608.3306,-141.3693"/>
<polygon fill="#191970" stroke="#191970" points="611.7627,-142.0667 610.7038,-131.5249 604.9576,-140.4261 611.7627,-142.0667"/>
</g>
<!-- Node12&#45;&gt;Node9 -->
<g id="edge31" class="edge">
<title>Node12&#45;&gt;Node9</title>
<path fill="none" stroke="#191970" d="M583.3077,-224.3096C577.9409,-203.3983 567.3083,-152.6448 578,-112 580.6112,-102.0734 585.9067,-92.0366 591.0412,-83.8822"/>
<polygon fill="#191970" stroke="#191970" points="593.9463,-85.8342 596.6181,-75.5817 588.136,-81.9303 593.9463,-85.8342"/>
</g>
<!-- Node12&#45;&gt;Node10 -->
<g id="edge18" class="edge">
<title>Node12&#45;&gt;Node10</title>
<path fill="none" stroke="#191970" d="M594.3488,-224.4478C608.6821,-207.339 637.4463,-169.718 648,-132 657.1016,-99.4716 652.637,-89.458 648,-56 646.7643,-47.0835 644.2419,-37.4647 641.745,-29.3395"/>
<polygon fill="#191970" stroke="#191970" points="645.0274,-28.1164 638.5876,-19.7033 638.3753,-30.296 645.0274,-28.1164"/>
</g>
<!-- Node13 -->
<g id="node13" class="node">
<title>Node13</title>
<g id="a_node13"><a xlink:title=" ">
<polygon fill="#ffffff" stroke="#bfbfbf" points="671,-168.5 671,-187.5 765,-187.5 765,-168.5 671,-168.5"/>
<text text-anchor="middle" x="718" y="-175.5" font-family="Helvetica,sans-Serif" font-size="10.00" fill="#000000">QGraphicsScene</text>
</a>
</g>
</g>
<!-- Node12&#45;&gt;Node13 -->
<g id="edge15" class="edge">
<title>Node12&#45;&gt;Node13</title>
<path fill="none" stroke="#191970" d="M608.6916,-224.3733C630.0711,-215.3032 662.3057,-201.6279 686.2362,-191.4755"/>
<polygon fill="#191970" stroke="#191970" points="687.7656,-194.6287 695.6045,-187.5011 685.0317,-188.1846 687.7656,-194.6287"/>
</g>
<!-- Node14 -->
<g id="node14" class="node">
<title>Node14</title>
<g id="a_node14"><a xlink:title=" ">
<polygon fill="#ffffff" stroke="#bfbfbf" points="202,-168.5 202,-187.5 306,-187.5 306,-168.5 202,-168.5"/>
<text text-anchor="middle" x="254" y="-175.5" font-family="Helvetica,sans-Serif" font-size="10.00" fill="#000000">QGraphicsTextItem</text>
</a>
</g>
</g>
<!-- Node12&#45;&gt;Node14 -->
<g id="edge16" class="edge">
<title>Node12&#45;&gt;Node14</title>
<path fill="none" stroke="#191970" d="M559.9485,-229.6058C507.8279,-220.8143 389.4439,-200.846 316.1662,-188.4859"/>
<polygon fill="#191970" stroke="#191970" points="316.5803,-185.0063 306.1374,-186.7943 315.416,-191.9088 316.5803,-185.0063"/>
</g>
<!-- Node15 -->
<g id="node15" class="node">
<title>Node15</title>
<g id="a_node15"><a xlink:title=" ">
<polygon fill="#ffffff" stroke="#bfbfbf" points="324.5,-168.5 324.5,-187.5 407.5,-187.5 407.5,-168.5 324.5,-168.5"/>
<text text-anchor="middle" x="366" y="-175.5" font-family="Helvetica,sans-Serif" font-size="10.00" fill="#000000">QGraphicsItem</text>
</a>
</g>
</g>
<!-- Node12&#45;&gt;Node15 -->
<g id="edge17" class="edge">
<title>Node12&#45;&gt;Node15</title>
<path fill="none" stroke="#191970" d="M559.8992,-227.3562C523.8157,-218.1713 458.0776,-201.4379 413.2426,-190.0254"/>
<polygon fill="#191970" stroke="#191970" points="414.0048,-186.6079 403.4505,-187.5328 412.278,-193.3916 414.0048,-186.6079"/>
</g>
<!-- Node16 -->
<g id="node16" class="node">
<title>Node16</title>
<g id="a_node16"><a xlink:title=" ">
<polygon fill="#ffffff" stroke="#bfbfbf" points="425.5,-168.5 425.5,-187.5 538.5,-187.5 538.5,-168.5 425.5,-168.5"/>
<text text-anchor="middle" x="482" y="-175.5" font-family="Helvetica,sans-Serif" font-size="10.00" fill="#000000">QGraphicsEllipseItem</text>
</a>
</g>
</g>
<!-- Node12&#45;&gt;Node16 -->
<g id="edge19" class="edge">
<title>Node12&#45;&gt;Node16</title>
<path fill="none" stroke="#191970" d="M567.8846,-224.2455C551.555,-215.4527 527.329,-202.4079 508.7661,-192.4125"/>
<polygon fill="#191970" stroke="#191970" points="510.3719,-189.3021 499.9078,-187.6427 507.0532,-195.4654 510.3719,-189.3021"/>
</g>
<!-- Node17 -->
<g id="node17" class="node">
<title>Node17</title>
<g id="a_node17"><a xlink:href="maptile_8h.html" target="_top" xlink:title=" ">
<polygon fill="#ffffff" stroke="#000000" points="90,-168.5 90,-187.5 146,-187.5 146,-168.5 90,-168.5"/>
<text text-anchor="middle" x="118" y="-175.5" font-family="Helvetica,sans-Serif" font-size="10.00" fill="#000000">maptile.h</text>
</a>
</g>
</g>
<!-- Node12&#45;&gt;Node17 -->
<g id="edge20" class="edge">
<title>Node12&#45;&gt;Node17</title>
<path fill="none" stroke="#191970" d="M559.9081,-232.334C493.0503,-227.8162 310.2808,-213.8979 160,-188 158.7535,-187.7852 157.4889,-187.5553 156.2138,-187.3131"/>
<polygon fill="#191970" stroke="#191970" points="156.8693,-183.8746 146.3663,-185.2664 155.4448,-190.7282 156.8693,-183.8746"/>
</g>
<!-- Node21 -->
<g id="node21" class="node">
<title>Node21</title>
<g id="a_node21"><a xlink:href="graphicsmanager_8h.html" target="_top" xlink:title=" ">
<polygon fill="#ffffff" stroke="#000000" points="194.5,-112.5 194.5,-131.5 297.5,-131.5 297.5,-112.5 194.5,-112.5"/>
<text text-anchor="middle" x="246" y="-119.5" font-family="Helvetica,sans-Serif" font-size="10.00" fill="#000000">graphicsmanager.h</text>
</a>
</g>
</g>
<!-- Node12&#45;&gt;Node21 -->
<g id="edge29" class="edge">
<title>Node12&#45;&gt;Node21</title>
<path fill="none" stroke="#191970" d="M559.7091,-232.9089C475.6412,-229.1536 217.4302,-215.4565 193,-188 178.0235,-171.1682 199.9938,-150.8256 220.0291,-137.2141"/>
<polygon fill="#191970" stroke="#191970" points="222.1597,-140.0049 228.6706,-131.6467 218.3686,-134.1204 222.1597,-140.0049"/>
</g>
<!-- Node18 -->
<g id="node18" class="node">
<title>Node18</title>
<g id="a_node18"><a xlink:title=" ">
<polygon fill="#ffffff" stroke="#bfbfbf" points="59.5,-112.5 59.5,-131.5 176.5,-131.5 176.5,-112.5 59.5,-112.5"/>
<text text-anchor="middle" x="118" y="-119.5" font-family="Helvetica,sans-Serif" font-size="10.00" fill="#000000">QGraphicsPixmapItem</text>
</a>
</g>
</g>
<!-- Node17&#45;&gt;Node18 -->
<g id="edge21" class="edge">
<title>Node17&#45;&gt;Node18</title>
<path fill="none" stroke="#191970" d="M118,-168.2455C118,-160.9382 118,-150.6944 118,-141.7046"/>
<polygon fill="#191970" stroke="#191970" points="121.5001,-141.6426 118,-131.6427 114.5001,-141.6427 121.5001,-141.6426"/>
</g>
<!-- Node19 -->
<g id="node19" class="node">
<title>Node19</title>
<g id="a_node19"><a xlink:href="city_8h.html" target="_top" xlink:title=" ">
<polygon fill="#ffffff" stroke="#000000" points="2.5,-112.5 2.5,-131.5 41.5,-131.5 41.5,-112.5 2.5,-112.5"/>
<text text-anchor="middle" x="22" y="-119.5" font-family="Helvetica,sans-Serif" font-size="10.00" fill="#000000">city.h</text>
</a>
</g>
</g>
<!-- Node17&#45;&gt;Node19 -->
<g id="edge22" class="edge">
<title>Node17&#45;&gt;Node19</title>
<path fill="none" stroke="#191970" d="M101.2781,-168.2455C86.4111,-159.5731 64.4534,-146.7645 47.4142,-136.825"/>
<polygon fill="#191970" stroke="#191970" points="48.9317,-133.6582 38.5303,-131.6427 45.4045,-139.7047 48.9317,-133.6582"/>
</g>
<!-- Node17&#45;&gt;Node21 -->
<g id="edge25" class="edge">
<title>Node17&#45;&gt;Node21</title>
<path fill="none" stroke="#191970" d="M140.004,-168.3733C160.6435,-159.3435 191.7158,-145.7494 214.8889,-135.6111"/>
<polygon fill="#191970" stroke="#191970" points="216.5245,-138.7159 224.2831,-131.5011 213.7187,-132.3028 216.5245,-138.7159"/>
</g>
<!-- Node19&#45;&gt;Node7 -->
<g id="edge23" class="edge">
<title>Node19&#45;&gt;Node7</title>
<path fill="none" stroke="#191970" d="M41.7419,-114.4292C44.4908,-113.5282 47.2984,-112.6864 50,-112 147.6575,-87.1875 178.1866,-99.6971 280.6631,-75.7008"/>
<polygon fill="#191970" stroke="#191970" points="281.5689,-79.0829 290.4751,-73.3445 279.9343,-72.2764 281.5689,-79.0829"/>
</g>
<!-- Node20 -->
<g id="node20" class="node">
<title>Node20</title>
<g id="a_node20"><a xlink:title=" ">
<polygon fill="#ffffff" stroke="#bfbfbf" points="0,-56.5 0,-75.5 44,-75.5 44,-56.5 0,-56.5"/>
<text text-anchor="middle" x="22" y="-63.5" font-family="Helvetica,sans-Serif" font-size="10.00" fill="#000000">vector</text>
</a>
</g>
</g>
<!-- Node19&#45;&gt;Node20 -->
<g id="edge24" class="edge">
<title>Node19&#45;&gt;Node20</title>
<path fill="none" stroke="#191970" d="M22,-112.2455C22,-104.9382 22,-94.6944 22,-85.7046"/>
<polygon fill="#191970" stroke="#191970" points="25.5001,-85.6426 22,-75.6427 18.5001,-85.6427 25.5001,-85.6426"/>
</g>
<!-- Node21&#45;&gt;Node7 -->
<g id="edge28" class="edge">
<title>Node21&#45;&gt;Node7</title>
<path fill="none" stroke="#191970" d="M257.3221,-112.2455C266.9223,-103.9746 280.8892,-91.9416 292.1695,-82.2232"/>
<polygon fill="#191970" stroke="#191970" points="294.516,-84.8214 299.8076,-75.6427 289.947,-79.5182 294.516,-84.8214"/>
</g>
<!-- Node22 -->
<g id="node22" class="node">
<title>Node22</title>
<g id="a_node22"><a xlink:title=" ">
<polygon fill="#ffffff" stroke="#bfbfbf" points="143,-56.5 143,-75.5 201,-75.5 201,-56.5 143,-56.5"/>
<text text-anchor="middle" x="172" y="-63.5" font-family="Helvetica,sans-Serif" font-size="10.00" fill="#000000">QPixmap</text>
</a>
</g>
</g>
<!-- Node21&#45;&gt;Node22 -->
<g id="edge26" class="edge">
<title>Node21&#45;&gt;Node22</title>
<path fill="none" stroke="#191970" d="M233.1102,-112.2455C222.0746,-103.8943 205.9708,-91.7076 193.0647,-81.9408"/>
<polygon fill="#191970" stroke="#191970" points="194.8283,-78.8862 184.7421,-75.6427 190.6041,-84.4681 194.8283,-78.8862"/>
</g>
<!-- Node23 -->
<g id="node23" class="node">
<title>Node23</title>
<g id="a_node23"><a xlink:title=" ">
<polygon fill="#ffffff" stroke="#bfbfbf" points="219.5,-56.5 219.5,-75.5 272.5,-75.5 272.5,-56.5 219.5,-56.5"/>
<text text-anchor="middle" x="246" y="-63.5" font-family="Helvetica,sans-Serif" font-size="10.00" fill="#000000">QImage</text>
</a>
</g>
</g>
<!-- Node21&#45;&gt;Node23 -->
<g id="edge27" class="edge">
<title>Node21&#45;&gt;Node23</title>
<path fill="none" stroke="#191970" d="M246,-112.2455C246,-104.9382 246,-94.6944 246,-85.7046"/>
<polygon fill="#191970" stroke="#191970" points="249.5001,-85.6426 246,-75.6427 242.5001,-85.6427 249.5001,-85.6426"/>
</g>
<!-- Node24&#45;&gt;Node6 -->
<g id="edge36" class="edge">
<title>Node24&#45;&gt;Node6</title>
<path fill="none" stroke="#191970" d="M983.7386,-280.4509C952.5625,-260.9441 881.3606,-216.3932 843.9586,-192.9909"/>
<polygon fill="#191970" stroke="#191970" points="845.5566,-189.8621 835.2228,-187.5249 841.8436,-195.7962 845.5566,-189.8621"/>
</g>
<!-- Node24&#45;&gt;Node12 -->
<g id="edge35" class="edge">
<title>Node24&#45;&gt;Node12</title>
<path fill="none" stroke="#191970" d="M976.4214,-283.3512C971.6861,-282.1109 966.7021,-280.9182 962,-280 838.5457,-255.8923 689.677,-242.1302 622.2843,-236.7119"/>
<polygon fill="#191970" stroke="#191970" points="622.4288,-233.2125 612.1841,-235.9136 621.8772,-240.1907 622.4288,-233.2125"/>
</g>
<!-- Node25 -->
<g id="node25" class="node">
<title>Node25</title>
<g id="a_node25"><a xlink:title=" ">
<polygon fill="#ffffff" stroke="#bfbfbf" points="1069.5,-224.5 1069.5,-243.5 1156.5,-243.5 1156.5,-224.5 1069.5,-224.5"/>
<text text-anchor="middle" x="1113" y="-231.5" font-family="Helvetica,sans-Serif" font-size="10.00" fill="#000000">QGraphicsView</text>
</a>
</g>
</g>
<!-- Node24&#45;&gt;Node25 -->
<g id="edge34" class="edge">
<title>Node24&#45;&gt;Node25</title>
<path fill="none" stroke="#191970" d="M1018.5973,-280.3733C1036.7331,-271.4644 1063.9135,-258.1127 1084.4587,-248.0203"/>
<polygon fill="#191970" stroke="#191970" points="1086.2261,-251.0517 1093.6584,-243.5011 1083.1397,-244.7688 1086.2261,-251.0517"/>
</g>
<!-- Node26 -->
<g id="node26" class="node">
<title>Node26</title>
<g id="a_node26"><a xlink:href="tooltipmenu_8h.html" target="_top" xlink:title=" ">
<polygon fill="#ffffff" stroke="#000000" points="976.5,-224.5 976.5,-243.5 1051.5,-243.5 1051.5,-224.5 976.5,-224.5"/>
<text text-anchor="middle" x="1014" y="-231.5" font-family="Helvetica,sans-Serif" font-size="10.00" fill="#000000">tooltipmenu.h</text>
</a>
</g>
</g>
<!-- Node24&#45;&gt;Node26 -->
<g id="edge37" class="edge">
<title>Node24&#45;&gt;Node26</title>
<path fill="none" stroke="#191970" d="M1001.6128,-280.2455C1003.5916,-272.8579 1006.3744,-262.4689 1008.8012,-253.4087"/>
<polygon fill="#191970" stroke="#191970" points="1012.2105,-254.2078 1011.4171,-243.6427 1005.4489,-252.3966 1012.2105,-254.2078"/>
</g>
<!-- Node26&#45;&gt;Node3 -->
<g id="edge38" class="edge">
<title>Node26&#45;&gt;Node3</title>
<path fill="none" stroke="#191970" d="M1023.0375,-224.4509C1041.0299,-205.4401 1081.5349,-162.6423 1104.0848,-138.816"/>
<polygon fill="#191970" stroke="#191970" points="1106.6535,-141.1937 1110.9854,-131.5249 1101.5695,-136.382 1106.6535,-141.1937"/>
</g>
<!-- Node26&#45;&gt;Node4 -->
<g id="edge41" class="edge">
<title>Node26&#45;&gt;Node4</title>
<path fill="none" stroke="#191970" d="M1002.8521,-224.2455C993.4913,-216.0549 979.9142,-204.1749 968.8651,-194.5069"/>
<polygon fill="#191970" stroke="#191970" points="970.8508,-191.5937 961.0202,-187.6427 966.2412,-196.8618 970.8508,-191.5937"/>
</g>
<!-- Node26&#45;&gt;Node5 -->
<g id="edge39" class="edge">
<title>Node26&#45;&gt;Node5</title>
<path fill="none" stroke="#191970" d="M1013.9187,-224.2449C1013.2886,-210.1548 1010.1301,-184.0428 996,-168 976.4562,-145.8105 944.5235,-134.0907 919.9137,-128.0495"/>
<polygon fill="#191970" stroke="#191970" points="920.3964,-124.5708 909.8724,-125.7941 918.8622,-131.4006 920.3964,-124.5708"/>
</g>
<!-- Node26&#45;&gt;Node27 -->
<g id="edge40" class="edge">
<title>Node26&#45;&gt;Node27</title>
<path fill="none" stroke="#191970" d="M1032.638,-224.2455C1049.4386,-215.4527 1074.3634,-202.4079 1093.4618,-192.4125"/>
<polygon fill="#191970" stroke="#191970" points="1095.3386,-195.3807 1102.5756,-187.6427 1092.0927,-189.1787 1095.3386,-195.3807"/>
</g>
</g>
</svg>
