<?xml version="1.0" encoding="UTF-8" standalone="no"?>
<!DOCTYPE svg PUBLIC "-//W3C//DTD SVG 1.1//EN"
 "http://www.w3.org/Graphics/SVG/1.1/DTD/svg11.dtd">
<!-- Generated by graphviz version 2.40.1 (20161225.0304)
 -->
<!-- Title: src/application_server/sidepanel.h Pages: 1 -->
<svg width="1295pt" height="431pt"
 viewBox="0.00 0.00 1294.86 431.00" xmlns="http://www.w3.org/2000/svg" xmlns:xlink="http://www.w3.org/1999/xlink">
<g id="graph0" class="graph" transform="scale(1 1) rotate(0) translate(4 427)">
<title>src/application_server/sidepanel.h</title>
<polygon fill="#ffffff" stroke="transparent" points="-4,4 -4,-427 1290.8569,-427 1290.8569,4 -4,4"/>
<!-- Node1 -->
<g id="node1" class="node">
<title>Node1</title>
<g id="a_node1"><a xlink:title=" ">
<polygon fill="#bfbfbf" stroke="#000000" points="1153.3569,-392.5 1153.3569,-422.5 1268.3569,-422.5 1268.3569,-392.5 1153.3569,-392.5"/>
<text text-anchor="start" x="1161.3569" y="-410.5" font-family="Helvetica,sans-Serif" font-size="10.00" fill="#000000">src/application_server</text>
<text text-anchor="middle" x="1210.8569" y="-399.5" font-family="Helvetica,sans-Serif" font-size="10.00" fill="#000000">/sidepanel.h</text>
</a>
</g>
</g>
<!-- Node2 -->
<g id="node2" class="node">
<title>Node2</title>
<g id="a_node2"><a xlink:title=" ">
<polygon fill="#ffffff" stroke="#bfbfbf" points="926.8569,-112.5 926.8569,-131.5 982.8569,-131.5 982.8569,-112.5 926.8569,-112.5"/>
<text text-anchor="middle" x="954.8569" y="-119.5" font-family="Helvetica,sans-Serif" font-size="10.00" fill="#000000">QWidget</text>
</a>
</g>
</g>
<!-- Node1&#45;&gt;Node2 -->
<g id="edge1" class="edge">
<title>Node1&#45;&gt;Node2</title>
<path fill="none" stroke="#191970" d="M1213.2615,-392.3737C1220.4006,-345.2115 1239.2659,-201.9687 1210.8569,-168 1197.039,-151.4778 1061.6225,-134.0324 993.5338,-126.2172"/>
<polygon fill="#191970" stroke="#191970" points="993.5436,-122.6959 983.213,-125.0472 992.7551,-129.6514 993.5436,-122.6959"/>
</g>
<!-- Node3 -->
<g id="node3" class="node">
<title>Node3</title>
<g id="a_node3"><a xlink:title=" ">
<polygon fill="#ffffff" stroke="#bfbfbf" points="1127.8569,-168.5 1127.8569,-187.5 1201.8569,-187.5 1201.8569,-168.5 1127.8569,-168.5"/>
<text text-anchor="middle" x="1164.8569" y="-175.5" font-family="Helvetica,sans-Serif" font-size="10.00" fill="#000000">QGridLayout</text>
</a>
</g>
</g>
<!-- Node1&#45;&gt;Node3 -->
<g id="edge2" class="edge">
<title>Node1&#45;&gt;Node3</title>
<path fill="none" stroke="#191970" d="M1217.1266,-392.455C1222.3632,-377.9995 1228.4408,-355.5327 1224.8569,-336 1215.1939,-283.3349 1188.8195,-225.4684 1174.4685,-196.5764"/>
<polygon fill="#191970" stroke="#191970" points="1177.5764,-194.9663 1169.9409,-187.6213 1171.3294,-198.1248 1177.5764,-194.9663"/>
</g>
<!-- Node4 -->
<g id="node4" class="node">
<title>Node4</title>
<g id="a_node4"><a xlink:title=" ">
<polygon fill="#ffffff" stroke="#bfbfbf" points="1075.3569,-112.5 1075.3569,-131.5 1124.3569,-131.5 1124.3569,-112.5 1075.3569,-112.5"/>
<text text-anchor="middle" x="1099.8569" y="-119.5" font-family="Helvetica,sans-Serif" font-size="10.00" fill="#000000">QLabel</text>
</a>
</g>
</g>
<!-- Node1&#45;&gt;Node4 -->
<g id="edge3" class="edge">
<title>Node1&#45;&gt;Node4</title>
<path fill="none" stroke="#191970" d="M1228.8679,-392.4232C1251.3421,-371.8121 1286.8569,-332.5155 1286.8569,-290 1286.8569,-290 1286.8569,-290 1286.8569,-234 1286.8569,-163.7856 1188.6265,-136.5171 1134.5552,-126.8257"/>
<polygon fill="#191970" stroke="#191970" points="1135.1315,-123.3736 1124.6891,-125.1642 1133.9689,-130.2764 1135.1315,-123.3736"/>
</g>
<!-- Node5 -->
<g id="node5" class="node">
<title>Node5</title>
<g id="a_node5"><a xlink:href="datamodel_8h.html" target="_top" xlink:title=" ">
<polygon fill="#ffffff" stroke="#000000" points="834.3569,-168.5 834.3569,-187.5 907.3569,-187.5 907.3569,-168.5 834.3569,-168.5"/>
<text text-anchor="middle" x="870.8569" y="-175.5" font-family="Helvetica,sans-Serif" font-size="10.00" fill="#000000">datamodel.h</text>
</a>
</g>
</g>
<!-- Node1&#45;&gt;Node5 -->
<g id="edge4" class="edge">
<title>Node1&#45;&gt;Node5</title>
<path fill="none" stroke="#191970" d="M1188.5486,-392.4419C1127.0142,-350.9062 955.3508,-235.0333 893.4629,-193.259"/>
<polygon fill="#191970" stroke="#191970" points="895.4012,-190.3447 885.1546,-187.6509 891.4849,-196.1467 895.4012,-190.3447"/>
</g>
<!-- Node10 -->
<g id="node10" class="node">
<title>Node10</title>
<g id="a_node10"><a xlink:href="minimap_8h.html" target="_top" xlink:title=" ">
<polygon fill="#ffffff" stroke="#000000" points="858.8569,-336.5 858.8569,-355.5 920.8569,-355.5 920.8569,-336.5 858.8569,-336.5"/>
<text text-anchor="middle" x="889.8569" y="-343.5" font-family="Helvetica,sans-Serif" font-size="10.00" fill="#000000">minimap.h</text>
</a>
</g>
</g>
<!-- Node1&#45;&gt;Node10 -->
<g id="edge11" class="edge">
<title>Node1&#45;&gt;Node10</title>
<path fill="none" stroke="#191970" d="M1153.0978,-396.434C1089.0352,-384.1603 987.2987,-364.6687 930.9004,-353.8635"/>
<polygon fill="#191970" stroke="#191970" points="931.3965,-350.3949 920.9166,-351.9507 930.0793,-357.2699 931.3965,-350.3949"/>
</g>
<!-- Node5&#45;&gt;Node2 -->
<g id="edge7" class="edge">
<title>Node5&#45;&gt;Node2</title>
<path fill="none" stroke="#191970" d="M885.4886,-168.2455C898.2563,-159.7337 917.0007,-147.2375 931.7868,-137.3801"/>
<polygon fill="#191970" stroke="#191970" points="934.0138,-140.1019 940.3929,-131.6427 930.1309,-134.2775 934.0138,-140.1019"/>
</g>
<!-- Node5&#45;&gt;Node4 -->
<g id="edge6" class="edge">
<title>Node5&#45;&gt;Node4</title>
<path fill="none" stroke="#191970" d="M907.3959,-169.0647C950.7921,-158.4525 1022.642,-140.8822 1065.1968,-130.4758"/>
<polygon fill="#191970" stroke="#191970" points="1066.2108,-133.8311 1075.0931,-128.0558 1064.5479,-127.0314 1066.2108,-133.8311"/>
</g>
<!-- Node6 -->
<g id="node6" class="node">
<title>Node6</title>
<g id="a_node6"><a xlink:title=" ">
<polygon fill="#ffffff" stroke="#bfbfbf" points="306.3569,-56.5 306.3569,-75.5 347.3569,-75.5 347.3569,-56.5 306.3569,-56.5"/>
<text text-anchor="middle" x="326.8569" y="-63.5" font-family="Helvetica,sans-Serif" font-size="10.00" fill="#000000">string</text>
</a>
</g>
</g>
<!-- Node5&#45;&gt;Node6 -->
<g id="edge5" class="edge">
<title>Node5&#45;&gt;Node6</title>
<path fill="none" stroke="#191970" d="M869.5797,-168.4193C867.0385,-153.55 859.8498,-125.2521 840.8569,-112 754.9116,-52.0327 478.8556,-94.6442 357.8368,-75.5017"/>
<polygon fill="#191970" stroke="#191970" points="358.1213,-71.9966 347.6588,-73.6665 356.879,-78.8855 358.1213,-71.9966"/>
</g>
<!-- Node7 -->
<g id="node7" class="node">
<title>Node7</title>
<g id="a_node7"><a xlink:href="player_8h.html" target="_top" xlink:title=" ">
<polygon fill="#ffffff" stroke="#000000" points="779.8569,-112.5 779.8569,-131.5 831.8569,-131.5 831.8569,-112.5 779.8569,-112.5"/>
<text text-anchor="middle" x="805.8569" y="-119.5" font-family="Helvetica,sans-Serif" font-size="10.00" fill="#000000">player.h</text>
</a>
</g>
</g>
<!-- Node5&#45;&gt;Node7 -->
<g id="edge8" class="edge">
<title>Node5&#45;&gt;Node7</title>
<path fill="none" stroke="#191970" d="M859.5348,-168.2455C849.9346,-159.9746 835.9677,-147.9416 824.6874,-138.2232"/>
<polygon fill="#191970" stroke="#191970" points="826.9099,-135.5182 817.0493,-131.6427 822.3409,-140.8214 826.9099,-135.5182"/>
</g>
<!-- Node8 -->
<g id="node8" class="node">
<title>Node8</title>
<g id="a_node8"><a xlink:href="highlighter_8h.html" target="_top" xlink:title=" ">
<polygon fill="#ffffff" stroke="#000000" points="365.8569,-56.5 365.8569,-75.5 435.8569,-75.5 435.8569,-56.5 365.8569,-56.5"/>
<text text-anchor="middle" x="400.8569" y="-63.5" font-family="Helvetica,sans-Serif" font-size="10.00" fill="#000000">highlighter.h</text>
</a>
</g>
</g>
<!-- Node7&#45;&gt;Node8 -->
<g id="edge9" class="edge">
<title>Node7&#45;&gt;Node8</title>
<path fill="none" stroke="#191970" d="M779.5958,-118.3688C711.9526,-109.0157 531.1185,-84.0115 446.1495,-72.2627"/>
<polygon fill="#191970" stroke="#191970" points="446.4182,-68.7666 436.033,-70.8639 445.4594,-75.7006 446.4182,-68.7666"/>
</g>
<!-- Node9 -->
<g id="node9" class="node">
<title>Node9</title>
<g id="a_node9"><a xlink:title=" ">
<polygon fill="#ffffff" stroke="#bfbfbf" points="142.8569,-.5 142.8569,-19.5 246.8569,-19.5 246.8569,-.5 142.8569,-.5"/>
<text text-anchor="middle" x="194.8569" y="-7.5" font-family="Helvetica,sans-Serif" font-size="10.00" fill="#000000">QGraphicsRectItem</text>
</a>
</g>
</g>
<!-- Node8&#45;&gt;Node9 -->
<g id="edge10" class="edge">
<title>Node8&#45;&gt;Node9</title>
<path fill="none" stroke="#191970" d="M365.4443,-56.3733C330.5964,-46.9001 277.2687,-32.4032 239.5276,-22.1435"/>
<polygon fill="#191970" stroke="#191970" points="240.3754,-18.747 229.8075,-19.5011 238.5391,-25.5019 240.3754,-18.747"/>
</g>
<!-- Node10&#45;&gt;Node2 -->
<g id="edge12" class="edge">
<title>Node10&#45;&gt;Node2</title>
<path fill="none" stroke="#191970" d="M892.6499,-336.375C902.5257,-302.3415 935.9193,-187.262 949.2718,-141.247"/>
<polygon fill="#191970" stroke="#191970" points="952.6488,-142.1684 952.0743,-131.5891 945.9261,-140.2176 952.6488,-142.1684"/>
</g>
<!-- Node11 -->
<g id="node11" class="node">
<title>Node11</title>
<g id="a_node11"><a xlink:href="scene_8h.html" target="_top" xlink:title=" ">
<polygon fill="#ffffff" stroke="#000000" points="509.8569,-224.5 509.8569,-243.5 561.8569,-243.5 561.8569,-224.5 509.8569,-224.5"/>
<text text-anchor="middle" x="535.8569" y="-231.5" font-family="Helvetica,sans-Serif" font-size="10.00" fill="#000000">scene.h</text>
</a>
</g>
</g>
<!-- Node10&#45;&gt;Node11 -->
<g id="edge13" class="edge">
<title>Node10&#45;&gt;Node11</title>
<path fill="none" stroke="#191970" d="M859.6751,-336.4509C794.6546,-315.8795 641.6011,-267.4558 571.7491,-245.3557"/>
<polygon fill="#191970" stroke="#191970" points="572.6571,-241.9721 562.0671,-242.2925 570.5455,-248.646 572.6571,-241.9721"/>
</g>
<!-- Node23 -->
<g id="node23" class="node">
<title>Node23</title>
<g id="a_node23"><a xlink:href="view_8h.html" target="_top" xlink:title=" ">
<polygon fill="#ffffff" stroke="#000000" points="841.3569,-280.5 841.3569,-299.5 886.3569,-299.5 886.3569,-280.5 841.3569,-280.5"/>
<text text-anchor="middle" x="863.8569" y="-287.5" font-family="Helvetica,sans-Serif" font-size="10.00" fill="#000000">view.h</text>
</a>
</g>
</g>
<!-- Node10&#45;&gt;Node23 -->
<g id="edge32" class="edge">
<title>Node10&#45;&gt;Node23</title>
<path fill="none" stroke="#191970" d="M885.3281,-336.2455C881.8235,-328.6973 876.8642,-318.0158 872.5946,-308.8197"/>
<polygon fill="#191970" stroke="#191970" points="875.7196,-307.2389 868.3339,-299.6427 869.3705,-310.1867 875.7196,-307.2389"/>
</g>
<!-- Node11&#45;&gt;Node5 -->
<g id="edge31" class="edge">
<title>Node11&#45;&gt;Node5</title>
<path fill="none" stroke="#191970" d="M562.1395,-230.04C612.3204,-222.4134 725.2107,-204.9393 819.8569,-188 821.3002,-187.7417 822.7657,-187.4759 824.2449,-187.2046"/>
<polygon fill="#191970" stroke="#191970" points="824.929,-190.6374 834.1131,-185.3552 823.6395,-183.7572 824.929,-190.6374"/>
</g>
<!-- Node11&#45;&gt;Node7 -->
<g id="edge29" class="edge">
<title>Node11&#45;&gt;Node7</title>
<path fill="none" stroke="#191970" d="M562.2174,-232.5534C619.5419,-228.8834 753.0319,-217.3321 785.8569,-188 798.805,-176.4297 803.5012,-156.7863 805.1397,-141.9305"/>
<polygon fill="#191970" stroke="#191970" points="808.6479,-141.944 805.8827,-131.7165 801.6663,-141.4362 808.6479,-141.944"/>
</g>
<!-- Node11&#45;&gt;Node8 -->
<g id="edge30" class="edge">
<title>Node11&#45;&gt;Node8</title>
<path fill="none" stroke="#191970" d="M509.5993,-232.4362C457.1953,-228.7097 342.6159,-217.3234 318.8569,-188 289.5085,-151.7781 343.7986,-105.1289 377.3061,-81.3778"/>
<polygon fill="#191970" stroke="#191970" points="379.4678,-84.1387 385.7166,-75.5828 375.4962,-78.3745 379.4678,-84.1387"/>
</g>
<!-- Node11&#45;&gt;Node9 -->
<g id="edge17" class="edge">
<title>Node11&#45;&gt;Node9</title>
<path fill="none" stroke="#191970" d="M509.6175,-233.5061C411.1551,-231.0118 66.372,-216.2913 8.8569,-132 -29.3677,-75.9798 72.3792,-39.4072 140.0474,-21.9626"/>
<polygon fill="#191970" stroke="#191970" points="140.9142,-25.3537 149.7633,-19.5275 139.2124,-18.5637 140.9142,-25.3537"/>
</g>
<!-- Node12 -->
<g id="node12" class="node">
<title>Node12</title>
<g id="a_node12"><a xlink:title=" ">
<polygon fill="#ffffff" stroke="#bfbfbf" points="429.8569,-168.5 429.8569,-187.5 523.8569,-187.5 523.8569,-168.5 429.8569,-168.5"/>
<text text-anchor="middle" x="476.8569" y="-175.5" font-family="Helvetica,sans-Serif" font-size="10.00" fill="#000000">QGraphicsScene</text>
</a>
</g>
</g>
<!-- Node11&#45;&gt;Node12 -->
<g id="edge14" class="edge">
<title>Node11&#45;&gt;Node12</title>
<path fill="none" stroke="#191970" d="M525.5799,-224.2455C517.0351,-216.1352 504.6791,-204.4075 494.5484,-194.7919"/>
<polygon fill="#191970" stroke="#191970" points="496.6788,-191.9884 487.0162,-187.6427 491.8597,-197.0655 496.6788,-191.9884"/>
</g>
<!-- Node13 -->
<g id="node13" class="node">
<title>Node13</title>
<g id="a_node13"><a xlink:title=" ">
<polygon fill="#ffffff" stroke="#bfbfbf" points="541.8569,-168.5 541.8569,-187.5 645.8569,-187.5 645.8569,-168.5 541.8569,-168.5"/>
<text text-anchor="middle" x="593.8569" y="-175.5" font-family="Helvetica,sans-Serif" font-size="10.00" fill="#000000">QGraphicsTextItem</text>
</a>
</g>
</g>
<!-- Node11&#45;&gt;Node13 -->
<g id="edge15" class="edge">
<title>Node11&#45;&gt;Node13</title>
<path fill="none" stroke="#191970" d="M545.9597,-224.2455C554.3597,-216.1352 566.5063,-204.4075 576.4653,-194.7919"/>
<polygon fill="#191970" stroke="#191970" points="579.1069,-197.1066 583.8699,-187.6427 574.2447,-192.0707 579.1069,-197.1066"/>
</g>
<!-- Node14 -->
<g id="node14" class="node">
<title>Node14</title>
<g id="a_node14"><a xlink:title=" ">
<polygon fill="#ffffff" stroke="#bfbfbf" points="328.3569,-168.5 328.3569,-187.5 411.3569,-187.5 411.3569,-168.5 328.3569,-168.5"/>
<text text-anchor="middle" x="369.8569" y="-175.5" font-family="Helvetica,sans-Serif" font-size="10.00" fill="#000000">QGraphicsItem</text>
</a>
</g>
</g>
<!-- Node11&#45;&gt;Node14 -->
<g id="edge16" class="edge">
<title>Node11&#45;&gt;Node14</title>
<path fill="none" stroke="#191970" d="M509.5537,-225.1266C482.166,-215.8874 439.0018,-201.326 407.8997,-190.8337"/>
<polygon fill="#191970" stroke="#191970" points="408.8548,-187.4622 398.2607,-187.582 406.6172,-194.0949 408.8548,-187.4622"/>
</g>
<!-- Node15 -->
<g id="node15" class="node">
<title>Node15</title>
<g id="a_node15"><a xlink:title=" ">
<polygon fill="#ffffff" stroke="#bfbfbf" points="664.3569,-168.5 664.3569,-187.5 777.3569,-187.5 777.3569,-168.5 664.3569,-168.5"/>
<text text-anchor="middle" x="720.8569" y="-175.5" font-family="Helvetica,sans-Serif" font-size="10.00" fill="#000000">QGraphicsEllipseItem</text>
</a>
</g>
</g>
<!-- Node11&#45;&gt;Node15 -->
<g id="edge18" class="edge">
<title>Node11&#45;&gt;Node15</title>
<path fill="none" stroke="#191970" d="M561.9705,-226.0953C592.5603,-216.8357 643.6225,-201.3791 679.5892,-190.4918"/>
<polygon fill="#191970" stroke="#191970" points="680.7468,-193.7984 689.3038,-187.5512 678.7187,-187.0986 680.7468,-193.7984"/>
</g>
<!-- Node16 -->
<g id="node16" class="node">
<title>Node16</title>
<g id="a_node16"><a xlink:href="maptile_8h.html" target="_top" xlink:title=" ">
<polygon fill="#ffffff" stroke="#000000" points="160.8569,-168.5 160.8569,-187.5 216.8569,-187.5 216.8569,-168.5 160.8569,-168.5"/>
<text text-anchor="middle" x="188.8569" y="-175.5" font-family="Helvetica,sans-Serif" font-size="10.00" fill="#000000">maptile.h</text>
</a>
</g>
</g>
<!-- Node11&#45;&gt;Node16 -->
<g id="edge19" class="edge">
<title>Node11&#45;&gt;Node16</title>
<path fill="none" stroke="#191970" d="M509.6351,-229.8973C459.0083,-221.9572 344.2825,-203.8719 247.8569,-188 241.1071,-186.889 233.9265,-185.6879 226.983,-184.5167"/>
<polygon fill="#191970" stroke="#191970" points="227.5018,-181.0548 217.0577,-182.8359 226.333,-187.9565 227.5018,-181.0548"/>
</g>
<!-- Node20 -->
<g id="node20" class="node">
<title>Node20</title>
<g id="a_node20"><a xlink:href="graphicsmanager_8h.html" target="_top" xlink:title=" ">
<polygon fill="#ffffff" stroke="#000000" points="210.3569,-112.5 210.3569,-131.5 313.3569,-131.5 313.3569,-112.5 210.3569,-112.5"/>
<text text-anchor="middle" x="261.8569" y="-119.5" font-family="Helvetica,sans-Serif" font-size="10.00" fill="#000000">graphicsmanager.h</text>
</a>
</g>
</g>
<!-- Node11&#45;&gt;Node20 -->
<g id="edge28" class="edge">
<title>Node11&#45;&gt;Node20</title>
<path fill="none" stroke="#191970" d="M509.6115,-232.421C452.5196,-228.4835 319.4694,-216.4263 285.8569,-188 272.3551,-176.5815 266.4487,-156.9178 263.8652,-142.016"/>
<polygon fill="#191970" stroke="#191970" points="267.2862,-141.1992 262.4664,-131.7642 260.3505,-142.1456 267.2862,-141.1992"/>
</g>
<!-- Node17 -->
<g id="node17" class="node">
<title>Node17</title>
<g id="a_node17"><a xlink:title=" ">
<polygon fill="#ffffff" stroke="#bfbfbf" points="18.3569,-112.5 18.3569,-131.5 135.3569,-131.5 135.3569,-112.5 18.3569,-112.5"/>
<text text-anchor="middle" x="76.8569" y="-119.5" font-family="Helvetica,sans-Serif" font-size="10.00" fill="#000000">QGraphicsPixmapItem</text>
</a>
</g>
</g>
<!-- Node16&#45;&gt;Node17 -->
<g id="edge20" class="edge">
<title>Node16&#45;&gt;Node17</title>
<path fill="none" stroke="#191970" d="M169.6034,-168.3733C151.7858,-159.4644 125.0822,-146.1127 104.8975,-136.0203"/>
<polygon fill="#191970" stroke="#191970" points="106.3687,-132.8428 95.8592,-131.5011 103.2382,-139.1038 106.3687,-132.8428"/>
</g>
<!-- Node18 -->
<g id="node18" class="node">
<title>Node18</title>
<g id="a_node18"><a xlink:href="city_8h.html" target="_top" xlink:title=" ">
<polygon fill="#ffffff" stroke="#000000" points="153.3569,-112.5 153.3569,-131.5 192.3569,-131.5 192.3569,-112.5 153.3569,-112.5"/>
<text text-anchor="middle" x="172.8569" y="-119.5" font-family="Helvetica,sans-Serif" font-size="10.00" fill="#000000">city.h</text>
</a>
</g>
</g>
<!-- Node16&#45;&gt;Node18 -->
<g id="edge21" class="edge">
<title>Node16&#45;&gt;Node18</title>
<path fill="none" stroke="#191970" d="M186.0699,-168.2455C183.9592,-160.8579 180.9909,-150.4689 178.4022,-141.4087"/>
<polygon fill="#191970" stroke="#191970" points="181.7246,-140.2964 175.612,-131.6427 174.9939,-142.2195 181.7246,-140.2964"/>
</g>
<!-- Node16&#45;&gt;Node20 -->
<g id="edge24" class="edge">
<title>Node16&#45;&gt;Node20</title>
<path fill="none" stroke="#191970" d="M201.5725,-168.2455C212.459,-159.8943 228.3452,-147.7076 241.0769,-137.9408"/>
<polygon fill="#191970" stroke="#191970" points="243.483,-140.5063 249.287,-131.6427 239.2223,-134.9523 243.483,-140.5063"/>
</g>
<!-- Node18&#45;&gt;Node6 -->
<g id="edge22" class="edge">
<title>Node18&#45;&gt;Node6</title>
<path fill="none" stroke="#191970" d="M192.3611,-114.9076C218.6527,-105.347 265.7223,-88.2308 296.6208,-76.9949"/>
<polygon fill="#191970" stroke="#191970" points="297.8359,-80.2774 306.0378,-73.5706 295.4437,-73.6988 297.8359,-80.2774"/>
</g>
<!-- Node19 -->
<g id="node19" class="node">
<title>Node19</title>
<g id="a_node19"><a xlink:title=" ">
<polygon fill="#ffffff" stroke="#bfbfbf" points="96.8569,-56.5 96.8569,-75.5 140.8569,-75.5 140.8569,-56.5 96.8569,-56.5"/>
<text text-anchor="middle" x="118.8569" y="-63.5" font-family="Helvetica,sans-Serif" font-size="10.00" fill="#000000">vector</text>
</a>
</g>
</g>
<!-- Node18&#45;&gt;Node19 -->
<g id="edge23" class="edge">
<title>Node18&#45;&gt;Node19</title>
<path fill="none" stroke="#191970" d="M163.4508,-112.2455C155.7076,-104.2155 144.5449,-92.6394 135.3251,-83.0781"/>
<polygon fill="#191970" stroke="#191970" points="137.6161,-80.4117 128.1552,-75.6427 132.5771,-85.2706 137.6161,-80.4117"/>
</g>
<!-- Node20&#45;&gt;Node6 -->
<g id="edge27" class="edge">
<title>Node20&#45;&gt;Node6</title>
<path fill="none" stroke="#191970" d="M273.179,-112.2455C282.7792,-103.9746 296.7461,-91.9416 308.0264,-82.2232"/>
<polygon fill="#191970" stroke="#191970" points="310.3729,-84.8214 315.6645,-75.6427 305.8039,-79.5182 310.3729,-84.8214"/>
</g>
<!-- Node21 -->
<g id="node21" class="node">
<title>Node21</title>
<g id="a_node21"><a xlink:title=" ">
<polygon fill="#ffffff" stroke="#bfbfbf" points="158.8569,-56.5 158.8569,-75.5 216.8569,-75.5 216.8569,-56.5 158.8569,-56.5"/>
<text text-anchor="middle" x="187.8569" y="-63.5" font-family="Helvetica,sans-Serif" font-size="10.00" fill="#000000">QPixmap</text>
</a>
</g>
</g>
<!-- Node20&#45;&gt;Node21 -->
<g id="edge25" class="edge">
<title>Node20&#45;&gt;Node21</title>
<path fill="none" stroke="#191970" d="M248.9671,-112.2455C237.9316,-103.8943 221.8277,-91.7076 208.9216,-81.9408"/>
<polygon fill="#191970" stroke="#191970" points="210.6852,-78.8862 200.599,-75.6427 206.461,-84.4681 210.6852,-78.8862"/>
</g>
<!-- Node22 -->
<g id="node22" class="node">
<title>Node22</title>
<g id="a_node22"><a xlink:title=" ">
<polygon fill="#ffffff" stroke="#bfbfbf" points="235.3569,-56.5 235.3569,-75.5 288.3569,-75.5 288.3569,-56.5 235.3569,-56.5"/>
<text text-anchor="middle" x="261.8569" y="-63.5" font-family="Helvetica,sans-Serif" font-size="10.00" fill="#000000">QImage</text>
</a>
</g>
</g>
<!-- Node20&#45;&gt;Node22 -->
<g id="edge26" class="edge">
<title>Node20&#45;&gt;Node22</title>
<path fill="none" stroke="#191970" d="M261.8569,-112.2455C261.8569,-104.9382 261.8569,-94.6944 261.8569,-85.7046"/>
<polygon fill="#191970" stroke="#191970" points="265.357,-85.6426 261.8569,-75.6427 258.357,-85.6427 265.357,-85.6426"/>
</g>
<!-- Node23&#45;&gt;Node5 -->
<g id="edge35" class="edge">
<title>Node23&#45;&gt;Node5</title>
<path fill="none" stroke="#191970" d="M846.5306,-280.4566C827.1208,-268.413 799.7378,-246.5355 810.8569,-224 817.3363,-210.8681 829.5631,-200.4457 841.2976,-192.8651"/>
<polygon fill="#191970" stroke="#191970" points="843.2813,-195.7572 850.0717,-187.6244 839.6917,-189.7475 843.2813,-195.7572"/>
</g>
<!-- Node23&#45;&gt;Node11 -->
<g id="edge34" class="edge">
<title>Node23&#45;&gt;Node11</title>
<path fill="none" stroke="#191970" d="M841.3121,-286.1509C785.5336,-276.6277 640.6659,-251.8942 572.4258,-240.2435"/>
<polygon fill="#191970" stroke="#191970" points="572.6034,-236.7232 562.157,-238.4903 571.4253,-243.6234 572.6034,-236.7232"/>
</g>
<!-- Node24 -->
<g id="node24" class="node">
<title>Node24</title>
<g id="a_node24"><a xlink:title=" ">
<polygon fill="#ffffff" stroke="#bfbfbf" points="820.3569,-224.5 820.3569,-243.5 907.3569,-243.5 907.3569,-224.5 820.3569,-224.5"/>
<text text-anchor="middle" x="863.8569" y="-231.5" font-family="Helvetica,sans-Serif" font-size="10.00" fill="#000000">QGraphicsView</text>
</a>
</g>
</g>
<!-- Node23&#45;&gt;Node24 -->
<g id="edge33" class="edge">
<title>Node23&#45;&gt;Node24</title>
<path fill="none" stroke="#191970" d="M863.8569,-280.2455C863.8569,-272.9382 863.8569,-262.6944 863.8569,-253.7046"/>
<polygon fill="#191970" stroke="#191970" points="867.357,-253.6426 863.8569,-243.6427 860.357,-253.6427 867.357,-253.6426"/>
</g>
<!-- Node25 -->
<g id="node25" class="node">
<title>Node25</title>
<g id="a_node25"><a xlink:href="tooltipmenu_8h.html" target="_top" xlink:title=" ">
<polygon fill="#ffffff" stroke="#000000" points="1002.3569,-224.5 1002.3569,-243.5 1077.3569,-243.5 1077.3569,-224.5 1002.3569,-224.5"/>
<text text-anchor="middle" x="1039.8569" y="-231.5" font-family="Helvetica,sans-Serif" font-size="10.00" fill="#000000">tooltipmenu.h</text>
</a>
</g>
</g>
<!-- Node23&#45;&gt;Node25 -->
<g id="edge36" class="edge">
<title>Node23&#45;&gt;Node25</title>
<path fill="none" stroke="#191970" d="M886.5055,-282.7936C915.1511,-273.6791 964.9619,-257.8302 1000.0259,-246.6735"/>
<polygon fill="#191970" stroke="#191970" points="1001.476,-249.8851 1009.9441,-243.5177 999.3536,-243.2146 1001.476,-249.8851"/>
</g>
<!-- Node25&#45;&gt;Node2 -->
<g id="edge37" class="edge">
<title>Node25&#45;&gt;Node2</title>
<path fill="none" stroke="#191970" d="M1028.1522,-224.1848C1018.0635,-215.3624 1003.4874,-201.7177 992.8569,-188 981.3867,-173.1988 970.9776,-154.5746 963.966,-140.8874"/>
<polygon fill="#191970" stroke="#191970" points="967.0887,-139.3064 959.4944,-131.9188 960.8242,-142.4299 967.0887,-139.3064"/>
</g>
<!-- Node25&#45;&gt;Node3 -->
<g id="edge40" class="edge">
<title>Node25&#45;&gt;Node3</title>
<path fill="none" stroke="#191970" d="M1061.3452,-224.3733C1081.5009,-215.3435 1111.845,-201.7494 1134.475,-191.6111"/>
<polygon fill="#191970" stroke="#191970" points="1135.954,-194.7838 1143.649,-187.5011 1133.092,-188.3955 1135.954,-194.7838"/>
</g>
<!-- Node25&#45;&gt;Node4 -->
<g id="edge38" class="edge">
<title>Node25&#45;&gt;Node4</title>
<path fill="none" stroke="#191970" d="M1050.7698,-224.4423C1060.0207,-215.785 1073.002,-202.2377 1080.8569,-188 1088.7767,-173.6447 1093.6701,-155.67 1096.5034,-142.1053"/>
<polygon fill="#191970" stroke="#191970" points="1100.0095,-142.3993 1098.4201,-131.9244 1093.1303,-141.1042 1100.0095,-142.3993"/>
</g>
<!-- Node26 -->
<g id="node26" class="node">
<title>Node26</title>
<g id="a_node26"><a xlink:title=" ">
<polygon fill="#ffffff" stroke="#bfbfbf" points="1001.8569,-168.5 1001.8569,-187.5 1071.8569,-187.5 1071.8569,-168.5 1001.8569,-168.5"/>
<text text-anchor="middle" x="1036.8569" y="-175.5" font-family="Helvetica,sans-Serif" font-size="10.00" fill="#000000">QGroupBox</text>
</a>
</g>
</g>
<!-- Node25&#45;&gt;Node26 -->
<g id="edge39" class="edge">
<title>Node25&#45;&gt;Node26</title>
<path fill="none" stroke="#191970" d="M1039.3344,-224.2455C1038.9429,-216.9382 1038.3941,-206.6944 1037.9125,-197.7046"/>
<polygon fill="#191970" stroke="#191970" points="1041.4035,-197.4411 1037.3735,-187.6427 1034.4135,-197.8156 1041.4035,-197.4411"/>
</g>
</g>
</svg>
