<?xml version="1.0" encoding="UTF-8" standalone="no"?>
<!DOCTYPE svg PUBLIC "-//W3C//DTD SVG 1.1//EN"
 "http://www.w3.org/Graphics/SVG/1.1/DTD/svg11.dtd">
<!-- Generated by graphviz version 2.40.1 (20161225.0304)
 -->
<!-- Title: src/application_server/tooltipmenu.h Pages: 1 -->
<svg width="896pt" height="441pt"
 viewBox="0.00 0.00 896.00 441.00" xmlns="http://www.w3.org/2000/svg" xmlns:xlink="http://www.w3.org/1999/xlink">
<g id="graph0" class="graph" transform="scale(1 1) rotate(0) translate(4 437)">
<title>src/application_server/tooltipmenu.h</title>
<polygon fill="#ffffff" stroke="transparent" points="-4,4 -4,-437 892,-437 892,4 -4,4"/>
<!-- Node1 -->
<g id="node1" class="node">
<title>Node1</title>
<g id="a_node1"><a xlink:title=" ">
<polygon fill="#bfbfbf" stroke="#000000" points="687,-402.5 687,-432.5 802,-432.5 802,-402.5 687,-402.5"/>
<text text-anchor="start" x="695" y="-420.5" font-family="Helvetica,sans-Serif" font-size="10.00" fill="#000000">src/application_server</text>
<text text-anchor="middle" x="744.5" y="-409.5" font-family="Helvetica,sans-Serif" font-size="10.00" fill="#000000">/tooltipmenu.h</text>
</a>
</g>
</g>
<!-- Node2 -->
<g id="node2" class="node">
<title>Node2</title>
<g id="a_node2"><a xlink:href="view_8h.html" target="_top" xlink:title=" ">
<polygon fill="#ffffff" stroke="#000000" points="515,-335.5 515,-365.5 630,-365.5 630,-335.5 515,-335.5"/>
<text text-anchor="start" x="523" y="-353.5" font-family="Helvetica,sans-Serif" font-size="10.00" fill="#000000">src/application_server</text>
<text text-anchor="middle" x="572.5" y="-342.5" font-family="Helvetica,sans-Serif" font-size="10.00" fill="#000000">/view.h</text>
</a>
</g>
</g>
<!-- Node1&#45;&gt;Node2 -->
<g id="edge1" class="edge">
<title>Node1&#45;&gt;Node2</title>
<path fill="none" stroke="#191970" d="M696.3078,-398.7275C669.4477,-388.2645 636.4441,-375.4084 611.2685,-365.6017"/>
<polygon fill="#191970" stroke="#191970" points="695.3114,-402.0954 705.8998,-402.4639 697.8522,-395.5728 695.3114,-402.0954"/>
</g>
<!-- Node7 -->
<g id="node7" class="node">
<title>Node7</title>
<g id="a_node7"><a xlink:href="main_8cpp.html" target="_top" xlink:title=" ">
<polygon fill="#ffffff" stroke="#000000" points="296,-.5 296,-30.5 411,-30.5 411,-.5 296,-.5"/>
<text text-anchor="start" x="304" y="-18.5" font-family="Helvetica,sans-Serif" font-size="10.00" fill="#000000">src/application_server</text>
<text text-anchor="middle" x="353.5" y="-7.5" font-family="Helvetica,sans-Serif" font-size="10.00" fill="#000000">/main.cpp</text>
</a>
</g>
</g>
<!-- Node1&#45;&gt;Node7 -->
<g id="edge19" class="edge">
<title>Node1&#45;&gt;Node7</title>
<path fill="none" stroke="#191970" d="M744.5,-392.1092C744.5,-365.1594 744.5,-321.3265 744.5,-283.5 744.5,-283.5 744.5,-283.5 744.5,-149.5 744.5,-79.895 519.9566,-38.8316 411.1934,-23.0242"/>
<polygon fill="#191970" stroke="#191970" points="741.0001,-392.227 744.5,-402.2271 748.0001,-392.2271 741.0001,-392.227"/>
</g>
<!-- Node14 -->
<g id="node14" class="node">
<title>Node14</title>
<g id="a_node14"><a xlink:href="tooltipmenu_8cpp.html" target="_top" xlink:title=" ">
<polygon fill="#ffffff" stroke="#000000" points="773,-335.5 773,-365.5 888,-365.5 888,-335.5 773,-335.5"/>
<text text-anchor="start" x="781" y="-353.5" font-family="Helvetica,sans-Serif" font-size="10.00" fill="#000000">src/application_server</text>
<text text-anchor="middle" x="830.5" y="-342.5" font-family="Helvetica,sans-Serif" font-size="10.00" fill="#000000">/tooltipmenu.cpp</text>
</a>
</g>
</g>
<!-- Node1&#45;&gt;Node14 -->
<g id="edge20" class="edge">
<title>Node1&#45;&gt;Node14</title>
<path fill="none" stroke="#191970" d="M772.0145,-396.0643C784.7304,-386.1577 799.5316,-374.6265 811.0625,-365.6432"/>
<polygon fill="#191970" stroke="#191970" points="769.7523,-393.3899 764.0147,-402.2967 774.0544,-398.9119 769.7523,-393.3899"/>
</g>
<!-- Node3 -->
<g id="node3" class="node">
<title>Node3</title>
<g id="a_node3"><a xlink:href="client_8h.html" target="_top" xlink:title=" ">
<polygon fill="#ffffff" stroke="#000000" points="310,-268.5 310,-298.5 425,-298.5 425,-268.5 310,-268.5"/>
<text text-anchor="start" x="318" y="-286.5" font-family="Helvetica,sans-Serif" font-size="10.00" fill="#000000">src/application_server</text>
<text text-anchor="middle" x="367.5" y="-275.5" font-family="Helvetica,sans-Serif" font-size="10.00" fill="#000000">/client.h</text>
</a>
</g>
</g>
<!-- Node2&#45;&gt;Node3 -->
<g id="edge2" class="edge">
<title>Node2&#45;&gt;Node3</title>
<path fill="none" stroke="#191970" d="M516.7397,-332.2759C484.4311,-321.7165 444.2388,-308.5805 413.7067,-298.6017"/>
<polygon fill="#191970" stroke="#191970" points="515.9014,-335.6841 526.494,-335.4639 518.0761,-329.0304 515.9014,-335.6841"/>
</g>
<!-- Node2&#45;&gt;Node7 -->
<g id="edge17" class="edge">
<title>Node2&#45;&gt;Node7</title>
<path fill="none" stroke="#191970" d="M572.5,-325.1092C572.5,-298.1594 572.5,-254.3265 572.5,-216.5 572.5,-216.5 572.5,-216.5 572.5,-149.5 572.5,-111.8735 579.7623,-93.9452 553.5,-67 533.8548,-46.8439 463.0829,-32.0407 411.2832,-23.6056"/>
<polygon fill="#191970" stroke="#191970" points="569.0001,-325.227 572.5,-335.2271 576.0001,-325.2271 569.0001,-325.227"/>
</g>
<!-- Node10 -->
<g id="node10" class="node">
<title>Node10</title>
<g id="a_node10"><a xlink:href="menubar_8h.html" target="_top" xlink:title=" ">
<polygon fill="#ffffff" stroke="#000000" points="391,-134.5 391,-164.5 506,-164.5 506,-134.5 391,-134.5"/>
<text text-anchor="start" x="399" y="-152.5" font-family="Helvetica,sans-Serif" font-size="10.00" fill="#000000">src/application_server</text>
<text text-anchor="middle" x="448.5" y="-141.5" font-family="Helvetica,sans-Serif" font-size="10.00" fill="#000000">/menubar.h</text>
</a>
</g>
</g>
<!-- Node2&#45;&gt;Node10 -->
<g id="edge16" class="edge">
<title>Node2&#45;&gt;Node10</title>
<path fill="none" stroke="#191970" d="M557.8064,-326.6822C531.9688,-284.8003 479.1159,-199.1274 457.7592,-164.5088"/>
<polygon fill="#191970" stroke="#191970" points="554.9506,-328.7192 563.1798,-335.3923 560.9082,-325.0439 554.9506,-328.7192"/>
</g>
<!-- Node13 -->
<g id="node13" class="node">
<title>Node13</title>
<g id="a_node13"><a xlink:href="view_8cpp.html" target="_top" xlink:title=" ">
<polygon fill="#ffffff" stroke="#000000" points="601,-268.5 601,-298.5 716,-298.5 716,-268.5 601,-268.5"/>
<text text-anchor="start" x="609" y="-286.5" font-family="Helvetica,sans-Serif" font-size="10.00" fill="#000000">src/application_server</text>
<text text-anchor="middle" x="658.5" y="-275.5" font-family="Helvetica,sans-Serif" font-size="10.00" fill="#000000">/view.cpp</text>
</a>
</g>
</g>
<!-- Node2&#45;&gt;Node13 -->
<g id="edge18" class="edge">
<title>Node2&#45;&gt;Node13</title>
<path fill="none" stroke="#191970" d="M600.0145,-329.0643C612.7304,-319.1577 627.5316,-307.6265 639.0625,-298.6432"/>
<polygon fill="#191970" stroke="#191970" points="597.7523,-326.3899 592.0147,-335.2967 602.0544,-331.9119 597.7523,-326.3899"/>
</g>
<!-- Node4 -->
<g id="node4" class="node">
<title>Node4</title>
<g id="a_node4"><a xlink:href="client_8cpp.html" target="_top" xlink:title=" ">
<polygon fill="#ffffff" stroke="#000000" points="266,-201.5 266,-231.5 381,-231.5 381,-201.5 266,-201.5"/>
<text text-anchor="start" x="274" y="-219.5" font-family="Helvetica,sans-Serif" font-size="10.00" fill="#000000">src/application_server</text>
<text text-anchor="middle" x="323.5" y="-208.5" font-family="Helvetica,sans-Serif" font-size="10.00" fill="#000000">/client.cpp</text>
</a>
</g>
</g>
<!-- Node3&#45;&gt;Node4 -->
<g id="edge3" class="edge">
<title>Node3&#45;&gt;Node4</title>
<path fill="none" stroke="#191970" d="M351.9184,-259.7735C345.7728,-250.4154 338.8948,-239.9421 333.4448,-231.6432"/>
<polygon fill="#191970" stroke="#191970" points="349.1008,-261.8592 357.5157,-268.2967 354.9519,-258.0167 349.1008,-261.8592"/>
</g>
<!-- Node5 -->
<g id="node5" class="node">
<title>Node5</title>
<g id="a_node5"><a xlink:href="gameloop_8h.html" target="_top" xlink:title=" ">
<polygon fill="#ffffff" stroke="#000000" points="0,-201.5 0,-231.5 115,-231.5 115,-201.5 0,-201.5"/>
<text text-anchor="start" x="8" y="-219.5" font-family="Helvetica,sans-Serif" font-size="10.00" fill="#000000">src/application_server</text>
<text text-anchor="middle" x="57.5" y="-208.5" font-family="Helvetica,sans-Serif" font-size="10.00" fill="#000000">/gameloop.h</text>
</a>
</g>
</g>
<!-- Node3&#45;&gt;Node5 -->
<g id="edge4" class="edge">
<title>Node3&#45;&gt;Node5</title>
<path fill="none" stroke="#191970" d="M299.8838,-269.6573C250.858,-259.5161 182.9979,-245.2637 123.5,-232 120.7429,-231.3854 117.9226,-230.7497 115.0753,-230.1025"/>
<polygon fill="#191970" stroke="#191970" points="299.2381,-273.0977 309.7395,-271.6931 300.6542,-266.2425 299.2381,-273.0977"/>
</g>
<!-- Node8 -->
<g id="node8" class="node">
<title>Node8</title>
<g id="a_node8"><a xlink:href="main_8h.html" target="_top" xlink:title=" ">
<polygon fill="#ffffff" stroke="#000000" points="296,-67.5 296,-97.5 411,-97.5 411,-67.5 296,-67.5"/>
<text text-anchor="start" x="304" y="-85.5" font-family="Helvetica,sans-Serif" font-size="10.00" fill="#000000">src/application_server</text>
<text text-anchor="middle" x="353.5" y="-74.5" font-family="Helvetica,sans-Serif" font-size="10.00" fill="#000000">/main.h</text>
</a>
</g>
</g>
<!-- Node3&#45;&gt;Node8 -->
<g id="edge7" class="edge">
<title>Node3&#45;&gt;Node8</title>
<path fill="none" stroke="#191970" d="M380.8881,-259.1504C384.7917,-250.7967 388.5339,-241.2238 390.5,-232 393.3723,-218.5249 392.5769,-214.6203 390.5,-201 387.3973,-180.6526 368.3281,-124.7036 358.8446,-97.6038"/>
<polygon fill="#191970" stroke="#191970" points="377.6549,-257.7914 376.3282,-268.3029 383.9203,-260.913 377.6549,-257.7914"/>
</g>
<!-- Node9 -->
<g id="node9" class="node">
<title>Node9</title>
<g id="a_node9"><a xlink:href="routeinterface_8h.html" target="_top" xlink:title=" ">
<polygon fill="#ffffff" stroke="#000000" points="133,-201.5 133,-231.5 248,-231.5 248,-201.5 133,-201.5"/>
<text text-anchor="start" x="141" y="-219.5" font-family="Helvetica,sans-Serif" font-size="10.00" fill="#000000">src/application_server</text>
<text text-anchor="middle" x="190.5" y="-208.5" font-family="Helvetica,sans-Serif" font-size="10.00" fill="#000000">/routeinterface.h</text>
</a>
</g>
</g>
<!-- Node3&#45;&gt;Node9 -->
<g id="edge9" class="edge">
<title>Node3&#45;&gt;Node9</title>
<path fill="none" stroke="#191970" d="M318.2702,-264.865C290.564,-254.3773 256.4165,-241.4515 230.3955,-231.6017"/>
<polygon fill="#191970" stroke="#191970" points="317.1863,-268.197 327.7777,-268.4639 319.6644,-261.6503 317.1863,-268.197"/>
</g>
<!-- Node11 -->
<g id="node11" class="node">
<title>Node11</title>
<g id="a_node11"><a xlink:href="menubar_8cpp.html" target="_top" xlink:title=" ">
<polygon fill="#ffffff" stroke="#000000" points="429,-67.5 429,-97.5 544,-97.5 544,-67.5 429,-67.5"/>
<text text-anchor="start" x="437" y="-85.5" font-family="Helvetica,sans-Serif" font-size="10.00" fill="#000000">src/application_server</text>
<text text-anchor="middle" x="486.5" y="-74.5" font-family="Helvetica,sans-Serif" font-size="10.00" fill="#000000">/menubar.cpp</text>
</a>
</g>
</g>
<!-- Node3&#45;&gt;Node11 -->
<g id="edge15" class="edge">
<title>Node3&#45;&gt;Node11</title>
<path fill="none" stroke="#191970" d="M409.2961,-263.5488C444.8968,-243.9878 493.6506,-210.4844 515.5,-165 526.3469,-142.4198 511.1643,-114.6747 498.9998,-97.8028"/>
<polygon fill="#191970" stroke="#191970" points="407.2711,-260.6621 400.0958,-268.4573 410.5662,-266.8381 407.2711,-260.6621"/>
</g>
<!-- Node6 -->
<g id="node6" class="node">
<title>Node6</title>
<g id="a_node6"><a xlink:href="gameloop_8cpp.html" target="_top" xlink:title=" ">
<polygon fill="#ffffff" stroke="#000000" points="47,-134.5 47,-164.5 162,-164.5 162,-134.5 47,-134.5"/>
<text text-anchor="start" x="55" y="-152.5" font-family="Helvetica,sans-Serif" font-size="10.00" fill="#000000">src/application_server</text>
<text text-anchor="middle" x="104.5" y="-141.5" font-family="Helvetica,sans-Serif" font-size="10.00" fill="#000000">/gameloop.cpp</text>
</a>
</g>
</g>
<!-- Node5&#45;&gt;Node6 -->
<g id="edge5" class="edge">
<title>Node5&#45;&gt;Node6</title>
<path fill="none" stroke="#191970" d="M73.9412,-193.0626C80.557,-183.6315 87.9955,-173.0276 93.8772,-164.6432"/>
<polygon fill="#191970" stroke="#191970" points="71.0426,-191.1001 68.165,-201.2967 76.7732,-195.1201 71.0426,-191.1001"/>
</g>
<!-- Node5&#45;&gt;Node7 -->
<g id="edge6" class="edge">
<title>Node5&#45;&gt;Node7</title>
<path fill="none" stroke="#191970" d="M42.1556,-192.4431C33.0998,-174.8997 25.5299,-151.2729 37.5,-134 67.703,-90.417 213.1633,-49.2257 295.8016,-28.831"/>
<polygon fill="#191970" stroke="#191970" points="39.2815,-194.4736 47.2249,-201.4845 45.3873,-191.0503 39.2815,-194.4736"/>
</g>
<!-- Node8&#45;&gt;Node7 -->
<g id="edge8" class="edge">
<title>Node8&#45;&gt;Node7</title>
<path fill="none" stroke="#191970" d="M353.5,-57.0249C353.5,-48.128 353.5,-38.4287 353.5,-30.6432"/>
<polygon fill="#191970" stroke="#191970" points="350.0001,-57.2966 353.5,-67.2967 357.0001,-57.2967 350.0001,-57.2966"/>
</g>
<!-- Node9&#45;&gt;Node7 -->
<g id="edge13" class="edge">
<title>Node9&#45;&gt;Node7</title>
<path fill="none" stroke="#191970" d="M192.6055,-191.0808C194.9613,-173.9326 199.9484,-151.3545 210.5,-134 239.0598,-87.027 293.0085,-50.0596 325.8589,-30.6062"/>
<polygon fill="#191970" stroke="#191970" points="189.0777,-191.1202 191.4053,-201.4562 196.0313,-191.9246 189.0777,-191.1202"/>
</g>
<!-- Node9&#45;&gt;Node10 -->
<g id="edge10" class="edge">
<title>Node9&#45;&gt;Node10</title>
<path fill="none" stroke="#191970" d="M257.7733,-199.0298C299.0149,-188.3198 351.2701,-174.7496 390.6512,-164.5227"/>
<polygon fill="#191970" stroke="#191970" points="256.8783,-195.646 248.0791,-201.5473 258.6378,-202.4213 256.8783,-195.646"/>
</g>
<!-- Node12 -->
<g id="node12" class="node">
<title>Node12</title>
<g id="a_node12"><a xlink:href="routeinterface_8cpp.html" target="_top" xlink:title=" ">
<polygon fill="#ffffff" stroke="#000000" points="219,-134.5 219,-164.5 334,-164.5 334,-134.5 219,-134.5"/>
<text text-anchor="start" x="227" y="-152.5" font-family="Helvetica,sans-Serif" font-size="10.00" fill="#000000">src/application_server</text>
<text text-anchor="middle" x="276.5" y="-141.5" font-family="Helvetica,sans-Serif" font-size="10.00" fill="#000000">/routeinterface.cpp</text>
</a>
</g>
</g>
<!-- Node9&#45;&gt;Node12 -->
<g id="edge14" class="edge">
<title>Node9&#45;&gt;Node12</title>
<path fill="none" stroke="#191970" d="M218.0145,-195.0643C230.7304,-185.1577 245.5316,-173.6265 257.0625,-164.6432"/>
<polygon fill="#191970" stroke="#191970" points="215.7523,-192.3899 210.0147,-201.2967 220.0544,-197.9119 215.7523,-192.3899"/>
</g>
<!-- Node10&#45;&gt;Node8 -->
<g id="edge11" class="edge">
<title>Node10&#45;&gt;Node8</title>
<path fill="none" stroke="#191970" d="M418.5068,-128.3469C404.3712,-118.3776 387.8305,-106.7121 374.9717,-97.6432"/>
<polygon fill="#191970" stroke="#191970" points="416.7537,-131.3934 426.943,-134.2967 420.7882,-125.6729 416.7537,-131.3934"/>
</g>
<!-- Node10&#45;&gt;Node11 -->
<g id="edge12" class="edge">
<title>Node10&#45;&gt;Node11</title>
<path fill="none" stroke="#191970" d="M462.1212,-125.4837C467.3868,-116.1996 473.253,-105.8565 477.9113,-97.6432"/>
<polygon fill="#191970" stroke="#191970" points="459.0118,-123.8716 457.1228,-134.2967 465.1007,-127.325 459.0118,-123.8716"/>
</g>
</g>
</svg>
