<?xml version="1.0" encoding="UTF-8" standalone="no"?>
<!DOCTYPE svg PUBLIC "-//W3C//DTD SVG 1.1//EN"
 "http://www.w3.org/Graphics/SVG/1.1/DTD/svg11.dtd">
<!-- Generated by graphviz version 2.40.1 (20161225.0304)
 -->
<!-- Title: src/application_server/videowidget.cpp Pages: 1 -->
<svg width="577pt" height="207pt"
 viewBox="0.00 0.00 576.50 207.00" xmlns="http://www.w3.org/2000/svg" xmlns:xlink="http://www.w3.org/1999/xlink">
<g id="graph0" class="graph" transform="scale(1 1) rotate(0) translate(4 203)">
<title>src/application_server/videowidget.cpp</title>
<polygon fill="#ffffff" stroke="transparent" points="-4,4 -4,-203 572.5,-203 572.5,4 -4,4"/>
<!-- Node1 -->
<g id="node1" class="node">
<title>Node1</title>
<g id="a_node1"><a xlink:title=" ">
<polygon fill="#bfbfbf" stroke="#000000" points="224.5,-168.5 224.5,-198.5 339.5,-198.5 339.5,-168.5 224.5,-168.5"/>
<text text-anchor="start" x="232.5" y="-186.5" font-family="Helvetica,sans-Serif" font-size="10.00" fill="#000000">src/application_server</text>
<text text-anchor="middle" x="282" y="-175.5" font-family="Helvetica,sans-Serif" font-size="10.00" fill="#000000">/videowidget.cpp</text>
</a>
</g>
</g>
<!-- Node2 -->
<g id="node2" class="node">
<title>Node2</title>
<g id="a_node2"><a xlink:href="videowidget_8h.html" target="_top" xlink:title=" ">
<polygon fill="#ffffff" stroke="#000000" points="174,-112.5 174,-131.5 254,-131.5 254,-112.5 174,-112.5"/>
<text text-anchor="middle" x="214" y="-119.5" font-family="Helvetica,sans-Serif" font-size="10.00" fill="#000000">videowidget.h</text>
</a>
</g>
</g>
<!-- Node1&#45;&gt;Node2 -->
<g id="edge1" class="edge">
<title>Node1&#45;&gt;Node2</title>
<path fill="none" stroke="#191970" d="M265.191,-168.2977C255.2603,-159.3163 242.6743,-147.9334 232.4673,-138.702"/>
<polygon fill="#191970" stroke="#191970" points="234.652,-135.9588 224.8877,-131.8469 229.9566,-141.1505 234.652,-135.9588"/>
</g>
<!-- Node4 -->
<g id="node4" class="node">
<title>Node4</title>
<g id="a_node4"><a xlink:title=" ">
<polygon fill="#ffffff" stroke="#bfbfbf" points="0,-56.5 0,-75.5 70,-75.5 70,-56.5 0,-56.5"/>
<text text-anchor="middle" x="35" y="-63.5" font-family="Helvetica,sans-Serif" font-size="10.00" fill="#000000">QGroupBox</text>
</a>
</g>
</g>
<!-- Node1&#45;&gt;Node4 -->
<g id="edge11" class="edge">
<title>Node1&#45;&gt;Node4</title>
<path fill="none" stroke="#191970" d="M236.4578,-168.4941C209.6419,-159.1098 175.3378,-146.1433 146,-132 114.3684,-116.7509 79.8928,-95.456 57.8936,-81.2212"/>
<polygon fill="#191970" stroke="#191970" points="59.5601,-78.1293 49.2738,-75.591 55.7321,-83.9899 59.5601,-78.1293"/>
</g>
<!-- Node5 -->
<g id="node5" class="node">
<title>Node5</title>
<g id="a_node5"><a xlink:title=" ">
<polygon fill="#ffffff" stroke="#bfbfbf" points="88.5,-56.5 88.5,-75.5 167.5,-75.5 167.5,-56.5 88.5,-56.5"/>
<text text-anchor="middle" x="128" y="-63.5" font-family="Helvetica,sans-Serif" font-size="10.00" fill="#000000">QHBoxLayout</text>
</a>
</g>
</g>
<!-- Node1&#45;&gt;Node5 -->
<g id="edge12" class="edge">
<title>Node1&#45;&gt;Node5</title>
<path fill="none" stroke="#191970" d="M229.1719,-168.4787C207.4361,-160.3351 183.1553,-148.486 165,-132 150.9141,-119.2092 140.923,-99.7641 134.9024,-85.2893"/>
<polygon fill="#191970" stroke="#191970" points="138.0986,-83.851 131.2184,-75.7941 131.5726,-86.383 138.0986,-83.851"/>
</g>
<!-- Node7 -->
<g id="node7" class="node">
<title>Node7</title>
<g id="a_node7"><a xlink:title=" ">
<polygon fill="#ffffff" stroke="#bfbfbf" points="480,-56.5 480,-75.5 562,-75.5 562,-56.5 480,-56.5"/>
<text text-anchor="middle" x="521" y="-63.5" font-family="Helvetica,sans-Serif" font-size="10.00" fill="#000000">QMediaPlayer</text>
</a>
</g>
</g>
<!-- Node1&#45;&gt;Node7 -->
<g id="edge14" class="edge">
<title>Node1&#45;&gt;Node7</title>
<path fill="none" stroke="#191970" d="M281.6648,-168.3455C282.1716,-152.0669 285.6183,-126.5784 301,-112 302.5542,-110.527 405.4949,-89.43 469.9968,-76.3246"/>
<polygon fill="#191970" stroke="#191970" points="470.8939,-79.714 479.9975,-74.2942 469.501,-72.854 470.8939,-79.714"/>
</g>
<!-- Node12 -->
<g id="node12" class="node">
<title>Node12</title>
<g id="a_node12"><a xlink:title=" ">
<polygon fill="#ffffff" stroke="#bfbfbf" points="310,-112.5 310,-131.5 364,-131.5 364,-112.5 310,-112.5"/>
<text text-anchor="middle" x="337" y="-119.5" font-family="Helvetica,sans-Serif" font-size="10.00" fill="#000000">QDebug</text>
</a>
</g>
</g>
<!-- Node1&#45;&gt;Node12 -->
<g id="edge13" class="edge">
<title>Node1&#45;&gt;Node12</title>
<path fill="none" stroke="#191970" d="M295.5955,-168.2977C303.3891,-159.5831 313.2047,-148.6075 321.3226,-139.5302"/>
<polygon fill="#191970" stroke="#191970" points="324.1365,-141.6341 328.1938,-131.8469 318.9187,-136.9678 324.1365,-141.6341"/>
</g>
<!-- Node13 -->
<g id="node13" class="node">
<title>Node13</title>
<g id="a_node13"><a xlink:title=" ">
<polygon fill="#ffffff" stroke="#bfbfbf" points="382.5,-112.5 382.5,-131.5 465.5,-131.5 465.5,-112.5 382.5,-112.5"/>
<text text-anchor="middle" x="424" y="-119.5" font-family="Helvetica,sans-Serif" font-size="10.00" fill="#000000">QVideoWidget</text>
</a>
</g>
</g>
<!-- Node1&#45;&gt;Node13 -->
<g id="edge15" class="edge">
<title>Node1&#45;&gt;Node13</title>
<path fill="none" stroke="#191970" d="M316.7371,-168.4554C339.9106,-158.419 370.1292,-145.3314 392.5842,-135.6061"/>
<polygon fill="#191970" stroke="#191970" points="394.2097,-138.7164 401.995,-131.5303 391.4277,-132.2929 394.2097,-138.7164"/>
</g>
<!-- Node14 -->
<g id="node14" class="node">
<title>Node14</title>
<g id="a_node14"><a xlink:title=" ">
<polygon fill="#ffffff" stroke="#bfbfbf" points="483.5,-112.5 483.5,-131.5 568.5,-131.5 568.5,-112.5 483.5,-112.5"/>
<text text-anchor="middle" x="526" y="-119.5" font-family="Helvetica,sans-Serif" font-size="10.00" fill="#000000">QMediaPlaylist</text>
</a>
</g>
</g>
<!-- Node1&#45;&gt;Node14 -->
<g id="edge16" class="edge">
<title>Node1&#45;&gt;Node14</title>
<path fill="none" stroke="#191970" d="M339.5156,-169.0032C381.8583,-158.3308 438.7441,-143.9928 478.5113,-133.9695"/>
<polygon fill="#191970" stroke="#191970" points="479.3922,-137.357 488.2335,-131.519 477.6814,-130.5693 479.3922,-137.357"/>
</g>
<!-- Node3 -->
<g id="node3" class="node">
<title>Node3</title>
<g id="a_node3"><a xlink:title=" ">
<polygon fill="#ffffff" stroke="#bfbfbf" points="186,-56.5 186,-75.5 242,-75.5 242,-56.5 186,-56.5"/>
<text text-anchor="middle" x="214" y="-63.5" font-family="Helvetica,sans-Serif" font-size="10.00" fill="#000000">QWidget</text>
</a>
</g>
</g>
<!-- Node2&#45;&gt;Node3 -->
<g id="edge2" class="edge">
<title>Node2&#45;&gt;Node3</title>
<path fill="none" stroke="#191970" d="M214,-112.2455C214,-104.9382 214,-94.6944 214,-85.7046"/>
<polygon fill="#191970" stroke="#191970" points="217.5001,-85.6426 214,-75.6427 210.5001,-85.6427 217.5001,-85.6426"/>
</g>
<!-- Node2&#45;&gt;Node4 -->
<g id="edge3" class="edge">
<title>Node2&#45;&gt;Node4</title>
<path fill="none" stroke="#191970" d="M183.2288,-112.3733C153.335,-103.021 107.7907,-88.7725 75.0783,-78.5385"/>
<polygon fill="#191970" stroke="#191970" points="75.9586,-75.1466 65.3697,-75.5011 73.8685,-81.8273 75.9586,-75.1466"/>
</g>
<!-- Node2&#45;&gt;Node5 -->
<g id="edge4" class="edge">
<title>Node2&#45;&gt;Node5</title>
<path fill="none" stroke="#191970" d="M199.0199,-112.2455C185.8249,-103.6534 166.3949,-91.0014 151.1921,-81.1018"/>
<polygon fill="#191970" stroke="#191970" points="153.0983,-78.1665 142.8084,-75.6427 149.2785,-84.0325 153.0983,-78.1665"/>
</g>
<!-- Node6 -->
<g id="node6" class="node">
<title>Node6</title>
<g id="a_node6"><a xlink:title=" ">
<polygon fill="#ffffff" stroke="#bfbfbf" points="260,-56.5 260,-75.5 340,-75.5 340,-56.5 260,-56.5"/>
<text text-anchor="middle" x="300" y="-63.5" font-family="Helvetica,sans-Serif" font-size="10.00" fill="#000000">QDockWidget</text>
</a>
</g>
</g>
<!-- Node2&#45;&gt;Node6 -->
<g id="edge5" class="edge">
<title>Node2&#45;&gt;Node6</title>
<path fill="none" stroke="#191970" d="M228.9801,-112.2455C242.1751,-103.6534 261.6051,-91.0014 276.8079,-81.1018"/>
<polygon fill="#191970" stroke="#191970" points="278.7215,-84.0325 285.1916,-75.6427 274.9017,-78.1665 278.7215,-84.0325"/>
</g>
<!-- Node2&#45;&gt;Node7 -->
<g id="edge6" class="edge">
<title>Node2&#45;&gt;Node7</title>
<path fill="none" stroke="#191970" d="M254.0983,-114.5394C258.784,-113.6779 263.4969,-112.8162 268,-112 355.0791,-96.216 379.3211,-93.1847 469.9375,-76.1715"/>
<polygon fill="#191970" stroke="#191970" points="470.6338,-79.602 479.8132,-74.3116 469.3381,-72.723 470.6338,-79.602"/>
</g>
<!-- Node8 -->
<g id="node8" class="node">
<title>Node8</title>
<g id="a_node8"><a xlink:href="graphicsmanager_8h.html" target="_top" xlink:title=" ">
<polygon fill="#ffffff" stroke="#000000" points="358.5,-56.5 358.5,-75.5 461.5,-75.5 461.5,-56.5 358.5,-56.5"/>
<text text-anchor="middle" x="410" y="-63.5" font-family="Helvetica,sans-Serif" font-size="10.00" fill="#000000">graphicsmanager.h</text>
</a>
</g>
</g>
<!-- Node2&#45;&gt;Node8 -->
<g id="edge7" class="edge">
<title>Node2&#45;&gt;Node8</title>
<path fill="none" stroke="#191970" d="M247.6936,-112.3733C280.7087,-102.9404 331.1573,-88.5265 367.0386,-78.2747"/>
<polygon fill="#191970" stroke="#191970" points="368.0924,-81.6137 376.7461,-75.5011 366.1693,-74.8831 368.0924,-81.6137"/>
</g>
<!-- Node9 -->
<g id="node9" class="node">
<title>Node9</title>
<g id="a_node9"><a xlink:title=" ">
<polygon fill="#ffffff" stroke="#bfbfbf" points="307,-.5 307,-19.5 365,-19.5 365,-.5 307,-.5"/>
<text text-anchor="middle" x="336" y="-7.5" font-family="Helvetica,sans-Serif" font-size="10.00" fill="#000000">QPixmap</text>
</a>
</g>
</g>
<!-- Node8&#45;&gt;Node9 -->
<g id="edge8" class="edge">
<title>Node8&#45;&gt;Node9</title>
<path fill="none" stroke="#191970" d="M397.1102,-56.2455C386.0746,-47.8943 369.9708,-35.7076 357.0647,-25.9408"/>
<polygon fill="#191970" stroke="#191970" points="358.8283,-22.8862 348.7421,-19.6427 354.6041,-28.4681 358.8283,-22.8862"/>
</g>
<!-- Node10 -->
<g id="node10" class="node">
<title>Node10</title>
<g id="a_node10"><a xlink:title=" ">
<polygon fill="#ffffff" stroke="#bfbfbf" points="383.5,-.5 383.5,-19.5 436.5,-19.5 436.5,-.5 383.5,-.5"/>
<text text-anchor="middle" x="410" y="-7.5" font-family="Helvetica,sans-Serif" font-size="10.00" fill="#000000">QImage</text>
</a>
</g>
</g>
<!-- Node8&#45;&gt;Node10 -->
<g id="edge9" class="edge">
<title>Node8&#45;&gt;Node10</title>
<path fill="none" stroke="#191970" d="M410,-56.2455C410,-48.9382 410,-38.6944 410,-29.7046"/>
<polygon fill="#191970" stroke="#191970" points="413.5001,-29.6426 410,-19.6427 406.5001,-29.6427 413.5001,-29.6426"/>
</g>
<!-- Node11 -->
<g id="node11" class="node">
<title>Node11</title>
<g id="a_node11"><a xlink:title=" ">
<polygon fill="#ffffff" stroke="#bfbfbf" points="454.5,-.5 454.5,-19.5 495.5,-19.5 495.5,-.5 454.5,-.5"/>
<text text-anchor="middle" x="475" y="-7.5" font-family="Helvetica,sans-Serif" font-size="10.00" fill="#000000">string</text>
</a>
</g>
</g>
<!-- Node8&#45;&gt;Node11 -->
<g id="edge10" class="edge">
<title>Node8&#45;&gt;Node11</title>
<path fill="none" stroke="#191970" d="M421.3221,-56.2455C430.9223,-47.9746 444.8892,-35.9416 456.1695,-26.2232"/>
<polygon fill="#191970" stroke="#191970" points="458.516,-28.8214 463.8076,-19.6427 453.947,-23.5182 458.516,-28.8214"/>
</g>
</g>
</svg>
