<?xml version="1.0" encoding="UTF-8" standalone="no"?>
<!DOCTYPE svg PUBLIC "-//W3C//DTD SVG 1.1//EN"
 "http://www.w3.org/Graphics/SVG/1.1/DTD/svg11.dtd">
<!-- Generated by graphviz version 2.40.1 (20161225.0304)
 -->
<!-- Title: src/application_server/view.h Pages: 1 -->
<svg width="1185pt" height="319pt"
 viewBox="0.00 0.00 1185.00 319.00" xmlns="http://www.w3.org/2000/svg" xmlns:xlink="http://www.w3.org/1999/xlink">
<g id="graph0" class="graph" transform="scale(1 1) rotate(0) translate(4 315)">
<title>src/application_server/view.h</title>
<polygon fill="#ffffff" stroke="transparent" points="-4,4 -4,-315 1181,-315 1181,4 -4,4"/>
<!-- Node1 -->
<g id="node1" class="node">
<title>Node1</title>
<g id="a_node1"><a xlink:title=" ">
<polygon fill="#bfbfbf" stroke="#000000" points="555.5,-280.5 555.5,-310.5 670.5,-310.5 670.5,-280.5 555.5,-280.5"/>
<text text-anchor="start" x="563.5" y="-298.5" font-family="Helvetica,sans-Serif" font-size="10.00" fill="#000000">src/application_server</text>
<text text-anchor="middle" x="613" y="-287.5" font-family="Helvetica,sans-Serif" font-size="10.00" fill="#000000">/view.h</text>
</a>
</g>
</g>
<!-- Node2 -->
<g id="node2" class="node">
<title>Node2</title>
<g id="a_node2"><a xlink:title=" ">
<polygon fill="#ffffff" stroke="#bfbfbf" points="377.5,-224.5 377.5,-243.5 464.5,-243.5 464.5,-224.5 377.5,-224.5"/>
<text text-anchor="middle" x="421" y="-231.5" font-family="Helvetica,sans-Serif" font-size="10.00" fill="#000000">QGraphicsView</text>
</a>
</g>
</g>
<!-- Node1&#45;&gt;Node2 -->
<g id="edge1" class="edge">
<title>Node1&#45;&gt;Node2</title>
<path fill="none" stroke="#191970" d="M566.0315,-280.4554C533.7148,-270.104 491.2649,-256.5067 460.6501,-246.7004"/>
<polygon fill="#191970" stroke="#191970" points="461.3443,-243.2477 450.7532,-243.5303 459.2089,-249.914 461.3443,-243.2477"/>
</g>
<!-- Node3 -->
<g id="node3" class="node">
<title>Node3</title>
<g id="a_node3"><a xlink:href="scene_8h.html" target="_top" xlink:title=" ">
<polygon fill="#ffffff" stroke="#000000" points="483,-224.5 483,-243.5 535,-243.5 535,-224.5 483,-224.5"/>
<text text-anchor="middle" x="509" y="-231.5" font-family="Helvetica,sans-Serif" font-size="10.00" fill="#000000">scene.h</text>
</a>
</g>
</g>
<!-- Node1&#45;&gt;Node3 -->
<g id="edge2" class="edge">
<title>Node1&#45;&gt;Node3</title>
<path fill="none" stroke="#191970" d="M587.5587,-280.4554C571.2716,-270.8241 550.2327,-258.3828 534.027,-248.7996"/>
<polygon fill="#191970" stroke="#191970" points="535.5055,-245.6078 525.1163,-243.5303 531.9424,-251.6331 535.5055,-245.6078"/>
</g>
<!-- Node18 -->
<g id="node18" class="node">
<title>Node18</title>
<g id="a_node18"><a xlink:href="datamodel_8h.html" target="_top" xlink:title=" ">
<polygon fill="#ffffff" stroke="#000000" points="778.5,-168.5 778.5,-187.5 851.5,-187.5 851.5,-168.5 778.5,-168.5"/>
<text text-anchor="middle" x="815" y="-175.5" font-family="Helvetica,sans-Serif" font-size="10.00" fill="#000000">datamodel.h</text>
</a>
</g>
</g>
<!-- Node1&#45;&gt;Node18 -->
<g id="edge31" class="edge">
<title>Node1&#45;&gt;Node18</title>
<path fill="none" stroke="#191970" d="M638.9944,-280.3795C677.8943,-257.7521 750.8009,-215.3435 789.4436,-192.8657"/>
<polygon fill="#191970" stroke="#191970" points="791.6041,-195.6581 798.4882,-187.6046 788.0844,-189.6073 791.6041,-195.6581"/>
</g>
<!-- Node26 -->
<g id="node26" class="node">
<title>Node26</title>
<g id="a_node26"><a xlink:href="tooltipmenu_8h.html" target="_top" xlink:title=" ">
<polygon fill="#ffffff" stroke="#000000" points="931.5,-168.5 931.5,-187.5 1006.5,-187.5 1006.5,-168.5 931.5,-168.5"/>
<text text-anchor="middle" x="969" y="-175.5" font-family="Helvetica,sans-Serif" font-size="10.00" fill="#000000">tooltipmenu.h</text>
</a>
</g>
</g>
<!-- Node1&#45;&gt;Node26 -->
<g id="edge32" class="edge">
<title>Node1&#45;&gt;Node26</title>
<path fill="none" stroke="#191970" d="M658.4492,-280.4992C729.054,-257.1957 863.8491,-212.7057 930.1762,-190.814"/>
<polygon fill="#191970" stroke="#191970" points="931.4325,-194.0852 939.8316,-187.6272 929.2385,-187.4379 931.4325,-194.0852"/>
</g>
<!-- Node4 -->
<g id="node4" class="node">
<title>Node4</title>
<g id="a_node4"><a xlink:title=" ">
<polygon fill="#ffffff" stroke="#bfbfbf" points="404,-168.5 404,-187.5 498,-187.5 498,-168.5 404,-168.5"/>
<text text-anchor="middle" x="451" y="-175.5" font-family="Helvetica,sans-Serif" font-size="10.00" fill="#000000">QGraphicsScene</text>
</a>
</g>
</g>
<!-- Node3&#45;&gt;Node4 -->
<g id="edge3" class="edge">
<title>Node3&#45;&gt;Node4</title>
<path fill="none" stroke="#191970" d="M498.8972,-224.2455C490.4972,-216.1352 478.3506,-204.4075 468.3916,-194.7919"/>
<polygon fill="#191970" stroke="#191970" points="470.6122,-192.0707 460.9871,-187.6427 465.75,-197.1066 470.6122,-192.0707"/>
</g>
<!-- Node5 -->
<g id="node5" class="node">
<title>Node5</title>
<g id="a_node5"><a xlink:title=" ">
<polygon fill="#ffffff" stroke="#bfbfbf" points="516,-168.5 516,-187.5 620,-187.5 620,-168.5 516,-168.5"/>
<text text-anchor="middle" x="568" y="-175.5" font-family="Helvetica,sans-Serif" font-size="10.00" fill="#000000">QGraphicsTextItem</text>
</a>
</g>
</g>
<!-- Node3&#45;&gt;Node5 -->
<g id="edge4" class="edge">
<title>Node3&#45;&gt;Node5</title>
<path fill="none" stroke="#191970" d="M519.277,-224.2455C527.8218,-216.1352 540.1778,-204.4075 550.3085,-194.7919"/>
<polygon fill="#191970" stroke="#191970" points="552.9972,-197.0655 557.8408,-187.6427 548.1782,-191.9884 552.9972,-197.0655"/>
</g>
<!-- Node6 -->
<g id="node6" class="node">
<title>Node6</title>
<g id="a_node6"><a xlink:title=" ">
<polygon fill="#ffffff" stroke="#bfbfbf" points="638.5,-168.5 638.5,-187.5 721.5,-187.5 721.5,-168.5 638.5,-168.5"/>
<text text-anchor="middle" x="680" y="-175.5" font-family="Helvetica,sans-Serif" font-size="10.00" fill="#000000">QGraphicsItem</text>
</a>
</g>
</g>
<!-- Node3&#45;&gt;Node6 -->
<g id="edge5" class="edge">
<title>Node3&#45;&gt;Node6</title>
<path fill="none" stroke="#191970" d="M535.344,-225.3727C563.6165,-216.1139 608.8156,-201.3118 641.1655,-190.7177"/>
<polygon fill="#191970" stroke="#191970" points="642.3456,-194.0142 650.7597,-187.5758 640.167,-187.3619 642.3456,-194.0142"/>
</g>
<!-- Node7 -->
<g id="node7" class="node">
<title>Node7</title>
<g id="a_node7"><a xlink:title=" ">
<polygon fill="#ffffff" stroke="#bfbfbf" points="317,-.5 317,-19.5 421,-19.5 421,-.5 317,-.5"/>
<text text-anchor="middle" x="369" y="-7.5" font-family="Helvetica,sans-Serif" font-size="10.00" fill="#000000">QGraphicsRectItem</text>
</a>
</g>
</g>
<!-- Node3&#45;&gt;Node7 -->
<g id="edge6" class="edge">
<title>Node3&#45;&gt;Node7</title>
<path fill="none" stroke="#191970" d="M482.9491,-225.9524C448.1008,-214.9682 389.8675,-195.7605 383,-188 343.3742,-143.2216 349.3915,-115.3078 357,-56 358.1391,-47.1204 360.4673,-37.5073 362.7723,-29.3763"/>
<polygon fill="#191970" stroke="#191970" points="366.1457,-30.3125 365.6873,-19.7276 359.4448,-28.2881 366.1457,-30.3125"/>
</g>
<!-- Node8 -->
<g id="node8" class="node">
<title>Node8</title>
<g id="a_node8"><a xlink:title=" ">
<polygon fill="#ffffff" stroke="#bfbfbf" points="84.5,-168.5 84.5,-187.5 197.5,-187.5 197.5,-168.5 84.5,-168.5"/>
<text text-anchor="middle" x="141" y="-175.5" font-family="Helvetica,sans-Serif" font-size="10.00" fill="#000000">QGraphicsEllipseItem</text>
</a>
</g>
</g>
<!-- Node3&#45;&gt;Node8 -->
<g id="edge7" class="edge">
<title>Node3&#45;&gt;Node8</title>
<path fill="none" stroke="#191970" d="M482.7531,-226.2718C479.4848,-225.439 476.1761,-224.6571 473,-224 358.33,-200.2766 327.977,-204.1658 212,-188 210.5359,-187.7959 209.0549,-187.5893 207.5617,-187.3807"/>
<polygon fill="#191970" stroke="#191970" points="207.9678,-183.9035 197.5792,-185.9838 206.9976,-190.836 207.9678,-183.9035"/>
</g>
<!-- Node9 -->
<g id="node9" class="node">
<title>Node9</title>
<g id="a_node9"><a xlink:href="maptile_8h.html" target="_top" xlink:title=" ">
<polygon fill="#ffffff" stroke="#000000" points="254,-168.5 254,-187.5 310,-187.5 310,-168.5 254,-168.5"/>
<text text-anchor="middle" x="282" y="-175.5" font-family="Helvetica,sans-Serif" font-size="10.00" fill="#000000">maptile.h</text>
</a>
</g>
</g>
<!-- Node3&#45;&gt;Node9 -->
<g id="edge8" class="edge">
<title>Node3&#45;&gt;Node9</title>
<path fill="none" stroke="#191970" d="M482.6822,-226.5764C479.426,-225.6913 476.1396,-224.8139 473,-224 458.2586,-220.1787 371.1275,-199.3014 319.7839,-187.0255"/>
<polygon fill="#191970" stroke="#191970" points="320.5642,-183.6134 310.0244,-184.6926 318.9367,-190.4216 320.5642,-183.6134"/>
</g>
<!-- Node13 -->
<g id="node13" class="node">
<title>Node13</title>
<g id="a_node13"><a xlink:href="graphicsmanager_8h.html" target="_top" xlink:title=" ">
<polygon fill="#ffffff" stroke="#000000" points="14.5,-112.5 14.5,-131.5 117.5,-131.5 117.5,-112.5 14.5,-112.5"/>
<text text-anchor="middle" x="66" y="-119.5" font-family="Helvetica,sans-Serif" font-size="10.00" fill="#000000">graphicsmanager.h</text>
</a>
</g>
</g>
<!-- Node3&#45;&gt;Node13 -->
<g id="edge16" class="edge">
<title>Node3&#45;&gt;Node13</title>
<path fill="none" stroke="#191970" d="M482.7404,-226.332C479.4742,-225.4888 476.1695,-224.6881 473,-224 372.7465,-202.2358 342.5338,-219.8058 245,-188 226.4802,-181.9607 223.9747,-175.5077 206,-168 174.4619,-154.8272 137.7143,-142.8757 109.783,-134.4583"/>
<polygon fill="#191970" stroke="#191970" points="110.5003,-131.0201 99.9173,-131.5213 108.503,-137.7291 110.5003,-131.0201"/>
</g>
<!-- Node16 -->
<g id="node16" class="node">
<title>Node16</title>
<g id="a_node16"><a xlink:href="player_8h.html" target="_top" xlink:title=" ">
<polygon fill="#ffffff" stroke="#000000" points="465,-112.5 465,-131.5 517,-131.5 517,-112.5 465,-112.5"/>
<text text-anchor="middle" x="491" y="-119.5" font-family="Helvetica,sans-Serif" font-size="10.00" fill="#000000">player.h</text>
</a>
</g>
</g>
<!-- Node3&#45;&gt;Node16 -->
<g id="edge17" class="edge">
<title>Node3&#45;&gt;Node16</title>
<path fill="none" stroke="#191970" d="M535.3285,-232.5415C588.4988,-228.9881 705.7051,-217.8724 730,-188 735.6085,-181.1039 735.6986,-174.8219 730,-168 701.1895,-133.51 574.9341,-141.4549 531,-132 529.7404,-131.7289 528.4601,-131.4465 527.1684,-131.1557"/>
<polygon fill="#191970" stroke="#191970" points="527.7278,-127.6919 517.1922,-128.811 526.1261,-134.5062 527.7278,-127.6919"/>
</g>
<!-- Node17 -->
<g id="node17" class="node">
<title>Node17</title>
<g id="a_node17"><a xlink:href="highlighter_8h.html" target="_top" xlink:title=" ">
<polygon fill="#ffffff" stroke="#000000" points="366,-56.5 366,-75.5 436,-75.5 436,-56.5 366,-56.5"/>
<text text-anchor="middle" x="401" y="-63.5" font-family="Helvetica,sans-Serif" font-size="10.00" fill="#000000">highlighter.h</text>
</a>
</g>
</g>
<!-- Node3&#45;&gt;Node17 -->
<g id="edge20" class="edge">
<title>Node3&#45;&gt;Node17</title>
<path fill="none" stroke="#191970" d="M482.7258,-225.1379C450.7005,-214.0746 400.1782,-195.6734 395,-188 374.1373,-157.0846 384.7723,-111.0655 393.4734,-85.2871"/>
<polygon fill="#191970" stroke="#191970" points="396.8739,-86.1758 396.9865,-75.5816 390.2918,-83.7932 396.8739,-86.1758"/>
</g>
<!-- Node3&#45;&gt;Node18 -->
<g id="edge21" class="edge">
<title>Node3&#45;&gt;Node18</title>
<path fill="none" stroke="#191970" d="M535.0875,-229.4285C581.274,-221.3049 680.4449,-203.7271 764,-188 765.4409,-187.7288 766.9044,-187.4517 768.3817,-187.1706"/>
<polygon fill="#191970" stroke="#191970" points="769.0816,-190.6002 778.2417,-185.2765 767.761,-183.7259 769.0816,-190.6002"/>
</g>
<!-- Node10 -->
<g id="node10" class="node">
<title>Node10</title>
<g id="a_node10"><a xlink:title=" ">
<polygon fill="#ffffff" stroke="#bfbfbf" points="135.5,-112.5 135.5,-131.5 252.5,-131.5 252.5,-112.5 135.5,-112.5"/>
<text text-anchor="middle" x="194" y="-119.5" font-family="Helvetica,sans-Serif" font-size="10.00" fill="#000000">QGraphicsPixmapItem</text>
</a>
</g>
</g>
<!-- Node9&#45;&gt;Node10 -->
<g id="edge9" class="edge">
<title>Node9&#45;&gt;Node10</title>
<path fill="none" stroke="#191970" d="M266.6716,-168.2455C253.1697,-159.6534 233.2878,-147.0014 217.7314,-137.1018"/>
<polygon fill="#191970" stroke="#191970" points="219.4685,-134.0587 209.1528,-131.6427 215.7103,-139.9643 219.4685,-134.0587"/>
</g>
<!-- Node11 -->
<g id="node11" class="node">
<title>Node11</title>
<g id="a_node11"><a xlink:href="city_8h.html" target="_top" xlink:title=" ">
<polygon fill="#ffffff" stroke="#000000" points="270.5,-112.5 270.5,-131.5 309.5,-131.5 309.5,-112.5 270.5,-112.5"/>
<text text-anchor="middle" x="290" y="-119.5" font-family="Helvetica,sans-Serif" font-size="10.00" fill="#000000">city.h</text>
</a>
</g>
</g>
<!-- Node9&#45;&gt;Node11 -->
<g id="edge10" class="edge">
<title>Node9&#45;&gt;Node11</title>
<path fill="none" stroke="#191970" d="M283.3935,-168.2455C284.4374,-160.9382 285.9008,-150.6944 287.1851,-141.7046"/>
<polygon fill="#191970" stroke="#191970" points="290.673,-142.0372 288.6225,-131.6427 283.7434,-141.0472 290.673,-142.0372"/>
</g>
<!-- Node9&#45;&gt;Node13 -->
<g id="edge12" class="edge">
<title>Node9&#45;&gt;Node13</title>
<path fill="none" stroke="#191970" d="M253.7618,-170.679C217.9787,-161.4019 155.8018,-145.282 112.8584,-134.1485"/>
<polygon fill="#191970" stroke="#191970" points="113.483,-130.6948 102.9246,-131.573 111.7262,-137.4707 113.483,-130.6948"/>
</g>
<!-- Node12 -->
<g id="node12" class="node">
<title>Node12</title>
<g id="a_node12"><a xlink:title=" ">
<polygon fill="#ffffff" stroke="#bfbfbf" points="268.5,-56.5 268.5,-75.5 309.5,-75.5 309.5,-56.5 268.5,-56.5"/>
<text text-anchor="middle" x="289" y="-63.5" font-family="Helvetica,sans-Serif" font-size="10.00" fill="#000000">string</text>
</a>
</g>
</g>
<!-- Node11&#45;&gt;Node12 -->
<g id="edge11" class="edge">
<title>Node11&#45;&gt;Node12</title>
<path fill="none" stroke="#191970" d="M289.8258,-112.2455C289.6953,-104.9382 289.5124,-94.6944 289.3519,-85.7046"/>
<polygon fill="#191970" stroke="#191970" points="292.8503,-85.5786 289.1722,-75.6427 285.8514,-85.7036 292.8503,-85.5786"/>
</g>
<!-- Node13&#45;&gt;Node12 -->
<g id="edge15" class="edge">
<title>Node13&#45;&gt;Node12</title>
<path fill="none" stroke="#191970" d="M104.0817,-112.4369C147.7962,-101.4593 218.6141,-83.6754 258.7379,-73.5994"/>
<polygon fill="#191970" stroke="#191970" points="259.6339,-76.9832 268.4802,-71.1529 257.9289,-70.194 259.6339,-76.9832"/>
</g>
<!-- Node14 -->
<g id="node14" class="node">
<title>Node14</title>
<g id="a_node14"><a xlink:title=" ">
<polygon fill="#ffffff" stroke="#bfbfbf" points="0,-56.5 0,-75.5 58,-75.5 58,-56.5 0,-56.5"/>
<text text-anchor="middle" x="29" y="-63.5" font-family="Helvetica,sans-Serif" font-size="10.00" fill="#000000">QPixmap</text>
</a>
</g>
</g>
<!-- Node13&#45;&gt;Node14 -->
<g id="edge13" class="edge">
<title>Node13&#45;&gt;Node14</title>
<path fill="none" stroke="#191970" d="M59.5551,-112.2455C54.4618,-104.5367 47.2092,-93.5598 41.048,-84.2348"/>
<polygon fill="#191970" stroke="#191970" points="43.8038,-82.0566 35.3711,-75.6427 37.9635,-85.9155 43.8038,-82.0566"/>
</g>
<!-- Node15 -->
<g id="node15" class="node">
<title>Node15</title>
<g id="a_node15"><a xlink:title=" ">
<polygon fill="#ffffff" stroke="#bfbfbf" points="76.5,-56.5 76.5,-75.5 129.5,-75.5 129.5,-56.5 76.5,-56.5"/>
<text text-anchor="middle" x="103" y="-63.5" font-family="Helvetica,sans-Serif" font-size="10.00" fill="#000000">QImage</text>
</a>
</g>
</g>
<!-- Node13&#45;&gt;Node15 -->
<g id="edge14" class="edge">
<title>Node13&#45;&gt;Node15</title>
<path fill="none" stroke="#191970" d="M72.4449,-112.2455C77.5382,-104.5367 84.7908,-93.5598 90.952,-84.2348"/>
<polygon fill="#191970" stroke="#191970" points="94.0365,-85.9155 96.6289,-75.6427 88.1962,-82.0566 94.0365,-85.9155"/>
</g>
<!-- Node16&#45;&gt;Node17 -->
<g id="edge18" class="edge">
<title>Node16&#45;&gt;Node17</title>
<path fill="none" stroke="#191970" d="M475.3232,-112.2455C461.5144,-103.6534 441.1807,-91.0014 425.2708,-81.1018"/>
<polygon fill="#191970" stroke="#191970" points="426.8368,-77.954 416.4972,-75.6427 423.1387,-83.8974 426.8368,-77.954"/>
</g>
<!-- Node17&#45;&gt;Node7 -->
<g id="edge19" class="edge">
<title>Node17&#45;&gt;Node7</title>
<path fill="none" stroke="#191970" d="M395.426,-56.2455C391.0669,-48.617 384.8789,-37.7881 379.5867,-28.5267"/>
<polygon fill="#191970" stroke="#191970" points="382.5104,-26.5886 374.5101,-19.6427 376.4327,-30.0616 382.5104,-26.5886"/>
</g>
<!-- Node18&#45;&gt;Node12 -->
<g id="edge22" class="edge">
<title>Node18&#45;&gt;Node12</title>
<path fill="none" stroke="#191970" d="M778.1789,-172.6545C718.4142,-163.7432 603.0441,-145.4988 564,-132 545.9623,-125.7638 544.0048,-118.3304 526,-112 488.2031,-98.7109 374.6846,-79.6161 319.6203,-70.7982"/>
<polygon fill="#191970" stroke="#191970" points="320.1639,-67.3407 309.7381,-69.2256 319.0638,-74.2537 320.1639,-67.3407"/>
</g>
<!-- Node18&#45;&gt;Node16 -->
<g id="edge30" class="edge">
<title>Node18&#45;&gt;Node16</title>
<path fill="none" stroke="#191970" d="M778.2619,-170.6128C773.4697,-169.7032 768.6214,-168.8098 764,-168 660.7881,-149.9153 633.7135,-152.7287 531,-132 529.737,-131.7451 528.4538,-131.4766 527.1596,-131.1977"/>
<polygon fill="#191970" stroke="#191970" points="527.7012,-127.7312 517.172,-128.9082 526.1371,-134.5542 527.7012,-127.7312"/>
</g>
<!-- Node19 -->
<g id="node19" class="node">
<title>Node19</title>
<g id="a_node19"><a xlink:title=" ">
<polygon fill="#ffffff" stroke="#bfbfbf" points="873.5,-112.5 873.5,-131.5 922.5,-131.5 922.5,-112.5 873.5,-112.5"/>
<text text-anchor="middle" x="898" y="-119.5" font-family="Helvetica,sans-Serif" font-size="10.00" fill="#000000">QLabel</text>
</a>
</g>
</g>
<!-- Node18&#45;&gt;Node19 -->
<g id="edge23" class="edge">
<title>Node18&#45;&gt;Node19</title>
<path fill="none" stroke="#191970" d="M829.4575,-168.2455C842.0732,-159.7337 860.5944,-147.2375 875.2045,-137.3801"/>
<polygon fill="#191970" stroke="#191970" points="877.3761,-140.1371 883.7082,-131.6427 873.4609,-134.3343 877.3761,-140.1371"/>
</g>
<!-- Node20 -->
<g id="node20" class="node">
<title>Node20</title>
<g id="a_node20"><a xlink:title=" ">
<polygon fill="#ffffff" stroke="#bfbfbf" points="941,-112.5 941,-131.5 997,-131.5 997,-112.5 941,-112.5"/>
<text text-anchor="middle" x="969" y="-119.5" font-family="Helvetica,sans-Serif" font-size="10.00" fill="#000000">QWidget</text>
</a>
</g>
</g>
<!-- Node18&#45;&gt;Node20 -->
<g id="edge24" class="edge">
<title>Node18&#45;&gt;Node20</title>
<path fill="none" stroke="#191970" d="M841.4735,-168.3733C866.8597,-159.1419 905.3645,-145.1402 933.422,-134.9375"/>
<polygon fill="#191970" stroke="#191970" points="934.6701,-138.2079 942.8719,-131.5011 932.2778,-131.6293 934.6701,-138.2079"/>
</g>
<!-- Node21 -->
<g id="node21" class="node">
<title>Node21</title>
<g id="a_node21"><a xlink:title=" ">
<polygon fill="#ffffff" stroke="#bfbfbf" points="573,-112.5 573,-131.5 655,-131.5 655,-112.5 573,-112.5"/>
<text text-anchor="middle" x="614" y="-119.5" font-family="Helvetica,sans-Serif" font-size="10.00" fill="#000000">QMediaPlayer</text>
</a>
</g>
</g>
<!-- Node18&#45;&gt;Node21 -->
<g id="edge25" class="edge">
<title>Node18&#45;&gt;Node21</title>
<path fill="none" stroke="#191970" d="M780.4469,-168.3733C746.5896,-158.9404 694.854,-144.5265 658.0574,-134.2747"/>
<polygon fill="#191970" stroke="#191970" points="658.6747,-130.8135 648.1022,-131.5011 656.796,-137.5566 658.6747,-130.8135"/>
</g>
<!-- Node22 -->
<g id="node22" class="node">
<title>Node22</title>
<g id="a_node22"><a xlink:title=" ">
<polygon fill="#ffffff" stroke="#bfbfbf" points="673.5,-112.5 673.5,-131.5 756.5,-131.5 756.5,-112.5 673.5,-112.5"/>
<text text-anchor="middle" x="715" y="-119.5" font-family="Helvetica,sans-Serif" font-size="10.00" fill="#000000">QVideoWidget</text>
</a>
</g>
</g>
<!-- Node18&#45;&gt;Node22 -->
<g id="edge26" class="edge">
<title>Node18&#45;&gt;Node22</title>
<path fill="none" stroke="#191970" d="M797.5813,-168.2455C781.9515,-159.4928 758.7981,-146.527 740.9815,-136.5496"/>
<polygon fill="#191970" stroke="#191970" points="742.6543,-133.475 732.2191,-131.6427 739.234,-139.5825 742.6543,-133.475"/>
</g>
<!-- Node23 -->
<g id="node23" class="node">
<title>Node23</title>
<g id="a_node23"><a xlink:href="mainwindow_8h.html" target="_top" xlink:title=" ">
<polygon fill="#ffffff" stroke="#000000" points="775,-112.5 775,-131.5 855,-131.5 855,-112.5 775,-112.5"/>
<text text-anchor="middle" x="815" y="-119.5" font-family="Helvetica,sans-Serif" font-size="10.00" fill="#000000">mainwindow.h</text>
</a>
</g>
</g>
<!-- Node18&#45;&gt;Node23 -->
<g id="edge27" class="edge">
<title>Node18&#45;&gt;Node23</title>
<path fill="none" stroke="#191970" d="M815,-168.2455C815,-160.9382 815,-150.6944 815,-141.7046"/>
<polygon fill="#191970" stroke="#191970" points="818.5001,-141.6426 815,-131.6427 811.5001,-141.6427 818.5001,-141.6426"/>
</g>
<!-- Node24 -->
<g id="node24" class="node">
<title>Node24</title>
<g id="a_node24"><a xlink:title=" ">
<polygon fill="#ffffff" stroke="#bfbfbf" points="726.5,-56.5 726.5,-75.5 809.5,-75.5 809.5,-56.5 726.5,-56.5"/>
<text text-anchor="middle" x="768" y="-63.5" font-family="Helvetica,sans-Serif" font-size="10.00" fill="#000000">QMainWindow</text>
</a>
</g>
</g>
<!-- Node23&#45;&gt;Node24 -->
<g id="edge28" class="edge">
<title>Node23&#45;&gt;Node24</title>
<path fill="none" stroke="#191970" d="M806.8132,-112.2455C800.1411,-104.2958 790.5521,-92.8706 782.5747,-83.3656"/>
<polygon fill="#191970" stroke="#191970" points="785.2026,-81.0524 776.093,-75.6427 779.8408,-85.5525 785.2026,-81.0524"/>
</g>
<!-- Node25 -->
<g id="node25" class="node">
<title>Node25</title>
<g id="a_node25"><a xlink:title=" ">
<polygon fill="#ffffff" stroke="#bfbfbf" points="827.5,-56.5 827.5,-75.5 894.5,-75.5 894.5,-56.5 827.5,-56.5"/>
<text text-anchor="middle" x="861" y="-63.5" font-family="Helvetica,sans-Serif" font-size="10.00" fill="#000000">QKeyEvent</text>
</a>
</g>
</g>
<!-- Node23&#45;&gt;Node25 -->
<g id="edge29" class="edge">
<title>Node23&#45;&gt;Node25</title>
<path fill="none" stroke="#191970" d="M823.0126,-112.2455C829.4768,-104.3761 838.7385,-93.101 846.4983,-83.6542"/>
<polygon fill="#191970" stroke="#191970" points="849.4364,-85.5916 853.0792,-75.6427 844.0273,-81.1484 849.4364,-85.5916"/>
</g>
<!-- Node26&#45;&gt;Node19 -->
<g id="edge34" class="edge">
<title>Node26&#45;&gt;Node19</title>
<path fill="none" stroke="#191970" d="M956.6327,-168.2455C946.0446,-159.8943 930.5936,-147.7076 918.2107,-137.9408"/>
<polygon fill="#191970" stroke="#191970" points="920.2447,-135.0875 910.2255,-131.6427 915.9097,-140.5837 920.2447,-135.0875"/>
</g>
<!-- Node26&#45;&gt;Node20 -->
<g id="edge33" class="edge">
<title>Node26&#45;&gt;Node20</title>
<path fill="none" stroke="#191970" d="M969,-168.2455C969,-160.9382 969,-150.6944 969,-141.7046"/>
<polygon fill="#191970" stroke="#191970" points="972.5001,-141.6426 969,-131.6427 965.5001,-141.6427 972.5001,-141.6426"/>
</g>
<!-- Node27 -->
<g id="node27" class="node">
<title>Node27</title>
<g id="a_node27"><a xlink:title=" ">
<polygon fill="#ffffff" stroke="#bfbfbf" points="1015,-112.5 1015,-131.5 1085,-131.5 1085,-112.5 1015,-112.5"/>
<text text-anchor="middle" x="1050" y="-119.5" font-family="Helvetica,sans-Serif" font-size="10.00" fill="#000000">QGroupBox</text>
</a>
</g>
</g>
<!-- Node26&#45;&gt;Node27 -->
<g id="edge35" class="edge">
<title>Node26&#45;&gt;Node27</title>
<path fill="none" stroke="#191970" d="M983.1091,-168.2455C995.4209,-159.7337 1013.4958,-147.2375 1027.7538,-137.3801"/>
<polygon fill="#191970" stroke="#191970" points="1029.8174,-140.2085 1036.0526,-131.6427 1025.8366,-134.4506 1029.8174,-140.2085"/>
</g>
<!-- Node28 -->
<g id="node28" class="node">
<title>Node28</title>
<g id="a_node28"><a xlink:title=" ">
<polygon fill="#ffffff" stroke="#bfbfbf" points="1103,-112.5 1103,-131.5 1177,-131.5 1177,-112.5 1103,-112.5"/>
<text text-anchor="middle" x="1140" y="-119.5" font-family="Helvetica,sans-Serif" font-size="10.00" fill="#000000">QGridLayout</text>
</a>
</g>
</g>
<!-- Node26&#45;&gt;Node28 -->
<g id="edge36" class="edge">
<title>Node26&#45;&gt;Node28</title>
<path fill="none" stroke="#191970" d="M998.3959,-168.3733C1026.8307,-159.0613 1070.0877,-144.8953 1101.3081,-134.671"/>
<polygon fill="#191970" stroke="#191970" points="1102.5736,-137.9396 1110.9876,-131.5011 1100.395,-131.2872 1102.5736,-137.9396"/>
</g>
</g>
</svg>
