<?xml version="1.0" encoding="UTF-8" standalone="no"?>
<!DOCTYPE svg PUBLIC "-//W3C//DTD SVG 1.1//EN"
 "http://www.w3.org/Graphics/SVG/1.1/DTD/svg11.dtd">
<!-- Generated by graphviz version 2.40.1 (20161225.0304)
 -->
<!-- Title: src/application_server/view.cpp Pages: 1 -->
<svg width="1357pt" height="319pt"
 viewBox="0.00 0.00 1356.50 319.00" xmlns="http://www.w3.org/2000/svg" xmlns:xlink="http://www.w3.org/1999/xlink">
<g id="graph0" class="graph" transform="scale(1 1) rotate(0) translate(4 315)">
<title>src/application_server/view.cpp</title>
<polygon fill="#ffffff" stroke="transparent" points="-4,4 -4,-315 1352.5,-315 1352.5,4 -4,4"/>
<!-- Node1 -->
<g id="node1" class="node">
<title>Node1</title>
<g id="a_node1"><a xlink:title=" ">
<polygon fill="#bfbfbf" stroke="#000000" points="904,-280.5 904,-310.5 1019,-310.5 1019,-280.5 904,-280.5"/>
<text text-anchor="start" x="912" y="-298.5" font-family="Helvetica,sans-Serif" font-size="10.00" fill="#000000">src/application_server</text>
<text text-anchor="middle" x="961.5" y="-287.5" font-family="Helvetica,sans-Serif" font-size="10.00" fill="#000000">/view.cpp</text>
</a>
</g>
</g>
<!-- Node2 -->
<g id="node2" class="node">
<title>Node2</title>
<g id="a_node2"><a xlink:href="view_8h.html" target="_top" xlink:title=" ">
<polygon fill="#ffffff" stroke="#000000" points="631,-224.5 631,-243.5 676,-243.5 676,-224.5 631,-224.5"/>
<text text-anchor="middle" x="653.5" y="-231.5" font-family="Helvetica,sans-Serif" font-size="10.00" fill="#000000">view.h</text>
</a>
</g>
</g>
<!-- Node1&#45;&gt;Node2 -->
<g id="edge1" class="edge">
<title>Node1&#45;&gt;Node2</title>
<path fill="none" stroke="#191970" d="M903.9856,-286.8062C850.0492,-278.1941 767.0368,-263.7645 686.0022,-243.8874"/>
<polygon fill="#191970" stroke="#191970" points="686.6806,-240.4496 676.1318,-241.4364 684.9935,-247.2433 686.6806,-240.4496"/>
</g>
<!-- Node7 -->
<g id="node7" class="node">
<title>Node7</title>
<g id="a_node7"><a xlink:title=" ">
<polygon fill="#ffffff" stroke="#bfbfbf" points="0,-112.5 0,-131.5 83,-131.5 83,-112.5 0,-112.5"/>
<text text-anchor="middle" x="41.5" y="-119.5" font-family="Helvetica,sans-Serif" font-size="10.00" fill="#000000">QGraphicsItem</text>
</a>
</g>
</g>
<!-- Node1&#45;&gt;Node7 -->
<g id="edge37" class="edge">
<title>Node1&#45;&gt;Node7</title>
<path fill="none" stroke="#191970" d="M903.8837,-287.7932C836.125,-278.4938 720.3453,-261.8669 621.5,-244 425.2205,-208.5213 193.6434,-156.8228 92.76,-133.8094"/>
<polygon fill="#191970" stroke="#191970" points="93.3635,-130.3572 82.8351,-131.5417 91.8042,-137.1813 93.3635,-130.3572"/>
</g>
<!-- Node26 -->
<g id="node26" class="node">
<title>Node26</title>
<g id="a_node26"><a xlink:title=" ">
<polygon fill="#ffffff" stroke="#bfbfbf" points="694.5,-224.5 694.5,-243.5 774.5,-243.5 774.5,-224.5 694.5,-224.5"/>
<text text-anchor="middle" x="734.5" y="-231.5" font-family="Helvetica,sans-Serif" font-size="10.00" fill="#000000">QMouseEvent</text>
</a>
</g>
</g>
<!-- Node1&#45;&gt;Node26 -->
<g id="edge33" class="edge">
<title>Node1&#45;&gt;Node26</title>
<path fill="none" stroke="#191970" d="M905.9696,-280.4554C867.0973,-269.9239 815.8243,-256.0328 779.5024,-246.1923"/>
<polygon fill="#191970" stroke="#191970" points="780.2443,-242.7672 769.6769,-243.5303 778.4137,-249.5236 780.2443,-242.7672"/>
</g>
<!-- Node27 -->
<g id="node27" class="node">
<title>Node27</title>
<g id="a_node27"><a xlink:title=" ">
<polygon fill="#ffffff" stroke="#bfbfbf" points="792.5,-224.5 792.5,-243.5 846.5,-243.5 846.5,-224.5 792.5,-224.5"/>
<text text-anchor="middle" x="819.5" y="-231.5" font-family="Helvetica,sans-Serif" font-size="10.00" fill="#000000">QDebug</text>
</a>
</g>
</g>
<!-- Node1&#45;&gt;Node27 -->
<g id="edge34" class="edge">
<title>Node1&#45;&gt;Node27</title>
<path fill="none" stroke="#191970" d="M926.7629,-280.4554C903.5894,-270.419 873.3708,-257.3314 850.9158,-247.6061"/>
<polygon fill="#191970" stroke="#191970" points="852.0723,-244.2929 841.505,-243.5303 849.2903,-250.7164 852.0723,-244.2929"/>
</g>
<!-- Node28 -->
<g id="node28" class="node">
<title>Node28</title>
<g id="a_node28"><a xlink:title=" ">
<polygon fill="#ffffff" stroke="#bfbfbf" points="865,-224.5 865,-243.5 918,-243.5 918,-224.5 865,-224.5"/>
<text text-anchor="middle" x="891.5" y="-231.5" font-family="Helvetica,sans-Serif" font-size="10.00" fill="#000000">QPointF</text>
</a>
</g>
</g>
<!-- Node1&#45;&gt;Node28 -->
<g id="edge35" class="edge">
<title>Node1&#45;&gt;Node28</title>
<path fill="none" stroke="#191970" d="M944.1966,-280.2977C933.9738,-271.3163 921.0177,-259.9334 910.5104,-250.702"/>
<polygon fill="#191970" stroke="#191970" points="912.5305,-247.8178 902.7079,-243.8469 907.9103,-253.0766 912.5305,-247.8178"/>
</g>
<!-- Node29 -->
<g id="node29" class="node">
<title>Node29</title>
<g id="a_node29"><a xlink:title=" ">
<polygon fill="#ffffff" stroke="#bfbfbf" points="936.5,-224.5 936.5,-243.5 986.5,-243.5 986.5,-224.5 936.5,-224.5"/>
<text text-anchor="middle" x="961.5" y="-231.5" font-family="Helvetica,sans-Serif" font-size="10.00" fill="#000000">QString</text>
</a>
</g>
</g>
<!-- Node1&#45;&gt;Node29 -->
<g id="edge36" class="edge">
<title>Node1&#45;&gt;Node29</title>
<path fill="none" stroke="#191970" d="M961.5,-280.2977C961.5,-272.3834 961.5,-262.6043 961.5,-254.0759"/>
<polygon fill="#191970" stroke="#191970" points="965.0001,-253.8469 961.5,-243.8469 958.0001,-253.847 965.0001,-253.8469"/>
</g>
<!-- Node30 -->
<g id="node30" class="node">
<title>Node30</title>
<g id="a_node30"><a xlink:title=" ">
<polygon fill="#ffffff" stroke="#bfbfbf" points="1005,-224.5 1005,-243.5 1056,-243.5 1056,-224.5 1005,-224.5"/>
<text text-anchor="middle" x="1030.5" y="-231.5" font-family="Helvetica,sans-Serif" font-size="10.00" fill="#000000">QTimer</text>
</a>
</g>
</g>
<!-- Node1&#45;&gt;Node30 -->
<g id="edge38" class="edge">
<title>Node1&#45;&gt;Node30</title>
<path fill="none" stroke="#191970" d="M978.5562,-280.2977C988.6329,-271.3163 1001.404,-259.9334 1011.7611,-250.702"/>
<polygon fill="#191970" stroke="#191970" points="1014.3159,-253.1135 1019.4522,-243.8469 1009.6583,-247.8879 1014.3159,-253.1135"/>
</g>
<!-- Node31 -->
<g id="node31" class="node">
<title>Node31</title>
<g id="a_node31"><a xlink:title=" ">
<polygon fill="#ffffff" stroke="#bfbfbf" points="1074,-224.5 1074,-243.5 1159,-243.5 1159,-224.5 1074,-224.5"/>
<text text-anchor="middle" x="1116.5" y="-231.5" font-family="Helvetica,sans-Serif" font-size="10.00" fill="#000000">QMessageBox</text>
</a>
</g>
</g>
<!-- Node1&#45;&gt;Node31 -->
<g id="edge39" class="edge">
<title>Node1&#45;&gt;Node31</title>
<path fill="none" stroke="#191970" d="M999.4173,-280.4554C1024.9391,-270.329 1058.2896,-257.0964 1082.8656,-247.3453"/>
<polygon fill="#191970" stroke="#191970" points="1084.4763,-250.4717 1092.4805,-243.5303 1081.8946,-243.9651 1084.4763,-250.4717"/>
</g>
<!-- Node32 -->
<g id="node32" class="node">
<title>Node32</title>
<g id="a_node32"><a xlink:title=" ">
<polygon fill="#ffffff" stroke="#bfbfbf" points="1177,-224.5 1177,-243.5 1220,-243.5 1220,-224.5 1177,-224.5"/>
<text text-anchor="middle" x="1198.5" y="-231.5" font-family="Helvetica,sans-Serif" font-size="10.00" fill="#000000">QIcon</text>
</a>
</g>
</g>
<!-- Node1&#45;&gt;Node32 -->
<g id="edge40" class="edge">
<title>Node1&#45;&gt;Node32</title>
<path fill="none" stroke="#191970" d="M1019.3752,-282.3762C1058.7025,-273.1665 1112.0755,-260.1017 1167.0216,-244.2898"/>
<polygon fill="#191970" stroke="#191970" points="1168.3055,-247.5617 1176.933,-241.4122 1166.3537,-240.8393 1168.3055,-247.5617"/>
</g>
<!-- Node33 -->
<g id="node33" class="node">
<title>Node33</title>
<g id="a_node33"><a xlink:title=" ">
<polygon fill="#ffffff" stroke="#bfbfbf" points="1238.5,-224.5 1238.5,-243.5 1294.5,-243.5 1294.5,-224.5 1238.5,-224.5"/>
<text text-anchor="middle" x="1266.5" y="-231.5" font-family="Helvetica,sans-Serif" font-size="10.00" fill="#000000">QPalette</text>
</a>
</g>
</g>
<!-- Node1&#45;&gt;Node33 -->
<g id="edge41" class="edge">
<title>Node1&#45;&gt;Node33</title>
<path fill="none" stroke="#191970" d="M1019.0044,-285.7218C1071.2167,-276.5558 1150.5335,-261.9163 1228.3045,-244.156"/>
<polygon fill="#191970" stroke="#191970" points="1229.3132,-247.5154 1238.2725,-241.8602 1227.7421,-240.694 1229.3132,-247.5154"/>
</g>
<!-- Node34 -->
<g id="node34" class="node">
<title>Node34</title>
<g id="a_node34"><a xlink:title=" ">
<polygon fill="#ffffff" stroke="#bfbfbf" points="1312.5,-224.5 1312.5,-243.5 1348.5,-243.5 1348.5,-224.5 1312.5,-224.5"/>
<text text-anchor="middle" x="1330.5" y="-231.5" font-family="Helvetica,sans-Serif" font-size="10.00" fill="#000000">QUrl</text>
</a>
</g>
</g>
<!-- Node1&#45;&gt;Node34 -->
<g id="edge42" class="edge">
<title>Node1&#45;&gt;Node34</title>
<path fill="none" stroke="#191970" d="M1019.1017,-290.4684C1085.5872,-283.8535 1198.1585,-270.1713 1302.6052,-243.801"/>
<polygon fill="#191970" stroke="#191970" points="1303.5475,-247.1727 1312.3618,-241.294 1301.8053,-240.3929 1303.5475,-247.1727"/>
</g>
<!-- Node3 -->
<g id="node3" class="node">
<title>Node3</title>
<g id="a_node3"><a xlink:title=" ">
<polygon fill="#ffffff" stroke="#bfbfbf" points="610,-168.5 610,-187.5 697,-187.5 697,-168.5 610,-168.5"/>
<text text-anchor="middle" x="653.5" y="-175.5" font-family="Helvetica,sans-Serif" font-size="10.00" fill="#000000">QGraphicsView</text>
</a>
</g>
</g>
<!-- Node2&#45;&gt;Node3 -->
<g id="edge2" class="edge">
<title>Node2&#45;&gt;Node3</title>
<path fill="none" stroke="#191970" d="M653.5,-224.2455C653.5,-216.9382 653.5,-206.6944 653.5,-197.7046"/>
<polygon fill="#191970" stroke="#191970" points="657.0001,-197.6426 653.5,-187.6427 650.0001,-197.6427 657.0001,-197.6426"/>
</g>
<!-- Node4 -->
<g id="node4" class="node">
<title>Node4</title>
<g id="a_node4"><a xlink:href="scene_8h.html" target="_top" xlink:title=" ">
<polygon fill="#ffffff" stroke="#000000" points="452.5,-168.5 452.5,-187.5 504.5,-187.5 504.5,-168.5 452.5,-168.5"/>
<text text-anchor="middle" x="478.5" y="-175.5" font-family="Helvetica,sans-Serif" font-size="10.00" fill="#000000">scene.h</text>
</a>
</g>
</g>
<!-- Node2&#45;&gt;Node4 -->
<g id="edge3" class="edge">
<title>Node2&#45;&gt;Node4</title>
<path fill="none" stroke="#191970" d="M630.9801,-226.7936C601.489,-217.3565 549.4367,-200.6997 514.4589,-189.5069"/>
<polygon fill="#191970" stroke="#191970" points="515.2289,-186.0785 504.6379,-186.3641 513.0955,-192.7455 515.2289,-186.0785"/>
</g>
<!-- Node20 -->
<g id="node20" class="node">
<title>Node20</title>
<g id="a_node20"><a xlink:href="datamodel_8h.html" target="_top" xlink:title=" ">
<polygon fill="#ffffff" stroke="#000000" points="776,-112.5 776,-131.5 849,-131.5 849,-112.5 776,-112.5"/>
<text text-anchor="middle" x="812.5" y="-119.5" font-family="Helvetica,sans-Serif" font-size="10.00" fill="#000000">datamodel.h</text>
</a>
</g>
</g>
<!-- Node2&#45;&gt;Node20 -->
<g id="edge27" class="edge">
<title>Node2&#45;&gt;Node20</title>
<path fill="none" stroke="#191970" d="M667.0563,-224.4509C694.6316,-205.0268 757.46,-160.7703 790.7944,-137.2895"/>
<polygon fill="#191970" stroke="#191970" points="792.8182,-140.1451 798.9781,-131.5249 788.7871,-134.4223 792.8182,-140.1451"/>
</g>
<!-- Node23 -->
<g id="node23" class="node">
<title>Node23</title>
<g id="a_node23"><a xlink:href="tooltipmenu_8h.html" target="_top" xlink:title=" ">
<polygon fill="#ffffff" stroke="#000000" points="889,-112.5 889,-131.5 964,-131.5 964,-112.5 889,-112.5"/>
<text text-anchor="middle" x="926.5" y="-119.5" font-family="Helvetica,sans-Serif" font-size="10.00" fill="#000000">tooltipmenu.h</text>
</a>
</g>
</g>
<!-- Node2&#45;&gt;Node23 -->
<g id="edge28" class="edge">
<title>Node2&#45;&gt;Node23</title>
<path fill="none" stroke="#191970" d="M676.3063,-224.6436C724.6628,-204.805 837.6392,-158.4557 893.72,-135.4482"/>
<polygon fill="#191970" stroke="#191970" points="895.2567,-138.6009 903.1799,-131.5672 892.5998,-132.1247 895.2567,-138.6009"/>
</g>
<!-- Node5 -->
<g id="node5" class="node">
<title>Node5</title>
<g id="a_node5"><a xlink:title=" ">
<polygon fill="#ffffff" stroke="#bfbfbf" points="139.5,-112.5 139.5,-131.5 233.5,-131.5 233.5,-112.5 139.5,-112.5"/>
<text text-anchor="middle" x="186.5" y="-119.5" font-family="Helvetica,sans-Serif" font-size="10.00" fill="#000000">QGraphicsScene</text>
</a>
</g>
</g>
<!-- Node4&#45;&gt;Node5 -->
<g id="edge4" class="edge">
<title>Node4&#45;&gt;Node5</title>
<path fill="none" stroke="#191970" d="M452.33,-172.9811C405.6541,-164.0296 307.0293,-145.1152 243.9146,-133.011"/>
<polygon fill="#191970" stroke="#191970" points="244.1993,-129.5019 233.7191,-131.0557 242.8808,-136.3766 244.1993,-129.5019"/>
</g>
<!-- Node6 -->
<g id="node6" class="node">
<title>Node6</title>
<g id="a_node6"><a xlink:title=" ">
<polygon fill="#ffffff" stroke="#bfbfbf" points="251.5,-112.5 251.5,-131.5 355.5,-131.5 355.5,-112.5 251.5,-112.5"/>
<text text-anchor="middle" x="303.5" y="-119.5" font-family="Helvetica,sans-Serif" font-size="10.00" fill="#000000">QGraphicsTextItem</text>
</a>
</g>
</g>
<!-- Node4&#45;&gt;Node6 -->
<g id="edge5" class="edge">
<title>Node4&#45;&gt;Node6</title>
<path fill="none" stroke="#191970" d="M452.3007,-169.6162C423.4395,-160.3806 376.6969,-145.423 343.3025,-134.7368"/>
<polygon fill="#191970" stroke="#191970" points="343.9928,-131.2829 333.4018,-131.5686 341.8593,-137.9499 343.9928,-131.2829"/>
</g>
<!-- Node4&#45;&gt;Node7 -->
<g id="edge6" class="edge">
<title>Node4&#45;&gt;Node7</title>
<path fill="none" stroke="#191970" d="M452.1019,-175.3327C390.0785,-168.9524 230.2756,-151.854 97.5,-132 96.0349,-131.7809 94.5492,-131.5532 93.0504,-131.3186"/>
<polygon fill="#191970" stroke="#191970" points="93.4796,-127.8424 83.0469,-129.6887 92.3539,-134.7513 93.4796,-127.8424"/>
</g>
<!-- Node8 -->
<g id="node8" class="node">
<title>Node8</title>
<g id="a_node8"><a xlink:title=" ">
<polygon fill="#ffffff" stroke="#bfbfbf" points="347.5,-56.5 347.5,-75.5 451.5,-75.5 451.5,-56.5 347.5,-56.5"/>
<text text-anchor="middle" x="399.5" y="-63.5" font-family="Helvetica,sans-Serif" font-size="10.00" fill="#000000">QGraphicsRectItem</text>
</a>
</g>
</g>
<!-- Node4&#45;&gt;Node8 -->
<g id="edge7" class="edge">
<title>Node4&#45;&gt;Node8</title>
<path fill="none" stroke="#191970" d="M452.2612,-176.4933C374.8866,-171.7854 151.7148,-156.2036 130.5,-132 124.6409,-125.3154 124.7688,-118.7945 130.5,-112 143.7022,-96.3485 261.7355,-80.8595 337.0013,-72.4504"/>
<polygon fill="#191970" stroke="#191970" points="337.7666,-75.8873 347.3224,-71.3115 336.9988,-68.9295 337.7666,-75.8873"/>
</g>
<!-- Node9 -->
<g id="node9" class="node">
<title>Node9</title>
<g id="a_node9"><a xlink:title=" ">
<polygon fill="#ffffff" stroke="#bfbfbf" points="532,-112.5 532,-131.5 645,-131.5 645,-112.5 532,-112.5"/>
<text text-anchor="middle" x="588.5" y="-119.5" font-family="Helvetica,sans-Serif" font-size="10.00" fill="#000000">QGraphicsEllipseItem</text>
</a>
</g>
</g>
<!-- Node4&#45;&gt;Node9 -->
<g id="edge8" class="edge">
<title>Node4&#45;&gt;Node9</title>
<path fill="none" stroke="#191970" d="M497.6605,-168.2455C515.0111,-159.4125 540.7901,-146.2887 560.4583,-136.2758"/>
<polygon fill="#191970" stroke="#191970" points="562.2353,-139.2986 569.559,-131.6427 559.0595,-133.0605 562.2353,-139.2986"/>
</g>
<!-- Node10 -->
<g id="node10" class="node">
<title>Node10</title>
<g id="a_node10"><a xlink:href="maptile_8h.html" target="_top" xlink:title=" ">
<polygon fill="#ffffff" stroke="#000000" points="663.5,-112.5 663.5,-131.5 719.5,-131.5 719.5,-112.5 663.5,-112.5"/>
<text text-anchor="middle" x="691.5" y="-119.5" font-family="Helvetica,sans-Serif" font-size="10.00" fill="#000000">maptile.h</text>
</a>
</g>
</g>
<!-- Node4&#45;&gt;Node10 -->
<g id="edge9" class="edge">
<title>Node4&#45;&gt;Node10</title>
<path fill="none" stroke="#191970" d="M504.5915,-171.1441C538.7892,-162.1576 600.6374,-145.9033 653.5,-132 653.599,-131.974 653.6981,-131.9479 653.7973,-131.9218"/>
<polygon fill="#191970" stroke="#191970" points="654.498,-135.3566 663.2786,-129.4276 652.7171,-128.587 654.498,-135.3566"/>
</g>
<!-- Node15 -->
<g id="node15" class="node">
<title>Node15</title>
<g id="a_node15"><a xlink:href="graphicsmanager_8h.html" target="_top" xlink:title=" ">
<polygon fill="#ffffff" stroke="#000000" points="671,-56.5 671,-75.5 774,-75.5 774,-56.5 671,-56.5"/>
<text text-anchor="middle" x="722.5" y="-63.5" font-family="Helvetica,sans-Serif" font-size="10.00" fill="#000000">graphicsmanager.h</text>
</a>
</g>
</g>
<!-- Node4&#45;&gt;Node15 -->
<g id="edge18" class="edge">
<title>Node4&#45;&gt;Node15</title>
<path fill="none" stroke="#191970" d="M504.8189,-175.062C566.0978,-167.9581 714.2028,-149.1678 728.5,-132 739.1646,-119.1941 735.8405,-99.751 730.9432,-85.2808"/>
<polygon fill="#191970" stroke="#191970" points="734.145,-83.8561 727.2766,-75.7891 727.6152,-86.3786 734.145,-83.8561"/>
</g>
<!-- Node18 -->
<g id="node18" class="node">
<title>Node18</title>
<g id="a_node18"><a xlink:href="player_8h.html" target="_top" xlink:title=" ">
<polygon fill="#ffffff" stroke="#000000" points="373.5,-112.5 373.5,-131.5 425.5,-131.5 425.5,-112.5 373.5,-112.5"/>
<text text-anchor="middle" x="399.5" y="-119.5" font-family="Helvetica,sans-Serif" font-size="10.00" fill="#000000">player.h</text>
</a>
</g>
</g>
<!-- Node4&#45;&gt;Node18 -->
<g id="edge19" class="edge">
<title>Node4&#45;&gt;Node18</title>
<path fill="none" stroke="#191970" d="M464.7393,-168.2455C452.8448,-159.814 435.435,-147.4729 421.5915,-137.6598"/>
<polygon fill="#191970" stroke="#191970" points="423.2854,-134.5704 413.1031,-131.6427 419.2372,-140.2811 423.2854,-134.5704"/>
</g>
<!-- Node19 -->
<g id="node19" class="node">
<title>Node19</title>
<g id="a_node19"><a xlink:href="highlighter_8h.html" target="_top" xlink:title=" ">
<polygon fill="#ffffff" stroke="#000000" points="443.5,-112.5 443.5,-131.5 513.5,-131.5 513.5,-112.5 443.5,-112.5"/>
<text text-anchor="middle" x="478.5" y="-119.5" font-family="Helvetica,sans-Serif" font-size="10.00" fill="#000000">highlighter.h</text>
</a>
</g>
</g>
<!-- Node4&#45;&gt;Node19 -->
<g id="edge21" class="edge">
<title>Node4&#45;&gt;Node19</title>
<path fill="none" stroke="#191970" d="M478.5,-168.2455C478.5,-160.9382 478.5,-150.6944 478.5,-141.7046"/>
<polygon fill="#191970" stroke="#191970" points="482.0001,-141.6426 478.5,-131.6427 475.0001,-141.6427 482.0001,-141.6426"/>
</g>
<!-- Node4&#45;&gt;Node20 -->
<g id="edge23" class="edge">
<title>Node4&#45;&gt;Node20</title>
<path fill="none" stroke="#191970" d="M504.6894,-174.0341C554.6923,-166.3976 667.1832,-148.9075 761.5,-132 762.9432,-131.7413 764.4087,-131.4751 765.8878,-131.2035"/>
<polygon fill="#191970" stroke="#191970" points="766.5723,-134.6362 775.7557,-129.3527 765.2819,-127.7562 766.5723,-134.6362"/>
</g>
<!-- Node11 -->
<g id="node11" class="node">
<title>Node11</title>
<g id="a_node11"><a xlink:title=" ">
<polygon fill="#ffffff" stroke="#bfbfbf" points="479,-56.5 479,-75.5 596,-75.5 596,-56.5 479,-56.5"/>
<text text-anchor="middle" x="537.5" y="-63.5" font-family="Helvetica,sans-Serif" font-size="10.00" fill="#000000">QGraphicsPixmapItem</text>
</a>
</g>
</g>
<!-- Node10&#45;&gt;Node11 -->
<g id="edge10" class="edge">
<title>Node10&#45;&gt;Node11</title>
<path fill="none" stroke="#191970" d="M665.0265,-112.3733C639.6403,-103.1419 601.1355,-89.1402 573.078,-78.9375"/>
<polygon fill="#191970" stroke="#191970" points="574.2222,-75.6293 563.6281,-75.5011 571.8299,-82.2079 574.2222,-75.6293"/>
</g>
<!-- Node12 -->
<g id="node12" class="node">
<title>Node12</title>
<g id="a_node12"><a xlink:href="city_8h.html" target="_top" xlink:title=" ">
<polygon fill="#ffffff" stroke="#000000" points="614,-56.5 614,-75.5 653,-75.5 653,-56.5 614,-56.5"/>
<text text-anchor="middle" x="633.5" y="-63.5" font-family="Helvetica,sans-Serif" font-size="10.00" fill="#000000">city.h</text>
</a>
</g>
</g>
<!-- Node10&#45;&gt;Node12 -->
<g id="edge11" class="edge">
<title>Node10&#45;&gt;Node12</title>
<path fill="none" stroke="#191970" d="M681.3972,-112.2455C672.9972,-104.1352 660.8506,-92.4075 650.8916,-82.7919"/>
<polygon fill="#191970" stroke="#191970" points="653.1122,-80.0707 643.4871,-75.6427 648.25,-85.1066 653.1122,-80.0707"/>
</g>
<!-- Node10&#45;&gt;Node15 -->
<g id="edge14" class="edge">
<title>Node10&#45;&gt;Node15</title>
<path fill="none" stroke="#191970" d="M696.8998,-112.2455C701.1227,-104.617 707.1173,-93.7881 712.2441,-84.5267"/>
<polygon fill="#191970" stroke="#191970" points="715.381,-86.0867 717.1621,-75.6427 709.2568,-82.6965 715.381,-86.0867"/>
</g>
<!-- Node13 -->
<g id="node13" class="node">
<title>Node13</title>
<g id="a_node13"><a xlink:title=" ">
<polygon fill="#ffffff" stroke="#bfbfbf" points="775,-.5 775,-19.5 816,-19.5 816,-.5 775,-.5"/>
<text text-anchor="middle" x="795.5" y="-7.5" font-family="Helvetica,sans-Serif" font-size="10.00" fill="#000000">string</text>
</a>
</g>
</g>
<!-- Node12&#45;&gt;Node13 -->
<g id="edge12" class="edge">
<title>Node12&#45;&gt;Node13</title>
<path fill="none" stroke="#191970" d="M653.0712,-58.9756C655.8974,-57.9713 658.7718,-56.9554 661.5,-56 696.9052,-43.6012 737.6854,-29.6489 764.8696,-20.3949"/>
<polygon fill="#191970" stroke="#191970" points="766.2425,-23.6249 774.5829,-17.0913 763.9885,-16.9977 766.2425,-23.6249"/>
</g>
<!-- Node14 -->
<g id="node14" class="node">
<title>Node14</title>
<g id="a_node14"><a xlink:title=" ">
<polygon fill="#ffffff" stroke="#bfbfbf" points="565.5,-.5 565.5,-19.5 609.5,-19.5 609.5,-.5 565.5,-.5"/>
<text text-anchor="middle" x="587.5" y="-7.5" font-family="Helvetica,sans-Serif" font-size="10.00" fill="#000000">vector</text>
</a>
</g>
</g>
<!-- Node12&#45;&gt;Node14 -->
<g id="edge13" class="edge">
<title>Node12&#45;&gt;Node14</title>
<path fill="none" stroke="#191970" d="M625.4874,-56.2455C619.0232,-48.3761 609.7615,-37.101 602.0017,-27.6542"/>
<polygon fill="#191970" stroke="#191970" points="604.4727,-25.1484 595.4208,-19.6427 599.0636,-29.5916 604.4727,-25.1484"/>
</g>
<!-- Node15&#45;&gt;Node13 -->
<g id="edge17" class="edge">
<title>Node15&#45;&gt;Node13</title>
<path fill="none" stroke="#191970" d="M735.2156,-56.2455C746.102,-47.8943 761.9883,-35.7076 774.72,-25.9408"/>
<polygon fill="#191970" stroke="#191970" points="777.1261,-28.5063 782.9301,-19.6427 772.8654,-22.9523 777.1261,-28.5063"/>
</g>
<!-- Node16 -->
<g id="node16" class="node">
<title>Node16</title>
<g id="a_node16"><a xlink:title=" ">
<polygon fill="#ffffff" stroke="#bfbfbf" points="627.5,-.5 627.5,-19.5 685.5,-19.5 685.5,-.5 627.5,-.5"/>
<text text-anchor="middle" x="656.5" y="-7.5" font-family="Helvetica,sans-Serif" font-size="10.00" fill="#000000">QPixmap</text>
</a>
</g>
</g>
<!-- Node15&#45;&gt;Node16 -->
<g id="edge15" class="edge">
<title>Node15&#45;&gt;Node16</title>
<path fill="none" stroke="#191970" d="M711.0037,-56.2455C701.2558,-47.9746 687.0741,-35.9416 675.6202,-26.2232"/>
<polygon fill="#191970" stroke="#191970" points="677.7541,-23.4437 667.8646,-19.6427 673.2253,-28.7813 677.7541,-23.4437"/>
</g>
<!-- Node17 -->
<g id="node17" class="node">
<title>Node17</title>
<g id="a_node17"><a xlink:title=" ">
<polygon fill="#ffffff" stroke="#bfbfbf" points="704,-.5 704,-19.5 757,-19.5 757,-.5 704,-.5"/>
<text text-anchor="middle" x="730.5" y="-7.5" font-family="Helvetica,sans-Serif" font-size="10.00" fill="#000000">QImage</text>
</a>
</g>
</g>
<!-- Node15&#45;&gt;Node17 -->
<g id="edge16" class="edge">
<title>Node15&#45;&gt;Node17</title>
<path fill="none" stroke="#191970" d="M723.8935,-56.2455C724.9374,-48.9382 726.4008,-38.6944 727.6851,-29.7046"/>
<polygon fill="#191970" stroke="#191970" points="731.173,-30.0372 729.1225,-19.6427 724.2434,-29.0472 731.173,-30.0372"/>
</g>
<!-- Node18&#45;&gt;Node8 -->
<g id="edge20" class="edge">
<title>Node18&#45;&gt;Node8</title>
<path fill="none" stroke="#191970" d="M399.5,-112.2455C399.5,-104.9382 399.5,-94.6944 399.5,-85.7046"/>
<polygon fill="#191970" stroke="#191970" points="403.0001,-85.6426 399.5,-75.6427 396.0001,-85.6427 403.0001,-85.6426"/>
</g>
<!-- Node19&#45;&gt;Node8 -->
<g id="edge22" class="edge">
<title>Node19&#45;&gt;Node8</title>
<path fill="none" stroke="#191970" d="M464.7393,-112.2455C452.8448,-103.814 435.435,-91.4729 421.5915,-81.6598"/>
<polygon fill="#191970" stroke="#191970" points="423.2854,-78.5704 413.1031,-75.6427 419.2372,-84.2811 423.2854,-78.5704"/>
</g>
<!-- Node20&#45;&gt;Node13 -->
<g id="edge24" class="edge">
<title>Node20&#45;&gt;Node13</title>
<path fill="none" stroke="#191970" d="M811.0506,-112.4509C808.2779,-94.184 802.1718,-53.9553 798.4898,-29.6976"/>
<polygon fill="#191970" stroke="#191970" points="801.9069,-28.8864 796.9457,-19.5249 794.9861,-29.9369 801.9069,-28.8864"/>
</g>
<!-- Node21 -->
<g id="node21" class="node">
<title>Node21</title>
<g id="a_node21"><a xlink:title=" ">
<polygon fill="#ffffff" stroke="#bfbfbf" points="831,-56.5 831,-75.5 880,-75.5 880,-56.5 831,-56.5"/>
<text text-anchor="middle" x="855.5" y="-63.5" font-family="Helvetica,sans-Serif" font-size="10.00" fill="#000000">QLabel</text>
</a>
</g>
</g>
<!-- Node20&#45;&gt;Node21 -->
<g id="edge25" class="edge">
<title>Node20&#45;&gt;Node21</title>
<path fill="none" stroke="#191970" d="M819.99,-112.2455C826.0326,-104.3761 834.6903,-93.101 841.9441,-83.6542"/>
<polygon fill="#191970" stroke="#191970" points="844.7815,-85.7058 848.0958,-75.6427 839.2295,-81.4426 844.7815,-85.7058"/>
</g>
<!-- Node22 -->
<g id="node22" class="node">
<title>Node22</title>
<g id="a_node22"><a xlink:title=" ">
<polygon fill="#ffffff" stroke="#bfbfbf" points="898.5,-56.5 898.5,-75.5 954.5,-75.5 954.5,-56.5 898.5,-56.5"/>
<text text-anchor="middle" x="926.5" y="-63.5" font-family="Helvetica,sans-Serif" font-size="10.00" fill="#000000">QWidget</text>
</a>
</g>
</g>
<!-- Node20&#45;&gt;Node22 -->
<g id="edge26" class="edge">
<title>Node20&#45;&gt;Node22</title>
<path fill="none" stroke="#191970" d="M832.0973,-112.3733C850.2331,-103.4644 877.4135,-90.1127 897.9587,-80.0203"/>
<polygon fill="#191970" stroke="#191970" points="899.7261,-83.0517 907.1584,-75.5011 896.6397,-76.7688 899.7261,-83.0517"/>
</g>
<!-- Node23&#45;&gt;Node21 -->
<g id="edge30" class="edge">
<title>Node23&#45;&gt;Node21</title>
<path fill="none" stroke="#191970" d="M914.1327,-112.2455C903.5446,-103.8943 888.0936,-91.7076 875.7107,-81.9408"/>
<polygon fill="#191970" stroke="#191970" points="877.7447,-79.0875 867.7255,-75.6427 873.4097,-84.5837 877.7447,-79.0875"/>
</g>
<!-- Node23&#45;&gt;Node22 -->
<g id="edge29" class="edge">
<title>Node23&#45;&gt;Node22</title>
<path fill="none" stroke="#191970" d="M926.5,-112.2455C926.5,-104.9382 926.5,-94.6944 926.5,-85.7046"/>
<polygon fill="#191970" stroke="#191970" points="930.0001,-85.6426 926.5,-75.6427 923.0001,-85.6427 930.0001,-85.6426"/>
</g>
<!-- Node24 -->
<g id="node24" class="node">
<title>Node24</title>
<g id="a_node24"><a xlink:title=" ">
<polygon fill="#ffffff" stroke="#bfbfbf" points="972.5,-56.5 972.5,-75.5 1042.5,-75.5 1042.5,-56.5 972.5,-56.5"/>
<text text-anchor="middle" x="1007.5" y="-63.5" font-family="Helvetica,sans-Serif" font-size="10.00" fill="#000000">QGroupBox</text>
</a>
</g>
</g>
<!-- Node23&#45;&gt;Node24 -->
<g id="edge31" class="edge">
<title>Node23&#45;&gt;Node24</title>
<path fill="none" stroke="#191970" d="M940.6091,-112.2455C952.9209,-103.7337 970.9958,-91.2375 985.2538,-81.3801"/>
<polygon fill="#191970" stroke="#191970" points="987.3174,-84.2085 993.5526,-75.6427 983.3366,-78.4506 987.3174,-84.2085"/>
</g>
<!-- Node25 -->
<g id="node25" class="node">
<title>Node25</title>
<g id="a_node25"><a xlink:title=" ">
<polygon fill="#ffffff" stroke="#bfbfbf" points="1060.5,-56.5 1060.5,-75.5 1134.5,-75.5 1134.5,-56.5 1060.5,-56.5"/>
<text text-anchor="middle" x="1097.5" y="-63.5" font-family="Helvetica,sans-Serif" font-size="10.00" fill="#000000">QGridLayout</text>
</a>
</g>
</g>
<!-- Node23&#45;&gt;Node25 -->
<g id="edge32" class="edge">
<title>Node23&#45;&gt;Node25</title>
<path fill="none" stroke="#191970" d="M955.8959,-112.3733C984.3307,-103.0613 1027.5877,-88.8953 1058.8081,-78.671"/>
<polygon fill="#191970" stroke="#191970" points="1060.0736,-81.9396 1068.4876,-75.5011 1057.895,-75.2872 1060.0736,-81.9396"/>
</g>
</g>
</svg>
