<?xml version="1.0" encoding="UTF-8" standalone="no"?>
<!DOCTYPE svg PUBLIC "-//W3C//DTD SVG 1.1//EN"
 "http://www.w3.org/Graphics/SVG/1.1/DTD/svg11.dtd">
<!-- Generated by graphviz version 2.40.1 (20161225.0304)
 -->
<!-- Title: src/application_server/view.cpp Pages: 1 -->
<svg width="1311pt" height="375pt"
 viewBox="0.00 0.00 1310.50 375.00" xmlns="http://www.w3.org/2000/svg" xmlns:xlink="http://www.w3.org/1999/xlink">
<g id="graph0" class="graph" transform="scale(1 1) rotate(0) translate(4 371)">
<title>src/application_server/view.cpp</title>
<polygon fill="#ffffff" stroke="transparent" points="-4,4 -4,-371 1306.5,-371 1306.5,4 -4,4"/>
<!-- Node1 -->
<g id="node1" class="node">
<title>Node1</title>
<g id="a_node1"><a xlink:title=" ">
<polygon fill="#bfbfbf" stroke="#000000" points="858,-336.5 858,-366.5 973,-366.5 973,-336.5 858,-336.5"/>
<text text-anchor="start" x="866" y="-354.5" font-family="Helvetica,sans-Serif" font-size="10.00" fill="#000000">src/application_server</text>
<text text-anchor="middle" x="915.5" y="-343.5" font-family="Helvetica,sans-Serif" font-size="10.00" fill="#000000">/view.cpp</text>
</a>
</g>
</g>
<!-- Node2 -->
<g id="node2" class="node">
<title>Node2</title>
<g id="a_node2"><a xlink:href="view_8h.html" target="_top" xlink:title=" ">
<polygon fill="#ffffff" stroke="#000000" points="585,-280.5 585,-299.5 630,-299.5 630,-280.5 585,-280.5"/>
<text text-anchor="middle" x="607.5" y="-287.5" font-family="Helvetica,sans-Serif" font-size="10.00" fill="#000000">view.h</text>
</a>
</g>
</g>
<!-- Node1&#45;&gt;Node2 -->
<g id="edge1" class="edge">
<title>Node1&#45;&gt;Node2</title>
<path fill="none" stroke="#191970" d="M857.9856,-342.8062C804.0492,-334.1941 721.0368,-319.7645 640.0022,-299.8874"/>
<polygon fill="#191970" stroke="#191970" points="640.6806,-296.4496 630.1318,-297.4364 638.9935,-303.2433 640.6806,-296.4496"/>
</g>
<!-- Node7 -->
<g id="node7" class="node">
<title>Node7</title>
<g id="a_node7"><a xlink:title=" ">
<polygon fill="#ffffff" stroke="#bfbfbf" points="0,-168.5 0,-187.5 83,-187.5 83,-168.5 0,-168.5"/>
<text text-anchor="middle" x="41.5" y="-175.5" font-family="Helvetica,sans-Serif" font-size="10.00" fill="#000000">QGraphicsItem</text>
</a>
</g>
</g>
<!-- Node1&#45;&gt;Node7 -->
<g id="edge40" class="edge">
<title>Node1&#45;&gt;Node7</title>
<path fill="none" stroke="#191970" d="M857.8279,-344.0941C790.0166,-335.0791 674.1872,-318.7206 575.5,-300 394.4895,-265.663 181.6161,-213.425 88.776,-190.0462"/>
<polygon fill="#191970" stroke="#191970" points="89.4015,-186.5944 78.849,-187.5411 87.6886,-193.3816 89.4015,-186.5944"/>
</g>
<!-- Node28 -->
<g id="node28" class="node">
<title>Node28</title>
<g id="a_node28"><a xlink:title=" ">
<polygon fill="#ffffff" stroke="#bfbfbf" points="648.5,-280.5 648.5,-299.5 728.5,-299.5 728.5,-280.5 648.5,-280.5"/>
<text text-anchor="middle" x="688.5" y="-287.5" font-family="Helvetica,sans-Serif" font-size="10.00" fill="#000000">QMouseEvent</text>
</a>
</g>
</g>
<!-- Node1&#45;&gt;Node28 -->
<g id="edge36" class="edge">
<title>Node1&#45;&gt;Node28</title>
<path fill="none" stroke="#191970" d="M859.9696,-336.4554C821.0973,-325.9239 769.8243,-312.0328 733.5024,-302.1923"/>
<polygon fill="#191970" stroke="#191970" points="734.2443,-298.7672 723.6769,-299.5303 732.4137,-305.5236 734.2443,-298.7672"/>
</g>
<!-- Node29 -->
<g id="node29" class="node">
<title>Node29</title>
<g id="a_node29"><a xlink:title=" ">
<polygon fill="#ffffff" stroke="#bfbfbf" points="746.5,-280.5 746.5,-299.5 800.5,-299.5 800.5,-280.5 746.5,-280.5"/>
<text text-anchor="middle" x="773.5" y="-287.5" font-family="Helvetica,sans-Serif" font-size="10.00" fill="#000000">QDebug</text>
</a>
</g>
</g>
<!-- Node1&#45;&gt;Node29 -->
<g id="edge37" class="edge">
<title>Node1&#45;&gt;Node29</title>
<path fill="none" stroke="#191970" d="M880.7629,-336.4554C857.5894,-326.419 827.3708,-313.3314 804.9158,-303.6061"/>
<polygon fill="#191970" stroke="#191970" points="806.0723,-300.2929 795.505,-299.5303 803.2903,-306.7164 806.0723,-300.2929"/>
</g>
<!-- Node30 -->
<g id="node30" class="node">
<title>Node30</title>
<g id="a_node30"><a xlink:title=" ">
<polygon fill="#ffffff" stroke="#bfbfbf" points="819,-280.5 819,-299.5 872,-299.5 872,-280.5 819,-280.5"/>
<text text-anchor="middle" x="845.5" y="-287.5" font-family="Helvetica,sans-Serif" font-size="10.00" fill="#000000">QPointF</text>
</a>
</g>
</g>
<!-- Node1&#45;&gt;Node30 -->
<g id="edge38" class="edge">
<title>Node1&#45;&gt;Node30</title>
<path fill="none" stroke="#191970" d="M898.1966,-336.2977C887.9738,-327.3163 875.0177,-315.9334 864.5104,-306.702"/>
<polygon fill="#191970" stroke="#191970" points="866.5305,-303.8178 856.7079,-299.8469 861.9103,-309.0766 866.5305,-303.8178"/>
</g>
<!-- Node31 -->
<g id="node31" class="node">
<title>Node31</title>
<g id="a_node31"><a xlink:title=" ">
<polygon fill="#ffffff" stroke="#bfbfbf" points="890.5,-280.5 890.5,-299.5 940.5,-299.5 940.5,-280.5 890.5,-280.5"/>
<text text-anchor="middle" x="915.5" y="-287.5" font-family="Helvetica,sans-Serif" font-size="10.00" fill="#000000">QString</text>
</a>
</g>
</g>
<!-- Node1&#45;&gt;Node31 -->
<g id="edge39" class="edge">
<title>Node1&#45;&gt;Node31</title>
<path fill="none" stroke="#191970" d="M915.5,-336.2977C915.5,-328.3834 915.5,-318.6043 915.5,-310.0759"/>
<polygon fill="#191970" stroke="#191970" points="919.0001,-309.8469 915.5,-299.8469 912.0001,-309.847 919.0001,-309.8469"/>
</g>
<!-- Node32 -->
<g id="node32" class="node">
<title>Node32</title>
<g id="a_node32"><a xlink:title=" ">
<polygon fill="#ffffff" stroke="#bfbfbf" points="959,-280.5 959,-299.5 1010,-299.5 1010,-280.5 959,-280.5"/>
<text text-anchor="middle" x="984.5" y="-287.5" font-family="Helvetica,sans-Serif" font-size="10.00" fill="#000000">QTimer</text>
</a>
</g>
</g>
<!-- Node1&#45;&gt;Node32 -->
<g id="edge41" class="edge">
<title>Node1&#45;&gt;Node32</title>
<path fill="none" stroke="#191970" d="M932.5562,-336.2977C942.6329,-327.3163 955.404,-315.9334 965.7611,-306.702"/>
<polygon fill="#191970" stroke="#191970" points="968.3159,-309.1135 973.4522,-299.8469 963.6583,-303.8879 968.3159,-309.1135"/>
</g>
<!-- Node33 -->
<g id="node33" class="node">
<title>Node33</title>
<g id="a_node33"><a xlink:title=" ">
<polygon fill="#ffffff" stroke="#bfbfbf" points="1028,-280.5 1028,-299.5 1113,-299.5 1113,-280.5 1028,-280.5"/>
<text text-anchor="middle" x="1070.5" y="-287.5" font-family="Helvetica,sans-Serif" font-size="10.00" fill="#000000">QMessageBox</text>
</a>
</g>
</g>
<!-- Node1&#45;&gt;Node33 -->
<g id="edge42" class="edge">
<title>Node1&#45;&gt;Node33</title>
<path fill="none" stroke="#191970" d="M953.4173,-336.4554C978.9391,-326.329 1012.2896,-313.0964 1036.8656,-303.3453"/>
<polygon fill="#191970" stroke="#191970" points="1038.4763,-306.4717 1046.4805,-299.5303 1035.8946,-299.9651 1038.4763,-306.4717"/>
</g>
<!-- Node34 -->
<g id="node34" class="node">
<title>Node34</title>
<g id="a_node34"><a xlink:title=" ">
<polygon fill="#ffffff" stroke="#bfbfbf" points="1131,-280.5 1131,-299.5 1174,-299.5 1174,-280.5 1131,-280.5"/>
<text text-anchor="middle" x="1152.5" y="-287.5" font-family="Helvetica,sans-Serif" font-size="10.00" fill="#000000">QIcon</text>
</a>
</g>
</g>
<!-- Node1&#45;&gt;Node34 -->
<g id="edge43" class="edge">
<title>Node1&#45;&gt;Node34</title>
<path fill="none" stroke="#191970" d="M973.3752,-338.3762C1012.7025,-329.1665 1066.0755,-316.1017 1121.0216,-300.2898"/>
<polygon fill="#191970" stroke="#191970" points="1122.3055,-303.5617 1130.933,-297.4122 1120.3537,-296.8393 1122.3055,-303.5617"/>
</g>
<!-- Node35 -->
<g id="node35" class="node">
<title>Node35</title>
<g id="a_node35"><a xlink:title=" ">
<polygon fill="#ffffff" stroke="#bfbfbf" points="1192.5,-280.5 1192.5,-299.5 1248.5,-299.5 1248.5,-280.5 1192.5,-280.5"/>
<text text-anchor="middle" x="1220.5" y="-287.5" font-family="Helvetica,sans-Serif" font-size="10.00" fill="#000000">QPalette</text>
</a>
</g>
</g>
<!-- Node1&#45;&gt;Node35 -->
<g id="edge44" class="edge">
<title>Node1&#45;&gt;Node35</title>
<path fill="none" stroke="#191970" d="M973.0044,-341.7218C1025.2167,-332.5558 1104.5335,-317.9163 1182.3045,-300.156"/>
<polygon fill="#191970" stroke="#191970" points="1183.3132,-303.5154 1192.2725,-297.8602 1181.7421,-296.694 1183.3132,-303.5154"/>
</g>
<!-- Node36 -->
<g id="node36" class="node">
<title>Node36</title>
<g id="a_node36"><a xlink:title=" ">
<polygon fill="#ffffff" stroke="#bfbfbf" points="1266.5,-280.5 1266.5,-299.5 1302.5,-299.5 1302.5,-280.5 1266.5,-280.5"/>
<text text-anchor="middle" x="1284.5" y="-287.5" font-family="Helvetica,sans-Serif" font-size="10.00" fill="#000000">QUrl</text>
</a>
</g>
</g>
<!-- Node1&#45;&gt;Node36 -->
<g id="edge45" class="edge">
<title>Node1&#45;&gt;Node36</title>
<path fill="none" stroke="#191970" d="M973.1017,-346.4684C1039.5872,-339.8535 1152.1585,-326.1713 1256.6052,-299.801"/>
<polygon fill="#191970" stroke="#191970" points="1257.5475,-303.1727 1266.3618,-297.294 1255.8053,-296.3929 1257.5475,-303.1727"/>
</g>
<!-- Node3 -->
<g id="node3" class="node">
<title>Node3</title>
<g id="a_node3"><a xlink:title=" ">
<polygon fill="#ffffff" stroke="#bfbfbf" points="674,-224.5 674,-243.5 761,-243.5 761,-224.5 674,-224.5"/>
<text text-anchor="middle" x="717.5" y="-231.5" font-family="Helvetica,sans-Serif" font-size="10.00" fill="#000000">QGraphicsView</text>
</a>
</g>
</g>
<!-- Node2&#45;&gt;Node3 -->
<g id="edge2" class="edge">
<title>Node2&#45;&gt;Node3</title>
<path fill="none" stroke="#191970" d="M626.6605,-280.2455C644.0111,-271.4125 669.7901,-258.2887 689.4583,-248.2758"/>
<polygon fill="#191970" stroke="#191970" points="691.2353,-251.2986 698.559,-243.6427 688.0595,-245.0605 691.2353,-251.2986"/>
</g>
<!-- Node4 -->
<g id="node4" class="node">
<title>Node4</title>
<g id="a_node4"><a xlink:href="scene_8h.html" target="_top" xlink:title=" ">
<polygon fill="#ffffff" stroke="#000000" points="362.5,-224.5 362.5,-243.5 414.5,-243.5 414.5,-224.5 362.5,-224.5"/>
<text text-anchor="middle" x="388.5" y="-231.5" font-family="Helvetica,sans-Serif" font-size="10.00" fill="#000000">scene.h</text>
</a>
</g>
</g>
<!-- Node2&#45;&gt;Node4 -->
<g id="edge3" class="edge">
<title>Node2&#45;&gt;Node4</title>
<path fill="none" stroke="#191970" d="M584.888,-284.2179C546.8891,-274.5013 469.9293,-254.8221 424.4504,-243.1928"/>
<polygon fill="#191970" stroke="#191970" points="425.2578,-239.7867 414.7024,-240.7002 423.5236,-246.5685 425.2578,-239.7867"/>
</g>
<!-- Node19 -->
<g id="node19" class="node">
<title>Node19</title>
<g id="a_node19"><a xlink:href="datamodel_8h.html" target="_top" xlink:title=" ">
<polygon fill="#ffffff" stroke="#000000" points="736,-168.5 736,-187.5 809,-187.5 809,-168.5 736,-168.5"/>
<text text-anchor="middle" x="772.5" y="-175.5" font-family="Helvetica,sans-Serif" font-size="10.00" fill="#000000">datamodel.h</text>
</a>
</g>
</g>
<!-- Node2&#45;&gt;Node19 -->
<g id="edge30" class="edge">
<title>Node2&#45;&gt;Node19</title>
<path fill="none" stroke="#191970" d="M608.4187,-280.0371C610.2681,-265.6882 615.7245,-239.2569 631.5,-224 645.2461,-210.7057 690.5085,-197.3526 726.087,-188.4845"/>
<polygon fill="#191970" stroke="#191970" points="726.9462,-191.8776 735.8309,-186.1059 725.2862,-185.0773 726.9462,-191.8776"/>
</g>
<!-- Node25 -->
<g id="node25" class="node">
<title>Node25</title>
<g id="a_node25"><a xlink:href="tooltipmenu_8h.html" target="_top" xlink:title=" ">
<polygon fill="#ffffff" stroke="#000000" points="827,-168.5 827,-187.5 902,-187.5 902,-168.5 827,-168.5"/>
<text text-anchor="middle" x="864.5" y="-175.5" font-family="Helvetica,sans-Serif" font-size="10.00" fill="#000000">tooltipmenu.h</text>
</a>
</g>
</g>
<!-- Node2&#45;&gt;Node25 -->
<g id="edge31" class="edge">
<title>Node2&#45;&gt;Node25</title>
<path fill="none" stroke="#191970" d="M613.1184,-280.2085C622.0454,-265.5796 640.8979,-238.2202 664.5,-224 671.0855,-220.0322 759.7399,-200.4971 816.7813,-188.1949"/>
<polygon fill="#191970" stroke="#191970" points="817.6499,-191.5882 826.6894,-186.0621 816.1767,-184.7449 817.6499,-191.5882"/>
</g>
<!-- Node5 -->
<g id="node5" class="node">
<title>Node5</title>
<g id="a_node5"><a xlink:title=" ">
<polygon fill="#ffffff" stroke="#bfbfbf" points="463.5,-168.5 463.5,-187.5 557.5,-187.5 557.5,-168.5 463.5,-168.5"/>
<text text-anchor="middle" x="510.5" y="-175.5" font-family="Helvetica,sans-Serif" font-size="10.00" fill="#000000">QGraphicsScene</text>
</a>
</g>
</g>
<!-- Node4&#45;&gt;Node5 -->
<g id="edge4" class="edge">
<title>Node4&#45;&gt;Node5</title>
<path fill="none" stroke="#191970" d="M409.4725,-224.3733C429.0567,-215.3838 458.4961,-201.8706 480.551,-191.7471"/>
<polygon fill="#191970" stroke="#191970" points="482.1729,-194.8538 489.8011,-187.5011 479.2527,-188.4919 482.1729,-194.8538"/>
</g>
<!-- Node6 -->
<g id="node6" class="node">
<title>Node6</title>
<g id="a_node6"><a xlink:title=" ">
<polygon fill="#ffffff" stroke="#bfbfbf" points="575.5,-168.5 575.5,-187.5 679.5,-187.5 679.5,-168.5 575.5,-168.5"/>
<text text-anchor="middle" x="627.5" y="-175.5" font-family="Helvetica,sans-Serif" font-size="10.00" fill="#000000">QGraphicsTextItem</text>
</a>
</g>
</g>
<!-- Node4&#45;&gt;Node6 -->
<g id="edge5" class="edge">
<title>Node4&#45;&gt;Node6</title>
<path fill="none" stroke="#191970" d="M414.5322,-227.9004C453.3549,-218.8039 527.1691,-201.5085 576.8637,-189.8646"/>
<polygon fill="#191970" stroke="#191970" points="577.834,-193.2321 586.7718,-187.543 576.237,-186.4167 577.834,-193.2321"/>
</g>
<!-- Node4&#45;&gt;Node7 -->
<g id="edge6" class="edge">
<title>Node4&#45;&gt;Node7</title>
<path fill="none" stroke="#191970" d="M362.3864,-230.0506C311.4109,-222.3016 195.099,-204.4265 97.5,-188 96.0391,-187.7541 94.5572,-187.5027 93.0617,-187.2473"/>
<polygon fill="#191970" stroke="#191970" points="93.5242,-183.7754 83.0739,-185.5189 92.3306,-190.6729 93.5242,-183.7754"/>
</g>
<!-- Node8 -->
<g id="node8" class="node">
<title>Node8</title>
<g id="a_node8"><a xlink:title=" ">
<polygon fill="#ffffff" stroke="#bfbfbf" points="235.5,-.5 235.5,-19.5 339.5,-19.5 339.5,-.5 235.5,-.5"/>
<text text-anchor="middle" x="287.5" y="-7.5" font-family="Helvetica,sans-Serif" font-size="10.00" fill="#000000">QGraphicsRectItem</text>
</a>
</g>
</g>
<!-- Node4&#45;&gt;Node8 -->
<g id="edge7" class="edge">
<title>Node4&#45;&gt;Node8</title>
<path fill="none" stroke="#191970" d="M362.4864,-231.7414C324.1009,-227.5608 250.8601,-216.2999 195.5,-188 161.5474,-170.6435 146.3898,-166.6632 130.5,-132 121.3976,-112.1433 134.2972,-65.0315 142.5,-56 154.7132,-42.5528 195.6714,-30.2746 230.9545,-21.7921"/>
<polygon fill="#191970" stroke="#191970" points="231.7891,-25.1914 240.727,-19.5025 230.1922,-18.376 231.7891,-25.1914"/>
</g>
<!-- Node9 -->
<g id="node9" class="node">
<title>Node9</title>
<g id="a_node9"><a xlink:title=" ">
<polygon fill="#ffffff" stroke="#bfbfbf" points="332,-168.5 332,-187.5 445,-187.5 445,-168.5 332,-168.5"/>
<text text-anchor="middle" x="388.5" y="-175.5" font-family="Helvetica,sans-Serif" font-size="10.00" fill="#000000">QGraphicsEllipseItem</text>
</a>
</g>
</g>
<!-- Node4&#45;&gt;Node9 -->
<g id="edge8" class="edge">
<title>Node4&#45;&gt;Node9</title>
<path fill="none" stroke="#191970" d="M388.5,-224.2455C388.5,-216.9382 388.5,-206.6944 388.5,-197.7046"/>
<polygon fill="#191970" stroke="#191970" points="392.0001,-197.6426 388.5,-187.6427 385.0001,-197.6427 392.0001,-197.6426"/>
</g>
<!-- Node10 -->
<g id="node10" class="node">
<title>Node10</title>
<g id="a_node10"><a xlink:href="maptile_8h.html" target="_top" xlink:title=" ">
<polygon fill="#ffffff" stroke="#000000" points="219.5,-168.5 219.5,-187.5 275.5,-187.5 275.5,-168.5 219.5,-168.5"/>
<text text-anchor="middle" x="247.5" y="-175.5" font-family="Helvetica,sans-Serif" font-size="10.00" fill="#000000">maptile.h</text>
</a>
</g>
</g>
<!-- Node4&#45;&gt;Node10 -->
<g id="edge9" class="edge">
<title>Node4&#45;&gt;Node10</title>
<path fill="none" stroke="#191970" d="M364.2612,-224.3733C341.2211,-215.2226 306.3786,-201.3844 280.7499,-191.2057"/>
<polygon fill="#191970" stroke="#191970" points="282.0082,-187.9395 271.4225,-187.5011 279.4244,-194.4452 282.0082,-187.9395"/>
</g>
<!-- Node14 -->
<g id="node14" class="node">
<title>Node14</title>
<g id="a_node14"><a xlink:href="graphicsmanager_8h.html" target="_top" xlink:title=" ">
<polygon fill="#ffffff" stroke="#000000" points="140,-112.5 140,-131.5 243,-131.5 243,-112.5 140,-112.5"/>
<text text-anchor="middle" x="191.5" y="-119.5" font-family="Helvetica,sans-Serif" font-size="10.00" fill="#000000">graphicsmanager.h</text>
</a>
</g>
</g>
<!-- Node4&#45;&gt;Node14 -->
<g id="edge17" class="edge">
<title>Node4&#45;&gt;Node14</title>
<path fill="none" stroke="#191970" d="M362.3977,-230.4677C318.378,-224.003 232.0612,-208.9782 210.5,-188 198.1055,-175.9407 193.6566,-156.3622 192.1285,-141.6548"/>
<polygon fill="#191970" stroke="#191970" points="195.6128,-141.3037 191.446,-131.5626 188.6288,-141.776 195.6128,-141.3037"/>
</g>
<!-- Node17 -->
<g id="node17" class="node">
<title>Node17</title>
<g id="a_node17"><a xlink:href="player_8h.html" target="_top" xlink:title=" ">
<polygon fill="#ffffff" stroke="#000000" points="586.5,-112.5 586.5,-131.5 638.5,-131.5 638.5,-112.5 586.5,-112.5"/>
<text text-anchor="middle" x="612.5" y="-119.5" font-family="Helvetica,sans-Serif" font-size="10.00" fill="#000000">player.h</text>
</a>
</g>
</g>
<!-- Node4&#45;&gt;Node17 -->
<g id="edge18" class="edge">
<title>Node4&#45;&gt;Node17</title>
<path fill="none" stroke="#191970" d="M414.5543,-231.9268C484.2099,-226.1221 670.6753,-208.7661 688.5,-188 705.9105,-167.7164 675.3806,-148.1086 647.9849,-135.6108"/>
<polygon fill="#191970" stroke="#191970" points="649.0758,-132.2688 638.5091,-131.4972 646.2883,-138.6899 649.0758,-132.2688"/>
</g>
<!-- Node18 -->
<g id="node18" class="node">
<title>Node18</title>
<g id="a_node18"><a xlink:href="highlighter_8h.html" target="_top" xlink:title=" ">
<polygon fill="#ffffff" stroke="#000000" points="441.5,-56.5 441.5,-75.5 511.5,-75.5 511.5,-56.5 441.5,-56.5"/>
<text text-anchor="middle" x="476.5" y="-63.5" font-family="Helvetica,sans-Serif" font-size="10.00" fill="#000000">highlighter.h</text>
</a>
</g>
</g>
<!-- Node4&#45;&gt;Node18 -->
<g id="edge21" class="edge">
<title>Node4&#45;&gt;Node18</title>
<path fill="none" stroke="#191970" d="M366.0244,-224.3498C340.9471,-212.1985 305.9339,-190.2125 322.5,-168 356.0435,-123.0235 400.5204,-168.0666 443.5,-132 457.872,-119.9397 466.6002,-100.078 471.4385,-85.288"/>
<polygon fill="#191970" stroke="#191970" points="474.8242,-86.1809 474.299,-75.5991 468.1106,-84.1988 474.8242,-86.1809"/>
</g>
<!-- Node4&#45;&gt;Node19 -->
<g id="edge22" class="edge">
<title>Node4&#45;&gt;Node19</title>
<path fill="none" stroke="#191970" d="M414.9094,-230.8654C471.3425,-224.0545 607.81,-206.983 721.5,-188 722.9462,-187.7585 724.4143,-187.5074 725.8956,-187.2489"/>
<polygon fill="#191970" stroke="#191970" points="726.5588,-190.6858 735.7739,-185.4578 725.3099,-183.7981 726.5588,-190.6858"/>
</g>
<!-- Node11 -->
<g id="node11" class="node">
<title>Node11</title>
<g id="a_node11"><a xlink:title=" ">
<polygon fill="#ffffff" stroke="#bfbfbf" points="261,-112.5 261,-131.5 378,-131.5 378,-112.5 261,-112.5"/>
<text text-anchor="middle" x="319.5" y="-119.5" font-family="Helvetica,sans-Serif" font-size="10.00" fill="#000000">QGraphicsPixmapItem</text>
</a>
</g>
</g>
<!-- Node10&#45;&gt;Node11 -->
<g id="edge10" class="edge">
<title>Node10&#45;&gt;Node11</title>
<path fill="none" stroke="#191970" d="M260.0414,-168.2455C270.7787,-159.8943 286.4473,-147.7076 299.0047,-137.9408"/>
<polygon fill="#191970" stroke="#191970" points="301.3575,-140.5449 307.1023,-131.6427 297.0599,-135.0194 301.3575,-140.5449"/>
</g>
<!-- Node12 -->
<g id="node12" class="node">
<title>Node12</title>
<g id="a_node12"><a xlink:href="city_8h.html" target="_top" xlink:title=" ">
<polygon fill="#ffffff" stroke="#000000" points="396,-112.5 396,-131.5 435,-131.5 435,-112.5 396,-112.5"/>
<text text-anchor="middle" x="415.5" y="-119.5" font-family="Helvetica,sans-Serif" font-size="10.00" fill="#000000">city.h</text>
</a>
</g>
</g>
<!-- Node10&#45;&gt;Node12 -->
<g id="edge11" class="edge">
<title>Node10&#45;&gt;Node12</title>
<path fill="none" stroke="#191970" d="M275.7538,-168.7641C301.9416,-160.1785 342.2229,-146.9094 386.1352,-132.0955"/>
<polygon fill="#191970" stroke="#191970" points="387.5026,-135.3279 395.8559,-128.8109 385.2617,-128.6963 387.5026,-135.3279"/>
</g>
<!-- Node10&#45;&gt;Node14 -->
<g id="edge13" class="edge">
<title>Node10&#45;&gt;Node14</title>
<path fill="none" stroke="#191970" d="M237.7455,-168.2455C229.6352,-160.1352 217.9075,-148.4075 208.2919,-138.7919"/>
<polygon fill="#191970" stroke="#191970" points="210.6887,-136.2389 201.1427,-131.6427 205.7389,-141.1887 210.6887,-136.2389"/>
</g>
<!-- Node13 -->
<g id="node13" class="node">
<title>Node13</title>
<g id="a_node13"><a xlink:title=" ">
<polygon fill="#ffffff" stroke="#bfbfbf" points="382,-56.5 382,-75.5 423,-75.5 423,-56.5 382,-56.5"/>
<text text-anchor="middle" x="402.5" y="-63.5" font-family="Helvetica,sans-Serif" font-size="10.00" fill="#000000">string</text>
</a>
</g>
</g>
<!-- Node12&#45;&gt;Node13 -->
<g id="edge12" class="edge">
<title>Node12&#45;&gt;Node13</title>
<path fill="none" stroke="#191970" d="M413.2356,-112.2455C411.5206,-104.8579 409.1088,-94.4689 407.0056,-85.4087"/>
<polygon fill="#191970" stroke="#191970" points="410.4092,-84.5922 404.7385,-75.6427 403.5905,-86.1751 410.4092,-84.5922"/>
</g>
<!-- Node14&#45;&gt;Node13 -->
<g id="edge16" class="edge">
<title>Node14&#45;&gt;Node13</title>
<path fill="none" stroke="#191970" d="M227.7722,-112.3733C268.376,-101.5969 333.474,-84.3197 371.7013,-74.1741"/>
<polygon fill="#191970" stroke="#191970" points="372.9606,-77.4611 381.7281,-71.5129 371.1648,-70.6953 372.9606,-77.4611"/>
</g>
<!-- Node15 -->
<g id="node15" class="node">
<title>Node15</title>
<g id="a_node15"><a xlink:title=" ">
<polygon fill="#ffffff" stroke="#bfbfbf" points="151.5,-56.5 151.5,-75.5 209.5,-75.5 209.5,-56.5 151.5,-56.5"/>
<text text-anchor="middle" x="180.5" y="-63.5" font-family="Helvetica,sans-Serif" font-size="10.00" fill="#000000">QPixmap</text>
</a>
</g>
</g>
<!-- Node14&#45;&gt;Node15 -->
<g id="edge14" class="edge">
<title>Node14&#45;&gt;Node15</title>
<path fill="none" stroke="#191970" d="M189.5839,-112.2455C188.1486,-104.9382 186.1364,-94.6944 184.3705,-85.7046"/>
<polygon fill="#191970" stroke="#191970" points="187.756,-84.7805 182.3941,-75.6427 180.8873,-86.1298 187.756,-84.7805"/>
</g>
<!-- Node16 -->
<g id="node16" class="node">
<title>Node16</title>
<g id="a_node16"><a xlink:title=" ">
<polygon fill="#ffffff" stroke="#bfbfbf" points="228,-56.5 228,-75.5 281,-75.5 281,-56.5 228,-56.5"/>
<text text-anchor="middle" x="254.5" y="-63.5" font-family="Helvetica,sans-Serif" font-size="10.00" fill="#000000">QImage</text>
</a>
</g>
</g>
<!-- Node14&#45;&gt;Node16 -->
<g id="edge15" class="edge">
<title>Node14&#45;&gt;Node16</title>
<path fill="none" stroke="#191970" d="M202.4738,-112.2455C211.6882,-104.0549 225.0532,-92.1749 235.9297,-82.5069"/>
<polygon fill="#191970" stroke="#191970" points="238.5032,-84.9023 243.652,-75.6427 233.8526,-79.6704 238.5032,-84.9023"/>
</g>
<!-- Node17&#45;&gt;Node18 -->
<g id="edge19" class="edge">
<title>Node17&#45;&gt;Node18</title>
<path fill="none" stroke="#191970" d="M589.1208,-112.3733C566.9955,-103.2629 533.5866,-89.5062 508.8981,-79.3404"/>
<polygon fill="#191970" stroke="#191970" points="510.1536,-76.0723 499.5742,-75.5011 507.4883,-82.5451 510.1536,-76.0723"/>
</g>
<!-- Node18&#45;&gt;Node8 -->
<g id="edge20" class="edge">
<title>Node18&#45;&gt;Node8</title>
<path fill="none" stroke="#191970" d="M444.0097,-56.3733C412.3098,-46.9807 363.9424,-32.6496 329.3714,-22.4064"/>
<polygon fill="#191970" stroke="#191970" points="330.1486,-18.9863 319.5663,-19.5011 328.1599,-25.6979 330.1486,-18.9863"/>
</g>
<!-- Node19&#45;&gt;Node13 -->
<g id="edge23" class="edge">
<title>Node19&#45;&gt;Node13</title>
<path fill="none" stroke="#191970" d="M735.8266,-170.8238C696.3497,-162.7577 631.895,-148.5975 577.5,-132 525.7715,-116.2162 467.2756,-93.0327 432.7153,-78.7597"/>
<polygon fill="#191970" stroke="#191970" points="433.7875,-75.4151 423.21,-74.8091 431.1009,-81.879 433.7875,-75.4151"/>
</g>
<!-- Node19&#45;&gt;Node17 -->
<g id="edge29" class="edge">
<title>Node19&#45;&gt;Node17</title>
<path fill="none" stroke="#191970" d="M744.995,-168.3733C718.1835,-158.9892 677.2877,-144.6757 648.0267,-134.4343"/>
<polygon fill="#191970" stroke="#191970" points="649.1814,-131.1304 638.5866,-131.1303 646.8689,-137.7374 649.1814,-131.1304"/>
</g>
<!-- Node20 -->
<g id="node20" class="node">
<title>Node20</title>
<g id="a_node20"><a xlink:title=" ">
<polygon fill="#ffffff" stroke="#bfbfbf" points="829,-112.5 829,-131.5 878,-131.5 878,-112.5 829,-112.5"/>
<text text-anchor="middle" x="853.5" y="-119.5" font-family="Helvetica,sans-Serif" font-size="10.00" fill="#000000">QLabel</text>
</a>
</g>
</g>
<!-- Node19&#45;&gt;Node20 -->
<g id="edge24" class="edge">
<title>Node19&#45;&gt;Node20</title>
<path fill="none" stroke="#191970" d="M786.6091,-168.2455C798.9209,-159.7337 816.9958,-147.2375 831.2538,-137.3801"/>
<polygon fill="#191970" stroke="#191970" points="833.3174,-140.2085 839.5526,-131.6427 829.3366,-134.4506 833.3174,-140.2085"/>
</g>
<!-- Node21 -->
<g id="node21" class="node">
<title>Node21</title>
<g id="a_node21"><a xlink:title=" ">
<polygon fill="#ffffff" stroke="#bfbfbf" points="754.5,-112.5 754.5,-131.5 810.5,-131.5 810.5,-112.5 754.5,-112.5"/>
<text text-anchor="middle" x="782.5" y="-119.5" font-family="Helvetica,sans-Serif" font-size="10.00" fill="#000000">QWidget</text>
</a>
</g>
</g>
<!-- Node19&#45;&gt;Node21 -->
<g id="edge25" class="edge">
<title>Node19&#45;&gt;Node21</title>
<path fill="none" stroke="#191970" d="M774.2419,-168.2455C775.5467,-160.9382 777.376,-150.6944 778.9813,-141.7046"/>
<polygon fill="#191970" stroke="#191970" points="782.4656,-142.1022 780.7781,-131.6427 775.5746,-140.8717 782.4656,-142.1022"/>
</g>
<!-- Node22 -->
<g id="node22" class="node">
<title>Node22</title>
<g id="a_node22"><a xlink:href="mainwindow_8h.html" target="_top" xlink:title=" ">
<polygon fill="#ffffff" stroke="#000000" points="656.5,-112.5 656.5,-131.5 736.5,-131.5 736.5,-112.5 656.5,-112.5"/>
<text text-anchor="middle" x="696.5" y="-119.5" font-family="Helvetica,sans-Serif" font-size="10.00" fill="#000000">mainwindow.h</text>
</a>
</g>
</g>
<!-- Node19&#45;&gt;Node22 -->
<g id="edge26" class="edge">
<title>Node19&#45;&gt;Node22</title>
<path fill="none" stroke="#191970" d="M759.2618,-168.2455C747.819,-159.814 731.0704,-147.4729 717.7525,-137.6598"/>
<polygon fill="#191970" stroke="#191970" points="719.7133,-134.757 709.5865,-131.6427 715.5609,-140.3924 719.7133,-134.757"/>
</g>
<!-- Node23 -->
<g id="node23" class="node">
<title>Node23</title>
<g id="a_node23"><a xlink:title=" ">
<polygon fill="#ffffff" stroke="#bfbfbf" points="701,-56.5 701,-75.5 784,-75.5 784,-56.5 701,-56.5"/>
<text text-anchor="middle" x="742.5" y="-63.5" font-family="Helvetica,sans-Serif" font-size="10.00" fill="#000000">QMainWindow</text>
</a>
</g>
</g>
<!-- Node22&#45;&gt;Node23 -->
<g id="edge27" class="edge">
<title>Node22&#45;&gt;Node23</title>
<path fill="none" stroke="#191970" d="M704.5126,-112.2455C710.9768,-104.3761 720.2385,-93.101 727.9983,-83.6542"/>
<polygon fill="#191970" stroke="#191970" points="730.9364,-85.5916 734.5792,-75.6427 725.5273,-81.1484 730.9364,-85.5916"/>
</g>
<!-- Node24 -->
<g id="node24" class="node">
<title>Node24</title>
<g id="a_node24"><a xlink:title=" ">
<polygon fill="#ffffff" stroke="#bfbfbf" points="616,-56.5 616,-75.5 683,-75.5 683,-56.5 616,-56.5"/>
<text text-anchor="middle" x="649.5" y="-63.5" font-family="Helvetica,sans-Serif" font-size="10.00" fill="#000000">QKeyEvent</text>
</a>
</g>
</g>
<!-- Node22&#45;&gt;Node24 -->
<g id="edge28" class="edge">
<title>Node22&#45;&gt;Node24</title>
<path fill="none" stroke="#191970" d="M688.3132,-112.2455C681.6411,-104.2958 672.0521,-92.8706 664.0747,-83.3656"/>
<polygon fill="#191970" stroke="#191970" points="666.7026,-81.0524 657.593,-75.6427 661.3408,-85.5525 666.7026,-81.0524"/>
</g>
<!-- Node25&#45;&gt;Node20 -->
<g id="edge33" class="edge">
<title>Node25&#45;&gt;Node20</title>
<path fill="none" stroke="#191970" d="M862.5839,-168.2455C861.1486,-160.9382 859.1364,-150.6944 857.3705,-141.7046"/>
<polygon fill="#191970" stroke="#191970" points="860.756,-140.7805 855.3941,-131.6427 853.8873,-142.1298 860.756,-140.7805"/>
</g>
<!-- Node25&#45;&gt;Node21 -->
<g id="edge32" class="edge">
<title>Node25&#45;&gt;Node21</title>
<path fill="none" stroke="#191970" d="M850.2167,-168.2455C837.753,-159.7337 819.4549,-147.2375 805.0208,-137.3801"/>
<polygon fill="#191970" stroke="#191970" points="806.8515,-134.392 796.6196,-131.6427 802.9038,-140.1726 806.8515,-134.392"/>
</g>
<!-- Node26 -->
<g id="node26" class="node">
<title>Node26</title>
<g id="a_node26"><a xlink:title=" ">
<polygon fill="#ffffff" stroke="#bfbfbf" points="896.5,-112.5 896.5,-131.5 966.5,-131.5 966.5,-112.5 896.5,-112.5"/>
<text text-anchor="middle" x="931.5" y="-119.5" font-family="Helvetica,sans-Serif" font-size="10.00" fill="#000000">QGroupBox</text>
</a>
</g>
</g>
<!-- Node25&#45;&gt;Node26 -->
<g id="edge34" class="edge">
<title>Node25&#45;&gt;Node26</title>
<path fill="none" stroke="#191970" d="M876.1705,-168.2455C886.0661,-159.9746 900.4627,-147.9416 912.0901,-138.2232"/>
<polygon fill="#191970" stroke="#191970" points="914.535,-140.7413 919.9632,-131.6427 910.0458,-135.3703 914.535,-140.7413"/>
</g>
<!-- Node27 -->
<g id="node27" class="node">
<title>Node27</title>
<g id="a_node27"><a xlink:title=" ">
<polygon fill="#ffffff" stroke="#bfbfbf" points="984.5,-112.5 984.5,-131.5 1058.5,-131.5 1058.5,-112.5 984.5,-112.5"/>
<text text-anchor="middle" x="1021.5" y="-119.5" font-family="Helvetica,sans-Serif" font-size="10.00" fill="#000000">QGridLayout</text>
</a>
</g>
</g>
<!-- Node25&#45;&gt;Node27 -->
<g id="edge35" class="edge">
<title>Node25&#45;&gt;Node27</title>
<path fill="none" stroke="#191970" d="M891.4893,-168.3733C917.3699,-159.1419 956.6248,-145.1402 985.2289,-134.9375"/>
<polygon fill="#191970" stroke="#191970" points="986.62,-138.1573 994.8629,-131.5011 984.2683,-131.5642 986.62,-138.1573"/>
</g>
</g>
</svg>
