<?xml version="1.0" encoding="UTF-8" standalone="no"?>
<!DOCTYPE svg PUBLIC "-//W3C//DTD SVG 1.1//EN"
 "http://www.w3.org/Graphics/SVG/1.1/DTD/svg11.dtd">
<!-- Generated by graphviz version 2.40.1 (20161225.0304)
 -->
<!-- Title: src/application_server/view.h Pages: 1 -->
<svg width="1046pt" height="319pt"
 viewBox="0.00 0.00 1045.50 319.00" xmlns="http://www.w3.org/2000/svg" xmlns:xlink="http://www.w3.org/1999/xlink">
<g id="graph0" class="graph" transform="scale(1 1) rotate(0) translate(4 315)">
<title>src/application_server/view.h</title>
<polygon fill="#ffffff" stroke="transparent" points="-4,4 -4,-315 1041.5,-315 1041.5,4 -4,4"/>
<!-- Node1 -->
<g id="node1" class="node">
<title>Node1</title>
<g id="a_node1"><a xlink:title=" ">
<polygon fill="#bfbfbf" stroke="#000000" points="480,-280.5 480,-310.5 595,-310.5 595,-280.5 480,-280.5"/>
<text text-anchor="start" x="488" y="-298.5" font-family="Helvetica,sans-Serif" font-size="10.00" fill="#000000">src/application_server</text>
<text text-anchor="middle" x="537.5" y="-287.5" font-family="Helvetica,sans-Serif" font-size="10.00" fill="#000000">/view.h</text>
</a>
</g>
</g>
<!-- Node2 -->
<g id="node2" class="node">
<title>Node2</title>
<g id="a_node2"><a xlink:title=" ">
<polygon fill="#ffffff" stroke="#bfbfbf" points="309,-224.5 309,-243.5 396,-243.5 396,-224.5 309,-224.5"/>
<text text-anchor="middle" x="352.5" y="-231.5" font-family="Helvetica,sans-Serif" font-size="10.00" fill="#000000">QGraphicsView</text>
</a>
</g>
</g>
<!-- Node1&#45;&gt;Node2 -->
<g id="edge1" class="edge">
<title>Node1&#45;&gt;Node2</title>
<path fill="none" stroke="#191970" d="M492.2439,-280.4554C461.1054,-270.104 420.2031,-256.5067 390.7045,-246.7004"/>
<polygon fill="#191970" stroke="#191970" points="391.762,-243.3637 381.1684,-243.5303 389.5537,-250.0063 391.762,-243.3637"/>
</g>
<!-- Node3 -->
<g id="node3" class="node">
<title>Node3</title>
<g id="a_node3"><a xlink:href="scene_8h.html" target="_top" xlink:title=" ">
<polygon fill="#ffffff" stroke="#000000" points="414.5,-224.5 414.5,-243.5 466.5,-243.5 466.5,-224.5 414.5,-224.5"/>
<text text-anchor="middle" x="440.5" y="-231.5" font-family="Helvetica,sans-Serif" font-size="10.00" fill="#000000">scene.h</text>
</a>
</g>
</g>
<!-- Node1&#45;&gt;Node3 -->
<g id="edge2" class="edge">
<title>Node1&#45;&gt;Node3</title>
<path fill="none" stroke="#191970" d="M513.5225,-280.2977C498.5624,-270.8127 479.378,-258.6495 464.4274,-249.1705"/>
<polygon fill="#191970" stroke="#191970" points="466.061,-246.062 455.7413,-243.6633 462.3127,-251.9739 466.061,-246.062"/>
</g>
<!-- Node19 -->
<g id="node19" class="node">
<title>Node19</title>
<g id="a_node19"><a xlink:href="datamodel_8h.html" target="_top" xlink:title=" ">
<polygon fill="#ffffff" stroke="#000000" points="722,-168.5 722,-187.5 795,-187.5 795,-168.5 722,-168.5"/>
<text text-anchor="middle" x="758.5" y="-175.5" font-family="Helvetica,sans-Serif" font-size="10.00" fill="#000000">datamodel.h</text>
</a>
</g>
</g>
<!-- Node1&#45;&gt;Node19 -->
<g id="edge30" class="edge">
<title>Node1&#45;&gt;Node19</title>
<path fill="none" stroke="#191970" d="M565.9395,-280.3795C608.7687,-257.6083 689.2778,-214.8036 731.3414,-192.4395"/>
<polygon fill="#191970" stroke="#191970" points="733.2486,-195.3895 740.4352,-187.6046 729.9625,-189.2088 733.2486,-195.3895"/>
</g>
<!-- Node25 -->
<g id="node25" class="node">
<title>Node25</title>
<g id="a_node25"><a xlink:href="tooltipmenu_8h.html" target="_top" xlink:title=" ">
<polygon fill="#ffffff" stroke="#000000" points="813,-168.5 813,-187.5 888,-187.5 888,-168.5 813,-168.5"/>
<text text-anchor="middle" x="850.5" y="-175.5" font-family="Helvetica,sans-Serif" font-size="10.00" fill="#000000">tooltipmenu.h</text>
</a>
</g>
</g>
<!-- Node1&#45;&gt;Node25 -->
<g id="edge31" class="edge">
<title>Node1&#45;&gt;Node25</title>
<path fill="none" stroke="#191970" d="M577.4596,-280.4992C639.1539,-257.3392 756.5919,-213.253 815.2811,-191.2212"/>
<polygon fill="#191970" stroke="#191970" points="816.7228,-194.4185 824.8548,-187.6272 814.2626,-187.8651 816.7228,-194.4185"/>
</g>
<!-- Node4 -->
<g id="node4" class="node">
<title>Node4</title>
<g id="a_node4"><a xlink:title=" ">
<polygon fill="#ffffff" stroke="#bfbfbf" points="487.5,-168.5 487.5,-187.5 581.5,-187.5 581.5,-168.5 487.5,-168.5"/>
<text text-anchor="middle" x="534.5" y="-175.5" font-family="Helvetica,sans-Serif" font-size="10.00" fill="#000000">QGraphicsScene</text>
</a>
</g>
</g>
<!-- Node3&#45;&gt;Node4 -->
<g id="edge3" class="edge">
<title>Node3&#45;&gt;Node4</title>
<path fill="none" stroke="#191970" d="M456.8736,-224.2455C471.4308,-215.5731 492.931,-202.7645 509.6152,-192.825"/>
<polygon fill="#191970" stroke="#191970" points="511.5144,-195.7676 518.3141,-187.6427 507.9317,-189.7539 511.5144,-195.7676"/>
</g>
<!-- Node5 -->
<g id="node5" class="node">
<title>Node5</title>
<g id="a_node5"><a xlink:title=" ">
<polygon fill="#ffffff" stroke="#bfbfbf" points="599.5,-168.5 599.5,-187.5 703.5,-187.5 703.5,-168.5 599.5,-168.5"/>
<text text-anchor="middle" x="651.5" y="-175.5" font-family="Helvetica,sans-Serif" font-size="10.00" fill="#000000">QGraphicsTextItem</text>
</a>
</g>
</g>
<!-- Node3&#45;&gt;Node5 -->
<g id="edge4" class="edge">
<title>Node3&#45;&gt;Node5</title>
<path fill="none" stroke="#191970" d="M466.7967,-227.0208C501.5698,-217.7919 563.3962,-201.383 605.8699,-190.1104"/>
<polygon fill="#191970" stroke="#191970" points="606.9205,-193.4528 615.6881,-187.5046 605.1248,-186.687 606.9205,-193.4528"/>
</g>
<!-- Node6 -->
<g id="node6" class="node">
<title>Node6</title>
<g id="a_node6"><a xlink:title=" ">
<polygon fill="#ffffff" stroke="#bfbfbf" points="0,-168.5 0,-187.5 83,-187.5 83,-168.5 0,-168.5"/>
<text text-anchor="middle" x="41.5" y="-175.5" font-family="Helvetica,sans-Serif" font-size="10.00" fill="#000000">QGraphicsItem</text>
</a>
</g>
</g>
<!-- Node3&#45;&gt;Node6 -->
<g id="edge5" class="edge">
<title>Node3&#45;&gt;Node6</title>
<path fill="none" stroke="#191970" d="M414.2658,-226.209C410.9953,-225.3869 407.6826,-224.6248 404.5,-224 269.6935,-197.537 233.4033,-208.084 97.5,-188 96.0345,-187.7834 94.5485,-187.5579 93.0494,-187.3252"/>
<polygon fill="#191970" stroke="#191970" points="93.4755,-183.8487 83.0445,-185.7046 92.3562,-190.7586 93.4755,-183.8487"/>
</g>
<!-- Node7 -->
<g id="node7" class="node">
<title>Node7</title>
<g id="a_node7"><a xlink:title=" ">
<polygon fill="#ffffff" stroke="#bfbfbf" points="262.5,-.5 262.5,-19.5 366.5,-19.5 366.5,-.5 262.5,-.5"/>
<text text-anchor="middle" x="314.5" y="-7.5" font-family="Helvetica,sans-Serif" font-size="10.00" fill="#000000">QGraphicsRectItem</text>
</a>
</g>
</g>
<!-- Node3&#45;&gt;Node7 -->
<g id="edge6" class="edge">
<title>Node3&#45;&gt;Node7</title>
<path fill="none" stroke="#191970" d="M414.2478,-226.2972C410.9804,-225.46 407.6733,-224.6702 404.5,-224 296.3868,-201.1679 248.0301,-252.7621 158.5,-188 135.9537,-171.691 136.8932,-159.0822 130.5,-132 116.0154,-70.6423 196.1044,-37.7663 255.2163,-22.1022"/>
<polygon fill="#191970" stroke="#191970" points="256.4126,-25.4096 265.2425,-19.5543 254.6884,-18.6252 256.4126,-25.4096"/>
</g>
<!-- Node8 -->
<g id="node8" class="node">
<title>Node8</title>
<g id="a_node8"><a xlink:title=" ">
<polygon fill="#ffffff" stroke="#bfbfbf" points="168,-168.5 168,-187.5 281,-187.5 281,-168.5 168,-168.5"/>
<text text-anchor="middle" x="224.5" y="-175.5" font-family="Helvetica,sans-Serif" font-size="10.00" fill="#000000">QGraphicsEllipseItem</text>
</a>
</g>
</g>
<!-- Node3&#45;&gt;Node8 -->
<g id="edge7" class="edge">
<title>Node3&#45;&gt;Node8</title>
<path fill="none" stroke="#191970" d="M414.1711,-226.6186C410.9168,-225.7263 407.6338,-224.8356 404.5,-224 359.9175,-212.1127 308.955,-199.147 272.6634,-190.0199"/>
<polygon fill="#191970" stroke="#191970" points="273.3852,-186.5926 262.8339,-187.5515 271.6803,-193.3818 273.3852,-186.5926"/>
</g>
<!-- Node9 -->
<g id="node9" class="node">
<title>Node9</title>
<g id="a_node9"><a xlink:href="maptile_8h.html" target="_top" xlink:title=" ">
<polygon fill="#ffffff" stroke="#000000" points="299.5,-168.5 299.5,-187.5 355.5,-187.5 355.5,-168.5 299.5,-168.5"/>
<text text-anchor="middle" x="327.5" y="-175.5" font-family="Helvetica,sans-Serif" font-size="10.00" fill="#000000">maptile.h</text>
</a>
</g>
</g>
<!-- Node3&#45;&gt;Node9 -->
<g id="edge8" class="edge">
<title>Node3&#45;&gt;Node9</title>
<path fill="none" stroke="#191970" d="M421.0746,-224.3733C403.0979,-215.4644 376.1559,-202.1127 355.791,-192.0203"/>
<polygon fill="#191970" stroke="#191970" points="357.1861,-188.8055 346.6719,-187.5011 354.0778,-195.0776 357.1861,-188.8055"/>
</g>
<!-- Node14 -->
<g id="node14" class="node">
<title>Node14</title>
<g id="a_node14"><a xlink:href="graphicsmanager_8h.html" target="_top" xlink:title=" ">
<polygon fill="#ffffff" stroke="#000000" points="332,-112.5 332,-131.5 435,-131.5 435,-112.5 332,-112.5"/>
<text text-anchor="middle" x="383.5" y="-119.5" font-family="Helvetica,sans-Serif" font-size="10.00" fill="#000000">graphicsmanager.h</text>
</a>
</g>
</g>
<!-- Node3&#45;&gt;Node14 -->
<g id="edge17" class="edge">
<title>Node3&#45;&gt;Node14</title>
<path fill="none" stroke="#191970" d="M432.3224,-224.2869C425.0709,-215.3139 414.5637,-201.3867 407.5,-188 399.598,-173.0248 393.2065,-154.8743 389.0122,-141.4005"/>
<polygon fill="#191970" stroke="#191970" points="392.3452,-140.3296 386.1325,-131.7475 385.6373,-142.3308 392.3452,-140.3296"/>
</g>
<!-- Node17 -->
<g id="node17" class="node">
<title>Node17</title>
<g id="a_node17"><a xlink:href="player_8h.html" target="_top" xlink:title=" ">
<polygon fill="#ffffff" stroke="#000000" points="495.5,-112.5 495.5,-131.5 547.5,-131.5 547.5,-112.5 495.5,-112.5"/>
<text text-anchor="middle" x="521.5" y="-119.5" font-family="Helvetica,sans-Serif" font-size="10.00" fill="#000000">player.h</text>
</a>
</g>
</g>
<!-- Node3&#45;&gt;Node17 -->
<g id="edge18" class="edge">
<title>Node3&#45;&gt;Node17</title>
<path fill="none" stroke="#191970" d="M445.2582,-224.1726C451.8879,-210.8865 464.6581,-186.706 478.5,-168 486.0888,-157.7445 495.6948,-147.2797 503.9017,-138.9277"/>
<polygon fill="#191970" stroke="#191970" points="506.6051,-141.1755 511.23,-131.6433 501.6702,-136.2109 506.6051,-141.1755"/>
</g>
<!-- Node18 -->
<g id="node18" class="node">
<title>Node18</title>
<g id="a_node18"><a xlink:href="highlighter_8h.html" target="_top" xlink:title=" ">
<polygon fill="#ffffff" stroke="#000000" points="486.5,-56.5 486.5,-75.5 556.5,-75.5 556.5,-56.5 486.5,-56.5"/>
<text text-anchor="middle" x="521.5" y="-63.5" font-family="Helvetica,sans-Serif" font-size="10.00" fill="#000000">highlighter.h</text>
</a>
</g>
</g>
<!-- Node3&#45;&gt;Node18 -->
<g id="edge21" class="edge">
<title>Node3&#45;&gt;Node18</title>
<path fill="none" stroke="#191970" d="M442.9526,-224.337C448.6037,-203.0513 463.8189,-150.9192 486.5,-112 492.2751,-102.0903 499.8701,-91.8599 506.5089,-83.5706"/>
<polygon fill="#191970" stroke="#191970" points="509.3104,-85.6744 512.9645,-75.7296 503.9063,-81.225 509.3104,-85.6744"/>
</g>
<!-- Node3&#45;&gt;Node19 -->
<g id="edge22" class="edge">
<title>Node3&#45;&gt;Node19</title>
<path fill="none" stroke="#191970" d="M466.8308,-229.9644C513.865,-222.6661 615.6303,-206.4704 711.9691,-188.0307"/>
<polygon fill="#191970" stroke="#191970" points="712.7157,-191.4513 721.8733,-186.1232 711.3918,-184.5776 712.7157,-191.4513"/>
</g>
<!-- Node10 -->
<g id="node10" class="node">
<title>Node10</title>
<g id="a_node10"><a xlink:title=" ">
<polygon fill="#ffffff" stroke="#bfbfbf" points="140,-112.5 140,-131.5 257,-131.5 257,-112.5 140,-112.5"/>
<text text-anchor="middle" x="198.5" y="-119.5" font-family="Helvetica,sans-Serif" font-size="10.00" fill="#000000">QGraphicsPixmapItem</text>
</a>
</g>
</g>
<!-- Node9&#45;&gt;Node10 -->
<g id="edge9" class="edge">
<title>Node9&#45;&gt;Node10</title>
<path fill="none" stroke="#191970" d="M305.3241,-168.3733C284.5234,-159.3435 253.2083,-145.7494 229.8542,-135.6111"/>
<polygon fill="#191970" stroke="#191970" points="230.9532,-132.2727 220.3865,-131.5011 228.1657,-138.6938 230.9532,-132.2727"/>
</g>
<!-- Node11 -->
<g id="node11" class="node">
<title>Node11</title>
<g id="a_node11"><a xlink:href="city_8h.html" target="_top" xlink:title=" ">
<polygon fill="#ffffff" stroke="#000000" points="275,-112.5 275,-131.5 314,-131.5 314,-112.5 275,-112.5"/>
<text text-anchor="middle" x="294.5" y="-119.5" font-family="Helvetica,sans-Serif" font-size="10.00" fill="#000000">city.h</text>
</a>
</g>
</g>
<!-- Node9&#45;&gt;Node11 -->
<g id="edge10" class="edge">
<title>Node9&#45;&gt;Node11</title>
<path fill="none" stroke="#191970" d="M321.7518,-168.2455C317.2565,-160.617 310.8752,-149.7881 305.4175,-140.5267"/>
<polygon fill="#191970" stroke="#191970" points="308.2747,-138.4811 300.1823,-131.6427 302.2439,-142.035 308.2747,-138.4811"/>
</g>
<!-- Node9&#45;&gt;Node14 -->
<g id="edge13" class="edge">
<title>Node9&#45;&gt;Node14</title>
<path fill="none" stroke="#191970" d="M337.2545,-168.2455C345.3648,-160.1352 357.0925,-148.4075 366.7081,-138.7919"/>
<polygon fill="#191970" stroke="#191970" points="369.2611,-141.1887 373.8573,-131.6427 364.3113,-136.2389 369.2611,-141.1887"/>
</g>
<!-- Node12 -->
<g id="node12" class="node">
<title>Node12</title>
<g id="a_node12"><a xlink:title=" ">
<polygon fill="#ffffff" stroke="#bfbfbf" points="427,-56.5 427,-75.5 468,-75.5 468,-56.5 427,-56.5"/>
<text text-anchor="middle" x="447.5" y="-63.5" font-family="Helvetica,sans-Serif" font-size="10.00" fill="#000000">string</text>
</a>
</g>
</g>
<!-- Node11&#45;&gt;Node12 -->
<g id="edge11" class="edge">
<title>Node11&#45;&gt;Node12</title>
<path fill="none" stroke="#191970" d="M314.1889,-114.7936C340.2931,-105.2391 386.616,-88.2844 417.1955,-77.0918"/>
<polygon fill="#191970" stroke="#191970" points="418.7227,-80.26 426.9104,-73.536 416.3167,-73.6865 418.7227,-80.26"/>
</g>
<!-- Node13 -->
<g id="node13" class="node">
<title>Node13</title>
<g id="a_node13"><a xlink:title=" ">
<polygon fill="#ffffff" stroke="#bfbfbf" points="216.5,-56.5 216.5,-75.5 260.5,-75.5 260.5,-56.5 216.5,-56.5"/>
<text text-anchor="middle" x="238.5" y="-63.5" font-family="Helvetica,sans-Serif" font-size="10.00" fill="#000000">vector</text>
</a>
</g>
</g>
<!-- Node11&#45;&gt;Node13 -->
<g id="edge12" class="edge">
<title>Node11&#45;&gt;Node13</title>
<path fill="none" stroke="#191970" d="M284.7455,-112.2455C276.6352,-104.1352 264.9075,-92.4075 255.2919,-82.7919"/>
<polygon fill="#191970" stroke="#191970" points="257.6887,-80.2389 248.1427,-75.6427 252.7389,-85.1887 257.6887,-80.2389"/>
</g>
<!-- Node14&#45;&gt;Node12 -->
<g id="edge16" class="edge">
<title>Node14&#45;&gt;Node12</title>
<path fill="none" stroke="#191970" d="M394.6479,-112.2455C404.0087,-104.0549 417.5858,-92.1749 428.6349,-82.5069"/>
<polygon fill="#191970" stroke="#191970" points="431.2588,-84.8618 436.4798,-75.6427 426.6492,-79.5937 431.2588,-84.8618"/>
</g>
<!-- Node15 -->
<g id="node15" class="node">
<title>Node15</title>
<g id="a_node15"><a xlink:title=" ">
<polygon fill="#ffffff" stroke="#bfbfbf" points="350.5,-56.5 350.5,-75.5 408.5,-75.5 408.5,-56.5 350.5,-56.5"/>
<text text-anchor="middle" x="379.5" y="-63.5" font-family="Helvetica,sans-Serif" font-size="10.00" fill="#000000">QPixmap</text>
</a>
</g>
</g>
<!-- Node14&#45;&gt;Node15 -->
<g id="edge14" class="edge">
<title>Node14&#45;&gt;Node15</title>
<path fill="none" stroke="#191970" d="M382.8033,-112.2455C382.2813,-104.9382 381.5496,-94.6944 380.9075,-85.7046"/>
<polygon fill="#191970" stroke="#191970" points="384.3924,-85.3679 380.1888,-75.6427 377.4102,-85.8667 384.3924,-85.3679"/>
</g>
<!-- Node16 -->
<g id="node16" class="node">
<title>Node16</title>
<g id="a_node16"><a xlink:title=" ">
<polygon fill="#ffffff" stroke="#bfbfbf" points="279,-56.5 279,-75.5 332,-75.5 332,-56.5 279,-56.5"/>
<text text-anchor="middle" x="305.5" y="-63.5" font-family="Helvetica,sans-Serif" font-size="10.00" fill="#000000">QImage</text>
</a>
</g>
</g>
<!-- Node14&#45;&gt;Node16 -->
<g id="edge15" class="edge">
<title>Node14&#45;&gt;Node16</title>
<path fill="none" stroke="#191970" d="M369.9134,-112.2455C358.1695,-103.814 340.9801,-91.4729 327.3118,-81.6598"/>
<polygon fill="#191970" stroke="#191970" points="329.0954,-78.6316 318.9309,-75.6427 325.0129,-84.3179 329.0954,-78.6316"/>
</g>
<!-- Node17&#45;&gt;Node18 -->
<g id="edge19" class="edge">
<title>Node17&#45;&gt;Node18</title>
<path fill="none" stroke="#191970" d="M521.5,-112.2455C521.5,-104.9382 521.5,-94.6944 521.5,-85.7046"/>
<polygon fill="#191970" stroke="#191970" points="525.0001,-85.6426 521.5,-75.6427 518.0001,-85.6427 525.0001,-85.6426"/>
</g>
<!-- Node18&#45;&gt;Node7 -->
<g id="edge20" class="edge">
<title>Node18&#45;&gt;Node7</title>
<path fill="none" stroke="#191970" d="M486.3853,-56.5004C451.443,-47.0474 397.6783,-32.5023 359.596,-22.1999"/>
<polygon fill="#191970" stroke="#191970" points="360.354,-18.7792 349.787,-19.5462 358.526,-25.5363 360.354,-18.7792"/>
</g>
<!-- Node19&#45;&gt;Node12 -->
<g id="edge23" class="edge">
<title>Node19&#45;&gt;Node12</title>
<path fill="none" stroke="#191970" d="M730.6371,-168.4524C703.8866,-159.2478 662.3654,-144.8601 626.5,-132 574.145,-113.2272 513.4558,-90.6845 477.8931,-77.395"/>
<polygon fill="#191970" stroke="#191970" points="478.7207,-73.9678 468.1283,-73.7426 476.2683,-80.5242 478.7207,-73.9678"/>
</g>
<!-- Node19&#45;&gt;Node17 -->
<g id="edge29" class="edge">
<title>Node19&#45;&gt;Node17</title>
<path fill="none" stroke="#191970" d="M721.9881,-169.3727C677.297,-158.8128 602.0894,-141.0422 557.5909,-130.5278"/>
<polygon fill="#191970" stroke="#191970" points="558.3171,-127.1031 547.7803,-128.2097 556.7074,-133.9155 558.3171,-127.1031"/>
</g>
<!-- Node20 -->
<g id="node20" class="node">
<title>Node20</title>
<g id="a_node20"><a xlink:title=" ">
<polygon fill="#ffffff" stroke="#bfbfbf" points="734,-112.5 734,-131.5 783,-131.5 783,-112.5 734,-112.5"/>
<text text-anchor="middle" x="758.5" y="-119.5" font-family="Helvetica,sans-Serif" font-size="10.00" fill="#000000">QLabel</text>
</a>
</g>
</g>
<!-- Node19&#45;&gt;Node20 -->
<g id="edge24" class="edge">
<title>Node19&#45;&gt;Node20</title>
<path fill="none" stroke="#191970" d="M758.5,-168.2455C758.5,-160.9382 758.5,-150.6944 758.5,-141.7046"/>
<polygon fill="#191970" stroke="#191970" points="762.0001,-141.6426 758.5,-131.6427 755.0001,-141.6427 762.0001,-141.6426"/>
</g>
<!-- Node21 -->
<g id="node21" class="node">
<title>Node21</title>
<g id="a_node21"><a xlink:title=" ">
<polygon fill="#ffffff" stroke="#bfbfbf" points="801.5,-112.5 801.5,-131.5 857.5,-131.5 857.5,-112.5 801.5,-112.5"/>
<text text-anchor="middle" x="829.5" y="-119.5" font-family="Helvetica,sans-Serif" font-size="10.00" fill="#000000">QWidget</text>
</a>
</g>
</g>
<!-- Node19&#45;&gt;Node21 -->
<g id="edge25" class="edge">
<title>Node19&#45;&gt;Node21</title>
<path fill="none" stroke="#191970" d="M770.8673,-168.2455C781.4554,-159.8943 796.9064,-147.7076 809.2893,-137.9408"/>
<polygon fill="#191970" stroke="#191970" points="811.5903,-140.5837 817.2745,-131.6427 807.2553,-135.0875 811.5903,-140.5837"/>
</g>
<!-- Node22 -->
<g id="node22" class="node">
<title>Node22</title>
<g id="a_node22"><a xlink:href="mainwindow_8h.html" target="_top" xlink:title=" ">
<polygon fill="#ffffff" stroke="#000000" points="635.5,-112.5 635.5,-131.5 715.5,-131.5 715.5,-112.5 635.5,-112.5"/>
<text text-anchor="middle" x="675.5" y="-119.5" font-family="Helvetica,sans-Serif" font-size="10.00" fill="#000000">mainwindow.h</text>
</a>
</g>
</g>
<!-- Node19&#45;&gt;Node22 -->
<g id="edge26" class="edge">
<title>Node19&#45;&gt;Node22</title>
<path fill="none" stroke="#191970" d="M744.0425,-168.2455C731.4268,-159.7337 712.9056,-147.2375 698.2955,-137.3801"/>
<polygon fill="#191970" stroke="#191970" points="700.0391,-134.3343 689.7918,-131.6427 696.1239,-140.1371 700.0391,-134.3343"/>
</g>
<!-- Node23 -->
<g id="node23" class="node">
<title>Node23</title>
<g id="a_node23"><a xlink:title=" ">
<polygon fill="#ffffff" stroke="#bfbfbf" points="604,-56.5 604,-75.5 687,-75.5 687,-56.5 604,-56.5"/>
<text text-anchor="middle" x="645.5" y="-63.5" font-family="Helvetica,sans-Serif" font-size="10.00" fill="#000000">QMainWindow</text>
</a>
</g>
</g>
<!-- Node22&#45;&gt;Node23 -->
<g id="edge27" class="edge">
<title>Node22&#45;&gt;Node23</title>
<path fill="none" stroke="#191970" d="M670.2744,-112.2455C666.1877,-104.617 660.3865,-93.7881 655.425,-84.5267"/>
<polygon fill="#191970" stroke="#191970" points="658.4732,-82.8047 650.6657,-75.6427 652.3028,-86.1103 658.4732,-82.8047"/>
</g>
<!-- Node24 -->
<g id="node24" class="node">
<title>Node24</title>
<g id="a_node24"><a xlink:title=" ">
<polygon fill="#ffffff" stroke="#bfbfbf" points="705,-56.5 705,-75.5 772,-75.5 772,-56.5 705,-56.5"/>
<text text-anchor="middle" x="738.5" y="-63.5" font-family="Helvetica,sans-Serif" font-size="10.00" fill="#000000">QKeyEvent</text>
</a>
</g>
</g>
<!-- Node22&#45;&gt;Node24 -->
<g id="edge28" class="edge">
<title>Node22&#45;&gt;Node24</title>
<path fill="none" stroke="#191970" d="M686.4738,-112.2455C695.6882,-104.0549 709.0532,-92.1749 719.9297,-82.5069"/>
<polygon fill="#191970" stroke="#191970" points="722.5032,-84.9023 727.652,-75.6427 717.8526,-79.6704 722.5032,-84.9023"/>
</g>
<!-- Node25&#45;&gt;Node20 -->
<g id="edge33" class="edge">
<title>Node25&#45;&gt;Node20</title>
<path fill="none" stroke="#191970" d="M834.4748,-168.2455C820.3592,-159.6534 799.5737,-147.0014 783.3101,-137.1018"/>
<polygon fill="#191970" stroke="#191970" points="784.7034,-133.8525 774.3415,-131.6427 781.0637,-139.8319 784.7034,-133.8525"/>
</g>
<!-- Node25&#45;&gt;Node21 -->
<g id="edge32" class="edge">
<title>Node25&#45;&gt;Node21</title>
<path fill="none" stroke="#191970" d="M846.8421,-168.2455C844.0416,-160.7776 840.091,-150.2427 836.6676,-141.1137"/>
<polygon fill="#191970" stroke="#191970" points="839.9045,-139.777 833.116,-131.6427 833.3501,-142.2349 839.9045,-139.777"/>
</g>
<!-- Node26 -->
<g id="node26" class="node">
<title>Node26</title>
<g id="a_node26"><a xlink:title=" ">
<polygon fill="#ffffff" stroke="#bfbfbf" points="875.5,-112.5 875.5,-131.5 945.5,-131.5 945.5,-112.5 875.5,-112.5"/>
<text text-anchor="middle" x="910.5" y="-119.5" font-family="Helvetica,sans-Serif" font-size="10.00" fill="#000000">QGroupBox</text>
</a>
</g>
</g>
<!-- Node25&#45;&gt;Node26 -->
<g id="edge34" class="edge">
<title>Node25&#45;&gt;Node26</title>
<path fill="none" stroke="#191970" d="M860.9512,-168.2455C869.7269,-160.0549 882.4554,-148.1749 892.814,-138.5069"/>
<polygon fill="#191970" stroke="#191970" points="895.2461,-141.0246 900.1686,-131.6427 890.4699,-135.9072 895.2461,-141.0246"/>
</g>
<!-- Node27 -->
<g id="node27" class="node">
<title>Node27</title>
<g id="a_node27"><a xlink:title=" ">
<polygon fill="#ffffff" stroke="#bfbfbf" points="963.5,-112.5 963.5,-131.5 1037.5,-131.5 1037.5,-112.5 963.5,-112.5"/>
<text text-anchor="middle" x="1000.5" y="-119.5" font-family="Helvetica,sans-Serif" font-size="10.00" fill="#000000">QGridLayout</text>
</a>
</g>
</g>
<!-- Node25&#45;&gt;Node27 -->
<g id="edge35" class="edge">
<title>Node25&#45;&gt;Node27</title>
<path fill="none" stroke="#191970" d="M876.2859,-168.3733C900.9047,-159.1822 938.19,-145.2624 965.4875,-135.0713"/>
<polygon fill="#191970" stroke="#191970" points="966.9063,-138.2777 975.0506,-131.5011 964.458,-131.7198 966.9063,-138.2777"/>
</g>
</g>
</svg>
