<?xml version="1.0" encoding="UTF-8" standalone="no"?>
<!DOCTYPE svg PUBLIC "-//W3C//DTD SVG 1.1//EN"
 "http://www.w3.org/Graphics/SVG/1.1/DTD/svg11.dtd">
<!-- Generated by graphviz version 2.40.1 (20161225.0304)
 -->
<!-- Title: View Pages: 1 -->
<svg width="289pt" height="898pt"
 viewBox="0.00 0.00 288.50 898.00" xmlns="http://www.w3.org/2000/svg" xmlns:xlink="http://www.w3.org/1999/xlink">
<g id="graph0" class="graph" transform="scale(1 1) rotate(0) translate(4 894)">
<title>View</title>
<polygon fill="#ffffff" stroke="transparent" points="-4,4 -4,-894 284.5,-894 284.5,4 -4,4"/>
<!-- Node1 -->
<g id="node1" class="node">
<title>Node1</title>
<g id="a_node1"><a xlink:title=" ">
<polygon fill="#bfbfbf" stroke="#000000" points="17,-.5 17,-211.5 142,-211.5 142,-.5 17,-.5"/>
<text text-anchor="middle" x="79.5" y="-199.5" font-family="Helvetica,sans-Serif" font-size="10.00" fill="#000000">View</text>
<polyline fill="none" stroke="#000000" points="17,-192.5 142,-192.5 "/>
<text text-anchor="start" x="25" y="-180.5" font-family="Helvetica,sans-Serif" font-size="10.00" fill="#000000">+ dragOriginX</text>
<text text-anchor="start" x="25" y="-169.5" font-family="Helvetica,sans-Serif" font-size="10.00" fill="#000000">+ dragOriginY</text>
<text text-anchor="start" x="25" y="-158.5" font-family="Helvetica,sans-Serif" font-size="10.00" fill="#000000">+ dragPosX</text>
<text text-anchor="start" x="25" y="-147.5" font-family="Helvetica,sans-Serif" font-size="10.00" fill="#000000">+ dragPosY</text>
<text text-anchor="start" x="25" y="-136.5" font-family="Helvetica,sans-Serif" font-size="10.00" fill="#000000">+ mouseDown</text>
<text text-anchor="start" x="25" y="-125.5" font-family="Helvetica,sans-Serif" font-size="10.00" fill="#000000">+ currentScale</text>
<text text-anchor="start" x="25" y="-114.5" font-family="Helvetica,sans-Serif" font-size="10.00" fill="#000000">&#45; doAnimations</text>
<polyline fill="none" stroke="#000000" points="17,-107.5 142,-107.5 "/>
<text text-anchor="start" x="25" y="-95.5" font-family="Helvetica,sans-Serif" font-size="10.00" fill="#000000">+ View()</text>
<text text-anchor="start" x="25" y="-84.5" font-family="Helvetica,sans-Serif" font-size="10.00" fill="#000000">+ mousePressEvent()</text>
<text text-anchor="start" x="25" y="-73.5" font-family="Helvetica,sans-Serif" font-size="10.00" fill="#000000">+ mouseReleaseEvent()</text>
<text text-anchor="start" x="25" y="-62.5" font-family="Helvetica,sans-Serif" font-size="10.00" fill="#000000">+ mouseMoveEvent()</text>
<text text-anchor="start" x="25" y="-51.5" font-family="Helvetica,sans-Serif" font-size="10.00" fill="#000000">+ wheelEvent()</text>
<text text-anchor="start" x="25" y="-40.5" font-family="Helvetica,sans-Serif" font-size="10.00" fill="#000000">+ keyPressEvent()</text>
<text text-anchor="start" x="25" y="-29.5" font-family="Helvetica,sans-Serif" font-size="10.00" fill="#000000">&#45; fluidZoom()</text>
<text text-anchor="start" x="25" y="-18.5" font-family="Helvetica,sans-Serif" font-size="10.00" fill="#000000">&#45; fluidMove()</text>
<text text-anchor="start" x="25" y="-7.5" font-family="Helvetica,sans-Serif" font-size="10.00" fill="#000000">&#45; fluidMovement()</text>
</a>
</g>
</g>
<!-- Node2 -->
<g id="node2" class="node">
<title>Node2</title>
<g id="a_node2"><a xlink:title=" ">
<polygon fill="#ffffff" stroke="#bfbfbf" points="0,-303.5 0,-360.5 87,-360.5 87,-303.5 0,-303.5"/>
<text text-anchor="middle" x="43.5" y="-348.5" font-family="Helvetica,sans-Serif" font-size="10.00" fill="#000000">QGraphicsView</text>
<polyline fill="none" stroke="#bfbfbf" points="0,-341.5 87,-341.5 "/>
<text text-anchor="middle" x="43.5" y="-329.5" font-family="Helvetica,sans-Serif" font-size="10.00" fill="#000000"> </text>
<polyline fill="none" stroke="#bfbfbf" points="0,-322.5 87,-322.5 "/>
<text text-anchor="middle" x="43.5" y="-310.5" font-family="Helvetica,sans-Serif" font-size="10.00" fill="#000000"> </text>
</a>
</g>
</g>
<!-- Node2&#45;&gt;Node1 -->
<g id="edge1" class="edge">
<title>Node2&#45;&gt;Node1</title>
<path fill="none" stroke="#191970" d="M49.6345,-293.4888C53.2488,-270.7994 58.014,-240.8844 62.6738,-211.6309"/>
<polygon fill="none" stroke="#191970" points="46.1762,-292.9508 48.0594,-303.3769 53.089,-294.0521 46.1762,-292.9508"/>
</g>
<!-- Node3 -->
<g id="node3" class="node">
<title>Node3</title>
<g id="a_node3"><a xlink:href="classScene.html" target="_top" xlink:title=" ">
<polygon fill="#ffffff" stroke="#000000" points="105,-259.5 105,-404.5 204,-404.5 204,-259.5 105,-259.5"/>
<text text-anchor="middle" x="154.5" y="-392.5" font-family="Helvetica,sans-Serif" font-size="10.00" fill="#000000">Scene</text>
<polyline fill="none" stroke="#000000" points="105,-385.5 204,-385.5 "/>
<text text-anchor="start" x="113" y="-373.5" font-family="Helvetica,sans-Serif" font-size="10.00" fill="#000000">+ MAP_SIZE</text>
<text text-anchor="start" x="113" y="-362.5" font-family="Helvetica,sans-Serif" font-size="10.00" fill="#000000">+ TILE_SIZE</text>
<text text-anchor="start" x="113" y="-351.5" font-family="Helvetica,sans-Serif" font-size="10.00" fill="#000000">&#45; highlighter</text>
<text text-anchor="start" x="113" y="-340.5" font-family="Helvetica,sans-Serif" font-size="10.00" fill="#000000">&#45; radiusHighlighter</text>
<text text-anchor="start" x="113" y="-329.5" font-family="Helvetica,sans-Serif" font-size="10.00" fill="#000000">&#45; textHint</text>
<text text-anchor="start" x="113" y="-318.5" font-family="Helvetica,sans-Serif" font-size="10.00" fill="#000000">&#45; showRadius</text>
<polyline fill="none" stroke="#000000" points="105,-311.5 204,-311.5 "/>
<text text-anchor="start" x="113" y="-299.5" font-family="Helvetica,sans-Serif" font-size="10.00" fill="#000000">+ Scene()</text>
<text text-anchor="start" x="113" y="-288.5" font-family="Helvetica,sans-Serif" font-size="10.00" fill="#000000">+ generateWorld()</text>
<text text-anchor="start" x="113" y="-277.5" font-family="Helvetica,sans-Serif" font-size="10.00" fill="#000000">+ setActiveTile()</text>
<text text-anchor="start" x="113" y="-266.5" font-family="Helvetica,sans-Serif" font-size="10.00" fill="#000000">+ getTileAt()</text>
</a>
</g>
</g>
<!-- Node3&#45;&gt;Node1 -->
<g id="edge2" class="edge">
<title>Node3&#45;&gt;Node1</title>
<path fill="none" stroke="#404040" d="M130.3567,-259.2482C126.5275,-247.7094 122.4845,-235.5266 118.4193,-223.2767"/>
<polygon fill="none" stroke="#404040" points="118.3008,-222.9195 112.6145,-218.4848 114.5211,-211.5303 120.2074,-215.965 118.3008,-222.9195"/>
<text text-anchor="middle" x="142" y="-233" font-family="Helvetica,sans-Serif" font-size="10.00" fill="#000000"> +scene</text>
</g>
<!-- Node4 -->
<g id="node4" class="node">
<title>Node4</title>
<g id="a_node4"><a xlink:title=" ">
<polygon fill="#ffffff" stroke="#bfbfbf" points="70.5,-535 70.5,-592 164.5,-592 164.5,-535 70.5,-535"/>
<text text-anchor="middle" x="117.5" y="-580" font-family="Helvetica,sans-Serif" font-size="10.00" fill="#000000">QGraphicsScene</text>
<polyline fill="none" stroke="#bfbfbf" points="70.5,-573 164.5,-573 "/>
<text text-anchor="middle" x="117.5" y="-561" font-family="Helvetica,sans-Serif" font-size="10.00" fill="#000000"> </text>
<polyline fill="none" stroke="#bfbfbf" points="70.5,-554 164.5,-554 "/>
<text text-anchor="middle" x="117.5" y="-542" font-family="Helvetica,sans-Serif" font-size="10.00" fill="#000000"> </text>
</a>
</g>
</g>
<!-- Node4&#45;&gt;Node3 -->
<g id="edge3" class="edge">
<title>Node4&#45;&gt;Node3</title>
<path fill="none" stroke="#191970" d="M123.7196,-524.5853C128.9457,-491.8871 136.5561,-444.2706 142.9018,-404.567"/>
<polygon fill="none" stroke="#191970" points="120.2335,-524.2214 122.1113,-534.6484 127.1457,-525.3262 120.2335,-524.2214"/>
</g>
<!-- Node5 -->
<g id="node5" class="node">
<title>Node5</title>
<g id="a_node5"><a xlink:href="classMapTile.html" target="_top" xlink:title=" ">
<polygon fill="#ffffff" stroke="#000000" points="182.5,-463.5 182.5,-663.5 280.5,-663.5 280.5,-463.5 182.5,-463.5"/>
<text text-anchor="middle" x="231.5" y="-651.5" font-family="Helvetica,sans-Serif" font-size="10.00" fill="#000000">MapTile</text>
<polyline fill="none" stroke="#000000" points="182.5,-644.5 280.5,-644.5 "/>
<text text-anchor="start" x="190.5" y="-632.5" font-family="Helvetica,sans-Serif" font-size="10.00" fill="#000000">&#45; type</text>
<text text-anchor="start" x="190.5" y="-621.5" font-family="Helvetica,sans-Serif" font-size="10.00" fill="#000000">&#45; pixmapItem</text>
<text text-anchor="start" x="190.5" y="-610.5" font-family="Helvetica,sans-Serif" font-size="10.00" fill="#000000">&#45; currentRotation</text>
<polyline fill="none" stroke="#000000" points="182.5,-603.5 280.5,-603.5 "/>
<text text-anchor="start" x="190.5" y="-591.5" font-family="Helvetica,sans-Serif" font-size="10.00" fill="#000000">+ MapTile()</text>
<text text-anchor="start" x="190.5" y="-580.5" font-family="Helvetica,sans-Serif" font-size="10.00" fill="#000000">+ setType()</text>
<text text-anchor="start" x="190.5" y="-569.5" font-family="Helvetica,sans-Serif" font-size="10.00" fill="#000000">+ getType()</text>
<text text-anchor="start" x="190.5" y="-558.5" font-family="Helvetica,sans-Serif" font-size="10.00" fill="#000000">+ setRotation()</text>
<text text-anchor="start" x="190.5" y="-547.5" font-family="Helvetica,sans-Serif" font-size="10.00" fill="#000000">+ getRotation()</text>
<text text-anchor="start" x="190.5" y="-536.5" font-family="Helvetica,sans-Serif" font-size="10.00" fill="#000000">+ setPosition()</text>
<text text-anchor="start" x="190.5" y="-525.5" font-family="Helvetica,sans-Serif" font-size="10.00" fill="#000000">+ isRiver()</text>
<text text-anchor="start" x="190.5" y="-514.5" font-family="Helvetica,sans-Serif" font-size="10.00" fill="#000000">+ getPixmapItem()</text>
<text text-anchor="start" x="190.5" y="-503.5" font-family="Helvetica,sans-Serif" font-size="10.00" fill="#000000">+ getCity()</text>
<text text-anchor="start" x="190.5" y="-492.5" font-family="Helvetica,sans-Serif" font-size="10.00" fill="#000000">+ setCity()</text>
<text text-anchor="start" x="190.5" y="-481.5" font-family="Helvetica,sans-Serif" font-size="10.00" fill="#000000">+ getX()</text>
<text text-anchor="start" x="190.5" y="-470.5" font-family="Helvetica,sans-Serif" font-size="10.00" fill="#000000">+ getY()</text>
</a>
</g>
</g>
<!-- Node5&#45;&gt;Node3 -->
<g id="edge4" class="edge">
<title>Node5&#45;&gt;Node3</title>
<path fill="none" stroke="#404040" d="M198.1745,-463.3071C192.9599,-447.6295 187.6163,-431.564 182.5358,-416.2895"/>
<polygon fill="none" stroke="#404040" points="182.4959,-416.1694 176.8067,-411.7385 178.7085,-404.7827 184.3978,-409.2136 182.4959,-416.1694"/>
<text text-anchor="middle" x="216.5" y="-437" font-family="Helvetica,sans-Serif" font-size="10.00" fill="#000000"> &#45;activeTile</text>
<text text-anchor="middle" x="216.5" y="-426" font-family="Helvetica,sans-Serif" font-size="10.00" fill="#000000">&#45;data</text>
</g>
<!-- Node6 -->
<g id="node6" class="node">
<title>Node6</title>
<g id="a_node6"><a xlink:href="classCity.html" target="_top" xlink:title=" ">
<polygon fill="#ffffff" stroke="#000000" points="190,-711.5 190,-889.5 273,-889.5 273,-711.5 190,-711.5"/>
<text text-anchor="middle" x="231.5" y="-877.5" font-family="Helvetica,sans-Serif" font-size="10.00" fill="#000000">City</text>
<polyline fill="none" stroke="#000000" points="190,-870.5 273,-870.5 "/>
<text text-anchor="start" x="198" y="-858.5" font-family="Helvetica,sans-Serif" font-size="10.00" fill="#000000">&#45; size</text>
<text text-anchor="start" x="198" y="-847.5" font-family="Helvetica,sans-Serif" font-size="10.00" fill="#000000">&#45; centerX</text>
<text text-anchor="start" x="198" y="-836.5" font-family="Helvetica,sans-Serif" font-size="10.00" fill="#000000">&#45; centerY</text>
<text text-anchor="start" x="198" y="-825.5" font-family="Helvetica,sans-Serif" font-size="10.00" fill="#000000">&#45; name</text>
<polyline fill="none" stroke="#000000" points="190,-818.5 273,-818.5 "/>
<text text-anchor="start" x="198" y="-806.5" font-family="Helvetica,sans-Serif" font-size="10.00" fill="#000000">+ City()</text>
<text text-anchor="start" x="198" y="-795.5" font-family="Helvetica,sans-Serif" font-size="10.00" fill="#000000">+ City()</text>
<text text-anchor="start" x="198" y="-784.5" font-family="Helvetica,sans-Serif" font-size="10.00" fill="#000000">+ getSize()</text>
<text text-anchor="start" x="198" y="-773.5" font-family="Helvetica,sans-Serif" font-size="10.00" fill="#000000">+ getCenterX()</text>
<text text-anchor="start" x="198" y="-762.5" font-family="Helvetica,sans-Serif" font-size="10.00" fill="#000000">+ getCenterY()</text>
<text text-anchor="start" x="198" y="-751.5" font-family="Helvetica,sans-Serif" font-size="10.00" fill="#000000">+ getName()</text>
<text text-anchor="start" x="198" y="-740.5" font-family="Helvetica,sans-Serif" font-size="10.00" fill="#000000">+ setSize()</text>
<text text-anchor="start" x="198" y="-729.5" font-family="Helvetica,sans-Serif" font-size="10.00" fill="#000000">+ setCenter()</text>
<text text-anchor="start" x="198" y="-718.5" font-family="Helvetica,sans-Serif" font-size="10.00" fill="#000000">+ setName()</text>
</a>
</g>
</g>
<!-- Node6&#45;&gt;Node5 -->
<g id="edge5" class="edge">
<title>Node6&#45;&gt;Node5</title>
<path fill="none" stroke="#404040" d="M231.5,-711.2382C231.5,-699.7466 231.5,-687.8637 231.5,-676.0596"/>
<polygon fill="none" stroke="#404040" points="231.5001,-675.8067 227.5,-669.8067 231.5,-663.8067 235.5,-669.8067 231.5001,-675.8067"/>
<text text-anchor="middle" x="242.5" y="-685" font-family="Helvetica,sans-Serif" font-size="10.00" fill="#000000"> &#45;city</text>
</g>
</g>
</svg>
