<?xml version="1.0" encoding="UTF-8" standalone="no"?>
<!DOCTYPE svg PUBLIC "-//W3C//DTD SVG 1.1//EN"
 "http://www.w3.org/Graphics/SVG/1.1/DTD/svg11.dtd">
<!-- Generated by graphviz version 2.40.1 (20161225.0304)
 -->
<!-- Title: MenuBar Pages: 1 -->
<svg width="411pt" height="854pt"
 viewBox="0.00 0.00 411.00 854.00" xmlns="http://www.w3.org/2000/svg" xmlns:xlink="http://www.w3.org/1999/xlink">
<g id="graph0" class="graph" transform="scale(1 1) rotate(0) translate(4 850)">
<title>MenuBar</title>
<polygon fill="#ffffff" stroke="transparent" points="-4,4 -4,-850 407,-850 407,4 -4,4"/>
<!-- Node1 -->
<g id="node1" class="node">
<title>Node1</title>
<g id="a_node1"><a xlink:title=" ">
<polygon fill="#bfbfbf" stroke="#000000" points="0,-.5 0,-79.5 122,-79.5 122,-.5 0,-.5"/>
<text text-anchor="middle" x="61" y="-67.5" font-family="Helvetica,sans-Serif" font-size="10.00" fill="#000000">MenuBar</text>
<polyline fill="none" stroke="#000000" points="0,-60.5 122,-60.5 "/>
<text text-anchor="middle" x="61" y="-48.5" font-family="Helvetica,sans-Serif" font-size="10.00" fill="#000000"> </text>
<polyline fill="none" stroke="#000000" points="0,-41.5 122,-41.5 "/>
<text text-anchor="start" x="8" y="-29.5" font-family="Helvetica,sans-Serif" font-size="10.00" fill="#000000">+ MenuBar()</text>
<text text-anchor="start" x="8" y="-18.5" font-family="Helvetica,sans-Serif" font-size="10.00" fill="#000000">&#45; slotOpenConnection()</text>
<text text-anchor="start" x="8" y="-7.5" font-family="Helvetica,sans-Serif" font-size="10.00" fill="#000000">&#45; slotCloseConnection()</text>
</a>
</g>
</g>
<!-- Node2 -->
<g id="node2" class="node">
<title>Node2</title>
<g id="a_node2"><a xlink:title=" ">
<polygon fill="#ffffff" stroke="#bfbfbf" points="12.5,-204.5 12.5,-261.5 77.5,-261.5 77.5,-204.5 12.5,-204.5"/>
<text text-anchor="middle" x="45" y="-249.5" font-family="Helvetica,sans-Serif" font-size="10.00" fill="#000000">QMenuBar</text>
<polyline fill="none" stroke="#bfbfbf" points="12.5,-242.5 77.5,-242.5 "/>
<text text-anchor="middle" x="45" y="-230.5" font-family="Helvetica,sans-Serif" font-size="10.00" fill="#000000"> </text>
<polyline fill="none" stroke="#bfbfbf" points="12.5,-223.5 77.5,-223.5 "/>
<text text-anchor="middle" x="45" y="-211.5" font-family="Helvetica,sans-Serif" font-size="10.00" fill="#000000"> </text>
</a>
</g>
</g>
<!-- Node2&#45;&gt;Node1 -->
<g id="edge1" class="edge">
<title>Node2&#45;&gt;Node1</title>
<path fill="none" stroke="#191970" d="M48.2447,-193.8609C50.9974,-160.6568 54.9291,-113.2303 57.698,-79.8306"/>
<polygon fill="none" stroke="#191970" points="44.7336,-193.8509 47.3954,-204.1059 51.7097,-194.4293 44.7336,-193.8509"/>
</g>
<!-- Node3 -->
<g id="node3" class="node">
<title>Node3</title>
<g id="a_node3"><a xlink:href="classScene.html" target="_top" xlink:title=" ">
<polygon fill="#ffffff" stroke="#000000" points="96,-127.5 96,-338.5 224,-338.5 224,-127.5 96,-127.5"/>
<text text-anchor="middle" x="160" y="-326.5" font-family="Helvetica,sans-Serif" font-size="10.00" fill="#000000">Scene</text>
<polyline fill="none" stroke="#000000" points="96,-319.5 224,-319.5 "/>
<text text-anchor="start" x="104" y="-307.5" font-family="Helvetica,sans-Serif" font-size="10.00" fill="#000000">+ MAP_SIZE</text>
<text text-anchor="start" x="104" y="-296.5" font-family="Helvetica,sans-Serif" font-size="10.00" fill="#000000">+ TILE_SIZE</text>
<text text-anchor="start" x="104" y="-285.5" font-family="Helvetica,sans-Serif" font-size="10.00" fill="#000000">&#45; highlighter</text>
<text text-anchor="start" x="104" y="-274.5" font-family="Helvetica,sans-Serif" font-size="10.00" fill="#000000">&#45; radiusHighlighter</text>
<text text-anchor="start" x="104" y="-263.5" font-family="Helvetica,sans-Serif" font-size="10.00" fill="#000000">&#45; textHint</text>
<text text-anchor="start" x="104" y="-252.5" font-family="Helvetica,sans-Serif" font-size="10.00" fill="#000000">&#45; showRadius</text>
<text text-anchor="start" x="104" y="-241.5" font-family="Helvetica,sans-Serif" font-size="10.00" fill="#000000">&#45; players</text>
<polyline fill="none" stroke="#000000" points="96,-234.5 224,-234.5 "/>
<text text-anchor="start" x="104" y="-222.5" font-family="Helvetica,sans-Serif" font-size="10.00" fill="#000000">+ Scene()</text>
<text text-anchor="start" x="104" y="-211.5" font-family="Helvetica,sans-Serif" font-size="10.00" fill="#000000">+ generateWorld()</text>
<text text-anchor="start" x="104" y="-200.5" font-family="Helvetica,sans-Serif" font-size="10.00" fill="#000000">+ setActiveTile()</text>
<text text-anchor="start" x="104" y="-189.5" font-family="Helvetica,sans-Serif" font-size="10.00" fill="#000000">+ getTileAt()</text>
<text text-anchor="start" x="104" y="-178.5" font-family="Helvetica,sans-Serif" font-size="10.00" fill="#000000">+ setTileAt()</text>
<text text-anchor="start" x="104" y="-167.5" font-family="Helvetica,sans-Serif" font-size="10.00" fill="#000000">+ tileChanged()</text>
<text text-anchor="start" x="104" y="-156.5" font-family="Helvetica,sans-Serif" font-size="10.00" fill="#000000">+ onSetTile()</text>
<text text-anchor="start" x="104" y="-145.5" font-family="Helvetica,sans-Serif" font-size="10.00" fill="#000000">+ updatePlayerPosition()</text>
<text text-anchor="start" x="104" y="-134.5" font-family="Helvetica,sans-Serif" font-size="10.00" fill="#000000">+ addPlayer()</text>
</a>
</g>
</g>
<!-- Node3&#45;&gt;Node1 -->
<g id="edge2" class="edge">
<title>Node3&#45;&gt;Node1</title>
<path fill="none" stroke="#404040" d="M105.8654,-127.4649C99.2289,-114.527 92.7045,-101.8077 86.775,-90.2481"/>
<polygon fill="none" stroke="#404040" points="86.765,-90.2286 80.4674,-86.7156 81.288,-79.5513 87.5856,-83.0643 86.765,-90.2286"/>
<text text-anchor="middle" x="113" y="-101" font-family="Helvetica,sans-Serif" font-size="10.00" fill="#000000"> &#45;scene</text>
</g>
<!-- Node4 -->
<g id="node4" class="node">
<title>Node4</title>
<g id="a_node4"><a xlink:title=" ">
<polygon fill="#ffffff" stroke="#bfbfbf" points="30,-480 30,-537 124,-537 124,-480 30,-480"/>
<text text-anchor="middle" x="77" y="-525" font-family="Helvetica,sans-Serif" font-size="10.00" fill="#000000">QGraphicsScene</text>
<polyline fill="none" stroke="#bfbfbf" points="30,-518 124,-518 "/>
<text text-anchor="middle" x="77" y="-506" font-family="Helvetica,sans-Serif" font-size="10.00" fill="#000000"> </text>
<polyline fill="none" stroke="#bfbfbf" points="30,-499 124,-499 "/>
<text text-anchor="middle" x="77" y="-487" font-family="Helvetica,sans-Serif" font-size="10.00" fill="#000000"> </text>
</a>
</g>
</g>
<!-- Node4&#45;&gt;Node3 -->
<g id="edge3" class="edge">
<title>Node4&#45;&gt;Node3</title>
<path fill="none" stroke="#191970" d="M88.6537,-469.8182C98.8967,-435.8189 114.2904,-384.7229 128.1599,-338.6861"/>
<polygon fill="none" stroke="#191970" points="85.1811,-469.2118 85.6476,-479.7963 91.8835,-471.2311 85.1811,-469.2118"/>
</g>
<!-- Node5 -->
<g id="node5" class="node">
<title>Node5</title>
<g id="a_node5"><a xlink:href="classMapTile.html" target="_top" xlink:title=" ">
<polygon fill="#ffffff" stroke="#000000" points="263,-397.5 263,-619.5 403,-619.5 403,-397.5 263,-397.5"/>
<text text-anchor="middle" x="333" y="-607.5" font-family="Helvetica,sans-Serif" font-size="10.00" fill="#000000">MapTile</text>
<polyline fill="none" stroke="#000000" points="263,-600.5 403,-600.5 "/>
<text text-anchor="start" x="271" y="-588.5" font-family="Helvetica,sans-Serif" font-size="10.00" fill="#000000">&#45; type</text>
<text text-anchor="start" x="271" y="-577.5" font-family="Helvetica,sans-Serif" font-size="10.00" fill="#000000">&#45; pixmapItem</text>
<text text-anchor="start" x="271" y="-566.5" font-family="Helvetica,sans-Serif" font-size="10.00" fill="#000000">&#45; currentRotation</text>
<polyline fill="none" stroke="#000000" points="263,-559.5 403,-559.5 "/>
<text text-anchor="start" x="271" y="-547.5" font-family="Helvetica,sans-Serif" font-size="10.00" fill="#000000">+ MapTile()</text>
<text text-anchor="start" x="271" y="-536.5" font-family="Helvetica,sans-Serif" font-size="10.00" fill="#000000">+ MapTile()</text>
<text text-anchor="start" x="271" y="-525.5" font-family="Helvetica,sans-Serif" font-size="10.00" fill="#000000">+ setType()</text>
<text text-anchor="start" x="271" y="-514.5" font-family="Helvetica,sans-Serif" font-size="10.00" fill="#000000">+ getType()</text>
<text text-anchor="start" x="271" y="-503.5" font-family="Helvetica,sans-Serif" font-size="10.00" fill="#000000">+ setRotation()</text>
<text text-anchor="start" x="271" y="-492.5" font-family="Helvetica,sans-Serif" font-size="10.00" fill="#000000">+ getRotation()</text>
<text text-anchor="start" x="271" y="-481.5" font-family="Helvetica,sans-Serif" font-size="10.00" fill="#000000">+ setPosition()</text>
<text text-anchor="start" x="271" y="-470.5" font-family="Helvetica,sans-Serif" font-size="10.00" fill="#000000">+ isRiver()</text>
<text text-anchor="start" x="271" y="-459.5" font-family="Helvetica,sans-Serif" font-size="10.00" fill="#000000">+ getPixmapItem()</text>
<text text-anchor="start" x="271" y="-448.5" font-family="Helvetica,sans-Serif" font-size="10.00" fill="#000000">+ getCity()</text>
<text text-anchor="start" x="271" y="-437.5" font-family="Helvetica,sans-Serif" font-size="10.00" fill="#000000">+ setCity()</text>
<text text-anchor="start" x="271" y="-426.5" font-family="Helvetica,sans-Serif" font-size="10.00" fill="#000000">+ getX()</text>
<text text-anchor="start" x="271" y="-415.5" font-family="Helvetica,sans-Serif" font-size="10.00" fill="#000000">+ getY()</text>
<text text-anchor="start" x="271" y="-404.5" font-family="Helvetica,sans-Serif" font-size="10.00" fill="#000000">+ attachGraphicsManager()</text>
</a>
</g>
</g>
<!-- Node5&#45;&gt;Node3 -->
<g id="edge4" class="edge">
<title>Node5&#45;&gt;Node3</title>
<path fill="none" stroke="#404040" d="M263.1329,-397.2377C252.4936,-380.2948 241.5055,-362.7963 230.8454,-345.8203"/>
<polygon fill="none" stroke="#404040" points="230.6381,-345.49 224.0598,-342.536 224.2565,-335.3275 230.8348,-338.2816 230.6381,-345.49"/>
<text text-anchor="middle" x="273" y="-371" font-family="Helvetica,sans-Serif" font-size="10.00" fill="#000000"> &#45;activeTile</text>
<text text-anchor="middle" x="273" y="-360" font-family="Helvetica,sans-Serif" font-size="10.00" fill="#000000">&#45;data</text>
</g>
<!-- Node6 -->
<g id="node6" class="node">
<title>Node6</title>
<g id="a_node6"><a xlink:href="classGraphicsManager.html" target="_top" xlink:title=" ">
<polygon fill="#ffffff" stroke="#000000" points="132.5,-722.5 132.5,-790.5 245.5,-790.5 245.5,-722.5 132.5,-722.5"/>
<text text-anchor="middle" x="189" y="-778.5" font-family="Helvetica,sans-Serif" font-size="10.00" fill="#000000">GraphicsManager</text>
<polyline fill="none" stroke="#000000" points="132.5,-771.5 245.5,-771.5 "/>
<text text-anchor="start" x="140.5" y="-759.5" font-family="Helvetica,sans-Serif" font-size="10.00" fill="#000000">+ GRAPHICS</text>
<polyline fill="none" stroke="#000000" points="132.5,-752.5 245.5,-752.5 "/>
<text text-anchor="start" x="140.5" y="-740.5" font-family="Helvetica,sans-Serif" font-size="10.00" fill="#000000">+ GraphicsManager()</text>
<text text-anchor="start" x="140.5" y="-729.5" font-family="Helvetica,sans-Serif" font-size="10.00" fill="#000000">+ get()</text>
</a>
</g>
</g>
<!-- Node6&#45;&gt;Node3 -->
<g id="edge7" class="edge">
<title>Node6&#45;&gt;Node3</title>
<path fill="none" stroke="#404040" d="M182.8238,-722.415C178.121,-694.8828 171.9669,-655.0827 169,-620 161.3799,-529.8952 159.2837,-427.5994 159.0098,-350.8188"/>
<polygon fill="none" stroke="#404040" points="159.0097,-350.7208 154.9953,-344.7304 158.9809,-338.7209 162.9953,-344.7113 159.0097,-350.7208"/>
<text text-anchor="middle" x="211.5" y="-506" font-family="Helvetica,sans-Serif" font-size="10.00" fill="#000000"> &#45;graphicsManager</text>
</g>
<!-- Node6&#45;&gt;Node5 -->
<g id="edge5" class="edge">
<title>Node6&#45;&gt;Node5</title>
<path fill="none" stroke="#404040" d="M203.065,-722.2887C213.4012,-698.2019 228.3246,-665.4838 244,-638 247.9501,-631.0742 252.1584,-624.0419 256.5142,-617.0177"/>
<polygon fill="none" stroke="#404040" points="256.5901,-616.8972 256.4056,-609.6884 262.9889,-606.7455 263.1734,-613.9543 256.5901,-616.8972"/>
<text text-anchor="middle" x="286.5" y="-641" font-family="Helvetica,sans-Serif" font-size="10.00" fill="#000000"> &#45;graphicsManager</text>
</g>
<!-- Node7 -->
<g id="node7" class="node">
<title>Node7</title>
<g id="a_node7"><a xlink:href="classCity.html" target="_top" xlink:title=" ">
<polygon fill="#ffffff" stroke="#000000" points="291.5,-667.5 291.5,-845.5 374.5,-845.5 374.5,-667.5 291.5,-667.5"/>
<text text-anchor="middle" x="333" y="-833.5" font-family="Helvetica,sans-Serif" font-size="10.00" fill="#000000">City</text>
<polyline fill="none" stroke="#000000" points="291.5,-826.5 374.5,-826.5 "/>
<text text-anchor="start" x="299.5" y="-814.5" font-family="Helvetica,sans-Serif" font-size="10.00" fill="#000000">&#45; size</text>
<text text-anchor="start" x="299.5" y="-803.5" font-family="Helvetica,sans-Serif" font-size="10.00" fill="#000000">&#45; centerX</text>
<text text-anchor="start" x="299.5" y="-792.5" font-family="Helvetica,sans-Serif" font-size="10.00" fill="#000000">&#45; centerY</text>
<text text-anchor="start" x="299.5" y="-781.5" font-family="Helvetica,sans-Serif" font-size="10.00" fill="#000000">&#45; name</text>
<polyline fill="none" stroke="#000000" points="291.5,-774.5 374.5,-774.5 "/>
<text text-anchor="start" x="299.5" y="-762.5" font-family="Helvetica,sans-Serif" font-size="10.00" fill="#000000">+ City()</text>
<text text-anchor="start" x="299.5" y="-751.5" font-family="Helvetica,sans-Serif" font-size="10.00" fill="#000000">+ City()</text>
<text text-anchor="start" x="299.5" y="-740.5" font-family="Helvetica,sans-Serif" font-size="10.00" fill="#000000">+ getSize()</text>
<text text-anchor="start" x="299.5" y="-729.5" font-family="Helvetica,sans-Serif" font-size="10.00" fill="#000000">+ getCenterX()</text>
<text text-anchor="start" x="299.5" y="-718.5" font-family="Helvetica,sans-Serif" font-size="10.00" fill="#000000">+ getCenterY()</text>
<text text-anchor="start" x="299.5" y="-707.5" font-family="Helvetica,sans-Serif" font-size="10.00" fill="#000000">+ getName()</text>
<text text-anchor="start" x="299.5" y="-696.5" font-family="Helvetica,sans-Serif" font-size="10.00" fill="#000000">+ setSize()</text>
<text text-anchor="start" x="299.5" y="-685.5" font-family="Helvetica,sans-Serif" font-size="10.00" fill="#000000">+ setCenter()</text>
<text text-anchor="start" x="299.5" y="-674.5" font-family="Helvetica,sans-Serif" font-size="10.00" fill="#000000">+ setName()</text>
</a>
</g>
</g>
<!-- Node7&#45;&gt;Node5 -->
<g id="edge6" class="edge">
<title>Node7&#45;&gt;Node5</title>
<path fill="none" stroke="#404040" d="M333,-667.3167C333,-655.8765 333,-644.0062 333,-632.1402"/>
<polygon fill="none" stroke="#404040" points="333.0001,-631.7944 329,-625.7944 333,-619.7944 337,-625.7943 333.0001,-631.7944"/>
<text text-anchor="middle" x="344" y="-641" font-family="Helvetica,sans-Serif" font-size="10.00" fill="#000000"> &#45;city</text>
</g>
</g>
</svg>
