<?xml version="1.0" encoding="UTF-8" standalone="no"?>
<!DOCTYPE svg PUBLIC "-//W3C//DTD SVG 1.1//EN"
 "http://www.w3.org/Graphics/SVG/1.1/DTD/svg11.dtd">
<!-- Generated by graphviz version 2.40.1 (20161225.0304)
 -->
<!-- Title: DataModel::positionChange Pages: 1 -->
<svg width="773pt" height="94pt"
 viewBox="0.00 0.00 773.00 93.50" xmlns="http://www.w3.org/2000/svg" xmlns:xlink="http://www.w3.org/1999/xlink">
<g id="graph0" class="graph" transform="scale(1 1) rotate(0) translate(4 89.5)">
<title>DataModel::positionChange</title>
<polygon fill="#ffffff" stroke="transparent" points="-4,4 -4,-89.5 769,-89.5 769,4 -4,4"/>
<!-- Node1 -->
<g id="node1" class="node">
<title>Node1</title>
<g id="a_node1"><a xlink:title=" ">
<polygon fill="#bfbfbf" stroke="#000000" points="622,-47 622,-66 765,-66 765,-47 622,-47"/>
<text text-anchor="middle" x="693.5" y="-54" font-family="Helvetica,sans-Serif" font-size="10.00" fill="#000000">DataModel::positionChange</text>
</a>
</g>
</g>
<!-- Node2 -->
<g id="node2" class="node">
<title>Node2</title>
<g id="a_node2"><a xlink:href="classClient.html#a5bb9b3ee4f397eed771c9bfe56ca9740" target="_top" xlink:title="Client::Client Erzeugt einen neuen Client.">
<polygon fill="#ffffff" stroke="#000000" points="469.5,-66 469.5,-85 543.5,-85 543.5,-66 469.5,-66"/>
<text text-anchor="middle" x="506.5" y="-73" font-family="Helvetica,sans-Serif" font-size="10.00" fill="#000000">Client::Client</text>
</a>
</g>
</g>
<!-- Node1&#45;&gt;Node2 -->
<g id="edge1" class="edge">
<title>Node1&#45;&gt;Node2</title>
<path fill="none" stroke="#191970" d="M611.6332,-64.818C587.8725,-67.2322 563.0938,-69.7498 543.5639,-71.7341"/>
<polygon fill="#191970" stroke="#191970" points="612.1408,-68.2846 621.7357,-63.7916 611.4331,-61.3204 612.1408,-68.2846"/>
</g>
<!-- Node3 -->
<g id="node3" class="node">
<title>Node3</title>
<g id="a_node3"><a xlink:href="classDataModel.html#a2dcc97fd7387151077bcb3794b1614af" target="_top" xlink:title="DataModel::updateCoordinates Aktualisiert die Koordinaten des fokussierten Quadrantens.">
<polygon fill="#ffffff" stroke="#000000" points="427,-28 427,-47 586,-47 586,-28 427,-28"/>
<text text-anchor="middle" x="506.5" y="-35" font-family="Helvetica,sans-Serif" font-size="10.00" fill="#000000">DataModel::updateCoordinates</text>
</a>
</g>
</g>
<!-- Node1&#45;&gt;Node3 -->
<g id="edge2" class="edge">
<title>Node1&#45;&gt;Node3</title>
<path fill="none" stroke="#191970" d="M611.5422,-48.1727C603.1184,-47.3168 594.5677,-46.4481 586.1692,-45.5947"/>
<polygon fill="#191970" stroke="#191970" points="611.4331,-51.6796 621.7357,-49.2084 612.1408,-44.7154 611.4331,-51.6796"/>
</g>
<!-- Node4 -->
<g id="node4" class="node">
<title>Node4</title>
<g id="a_node4"><a xlink:href="classView.html#aae14a814f17c825ce462509655e54ee4" target="_top" xlink:title="View::mouseMoveEvent QT Methode. Wird aufgerufen wenn die Maus bewegt wird.">
<polygon fill="#ffffff" stroke="#000000" points="259,-50 259,-69 385,-69 385,-50 259,-50"/>
<text text-anchor="middle" x="322" y="-57" font-family="Helvetica,sans-Serif" font-size="10.00" fill="#000000">View::mouseMoveEvent</text>
</a>
</g>
</g>
<!-- Node3&#45;&gt;Node4 -->
<g id="edge3" class="edge">
<title>Node3&#45;&gt;Node4</title>
<path fill="none" stroke="#191970" d="M416.7329,-48.2039C406.0776,-49.4745 395.3781,-50.7503 385.2036,-51.9635"/>
<polygon fill="#191970" stroke="#191970" points="417.4015,-51.6491 426.9167,-46.9896 416.5726,-44.6983 417.4015,-51.6491"/>
</g>
<!-- Node5 -->
<g id="node5" class="node">
<title>Node5</title>
<g id="a_node5"><a xlink:href="classDataModel.html#aacb6a19e48624b83281db172ef01ef4f" target="_top" xlink:title="DataModel::setGuiTimeLabel Setzt das Label in welchem die Koordinate dargestellt wird.">
<polygon fill="#ffffff" stroke="#000000" points="253,-.5 253,-30.5 391,-30.5 391,-.5 253,-.5"/>
<text text-anchor="start" x="261" y="-18.5" font-family="Helvetica,sans-Serif" font-size="10.00" fill="#000000">DataModel::setGuiPosition</text>
<text text-anchor="middle" x="322" y="-7.5" font-family="Helvetica,sans-Serif" font-size="10.00" fill="#000000">Label</text>
</a>
</g>
</g>
<!-- Node3&#45;&gt;Node5 -->
<g id="edge4" class="edge">
<title>Node3&#45;&gt;Node5</title>
<path fill="none" stroke="#191970" d="M416.8274,-26.8073C408.2057,-25.7793 399.5539,-24.7476 391.1736,-23.7483"/>
<polygon fill="#191970" stroke="#191970" points="416.5726,-30.3017 426.9167,-28.0104 417.4015,-23.3509 416.5726,-30.3017"/>
</g>
<!-- Node6 -->
<g id="node6" class="node">
<title>Node6</title>
<g id="a_node6"><a xlink:href="classSidePanel.html#a26f78ad7518003db89a4ec57d63da2e4" target="_top" xlink:title="SidePanel::hookDataModel Verknüpft ein Datenmodell mit der Anzeige. Dadurch können dann Textfelder et...">
<polygon fill="#ffffff" stroke="#000000" points="74,-6 74,-25 217,-25 217,-6 74,-6"/>
<text text-anchor="middle" x="145.5" y="-13" font-family="Helvetica,sans-Serif" font-size="10.00" fill="#000000">SidePanel::hookDataModel</text>
</a>
</g>
</g>
<!-- Node5&#45;&gt;Node6 -->
<g id="edge5" class="edge">
<title>Node5&#45;&gt;Node6</title>
<path fill="none" stroke="#191970" d="M242.5194,-15.5C234.0716,-15.5 225.5156,-15.5 217.1651,-15.5"/>
<polygon fill="#191970" stroke="#191970" points="242.7491,-19.0001 252.7491,-15.5 242.7491,-12.0001 242.7491,-19.0001"/>
</g>
<!-- Node7 -->
<g id="node7" class="node">
<title>Node7</title>
<g id="a_node7"><a xlink:href="main_8cpp.html#a0ddf1224851353fc92bfbff6f499fa97" target="_top" xlink:title="main Startmethode.">
<polygon fill="#ffffff" stroke="#000000" points="0,-6 0,-25 38,-25 38,-6 0,-6"/>
<text text-anchor="middle" x="19" y="-13" font-family="Helvetica,sans-Serif" font-size="10.00" fill="#000000">main</text>
</a>
</g>
</g>
<!-- Node6&#45;&gt;Node7 -->
<g id="edge6" class="edge">
<title>Node6&#45;&gt;Node7</title>
<path fill="none" stroke="#191970" d="M63.71,-15.5C54.2491,-15.5 45.3953,-15.5 38.1032,-15.5"/>
<polygon fill="#191970" stroke="#191970" points="63.749,-19.0001 73.749,-15.5 63.749,-12.0001 63.749,-19.0001"/>
</g>
</g>
</svg>
