<?xml version="1.0" encoding="UTF-8" standalone="no"?>
<!DOCTYPE svg PUBLIC "-//W3C//DTD SVG 1.1//EN"
 "http://www.w3.org/Graphics/SVG/1.1/DTD/svg11.dtd">
<!-- Generated by graphviz version 2.40.1 (20161225.0304)
 -->
<!-- Title: MapTile::setType Pages: 1 -->
<svg width="281pt" height="66pt"
 viewBox="0.00 0.00 281.00 66.00" xmlns="http://www.w3.org/2000/svg" xmlns:xlink="http://www.w3.org/1999/xlink">
<g id="graph0" class="graph" transform="scale(1 1) rotate(0) translate(4 62)">
<title>MapTile::setType</title>
<polygon fill="#ffffff" stroke="transparent" points="-4,4 -4,-62 277,-62 277,4 -4,4"/>
<!-- Node1 -->
<g id="node1" class="node">
<title>Node1</title>
<g id="a_node1"><a xlink:title="MapTile::setType Setzt den Typ der Kachel.">
<polygon fill="#bfbfbf" stroke="#000000" points="175,-19.5 175,-38.5 273,-38.5 273,-19.5 175,-19.5"/>
<text text-anchor="middle" x="224" y="-26.5" font-family="Helvetica,sans-Serif" font-size="10.00" fill="#000000">MapTile::setType</text>
</a>
</g>
</g>
<!-- Node2 -->
<g id="node2" class="node">
<title>Node2</title>
<g id="a_node2"><a xlink:href="classScene.html#a1ef1c0e0972913d4c477ead916cf06b0" target="_top" xlink:title="Scene::generateWorld Diese Methode generiert eine neue Welt.">
<polygon fill="#ffffff" stroke="#000000" points="10,-38.5 10,-57.5 129,-57.5 129,-38.5 10,-38.5"/>
<text text-anchor="middle" x="69.5" y="-45.5" font-family="Helvetica,sans-Serif" font-size="10.00" fill="#000000">Scene::generateWorld</text>
</a>
</g>
</g>
<!-- Node1&#45;&gt;Node2 -->
<g id="edge1" class="edge">
<title>Node1&#45;&gt;Node2</title>
<path fill="none" stroke="#191970" d="M164.6418,-36.2997C153.0069,-37.7305 140.7989,-39.2319 129.1543,-40.6639"/>
<polygon fill="#191970" stroke="#191970" points="165.1924,-39.7585 174.6904,-35.064 164.338,-32.8108 165.1924,-39.7585"/>
</g>
<!-- Node3 -->
<g id="node3" class="node">
<title>Node3</title>
<g id="a_node3"><a xlink:href="classView.html#a76d60435e43027b8497091d02acb77bd" target="_top" xlink:title="View::mouseReleaseEvent QT Methode. Wird aufgerufen wenn die Maus losgelassen wird.">
<polygon fill="#ffffff" stroke="#000000" points="0,-.5 0,-19.5 139,-19.5 139,-.5 0,-.5"/>
<text text-anchor="middle" x="69.5" y="-7.5" font-family="Helvetica,sans-Serif" font-size="10.00" fill="#000000">View::mouseReleaseEvent</text>
</a>
</g>
</g>
<!-- Node1&#45;&gt;Node3 -->
<g id="edge2" class="edge">
<title>Node1&#45;&gt;Node3</title>
<path fill="none" stroke="#191970" d="M164.6848,-21.7056C156.3387,-20.6792 147.697,-19.6165 139.1792,-18.569"/>
<polygon fill="#191970" stroke="#191970" points="164.338,-25.1892 174.6904,-22.936 165.1925,-18.2415 164.338,-25.1892"/>
</g>
</g>
</svg>
