<?xml version="1.0" encoding="UTF-8" standalone="no"?>
<!DOCTYPE svg PUBLIC "-//W3C//DTD SVG 1.1//EN"
 "http://www.w3.org/Graphics/SVG/1.1/DTD/svg11.dtd">
<!-- Generated by graphviz version 2.40.1 (20161225.0304)
 -->
<!-- Title: View::mouseReleaseEvent Pages: 1 -->
<svg width="439pt" height="218pt"
 viewBox="0.00 0.00 439.00 218.00" xmlns="http://www.w3.org/2000/svg" xmlns:xlink="http://www.w3.org/1999/xlink">
<g id="graph0" class="graph" transform="scale(1 1) rotate(0) translate(4 214)">
<title>View::mouseReleaseEvent</title>
<polygon fill="#ffffff" stroke="transparent" points="-4,4 -4,-214 435,-214 435,4 -4,4"/>
<!-- Node1 -->
<g id="node1" class="node">
<title>Node1</title>
<g id="a_node1"><a xlink:title="View::mouseReleaseEvent QT Methode. Wird aufgerufen wenn die Maus losgelassen wird.">
<polygon fill="#bfbfbf" stroke="#000000" points="0,-95.5 0,-114.5 139,-114.5 139,-95.5 0,-95.5"/>
<text text-anchor="middle" x="69.5" y="-102.5" font-family="Helvetica,sans-Serif" font-size="10.00" fill="#000000">View::mouseReleaseEvent</text>
</a>
</g>
</g>
<!-- Node2 -->
<g id="node2" class="node">
<title>Node2</title>
<g id="a_node2"><a xlink:href="classView.html#a5b3625ec64bc9d2432cc09d33e6879f1" target="_top" xlink:title="View::fluidMovement Verschiebt die Karte animiert an zu einer absoluten Koordinate.">
<polygon fill="#ffffff" stroke="#000000" points="175,-190.5 175,-209.5 285,-209.5 285,-190.5 175,-190.5"/>
<text text-anchor="middle" x="230" y="-197.5" font-family="Helvetica,sans-Serif" font-size="10.00" fill="#000000">View::fluidMovement</text>
</a>
</g>
</g>
<!-- Node1&#45;&gt;Node2 -->
<g id="edge1" class="edge">
<title>Node1&#45;&gt;Node2</title>
<path fill="none" stroke="#191970" d="M80.49,-114.6036C98.924,-130.3086 137.7277,-161.6692 175,-181 179.044,-183.0974 183.3698,-185.0454 187.7528,-186.8315"/>
<polygon fill="#191970" stroke="#191970" points="186.7605,-190.1986 197.3517,-190.4785 189.2467,-183.655 186.7605,-190.1986"/>
</g>
<!-- Node3 -->
<g id="node3" class="node">
<title>Node3</title>
<g id="a_node3"><a xlink:href="classView.html#a33de978d43cde59ae344035ebcb60184" target="_top" xlink:title="View::fluidZoom Startet eine Zoom&#45;Animation. Zuvor muss doAnimations=true gesetzt sein....">
<polygon fill="#ffffff" stroke="#000000" points="185,-152.5 185,-171.5 275,-171.5 275,-152.5 185,-152.5"/>
<text text-anchor="middle" x="230" y="-159.5" font-family="Helvetica,sans-Serif" font-size="10.00" fill="#000000">View::fluidZoom</text>
</a>
</g>
</g>
<!-- Node1&#45;&gt;Node3 -->
<g id="edge2" class="edge">
<title>Node1&#45;&gt;Node3</title>
<path fill="none" stroke="#191970" d="M95.9135,-114.6223C117.2323,-122.3624 148.0126,-133.4787 175,-143 180.6149,-144.9809 186.5595,-147.0568 192.3846,-149.0789"/>
<polygon fill="#191970" stroke="#191970" points="191.4006,-152.442 201.9954,-152.405 193.69,-145.827 191.4006,-152.442"/>
</g>
<!-- Node4 -->
<g id="node4" class="node">
<title>Node4</title>
<g id="a_node4"><a xlink:href="classCity.html#a0543ff407447b87a952c40bb36f5eef1" target="_top" xlink:title="City::getCenterX Gibt den X&#45;Index des Mittelpunktes.">
<polygon fill="#ffffff" stroke="#000000" points="184.5,-114.5 184.5,-133.5 275.5,-133.5 275.5,-114.5 184.5,-114.5"/>
<text text-anchor="middle" x="230" y="-121.5" font-family="Helvetica,sans-Serif" font-size="10.00" fill="#000000">City::getCenterX</text>
</a>
</g>
</g>
<!-- Node1&#45;&gt;Node4 -->
<g id="edge3" class="edge">
<title>Node1&#45;&gt;Node4</title>
<path fill="none" stroke="#191970" d="M139.4307,-113.2784C151.0725,-114.6566 163.0089,-116.0696 174.2379,-117.3989"/>
<polygon fill="#191970" stroke="#191970" points="173.9804,-120.8927 184.3225,-118.5927 174.8034,-113.9413 173.9804,-120.8927"/>
</g>
<!-- Node5 -->
<g id="node5" class="node">
<title>Node5</title>
<g id="a_node5"><a xlink:href="classCity.html#a99261799f5bec9256ef94c3e4ebda0df" target="_top" xlink:title="City::getCenterX Gibt den Y&#45;Index des Mittelpunktes.">
<polygon fill="#ffffff" stroke="#000000" points="184.5,-76.5 184.5,-95.5 275.5,-95.5 275.5,-76.5 184.5,-76.5"/>
<text text-anchor="middle" x="230" y="-83.5" font-family="Helvetica,sans-Serif" font-size="10.00" fill="#000000">City::getCenterY</text>
</a>
</g>
</g>
<!-- Node1&#45;&gt;Node5 -->
<g id="edge4" class="edge">
<title>Node1&#45;&gt;Node5</title>
<path fill="none" stroke="#191970" d="M139.4307,-96.7216C151.0725,-95.3434 163.0089,-93.9304 174.2379,-92.6011"/>
<polygon fill="#191970" stroke="#191970" points="174.8034,-96.0587 184.3225,-91.4073 173.9804,-89.1073 174.8034,-96.0587"/>
</g>
<!-- Node6 -->
<g id="node6" class="node">
<title>Node6</title>
<g id="a_node6"><a xlink:href="classScene.html#a39b85af5f6c0da2fa10c534a57c0cbf0" target="_top" xlink:title="Scene::getTileAt Liefert ein MapTile anhand der Pixel&#45;Koordinaten.">
<polygon fill="#ffffff" stroke="#000000" points="183.5,-38.5 183.5,-57.5 276.5,-57.5 276.5,-38.5 183.5,-38.5"/>
<text text-anchor="middle" x="230" y="-45.5" font-family="Helvetica,sans-Serif" font-size="10.00" fill="#000000">Scene::getTileAt</text>
</a>
</g>
</g>
<!-- Node1&#45;&gt;Node6 -->
<g id="edge5" class="edge">
<title>Node1&#45;&gt;Node6</title>
<path fill="none" stroke="#191970" d="M95.9135,-95.3777C117.2323,-87.6376 148.0126,-76.5213 175,-67 180.6149,-65.0191 186.5595,-62.9432 192.3846,-60.9211"/>
<polygon fill="#191970" stroke="#191970" points="193.69,-64.173 201.9954,-57.595 191.4006,-57.558 193.69,-64.173"/>
</g>
<!-- Node7 -->
<g id="node7" class="node">
<title>Node7</title>
<g id="a_node7"><a xlink:href="classMapTile.html#a6f6c6e03095e0f1ed503dd30f499793c" target="_top" xlink:title="MapTile::setType Setzt den Typ der Kachel.">
<polygon fill="#ffffff" stroke="#000000" points="181,-.5 181,-19.5 279,-19.5 279,-.5 181,-.5"/>
<text text-anchor="middle" x="230" y="-7.5" font-family="Helvetica,sans-Serif" font-size="10.00" fill="#000000">MapTile::setType</text>
</a>
</g>
</g>
<!-- Node1&#45;&gt;Node7 -->
<g id="edge6" class="edge">
<title>Node1&#45;&gt;Node7</title>
<path fill="none" stroke="#191970" d="M80.49,-95.3964C98.924,-79.6914 137.7277,-48.3308 175,-29 179.044,-26.9026 183.3698,-24.9546 187.7528,-23.1685"/>
<polygon fill="#191970" stroke="#191970" points="189.2467,-26.345 197.3517,-19.5215 186.7605,-19.8014 189.2467,-26.345"/>
</g>
<!-- Node8 -->
<g id="node8" class="node">
<title>Node8</title>
<g id="a_node8"><a xlink:href="classMapTile.html#a57b8310cfe045dc6a8e0c3c25fe9fc52" target="_top" xlink:title="MapTile::setRotation Hilfsfunktion zur Rotation im Quadrat.">
<polygon fill="#ffffff" stroke="#000000" points="321,-.5 321,-19.5 431,-19.5 431,-.5 321,-.5"/>
<text text-anchor="middle" x="376" y="-7.5" font-family="Helvetica,sans-Serif" font-size="10.00" fill="#000000">MapTile::setRotation</text>
</a>
</g>
</g>
<!-- Node7&#45;&gt;Node8 -->
<g id="edge7" class="edge">
<title>Node7&#45;&gt;Node8</title>
<path fill="none" stroke="#191970" d="M279.022,-10C289.1921,-10 300.0605,-10 310.7078,-10"/>
<polygon fill="#191970" stroke="#191970" points="310.8183,-13.5001 320.8183,-10 310.8183,-6.5001 310.8183,-13.5001"/>
</g>
</g>
</svg>
