<?xml version="1.0" encoding="UTF-8" standalone="no"?>
<!DOCTYPE svg PUBLIC "-//W3C//DTD SVG 1.1//EN"
 "http://www.w3.org/Graphics/SVG/1.1/DTD/svg11.dtd">
<!-- Generated by graphviz version 2.40.1 (20161225.0304)
 -->
<!-- Title: DataModel::updateBalance Pages: 1 -->
<svg width="578pt" height="39pt"
 viewBox="0.00 0.00 578.00 39.00" xmlns="http://www.w3.org/2000/svg" xmlns:xlink="http://www.w3.org/1999/xlink">
<g id="graph0" class="graph" transform="scale(1 1) rotate(0) translate(4 35)">
<title>DataModel::updateBalance</title>
<polygon fill="#ffffff" stroke="transparent" points="-4,4 -4,-35 574,-35 574,4 -4,4"/>
<!-- Node1 -->
<g id="node1" class="node">
<title>Node1</title>
<g id="a_node1"><a xlink:title="DataModel::updateBalance Aktualisiert den Kontostand. Auch in Anzeigen etc.">
<polygon fill="#bfbfbf" stroke="#000000" points="429,-6 429,-25 570,-25 570,-6 429,-6"/>
<text text-anchor="middle" x="499.5" y="-13" font-family="Helvetica,sans-Serif" font-size="10.00" fill="#000000">DataModel::updateBalance</text>
</a>
</g>
</g>
<!-- Node2 -->
<g id="node2" class="node">
<title>Node2</title>
<g id="a_node2"><a xlink:href="classDataModel.html#aa43618b4473a997594d2f971f3e50874" target="_top" xlink:title="DataModel::setGuiBalanceLabel Setzt das Label in welchem der Kontostand dargestellt wird.">
<polygon fill="#ffffff" stroke="#000000" points="253,-.5 253,-30.5 393,-30.5 393,-.5 253,-.5"/>
<text text-anchor="start" x="261" y="-18.5" font-family="Helvetica,sans-Serif" font-size="10.00" fill="#000000">DataModel::setGuiBalance</text>
<text text-anchor="middle" x="323" y="-7.5" font-family="Helvetica,sans-Serif" font-size="10.00" fill="#000000">Label</text>
</a>
</g>
</g>
<!-- Node1&#45;&gt;Node2 -->
<g id="edge1" class="edge">
<title>Node1&#45;&gt;Node2</title>
<path fill="none" stroke="#191970" d="M418.9316,-15.5C410.315,-15.5 401.6,-15.5 393.1185,-15.5"/>
<polygon fill="#191970" stroke="#191970" points="418.9816,-19.0001 428.9816,-15.5 418.9816,-12.0001 418.9816,-19.0001"/>
</g>
<!-- Node3 -->
<g id="node3" class="node">
<title>Node3</title>
<g id="a_node3"><a xlink:href="classSidePanel.html#a26f78ad7518003db89a4ec57d63da2e4" target="_top" xlink:title="SidePanel::hookDataModel Verknüpft ein Datenmodell mit der Anzeige. Dadurch können dann Textfelder et...">
<polygon fill="#ffffff" stroke="#000000" points="74,-6 74,-25 217,-25 217,-6 74,-6"/>
<text text-anchor="middle" x="145.5" y="-13" font-family="Helvetica,sans-Serif" font-size="10.00" fill="#000000">SidePanel::hookDataModel</text>
</a>
</g>
</g>
<!-- Node2&#45;&gt;Node3 -->
<g id="edge2" class="edge">
<title>Node2&#45;&gt;Node3</title>
<path fill="none" stroke="#191970" d="M242.5866,-15.5C234.116,-15.5 225.5431,-15.5 217.1804,-15.5"/>
<polygon fill="#191970" stroke="#191970" points="242.8473,-19.0001 252.8473,-15.5 242.8473,-12.0001 242.8473,-19.0001"/>
</g>
<!-- Node4 -->
<g id="node4" class="node">
<title>Node4</title>
<g id="a_node4"><a xlink:href="main_8cpp.html#a0ddf1224851353fc92bfbff6f499fa97" target="_top" xlink:title="main Startmethode.">
<polygon fill="#ffffff" stroke="#000000" points="0,-6 0,-25 38,-25 38,-6 0,-6"/>
<text text-anchor="middle" x="19" y="-13" font-family="Helvetica,sans-Serif" font-size="10.00" fill="#000000">main</text>
</a>
</g>
</g>
<!-- Node3&#45;&gt;Node4 -->
<g id="edge3" class="edge">
<title>Node3&#45;&gt;Node4</title>
<path fill="none" stroke="#191970" d="M63.71,-15.5C54.2491,-15.5 45.3953,-15.5 38.1032,-15.5"/>
<polygon fill="#191970" stroke="#191970" points="63.749,-19.0001 73.749,-15.5 63.749,-12.0001 63.749,-19.0001"/>
</g>
</g>
</svg>
