<?xml version="1.0" encoding="UTF-8" standalone="no"?>
<!DOCTYPE svg PUBLIC "-//W3C//DTD SVG 1.1//EN"
 "http://www.w3.org/Graphics/SVG/1.1/DTD/svg11.dtd">
<!-- Generated by graphviz version 2.40.1 (20161225.0304)
 -->
<!-- Title: Scene::Scene Pages: 1 -->
<svg width="447pt" height="123pt"
 viewBox="0.00 0.00 447.00 123.00" xmlns="http://www.w3.org/2000/svg" xmlns:xlink="http://www.w3.org/1999/xlink">
<g id="graph0" class="graph" transform="scale(1 1) rotate(0) translate(4 119)">
<title>Scene::Scene</title>
<polygon fill="#ffffff" stroke="transparent" points="-4,4 -4,-119 443,-119 443,4 -4,4"/>
<!-- Node1 -->
<g id="node1" class="node">
<title>Node1</title>
<g id="a_node1"><a xlink:title="Scene::Scene Konstruktor.">
<polygon fill="#bfbfbf" stroke="#000000" points="0,-57.5 0,-76.5 81,-76.5 81,-57.5 0,-57.5"/>
<text text-anchor="middle" x="40.5" y="-64.5" font-family="Helvetica,sans-Serif" font-size="10.00" fill="#000000">Scene::Scene</text>
</a>
</g>
</g>
<!-- Node2 -->
<g id="node2" class="node">
<title>Node2</title>
<g id="a_node2"><a xlink:href="classMapTile.html#ab4bb0d1a5821e262be17c6d6fcd29f6f" target="_top" xlink:title="MapTile::attachGraphicsManager Setzte den GraphicsManager.">
<polygon fill="#ffffff" stroke="#000000" points="117,-95.5 117,-114.5 285,-114.5 285,-95.5 117,-95.5"/>
<text text-anchor="middle" x="201" y="-102.5" font-family="Helvetica,sans-Serif" font-size="10.00" fill="#000000">MapTile::attachGraphicsManager</text>
</a>
</g>
</g>
<!-- Node1&#45;&gt;Node2 -->
<g id="edge1" class="edge">
<title>Node1&#45;&gt;Node2</title>
<path fill="none" stroke="#191970" d="M78.2049,-76.5314C90.5546,-79.6087 104.3506,-82.9989 117,-86 126.9289,-88.3556 137.5342,-90.8057 147.7494,-93.1324"/>
<polygon fill="#191970" stroke="#191970" points="147.2686,-96.6122 157.795,-95.4099 148.8164,-89.7854 147.2686,-96.6122"/>
</g>
<!-- Node3 -->
<g id="node3" class="node">
<title>Node3</title>
<g id="a_node3"><a xlink:href="classMapTile.html#a954bfbd36f8055157616c38392a0ceef" target="_top" xlink:title="MapTile::setPosition Setzt die Position der Kachel. (In Pixeln)">
<polygon fill="#ffffff" stroke="#000000" points="146,-57.5 146,-76.5 256,-76.5 256,-57.5 146,-57.5"/>
<text text-anchor="middle" x="201" y="-64.5" font-family="Helvetica,sans-Serif" font-size="10.00" fill="#000000">MapTile::setPosition</text>
</a>
</g>
</g>
<!-- Node1&#45;&gt;Node3 -->
<g id="edge2" class="edge">
<title>Node1&#45;&gt;Node3</title>
<path fill="none" stroke="#191970" d="M81.0009,-67C97.6121,-67 117.2632,-67 135.8026,-67"/>
<polygon fill="#191970" stroke="#191970" points="135.9615,-70.5001 145.9615,-67 135.9615,-63.5001 135.9615,-70.5001"/>
</g>
<!-- Node4 -->
<g id="node4" class="node">
<title>Node4</title>
<g id="a_node4"><a xlink:href="classMapTile.html#a6f6c6e03095e0f1ed503dd30f499793c" target="_top" xlink:title="MapTile::setType Setzt den Typ der Kachel.">
<polygon fill="#ffffff" stroke="#000000" points="152,-19.5 152,-38.5 250,-38.5 250,-19.5 152,-19.5"/>
<text text-anchor="middle" x="201" y="-26.5" font-family="Helvetica,sans-Serif" font-size="10.00" fill="#000000">MapTile::setType</text>
</a>
</g>
</g>
<!-- Node1&#45;&gt;Node4 -->
<g id="edge3" class="edge">
<title>Node1&#45;&gt;Node4</title>
<path fill="none" stroke="#191970" d="M78.2049,-57.4686C90.5546,-54.3913 104.3506,-51.0011 117,-48 126.9289,-45.6444 137.5342,-43.1943 147.7494,-40.8676"/>
<polygon fill="#191970" stroke="#191970" points="148.8164,-44.2146 157.795,-38.5901 147.2686,-37.3878 148.8164,-44.2146"/>
</g>
<!-- Node5 -->
<g id="node5" class="node">
<title>Node5</title>
<g id="a_node5"><a xlink:href="classGraphicsManager.html#aa094318dfcf4d0d399296b323dd670c6" target="_top" xlink:title="GraphicsManager::get Liefert eine Grafik mit einem bestimmten Namen.">
<polygon fill="#ffffff" stroke="#000000" points="321,-38.5 321,-57.5 439,-57.5 439,-38.5 321,-38.5"/>
<text text-anchor="middle" x="380" y="-45.5" font-family="Helvetica,sans-Serif" font-size="10.00" fill="#000000">GraphicsManager::get</text>
</a>
</g>
</g>
<!-- Node4&#45;&gt;Node5 -->
<g id="edge4" class="edge">
<title>Node4&#45;&gt;Node5</title>
<path fill="none" stroke="#191970" d="M250.3864,-34.2421C269.0653,-36.2248 290.6835,-38.5195 310.8468,-40.6597"/>
<polygon fill="#191970" stroke="#191970" points="310.6071,-44.1539 320.9207,-41.729 311.3461,-37.193 310.6071,-44.1539"/>
</g>
<!-- Node6 -->
<g id="node6" class="node">
<title>Node6</title>
<g id="a_node6"><a xlink:href="classMapTile.html#a57b8310cfe045dc6a8e0c3c25fe9fc52" target="_top" xlink:title="MapTile::setRotation Hilfsfunktion zur Rotation im Quadrat.">
<polygon fill="#ffffff" stroke="#000000" points="325,-.5 325,-19.5 435,-19.5 435,-.5 325,-.5"/>
<text text-anchor="middle" x="380" y="-7.5" font-family="Helvetica,sans-Serif" font-size="10.00" fill="#000000">MapTile::setRotation</text>
</a>
</g>
</g>
<!-- Node4&#45;&gt;Node6 -->
<g id="edge5" class="edge">
<title>Node4&#45;&gt;Node6</title>
<path fill="none" stroke="#191970" d="M250.3864,-23.7579C270.2178,-21.6529 293.3622,-19.1962 314.5612,-16.946"/>
<polygon fill="#191970" stroke="#191970" points="315.214,-20.3965 324.7887,-15.8604 314.4751,-13.4356 315.214,-20.3965"/>
</g>
</g>
</svg>
