<?xml version="1.0" encoding="UTF-8" standalone="no"?>
<!DOCTYPE svg PUBLIC "-//W3C//DTD SVG 1.1//EN"
 "http://www.w3.org/Graphics/SVG/1.1/DTD/svg11.dtd">
<!-- Generated by graphviz version 2.40.1 (20161225.0304)
 -->
<!-- Title: View Pages: 1 -->
<svg width="588pt" height="1129pt"
 viewBox="0.00 0.00 587.50 1129.00" xmlns="http://www.w3.org/2000/svg" xmlns:xlink="http://www.w3.org/1999/xlink">
<g id="graph0" class="graph" transform="scale(1 1) rotate(0) translate(4 1125)">
<title>View</title>
<polygon fill="#ffffff" stroke="transparent" points="-4,4 -4,-1125 583.5,-1125 583.5,4 -4,4"/>
<!-- Node1 -->
<g id="node1" class="node">
<title>Node1</title>
<g id="a_node1"><a xlink:title=" ">
<polygon fill="#bfbfbf" stroke="#000000" points="264.5,-.5 264.5,-266.5 389.5,-266.5 389.5,-.5 264.5,-.5"/>
<text text-anchor="middle" x="327" y="-254.5" font-family="Helvetica,sans-Serif" font-size="10.00" fill="#000000">View</text>
<polyline fill="none" stroke="#000000" points="264.5,-247.5 389.5,-247.5 "/>
<text text-anchor="start" x="272.5" y="-235.5" font-family="Helvetica,sans-Serif" font-size="10.00" fill="#000000">+ currentScale</text>
<text text-anchor="start" x="272.5" y="-224.5" font-family="Helvetica,sans-Serif" font-size="10.00" fill="#000000">&#45; dragOriginX</text>
<text text-anchor="start" x="272.5" y="-213.5" font-family="Helvetica,sans-Serif" font-size="10.00" fill="#000000">&#45; dragOriginY</text>
<text text-anchor="start" x="272.5" y="-202.5" font-family="Helvetica,sans-Serif" font-size="10.00" fill="#000000">&#45; dragPosX</text>
<text text-anchor="start" x="272.5" y="-191.5" font-family="Helvetica,sans-Serif" font-size="10.00" fill="#000000">&#45; dragPosY</text>
<text text-anchor="start" x="272.5" y="-180.5" font-family="Helvetica,sans-Serif" font-size="10.00" fill="#000000">&#45; mouseX</text>
<text text-anchor="start" x="272.5" y="-169.5" font-family="Helvetica,sans-Serif" font-size="10.00" fill="#000000">&#45; mouseY</text>
<text text-anchor="start" x="272.5" y="-158.5" font-family="Helvetica,sans-Serif" font-size="10.00" fill="#000000">&#45; mouseDown</text>
<text text-anchor="start" x="272.5" y="-147.5" font-family="Helvetica,sans-Serif" font-size="10.00" fill="#000000">&#45; doAnimations</text>
<polyline fill="none" stroke="#000000" points="264.5,-140.5 389.5,-140.5 "/>
<text text-anchor="start" x="272.5" y="-128.5" font-family="Helvetica,sans-Serif" font-size="10.00" fill="#000000">+ View()</text>
<text text-anchor="start" x="272.5" y="-117.5" font-family="Helvetica,sans-Serif" font-size="10.00" fill="#000000">+ mousePressEvent()</text>
<text text-anchor="start" x="272.5" y="-106.5" font-family="Helvetica,sans-Serif" font-size="10.00" fill="#000000">+ mouseReleaseEvent()</text>
<text text-anchor="start" x="272.5" y="-95.5" font-family="Helvetica,sans-Serif" font-size="10.00" fill="#000000">+ mouseMoveEvent()</text>
<text text-anchor="start" x="272.5" y="-84.5" font-family="Helvetica,sans-Serif" font-size="10.00" fill="#000000">+ wheelEvent()</text>
<text text-anchor="start" x="272.5" y="-73.5" font-family="Helvetica,sans-Serif" font-size="10.00" fill="#000000">+ keyPressEvent()</text>
<text text-anchor="start" x="272.5" y="-62.5" font-family="Helvetica,sans-Serif" font-size="10.00" fill="#000000">+ fluidZoom()</text>
<text text-anchor="start" x="272.5" y="-51.5" font-family="Helvetica,sans-Serif" font-size="10.00" fill="#000000">+ fluidMove()</text>
<text text-anchor="start" x="272.5" y="-40.5" font-family="Helvetica,sans-Serif" font-size="10.00" fill="#000000">+ fluidMovement()</text>
<text text-anchor="start" x="272.5" y="-29.5" font-family="Helvetica,sans-Serif" font-size="10.00" fill="#000000">+ enableAnimation()</text>
<text text-anchor="start" x="272.5" y="-18.5" font-family="Helvetica,sans-Serif" font-size="10.00" fill="#000000">+ setDataModel()</text>
<text text-anchor="start" x="272.5" y="-7.5" font-family="Helvetica,sans-Serif" font-size="10.00" fill="#000000">+ zoomInAnimation()</text>
</a>
</g>
</g>
<!-- Node2 -->
<g id="node2" class="node">
<title>Node2</title>
<g id="a_node2"><a xlink:title=" ">
<polygon fill="#ffffff" stroke="#bfbfbf" points="93.5,-435.5 93.5,-492.5 180.5,-492.5 180.5,-435.5 93.5,-435.5"/>
<text text-anchor="middle" x="137" y="-480.5" font-family="Helvetica,sans-Serif" font-size="10.00" fill="#000000">QGraphicsView</text>
<polyline fill="none" stroke="#bfbfbf" points="93.5,-473.5 180.5,-473.5 "/>
<text text-anchor="middle" x="137" y="-461.5" font-family="Helvetica,sans-Serif" font-size="10.00" fill="#000000"> </text>
<polyline fill="none" stroke="#bfbfbf" points="93.5,-454.5 180.5,-454.5 "/>
<text text-anchor="middle" x="137" y="-442.5" font-family="Helvetica,sans-Serif" font-size="10.00" fill="#000000"> </text>
</a>
</g>
</g>
<!-- Node2&#45;&gt;Node1 -->
<g id="edge1" class="edge">
<title>Node2&#45;&gt;Node1</title>
<path fill="none" stroke="#191970" d="M147.1018,-425.2315C156.0495,-394.0988 170.6884,-349.8216 190,-314 210.5357,-275.9078 238.718,-237.2252 264.1841,-205.4925"/>
<polygon fill="none" stroke="#191970" points="143.6211,-424.6805 144.287,-435.2544 150.3604,-426.5732 143.6211,-424.6805"/>
</g>
<!-- Node3 -->
<g id="node3" class="node">
<title>Node3</title>
<g id="a_node3"><a xlink:href="classScene.html" target="_top" xlink:title=" ">
<polygon fill="#ffffff" stroke="#000000" points="199,-358.5 199,-569.5 327,-569.5 327,-358.5 199,-358.5"/>
<text text-anchor="middle" x="263" y="-557.5" font-family="Helvetica,sans-Serif" font-size="10.00" fill="#000000">Scene</text>
<polyline fill="none" stroke="#000000" points="199,-550.5 327,-550.5 "/>
<text text-anchor="start" x="207" y="-538.5" font-family="Helvetica,sans-Serif" font-size="10.00" fill="#000000">+ MAP_SIZE</text>
<text text-anchor="start" x="207" y="-527.5" font-family="Helvetica,sans-Serif" font-size="10.00" fill="#000000">+ TILE_SIZE</text>
<text text-anchor="start" x="207" y="-516.5" font-family="Helvetica,sans-Serif" font-size="10.00" fill="#000000">&#45; highlighter</text>
<text text-anchor="start" x="207" y="-505.5" font-family="Helvetica,sans-Serif" font-size="10.00" fill="#000000">&#45; radiusHighlighter</text>
<text text-anchor="start" x="207" y="-494.5" font-family="Helvetica,sans-Serif" font-size="10.00" fill="#000000">&#45; textHint</text>
<text text-anchor="start" x="207" y="-483.5" font-family="Helvetica,sans-Serif" font-size="10.00" fill="#000000">&#45; showRadius</text>
<text text-anchor="start" x="207" y="-472.5" font-family="Helvetica,sans-Serif" font-size="10.00" fill="#000000">&#45; players</text>
<polyline fill="none" stroke="#000000" points="199,-465.5 327,-465.5 "/>
<text text-anchor="start" x="207" y="-453.5" font-family="Helvetica,sans-Serif" font-size="10.00" fill="#000000">+ Scene()</text>
<text text-anchor="start" x="207" y="-442.5" font-family="Helvetica,sans-Serif" font-size="10.00" fill="#000000">+ generateWorld()</text>
<text text-anchor="start" x="207" y="-431.5" font-family="Helvetica,sans-Serif" font-size="10.00" fill="#000000">+ setActiveTile()</text>
<text text-anchor="start" x="207" y="-420.5" font-family="Helvetica,sans-Serif" font-size="10.00" fill="#000000">+ getTileAt()</text>
<text text-anchor="start" x="207" y="-409.5" font-family="Helvetica,sans-Serif" font-size="10.00" fill="#000000">+ setTileAt()</text>
<text text-anchor="start" x="207" y="-398.5" font-family="Helvetica,sans-Serif" font-size="10.00" fill="#000000">+ tileChanged()</text>
<text text-anchor="start" x="207" y="-387.5" font-family="Helvetica,sans-Serif" font-size="10.00" fill="#000000">+ onSetTile()</text>
<text text-anchor="start" x="207" y="-376.5" font-family="Helvetica,sans-Serif" font-size="10.00" fill="#000000">+ updatePlayerPosition()</text>
<text text-anchor="start" x="207" y="-365.5" font-family="Helvetica,sans-Serif" font-size="10.00" fill="#000000">+ addPlayer()</text>
</a>
</g>
</g>
<!-- Node3&#45;&gt;Node1 -->
<g id="edge2" class="edge">
<title>Node3&#45;&gt;Node1</title>
<path fill="none" stroke="#404040" d="M283.5141,-358.064C288.4188,-332.7356 293.7386,-305.2638 298.9193,-278.5104"/>
<polygon fill="none" stroke="#404040" points="298.9269,-278.471 296.1405,-271.8199 301.2083,-266.6899 303.9946,-273.3409 298.9269,-278.471"/>
<text text-anchor="middle" x="315.5" y="-288" font-family="Helvetica,sans-Serif" font-size="10.00" fill="#000000"> +scene</text>
</g>
<!-- Node4 -->
<g id="node4" class="node">
<title>Node4</title>
<g id="a_node4"><a xlink:title=" ">
<polygon fill="#ffffff" stroke="#bfbfbf" points="0,-755 0,-812 94,-812 94,-755 0,-755"/>
<text text-anchor="middle" x="47" y="-800" font-family="Helvetica,sans-Serif" font-size="10.00" fill="#000000">QGraphicsScene</text>
<polyline fill="none" stroke="#bfbfbf" points="0,-793 94,-793 "/>
<text text-anchor="middle" x="47" y="-781" font-family="Helvetica,sans-Serif" font-size="10.00" fill="#000000"> </text>
<polyline fill="none" stroke="#bfbfbf" points="0,-774 94,-774 "/>
<text text-anchor="middle" x="47" y="-762" font-family="Helvetica,sans-Serif" font-size="10.00" fill="#000000"> </text>
</a>
</g>
</g>
<!-- Node4&#45;&gt;Node3 -->
<g id="edge3" class="edge">
<title>Node4&#45;&gt;Node3</title>
<path fill="none" stroke="#191970" d="M54.5382,-745.1454C63.3537,-710.5166 81.3825,-660.722 116,-632 141.717,-610.6627 162.9562,-634.9371 189,-614 203.8238,-602.0829 215.9063,-586.4444 225.6799,-569.769"/>
<polygon fill="none" stroke="#191970" points="51.1223,-744.3811 52.1898,-754.9221 57.9287,-746.0161 51.1223,-744.3811"/>
</g>
<!-- Node5 -->
<g id="node5" class="node">
<title>Node5</title>
<g id="a_node5"><a xlink:href="classMapTile.html" target="_top" xlink:title=" ">
<polygon fill="#ffffff" stroke="#000000" points="233,-672.5 233,-894.5 373,-894.5 373,-672.5 233,-672.5"/>
<text text-anchor="middle" x="303" y="-882.5" font-family="Helvetica,sans-Serif" font-size="10.00" fill="#000000">MapTile</text>
<polyline fill="none" stroke="#000000" points="233,-875.5 373,-875.5 "/>
<text text-anchor="start" x="241" y="-863.5" font-family="Helvetica,sans-Serif" font-size="10.00" fill="#000000">&#45; type</text>
<text text-anchor="start" x="241" y="-852.5" font-family="Helvetica,sans-Serif" font-size="10.00" fill="#000000">&#45; pixmapItem</text>
<text text-anchor="start" x="241" y="-841.5" font-family="Helvetica,sans-Serif" font-size="10.00" fill="#000000">&#45; currentRotation</text>
<polyline fill="none" stroke="#000000" points="233,-834.5 373,-834.5 "/>
<text text-anchor="start" x="241" y="-822.5" font-family="Helvetica,sans-Serif" font-size="10.00" fill="#000000">+ MapTile()</text>
<text text-anchor="start" x="241" y="-811.5" font-family="Helvetica,sans-Serif" font-size="10.00" fill="#000000">+ MapTile()</text>
<text text-anchor="start" x="241" y="-800.5" font-family="Helvetica,sans-Serif" font-size="10.00" fill="#000000">+ setType()</text>
<text text-anchor="start" x="241" y="-789.5" font-family="Helvetica,sans-Serif" font-size="10.00" fill="#000000">+ getType()</text>
<text text-anchor="start" x="241" y="-778.5" font-family="Helvetica,sans-Serif" font-size="10.00" fill="#000000">+ setRotation()</text>
<text text-anchor="start" x="241" y="-767.5" font-family="Helvetica,sans-Serif" font-size="10.00" fill="#000000">+ getRotation()</text>
<text text-anchor="start" x="241" y="-756.5" font-family="Helvetica,sans-Serif" font-size="10.00" fill="#000000">+ setPosition()</text>
<text text-anchor="start" x="241" y="-745.5" font-family="Helvetica,sans-Serif" font-size="10.00" fill="#000000">+ isRiver()</text>
<text text-anchor="start" x="241" y="-734.5" font-family="Helvetica,sans-Serif" font-size="10.00" fill="#000000">+ getPixmapItem()</text>
<text text-anchor="start" x="241" y="-723.5" font-family="Helvetica,sans-Serif" font-size="10.00" fill="#000000">+ getCity()</text>
<text text-anchor="start" x="241" y="-712.5" font-family="Helvetica,sans-Serif" font-size="10.00" fill="#000000">+ setCity()</text>
<text text-anchor="start" x="241" y="-701.5" font-family="Helvetica,sans-Serif" font-size="10.00" fill="#000000">+ getX()</text>
<text text-anchor="start" x="241" y="-690.5" font-family="Helvetica,sans-Serif" font-size="10.00" fill="#000000">+ getY()</text>
<text text-anchor="start" x="241" y="-679.5" font-family="Helvetica,sans-Serif" font-size="10.00" fill="#000000">+ attachGraphicsManager()</text>
</a>
</g>
</g>
<!-- Node5&#45;&gt;Node3 -->
<g id="edge4" class="edge">
<title>Node5&#45;&gt;Node3</title>
<path fill="none" stroke="#404040" d="M289.0661,-672.2029C285.4,-642.9203 281.4336,-611.2386 277.7274,-581.6348"/>
<polygon fill="none" stroke="#404040" points="277.7025,-581.4356 272.9881,-575.979 276.2117,-569.5286 280.9261,-574.9851 277.7025,-581.4356"/>
<text text-anchor="middle" x="313" y="-646" font-family="Helvetica,sans-Serif" font-size="10.00" fill="#000000"> &#45;activeTile</text>
<text text-anchor="middle" x="313" y="-635" font-family="Helvetica,sans-Serif" font-size="10.00" fill="#000000">&#45;data</text>
</g>
<!-- Node6 -->
<g id="node6" class="node">
<title>Node6</title>
<g id="a_node6"><a xlink:href="classGraphicsManager.html" target="_top" xlink:title=" ">
<polygon fill="#ffffff" stroke="#000000" points="102.5,-997.5 102.5,-1065.5 215.5,-1065.5 215.5,-997.5 102.5,-997.5"/>
<text text-anchor="middle" x="159" y="-1053.5" font-family="Helvetica,sans-Serif" font-size="10.00" fill="#000000">GraphicsManager</text>
<polyline fill="none" stroke="#000000" points="102.5,-1046.5 215.5,-1046.5 "/>
<text text-anchor="start" x="110.5" y="-1034.5" font-family="Helvetica,sans-Serif" font-size="10.00" fill="#000000">+ GRAPHICS</text>
<polyline fill="none" stroke="#000000" points="102.5,-1027.5 215.5,-1027.5 "/>
<text text-anchor="start" x="110.5" y="-1015.5" font-family="Helvetica,sans-Serif" font-size="10.00" fill="#000000">+ GraphicsManager()</text>
<text text-anchor="start" x="110.5" y="-1004.5" font-family="Helvetica,sans-Serif" font-size="10.00" fill="#000000">+ get()</text>
</a>
</g>
</g>
<!-- Node6&#45;&gt;Node3 -->
<g id="edge7" class="edge">
<title>Node6&#45;&gt;Node3</title>
<path fill="none" stroke="#404040" d="M148.3285,-997.4467C129.6872,-931.9924 96.9829,-785.0905 139,-672 150.8532,-640.0967 170.2098,-642.3769 189,-614 196.0578,-603.3413 202.8766,-591.9126 209.3298,-580.2939"/>
<polygon fill="none" stroke="#404040" points="209.4189,-580.13 208.77,-572.9482 215.1498,-569.5869 215.7987,-576.7688 209.4189,-580.13"/>
<text text-anchor="middle" x="181.5" y="-781" font-family="Helvetica,sans-Serif" font-size="10.00" fill="#000000"> &#45;graphicsManager</text>
</g>
<!-- Node6&#45;&gt;Node5 -->
<g id="edge5" class="edge">
<title>Node6&#45;&gt;Node5</title>
<path fill="none" stroke="#404040" d="M173.065,-997.2887C183.4012,-973.2019 198.3246,-940.4838 214,-913 217.9501,-906.0742 222.1584,-899.0419 226.5142,-892.0177"/>
<polygon fill="none" stroke="#404040" points="226.5901,-891.8972 226.4056,-884.6884 232.9889,-881.7455 233.1734,-888.9543 226.5901,-891.8972"/>
<text text-anchor="middle" x="256.5" y="-916" font-family="Helvetica,sans-Serif" font-size="10.00" fill="#000000"> &#45;graphicsManager</text>
</g>
<!-- Node7 -->
<g id="node7" class="node">
<title>Node7</title>
<g id="a_node7"><a xlink:href="classCity.html" target="_top" xlink:title=" ">
<polygon fill="#ffffff" stroke="#000000" points="261.5,-942.5 261.5,-1120.5 344.5,-1120.5 344.5,-942.5 261.5,-942.5"/>
<text text-anchor="middle" x="303" y="-1108.5" font-family="Helvetica,sans-Serif" font-size="10.00" fill="#000000">City</text>
<polyline fill="none" stroke="#000000" points="261.5,-1101.5 344.5,-1101.5 "/>
<text text-anchor="start" x="269.5" y="-1089.5" font-family="Helvetica,sans-Serif" font-size="10.00" fill="#000000">&#45; size</text>
<text text-anchor="start" x="269.5" y="-1078.5" font-family="Helvetica,sans-Serif" font-size="10.00" fill="#000000">&#45; centerX</text>
<text text-anchor="start" x="269.5" y="-1067.5" font-family="Helvetica,sans-Serif" font-size="10.00" fill="#000000">&#45; centerY</text>
<text text-anchor="start" x="269.5" y="-1056.5" font-family="Helvetica,sans-Serif" font-size="10.00" fill="#000000">&#45; name</text>
<polyline fill="none" stroke="#000000" points="261.5,-1049.5 344.5,-1049.5 "/>
<text text-anchor="start" x="269.5" y="-1037.5" font-family="Helvetica,sans-Serif" font-size="10.00" fill="#000000">+ City()</text>
<text text-anchor="start" x="269.5" y="-1026.5" font-family="Helvetica,sans-Serif" font-size="10.00" fill="#000000">+ City()</text>
<text text-anchor="start" x="269.5" y="-1015.5" font-family="Helvetica,sans-Serif" font-size="10.00" fill="#000000">+ getSize()</text>
<text text-anchor="start" x="269.5" y="-1004.5" font-family="Helvetica,sans-Serif" font-size="10.00" fill="#000000">+ getCenterX()</text>
<text text-anchor="start" x="269.5" y="-993.5" font-family="Helvetica,sans-Serif" font-size="10.00" fill="#000000">+ getCenterY()</text>
<text text-anchor="start" x="269.5" y="-982.5" font-family="Helvetica,sans-Serif" font-size="10.00" fill="#000000">+ getName()</text>
<text text-anchor="start" x="269.5" y="-971.5" font-family="Helvetica,sans-Serif" font-size="10.00" fill="#000000">+ setSize()</text>
<text text-anchor="start" x="269.5" y="-960.5" font-family="Helvetica,sans-Serif" font-size="10.00" fill="#000000">+ setCenter()</text>
<text text-anchor="start" x="269.5" y="-949.5" font-family="Helvetica,sans-Serif" font-size="10.00" fill="#000000">+ setName()</text>
</a>
</g>
</g>
<!-- Node7&#45;&gt;Node5 -->
<g id="edge6" class="edge">
<title>Node7&#45;&gt;Node5</title>
<path fill="none" stroke="#404040" d="M303,-942.3167C303,-930.8765 303,-919.0062 303,-907.1402"/>
<polygon fill="none" stroke="#404040" points="303.0001,-906.7944 299,-900.7944 303,-894.7944 307,-900.7943 303.0001,-906.7944"/>
<text text-anchor="middle" x="314" y="-916" font-family="Helvetica,sans-Serif" font-size="10.00" fill="#000000"> &#45;city</text>
</g>
<!-- Node8 -->
<g id="node8" class="node">
<title>Node8</title>
<g id="a_node8"><a xlink:href="classToolTipMenu.html" target="_top" xlink:title=" ">
<polygon fill="#ffffff" stroke="#000000" points="345.5,-419 345.5,-509 438.5,-509 438.5,-419 345.5,-419"/>
<text text-anchor="middle" x="392" y="-497" font-family="Helvetica,sans-Serif" font-size="10.00" fill="#000000">ToolTipMenu</text>
<polyline fill="none" stroke="#000000" points="345.5,-490 438.5,-490 "/>
<text text-anchor="start" x="353.5" y="-478" font-family="Helvetica,sans-Serif" font-size="10.00" fill="#000000">&#45; textlabel</text>
<polyline fill="none" stroke="#000000" points="345.5,-471 438.5,-471 "/>
<text text-anchor="start" x="353.5" y="-459" font-family="Helvetica,sans-Serif" font-size="10.00" fill="#000000">+ ToolTipMenu()</text>
<text text-anchor="start" x="353.5" y="-448" font-family="Helvetica,sans-Serif" font-size="10.00" fill="#000000">+ hide()</text>
<text text-anchor="start" x="353.5" y="-437" font-family="Helvetica,sans-Serif" font-size="10.00" fill="#000000">+ showAt()</text>
<text text-anchor="start" x="353.5" y="-426" font-family="Helvetica,sans-Serif" font-size="10.00" fill="#000000">+ setText()</text>
</a>
</g>
</g>
<!-- Node8&#45;&gt;Node1 -->
<g id="edge8" class="edge">
<title>Node8&#45;&gt;Node1</title>
<path fill="none" stroke="#404040" d="M383.0983,-418.7384C375.9373,-382.3276 365.4601,-329.0547 355.4933,-278.3774"/>
<polygon fill="none" stroke="#404040" points="355.4911,-278.3658 350.4084,-273.2505 353.1753,-266.5913 358.258,-271.7066 355.4911,-278.3658"/>
<text text-anchor="middle" x="374.5" y="-288" font-family="Helvetica,sans-Serif" font-size="10.00" fill="#000000"> &#45;tooltip</text>
</g>
<!-- Node9 -->
<g id="node9" class="node">
<title>Node9</title>
<g id="a_node9"><a xlink:title=" ">
<polygon fill="#ffffff" stroke="#bfbfbf" points="391,-755 391,-812 447,-812 447,-755 391,-755"/>
<text text-anchor="middle" x="419" y="-800" font-family="Helvetica,sans-Serif" font-size="10.00" fill="#000000">QWidget</text>
<polyline fill="none" stroke="#bfbfbf" points="391,-793 447,-793 "/>
<text text-anchor="middle" x="419" y="-781" font-family="Helvetica,sans-Serif" font-size="10.00" fill="#000000"> </text>
<polyline fill="none" stroke="#bfbfbf" points="391,-774 447,-774 "/>
<text text-anchor="middle" x="419" y="-762" font-family="Helvetica,sans-Serif" font-size="10.00" fill="#000000"> </text>
</a>
</g>
</g>
<!-- Node9&#45;&gt;Node8 -->
<g id="edge9" class="edge">
<title>Node9&#45;&gt;Node8</title>
<path fill="none" stroke="#191970" d="M415.7276,-744.7771C410.7107,-685.4105 401.1416,-572.1761 395.8164,-509.1606"/>
<polygon fill="none" stroke="#191970" points="412.2504,-745.1956 416.5802,-754.8653 419.2256,-744.6061 412.2504,-745.1956"/>
</g>
<!-- Node10 -->
<g id="node10" class="node">
<title>Node10</title>
<g id="a_node10"><a xlink:href="classDataModel.html" target="_top" xlink:title=" ">
<polygon fill="#ffffff" stroke="#000000" points="456.5,-314.5 456.5,-613.5 579.5,-613.5 579.5,-314.5 456.5,-314.5"/>
<text text-anchor="middle" x="518" y="-601.5" font-family="Helvetica,sans-Serif" font-size="10.00" fill="#000000">DataModel</text>
<polyline fill="none" stroke="#000000" points="456.5,-594.5 579.5,-594.5 "/>
<text text-anchor="start" x="464.5" y="-582.5" font-family="Helvetica,sans-Serif" font-size="10.00" fill="#000000">&#45; balance</text>
<text text-anchor="start" x="464.5" y="-571.5" font-family="Helvetica,sans-Serif" font-size="10.00" fill="#000000">&#45; time</text>
<text text-anchor="start" x="464.5" y="-560.5" font-family="Helvetica,sans-Serif" font-size="10.00" fill="#000000">&#45; coordinateX</text>
<text text-anchor="start" x="464.5" y="-549.5" font-family="Helvetica,sans-Serif" font-size="10.00" fill="#000000">&#45; coordinateY</text>
<text text-anchor="start" x="464.5" y="-538.5" font-family="Helvetica,sans-Serif" font-size="10.00" fill="#000000">&#45; ip</text>
<text text-anchor="start" x="464.5" y="-527.5" font-family="Helvetica,sans-Serif" font-size="10.00" fill="#000000">&#45; port</text>
<text text-anchor="start" x="464.5" y="-516.5" font-family="Helvetica,sans-Serif" font-size="10.00" fill="#000000">&#45; balanceLabel</text>
<text text-anchor="start" x="464.5" y="-505.5" font-family="Helvetica,sans-Serif" font-size="10.00" fill="#000000">&#45; timeLabel</text>
<text text-anchor="start" x="464.5" y="-494.5" font-family="Helvetica,sans-Serif" font-size="10.00" fill="#000000">&#45; positionLabel</text>
<polyline fill="none" stroke="#000000" points="456.5,-487.5 579.5,-487.5 "/>
<text text-anchor="start" x="464.5" y="-475.5" font-family="Helvetica,sans-Serif" font-size="10.00" fill="#000000">+ DataModel()</text>
<text text-anchor="start" x="464.5" y="-464.5" font-family="Helvetica,sans-Serif" font-size="10.00" fill="#000000">+ getBalance()</text>
<text text-anchor="start" x="464.5" y="-453.5" font-family="Helvetica,sans-Serif" font-size="10.00" fill="#000000">+ updateBalance()</text>
<text text-anchor="start" x="464.5" y="-442.5" font-family="Helvetica,sans-Serif" font-size="10.00" fill="#000000">+ takeBalance()</text>
<text text-anchor="start" x="464.5" y="-431.5" font-family="Helvetica,sans-Serif" font-size="10.00" fill="#000000">+ timeTick()</text>
<text text-anchor="start" x="464.5" y="-420.5" font-family="Helvetica,sans-Serif" font-size="10.00" fill="#000000">+ getTime()</text>
<text text-anchor="start" x="464.5" y="-409.5" font-family="Helvetica,sans-Serif" font-size="10.00" fill="#000000">+ getSystemMillis()</text>
<text text-anchor="start" x="464.5" y="-398.5" font-family="Helvetica,sans-Serif" font-size="10.00" fill="#000000">+ updateCoordinates()</text>
<text text-anchor="start" x="464.5" y="-387.5" font-family="Helvetica,sans-Serif" font-size="10.00" fill="#000000">+ formatTime()</text>
<text text-anchor="start" x="464.5" y="-376.5" font-family="Helvetica,sans-Serif" font-size="10.00" fill="#000000">+ setConnectionInfo()</text>
<text text-anchor="start" x="464.5" y="-365.5" font-family="Helvetica,sans-Serif" font-size="10.00" fill="#000000">+ getIP()</text>
<text text-anchor="start" x="464.5" y="-354.5" font-family="Helvetica,sans-Serif" font-size="10.00" fill="#000000">+ getPort()</text>
<text text-anchor="start" x="464.5" y="-343.5" font-family="Helvetica,sans-Serif" font-size="10.00" fill="#000000">+ setGuiBalanceLabel()</text>
<text text-anchor="start" x="464.5" y="-332.5" font-family="Helvetica,sans-Serif" font-size="10.00" fill="#000000">+ setGuiTimeLabel()</text>
<text text-anchor="start" x="464.5" y="-321.5" font-family="Helvetica,sans-Serif" font-size="10.00" fill="#000000">+ setGuiPositionLabel()</text>
</a>
</g>
</g>
<!-- Node10&#45;&gt;Node1 -->
<g id="edge10" class="edge">
<title>Node10&#45;&gt;Node1</title>
<path fill="none" stroke="#404040" d="M456.3,-330.9646C453.2257,-325.1958 450.1187,-319.5183 447,-314 431.7175,-286.9588 413.8145,-258.5901 396.5698,-232.5614"/>
<polygon fill="none" stroke="#404040" points="396.4033,-232.3116 389.7463,-229.5394 389.7449,-222.3283 396.4019,-225.1005 396.4033,-232.3116"/>
<text text-anchor="middle" x="463.5" y="-288" font-family="Helvetica,sans-Serif" font-size="10.00" fill="#000000"> &#45;dataModel</text>
</g>
<!-- Node11 -->
<g id="node11" class="node">
<title>Node11</title>
<g id="a_node11"><a xlink:title=" ">
<polygon fill="#ffffff" stroke="#bfbfbf" points="491.5,-755 491.5,-812 544.5,-812 544.5,-755 491.5,-755"/>
<text text-anchor="middle" x="518" y="-800" font-family="Helvetica,sans-Serif" font-size="10.00" fill="#000000">QObject</text>
<polyline fill="none" stroke="#bfbfbf" points="491.5,-793 544.5,-793 "/>
<text text-anchor="middle" x="518" y="-781" font-family="Helvetica,sans-Serif" font-size="10.00" fill="#000000"> </text>
<polyline fill="none" stroke="#bfbfbf" points="491.5,-774 544.5,-774 "/>
<text text-anchor="middle" x="518" y="-762" font-family="Helvetica,sans-Serif" font-size="10.00" fill="#000000"> </text>
</a>
</g>
</g>
<!-- Node11&#45;&gt;Node10 -->
<g id="edge11" class="edge">
<title>Node11&#45;&gt;Node10</title>
<path fill="none" stroke="#191970" d="M518,-744.7685C518,-711.8035 518,-662.2336 518,-613.8751"/>
<polygon fill="none" stroke="#191970" points="514.5001,-744.8653 518,-754.8653 521.5001,-744.8654 514.5001,-744.8653"/>
</g>
</g>
</svg>
