<?xml version="1.0" encoding="UTF-8" standalone="no"?>
<!DOCTYPE svg PUBLIC "-//W3C//DTD SVG 1.1//EN"
 "http://www.w3.org/Graphics/SVG/1.1/DTD/svg11.dtd">
<!-- Generated by graphviz version 2.40.1 (20161225.0304)
 -->
<!-- Title: Scene::setActiveTile Pages: 1 -->
<svg width="253pt" height="218pt"
 viewBox="0.00 0.00 253.00 218.00" xmlns="http://www.w3.org/2000/svg" xmlns:xlink="http://www.w3.org/1999/xlink">
<g id="graph0" class="graph" transform="scale(1 1) rotate(0) translate(4 214)">
<title>Scene::setActiveTile</title>
<polygon fill="#ffffff" stroke="transparent" points="-4,4 -4,-214 249,-214 249,4 -4,4"/>
<!-- Node1 -->
<g id="node1" class="node">
<title>Node1</title>
<g id="a_node1"><a xlink:title="Scene::setActiveTile Setzt den MapTile über dem die Maus gerade ist. Wird von view aufgerufen.">
<polygon fill="#bfbfbf" stroke="#000000" points="0,-95.5 0,-114.5 111,-114.5 111,-95.5 0,-95.5"/>
<text text-anchor="middle" x="55.5" y="-102.5" font-family="Helvetica,sans-Serif" font-size="10.00" fill="#000000">Scene::setActiveTile</text>
</a>
</g>
</g>
<!-- Node2 -->
<g id="node2" class="node">
<title>Node2</title>
<g id="a_node2"><a xlink:href="classCity.html#a0543ff407447b87a952c40bb36f5eef1" target="_top" xlink:title="City::getCenterX Gibt den X&#45;Index des Mittelpunktes.">
<polygon fill="#ffffff" stroke="#000000" points="150.5,-190.5 150.5,-209.5 241.5,-209.5 241.5,-190.5 150.5,-190.5"/>
<text text-anchor="middle" x="196" y="-197.5" font-family="Helvetica,sans-Serif" font-size="10.00" fill="#000000">City::getCenterX</text>
</a>
</g>
</g>
<!-- Node1&#45;&gt;Node2 -->
<g id="edge1" class="edge">
<title>Node1&#45;&gt;Node2</title>
<path fill="none" stroke="#191970" d="M64.8556,-114.5729C80.5903,-130.2338 113.8892,-161.5324 147,-181 150.2592,-182.9163 153.7471,-184.71 157.3043,-186.3706"/>
<polygon fill="#191970" stroke="#191970" points="156.2038,-189.7074 166.7727,-190.4483 158.9727,-183.2783 156.2038,-189.7074"/>
</g>
<!-- Node3 -->
<g id="node3" class="node">
<title>Node3</title>
<g id="a_node3"><a xlink:href="classCity.html#a99261799f5bec9256ef94c3e4ebda0df" target="_top" xlink:title="City::getCenterX Gibt den Y&#45;Index des Mittelpunktes.">
<polygon fill="#ffffff" stroke="#000000" points="150.5,-152.5 150.5,-171.5 241.5,-171.5 241.5,-152.5 150.5,-152.5"/>
<text text-anchor="middle" x="196" y="-159.5" font-family="Helvetica,sans-Serif" font-size="10.00" fill="#000000">City::getCenterY</text>
</a>
</g>
</g>
<!-- Node1&#45;&gt;Node3 -->
<g id="edge2" class="edge">
<title>Node1&#45;&gt;Node3</title>
<path fill="none" stroke="#191970" d="M78.0006,-114.5191C96.4849,-122.2969 123.3754,-133.5156 147,-143 151.7469,-144.9057 156.7647,-146.888 161.7071,-148.8218"/>
<polygon fill="#191970" stroke="#191970" points="160.4389,-152.0839 171.0275,-152.4482 162.9772,-145.5603 160.4389,-152.0839"/>
</g>
<!-- Node4 -->
<g id="node4" class="node">
<title>Node4</title>
<g id="a_node4"><a xlink:href="classMapTile.html#ab5245ea56fde79ef7640ed93583a57fd" target="_top" xlink:title="MapTile::getCity Die Informationen. Falls keine Stadt: null.">
<polygon fill="#ffffff" stroke="#000000" points="150,-114.5 150,-133.5 242,-133.5 242,-114.5 150,-114.5"/>
<text text-anchor="middle" x="196" y="-121.5" font-family="Helvetica,sans-Serif" font-size="10.00" fill="#000000">MapTile::getCity</text>
</a>
</g>
</g>
<!-- Node1&#45;&gt;Node4 -->
<g id="edge3" class="edge">
<title>Node1&#45;&gt;Node4</title>
<path fill="none" stroke="#191970" d="M111.0293,-112.5093C120.4926,-113.789 130.329,-115.1192 139.8093,-116.4013"/>
<polygon fill="#191970" stroke="#191970" points="139.5432,-119.8971 149.9221,-117.7688 140.4814,-112.9602 139.5432,-119.8971"/>
</g>
<!-- Node5 -->
<g id="node5" class="node">
<title>Node5</title>
<g id="a_node5"><a xlink:href="classCity.html#adc7fe5313b3572973918cf6385e87fd5" target="_top" xlink:title="City::getName Gibt den Namen der Stadt.">
<polygon fill="#ffffff" stroke="#000000" points="155.5,-76.5 155.5,-95.5 236.5,-95.5 236.5,-76.5 155.5,-76.5"/>
<text text-anchor="middle" x="196" y="-83.5" font-family="Helvetica,sans-Serif" font-size="10.00" fill="#000000">City::getName</text>
</a>
</g>
</g>
<!-- Node1&#45;&gt;Node5 -->
<g id="edge4" class="edge">
<title>Node1&#45;&gt;Node5</title>
<path fill="none" stroke="#191970" d="M111.0293,-97.4907C122.3047,-95.9659 134.1099,-94.3695 145.2111,-92.8682"/>
<polygon fill="#191970" stroke="#191970" points="145.7321,-96.3297 155.1728,-91.5211 144.794,-89.3929 145.7321,-96.3297"/>
</g>
<!-- Node6 -->
<g id="node6" class="node">
<title>Node6</title>
<g id="a_node6"><a xlink:href="classCity.html#ae2fad5199ff6b8f11a39fa7500757beb" target="_top" xlink:title="City::getSize Gibt die Anzahl der Felder zurück die zur Stadt gehören.">
<polygon fill="#ffffff" stroke="#000000" points="159,-38.5 159,-57.5 233,-57.5 233,-38.5 159,-38.5"/>
<text text-anchor="middle" x="196" y="-45.5" font-family="Helvetica,sans-Serif" font-size="10.00" fill="#000000">City::getSize</text>
</a>
</g>
</g>
<!-- Node1&#45;&gt;Node6 -->
<g id="edge5" class="edge">
<title>Node1&#45;&gt;Node6</title>
<path fill="none" stroke="#191970" d="M78.0006,-95.4809C96.4849,-87.7031 123.3754,-76.4844 147,-67 151.7469,-65.0943 156.7647,-63.112 161.7071,-61.1782"/>
<polygon fill="#191970" stroke="#191970" points="162.9772,-64.4397 171.0275,-57.5518 160.4389,-57.9161 162.9772,-64.4397"/>
</g>
<!-- Node7 -->
<g id="node7" class="node">
<title>Node7</title>
<g id="a_node7"><a xlink:href="classMapTile.html#af67fb2b04970d5160e8bdacb05484bac" target="_top" xlink:title="MapTile::getType Liefert den Typ des Quadranten.">
<polygon fill="#ffffff" stroke="#000000" points="147,-.5 147,-19.5 245,-19.5 245,-.5 147,-.5"/>
<text text-anchor="middle" x="196" y="-7.5" font-family="Helvetica,sans-Serif" font-size="10.00" fill="#000000">MapTile::getType</text>
</a>
</g>
</g>
<!-- Node1&#45;&gt;Node7 -->
<g id="edge6" class="edge">
<title>Node1&#45;&gt;Node7</title>
<path fill="none" stroke="#191970" d="M64.8556,-95.4271C80.5903,-79.7662 113.8892,-48.4676 147,-29 150.2592,-27.0837 153.7471,-25.29 157.3043,-23.6294"/>
<polygon fill="#191970" stroke="#191970" points="158.9727,-26.7217 166.7727,-19.5517 156.2038,-20.2926 158.9727,-26.7217"/>
</g>
</g>
</svg>
