<?xml version="1.0" encoding="UTF-8" standalone="no"?>
<!DOCTYPE svg PUBLIC "-//W3C//DTD SVG 1.1//EN"
 "http://www.w3.org/Graphics/SVG/1.1/DTD/svg11.dtd">
<!-- Generated by graphviz version 2.40.1 (20161225.0304)
 -->
<!-- Title: src/application/datamodel.h Pages: 1 -->
<!--zoomable 308 -->
<svg id="main" version="1.1" xmlns="http://www.w3.org/2000/svg" xmlns:xlink="http://www.w3.org/1999/xlink" xml:space="preserve" onload="init(evt)">
<style type="text/css"><![CDATA[
.edge:hover path { stroke: red; }
.edge:hover polygon { stroke: red; fill: red; }
]]></style>
<script type="text/javascript"><![CDATA[
var edges = document.getElementsByTagName('g');
if (edges && edges.length) {
  for (var i=0;i<edges.length;i++) {
    if (edges[i].id.substr(0,4)=='edge') {
      edges[i].setAttribute('class','edge');
    }
  }
}
]]></script>
        <defs>
                <circle id="rim" cx="0" cy="0" r="7"/>
                <circle id="rim2" cx="0" cy="0" r="3.5"/>
                <g id="zoomPlus">
                        <use xlink:href="#rim" fill="#404040">
                                <set attributeName="fill" to="#808080" begin="zoomplus.mouseover" end="zoomplus.mouseout"/>
                        </use>
                        <path d="M-4,0h8M0,-4v8" fill="none" stroke="white" stroke-width="1.5" pointer-events="none"/>
                </g>
                <g id="zoomMin">
                        <use xlink:href="#rim" fill="#404040">
                                <set attributeName="fill" to="#808080" begin="zoomminus.mouseover" end="zoomminus.mouseout"/>
                        </use>
                        <path d="M-4,0h8" fill="none" stroke="white" stroke-width="1.5" pointer-events="none"/>
                </g>
                <g id="dirArrow">
                        <path fill="none" stroke="white" stroke-width="1.5" d="M0,-3.0v7 M-2.5,-0.5L0,-3.0L2.5,-0.5"/>
                </g>
               <g id="resetDef">
                       <use xlink:href="#rim2" fill="#404040">
                               <set attributeName="fill" to="#808080" begin="reset.mouseover" end="reset.mouseout"/>
                       </use>
               </g>
        </defs>

<script type="text/javascript">
var viewWidth = 804;
var viewHeight = 308;
var sectionId = 'dynsection-1';
</script>
<script xlink:href="svgpan.js"/>
<svg id="graph" class="graph">
<g id="viewport">
<title>src/application/datamodel.h</title>
<polygon fill="#ffffff" stroke="transparent" points="-4,4 -4,-304 799.5,-304 799.5,4 -4,4"/>
<!-- Node1 -->
<g id="node1" class="node">
<title>Node1</title>
<g id="a_node1"><a xlink:title=" ">
<polygon fill="#bfbfbf" stroke="#000000" points="175.5,-280.5 175.5,-299.5 315.5,-299.5 315.5,-280.5 175.5,-280.5"/>
<text text-anchor="middle" x="245.5" y="-287.5" font-family="Helvetica,sans-Serif" font-size="10.00" fill="#000000">src/application/datamodel.h</text>
</a>
</g>
</g>
<!-- Node2 -->
<g id="node2" class="node">
<title>Node2</title>
<g id="a_node2"><a xlink:href="datamodel_8cpp.html" target="_top" xlink:title=" ">
<polygon fill="#ffffff" stroke="#000000" points="0,-224.5 0,-243.5 151,-243.5 151,-224.5 0,-224.5"/>
<text text-anchor="middle" x="75.5" y="-231.5" font-family="Helvetica,sans-Serif" font-size="10.00" fill="#000000">src/application/datamodel.cpp</text>
</a>
</g>
</g>
<!-- Node1&#45;&gt;Node2 -->
<g id="edge1" class="edge">
<title>Node1&#45;&gt;Node2</title>
<path fill="none" stroke="#191970" d="M206.614,-277.1905C175.4688,-266.9309 132.4777,-252.7691 104.3427,-243.5011"/>
<polygon fill="#191970" stroke="#191970" points="205.6829,-280.5687 216.276,-280.3733 207.8731,-273.9202 205.6829,-280.5687"/>
</g>
<!-- Node3 -->
<g id="node3" class="node">
<title>Node3</title>
<g id="a_node3"><a xlink:href="main_8h.html" target="_top" xlink:title=" ">
<polygon fill="#ffffff" stroke="#000000" points="304,-224.5 304,-243.5 417,-243.5 417,-224.5 304,-224.5"/>
<text text-anchor="middle" x="360.5" y="-231.5" font-family="Helvetica,sans-Serif" font-size="10.00" fill="#000000">src/application/main.h</text>
</a>
</g>
</g>
<!-- Node1&#45;&gt;Node3 -->
<g id="edge2" class="edge">
<title>Node1&#45;&gt;Node3</title>
<path fill="none" stroke="#191970" d="M274.3033,-275.9741C295.125,-265.8348 322.6978,-252.408 340.9888,-243.5011"/>
<polygon fill="#191970" stroke="#191970" points="272.7276,-272.8484 265.2692,-280.3733 275.7922,-279.1419 272.7276,-272.8484"/>
</g>
<!-- Node5 -->
<g id="node5" class="node">
<title>Node5</title>
<g id="a_node5"><a xlink:href="view_8h.html" target="_top" xlink:title=" ">
<polygon fill="#ffffff" stroke="#000000" points="209,-56.5 209,-75.5 322,-75.5 322,-56.5 209,-56.5"/>
<text text-anchor="middle" x="265.5" y="-63.5" font-family="Helvetica,sans-Serif" font-size="10.00" fill="#000000">src/application/view.h</text>
</a>
</g>
</g>
<!-- Node1&#45;&gt;Node5 -->
<g id="edge14" class="edge">
<title>Node1&#45;&gt;Node5</title>
<path fill="none" stroke="#191970" d="M238.907,-270.5682C228.6528,-237.1777 211.8941,-167.1805 230.5,-112 235.3094,-97.7366 246.4991,-84.3952 254.941,-75.7924"/>
<polygon fill="#191970" stroke="#191970" points="235.6802,-271.9668 242.0747,-280.4143 242.3439,-269.8229 235.6802,-271.9668"/>
</g>
<!-- Node11 -->
<g id="node11" class="node">
<title>Node11</title>
<g id="a_node11"><a xlink:href="sidepanel_8h.html" target="_top" xlink:title=" ">
<polygon fill="#ffffff" stroke="#000000" points="553.5,-224.5 553.5,-243.5 689.5,-243.5 689.5,-224.5 553.5,-224.5"/>
<text text-anchor="middle" x="621.5" y="-231.5" font-family="Helvetica,sans-Serif" font-size="10.00" fill="#000000">src/application/sidepanel.h</text>
</a>
</g>
</g>
<!-- Node1&#45;&gt;Node11 -->
<g id="edge15" class="edge">
<title>Node1&#45;&gt;Node11</title>
<path fill="none" stroke="#191970" d="M319.7004,-278.9489C389.1041,-268.6122 491.6818,-253.3346 557.5554,-243.5237"/>
<polygon fill="#191970" stroke="#191970" points="319.0848,-275.5019 309.7095,-280.4369 320.116,-282.4255 319.0848,-275.5019"/>
</g>
<!-- Node4 -->
<g id="node4" class="node">
<title>Node4</title>
<g id="a_node4"><a xlink:href="main_8cpp.html" target="_top" xlink:title=" ">
<polygon fill="#ffffff" stroke="#000000" points="409.5,-.5 409.5,-19.5 533.5,-19.5 533.5,-.5 409.5,-.5"/>
<text text-anchor="middle" x="471.5" y="-7.5" font-family="Helvetica,sans-Serif" font-size="10.00" fill="#000000">src/application/main.cpp</text>
</a>
</g>
</g>
<!-- Node3&#45;&gt;Node4 -->
<g id="edge3" class="edge">
<title>Node3&#45;&gt;Node4</title>
<path fill="none" stroke="#191970" d="M401.3946,-221.0726C442.6519,-206.0129 505.4065,-177.2555 542.5,-132 564.7913,-104.8037 583.0515,-85.8728 564.5,-56 553.0964,-37.6373 531.9492,-26.3822 512.6985,-19.6061"/>
<polygon fill="#191970" stroke="#191970" points="400.1683,-217.7938 391.9108,-224.4319 402.5055,-224.3921 400.1683,-217.7938"/>
</g>
<!-- Node3&#45;&gt;Node5 -->
<g id="edge4" class="edge">
<title>Node3&#45;&gt;Node5</title>
<path fill="none" stroke="#191970" d="M330.6572,-219.4875C300.55,-202.9892 255.8345,-172.9396 236.5,-132 227.2002,-112.3083 243.9396,-88.8947 255.6174,-75.9157"/>
<polygon fill="#191970" stroke="#191970" points="329.3928,-222.7783 339.8682,-224.3645 332.6683,-216.5919 329.3928,-222.7783"/>
</g>
<!-- Node7 -->
<g id="node7" class="node">
<title>Node7</title>
<g id="a_node7"><a xlink:href="maptile_8h.html" target="_top" xlink:title=" ">
<polygon fill="#ffffff" stroke="#000000" points="322.5,-168.5 322.5,-187.5 446.5,-187.5 446.5,-168.5 322.5,-168.5"/>
<text text-anchor="middle" x="384.5" y="-175.5" font-family="Helvetica,sans-Serif" font-size="10.00" fill="#000000">src/application/maptile.h</text>
</a>
</g>
</g>
<!-- Node3&#45;&gt;Node7 -->
<g id="edge7" class="edge">
<title>Node3&#45;&gt;Node7</title>
<path fill="none" stroke="#191970" d="M368.6241,-215.0437C372.5715,-205.8331 377.1458,-195.1598 380.3674,-187.6427"/>
<polygon fill="#191970" stroke="#191970" points="365.4027,-213.6753 364.6805,-224.2455 371.8367,-216.4328 365.4027,-213.6753"/>
</g>
<!-- Node5&#45;&gt;Node4 -->
<g id="edge5" class="edge">
<title>Node5&#45;&gt;Node4</title>
<path fill="none" stroke="#191970" d="M310.6732,-53.7199C348.5518,-43.4228 401.866,-28.9296 436.5494,-19.5011"/>
<polygon fill="#191970" stroke="#191970" points="309.6443,-50.3725 300.9127,-56.3733 311.4806,-57.1274 309.6443,-50.3725"/>
</g>
<!-- Node6 -->
<g id="node6" class="node">
<title>Node6</title>
<g id="a_node6"><a xlink:href="view_8cpp.html" target="_top" xlink:title=" ">
<polygon fill="#ffffff" stroke="#000000" points="204,-.5 204,-19.5 327,-19.5 327,-.5 204,-.5"/>
<text text-anchor="middle" x="265.5" y="-7.5" font-family="Helvetica,sans-Serif" font-size="10.00" fill="#000000">src/application/view.cpp</text>
</a>
</g>
</g>
<!-- Node5&#45;&gt;Node6 -->
<g id="edge6" class="edge">
<title>Node5&#45;&gt;Node6</title>
<path fill="none" stroke="#191970" d="M265.5,-46.1575C265.5,-37.155 265.5,-26.9199 265.5,-19.6427"/>
<polygon fill="#191970" stroke="#191970" points="262.0001,-46.2455 265.5,-56.2455 269.0001,-46.2456 262.0001,-46.2455"/>
</g>
<!-- Node8 -->
<g id="node8" class="node">
<title>Node8</title>
<g id="a_node8"><a xlink:href="scene_8h.html" target="_top" xlink:title=" ">
<polygon fill="#ffffff" stroke="#000000" points="398,-112.5 398,-131.5 517,-131.5 517,-112.5 398,-112.5"/>
<text text-anchor="middle" x="457.5" y="-119.5" font-family="Helvetica,sans-Serif" font-size="10.00" fill="#000000">src/application/scene.h</text>
</a>
</g>
</g>
<!-- Node7&#45;&gt;Node8 -->
<g id="edge8" class="edge">
<title>Node7&#45;&gt;Node8</title>
<path fill="none" stroke="#191970" d="M405.451,-161.928C418.2107,-152.1397 434.0885,-139.9595 444.9301,-131.6427"/>
<polygon fill="#191970" stroke="#191970" points="403.0196,-159.3819 397.2156,-168.2455 407.2803,-164.9359 403.0196,-159.3819"/>
</g>
<!-- Node9 -->
<g id="node9" class="node">
<title>Node9</title>
<g id="a_node9"><a xlink:href="scene_8cpp.html" target="_top" xlink:title=" ">
<polygon fill="#ffffff" stroke="#000000" points="425.5,-56.5 425.5,-75.5 555.5,-75.5 555.5,-56.5 425.5,-56.5"/>
<text text-anchor="middle" x="490.5" y="-63.5" font-family="Helvetica,sans-Serif" font-size="10.00" fill="#000000">src/application/scene.cpp</text>
</a>
</g>
</g>
<!-- Node7&#45;&gt;Node9 -->
<g id="edge13" class="edge">
<title>Node7&#45;&gt;Node9</title>
<path fill="none" stroke="#191970" d="M443.713,-166.1453C477.9796,-157.9502 516.3042,-146.0203 526.5,-132 540.0873,-113.316 517.6764,-88.9177 502.5507,-75.6386"/>
<polygon fill="#191970" stroke="#191970" points="442.6671,-162.7948 433.715,-168.4614 444.2469,-169.6142 442.6671,-162.7948"/>
</g>
<!-- Node10 -->
<g id="node10" class="node">
<title>Node10</title>
<g id="a_node10"><a xlink:href="maptile_8cpp.html" target="_top" xlink:title=" ">
<polygon fill="#ffffff" stroke="#000000" points="245.5,-112.5 245.5,-131.5 379.5,-131.5 379.5,-112.5 245.5,-112.5"/>
<text text-anchor="middle" x="312.5" y="-119.5" font-family="Helvetica,sans-Serif" font-size="10.00" fill="#000000">src/application/maptile.cpp</text>
</a>
</g>
</g>
<!-- Node7&#45;&gt;Node10 -->
<g id="edge12" class="edge">
<title>Node7&#45;&gt;Node10</title>
<path fill="none" stroke="#191970" d="M363.836,-161.928C351.2511,-152.1397 335.5908,-139.9595 324.8977,-131.6427"/>
<polygon fill="#191970" stroke="#191970" points="361.9162,-164.8688 371.9586,-168.2455 366.2138,-159.3434 361.9162,-164.8688"/>
</g>
<!-- Node8&#45;&gt;Node4 -->
<g id="edge10" class="edge">
<title>Node8&#45;&gt;Node4</title>
<path fill="none" stroke="#191970" d="M436.6686,-105.7895C422.6642,-92.7921 408.1643,-73.8386 416.5,-56 424.0359,-39.8731 440.3142,-27.4098 453.2167,-19.5491"/>
<polygon fill="#191970" stroke="#191970" points="434.3984,-108.4535 444.2497,-112.3526 438.9801,-103.1612 434.3984,-108.4535"/>
</g>
<!-- Node8&#45;&gt;Node5 -->
<g id="edge9" class="edge">
<title>Node8&#45;&gt;Node5</title>
<path fill="none" stroke="#191970" d="M414.4923,-109.4561C379.2479,-99.1765 330.1264,-84.8494 298.0753,-75.5011"/>
<polygon fill="#191970" stroke="#191970" points="413.914,-112.9332 424.494,-112.3733 415.874,-106.2132 413.914,-112.9332"/>
</g>
<!-- Node8&#45;&gt;Node9 -->
<g id="edge11" class="edge">
<title>Node8&#45;&gt;Node9</title>
<path fill="none" stroke="#191970" d="M468.3254,-103.6296C473.8299,-94.2887 480.2937,-83.3197 484.8177,-75.6427"/>
<polygon fill="#191970" stroke="#191970" points="465.3097,-101.8532 463.2482,-112.2455 471.3405,-105.4071 465.3097,-101.8532"/>
</g>
<!-- Node11&#45;&gt;Node4 -->
<g id="edge16" class="edge">
<title>Node11&#45;&gt;Node4</title>
<path fill="none" stroke="#191970" d="M622.6004,-214.0249C623.487,-178.1399 620.2514,-102.2056 581.5,-56 565.9371,-37.4434 541.6232,-26.2404 519.8079,-19.5453"/>
<polygon fill="#191970" stroke="#191970" points="619.0969,-214.0523 622.2075,-224.1802 626.0916,-214.323 619.0969,-214.0523"/>
</g>
<!-- Node12 -->
<g id="node12" class="node">
<title>Node12</title>
<g id="a_node12"><a xlink:href="sidepanel_8cpp.html" target="_top" xlink:title=" ">
<polygon fill="#ffffff" stroke="#000000" points="649.5,-168.5 649.5,-187.5 795.5,-187.5 795.5,-168.5 649.5,-168.5"/>
<text text-anchor="middle" x="722.5" y="-175.5" font-family="Helvetica,sans-Serif" font-size="10.00" fill="#000000">src/application/sidepanel.cpp</text>
</a>
</g>
</g>
<!-- Node11&#45;&gt;Node12 -->
<g id="edge17" class="edge">
<title>Node11&#45;&gt;Node12</title>
<path fill="none" stroke="#191970" d="M647.9719,-219.3225C666.0125,-209.3198 689.3877,-196.3593 705.1087,-187.6427"/>
<polygon fill="#191970" stroke="#191970" points="646.1413,-216.3354 639.0929,-224.2455 649.5357,-222.4574 646.1413,-216.3354"/>
</g>
</g>
</svg>
        <g id="navigator" transform="translate(0 0)" fill="#404254">
                <rect fill="#f2f5e9" fill-opacity="0.5" stroke="#606060" stroke-width=".5" x="0" y="0" width="60" height="60"/>
                <use id="zoomplus" xlink:href="#zoomPlus" x="17" y="9" onmousedown="handleZoom(evt,'in')"/>
                <use id="zoomminus" xlink:href="#zoomMin" x="42" y="9" onmousedown="handleZoom(evt,'out')"/>
                <use id="reset" xlink:href="#resetDef" x="30" y="36" onmousedown="handleReset()"/>
                <g id="arrowUp" xlink:href="#dirArrow" transform="translate(30 24)" onmousedown="handlePan(0,-1)">
                  <use xlink:href="#rim" fill="#404040">
                        <set attributeName="fill" to="#808080" begin="arrowUp.mouseover" end="arrowUp.mouseout"/>
                  </use>
                  <path fill="none" stroke="white" stroke-width="1.5" d="M0,-3.0v7 M-2.5,-0.5L0,-3.0L2.5,-0.5"/>
                </g>
                <g id="arrowRight" xlink:href="#dirArrow" transform="rotate(90) translate(36 -43)" onmousedown="handlePan(1,0)">
                  <use xlink:href="#rim" fill="#404040">
                        <set attributeName="fill" to="#808080" begin="arrowRight.mouseover" end="arrowRight.mouseout"/>
                  </use>
                  <path fill="none" stroke="white" stroke-width="1.5" d="M0,-3.0v7 M-2.5,-0.5L0,-3.0L2.5,-0.5"/>
                </g>
                <g id="arrowDown" xlink:href="#dirArrow" transform="rotate(180) translate(-30 -48)" onmousedown="handlePan(0,1)">
                  <use xlink:href="#rim" fill="#404040">
                        <set attributeName="fill" to="#808080" begin="arrowDown.mouseover" end="arrowDown.mouseout"/>
                  </use>
                  <path fill="none" stroke="white" stroke-width="1.5" d="M0,-3.0v7 M-2.5,-0.5L0,-3.0L2.5,-0.5"/>
                </g>
                <g id="arrowLeft" xlink:href="#dirArrow" transform="rotate(270) translate(-36 17)" onmousedown="handlePan(-1,0)">
                  <use xlink:href="#rim" fill="#404040">
                        <set attributeName="fill" to="#808080" begin="arrowLeft.mouseover" end="arrowLeft.mouseout"/>
                  </use>
                  <path fill="none" stroke="white" stroke-width="1.5" d="M0,-3.0v7 M-2.5,-0.5L0,-3.0L2.5,-0.5"/>
                </g>
        </g>
        <svg viewBox="0 0 15 15" width="100%" height="30px" preserveAspectRatio="xMaxYMin meet">
         <g id="arrow_out" transform="scale(0.3 0.3)">
          <a xlink:href="datamodel_8h__dep__incl_org.svg" target="_base">
           <rect id="button" ry="5" rx="5" y="6" x="6" height="38" width="38"
                fill="#f2f5e9" fill-opacity="0.5" stroke="#606060" stroke-width="1.0"/>
           <path id="arrow"
             d="M 11.500037,31.436501 C 11.940474,20.09759 22.043105,11.32322 32.158766,21.979434 L 37.068811,17.246167 C 37.068811,17.246167 37.088388,32 37.088388,32 L 22.160133,31.978069 C 22.160133,31.978069 26.997745,27.140456 26.997745,27.140456 C 18.528582,18.264221 13.291696,25.230495 11.500037,31.436501 z"
             style="fill:#404040;"/>
          </a>
         </g>
        </svg>
</svg>
