<?xml version="1.0" encoding="UTF-8" standalone="no"?>
<!DOCTYPE svg PUBLIC "-//W3C//DTD SVG 1.1//EN"
 "http://www.w3.org/Graphics/SVG/1.1/DTD/svg11.dtd">
<!-- Generated by graphviz version 2.40.1 (20161225.0304)
 -->
<!-- Title: src/application/datamodel.h Pages: 1 -->
<!--zoomable 308 -->
<svg id="main" version="1.1" xmlns="http://www.w3.org/2000/svg" xmlns:xlink="http://www.w3.org/1999/xlink" xml:space="preserve" onload="init(evt)">
<style type="text/css"><![CDATA[
.edge:hover path { stroke: red; }
.edge:hover polygon { stroke: red; fill: red; }
]]></style>
<script type="text/javascript"><![CDATA[
var edges = document.getElementsByTagName('g');
if (edges && edges.length) {
  for (var i=0;i<edges.length;i++) {
    if (edges[i].id.substr(0,4)=='edge') {
      edges[i].setAttribute('class','edge');
    }
  }
}
]]></script>
        <defs>
                <circle id="rim" cx="0" cy="0" r="7"/>
                <circle id="rim2" cx="0" cy="0" r="3.5"/>
                <g id="zoomPlus">
                        <use xlink:href="#rim" fill="#404040">
                                <set attributeName="fill" to="#808080" begin="zoomplus.mouseover" end="zoomplus.mouseout"/>
                        </use>
                        <path d="M-4,0h8M0,-4v8" fill="none" stroke="white" stroke-width="1.5" pointer-events="none"/>
                </g>
                <g id="zoomMin">
                        <use xlink:href="#rim" fill="#404040">
                                <set attributeName="fill" to="#808080" begin="zoomminus.mouseover" end="zoomminus.mouseout"/>
                        </use>
                        <path d="M-4,0h8" fill="none" stroke="white" stroke-width="1.5" pointer-events="none"/>
                </g>
                <g id="dirArrow">
                        <path fill="none" stroke="white" stroke-width="1.5" d="M0,-3.0v7 M-2.5,-0.5L0,-3.0L2.5,-0.5"/>
                </g>
               <g id="resetDef">
                       <use xlink:href="#rim2" fill="#404040">
                               <set attributeName="fill" to="#808080" begin="reset.mouseover" end="reset.mouseout"/>
                       </use>
               </g>
        </defs>

<script type="text/javascript">
var viewWidth = 571;
var viewHeight = 308;
var sectionId = 'dynsection-1';
</script>
<script xlink:href="svgpan.js"/>
<svg id="graph" class="graph">
<g id="viewport">
<title>src/application/datamodel.h</title>
<polygon fill="#ffffff" stroke="transparent" points="-4,4 -4,-304 566.9305,-304 566.9305,4 -4,4"/>
<!-- Node1 -->
<g id="node1" class="node">
<title>Node1</title>
<g id="a_node1"><a xlink:title=" ">
<polygon fill="#bfbfbf" stroke="#000000" points="161.9305,-280.5 161.9305,-299.5 301.9305,-299.5 301.9305,-280.5 161.9305,-280.5"/>
<text text-anchor="middle" x="231.9305" y="-287.5" font-family="Helvetica,sans-Serif" font-size="10.00" fill="#000000">src/application/datamodel.h</text>
</a>
</g>
</g>
<!-- Node2 -->
<g id="node2" class="node">
<title>Node2</title>
<g id="a_node2"><a xlink:href="datamodel_8cpp.html" target="_top" xlink:title=" ">
<polygon fill="#ffffff" stroke="#000000" points="6.4305,-224.5 6.4305,-243.5 157.4305,-243.5 157.4305,-224.5 6.4305,-224.5"/>
<text text-anchor="middle" x="81.9305" y="-231.5" font-family="Helvetica,sans-Serif" font-size="10.00" fill="#000000">src/application/datamodel.cpp</text>
</a>
</g>
</g>
<!-- Node1&#45;&gt;Node2 -->
<g id="edge1" class="edge">
<title>Node1&#45;&gt;Node2</title>
<path fill="none" stroke="#191970" d="M196.5433,-276.7888C169.1551,-266.5639 131.8825,-252.6488 107.3799,-243.5011"/>
<polygon fill="#191970" stroke="#191970" points="195.552,-280.1546 206.1446,-280.3733 198.0003,-273.5967 195.552,-280.1546"/>
</g>
<!-- Node3 -->
<g id="node3" class="node">
<title>Node3</title>
<g id="a_node3"><a xlink:href="main_8h.html" target="_top" xlink:title=" ">
<polygon fill="#ffffff" stroke="#000000" points="175.4305,-224.5 175.4305,-243.5 288.4305,-243.5 288.4305,-224.5 175.4305,-224.5"/>
<text text-anchor="middle" x="231.9305" y="-231.5" font-family="Helvetica,sans-Serif" font-size="10.00" fill="#000000">src/application/main.h</text>
</a>
</g>
</g>
<!-- Node1&#45;&gt;Node3 -->
<g id="edge2" class="edge">
<title>Node1&#45;&gt;Node3</title>
<path fill="none" stroke="#191970" d="M231.9305,-270.1575C231.9305,-261.155 231.9305,-250.9199 231.9305,-243.6427"/>
<polygon fill="#191970" stroke="#191970" points="228.4306,-270.2455 231.9305,-280.2455 235.4306,-270.2456 228.4306,-270.2455"/>
</g>
<!-- Node11 -->
<g id="node11" class="node">
<title>Node11</title>
<g id="a_node11"><a xlink:href="sidepanel_8h.html" target="_top" xlink:title=" ">
<polygon fill="#ffffff" stroke="#000000" points="320.9305,-224.5 320.9305,-243.5 456.9305,-243.5 456.9305,-224.5 320.9305,-224.5"/>
<text text-anchor="middle" x="388.9305" y="-231.5" font-family="Helvetica,sans-Serif" font-size="10.00" fill="#000000">src/application/sidepanel.h</text>
</a>
</g>
</g>
<!-- Node1&#45;&gt;Node11 -->
<g id="edge14" class="edge">
<title>Node1&#45;&gt;Node11</title>
<path fill="none" stroke="#191970" d="M268.5924,-276.9231C297.2929,-266.686 336.5348,-252.6889 362.2934,-243.5011"/>
<polygon fill="#191970" stroke="#191970" points="267.1627,-273.7171 258.9197,-280.3733 269.5144,-280.3102 267.1627,-273.7171"/>
</g>
<!-- Node4 -->
<g id="node4" class="node">
<title>Node4</title>
<g id="a_node4"><a xlink:href="main_8cpp.html" target="_top" xlink:title=" ">
<polygon fill="#ffffff" stroke="#000000" points="220.9305,-.5 220.9305,-19.5 344.9305,-19.5 344.9305,-.5 220.9305,-.5"/>
<text text-anchor="middle" x="282.9305" y="-7.5" font-family="Helvetica,sans-Serif" font-size="10.00" fill="#000000">src/application/main.cpp</text>
</a>
</g>
</g>
<!-- Node3&#45;&gt;Node4 -->
<g id="edge3" class="edge">
<title>Node3&#45;&gt;Node4</title>
<path fill="none" stroke="#191970" d="M260.1697,-219.3309C272.7164,-211.5397 286.7028,-200.8938 295.9305,-188 326.2057,-145.6965 322.2921,-127.4571 329.9305,-76 331.2357,-67.2075 333.3762,-64.1939 329.9305,-56 323.4686,-40.6339 309.0903,-27.8329 297.9269,-19.6692"/>
<polygon fill="#191970" stroke="#191970" points="258.23,-216.411 251.3769,-224.491 261.773,-222.4482 258.23,-216.411"/>
</g>
<!-- Node5 -->
<g id="node5" class="node">
<title>Node5</title>
<g id="a_node5"><a xlink:href="view_8h.html" target="_top" xlink:title=" ">
<polygon fill="#ffffff" stroke="#000000" points="16.4305,-56.5 16.4305,-75.5 129.4305,-75.5 129.4305,-56.5 16.4305,-56.5"/>
<text text-anchor="middle" x="72.9305" y="-63.5" font-family="Helvetica,sans-Serif" font-size="10.00" fill="#000000">src/application/view.h</text>
</a>
</g>
</g>
<!-- Node3&#45;&gt;Node5 -->
<g id="edge4" class="edge">
<title>Node3&#45;&gt;Node5</title>
<path fill="none" stroke="#191970" d="M190.2119,-221.3539C130.4445,-202.2965 25.2783,-164.9371 3.9305,-132 -11.3066,-108.4911 23.6447,-87.2581 49.1604,-75.5414"/>
<polygon fill="#191970" stroke="#191970" points="189.5142,-224.8038 200.1039,-224.4732 191.6194,-218.1278 189.5142,-224.8038"/>
</g>
<!-- Node7 -->
<g id="node7" class="node">
<title>Node7</title>
<g id="a_node7"><a xlink:href="maptile_8h.html" target="_top" xlink:title=" ">
<polygon fill="#ffffff" stroke="#000000" points="162.9305,-168.5 162.9305,-187.5 286.9305,-187.5 286.9305,-168.5 162.9305,-168.5"/>
<text text-anchor="middle" x="224.9305" y="-175.5" font-family="Helvetica,sans-Serif" font-size="10.00" fill="#000000">src/application/maptile.h</text>
</a>
</g>
</g>
<!-- Node3&#45;&gt;Node7 -->
<g id="edge7" class="edge">
<title>Node3&#45;&gt;Node7</title>
<path fill="none" stroke="#191970" d="M229.4502,-214.1575C228.3249,-205.155 227.0455,-194.9199 226.1358,-187.6427"/>
<polygon fill="#191970" stroke="#191970" points="225.9978,-214.7569 230.7112,-224.2455 232.9437,-213.8886 225.9978,-214.7569"/>
</g>
<!-- Node5&#45;&gt;Node4 -->
<g id="edge5" class="edge">
<title>Node5&#45;&gt;Node4</title>
<path fill="none" stroke="#191970" d="M118.9809,-53.7199C157.595,-43.4228 211.9444,-28.9296 247.3013,-19.5011"/>
<polygon fill="#191970" stroke="#191970" points="117.7913,-50.4147 109.0308,-56.3733 119.595,-57.1784 117.7913,-50.4147"/>
</g>
<!-- Node6 -->
<g id="node6" class="node">
<title>Node6</title>
<g id="a_node6"><a xlink:href="view_8cpp.html" target="_top" xlink:title=" ">
<polygon fill="#ffffff" stroke="#000000" points="11.4305,-.5 11.4305,-19.5 134.4305,-19.5 134.4305,-.5 11.4305,-.5"/>
<text text-anchor="middle" x="72.9305" y="-7.5" font-family="Helvetica,sans-Serif" font-size="10.00" fill="#000000">src/application/view.cpp</text>
</a>
</g>
</g>
<!-- Node5&#45;&gt;Node6 -->
<g id="edge6" class="edge">
<title>Node5&#45;&gt;Node6</title>
<path fill="none" stroke="#191970" d="M72.9305,-46.1575C72.9305,-37.155 72.9305,-26.9199 72.9305,-19.6427"/>
<polygon fill="#191970" stroke="#191970" points="69.4306,-46.2455 72.9305,-56.2455 76.4306,-46.2456 69.4306,-46.2455"/>
</g>
<!-- Node8 -->
<g id="node8" class="node">
<title>Node8</title>
<g id="a_node8"><a xlink:href="scene_8h.html" target="_top" xlink:title=" ">
<polygon fill="#ffffff" stroke="#000000" points="13.4305,-112.5 13.4305,-131.5 132.4305,-131.5 132.4305,-112.5 13.4305,-112.5"/>
<text text-anchor="middle" x="72.9305" y="-119.5" font-family="Helvetica,sans-Serif" font-size="10.00" fill="#000000">src/application/scene.h</text>
</a>
</g>
</g>
<!-- Node7&#45;&gt;Node8 -->
<g id="edge8" class="edge">
<title>Node7&#45;&gt;Node8</title>
<path fill="none" stroke="#191970" d="M189.0715,-164.7888C161.3181,-154.5639 123.5486,-140.6488 98.7192,-131.5011"/>
<polygon fill="#191970" stroke="#191970" points="188.2073,-168.2003 198.8008,-168.3733 190.6273,-161.6319 188.2073,-168.2003"/>
</g>
<!-- Node9 -->
<g id="node9" class="node">
<title>Node9</title>
<g id="a_node9"><a xlink:href="scene_8cpp.html" target="_top" xlink:title=" ">
<polygon fill="#ffffff" stroke="#000000" points="190.9305,-56.5 190.9305,-75.5 320.9305,-75.5 320.9305,-56.5 190.9305,-56.5"/>
<text text-anchor="middle" x="255.9305" y="-63.5" font-family="Helvetica,sans-Serif" font-size="10.00" fill="#000000">src/application/scene.cpp</text>
</a>
</g>
</g>
<!-- Node7&#45;&gt;Node9 -->
<g id="edge13" class="edge">
<title>Node7&#45;&gt;Node9</title>
<path fill="none" stroke="#191970" d="M259.4815,-163.742C272.7456,-156.3601 286.479,-145.9233 293.9305,-132 304.8484,-111.5996 283.0821,-88.2486 268.215,-75.5141"/>
<polygon fill="#191970" stroke="#191970" points="257.7579,-160.6925 250.4566,-168.3698 260.952,-166.9213 257.7579,-160.6925"/>
</g>
<!-- Node10 -->
<g id="node10" class="node">
<title>Node10</title>
<g id="a_node10"><a xlink:href="maptile_8cpp.html" target="_top" xlink:title=" ">
<polygon fill="#ffffff" stroke="#000000" points="150.9305,-112.5 150.9305,-131.5 284.9305,-131.5 284.9305,-112.5 150.9305,-112.5"/>
<text text-anchor="middle" x="217.9305" y="-119.5" font-family="Helvetica,sans-Serif" font-size="10.00" fill="#000000">src/application/maptile.cpp</text>
</a>
</g>
</g>
<!-- Node7&#45;&gt;Node10 -->
<g id="edge12" class="edge">
<title>Node7&#45;&gt;Node10</title>
<path fill="none" stroke="#191970" d="M222.4502,-158.1575C221.3249,-149.155 220.0455,-138.9199 219.1358,-131.6427"/>
<polygon fill="#191970" stroke="#191970" points="218.9978,-158.7569 223.7112,-168.2455 225.9437,-157.8886 218.9978,-158.7569"/>
</g>
<!-- Node8&#45;&gt;Node4 -->
<g id="edge10" class="edge">
<title>Node8&#45;&gt;Node4</title>
<path fill="none" stroke="#191970" d="M95.9684,-106.9662C117.7223,-93.0326 151.4633,-72.0913 181.9305,-56 207.9977,-42.2325 238.983,-28.4906 259.6966,-19.6613"/>
<polygon fill="#191970" stroke="#191970" points="93.9325,-104.1144 87.4237,-112.4742 97.7251,-109.9979 93.9325,-104.1144"/>
</g>
<!-- Node8&#45;&gt;Node5 -->
<g id="edge9" class="edge">
<title>Node8&#45;&gt;Node5</title>
<path fill="none" stroke="#191970" d="M72.9305,-102.1575C72.9305,-93.155 72.9305,-82.9199 72.9305,-75.6427"/>
<polygon fill="#191970" stroke="#191970" points="69.4306,-102.2455 72.9305,-112.2455 76.4306,-102.2456 69.4306,-102.2455"/>
</g>
<!-- Node8&#45;&gt;Node9 -->
<g id="edge11" class="edge">
<title>Node8&#45;&gt;Node9</title>
<path fill="none" stroke="#191970" d="M114.3555,-109.3235C147.9161,-99.0536 194.4645,-84.8093 224.8822,-75.5011"/>
<polygon fill="#191970" stroke="#191970" points="112.9274,-106.1002 104.3893,-112.3733 114.9758,-112.7938 112.9274,-106.1002"/>
</g>
<!-- Node11&#45;&gt;Node4 -->
<g id="edge15" class="edge">
<title>Node11&#45;&gt;Node4</title>
<path fill="none" stroke="#191970" d="M388.1329,-213.9361C385.8712,-179.0369 377.1969,-106.1006 343.9305,-56 333.3651,-40.0882 315.385,-27.5225 301.6747,-19.5731"/>
<polygon fill="#191970" stroke="#191970" points="384.6539,-214.4254 388.6803,-224.2253 391.644,-214.0534 384.6539,-214.4254"/>
</g>
<!-- Node12 -->
<g id="node12" class="node">
<title>Node12</title>
<g id="a_node12"><a xlink:href="sidepanel_8cpp.html" target="_top" xlink:title=" ">
<polygon fill="#ffffff" stroke="#000000" points="416.9305,-168.5 416.9305,-187.5 562.9305,-187.5 562.9305,-168.5 416.9305,-168.5"/>
<text text-anchor="middle" x="489.9305" y="-175.5" font-family="Helvetica,sans-Serif" font-size="10.00" fill="#000000">src/application/sidepanel.cpp</text>
</a>
</g>
</g>
<!-- Node11&#45;&gt;Node12 -->
<g id="edge16" class="edge">
<title>Node11&#45;&gt;Node12</title>
<path fill="none" stroke="#191970" d="M415.4023,-219.3225C433.4429,-209.3198 456.8181,-196.3593 472.5392,-187.6427"/>
<polygon fill="#191970" stroke="#191970" points="413.5718,-216.3354 406.5233,-224.2455 416.9662,-222.4574 413.5718,-216.3354"/>
</g>
</g>
</svg>
        <g id="navigator" transform="translate(0 0)" fill="#404254">
                <rect fill="#f2f5e9" fill-opacity="0.5" stroke="#606060" stroke-width=".5" x="0" y="0" width="60" height="60"/>
                <use id="zoomplus" xlink:href="#zoomPlus" x="17" y="9" onmousedown="handleZoom(evt,'in')"/>
                <use id="zoomminus" xlink:href="#zoomMin" x="42" y="9" onmousedown="handleZoom(evt,'out')"/>
                <use id="reset" xlink:href="#resetDef" x="30" y="36" onmousedown="handleReset()"/>
                <g id="arrowUp" xlink:href="#dirArrow" transform="translate(30 24)" onmousedown="handlePan(0,-1)">
                  <use xlink:href="#rim" fill="#404040">
                        <set attributeName="fill" to="#808080" begin="arrowUp.mouseover" end="arrowUp.mouseout"/>
                  </use>
                  <path fill="none" stroke="white" stroke-width="1.5" d="M0,-3.0v7 M-2.5,-0.5L0,-3.0L2.5,-0.5"/>
                </g>
                <g id="arrowRight" xlink:href="#dirArrow" transform="rotate(90) translate(36 -43)" onmousedown="handlePan(1,0)">
                  <use xlink:href="#rim" fill="#404040">
                        <set attributeName="fill" to="#808080" begin="arrowRight.mouseover" end="arrowRight.mouseout"/>
                  </use>
                  <path fill="none" stroke="white" stroke-width="1.5" d="M0,-3.0v7 M-2.5,-0.5L0,-3.0L2.5,-0.5"/>
                </g>
                <g id="arrowDown" xlink:href="#dirArrow" transform="rotate(180) translate(-30 -48)" onmousedown="handlePan(0,1)">
                  <use xlink:href="#rim" fill="#404040">
                        <set attributeName="fill" to="#808080" begin="arrowDown.mouseover" end="arrowDown.mouseout"/>
                  </use>
                  <path fill="none" stroke="white" stroke-width="1.5" d="M0,-3.0v7 M-2.5,-0.5L0,-3.0L2.5,-0.5"/>
                </g>
                <g id="arrowLeft" xlink:href="#dirArrow" transform="rotate(270) translate(-36 17)" onmousedown="handlePan(-1,0)">
                  <use xlink:href="#rim" fill="#404040">
                        <set attributeName="fill" to="#808080" begin="arrowLeft.mouseover" end="arrowLeft.mouseout"/>
                  </use>
                  <path fill="none" stroke="white" stroke-width="1.5" d="M0,-3.0v7 M-2.5,-0.5L0,-3.0L2.5,-0.5"/>
                </g>
        </g>
        <svg viewBox="0 0 15 15" width="100%" height="30px" preserveAspectRatio="xMaxYMin meet">
         <g id="arrow_out" transform="scale(0.3 0.3)">
          <a xlink:href="datamodel_8h__dep__incl_org.svg" target="_base">
           <rect id="button" ry="5" rx="5" y="6" x="6" height="38" width="38"
                fill="#f2f5e9" fill-opacity="0.5" stroke="#606060" stroke-width="1.0"/>
           <path id="arrow"
             d="M 11.500037,31.436501 C 11.940474,20.09759 22.043105,11.32322 32.158766,21.979434 L 37.068811,17.246167 C 37.068811,17.246167 37.088388,32 37.088388,32 L 22.160133,31.978069 C 22.160133,31.978069 26.997745,27.140456 26.997745,27.140456 C 18.528582,18.264221 13.291696,25.230495 11.500037,31.436501 z"
             style="fill:#404040;"/>
          </a>
         </g>
        </svg>
</svg>
