<?xml version="1.0" encoding="UTF-8" standalone="no"?>
<!DOCTYPE svg PUBLIC "-//W3C//DTD SVG 1.1//EN"
 "http://www.w3.org/Graphics/SVG/1.1/DTD/svg11.dtd">
<!-- Generated by graphviz version 2.40.1 (20161225.0304)
 -->
<!-- Title: src/application_server/graphicsmanager.h Pages: 1 -->
<svg width="578pt" height="441pt"
 viewBox="0.00 0.00 577.50 441.00" xmlns="http://www.w3.org/2000/svg" xmlns:xlink="http://www.w3.org/1999/xlink">
<g id="graph0" class="graph" transform="scale(1 1) rotate(0) translate(4 437)">
<title>src/application_server/graphicsmanager.h</title>
<polygon fill="#ffffff" stroke="transparent" points="-4,4 -4,-437 573.5,-437 573.5,4 -4,4"/>
<!-- Node1 -->
<g id="node1" class="node">
<title>Node1</title>
<g id="a_node1"><a xlink:title=" ">
<polygon fill="#bfbfbf" stroke="#000000" points="158.5,-402.5 158.5,-432.5 273.5,-432.5 273.5,-402.5 158.5,-402.5"/>
<text text-anchor="start" x="166.5" y="-420.5" font-family="Helvetica,sans-Serif" font-size="10.00" fill="#000000">src/application_server</text>
<text text-anchor="middle" x="216" y="-409.5" font-family="Helvetica,sans-Serif" font-size="10.00" fill="#000000">/graphicsmanager.h</text>
</a>
</g>
</g>
<!-- Node2 -->
<g id="node2" class="node">
<title>Node2</title>
<g id="a_node2"><a xlink:href="maptile_8h.html" target="_top" xlink:title=" ">
<polygon fill="#ffffff" stroke="#000000" points="115.5,-335.5 115.5,-365.5 230.5,-365.5 230.5,-335.5 115.5,-335.5"/>
<text text-anchor="start" x="123.5" y="-353.5" font-family="Helvetica,sans-Serif" font-size="10.00" fill="#000000">src/application_server</text>
<text text-anchor="middle" x="173" y="-342.5" font-family="Helvetica,sans-Serif" font-size="10.00" fill="#000000">/maptile.h</text>
</a>
</g>
</g>
<!-- Node1&#45;&gt;Node2 -->
<g id="edge1" class="edge">
<title>Node1&#45;&gt;Node2</title>
<path fill="none" stroke="#191970" d="M200.7725,-393.7735C194.7666,-384.4154 188.0449,-373.9421 182.7188,-365.6432"/>
<polygon fill="#191970" stroke="#191970" points="197.8958,-395.7712 206.2426,-402.2967 203.7869,-391.9903 197.8958,-395.7712"/>
</g>
<!-- Node3 -->
<g id="node3" class="node">
<title>Node3</title>
<g id="a_node3"><a xlink:href="scene_8h.html" target="_top" xlink:title=" ">
<polygon fill="#ffffff" stroke="#000000" points="291.5,-268.5 291.5,-298.5 406.5,-298.5 406.5,-268.5 291.5,-268.5"/>
<text text-anchor="start" x="299.5" y="-286.5" font-family="Helvetica,sans-Serif" font-size="10.00" fill="#000000">src/application_server</text>
<text text-anchor="middle" x="349" y="-275.5" font-family="Helvetica,sans-Serif" font-size="10.00" fill="#000000">/scene.h</text>
</a>
</g>
</g>
<!-- Node1&#45;&gt;Node3 -->
<g id="edge20" class="edge">
<title>Node1&#45;&gt;Node3</title>
<path fill="none" stroke="#191970" d="M230.8817,-393.9901C242.5108,-376.6205 259.7226,-352.9705 278,-335 292.1158,-321.1212 310.2043,-308.0575 324.5906,-298.5602"/>
<polygon fill="#191970" stroke="#191970" points="227.8978,-392.1576 225.3332,-402.4374 233.7486,-396.0006 227.8978,-392.1576"/>
</g>
<!-- Node7 -->
<g id="node7" class="node">
<title>Node7</title>
<g id="a_node7"><a xlink:href="main_8cpp.html" target="_top" xlink:title=" ">
<polygon fill="#ffffff" stroke="#000000" points="247.5,-.5 247.5,-30.5 362.5,-30.5 362.5,-.5 247.5,-.5"/>
<text text-anchor="start" x="255.5" y="-18.5" font-family="Helvetica,sans-Serif" font-size="10.00" fill="#000000">src/application_server</text>
<text text-anchor="middle" x="305" y="-7.5" font-family="Helvetica,sans-Serif" font-size="10.00" fill="#000000">/main.cpp</text>
</a>
</g>
</g>
<!-- Node1&#45;&gt;Node7 -->
<g id="edge22" class="edge">
<title>Node1&#45;&gt;Node7</title>
<path fill="none" stroke="#191970" d="M148.4327,-405.0861C85.0675,-389.0833 0,-354.3972 0,-283.5 0,-283.5 0,-283.5 0,-149.5 0,-96.0736 158.8506,-49.9706 247.2733,-28.4463"/>
<polygon fill="#191970" stroke="#191970" points="147.8571,-408.5477 158.3997,-407.4967 149.5028,-401.7439 147.8571,-408.5477"/>
</g>
<!-- Node14 -->
<g id="node14" class="node">
<title>Node14</title>
<g id="a_node14"><a xlink:href="graphicsmanager_8cpp.html" target="_top" xlink:title=" ">
<polygon fill="#ffffff" stroke="#000000" points="287,-335.5 287,-365.5 403,-365.5 403,-335.5 287,-335.5"/>
<text text-anchor="start" x="295" y="-353.5" font-family="Helvetica,sans-Serif" font-size="10.00" fill="#000000">src/application_server</text>
<text text-anchor="middle" x="345" y="-342.5" font-family="Helvetica,sans-Serif" font-size="10.00" fill="#000000">/graphicsmanager.cpp</text>
</a>
</g>
</g>
<!-- Node1&#45;&gt;Node14 -->
<g id="edge21" class="edge">
<title>Node1&#45;&gt;Node14</title>
<path fill="none" stroke="#191970" d="M253.9793,-397.7743C273.6967,-387.5335 297.4179,-375.2132 315.7002,-365.7177"/>
<polygon fill="#191970" stroke="#191970" points="252.2113,-394.7486 244.9501,-402.4639 255.4378,-400.9607 252.2113,-394.7486"/>
</g>
<!-- Node2&#45;&gt;Node3 -->
<g id="edge2" class="edge">
<title>Node2&#45;&gt;Node3</title>
<path fill="none" stroke="#191970" d="M221.9516,-331.865C249.5014,-321.3773 283.4559,-308.4515 309.3299,-298.6017"/>
<polygon fill="#191970" stroke="#191970" points="220.5983,-328.6351 212.4978,-335.4639 223.0888,-335.1771 220.5983,-328.6351"/>
</g>
<!-- Node4 -->
<g id="node4" class="node">
<title>Node4</title>
<g id="a_node4"><a xlink:href="client_8h.html" target="_top" xlink:title=" ">
<polygon fill="#ffffff" stroke="#000000" points="161.5,-201.5 161.5,-231.5 276.5,-231.5 276.5,-201.5 161.5,-201.5"/>
<text text-anchor="start" x="169.5" y="-219.5" font-family="Helvetica,sans-Serif" font-size="10.00" fill="#000000">src/application_server</text>
<text text-anchor="middle" x="219" y="-208.5" font-family="Helvetica,sans-Serif" font-size="10.00" fill="#000000">/client.h</text>
</a>
</g>
</g>
<!-- Node2&#45;&gt;Node4 -->
<g id="edge17" class="edge">
<title>Node2&#45;&gt;Node4</title>
<path fill="none" stroke="#191970" d="M157.3767,-326.5186C148.4292,-309.5577 140.6647,-286.6166 150,-268 157.9065,-252.2327 173.1842,-240.0591 187.3579,-231.5161"/>
<polygon fill="#191970" stroke="#191970" points="154.3703,-328.3119 162.3682,-335.2606 160.4492,-324.841 154.3703,-328.3119"/>
</g>
<!-- Node12 -->
<g id="node12" class="node">
<title>Node12</title>
<g id="a_node12"><a xlink:href="scene_8cpp.html" target="_top" xlink:title=" ">
<polygon fill="#ffffff" stroke="#000000" points="28.5,-201.5 28.5,-231.5 143.5,-231.5 143.5,-201.5 28.5,-201.5"/>
<text text-anchor="start" x="36.5" y="-219.5" font-family="Helvetica,sans-Serif" font-size="10.00" fill="#000000">src/application_server</text>
<text text-anchor="middle" x="86" y="-208.5" font-family="Helvetica,sans-Serif" font-size="10.00" fill="#000000">/scene.cpp</text>
</a>
</g>
</g>
<!-- Node2&#45;&gt;Node12 -->
<g id="edge19" class="edge">
<title>Node2&#45;&gt;Node12</title>
<path fill="none" stroke="#191970" d="M157.6051,-326.7882C139.7908,-299.3502 110.9801,-254.9751 95.9085,-231.7614"/>
<polygon fill="#191970" stroke="#191970" points="154.808,-328.9076 163.1891,-335.389 160.6791,-325.0957 154.808,-328.9076"/>
</g>
<!-- Node13 -->
<g id="node13" class="node">
<title>Node13</title>
<g id="a_node13"><a xlink:href="maptile_8cpp.html" target="_top" xlink:title=" ">
<polygon fill="#ffffff" stroke="#000000" points="158.5,-268.5 158.5,-298.5 273.5,-298.5 273.5,-268.5 158.5,-268.5"/>
<text text-anchor="start" x="166.5" y="-286.5" font-family="Helvetica,sans-Serif" font-size="10.00" fill="#000000">src/application_server</text>
<text text-anchor="middle" x="216" y="-275.5" font-family="Helvetica,sans-Serif" font-size="10.00" fill="#000000">/maptile.cpp</text>
</a>
</g>
</g>
<!-- Node2&#45;&gt;Node13 -->
<g id="edge18" class="edge">
<title>Node2&#45;&gt;Node13</title>
<path fill="none" stroke="#191970" d="M188.2275,-326.7735C194.2334,-317.4154 200.9551,-306.9421 206.2812,-298.6432"/>
<polygon fill="#191970" stroke="#191970" points="185.2131,-324.9903 182.7574,-335.2967 191.1042,-328.7712 185.2131,-324.9903"/>
</g>
<!-- Node3&#45;&gt;Node4 -->
<g id="edge3" class="edge">
<title>Node3&#45;&gt;Node4</title>
<path fill="none" stroke="#191970" d="M310.7262,-263.7743C290.856,-253.5335 266.9509,-241.2132 248.527,-231.7177"/>
<polygon fill="#191970" stroke="#191970" points="309.3331,-266.9938 319.8255,-268.4639 312.54,-260.7715 309.3331,-266.9938"/>
</g>
<!-- Node3&#45;&gt;Node7 -->
<g id="edge15" class="edge">
<title>Node3&#45;&gt;Node7</title>
<path fill="none" stroke="#191970" d="M389.8731,-262.9732C401.4259,-254.9934 412.5891,-244.6756 419,-232 438.6577,-193.1328 435.2778,-174.3995 419,-134 400.6495,-88.4564 355.496,-50.6192 327.8398,-30.6921"/>
<polygon fill="#191970" stroke="#191970" points="387.9836,-260.027 381.4543,-268.3708 391.7617,-265.9198 387.9836,-260.027"/>
</g>
<!-- Node8 -->
<g id="node8" class="node">
<title>Node8</title>
<g id="a_node8"><a xlink:href="view_8h.html" target="_top" xlink:title=" ">
<polygon fill="#ffffff" stroke="#000000" points="454.5,-67.5 454.5,-97.5 569.5,-97.5 569.5,-67.5 454.5,-67.5"/>
<text text-anchor="start" x="462.5" y="-85.5" font-family="Helvetica,sans-Serif" font-size="10.00" fill="#000000">src/application_server</text>
<text text-anchor="middle" x="512" y="-74.5" font-family="Helvetica,sans-Serif" font-size="10.00" fill="#000000">/view.h</text>
</a>
</g>
</g>
<!-- Node3&#45;&gt;Node8 -->
<g id="edge14" class="edge">
<title>Node3&#45;&gt;Node8</title>
<path fill="none" stroke="#191970" d="M405.1984,-264.3565C421.969,-256.4549 439.2565,-245.8336 452,-232 488.7604,-192.0949 504.2626,-126.8162 509.6153,-97.5374"/>
<polygon fill="#191970" stroke="#191970" points="403.6766,-261.2028 395.9667,-268.4697 406.5255,-267.5969 403.6766,-261.2028"/>
</g>
<!-- Node11 -->
<g id="node11" class="node">
<title>Node11</title>
<g id="a_node11"><a xlink:href="menubar_8h.html" target="_top" xlink:title=" ">
<polygon fill="#ffffff" stroke="#000000" points="294.5,-201.5 294.5,-231.5 409.5,-231.5 409.5,-201.5 294.5,-201.5"/>
<text text-anchor="start" x="302.5" y="-219.5" font-family="Helvetica,sans-Serif" font-size="10.00" fill="#000000">src/application_server</text>
<text text-anchor="middle" x="352" y="-208.5" font-family="Helvetica,sans-Serif" font-size="10.00" fill="#000000">/menubar.h</text>
</a>
</g>
</g>
<!-- Node3&#45;&gt;Node11 -->
<g id="edge11" class="edge">
<title>Node3&#45;&gt;Node11</title>
<path fill="none" stroke="#191970" d="M350.1407,-258.0249C350.539,-249.128 350.9733,-239.4287 351.3219,-231.6432"/>
<polygon fill="#191970" stroke="#191970" points="346.6317,-258.1501 349.6807,-268.2967 353.6246,-258.4633 346.6317,-258.1501"/>
</g>
<!-- Node3&#45;&gt;Node12 -->
<g id="edge16" class="edge">
<title>Node3&#45;&gt;Node12</title>
<path fill="none" stroke="#191970" d="M281.5356,-266.3133C238.8411,-255.4367 184.2324,-241.525 143.5818,-231.1691"/>
<polygon fill="#191970" stroke="#191970" points="280.729,-269.7195 291.2835,-268.7966 282.4571,-262.9361 280.729,-269.7195"/>
</g>
<!-- Node5 -->
<g id="node5" class="node">
<title>Node5</title>
<g id="a_node5"><a xlink:href="client_8cpp.html" target="_top" xlink:title=" ">
<polygon fill="#ffffff" stroke="#000000" points="28.5,-134.5 28.5,-164.5 143.5,-164.5 143.5,-134.5 28.5,-134.5"/>
<text text-anchor="start" x="36.5" y="-152.5" font-family="Helvetica,sans-Serif" font-size="10.00" fill="#000000">src/application_server</text>
<text text-anchor="middle" x="86" y="-141.5" font-family="Helvetica,sans-Serif" font-size="10.00" fill="#000000">/client.cpp</text>
</a>
</g>
</g>
<!-- Node4&#45;&gt;Node5 -->
<g id="edge4" class="edge">
<title>Node4&#45;&gt;Node5</title>
<path fill="none" stroke="#191970" d="M180.1187,-196.9132C159.7357,-186.645 135.1428,-174.2561 116.2083,-164.7177"/>
<polygon fill="#191970" stroke="#191970" points="178.6467,-200.0906 189.1522,-201.4639 181.7961,-193.8391 178.6467,-200.0906"/>
</g>
<!-- Node6 -->
<g id="node6" class="node">
<title>Node6</title>
<g id="a_node6"><a xlink:href="main_8h.html" target="_top" xlink:title=" ">
<polygon fill="#ffffff" stroke="#000000" points="161.5,-134.5 161.5,-164.5 276.5,-164.5 276.5,-134.5 161.5,-134.5"/>
<text text-anchor="start" x="169.5" y="-152.5" font-family="Helvetica,sans-Serif" font-size="10.00" fill="#000000">src/application_server</text>
<text text-anchor="middle" x="219" y="-141.5" font-family="Helvetica,sans-Serif" font-size="10.00" fill="#000000">/main.h</text>
</a>
</g>
</g>
<!-- Node4&#45;&gt;Node6 -->
<g id="edge5" class="edge">
<title>Node4&#45;&gt;Node6</title>
<path fill="none" stroke="#191970" d="M219,-191.0249C219,-182.128 219,-172.4287 219,-164.6432"/>
<polygon fill="#191970" stroke="#191970" points="215.5001,-191.2966 219,-201.2967 222.5001,-191.2967 215.5001,-191.2966"/>
</g>
<!-- Node10 -->
<g id="node10" class="node">
<title>Node10</title>
<g id="a_node10"><a xlink:href="menubar_8cpp.html" target="_top" xlink:title=" ">
<polygon fill="#ffffff" stroke="#000000" points="294.5,-134.5 294.5,-164.5 409.5,-164.5 409.5,-134.5 294.5,-134.5"/>
<text text-anchor="start" x="302.5" y="-152.5" font-family="Helvetica,sans-Serif" font-size="10.00" fill="#000000">src/application_server</text>
<text text-anchor="middle" x="352" y="-141.5" font-family="Helvetica,sans-Serif" font-size="10.00" fill="#000000">/menubar.cpp</text>
</a>
</g>
</g>
<!-- Node4&#45;&gt;Node10 -->
<g id="edge10" class="edge">
<title>Node4&#45;&gt;Node10</title>
<path fill="none" stroke="#191970" d="M257.8813,-196.9132C278.2643,-186.645 302.8572,-174.2561 321.7917,-164.7177"/>
<polygon fill="#191970" stroke="#191970" points="256.2039,-193.8391 248.8478,-201.4639 259.3533,-200.0906 256.2039,-193.8391"/>
</g>
<!-- Node6&#45;&gt;Node7 -->
<g id="edge6" class="edge">
<title>Node6&#45;&gt;Node7</title>
<path fill="none" stroke="#191970" d="M234.218,-125.7882C251.8275,-98.3502 280.307,-53.9751 295.2054,-30.7614"/>
<polygon fill="#191970" stroke="#191970" points="231.1538,-124.0827 228.6981,-134.389 237.0449,-127.8635 231.1538,-124.0827"/>
</g>
<!-- Node6&#45;&gt;Node8 -->
<g id="edge7" class="edge">
<title>Node6&#45;&gt;Node8</title>
<path fill="none" stroke="#191970" d="M286.8643,-133.8054C349.86,-119.3501 411.038,-105.4231 454.3965,-95.5715"/>
<polygon fill="#191970" stroke="#191970" points="285.7041,-130.4806 276.7407,-136.1294 287.2703,-137.3031 285.7041,-130.4806"/>
</g>
<!-- Node8&#45;&gt;Node7 -->
<g id="edge8" class="edge">
<title>Node8&#45;&gt;Node7</title>
<path fill="none" stroke="#191970" d="M455.6957,-64.2759C423.0719,-53.7165 382.4875,-40.5805 351.6575,-30.6017"/>
<polygon fill="#191970" stroke="#191970" points="454.9533,-67.7143 465.5452,-67.4639 457.1089,-61.0545 454.9533,-67.7143"/>
</g>
<!-- Node9 -->
<g id="node9" class="node">
<title>Node9</title>
<g id="a_node9"><a xlink:href="view_8cpp.html" target="_top" xlink:title=" ">
<polygon fill="#ffffff" stroke="#000000" points="454.5,-.5 454.5,-30.5 569.5,-30.5 569.5,-.5 454.5,-.5"/>
<text text-anchor="start" x="462.5" y="-18.5" font-family="Helvetica,sans-Serif" font-size="10.00" fill="#000000">src/application_server</text>
<text text-anchor="middle" x="512" y="-7.5" font-family="Helvetica,sans-Serif" font-size="10.00" fill="#000000">/view.cpp</text>
</a>
</g>
</g>
<!-- Node8&#45;&gt;Node9 -->
<g id="edge9" class="edge">
<title>Node8&#45;&gt;Node9</title>
<path fill="none" stroke="#191970" d="M512,-57.0249C512,-48.128 512,-38.4287 512,-30.6432"/>
<polygon fill="#191970" stroke="#191970" points="508.5001,-57.2966 512,-67.2967 515.5001,-57.2967 508.5001,-57.2966"/>
</g>
<!-- Node11&#45;&gt;Node6 -->
<g id="edge12" class="edge">
<title>Node11&#45;&gt;Node6</title>
<path fill="none" stroke="#191970" d="M313.1187,-196.9132C292.7357,-186.645 268.1428,-174.2561 249.2083,-164.7177"/>
<polygon fill="#191970" stroke="#191970" points="311.6467,-200.0906 322.1522,-201.4639 314.7961,-193.8391 311.6467,-200.0906"/>
</g>
<!-- Node11&#45;&gt;Node10 -->
<g id="edge13" class="edge">
<title>Node11&#45;&gt;Node10</title>
<path fill="none" stroke="#191970" d="M352,-191.0249C352,-182.128 352,-172.4287 352,-164.6432"/>
<polygon fill="#191970" stroke="#191970" points="348.5001,-191.2966 352,-201.2967 355.5001,-191.2967 348.5001,-191.2966"/>
</g>
</g>
</svg>
