<?xml version="1.0" encoding="UTF-8" standalone="no"?>
<!DOCTYPE svg PUBLIC "-//W3C//DTD SVG 1.1//EN"
 "http://www.w3.org/Graphics/SVG/1.1/DTD/svg11.dtd">
<!-- Generated by graphviz version 2.40.1 (20161225.0304)
 -->
<!-- Title: src/application_server/graphicsmanager.cpp Pages: 1 -->
<svg width="218pt" height="151pt"
 viewBox="0.00 0.00 217.50 151.00" xmlns="http://www.w3.org/2000/svg" xmlns:xlink="http://www.w3.org/1999/xlink">
<g id="graph0" class="graph" transform="scale(1 1) rotate(0) translate(4 147)">
<title>src/application_server/graphicsmanager.cpp</title>
<polygon fill="#ffffff" stroke="transparent" points="-4,4 -4,-147 213.5,-147 213.5,4 -4,4"/>
<!-- Node1 -->
<g id="node1" class="node">
<title>Node1</title>
<g id="a_node1"><a xlink:title=" ">
<polygon fill="#bfbfbf" stroke="#000000" points="17,-112.5 17,-142.5 133,-142.5 133,-112.5 17,-112.5"/>
<text text-anchor="start" x="25" y="-130.5" font-family="Helvetica,sans-Serif" font-size="10.00" fill="#000000">src/application_server</text>
<text text-anchor="middle" x="75" y="-119.5" font-family="Helvetica,sans-Serif" font-size="10.00" fill="#000000">/graphicsmanager.cpp</text>
</a>
</g>
</g>
<!-- Node2 -->
<g id="node2" class="node">
<title>Node2</title>
<g id="a_node2"><a xlink:title=" ">
<polygon fill="#ffffff" stroke="#bfbfbf" points="0,-56.5 0,-75.5 54,-75.5 54,-56.5 0,-56.5"/>
<text text-anchor="middle" x="27" y="-63.5" font-family="Helvetica,sans-Serif" font-size="10.00" fill="#000000">QDebug</text>
</a>
</g>
</g>
<!-- Node1&#45;&gt;Node2 -->
<g id="edge1" class="edge">
<title>Node1&#45;&gt;Node2</title>
<path fill="none" stroke="#191970" d="M63.1348,-112.2977C56.4025,-103.672 47.9415,-92.8312 40.8994,-83.8087"/>
<polygon fill="#191970" stroke="#191970" points="43.5973,-81.5766 34.6854,-75.8469 38.079,-85.8836 43.5973,-81.5766"/>
</g>
<!-- Node3 -->
<g id="node3" class="node">
<title>Node3</title>
<g id="a_node3"><a xlink:href="graphicsmanager_8h.html" target="_top" xlink:title=" ">
<polygon fill="#ffffff" stroke="#000000" points="72.5,-56.5 72.5,-75.5 175.5,-75.5 175.5,-56.5 72.5,-56.5"/>
<text text-anchor="middle" x="124" y="-63.5" font-family="Helvetica,sans-Serif" font-size="10.00" fill="#000000">graphicsmanager.h</text>
</a>
</g>
</g>
<!-- Node1&#45;&gt;Node3 -->
<g id="edge2" class="edge">
<title>Node1&#45;&gt;Node3</title>
<path fill="none" stroke="#191970" d="M87.1124,-112.2977C93.9849,-103.672 102.6223,-92.8312 109.811,-83.8087"/>
<polygon fill="#191970" stroke="#191970" points="112.6604,-85.849 116.1545,-75.8469 107.1856,-81.487 112.6604,-85.849"/>
</g>
<!-- Node4 -->
<g id="node4" class="node">
<title>Node4</title>
<g id="a_node4"><a xlink:title=" ">
<polygon fill="#ffffff" stroke="#bfbfbf" points="21,-.5 21,-19.5 79,-19.5 79,-.5 21,-.5"/>
<text text-anchor="middle" x="50" y="-7.5" font-family="Helvetica,sans-Serif" font-size="10.00" fill="#000000">QPixmap</text>
</a>
</g>
</g>
<!-- Node3&#45;&gt;Node4 -->
<g id="edge3" class="edge">
<title>Node3&#45;&gt;Node4</title>
<path fill="none" stroke="#191970" d="M111.1102,-56.2455C100.0746,-47.8943 83.9708,-35.7076 71.0647,-25.9408"/>
<polygon fill="#191970" stroke="#191970" points="72.8283,-22.8862 62.7421,-19.6427 68.6041,-28.4681 72.8283,-22.8862"/>
</g>
<!-- Node5 -->
<g id="node5" class="node">
<title>Node5</title>
<g id="a_node5"><a xlink:title=" ">
<polygon fill="#ffffff" stroke="#bfbfbf" points="97.5,-.5 97.5,-19.5 150.5,-19.5 150.5,-.5 97.5,-.5"/>
<text text-anchor="middle" x="124" y="-7.5" font-family="Helvetica,sans-Serif" font-size="10.00" fill="#000000">QImage</text>
</a>
</g>
</g>
<!-- Node3&#45;&gt;Node5 -->
<g id="edge4" class="edge">
<title>Node3&#45;&gt;Node5</title>
<path fill="none" stroke="#191970" d="M124,-56.2455C124,-48.9382 124,-38.6944 124,-29.7046"/>
<polygon fill="#191970" stroke="#191970" points="127.5001,-29.6426 124,-19.6427 120.5001,-29.6427 127.5001,-29.6426"/>
</g>
<!-- Node6 -->
<g id="node6" class="node">
<title>Node6</title>
<g id="a_node6"><a xlink:title=" ">
<polygon fill="#ffffff" stroke="#bfbfbf" points="168.5,-.5 168.5,-19.5 209.5,-19.5 209.5,-.5 168.5,-.5"/>
<text text-anchor="middle" x="189" y="-7.5" font-family="Helvetica,sans-Serif" font-size="10.00" fill="#000000">string</text>
</a>
</g>
</g>
<!-- Node3&#45;&gt;Node6 -->
<g id="edge5" class="edge">
<title>Node3&#45;&gt;Node6</title>
<path fill="none" stroke="#191970" d="M135.3221,-56.2455C144.9223,-47.9746 158.8892,-35.9416 170.1695,-26.2232"/>
<polygon fill="#191970" stroke="#191970" points="172.516,-28.8214 177.8076,-19.6427 167.947,-23.5182 172.516,-28.8214"/>
</g>
</g>
</svg>
