<?xml version="1.0" encoding="UTF-8" standalone="no"?>
<!DOCTYPE svg PUBLIC "-//W3C//DTD SVG 1.1//EN"
 "http://www.w3.org/Graphics/SVG/1.1/DTD/svg11.dtd">
<!-- Generated by graphviz version 2.40.1 (20161225.0304)
 -->
<!-- Title: src/application/graphicsmanager.cpp Pages: 1 -->
<svg width="233pt" height="140pt"
 viewBox="0.00 0.00 233.00 140.00" xmlns="http://www.w3.org/2000/svg" xmlns:xlink="http://www.w3.org/1999/xlink">
<g id="graph0" class="graph" transform="scale(1 1) rotate(0) translate(4 136)">
<title>src/application/graphicsmanager.cpp</title>
<polygon fill="#ffffff" stroke="transparent" points="-4,4 -4,-136 229,-136 229,4 -4,4"/>
<!-- Node1 -->
<g id="node1" class="node">
<title>Node1</title>
<g id="a_node1"><a xlink:title=" ">
<polygon fill="#bfbfbf" stroke="#000000" points="0,-112.5 0,-131.5 181,-131.5 181,-112.5 0,-112.5"/>
<text text-anchor="middle" x="90.5" y="-119.5" font-family="Helvetica,sans-Serif" font-size="10.00" fill="#000000">src/application/graphicsmanager.cpp</text>
</a>
</g>
</g>
<!-- Node2 -->
<g id="node2" class="node">
<title>Node2</title>
<g id="a_node2"><a xlink:title=" ">
<polygon fill="#ffffff" stroke="#bfbfbf" points="15.5,-56.5 15.5,-75.5 69.5,-75.5 69.5,-56.5 15.5,-56.5"/>
<text text-anchor="middle" x="42.5" y="-63.5" font-family="Helvetica,sans-Serif" font-size="10.00" fill="#000000">QDebug</text>
</a>
</g>
</g>
<!-- Node1&#45;&gt;Node2 -->
<g id="edge1" class="edge">
<title>Node1&#45;&gt;Node2</title>
<path fill="none" stroke="#191970" d="M82.139,-112.2455C75.325,-104.2958 65.5319,-92.8706 57.3848,-83.3656"/>
<polygon fill="#191970" stroke="#191970" points="59.9305,-80.9575 50.7651,-75.6427 54.6157,-85.513 59.9305,-80.9575"/>
</g>
<!-- Node3 -->
<g id="node3" class="node">
<title>Node3</title>
<g id="a_node3"><a xlink:href="graphicsmanager_8h.html" target="_top" xlink:title=" ">
<polygon fill="#ffffff" stroke="#000000" points="88,-56.5 88,-75.5 191,-75.5 191,-56.5 88,-56.5"/>
<text text-anchor="middle" x="139.5" y="-63.5" font-family="Helvetica,sans-Serif" font-size="10.00" fill="#000000">graphicsmanager.h</text>
</a>
</g>
</g>
<!-- Node1&#45;&gt;Node3 -->
<g id="edge2" class="edge">
<title>Node1&#45;&gt;Node3</title>
<path fill="none" stroke="#191970" d="M99.0351,-112.2455C105.9912,-104.2958 115.9883,-92.8706 124.3051,-83.3656"/>
<polygon fill="#191970" stroke="#191970" points="127.1116,-85.4732 131.0627,-75.6427 121.8436,-80.8637 127.1116,-85.4732"/>
</g>
<!-- Node4 -->
<g id="node4" class="node">
<title>Node4</title>
<g id="a_node4"><a xlink:title=" ">
<polygon fill="#ffffff" stroke="#bfbfbf" points="36.5,-.5 36.5,-19.5 94.5,-19.5 94.5,-.5 36.5,-.5"/>
<text text-anchor="middle" x="65.5" y="-7.5" font-family="Helvetica,sans-Serif" font-size="10.00" fill="#000000">QPixmap</text>
</a>
</g>
</g>
<!-- Node3&#45;&gt;Node4 -->
<g id="edge3" class="edge">
<title>Node3&#45;&gt;Node4</title>
<path fill="none" stroke="#191970" d="M126.6102,-56.2455C115.5746,-47.8943 99.4708,-35.7076 86.5647,-25.9408"/>
<polygon fill="#191970" stroke="#191970" points="88.3283,-22.8862 78.2421,-19.6427 84.1041,-28.4681 88.3283,-22.8862"/>
</g>
<!-- Node5 -->
<g id="node5" class="node">
<title>Node5</title>
<g id="a_node5"><a xlink:title=" ">
<polygon fill="#ffffff" stroke="#bfbfbf" points="113,-.5 113,-19.5 166,-19.5 166,-.5 113,-.5"/>
<text text-anchor="middle" x="139.5" y="-7.5" font-family="Helvetica,sans-Serif" font-size="10.00" fill="#000000">QImage</text>
</a>
</g>
</g>
<!-- Node3&#45;&gt;Node5 -->
<g id="edge4" class="edge">
<title>Node3&#45;&gt;Node5</title>
<path fill="none" stroke="#191970" d="M139.5,-56.2455C139.5,-48.9382 139.5,-38.6944 139.5,-29.7046"/>
<polygon fill="#191970" stroke="#191970" points="143.0001,-29.6426 139.5,-19.6427 136.0001,-29.6427 143.0001,-29.6426"/>
</g>
<!-- Node6 -->
<g id="node6" class="node">
<title>Node6</title>
<g id="a_node6"><a xlink:title=" ">
<polygon fill="#ffffff" stroke="#bfbfbf" points="184,-.5 184,-19.5 225,-19.5 225,-.5 184,-.5"/>
<text text-anchor="middle" x="204.5" y="-7.5" font-family="Helvetica,sans-Serif" font-size="10.00" fill="#000000">string</text>
</a>
</g>
</g>
<!-- Node3&#45;&gt;Node6 -->
<g id="edge5" class="edge">
<title>Node3&#45;&gt;Node6</title>
<path fill="none" stroke="#191970" d="M150.8221,-56.2455C160.4223,-47.9746 174.3892,-35.9416 185.6695,-26.2232"/>
<polygon fill="#191970" stroke="#191970" points="188.016,-28.8214 193.3076,-19.6427 183.447,-23.5182 188.016,-28.8214"/>
</g>
</g>
</svg>
