<?xml version="1.0" encoding="UTF-8" standalone="no"?>
<!DOCTYPE svg PUBLIC "-//W3C//DTD SVG 1.1//EN"
 "http://www.w3.org/Graphics/SVG/1.1/DTD/svg11.dtd">
<!-- Generated by graphviz version 2.40.1 (20161225.0304)
 -->
<!-- Title: src/application/main.cpp Pages: 1 -->
<!--zoomable 364 -->
<svg id="main" version="1.1" xmlns="http://www.w3.org/2000/svg" xmlns:xlink="http://www.w3.org/1999/xlink" xml:space="preserve" onload="init(evt)">
<style type="text/css"><![CDATA[
.edge:hover path { stroke: red; }
.edge:hover polygon { stroke: red; fill: red; }
]]></style>
<script type="text/javascript"><![CDATA[
var edges = document.getElementsByTagName('g');
if (edges && edges.length) {
  for (var i=0;i<edges.length;i++) {
    if (edges[i].id.substr(0,4)=='edge') {
      edges[i].setAttribute('class','edge');
    }
  }
}
]]></script>
        <defs>
                <circle id="rim" cx="0" cy="0" r="7"/>
                <circle id="rim2" cx="0" cy="0" r="3.5"/>
                <g id="zoomPlus">
                        <use xlink:href="#rim" fill="#404040">
                                <set attributeName="fill" to="#808080" begin="zoomplus.mouseover" end="zoomplus.mouseout"/>
                        </use>
                        <path d="M-4,0h8M0,-4v8" fill="none" stroke="white" stroke-width="1.5" pointer-events="none"/>
                </g>
                <g id="zoomMin">
                        <use xlink:href="#rim" fill="#404040">
                                <set attributeName="fill" to="#808080" begin="zoomminus.mouseover" end="zoomminus.mouseout"/>
                        </use>
                        <path d="M-4,0h8" fill="none" stroke="white" stroke-width="1.5" pointer-events="none"/>
                </g>
                <g id="dirArrow">
                        <path fill="none" stroke="white" stroke-width="1.5" d="M0,-3.0v7 M-2.5,-0.5L0,-3.0L2.5,-0.5"/>
                </g>
               <g id="resetDef">
                       <use xlink:href="#rim2" fill="#404040">
                               <set attributeName="fill" to="#808080" begin="reset.mouseover" end="reset.mouseout"/>
                       </use>
               </g>
        </defs>

<script type="text/javascript">
var viewWidth = 1507;
var viewHeight = 364;
var sectionId = 'dynsection-0';
</script>
<script xlink:href="svgpan.js"/>
<svg id="graph" class="graph">
<g id="viewport">
<title>src/application/main.cpp</title>
<polygon fill="#ffffff" stroke="transparent" points="-4,4 -4,-360 1502.6641,-360 1502.6641,4 -4,4"/>
<!-- Node1 -->
<g id="node1" class="node">
<title>Node1</title>
<g id="a_node1"><a xlink:title=" ">
<polygon fill="#bfbfbf" stroke="#000000" points="514.5,-336.5 514.5,-355.5 638.5,-355.5 638.5,-336.5 514.5,-336.5"/>
<text text-anchor="middle" x="576.5" y="-343.5" font-family="Helvetica,sans-Serif" font-size="10.00" fill="#000000">src/application/main.cpp</text>
</a>
</g>
</g>
<!-- Node2 -->
<g id="node2" class="node">
<title>Node2</title>
<g id="a_node2"><a xlink:title=" ">
<polygon fill="#ffffff" stroke="#bfbfbf" points="0,-280.5 0,-299.5 73,-299.5 73,-280.5 0,-280.5"/>
<text text-anchor="middle" x="36.5" y="-287.5" font-family="Helvetica,sans-Serif" font-size="10.00" fill="#000000">QApplication</text>
</a>
</g>
</g>
<!-- Node1&#45;&gt;Node2 -->
<g id="edge1" class="edge">
<title>Node1&#45;&gt;Node2</title>
<path fill="none" stroke="#191970" d="M514.4534,-342.7507C422.3172,-337.3705 243.769,-324.8154 83.3184,-300.1323"/>
<polygon fill="#191970" stroke="#191970" points="83.6846,-296.6472 73.265,-298.5659 82.6069,-303.5638 83.6846,-296.6472"/>
</g>
<!-- Node3 -->
<g id="node3" class="node">
<title>Node3</title>
<g id="a_node3"><a xlink:title=" ">
<polygon fill="#ffffff" stroke="#bfbfbf" points="91,-280.5 91,-299.5 156,-299.5 156,-280.5 91,-280.5"/>
<text text-anchor="middle" x="123.5" y="-287.5" font-family="Helvetica,sans-Serif" font-size="10.00" fill="#000000">QMenuBar</text>
</a>
</g>
</g>
<!-- Node1&#45;&gt;Node3 -->
<g id="edge2" class="edge">
<title>Node1&#45;&gt;Node3</title>
<path fill="none" stroke="#191970" d="M514.1939,-341.413C435.4319,-335.0834 295.5513,-322.0769 166.499,-299.989"/>
<polygon fill="#191970" stroke="#191970" points="166.887,-296.5041 156.436,-298.2441 165.691,-303.4012 166.887,-296.5041"/>
</g>
<!-- Node4 -->
<g id="node4" class="node">
<title>Node4</title>
<g id="a_node4"><a xlink:title=" ">
<polygon fill="#ffffff" stroke="#bfbfbf" points="174.5,-280.5 174.5,-299.5 228.5,-299.5 228.5,-280.5 174.5,-280.5"/>
<text text-anchor="middle" x="201.5" y="-287.5" font-family="Helvetica,sans-Serif" font-size="10.00" fill="#000000">QDebug</text>
</a>
</g>
</g>
<!-- Node1&#45;&gt;Node4 -->
<g id="edge3" class="edge">
<title>Node1&#45;&gt;Node4</title>
<path fill="none" stroke="#191970" d="M514.2844,-338.5881C435.5447,-329.0384 303.2889,-312.3937 238.3555,-299.9011"/>
<polygon fill="#191970" stroke="#191970" points="239.0232,-296.4654 228.5306,-297.9335 237.6486,-303.3292 239.0232,-296.4654"/>
</g>
<!-- Node5 -->
<g id="node5" class="node">
<title>Node5</title>
<g id="a_node5"><a xlink:title=" ">
<polygon fill="#ffffff" stroke="#bfbfbf" points="246.5,-280.5 246.5,-299.5 298.5,-299.5 298.5,-280.5 246.5,-280.5"/>
<text text-anchor="middle" x="272.5" y="-287.5" font-family="Helvetica,sans-Serif" font-size="10.00" fill="#000000">QAction</text>
</a>
</g>
</g>
<!-- Node1&#45;&gt;Node5 -->
<g id="edge4" class="edge">
<title>Node1&#45;&gt;Node5</title>
<path fill="none" stroke="#191970" d="M514.422,-337.3475C462.0087,-329.5964 384.8169,-317.1397 308.9958,-300.1593"/>
<polygon fill="#191970" stroke="#191970" points="309.3204,-296.6441 298.7939,-297.8448 307.7717,-303.4706 309.3204,-296.6441"/>
</g>
<!-- Node6 -->
<g id="node6" class="node">
<title>Node6</title>
<g id="a_node6"><a xlink:title=" ">
<polygon fill="#ffffff" stroke="#bfbfbf" points="316.5,-280.5 316.5,-299.5 380.5,-299.5 380.5,-280.5 316.5,-280.5"/>
<text text-anchor="middle" x="348.5" y="-287.5" font-family="Helvetica,sans-Serif" font-size="10.00" fill="#000000">QTextItem</text>
</a>
</g>
</g>
<!-- Node1&#45;&gt;Node6 -->
<g id="edge5" class="edge">
<title>Node1&#45;&gt;Node6</title>
<path fill="none" stroke="#191970" d="M537.5645,-336.4369C496.675,-326.3939 432.592,-310.6542 390.5644,-300.3316"/>
<polygon fill="#191970" stroke="#191970" points="391.1899,-296.8813 380.6437,-297.8949 389.5202,-303.6792 391.1899,-296.8813"/>
</g>
<!-- Node7 -->
<g id="node7" class="node">
<title>Node7</title>
<g id="a_node7"><a xlink:title=" ">
<polygon fill="#ffffff" stroke="#bfbfbf" points="399,-280.5 399,-299.5 450,-299.5 450,-280.5 399,-280.5"/>
<text text-anchor="middle" x="424.5" y="-287.5" font-family="Helvetica,sans-Serif" font-size="10.00" fill="#000000">QTimer</text>
</a>
</g>
</g>
<!-- Node1&#45;&gt;Node7 -->
<g id="edge6" class="edge">
<title>Node1&#45;&gt;Node7</title>
<path fill="none" stroke="#191970" d="M550.3703,-336.3733C525.3476,-327.1544 487.4117,-313.178 459.7282,-302.9788"/>
<polygon fill="#191970" stroke="#191970" points="460.6292,-299.5808 450.0358,-299.4079 458.2092,-306.1492 460.6292,-299.5808"/>
</g>
<!-- Node8 -->
<g id="node8" class="node">
<title>Node8</title>
<g id="a_node8"><a xlink:title=" ">
<polygon fill="#ffffff" stroke="#bfbfbf" points="468.5,-280.5 468.5,-299.5 548.5,-299.5 548.5,-280.5 468.5,-280.5"/>
<text text-anchor="middle" x="508.5" y="-287.5" font-family="Helvetica,sans-Serif" font-size="10.00" fill="#000000">QDockWidget</text>
</a>
</g>
</g>
<!-- Node1&#45;&gt;Node8 -->
<g id="edge7" class="edge">
<title>Node1&#45;&gt;Node8</title>
<path fill="none" stroke="#191970" d="M564.6553,-336.2455C554.612,-327.9746 540.0005,-315.9416 528.1996,-306.2232"/>
<polygon fill="#191970" stroke="#191970" points="530.1533,-303.298 520.209,-299.6427 525.7033,-308.7015 530.1533,-303.298"/>
</g>
<!-- Node9 -->
<g id="node9" class="node">
<title>Node9</title>
<g id="a_node9"><a xlink:title=" ">
<polygon fill="#ffffff" stroke="#bfbfbf" points="979.5,-224.5 979.5,-243.5 1035.5,-243.5 1035.5,-224.5 979.5,-224.5"/>
<text text-anchor="middle" x="1007.5" y="-231.5" font-family="Helvetica,sans-Serif" font-size="10.00" fill="#000000">QWidget</text>
</a>
</g>
</g>
<!-- Node1&#45;&gt;Node9 -->
<g id="edge8" class="edge">
<title>Node1&#45;&gt;Node9</title>
<path fill="none" stroke="#191970" d="M638.5028,-338.1005C690.7929,-330.6699 767.3143,-317.9859 832.5,-300 884.2075,-285.733 942.0518,-262.3965 976.5821,-247.6361"/>
<polygon fill="#191970" stroke="#191970" points="978.3013,-250.7064 986.098,-243.5327 975.5295,-244.2786 978.3013,-250.7064"/>
</g>
<!-- Node10 -->
<g id="node10" class="node">
<title>Node10</title>
<g id="a_node10"><a xlink:title=" ">
<polygon fill="#ffffff" stroke="#bfbfbf" points="1053.5,-224.5 1053.5,-243.5 1127.5,-243.5 1127.5,-224.5 1053.5,-224.5"/>
<text text-anchor="middle" x="1090.5" y="-231.5" font-family="Helvetica,sans-Serif" font-size="10.00" fill="#000000">QGridLayout</text>
</a>
</g>
</g>
<!-- Node1&#45;&gt;Node10 -->
<g id="edge9" class="edge">
<title>Node1&#45;&gt;Node10</title>
<path fill="none" stroke="#191970" d="M638.7684,-339.1619C699.7974,-331.8255 795.2288,-318.6567 876.5,-300 940.1729,-285.3831 1012.4548,-261.5205 1054.6132,-246.8465"/>
<polygon fill="#191970" stroke="#191970" points="1055.872,-250.1141 1064.1518,-243.5039 1053.557,-243.508 1055.872,-250.1141"/>
</g>
<!-- Node11 -->
<g id="node11" class="node">
<title>Node11</title>
<g id="a_node11"><a xlink:href="mainwindow_8h.html" target="_top" xlink:title=" ">
<polygon fill="#ffffff" stroke="#000000" points="532.5,-56.5 532.5,-75.5 612.5,-75.5 612.5,-56.5 532.5,-56.5"/>
<text text-anchor="middle" x="572.5" y="-63.5" font-family="Helvetica,sans-Serif" font-size="10.00" fill="#000000">mainwindow.h</text>
</a>
</g>
</g>
<!-- Node1&#45;&gt;Node11 -->
<g id="edge10" class="edge">
<title>Node1&#45;&gt;Node11</title>
<path fill="none" stroke="#191970" d="M576.5,-336.4116C576.5,-317.0538 576.5,-271.9167 576.5,-234 576.5,-234 576.5,-234 576.5,-178 576.5,-145.691 574.817,-108.1727 573.6344,-85.7971"/>
<polygon fill="#191970" stroke="#191970" points="577.1167,-85.3771 573.0731,-75.5843 570.1272,-85.7613 577.1167,-85.3771"/>
</g>
<!-- Node14 -->
<g id="node14" class="node">
<title>Node14</title>
<g id="a_node14"><a xlink:href="main_8h.html" target="_top" xlink:title=" ">
<polygon fill="#ffffff" stroke="#000000" points="656.5,-112.5 656.5,-131.5 702.5,-131.5 702.5,-112.5 656.5,-112.5"/>
<text text-anchor="middle" x="679.5" y="-119.5" font-family="Helvetica,sans-Serif" font-size="10.00" fill="#000000">main.h</text>
</a>
</g>
</g>
<!-- Node1&#45;&gt;Node14 -->
<g id="edge13" class="edge">
<title>Node1&#45;&gt;Node14</title>
<path fill="none" stroke="#191970" d="M591.3739,-336.4024C603.0894,-328.1045 618.9821,-315.0874 628.5,-300 660.8603,-248.7035 673.2231,-176.334 677.4877,-141.8158"/>
<polygon fill="#191970" stroke="#191970" points="680.9918,-141.9764 678.6406,-131.6458 674.0363,-141.1878 680.9918,-141.9764"/>
</g>
<!-- Node15 -->
<g id="node15" class="node">
<title>Node15</title>
<g id="a_node15"><a xlink:href="graphicsmanager_8h.html" target="_top" xlink:title=" ">
<polygon fill="#ffffff" stroke="#000000" points="631,-56.5 631,-75.5 734,-75.5 734,-56.5 631,-56.5"/>
<text text-anchor="middle" x="682.5" y="-63.5" font-family="Helvetica,sans-Serif" font-size="10.00" fill="#000000">graphicsmanager.h</text>
</a>
</g>
</g>
<!-- Node1&#45;&gt;Node15 -->
<g id="edge40" class="edge">
<title>Node1&#45;&gt;Node15</title>
<path fill="none" stroke="#191970" d="M582.107,-336.4834C592.6774,-317.6141 614.5,-273.8343 614.5,-234 614.5,-234 614.5,-234 614.5,-178 614.5,-139.6435 644.0007,-103.2254 664.1402,-82.8326"/>
<polygon fill="#191970" stroke="#191970" points="666.853,-85.0762 671.5746,-75.5917 661.9689,-80.0616 666.853,-85.0762"/>
</g>
<!-- Node21 -->
<g id="node21" class="node">
<title>Node21</title>
<g id="a_node21"><a xlink:href="view_8h.html" target="_top" xlink:title=" ">
<polygon fill="#ffffff" stroke="#000000" points="740,-280.5 740,-299.5 785,-299.5 785,-280.5 740,-280.5"/>
<text text-anchor="middle" x="762.5" y="-287.5" font-family="Helvetica,sans-Serif" font-size="10.00" fill="#000000">view.h</text>
</a>
</g>
</g>
<!-- Node1&#45;&gt;Node21 -->
<g id="edge23" class="edge">
<title>Node1&#45;&gt;Node21</title>
<path fill="none" stroke="#191970" d="M608.4745,-336.3733C642.4554,-326.1425 695.8976,-310.0523 730.0563,-299.768"/>
<polygon fill="#191970" stroke="#191970" points="731.429,-303.01 739.9953,-296.7756 729.4109,-296.3072 731.429,-303.01"/>
</g>
<!-- Node23 -->
<g id="node23" class="node">
<title>Node23</title>
<g id="a_node23"><a xlink:href="scene_8h.html" target="_top" xlink:title=" ">
<polygon fill="#ffffff" stroke="#000000" points="909.5,-224.5 909.5,-243.5 961.5,-243.5 961.5,-224.5 909.5,-224.5"/>
<text text-anchor="middle" x="935.5" y="-231.5" font-family="Helvetica,sans-Serif" font-size="10.00" fill="#000000">scene.h</text>
</a>
</g>
</g>
<!-- Node1&#45;&gt;Node23 -->
<g id="edge39" class="edge">
<title>Node1&#45;&gt;Node23</title>
<path fill="none" stroke="#191970" d="M638.7554,-336.6535C682.681,-329.1324 742.5384,-317.0006 793.5,-300 835.2541,-286.071 880.9935,-263.3606 908.9752,-248.5483"/>
<polygon fill="#191970" stroke="#191970" points="910.9319,-251.4709 918.0965,-243.6658 907.6283,-245.2994 910.9319,-251.4709"/>
</g>
<!-- Node33 -->
<g id="node33" class="node">
<title>Node33</title>
<g id="a_node33"><a xlink:href="sidepanel_8h.html" target="_top" xlink:title=" ">
<polygon fill="#ffffff" stroke="#000000" points="1056.5,-280.5 1056.5,-299.5 1124.5,-299.5 1124.5,-280.5 1056.5,-280.5"/>
<text text-anchor="middle" x="1090.5" y="-287.5" font-family="Helvetica,sans-Serif" font-size="10.00" fill="#000000">sidepanel.h</text>
</a>
</g>
</g>
<!-- Node1&#45;&gt;Node33 -->
<g id="edge41" class="edge">
<title>Node1&#45;&gt;Node33</title>
<path fill="none" stroke="#191970" d="M638.7419,-341.606C727.6798,-334.9184 896.1221,-320.7346 1038.5,-300 1041.1382,-299.6158 1043.846,-299.1903 1046.5737,-298.7378"/>
<polygon fill="#191970" stroke="#191970" points="1047.2045,-302.1807 1056.45,-297.0067 1045.9959,-295.2858 1047.2045,-302.1807"/>
</g>
<!-- Node12 -->
<g id="node12" class="node">
<title>Node12</title>
<g id="a_node12"><a xlink:title=" ">
<polygon fill="#ffffff" stroke="#bfbfbf" points="446,-.5 446,-19.5 529,-19.5 529,-.5 446,-.5"/>
<text text-anchor="middle" x="487.5" y="-7.5" font-family="Helvetica,sans-Serif" font-size="10.00" fill="#000000">QMainWindow</text>
</a>
</g>
</g>
<!-- Node11&#45;&gt;Node12 -->
<g id="edge11" class="edge">
<title>Node11&#45;&gt;Node12</title>
<path fill="none" stroke="#191970" d="M557.6941,-56.2455C544.7744,-47.7337 525.8069,-35.2375 510.8448,-25.3801"/>
<polygon fill="#191970" stroke="#191970" points="512.4124,-22.2216 502.1362,-19.6427 508.5613,-28.067 512.4124,-22.2216"/>
</g>
<!-- Node13 -->
<g id="node13" class="node">
<title>Node13</title>
<g id="a_node13"><a xlink:title=" ">
<polygon fill="#ffffff" stroke="#bfbfbf" points="547,-.5 547,-19.5 614,-19.5 614,-.5 547,-.5"/>
<text text-anchor="middle" x="580.5" y="-7.5" font-family="Helvetica,sans-Serif" font-size="10.00" fill="#000000">QKeyEvent</text>
</a>
</g>
</g>
<!-- Node11&#45;&gt;Node13 -->
<g id="edge12" class="edge">
<title>Node11&#45;&gt;Node13</title>
<path fill="none" stroke="#191970" d="M573.8935,-56.2455C574.9374,-48.9382 576.4008,-38.6944 577.6851,-29.7046"/>
<polygon fill="#191970" stroke="#191970" points="581.173,-30.0372 579.1225,-19.6427 574.2434,-29.0472 581.173,-30.0372"/>
</g>
<!-- Node14&#45;&gt;Node11 -->
<g id="edge18" class="edge">
<title>Node14&#45;&gt;Node11</title>
<path fill="none" stroke="#191970" d="M660.862,-112.2455C644.0614,-103.4527 619.1366,-90.4079 600.0382,-80.4125"/>
<polygon fill="#191970" stroke="#191970" points="601.4073,-77.1787 590.9244,-75.6427 598.1614,-83.3807 601.4073,-77.1787"/>
</g>
<!-- Node14&#45;&gt;Node15 -->
<g id="edge14" class="edge">
<title>Node14&#45;&gt;Node15</title>
<path fill="none" stroke="#191970" d="M680.0226,-112.2455C680.414,-104.9382 680.9628,-94.6944 681.4444,-85.7046"/>
<polygon fill="#191970" stroke="#191970" points="684.9434,-85.8156 681.9834,-75.6427 677.9534,-85.4411 684.9434,-85.8156"/>
</g>
<!-- Node19 -->
<g id="node19" class="node">
<title>Node19</title>
<g id="a_node19"><a xlink:href="datamodel_8h.html" target="_top" xlink:title=" ">
<polygon fill="#ffffff" stroke="#000000" points="791,-56.5 791,-75.5 864,-75.5 864,-56.5 791,-56.5"/>
<text text-anchor="middle" x="827.5" y="-63.5" font-family="Helvetica,sans-Serif" font-size="10.00" fill="#000000">datamodel.h</text>
</a>
</g>
</g>
<!-- Node14&#45;&gt;Node19 -->
<g id="edge19" class="edge">
<title>Node14&#45;&gt;Node19</title>
<path fill="none" stroke="#191970" d="M702.625,-113.25C726.8422,-104.0867 765.1489,-89.5923 792.9535,-79.0717"/>
<polygon fill="#191970" stroke="#191970" points="794.1958,-82.3438 802.31,-75.5314 791.7185,-75.7968 794.1958,-82.3438"/>
</g>
<!-- Node20 -->
<g id="node20" class="node">
<title>Node20</title>
<g id="a_node20"><a xlink:title=" ">
<polygon fill="#ffffff" stroke="#bfbfbf" points="863,-.5 863,-19.5 912,-19.5 912,-.5 863,-.5"/>
<text text-anchor="middle" x="887.5" y="-7.5" font-family="Helvetica,sans-Serif" font-size="10.00" fill="#000000">QLabel</text>
</a>
</g>
</g>
<!-- Node14&#45;&gt;Node20 -->
<g id="edge22" class="edge">
<title>Node14&#45;&gt;Node20</title>
<path fill="none" stroke="#191970" d="M692.9205,-112.2906C712.021,-98.7132 748.4068,-73.7311 781.5,-56 804.8557,-43.4862 832.328,-31.6401 853.4518,-23.1038"/>
<polygon fill="#191970" stroke="#191970" points="854.9771,-26.2636 862.9687,-19.3077 852.3836,-19.7618 854.9771,-26.2636"/>
</g>
<!-- Node16 -->
<g id="node16" class="node">
<title>Node16</title>
<g id="a_node16"><a xlink:title=" ">
<polygon fill="#ffffff" stroke="#bfbfbf" points="646.5,-.5 646.5,-19.5 704.5,-19.5 704.5,-.5 646.5,-.5"/>
<text text-anchor="middle" x="675.5" y="-7.5" font-family="Helvetica,sans-Serif" font-size="10.00" fill="#000000">QPixmap</text>
</a>
</g>
</g>
<!-- Node15&#45;&gt;Node16 -->
<g id="edge15" class="edge">
<title>Node15&#45;&gt;Node16</title>
<path fill="none" stroke="#191970" d="M681.2807,-56.2455C680.3673,-48.9382 679.0868,-38.6944 677.9631,-29.7046"/>
<polygon fill="#191970" stroke="#191970" points="681.4187,-29.1313 676.7053,-19.6427 674.4728,-29.9996 681.4187,-29.1313"/>
</g>
<!-- Node17 -->
<g id="node17" class="node">
<title>Node17</title>
<g id="a_node17"><a xlink:title=" ">
<polygon fill="#ffffff" stroke="#bfbfbf" points="723,-.5 723,-19.5 776,-19.5 776,-.5 723,-.5"/>
<text text-anchor="middle" x="749.5" y="-7.5" font-family="Helvetica,sans-Serif" font-size="10.00" fill="#000000">QImage</text>
</a>
</g>
</g>
<!-- Node15&#45;&gt;Node17 -->
<g id="edge16" class="edge">
<title>Node15&#45;&gt;Node17</title>
<path fill="none" stroke="#191970" d="M694.1705,-56.2455C704.0661,-47.9746 718.4627,-35.9416 730.0901,-26.2232"/>
<polygon fill="#191970" stroke="#191970" points="732.535,-28.7413 737.9632,-19.6427 728.0458,-23.3703 732.535,-28.7413"/>
</g>
<!-- Node18 -->
<g id="node18" class="node">
<title>Node18</title>
<g id="a_node18"><a xlink:title=" ">
<polygon fill="#ffffff" stroke="#bfbfbf" points="804,-.5 804,-19.5 845,-19.5 845,-.5 804,-.5"/>
<text text-anchor="middle" x="824.5" y="-7.5" font-family="Helvetica,sans-Serif" font-size="10.00" fill="#000000">string</text>
</a>
</g>
</g>
<!-- Node15&#45;&gt;Node18 -->
<g id="edge17" class="edge">
<title>Node15&#45;&gt;Node18</title>
<path fill="none" stroke="#191970" d="M706.9107,-56.3733C731.0986,-46.8343 768.2025,-32.2018 794.2475,-21.9306"/>
<polygon fill="#191970" stroke="#191970" points="795.6193,-25.152 803.638,-18.2273 793.0512,-18.6401 795.6193,-25.152"/>
</g>
<!-- Node19&#45;&gt;Node18 -->
<g id="edge20" class="edge">
<title>Node19&#45;&gt;Node18</title>
<path fill="none" stroke="#191970" d="M826.9774,-56.2455C826.586,-48.9382 826.0372,-38.6944 825.5556,-29.7046"/>
<polygon fill="#191970" stroke="#191970" points="829.0466,-29.4411 825.0166,-19.6427 822.0566,-29.8156 829.0466,-29.4411"/>
</g>
<!-- Node19&#45;&gt;Node20 -->
<g id="edge21" class="edge">
<title>Node19&#45;&gt;Node20</title>
<path fill="none" stroke="#191970" d="M837.9512,-56.2455C846.7269,-48.0549 859.4554,-36.1749 869.814,-26.5069"/>
<polygon fill="#191970" stroke="#191970" points="872.2461,-29.0246 877.1686,-19.6427 867.4699,-23.9072 872.2461,-29.0246"/>
</g>
<!-- Node21&#45;&gt;Node14 -->
<g id="edge25" class="edge">
<title>Node21&#45;&gt;Node14</title>
<path fill="none" stroke="#191970" d="M746.6908,-280.2268C734.7099,-272.0057 718.7757,-259.1784 709.5,-244 689.7738,-211.721 683.0064,-167.1822 680.6931,-141.8113"/>
<polygon fill="#191970" stroke="#191970" points="684.1658,-141.3199 679.9131,-131.6161 677.1862,-141.854 684.1658,-141.3199"/>
</g>
<!-- Node21&#45;&gt;Node19 -->
<g id="edge38" class="edge">
<title>Node21&#45;&gt;Node19</title>
<path fill="none" stroke="#191970" d="M779.7806,-280.3011C799.476,-267.9257 827.3756,-245.5348 814.5,-224 797.1528,-194.9864 764.8472,-217.0136 747.5,-188 742.9385,-180.3708 744.5982,-176.4019 747.5,-168 759.5751,-133.0379 789.12,-100.9256 808.7258,-82.4146"/>
<polygon fill="#191970" stroke="#191970" points="811.1885,-84.9051 816.1919,-75.566 806.4567,-79.7466 811.1885,-84.9051"/>
</g>
<!-- Node22 -->
<g id="node22" class="node">
<title>Node22</title>
<g id="a_node22"><a xlink:title=" ">
<polygon fill="#ffffff" stroke="#bfbfbf" points="719,-224.5 719,-243.5 806,-243.5 806,-224.5 719,-224.5"/>
<text text-anchor="middle" x="762.5" y="-231.5" font-family="Helvetica,sans-Serif" font-size="10.00" fill="#000000">QGraphicsView</text>
</a>
</g>
</g>
<!-- Node21&#45;&gt;Node22 -->
<g id="edge24" class="edge">
<title>Node21&#45;&gt;Node22</title>
<path fill="none" stroke="#191970" d="M762.5,-280.2455C762.5,-272.9382 762.5,-262.6944 762.5,-253.7046"/>
<polygon fill="#191970" stroke="#191970" points="766.0001,-253.6426 762.5,-243.6427 759.0001,-253.6427 766.0001,-253.6426"/>
</g>
<!-- Node21&#45;&gt;Node23 -->
<g id="edge26" class="edge">
<title>Node21&#45;&gt;Node23</title>
<path fill="none" stroke="#191970" d="M785.1167,-282.679C814.2929,-273.2347 865.3776,-256.6986 899.8146,-245.5513"/>
<polygon fill="#191970" stroke="#191970" points="901.0529,-248.8294 909.489,-242.4197 898.8971,-242.1696 901.0529,-248.8294"/>
</g>
<!-- Node24 -->
<g id="node24" class="node">
<title>Node24</title>
<g id="a_node24"><a xlink:title=" ">
<polygon fill="#ffffff" stroke="#bfbfbf" points="1010.5,-168.5 1010.5,-187.5 1104.5,-187.5 1104.5,-168.5 1010.5,-168.5"/>
<text text-anchor="middle" x="1057.5" y="-175.5" font-family="Helvetica,sans-Serif" font-size="10.00" fill="#000000">QGraphicsScene</text>
</a>
</g>
</g>
<!-- Node23&#45;&gt;Node24 -->
<g id="edge27" class="edge">
<title>Node23&#45;&gt;Node24</title>
<path fill="none" stroke="#191970" d="M956.4725,-224.3733C976.0567,-215.3838 1005.4961,-201.8706 1027.551,-191.7471"/>
<polygon fill="#191970" stroke="#191970" points="1029.1729,-194.8538 1036.8011,-187.5011 1026.2527,-188.4919 1029.1729,-194.8538"/>
</g>
<!-- Node25 -->
<g id="node25" class="node">
<title>Node25</title>
<g id="a_node25"><a xlink:title=" ">
<polygon fill="#ffffff" stroke="#bfbfbf" points="1122.5,-168.5 1122.5,-187.5 1226.5,-187.5 1226.5,-168.5 1122.5,-168.5"/>
<text text-anchor="middle" x="1174.5" y="-175.5" font-family="Helvetica,sans-Serif" font-size="10.00" fill="#000000">QGraphicsTextItem</text>
</a>
</g>
</g>
<!-- Node23&#45;&gt;Node25 -->
<g id="edge28" class="edge">
<title>Node23&#45;&gt;Node25</title>
<path fill="none" stroke="#191970" d="M961.83,-226.3047C964.749,-225.503 967.6834,-224.7193 970.5,-224 1020.3835,-211.2605 1077.5989,-198.5199 1118.7168,-189.6884"/>
<polygon fill="#191970" stroke="#191970" points="1119.4996,-193.1002 1128.5462,-187.5858 1118.0353,-186.2551 1119.4996,-193.1002"/>
</g>
<!-- Node26 -->
<g id="node26" class="node">
<title>Node26</title>
<g id="a_node26"><a xlink:title=" ">
<polygon fill="#ffffff" stroke="#bfbfbf" points="1245,-168.5 1245,-187.5 1328,-187.5 1328,-168.5 1245,-168.5"/>
<text text-anchor="middle" x="1286.5" y="-175.5" font-family="Helvetica,sans-Serif" font-size="10.00" fill="#000000">QGraphicsItem</text>
</a>
</g>
</g>
<!-- Node23&#45;&gt;Node26 -->
<g id="edge29" class="edge">
<title>Node23&#45;&gt;Node26</title>
<path fill="none" stroke="#191970" d="M961.7723,-226.0568C964.7021,-225.3015 967.6549,-224.5965 970.5,-224 1083.6495,-200.2777 1116.4602,-207.0392 1234.6165,-188.0494"/>
<polygon fill="#191970" stroke="#191970" points="1235.4838,-191.4541 1244.7876,-186.3855 1234.3537,-184.5459 1235.4838,-191.4541"/>
</g>
<!-- Node27 -->
<g id="node27" class="node">
<title>Node27</title>
<g id="a_node27"><a xlink:title=" ">
<polygon fill="#ffffff" stroke="#bfbfbf" points="756.5,-168.5 756.5,-187.5 860.5,-187.5 860.5,-168.5 756.5,-168.5"/>
<text text-anchor="middle" x="808.5" y="-175.5" font-family="Helvetica,sans-Serif" font-size="10.00" fill="#000000">QGraphicsRectItem</text>
</a>
</g>
</g>
<!-- Node23&#45;&gt;Node27 -->
<g id="edge30" class="edge">
<title>Node23&#45;&gt;Node27</title>
<path fill="none" stroke="#191970" d="M913.6679,-224.3733C893.1897,-215.3435 862.3601,-201.7494 839.3681,-191.6111"/>
<polygon fill="#191970" stroke="#191970" points="840.6093,-188.3333 830.0472,-187.5011 837.785,-194.7383 840.6093,-188.3333"/>
</g>
<!-- Node28 -->
<g id="node28" class="node">
<title>Node28</title>
<g id="a_node28"><a xlink:title=" ">
<polygon fill="#ffffff" stroke="#bfbfbf" points="879,-168.5 879,-187.5 992,-187.5 992,-168.5 879,-168.5"/>
<text text-anchor="middle" x="935.5" y="-175.5" font-family="Helvetica,sans-Serif" font-size="10.00" fill="#000000">QGraphicsEllipseItem</text>
</a>
</g>
</g>
<!-- Node23&#45;&gt;Node28 -->
<g id="edge31" class="edge">
<title>Node23&#45;&gt;Node28</title>
<path fill="none" stroke="#191970" d="M935.5,-224.2455C935.5,-216.9382 935.5,-206.6944 935.5,-197.7046"/>
<polygon fill="#191970" stroke="#191970" points="939.0001,-197.6426 935.5,-187.6427 932.0001,-197.6427 939.0001,-197.6426"/>
</g>
<!-- Node29 -->
<g id="node29" class="node">
<title>Node29</title>
<g id="a_node29"><a xlink:href="maptile_8h.html" target="_top" xlink:title=" ">
<polygon fill="#ffffff" stroke="#000000" points="1346.5,-168.5 1346.5,-187.5 1402.5,-187.5 1402.5,-168.5 1346.5,-168.5"/>
<text text-anchor="middle" x="1374.5" y="-175.5" font-family="Helvetica,sans-Serif" font-size="10.00" fill="#000000">maptile.h</text>
</a>
</g>
</g>
<!-- Node23&#45;&gt;Node29 -->
<g id="edge32" class="edge">
<title>Node23&#45;&gt;Node29</title>
<path fill="none" stroke="#191970" d="M961.7509,-225.9496C964.6847,-225.2144 967.6443,-224.5434 970.5,-224 1128.2031,-193.991 1174.3942,-216.5162 1336.0226,-187.9915"/>
<polygon fill="#191970" stroke="#191970" points="1337.1092,-191.3521 1346.3286,-186.1318 1335.866,-184.4633 1337.1092,-191.3521"/>
</g>
<!-- Node29&#45;&gt;Node14 -->
<g id="edge34" class="edge">
<title>Node29&#45;&gt;Node14</title>
<path fill="none" stroke="#191970" d="M1346.3432,-169.7852C1343.3748,-169.1009 1340.3871,-168.4863 1337.5,-168 1215.1276,-147.3869 828.3322,-128.7056 712.5553,-123.4598"/>
<polygon fill="#191970" stroke="#191970" points="712.6682,-119.9614 702.5209,-123.0081 712.3534,-126.9543 712.6682,-119.9614"/>
</g>
<!-- Node30 -->
<g id="node30" class="node">
<title>Node30</title>
<g id="a_node30"><a xlink:title=" ">
<polygon fill="#ffffff" stroke="#bfbfbf" points="1256,-112.5 1256,-131.5 1373,-131.5 1373,-112.5 1256,-112.5"/>
<text text-anchor="middle" x="1314.5" y="-119.5" font-family="Helvetica,sans-Serif" font-size="10.00" fill="#000000">QGraphicsPixmapItem</text>
</a>
</g>
</g>
<!-- Node29&#45;&gt;Node30 -->
<g id="edge33" class="edge">
<title>Node29&#45;&gt;Node30</title>
<path fill="none" stroke="#191970" d="M1364.0488,-168.2455C1355.2731,-160.0549 1342.5446,-148.1749 1332.186,-138.5069"/>
<polygon fill="#191970" stroke="#191970" points="1334.5301,-135.9072 1324.8314,-131.6427 1329.7539,-141.0246 1334.5301,-135.9072"/>
</g>
<!-- Node31 -->
<g id="node31" class="node">
<title>Node31</title>
<g id="a_node31"><a xlink:href="city_8h.html" target="_top" xlink:title=" ">
<polygon fill="#ffffff" stroke="#000000" points="1430,-112.5 1430,-131.5 1469,-131.5 1469,-112.5 1430,-112.5"/>
<text text-anchor="middle" x="1449.5" y="-119.5" font-family="Helvetica,sans-Serif" font-size="10.00" fill="#000000">city.h</text>
</a>
</g>
</g>
<!-- Node29&#45;&gt;Node31 -->
<g id="edge35" class="edge">
<title>Node29&#45;&gt;Node31</title>
<path fill="none" stroke="#191970" d="M1387.564,-168.2455C1398.8562,-159.814 1415.3845,-147.4729 1428.5271,-137.6598"/>
<polygon fill="#191970" stroke="#191970" points="1430.6669,-140.4301 1436.5857,-131.6427 1426.4789,-134.8211 1430.6669,-140.4301"/>
</g>
<!-- Node31&#45;&gt;Node18 -->
<g id="edge36" class="edge">
<title>Node31&#45;&gt;Node18</title>
<path fill="none" stroke="#191970" d="M1429.832,-115.7675C1425.1631,-114.4128 1420.179,-113.0674 1415.5,-112 1172.4129,-56.5427 1101.6523,-79.9465 855.0105,-19.779"/>
<polygon fill="#191970" stroke="#191970" points="855.577,-16.3141 845.0303,-17.3224 853.9039,-23.1112 855.577,-16.3141"/>
</g>
<!-- Node32 -->
<g id="node32" class="node">
<title>Node32</title>
<g id="a_node32"><a xlink:title=" ">
<polygon fill="#ffffff" stroke="#bfbfbf" points="1425.5,-56.5 1425.5,-75.5 1469.5,-75.5 1469.5,-56.5 1425.5,-56.5"/>
<text text-anchor="middle" x="1447.5" y="-63.5" font-family="Helvetica,sans-Serif" font-size="10.00" fill="#000000">vector</text>
</a>
</g>
</g>
<!-- Node31&#45;&gt;Node32 -->
<g id="edge37" class="edge">
<title>Node31&#45;&gt;Node32</title>
<path fill="none" stroke="#191970" d="M1449.1516,-112.2455C1448.8907,-104.9382 1448.5248,-94.6944 1448.2037,-85.7046"/>
<polygon fill="#191970" stroke="#191970" points="1451.6992,-85.5113 1447.8444,-75.6427 1444.7036,-85.7613 1451.6992,-85.5113"/>
</g>
<!-- Node33&#45;&gt;Node9 -->
<g id="edge42" class="edge">
<title>Node33&#45;&gt;Node9</title>
<path fill="none" stroke="#191970" d="M1076.0425,-280.2455C1063.4268,-271.7337 1044.9056,-259.2375 1030.2955,-249.3801"/>
<polygon fill="#191970" stroke="#191970" points="1032.0391,-246.3343 1021.7918,-243.6427 1028.1239,-252.1371 1032.0391,-246.3343"/>
</g>
<!-- Node33&#45;&gt;Node10 -->
<g id="edge43" class="edge">
<title>Node33&#45;&gt;Node10</title>
<path fill="none" stroke="#191970" d="M1090.5,-280.2455C1090.5,-272.9382 1090.5,-262.6944 1090.5,-253.7046"/>
<polygon fill="#191970" stroke="#191970" points="1094.0001,-253.6426 1090.5,-243.6427 1087.0001,-253.6427 1094.0001,-253.6426"/>
</g>
<!-- Node33&#45;&gt;Node19 -->
<g id="edge45" class="edge">
<title>Node33&#45;&gt;Node19</title>
<path fill="none" stroke="#191970" d="M1124.6219,-284.3179C1200.0314,-270.9931 1376.9327,-235.2544 1411.5,-188 1429.9651,-162.7577 1397.9694,-122.3091 1382.5,-112 1361.4721,-97.9867 1004.5648,-76.1785 874.4634,-68.6563"/>
<polygon fill="#191970" stroke="#191970" points="874.5883,-65.1578 864.4036,-68.077 874.1859,-72.1462 874.5883,-65.1578"/>
</g>
<!-- Node33&#45;&gt;Node20 -->
<g id="edge44" class="edge">
<title>Node33&#45;&gt;Node20</title>
<path fill="none" stroke="#191970" d="M1124.5006,-287.9534C1222.3189,-281.1442 1497.5,-255.1338 1497.5,-178 1497.5,-178 1497.5,-178 1497.5,-122 1497.5,-91.4754 1502.1565,-75.2905 1478.5,-56 1435.3374,-20.8033 1042.6074,-12.2397 922.3408,-10.4341"/>
<polygon fill="#191970" stroke="#191970" points="922.2625,-6.9327 912.2132,-10.2885 922.1618,-13.932 922.2625,-6.9327"/>
</g>
</g>
</svg>
        <g id="navigator" transform="translate(0 0)" fill="#404254">
                <rect fill="#f2f5e9" fill-opacity="0.5" stroke="#606060" stroke-width=".5" x="0" y="0" width="60" height="60"/>
                <use id="zoomplus" xlink:href="#zoomPlus" x="17" y="9" onmousedown="handleZoom(evt,'in')"/>
                <use id="zoomminus" xlink:href="#zoomMin" x="42" y="9" onmousedown="handleZoom(evt,'out')"/>
                <use id="reset" xlink:href="#resetDef" x="30" y="36" onmousedown="handleReset()"/>
                <g id="arrowUp" xlink:href="#dirArrow" transform="translate(30 24)" onmousedown="handlePan(0,-1)">
                  <use xlink:href="#rim" fill="#404040">
                        <set attributeName="fill" to="#808080" begin="arrowUp.mouseover" end="arrowUp.mouseout"/>
                  </use>
                  <path fill="none" stroke="white" stroke-width="1.5" d="M0,-3.0v7 M-2.5,-0.5L0,-3.0L2.5,-0.5"/>
                </g>
                <g id="arrowRight" xlink:href="#dirArrow" transform="rotate(90) translate(36 -43)" onmousedown="handlePan(1,0)">
                  <use xlink:href="#rim" fill="#404040">
                        <set attributeName="fill" to="#808080" begin="arrowRight.mouseover" end="arrowRight.mouseout"/>
                  </use>
                  <path fill="none" stroke="white" stroke-width="1.5" d="M0,-3.0v7 M-2.5,-0.5L0,-3.0L2.5,-0.5"/>
                </g>
                <g id="arrowDown" xlink:href="#dirArrow" transform="rotate(180) translate(-30 -48)" onmousedown="handlePan(0,1)">
                  <use xlink:href="#rim" fill="#404040">
                        <set attributeName="fill" to="#808080" begin="arrowDown.mouseover" end="arrowDown.mouseout"/>
                  </use>
                  <path fill="none" stroke="white" stroke-width="1.5" d="M0,-3.0v7 M-2.5,-0.5L0,-3.0L2.5,-0.5"/>
                </g>
                <g id="arrowLeft" xlink:href="#dirArrow" transform="rotate(270) translate(-36 17)" onmousedown="handlePan(-1,0)">
                  <use xlink:href="#rim" fill="#404040">
                        <set attributeName="fill" to="#808080" begin="arrowLeft.mouseover" end="arrowLeft.mouseout"/>
                  </use>
                  <path fill="none" stroke="white" stroke-width="1.5" d="M0,-3.0v7 M-2.5,-0.5L0,-3.0L2.5,-0.5"/>
                </g>
        </g>
        <svg viewBox="0 0 15 15" width="100%" height="30px" preserveAspectRatio="xMaxYMin meet">
         <g id="arrow_out" transform="scale(0.3 0.3)">
          <a xlink:href="main_8cpp__incl_org.svg" target="_base">
           <rect id="button" ry="5" rx="5" y="6" x="6" height="38" width="38"
                fill="#f2f5e9" fill-opacity="0.5" stroke="#606060" stroke-width="1.0"/>
           <path id="arrow"
             d="M 11.500037,31.436501 C 11.940474,20.09759 22.043105,11.32322 32.158766,21.979434 L 37.068811,17.246167 C 37.068811,17.246167 37.088388,32 37.088388,32 L 22.160133,31.978069 C 22.160133,31.978069 26.997745,27.140456 26.997745,27.140456 C 18.528582,18.264221 13.291696,25.230495 11.500037,31.436501 z"
             style="fill:#404040;"/>
          </a>
         </g>
        </svg>
</svg>
