<?xml version="1.0" encoding="UTF-8" standalone="no"?>
<!DOCTYPE svg PUBLIC "-//W3C//DTD SVG 1.1//EN"
 "http://www.w3.org/Graphics/SVG/1.1/DTD/svg11.dtd">
<!-- Generated by graphviz version 2.40.1 (20161225.0304)
 -->
<!-- Title: timeTicker Pages: 1 -->
<svg width="382pt" height="28pt"
 viewBox="0.00 0.00 382.00 28.00" xmlns="http://www.w3.org/2000/svg" xmlns:xlink="http://www.w3.org/1999/xlink">
<g id="graph0" class="graph" transform="scale(1 1) rotate(0) translate(4 24)">
<title>timeTicker</title>
<polygon fill="#ffffff" stroke="transparent" points="-4,4 -4,-24 378,-24 378,4 -4,4"/>
<!-- Node1 -->
<g id="node1" class="node">
<title>Node1</title>
<g id="a_node1"><a xlink:title=" ">
<polygon fill="#bfbfbf" stroke="#000000" points="0,-.5 0,-19.5 65,-19.5 65,-.5 0,-.5"/>
<text text-anchor="middle" x="32.5" y="-7.5" font-family="Helvetica,sans-Serif" font-size="10.00" fill="#000000">timeTicker</text>
</a>
</g>
</g>
<!-- Node2 -->
<g id="node2" class="node">
<title>Node2</title>
<g id="a_node2"><a xlink:href="classDataModel.html#a0c605d45cde1e17a0611c004732ac6ee" target="_top" xlink:title="DataModel::timeTick Wird aufgerufen wenn eine Zeiteinheit verstrichen ist. Erhöht den Timecode.">
<polygon fill="#ffffff" stroke="#000000" points="101,-.5 101,-19.5 213,-19.5 213,-.5 101,-.5"/>
<text text-anchor="middle" x="157" y="-7.5" font-family="Helvetica,sans-Serif" font-size="10.00" fill="#000000">DataModel::timeTick</text>
</a>
</g>
</g>
<!-- Node1&#45;&gt;Node2 -->
<g id="edge1" class="edge">
<title>Node1&#45;&gt;Node2</title>
<path fill="none" stroke="#191970" d="M65.2109,-10C73.1674,-10 81.9621,-10 90.8631,-10"/>
<polygon fill="#191970" stroke="#191970" points="90.9189,-13.5001 100.9189,-10 90.9188,-6.5001 90.9189,-13.5001"/>
</g>
<!-- Node3 -->
<g id="node3" class="node">
<title>Node3</title>
<g id="a_node3"><a xlink:href="classDataModel.html#a0f0049332a55bb6de5bd2d0d53f3b93f" target="_top" xlink:title="DataModel::formatTime Formattiert einen Timecode als String.">
<polygon fill="#ffffff" stroke="#000000" points="249,-.5 249,-19.5 374,-19.5 374,-.5 249,-.5"/>
<text text-anchor="middle" x="311.5" y="-7.5" font-family="Helvetica,sans-Serif" font-size="10.00" fill="#000000">DataModel::formatTime</text>
</a>
</g>
</g>
<!-- Node2&#45;&gt;Node3 -->
<g id="edge2" class="edge">
<title>Node2&#45;&gt;Node3</title>
<path fill="none" stroke="#191970" d="M213.2151,-10C221.5249,-10 230.1863,-10 238.7729,-10"/>
<polygon fill="#191970" stroke="#191970" points="238.793,-13.5001 248.7929,-10 238.7929,-6.5001 238.793,-13.5001"/>
</g>
</g>
</svg>
