<?xml version="1.0" encoding="UTF-8" standalone="no"?>
<!DOCTYPE svg PUBLIC "-//W3C//DTD SVG 1.1//EN"
 "http://www.w3.org/Graphics/SVG/1.1/DTD/svg11.dtd">
<!-- Generated by graphviz version 2.40.1 (20161225.0304)
 -->
<!-- Title: main Pages: 1 -->
<svg width="768pt" height="488pt"
 viewBox="0.00 0.00 768.00 488.00" xmlns="http://www.w3.org/2000/svg" xmlns:xlink="http://www.w3.org/1999/xlink">
<g id="graph0" class="graph" transform="scale(1 1) rotate(0) translate(4 484)">
<title>main</title>
<polygon fill="#ffffff" stroke="transparent" points="-4,4 -4,-484 764,-484 764,4 -4,4"/>
<!-- Node1 -->
<g id="node1" class="node">
<title>Node1</title>
<g id="a_node1"><a xlink:title="main Startmethode.">
<polygon fill="#bfbfbf" stroke="#000000" points="0,-172.5 0,-191.5 38,-191.5 38,-172.5 0,-172.5"/>
<text text-anchor="middle" x="19" y="-179.5" font-family="Helvetica,sans-Serif" font-size="10.00" fill="#000000">main</text>
</a>
</g>
</g>
<!-- Node2 -->
<g id="node2" class="node">
<title>Node2</title>
<g id="a_node2"><a xlink:href="classView.html#a105b23bffbbea3af00bc47fc38a5e98c" target="_top" xlink:title="View::enableAnimation Aktiviert animationen bis zum nächsten Event.">
<polygon fill="#ffffff" stroke="#000000" points="85.5,-327.5 85.5,-346.5 205.5,-346.5 205.5,-327.5 85.5,-327.5"/>
<text text-anchor="middle" x="145.5" y="-334.5" font-family="Helvetica,sans-Serif" font-size="10.00" fill="#000000">View::enableAnimation</text>
</a>
</g>
</g>
<!-- Node1&#45;&gt;Node2 -->
<g id="edge1" class="edge">
<title>Node1&#45;&gt;Node2</title>
<path fill="none" stroke="#191970" d="M19.973,-191.5643C23.0206,-216.3754 34.6638,-283.2823 74,-318 75.7604,-319.5537 77.6341,-320.9825 79.5958,-322.2961"/>
<polygon fill="#191970" stroke="#191970" points="78.2421,-325.5481 88.6827,-327.3495 81.6442,-319.4304 78.2421,-325.5481"/>
</g>
<!-- Node3 -->
<g id="node3" class="node">
<title>Node3</title>
<g id="a_node3"><a xlink:href="classView.html#a33de978d43cde59ae344035ebcb60184" target="_top" xlink:title="View::fluidZoom Startet eine Zoom&#45;Animation. Zuvor muss doAnimations=true gesetzt sein....">
<polygon fill="#ffffff" stroke="#000000" points="100.5,-289.5 100.5,-308.5 190.5,-308.5 190.5,-289.5 100.5,-289.5"/>
<text text-anchor="middle" x="145.5" y="-296.5" font-family="Helvetica,sans-Serif" font-size="10.00" fill="#000000">View::fluidZoom</text>
</a>
</g>
</g>
<!-- Node1&#45;&gt;Node3 -->
<g id="edge2" class="edge">
<title>Node1&#45;&gt;Node3</title>
<path fill="none" stroke="#191970" d="M21.6674,-191.765C27.5945,-211.5704 43.7802,-256.5679 74,-280 78.9958,-283.8737 84.7135,-286.9602 90.6909,-289.419"/>
<polygon fill="#191970" stroke="#191970" points="89.6366,-292.7584 100.2313,-292.7891 91.9681,-286.1581 89.6366,-292.7584"/>
</g>
<!-- Node4 -->
<g id="node4" class="node">
<title>Node4</title>
<g id="a_node4"><a xlink:href="classScene.html#a1ef1c0e0972913d4c477ead916cf06b0" target="_top" xlink:title="Scene::generateWorld Diese Methode generiert eine neue Welt.">
<polygon fill="#ffffff" stroke="#000000" points="86,-251.5 86,-270.5 205,-270.5 205,-251.5 86,-251.5"/>
<text text-anchor="middle" x="145.5" y="-258.5" font-family="Helvetica,sans-Serif" font-size="10.00" fill="#000000">Scene::generateWorld</text>
</a>
</g>
</g>
<!-- Node1&#45;&gt;Node4 -->
<g id="edge3" class="edge">
<title>Node1&#45;&gt;Node4</title>
<path fill="none" stroke="#191970" d="M34.5114,-191.687C56.2522,-205.2642 95.9836,-230.0767 121.5416,-246.0378"/>
<polygon fill="#191970" stroke="#191970" points="119.921,-249.1522 130.2569,-251.4806 123.6289,-243.2149 119.921,-249.1522"/>
</g>
<!-- Node14 -->
<g id="node14" class="node">
<title>Node14</title>
<g id="a_node14"><a xlink:href="classSidePanel.html#a26f78ad7518003db89a4ec57d63da2e4" target="_top" xlink:title="SidePanel::hookDataModel Verknüpft ein Datenmodell mit der Anzeige. Dadurch können dann Textfelder et...">
<polygon fill="#ffffff" stroke="#000000" points="74,-112.5 74,-131.5 217,-131.5 217,-112.5 74,-112.5"/>
<text text-anchor="middle" x="145.5" y="-119.5" font-family="Helvetica,sans-Serif" font-size="10.00" fill="#000000">SidePanel::hookDataModel</text>
</a>
</g>
</g>
<!-- Node1&#45;&gt;Node14 -->
<g id="edge14" class="edge">
<title>Node1&#45;&gt;Node14</title>
<path fill="none" stroke="#191970" d="M38.2126,-172.8873C58.8668,-163.0909 91.9584,-147.3952 115.9335,-136.0236"/>
<polygon fill="#191970" stroke="#191970" points="117.7324,-139.0442 125.2677,-131.5964 114.7325,-132.7196 117.7324,-139.0442"/>
</g>
<!-- Node22 -->
<g id="node22" class="node">
<title>Node22</title>
<g id="a_node22"><a xlink:href="classView.html#a3753656c26f1f7472c5ed8edfe1a1c30" target="_top" xlink:title="View::setDataModel Setzt das Datenmodell. An dieses wird dann kontinuierlich die aktuelle Position we...">
<polygon fill="#ffffff" stroke="#000000" points="91,-74.5 91,-93.5 200,-93.5 200,-74.5 91,-74.5"/>
<text text-anchor="middle" x="145.5" y="-81.5" font-family="Helvetica,sans-Serif" font-size="10.00" fill="#000000">View::setDataModel</text>
</a>
</g>
</g>
<!-- Node1&#45;&gt;Node22 -->
<g id="edge22" class="edge">
<title>Node1&#45;&gt;Node22</title>
<path fill="none" stroke="#191970" d="M23.0145,-172.3232C30.4817,-155.5468 48.1325,-121.1247 74,-103 76.8746,-100.9858 79.9503,-99.1852 83.1513,-97.5754"/>
<polygon fill="#191970" stroke="#191970" points="84.6735,-100.73 92.4416,-93.5253 81.8761,-94.3132 84.6735,-100.73"/>
</g>
<!-- Node23 -->
<g id="node23" class="node">
<title>Node23</title>
<g id="a_node23"><a xlink:href="main_8cpp.html#ad01ac0e0d4b73391ba10338f3ed07976" target="_top" xlink:title=" ">
<polygon fill="#ffffff" stroke="#000000" points="113,-9.5 113,-28.5 178,-28.5 178,-9.5 113,-9.5"/>
<text text-anchor="middle" x="145.5" y="-16.5" font-family="Helvetica,sans-Serif" font-size="10.00" fill="#000000">timeTicker</text>
</a>
</g>
</g>
<!-- Node1&#45;&gt;Node23 -->
<g id="edge23" class="edge">
<title>Node1&#45;&gt;Node23</title>
<path fill="none" stroke="#191970" d="M21.5892,-172.1793C27.6613,-150.6618 44.5729,-98.6012 74,-65 85.4871,-51.8834 101.5967,-41.0775 115.6171,-33.2425"/>
<polygon fill="#191970" stroke="#191970" points="117.2816,-36.3215 124.4592,-28.5284 113.9884,-30.1445 117.2816,-36.3215"/>
</g>
<!-- Node5 -->
<g id="node5" class="node">
<title>Node5</title>
<g id="a_node5"><a xlink:href="classMapTile.html#a04adb2286fb76310bca5f3ecef200c0e" target="_top" xlink:title="MapTile::getPixmapItem Liefert das Pixmap Item.">
<polygon fill="#ffffff" stroke="#000000" points="265,-460.5 265,-479.5 392,-479.5 392,-460.5 265,-460.5"/>
<text text-anchor="middle" x="328.5" y="-467.5" font-family="Helvetica,sans-Serif" font-size="10.00" fill="#000000">MapTile::getPixmapItem</text>
</a>
</g>
</g>
<!-- Node4&#45;&gt;Node5 -->
<g id="edge4" class="edge">
<title>Node4&#45;&gt;Node5</title>
<path fill="none" stroke="#191970" d="M204.4147,-270.6117C209.0769,-273.0969 213.3749,-276.1804 217,-280 270.4652,-336.3336 199.1643,-395.0204 253,-451 254.256,-452.3061 255.5876,-453.5274 256.9833,-454.6694"/>
<polygon fill="#191970" stroke="#191970" points="255.3299,-457.7725 265.5992,-460.3785 259.1964,-451.9372 255.3299,-457.7725"/>
</g>
<!-- Node6 -->
<g id="node6" class="node">
<title>Node6</title>
<g id="a_node6"><a xlink:href="classDataModel.html#a8cf95a63afc8d4cd4384762077ba1ba1" target="_top" xlink:title="DataModel::getSystemMillis Gibt die Zahl der Millsekunden seit 1970 zurück.">
<polygon fill="#ffffff" stroke="#000000" points="257,-422.5 257,-441.5 400,-441.5 400,-422.5 257,-422.5"/>
<text text-anchor="middle" x="328.5" y="-429.5" font-family="Helvetica,sans-Serif" font-size="10.00" fill="#000000">DataModel::getSystemMillis</text>
</a>
</g>
</g>
<!-- Node4&#45;&gt;Node6 -->
<g id="edge5" class="edge">
<title>Node4&#45;&gt;Node6</title>
<path fill="none" stroke="#191970" d="M203.8429,-270.6555C208.6835,-273.126 213.1767,-276.1943 217,-280 260.4017,-323.202 209.3142,-370.0852 253,-413 254.4463,-414.4208 255.9824,-415.7403 257.5927,-416.9656"/>
<polygon fill="#191970" stroke="#191970" points="255.8559,-420.0074 266.1911,-422.3386 259.5654,-414.0711 255.8559,-420.0074"/>
</g>
<!-- Node7 -->
<g id="node7" class="node">
<title>Node7</title>
<g id="a_node7"><a xlink:href="classCity.html#aa386d95c7f928b239bc4973ce816106d" target="_top" xlink:title="City::setCenter Setzt den Mittelpunkt der Stadt.">
<polygon fill="#ffffff" stroke="#000000" points="287,-384.5 287,-403.5 370,-403.5 370,-384.5 287,-384.5"/>
<text text-anchor="middle" x="328.5" y="-391.5" font-family="Helvetica,sans-Serif" font-size="10.00" fill="#000000">City::setCenter</text>
</a>
</g>
</g>
<!-- Node4&#45;&gt;Node7 -->
<g id="edge6" class="edge">
<title>Node4&#45;&gt;Node7</title>
<path fill="none" stroke="#191970" d="M202.4039,-270.5535C207.7174,-273.0298 212.7091,-276.1278 217,-280 250.521,-310.25 219.2802,-344.9718 253,-375 259.7472,-381.0086 268.1184,-385.1747 276.8053,-388.051"/>
<polygon fill="#191970" stroke="#191970" points="276.1067,-391.489 286.6777,-390.7797 277.9716,-384.742 276.1067,-391.489"/>
</g>
<!-- Node8 -->
<g id="node8" class="node">
<title>Node8</title>
<g id="a_node8"><a xlink:href="classMapTile.html#a95eefbf7247ae6adef4aaee0a35eaa4f" target="_top" xlink:title="MapTile::setCity.">
<polygon fill="#ffffff" stroke="#000000" points="283,-346.5 283,-365.5 374,-365.5 374,-346.5 283,-346.5"/>
<text text-anchor="middle" x="328.5" y="-353.5" font-family="Helvetica,sans-Serif" font-size="10.00" fill="#000000">MapTile::setCity</text>
</a>
</g>
</g>
<!-- Node4&#45;&gt;Node8 -->
<g id="edge7" class="edge">
<title>Node4&#45;&gt;Node8</title>
<path fill="none" stroke="#191970" d="M199.4621,-270.5775C205.7077,-273.0347 211.721,-276.1218 217,-280 241.1471,-297.7397 228.7364,-319.42 253,-337 259.0199,-341.3617 265.9381,-344.7262 273.0907,-347.3207"/>
<polygon fill="#191970" stroke="#191970" points="272.338,-350.7526 282.9271,-350.4027 274.431,-344.0729 272.338,-350.7526"/>
</g>
<!-- Node9 -->
<g id="node9" class="node">
<title>Node9</title>
<g id="a_node9"><a xlink:href="classCity.html#a198b26b45e0b52f27a18b3631db5070c" target="_top" xlink:title="City::setName Setzt den Namen der Stadt.">
<polygon fill="#ffffff" stroke="#000000" points="288.5,-308.5 288.5,-327.5 368.5,-327.5 368.5,-308.5 288.5,-308.5"/>
<text text-anchor="middle" x="328.5" y="-315.5" font-family="Helvetica,sans-Serif" font-size="10.00" fill="#000000">City::setName</text>
</a>
</g>
</g>
<!-- Node4&#45;&gt;Node9 -->
<g id="edge8" class="edge">
<title>Node4&#45;&gt;Node9</title>
<path fill="none" stroke="#191970" d="M187.9756,-270.5956C197.6504,-273.2453 207.789,-276.399 217,-280 233.8498,-286.5874 236.1071,-292.524 253,-299 261.0733,-302.095 269.8261,-304.8296 278.4147,-307.1906"/>
<polygon fill="#191970" stroke="#191970" points="277.8111,-310.6503 288.3709,-309.7899 279.5794,-303.8773 277.8111,-310.6503"/>
</g>
<!-- Node10 -->
<g id="node10" class="node">
<title>Node10</title>
<g id="a_node10"><a xlink:href="classMapTile.html#a954bfbd36f8055157616c38392a0ceef" target="_top" xlink:title="MapTile::setPosition Setzt die Position der Kachel. (In Pixeln)">
<polygon fill="#ffffff" stroke="#000000" points="273.5,-270.5 273.5,-289.5 383.5,-289.5 383.5,-270.5 273.5,-270.5"/>
<text text-anchor="middle" x="328.5" y="-277.5" font-family="Helvetica,sans-Serif" font-size="10.00" fill="#000000">MapTile::setPosition</text>
</a>
</g>
</g>
<!-- Node4&#45;&gt;Node10 -->
<g id="edge9" class="edge">
<title>Node4&#45;&gt;Node10</title>
<path fill="none" stroke="#191970" d="M205.1678,-267.195C223.7345,-269.1227 244.2988,-271.2578 263.2275,-273.2231"/>
<polygon fill="#191970" stroke="#191970" points="262.9456,-276.7125 273.2536,-274.264 263.6686,-269.75 262.9456,-276.7125"/>
</g>
<!-- Node11 -->
<g id="node11" class="node">
<title>Node11</title>
<g id="a_node11"><a xlink:href="classMapTile.html#a57b8310cfe045dc6a8e0c3c25fe9fc52" target="_top" xlink:title="MapTile::setRotation Hilfsfunktion zur Rotation im Quadrat.">
<polygon fill="#ffffff" stroke="#000000" points="464.5,-194.5 464.5,-213.5 574.5,-213.5 574.5,-194.5 464.5,-194.5"/>
<text text-anchor="middle" x="519.5" y="-201.5" font-family="Helvetica,sans-Serif" font-size="10.00" fill="#000000">MapTile::setRotation</text>
</a>
</g>
</g>
<!-- Node4&#45;&gt;Node11 -->
<g id="edge10" class="edge">
<title>Node4&#45;&gt;Node11</title>
<path fill="none" stroke="#191970" d="M205.0935,-252.5344C257.5154,-245.0172 335.8729,-233.6101 404,-223 420.2958,-220.4621 437.8672,-217.6238 454.2677,-214.9307"/>
<polygon fill="#191970" stroke="#191970" points="455.0083,-218.3559 464.3062,-213.2765 453.8702,-211.449 455.0083,-218.3559"/>
</g>
<!-- Node12 -->
<g id="node12" class="node">
<title>Node12</title>
<g id="a_node12"><a xlink:href="classCity.html#ac4ff08b2faa48f34b8ffbff37f4b0621" target="_top" xlink:title="City::setSize Gibt die Größe der Stadt zurück (Anzahl der Gebäude)">
<polygon fill="#ffffff" stroke="#000000" points="291.5,-194.5 291.5,-213.5 365.5,-213.5 365.5,-194.5 291.5,-194.5"/>
<text text-anchor="middle" x="328.5" y="-201.5" font-family="Helvetica,sans-Serif" font-size="10.00" fill="#000000">City::setSize</text>
</a>
</g>
</g>
<!-- Node4&#45;&gt;Node12 -->
<g id="edge11" class="edge">
<title>Node4&#45;&gt;Node12</title>
<path fill="none" stroke="#191970" d="M176.1301,-251.4595C206.8759,-241.8829 254.4028,-227.0795 288.194,-216.5543"/>
<polygon fill="#191970" stroke="#191970" points="289.2633,-219.8872 297.77,-213.5716 287.1815,-213.2039 289.2633,-219.8872"/>
</g>
<!-- Node13 -->
<g id="node13" class="node">
<title>Node13</title>
<g id="a_node13"><a xlink:href="classMapTile.html#a6f6c6e03095e0f1ed503dd30f499793c" target="_top" xlink:title="MapTile::setType Setzt den Typ der Kachel.">
<polygon fill="#ffffff" stroke="#000000" points="279.5,-156.5 279.5,-175.5 377.5,-175.5 377.5,-156.5 279.5,-156.5"/>
<text text-anchor="middle" x="328.5" y="-163.5" font-family="Helvetica,sans-Serif" font-size="10.00" fill="#000000">MapTile::setType</text>
</a>
</g>
</g>
<!-- Node4&#45;&gt;Node13 -->
<g id="edge12" class="edge">
<title>Node4&#45;&gt;Node13</title>
<path fill="none" stroke="#191970" d="M156.2555,-251.3041C174.7062,-235.1774 214.1669,-202.855 253,-185 258.271,-182.5765 263.8969,-180.4315 269.6104,-178.5398"/>
<polygon fill="#191970" stroke="#191970" points="270.7208,-181.8603 279.2616,-175.5909 268.6753,-175.1658 270.7208,-181.8603"/>
</g>
<!-- Node13&#45;&gt;Node11 -->
<g id="edge13" class="edge">
<title>Node13&#45;&gt;Node11</title>
<path fill="none" stroke="#191970" d="M376.6974,-175.589C402.4696,-180.7165 434.3906,-187.0672 461.5124,-192.4632"/>
<polygon fill="#191970" stroke="#191970" points="461.1585,-195.9613 471.6492,-194.4799 462.5244,-189.0959 461.1585,-195.9613"/>
</g>
<!-- Node15 -->
<g id="node15" class="node">
<title>Node15</title>
<g id="a_node15"><a xlink:href="classDataModel.html#aa43618b4473a997594d2f971f3e50874" target="_top" xlink:title="DataModel::setGuiBalanceLabel Setzt das Label in welchem der Kontostand dargestellt wird.">
<polygon fill="#ffffff" stroke="#000000" points="258.5,-107 258.5,-137 398.5,-137 398.5,-107 258.5,-107"/>
<text text-anchor="start" x="266.5" y="-125" font-family="Helvetica,sans-Serif" font-size="10.00" fill="#000000">DataModel::setGuiBalance</text>
<text text-anchor="middle" x="328.5" y="-114" font-family="Helvetica,sans-Serif" font-size="10.00" fill="#000000">Label</text>
</a>
</g>
</g>
<!-- Node14&#45;&gt;Node15 -->
<g id="edge15" class="edge">
<title>Node14&#45;&gt;Node15</title>
<path fill="none" stroke="#191970" d="M217.0388,-122C227.1888,-122 237.6832,-122 247.9889,-122"/>
<polygon fill="#191970" stroke="#191970" points="248.2121,-125.5001 258.212,-122 248.212,-118.5001 248.2121,-125.5001"/>
</g>
<!-- Node17 -->
<g id="node17" class="node">
<title>Node17</title>
<g id="a_node17"><a xlink:href="classDataModel.html#aacb6a19e48624b83281db172ef01ef4f" target="_top" xlink:title="DataModel::setGuiTimeLabel Setzt das Label in welchem die Koordinate dargestellt wird.">
<polygon fill="#ffffff" stroke="#000000" points="259.5,-58 259.5,-88 397.5,-88 397.5,-58 259.5,-58"/>
<text text-anchor="start" x="267.5" y="-76" font-family="Helvetica,sans-Serif" font-size="10.00" fill="#000000">DataModel::setGuiPosition</text>
<text text-anchor="middle" x="328.5" y="-65" font-family="Helvetica,sans-Serif" font-size="10.00" fill="#000000">Label</text>
</a>
</g>
</g>
<!-- Node14&#45;&gt;Node17 -->
<g id="edge17" class="edge">
<title>Node14&#45;&gt;Node17</title>
<path fill="none" stroke="#191970" d="M181.5129,-112.4534C192.8691,-109.4368 205.4605,-106.0856 217,-103 231.8533,-99.0283 247.815,-94.7436 262.8877,-90.6899"/>
<polygon fill="#191970" stroke="#191970" points="263.8964,-94.043 272.6436,-88.065 262.0776,-87.2834 263.8964,-94.043"/>
</g>
<!-- Node19 -->
<g id="node19" class="node">
<title>Node19</title>
<g id="a_node19"><a xlink:href="classDataModel.html#ab74444c84fdf3bd06ba46c80463dfe5b" target="_top" xlink:title="DataModel::setGuiTimeLabel Setzt das Label in welchem die Zeit dargestellt wird.">
<polygon fill="#ffffff" stroke="#000000" points="253,-19.5 253,-38.5 404,-38.5 404,-19.5 253,-19.5"/>
<text text-anchor="middle" x="328.5" y="-26.5" font-family="Helvetica,sans-Serif" font-size="10.00" fill="#000000">DataModel::setGuiTimeLabel</text>
</a>
</g>
</g>
<!-- Node14&#45;&gt;Node19 -->
<g id="edge19" class="edge">
<title>Node14&#45;&gt;Node19</title>
<path fill="none" stroke="#191970" d="M199.0022,-112.4392C205.3944,-109.9797 211.5691,-106.8875 217,-103 240.4547,-86.2108 229.5388,-65.7801 253,-49 256.4121,-46.5596 260.1022,-44.4169 263.9532,-42.5356"/>
<polygon fill="#191970" stroke="#191970" points="265.3498,-45.7451 273.1759,-38.6034 262.6043,-39.3059 265.3498,-45.7451"/>
</g>
<!-- Node16 -->
<g id="node16" class="node">
<title>Node16</title>
<g id="a_node16"><a xlink:href="classDataModel.html#abc9c6c796348870e45fda933739585d5" target="_top" xlink:title="DataModel::updateBalance Aktualisiert den Kontostand. Auch in Anzeigen etc.">
<polygon fill="#ffffff" stroke="#000000" points="449,-112.5 449,-131.5 590,-131.5 590,-112.5 449,-112.5"/>
<text text-anchor="middle" x="519.5" y="-119.5" font-family="Helvetica,sans-Serif" font-size="10.00" fill="#000000">DataModel::updateBalance</text>
</a>
</g>
</g>
<!-- Node15&#45;&gt;Node16 -->
<g id="edge16" class="edge">
<title>Node15&#45;&gt;Node16</title>
<path fill="none" stroke="#191970" d="M398.5368,-122C411.6023,-122 425.3539,-122 438.7119,-122"/>
<polygon fill="#191970" stroke="#191970" points="438.8324,-125.5001 448.8323,-122 438.8323,-118.5001 438.8324,-125.5001"/>
</g>
<!-- Node18 -->
<g id="node18" class="node">
<title>Node18</title>
<g id="a_node18"><a xlink:href="classDataModel.html#a2dcc97fd7387151077bcb3794b1614af" target="_top" xlink:title="DataModel::updateCoordinates Aktualisiert die Koordinaten des fokussierten Quadrantens.">
<polygon fill="#ffffff" stroke="#000000" points="440,-63.5 440,-82.5 599,-82.5 599,-63.5 440,-63.5"/>
<text text-anchor="middle" x="519.5" y="-70.5" font-family="Helvetica,sans-Serif" font-size="10.00" fill="#000000">DataModel::updateCoordinates</text>
</a>
</g>
</g>
<!-- Node17&#45;&gt;Node18 -->
<g id="edge18" class="edge">
<title>Node17&#45;&gt;Node18</title>
<path fill="none" stroke="#191970" d="M397.7254,-73C408.0811,-73 418.8838,-73 429.5923,-73"/>
<polygon fill="#191970" stroke="#191970" points="429.8128,-76.5001 439.8128,-73 429.8128,-69.5001 429.8128,-76.5001"/>
</g>
<!-- Node20 -->
<g id="node20" class="node">
<title>Node20</title>
<g id="a_node20"><a xlink:href="classDataModel.html#a0c605d45cde1e17a0611c004732ac6ee" target="_top" xlink:title="DataModel::timeTick Wird aufgerufen wenn eine Zeiteinheit verstrichen ist. Erhöht den Timecode.">
<polygon fill="#ffffff" stroke="#000000" points="463.5,-.5 463.5,-19.5 575.5,-19.5 575.5,-.5 463.5,-.5"/>
<text text-anchor="middle" x="519.5" y="-7.5" font-family="Helvetica,sans-Serif" font-size="10.00" fill="#000000">DataModel::timeTick</text>
</a>
</g>
</g>
<!-- Node19&#45;&gt;Node20 -->
<g id="edge20" class="edge">
<title>Node19&#45;&gt;Node20</title>
<path fill="none" stroke="#191970" d="M404.2626,-21.4634C420.4103,-19.8571 437.3452,-18.1725 453.1099,-16.6042"/>
<polygon fill="#191970" stroke="#191970" points="453.6762,-20.0653 463.2806,-15.5925 452.9832,-13.0997 453.6762,-20.0653"/>
</g>
<!-- Node21 -->
<g id="node21" class="node">
<title>Node21</title>
<g id="a_node21"><a xlink:href="classDataModel.html#a0f0049332a55bb6de5bd2d0d53f3b93f" target="_top" xlink:title="DataModel::formatTime Formattiert einen Timecode als String.">
<polygon fill="#ffffff" stroke="#000000" points="635,-.5 635,-19.5 760,-19.5 760,-.5 635,-.5"/>
<text text-anchor="middle" x="697.5" y="-7.5" font-family="Helvetica,sans-Serif" font-size="10.00" fill="#000000">DataModel::formatTime</text>
</a>
</g>
</g>
<!-- Node20&#45;&gt;Node21 -->
<g id="edge21" class="edge">
<title>Node20&#45;&gt;Node21</title>
<path fill="none" stroke="#191970" d="M575.8203,-10C591.3401,-10 608.3994,-10 624.7074,-10"/>
<polygon fill="#191970" stroke="#191970" points="624.7439,-13.5001 634.7439,-10 624.7438,-6.5001 624.7439,-13.5001"/>
</g>
<!-- Node23&#45;&gt;Node20 -->
<g id="edge24" class="edge">
<title>Node23&#45;&gt;Node20</title>
<path fill="none" stroke="#191970" d="M178.3895,-15.5301C199.6475,-13.4646 227.9257,-11.0478 253,-10 321.1821,-7.1508 399.2622,-7.5848 453.2019,-8.4645"/>
<polygon fill="#191970" stroke="#191970" points="453.2621,-11.9659 463.3211,-8.6393 453.3831,-4.967 453.2621,-11.9659"/>
</g>
</g>
</svg>
