<?xml version="1.0" encoding="UTF-8" standalone="no"?>
<!DOCTYPE svg PUBLIC "-//W3C//DTD SVG 1.1//EN"
 "http://www.w3.org/Graphics/SVG/1.1/DTD/svg11.dtd">
<!-- Generated by graphviz version 2.40.1 (20161225.0304)
 -->
<!-- Title: main Pages: 1 -->
<svg width="589pt" height="382pt"
 viewBox="0.00 0.00 589.00 382.00" xmlns="http://www.w3.org/2000/svg" xmlns:xlink="http://www.w3.org/1999/xlink">
<g id="graph0" class="graph" transform="scale(1 1) rotate(0) translate(4 378)">
<title>main</title>
<polygon fill="#ffffff" stroke="transparent" points="-4,4 -4,-378 585,-378 585,4 -4,4"/>
<!-- Node1 -->
<g id="node1" class="node">
<title>Node1</title>
<g id="a_node1"><a xlink:title="main Startmethode.">
<polygon fill="#bfbfbf" stroke="#000000" points="0,-221.5 0,-240.5 38,-240.5 38,-221.5 0,-221.5"/>
<text text-anchor="middle" x="19" y="-228.5" font-family="Helvetica,sans-Serif" font-size="10.00" fill="#000000">main</text>
</a>
</g>
</g>
<!-- Node2 -->
<g id="node2" class="node">
<title>Node2</title>
<g id="a_node2"><a xlink:href="classView.html#a105b23bffbbea3af00bc47fc38a5e98c" target="_top" xlink:title="View::enableAnimation Aktiviert animationen bis zum nächsten Event.">
<polygon fill="#ffffff" stroke="#000000" points="85.5,-278.5 85.5,-297.5 205.5,-297.5 205.5,-278.5 85.5,-278.5"/>
<text text-anchor="middle" x="145.5" y="-285.5" font-family="Helvetica,sans-Serif" font-size="10.00" fill="#000000">View::enableAnimation</text>
</a>
</g>
</g>
<!-- Node1&#45;&gt;Node2 -->
<g id="edge1" class="edge">
<title>Node1&#45;&gt;Node2</title>
<path fill="none" stroke="#191970" d="M30.5067,-240.7253C41.1635,-249.2833 57.77,-261.514 74,-269 79.2302,-271.4124 84.822,-273.5626 90.4882,-275.4685"/>
<polygon fill="#191970" stroke="#191970" points="89.4551,-278.8125 100.0437,-278.4485 91.5392,-272.13 89.4551,-278.8125"/>
</g>
<!-- Node3 -->
<g id="node3" class="node">
<title>Node3</title>
<g id="a_node3"><a xlink:href="classView.html#a33de978d43cde59ae344035ebcb60184" target="_top" xlink:title="View::fluidZoom Startet eine Zoom&#45;Animation. Zuvor muss doAnimations=true gesetzt sein....">
<polygon fill="#ffffff" stroke="#000000" points="100.5,-240.5 100.5,-259.5 190.5,-259.5 190.5,-240.5 100.5,-240.5"/>
<text text-anchor="middle" x="145.5" y="-247.5" font-family="Helvetica,sans-Serif" font-size="10.00" fill="#000000">View::fluidZoom</text>
</a>
</g>
</g>
<!-- Node1&#45;&gt;Node3 -->
<g id="edge2" class="edge">
<title>Node1&#45;&gt;Node3</title>
<path fill="none" stroke="#191970" d="M38.2126,-233.8857C52.1565,-235.98 71.769,-238.9258 90.4181,-241.7268"/>
<polygon fill="#191970" stroke="#191970" points="89.9323,-245.193 100.3413,-243.2173 90.9721,-238.2707 89.9323,-245.193"/>
</g>
<!-- Node4 -->
<g id="node4" class="node">
<title>Node4</title>
<g id="a_node4"><a xlink:href="classScene.html#a1ef1c0e0972913d4c477ead916cf06b0" target="_top" xlink:title="Scene::generateWorld Diese Methode generiert eine neue Welt.">
<polygon fill="#ffffff" stroke="#000000" points="86,-202.5 86,-221.5 205,-221.5 205,-202.5 86,-202.5"/>
<text text-anchor="middle" x="145.5" y="-209.5" font-family="Helvetica,sans-Serif" font-size="10.00" fill="#000000">Scene::generateWorld</text>
</a>
</g>
</g>
<!-- Node1&#45;&gt;Node4 -->
<g id="edge3" class="edge">
<title>Node1&#45;&gt;Node4</title>
<path fill="none" stroke="#191970" d="M38.2126,-228.1143C48.5019,-226.5689 61.8778,-224.5599 75.6756,-222.4875"/>
<polygon fill="#191970" stroke="#191970" points="76.3898,-225.9195 85.759,-220.973 75.35,-218.9972 76.3898,-225.9195"/>
</g>
<!-- Node13 -->
<g id="node13" class="node">
<title>Node13</title>
<g id="a_node13"><a xlink:href="classSidePanel.html#a26f78ad7518003db89a4ec57d63da2e4" target="_top" xlink:title="SidePanel::hookDataModel Verknüpft ein Datenmodell mit der Anzeige. Dadurch können dann Textfelder et...">
<polygon fill="#ffffff" stroke="#000000" points="74,-44.5 74,-63.5 217,-63.5 217,-44.5 74,-44.5"/>
<text text-anchor="middle" x="145.5" y="-51.5" font-family="Helvetica,sans-Serif" font-size="10.00" fill="#000000">SidePanel::hookDataModel</text>
</a>
</g>
</g>
<!-- Node1&#45;&gt;Node13 -->
<g id="edge13" class="edge">
<title>Node1&#45;&gt;Node13</title>
<path fill="none" stroke="#191970" d="M25.8012,-221.4837C46.0498,-193.1517 106.1756,-109.0231 132.6925,-71.9204"/>
<polygon fill="#191970" stroke="#191970" points="135.6981,-73.7342 138.6652,-63.5633 130.0031,-69.664 135.6981,-73.7342"/>
</g>
<!-- Node5 -->
<g id="node5" class="node">
<title>Node5</title>
<g id="a_node5"><a xlink:href="classMapTile.html#a04adb2286fb76310bca5f3ecef200c0e" target="_top" xlink:title="MapTile::getPixmapItem Liefert das Pixmap Item.">
<polygon fill="#ffffff" stroke="#000000" points="265,-354.5 265,-373.5 392,-373.5 392,-354.5 265,-354.5"/>
<text text-anchor="middle" x="328.5" y="-361.5" font-family="Helvetica,sans-Serif" font-size="10.00" fill="#000000">MapTile::getPixmapItem</text>
</a>
</g>
</g>
<!-- Node4&#45;&gt;Node5 -->
<g id="edge4" class="edge">
<title>Node4&#45;&gt;Node5</title>
<path fill="none" stroke="#191970" d="M203.3303,-221.6506C208.3359,-224.117 213.0056,-227.1858 217,-231 255.4275,-267.6939 214.3313,-308.5605 253,-345 254.5124,-346.4252 256.1155,-347.7478 257.7929,-348.9749"/>
<polygon fill="#191970" stroke="#191970" points="256.3504,-352.1916 266.7235,-354.348 259.9592,-346.1936 256.3504,-352.1916"/>
</g>
<!-- Node6 -->
<g id="node6" class="node">
<title>Node6</title>
<g id="a_node6"><a xlink:href="classCity.html#aa386d95c7f928b239bc4973ce816106d" target="_top" xlink:title="City::setCenter Setzt den Mittelpunkt der Stadt.">
<polygon fill="#ffffff" stroke="#000000" points="287,-316.5 287,-335.5 370,-335.5 370,-316.5 287,-316.5"/>
<text text-anchor="middle" x="328.5" y="-323.5" font-family="Helvetica,sans-Serif" font-size="10.00" fill="#000000">City::setCenter</text>
</a>
</g>
</g>
<!-- Node4&#45;&gt;Node6 -->
<g id="edge5" class="edge">
<title>Node4&#45;&gt;Node6</title>
<path fill="none" stroke="#191970" d="M201.3768,-221.5925C207.0136,-224.0544 212.3599,-227.1385 217,-231 245.7286,-254.9083 224.1143,-283.2818 253,-307 259.9066,-312.6711 268.2818,-316.6802 276.9063,-319.5075"/>
<polygon fill="#191970" stroke="#191970" points="276.1127,-322.9195 286.6846,-322.2231 277.9859,-316.1748 276.1127,-322.9195"/>
</g>
<!-- Node7 -->
<g id="node7" class="node">
<title>Node7</title>
<g id="a_node7"><a xlink:href="classMapTile.html#a95eefbf7247ae6adef4aaee0a35eaa4f" target="_top" xlink:title="MapTile::setCity.">
<polygon fill="#ffffff" stroke="#000000" points="283,-278.5 283,-297.5 374,-297.5 374,-278.5 283,-278.5"/>
<text text-anchor="middle" x="328.5" y="-285.5" font-family="Helvetica,sans-Serif" font-size="10.00" fill="#000000">MapTile::setCity</text>
</a>
</g>
</g>
<!-- Node4&#45;&gt;Node7 -->
<g id="edge6" class="edge">
<title>Node4&#45;&gt;Node7</title>
<path fill="none" stroke="#191970" d="M195.7832,-221.5614C203.1753,-224.0338 210.4851,-227.1294 217,-231 237.0009,-242.8827 232.9211,-257.2495 253,-269 259.2557,-272.6609 266.2034,-275.6218 273.2787,-278.0153"/>
<polygon fill="#191970" stroke="#191970" points="272.3681,-281.3964 282.9531,-280.9399 274.3937,-274.6958 272.3681,-281.3964"/>
</g>
<!-- Node8 -->
<g id="node8" class="node">
<title>Node8</title>
<g id="a_node8"><a xlink:href="classCity.html#a198b26b45e0b52f27a18b3631db5070c" target="_top" xlink:title="City::setName Setzt den Namen der Stadt.">
<polygon fill="#ffffff" stroke="#000000" points="288.5,-240.5 288.5,-259.5 368.5,-259.5 368.5,-240.5 288.5,-240.5"/>
<text text-anchor="middle" x="328.5" y="-247.5" font-family="Helvetica,sans-Serif" font-size="10.00" fill="#000000">City::setName</text>
</a>
</g>
</g>
<!-- Node4&#45;&gt;Node8 -->
<g id="edge7" class="edge">
<title>Node4&#45;&gt;Node8</title>
<path fill="none" stroke="#191970" d="M191.6786,-221.589C218.0614,-227.0674 251.1694,-233.9423 278.2087,-239.557"/>
<polygon fill="#191970" stroke="#191970" points="277.7451,-243.0353 288.2479,-241.6416 279.1684,-236.1815 277.7451,-243.0353"/>
</g>
<!-- Node9 -->
<g id="node9" class="node">
<title>Node9</title>
<g id="a_node9"><a xlink:href="classMapTile.html#a954bfbd36f8055157616c38392a0ceef" target="_top" xlink:title="MapTile::setPosition Setzt die Position der Kachel. (In Pixeln)">
<polygon fill="#ffffff" stroke="#000000" points="273.5,-202.5 273.5,-221.5 383.5,-221.5 383.5,-202.5 273.5,-202.5"/>
<text text-anchor="middle" x="328.5" y="-209.5" font-family="Helvetica,sans-Serif" font-size="10.00" fill="#000000">MapTile::setPosition</text>
</a>
</g>
</g>
<!-- Node4&#45;&gt;Node9 -->
<g id="edge8" class="edge">
<title>Node4&#45;&gt;Node9</title>
<path fill="none" stroke="#191970" d="M205.1678,-212C223.7345,-212 244.2988,-212 263.2275,-212"/>
<polygon fill="#191970" stroke="#191970" points="263.2537,-215.5001 273.2536,-212 263.2536,-208.5001 263.2537,-215.5001"/>
</g>
<!-- Node10 -->
<g id="node10" class="node">
<title>Node10</title>
<g id="a_node10"><a xlink:href="classMapTile.html#a57b8310cfe045dc6a8e0c3c25fe9fc52" target="_top" xlink:title="MapTile::setRotation Hilfsfunktion zur Rotation im Quadrat.">
<polygon fill="#ffffff" stroke="#000000" points="455.5,-126.5 455.5,-145.5 565.5,-145.5 565.5,-126.5 455.5,-126.5"/>
<text text-anchor="middle" x="510.5" y="-133.5" font-family="Helvetica,sans-Serif" font-size="10.00" fill="#000000">MapTile::setRotation</text>
</a>
</g>
</g>
<!-- Node4&#45;&gt;Node10 -->
<g id="edge9" class="edge">
<title>Node4&#45;&gt;Node10</title>
<path fill="none" stroke="#191970" d="M191.3579,-202.4515C258.3785,-188.4965 382.926,-162.5634 455.0169,-147.5526"/>
<polygon fill="#191970" stroke="#191970" points="455.7531,-150.9745 464.8297,-145.5094 454.3262,-144.1215 455.7531,-150.9745"/>
</g>
<!-- Node11 -->
<g id="node11" class="node">
<title>Node11</title>
<g id="a_node11"><a xlink:href="classCity.html#ac4ff08b2faa48f34b8ffbff37f4b0621" target="_top" xlink:title="City::setSize Gibt die Größe der Stadt zurück (Anzahl der Gebäude)">
<polygon fill="#ffffff" stroke="#000000" points="291.5,-126.5 291.5,-145.5 365.5,-145.5 365.5,-126.5 291.5,-126.5"/>
<text text-anchor="middle" x="328.5" y="-133.5" font-family="Helvetica,sans-Serif" font-size="10.00" fill="#000000">City::setSize</text>
</a>
</g>
</g>
<!-- Node4&#45;&gt;Node11 -->
<g id="edge10" class="edge">
<title>Node4&#45;&gt;Node11</title>
<path fill="none" stroke="#191970" d="M163.4049,-202.3608C184.4589,-191.2577 220.644,-172.8919 253,-160 263.3694,-155.8684 274.752,-151.9444 285.4632,-148.5116"/>
<polygon fill="#191970" stroke="#191970" points="286.5661,-151.8339 295.063,-145.5052 284.474,-145.1538 286.5661,-151.8339"/>
</g>
<!-- Node12 -->
<g id="node12" class="node">
<title>Node12</title>
<g id="a_node12"><a xlink:href="classMapTile.html#a6f6c6e03095e0f1ed503dd30f499793c" target="_top" xlink:title="MapTile::setType Setzt den Typ der Kachel.">
<polygon fill="#ffffff" stroke="#000000" points="279.5,-88.5 279.5,-107.5 377.5,-107.5 377.5,-88.5 279.5,-88.5"/>
<text text-anchor="middle" x="328.5" y="-95.5" font-family="Helvetica,sans-Serif" font-size="10.00" fill="#000000">MapTile::setType</text>
</a>
</g>
</g>
<!-- Node4&#45;&gt;Node12 -->
<g id="edge11" class="edge">
<title>Node4&#45;&gt;Node12</title>
<path fill="none" stroke="#191970" d="M153.584,-202.2467C170.1521,-182.914 210.0365,-139.6488 253,-117 258.2086,-114.2542 263.8308,-111.8927 269.5749,-109.8643"/>
<polygon fill="#191970" stroke="#191970" points="270.8449,-113.1329 279.3056,-106.7558 268.7148,-106.4648 270.8449,-113.1329"/>
</g>
<!-- Node12&#45;&gt;Node10 -->
<g id="edge12" class="edge">
<title>Node12&#45;&gt;Node10</title>
<path fill="none" stroke="#191970" d="M374.4263,-107.589C398.8759,-112.6939 429.1331,-119.0113 454.903,-124.3918"/>
<polygon fill="#191970" stroke="#191970" points="454.3997,-127.8622 464.904,-126.4799 455.8304,-121.0099 454.3997,-127.8622"/>
</g>
<!-- Node14 -->
<g id="node14" class="node">
<title>Node14</title>
<g id="a_node14"><a xlink:href="classDataModel.html#aa43618b4473a997594d2f971f3e50874" target="_top" xlink:title="DataModel::setGuiBalanceLabel Setzt das Label in welchem der Kontostand dargestellt wird.">
<polygon fill="#ffffff" stroke="#000000" points="258.5,-39 258.5,-69 398.5,-69 398.5,-39 258.5,-39"/>
<text text-anchor="start" x="266.5" y="-57" font-family="Helvetica,sans-Serif" font-size="10.00" fill="#000000">DataModel::setGuiBalance</text>
<text text-anchor="middle" x="328.5" y="-46" font-family="Helvetica,sans-Serif" font-size="10.00" fill="#000000">Label</text>
</a>
</g>
</g>
<!-- Node13&#45;&gt;Node14 -->
<g id="edge14" class="edge">
<title>Node13&#45;&gt;Node14</title>
<path fill="none" stroke="#191970" d="M217.0388,-54C227.1888,-54 237.6832,-54 247.9889,-54"/>
<polygon fill="#191970" stroke="#191970" points="248.2121,-57.5001 258.212,-54 248.212,-50.5001 248.2121,-57.5001"/>
</g>
<!-- Node16 -->
<g id="node16" class="node">
<title>Node16</title>
<g id="a_node16"><a xlink:href="classDataModel.html#ab74444c84fdf3bd06ba46c80463dfe5b" target="_top" xlink:title="DataModel::setGuiTimeLabel Setzt das Label in welchem die Zeit dargestellt wird.">
<polygon fill="#ffffff" stroke="#000000" points="253,-.5 253,-19.5 404,-19.5 404,-.5 253,-.5"/>
<text text-anchor="middle" x="328.5" y="-7.5" font-family="Helvetica,sans-Serif" font-size="10.00" fill="#000000">DataModel::setGuiTimeLabel</text>
</a>
</g>
</g>
<!-- Node13&#45;&gt;Node16 -->
<g id="edge16" class="edge">
<title>Node13&#45;&gt;Node16</title>
<path fill="none" stroke="#191970" d="M185.2083,-44.4527C212.6661,-37.8508 249.402,-29.0181 278.8029,-21.949"/>
<polygon fill="#191970" stroke="#191970" points="279.9645,-25.2696 288.8692,-19.5287 278.3281,-18.4635 279.9645,-25.2696"/>
</g>
<!-- Node15 -->
<g id="node15" class="node">
<title>Node15</title>
<g id="a_node15"><a xlink:href="classDataModel.html#abc9c6c796348870e45fda933739585d5" target="_top" xlink:title="DataModel::updateBalance Aktualisiert den Kontostand. Auch in Anzeigen etc.">
<polygon fill="#ffffff" stroke="#000000" points="440,-44.5 440,-63.5 581,-63.5 581,-44.5 440,-44.5"/>
<text text-anchor="middle" x="510.5" y="-51.5" font-family="Helvetica,sans-Serif" font-size="10.00" fill="#000000">DataModel::updateBalance</text>
</a>
</g>
</g>
<!-- Node14&#45;&gt;Node15 -->
<g id="edge15" class="edge">
<title>Node14&#45;&gt;Node15</title>
<path fill="none" stroke="#191970" d="M398.6056,-54C408.7445,-54 419.2492,-54 429.5785,-54"/>
<polygon fill="#191970" stroke="#191970" points="429.8293,-57.5001 439.8293,-54 429.8292,-50.5001 429.8293,-57.5001"/>
</g>
<!-- Node17 -->
<g id="node17" class="node">
<title>Node17</title>
<g id="a_node17"><a xlink:href="classDataModel.html#a0c605d45cde1e17a0611c004732ac6ee" target="_top" xlink:title="DataModel::timeTick Wird aufgerufen wenn eine Zeiteinheit verstrichen ist. Erhöht den Timecode.">
<polygon fill="#ffffff" stroke="#000000" points="454.5,-.5 454.5,-19.5 566.5,-19.5 566.5,-.5 454.5,-.5"/>
<text text-anchor="middle" x="510.5" y="-7.5" font-family="Helvetica,sans-Serif" font-size="10.00" fill="#000000">DataModel::timeTick</text>
</a>
</g>
</g>
<!-- Node16&#45;&gt;Node17 -->
<g id="edge17" class="edge">
<title>Node16&#45;&gt;Node17</title>
<path fill="none" stroke="#191970" d="M404.1033,-10C417.3582,-10 431.062,-10 444.0453,-10"/>
<polygon fill="#191970" stroke="#191970" points="444.2809,-13.5001 454.2809,-10 444.2808,-6.5001 444.2809,-13.5001"/>
</g>
</g>
</svg>
