<?xml version="1.0" encoding="UTF-8" standalone="no"?>
<!DOCTYPE svg PUBLIC "-//W3C//DTD SVG 1.1//EN"
 "http://www.w3.org/Graphics/SVG/1.1/DTD/svg11.dtd">
<!-- Generated by graphviz version 2.40.1 (20161225.0304)
 -->
<!-- Title: main Pages: 1 -->
<svg width="510pt" height="294pt"
 viewBox="0.00 0.00 510.00 294.00" xmlns="http://www.w3.org/2000/svg" xmlns:xlink="http://www.w3.org/1999/xlink">
<g id="graph0" class="graph" transform="scale(1 1) rotate(0) translate(4 290)">
<title>main</title>
<polygon fill="#ffffff" stroke="transparent" points="-4,4 -4,-290 506,-290 506,4 -4,4"/>
<!-- Node1 -->
<g id="node1" class="node">
<title>Node1</title>
<g id="a_node1"><a xlink:title="main Startmethode.">
<polygon fill="#bfbfbf" stroke="#000000" points="0,-114.5 0,-133.5 38,-133.5 38,-114.5 0,-114.5"/>
<text text-anchor="middle" x="19" y="-121.5" font-family="Helvetica,sans-Serif" font-size="10.00" fill="#000000">main</text>
</a>
</g>
</g>
<!-- Node2 -->
<g id="node2" class="node">
<title>Node2</title>
<g id="a_node2"><a xlink:href="classScene.html#a1ef1c0e0972913d4c477ead916cf06b0" target="_top" xlink:title="Scene::generateWorld Diese Methode generiert eine neue Welt.">
<polygon fill="#ffffff" stroke="#000000" points="74,-133.5 74,-152.5 193,-152.5 193,-133.5 74,-133.5"/>
<text text-anchor="middle" x="133.5" y="-140.5" font-family="Helvetica,sans-Serif" font-size="10.00" fill="#000000">Scene::generateWorld</text>
</a>
</g>
</g>
<!-- Node1&#45;&gt;Node2 -->
<g id="edge1" class="edge">
<title>Node1&#45;&gt;Node2</title>
<path fill="none" stroke="#191970" d="M38.1647,-127.1802C46.1733,-128.5091 56.0016,-130.14 66.272,-131.8443"/>
<polygon fill="#191970" stroke="#191970" points="65.7713,-135.309 76.2094,-133.4933 66.9173,-128.4034 65.7713,-135.309"/>
</g>
<!-- Node11 -->
<g id="node11" class="node">
<title>Node11</title>
<g id="a_node11"><a xlink:href="main_8cpp.html#a797b6e81613edceb3de9b5667ed57098" target="_top" xlink:title=" ">
<polygon fill="#ffffff" stroke="#000000" points="93.5,-95.5 93.5,-114.5 173.5,-114.5 173.5,-95.5 93.5,-95.5"/>
<text text-anchor="middle" x="133.5" y="-102.5" font-family="Helvetica,sans-Serif" font-size="10.00" fill="#000000">introAnimation</text>
</a>
</g>
</g>
<!-- Node1&#45;&gt;Node11 -->
<g id="edge11" class="edge">
<title>Node1&#45;&gt;Node11</title>
<path fill="none" stroke="#191970" d="M38.1647,-120.8198C50.4894,-118.7747 67.1239,-116.0144 83.0469,-113.3721"/>
<polygon fill="#191970" stroke="#191970" points="84.0633,-116.7514 93.3554,-111.6615 82.9174,-109.8458 84.0633,-116.7514"/>
</g>
<!-- Node3 -->
<g id="node3" class="node">
<title>Node3</title>
<g id="a_node3"><a xlink:href="classMapTile.html#a04adb2286fb76310bca5f3ecef200c0e" target="_top" xlink:title="MapTile::getPixmapItem Liefert das Pixmap Item.">
<polygon fill="#ffffff" stroke="#000000" points="229,-266.5 229,-285.5 356,-285.5 356,-266.5 229,-266.5"/>
<text text-anchor="middle" x="292.5" y="-273.5" font-family="Helvetica,sans-Serif" font-size="10.00" fill="#000000">MapTile::getPixmapItem</text>
</a>
</g>
</g>
<!-- Node2&#45;&gt;Node3 -->
<g id="edge2" class="edge">
<title>Node2&#45;&gt;Node3</title>
<path fill="none" stroke="#191970" d="M138.8275,-152.5741C151.5007,-174.4629 185.6513,-228.4687 229,-257 232.1149,-259.0502 235.4587,-260.8858 238.9236,-262.5282"/>
<polygon fill="#191970" stroke="#191970" points="237.7273,-265.8214 248.304,-266.4397 240.4213,-259.3606 237.7273,-265.8214"/>
</g>
<!-- Node4 -->
<g id="node4" class="node">
<title>Node4</title>
<g id="a_node4"><a xlink:href="classCity.html#aa386d95c7f928b239bc4973ce816106d" target="_top" xlink:title="City::setCenter Setzt den Mittelpunkt der Stadt.">
<polygon fill="#ffffff" stroke="#000000" points="251,-228.5 251,-247.5 334,-247.5 334,-228.5 251,-228.5"/>
<text text-anchor="middle" x="292.5" y="-235.5" font-family="Helvetica,sans-Serif" font-size="10.00" fill="#000000">City::setCenter</text>
</a>
</g>
</g>
<!-- Node2&#45;&gt;Node4 -->
<g id="edge3" class="edge">
<title>Node2&#45;&gt;Node4</title>
<path fill="none" stroke="#191970" d="M142.9195,-152.5883C159.1111,-168.5565 193.8805,-200.6513 229,-219 233.239,-221.2147 237.7753,-223.2111 242.4007,-225.0017"/>
<polygon fill="#191970" stroke="#191970" points="241.3586,-228.3457 251.9533,-228.3921 243.7,-221.7489 241.3586,-228.3457"/>
</g>
<!-- Node5 -->
<g id="node5" class="node">
<title>Node5</title>
<g id="a_node5"><a xlink:href="classMapTile.html#a95eefbf7247ae6adef4aaee0a35eaa4f" target="_top" xlink:title="MapTile::setCity.">
<polygon fill="#ffffff" stroke="#000000" points="247,-190.5 247,-209.5 338,-209.5 338,-190.5 247,-190.5"/>
<text text-anchor="middle" x="292.5" y="-197.5" font-family="Helvetica,sans-Serif" font-size="10.00" fill="#000000">MapTile::setCity</text>
</a>
</g>
</g>
<!-- Node2&#45;&gt;Node5 -->
<g id="edge4" class="edge">
<title>Node2&#45;&gt;Node5</title>
<path fill="none" stroke="#191970" d="M156.0576,-152.6273C175.277,-160.6722 203.7192,-172.2072 229,-181 235.4261,-183.235 242.271,-185.4511 248.9986,-187.5378"/>
<polygon fill="#191970" stroke="#191970" points="248.1231,-190.9298 258.7088,-190.4897 250.1591,-184.2324 248.1231,-190.9298"/>
</g>
<!-- Node6 -->
<g id="node6" class="node">
<title>Node6</title>
<g id="a_node6"><a xlink:href="classCity.html#a198b26b45e0b52f27a18b3631db5070c" target="_top" xlink:title="City::setName Setzt den Namen der Stadt.">
<polygon fill="#ffffff" stroke="#000000" points="252.5,-152.5 252.5,-171.5 332.5,-171.5 332.5,-152.5 252.5,-152.5"/>
<text text-anchor="middle" x="292.5" y="-159.5" font-family="Helvetica,sans-Serif" font-size="10.00" fill="#000000">City::setName</text>
</a>
</g>
</g>
<!-- Node2&#45;&gt;Node6 -->
<g id="edge5" class="edge">
<title>Node2&#45;&gt;Node6</title>
<path fill="none" stroke="#191970" d="M193.1581,-150.129C209.35,-152.0638 226.7149,-154.1389 242.3255,-156.0043"/>
<polygon fill="#191970" stroke="#191970" points="241.9559,-159.485 252.3005,-157.1963 242.7865,-152.5344 241.9559,-159.485"/>
</g>
<!-- Node7 -->
<g id="node7" class="node">
<title>Node7</title>
<g id="a_node7"><a xlink:href="classMapTile.html#a954bfbd36f8055157616c38392a0ceef" target="_top" xlink:title="MapTile::setPosition Setzt die Position der Kachel. (In Pixeln)">
<polygon fill="#ffffff" stroke="#000000" points="237.5,-114.5 237.5,-133.5 347.5,-133.5 347.5,-114.5 237.5,-114.5"/>
<text text-anchor="middle" x="292.5" y="-121.5" font-family="Helvetica,sans-Serif" font-size="10.00" fill="#000000">MapTile::setPosition</text>
</a>
</g>
</g>
<!-- Node2&#45;&gt;Node7 -->
<g id="edge6" class="edge">
<title>Node2&#45;&gt;Node7</title>
<path fill="none" stroke="#191970" d="M193.1581,-135.871C204.29,-134.5408 215.9764,-133.1443 227.2659,-131.7953"/>
<polygon fill="#191970" stroke="#191970" points="227.981,-135.2348 237.4951,-130.5729 227.1504,-128.2843 227.981,-135.2348"/>
</g>
<!-- Node8 -->
<g id="node8" class="node">
<title>Node8</title>
<g id="a_node8"><a xlink:href="classMapTile.html#a57b8310cfe045dc6a8e0c3c25fe9fc52" target="_top" xlink:title="MapTile::setRotation Hilfsfunktion zur Rotation im Quadrat.">
<polygon fill="#ffffff" stroke="#000000" points="392,-38.5 392,-57.5 502,-57.5 502,-38.5 392,-38.5"/>
<text text-anchor="middle" x="447" y="-45.5" font-family="Helvetica,sans-Serif" font-size="10.00" fill="#000000">MapTile::setRotation</text>
</a>
</g>
</g>
<!-- Node2&#45;&gt;Node8 -->
<g id="edge7" class="edge">
<title>Node2&#45;&gt;Node8</title>
<path fill="none" stroke="#191970" d="M166.9221,-133.4684C175.5288,-130.7047 184.7009,-127.483 193,-124 209.6821,-116.9988 212.1371,-111.5537 229,-105 259.207,-93.2601 341.6309,-72.84 396.0271,-59.8934"/>
<polygon fill="#191970" stroke="#191970" points="396.9164,-63.2797 405.839,-57.5667 395.3012,-56.4685 396.9164,-63.2797"/>
</g>
<!-- Node9 -->
<g id="node9" class="node">
<title>Node9</title>
<g id="a_node9"><a xlink:href="classCity.html#ac4ff08b2faa48f34b8ffbff37f4b0621" target="_top" xlink:title="City::setSize Gibt die Größe der Stadt zurück (Anzahl der Gebäude)">
<polygon fill="#ffffff" stroke="#000000" points="255.5,-38.5 255.5,-57.5 329.5,-57.5 329.5,-38.5 255.5,-38.5"/>
<text text-anchor="middle" x="292.5" y="-45.5" font-family="Helvetica,sans-Serif" font-size="10.00" fill="#000000">City::setSize</text>
</a>
</g>
</g>
<!-- Node2&#45;&gt;Node9 -->
<g id="edge8" class="edge">
<title>Node2&#45;&gt;Node9</title>
<path fill="none" stroke="#191970" d="M175.5303,-133.4487C181.7237,-130.9708 187.7704,-127.8707 193,-124 215.5936,-107.2772 206.8511,-89.3075 229,-72 234.3034,-67.8558 240.4008,-64.3662 246.674,-61.4455"/>
<polygon fill="#191970" stroke="#191970" points="248.0539,-64.6621 255.9186,-57.5631 245.3435,-58.2081 248.0539,-64.6621"/>
</g>
<!-- Node10 -->
<g id="node10" class="node">
<title>Node10</title>
<g id="a_node10"><a xlink:href="classMapTile.html#a6f6c6e03095e0f1ed503dd30f499793c" target="_top" xlink:title="MapTile::setType Setzt den Typ der Kachel.">
<polygon fill="#ffffff" stroke="#000000" points="243.5,-.5 243.5,-19.5 341.5,-19.5 341.5,-.5 243.5,-.5"/>
<text text-anchor="middle" x="292.5" y="-7.5" font-family="Helvetica,sans-Serif" font-size="10.00" fill="#000000">MapTile::setType</text>
</a>
</g>
</g>
<!-- Node2&#45;&gt;Node10 -->
<g id="edge9" class="edge">
<title>Node2&#45;&gt;Node10</title>
<path fill="none" stroke="#191970" d="M178.8376,-133.4246C184.0239,-130.9675 188.9083,-127.8799 193,-124 225.7642,-92.932 195.952,-59.7659 229,-29 230.6766,-27.4392 232.4764,-26.0062 234.3701,-24.6907"/>
<polygon fill="#191970" stroke="#191970" points="236.246,-27.6497 243.1836,-19.6422 232.7667,-21.5756 236.246,-27.6497"/>
</g>
<!-- Node10&#45;&gt;Node8 -->
<g id="edge10" class="edge">
<title>Node10&#45;&gt;Node8</title>
<path fill="none" stroke="#191970" d="M331.4869,-19.589C351.783,-24.5809 376.7935,-30.7324 398.3462,-36.0334"/>
<polygon fill="#191970" stroke="#191970" points="397.7469,-39.4902 408.2935,-38.4799 399.4188,-32.6928 397.7469,-39.4902"/>
</g>
</g>
</svg>
