<?xml version="1.0" encoding="UTF-8" standalone="no"?>
<!DOCTYPE svg PUBLIC "-//W3C//DTD SVG 1.1//EN"
 "http://www.w3.org/Graphics/SVG/1.1/DTD/svg11.dtd">
<!-- Generated by graphviz version 2.40.1 (20161225.0304)
 -->
<!-- Title: src/application_server/main.h Pages: 1 -->
<svg width="256pt" height="173pt"
 viewBox="0.00 0.00 256.00 173.00" xmlns="http://www.w3.org/2000/svg" xmlns:xlink="http://www.w3.org/1999/xlink">
<g id="graph0" class="graph" transform="scale(1 1) rotate(0) translate(4 169)">
<title>src/application_server/main.h</title>
<polygon fill="#ffffff" stroke="transparent" points="-4,4 -4,-169 252,-169 252,4 -4,4"/>
<!-- Node1 -->
<g id="node1" class="node">
<title>Node1</title>
<g id="a_node1"><a xlink:title=" ">
<polygon fill="#bfbfbf" stroke="#000000" points="43,-134.5 43,-164.5 158,-164.5 158,-134.5 43,-134.5"/>
<text text-anchor="start" x="51" y="-152.5" font-family="Helvetica,sans-Serif" font-size="10.00" fill="#000000">src/application_server</text>
<text text-anchor="middle" x="100.5" y="-141.5" font-family="Helvetica,sans-Serif" font-size="10.00" fill="#000000">/main.h</text>
</a>
</g>
</g>
<!-- Node2 -->
<g id="node2" class="node">
<title>Node2</title>
<g id="a_node2"><a xlink:href="main_8cpp.html" target="_top" xlink:title=" ">
<polygon fill="#ffffff" stroke="#000000" points="0,-.5 0,-30.5 115,-30.5 115,-.5 0,-.5"/>
<text text-anchor="start" x="8" y="-18.5" font-family="Helvetica,sans-Serif" font-size="10.00" fill="#000000">src/application_server</text>
<text text-anchor="middle" x="57.5" y="-7.5" font-family="Helvetica,sans-Serif" font-size="10.00" fill="#000000">/main.cpp</text>
</a>
</g>
</g>
<!-- Node1&#45;&gt;Node2 -->
<g id="edge1" class="edge">
<title>Node1&#45;&gt;Node2</title>
<path fill="none" stroke="#191970" d="M88.5438,-125.1764C84.6761,-116.7081 80.592,-107.0586 77.5,-98 69.6447,-74.9863 63.607,-47.3665 60.3071,-30.6385"/>
<polygon fill="#191970" stroke="#191970" points="85.4904,-126.9081 92.9124,-134.4688 91.8252,-123.9299 85.4904,-126.9081"/>
</g>
<!-- Node3 -->
<g id="node3" class="node">
<title>Node3</title>
<g id="a_node3"><a xlink:href="view_8h.html" target="_top" xlink:title=" ">
<polygon fill="#ffffff" stroke="#000000" points="86,-67.5 86,-97.5 201,-97.5 201,-67.5 86,-67.5"/>
<text text-anchor="start" x="94" y="-85.5" font-family="Helvetica,sans-Serif" font-size="10.00" fill="#000000">src/application_server</text>
<text text-anchor="middle" x="143.5" y="-74.5" font-family="Helvetica,sans-Serif" font-size="10.00" fill="#000000">/view.h</text>
</a>
</g>
</g>
<!-- Node1&#45;&gt;Node3 -->
<g id="edge2" class="edge">
<title>Node1&#45;&gt;Node3</title>
<path fill="none" stroke="#191970" d="M115.7275,-125.7735C121.7334,-116.4154 128.4551,-105.9421 133.7812,-97.6432"/>
<polygon fill="#191970" stroke="#191970" points="112.7131,-123.9903 110.2574,-134.2967 118.6042,-127.7712 112.7131,-123.9903"/>
</g>
<!-- Node3&#45;&gt;Node2 -->
<g id="edge3" class="edge">
<title>Node3&#45;&gt;Node2</title>
<path fill="none" stroke="#191970" d="M115.9855,-61.0643C103.2696,-51.1577 88.4684,-39.6265 76.9375,-30.6432"/>
<polygon fill="#191970" stroke="#191970" points="113.9456,-63.9119 123.9853,-67.2967 118.2477,-58.3899 113.9456,-63.9119"/>
</g>
<!-- Node4 -->
<g id="node4" class="node">
<title>Node4</title>
<g id="a_node4"><a xlink:href="view_8cpp.html" target="_top" xlink:title=" ">
<polygon fill="#ffffff" stroke="#000000" points="133,-.5 133,-30.5 248,-30.5 248,-.5 133,-.5"/>
<text text-anchor="start" x="141" y="-18.5" font-family="Helvetica,sans-Serif" font-size="10.00" fill="#000000">src/application_server</text>
<text text-anchor="middle" x="190.5" y="-7.5" font-family="Helvetica,sans-Serif" font-size="10.00" fill="#000000">/view.cpp</text>
</a>
</g>
</g>
<!-- Node3&#45;&gt;Node4 -->
<g id="edge4" class="edge">
<title>Node3&#45;&gt;Node4</title>
<path fill="none" stroke="#191970" d="M159.9412,-59.0626C166.557,-49.6315 173.9955,-39.0276 179.8772,-30.6432"/>
<polygon fill="#191970" stroke="#191970" points="157.0426,-57.1001 154.165,-67.2967 162.7732,-61.1201 157.0426,-57.1001"/>
</g>
</g>
</svg>
