<?xml version="1.0" encoding="UTF-8" standalone="no"?>
<!DOCTYPE svg PUBLIC "-//W3C//DTD SVG 1.1//EN"
 "http://www.w3.org/Graphics/SVG/1.1/DTD/svg11.dtd">
<!-- Generated by graphviz version 2.40.1 (20161225.0304)
 -->
<!-- Title: src/application_server/menubar.cpp Pages: 1 -->
<!--zoomable 319 -->
<svg id="main" version="1.1" xmlns="http://www.w3.org/2000/svg" xmlns:xlink="http://www.w3.org/1999/xlink" xml:space="preserve" onload="init(evt)">
<style type="text/css"><![CDATA[
.edge:hover path { stroke: red; }
.edge:hover polygon { stroke: red; fill: red; }
]]></style>
<script type="text/javascript"><![CDATA[
var edges = document.getElementsByTagName('g');
if (edges && edges.length) {
  for (var i=0;i<edges.length;i++) {
    if (edges[i].id.substr(0,4)=='edge') {
      edges[i].setAttribute('class','edge');
    }
  }
}
]]></script>
        <defs>
                <circle id="rim" cx="0" cy="0" r="7"/>
                <circle id="rim2" cx="0" cy="0" r="3.5"/>
                <g id="zoomPlus">
                        <use xlink:href="#rim" fill="#404040">
                                <set attributeName="fill" to="#808080" begin="zoomplus.mouseover" end="zoomplus.mouseout"/>
                        </use>
                        <path d="M-4,0h8M0,-4v8" fill="none" stroke="white" stroke-width="1.5" pointer-events="none"/>
                </g>
                <g id="zoomMin">
                        <use xlink:href="#rim" fill="#404040">
                                <set attributeName="fill" to="#808080" begin="zoomminus.mouseover" end="zoomminus.mouseout"/>
                        </use>
                        <path d="M-4,0h8" fill="none" stroke="white" stroke-width="1.5" pointer-events="none"/>
                </g>
                <g id="dirArrow">
                        <path fill="none" stroke="white" stroke-width="1.5" d="M0,-3.0v7 M-2.5,-0.5L0,-3.0L2.5,-0.5"/>
                </g>
               <g id="resetDef">
                       <use xlink:href="#rim2" fill="#404040">
                               <set attributeName="fill" to="#808080" begin="reset.mouseover" end="reset.mouseout"/>
                       </use>
               </g>
        </defs>

<script type="text/javascript">
var viewWidth = 988;
var viewHeight = 319;
var sectionId = 'dynsection-0';
</script>
<script xlink:href="svgpan.js"/>
<svg id="graph" class="graph">
<g id="viewport">
<title>src/application_server/menubar.cpp</title>
<polygon fill="#ffffff" stroke="transparent" points="-4,4 -4,-315 984,-315 984,4 -4,4"/>
<!-- Node1 -->
<g id="node1" class="node">
<title>Node1</title>
<g id="a_node1"><a xlink:title=" ">
<polygon fill="#bfbfbf" stroke="#000000" points="522.5,-280.5 522.5,-310.5 637.5,-310.5 637.5,-280.5 522.5,-280.5"/>
<text text-anchor="start" x="530.5" y="-298.5" font-family="Helvetica,sans-Serif" font-size="10.00" fill="#000000">src/application_server</text>
<text text-anchor="middle" x="580" y="-287.5" font-family="Helvetica,sans-Serif" font-size="10.00" fill="#000000">/menubar.cpp</text>
</a>
</g>
</g>
<!-- Node2 -->
<g id="node2" class="node">
<title>Node2</title>
<g id="a_node2"><a xlink:href="menubar_8h.html" target="_top" xlink:title=" ">
<polygon fill="#ffffff" stroke="#000000" points="305.5,-224.5 305.5,-243.5 368.5,-243.5 368.5,-224.5 305.5,-224.5"/>
<text text-anchor="middle" x="337" y="-231.5" font-family="Helvetica,sans-Serif" font-size="10.00" fill="#000000">menubar.h</text>
</a>
</g>
</g>
<!-- Node1&#45;&gt;Node2 -->
<g id="edge1" class="edge">
<title>Node1&#45;&gt;Node2</title>
<path fill="none" stroke="#191970" d="M522.4124,-280.9254C478.1278,-269.7175 418.0074,-254.5019 378.3887,-244.4749"/>
<polygon fill="#191970" stroke="#191970" points="379.0856,-241.041 368.5325,-241.9804 377.3681,-247.827 379.0856,-241.041"/>
</g>
<!-- Node20 -->
<g id="node20" class="node">
<title>Node20</title>
<g id="a_node20"><a xlink:title=" ">
<polygon fill="#ffffff" stroke="#bfbfbf" points="519,-224.5 519,-243.5 573,-243.5 573,-224.5 519,-224.5"/>
<text text-anchor="middle" x="546" y="-231.5" font-family="Helvetica,sans-Serif" font-size="10.00" fill="#000000">QDebug</text>
</a>
</g>
</g>
<!-- Node1&#45;&gt;Node20 -->
<g id="edge22" class="edge">
<title>Node1&#45;&gt;Node20</title>
<path fill="none" stroke="#191970" d="M571.5955,-280.2977C566.9743,-271.9388 561.2031,-261.4997 556.3111,-252.6509"/>
<polygon fill="#191970" stroke="#191970" points="559.3452,-250.9051 551.4438,-243.8469 553.2191,-254.292 559.3452,-250.9051"/>
</g>
<!-- Node21 -->
<g id="node21" class="node">
<title>Node21</title>
<g id="a_node21"><a xlink:href="client_8h.html" target="_top" xlink:title=" ">
<polygon fill="#ffffff" stroke="#000000" points="591.5,-224.5 591.5,-243.5 638.5,-243.5 638.5,-224.5 591.5,-224.5"/>
<text text-anchor="middle" x="615" y="-231.5" font-family="Helvetica,sans-Serif" font-size="10.00" fill="#000000">client.h</text>
</a>
</g>
</g>
<!-- Node1&#45;&gt;Node21 -->
<g id="edge23" class="edge">
<title>Node1&#45;&gt;Node21</title>
<path fill="none" stroke="#191970" d="M588.6517,-280.2977C593.4088,-271.9388 599.3498,-261.4997 604.3857,-252.6509"/>
<polygon fill="#191970" stroke="#191970" points="607.4917,-254.2692 609.3961,-243.8469 601.4079,-250.8069 607.4917,-254.2692"/>
</g>
<!-- Node27 -->
<g id="node27" class="node">
<title>Node27</title>
<g id="a_node27"><a xlink:href="datamodel_8h.html" target="_top" xlink:title=" ">
<polygon fill="#ffffff" stroke="#000000" points="851.5,-168.5 851.5,-187.5 924.5,-187.5 924.5,-168.5 851.5,-168.5"/>
<text text-anchor="middle" x="888" y="-175.5" font-family="Helvetica,sans-Serif" font-size="10.00" fill="#000000">datamodel.h</text>
</a>
</g>
</g>
<!-- Node1&#45;&gt;Node27 -->
<g id="edge35" class="edge">
<title>Node1&#45;&gt;Node27</title>
<path fill="none" stroke="#191970" d="M619.3213,-280.4992C680.03,-257.3392 795.592,-213.253 853.3437,-191.2212"/>
<polygon fill="#191970" stroke="#191970" points="854.6688,-194.4618 862.7644,-187.6272 852.1737,-187.9215 854.6688,-194.4618"/>
</g>
<!-- Node3 -->
<g id="node3" class="node">
<title>Node3</title>
<g id="a_node3"><a xlink:title=" ">
<polygon fill="#ffffff" stroke="#bfbfbf" points="175.5,-168.5 175.5,-187.5 240.5,-187.5 240.5,-168.5 175.5,-168.5"/>
<text text-anchor="middle" x="208" y="-175.5" font-family="Helvetica,sans-Serif" font-size="10.00" fill="#000000">QMenuBar</text>
</a>
</g>
</g>
<!-- Node2&#45;&gt;Node3 -->
<g id="edge2" class="edge">
<title>Node2&#45;&gt;Node3</title>
<path fill="none" stroke="#191970" d="M314.8241,-224.3733C294.0234,-215.3435 262.7083,-201.7494 239.3542,-191.6111"/>
<polygon fill="#191970" stroke="#191970" points="240.4532,-188.2727 229.8865,-187.5011 237.6657,-194.6938 240.4532,-188.2727"/>
</g>
<!-- Node4 -->
<g id="node4" class="node">
<title>Node4</title>
<g id="a_node4"><a xlink:title=" ">
<polygon fill="#ffffff" stroke="#bfbfbf" points="259,-168.5 259,-187.5 333,-187.5 333,-168.5 259,-168.5"/>
<text text-anchor="middle" x="296" y="-175.5" font-family="Helvetica,sans-Serif" font-size="10.00" fill="#000000">QInputDialog</text>
</a>
</g>
</g>
<!-- Node2&#45;&gt;Node4 -->
<g id="edge3" class="edge">
<title>Node2&#45;&gt;Node4</title>
<path fill="none" stroke="#191970" d="M329.8583,-224.2455C324.1556,-216.4564 316.01,-205.3308 309.1375,-195.9439"/>
<polygon fill="#191970" stroke="#191970" points="311.7913,-193.6437 303.0598,-187.6427 306.1432,-197.7789 311.7913,-193.6437"/>
</g>
<!-- Node5 -->
<g id="node5" class="node">
<title>Node5</title>
<g id="a_node5"><a xlink:href="scene_8h.html" target="_top" xlink:title=" ">
<polygon fill="#ffffff" stroke="#000000" points="351,-168.5 351,-187.5 403,-187.5 403,-168.5 351,-168.5"/>
<text text-anchor="middle" x="377" y="-175.5" font-family="Helvetica,sans-Serif" font-size="10.00" fill="#000000">scene.h</text>
</a>
</g>
</g>
<!-- Node2&#45;&gt;Node5 -->
<g id="edge4" class="edge">
<title>Node2&#45;&gt;Node5</title>
<path fill="none" stroke="#191970" d="M343.9675,-224.2455C349.5311,-216.4564 357.478,-205.3308 364.1829,-195.9439"/>
<polygon fill="#191970" stroke="#191970" points="367.148,-197.8144 370.1124,-187.6427 361.4519,-193.7457 367.148,-197.8144"/>
</g>
<!-- Node6 -->
<g id="node6" class="node">
<title>Node6</title>
<g id="a_node6"><a xlink:title=" ">
<polygon fill="#ffffff" stroke="#bfbfbf" points="70,-112.5 70,-131.5 164,-131.5 164,-112.5 70,-112.5"/>
<text text-anchor="middle" x="117" y="-119.5" font-family="Helvetica,sans-Serif" font-size="10.00" fill="#000000">QGraphicsScene</text>
</a>
</g>
</g>
<!-- Node5&#45;&gt;Node6 -->
<g id="edge5" class="edge">
<title>Node5&#45;&gt;Node6</title>
<path fill="none" stroke="#191970" d="M350.6844,-170.2474C347.7627,-169.4565 344.8237,-168.6909 342,-168 285.2924,-154.1237 219.8454,-141.0721 174.2087,-132.4414"/>
<polygon fill="#191970" stroke="#191970" points="174.681,-128.9689 164.2064,-130.5606 173.3873,-135.8484 174.681,-128.9689"/>
</g>
<!-- Node7 -->
<g id="node7" class="node">
<title>Node7</title>
<g id="a_node7"><a xlink:title=" ">
<polygon fill="#ffffff" stroke="#bfbfbf" points="220,-112.5 220,-131.5 324,-131.5 324,-112.5 220,-112.5"/>
<text text-anchor="middle" x="272" y="-119.5" font-family="Helvetica,sans-Serif" font-size="10.00" fill="#000000">QGraphicsTextItem</text>
</a>
</g>
</g>
<!-- Node5&#45;&gt;Node7 -->
<g id="edge6" class="edge">
<title>Node5&#45;&gt;Node7</title>
<path fill="none" stroke="#191970" d="M358.7104,-168.2455C342.2238,-159.4527 317.7648,-146.4079 299.0235,-136.4125"/>
<polygon fill="#191970" stroke="#191970" points="300.5506,-133.2604 290.08,-131.6427 297.2565,-139.4368 300.5506,-133.2604"/>
</g>
<!-- Node8 -->
<g id="node8" class="node">
<title>Node8</title>
<g id="a_node8"><a xlink:title=" ">
<polygon fill="#ffffff" stroke="#bfbfbf" points="342.5,-112.5 342.5,-131.5 425.5,-131.5 425.5,-112.5 342.5,-112.5"/>
<text text-anchor="middle" x="384" y="-119.5" font-family="Helvetica,sans-Serif" font-size="10.00" fill="#000000">QGraphicsItem</text>
</a>
</g>
</g>
<!-- Node5&#45;&gt;Node8 -->
<g id="edge7" class="edge">
<title>Node5&#45;&gt;Node8</title>
<path fill="none" stroke="#191970" d="M378.2193,-168.2455C379.1327,-160.9382 380.4132,-150.6944 381.5369,-141.7046"/>
<polygon fill="#191970" stroke="#191970" points="385.0272,-141.9996 382.7947,-131.6427 378.0813,-141.1313 385.0272,-141.9996"/>
</g>
<!-- Node9 -->
<g id="node9" class="node">
<title>Node9</title>
<g id="a_node9"><a xlink:title=" ">
<polygon fill="#ffffff" stroke="#bfbfbf" points="57,-56.5 57,-75.5 161,-75.5 161,-56.5 57,-56.5"/>
<text text-anchor="middle" x="109" y="-63.5" font-family="Helvetica,sans-Serif" font-size="10.00" fill="#000000">QGraphicsRectItem</text>
</a>
</g>
</g>
<!-- Node5&#45;&gt;Node9 -->
<g id="edge8" class="edge">
<title>Node5&#45;&gt;Node9</title>
<path fill="none" stroke="#191970" d="M350.6348,-170.4362C347.7224,-169.6099 344.7991,-168.7845 342,-168 283.8594,-151.7059 266.1022,-156.6896 211,-132 180.6517,-118.4019 148.9951,-96.5185 129.1535,-81.7135"/>
<polygon fill="#191970" stroke="#191970" points="131.2468,-78.9084 121.1636,-75.6557 127.0176,-84.4864 131.2468,-78.9084"/>
</g>
<!-- Node10 -->
<g id="node10" class="node">
<title>Node10</title>
<g id="a_node10"><a xlink:title=" ">
<polygon fill="#ffffff" stroke="#bfbfbf" points="482.5,-112.5 482.5,-131.5 595.5,-131.5 595.5,-112.5 482.5,-112.5"/>
<text text-anchor="middle" x="539" y="-119.5" font-family="Helvetica,sans-Serif" font-size="10.00" fill="#000000">QGraphicsEllipseItem</text>
</a>
</g>
</g>
<!-- Node5&#45;&gt;Node10 -->
<g id="edge9" class="edge">
<title>Node5&#45;&gt;Node10</title>
<path fill="none" stroke="#191970" d="M403.0281,-169.0026C429.7066,-159.7804 471.4492,-145.3509 501.6492,-134.9114"/>
<polygon fill="#191970" stroke="#191970" points="503.1022,-138.1124 511.4099,-131.5373 500.8152,-131.4965 503.1022,-138.1124"/>
</g>
<!-- Node11 -->
<g id="node11" class="node">
<title>Node11</title>
<g id="a_node11"><a xlink:href="maptile_8h.html" target="_top" xlink:title=" ">
<polygon fill="#ffffff" stroke="#000000" points="614,-112.5 614,-131.5 670,-131.5 670,-112.5 614,-112.5"/>
<text text-anchor="middle" x="642" y="-119.5" font-family="Helvetica,sans-Serif" font-size="10.00" fill="#000000">maptile.h</text>
</a>
</g>
</g>
<!-- Node5&#45;&gt;Node11 -->
<g id="edge10" class="edge">
<title>Node5&#45;&gt;Node11</title>
<path fill="none" stroke="#191970" d="M403.2006,-171.2276C407.7894,-170.1051 412.5263,-168.9867 417,-168 496.994,-150.3562 520.3821,-151.0323 603.8483,-132.1362"/>
<polygon fill="#191970" stroke="#191970" points="604.8073,-135.5073 613.7729,-129.8621 603.2438,-128.6841 604.8073,-135.5073"/>
</g>
<!-- Node16 -->
<g id="node16" class="node">
<title>Node16</title>
<g id="a_node16"><a xlink:href="graphicsmanager_8h.html" target="_top" xlink:title=" ">
<polygon fill="#ffffff" stroke="#000000" points="462.5,-56.5 462.5,-75.5 565.5,-75.5 565.5,-56.5 462.5,-56.5"/>
<text text-anchor="middle" x="514" y="-63.5" font-family="Helvetica,sans-Serif" font-size="10.00" fill="#000000">graphicsmanager.h</text>
</a>
</g>
</g>
<!-- Node5&#45;&gt;Node16 -->
<g id="edge19" class="edge">
<title>Node5&#45;&gt;Node16</title>
<path fill="none" stroke="#191970" d="M389.5186,-168.2205C401.3152,-158.9701 419.4515,-144.6573 435,-132 455.4652,-115.3402 478.604,-95.9418 494.5239,-82.5064"/>
<polygon fill="#191970" stroke="#191970" points="497.1853,-84.8396 502.5628,-75.7109 492.6663,-79.4937 497.1853,-84.8396"/>
</g>
<!-- Node19 -->
<g id="node19" class="node">
<title>Node19</title>
<g id="a_node19"><a xlink:href="player_8h.html" target="_top" xlink:title=" ">
<polygon fill="#ffffff" stroke="#000000" points="0,-112.5 0,-131.5 52,-131.5 52,-112.5 0,-112.5"/>
<text text-anchor="middle" x="26" y="-119.5" font-family="Helvetica,sans-Serif" font-size="10.00" fill="#000000">player.h</text>
</a>
</g>
</g>
<!-- Node5&#45;&gt;Node19 -->
<g id="edge20" class="edge">
<title>Node5&#45;&gt;Node19</title>
<path fill="none" stroke="#191970" d="M350.7322,-170.0349C347.8015,-169.2837 344.8474,-168.5857 342,-168 221.8036,-143.2769 186.1292,-156.6448 62.1411,-131.9722"/>
<polygon fill="#191970" stroke="#191970" points="62.7646,-128.5274 52.2678,-129.9651 61.3701,-135.3871 62.7646,-128.5274"/>
</g>
<!-- Node12 -->
<g id="node12" class="node">
<title>Node12</title>
<g id="a_node12"><a xlink:title=" ">
<polygon fill="#ffffff" stroke="#bfbfbf" points="583.5,-56.5 583.5,-75.5 700.5,-75.5 700.5,-56.5 583.5,-56.5"/>
<text text-anchor="middle" x="642" y="-63.5" font-family="Helvetica,sans-Serif" font-size="10.00" fill="#000000">QGraphicsPixmapItem</text>
</a>
</g>
</g>
<!-- Node11&#45;&gt;Node12 -->
<g id="edge11" class="edge">
<title>Node11&#45;&gt;Node12</title>
<path fill="none" stroke="#191970" d="M642,-112.2455C642,-104.9382 642,-94.6944 642,-85.7046"/>
<polygon fill="#191970" stroke="#191970" points="645.5001,-85.6426 642,-75.6427 638.5001,-85.6427 645.5001,-85.6426"/>
</g>
<!-- Node13 -->
<g id="node13" class="node">
<title>Node13</title>
<g id="a_node13"><a xlink:href="city_8h.html" target="_top" xlink:title=" ">
<polygon fill="#ffffff" stroke="#000000" points="718.5,-56.5 718.5,-75.5 757.5,-75.5 757.5,-56.5 718.5,-56.5"/>
<text text-anchor="middle" x="738" y="-63.5" font-family="Helvetica,sans-Serif" font-size="10.00" fill="#000000">city.h</text>
</a>
</g>
</g>
<!-- Node11&#45;&gt;Node13 -->
<g id="edge12" class="edge">
<title>Node11&#45;&gt;Node13</title>
<path fill="none" stroke="#191970" d="M658.7219,-112.2455C673.5889,-103.5731 695.5466,-90.7645 712.5858,-80.825"/>
<polygon fill="#191970" stroke="#191970" points="714.5955,-83.7047 721.4697,-75.6427 711.0683,-77.6582 714.5955,-83.7047"/>
</g>
<!-- Node11&#45;&gt;Node16 -->
<g id="edge15" class="edge">
<title>Node11&#45;&gt;Node16</title>
<path fill="none" stroke="#191970" d="M619.996,-112.3733C599.3565,-103.3435 568.2842,-89.7494 545.1111,-79.6111"/>
<polygon fill="#191970" stroke="#191970" points="546.2813,-76.3028 535.7169,-75.5011 543.4755,-82.7159 546.2813,-76.3028"/>
</g>
<!-- Node14 -->
<g id="node14" class="node">
<title>Node14</title>
<g id="a_node14"><a xlink:title=" ">
<polygon fill="#ffffff" stroke="#bfbfbf" points="686.5,-.5 686.5,-19.5 727.5,-19.5 727.5,-.5 686.5,-.5"/>
<text text-anchor="middle" x="707" y="-7.5" font-family="Helvetica,sans-Serif" font-size="10.00" fill="#000000">string</text>
</a>
</g>
</g>
<!-- Node13&#45;&gt;Node14 -->
<g id="edge13" class="edge">
<title>Node13&#45;&gt;Node14</title>
<path fill="none" stroke="#191970" d="M732.6002,-56.2455C728.3773,-48.617 722.3827,-37.7881 717.2559,-28.5267"/>
<polygon fill="#191970" stroke="#191970" points="720.2432,-26.6965 712.3379,-19.6427 714.119,-30.0867 720.2432,-26.6965"/>
</g>
<!-- Node15 -->
<g id="node15" class="node">
<title>Node15</title>
<g id="a_node15"><a xlink:title=" ">
<polygon fill="#ffffff" stroke="#bfbfbf" points="746,-.5 746,-19.5 790,-19.5 790,-.5 746,-.5"/>
<text text-anchor="middle" x="768" y="-7.5" font-family="Helvetica,sans-Serif" font-size="10.00" fill="#000000">vector</text>
</a>
</g>
</g>
<!-- Node13&#45;&gt;Node15 -->
<g id="edge14" class="edge">
<title>Node13&#45;&gt;Node15</title>
<path fill="none" stroke="#191970" d="M743.2256,-56.2455C747.3123,-48.617 753.1135,-37.7881 758.075,-28.5267"/>
<polygon fill="#191970" stroke="#191970" points="761.1972,-30.1103 762.8343,-19.6427 755.0268,-26.8047 761.1972,-30.1103"/>
</g>
<!-- Node16&#45;&gt;Node14 -->
<g id="edge18" class="edge">
<title>Node16&#45;&gt;Node14</title>
<path fill="none" stroke="#191970" d="M547.1779,-56.3733C583.5705,-45.8137 641.4754,-29.0123 676.6886,-18.795"/>
<polygon fill="#191970" stroke="#191970" points="677.7821,-22.1222 686.4106,-15.9741 675.8314,-15.3994 677.7821,-22.1222"/>
</g>
<!-- Node17 -->
<g id="node17" class="node">
<title>Node17</title>
<g id="a_node17"><a xlink:title=" ">
<polygon fill="#ffffff" stroke="#bfbfbf" points="448,-.5 448,-19.5 506,-19.5 506,-.5 448,-.5"/>
<text text-anchor="middle" x="477" y="-7.5" font-family="Helvetica,sans-Serif" font-size="10.00" fill="#000000">QPixmap</text>
</a>
</g>
</g>
<!-- Node16&#45;&gt;Node17 -->
<g id="edge16" class="edge">
<title>Node16&#45;&gt;Node17</title>
<path fill="none" stroke="#191970" d="M507.5551,-56.2455C502.4618,-48.5367 495.2092,-37.5598 489.048,-28.2348"/>
<polygon fill="#191970" stroke="#191970" points="491.8038,-26.0566 483.3711,-19.6427 485.9635,-29.9155 491.8038,-26.0566"/>
</g>
<!-- Node18 -->
<g id="node18" class="node">
<title>Node18</title>
<g id="a_node18"><a xlink:title=" ">
<polygon fill="#ffffff" stroke="#bfbfbf" points="524.5,-.5 524.5,-19.5 577.5,-19.5 577.5,-.5 524.5,-.5"/>
<text text-anchor="middle" x="551" y="-7.5" font-family="Helvetica,sans-Serif" font-size="10.00" fill="#000000">QImage</text>
</a>
</g>
</g>
<!-- Node16&#45;&gt;Node18 -->
<g id="edge17" class="edge">
<title>Node16&#45;&gt;Node18</title>
<path fill="none" stroke="#191970" d="M520.4449,-56.2455C525.5382,-48.5367 532.7908,-37.5598 538.952,-28.2348"/>
<polygon fill="#191970" stroke="#191970" points="542.0365,-29.9155 544.6289,-19.6427 536.1962,-26.0566 542.0365,-29.9155"/>
</g>
<!-- Node19&#45;&gt;Node9 -->
<g id="edge21" class="edge">
<title>Node19&#45;&gt;Node9</title>
<path fill="none" stroke="#191970" d="M40.4575,-112.2455C53.0732,-103.7337 71.5944,-91.2375 86.2045,-81.3801"/>
<polygon fill="#191970" stroke="#191970" points="88.3761,-84.1371 94.7082,-75.6427 84.4609,-78.3343 88.3761,-84.1371"/>
</g>
<!-- Node21&#45;&gt;Node5 -->
<g id="edge29" class="edge">
<title>Node21&#45;&gt;Node5</title>
<path fill="none" stroke="#191970" d="M591.2708,-226.5633C588.163,-225.6618 585.0127,-224.7838 582,-224 509.3597,-205.1013 490.0837,-205.1041 417,-188 415.7454,-187.7064 414.4695,-187.4046 413.1815,-187.0973"/>
<polygon fill="#191970" stroke="#191970" points="413.7664,-183.6376 403.2226,-184.6758 412.1125,-190.4394 413.7664,-183.6376"/>
</g>
<!-- Node21&#45;&gt;Node11 -->
<g id="edge30" class="edge">
<title>Node21&#45;&gt;Node11</title>
<path fill="none" stroke="#191970" d="M591.2305,-226.7104C588.1293,-225.7848 584.9915,-224.861 582,-224 520.7583,-206.3736 410.3614,-217.9001 450,-168 492.0991,-115.0024 532.7599,-146.2528 603.9667,-131.9602"/>
<polygon fill="#191970" stroke="#191970" points="604.7642,-135.3683 613.7454,-129.7479 603.2196,-128.5408 604.7642,-135.3683"/>
</g>
<!-- Node22 -->
<g id="node22" class="node">
<title>Node22</title>
<g id="a_node22"><a xlink:title=" ">
<polygon fill="#ffffff" stroke="#bfbfbf" points="459,-168.5 459,-187.5 533,-187.5 533,-168.5 459,-168.5"/>
<text text-anchor="middle" x="496" y="-175.5" font-family="Helvetica,sans-Serif" font-size="10.00" fill="#000000">QTcpSocket</text>
</a>
</g>
</g>
<!-- Node21&#45;&gt;Node22 -->
<g id="edge24" class="edge">
<title>Node21&#45;&gt;Node22</title>
<path fill="none" stroke="#191970" d="M594.5432,-224.3733C575.5262,-215.4241 546.9825,-201.9917 525.5024,-191.8835"/>
<polygon fill="#191970" stroke="#191970" points="526.7284,-188.5923 516.1899,-187.5011 523.7478,-194.926 526.7284,-188.5923"/>
</g>
<!-- Node23 -->
<g id="node23" class="node">
<title>Node23</title>
<g id="a_node23"><a xlink:title=" ">
<polygon fill="#ffffff" stroke="#bfbfbf" points="551.5,-168.5 551.5,-187.5 604.5,-187.5 604.5,-168.5 551.5,-168.5"/>
<text text-anchor="middle" x="578" y="-175.5" font-family="Helvetica,sans-Serif" font-size="10.00" fill="#000000">QObject</text>
</a>
</g>
</g>
<!-- Node21&#45;&gt;Node23 -->
<g id="edge25" class="edge">
<title>Node21&#45;&gt;Node23</title>
<path fill="none" stroke="#191970" d="M608.5551,-224.2455C603.4618,-216.5367 596.2092,-205.5598 590.048,-196.2348"/>
<polygon fill="#191970" stroke="#191970" points="592.8038,-194.0566 584.3711,-187.6427 586.9635,-197.9155 592.8038,-194.0566"/>
</g>
<!-- Node24 -->
<g id="node24" class="node">
<title>Node24</title>
<g id="a_node24"><a xlink:title=" ">
<polygon fill="#ffffff" stroke="#bfbfbf" points="623,-168.5 623,-187.5 681,-187.5 681,-168.5 623,-168.5"/>
<text text-anchor="middle" x="652" y="-175.5" font-family="Helvetica,sans-Serif" font-size="10.00" fill="#000000">QThread</text>
</a>
</g>
</g>
<!-- Node21&#45;&gt;Node24 -->
<g id="edge26" class="edge">
<title>Node21&#45;&gt;Node24</title>
<path fill="none" stroke="#191970" d="M621.4449,-224.2455C626.5382,-216.5367 633.7908,-205.5598 639.952,-196.2348"/>
<polygon fill="#191970" stroke="#191970" points="643.0365,-197.9155 645.6289,-187.6427 637.1962,-194.0566 643.0365,-197.9155"/>
</g>
<!-- Node25 -->
<g id="node25" class="node">
<title>Node25</title>
<g id="a_node25"><a xlink:title=" ">
<polygon fill="#ffffff" stroke="#bfbfbf" points="699.5,-168.5 699.5,-187.5 764.5,-187.5 764.5,-168.5 699.5,-168.5"/>
<text text-anchor="middle" x="732" y="-175.5" font-family="Helvetica,sans-Serif" font-size="10.00" fill="#000000">QStringList</text>
</a>
</g>
</g>
<!-- Node21&#45;&gt;Node25 -->
<g id="edge27" class="edge">
<title>Node21&#45;&gt;Node25</title>
<path fill="none" stroke="#191970" d="M635.113,-224.3733C653.8103,-215.4241 681.8744,-201.9917 702.9934,-191.8835"/>
<polygon fill="#191970" stroke="#191970" points="704.6405,-194.9755 712.1494,-187.5011 701.6183,-188.6614 704.6405,-194.9755"/>
</g>
<!-- Node26 -->
<g id="node26" class="node">
<title>Node26</title>
<g id="a_node26"><a xlink:title=" ">
<polygon fill="#ffffff" stroke="#bfbfbf" points="783,-168.5 783,-187.5 833,-187.5 833,-168.5 783,-168.5"/>
<text text-anchor="middle" x="808" y="-175.5" font-family="Helvetica,sans-Serif" font-size="10.00" fill="#000000">QString</text>
</a>
</g>
</g>
<!-- Node21&#45;&gt;Node26 -->
<g id="edge28" class="edge">
<title>Node21&#45;&gt;Node26</title>
<path fill="none" stroke="#191970" d="M638.7149,-227.1746C668.0353,-218.7282 719.7134,-203.8162 773.1188,-188.2491"/>
<polygon fill="#191970" stroke="#191970" points="774.1327,-191.5993 782.7527,-185.4392 772.1726,-184.8793 774.1327,-191.5993"/>
</g>
<!-- Node21&#45;&gt;Node27 -->
<g id="edge31" class="edge">
<title>Node21&#45;&gt;Node27</title>
<path fill="none" stroke="#191970" d="M638.5513,-229.3414C678.1959,-221.475 761.0161,-204.937 841.5455,-188.0734"/>
<polygon fill="#191970" stroke="#191970" points="842.2836,-191.4949 851.3517,-186.0159 840.846,-184.644 842.2836,-191.4949"/>
</g>
<!-- Node27&#45;&gt;Node14 -->
<g id="edge32" class="edge">
<title>Node27&#45;&gt;Node14</title>
<path fill="none" stroke="#191970" d="M879.3026,-168.3823C859.959,-147.1871 811.56,-95.2241 767,-56 754.9092,-45.357 740.6226,-34.3473 729.0238,-25.7682"/>
<polygon fill="#191970" stroke="#191970" points="730.8978,-22.8026 720.759,-19.7277 726.7673,-28.4542 730.8978,-22.8026"/>
</g>
<!-- Node28 -->
<g id="node28" class="node">
<title>Node28</title>
<g id="a_node28"><a xlink:title=" ">
<polygon fill="#ffffff" stroke="#bfbfbf" points="856.5,-112.5 856.5,-131.5 905.5,-131.5 905.5,-112.5 856.5,-112.5"/>
<text text-anchor="middle" x="881" y="-119.5" font-family="Helvetica,sans-Serif" font-size="10.00" fill="#000000">QLabel</text>
</a>
</g>
</g>
<!-- Node27&#45;&gt;Node28 -->
<g id="edge33" class="edge">
<title>Node27&#45;&gt;Node28</title>
<path fill="none" stroke="#191970" d="M886.7807,-168.2455C885.8673,-160.9382 884.5868,-150.6944 883.4631,-141.7046"/>
<polygon fill="#191970" stroke="#191970" points="886.9187,-141.1313 882.2053,-131.6427 879.9728,-141.9996 886.9187,-141.1313"/>
</g>
<!-- Node29 -->
<g id="node29" class="node">
<title>Node29</title>
<g id="a_node29"><a xlink:title=" ">
<polygon fill="#ffffff" stroke="#bfbfbf" points="924,-112.5 924,-131.5 980,-131.5 980,-112.5 924,-112.5"/>
<text text-anchor="middle" x="952" y="-119.5" font-family="Helvetica,sans-Serif" font-size="10.00" fill="#000000">QWidget</text>
</a>
</g>
</g>
<!-- Node27&#45;&gt;Node29 -->
<g id="edge34" class="edge">
<title>Node27&#45;&gt;Node29</title>
<path fill="none" stroke="#191970" d="M899.1479,-168.2455C908.5087,-160.0549 922.0858,-148.1749 933.1349,-138.5069"/>
<polygon fill="#191970" stroke="#191970" points="935.7588,-140.8618 940.9798,-131.6427 931.1492,-135.5937 935.7588,-140.8618"/>
</g>
</g>
</svg>
        <g id="navigator" transform="translate(0 0)" fill="#404254">
                <rect fill="#f2f5e9" fill-opacity="0.5" stroke="#606060" stroke-width=".5" x="0" y="0" width="60" height="60"/>
                <use id="zoomplus" xlink:href="#zoomPlus" x="17" y="9" onmousedown="handleZoom(evt,'in')"/>
                <use id="zoomminus" xlink:href="#zoomMin" x="42" y="9" onmousedown="handleZoom(evt,'out')"/>
                <use id="reset" xlink:href="#resetDef" x="30" y="36" onmousedown="handleReset()"/>
                <g id="arrowUp" xlink:href="#dirArrow" transform="translate(30 24)" onmousedown="handlePan(0,-1)">
                  <use xlink:href="#rim" fill="#404040">
                        <set attributeName="fill" to="#808080" begin="arrowUp.mouseover" end="arrowUp.mouseout"/>
                  </use>
                  <path fill="none" stroke="white" stroke-width="1.5" d="M0,-3.0v7 M-2.5,-0.5L0,-3.0L2.5,-0.5"/>
                </g>
                <g id="arrowRight" xlink:href="#dirArrow" transform="rotate(90) translate(36 -43)" onmousedown="handlePan(1,0)">
                  <use xlink:href="#rim" fill="#404040">
                        <set attributeName="fill" to="#808080" begin="arrowRight.mouseover" end="arrowRight.mouseout"/>
                  </use>
                  <path fill="none" stroke="white" stroke-width="1.5" d="M0,-3.0v7 M-2.5,-0.5L0,-3.0L2.5,-0.5"/>
                </g>
                <g id="arrowDown" xlink:href="#dirArrow" transform="rotate(180) translate(-30 -48)" onmousedown="handlePan(0,1)">
                  <use xlink:href="#rim" fill="#404040">
                        <set attributeName="fill" to="#808080" begin="arrowDown.mouseover" end="arrowDown.mouseout"/>
                  </use>
                  <path fill="none" stroke="white" stroke-width="1.5" d="M0,-3.0v7 M-2.5,-0.5L0,-3.0L2.5,-0.5"/>
                </g>
                <g id="arrowLeft" xlink:href="#dirArrow" transform="rotate(270) translate(-36 17)" onmousedown="handlePan(-1,0)">
                  <use xlink:href="#rim" fill="#404040">
                        <set attributeName="fill" to="#808080" begin="arrowLeft.mouseover" end="arrowLeft.mouseout"/>
                  </use>
                  <path fill="none" stroke="white" stroke-width="1.5" d="M0,-3.0v7 M-2.5,-0.5L0,-3.0L2.5,-0.5"/>
                </g>
        </g>
        <svg viewBox="0 0 15 15" width="100%" height="30px" preserveAspectRatio="xMaxYMin meet">
         <g id="arrow_out" transform="scale(0.3 0.3)">
          <a xlink:href="menubar_8cpp__incl_org.svg" target="_base">
           <rect id="button" ry="5" rx="5" y="6" x="6" height="38" width="38"
                fill="#f2f5e9" fill-opacity="0.5" stroke="#606060" stroke-width="1.0"/>
           <path id="arrow"
             d="M 11.500037,31.436501 C 11.940474,20.09759 22.043105,11.32322 32.158766,21.979434 L 37.068811,17.246167 C 37.068811,17.246167 37.088388,32 37.088388,32 L 22.160133,31.978069 C 22.160133,31.978069 26.997745,27.140456 26.997745,27.140456 C 18.528582,18.264221 13.291696,25.230495 11.500037,31.436501 z"
             style="fill:#404040;"/>
          </a>
         </g>
        </svg>
</svg>
