<?xml version="1.0" encoding="UTF-8" standalone="no"?>
<!DOCTYPE svg PUBLIC "-//W3C//DTD SVG 1.1//EN"
 "http://www.w3.org/Graphics/SVG/1.1/DTD/svg11.dtd">
<!-- Generated by graphviz version 2.40.1 (20161225.0304)
 -->
<!-- Title: src/application/scene.cpp Pages: 1 -->
<svg width="934pt" height="308pt"
 viewBox="0.00 0.00 933.50 308.00" xmlns="http://www.w3.org/2000/svg" xmlns:xlink="http://www.w3.org/1999/xlink">
<g id="graph0" class="graph" transform="scale(1 1) rotate(0) translate(4 304)">
<title>src/application/scene.cpp</title>
<polygon fill="#ffffff" stroke="transparent" points="-4,4 -4,-304 929.5,-304 929.5,4 -4,4"/>
<!-- Node1 -->
<g id="node1" class="node">
<title>Node1</title>
<g id="a_node1"><a xlink:title=" ">
<polygon fill="#bfbfbf" stroke="#000000" points="527,-280.5 527,-299.5 657,-299.5 657,-280.5 527,-280.5"/>
<text text-anchor="middle" x="592" y="-287.5" font-family="Helvetica,sans-Serif" font-size="10.00" fill="#000000">src/application/scene.cpp</text>
</a>
</g>
</g>
<!-- Node2 -->
<g id="node2" class="node">
<title>Node2</title>
<g id="a_node2"><a xlink:href="scene_8h.html" target="_top" xlink:title=" ">
<polygon fill="#ffffff" stroke="#000000" points="377,-224.5 377,-243.5 429,-243.5 429,-224.5 377,-224.5"/>
<text text-anchor="middle" x="403" y="-231.5" font-family="Helvetica,sans-Serif" font-size="10.00" fill="#000000">scene.h</text>
</a>
</g>
</g>
<!-- Node1&#45;&gt;Node2 -->
<g id="edge1" class="edge">
<title>Node1&#45;&gt;Node2</title>
<path fill="none" stroke="#191970" d="M559.5097,-280.3733C525.9847,-270.4399 473.8176,-254.983 439.0431,-244.6794"/>
<polygon fill="#191970" stroke="#191970" points="439.8705,-241.2742 429.2882,-241.7891 437.8818,-247.9858 439.8705,-241.2742"/>
</g>
<!-- Node8 -->
<g id="node8" class="node">
<title>Node8</title>
<g id="a_node8"><a xlink:href="maptile_8h.html" target="_top" xlink:title=" ">
<polygon fill="#ffffff" stroke="#000000" points="590,-168.5 590,-187.5 646,-187.5 646,-168.5 590,-168.5"/>
<text text-anchor="middle" x="618" y="-175.5" font-family="Helvetica,sans-Serif" font-size="10.00" fill="#000000">maptile.h</text>
</a>
</g>
</g>
<!-- Node1&#45;&gt;Node8 -->
<g id="edge24" class="edge">
<title>Node1&#45;&gt;Node8</title>
<path fill="none" stroke="#191970" d="M580.1431,-280.2675C566.0909,-267.4864 545.7909,-244.2866 556,-224 562.6737,-210.7387 575.1793,-200.3415 587.2207,-192.8125"/>
<polygon fill="#191970" stroke="#191970" points="589.3201,-195.6422 596.2342,-187.6143 585.823,-189.5783 589.3201,-195.6422"/>
</g>
<!-- Node22 -->
<g id="node22" class="node">
<title>Node22</title>
<g id="a_node22"><a xlink:title=" ">
<polygon fill="#ffffff" stroke="#bfbfbf" points="565,-224.5 565,-243.5 619,-243.5 619,-224.5 565,-224.5"/>
<text text-anchor="middle" x="592" y="-231.5" font-family="Helvetica,sans-Serif" font-size="10.00" fill="#000000">QDebug</text>
</a>
</g>
</g>
<!-- Node1&#45;&gt;Node22 -->
<g id="edge25" class="edge">
<title>Node1&#45;&gt;Node22</title>
<path fill="none" stroke="#191970" d="M592,-280.2455C592,-272.9382 592,-262.6944 592,-253.7046"/>
<polygon fill="#191970" stroke="#191970" points="595.5001,-253.6426 592,-243.6427 588.5001,-253.6427 595.5001,-253.6426"/>
</g>
<!-- Node23 -->
<g id="node23" class="node">
<title>Node23</title>
<g id="a_node23"><a xlink:title=" ">
<polygon fill="#ffffff" stroke="#bfbfbf" points="637,-224.5 637,-243.5 679,-243.5 679,-224.5 637,-224.5"/>
<text text-anchor="middle" x="658" y="-231.5" font-family="Helvetica,sans-Serif" font-size="10.00" fill="#000000">QPen</text>
</a>
</g>
</g>
<!-- Node1&#45;&gt;Node23 -->
<g id="edge26" class="edge">
<title>Node1&#45;&gt;Node23</title>
<path fill="none" stroke="#191970" d="M603.4963,-280.2455C613.2442,-271.9746 627.4259,-259.9416 638.8798,-250.2232"/>
<polygon fill="#191970" stroke="#191970" points="641.2747,-252.7813 646.6354,-243.6427 636.7459,-247.4437 641.2747,-252.7813"/>
</g>
<!-- Node24 -->
<g id="node24" class="node">
<title>Node24</title>
<g id="a_node24"><a xlink:title=" ">
<polygon fill="#ffffff" stroke="#bfbfbf" points="697,-224.5 697,-243.5 753,-243.5 753,-224.5 697,-224.5"/>
<text text-anchor="middle" x="725" y="-231.5" font-family="Helvetica,sans-Serif" font-size="10.00" fill="#000000">QPainter</text>
</a>
</g>
</g>
<!-- Node1&#45;&gt;Node24 -->
<g id="edge27" class="edge">
<title>Node1&#45;&gt;Node24</title>
<path fill="none" stroke="#191970" d="M614.8635,-280.3733C636.405,-271.3032 668.8838,-257.6279 692.9956,-247.4755"/>
<polygon fill="#191970" stroke="#191970" points="694.5767,-250.6075 702.4348,-243.5011 691.8603,-244.156 694.5767,-250.6075"/>
</g>
<!-- Node3 -->
<g id="node3" class="node">
<title>Node3</title>
<g id="a_node3"><a xlink:title=" ">
<polygon fill="#ffffff" stroke="#bfbfbf" points="478,-168.5 478,-187.5 572,-187.5 572,-168.5 478,-168.5"/>
<text text-anchor="middle" x="525" y="-175.5" font-family="Helvetica,sans-Serif" font-size="10.00" fill="#000000">QGraphicsScene</text>
</a>
</g>
</g>
<!-- Node2&#45;&gt;Node3 -->
<g id="edge2" class="edge">
<title>Node2&#45;&gt;Node3</title>
<path fill="none" stroke="#191970" d="M423.9725,-224.3733C443.5567,-215.3838 472.9961,-201.8706 495.051,-191.7471"/>
<polygon fill="#191970" stroke="#191970" points="496.6729,-194.8538 504.3011,-187.5011 493.7527,-188.4919 496.6729,-194.8538"/>
</g>
<!-- Node4 -->
<g id="node4" class="node">
<title>Node4</title>
<g id="a_node4"><a xlink:title=" ">
<polygon fill="#ffffff" stroke="#bfbfbf" points="0,-168.5 0,-187.5 104,-187.5 104,-168.5 0,-168.5"/>
<text text-anchor="middle" x="52" y="-175.5" font-family="Helvetica,sans-Serif" font-size="10.00" fill="#000000">QGraphicsTextItem</text>
</a>
</g>
</g>
<!-- Node2&#45;&gt;Node4 -->
<g id="edge3" class="edge">
<title>Node2&#45;&gt;Node4</title>
<path fill="none" stroke="#191970" d="M376.9972,-229.9217C327.8197,-222.1986 217.5587,-204.8356 114.2174,-188.1905"/>
<polygon fill="#191970" stroke="#191970" points="114.6701,-184.7184 104.2405,-186.5823 113.5561,-191.6292 114.6701,-184.7184"/>
</g>
<!-- Node5 -->
<g id="node5" class="node">
<title>Node5</title>
<g id="a_node5"><a xlink:title=" ">
<polygon fill="#ffffff" stroke="#bfbfbf" points="122.5,-168.5 122.5,-187.5 205.5,-187.5 205.5,-168.5 122.5,-168.5"/>
<text text-anchor="middle" x="164" y="-175.5" font-family="Helvetica,sans-Serif" font-size="10.00" fill="#000000">QGraphicsItem</text>
</a>
</g>
</g>
<!-- Node2&#45;&gt;Node5 -->
<g id="edge4" class="edge">
<title>Node2&#45;&gt;Node5</title>
<path fill="none" stroke="#191970" d="M376.9678,-227.9004C338.1451,-218.8039 264.3309,-201.5085 214.6363,-189.8646"/>
<polygon fill="#191970" stroke="#191970" points="215.263,-186.4167 204.7282,-187.543 213.666,-193.2321 215.263,-186.4167"/>
</g>
<!-- Node6 -->
<g id="node6" class="node">
<title>Node6</title>
<g id="a_node6"><a xlink:title=" ">
<polygon fill="#ffffff" stroke="#bfbfbf" points="224,-168.5 224,-187.5 328,-187.5 328,-168.5 224,-168.5"/>
<text text-anchor="middle" x="276" y="-175.5" font-family="Helvetica,sans-Serif" font-size="10.00" fill="#000000">QGraphicsRectItem</text>
</a>
</g>
</g>
<!-- Node2&#45;&gt;Node6 -->
<g id="edge5" class="edge">
<title>Node2&#45;&gt;Node6</title>
<path fill="none" stroke="#191970" d="M381.1679,-224.3733C360.6897,-215.3435 329.8601,-201.7494 306.8681,-191.6111"/>
<polygon fill="#191970" stroke="#191970" points="308.1093,-188.3333 297.5472,-187.5011 305.285,-194.7383 308.1093,-188.3333"/>
</g>
<!-- Node7 -->
<g id="node7" class="node">
<title>Node7</title>
<g id="a_node7"><a xlink:title=" ">
<polygon fill="#ffffff" stroke="#bfbfbf" points="346.5,-168.5 346.5,-187.5 459.5,-187.5 459.5,-168.5 346.5,-168.5"/>
<text text-anchor="middle" x="403" y="-175.5" font-family="Helvetica,sans-Serif" font-size="10.00" fill="#000000">QGraphicsEllipseItem</text>
</a>
</g>
</g>
<!-- Node2&#45;&gt;Node7 -->
<g id="edge6" class="edge">
<title>Node2&#45;&gt;Node7</title>
<path fill="none" stroke="#191970" d="M403,-224.2455C403,-216.9382 403,-206.6944 403,-197.7046"/>
<polygon fill="#191970" stroke="#191970" points="406.5001,-197.6426 403,-187.6427 399.5001,-197.6427 406.5001,-197.6426"/>
</g>
<!-- Node2&#45;&gt;Node8 -->
<g id="edge7" class="edge">
<title>Node2&#45;&gt;Node8</title>
<path fill="none" stroke="#191970" d="M429.2627,-227.3098C462.1772,-218.9042 520.572,-203.9225 579.8269,-188.2915"/>
<polygon fill="#191970" stroke="#191970" points="580.9527,-191.6142 589.7269,-185.6759 579.1646,-184.8464 580.9527,-191.6142"/>
</g>
<!-- Node9 -->
<g id="node9" class="node">
<title>Node9</title>
<g id="a_node9"><a xlink:title=" ">
<polygon fill="#ffffff" stroke="#bfbfbf" points="459.5,-112.5 459.5,-131.5 576.5,-131.5 576.5,-112.5 459.5,-112.5"/>
<text text-anchor="middle" x="518" y="-119.5" font-family="Helvetica,sans-Serif" font-size="10.00" fill="#000000">QGraphicsPixmapItem</text>
</a>
</g>
</g>
<!-- Node8&#45;&gt;Node9 -->
<g id="edge8" class="edge">
<title>Node8&#45;&gt;Node9</title>
<path fill="none" stroke="#191970" d="M600.5813,-168.2455C584.9515,-159.4928 561.7981,-146.527 543.9815,-136.5496"/>
<polygon fill="#191970" stroke="#191970" points="545.6543,-133.475 535.2191,-131.6427 542.234,-139.5825 545.6543,-133.475"/>
</g>
<!-- Node10 -->
<g id="node10" class="node">
<title>Node10</title>
<g id="a_node10"><a xlink:href="main_8h.html" target="_top" xlink:title=" ">
<polygon fill="#ffffff" stroke="#000000" points="595,-112.5 595,-131.5 641,-131.5 641,-112.5 595,-112.5"/>
<text text-anchor="middle" x="618" y="-119.5" font-family="Helvetica,sans-Serif" font-size="10.00" fill="#000000">main.h</text>
</a>
</g>
</g>
<!-- Node8&#45;&gt;Node10 -->
<g id="edge9" class="edge">
<title>Node8&#45;&gt;Node10</title>
<path fill="none" stroke="#191970" d="M618,-168.2455C618,-160.9382 618,-150.6944 618,-141.7046"/>
<polygon fill="#191970" stroke="#191970" points="621.5001,-141.6426 618,-131.6427 614.5001,-141.6427 621.5001,-141.6426"/>
</g>
<!-- Node20 -->
<g id="node20" class="node">
<title>Node20</title>
<g id="a_node20"><a xlink:href="city_8h.html" target="_top" xlink:title=" ">
<polygon fill="#ffffff" stroke="#000000" points="659.5,-112.5 659.5,-131.5 698.5,-131.5 698.5,-112.5 659.5,-112.5"/>
<text text-anchor="middle" x="679" y="-119.5" font-family="Helvetica,sans-Serif" font-size="10.00" fill="#000000">city.h</text>
</a>
</g>
</g>
<!-- Node8&#45;&gt;Node20 -->
<g id="edge21" class="edge">
<title>Node8&#45;&gt;Node20</title>
<path fill="none" stroke="#191970" d="M628.6254,-168.2455C637.5473,-160.0549 650.488,-148.1749 661.0192,-138.5069"/>
<polygon fill="#191970" stroke="#191970" points="663.4968,-140.9837 668.4964,-131.6427 658.7629,-135.8271 663.4968,-140.9837"/>
</g>
<!-- Node11 -->
<g id="node11" class="node">
<title>Node11</title>
<g id="a_node11"><a xlink:href="graphicsmanager_8h.html" target="_top" xlink:title=" ">
<polygon fill="#ffffff" stroke="#000000" points="637.5,-56.5 637.5,-75.5 740.5,-75.5 740.5,-56.5 637.5,-56.5"/>
<text text-anchor="middle" x="689" y="-63.5" font-family="Helvetica,sans-Serif" font-size="10.00" fill="#000000">graphicsmanager.h</text>
</a>
</g>
</g>
<!-- Node10&#45;&gt;Node11 -->
<g id="edge10" class="edge">
<title>Node10&#45;&gt;Node11</title>
<path fill="none" stroke="#191970" d="M630.3673,-112.2455C640.9554,-103.8943 656.4064,-91.7076 668.7893,-81.9408"/>
<polygon fill="#191970" stroke="#191970" points="671.0903,-84.5837 676.7745,-75.6427 666.7553,-79.0875 671.0903,-84.5837"/>
</g>
<!-- Node15 -->
<g id="node15" class="node">
<title>Node15</title>
<g id="a_node15"><a xlink:href="mainwindow_8h.html" target="_top" xlink:title=" ">
<polygon fill="#ffffff" stroke="#000000" points="759,-56.5 759,-75.5 839,-75.5 839,-56.5 759,-56.5"/>
<text text-anchor="middle" x="799" y="-63.5" font-family="Helvetica,sans-Serif" font-size="10.00" fill="#000000">mainwindow.h</text>
</a>
</g>
</g>
<!-- Node10&#45;&gt;Node15 -->
<g id="edge14" class="edge">
<title>Node10&#45;&gt;Node15</title>
<path fill="none" stroke="#191970" d="M641.0691,-114.7805C644.0731,-113.8435 647.1096,-112.8978 650,-112 686.5848,-100.6363 728.2494,-87.7807 758.2003,-78.5545"/>
<polygon fill="#191970" stroke="#191970" points="759.3574,-81.8604 767.8842,-75.5721 757.297,-75.1705 759.3574,-81.8604"/>
</g>
<!-- Node18 -->
<g id="node18" class="node">
<title>Node18</title>
<g id="a_node18"><a xlink:href="datamodel_8h.html" target="_top" xlink:title=" ">
<polygon fill="#ffffff" stroke="#000000" points="507.5,-56.5 507.5,-75.5 580.5,-75.5 580.5,-56.5 507.5,-56.5"/>
<text text-anchor="middle" x="544" y="-63.5" font-family="Helvetica,sans-Serif" font-size="10.00" fill="#000000">datamodel.h</text>
</a>
</g>
</g>
<!-- Node10&#45;&gt;Node18 -->
<g id="edge17" class="edge">
<title>Node10&#45;&gt;Node18</title>
<path fill="none" stroke="#191970" d="M605.1102,-112.2455C594.0746,-103.8943 577.9708,-91.7076 565.0647,-81.9408"/>
<polygon fill="#191970" stroke="#191970" points="566.8283,-78.8862 556.7421,-75.6427 562.6041,-84.4681 566.8283,-78.8862"/>
</g>
<!-- Node19 -->
<g id="node19" class="node">
<title>Node19</title>
<g id="a_node19"><a xlink:title=" ">
<polygon fill="#ffffff" stroke="#bfbfbf" points="469.5,-.5 469.5,-19.5 518.5,-19.5 518.5,-.5 469.5,-.5"/>
<text text-anchor="middle" x="494" y="-7.5" font-family="Helvetica,sans-Serif" font-size="10.00" fill="#000000">QLabel</text>
</a>
</g>
</g>
<!-- Node10&#45;&gt;Node19 -->
<g id="edge20" class="edge">
<title>Node10&#45;&gt;Node19</title>
<path fill="none" stroke="#191970" d="M594.9475,-114.6546C561.8031,-103.8744 503.986,-84.1646 498,-76 488.3597,-62.8511 488.1852,-43.9767 489.9405,-29.7774"/>
<polygon fill="#191970" stroke="#191970" points="493.4465,-30.0267 491.618,-19.5909 486.5396,-28.8893 493.4465,-30.0267"/>
</g>
<!-- Node12 -->
<g id="node12" class="node">
<title>Node12</title>
<g id="a_node12"><a xlink:title=" ">
<polygon fill="#ffffff" stroke="#bfbfbf" points="681,-.5 681,-19.5 739,-19.5 739,-.5 681,-.5"/>
<text text-anchor="middle" x="710" y="-7.5" font-family="Helvetica,sans-Serif" font-size="10.00" fill="#000000">QPixmap</text>
</a>
</g>
</g>
<!-- Node11&#45;&gt;Node12 -->
<g id="edge11" class="edge">
<title>Node11&#45;&gt;Node12</title>
<path fill="none" stroke="#191970" d="M692.6579,-56.2455C695.4584,-48.7776 699.409,-38.2427 702.8324,-29.1137"/>
<polygon fill="#191970" stroke="#191970" points="706.1499,-30.2349 706.384,-19.6427 699.5955,-27.777 706.1499,-30.2349"/>
</g>
<!-- Node13 -->
<g id="node13" class="node">
<title>Node13</title>
<g id="a_node13"><a xlink:title=" ">
<polygon fill="#ffffff" stroke="#bfbfbf" points="609.5,-.5 609.5,-19.5 662.5,-19.5 662.5,-.5 609.5,-.5"/>
<text text-anchor="middle" x="636" y="-7.5" font-family="Helvetica,sans-Serif" font-size="10.00" fill="#000000">QImage</text>
</a>
</g>
</g>
<!-- Node11&#45;&gt;Node13 -->
<g id="edge12" class="edge">
<title>Node11&#45;&gt;Node13</title>
<path fill="none" stroke="#191970" d="M679.7681,-56.2455C672.1683,-48.2155 661.2123,-36.6394 652.1632,-27.0781"/>
<polygon fill="#191970" stroke="#191970" points="654.542,-24.4998 645.1261,-19.6427 649.4579,-29.3115 654.542,-24.4998"/>
</g>
<!-- Node14 -->
<g id="node14" class="node">
<title>Node14</title>
<g id="a_node14"><a xlink:title=" ">
<polygon fill="#ffffff" stroke="#bfbfbf" points="550.5,-.5 550.5,-19.5 591.5,-19.5 591.5,-.5 550.5,-.5"/>
<text text-anchor="middle" x="571" y="-7.5" font-family="Helvetica,sans-Serif" font-size="10.00" fill="#000000">string</text>
</a>
</g>
</g>
<!-- Node11&#45;&gt;Node14 -->
<g id="edge13" class="edge">
<title>Node11&#45;&gt;Node14</title>
<path fill="none" stroke="#191970" d="M668.7151,-56.3733C649.8579,-47.4241 621.554,-33.9917 600.2545,-23.8835"/>
<polygon fill="#191970" stroke="#191970" points="601.5551,-20.6266 591.0202,-19.5011 598.5539,-26.9506 601.5551,-20.6266"/>
</g>
<!-- Node16 -->
<g id="node16" class="node">
<title>Node16</title>
<g id="a_node16"><a xlink:title=" ">
<polygon fill="#ffffff" stroke="#bfbfbf" points="757.5,-.5 757.5,-19.5 840.5,-19.5 840.5,-.5 757.5,-.5"/>
<text text-anchor="middle" x="799" y="-7.5" font-family="Helvetica,sans-Serif" font-size="10.00" fill="#000000">QMainWindow</text>
</a>
</g>
</g>
<!-- Node15&#45;&gt;Node16 -->
<g id="edge15" class="edge">
<title>Node15&#45;&gt;Node16</title>
<path fill="none" stroke="#191970" d="M799,-56.2455C799,-48.9382 799,-38.6944 799,-29.7046"/>
<polygon fill="#191970" stroke="#191970" points="802.5001,-29.6426 799,-19.6427 795.5001,-29.6427 802.5001,-29.6426"/>
</g>
<!-- Node17 -->
<g id="node17" class="node">
<title>Node17</title>
<g id="a_node17"><a xlink:title=" ">
<polygon fill="#ffffff" stroke="#bfbfbf" points="858.5,-.5 858.5,-19.5 925.5,-19.5 925.5,-.5 858.5,-.5"/>
<text text-anchor="middle" x="892" y="-7.5" font-family="Helvetica,sans-Serif" font-size="10.00" fill="#000000">QKeyEvent</text>
</a>
</g>
</g>
<!-- Node15&#45;&gt;Node17 -->
<g id="edge16" class="edge">
<title>Node15&#45;&gt;Node17</title>
<path fill="none" stroke="#191970" d="M815.1994,-56.2455C829.6018,-47.5731 850.8732,-34.7645 867.3799,-24.825"/>
<polygon fill="#191970" stroke="#191970" points="869.225,-27.7996 875.9863,-19.6427 865.614,-21.8028 869.225,-27.7996"/>
</g>
<!-- Node18&#45;&gt;Node14 -->
<g id="edge18" class="edge">
<title>Node18&#45;&gt;Node14</title>
<path fill="none" stroke="#191970" d="M548.703,-56.2455C552.3424,-48.6973 557.4924,-38.0158 561.9262,-28.8197"/>
<polygon fill="#191970" stroke="#191970" points="565.1605,-30.1704 566.3509,-19.6427 558.8551,-27.1303 565.1605,-30.1704"/>
</g>
<!-- Node18&#45;&gt;Node19 -->
<g id="edge19" class="edge">
<title>Node18&#45;&gt;Node19</title>
<path fill="none" stroke="#191970" d="M535.2907,-56.2455C528.1927,-48.2958 517.9916,-36.8706 509.505,-27.3656"/>
<polygon fill="#191970" stroke="#191970" points="511.8805,-24.771 502.6095,-19.6427 506.6589,-29.4331 511.8805,-24.771"/>
</g>
<!-- Node20&#45;&gt;Node14 -->
<g id="edge22" class="edge">
<title>Node20&#45;&gt;Node14</title>
<path fill="none" stroke="#191970" d="M667.2796,-112.1615C656.6905,-103.104 640.8436,-89.1233 628,-76 612.7111,-60.3782 596.5378,-41.385 585.3404,-27.7917"/>
<polygon fill="#191970" stroke="#191970" points="587.7943,-25.2629 578.7599,-19.7284 582.371,-29.6888 587.7943,-25.2629"/>
</g>
<!-- Node21 -->
<g id="node21" class="node">
<title>Node21</title>
<g id="a_node21"><a xlink:title=" ">
<polygon fill="#ffffff" stroke="#bfbfbf" points="857,-56.5 857,-75.5 901,-75.5 901,-56.5 857,-56.5"/>
<text text-anchor="middle" x="879" y="-63.5" font-family="Helvetica,sans-Serif" font-size="10.00" fill="#000000">vector</text>
</a>
</g>
</g>
<!-- Node20&#45;&gt;Node21 -->
<g id="edge23" class="edge">
<title>Node20&#45;&gt;Node21</title>
<path fill="none" stroke="#191970" d="M698.6004,-116.9799C728.5142,-109.2514 787.5584,-93.735 846.7971,-76.2681"/>
<polygon fill="#191970" stroke="#191970" points="848.0959,-79.5337 856.6874,-73.3339 846.1049,-72.8228 848.0959,-79.5337"/>
</g>
</g>
</svg>
