<?xml version="1.0" encoding="UTF-8" standalone="no"?>
<!DOCTYPE svg PUBLIC "-//W3C//DTD SVG 1.1//EN"
 "http://www.w3.org/Graphics/SVG/1.1/DTD/svg11.dtd">
<!-- Generated by graphviz version 2.40.1 (20161225.0304)
 -->
<!-- Title: src/application_server/sidepanel.cpp Pages: 1 -->
<svg width="398pt" height="207pt"
 viewBox="0.00 0.00 398.04 207.00" xmlns="http://www.w3.org/2000/svg" xmlns:xlink="http://www.w3.org/1999/xlink">
<g id="graph0" class="graph" transform="scale(1 1) rotate(0) translate(4 203)">
<title>src/application_server/sidepanel.cpp</title>
<polygon fill="#ffffff" stroke="transparent" points="-4,4 -4,-203 394.0388,-203 394.0388,4 -4,4"/>
<!-- Node1 -->
<g id="node1" class="node">
<title>Node1</title>
<g id="a_node1"><a xlink:title=" ">
<polygon fill="#bfbfbf" stroke="#000000" points="171.5388,-168.5 171.5388,-198.5 286.5388,-198.5 286.5388,-168.5 171.5388,-168.5"/>
<text text-anchor="start" x="179.5388" y="-186.5" font-family="Helvetica,sans-Serif" font-size="10.00" fill="#000000">src/application_server</text>
<text text-anchor="middle" x="229.0388" y="-175.5" font-family="Helvetica,sans-Serif" font-size="10.00" fill="#000000">/sidepanel.cpp</text>
</a>
</g>
</g>
<!-- Node2 -->
<g id="node2" class="node">
<title>Node2</title>
<g id="a_node2"><a xlink:href="sidepanel_8h.html" target="_top" xlink:title=" ">
<polygon fill="#ffffff" stroke="#000000" points="62.0388,-112.5 62.0388,-131.5 130.0388,-131.5 130.0388,-112.5 62.0388,-112.5"/>
<text text-anchor="middle" x="96.0388" y="-119.5" font-family="Helvetica,sans-Serif" font-size="10.00" fill="#000000">sidepanel.h</text>
</a>
</g>
</g>
<!-- Node1&#45;&gt;Node2 -->
<g id="edge1" class="edge">
<title>Node1&#45;&gt;Node2</title>
<path fill="none" stroke="#191970" d="M196.5034,-168.4554C174.896,-158.464 146.749,-145.4487 125.7468,-135.7372"/>
<polygon fill="#191970" stroke="#191970" points="127.1947,-132.5506 116.6491,-131.5303 124.2567,-138.9043 127.1947,-132.5506"/>
</g>
<!-- Node8 -->
<g id="node8" class="node">
<title>Node8</title>
<g id="a_node8"><a xlink:title=" ">
<polygon fill="#ffffff" stroke="#bfbfbf" points="148.0388,-112.5 148.0388,-131.5 218.0388,-131.5 218.0388,-112.5 148.0388,-112.5"/>
<text text-anchor="middle" x="183.0388" y="-119.5" font-family="Helvetica,sans-Serif" font-size="10.00" fill="#000000">QGroupBox</text>
</a>
</g>
</g>
<!-- Node1&#45;&gt;Node8 -->
<g id="edge9" class="edge">
<title>Node1&#45;&gt;Node8</title>
<path fill="none" stroke="#191970" d="M217.668,-168.2977C211.2828,-159.7609 203.2747,-149.0545 196.5683,-140.0883"/>
<polygon fill="#191970" stroke="#191970" points="199.1964,-137.7584 190.404,-131.8469 193.5909,-141.9511 199.1964,-137.7584"/>
</g>
<!-- Node9 -->
<g id="node9" class="node">
<title>Node9</title>
<g id="a_node9"><a xlink:title=" ">
<polygon fill="#ffffff" stroke="#bfbfbf" points="236.5388,-112.5 236.5388,-131.5 315.5388,-131.5 315.5388,-112.5 236.5388,-112.5"/>
<text text-anchor="middle" x="276.0388" y="-119.5" font-family="Helvetica,sans-Serif" font-size="10.00" fill="#000000">QVBoxLayout</text>
</a>
</g>
</g>
<!-- Node1&#45;&gt;Node9 -->
<g id="edge10" class="edge">
<title>Node1&#45;&gt;Node9</title>
<path fill="none" stroke="#191970" d="M240.6568,-168.2977C247.2488,-159.672 255.5337,-148.8312 262.4289,-139.8087"/>
<polygon fill="#191970" stroke="#191970" points="265.2223,-141.9176 268.5135,-131.8469 259.6605,-137.6671 265.2223,-141.9176"/>
</g>
<!-- Node10 -->
<g id="node10" class="node">
<title>Node10</title>
<g id="a_node10"><a xlink:title=" ">
<polygon fill="#ffffff" stroke="#bfbfbf" points="334.0388,-112.5 334.0388,-131.5 390.0388,-131.5 390.0388,-112.5 334.0388,-112.5"/>
<text text-anchor="middle" x="362.0388" y="-119.5" font-family="Helvetica,sans-Serif" font-size="10.00" fill="#000000">QPalette</text>
</a>
</g>
</g>
<!-- Node1&#45;&gt;Node10 -->
<g id="edge11" class="edge">
<title>Node1&#45;&gt;Node10</title>
<path fill="none" stroke="#191970" d="M261.5743,-168.4554C283.1817,-158.464 311.3287,-145.4487 332.3308,-135.7372"/>
<polygon fill="#191970" stroke="#191970" points="333.8209,-138.9043 341.4285,-131.5303 330.8829,-132.5506 333.8209,-138.9043"/>
</g>
<!-- Node3 -->
<g id="node3" class="node">
<title>Node3</title>
<g id="a_node3"><a xlink:title=" ">
<polygon fill="#ffffff" stroke="#bfbfbf" points="2.0388,-.5 2.0388,-19.5 58.0388,-19.5 58.0388,-.5 2.0388,-.5"/>
<text text-anchor="middle" x="30.0388" y="-7.5" font-family="Helvetica,sans-Serif" font-size="10.00" fill="#000000">QWidget</text>
</a>
</g>
</g>
<!-- Node2&#45;&gt;Node3 -->
<g id="edge2" class="edge">
<title>Node2&#45;&gt;Node3</title>
<path fill="none" stroke="#191970" d="M61.8422,-114.4848C41.2361,-108.0045 16.6191,-96.3553 4.0388,-76 -5.3088,-60.8751 4.1565,-41.8183 14.1881,-28.0751"/>
<polygon fill="#191970" stroke="#191970" points="17.1962,-29.915 20.6701,-19.9059 11.7126,-25.564 17.1962,-29.915"/>
</g>
<!-- Node4 -->
<g id="node4" class="node">
<title>Node4</title>
<g id="a_node4"><a xlink:title=" ">
<polygon fill="#ffffff" stroke="#bfbfbf" points="13.0388,-56.5 13.0388,-75.5 87.0388,-75.5 87.0388,-56.5 13.0388,-56.5"/>
<text text-anchor="middle" x="50.0388" y="-63.5" font-family="Helvetica,sans-Serif" font-size="10.00" fill="#000000">QGridLayout</text>
</a>
</g>
</g>
<!-- Node2&#45;&gt;Node4 -->
<g id="edge3" class="edge">
<title>Node2&#45;&gt;Node4</title>
<path fill="none" stroke="#191970" d="M88.0262,-112.2455C81.5621,-104.3761 72.3004,-93.101 64.5405,-83.6542"/>
<polygon fill="#191970" stroke="#191970" points="67.0116,-81.1484 57.9596,-75.6427 61.6025,-85.5916 67.0116,-81.1484"/>
</g>
<!-- Node5 -->
<g id="node5" class="node">
<title>Node5</title>
<g id="a_node5"><a xlink:title=" ">
<polygon fill="#ffffff" stroke="#bfbfbf" points="181.5388,-.5 181.5388,-19.5 230.5388,-19.5 230.5388,-.5 181.5388,-.5"/>
<text text-anchor="middle" x="206.0388" y="-7.5" font-family="Helvetica,sans-Serif" font-size="10.00" fill="#000000">QLabel</text>
</a>
</g>
</g>
<!-- Node2&#45;&gt;Node5 -->
<g id="edge4" class="edge">
<title>Node2&#45;&gt;Node5</title>
<path fill="none" stroke="#191970" d="M130.2646,-112.5862C149.8265,-105.5346 173.3209,-93.9529 188.0388,-76 198.7335,-62.9546 203.1018,-44.069 204.8716,-29.839"/>
<polygon fill="#191970" stroke="#191970" points="208.3803,-29.9027 205.8051,-19.6256 201.4094,-29.2655 208.3803,-29.9027"/>
</g>
<!-- Node6 -->
<g id="node6" class="node">
<title>Node6</title>
<g id="a_node6"><a xlink:href="datamodel_8h.html" target="_top" xlink:title=" ">
<polygon fill="#ffffff" stroke="#000000" points="105.5388,-56.5 105.5388,-75.5 178.5388,-75.5 178.5388,-56.5 105.5388,-56.5"/>
<text text-anchor="middle" x="142.0388" y="-63.5" font-family="Helvetica,sans-Serif" font-size="10.00" fill="#000000">datamodel.h</text>
</a>
</g>
</g>
<!-- Node2&#45;&gt;Node6 -->
<g id="edge5" class="edge">
<title>Node2&#45;&gt;Node6</title>
<path fill="none" stroke="#191970" d="M104.0514,-112.2455C110.5156,-104.3761 119.7773,-93.101 127.5372,-83.6542"/>
<polygon fill="#191970" stroke="#191970" points="130.4752,-85.5916 134.1181,-75.6427 125.0661,-81.1484 130.4752,-85.5916"/>
</g>
<!-- Node6&#45;&gt;Node3 -->
<g id="edge8" class="edge">
<title>Node6&#45;&gt;Node3</title>
<path fill="none" stroke="#191970" d="M122.7853,-56.3733C104.9677,-47.4644 78.2642,-34.1127 58.0794,-24.0203"/>
<polygon fill="#191970" stroke="#191970" points="59.5506,-20.8428 49.0411,-19.5011 56.4201,-27.1038 59.5506,-20.8428"/>
</g>
<!-- Node6&#45;&gt;Node5 -->
<g id="edge7" class="edge">
<title>Node6&#45;&gt;Node5</title>
<path fill="none" stroke="#191970" d="M153.1868,-56.2455C162.5475,-48.0549 176.1246,-36.1749 187.1738,-26.5069"/>
<polygon fill="#191970" stroke="#191970" points="189.7976,-28.8618 195.0186,-19.6427 185.1881,-23.5937 189.7976,-28.8618"/>
</g>
<!-- Node7 -->
<g id="node7" class="node">
<title>Node7</title>
<g id="a_node7"><a xlink:title=" ">
<polygon fill="#ffffff" stroke="#bfbfbf" points="121.5388,-.5 121.5388,-19.5 162.5388,-19.5 162.5388,-.5 121.5388,-.5"/>
<text text-anchor="middle" x="142.0388" y="-7.5" font-family="Helvetica,sans-Serif" font-size="10.00" fill="#000000">string</text>
</a>
</g>
</g>
<!-- Node6&#45;&gt;Node7 -->
<g id="edge6" class="edge">
<title>Node6&#45;&gt;Node7</title>
<path fill="none" stroke="#191970" d="M142.0388,-56.2455C142.0388,-48.9382 142.0388,-38.6944 142.0388,-29.7046"/>
<polygon fill="#191970" stroke="#191970" points="145.5389,-29.6426 142.0388,-19.6427 138.5389,-29.6427 145.5389,-29.6426"/>
</g>
</g>
</svg>
