<?xml version="1.0" encoding="UTF-8" standalone="no"?>
<!DOCTYPE svg PUBLIC "-//W3C//DTD SVG 1.1//EN"
 "http://www.w3.org/Graphics/SVG/1.1/DTD/svg11.dtd">
<!-- Generated by graphviz version 2.40.1 (20161225.0304)
 -->
<!-- Title: src/application_server/view.h Pages: 1 -->
<svg width="1030pt" height="375pt"
 viewBox="0.00 0.00 1030.36 375.00" xmlns="http://www.w3.org/2000/svg" xmlns:xlink="http://www.w3.org/1999/xlink">
<g id="graph0" class="graph" transform="scale(1 1) rotate(0) translate(4 371)">
<title>src/application_server/view.h</title>
<polygon fill="#ffffff" stroke="transparent" points="-4,4 -4,-371 1026.3608,-371 1026.3608,4 -4,4"/>
<!-- Node1 -->
<g id="node1" class="node">
<title>Node1</title>
<g id="a_node1"><a xlink:title=" ">
<polygon fill="#bfbfbf" stroke="#000000" points="186.8608,-336.5 186.8608,-366.5 301.8608,-366.5 301.8608,-336.5 186.8608,-336.5"/>
<text text-anchor="start" x="194.8608" y="-354.5" font-family="Helvetica,sans-Serif" font-size="10.00" fill="#000000">src/application_server</text>
<text text-anchor="middle" x="244.3608" y="-343.5" font-family="Helvetica,sans-Serif" font-size="10.00" fill="#000000">/view.h</text>
</a>
</g>
</g>
<!-- Node2 -->
<g id="node2" class="node">
<title>Node2</title>
<g id="a_node2"><a xlink:title=" ">
<polygon fill="#ffffff" stroke="#bfbfbf" points="90.8608,-280.5 90.8608,-299.5 177.8608,-299.5 177.8608,-280.5 90.8608,-280.5"/>
<text text-anchor="middle" x="134.3608" y="-287.5" font-family="Helvetica,sans-Serif" font-size="10.00" fill="#000000">QGraphicsView</text>
</a>
</g>
</g>
<!-- Node1&#45;&gt;Node2 -->
<g id="edge1" class="edge">
<title>Node1&#45;&gt;Node2</title>
<path fill="none" stroke="#191970" d="M217.4518,-336.4554C200.064,-326.734 177.556,-314.15 160.3525,-304.5317"/>
<polygon fill="#191970" stroke="#191970" points="161.8434,-301.3554 151.4069,-299.5303 158.4274,-307.4653 161.8434,-301.3554"/>
</g>
<!-- Node3 -->
<g id="node3" class="node">
<title>Node3</title>
<g id="a_node3"><a xlink:href="main_8h.html" target="_top" xlink:title=" ">
<polygon fill="#ffffff" stroke="#000000" points="196.3608,-280.5 196.3608,-299.5 242.3608,-299.5 242.3608,-280.5 196.3608,-280.5"/>
<text text-anchor="middle" x="219.3608" y="-287.5" font-family="Helvetica,sans-Serif" font-size="10.00" fill="#000000">main.h</text>
</a>
</g>
</g>
<!-- Node1&#45;&gt;Node3 -->
<g id="edge2" class="edge">
<title>Node1&#45;&gt;Node3</title>
<path fill="none" stroke="#191970" d="M238.1811,-336.2977C234.8554,-328.1166 230.7198,-317.943 227.173,-309.2179"/>
<polygon fill="#191970" stroke="#191970" points="230.3718,-307.7927 223.3636,-299.8469 223.8872,-310.4288 230.3718,-307.7927"/>
</g>
<!-- Node7 -->
<g id="node7" class="node">
<title>Node7</title>
<g id="a_node7"><a xlink:href="datamodel_8h.html" target="_top" xlink:title=" ">
<polygon fill="#ffffff" stroke="#000000" points="198.8608,-168.5 198.8608,-187.5 271.8608,-187.5 271.8608,-168.5 198.8608,-168.5"/>
<text text-anchor="middle" x="235.3608" y="-175.5" font-family="Helvetica,sans-Serif" font-size="10.00" fill="#000000">datamodel.h</text>
</a>
</g>
</g>
<!-- Node1&#45;&gt;Node7 -->
<g id="edge38" class="edge">
<title>Node1&#45;&gt;Node7</title>
<path fill="none" stroke="#191970" d="M246.9871,-336.2316C248.6087,-326.013 250.5326,-312.2435 251.3608,-300 253.8129,-263.7534 245.9459,-221.8241 240.388,-197.7589"/>
<polygon fill="#191970" stroke="#191970" points="243.7233,-196.6604 237.9713,-187.7629 236.9193,-198.3054 243.7233,-196.6604"/>
</g>
<!-- Node17 -->
<g id="node17" class="node">
<title>Node17</title>
<g id="a_node17"><a xlink:href="scene_8h.html" target="_top" xlink:title=" ">
<polygon fill="#ffffff" stroke="#000000" points="719.3608,-168.5 719.3608,-187.5 771.3608,-187.5 771.3608,-168.5 719.3608,-168.5"/>
<text text-anchor="middle" x="745.3608" y="-175.5" font-family="Helvetica,sans-Serif" font-size="10.00" fill="#000000">scene.h</text>
</a>
</g>
</g>
<!-- Node1&#45;&gt;Node17 -->
<g id="edge37" class="edge">
<title>Node1&#45;&gt;Node17</title>
<path fill="none" stroke="#191970" d="M287.9449,-336.4065C385.4832,-302.6283 619.8217,-221.4751 709.5633,-190.3969"/>
<polygon fill="#191970" stroke="#191970" points="710.9747,-193.6122 719.2787,-187.0324 708.6839,-186.9976 710.9747,-193.6122"/>
</g>
<!-- Node4 -->
<g id="node4" class="node">
<title>Node4</title>
<g id="a_node4"><a xlink:href="mainwindow_8h.html" target="_top" xlink:title=" ">
<polygon fill="#ffffff" stroke="#000000" points="107.3608,-224.5 107.3608,-243.5 187.3608,-243.5 187.3608,-224.5 107.3608,-224.5"/>
<text text-anchor="middle" x="147.3608" y="-231.5" font-family="Helvetica,sans-Serif" font-size="10.00" fill="#000000">mainwindow.h</text>
</a>
</g>
</g>
<!-- Node3&#45;&gt;Node4 -->
<g id="edge3" class="edge">
<title>Node3&#45;&gt;Node4</title>
<path fill="none" stroke="#191970" d="M206.8194,-280.2455C196.0821,-271.8943 180.4135,-259.7076 167.8562,-249.9408"/>
<polygon fill="#191970" stroke="#191970" points="169.8009,-247.0194 159.7586,-243.6427 165.5033,-252.5449 169.8009,-247.0194"/>
</g>
<!-- Node3&#45;&gt;Node7 -->
<g id="edge6" class="edge">
<title>Node3&#45;&gt;Node7</title>
<path fill="none" stroke="#191970" d="M220.725,-280.4509C223.3346,-262.184 229.0815,-221.9553 232.5469,-197.6976"/>
<polygon fill="#191970" stroke="#191970" points="236.0507,-197.9194 234.0001,-187.5249 229.121,-196.9294 236.0507,-197.9194"/>
</g>
<!-- Node9 -->
<g id="node9" class="node">
<title>Node9</title>
<g id="a_node9"><a xlink:title=" ">
<polygon fill="#ffffff" stroke="#bfbfbf" points="49.8608,-112.5 49.8608,-131.5 98.8608,-131.5 98.8608,-112.5 49.8608,-112.5"/>
<text text-anchor="middle" x="74.3608" y="-119.5" font-family="Helvetica,sans-Serif" font-size="10.00" fill="#000000">QLabel</text>
</a>
</g>
</g>
<!-- Node3&#45;&gt;Node9 -->
<g id="edge10" class="edge">
<title>Node3&#45;&gt;Node9</title>
<path fill="none" stroke="#191970" d="M196.2143,-282.7864C144.7993,-266.2195 23.9851,-224.0983 3.3608,-188 -8.9477,-166.4565 16.4683,-147.8373 40.2402,-135.9193"/>
<polygon fill="#191970" stroke="#191970" points="41.9781,-138.9693 49.5279,-131.5362 38.9906,-132.6388 41.9781,-138.9693"/>
</g>
<!-- Node11 -->
<g id="node11" class="node">
<title>Node11</title>
<g id="a_node11"><a xlink:href="client_8h.html" target="_top" xlink:title=" ">
<polygon fill="#ffffff" stroke="#000000" points="404.8608,-224.5 404.8608,-243.5 451.8608,-243.5 451.8608,-224.5 404.8608,-224.5"/>
<text text-anchor="middle" x="428.3608" y="-231.5" font-family="Helvetica,sans-Serif" font-size="10.00" fill="#000000">client.h</text>
</a>
</g>
</g>
<!-- Node3&#45;&gt;Node11 -->
<g id="edge11" class="edge">
<title>Node3&#45;&gt;Node11</title>
<path fill="none" stroke="#191970" d="M242.526,-283.7931C279.5418,-273.875 352.1892,-254.4096 394.8638,-242.9753"/>
<polygon fill="#191970" stroke="#191970" points="396.0182,-246.2895 404.7716,-240.3206 394.2064,-239.528 396.0182,-246.2895"/>
</g>
<!-- Node5 -->
<g id="node5" class="node">
<title>Node5</title>
<g id="a_node5"><a xlink:title=" ">
<polygon fill="#ffffff" stroke="#bfbfbf" points="12.8608,-168.5 12.8608,-187.5 95.8608,-187.5 95.8608,-168.5 12.8608,-168.5"/>
<text text-anchor="middle" x="54.3608" y="-175.5" font-family="Helvetica,sans-Serif" font-size="10.00" fill="#000000">QMainWindow</text>
</a>
</g>
</g>
<!-- Node4&#45;&gt;Node5 -->
<g id="edge4" class="edge">
<title>Node4&#45;&gt;Node5</title>
<path fill="none" stroke="#191970" d="M131.1615,-224.2455C116.7591,-215.5731 95.4876,-202.7645 78.9809,-192.825"/>
<polygon fill="#191970" stroke="#191970" points="80.7469,-189.8028 70.3746,-187.6427 77.1359,-195.7996 80.7469,-189.8028"/>
</g>
<!-- Node6 -->
<g id="node6" class="node">
<title>Node6</title>
<g id="a_node6"><a xlink:title=" ">
<polygon fill="#ffffff" stroke="#bfbfbf" points="113.8608,-168.5 113.8608,-187.5 180.8608,-187.5 180.8608,-168.5 113.8608,-168.5"/>
<text text-anchor="middle" x="147.3608" y="-175.5" font-family="Helvetica,sans-Serif" font-size="10.00" fill="#000000">QKeyEvent</text>
</a>
</g>
</g>
<!-- Node4&#45;&gt;Node6 -->
<g id="edge5" class="edge">
<title>Node4&#45;&gt;Node6</title>
<path fill="none" stroke="#191970" d="M147.3608,-224.2455C147.3608,-216.9382 147.3608,-206.6944 147.3608,-197.7046"/>
<polygon fill="#191970" stroke="#191970" points="150.8609,-197.6426 147.3608,-187.6427 143.8609,-197.6427 150.8609,-197.6426"/>
</g>
<!-- Node8 -->
<g id="node8" class="node">
<title>Node8</title>
<g id="a_node8"><a xlink:title=" ">
<polygon fill="#ffffff" stroke="#bfbfbf" points="321.8608,-.5 321.8608,-19.5 362.8608,-19.5 362.8608,-.5 321.8608,-.5"/>
<text text-anchor="middle" x="342.3608" y="-7.5" font-family="Helvetica,sans-Serif" font-size="10.00" fill="#000000">string</text>
</a>
</g>
</g>
<!-- Node7&#45;&gt;Node8 -->
<g id="edge7" class="edge">
<title>Node7&#45;&gt;Node8</title>
<path fill="none" stroke="#191970" d="M237.335,-168.2753C242.143,-146.4169 256.1129,-92.4663 283.3608,-56 292.4678,-43.8119 305.5939,-33.1464 317.1541,-25.162"/>
<polygon fill="#191970" stroke="#191970" points="319.1727,-28.0235 325.5965,-19.5981 315.3207,-22.1786 319.1727,-28.0235"/>
</g>
<!-- Node7&#45;&gt;Node9 -->
<g id="edge8" class="edge">
<title>Node7&#45;&gt;Node9</title>
<path fill="none" stroke="#191970" d="M207.6839,-168.3733C180.2202,-158.8207 138.0704,-144.1598 108.5342,-133.8864"/>
<polygon fill="#191970" stroke="#191970" points="109.6355,-130.5638 99.0406,-130.5843 107.3358,-137.1753 109.6355,-130.5638"/>
</g>
<!-- Node10 -->
<g id="node10" class="node">
<title>Node10</title>
<g id="a_node10"><a xlink:title=" ">
<polygon fill="#ffffff" stroke="#bfbfbf" points="179.3608,-112.5 179.3608,-131.5 235.3608,-131.5 235.3608,-112.5 179.3608,-112.5"/>
<text text-anchor="middle" x="207.3608" y="-119.5" font-family="Helvetica,sans-Serif" font-size="10.00" fill="#000000">QWidget</text>
</a>
</g>
</g>
<!-- Node7&#45;&gt;Node10 -->
<g id="edge9" class="edge">
<title>Node7&#45;&gt;Node10</title>
<path fill="none" stroke="#191970" d="M230.4836,-168.2455C226.7095,-160.6973 221.3687,-150.0158 216.7707,-140.8197"/>
<polygon fill="#191970" stroke="#191970" points="219.7849,-139.0217 212.1822,-131.6427 213.5239,-142.1522 219.7849,-139.0217"/>
</g>
<!-- Node11&#45;&gt;Node7 -->
<g id="edge36" class="edge">
<title>Node11&#45;&gt;Node7</title>
<path fill="none" stroke="#191970" d="M404.6952,-227.1333C373.2791,-218.0177 317.2405,-201.7578 278.2727,-190.4511"/>
<polygon fill="#191970" stroke="#191970" points="278.8439,-186.9726 268.2647,-187.5472 276.8932,-193.6953 278.8439,-186.9726"/>
</g>
<!-- Node12 -->
<g id="node12" class="node">
<title>Node12</title>
<g id="a_node12"><a xlink:title=" ">
<polygon fill="#ffffff" stroke="#bfbfbf" points="627.3608,-168.5 627.3608,-187.5 701.3608,-187.5 701.3608,-168.5 627.3608,-168.5"/>
<text text-anchor="middle" x="664.3608" y="-175.5" font-family="Helvetica,sans-Serif" font-size="10.00" fill="#000000">QTcpSocket</text>
</a>
</g>
</g>
<!-- Node11&#45;&gt;Node12 -->
<g id="edge12" class="edge">
<title>Node11&#45;&gt;Node12</title>
<path fill="none" stroke="#191970" d="M452.2885,-228.3222C490.8786,-219.1653 567.5598,-200.9697 617.3682,-189.1508"/>
<polygon fill="#191970" stroke="#191970" points="618.337,-192.5182 627.2587,-186.8039 616.7208,-185.7073 618.337,-192.5182"/>
</g>
<!-- Node13 -->
<g id="node13" class="node">
<title>Node13</title>
<g id="a_node13"><a xlink:title=" ">
<polygon fill="#ffffff" stroke="#bfbfbf" points="289.8608,-168.5 289.8608,-187.5 342.8608,-187.5 342.8608,-168.5 289.8608,-168.5"/>
<text text-anchor="middle" x="316.3608" y="-175.5" font-family="Helvetica,sans-Serif" font-size="10.00" fill="#000000">QObject</text>
</a>
</g>
</g>
<!-- Node11&#45;&gt;Node13 -->
<g id="edge13" class="edge">
<title>Node11&#45;&gt;Node13</title>
<path fill="none" stroke="#191970" d="M409.1073,-224.3733C391.2897,-215.4644 364.5862,-202.1127 344.4014,-192.0203"/>
<polygon fill="#191970" stroke="#191970" points="345.8726,-188.8428 335.3631,-187.5011 342.7421,-195.1038 345.8726,-188.8428"/>
</g>
<!-- Node14 -->
<g id="node14" class="node">
<title>Node14</title>
<g id="a_node14"><a xlink:title=" ">
<polygon fill="#ffffff" stroke="#bfbfbf" points="399.3608,-168.5 399.3608,-187.5 457.3608,-187.5 457.3608,-168.5 399.3608,-168.5"/>
<text text-anchor="middle" x="428.3608" y="-175.5" font-family="Helvetica,sans-Serif" font-size="10.00" fill="#000000">QThread</text>
</a>
</g>
</g>
<!-- Node11&#45;&gt;Node14 -->
<g id="edge14" class="edge">
<title>Node11&#45;&gt;Node14</title>
<path fill="none" stroke="#191970" d="M428.3608,-224.2455C428.3608,-216.9382 428.3608,-206.6944 428.3608,-197.7046"/>
<polygon fill="#191970" stroke="#191970" points="431.8609,-197.6426 428.3608,-187.6427 424.8609,-197.6427 431.8609,-197.6426"/>
</g>
<!-- Node15 -->
<g id="node15" class="node">
<title>Node15</title>
<g id="a_node15"><a xlink:title=" ">
<polygon fill="#ffffff" stroke="#bfbfbf" points="475.8608,-168.5 475.8608,-187.5 540.8608,-187.5 540.8608,-168.5 475.8608,-168.5"/>
<text text-anchor="middle" x="508.3608" y="-175.5" font-family="Helvetica,sans-Serif" font-size="10.00" fill="#000000">QStringList</text>
</a>
</g>
</g>
<!-- Node11&#45;&gt;Node15 -->
<g id="edge15" class="edge">
<title>Node11&#45;&gt;Node15</title>
<path fill="none" stroke="#191970" d="M442.2958,-224.2455C454.4555,-215.7337 472.3073,-203.2375 486.3893,-193.3801"/>
<polygon fill="#191970" stroke="#191970" points="488.4004,-196.2447 494.5856,-187.6427 484.3861,-190.51 488.4004,-196.2447"/>
</g>
<!-- Node16 -->
<g id="node16" class="node">
<title>Node16</title>
<g id="a_node16"><a xlink:title=" ">
<polygon fill="#ffffff" stroke="#bfbfbf" points="559.3608,-168.5 559.3608,-187.5 609.3608,-187.5 609.3608,-168.5 559.3608,-168.5"/>
<text text-anchor="middle" x="584.3608" y="-175.5" font-family="Helvetica,sans-Serif" font-size="10.00" fill="#000000">QString</text>
</a>
</g>
</g>
<!-- Node11&#45;&gt;Node16 -->
<g id="edge16" class="edge">
<title>Node11&#45;&gt;Node16</title>
<path fill="none" stroke="#191970" d="M452.0539,-225.4948C478.014,-216.1758 519.9072,-201.1372 549.5911,-190.4814"/>
<polygon fill="#191970" stroke="#191970" points="550.9197,-193.7233 559.1491,-187.0504 548.5546,-187.1349 550.9197,-193.7233"/>
</g>
<!-- Node11&#45;&gt;Node17 -->
<g id="edge17" class="edge">
<title>Node11&#45;&gt;Node17</title>
<path fill="none" stroke="#191970" d="M451.9354,-231.1004C499.0134,-225.1096 608.141,-210.2191 709.0238,-188.1004"/>
<polygon fill="#191970" stroke="#191970" points="710.0697,-191.4534 719.0719,-185.8667 708.5507,-184.6202 710.0697,-191.4534"/>
</g>
<!-- Node23 -->
<g id="node23" class="node">
<title>Node23</title>
<g id="a_node23"><a xlink:href="maptile_8h.html" target="_top" xlink:title=" ">
<polygon fill="#ffffff" stroke="#000000" points="352.3608,-112.5 352.3608,-131.5 408.3608,-131.5 408.3608,-112.5 352.3608,-112.5"/>
<text text-anchor="middle" x="380.3608" y="-119.5" font-family="Helvetica,sans-Serif" font-size="10.00" fill="#000000">maptile.h</text>
</a>
</g>
</g>
<!-- Node11&#45;&gt;Node23 -->
<g id="edge35" class="edge">
<title>Node11&#45;&gt;Node23</title>
<path fill="none" stroke="#191970" d="M417.4728,-224.1672C408.6587,-215.5398 396.7024,-202.1849 390.3608,-188 383.8572,-173.4526 381.455,-155.4921 380.6247,-141.9818"/>
<polygon fill="#191970" stroke="#191970" points="384.1171,-141.7128 380.2413,-131.8523 377.1221,-141.9776 384.1171,-141.7128"/>
</g>
<!-- Node18 -->
<g id="node18" class="node">
<title>Node18</title>
<g id="a_node18"><a xlink:title=" ">
<polygon fill="#ffffff" stroke="#bfbfbf" points="928.3608,-112.5 928.3608,-131.5 1022.3608,-131.5 1022.3608,-112.5 928.3608,-112.5"/>
<text text-anchor="middle" x="975.3608" y="-119.5" font-family="Helvetica,sans-Serif" font-size="10.00" fill="#000000">QGraphicsScene</text>
</a>
</g>
</g>
<!-- Node17&#45;&gt;Node18 -->
<g id="edge18" class="edge">
<title>Node17&#45;&gt;Node18</title>
<path fill="none" stroke="#191970" d="M771.7448,-171.5761C809.4193,-162.4031 879.2898,-145.3912 926.5494,-133.8845"/>
<polygon fill="#191970" stroke="#191970" points="927.3831,-137.2839 936.2712,-131.5175 925.727,-130.4826 927.3831,-137.2839"/>
</g>
<!-- Node19 -->
<g id="node19" class="node">
<title>Node19</title>
<g id="a_node19"><a xlink:title=" ">
<polygon fill="#ffffff" stroke="#bfbfbf" points="426.3608,-112.5 426.3608,-131.5 530.3608,-131.5 530.3608,-112.5 426.3608,-112.5"/>
<text text-anchor="middle" x="478.3608" y="-119.5" font-family="Helvetica,sans-Serif" font-size="10.00" fill="#000000">QGraphicsTextItem</text>
</a>
</g>
</g>
<!-- Node17&#45;&gt;Node19 -->
<g id="edge19" class="edge">
<title>Node17&#45;&gt;Node19</title>
<path fill="none" stroke="#191970" d="M719.0493,-170.2305C716.1268,-169.4427 713.1865,-168.6826 710.3608,-168 653.2813,-154.2119 587.5761,-141.4738 540.6944,-132.9153"/>
<polygon fill="#191970" stroke="#191970" points="541.1535,-129.4416 530.6893,-131.1001 539.9039,-136.3291 541.1535,-129.4416"/>
</g>
<!-- Node20 -->
<g id="node20" class="node">
<title>Node20</title>
<g id="a_node20"><a xlink:title=" ">
<polygon fill="#ffffff" stroke="#bfbfbf" points="548.8608,-112.5 548.8608,-131.5 631.8608,-131.5 631.8608,-112.5 548.8608,-112.5"/>
<text text-anchor="middle" x="590.3608" y="-119.5" font-family="Helvetica,sans-Serif" font-size="10.00" fill="#000000">QGraphicsItem</text>
</a>
</g>
</g>
<!-- Node17&#45;&gt;Node20 -->
<g id="edge20" class="edge">
<title>Node17&#45;&gt;Node20</title>
<path fill="none" stroke="#191970" d="M719.0672,-168.5004C693.5707,-159.2887 654.6907,-145.2417 626.3351,-134.9971"/>
<polygon fill="#191970" stroke="#191970" points="627.3778,-131.6525 616.7835,-131.5462 624.9992,-138.236 627.3778,-131.6525"/>
</g>
<!-- Node21 -->
<g id="node21" class="node">
<title>Node21</title>
<g id="a_node21"><a xlink:title=" ">
<polygon fill="#ffffff" stroke="#bfbfbf" points="805.3608,-56.5 805.3608,-75.5 909.3608,-75.5 909.3608,-56.5 805.3608,-56.5"/>
<text text-anchor="middle" x="857.3608" y="-63.5" font-family="Helvetica,sans-Serif" font-size="10.00" fill="#000000">QGraphicsRectItem</text>
</a>
</g>
</g>
<!-- Node17&#45;&gt;Node21 -->
<g id="edge21" class="edge">
<title>Node17&#45;&gt;Node21</title>
<path fill="none" stroke="#191970" d="M762.3173,-168.4908C776.4337,-160.0607 796.5468,-146.814 811.3608,-132 825.644,-117.7168 838.4702,-98.5075 846.927,-84.4966"/>
<polygon fill="#191970" stroke="#191970" points="850.0149,-86.1496 852.0478,-75.7516 843.9743,-82.6124 850.0149,-86.1496"/>
</g>
<!-- Node22 -->
<g id="node22" class="node">
<title>Node22</title>
<g id="a_node22"><a xlink:title=" ">
<polygon fill="#ffffff" stroke="#bfbfbf" points="688.8608,-112.5 688.8608,-131.5 801.8608,-131.5 801.8608,-112.5 688.8608,-112.5"/>
<text text-anchor="middle" x="745.3608" y="-119.5" font-family="Helvetica,sans-Serif" font-size="10.00" fill="#000000">QGraphicsEllipseItem</text>
</a>
</g>
</g>
<!-- Node17&#45;&gt;Node22 -->
<g id="edge22" class="edge">
<title>Node17&#45;&gt;Node22</title>
<path fill="none" stroke="#191970" d="M745.3608,-168.2455C745.3608,-160.9382 745.3608,-150.6944 745.3608,-141.7046"/>
<polygon fill="#191970" stroke="#191970" points="748.8609,-141.6426 745.3608,-131.6427 741.8609,-141.6427 748.8609,-141.6426"/>
</g>
<!-- Node17&#45;&gt;Node23 -->
<g id="edge23" class="edge">
<title>Node17&#45;&gt;Node23</title>
<path fill="none" stroke="#191970" d="M719.0961,-170.0201C716.1648,-169.2717 713.2097,-168.5783 710.3608,-168 584.921,-142.5359 547.9201,-156.4576 418.443,-131.971"/>
<polygon fill="#191970" stroke="#191970" points="419.0282,-128.5195 408.5459,-130.0593 417.7006,-135.3924 419.0282,-128.5195"/>
</g>
<!-- Node27 -->
<g id="node27" class="node">
<title>Node27</title>
<g id="a_node27"><a xlink:href="graphicsmanager_8h.html" target="_top" xlink:title=" ">
<polygon fill="#ffffff" stroke="#000000" points="483.8608,-56.5 483.8608,-75.5 586.8608,-75.5 586.8608,-56.5 483.8608,-56.5"/>
<text text-anchor="middle" x="535.3608" y="-63.5" font-family="Helvetica,sans-Serif" font-size="10.00" fill="#000000">graphicsmanager.h</text>
</a>
</g>
</g>
<!-- Node17&#45;&gt;Node27 -->
<g id="edge32" class="edge">
<title>Node17&#45;&gt;Node27</title>
<path fill="none" stroke="#191970" d="M731.6462,-168.3178C712.1344,-154.7727 674.9917,-129.8287 641.3608,-112 618.1032,-99.6704 590.8385,-87.8948 569.7851,-79.3447"/>
<polygon fill="#191970" stroke="#191970" points="570.8745,-76.0106 560.2903,-75.5357 568.2682,-82.5073 570.8745,-76.0106"/>
</g>
<!-- Node30 -->
<g id="node30" class="node">
<title>Node30</title>
<g id="a_node30"><a xlink:href="player_8h.html" target="_top" xlink:title=" ">
<polygon fill="#ffffff" stroke="#000000" points="858.3608,-112.5 858.3608,-131.5 910.3608,-131.5 910.3608,-112.5 858.3608,-112.5"/>
<text text-anchor="middle" x="884.3608" y="-119.5" font-family="Helvetica,sans-Serif" font-size="10.00" fill="#000000">player.h</text>
</a>
</g>
</g>
<!-- Node17&#45;&gt;Node30 -->
<g id="edge33" class="edge">
<title>Node17&#45;&gt;Node30</title>
<path fill="none" stroke="#191970" d="M769.2558,-168.3733C791.8691,-159.2629 826.015,-145.5062 851.2481,-135.3404"/>
<polygon fill="#191970" stroke="#191970" points="852.8101,-138.4845 860.7777,-131.5011 850.1942,-131.9917 852.8101,-138.4845"/>
</g>
<!-- Node24 -->
<g id="node24" class="node">
<title>Node24</title>
<g id="a_node24"><a xlink:title=" ">
<polygon fill="#ffffff" stroke="#bfbfbf" points="348.8608,-56.5 348.8608,-75.5 465.8608,-75.5 465.8608,-56.5 348.8608,-56.5"/>
<text text-anchor="middle" x="407.3608" y="-63.5" font-family="Helvetica,sans-Serif" font-size="10.00" fill="#000000">QGraphicsPixmapItem</text>
</a>
</g>
</g>
<!-- Node23&#45;&gt;Node24 -->
<g id="edge24" class="edge">
<title>Node23&#45;&gt;Node24</title>
<path fill="none" stroke="#191970" d="M385.0639,-112.2455C388.7032,-104.6973 393.8532,-94.0158 398.287,-84.8197"/>
<polygon fill="#191970" stroke="#191970" points="401.5213,-86.1704 402.7117,-75.6427 395.2159,-83.1303 401.5213,-86.1704"/>
</g>
<!-- Node25 -->
<g id="node25" class="node">
<title>Node25</title>
<g id="a_node25"><a xlink:href="city_8h.html" target="_top" xlink:title=" ">
<polygon fill="#ffffff" stroke="#000000" points="291.8608,-56.5 291.8608,-75.5 330.8608,-75.5 330.8608,-56.5 291.8608,-56.5"/>
<text text-anchor="middle" x="311.3608" y="-63.5" font-family="Helvetica,sans-Serif" font-size="10.00" fill="#000000">city.h</text>
</a>
</g>
</g>
<!-- Node23&#45;&gt;Node25 -->
<g id="edge25" class="edge">
<title>Node23&#45;&gt;Node25</title>
<path fill="none" stroke="#191970" d="M368.3419,-112.2455C358.151,-103.9746 343.3246,-91.9416 331.3502,-82.2232"/>
<polygon fill="#191970" stroke="#191970" points="333.2122,-79.2268 323.242,-75.6427 328.801,-84.662 333.2122,-79.2268"/>
</g>
<!-- Node23&#45;&gt;Node27 -->
<g id="edge28" class="edge">
<title>Node23&#45;&gt;Node27</title>
<path fill="none" stroke="#191970" d="M407.0063,-112.3733C432.5573,-103.1419 471.3121,-89.1402 499.5518,-78.9375"/>
<polygon fill="#191970" stroke="#191970" points="500.8474,-82.1909 509.0631,-75.5011 498.4688,-75.6074 500.8474,-82.1909"/>
</g>
<!-- Node25&#45;&gt;Node8 -->
<g id="edge26" class="edge">
<title>Node25&#45;&gt;Node8</title>
<path fill="none" stroke="#191970" d="M316.7606,-56.2455C320.9835,-48.617 326.9781,-37.7881 332.105,-28.5267"/>
<polygon fill="#191970" stroke="#191970" points="335.2418,-30.0867 337.0229,-19.6427 329.1176,-26.6965 335.2418,-30.0867"/>
</g>
<!-- Node26 -->
<g id="node26" class="node">
<title>Node26</title>
<g id="a_node26"><a xlink:title=" ">
<polygon fill="#ffffff" stroke="#bfbfbf" points="259.3608,-.5 259.3608,-19.5 303.3608,-19.5 303.3608,-.5 259.3608,-.5"/>
<text text-anchor="middle" x="281.3608" y="-7.5" font-family="Helvetica,sans-Serif" font-size="10.00" fill="#000000">vector</text>
</a>
</g>
</g>
<!-- Node25&#45;&gt;Node26 -->
<g id="edge27" class="edge">
<title>Node25&#45;&gt;Node26</title>
<path fill="none" stroke="#191970" d="M306.1352,-56.2455C302.0485,-48.617 296.2473,-37.7881 291.2859,-28.5267"/>
<polygon fill="#191970" stroke="#191970" points="294.334,-26.8047 286.5265,-19.6427 288.1636,-30.1103 294.334,-26.8047"/>
</g>
<!-- Node27&#45;&gt;Node8 -->
<g id="edge31" class="edge">
<title>Node27&#45;&gt;Node8</title>
<path fill="none" stroke="#191970" d="M502.1829,-56.3733C465.7903,-45.8137 407.8854,-29.0123 372.6723,-18.795"/>
<polygon fill="#191970" stroke="#191970" points="373.5294,-15.3994 362.9502,-15.9741 371.5787,-22.1222 373.5294,-15.3994"/>
</g>
<!-- Node28 -->
<g id="node28" class="node">
<title>Node28</title>
<g id="a_node28"><a xlink:title=" ">
<polygon fill="#ffffff" stroke="#bfbfbf" points="469.3608,-.5 469.3608,-19.5 527.3608,-19.5 527.3608,-.5 469.3608,-.5"/>
<text text-anchor="middle" x="498.3608" y="-7.5" font-family="Helvetica,sans-Serif" font-size="10.00" fill="#000000">QPixmap</text>
</a>
</g>
</g>
<!-- Node27&#45;&gt;Node28 -->
<g id="edge29" class="edge">
<title>Node27&#45;&gt;Node28</title>
<path fill="none" stroke="#191970" d="M528.9159,-56.2455C523.8226,-48.5367 516.57,-37.5598 510.4088,-28.2348"/>
<polygon fill="#191970" stroke="#191970" points="513.1647,-26.0566 504.7319,-19.6427 507.3243,-29.9155 513.1647,-26.0566"/>
</g>
<!-- Node29 -->
<g id="node29" class="node">
<title>Node29</title>
<g id="a_node29"><a xlink:title=" ">
<polygon fill="#ffffff" stroke="#bfbfbf" points="545.8608,-.5 545.8608,-19.5 598.8608,-19.5 598.8608,-.5 545.8608,-.5"/>
<text text-anchor="middle" x="572.3608" y="-7.5" font-family="Helvetica,sans-Serif" font-size="10.00" fill="#000000">QImage</text>
</a>
</g>
</g>
<!-- Node27&#45;&gt;Node29 -->
<g id="edge30" class="edge">
<title>Node27&#45;&gt;Node29</title>
<path fill="none" stroke="#191970" d="M541.8057,-56.2455C546.8991,-48.5367 554.1517,-37.5598 560.3128,-28.2348"/>
<polygon fill="#191970" stroke="#191970" points="563.3973,-29.9155 565.9898,-19.6427 557.557,-26.0566 563.3973,-29.9155"/>
</g>
<!-- Node30&#45;&gt;Node21 -->
<g id="edge34" class="edge">
<title>Node30&#45;&gt;Node21</title>
<path fill="none" stroke="#191970" d="M879.6578,-112.2455C876.0185,-104.6973 870.8684,-94.0158 866.4346,-84.8197"/>
<polygon fill="#191970" stroke="#191970" points="869.5057,-83.1303 862.01,-75.6427 863.2003,-86.1704 869.5057,-83.1303"/>
</g>
</g>
</svg>
