<?xml version="1.0" encoding="UTF-8" standalone="no"?>
<!DOCTYPE svg PUBLIC "-//W3C//DTD SVG 1.1//EN"
 "http://www.w3.org/Graphics/SVG/1.1/DTD/svg11.dtd">
<!-- Generated by graphviz version 2.40.1 (20161225.0304)
 -->
<!-- Title: src/application/view.cpp Pages: 1 -->
<!--zoomable 364 -->
<svg id="main" version="1.1" xmlns="http://www.w3.org/2000/svg" xmlns:xlink="http://www.w3.org/1999/xlink" xml:space="preserve" onload="init(evt)">
<style type="text/css"><![CDATA[
.edge:hover path { stroke: red; }
.edge:hover polygon { stroke: red; fill: red; }
]]></style>
<script type="text/javascript"><![CDATA[
var edges = document.getElementsByTagName('g');
if (edges && edges.length) {
  for (var i=0;i<edges.length;i++) {
    if (edges[i].id.substr(0,4)=='edge') {
      edges[i].setAttribute('class','edge');
    }
  }
}
]]></script>
        <defs>
                <circle id="rim" cx="0" cy="0" r="7"/>
                <circle id="rim2" cx="0" cy="0" r="3.5"/>
                <g id="zoomPlus">
                        <use xlink:href="#rim" fill="#404040">
                                <set attributeName="fill" to="#808080" begin="zoomplus.mouseover" end="zoomplus.mouseout"/>
                        </use>
                        <path d="M-4,0h8M0,-4v8" fill="none" stroke="white" stroke-width="1.5" pointer-events="none"/>
                </g>
                <g id="zoomMin">
                        <use xlink:href="#rim" fill="#404040">
                                <set attributeName="fill" to="#808080" begin="zoomminus.mouseover" end="zoomminus.mouseout"/>
                        </use>
                        <path d="M-4,0h8" fill="none" stroke="white" stroke-width="1.5" pointer-events="none"/>
                </g>
                <g id="dirArrow">
                        <path fill="none" stroke="white" stroke-width="1.5" d="M0,-3.0v7 M-2.5,-0.5L0,-3.0L2.5,-0.5"/>
                </g>
               <g id="resetDef">
                       <use xlink:href="#rim2" fill="#404040">
                               <set attributeName="fill" to="#808080" begin="reset.mouseover" end="reset.mouseout"/>
                       </use>
               </g>
        </defs>

<script type="text/javascript">
var viewWidth = 1440;
var viewHeight = 364;
var sectionId = 'dynsection-0';
</script>
<script xlink:href="svgpan.js"/>
<svg id="graph" class="graph">
<g id="viewport">
<title>src/application/view.cpp</title>
<polygon fill="#ffffff" stroke="transparent" points="-4,4 -4,-360 1435.5,-360 1435.5,4 -4,4"/>
<!-- Node1 -->
<g id="node1" class="node">
<title>Node1</title>
<g id="a_node1"><a xlink:title=" ">
<polygon fill="#bfbfbf" stroke="#000000" points="1002,-336.5 1002,-355.5 1125,-355.5 1125,-336.5 1002,-336.5"/>
<text text-anchor="middle" x="1063.5" y="-343.5" font-family="Helvetica,sans-Serif" font-size="10.00" fill="#000000">src/application/view.cpp</text>
</a>
</g>
</g>
<!-- Node2 -->
<g id="node2" class="node">
<title>Node2</title>
<g id="a_node2"><a xlink:href="view_8h.html" target="_top" xlink:title=" ">
<polygon fill="#ffffff" stroke="#000000" points="540,-280.5 540,-299.5 585,-299.5 585,-280.5 540,-280.5"/>
<text text-anchor="middle" x="562.5" y="-287.5" font-family="Helvetica,sans-Serif" font-size="10.00" fill="#000000">view.h</text>
</a>
</g>
</g>
<!-- Node1&#45;&gt;Node2 -->
<g id="edge1" class="edge">
<title>Node1&#45;&gt;Node2</title>
<path fill="none" stroke="#191970" d="M1001.8165,-339.1052C894.5747,-327.1181 677.3493,-302.8374 595.0756,-293.6412"/>
<polygon fill="#191970" stroke="#191970" points="595.3822,-290.1537 585.0553,-292.5211 594.6045,-297.1104 595.3822,-290.1537"/>
</g>
<!-- Node17 -->
<g id="node17" class="node">
<title>Node17</title>
<g id="a_node17"><a xlink:title=" ">
<polygon fill="#ffffff" stroke="#bfbfbf" points="843,-168.5 843,-187.5 926,-187.5 926,-168.5 843,-168.5"/>
<text text-anchor="middle" x="884.5" y="-175.5" font-family="Helvetica,sans-Serif" font-size="10.00" fill="#000000">QGraphicsItem</text>
</a>
</g>
</g>
<!-- Node1&#45;&gt;Node17 -->
<g id="edge32" class="edge">
<title>Node1&#45;&gt;Node17</title>
<path fill="none" stroke="#191970" d="M1001.9936,-342.9386C938.2567,-338.326 844.8646,-327.0371 822.5,-300 795.0526,-266.8181 837.5502,-219.4668 864.7083,-194.6434"/>
<polygon fill="#191970" stroke="#191970" points="867.3809,-196.9519 872.5498,-187.7034 862.7417,-191.71 867.3809,-196.9519"/>
</g>
<!-- Node24 -->
<g id="node24" class="node">
<title>Node24</title>
<g id="a_node24"><a xlink:title=" ">
<polygon fill="#ffffff" stroke="#bfbfbf" points="831.5,-280.5 831.5,-299.5 911.5,-299.5 911.5,-280.5 831.5,-280.5"/>
<text text-anchor="middle" x="871.5" y="-287.5" font-family="Helvetica,sans-Serif" font-size="10.00" fill="#000000">QMouseEvent</text>
</a>
</g>
</g>
<!-- Node1&#45;&gt;Node24 -->
<g id="edge28" class="edge">
<title>Node1&#45;&gt;Node24</title>
<path fill="none" stroke="#191970" d="M1030.494,-336.3733C998.2909,-326.9807 949.1558,-312.6496 914.0361,-302.4064"/>
<polygon fill="#191970" stroke="#191970" points="914.6553,-298.9412 904.0753,-299.5011 912.6953,-305.6612 914.6553,-298.9412"/>
</g>
<!-- Node25 -->
<g id="node25" class="node">
<title>Node25</title>
<g id="a_node25"><a xlink:title=" ">
<polygon fill="#ffffff" stroke="#bfbfbf" points="929.5,-280.5 929.5,-299.5 983.5,-299.5 983.5,-280.5 929.5,-280.5"/>
<text text-anchor="middle" x="956.5" y="-287.5" font-family="Helvetica,sans-Serif" font-size="10.00" fill="#000000">QDebug</text>
</a>
</g>
</g>
<!-- Node1&#45;&gt;Node25 -->
<g id="edge29" class="edge">
<title>Node1&#45;&gt;Node25</title>
<path fill="none" stroke="#191970" d="M1044.862,-336.2455C1028.0614,-327.4527 1003.1366,-314.4079 984.0382,-304.4125"/>
<polygon fill="#191970" stroke="#191970" points="985.4073,-301.1787 974.9244,-299.6427 982.1614,-307.3807 985.4073,-301.1787"/>
</g>
<!-- Node26 -->
<g id="node26" class="node">
<title>Node26</title>
<g id="a_node26"><a xlink:title=" ">
<polygon fill="#ffffff" stroke="#bfbfbf" points="1002,-280.5 1002,-299.5 1055,-299.5 1055,-280.5 1002,-280.5"/>
<text text-anchor="middle" x="1028.5" y="-287.5" font-family="Helvetica,sans-Serif" font-size="10.00" fill="#000000">QPointF</text>
</a>
</g>
</g>
<!-- Node1&#45;&gt;Node26 -->
<g id="edge30" class="edge">
<title>Node1&#45;&gt;Node26</title>
<path fill="none" stroke="#191970" d="M1057.4035,-336.2455C1052.5855,-328.5367 1045.7249,-317.5598 1039.8968,-308.2348"/>
<polygon fill="#191970" stroke="#191970" points="1042.7947,-306.2677 1034.5267,-299.6427 1036.8587,-309.9777 1042.7947,-306.2677"/>
</g>
<!-- Node27 -->
<g id="node27" class="node">
<title>Node27</title>
<g id="a_node27"><a xlink:title=" ">
<polygon fill="#ffffff" stroke="#bfbfbf" points="1073.5,-280.5 1073.5,-299.5 1123.5,-299.5 1123.5,-280.5 1073.5,-280.5"/>
<text text-anchor="middle" x="1098.5" y="-287.5" font-family="Helvetica,sans-Serif" font-size="10.00" fill="#000000">QString</text>
</a>
</g>
</g>
<!-- Node1&#45;&gt;Node27 -->
<g id="edge31" class="edge">
<title>Node1&#45;&gt;Node27</title>
<path fill="none" stroke="#191970" d="M1069.5965,-336.2455C1074.4145,-328.5367 1081.2751,-317.5598 1087.1032,-308.2348"/>
<polygon fill="#191970" stroke="#191970" points="1090.1413,-309.9777 1092.4733,-299.6427 1084.2053,-306.2677 1090.1413,-309.9777"/>
</g>
<!-- Node28 -->
<g id="node28" class="node">
<title>Node28</title>
<g id="a_node28"><a xlink:title=" ">
<polygon fill="#ffffff" stroke="#bfbfbf" points="1142,-280.5 1142,-299.5 1193,-299.5 1193,-280.5 1142,-280.5"/>
<text text-anchor="middle" x="1167.5" y="-287.5" font-family="Helvetica,sans-Serif" font-size="10.00" fill="#000000">QTimer</text>
</a>
</g>
</g>
<!-- Node1&#45;&gt;Node28 -->
<g id="edge33" class="edge">
<title>Node1&#45;&gt;Node28</title>
<path fill="none" stroke="#191970" d="M1081.6154,-336.2455C1097.945,-327.4527 1122.171,-314.4079 1140.7339,-304.4125"/>
<polygon fill="#191970" stroke="#191970" points="1142.4468,-307.4654 1149.5922,-299.6427 1139.1281,-301.3021 1142.4468,-307.4654"/>
</g>
<!-- Node29 -->
<g id="node29" class="node">
<title>Node29</title>
<g id="a_node29"><a xlink:title=" ">
<polygon fill="#ffffff" stroke="#bfbfbf" points="1211,-280.5 1211,-299.5 1296,-299.5 1296,-280.5 1211,-280.5"/>
<text text-anchor="middle" x="1253.5" y="-287.5" font-family="Helvetica,sans-Serif" font-size="10.00" fill="#000000">QMessageBox</text>
</a>
</g>
</g>
<!-- Node1&#45;&gt;Node29 -->
<g id="edge34" class="edge">
<title>Node1&#45;&gt;Node29</title>
<path fill="none" stroke="#191970" d="M1096.1622,-336.3733C1128.0298,-326.9807 1176.6531,-312.6496 1211.407,-302.4064"/>
<polygon fill="#191970" stroke="#191970" points="1212.6615,-305.6855 1221.264,-299.5011 1210.6825,-298.9711 1212.6615,-305.6855"/>
</g>
<!-- Node30 -->
<g id="node30" class="node">
<title>Node30</title>
<g id="a_node30"><a xlink:title=" ">
<polygon fill="#ffffff" stroke="#bfbfbf" points="1314,-280.5 1314,-299.5 1357,-299.5 1357,-280.5 1314,-280.5"/>
<text text-anchor="middle" x="1335.5" y="-287.5" font-family="Helvetica,sans-Serif" font-size="10.00" fill="#000000">QIcon</text>
</a>
</g>
</g>
<!-- Node1&#45;&gt;Node30 -->
<g id="edge35" class="edge">
<title>Node1&#45;&gt;Node30</title>
<path fill="none" stroke="#191970" d="M1125.1724,-336.6191C1172.0745,-328.9507 1238.3087,-316.9793 1304.249,-300.0871"/>
<polygon fill="#191970" stroke="#191970" points="1305.1758,-303.4626 1313.9735,-297.5591 1303.4145,-296.6878 1305.1758,-303.4626"/>
</g>
<!-- Node31 -->
<g id="node31" class="node">
<title>Node31</title>
<g id="a_node31"><a xlink:title=" ">
<polygon fill="#ffffff" stroke="#bfbfbf" points="1375.5,-280.5 1375.5,-299.5 1431.5,-299.5 1431.5,-280.5 1375.5,-280.5"/>
<text text-anchor="middle" x="1403.5" y="-287.5" font-family="Helvetica,sans-Serif" font-size="10.00" fill="#000000">QPalette</text>
</a>
</g>
</g>
<!-- Node1&#45;&gt;Node31 -->
<g id="edge36" class="edge">
<title>Node1&#45;&gt;Node31</title>
<path fill="none" stroke="#191970" d="M1125.0917,-338.7287C1184.352,-331.2632 1276.6183,-318.4117 1365.3373,-300.0623"/>
<polygon fill="#191970" stroke="#191970" points="1366.2281,-303.4517 1375.2979,-297.9755 1364.7927,-296.6004 1366.2281,-303.4517"/>
</g>
<!-- Node3 -->
<g id="node3" class="node">
<title>Node3</title>
<g id="a_node3"><a xlink:title=" ">
<polygon fill="#ffffff" stroke="#bfbfbf" points="607,-224.5 607,-243.5 694,-243.5 694,-224.5 607,-224.5"/>
<text text-anchor="middle" x="650.5" y="-231.5" font-family="Helvetica,sans-Serif" font-size="10.00" fill="#000000">QGraphicsView</text>
</a>
</g>
</g>
<!-- Node2&#45;&gt;Node3 -->
<g id="edge2" class="edge">
<title>Node2&#45;&gt;Node3</title>
<path fill="none" stroke="#191970" d="M577.8284,-280.2455C591.3303,-271.6534 611.2122,-259.0014 626.7686,-249.1018"/>
<polygon fill="#191970" stroke="#191970" points="628.7897,-251.9643 635.3472,-243.6427 625.0315,-246.0587 628.7897,-251.9643"/>
</g>
<!-- Node4 -->
<g id="node4" class="node">
<title>Node4</title>
<g id="a_node4"><a xlink:href="main_8h.html" target="_top" xlink:title=" ">
<polygon fill="#ffffff" stroke="#000000" points="178.5,-112.5 178.5,-131.5 224.5,-131.5 224.5,-112.5 178.5,-112.5"/>
<text text-anchor="middle" x="201.5" y="-119.5" font-family="Helvetica,sans-Serif" font-size="10.00" fill="#000000">main.h</text>
</a>
</g>
</g>
<!-- Node2&#45;&gt;Node4 -->
<g id="edge3" class="edge">
<title>Node2&#45;&gt;Node4</title>
<path fill="none" stroke="#191970" d="M539.5992,-288.1684C469.5332,-282.3712 261.4151,-263.6438 238.5,-244 208.652,-218.413 202.4112,-169.5992 201.3876,-142.1085"/>
<polygon fill="#191970" stroke="#191970" points="204.8814,-141.7022 201.2147,-131.7621 197.8824,-141.8192 204.8814,-141.7022"/>
</g>
<!-- Node12 -->
<g id="node12" class="node">
<title>Node12</title>
<g id="a_node12"><a xlink:href="datamodel_8h.html" target="_top" xlink:title=" ">
<polygon fill="#ffffff" stroke="#000000" points="216,-56.5 216,-75.5 289,-75.5 289,-56.5 216,-56.5"/>
<text text-anchor="middle" x="252.5" y="-63.5" font-family="Helvetica,sans-Serif" font-size="10.00" fill="#000000">datamodel.h</text>
</a>
</g>
</g>
<!-- Node2&#45;&gt;Node12 -->
<g id="edge27" class="edge">
<title>Node2&#45;&gt;Node12</title>
<path fill="none" stroke="#191970" d="M539.8497,-285.1989C477.7783,-271.5791 307.2002,-230.8977 271.5,-188 247.3721,-159.0077 247.4362,-112.2325 249.8349,-85.8178"/>
<polygon fill="#191970" stroke="#191970" points="253.3497,-85.8792 250.9823,-75.5523 246.393,-85.1016 253.3497,-85.8792"/>
</g>
<!-- Node14 -->
<g id="node14" class="node">
<title>Node14</title>
<g id="a_node14"><a xlink:href="scene_8h.html" target="_top" xlink:title=" ">
<polygon fill="#ffffff" stroke="#000000" points="536.5,-224.5 536.5,-243.5 588.5,-243.5 588.5,-224.5 536.5,-224.5"/>
<text text-anchor="middle" x="562.5" y="-231.5" font-family="Helvetica,sans-Serif" font-size="10.00" fill="#000000">scene.h</text>
</a>
</g>
</g>
<!-- Node2&#45;&gt;Node14 -->
<g id="edge15" class="edge">
<title>Node2&#45;&gt;Node14</title>
<path fill="none" stroke="#191970" d="M562.5,-280.2455C562.5,-272.9382 562.5,-262.6944 562.5,-253.7046"/>
<polygon fill="#191970" stroke="#191970" points="566.0001,-253.6426 562.5,-243.6427 559.0001,-253.6427 566.0001,-253.6426"/>
</g>
<!-- Node5 -->
<g id="node5" class="node">
<title>Node5</title>
<g id="a_node5"><a xlink:href="graphicsmanager_8h.html" target="_top" xlink:title=" ">
<polygon fill="#ffffff" stroke="#000000" points="346,-56.5 346,-75.5 449,-75.5 449,-56.5 346,-56.5"/>
<text text-anchor="middle" x="397.5" y="-63.5" font-family="Helvetica,sans-Serif" font-size="10.00" fill="#000000">graphicsmanager.h</text>
</a>
</g>
</g>
<!-- Node4&#45;&gt;Node5 -->
<g id="edge4" class="edge">
<title>Node4&#45;&gt;Node5</title>
<path fill="none" stroke="#191970" d="M224.7535,-115.3562C256.6305,-106.2484 314.4848,-89.7186 354.4003,-78.3142"/>
<polygon fill="#191970" stroke="#191970" points="355.4814,-81.6455 364.135,-75.5328 353.5583,-74.9148 355.4814,-81.6455"/>
</g>
<!-- Node9 -->
<g id="node9" class="node">
<title>Node9</title>
<g id="a_node9"><a xlink:href="mainwindow_8h.html" target="_top" xlink:title=" ">
<polygon fill="#ffffff" stroke="#000000" points="79.5,-56.5 79.5,-75.5 159.5,-75.5 159.5,-56.5 79.5,-56.5"/>
<text text-anchor="middle" x="119.5" y="-63.5" font-family="Helvetica,sans-Serif" font-size="10.00" fill="#000000">mainwindow.h</text>
</a>
</g>
</g>
<!-- Node4&#45;&gt;Node9 -->
<g id="edge8" class="edge">
<title>Node4&#45;&gt;Node9</title>
<path fill="none" stroke="#191970" d="M187.2167,-112.2455C174.753,-103.7337 156.4549,-91.2375 142.0208,-81.3801"/>
<polygon fill="#191970" stroke="#191970" points="143.8515,-78.392 133.6196,-75.6427 139.9038,-84.1726 143.8515,-78.392"/>
</g>
<!-- Node4&#45;&gt;Node12 -->
<g id="edge11" class="edge">
<title>Node4&#45;&gt;Node12</title>
<path fill="none" stroke="#191970" d="M210.3835,-112.2455C217.6966,-104.2155 228.2391,-92.6394 236.9467,-83.0781"/>
<polygon fill="#191970" stroke="#191970" points="239.5727,-85.3928 243.7183,-75.6427 234.3972,-80.6795 239.5727,-85.3928"/>
</g>
<!-- Node13 -->
<g id="node13" class="node">
<title>Node13</title>
<g id="a_node13"><a xlink:title=" ">
<polygon fill="#ffffff" stroke="#bfbfbf" points="214,-.5 214,-19.5 263,-19.5 263,-.5 214,-.5"/>
<text text-anchor="middle" x="238.5" y="-7.5" font-family="Helvetica,sans-Serif" font-size="10.00" fill="#000000">QLabel</text>
</a>
</g>
</g>
<!-- Node4&#45;&gt;Node13 -->
<g id="edge14" class="edge">
<title>Node4&#45;&gt;Node13</title>
<path fill="none" stroke="#191970" d="M200.9029,-112.2817C200.4216,-99.1192 200.712,-75.0782 207.5,-56 211.1035,-45.8721 217.4584,-35.8306 223.4802,-27.7258"/>
<polygon fill="#191970" stroke="#191970" points="226.3011,-29.8008 229.7378,-19.7788 220.8014,-25.4702 226.3011,-29.8008"/>
</g>
<!-- Node6 -->
<g id="node6" class="node">
<title>Node6</title>
<g id="a_node6"><a xlink:title=" ">
<polygon fill="#ffffff" stroke="#bfbfbf" points="362.5,-.5 362.5,-19.5 420.5,-19.5 420.5,-.5 362.5,-.5"/>
<text text-anchor="middle" x="391.5" y="-7.5" font-family="Helvetica,sans-Serif" font-size="10.00" fill="#000000">QPixmap</text>
</a>
</g>
</g>
<!-- Node5&#45;&gt;Node6 -->
<g id="edge5" class="edge">
<title>Node5&#45;&gt;Node6</title>
<path fill="none" stroke="#191970" d="M396.4549,-56.2455C395.672,-48.9382 394.5744,-38.6944 393.6112,-29.7046"/>
<polygon fill="#191970" stroke="#191970" points="397.0786,-29.2129 392.5331,-19.6427 390.1185,-29.9587 397.0786,-29.2129"/>
</g>
<!-- Node7 -->
<g id="node7" class="node">
<title>Node7</title>
<g id="a_node7"><a xlink:title=" ">
<polygon fill="#ffffff" stroke="#bfbfbf" points="439,-.5 439,-19.5 492,-19.5 492,-.5 439,-.5"/>
<text text-anchor="middle" x="465.5" y="-7.5" font-family="Helvetica,sans-Serif" font-size="10.00" fill="#000000">QImage</text>
</a>
</g>
</g>
<!-- Node5&#45;&gt;Node7 -->
<g id="edge6" class="edge">
<title>Node5&#45;&gt;Node7</title>
<path fill="none" stroke="#191970" d="M409.3447,-56.2455C419.388,-47.9746 433.9995,-35.9416 445.8004,-26.2232"/>
<polygon fill="#191970" stroke="#191970" points="448.2967,-28.7015 453.791,-19.6427 443.8467,-23.298 448.2967,-28.7015"/>
</g>
<!-- Node8 -->
<g id="node8" class="node">
<title>Node8</title>
<g id="a_node8"><a xlink:title=" ">
<polygon fill="#ffffff" stroke="#bfbfbf" points="297,-.5 297,-19.5 338,-19.5 338,-.5 297,-.5"/>
<text text-anchor="middle" x="317.5" y="-7.5" font-family="Helvetica,sans-Serif" font-size="10.00" fill="#000000">string</text>
</a>
</g>
</g>
<!-- Node5&#45;&gt;Node8 -->
<g id="edge7" class="edge">
<title>Node5&#45;&gt;Node8</title>
<path fill="none" stroke="#191970" d="M383.5651,-56.2455C371.4053,-47.7337 353.5536,-35.2375 339.4715,-25.3801"/>
<polygon fill="#191970" stroke="#191970" points="341.4747,-22.51 331.2752,-19.6427 337.4605,-28.2447 341.4747,-22.51"/>
</g>
<!-- Node10 -->
<g id="node10" class="node">
<title>Node10</title>
<g id="a_node10"><a xlink:title=" ">
<polygon fill="#ffffff" stroke="#bfbfbf" points="0,-.5 0,-19.5 83,-19.5 83,-.5 0,-.5"/>
<text text-anchor="middle" x="41.5" y="-7.5" font-family="Helvetica,sans-Serif" font-size="10.00" fill="#000000">QMainWindow</text>
</a>
</g>
</g>
<!-- Node9&#45;&gt;Node10 -->
<g id="edge9" class="edge">
<title>Node9&#45;&gt;Node10</title>
<path fill="none" stroke="#191970" d="M105.9134,-56.2455C94.1695,-47.814 76.9801,-35.4729 63.3118,-25.6598"/>
<polygon fill="#191970" stroke="#191970" points="65.0954,-22.6316 54.9309,-19.6427 61.0129,-28.3179 65.0954,-22.6316"/>
</g>
<!-- Node11 -->
<g id="node11" class="node">
<title>Node11</title>
<g id="a_node11"><a xlink:title=" ">
<polygon fill="#ffffff" stroke="#bfbfbf" points="101,-.5 101,-19.5 168,-19.5 168,-.5 101,-.5"/>
<text text-anchor="middle" x="134.5" y="-7.5" font-family="Helvetica,sans-Serif" font-size="10.00" fill="#000000">QKeyEvent</text>
</a>
</g>
</g>
<!-- Node9&#45;&gt;Node11 -->
<g id="edge10" class="edge">
<title>Node9&#45;&gt;Node11</title>
<path fill="none" stroke="#191970" d="M122.1128,-56.2455C124.0916,-48.8579 126.8744,-38.4689 129.3012,-29.4087"/>
<polygon fill="#191970" stroke="#191970" points="132.7105,-30.2078 131.9171,-19.6427 125.9489,-28.3966 132.7105,-30.2078"/>
</g>
<!-- Node12&#45;&gt;Node8 -->
<g id="edge12" class="edge">
<title>Node12&#45;&gt;Node8</title>
<path fill="none" stroke="#191970" d="M263.8221,-56.2455C273.4223,-47.9746 287.3892,-35.9416 298.6695,-26.2232"/>
<polygon fill="#191970" stroke="#191970" points="301.016,-28.8214 306.3076,-19.6427 296.447,-23.5182 301.016,-28.8214"/>
</g>
<!-- Node12&#45;&gt;Node13 -->
<g id="edge13" class="edge">
<title>Node12&#45;&gt;Node13</title>
<path fill="none" stroke="#191970" d="M250.0614,-56.2455C248.2145,-48.8579 245.6172,-38.4689 243.3522,-29.4087"/>
<polygon fill="#191970" stroke="#191970" points="246.7316,-28.4952 240.9107,-19.6427 239.9406,-30.193 246.7316,-28.4952"/>
</g>
<!-- Node15 -->
<g id="node15" class="node">
<title>Node15</title>
<g id="a_node15"><a xlink:title=" ">
<polygon fill="#ffffff" stroke="#bfbfbf" points="608.5,-168.5 608.5,-187.5 702.5,-187.5 702.5,-168.5 608.5,-168.5"/>
<text text-anchor="middle" x="655.5" y="-175.5" font-family="Helvetica,sans-Serif" font-size="10.00" fill="#000000">QGraphicsScene</text>
</a>
</g>
</g>
<!-- Node14&#45;&gt;Node15 -->
<g id="edge16" class="edge">
<title>Node14&#45;&gt;Node15</title>
<path fill="none" stroke="#191970" d="M578.6994,-224.2455C593.1018,-215.5731 614.3732,-202.7645 630.8799,-192.825"/>
<polygon fill="#191970" stroke="#191970" points="632.725,-195.7996 639.4863,-187.6427 629.114,-189.8028 632.725,-195.7996"/>
</g>
<!-- Node16 -->
<g id="node16" class="node">
<title>Node16</title>
<g id="a_node16"><a xlink:title=" ">
<polygon fill="#ffffff" stroke="#bfbfbf" points="720.5,-168.5 720.5,-187.5 824.5,-187.5 824.5,-168.5 720.5,-168.5"/>
<text text-anchor="middle" x="772.5" y="-175.5" font-family="Helvetica,sans-Serif" font-size="10.00" fill="#000000">QGraphicsTextItem</text>
</a>
</g>
</g>
<!-- Node14&#45;&gt;Node16 -->
<g id="edge17" class="edge">
<title>Node14&#45;&gt;Node16</title>
<path fill="none" stroke="#191970" d="M588.8356,-226.6437C592.0888,-225.7471 595.3696,-224.8485 598.5,-224 641.5939,-212.3189 690.792,-199.3461 725.8531,-190.163"/>
<polygon fill="#191970" stroke="#191970" points="727.0151,-193.4769 735.8033,-187.5592 725.243,-186.7049 727.0151,-193.4769"/>
</g>
<!-- Node14&#45;&gt;Node17 -->
<g id="edge18" class="edge">
<title>Node14&#45;&gt;Node17</title>
<path fill="none" stroke="#191970" d="M588.7566,-226.3179C592.0233,-225.4771 595.3289,-224.6808 598.5,-224 698.6814,-202.4922 727.6704,-205.9305 832.713,-188.0645"/>
<polygon fill="#191970" stroke="#191970" points="833.5186,-191.4773 842.7777,-186.3276 832.3281,-184.5793 833.5186,-191.4773"/>
</g>
<!-- Node18 -->
<g id="node18" class="node">
<title>Node18</title>
<g id="a_node18"><a xlink:title=" ">
<polygon fill="#ffffff" stroke="#bfbfbf" points="280.5,-168.5 280.5,-187.5 384.5,-187.5 384.5,-168.5 280.5,-168.5"/>
<text text-anchor="middle" x="332.5" y="-175.5" font-family="Helvetica,sans-Serif" font-size="10.00" fill="#000000">QGraphicsRectItem</text>
</a>
</g>
</g>
<!-- Node14&#45;&gt;Node18 -->
<g id="edge19" class="edge">
<title>Node14&#45;&gt;Node18</title>
<path fill="none" stroke="#191970" d="M536.1161,-227.5761C498.4415,-218.4031 428.571,-201.3912 381.3114,-189.8845"/>
<polygon fill="#191970" stroke="#191970" points="382.1338,-186.4826 371.5896,-187.5175 380.4778,-193.2839 382.1338,-186.4826"/>
</g>
<!-- Node19 -->
<g id="node19" class="node">
<title>Node19</title>
<g id="a_node19"><a xlink:title=" ">
<polygon fill="#ffffff" stroke="#bfbfbf" points="403,-168.5 403,-187.5 516,-187.5 516,-168.5 403,-168.5"/>
<text text-anchor="middle" x="459.5" y="-175.5" font-family="Helvetica,sans-Serif" font-size="10.00" fill="#000000">QGraphicsEllipseItem</text>
</a>
</g>
</g>
<!-- Node14&#45;&gt;Node19 -->
<g id="edge20" class="edge">
<title>Node14&#45;&gt;Node19</title>
<path fill="none" stroke="#191970" d="M544.5588,-224.2455C528.46,-215.4928 504.6121,-202.527 486.2609,-192.5496"/>
<polygon fill="#191970" stroke="#191970" points="487.6929,-189.3444 477.2356,-187.6427 484.3493,-195.4942 487.6929,-189.3444"/>
</g>
<!-- Node20 -->
<g id="node20" class="node">
<title>Node20</title>
<g id="a_node20"><a xlink:href="maptile_8h.html" target="_top" xlink:title=" ">
<polygon fill="#ffffff" stroke="#000000" points="534.5,-168.5 534.5,-187.5 590.5,-187.5 590.5,-168.5 534.5,-168.5"/>
<text text-anchor="middle" x="562.5" y="-175.5" font-family="Helvetica,sans-Serif" font-size="10.00" fill="#000000">maptile.h</text>
</a>
</g>
</g>
<!-- Node14&#45;&gt;Node20 -->
<g id="edge21" class="edge">
<title>Node14&#45;&gt;Node20</title>
<path fill="none" stroke="#191970" d="M562.5,-224.2455C562.5,-216.9382 562.5,-206.6944 562.5,-197.7046"/>
<polygon fill="#191970" stroke="#191970" points="566.0001,-197.6426 562.5,-187.6427 559.0001,-197.6427 566.0001,-197.6426"/>
</g>
<!-- Node20&#45;&gt;Node4 -->
<g id="edge23" class="edge">
<title>Node20&#45;&gt;Node4</title>
<path fill="none" stroke="#191970" d="M534.3038,-169.9961C531.3431,-169.2707 528.368,-168.5888 525.5,-168 420.4535,-146.4327 294.1752,-131.6621 235.0804,-125.3903"/>
<polygon fill="#191970" stroke="#191970" points="235.1585,-121.8794 224.8482,-124.3183 234.4291,-128.8413 235.1585,-121.8794"/>
</g>
<!-- Node21 -->
<g id="node21" class="node">
<title>Node21</title>
<g id="a_node21"><a xlink:title=" ">
<polygon fill="#ffffff" stroke="#bfbfbf" points="515,-112.5 515,-131.5 632,-131.5 632,-112.5 515,-112.5"/>
<text text-anchor="middle" x="573.5" y="-119.5" font-family="Helvetica,sans-Serif" font-size="10.00" fill="#000000">QGraphicsPixmapItem</text>
</a>
</g>
</g>
<!-- Node20&#45;&gt;Node21 -->
<g id="edge22" class="edge">
<title>Node20&#45;&gt;Node21</title>
<path fill="none" stroke="#191970" d="M564.4161,-168.2455C565.8514,-160.9382 567.8636,-150.6944 569.6295,-141.7046"/>
<polygon fill="#191970" stroke="#191970" points="573.1127,-142.1298 571.6059,-131.6427 566.244,-140.7805 573.1127,-142.1298"/>
</g>
<!-- Node22 -->
<g id="node22" class="node">
<title>Node22</title>
<g id="a_node22"><a xlink:href="city_8h.html" target="_top" xlink:title=" ">
<polygon fill="#ffffff" stroke="#000000" points="458,-112.5 458,-131.5 497,-131.5 497,-112.5 458,-112.5"/>
<text text-anchor="middle" x="477.5" y="-119.5" font-family="Helvetica,sans-Serif" font-size="10.00" fill="#000000">city.h</text>
</a>
</g>
</g>
<!-- Node20&#45;&gt;Node22 -->
<g id="edge24" class="edge">
<title>Node20&#45;&gt;Node22</title>
<path fill="none" stroke="#191970" d="M547.6941,-168.2455C534.7744,-159.7337 515.8069,-147.2375 500.8448,-137.3801"/>
<polygon fill="#191970" stroke="#191970" points="502.4124,-134.2216 492.1362,-131.6427 498.5613,-140.067 502.4124,-134.2216"/>
</g>
<!-- Node22&#45;&gt;Node8 -->
<g id="edge25" class="edge">
<title>Node22&#45;&gt;Node8</title>
<path fill="none" stroke="#191970" d="M457.7688,-117.8705C423.376,-110.3026 354.4853,-93.3845 337.5,-76 325.4983,-63.7162 320.667,-44.4777 318.7387,-29.9344"/>
<polygon fill="#191970" stroke="#191970" points="322.2162,-29.5329 317.7593,-19.9211 315.2494,-30.2144 322.2162,-29.5329"/>
</g>
<!-- Node23 -->
<g id="node23" class="node">
<title>Node23</title>
<g id="a_node23"><a xlink:title=" ">
<polygon fill="#ffffff" stroke="#bfbfbf" points="467.5,-56.5 467.5,-75.5 511.5,-75.5 511.5,-56.5 467.5,-56.5"/>
<text text-anchor="middle" x="489.5" y="-63.5" font-family="Helvetica,sans-Serif" font-size="10.00" fill="#000000">vector</text>
</a>
</g>
</g>
<!-- Node22&#45;&gt;Node23 -->
<g id="edge26" class="edge">
<title>Node22&#45;&gt;Node23</title>
<path fill="none" stroke="#191970" d="M479.5902,-112.2455C481.1561,-104.9382 483.3512,-94.6944 485.2776,-85.7046"/>
<polygon fill="#191970" stroke="#191970" points="488.7607,-86.1541 487.4337,-75.6427 481.916,-84.6873 488.7607,-86.1541"/>
</g>
</g>
</svg>
        <g id="navigator" transform="translate(0 0)" fill="#404254">
                <rect fill="#f2f5e9" fill-opacity="0.5" stroke="#606060" stroke-width=".5" x="0" y="0" width="60" height="60"/>
                <use id="zoomplus" xlink:href="#zoomPlus" x="17" y="9" onmousedown="handleZoom(evt,'in')"/>
                <use id="zoomminus" xlink:href="#zoomMin" x="42" y="9" onmousedown="handleZoom(evt,'out')"/>
                <use id="reset" xlink:href="#resetDef" x="30" y="36" onmousedown="handleReset()"/>
                <g id="arrowUp" xlink:href="#dirArrow" transform="translate(30 24)" onmousedown="handlePan(0,-1)">
                  <use xlink:href="#rim" fill="#404040">
                        <set attributeName="fill" to="#808080" begin="arrowUp.mouseover" end="arrowUp.mouseout"/>
                  </use>
                  <path fill="none" stroke="white" stroke-width="1.5" d="M0,-3.0v7 M-2.5,-0.5L0,-3.0L2.5,-0.5"/>
                </g>
                <g id="arrowRight" xlink:href="#dirArrow" transform="rotate(90) translate(36 -43)" onmousedown="handlePan(1,0)">
                  <use xlink:href="#rim" fill="#404040">
                        <set attributeName="fill" to="#808080" begin="arrowRight.mouseover" end="arrowRight.mouseout"/>
                  </use>
                  <path fill="none" stroke="white" stroke-width="1.5" d="M0,-3.0v7 M-2.5,-0.5L0,-3.0L2.5,-0.5"/>
                </g>
                <g id="arrowDown" xlink:href="#dirArrow" transform="rotate(180) translate(-30 -48)" onmousedown="handlePan(0,1)">
                  <use xlink:href="#rim" fill="#404040">
                        <set attributeName="fill" to="#808080" begin="arrowDown.mouseover" end="arrowDown.mouseout"/>
                  </use>
                  <path fill="none" stroke="white" stroke-width="1.5" d="M0,-3.0v7 M-2.5,-0.5L0,-3.0L2.5,-0.5"/>
                </g>
                <g id="arrowLeft" xlink:href="#dirArrow" transform="rotate(270) translate(-36 17)" onmousedown="handlePan(-1,0)">
                  <use xlink:href="#rim" fill="#404040">
                        <set attributeName="fill" to="#808080" begin="arrowLeft.mouseover" end="arrowLeft.mouseout"/>
                  </use>
                  <path fill="none" stroke="white" stroke-width="1.5" d="M0,-3.0v7 M-2.5,-0.5L0,-3.0L2.5,-0.5"/>
                </g>
        </g>
        <svg viewBox="0 0 15 15" width="100%" height="30px" preserveAspectRatio="xMaxYMin meet">
         <g id="arrow_out" transform="scale(0.3 0.3)">
          <a xlink:href="view_8cpp__incl_org.svg" target="_base">
           <rect id="button" ry="5" rx="5" y="6" x="6" height="38" width="38"
                fill="#f2f5e9" fill-opacity="0.5" stroke="#606060" stroke-width="1.0"/>
           <path id="arrow"
             d="M 11.500037,31.436501 C 11.940474,20.09759 22.043105,11.32322 32.158766,21.979434 L 37.068811,17.246167 C 37.068811,17.246167 37.088388,32 37.088388,32 L 22.160133,31.978069 C 22.160133,31.978069 26.997745,27.140456 26.997745,27.140456 C 18.528582,18.264221 13.291696,25.230495 11.500037,31.436501 z"
             style="fill:#404040;"/>
          </a>
         </g>
        </svg>
</svg>
