<?xml version="1.0" encoding="UTF-8" standalone="no"?>
<!DOCTYPE svg PUBLIC "-//W3C//DTD SVG 1.1//EN"
 "http://www.w3.org/Graphics/SVG/1.1/DTD/svg11.dtd">
<!-- Generated by graphviz version 2.40.1 (20161225.0304)
 -->
<!-- Title: src/application/view.h Pages: 1 -->
<!--zoomable 308 -->
<svg id="main" version="1.1" xmlns="http://www.w3.org/2000/svg" xmlns:xlink="http://www.w3.org/1999/xlink" xml:space="preserve" onload="init(evt)">
<style type="text/css"><![CDATA[
.edge:hover path { stroke: red; }
.edge:hover polygon { stroke: red; fill: red; }
]]></style>
<script type="text/javascript"><![CDATA[
var edges = document.getElementsByTagName('g');
if (edges && edges.length) {
  for (var i=0;i<edges.length;i++) {
    if (edges[i].id.substr(0,4)=='edge') {
      edges[i].setAttribute('class','edge');
    }
  }
}
]]></script>
        <defs>
                <circle id="rim" cx="0" cy="0" r="7"/>
                <circle id="rim2" cx="0" cy="0" r="3.5"/>
                <g id="zoomPlus">
                        <use xlink:href="#rim" fill="#404040">
                                <set attributeName="fill" to="#808080" begin="zoomplus.mouseover" end="zoomplus.mouseout"/>
                        </use>
                        <path d="M-4,0h8M0,-4v8" fill="none" stroke="white" stroke-width="1.5" pointer-events="none"/>
                </g>
                <g id="zoomMin">
                        <use xlink:href="#rim" fill="#404040">
                                <set attributeName="fill" to="#808080" begin="zoomminus.mouseover" end="zoomminus.mouseout"/>
                        </use>
                        <path d="M-4,0h8" fill="none" stroke="white" stroke-width="1.5" pointer-events="none"/>
                </g>
                <g id="dirArrow">
                        <path fill="none" stroke="white" stroke-width="1.5" d="M0,-3.0v7 M-2.5,-0.5L0,-3.0L2.5,-0.5"/>
                </g>
               <g id="resetDef">
                       <use xlink:href="#rim2" fill="#404040">
                               <set attributeName="fill" to="#808080" begin="reset.mouseover" end="reset.mouseout"/>
                       </use>
               </g>
        </defs>

<script type="text/javascript">
var viewWidth = 835;
var viewHeight = 308;
var sectionId = 'dynsection-0';
</script>
<script xlink:href="svgpan.js"/>
<svg id="graph" class="graph">
<g id="viewport">
<title>src/application/view.h</title>
<polygon fill="#ffffff" stroke="transparent" points="-4,4 -4,-304 831,-304 831,4 -4,4"/>
<!-- Node1 -->
<g id="node1" class="node">
<title>Node1</title>
<g id="a_node1"><a xlink:title=" ">
<polygon fill="#bfbfbf" stroke="#000000" points="78,-280.5 78,-299.5 191,-299.5 191,-280.5 78,-280.5"/>
<text text-anchor="middle" x="134.5" y="-287.5" font-family="Helvetica,sans-Serif" font-size="10.00" fill="#000000">src/application/view.h</text>
</a>
</g>
</g>
<!-- Node2 -->
<g id="node2" class="node">
<title>Node2</title>
<g id="a_node2"><a xlink:title=" ">
<polygon fill="#ffffff" stroke="#bfbfbf" points="0,-224.5 0,-243.5 87,-243.5 87,-224.5 0,-224.5"/>
<text text-anchor="middle" x="43.5" y="-231.5" font-family="Helvetica,sans-Serif" font-size="10.00" fill="#000000">QGraphicsView</text>
</a>
</g>
</g>
<!-- Node1&#45;&gt;Node2 -->
<g id="edge1" class="edge">
<title>Node1&#45;&gt;Node2</title>
<path fill="none" stroke="#191970" d="M118.649,-280.2455C104.6868,-271.6534 84.1272,-259.0014 68.0404,-249.1018"/>
<polygon fill="#191970" stroke="#191970" points="69.5203,-245.9029 59.1693,-243.6427 65.8516,-251.8645 69.5203,-245.9029"/>
</g>
<!-- Node3 -->
<g id="node3" class="node">
<title>Node3</title>
<g id="a_node3"><a xlink:href="main_8h.html" target="_top" xlink:title=" ">
<polygon fill="#ffffff" stroke="#000000" points="190.5,-112.5 190.5,-131.5 236.5,-131.5 236.5,-112.5 190.5,-112.5"/>
<text text-anchor="middle" x="213.5" y="-119.5" font-family="Helvetica,sans-Serif" font-size="10.00" fill="#000000">main.h</text>
</a>
</g>
</g>
<!-- Node1&#45;&gt;Node3 -->
<g id="edge2" class="edge">
<title>Node1&#45;&gt;Node3</title>
<path fill="none" stroke="#191970" d="M136.079,-280.2629C139.8557,-258.8295 150.7574,-206.4211 172.5,-168 178.569,-157.2755 187.4772,-146.8891 195.4409,-138.7077"/>
<polygon fill="#191970" stroke="#191970" points="197.9906,-141.109 202.6632,-131.6002 193.0807,-136.1197 197.9906,-141.109"/>
</g>
<!-- Node12 -->
<g id="node12" class="node">
<title>Node12</title>
<g id="a_node12"><a xlink:href="datamodel_8h.html" target="_top" xlink:title=" ">
<polygon fill="#ffffff" stroke="#000000" points="79,-56.5 79,-75.5 152,-75.5 152,-56.5 79,-56.5"/>
<text text-anchor="middle" x="115.5" y="-63.5" font-family="Helvetica,sans-Serif" font-size="10.00" fill="#000000">datamodel.h</text>
</a>
</g>
</g>
<!-- Node1&#45;&gt;Node12 -->
<g id="edge27" class="edge">
<title>Node1&#45;&gt;Node12</title>
<path fill="none" stroke="#191970" d="M133.6836,-280.375C130.809,-246.4851 121.1179,-132.2317 117.1823,-85.8332"/>
<polygon fill="#191970" stroke="#191970" points="120.6461,-85.2575 116.3134,-75.5891 113.6712,-85.8492 120.6461,-85.2575"/>
</g>
<!-- Node14 -->
<g id="node14" class="node">
<title>Node14</title>
<g id="a_node14"><a xlink:href="scene_8h.html" target="_top" xlink:title=" ">
<polygon fill="#ffffff" stroke="#000000" points="437.5,-224.5 437.5,-243.5 489.5,-243.5 489.5,-224.5 437.5,-224.5"/>
<text text-anchor="middle" x="463.5" y="-231.5" font-family="Helvetica,sans-Serif" font-size="10.00" fill="#000000">scene.h</text>
</a>
</g>
</g>
<!-- Node1&#45;&gt;Node14 -->
<g id="edge15" class="edge">
<title>Node1&#45;&gt;Node14</title>
<path fill="none" stroke="#191970" d="M190.6833,-280.4369C258.4108,-268.9088 370.2358,-249.8748 427.4059,-240.1437"/>
<polygon fill="#191970" stroke="#191970" points="428.151,-243.5673 437.4218,-238.4388 426.9763,-236.6665 428.151,-243.5673"/>
</g>
<!-- Node4 -->
<g id="node4" class="node">
<title>Node4</title>
<g id="a_node4"><a xlink:href="graphicsmanager_8h.html" target="_top" xlink:title=" ">
<polygon fill="#ffffff" stroke="#000000" points="209,-56.5 209,-75.5 312,-75.5 312,-56.5 209,-56.5"/>
<text text-anchor="middle" x="260.5" y="-63.5" font-family="Helvetica,sans-Serif" font-size="10.00" fill="#000000">graphicsmanager.h</text>
</a>
</g>
</g>
<!-- Node3&#45;&gt;Node4 -->
<g id="edge3" class="edge">
<title>Node3&#45;&gt;Node4</title>
<path fill="none" stroke="#191970" d="M221.6868,-112.2455C228.3589,-104.2958 237.9479,-92.8706 245.9253,-83.3656"/>
<polygon fill="#191970" stroke="#191970" points="248.6592,-85.5525 252.407,-75.6427 243.2974,-81.0524 248.6592,-85.5525"/>
</g>
<!-- Node9 -->
<g id="node9" class="node">
<title>Node9</title>
<g id="a_node9"><a xlink:href="mainwindow_8h.html" target="_top" xlink:title=" ">
<polygon fill="#ffffff" stroke="#000000" points="364.5,-56.5 364.5,-75.5 444.5,-75.5 444.5,-56.5 364.5,-56.5"/>
<text text-anchor="middle" x="404.5" y="-63.5" font-family="Helvetica,sans-Serif" font-size="10.00" fill="#000000">mainwindow.h</text>
</a>
</g>
</g>
<!-- Node3&#45;&gt;Node9 -->
<g id="edge8" class="edge">
<title>Node3&#45;&gt;Node9</title>
<path fill="none" stroke="#191970" d="M236.5391,-115.2451C267.5063,-106.1657 323.133,-89.8563 361.8475,-78.5054"/>
<polygon fill="#191970" stroke="#191970" points="363.1802,-81.7621 371.7915,-75.5899 361.2107,-75.0449 363.1802,-81.7621"/>
</g>
<!-- Node3&#45;&gt;Node12 -->
<g id="edge11" class="edge">
<title>Node3&#45;&gt;Node12</title>
<path fill="none" stroke="#191970" d="M196.4297,-112.2455C181.253,-103.5731 158.8379,-90.7645 141.4437,-80.825"/>
<polygon fill="#191970" stroke="#191970" points="142.7936,-77.5653 132.3747,-75.6427 139.3206,-83.643 142.7936,-77.5653"/>
</g>
<!-- Node13 -->
<g id="node13" class="node">
<title>Node13</title>
<g id="a_node13"><a xlink:title=" ">
<polygon fill="#ffffff" stroke="#bfbfbf" points="27,-.5 27,-19.5 76,-19.5 76,-.5 27,-.5"/>
<text text-anchor="middle" x="51.5" y="-7.5" font-family="Helvetica,sans-Serif" font-size="10.00" fill="#000000">QLabel</text>
</a>
</g>
</g>
<!-- Node3&#45;&gt;Node13 -->
<g id="edge14" class="edge">
<title>Node3&#45;&gt;Node13</title>
<path fill="none" stroke="#191970" d="M190.2899,-117.3931C154.0165,-109.7466 86.2934,-93.5305 69.5,-76 57.7153,-63.698 53.4857,-44.4617 52.0446,-29.9238"/>
<polygon fill="#191970" stroke="#191970" points="55.5357,-29.6724 51.4072,-19.9151 48.5499,-30.1173 55.5357,-29.6724"/>
</g>
<!-- Node5 -->
<g id="node5" class="node">
<title>Node5</title>
<g id="a_node5"><a xlink:title=" ">
<polygon fill="#ffffff" stroke="#bfbfbf" points="153.5,-.5 153.5,-19.5 241.5,-19.5 241.5,-.5 153.5,-.5"/>
<text text-anchor="middle" x="197.5" y="-7.5" font-family="Helvetica,sans-Serif" font-size="10.00" fill="#000000">unordered_map</text>
</a>
</g>
</g>
<!-- Node4&#45;&gt;Node5 -->
<g id="edge4" class="edge">
<title>Node4&#45;&gt;Node5</title>
<path fill="none" stroke="#191970" d="M249.5262,-56.2455C240.3118,-48.0549 226.9468,-36.1749 216.0703,-26.5069"/>
<polygon fill="#191970" stroke="#191970" points="218.1474,-23.6704 208.348,-19.6427 213.4968,-28.9023 218.1474,-23.6704"/>
</g>
<!-- Node6 -->
<g id="node6" class="node">
<title>Node6</title>
<g id="a_node6"><a xlink:title=" ">
<polygon fill="#ffffff" stroke="#bfbfbf" points="259.5,-.5 259.5,-19.5 317.5,-19.5 317.5,-.5 259.5,-.5"/>
<text text-anchor="middle" x="288.5" y="-7.5" font-family="Helvetica,sans-Serif" font-size="10.00" fill="#000000">QPixmap</text>
</a>
</g>
</g>
<!-- Node4&#45;&gt;Node6 -->
<g id="edge5" class="edge">
<title>Node4&#45;&gt;Node6</title>
<path fill="none" stroke="#191970" d="M265.3772,-56.2455C269.1513,-48.6973 274.4921,-38.0158 279.0901,-28.8197"/>
<polygon fill="#191970" stroke="#191970" points="282.337,-30.1522 283.6787,-19.6427 276.076,-27.0217 282.337,-30.1522"/>
</g>
<!-- Node7 -->
<g id="node7" class="node">
<title>Node7</title>
<g id="a_node7"><a xlink:title=" ">
<polygon fill="#ffffff" stroke="#bfbfbf" points="336,-.5 336,-19.5 389,-19.5 389,-.5 336,-.5"/>
<text text-anchor="middle" x="362.5" y="-7.5" font-family="Helvetica,sans-Serif" font-size="10.00" fill="#000000">QImage</text>
</a>
</g>
</g>
<!-- Node4&#45;&gt;Node7 -->
<g id="edge6" class="edge">
<title>Node4&#45;&gt;Node7</title>
<path fill="none" stroke="#191970" d="M278.267,-56.2455C294.2095,-47.4928 317.8259,-34.527 335.9989,-24.5496"/>
<polygon fill="#191970" stroke="#191970" points="337.8552,-27.5233 344.9366,-19.6427 334.4863,-21.3873 337.8552,-27.5233"/>
</g>
<!-- Node8 -->
<g id="node8" class="node">
<title>Node8</title>
<g id="a_node8"><a xlink:title=" ">
<polygon fill="#ffffff" stroke="#bfbfbf" points="94,-.5 94,-19.5 135,-19.5 135,-.5 94,-.5"/>
<text text-anchor="middle" x="114.5" y="-7.5" font-family="Helvetica,sans-Serif" font-size="10.00" fill="#000000">string</text>
</a>
</g>
</g>
<!-- Node4&#45;&gt;Node8 -->
<g id="edge7" class="edge">
<title>Node4&#45;&gt;Node8</title>
<path fill="none" stroke="#191970" d="M235.4017,-56.3733C210.2432,-46.7234 171.4943,-31.8608 144.6752,-21.5741"/>
<polygon fill="#191970" stroke="#191970" points="145.624,-18.1894 135.0338,-17.876 143.1172,-24.7251 145.624,-18.1894"/>
</g>
<!-- Node10 -->
<g id="node10" class="node">
<title>Node10</title>
<g id="a_node10"><a xlink:title=" ">
<polygon fill="#ffffff" stroke="#bfbfbf" points="492,-.5 492,-19.5 575,-19.5 575,-.5 492,-.5"/>
<text text-anchor="middle" x="533.5" y="-7.5" font-family="Helvetica,sans-Serif" font-size="10.00" fill="#000000">QMainWindow</text>
</a>
</g>
</g>
<!-- Node9&#45;&gt;Node10 -->
<g id="edge9" class="edge">
<title>Node9&#45;&gt;Node10</title>
<path fill="none" stroke="#191970" d="M426.6759,-56.3733C447.4766,-47.3435 478.7917,-33.7494 502.1458,-23.6111"/>
<polygon fill="#191970" stroke="#191970" points="503.8343,-26.6938 511.6135,-19.5011 501.0468,-20.2727 503.8343,-26.6938"/>
</g>
<!-- Node11 -->
<g id="node11" class="node">
<title>Node11</title>
<g id="a_node11"><a xlink:title=" ">
<polygon fill="#ffffff" stroke="#bfbfbf" points="407,-.5 407,-19.5 474,-19.5 474,-.5 407,-.5"/>
<text text-anchor="middle" x="440.5" y="-7.5" font-family="Helvetica,sans-Serif" font-size="10.00" fill="#000000">QKeyEvent</text>
</a>
</g>
</g>
<!-- Node9&#45;&gt;Node11 -->
<g id="edge10" class="edge">
<title>Node9&#45;&gt;Node11</title>
<path fill="none" stroke="#191970" d="M410.7707,-56.2455C415.7264,-48.5367 422.783,-37.5598 428.7776,-28.2348"/>
<polygon fill="#191970" stroke="#191970" points="431.8376,-29.9471 434.3011,-19.6427 425.9494,-26.1618 431.8376,-29.9471"/>
</g>
<!-- Node12&#45;&gt;Node8 -->
<g id="edge12" class="edge">
<title>Node12&#45;&gt;Node8</title>
<path fill="none" stroke="#191970" d="M115.3258,-56.2455C115.1953,-48.9382 115.0124,-38.6944 114.8519,-29.7046"/>
<polygon fill="#191970" stroke="#191970" points="118.3503,-29.5786 114.6722,-19.6427 111.3514,-29.7036 118.3503,-29.5786"/>
</g>
<!-- Node12&#45;&gt;Node13 -->
<g id="edge13" class="edge">
<title>Node12&#45;&gt;Node13</title>
<path fill="none" stroke="#191970" d="M104.3521,-56.2455C94.9913,-48.0549 81.4142,-36.1749 70.3651,-26.5069"/>
<polygon fill="#191970" stroke="#191970" points="72.3508,-23.5937 62.5202,-19.6427 67.7412,-28.8618 72.3508,-23.5937"/>
</g>
<!-- Node15 -->
<g id="node15" class="node">
<title>Node15</title>
<g id="a_node15"><a xlink:title=" ">
<polygon fill="#ffffff" stroke="#bfbfbf" points="509.5,-168.5 509.5,-187.5 603.5,-187.5 603.5,-168.5 509.5,-168.5"/>
<text text-anchor="middle" x="556.5" y="-175.5" font-family="Helvetica,sans-Serif" font-size="10.00" fill="#000000">QGraphicsScene</text>
</a>
</g>
</g>
<!-- Node14&#45;&gt;Node15 -->
<g id="edge16" class="edge">
<title>Node14&#45;&gt;Node15</title>
<path fill="none" stroke="#191970" d="M479.6994,-224.2455C494.1018,-215.5731 515.3732,-202.7645 531.8799,-192.825"/>
<polygon fill="#191970" stroke="#191970" points="533.725,-195.7996 540.4863,-187.6427 530.114,-189.8028 533.725,-195.7996"/>
</g>
<!-- Node16 -->
<g id="node16" class="node">
<title>Node16</title>
<g id="a_node16"><a xlink:title=" ">
<polygon fill="#ffffff" stroke="#bfbfbf" points="621.5,-168.5 621.5,-187.5 725.5,-187.5 725.5,-168.5 621.5,-168.5"/>
<text text-anchor="middle" x="673.5" y="-175.5" font-family="Helvetica,sans-Serif" font-size="10.00" fill="#000000">QGraphicsTextItem</text>
</a>
</g>
</g>
<!-- Node14&#45;&gt;Node16 -->
<g id="edge17" class="edge">
<title>Node14&#45;&gt;Node16</title>
<path fill="none" stroke="#191970" d="M489.672,-227.0208C524.2804,-217.7919 585.8138,-201.383 628.0862,-190.1104"/>
<polygon fill="#191970" stroke="#191970" points="629.0973,-193.4631 637.8578,-187.5046 627.2936,-186.6995 629.0973,-193.4631"/>
</g>
<!-- Node17 -->
<g id="node17" class="node">
<title>Node17</title>
<g id="a_node17"><a xlink:title=" ">
<polygon fill="#ffffff" stroke="#bfbfbf" points="744,-168.5 744,-187.5 827,-187.5 827,-168.5 744,-168.5"/>
<text text-anchor="middle" x="785.5" y="-175.5" font-family="Helvetica,sans-Serif" font-size="10.00" fill="#000000">QGraphicsItem</text>
</a>
</g>
</g>
<!-- Node14&#45;&gt;Node17 -->
<g id="edge18" class="edge">
<title>Node14&#45;&gt;Node17</title>
<path fill="none" stroke="#191970" d="M489.6999,-229.7806C536.5076,-222.1934 637.816,-205.551 733.8903,-188.0757"/>
<polygon fill="#191970" stroke="#191970" points="734.559,-191.5116 743.7679,-186.2726 733.3019,-184.6254 734.559,-191.5116"/>
</g>
<!-- Node18 -->
<g id="node18" class="node">
<title>Node18</title>
<g id="a_node18"><a xlink:title=" ">
<polygon fill="#ffffff" stroke="#bfbfbf" points="181.5,-168.5 181.5,-187.5 285.5,-187.5 285.5,-168.5 181.5,-168.5"/>
<text text-anchor="middle" x="233.5" y="-175.5" font-family="Helvetica,sans-Serif" font-size="10.00" fill="#000000">QGraphicsRectItem</text>
</a>
</g>
</g>
<!-- Node14&#45;&gt;Node18 -->
<g id="edge19" class="edge">
<title>Node14&#45;&gt;Node18</title>
<path fill="none" stroke="#191970" d="M437.1161,-227.5761C399.4415,-218.4031 329.571,-201.3912 282.3114,-189.8845"/>
<polygon fill="#191970" stroke="#191970" points="283.1338,-186.4826 272.5896,-187.5175 281.4778,-193.2839 283.1338,-186.4826"/>
</g>
<!-- Node19 -->
<g id="node19" class="node">
<title>Node19</title>
<g id="a_node19"><a xlink:title=" ">
<polygon fill="#ffffff" stroke="#bfbfbf" points="304,-168.5 304,-187.5 417,-187.5 417,-168.5 304,-168.5"/>
<text text-anchor="middle" x="360.5" y="-175.5" font-family="Helvetica,sans-Serif" font-size="10.00" fill="#000000">QGraphicsEllipseItem</text>
</a>
</g>
</g>
<!-- Node14&#45;&gt;Node19 -->
<g id="edge20" class="edge">
<title>Node14&#45;&gt;Node19</title>
<path fill="none" stroke="#191970" d="M445.5588,-224.2455C429.46,-215.4928 405.6121,-202.527 387.2609,-192.5496"/>
<polygon fill="#191970" stroke="#191970" points="388.6929,-189.3444 378.2356,-187.6427 385.3493,-195.4942 388.6929,-189.3444"/>
</g>
<!-- Node20 -->
<g id="node20" class="node">
<title>Node20</title>
<g id="a_node20"><a xlink:href="maptile_8h.html" target="_top" xlink:title=" ">
<polygon fill="#ffffff" stroke="#000000" points="435.5,-168.5 435.5,-187.5 491.5,-187.5 491.5,-168.5 435.5,-168.5"/>
<text text-anchor="middle" x="463.5" y="-175.5" font-family="Helvetica,sans-Serif" font-size="10.00" fill="#000000">maptile.h</text>
</a>
</g>
</g>
<!-- Node14&#45;&gt;Node20 -->
<g id="edge21" class="edge">
<title>Node14&#45;&gt;Node20</title>
<path fill="none" stroke="#191970" d="M463.5,-224.2455C463.5,-216.9382 463.5,-206.6944 463.5,-197.7046"/>
<polygon fill="#191970" stroke="#191970" points="467.0001,-197.6426 463.5,-187.6427 460.0001,-197.6427 467.0001,-197.6426"/>
</g>
<!-- Node20&#45;&gt;Node3 -->
<g id="edge23" class="edge">
<title>Node20&#45;&gt;Node3</title>
<path fill="none" stroke="#191970" d="M435.2566,-170.2067C432.3051,-169.4402 429.345,-168.6912 426.5,-168 363.1252,-152.6033 288.5148,-137.0833 246.5395,-128.588"/>
<polygon fill="#191970" stroke="#191970" points="247.0921,-125.1291 236.5976,-126.5839 245.7088,-131.9911 247.0921,-125.1291"/>
</g>
<!-- Node21 -->
<g id="node21" class="node">
<title>Node21</title>
<g id="a_node21"><a xlink:title=" ">
<polygon fill="#ffffff" stroke="#bfbfbf" points="453,-112.5 453,-131.5 570,-131.5 570,-112.5 453,-112.5"/>
<text text-anchor="middle" x="511.5" y="-119.5" font-family="Helvetica,sans-Serif" font-size="10.00" fill="#000000">QGraphicsPixmapItem</text>
</a>
</g>
</g>
<!-- Node20&#45;&gt;Node21 -->
<g id="edge22" class="edge">
<title>Node20&#45;&gt;Node21</title>
<path fill="none" stroke="#191970" d="M471.861,-168.2455C478.675,-160.2958 488.4681,-148.8706 496.6152,-139.3656"/>
<polygon fill="#191970" stroke="#191970" points="499.3843,-141.513 503.2349,-131.6427 494.0695,-136.9575 499.3843,-141.513"/>
</g>
<!-- Node22 -->
<g id="node22" class="node">
<title>Node22</title>
<g id="a_node22"><a xlink:href="city_8h.html" target="_top" xlink:title=" ">
<polygon fill="#ffffff" stroke="#000000" points="396,-112.5 396,-131.5 435,-131.5 435,-112.5 396,-112.5"/>
<text text-anchor="middle" x="415.5" y="-119.5" font-family="Helvetica,sans-Serif" font-size="10.00" fill="#000000">city.h</text>
</a>
</g>
</g>
<!-- Node20&#45;&gt;Node22 -->
<g id="edge24" class="edge">
<title>Node20&#45;&gt;Node22</title>
<path fill="none" stroke="#191970" d="M455.139,-168.2455C448.325,-160.2958 438.5319,-148.8706 430.3848,-139.3656"/>
<polygon fill="#191970" stroke="#191970" points="432.9305,-136.9575 423.7651,-131.6427 427.6157,-141.513 432.9305,-136.9575"/>
</g>
<!-- Node22&#45;&gt;Node8 -->
<g id="edge25" class="edge">
<title>Node22&#45;&gt;Node8</title>
<path fill="none" stroke="#191970" d="M395.8006,-120.7525C356.6774,-117.6533 267.1273,-107.4278 199.5,-76 173.241,-63.7969 147.6227,-42.1793 131.4938,-27.0191"/>
<polygon fill="#191970" stroke="#191970" points="133.5988,-24.1867 123.9713,-19.7639 128.7394,-29.2252 133.5988,-24.1867"/>
</g>
<!-- Node23 -->
<g id="node23" class="node">
<title>Node23</title>
<g id="a_node23"><a xlink:title=" ">
<polygon fill="#ffffff" stroke="#bfbfbf" points="462.5,-56.5 462.5,-75.5 506.5,-75.5 506.5,-56.5 462.5,-56.5"/>
<text text-anchor="middle" x="484.5" y="-63.5" font-family="Helvetica,sans-Serif" font-size="10.00" fill="#000000">vector</text>
</a>
</g>
</g>
<!-- Node22&#45;&gt;Node23 -->
<g id="edge26" class="edge">
<title>Node22&#45;&gt;Node23</title>
<path fill="none" stroke="#191970" d="M427.5189,-112.2455C437.7098,-103.9746 452.5362,-91.9416 464.5107,-82.2232"/>
<polygon fill="#191970" stroke="#191970" points="467.0598,-84.662 472.6188,-75.6427 462.6486,-79.2268 467.0598,-84.662"/>
</g>
</g>
</svg>
        <g id="navigator" transform="translate(0 0)" fill="#404254">
                <rect fill="#f2f5e9" fill-opacity="0.5" stroke="#606060" stroke-width=".5" x="0" y="0" width="60" height="60"/>
                <use id="zoomplus" xlink:href="#zoomPlus" x="17" y="9" onmousedown="handleZoom(evt,'in')"/>
                <use id="zoomminus" xlink:href="#zoomMin" x="42" y="9" onmousedown="handleZoom(evt,'out')"/>
                <use id="reset" xlink:href="#resetDef" x="30" y="36" onmousedown="handleReset()"/>
                <g id="arrowUp" xlink:href="#dirArrow" transform="translate(30 24)" onmousedown="handlePan(0,-1)">
                  <use xlink:href="#rim" fill="#404040">
                        <set attributeName="fill" to="#808080" begin="arrowUp.mouseover" end="arrowUp.mouseout"/>
                  </use>
                  <path fill="none" stroke="white" stroke-width="1.5" d="M0,-3.0v7 M-2.5,-0.5L0,-3.0L2.5,-0.5"/>
                </g>
                <g id="arrowRight" xlink:href="#dirArrow" transform="rotate(90) translate(36 -43)" onmousedown="handlePan(1,0)">
                  <use xlink:href="#rim" fill="#404040">
                        <set attributeName="fill" to="#808080" begin="arrowRight.mouseover" end="arrowRight.mouseout"/>
                  </use>
                  <path fill="none" stroke="white" stroke-width="1.5" d="M0,-3.0v7 M-2.5,-0.5L0,-3.0L2.5,-0.5"/>
                </g>
                <g id="arrowDown" xlink:href="#dirArrow" transform="rotate(180) translate(-30 -48)" onmousedown="handlePan(0,1)">
                  <use xlink:href="#rim" fill="#404040">
                        <set attributeName="fill" to="#808080" begin="arrowDown.mouseover" end="arrowDown.mouseout"/>
                  </use>
                  <path fill="none" stroke="white" stroke-width="1.5" d="M0,-3.0v7 M-2.5,-0.5L0,-3.0L2.5,-0.5"/>
                </g>
                <g id="arrowLeft" xlink:href="#dirArrow" transform="rotate(270) translate(-36 17)" onmousedown="handlePan(-1,0)">
                  <use xlink:href="#rim" fill="#404040">
                        <set attributeName="fill" to="#808080" begin="arrowLeft.mouseover" end="arrowLeft.mouseout"/>
                  </use>
                  <path fill="none" stroke="white" stroke-width="1.5" d="M0,-3.0v7 M-2.5,-0.5L0,-3.0L2.5,-0.5"/>
                </g>
        </g>
        <svg viewBox="0 0 15 15" width="100%" height="30px" preserveAspectRatio="xMaxYMin meet">
         <g id="arrow_out" transform="scale(0.3 0.3)">
          <a xlink:href="view_8h__incl_org.svg" target="_base">
           <rect id="button" ry="5" rx="5" y="6" x="6" height="38" width="38"
                fill="#f2f5e9" fill-opacity="0.5" stroke="#606060" stroke-width="1.0"/>
           <path id="arrow"
             d="M 11.500037,31.436501 C 11.940474,20.09759 22.043105,11.32322 32.158766,21.979434 L 37.068811,17.246167 C 37.068811,17.246167 37.088388,32 37.088388,32 L 22.160133,31.978069 C 22.160133,31.978069 26.997745,27.140456 26.997745,27.140456 C 18.528582,18.264221 13.291696,25.230495 11.500037,31.436501 z"
             style="fill:#404040;"/>
          </a>
         </g>
        </svg>
</svg>
